<?xml version="1.0" encoding="UTF-8" standalone="no"?>
<!-- Created with Inkscape (http://www.inkscape.org/) -->

<svg
   xmlns:ns0="http://www.iki.fi/pav/software/textext/"
   xmlns:dc="http://purl.org/dc/elements/1.1/"
   xmlns:cc="http://creativecommons.org/ns#"
   xmlns:rdf="http://www.w3.org/1999/02/22-rdf-syntax-ns#"
   xmlns:svg="http://www.w3.org/2000/svg"
   xmlns="http://www.w3.org/2000/svg"
   xmlns:sodipodi="http://sodipodi.sourceforge.net/DTD/sodipodi-0.dtd"
   xmlns:inkscape="http://www.inkscape.org/namespaces/inkscape"
   width="496.06299"
   height="354.33069"
   id="svg2"
   version="1.1"
   inkscape:version="0.48.4 r9939"
   sodipodi:docname="ans5.4.eps">
  <sodipodi:namedview
     id="base"
     pagecolor="#ffffff"
     bordercolor="#666666"
     borderopacity="1.0"
     inkscape:pageopacity="0.0"
     inkscape:pageshadow="2"
     inkscape:zoom="1.6848668"
     inkscape:cx="248.03149"
     inkscape:cy="177.16534"
     inkscape:document-units="cm"
     inkscape:current-layer="layer1"
     showgrid="false"
     units="cm"
     inkscape:object-nodes="true"
     inkscape:window-width="1366"
     inkscape:window-height="744"
     inkscape:window-x="0"
     inkscape:window-y="24"
     inkscape:window-maximized="1">
    <inkscape:grid
       snapvisiblegridlinesonly="true"
       enabled="true"
       visible="true"
       empspacing="5"
       id="grid2985"
       type="xygrid" />
  </sodipodi:namedview>
  <defs
     id="defs4">
    <marker
       style="overflow:visible"
       id="Arrow1Mstart"
       refX="0"
       refY="0"
       orient="auto"
       inkscape:stockid="Arrow1Mstart">
      <path
         transform="matrix(0.4,0,0,0.4,4,0)"
         style="fill-rule:evenodd;stroke:#000000;stroke-width:1pt"
         d="M 0,0 5,-5 -12.5,0 5,5 0,0 z"
         id="path3775"
         inkscape:connector-curvature="0" />
    </marker>
    <marker
       style="overflow:visible"
       id="Arrow1Mend"
       refX="0"
       refY="0"
       orient="auto"
       inkscape:stockid="Arrow1Mend">
      <path
         transform="matrix(-0.4,0,0,-0.4,-4,0)"
         style="fill-rule:evenodd;stroke:#000000;stroke-width:1pt"
         d="M 0,0 5,-5 -12.5,0 5,5 0,0 z"
         id="path3778"
         inkscape:connector-curvature="0" />
    </marker>
    <marker
       inkscape:stockid="Arrow1Mstart"
       orient="auto"
       refY="0"
       refX="0"
       id="Arrow1Mstart-7"
       style="overflow:visible">
      <path
         inkscape:connector-curvature="0"
         id="path3775-8"
         d="M 0,0 5,-5 -12.5,0 5,5 0,0 z"
         style="fill-rule:evenodd;stroke:#000000;stroke-width:1pt"
         transform="matrix(0.4,0,0,0.4,4,0)" />
    </marker>
    <marker
       inkscape:stockid="Arrow1Mend"
       orient="auto"
       refY="0"
       refX="0"
       id="Arrow1Mend-5"
       style="overflow:visible">
      <path
         inkscape:connector-curvature="0"
         id="path3778-9"
         d="M 0,0 5,-5 -12.5,0 5,5 0,0 z"
         style="fill-rule:evenodd;stroke:#000000;stroke-width:1pt"
         transform="matrix(-0.4,0,0,-0.4,-4,0)" />
    </marker>
    <marker
       inkscape:stockid="Arrow1Mstart"
       orient="auto"
       refY="0"
       refX="0"
       id="Arrow1Mstart-2"
       style="overflow:visible">
      <path
         inkscape:connector-curvature="0"
         id="path3775-1"
         d="M 0,0 5,-5 -12.5,0 5,5 0,0 z"
         style="fill-rule:evenodd;stroke:#000000;stroke-width:1pt"
         transform="matrix(0.4,0,0,0.4,4,0)" />
    </marker>
    <marker
       style="overflow:visible"
       id="Arrow1Mstart-7-5"
       refX="0"
       refY="0"
       orient="auto"
       inkscape:stockid="Arrow1Mstart">
      <path
         transform="matrix(0.4,0,0,0.4,4,0)"
         style="fill-rule:evenodd;stroke:#000000;stroke-width:1pt"
         d="M 0,0 5,-5 -12.5,0 5,5 0,0 z"
         id="path3775-8-6"
         inkscape:connector-curvature="0" />
    </marker>
    <marker
       inkscape:stockid="Arrow1Mend"
       orient="auto"
       refY="0"
       refX="0"
       id="Arrow1Mend-51"
       style="overflow:visible">
      <path
         inkscape:connector-curvature="0"
         id="path3778-4"
         d="M 0,0 5,-5 -12.5,0 5,5 0,0 z"
         style="fill-rule:evenodd;stroke:#000000;stroke-width:1pt"
         transform="matrix(-0.4,0,0,-0.4,-4,0)" />
    </marker>
    <marker
       inkscape:stockid="Arrow1Mstart"
       orient="auto"
       refY="0"
       refX="0"
       id="Arrow1Mstart-4"
       style="overflow:visible">
      <path
         inkscape:connector-curvature="0"
         id="path3775-6"
         d="M 0,0 5,-5 -12.5,0 5,5 0,0 z"
         style="fill-rule:evenodd;stroke:#000000;stroke-width:1pt"
         transform="matrix(0.4,0,0,0.4,4,0)" />
    </marker>
  </defs>
  <metadata
     id="metadata7">
    <rdf:RDF>
      <cc:Work
         rdf:about="">
        <dc:format>image/svg+xml</dc:format>
        <dc:type
           rdf:resource="http://purl.org/dc/dcmitype/StillImage" />
        <dc:title></dc:title>
      </cc:Work>
    </rdf:RDF>
  </metadata>
  <g
     transform="translate(0,-698.03016)"
     id="layer1"
     inkscape:groupmode="layer"
     inkscape:label="Layer 1">
    <path
       style="fill:none;stroke:#000000;stroke-width:1.20000005;stroke-linecap:square;stroke-linejoin:round;stroke-miterlimit:4;stroke-opacity:1;stroke-dasharray:none;stroke-dashoffset:0"
       d="m 110,872.36085 95,0"
       id="path3048"
       inkscape:connector-curvature="0"
       sodipodi:nodetypes="cc" />
    <path
       style="fill:none;stroke:#000000;stroke-width:1.20000005;stroke-linecap:square;stroke-linejoin:round;stroke-miterlimit:4;stroke-opacity:1;stroke-dasharray:none;stroke-dashoffset:0"
       d="m 110,822.36085 95,0"
       id="path3240"
       inkscape:connector-curvature="0"
       sodipodi:nodetypes="cc" />
    <path
       d="m 112,797.36084 c 0,1.10457 -0.89543,2 -2,2 -1.10457,0 -2,-0.89543 -2,-2 0,-1.10457 0.89543,-2 2,-2 1.10457,0 2,0.89543 2,2 z"
       sodipodi:ry="2"
       sodipodi:rx="2"
       sodipodi:cy="797.36084"
       sodipodi:cx="110"
       style="fill:#000000;stroke:none"
       id="path3242"
       sodipodi:type="arc"
       transform="translate(0,24.999993)" />
    <text
       xml:space="preserve"
       style="font-size:12px;font-style:normal;font-variant:normal;font-weight:normal;font-stretch:normal;text-align:start;line-height:100%;letter-spacing:0px;word-spacing:0px;text-anchor:start;fill:#000000;fill-opacity:1;stroke:none;font-family:LMRoman12;-inkscape-font-specification:Sans"
       x="104.74892"
       y="653.59326"
       id="text5818"
       sodipodi:linespacing="100%"><tspan
         sodipodi:role="line"
         id="tspan5820"
         x="104.74892"
         y="653.59326" /></text>
    <flowRoot
       transform="translate(43.048363,-100.4773)"
       style="font-size:12px;font-style:normal;font-variant:normal;font-weight:normal;font-stretch:normal;text-align:start;line-height:100%;letter-spacing:0px;word-spacing:0px;text-anchor:start;fill:#000000;fill-opacity:1;stroke:none;font-family:LMRoman12;-inkscape-font-specification:Sans"
       id="flowRoot6377"
       xml:space="preserve"><flowRegion
         id="flowRegion6379"><rect
           y="87.141403"
           x="219.34796"
           height="40.319103"
           width="27.681772"
           id="rect6381" /></flowRegion><flowPara
         id="flowPara6383" /></flowRoot>    <text
       sodipodi:linespacing="50%"
       id="text6385"
       y="652.80005"
       x="318.96344"
       style="font-size:12px;font-style:normal;font-variant:normal;font-weight:normal;font-stretch:normal;text-align:start;line-height:50%;letter-spacing:0px;word-spacing:0px;text-anchor:start;fill:#000000;fill-opacity:1;stroke:none;font-family:LMRoman12;-inkscape-font-specification:Sans"
       xml:space="preserve"><tspan
         id="tspan6387"
         sodipodi:role="line"
         x="318.96344"
         y="652.80005" /></text>
    <text
       sodipodi:linespacing="100%"
       id="text3884"
       y="791.93988"
       x="391.70255"
       style="font-size:12px;font-style:normal;font-variant:normal;font-weight:normal;font-stretch:normal;text-align:start;line-height:100%;letter-spacing:0px;word-spacing:0px;text-anchor:start;fill:#000000;fill-opacity:1;stroke:none;font-family:LMRoman12;-inkscape-font-specification:Sans"
       xml:space="preserve"><tspan
         id="tspan3890"
         y="791.93988"
         x="391.70255"
         sodipodi:role="line" /></text>
    <text
       sodipodi:linespacing="150%"
       id="text3887"
       y="848.4502"
       x="260.01465"
       style="font-size:12px;font-style:normal;font-variant:normal;font-weight:normal;font-stretch:normal;text-align:start;line-height:150%;letter-spacing:0px;word-spacing:0px;text-anchor:start;fill:#000000;fill-opacity:1;stroke:none;font-family:LMRoman12;-inkscape-font-specification:Sans"
       xml:space="preserve"><tspan
         y="848.4502"
         x="260.01465"
         id="tspan3889"
         sodipodi:role="line" /></text>
    <path
       style="fill:none;stroke:#000000;stroke-width:1.20000005;stroke-linecap:square;stroke-linejoin:round;stroke-miterlimit:4;stroke-opacity:1;stroke-dasharray:none;stroke-dashoffset:0"
       d="m 380,847.36085 35,0"
       id="path4239-3"
       inkscape:connector-curvature="0"
       sodipodi:nodetypes="cc" />
    <path
       sodipodi:nodetypes="cc"
       inkscape:connector-curvature="0"
       id="path8399"
       d="m 110,792.36085 95,0"
       style="fill:none;stroke:#000000;stroke-width:1.20000005;stroke-linecap:square;stroke-linejoin:round;stroke-miterlimit:4;stroke-opacity:1;stroke-dasharray:none;stroke-dashoffset:0" />
    <path
       style="fill:none;stroke:#000000;stroke-width:1.20000005;stroke-linecap:square;stroke-linejoin:round;stroke-miterlimit:4;stroke-opacity:1;stroke-dasharray:none;stroke-dashoffset:0"
       d="m 110,902.36085 95,0"
       id="path8401"
       inkscape:connector-curvature="0"
       sodipodi:nodetypes="cc" />
    <path
       style="fill:none;stroke:#000000;stroke-width:1.20000005;stroke-linecap:square;stroke-linejoin:round;stroke-miterlimit:4;stroke-opacity:1;stroke-dasharray:none;stroke-dashoffset:0"
       d="m 245,109.33069 45,0 0,30 50,0"
       id="path8403"
       inkscape:connector-curvature="0"
       transform="translate(0,698.03016)"
       sodipodi:nodetypes="cccc" />
    <path
       inkscape:connector-curvature="0"
       id="path8405"
       d="m 245,887.36085 45,0 0,-30 50,0"
       style="fill:none;stroke:#000000;stroke-width:1.20000005;stroke-linecap:square;stroke-linejoin:round;stroke-miterlimit:4;stroke-opacity:1;stroke-dasharray:none;stroke-dashoffset:0"
       sodipodi:nodetypes="cccc" />
    <path
       transform="translate(0,700.75809)"
       sodipodi:ry="0"
       sodipodi:rx="0"
       sodipodi:cy="119.33069"
       sodipodi:cx="160"
       id="path8419"
       style="fill:#ffffff;fill-opacity:1;stroke:#000000;stroke-width:0.80000001;stroke-linecap:square;stroke-linejoin:round;stroke-miterlimit:4;stroke-opacity:1;stroke-dasharray:none;stroke-dashoffset:0"
       sodipodi:type="arc" />
    <path
       transform="translate(0,700.75809)"
       sodipodi:ry="0"
       sodipodi:rx="0"
       sodipodi:cy="119.33069"
       sodipodi:cx="160"
       id="path8421"
       style="fill:#ffffff;fill-opacity:1;stroke:#000000;stroke-width:0.80000001;stroke-linecap:square;stroke-linejoin:round;stroke-miterlimit:4;stroke-opacity:1;stroke-dasharray:none;stroke-dashoffset:0"
       sodipodi:type="arc" />
    <path
       sodipodi:type="arc"
       style="fill:#ffffff;fill-opacity:1;stroke:#000000;stroke-width:0.80000001;stroke-linecap:square;stroke-linejoin:round;stroke-miterlimit:4;stroke-opacity:1;stroke-dasharray:none;stroke-dashoffset:0"
       id="path8425"
       sodipodi:cx="160"
       sodipodi:cy="119.33069"
       sodipodi:rx="0"
       sodipodi:ry="0"
       transform="translate(0,700.75809)" />
    <path
       sodipodi:type="arc"
       style="fill:#ffffff;fill-opacity:1;stroke:#000000;stroke-width:0.80000001;stroke-linecap:square;stroke-linejoin:round;stroke-miterlimit:4;stroke-opacity:1;stroke-dasharray:none;stroke-dashoffset:0"
       id="path8415-2"
       sodipodi:cx="160"
       sodipodi:cy="119.33069"
       sodipodi:rx="0"
       sodipodi:ry="0"
       transform="translate(0,701.38761)" />
    <path
       transform="translate(0,701.38761)"
       sodipodi:ry="0"
       sodipodi:rx="0"
       sodipodi:cy="119.33069"
       sodipodi:cx="160"
       id="path8480"
       style="fill:#ffffff;fill-opacity:1;stroke:#000000;stroke-width:0.80000001;stroke-linecap:square;stroke-linejoin:round;stroke-miterlimit:4;stroke-opacity:1;stroke-dasharray:none;stroke-dashoffset:0"
       sodipodi:type="arc" />
    <path
       transform="translate(15,-5.0000015)"
       sodipodi:type="arc"
       id="path8535"
       style="fill:#000000;stroke:none"
       sodipodi:cx="400"
       sodipodi:cy="852.36084"
       sodipodi:rx="2.1500001"
       sodipodi:ry="2.1500001"
       d="m 402.15,852.36084 c 0,1.18741 -0.96259,2.15 -2.15,2.15 -1.18741,0 -2.15,-0.96259 -2.15,-2.15 0,-1.18741 0.96259,-2.15 2.15,-2.15 1.18741,0 2.15,0.96259 2.15,2.15 z" />
    <path
       style="fill:#ffffff;stroke:#000000;stroke-width:1.20000005;stroke-linecap:butt;stroke-linejoin:round;stroke-miterlimit:4;stroke-opacity:1;stroke-dasharray:none;stroke-dashoffset:0"
       d="m 195,862.36087 c 25,0 41.66666,8.33333 50,24.99998 -8.33334,16.66667 -25,24.99999 -50,24.99999 8.33334,-16.66665 8.33334,-33.33331 0,-49.99997 z"
       id="path3073"
       inkscape:connector-curvature="0"
       sodipodi:nodetypes="cccc" />
    <path
       sodipodi:nodetypes="ccccc"
       inkscape:connector-curvature="0"
       id="path3046"
       d="m 335,827.36085 30,0 c 26.66667,-2e-5 26.66667,39.99998 0,39.99998 l -30,0 z"
       style="fill:#ffffff;stroke:#000000;stroke-width:1.20000005;stroke-linecap:round;stroke-linejoin:round;stroke-miterlimit:4;stroke-opacity:1;stroke-dasharray:none;stroke-dashoffset:0" />
    <path
       transform="translate(0,-5.0000045)"
       sodipodi:type="arc"
       id="path3050"
       style="fill:#000000;stroke:none"
       sodipodi:cx="110"
       sodipodi:cy="797.36084"
       sodipodi:rx="2"
       sodipodi:ry="2"
       d="m 112,797.36084 c 0,1.10457 -0.89543,2 -2,2 -1.10457,0 -2,-0.89543 -2,-2 0,-1.10457 0.89543,-2 2,-2 1.10457,0 2,0.89543 2,2 z" />
    <path
       sodipodi:type="arc"
       id="path3052"
       style="fill:#000000;stroke:none"
       sodipodi:cx="110"
       sodipodi:cy="847.36084"
       sodipodi:rx="2"
       sodipodi:ry="2"
       d="m 112,847.36084 c 0,1.10457 -0.89543,2 -2,2 -1.10457,0 -2,-0.89543 -2,-2 0,-1.10457 0.89543,-2 2,-2 1.10457,0 2,0.89543 2,2 z"
       transform="translate(0,24.999998)" />
    <path
       transform="translate(0,4.9999985)"
       sodipodi:type="arc"
       id="path3054"
       style="fill:#000000;stroke:none"
       sodipodi:cx="110"
       sodipodi:cy="897.36084"
       sodipodi:rx="2"
       sodipodi:ry="2"
       d="m 112,897.36084 c 0,1.10457 -0.89543,2 -2,2 -1.10457,0 -2,-0.89543 -2,-2 0,-1.10457 0.89543,-2 2,-2 1.10457,0 2,0.89543 2,2 z" />
    <path
       sodipodi:nodetypes="cccc"
       inkscape:connector-curvature="0"
       id="path3454"
       d="m 195,782.36087 c 25,0 41.66666,8.33333 50,24.99998 -8.33334,16.66667 -25,24.99999 -50,24.99999 8.33334,-16.66665 8.33334,-33.33331 0,-49.99997 z"
       style="fill:#ffffff;stroke:#000000;stroke-width:1.20000005;stroke-linecap:butt;stroke-linejoin:round;stroke-miterlimit:4;stroke-opacity:1;stroke-dasharray:none;stroke-dashoffset:0" />
    <path
       sodipodi:type="arc"
       style="fill:#ffffff;fill-opacity:1;stroke:#000000;stroke-width:0.80000001;stroke-linecap:round;stroke-linejoin:round;stroke-miterlimit:4;stroke-opacity:1;stroke-dasharray:none;stroke-dashoffset:0"
       id="path3456"
       sodipodi:cx="245"
       sodipodi:cy="109.33069"
       sodipodi:rx="2.6959722"
       sodipodi:ry="2.6959722"
       d="m 247.69597,109.33069 c 0,1.48894 -1.20703,2.69597 -2.69597,2.69597 -1.48894,0 -2.69597,-1.20703 -2.69597,-2.69597 0,-1.48895 1.20703,-2.69597 2.69597,-2.69597 1.48894,0 2.69597,1.20702 2.69597,2.69597 z"
       transform="translate(2.6959722,698.03016)" />
    <g
       style="font-style:normal;font-variant:normal;font-weight:normal;font-stretch:normal;letter-spacing:normal;word-spacing:normal;text-anchor:start;fill:none;stroke:#000000;stroke-width:1;stroke-linecap:butt;stroke-linejoin:miter;stroke-miterlimit:10.43299961;stroke-opacity:1;stroke-dasharray:none;stroke-dashoffset:0"
       ns0:preamble="/home/sriranga/Desktop/Prism_BasicElectronics/preamble.tex"
       ns0:text="$x$"
       text-anchor="start"
       word-spacing="normal"
       letter-spacing="normal"
       font-size-adjust="none"
       font-stretch="normal"
       font-weight="normal"
       font-variant="normal"
       font-style="normal"
       fill-opacity="1"
       fill-rule="evenodd"
       fill="none"
       stroke-opacity="1"
       stroke-dashoffset="0"
       stroke-dasharray="none"
       stroke-miterlimit="10.433"
       stroke-linejoin="miter"
       stroke-linecap="butt"
       stroke="black"
       xml:space="preserve"
       transform="matrix(1.2,0,0,-1.2,-171.0863,1643.8788)"
       id="g4479"><path
         id="path4481"
         fill="black"
         stroke-width="0"
         d="M227.93,708.23 L227.92,708.21 L227.9,708.2 L227.89,708.18 L227.87,708.16 L227.86,708.15 L227.85,708.13 L227.84,708.12 L227.82,708.1 L227.81,708.09 L227.8,708.07 L227.79,708.06 L227.77,708.04 L227.76,708.03 L227.76,708.02 L227.75,708.01 L227.74,708 L227.74,707.99 L227.73,707.98 L227.72,707.97 L227.71,707.96 C227.48,707.66,227.36,707.56,227.25,707.56 C227.1,707.56,227.01,707.69,226.95,707.97 C226.93,708.05,226.91,708.11,226.9,708.14 C226.66,709.14,226.55,709.6,226.55,709.75 C226.98,710.51,227.34,710.95,227.52,710.95 C227.58,710.95,227.66,710.92,227.76,710.87 C227.88,710.8,227.95,710.78,228.03,710.78 C228.24,710.78,228.38,710.93,228.38,711.14 C228.38,711.35,228.21,711.51,227.97,711.51 C227.53,711.51,227.15,711.15,226.47,710.09 L226.36,710.63 C226.22,711.31,226.11,711.51,225.84,711.51 C225.62,711.51,225.28,711.42,224.68,711.22 L224.57,711.18 L224.61,711.03 C224.99,711.12,225.07,711.14,225.16,711.14 C225.41,711.14,225.47,711.05,225.61,710.45 L225.9,709.23 L225.08,708.07 C224.88,707.77,224.69,707.59,224.58,707.59 C224.52,707.59,224.42,707.62,224.32,707.68 C224.19,707.75,224.08,707.78,224,707.78 C223.81,707.78,223.66,707.63,223.66,707.43 C223.66,707.17,223.86,707.02,224.16,707.02 C224.47,707.02,224.59,707.1,225.08,707.71 C225.35,708.03,225.56,708.3,225.98,708.87 L226.28,707.68 C226.41,707.17,226.54,707.02,226.85,707.02 C227.23,707.02,227.49,707.25,228.07,708.15 Z " /></g>    <g
       id="g4609"
       transform="matrix(1.2,0,0,-1.2,-171.40965,1674.1478)"
       xml:space="preserve"
       stroke="black"
       stroke-linecap="butt"
       stroke-linejoin="miter"
       stroke-miterlimit="10.433"
       stroke-dasharray="none"
       stroke-dashoffset="0"
       stroke-opacity="1"
       fill="none"
       fill-rule="evenodd"
       fill-opacity="1"
       font-style="normal"
       font-variant="normal"
       font-weight="normal"
       font-stretch="normal"
       font-size-adjust="none"
       letter-spacing="normal"
       word-spacing="normal"
       text-anchor="start"
       ns0:text="$y$"
       ns0:preamble="/home/sriranga/Desktop/Prism_BasicElectronics/preamble.tex"
       style="font-style:normal;font-variant:normal;font-weight:normal;font-stretch:normal;letter-spacing:normal;word-spacing:normal;text-anchor:start;fill:none;stroke:#000000;stroke-width:1;stroke-linecap:butt;stroke-linejoin:miter;stroke-miterlimit:10.43299961;stroke-opacity:1;stroke-dasharray:none;stroke-dashoffset:0"><path
         d="M223.58,711.1 L223.59,711.1 L223.6,711.1 L223.62,711.11 L223.63,711.11 L223.64,711.11 L223.65,711.11 L223.66,711.12 L223.67,711.12 L223.69,711.12 L223.71,711.12 L223.73,711.13 L223.74,711.13 L223.76,711.13 L223.78,711.13 L223.8,711.13 L223.81,711.14 L223.83,711.14 L223.85,711.14 L223.87,711.14 L223.88,711.14 L223.89,711.14 C224.46,711.14,224.61,710.89,225.06,709.18 C225.23,708.54,225.47,707.37,225.47,707.2 C225.47,707.05,225.41,706.89,225.26,706.71 C224.95,706.3,224.76,706.04,224.65,705.92 C224.44,705.7,224.32,705.62,224.19,705.62 C224.13,705.62,224.06,705.66,223.95,705.73 C223.8,705.85,223.69,705.9,223.58,705.9 C223.36,705.9,223.19,705.73,223.19,705.52 C223.19,705.27,223.41,705.08,223.7,705.08 C224.34,705.08,225.64,706.57,226.71,708.54 C227.39,709.76,227.67,710.47,227.67,710.96 C227.67,711.26,227.42,711.51,227.12,711.51 C226.89,711.51,226.74,711.36,226.74,711.14 C226.74,710.99,226.82,710.88,227.01,710.75 C227.2,710.64,227.27,710.55,227.27,710.41 C227.27,710.02,226.9,709.24,226.06,707.84 L225.86,708.99 C225.71,709.87,225.15,711.51,225,711.51 H224.96 C224.95,711.5,224.91,711.5,224.88,711.5 C224.79,711.49,224.43,711.43,223.9,711.33 C223.85,711.32,223.72,711.29,223.58,711.27 Z "
         stroke-width="0"
         fill="black"
         id="path4611" /></g>    <g
       style="font-style:normal;font-variant:normal;font-weight:normal;font-stretch:normal;letter-spacing:normal;word-spacing:normal;text-anchor:start;fill:none;stroke:#000000;stroke-width:1;stroke-linecap:butt;stroke-linejoin:miter;stroke-miterlimit:10.43299961;stroke-opacity:1;stroke-dasharray:none;stroke-dashoffset:0"
       ns0:preamble="/home/sriranga/Desktop/Prism_BasicElectronics/preamble.tex"
       ns0:text="$w$"
       text-anchor="start"
       word-spacing="normal"
       letter-spacing="normal"
       font-size-adjust="none"
       font-stretch="normal"
       font-weight="normal"
       font-variant="normal"
       font-style="normal"
       fill-opacity="1"
       fill-rule="evenodd"
       fill="none"
       stroke-opacity="1"
       stroke-dashoffset="0"
       stroke-dasharray="none"
       stroke-miterlimit="10.433"
       stroke-linejoin="miter"
       stroke-linecap="butt"
       stroke="black"
       xml:space="preserve"
       transform="matrix(1.2,0,0,-1.2,-171.40965,1723.7253)"
       id="g4739"><path
         id="path4741"
         fill="black"
         stroke-width="0"
         d="M223.59,711.14 H223.79 C223.8,711.14,223.83,711.14,223.88,711.15 C224.16,711.17,224.26,711.07,224.33,710.69 C224.45,710.12,224.57,709.07,224.6,708.29 L224.64,707.41 C224.66,707.03,224.68,706.95,224.76,706.95 C224.88,706.95,225.04,707.19,225.4,707.88 C225.45,707.99,225.65,708.34,225.95,708.86 L226.84,710.41 L227.12,707.24 C227.14,706.98,227.16,706.95,227.23,706.95 C227.31,706.95,227.41,707.05,227.68,707.37 C227.69,707.38,227.73,707.43,227.77,707.48 C229.12,709.1,229.88,710.35,229.88,710.99 C229.88,711.29,229.66,711.51,229.36,711.51 C229.12,711.51,228.97,711.38,228.97,711.17 C228.97,711.04,229.02,710.96,229.18,710.81 C229.34,710.66,229.4,710.56,229.4,710.44 C229.4,710.02,229.06,709.48,227.76,707.86 L227.44,711.36 C227.44,711.47,227.42,711.5,227.36,711.5 C227.31,711.5,227.28,711.48,227.23,711.4 L225.32,708.38 C225.29,709.07,225.18,710.11,225.07,710.81 C224.96,711.43,224.94,711.51,224.82,711.51 C224.76,711.51,224.66,711.48,224.53,711.44 C224.42,711.4,224.18,711.36,223.85,711.31 C223.81,711.31,223.71,711.29,223.59,711.27 Z " /></g>    <g
       id="g4869"
       transform="matrix(1.2,0,0,-1.2,-170.57029,1752.9565)"
       xml:space="preserve"
       stroke-miterlimit="10.433"
       font-style="normal"
       font-variant="normal"
       font-weight="normal"
       font-stretch="normal"
       font-size-adjust="none"
       letter-spacing="normal"
       word-spacing="normal"
       ns0:text="$z$"
       ns0:preamble="/home/sriranga/Desktop/Prism_BasicElectronics/preamble.tex"
       style="font-style:normal;font-variant:normal;font-weight:normal;font-stretch:normal;letter-spacing:normal;word-spacing:normal;text-anchor:start;fill:none;stroke:#000000;stroke-width:1;stroke-linecap:butt;stroke-linejoin:miter;stroke-miterlimit:10.43299961;stroke-opacity:1;stroke-dasharray:none;stroke-dashoffset:0"><path
         style="fill:#000000;stroke-width:0"
         inkscape:connector-curvature="0"
         d="m 224.24,710.2 0.02,0.04 0.02,0.04 0.02,0.04 0.01,0.04 0.02,0.04 0.02,0.03 0.02,0.04 0.02,0.03 0.01,0.02 0.02,0.03 0.02,0.03 0.02,0.02 0.02,0.02 0.02,0.02 0.02,0.02 0.02,0.01 0.03,0.02 0.02,0.01 0.02,0.02 0.03,0.01 0.02,0.01 0.03,0 0.03,0.01 0.03,0.01 0.03,0 0.03,0.01 0.04,0 0.03,0.01 0.04,0 0.04,0 0.04,0 0.04,0 h 1.46 l -3.09,-3.69 0.09,-0.09 c 0.16,0.12 0.29,0.17 0.46,0.17 0.24,0 0.57,-0.12 1.03,-0.41 0.5,-0.31 0.84,-0.44 1.12,-0.44 0.5,0 0.93,0.36 0.93,0.76 0,0.2 -0.14,0.35 -0.34,0.35 -0.2,0 -0.34,-0.13 -0.34,-0.31 0,-0.08 0.03,-0.18 0.09,-0.29 0.03,-0.06 0.05,-0.12 0.05,-0.15 0,-0.09 -0.11,-0.15 -0.27,-0.15 -0.25,0 -0.37,0.08 -0.7,0.5 -0.44,0.56 -0.63,0.69 -1.2,0.82 l 2.88,3.42 v 0.11 h -2.82 l -0.31,-1.15 z"
         id="path4871" /></g>    <g
       style="font-style:normal;font-variant:normal;font-weight:normal;font-stretch:normal;letter-spacing:normal;word-spacing:normal;text-anchor:start;fill:none;stroke:#000000;stroke-width:1;stroke-linecap:butt;stroke-linejoin:miter;stroke-miterlimit:10.43299961;stroke-opacity:1;stroke-dasharray:none;stroke-dashoffset:0"
       ns0:preamble="/home/sriranga/Desktop/Prism_BasicElectronics/preamble.tex"
       ns0:text="$f$"
       text-anchor="start"
       word-spacing="normal"
       letter-spacing="normal"
       font-size-adjust="none"
       font-stretch="normal"
       font-weight="normal"
       font-variant="normal"
       font-style="normal"
       fill-opacity="1"
       fill-rule="evenodd"
       fill="none"
       stroke-opacity="1"
       stroke-dashoffset="0"
       stroke-dasharray="none"
       stroke-miterlimit="10.433"
       stroke-linejoin="miter"
       stroke-linecap="butt"
       stroke="black"
       xml:space="preserve"
       transform="matrix(1.2,0,0,-1.2,152.72053,1699.6574)"
       id="content"><path
         id="path5000"
         fill="black"
         stroke-width="0"
         d="M225.27,711.06 H226.17 L225.29,706.89 C225.07,705.82,224.75,705.28,224.33,705.28 C224.21,705.28,224.13,705.35,224.13,705.44 C224.13,705.47,224.14,705.5,224.17,705.55 C224.21,705.6,224.22,705.65,224.22,705.7 C224.22,705.91,224.04,706.08,223.83,706.08 C223.62,706.08,223.46,705.9,223.46,705.67 C223.46,705.34,223.81,705.07,224.25,705.07 C225.13,705.07,225.83,706.05,226.24,707.88 L226.96,711.06 H228.04 L228.1,711.38 H227.02 C227.31,712.94,227.68,713.64,228.24,713.64 C228.37,713.64,228.46,713.59,228.46,713.52 C228.46,713.49,228.45,713.47,228.42,713.42 C228.38,713.33,228.36,713.28,228.36,713.21 C228.36,712.98,228.51,712.82,228.73,712.82 C228.96,712.82,229.15,713,229.15,713.21 C229.15,713.58,228.78,713.86,228.29,713.86 C227.8,713.86,227.41,713.64,227.05,713.17 C226.76,712.79,226.56,712.33,226.26,711.38 H225.34 Z " /></g>  </g>
</svg>
