<?xml version="1.0" encoding="UTF-8" standalone="no"?>
<!-- Created with Inkscape (http://www.inkscape.org/) -->

<svg
   xmlns:ns0="http://www.iki.fi/pav/software/textext/"
   xmlns:dc="http://purl.org/dc/elements/1.1/"
   xmlns:cc="http://creativecommons.org/ns#"
   xmlns:rdf="http://www.w3.org/1999/02/22-rdf-syntax-ns#"
   xmlns:svg="http://www.w3.org/2000/svg"
   xmlns="http://www.w3.org/2000/svg"
   xmlns:sodipodi="http://sodipodi.sourceforge.net/DTD/sodipodi-0.dtd"
   xmlns:inkscape="http://www.inkscape.org/namespaces/inkscape"
   width="496.06299"
   height="354.33069"
   id="svg2"
   version="1.1"
   inkscape:version="0.48.4 r9939"
   sodipodi:docname="div12.svg">
  <sodipodi:namedview
     id="base"
     pagecolor="#ffffff"
     bordercolor="#666666"
     borderopacity="1.0"
     inkscape:pageopacity="0.0"
     inkscape:pageshadow="2"
     inkscape:zoom="2.6883933"
     inkscape:cx="183.84303"
     inkscape:cy="238.41691"
     inkscape:document-units="cm"
     inkscape:current-layer="layer1"
     showgrid="false"
     units="cm"
     inkscape:object-nodes="true"
     inkscape:window-width="1366"
     inkscape:window-height="744"
     inkscape:window-x="0"
     inkscape:window-y="24"
     inkscape:window-maximized="1">
    <inkscape:grid
       snapvisiblegridlinesonly="true"
       enabled="true"
       visible="true"
       empspacing="5"
       id="grid2985"
       type="xygrid" />
  </sodipodi:namedview>
  <defs
     id="defs4">
    <marker
       style="overflow:visible"
       id="Arrow1Mstart"
       refX="0"
       refY="0"
       orient="auto"
       inkscape:stockid="Arrow1Mstart">
      <path
         transform="matrix(0.4,0,0,0.4,4,0)"
         style="fill-rule:evenodd;stroke:#000000;stroke-width:1pt"
         d="M 0,0 5,-5 -12.5,0 5,5 0,0 z"
         id="path3775"
         inkscape:connector-curvature="0" />
    </marker>
    <marker
       style="overflow:visible"
       id="Arrow1Mend"
       refX="0"
       refY="0"
       orient="auto"
       inkscape:stockid="Arrow1Mend">
      <path
         transform="matrix(-0.4,0,0,-0.4,-4,0)"
         style="fill-rule:evenodd;stroke:#000000;stroke-width:1pt"
         d="M 0,0 5,-5 -12.5,0 5,5 0,0 z"
         id="path3778"
         inkscape:connector-curvature="0" />
    </marker>
    <marker
       style="overflow:visible"
       id="Arrow1Mstart-2"
       refX="0"
       refY="0"
       orient="auto"
       inkscape:stockid="Arrow1Mstart">
      <path
         transform="matrix(0.4,0,0,0.4,4,0)"
         style="fill-rule:evenodd;stroke:#000000;stroke-width:1pt"
         d="M 0,0 5,-5 -12.5,0 5,5 0,0 z"
         id="path3775-8"
         inkscape:connector-curvature="0" />
    </marker>
  </defs>
  <metadata
     id="metadata7">
    <rdf:RDF>
      <cc:Work
         rdf:about="">
        <dc:format>image/svg+xml</dc:format>
        <dc:type
           rdf:resource="http://purl.org/dc/dcmitype/StillImage" />
        <dc:title></dc:title>
      </cc:Work>
    </rdf:RDF>
  </metadata>
  <g
     transform="translate(0,-698.03016)"
     id="layer1"
     inkscape:groupmode="layer"
     inkscape:label="Layer 1">
    <text
       xml:space="preserve"
       style="font-size:12px;font-style:normal;font-variant:normal;font-weight:normal;font-stretch:normal;text-align:start;line-height:100%;letter-spacing:0px;word-spacing:0px;text-anchor:start;fill:#000000;fill-opacity:1;stroke:none;font-family:LMRoman12;-inkscape-font-specification:Sans"
       x="61.700558"
       y="56.040417"
       id="text5818"
       sodipodi:linespacing="100%"
       transform="translate(0,698.03016)"><tspan
         sodipodi:role="line"
         id="tspan5820"
         x="61.700558"
         y="56.040417" /></text>
    <flowRoot
       style="fill:black;stroke:none;stroke-opacity:1;stroke-width:1px;stroke-linejoin:miter;stroke-linecap:butt;fill-opacity:1;font-family:LMRoman12;font-style:normal;font-weight:normal;font-size:12px;line-height:100%;letter-spacing:0px;word-spacing:0px;-inkscape-font-specification:Sans;font-stretch:normal;font-variant:normal;text-anchor:start;text-align:start"
       id="flowRoot6377"
       xml:space="preserve"><flowRegion
         id="flowRegion6379"><rect
           y="87.141403"
           x="219.34796"
           height="40.319103"
           width="27.681772"
           id="rect6381" /></flowRegion><flowPara
         id="flowPara6383" /></flowRoot>    <text
       transform="translate(0,698.03016)"
       sodipodi:linespacing="50%"
       id="text6385"
       y="55.247185"
       x="275.91507"
       style="font-size:12px;font-style:normal;font-variant:normal;font-weight:normal;font-stretch:normal;text-align:start;line-height:50%;letter-spacing:0px;word-spacing:0px;text-anchor:start;fill:#000000;fill-opacity:1;stroke:none;font-family:LMRoman12;-inkscape-font-specification:Sans"
       xml:space="preserve"><tspan
         id="tspan6387"
         sodipodi:role="line" /></text>
    <text
       transform="translate(0,698.03016)"
       sodipodi:linespacing="100%"
       id="text3884"
       y="194.38702"
       x="348.65417"
       style="font-size:12px;font-style:normal;font-variant:normal;font-weight:normal;font-stretch:normal;text-align:start;line-height:100%;letter-spacing:0px;word-spacing:0px;text-anchor:start;fill:#000000;fill-opacity:1;stroke:none;font-family:LMRoman12;-inkscape-font-specification:Sans"
       xml:space="preserve"><tspan
         id="tspan3890"
         y="194.38702"
         x="348.65417"
         sodipodi:role="line" /></text>
    <text
       transform="translate(0,698.03016)"
       sodipodi:linespacing="150%"
       id="text3887"
       y="250.89732"
       x="216.96629"
       style="font-size:12px;font-style:normal;font-variant:normal;font-weight:normal;font-stretch:normal;text-align:start;line-height:150%;letter-spacing:0px;word-spacing:0px;text-anchor:start;fill:#000000;fill-opacity:1;stroke:none;font-family:LMRoman12;-inkscape-font-specification:Sans"
       xml:space="preserve"><tspan
         y="250.89732"
         x="216.96629"
         id="tspan3889"
         sodipodi:role="line" /></text>
    <path
       sodipodi:nodetypes="ccc"
       inkscape:connector-curvature="0"
       id="path7259"
       d="m 123.84761,731.13798 0,11.22287 35.66035,0"
       style="fill:none;stroke:#000000;stroke-width:1;stroke-linecap:square;stroke-linejoin:round;stroke-miterlimit:4;stroke-opacity:1;stroke-dasharray:none;stroke-dashoffset:0" />
    <text
       sodipodi:linespacing="150%"
       id="text7261"
       y="739.18097"
       x="129.81511"
       style="font-size:12px;font-style:normal;font-variant:normal;font-weight:normal;font-stretch:normal;text-align:start;line-height:150%;letter-spacing:0px;word-spacing:0px;text-anchor:start;fill:#000000;fill-opacity:1;stroke:none;font-family:LMRoman12;-inkscape-font-specification:Sans"
       xml:space="preserve"><tspan
         y="739.18097"
         x="129.81511"
         id="tspan7263"
         sodipodi:role="line">8899</tspan></text>
    <text
       xml:space="preserve"
       style="font-size:12px;font-style:normal;font-variant:normal;font-weight:normal;font-stretch:normal;text-align:start;line-height:150%;letter-spacing:0px;word-spacing:0px;text-anchor:start;fill:#000000;fill-opacity:1;stroke:none;font-family:LMRoman12;-inkscape-font-specification:Sans"
       x="135.69792"
       y="754.70447"
       id="text7271"
       sodipodi:linespacing="150%"><tspan
         sodipodi:role="line"
         id="tspan7273"
         x="135.69792"
         y="754.70447">556</tspan></text>
    <text
       sodipodi:linespacing="150%"
       id="text7279"
       y="770.54987"
       x="141.41273"
       style="font-size:12px;font-style:normal;font-variant:normal;font-weight:normal;font-stretch:normal;text-align:start;line-height:150%;letter-spacing:0px;word-spacing:0px;text-anchor:start;fill:#000000;fill-opacity:1;stroke:none;font-family:LMRoman12;-inkscape-font-specification:Sans"
       xml:space="preserve"><tspan
         y="770.54987"
         x="141.41273"
         id="tspan7281"
         sodipodi:role="line">34</tspan></text>
    <text
       xml:space="preserve"
       style="font-size:12px;font-style:normal;font-variant:normal;font-weight:normal;font-stretch:normal;text-align:start;line-height:150%;letter-spacing:0px;word-spacing:0px;text-anchor:start;fill:#000000;fill-opacity:1;stroke:none;font-family:LMRoman12;-inkscape-font-specification:Sans"
       x="147.55954"
       y="785.35657"
       id="text7287"
       sodipodi:linespacing="150%"><tspan
         sodipodi:role="line"
         id="tspan7289"
         x="147.55954"
         y="785.35657">2</tspan></text>
    <text
       sodipodi:linespacing="150%"
       id="text7341"
       y="740.36084"
       x="104.69036"
       style="font-size:12px;font-style:normal;font-variant:normal;font-weight:normal;font-stretch:normal;text-align:start;line-height:150%;letter-spacing:0px;word-spacing:0px;text-anchor:start;fill:#000000;fill-opacity:1;stroke:none;font-family:LMRoman12;-inkscape-font-specification:Sans"
       xml:space="preserve"><tspan
         id="tspan7349"
         y="740.36084"
         x="104.69036"
         sodipodi:role="line">16</tspan></text>
    <text
       xml:space="preserve"
       style="font-size:12px;font-style:normal;font-variant:normal;font-weight:normal;font-stretch:normal;text-align:start;line-height:150%;letter-spacing:0px;word-spacing:0px;text-anchor:start;fill:#000000;fill-opacity:1;stroke:none;font-family:LMRoman12;-inkscape-font-specification:Sans"
       x="104.69036"
       y="753.45624"
       id="text7357"
       sodipodi:linespacing="150%"><tspan
         sodipodi:role="line"
         x="104.69036"
         y="753.45624"
         id="tspan7359">16</tspan></text>
    <text
       sodipodi:linespacing="150%"
       id="text7361"
       y="769.55164"
       x="104.69036"
       style="font-size:12px;font-style:normal;font-variant:normal;font-weight:normal;font-stretch:normal;text-align:start;line-height:150%;letter-spacing:0px;word-spacing:0px;text-anchor:start;fill:#000000;fill-opacity:1;stroke:none;font-family:LMRoman12;-inkscape-font-specification:Sans"
       xml:space="preserve"><tspan
         id="tspan7363"
         y="769.55164"
         x="104.69036"
         sodipodi:role="line">16</tspan></text>
    <text
       xml:space="preserve"
       style="font-size:12px;font-style:normal;font-variant:normal;font-weight:normal;font-stretch:normal;text-align:start;line-height:150%;letter-spacing:0px;word-spacing:0px;text-anchor:start;fill:#000000;fill-opacity:1;stroke:none;font-family:LMRoman12;-inkscape-font-specification:Sans"
       x="104.69036"
       y="784.48334"
       id="text7365"
       sodipodi:linespacing="150%"><tspan
         sodipodi:role="line"
         x="104.69036"
         y="784.48334"
         id="tspan7367">16</tspan></text>
    <text
       transform="translate(0,698.03016)"
       sodipodi:linespacing="150%"
       id="text7389"
       y="61.080688"
       x="173"
       style="font-size:12px;font-style:normal;font-variant:normal;font-weight:normal;font-stretch:normal;text-align:start;line-height:150%;letter-spacing:0px;word-spacing:0px;text-anchor:start;fill:#000000;fill-opacity:1;stroke:none;font-family:LMRoman12;-inkscape-font-specification:Sans"
       xml:space="preserve"><tspan
         y="61.080688"
         x="173"
         id="tspan7391"
         sodipodi:role="line" /></text>
    <path
       inkscape:connector-curvature="0"
       id="path7393"
       d="m 167.5,750.95622 8.5,0"
       style="fill:none;stroke:#000000;stroke-width:0.60000002;stroke-linecap:square;stroke-linejoin:round;stroke-miterlimit:4;stroke-opacity:1;stroke-dasharray:none;stroke-dashoffset:0;marker-mid:none" />
    <path
       style="fill:none;stroke:#000000;stroke-width:0.60000002;stroke-linecap:square;stroke-linejoin:round;stroke-miterlimit:4;stroke-opacity:1;stroke-dasharray:none;stroke-dashoffset:0;marker-mid:none"
       d="m 167.5,766.42659 8.5,0"
       id="path7763"
       inkscape:connector-curvature="0" />
    <path
       style="fill:none;stroke:#000000;stroke-width:0.60000002;stroke-linecap:square;stroke-linejoin:round;stroke-miterlimit:4;stroke-opacity:1;stroke-dasharray:none;stroke-dashoffset:0;marker-mid:none"
       d="m 167.5,781.3583 8.5,0"
       id="path7765"
       inkscape:connector-curvature="0" />
    <text
       sodipodi:linespacing="150%"
       id="text7777"
       y="753.45624"
       x="188.62489"
       style="font-size:12px;font-style:normal;font-variant:normal;font-weight:normal;font-stretch:normal;text-align:start;line-height:150%;letter-spacing:0px;word-spacing:0px;text-anchor:start;fill:#000000;fill-opacity:1;stroke:none;font-family:LMRoman12;-inkscape-font-specification:Sans"
       xml:space="preserve"><tspan
         id="tspan7779"
         y="753.45624"
         x="188.62489"
         sodipodi:role="line">3</tspan></text>
    <text
       xml:space="preserve"
       style="font-size:12px;font-style:normal;font-variant:normal;font-weight:normal;font-stretch:normal;text-align:start;line-height:150%;letter-spacing:0px;word-spacing:0px;text-anchor:start;fill:#000000;fill-opacity:1;stroke:none;font-family:LMRoman12;-inkscape-font-specification:Sans"
       x="186.1769"
       y="769.55164"
       id="text7781"
       sodipodi:linespacing="150%"><tspan
         sodipodi:role="line"
         x="186.1769"
         y="769.55164"
         id="tspan7783">C</tspan></text>
    <text
       sodipodi:linespacing="150%"
       id="text7785"
       y="784.48334"
       x="188.72089"
       style="font-size:12px;font-style:normal;font-variant:normal;font-weight:normal;font-stretch:normal;text-align:start;line-height:150%;letter-spacing:0px;word-spacing:0px;text-anchor:start;fill:#000000;fill-opacity:1;stroke:none;font-family:LMRoman12;-inkscape-font-specification:Sans"
       xml:space="preserve"><tspan
         id="tspan7787"
         y="784.48334"
         x="188.72089"
         sodipodi:role="line">2</tspan></text>
    <text
       sodipodi:linespacing="150%"
       id="text7815"
       y="739.27783"
       x="173.07074"
       style="font-size:12px;font-style:normal;font-variant:normal;font-weight:normal;font-stretch:normal;text-align:start;line-height:150%;letter-spacing:0px;word-spacing:0px;text-anchor:start;fill:#000000;fill-opacity:1;stroke:none;font-family:LMRoman12;-inkscape-font-specification:Sans"
       xml:space="preserve"><tspan
         y="739.27783"
         x="173.07074"
         id="tspan7817"
         sodipodi:role="line">Remainder</tspan></text>
    <path
       style="fill:none;stroke:#000000;stroke-width:1;stroke-linecap:square;stroke-linejoin:round;stroke-miterlimit:4;stroke-opacity:1;stroke-dasharray:none;stroke-dashoffset:0"
       d="m 123.84761,746.13798 0,11.22287 35.66035,0"
       id="path9265"
       inkscape:connector-curvature="0"
       sodipodi:nodetypes="ccc" />
    <path
       sodipodi:nodetypes="ccc"
       inkscape:connector-curvature="0"
       id="path9267"
       d="m 123.84761,761.13798 0,11.22287 35.66035,0"
       style="fill:none;stroke:#000000;stroke-width:1;stroke-linecap:square;stroke-linejoin:round;stroke-miterlimit:4;stroke-opacity:1;stroke-dasharray:none;stroke-dashoffset:0" />
    <path
       style="fill:none;stroke:#000000;stroke-width:1;stroke-linecap:square;stroke-linejoin:round;stroke-miterlimit:4;stroke-opacity:1;stroke-dasharray:none;stroke-dashoffset:0"
       d="m 123.84761,776.13798 0,11.22287 35.66035,0"
       id="path9269"
       inkscape:connector-curvature="0"
       sodipodi:nodetypes="ccc" />
    <text
       sodipodi:linespacing="150%"
       id="text11170"
       y="800.18604"
       x="147.46355"
       style="font-size:12px;font-style:normal;font-variant:normal;font-weight:normal;font-stretch:normal;text-align:start;line-height:150%;letter-spacing:0px;word-spacing:0px;text-anchor:start;fill:#000000;fill-opacity:1;stroke:none;font-family:LMRoman12;-inkscape-font-specification:Sans"
       xml:space="preserve"><tspan
         y="800.18604"
         x="147.46355"
         id="tspan11172"
         sodipodi:role="line">0</tspan></text>
    <path
       inkscape:connector-curvature="0"
       id="path11174"
       d="m 167.5,797.72586 8.5,0"
       style="fill:none;stroke:#000000;stroke-width:0.60000002;stroke-linecap:square;stroke-linejoin:round;stroke-miterlimit:4;stroke-opacity:1;stroke-dasharray:none;stroke-dashoffset:0;marker-mid:none" />
    <text
       xml:space="preserve"
       style="font-size:12px;font-style:normal;font-variant:normal;font-weight:normal;font-stretch:normal;text-align:start;line-height:150%;letter-spacing:0px;word-spacing:0px;text-anchor:start;fill:#000000;fill-opacity:1;stroke:none;font-family:LMRoman12;-inkscape-font-specification:Sans"
       x="188.72089"
       y="800.85089"
       id="text11176"
       sodipodi:linespacing="150%"><tspan
         sodipodi:role="line"
         x="188.72089"
         y="800.85089"
         id="tspan11178">2</tspan></text>
    <path
       sodipodi:nodetypes="ccc"
       inkscape:connector-curvature="0"
       id="path11617"
       d="m 123.84761,791.13798 0,11.22287 35.66035,0"
       style="fill:none;stroke:#000000;stroke-width:1;stroke-linecap:square;stroke-linejoin:round;stroke-miterlimit:4;stroke-opacity:1;stroke-dasharray:none;stroke-dashoffset:0" />
    <text
       xml:space="preserve"
       style="font-size:12px;font-style:normal;font-variant:normal;font-weight:normal;font-stretch:normal;text-align:start;line-height:150%;letter-spacing:0px;word-spacing:0px;text-anchor:start;fill:#000000;fill-opacity:1;stroke:none;font-family:LMRoman12;-inkscape-font-specification:Sans"
       x="108.82086"
       y="800.18604"
       id="text11623"
       sodipodi:linespacing="150%"><tspan
         sodipodi:role="line"
         id="tspan11625"
         x="108.82086"
         y="800.18604" /></text>
    <path
       inkscape:connector-curvature="0"
       id="path4924"
       d="m 211.64198,746.2342 0,55.10781"
       style="fill:none;stroke:#000000;stroke-width:1;stroke-linecap:square;stroke-linejoin:round;stroke-miterlimit:4;stroke-opacity:1;stroke-dasharray:none;stroke-dashoffset:0;marker-start:url(#Arrow1Mstart);marker-end:none" />
    <g
       style="font-style:normal;font-variant:normal;font-weight:normal;font-stretch:normal;letter-spacing:normal;word-spacing:normal;text-anchor:start;fill:none;stroke:#000000;stroke-width:1;stroke-linecap:butt;stroke-linejoin:miter;stroke-miterlimit:10.43299961;stroke-opacity:1;stroke-dasharray:none;stroke-dashoffset:0"
       ns0:preamble="/home/sriranga/Desktop/Prism_BasicElectronics/preamble.tex"
       ns0:text="$\\therefore~ (8899)_{10}= (22C3)_{16}$"
       text-anchor="start"
       word-spacing="normal"
       letter-spacing="normal"
       font-size-adjust="none"
       font-stretch="normal"
       font-weight="normal"
       font-variant="normal"
       font-style="normal"
       fill-opacity="1"
       fill-rule="evenodd"
       fill="none"
       stroke-opacity="1"
       stroke-dashoffset="0"
       stroke-dasharray="none"
       stroke-miterlimit="10.433"
       stroke-linejoin="miter"
       stroke-linecap="butt"
       stroke="black"
       xml:space="preserve"
       transform="matrix(1.2,0,0,-1.2,-168.37238,1670.9986)"
       id="content"><path
         id="path13150"
         fill="black"
         stroke-width="0"
         d="M227.27,711.21 L227.27,711.23 L227.27,711.26 L227.27,711.29 L227.26,711.31 L227.26,711.34 L227.25,711.36 L227.24,711.39 L227.23,711.41 L227.22,711.43 L227.21,711.46 L227.2,711.48 L227.18,711.5 L227.17,711.52 L227.15,711.54 L227.13,711.56 L227.12,711.58 L227.1,711.6 L227.08,711.61 L227.06,711.63 L227.04,711.64 L227.02,711.66 L227,711.67 L226.97,711.68 L226.95,711.69 L226.93,711.7 L226.9,711.71 L226.88,711.72 L226.85,711.72 L226.82,711.73 L226.8,711.73 L226.77,711.73 L226.74,711.73 C226.46,711.73,226.22,711.5,226.22,711.21 C226.22,710.92,226.46,710.68,226.74,710.68 C227.02,710.68,227.27,710.91,227.27,711.21 Z " /><path
         id="path13152"
         fill="black"
         stroke-width="0"
         d="M229.76,706.91 L229.76,706.93 L229.76,706.96 L229.75,706.99 L229.75,707.01 L229.74,707.04 L229.74,707.06 L229.73,707.09 L229.72,707.11 L229.71,707.13 L229.7,707.16 L229.68,707.18 L229.67,707.2 L229.65,707.22 L229.64,707.24 L229.62,707.26 L229.6,707.28 L229.59,707.3 L229.57,707.31 L229.55,707.33 L229.53,707.34 L229.5,707.36 L229.48,707.37 L229.46,707.38 L229.44,707.39 L229.41,707.4 L229.39,707.41 L229.36,707.42 L229.34,707.42 L229.31,707.43 L229.29,707.43 L229.26,707.43 L229.23,707.43 C228.94,707.43,228.71,707.19,228.71,706.91 C228.71,706.62,228.94,706.38,229.23,706.38 C229.52,706.38,229.76,706.62,229.76,706.91 Z " /><path
         id="path13154"
         fill="black"
         stroke-width="0"
         d="M224.79,706.91 L224.78,706.93 L224.78,706.96 L224.78,706.99 L224.77,707.01 L224.77,707.04 L224.76,707.06 L224.75,707.09 L224.74,707.11 L224.73,707.13 L224.72,707.16 L224.71,707.18 L224.69,707.2 L224.68,707.22 L224.66,707.24 L224.65,707.26 L224.63,707.28 L224.61,707.3 L224.59,707.31 L224.57,707.33 L224.55,707.34 L224.53,707.36 L224.51,707.37 L224.49,707.38 L224.46,707.39 L224.44,707.4 L224.41,707.41 L224.39,707.42 L224.36,707.42 L224.34,707.43 L224.31,707.43 L224.28,707.43 L224.26,707.43 C223.97,707.43,223.73,707.19,223.73,706.91 C223.73,706.62,223.97,706.38,224.26,706.38 C224.55,706.38,224.79,706.62,224.79,706.91 Z " /><path
         id="path13156"
         fill="black"
         stroke-width="0"
         d="M238.27,713.84 L238.2,713.8 L238.13,713.75 L238.07,713.71 L238.01,713.67 L237.95,713.63 L237.9,713.59 L237.84,713.55 L237.79,713.52 L237.74,713.48 L237.69,713.44 L237.64,713.41 L237.6,713.37 L237.55,713.34 L237.51,713.3 L237.43,713.24 L237.35,713.17 L237.28,713.1 L237.2,713.03 L237.13,712.96 L237.07,712.89 L237,712.81 L236.93,712.73 L236.86,712.65 C236.16,711.78,235.81,710.79,235.81,709.63 C235.81,708.37,236.18,707.39,237.05,706.38 C237.46,705.9,237.72,705.68,238.24,705.37 L238.36,705.53 C237.56,706.15,237.28,706.5,237.01,707.24 C236.77,707.91,236.66,708.66,236.66,709.66 C236.66,710.7,236.79,711.52,237.06,712.13 C237.34,712.75,237.64,713.1,238.36,713.68 Z " /><path
         id="path13158"
         fill="black"
         stroke-width="0"
         d="M241.54,710.81 L241.63,710.86 L241.71,710.91 L241.8,710.96 L241.88,711 L241.95,711.05 L242.02,711.1 L242.09,711.14 L242.16,711.19 L242.22,711.24 L242.28,711.28 L242.34,711.33 L242.39,711.38 L242.44,711.42 L242.49,711.47 L242.53,711.52 L242.57,711.56 L242.61,711.61 L242.64,711.66 L242.68,711.71 L242.71,711.76 L242.73,711.81 L242.76,711.86 L242.78,711.91 L242.8,711.97 L242.82,712.02 L242.83,712.07 L242.84,712.13 L242.85,712.19 L242.86,712.25 L242.86,712.31 L242.87,712.37 L242.87,712.43 C242.87,713.24,242.15,713.84,241.16,713.84 L241.08,713.56 C241.75,713.56,242.18,713.12,242.18,712.44 C242.18,711.87,241.9,711.43,241.34,711.05 C241.29,711.02,241.29,711.02,241.25,710.99 H241.25 C240.36,711.57,240,712.02,240,712.58 C240,713.16,240.45,713.56,241.08,713.56 L241.16,713.84 C240.07,713.84,239.27,713.17,239.27,712.27 C239.27,711.62,239.46,711.34,240.5,710.42 C239.43,709.61,239.21,709.3,239.21,708.62 C239.21,707.66,239.99,706.99,241.12,706.99 L241.23,707.26 C240.47,707.26,239.96,707.84,239.96,708.7 C239.96,709.34,240.18,709.76,240.76,710.22 L241.36,709.79 C242.08,709.27,242.32,708.91,242.32,708.36 C242.32,707.71,241.87,707.26,241.23,707.26 L241.12,706.99 C242.31,706.99,243.08,707.64,243.08,708.66 C243.08,709.43,242.74,709.92,241.54,710.81 Z " /><path
         id="path13160"
         fill="black"
         stroke-width="0"
         d="M246.52,710.81 L246.61,710.86 L246.69,710.91 L246.78,710.96 L246.86,711 L246.93,711.05 L247,711.1 L247.07,711.14 L247.14,711.19 L247.2,711.24 L247.26,711.28 L247.32,711.33 L247.37,711.38 L247.42,711.42 L247.47,711.47 L247.51,711.52 L247.55,711.56 L247.59,711.61 L247.62,711.66 L247.66,711.71 L247.69,711.76 L247.71,711.81 L247.74,711.86 L247.76,711.91 L247.78,711.97 L247.8,712.02 L247.81,712.07 L247.82,712.13 L247.83,712.19 L247.84,712.25 L247.84,712.31 L247.85,712.37 L247.85,712.43 C247.85,713.24,247.13,713.84,246.14,713.84 L246.06,713.56 C246.74,713.56,247.16,713.12,247.16,712.44 C247.16,711.87,246.88,711.43,246.32,711.05 C246.27,711.02,246.27,711.02,246.23,710.99 H246.23 C245.34,711.57,244.98,712.02,244.98,712.58 C244.98,713.16,245.43,713.56,246.06,713.56 L246.14,713.84 C245.05,713.84,244.25,713.17,244.25,712.27 C244.25,711.62,244.44,711.34,245.48,710.42 C244.41,709.61,244.19,709.3,244.19,708.62 C244.19,707.66,244.97,706.99,246.1,706.99 L246.21,707.26 C245.45,707.26,244.94,707.84,244.94,708.7 C244.94,709.34,245.16,709.76,245.74,710.22 L246.34,709.79 C247.06,709.27,247.3,708.91,247.3,708.36 C247.3,707.71,246.85,707.26,246.21,707.26 L246.1,706.99 C247.29,706.99,248.06,707.64,248.06,708.66 C248.06,709.43,247.72,709.92,246.52,710.81 Z " /><path
         id="path13162"
         fill="black"
         stroke-width="0"
         d="M249.2,706.91 L249.3,706.92 L249.4,706.93 L249.5,706.94 L249.59,706.96 L249.68,706.97 L249.77,706.99 L249.86,707 L249.94,707.02 L250.02,707.03 L250.1,707.05 L250.18,707.07 L250.25,707.09 L250.32,707.11 L250.39,707.13 L250.53,707.17 L250.67,707.22 L250.79,707.28 L250.92,707.33 L251.04,707.4 L251.17,707.47 L251.29,707.54 L251.41,707.62 L251.47,707.67 L251.54,707.71 C252.57,708.47,253.18,709.7,253.18,711.04 C253.18,712.68,252.26,713.84,250.98,713.84 C249.8,713.84,248.91,712.84,248.91,711.5 C248.91,710.28,249.63,709.48,250.7,709.48 C251.25,709.48,251.67,709.64,252.19,710.05 L252.06,710.27 C251.79,710.04,251.42,709.91,251.06,709.91 C250.3,709.91,249.83,710.65,249.83,711.83 C249.83,712.4,249.99,713,250.19,713.25 C250.36,713.45,250.61,713.56,250.9,713.56 C251.77,713.56,252.21,712.71,252.21,711.04 V710.65 C252.21,710.45,252.17,710.36,252.06,710.27 L252.19,710.05 C251.79,708.43,250.68,707.36,249.17,707.1 Z " /><path
         id="path13164"
         fill="black"
         stroke-width="0"
         d="M254.18,706.91 L254.28,706.92 L254.38,706.93 L254.48,706.94 L254.57,706.96 L254.66,706.97 L254.75,706.99 L254.84,707 L254.92,707.02 L255,707.03 L255.08,707.05 L255.16,707.07 L255.23,707.09 L255.3,707.11 L255.38,707.13 L255.51,707.17 L255.65,707.22 L255.78,707.28 L255.9,707.33 L256.02,707.4 L256.15,707.47 L256.27,707.54 L256.39,707.62 L256.46,707.67 L256.52,707.71 C257.55,708.47,258.16,709.7,258.16,711.04 C258.16,712.68,257.24,713.84,255.96,713.84 C254.78,713.84,253.89,712.84,253.89,711.5 C253.89,710.28,254.61,709.48,255.68,709.48 C256.23,709.48,256.65,709.64,257.17,710.05 L257.05,710.27 C256.77,710.04,256.4,709.91,256.04,709.91 C255.29,709.91,254.81,710.65,254.81,711.83 C254.81,712.4,254.97,713,255.18,713.25 C255.34,713.45,255.59,713.56,255.88,713.56 C256.75,713.56,257.2,712.71,257.2,711.04 V710.65 C257.2,710.45,257.15,710.36,257.05,710.27 L257.17,710.05 C256.77,708.43,255.66,707.36,254.15,707.1 Z " /><path
         id="path13166"
         fill="black"
         stroke-width="0"
         d="M258.95,705.37 L259.02,705.41 L259.09,705.45 L259.15,705.5 L259.21,705.54 L259.27,705.58 L259.32,705.61 L259.38,705.65 L259.43,705.69 L259.48,705.73 L259.53,705.76 L259.58,705.8 L259.62,705.83 L259.67,705.87 L259.71,705.9 L259.79,705.97 L259.87,706.04 L259.94,706.11 L260.02,706.18 L260.09,706.25 L260.15,706.32 L260.22,706.4 L260.29,706.48 L260.36,706.56 C261.06,707.42,261.41,708.42,261.41,709.58 C261.41,710.85,261.04,711.81,260.17,712.83 C259.76,713.3,259.5,713.52,258.98,713.84 L258.86,713.68 C259.66,713.05,259.93,712.71,260.21,711.96 C260.45,711.3,260.55,710.54,260.55,709.55 C260.55,708.52,260.42,707.69,260.16,707.09 C259.88,706.46,259.58,706.1,258.86,705.53 Z " /><path
         id="path13168"
         fill="black"
         stroke-width="0"
         d="M263.92,710.33 L262.67,709.7 V709.6 C262.75,709.64,262.83,709.66,262.85,709.68 C262.98,709.73,263.1,709.76,263.17,709.76 C263.31,709.76,263.38,709.65,263.38,709.43 V706.28 C263.38,706.05,263.32,705.89,263.21,705.83 C263.1,705.76,263.01,705.74,262.71,705.73 V705.63 H264.64 V705.73 C264.09,705.74,263.97,705.81,263.97,706.15 V710.32 Z " /><path
         id="path13170"
         fill="black"
         stroke-width="0"
         d="M267.15,710.33 L267.11,710.33 L267.08,710.33 L267.04,710.33 L267.01,710.33 L266.97,710.32 L266.94,710.32 L266.91,710.31 L266.88,710.31 L266.85,710.3 L266.81,710.3 L266.78,710.29 L266.75,710.28 L266.72,710.27 L266.69,710.26 L266.66,710.25 L266.63,710.24 L266.61,710.23 L266.58,710.22 L266.55,710.21 L266.52,710.19 L266.49,710.18 L266.47,710.16 L266.44,710.15 L266.42,710.13 L266.39,710.11 L266.36,710.09 L266.34,710.07 L266.31,710.06 L266.29,710.04 L266.26,710.01 L266.24,709.99 L266.21,709.97 C265.81,709.58,265.55,708.78,265.55,707.97 C265.55,707.21,265.78,706.4,266.1,706.01 C266.36,705.7,266.72,705.53,267.12,705.53 V705.71 C266.52,705.71,266.21,706.46,266.21,707.91 C266.21,709.38,266.53,710.15,267.13,710.15 H267.13 C267.71,710.15,268.02,709.36,268.02,707.91 C268.02,706.46,267.72,705.71,267.12,705.71 V705.53 C267.48,705.53,267.77,705.65,268.02,705.9 C268.43,706.28,268.69,707.08,268.69,707.93 C268.69,709.35,268.06,710.33,267.15,710.33 Z " /><polygon
         id="polygon13172"
         fill="black"
         stroke-width="0"
         points="277.84,710.4 277.84,710.96 272.75,710.96 272.75,710.4 " /><polygon
         id="polygon13174"
         fill="black"
         stroke-width="0"
         points="277.84,708.39 277.84,708.94 272.75,708.94 272.75,708.39 " /><path
         id="path13176"
         fill="black"
         stroke-width="0"
         d="M284.17,713.84 L284.1,713.8 L284.04,713.75 L283.97,713.71 L283.91,713.67 L283.86,713.63 L283.8,713.59 L283.74,713.55 L283.69,713.52 L283.64,713.48 L283.59,713.44 L283.55,713.41 L283.5,713.37 L283.46,713.34 L283.41,713.3 L283.33,713.24 L283.25,713.17 L283.18,713.1 L283.11,713.03 L283.04,712.96 L282.97,712.89 L282.9,712.81 L282.84,712.73 L282.77,712.65 C282.06,711.78,281.71,710.79,281.71,709.63 C281.71,708.37,282.08,707.39,282.96,706.38 C283.36,705.9,283.62,705.68,284.14,705.37 L284.26,705.53 C283.46,706.15,283.18,706.5,282.92,707.24 C282.68,707.91,282.57,708.66,282.57,709.66 C282.57,710.7,282.7,711.52,282.97,712.13 C283.24,712.75,283.54,713.1,284.26,713.68 Z " /><path
         id="path13178"
         fill="black"
         stroke-width="0"
         d="M289.28,708.49 L289.15,708.54 C288.78,707.97,288.65,707.88,288.2,707.88 H285.83 L287.5,709.63 C288.38,710.55,288.77,711.31,288.77,712.08 C288.77,713.08,287.96,713.84,286.93,713.84 C286.38,713.84,285.87,713.62,285.5,713.22 C285.18,712.89,285.03,712.57,284.86,711.86 L285.07,711.81 C285.47,712.79,285.83,713.1,286.51,713.1 C287.35,713.1,287.92,712.54,287.92,711.71 C287.92,710.93,287.46,710.01,286.62,709.12 L284.85,707.24 V707.12 H288.73 Z " /><path
         id="path13180"
         fill="black"
         stroke-width="0"
         d="M294.26,708.49 L294.13,708.54 C293.76,707.97,293.63,707.88,293.18,707.88 H290.81 L292.48,709.63 C293.36,710.55,293.75,711.31,293.75,712.08 C293.75,713.08,292.95,713.84,291.91,713.84 C291.36,713.84,290.85,713.62,290.48,713.22 C290.16,712.89,290.01,712.57,289.84,711.86 L290.05,711.81 C290.45,712.79,290.81,713.1,291.49,713.1 C292.33,713.1,292.9,712.54,292.9,711.71 C292.9,710.93,292.44,710.01,291.6,709.12 L289.83,707.24 V707.12 H293.71 Z " /><path
         id="path13182"
         fill="black"
         stroke-width="0"
         d="M300.75,711.74 L301.12,713.72 H300.91 C300.83,713.56,300.73,713.5,300.53,713.5 C300.45,713.5,300.33,713.52,300.13,713.57 C299.68,713.68,299.28,713.74,298.96,713.74 C296.84,713.74,294.92,711.74,294.92,709.54 C294.92,708.02,296,706.95,297.52,706.95 C298.54,706.95,299.34,707.38,300.24,708.43 L300.07,708.57 C299.17,707.69,298.59,707.39,297.78,707.39 C296.67,707.39,296.04,708.15,296.04,709.43 C296.04,710.61,296.51,711.81,297.29,712.62 C297.77,713.1,298.39,713.38,299.05,713.38 C299.97,713.38,300.47,712.85,300.57,711.77 Z " /><path
         id="path13184"
         fill="black"
         stroke-width="0"
         d="M302.9,710.4 L302.96,710.4 L303.01,710.4 L303.06,710.4 L303.11,710.4 L303.15,710.4 L303.2,710.4 L303.24,710.4 L303.28,710.4 L303.32,710.4 L303.36,710.4 L303.4,710.39 L303.43,710.39 L303.46,710.39 L303.5,710.39 L303.53,710.38 L303.56,710.38 L303.59,710.38 L303.62,710.38 L303.65,710.37 L303.67,710.37 L303.7,710.36 L303.72,710.36 L303.77,710.35 L303.82,710.34 L303.87,710.32 L303.91,710.31 L303.96,710.29 C304.57,710.08,304.96,709.51,304.96,708.82 C304.96,707.99,304.39,707.34,303.66,707.34 C303.39,707.34,303.19,707.41,302.82,707.65 C302.52,707.83,302.36,707.9,302.19,707.9 C301.96,707.9,301.81,707.76,301.81,707.55 C301.81,707.2,302.24,706.99,302.93,706.99 C303.7,706.99,304.48,707.24,304.95,707.65 C305.42,708.06,305.68,708.64,305.68,709.3 C305.68,709.81,305.52,710.27,305.23,710.58 C305.03,710.8,304.84,710.92,304.4,711.11 C305.09,711.58,305.34,711.94,305.34,712.48 C305.34,713.28,304.7,713.84,303.79,713.84 C303.29,713.84,302.85,713.67,302.49,713.35 C302.2,713.09,302.05,712.83,301.83,712.23 L301.98,712.19 C302.39,712.92,302.83,713.24,303.46,713.24 C304.11,713.24,304.55,712.81,304.55,712.18 C304.55,711.82,304.4,711.47,304.16,711.22 C303.86,710.92,303.58,710.77,302.9,710.53 Z " /><path
         id="path13186"
         fill="black"
         stroke-width="0"
         d="M306.74,705.37 L306.81,705.41 L306.87,705.45 L306.94,705.5 L307,705.54 L307.05,705.58 L307.11,705.61 L307.16,705.65 L307.22,705.69 L307.27,705.73 L307.32,705.76 L307.36,705.8 L307.41,705.83 L307.45,705.87 L307.5,705.9 L307.58,705.97 L307.66,706.04 L307.73,706.11 L307.8,706.18 L307.87,706.25 L307.94,706.32 L308.01,706.4 L308.07,706.48 L308.14,706.56 C308.85,707.42,309.2,708.42,309.2,709.58 C309.2,710.85,308.83,711.81,307.95,712.83 C307.55,713.3,307.29,713.52,306.77,713.84 L306.65,713.68 C307.45,713.05,307.71,712.71,307.99,711.96 C308.23,711.3,308.34,710.54,308.34,709.55 C308.34,708.52,308.21,707.69,307.94,707.09 C307.67,706.46,307.37,706.1,306.65,705.53 Z " /><path
         id="path13188"
         fill="black"
         stroke-width="0"
         d="M311.7,710.33 L310.45,709.7 V709.6 C310.54,709.64,310.61,709.66,310.64,709.68 C310.76,709.73,310.88,709.76,310.95,709.76 C311.1,709.76,311.16,709.65,311.16,709.43 V706.28 C311.16,706.05,311.11,705.89,310.99,705.83 C310.89,705.76,310.79,705.74,310.5,705.73 V705.63 H312.42 V705.73 C311.87,705.74,311.76,705.81,311.76,706.15 V710.32 Z " /><path
         id="path13190"
         fill="black"
         stroke-width="0"
         d="M316.27,710.39 L316.2,710.38 L316.13,710.37 L316.06,710.37 L315.99,710.36 L315.93,710.35 L315.86,710.34 L315.8,710.33 L315.74,710.32 L315.68,710.31 L315.63,710.3 L315.57,710.29 L315.52,710.27 L315.46,710.26 L315.41,710.25 L315.31,710.22 L315.21,710.18 L315.12,710.14 L315.03,710.1 L314.93,710.06 L314.84,710.01 L314.75,709.95 L314.66,709.89 L314.61,709.86 L314.57,709.83 C313.81,709.3,313.4,708.5,313.4,707.57 C313.4,706.97,313.59,706.35,313.89,706.01 C314.15,705.7,314.53,705.53,314.96,705.53 C315.83,705.53,316.42,706.19,316.42,707.15 C316.42,708.04,315.92,708.61,315.11,708.61 C314.81,708.61,314.66,708.56,314.22,708.29 L314.24,708.11 C314.39,708.22,314.61,708.29,314.85,708.29 H314.85 C315.45,708.29,315.8,707.79,315.8,706.92 C315.8,706.15,315.53,705.73,315.04,705.73 C314.42,705.73,314.05,706.38,314.05,707.46 C314.05,707.81,314.11,708.01,314.24,708.11 L314.22,708.29 C314.41,709.34,315.19,710.09,316.29,710.28 Z " /></g>  </g>
</svg>
