<?xml version="1.0" encoding="UTF-8" standalone="no"?>
<!-- Created with Inkscape (http://www.inkscape.org/) -->

<svg
   xmlns:ns0="http://www.iki.fi/pav/software/textext/"
   xmlns:dc="http://purl.org/dc/elements/1.1/"
   xmlns:cc="http://creativecommons.org/ns#"
   xmlns:rdf="http://www.w3.org/1999/02/22-rdf-syntax-ns#"
   xmlns:svg="http://www.w3.org/2000/svg"
   xmlns="http://www.w3.org/2000/svg"
   xmlns:sodipodi="http://sodipodi.sourceforge.net/DTD/sodipodi-0.dtd"
   xmlns:inkscape="http://www.inkscape.org/namespaces/inkscape"
   width="496.06299"
   height="354.33069"
   id="svg2"
   version="1.1"
   inkscape:version="0.48.4 r9939"
   sodipodi:docname="div12.eps">
  <sodipodi:namedview
     id="base"
     pagecolor="#ffffff"
     bordercolor="#666666"
     borderopacity="1.0"
     inkscape:pageopacity="0.0"
     inkscape:pageshadow="2"
     inkscape:zoom="1.9009811"
     inkscape:cx="224.52108"
     inkscape:cy="254.25991"
     inkscape:document-units="cm"
     inkscape:current-layer="layer1"
     showgrid="false"
     units="cm"
     inkscape:object-nodes="true"
     inkscape:window-width="1366"
     inkscape:window-height="744"
     inkscape:window-x="0"
     inkscape:window-y="24"
     inkscape:window-maximized="1">
    <inkscape:grid
       type="xygrid"
       id="grid2985"
       empspacing="5"
       visible="true"
       enabled="true"
       snapvisiblegridlinesonly="true" />
  </sodipodi:namedview>
  <defs
     id="defs4">
    <marker
       inkscape:stockid="Arrow1Mstart"
       orient="auto"
       refY="0"
       refX="0"
       id="Arrow1Mstart"
       style="overflow:visible">
      <path
         inkscape:connector-curvature="0"
         id="path3775"
         d="M 0,0 5,-5 -12.5,0 5,5 0,0 z"
         style="fill-rule:evenodd;stroke:#000000;stroke-width:1pt"
         transform="matrix(0.4,0,0,0.4,4,0)" />
    </marker>
    <marker
       inkscape:stockid="Arrow1Mend"
       orient="auto"
       refY="0"
       refX="0"
       id="Arrow1Mend"
       style="overflow:visible">
      <path
         inkscape:connector-curvature="0"
         id="path3778"
         d="M 0,0 5,-5 -12.5,0 5,5 0,0 z"
         style="fill-rule:evenodd;stroke:#000000;stroke-width:1pt"
         transform="matrix(-0.4,0,0,-0.4,-4,0)" />
    </marker>
    <marker
       inkscape:stockid="Arrow1Mstart"
       orient="auto"
       refY="0"
       refX="0"
       id="Arrow1Mstart-2"
       style="overflow:visible">
      <path
         inkscape:connector-curvature="0"
         id="path3775-8"
         d="M 0,0 5,-5 -12.5,0 5,5 0,0 z"
         style="fill-rule:evenodd;stroke:#000000;stroke-width:1pt"
         transform="matrix(0.4,0,0,0.4,4,0)" />
    </marker>
  </defs>
  <metadata
     id="metadata7">
    <rdf:RDF>
      <cc:Work
         rdf:about="">
        <dc:format>image/svg+xml</dc:format>
        <dc:type
           rdf:resource="http://purl.org/dc/dcmitype/StillImage" />
        <dc:title></dc:title>
      </cc:Work>
    </rdf:RDF>
  </metadata>
  <g
     inkscape:label="Layer 1"
     inkscape:groupmode="layer"
     id="layer1"
     transform="translate(0,-698.03016)">
    <text
       transform="translate(0,698.03016)"
       sodipodi:linespacing="100%"
       id="text5818"
       y="56.040417"
       x="61.700558"
       style="font-size:12px;font-style:normal;font-variant:normal;font-weight:normal;font-stretch:normal;text-align:start;line-height:100%;letter-spacing:0px;word-spacing:0px;text-anchor:start;fill:#000000;fill-opacity:1;stroke:none;font-family:LMRoman12;-inkscape-font-specification:Sans"
       xml:space="preserve"><tspan
         y="56.040417"
         x="61.700558"
         id="tspan5820"
         sodipodi:role="line" /></text>
    <flowRoot
       xml:space="preserve"
       id="flowRoot6377"
       style="fill:black;stroke:none;stroke-opacity:1;stroke-width:1px;stroke-linejoin:miter;stroke-linecap:butt;fill-opacity:1;font-family:LMRoman12;font-style:normal;font-weight:normal;font-size:12px;line-height:100%;letter-spacing:0px;word-spacing:0px;-inkscape-font-specification:Sans;font-stretch:normal;font-variant:normal;text-anchor:start;text-align:start"><flowRegion
         id="flowRegion6379"><rect
           id="rect6381"
           width="27.681772"
           height="40.319103"
           x="219.34796"
           y="87.141403" /></flowRegion><flowPara
         id="flowPara6383" /></flowRoot>    <text
       xml:space="preserve"
       style="font-size:12px;font-style:normal;font-variant:normal;font-weight:normal;font-stretch:normal;text-align:start;line-height:50%;letter-spacing:0px;word-spacing:0px;text-anchor:start;fill:#000000;fill-opacity:1;stroke:none;font-family:LMRoman12;-inkscape-font-specification:Sans"
       x="275.91507"
       y="55.247185"
       id="text6385"
       sodipodi:linespacing="50%"
       transform="translate(0,698.03016)"><tspan
         sodipodi:role="line"
         id="tspan6387" /></text>
    <text
       xml:space="preserve"
       style="font-size:12px;font-style:normal;font-variant:normal;font-weight:normal;font-stretch:normal;text-align:start;line-height:100%;letter-spacing:0px;word-spacing:0px;text-anchor:start;fill:#000000;fill-opacity:1;stroke:none;font-family:LMRoman12;-inkscape-font-specification:Sans"
       x="348.65417"
       y="194.38702"
       id="text3884"
       sodipodi:linespacing="100%"
       transform="translate(0,698.03016)"><tspan
         sodipodi:role="line"
         x="348.65417"
         y="194.38702"
         id="tspan3890" /></text>
    <text
       xml:space="preserve"
       style="font-size:12px;font-style:normal;font-variant:normal;font-weight:normal;font-stretch:normal;text-align:start;line-height:150%;letter-spacing:0px;word-spacing:0px;text-anchor:start;fill:#000000;fill-opacity:1;stroke:none;font-family:LMRoman12;-inkscape-font-specification:Sans"
       x="216.96629"
       y="250.89732"
       id="text3887"
       sodipodi:linespacing="150%"
       transform="translate(0,698.03016)"><tspan
         sodipodi:role="line"
         id="tspan3889"
         x="216.96629"
         y="250.89732" /></text>
    <path
       style="fill:none;stroke:#000000;stroke-width:1;stroke-linecap:square;stroke-linejoin:round;stroke-miterlimit:4;stroke-opacity:1;stroke-dasharray:none;stroke-dashoffset:0"
       d="m 123.84761,731.13798 0,11.22287 35.66035,0"
       id="path7259"
       inkscape:connector-curvature="0"
       sodipodi:nodetypes="ccc" />
    <text
       xml:space="preserve"
       style="font-size:12px;font-style:normal;font-variant:normal;font-weight:normal;font-stretch:normal;text-align:start;line-height:150%;letter-spacing:0px;word-spacing:0px;text-anchor:start;fill:#000000;fill-opacity:1;stroke:none;font-family:LMRoman12;-inkscape-font-specification:Sans"
       x="127.05338"
       y="739.5755"
       id="text7261"
       sodipodi:linespacing="150%"><tspan
         sodipodi:role="line"
         id="tspan7263"
         x="127.05338"
         y="739.5755">11582</tspan></text>
    <text
       sodipodi:linespacing="150%"
       id="text7271"
       y="754.70447"
       x="132.51619"
       style="font-size:12px;font-style:normal;font-variant:normal;font-weight:normal;font-stretch:normal;text-align:start;line-height:150%;letter-spacing:0px;word-spacing:0px;text-anchor:start;fill:#000000;fill-opacity:1;stroke:none;font-family:LMRoman12;-inkscape-font-specification:Sans"
       xml:space="preserve"><tspan
         y="754.70447"
         x="132.51619"
         id="tspan7273"
         sodipodi:role="line">1447</tspan></text>
    <text
       xml:space="preserve"
       style="font-size:12px;font-style:normal;font-variant:normal;font-weight:normal;font-stretch:normal;text-align:start;line-height:150%;letter-spacing:0px;word-spacing:0px;text-anchor:start;fill:#000000;fill-opacity:1;stroke:none;font-family:LMRoman12;-inkscape-font-specification:Sans"
       x="138.72301"
       y="770.54987"
       id="text7279"
       sodipodi:linespacing="150%"><tspan
         sodipodi:role="line"
         id="tspan7281"
         x="138.72301"
         y="770.54987">180</tspan></text>
    <text
       sodipodi:linespacing="150%"
       id="text7287"
       y="785.35657"
       x="144.70181"
       style="font-size:12px;font-style:normal;font-variant:normal;font-weight:normal;font-stretch:normal;text-align:start;line-height:150%;letter-spacing:0px;word-spacing:0px;text-anchor:start;fill:#000000;fill-opacity:1;stroke:none;font-family:LMRoman12;-inkscape-font-specification:Sans"
       xml:space="preserve"><tspan
         y="785.35657"
         x="144.70181"
         id="tspan7289"
         sodipodi:role="line">22</tspan></text>
    <text
       xml:space="preserve"
       style="font-size:12px;font-style:normal;font-variant:normal;font-weight:normal;font-stretch:normal;text-align:start;line-height:150%;letter-spacing:0px;word-spacing:0px;text-anchor:start;fill:#000000;fill-opacity:1;stroke:none;font-family:LMRoman12;-inkscape-font-specification:Sans"
       x="109.42476"
       y="740.36084"
       id="text7341"
       sodipodi:linespacing="150%"><tspan
         sodipodi:role="line"
         x="109.42476"
         y="740.36084"
         id="tspan7349">8</tspan></text>
    <text
       sodipodi:linespacing="150%"
       id="text7357"
       y="753.45624"
       x="109.42476"
       style="font-size:12px;font-style:normal;font-variant:normal;font-weight:normal;font-stretch:normal;text-align:start;line-height:150%;letter-spacing:0px;word-spacing:0px;text-anchor:start;fill:#000000;fill-opacity:1;stroke:none;font-family:LMRoman12;-inkscape-font-specification:Sans"
       xml:space="preserve"><tspan
         id="tspan7359"
         y="753.45624"
         x="109.42476"
         sodipodi:role="line">8</tspan></text>
    <text
       xml:space="preserve"
       style="font-size:12px;font-style:normal;font-variant:normal;font-weight:normal;font-stretch:normal;text-align:start;line-height:150%;letter-spacing:0px;word-spacing:0px;text-anchor:start;fill:#000000;fill-opacity:1;stroke:none;font-family:LMRoman12;-inkscape-font-specification:Sans"
       x="109.42476"
       y="769.55164"
       id="text7361"
       sodipodi:linespacing="150%"><tspan
         sodipodi:role="line"
         x="109.42476"
         y="769.55164"
         id="tspan7363">8</tspan></text>
    <text
       sodipodi:linespacing="150%"
       id="text7365"
       y="784.48334"
       x="109.42476"
       style="font-size:12px;font-style:normal;font-variant:normal;font-weight:normal;font-stretch:normal;text-align:start;line-height:150%;letter-spacing:0px;word-spacing:0px;text-anchor:start;fill:#000000;fill-opacity:1;stroke:none;font-family:LMRoman12;-inkscape-font-specification:Sans"
       xml:space="preserve"><tspan
         id="tspan7367"
         y="784.48334"
         x="109.42476"
         sodipodi:role="line">8</tspan></text>
    <text
       xml:space="preserve"
       style="font-size:12px;font-style:normal;font-variant:normal;font-weight:normal;font-stretch:normal;text-align:start;line-height:150%;letter-spacing:0px;word-spacing:0px;text-anchor:start;fill:#000000;fill-opacity:1;stroke:none;font-family:LMRoman12;-inkscape-font-specification:Sans"
       x="173"
       y="61.080688"
       id="text7389"
       sodipodi:linespacing="150%"
       transform="translate(0,698.03016)"><tspan
         sodipodi:role="line"
         id="tspan7391"
         x="173"
         y="61.080688" /></text>
    <path
       style="fill:none;stroke:#000000;stroke-width:0.60000002;stroke-linecap:square;stroke-linejoin:round;stroke-miterlimit:4;stroke-opacity:1;stroke-dasharray:none;stroke-dashoffset:0;marker-mid:none"
       d="m 167.5,750.95622 8.5,0"
       id="path7393"
       inkscape:connector-curvature="0" />
    <path
       inkscape:connector-curvature="0"
       id="path7763"
       d="m 167.5,766.42659 8.5,0"
       style="fill:none;stroke:#000000;stroke-width:0.60000002;stroke-linecap:square;stroke-linejoin:round;stroke-miterlimit:4;stroke-opacity:1;stroke-dasharray:none;stroke-dashoffset:0;marker-mid:none" />
    <path
       inkscape:connector-curvature="0"
       id="path7765"
       d="m 167.5,781.3583 8.5,0"
       style="fill:none;stroke:#000000;stroke-width:0.60000002;stroke-linecap:square;stroke-linejoin:round;stroke-miterlimit:4;stroke-opacity:1;stroke-dasharray:none;stroke-dashoffset:0;marker-mid:none" />
    <text
       xml:space="preserve"
       style="font-size:12px;font-style:normal;font-variant:normal;font-weight:normal;font-stretch:normal;text-align:start;line-height:150%;letter-spacing:0px;word-spacing:0px;text-anchor:start;fill:#000000;fill-opacity:1;stroke:none;font-family:LMRoman12;-inkscape-font-specification:Sans"
       x="188.62489"
       y="753.45624"
       id="text7777"
       sodipodi:linespacing="150%"><tspan
         sodipodi:role="line"
         x="188.62489"
         y="753.45624"
         id="tspan7779">6</tspan></text>
    <text
       sodipodi:linespacing="150%"
       id="text7781"
       y="769.55164"
       x="188.62489"
       style="font-size:12px;font-style:normal;font-variant:normal;font-weight:normal;font-stretch:normal;text-align:start;line-height:150%;letter-spacing:0px;word-spacing:0px;text-anchor:start;fill:#000000;fill-opacity:1;stroke:none;font-family:LMRoman12;-inkscape-font-specification:Sans"
       xml:space="preserve"><tspan
         id="tspan7783"
         y="769.55164"
         x="188.62489"
         sodipodi:role="line">7</tspan></text>
    <text
       xml:space="preserve"
       style="font-size:12px;font-style:normal;font-variant:normal;font-weight:normal;font-stretch:normal;text-align:start;line-height:150%;letter-spacing:0px;word-spacing:0px;text-anchor:start;fill:#000000;fill-opacity:1;stroke:none;font-family:LMRoman12;-inkscape-font-specification:Sans"
       x="188.62489"
       y="784.48334"
       id="text7785"
       sodipodi:linespacing="150%"><tspan
         sodipodi:role="line"
         x="188.62489"
         y="784.48334"
         id="tspan7787">4</tspan></text>
    <text
       xml:space="preserve"
       style="font-size:12px;font-style:normal;font-variant:normal;font-weight:normal;font-stretch:normal;text-align:start;line-height:150%;letter-spacing:0px;word-spacing:0px;text-anchor:start;fill:#000000;fill-opacity:1;stroke:none;font-family:LMRoman12;-inkscape-font-specification:Sans"
       x="173.07074"
       y="739.27783"
       id="text7815"
       sodipodi:linespacing="150%"><tspan
         sodipodi:role="line"
         id="tspan7817"
         x="173.07074"
         y="739.27783">Remainder</tspan></text>
    <path
       sodipodi:nodetypes="ccc"
       inkscape:connector-curvature="0"
       id="path9265"
       d="m 123.84761,746.13798 0,11.22287 35.66035,0"
       style="fill:none;stroke:#000000;stroke-width:1;stroke-linecap:square;stroke-linejoin:round;stroke-miterlimit:4;stroke-opacity:1;stroke-dasharray:none;stroke-dashoffset:0" />
    <path
       style="fill:none;stroke:#000000;stroke-width:1;stroke-linecap:square;stroke-linejoin:round;stroke-miterlimit:4;stroke-opacity:1;stroke-dasharray:none;stroke-dashoffset:0"
       d="m 123.84761,761.13798 0,11.22287 35.66035,0"
       id="path9267"
       inkscape:connector-curvature="0"
       sodipodi:nodetypes="ccc" />
    <path
       sodipodi:nodetypes="ccc"
       inkscape:connector-curvature="0"
       id="path9269"
       d="m 123.84761,776.13798 0,11.22287 35.66035,0"
       style="fill:none;stroke:#000000;stroke-width:1;stroke-linecap:square;stroke-linejoin:round;stroke-miterlimit:4;stroke-opacity:1;stroke-dasharray:none;stroke-dashoffset:0" />
    <text
       xml:space="preserve"
       style="font-size:12px;font-style:normal;font-variant:normal;font-weight:normal;font-stretch:normal;text-align:start;line-height:150%;letter-spacing:0px;word-spacing:0px;text-anchor:start;fill:#000000;fill-opacity:1;stroke:none;font-family:LMRoman12;-inkscape-font-specification:Sans"
       x="150.58463"
       y="800.18604"
       id="text11170"
       sodipodi:linespacing="150%"><tspan
         sodipodi:role="line"
         id="tspan11172"
         x="150.58463"
         y="800.18604">2</tspan></text>
    <path
       style="fill:none;stroke:#000000;stroke-width:0.60000002;stroke-linecap:square;stroke-linejoin:round;stroke-miterlimit:4;stroke-opacity:1;stroke-dasharray:none;stroke-dashoffset:0;marker-mid:none"
       d="m 167.5,797.72586 8.5,0"
       id="path11174"
       inkscape:connector-curvature="0" />
    <text
       sodipodi:linespacing="150%"
       id="text11176"
       y="800.85089"
       x="188.62489"
       style="font-size:12px;font-style:normal;font-variant:normal;font-weight:normal;font-stretch:normal;text-align:start;line-height:150%;letter-spacing:0px;word-spacing:0px;text-anchor:start;fill:#000000;fill-opacity:1;stroke:none;font-family:LMRoman12;-inkscape-font-specification:Sans"
       xml:space="preserve"><tspan
         id="tspan11178"
         y="800.85089"
         x="188.62489"
         sodipodi:role="line">6</tspan></text>
    <text
       xml:space="preserve"
       style="font-size:12px;font-style:normal;font-variant:normal;font-weight:normal;font-stretch:normal;text-align:start;line-height:150%;letter-spacing:0px;word-spacing:0px;text-anchor:start;fill:#000000;fill-opacity:1;stroke:none;font-family:LMRoman12;-inkscape-font-specification:Sans"
       x="150.48863"
       y="817.03217"
       id="text11613"
       sodipodi:linespacing="150%"><tspan
         sodipodi:role="line"
         id="tspan11615"
         x="150.48863"
         y="817.03217">0</tspan></text>
    <path
       style="fill:none;stroke:#000000;stroke-width:1;stroke-linecap:square;stroke-linejoin:round;stroke-miterlimit:4;stroke-opacity:1;stroke-dasharray:none;stroke-dashoffset:0"
       d="m 123.84761,791.13798 0,11.22287 35.66035,0"
       id="path11617"
       inkscape:connector-curvature="0"
       sodipodi:nodetypes="ccc" />
    <text
       xml:space="preserve"
       style="font-size:12px;font-style:normal;font-variant:normal;font-weight:normal;font-stretch:normal;text-align:start;line-height:150%;letter-spacing:0px;word-spacing:0px;text-anchor:start;fill:#000000;fill-opacity:1;stroke:none;font-family:LMRoman12;-inkscape-font-specification:Sans"
       x="188.62489"
       y="817.16486"
       id="text11619"
       sodipodi:linespacing="150%"><tspan
         sodipodi:role="line"
         x="188.62489"
         y="817.16486"
         id="tspan11621">2</tspan></text>
    <text
       sodipodi:linespacing="150%"
       id="text11623"
       y="800.18604"
       x="108.82086"
       style="font-size:12px;font-style:normal;font-variant:normal;font-weight:normal;font-stretch:normal;text-align:start;line-height:150%;letter-spacing:0px;word-spacing:0px;text-anchor:start;fill:#000000;fill-opacity:1;stroke:none;font-family:LMRoman12;-inkscape-font-specification:Sans"
       xml:space="preserve"><tspan
         y="800.18604"
         x="108.82086"
         id="tspan11625"
         sodipodi:role="line">2</tspan></text>
    <path
       style="fill:none;stroke:#000000;stroke-width:1;stroke-linecap:square;stroke-linejoin:round;stroke-miterlimit:4;stroke-opacity:1;stroke-dasharray:none;stroke-dashoffset:0;marker-start:url(#Arrow1Mstart);marker-end:none"
       d="m 211.64198,746.2342 0,70.36309"
       id="path4924"
       inkscape:connector-curvature="0" />
    <g
       id="content"
       transform="matrix(1.2,0,0,-1.2,-37.811123,1630.4539)"
       xml:space="preserve"
       stroke="black"
       stroke-linecap="butt"
       stroke-linejoin="miter"
       stroke-miterlimit="10.433"
       stroke-dasharray="none"
       stroke-dashoffset="0"
       stroke-opacity="1"
       fill="none"
       fill-rule="evenodd"
       fill-opacity="1"
       font-style="normal"
       font-variant="normal"
       font-weight="normal"
       font-stretch="normal"
       font-size-adjust="none"
       letter-spacing="normal"
       word-spacing="normal"
       text-anchor="start"
       ns0:text="$\\therefore~ (11582)_{10}= (26476)_8$"
       ns0:preamble="/home/sriranga/Desktop/Prism_BasicElectronics/preamble.tex"
       style="font-style:normal;font-variant:normal;font-weight:normal;font-stretch:normal;letter-spacing:normal;word-spacing:normal;text-anchor:start;fill:none;stroke:#000000;stroke-width:1;stroke-linecap:butt;stroke-linejoin:miter;stroke-miterlimit:10.43299961;stroke-opacity:1;stroke-dasharray:none;stroke-dashoffset:0"><path
         d="M227.27,711.21 L227.27,711.23 L227.27,711.26 L227.27,711.29 L227.26,711.31 L227.26,711.34 L227.25,711.36 L227.24,711.39 L227.23,711.41 L227.22,711.43 L227.21,711.46 L227.2,711.48 L227.18,711.5 L227.17,711.52 L227.15,711.54 L227.13,711.56 L227.12,711.58 L227.1,711.6 L227.08,711.61 L227.06,711.63 L227.04,711.64 L227.02,711.66 L227,711.67 L226.97,711.68 L226.95,711.69 L226.93,711.7 L226.9,711.71 L226.88,711.72 L226.85,711.72 L226.82,711.73 L226.8,711.73 L226.77,711.73 L226.74,711.73 C226.46,711.73,226.22,711.5,226.22,711.21 C226.22,710.92,226.46,710.68,226.74,710.68 C227.02,710.68,227.27,710.91,227.27,711.21 Z "
         stroke-width="0"
         fill="black"
         id="path11709" /><path
         d="M229.76,706.91 L229.76,706.93 L229.76,706.96 L229.75,706.99 L229.75,707.01 L229.74,707.04 L229.74,707.06 L229.73,707.09 L229.72,707.11 L229.71,707.13 L229.7,707.16 L229.68,707.18 L229.67,707.2 L229.65,707.22 L229.64,707.24 L229.62,707.26 L229.6,707.28 L229.59,707.3 L229.57,707.31 L229.55,707.33 L229.53,707.34 L229.5,707.36 L229.48,707.37 L229.46,707.38 L229.44,707.39 L229.41,707.4 L229.39,707.41 L229.36,707.42 L229.34,707.42 L229.31,707.43 L229.29,707.43 L229.26,707.43 L229.23,707.43 C228.94,707.43,228.71,707.19,228.71,706.91 C228.71,706.62,228.94,706.38,229.23,706.38 C229.52,706.38,229.76,706.62,229.76,706.91 Z "
         stroke-width="0"
         fill="black"
         id="path11711" /><path
         d="M224.79,706.91 L224.78,706.93 L224.78,706.96 L224.78,706.99 L224.77,707.01 L224.77,707.04 L224.76,707.06 L224.75,707.09 L224.74,707.11 L224.73,707.13 L224.72,707.16 L224.71,707.18 L224.69,707.2 L224.68,707.22 L224.66,707.24 L224.65,707.26 L224.63,707.28 L224.61,707.3 L224.59,707.31 L224.57,707.33 L224.55,707.34 L224.53,707.36 L224.51,707.37 L224.49,707.38 L224.46,707.39 L224.44,707.4 L224.41,707.41 L224.39,707.42 L224.36,707.42 L224.34,707.43 L224.31,707.43 L224.28,707.43 L224.26,707.43 C223.97,707.43,223.73,707.19,223.73,706.91 C223.73,706.62,223.97,706.38,224.26,706.38 C224.55,706.38,224.79,706.62,224.79,706.91 Z "
         stroke-width="0"
         fill="black"
         id="path11713" /><path
         d="M238.27,713.84 L238.2,713.8 L238.13,713.75 L238.07,713.71 L238.01,713.67 L237.95,713.63 L237.9,713.59 L237.84,713.55 L237.79,713.52 L237.74,713.48 L237.69,713.44 L237.64,713.41 L237.6,713.37 L237.55,713.34 L237.51,713.3 L237.43,713.24 L237.35,713.17 L237.28,713.1 L237.2,713.03 L237.13,712.96 L237.07,712.89 L237,712.81 L236.93,712.73 L236.86,712.65 C236.16,711.78,235.81,710.79,235.81,709.63 C235.81,708.37,236.18,707.39,237.05,706.38 C237.46,705.9,237.72,705.68,238.24,705.37 L238.36,705.53 C237.56,706.15,237.28,706.5,237.01,707.24 C236.77,707.91,236.66,708.66,236.66,709.66 C236.66,710.7,236.79,711.52,237.06,712.13 C237.34,712.75,237.64,713.1,238.36,713.68 Z "
         stroke-width="0"
         fill="black"
         id="path11715" /><path
         d="M241.54,713.84 L239.75,712.94 V712.8 C239.87,712.85,239.98,712.89,240.02,712.91 C240.2,712.98,240.37,713.02,240.47,713.02 C240.68,713.02,240.77,712.87,240.77,712.55 V708.05 C240.77,707.72,240.69,707.49,240.53,707.4 C240.38,707.31,240.24,707.28,239.82,707.27 V707.12 H242.57 V707.27 C241.78,707.28,241.62,707.38,241.62,707.86 V713.82 Z "
         stroke-width="0"
         fill="black"
         id="path11717" /><path
         d="M246.53,713.84 L244.74,712.94 V712.8 C244.85,712.85,244.96,712.89,245,712.91 C245.18,712.98,245.35,713.02,245.45,713.02 C245.66,713.02,245.75,712.87,245.75,712.55 V708.05 C245.75,707.72,245.67,707.49,245.51,707.4 C245.36,707.31,245.22,707.28,244.8,707.27 V707.12 H247.55 V707.27 C246.76,707.28,246.61,707.38,246.61,707.86 V713.82 Z "
         stroke-width="0"
         fill="black"
         id="path11719" /><path
         d="M250.41,712.92 H252.36 C252.52,712.92,252.56,712.94,252.59,713.01 L252.97,713.89 L252.88,713.96 C252.73,713.75,252.63,713.7,252.42,713.7 H250.34 L249.26,711.35 C249.25,711.33,249.25,711.32,249.25,711.3 C249.25,711.25,249.29,711.22,249.37,711.22 C249.69,711.22,250.09,711.15,250.49,711.02 C251.64,710.65,252.16,710.04,252.16,709.05 C252.16,708.1,251.56,707.35,250.78,707.35 C250.58,707.35,250.41,707.42,250.11,707.64 C249.8,707.87,249.57,707.97,249.36,707.97 C249.07,707.97,248.93,707.85,248.93,707.6 C248.93,707.22,249.4,706.99,250.14,706.99 C250.98,706.99,251.7,707.25,252.19,707.76 C252.65,708.21,252.86,708.77,252.86,709.53 C252.86,710.24,252.67,710.7,252.17,711.2 C251.74,711.64,251.17,711.86,249.99,712.07 Z "
         stroke-width="0"
         fill="black"
         id="path11721" /><path
         d="M256.48,710.81 L256.57,710.86 L256.66,710.91 L256.74,710.96 L256.82,711 L256.9,711.05 L256.97,711.1 L257.04,711.14 L257.1,711.19 L257.17,711.24 L257.22,711.28 L257.28,711.33 L257.33,711.38 L257.38,711.42 L257.43,711.47 L257.47,711.52 L257.51,711.56 L257.55,711.61 L257.59,711.66 L257.62,711.71 L257.65,711.76 L257.68,711.81 L257.7,711.86 L257.72,711.91 L257.74,711.97 L257.76,712.02 L257.77,712.07 L257.79,712.13 L257.8,712.19 L257.8,712.25 L257.81,712.31 L257.81,712.37 L257.81,712.43 C257.81,713.24,257.1,713.84,256.1,713.84 L256.02,713.56 C256.7,713.56,257.12,713.12,257.12,712.44 C257.12,711.87,256.85,711.43,256.28,711.05 C256.23,711.02,256.23,711.02,256.19,710.99 H256.19 C255.3,711.57,254.95,712.02,254.95,712.58 C254.95,713.16,255.39,713.56,256.02,713.56 L256.1,713.84 C255.02,713.84,254.21,713.17,254.21,712.27 C254.21,711.62,254.4,711.34,255.44,710.42 C254.37,709.61,254.15,709.3,254.15,708.62 C254.15,707.66,254.94,706.99,256.06,706.99 L256.17,707.26 C255.41,707.26,254.91,707.84,254.91,708.7 C254.91,709.34,255.13,709.76,255.7,710.22 L256.3,709.79 C257.03,709.27,257.27,708.91,257.27,708.36 C257.27,707.71,256.82,707.26,256.17,707.26 L256.06,706.99 C257.26,706.99,258.02,707.64,258.02,708.66 C258.02,709.43,257.68,709.92,256.48,710.81 Z "
         stroke-width="0"
         fill="black"
         id="path11723" /><path
         d="M263.3,708.49 L263.17,708.54 C262.8,707.97,262.67,707.88,262.23,707.88 H259.85 L261.52,709.63 C262.4,710.55,262.79,711.31,262.79,712.08 C262.79,713.08,261.99,713.84,260.95,713.84 C260.4,713.84,259.89,713.62,259.52,713.22 C259.2,712.89,259.05,712.57,258.88,711.86 L259.09,711.81 C259.49,712.79,259.85,713.1,260.54,713.1 C261.37,713.1,261.94,712.54,261.94,711.71 C261.94,710.93,261.48,710.01,260.64,709.12 L258.87,707.24 V707.12 H262.75 Z "
         stroke-width="0"
         fill="black"
         id="path11725" /><path
         d="M263.93,705.37 L264,705.41 L264.07,705.45 L264.13,705.5 L264.19,705.54 L264.25,705.58 L264.31,705.61 L264.36,705.65 L264.41,705.69 L264.46,705.73 L264.51,705.76 L264.56,705.8 L264.6,705.83 L264.65,705.87 L264.69,705.9 L264.77,705.97 L264.85,706.04 L264.93,706.11 L265,706.18 L265.07,706.25 L265.13,706.32 L265.2,706.4 L265.27,706.48 L265.34,706.56 C266.04,707.42,266.39,708.42,266.39,709.58 C266.39,710.85,266.02,711.81,265.15,712.83 C264.74,713.3,264.48,713.52,263.96,713.84 L263.85,713.68 C264.64,713.05,264.91,712.71,265.19,711.96 C265.43,711.3,265.54,710.54,265.54,709.55 C265.54,708.52,265.41,707.69,265.14,707.09 C264.86,706.46,264.56,706.1,263.85,705.53 Z "
         stroke-width="0"
         fill="black"
         id="path11727" /><path
         d="M268.9,710.33 L267.65,709.7 V709.6 C267.73,709.64,267.81,709.66,267.83,709.68 C267.96,709.73,268.08,709.76,268.15,709.76 C268.3,709.76,268.36,709.65,268.36,709.43 V706.28 C268.36,706.05,268.3,705.89,268.19,705.83 C268.09,705.76,267.99,705.74,267.7,705.73 V705.63 H269.62 V705.73 C269.07,705.74,268.96,705.81,268.96,706.15 V710.32 Z "
         stroke-width="0"
         fill="black"
         id="path11729" /><path
         d="M272.13,710.33 L272.09,710.33 L272.06,710.33 L272.02,710.33 L271.99,710.33 L271.96,710.32 L271.92,710.32 L271.89,710.31 L271.86,710.31 L271.83,710.3 L271.8,710.3 L271.76,710.29 L271.73,710.28 L271.7,710.27 L271.67,710.26 L271.65,710.25 L271.62,710.24 L271.59,710.23 L271.56,710.22 L271.53,710.21 L271.5,710.19 L271.48,710.18 L271.45,710.16 L271.42,710.15 L271.4,710.13 L271.37,710.11 L271.35,710.09 L271.32,710.07 L271.3,710.06 L271.27,710.04 L271.25,710.01 L271.22,709.99 L271.2,709.97 C270.79,709.58,270.53,708.78,270.53,707.97 C270.53,707.21,270.76,706.4,271.08,706.01 C271.34,705.7,271.7,705.53,272.1,705.53 V705.71 C271.5,705.71,271.2,706.46,271.2,707.91 C271.2,709.38,271.51,710.15,272.11,710.15 H272.11 C272.69,710.15,273.01,709.36,273.01,707.91 C273.01,706.46,272.7,705.71,272.1,705.71 V705.53 C272.46,705.53,272.76,705.65,273.01,705.9 C273.41,706.28,273.68,707.08,273.68,707.93 C273.68,709.35,273.04,710.33,272.13,710.33 Z "
         stroke-width="0"
         fill="black"
         id="path11731" /><polygon
         points="282.82,710.4 282.82,710.96 277.73,710.96 277.73,710.4 "
         stroke-width="0"
         fill="black"
         id="polygon11733" /><polygon
         points="282.82,708.39 282.82,708.94 277.73,708.94 277.73,708.39 "
         stroke-width="0"
         fill="black"
         id="polygon11735" /><path
         d="M289.15,713.84 L289.08,713.8 L289.02,713.75 L288.96,713.71 L288.89,713.67 L288.84,713.63 L288.78,713.59 L288.73,713.55 L288.67,713.52 L288.62,713.48 L288.57,713.44 L288.53,713.41 L288.48,713.37 L288.44,713.34 L288.39,713.3 L288.31,713.24 L288.23,713.17 L288.16,713.1 L288.09,713.03 L288.02,712.96 L287.95,712.89 L287.88,712.81 L287.82,712.73 L287.75,712.65 C287.04,711.78,286.69,710.79,286.69,709.63 C286.69,708.37,287.06,707.39,287.94,706.38 C288.35,705.9,288.6,705.68,289.12,705.37 L289.24,705.53 C288.45,706.15,288.17,706.5,287.9,707.24 C287.66,707.91,287.55,708.66,287.55,709.66 C287.55,710.7,287.68,711.52,287.95,712.13 C288.23,712.75,288.52,713.1,289.24,713.68 Z "
         stroke-width="0"
         fill="black"
         id="path11737" /><path
         d="M294.26,708.49 L294.13,708.54 C293.76,707.97,293.63,707.88,293.18,707.88 H290.81 L292.48,709.63 C293.36,710.55,293.75,711.31,293.75,712.08 C293.75,713.08,292.95,713.84,291.91,713.84 C291.36,713.84,290.85,713.62,290.48,713.22 C290.16,712.89,290.01,712.57,289.84,711.86 L290.05,711.81 C290.45,712.79,290.81,713.1,291.49,713.1 C292.33,713.1,292.9,712.54,292.9,711.71 C292.9,710.93,292.44,710.01,291.6,709.12 L289.83,707.24 V707.12 H293.71 Z "
         stroke-width="0"
         fill="black"
         id="path11739" /><path
         d="M298.95,713.92 L298.85,713.91 L298.75,713.9 L298.65,713.89 L298.55,713.88 L298.46,713.87 L298.37,713.85 L298.28,713.84 L298.19,713.82 L298.11,713.81 L298.03,713.79 L297.95,713.78 L297.87,713.76 L297.8,713.74 L297.72,713.72 L297.58,713.68 L297.44,713.63 L297.31,713.57 L297.17,713.51 L297.04,713.45 L296.91,713.38 L296.78,713.3 L296.65,713.22 L296.58,713.17 L296.52,713.12 C295.44,712.36,294.85,711.23,294.85,709.9 C294.85,709.03,295.12,708.16,295.55,707.66 C295.93,707.22,296.46,706.99,297.08,706.99 C298.32,706.99,299.17,707.93,299.17,709.3 C299.17,710.57,298.45,711.38,297.3,711.38 C296.86,711.38,296.65,711.31,296.03,710.93 L296.06,710.67 C296.27,710.83,296.57,710.92,296.92,710.92 H296.92 C297.78,710.92,298.28,710.2,298.28,708.96 C298.28,707.87,297.89,707.26,297.19,707.26 C296.32,707.26,295.78,708.2,295.78,709.74 C295.78,710.24,295.86,710.52,296.06,710.67 L296.03,710.93 C296.3,712.43,297.41,713.5,298.97,713.76 Z "
         stroke-width="0"
         fill="black"
         id="path11741" /><polygon
         points="304.19,709.42 303.18,709.42 303.18,713.84 302.74,713.84 299.62,709.42 300.01,709.42 302.4,712.83 302.4,709.42 300.01,709.42 299.62,709.42 299.62,708.78 302.41,708.78 302.41,707.12 303.18,707.12 303.18,708.78 304.19,708.78 "
         stroke-width="0"
         fill="black"
         id="polygon11743" /><path
         d="M308.95,713.7 H305.26 L304.68,712.24 L304.85,712.16 C305.27,712.84,305.45,712.97,306,712.97 H308.16 L306.19,707.05 H306.83 L308.95,713.54 Z "
         stroke-width="0"
         fill="black"
         id="path11745" /><path
         d="M313.9,713.92 L313.79,713.91 L313.69,713.9 L313.59,713.89 L313.5,713.88 L313.4,713.87 L313.31,713.85 L313.22,713.84 L313.14,713.82 L313.06,713.81 L312.97,713.79 L312.9,713.78 L312.82,713.76 L312.74,713.74 L312.67,713.72 L312.52,713.68 L312.39,713.63 L312.25,713.57 L312.12,713.51 L311.99,713.45 L311.86,713.38 L311.72,713.3 L311.59,713.22 L311.53,713.17 L311.46,713.12 C310.38,712.36,309.8,711.23,309.8,709.9 C309.8,709.03,310.07,708.16,310.49,707.66 C310.87,707.22,311.41,706.99,312.03,706.99 C313.26,706.99,314.11,707.93,314.11,709.3 C314.11,710.57,313.39,711.38,312.24,711.38 C311.81,711.38,311.6,711.31,310.97,710.93 L311,710.67 C311.21,710.83,311.52,710.92,311.87,710.92 H311.87 C312.72,710.92,313.22,710.2,313.22,708.96 C313.22,707.87,312.83,707.26,312.14,707.26 C311.26,707.26,310.72,708.2,310.72,709.74 C310.72,710.24,310.8,710.52,311,710.67 L310.97,710.93 C311.24,712.43,312.35,713.5,313.92,713.76 Z "
         stroke-width="0"
         fill="black"
         id="path11747" /><path
         d="M314.82,705.37 L314.89,705.41 L314.95,705.45 L315.01,705.5 L315.07,705.54 L315.13,705.58 L315.19,705.61 L315.24,705.65 L315.3,705.69 L315.35,705.73 L315.4,705.76 L315.44,705.8 L315.49,705.83 L315.53,705.87 L315.58,705.9 L315.66,705.97 L315.74,706.04 L315.81,706.11 L315.88,706.18 L315.95,706.25 L316.02,706.32 L316.09,706.4 L316.15,706.48 L316.22,706.56 C316.93,707.42,317.27,708.42,317.27,709.58 C317.27,710.85,316.91,711.81,316.03,712.83 C315.62,713.3,315.36,713.52,314.85,713.84 L314.73,713.68 C315.52,713.05,315.79,712.71,316.07,711.96 C316.31,711.3,316.42,710.54,316.42,709.55 C316.42,708.52,316.29,707.69,316.02,707.09 C315.74,706.46,315.45,706.1,314.73,705.53 Z "
         stroke-width="0"
         fill="black"
         id="path11749" /><path
         d="M319.78,708.21 L319.84,708.25 L319.9,708.28 L319.96,708.31 L320.02,708.35 L320.07,708.38 L320.12,708.41 L320.17,708.44 L320.21,708.48 L320.26,708.51 L320.3,708.54 L320.34,708.57 L320.38,708.61 L320.41,708.64 L320.44,708.67 L320.47,708.7 L320.5,708.74 L320.53,708.77 L320.55,708.81 L320.58,708.84 L320.6,708.87 L320.62,708.91 L320.63,708.95 L320.65,708.98 L320.66,709.02 L320.67,709.06 L320.68,709.1 L320.69,709.13 L320.7,709.17 L320.7,709.22 L320.71,709.26 L320.71,709.3 L320.71,709.34 C320.71,709.91,320.21,710.33,319.51,710.33 L319.46,710.14 C319.93,710.14,320.23,709.83,320.23,709.35 C320.23,708.96,320.04,708.64,319.64,708.38 C319.6,708.36,319.6,708.36,319.58,708.34 H319.58 C318.96,708.74,318.7,709.06,318.7,709.45 C318.7,709.85,319.02,710.14,319.46,710.14 L319.51,710.33 C318.75,710.33,318.19,709.87,318.19,709.23 C318.19,708.78,318.32,708.58,319.05,707.94 C318.3,707.37,318.15,707.15,318.15,706.68 C318.15,706.01,318.7,705.53,319.48,705.53 L319.56,705.73 C319.03,705.73,318.68,706.13,318.68,706.74 C318.68,707.18,318.83,707.47,319.23,707.8 L319.65,707.49 C320.16,707.13,320.33,706.88,320.33,706.49 C320.33,706.04,320.01,705.73,319.56,705.73 L319.48,705.53 C320.32,705.53,320.86,705.99,320.86,706.71 C320.86,707.24,320.62,707.59,319.78,708.21 Z "
         stroke-width="0"
         fill="black"
         id="path11751" /></g>    <g
       style="font-style:normal;font-variant:normal;font-weight:normal;font-stretch:normal;letter-spacing:normal;word-spacing:normal;text-anchor:start;fill:none;stroke:#000000;stroke-width:1;stroke-linecap:butt;stroke-linejoin:miter;stroke-miterlimit:10.43299961;stroke-opacity:1;stroke-dasharray:none;stroke-dashoffset:0"
       ns0:preamble="/home/sriranga/Desktop/Prism_BasicElectronics/preamble.tex"
       ns0:text="$0.875 \\times 8 = 7.00 \\qquad \\therefore ~ (0.875)_{10}= (0.7)_8$\\\\[10pt]\n$\\therefore~ (11582.875)_{10}= (26476.7)_8$"
       word-spacing="normal"
       letter-spacing="normal"
       font-size-adjust="none"
       font-stretch="normal"
       font-weight="normal"
       font-variant="normal"
       font-style="normal"
       stroke-miterlimit="10.433"
       xml:space="preserve"
       transform="matrix(1.2,0,0,-1.2,-166.58272,1685.7039)"
       id="g12735"><path
         id="path12737"
         d="m 225.96,713.84 -0.05,0 -0.05,0 -0.05,0 -0.05,-0.01 -0.05,0 -0.05,-0.01 -0.04,0 -0.05,-0.01 -0.04,-0.01 -0.05,-0.01 -0.04,-0.01 -0.05,-0.01 -0.04,-0.01 -0.04,-0.02 -0.04,-0.01 -0.04,-0.02 -0.05,-0.01 -0.04,-0.02 -0.04,-0.02 -0.03,-0.02 -0.04,-0.02 -0.04,-0.02 -0.04,-0.03 -0.04,-0.02 -0.03,-0.02 -0.04,-0.03 -0.04,-0.03 -0.03,-0.02 -0.04,-0.03 -0.03,-0.03 -0.04,-0.03 -0.03,-0.04 c -0.58,-0.55 -0.96,-1.7 -0.96,-2.86 0,-1.08 0.33,-2.24 0.8,-2.8 0.37,-0.44 0.87,-0.67 1.45,-0.67 v 0.25 c -0.86,0 -1.29,1.07 -1.29,3.13 0,2.11 0.44,3.21 1.3,3.21 h 0 c 0.83,0 1.28,-1.12 1.28,-3.2 0,-2.07 -0.44,-3.14 -1.29,-3.14 v -0.25 c 0.51,0 0.93,0.17 1.29,0.51 0.58,0.55 0.96,1.7 0.96,2.9 0,2.04 -0.91,3.44 -2.21,3.44 z"
         inkscape:connector-curvature="0"
         style="fill:#000000;stroke-width:0" /><path
         id="path12739"
         d="m 230.21,707.55 0,0.03 0,0.03 0,0.03 -0.01,0.02 0,0.03 -0.01,0.03 -0.01,0.02 -0.01,0.03 -0.01,0.03 -0.02,0.02 -0.01,0.02 -0.01,0.03 -0.02,0.02 -0.02,0.02 -0.01,0.02 -0.02,0.02 -0.02,0.02 -0.02,0.02 -0.02,0.01 -0.03,0.02 -0.02,0.01 -0.02,0.02 -0.03,0.01 -0.02,0.01 -0.03,0.01 -0.02,0.01 -0.03,0.01 -0.02,0.01 -0.03,0 -0.03,0.01 -0.03,0 -0.02,0 c -0.3,0 -0.55,-0.25 -0.55,-0.57 0,-0.38 0.34,-0.53 0.55,-0.53 0.21,0 0.55,0.16 0.55,0.53 z"
         inkscape:connector-curvature="0"
         style="fill:#000000;stroke-width:0" /><path
         id="path12741"
         d="m 233.79,710.81 0.09,0.05 0.09,0.05 0.08,0.05 0.08,0.04 0.08,0.05 0.07,0.05 0.07,0.04 0.06,0.05 0.07,0.05 0.05,0.04 0.06,0.05 0.05,0.05 0.05,0.04 0.05,0.05 0.04,0.05 0.05,0.04 0.03,0.05 0.04,0.05 0.03,0.05 0.03,0.05 0.03,0.05 0.02,0.05 0.02,0.05 0.02,0.06 0.02,0.05 0.01,0.05 0.02,0.06 0.01,0.06 0,0.06 0.01,0.06 0,0.06 0,0.06 c 0,0.81 -0.71,1.41 -1.71,1.41 l -0.08,-0.28 c 0.68,0 1.11,-0.44 1.11,-1.12 0,-0.57 -0.28,-1.01 -0.85,-1.39 -0.05,-0.03 -0.05,-0.03 -0.09,-0.06 h 0 c -0.88,0.58 -1.24,1.03 -1.24,1.59 0,0.58 0.45,0.98 1.07,0.98 l 0.08,0.28 c -1.08,0 -1.89,-0.67 -1.89,-1.57 0,-0.65 0.19,-0.93 1.24,-1.85 -1.08,-0.81 -1.3,-1.12 -1.3,-1.8 0,-0.96 0.79,-1.63 1.91,-1.63 l 0.11,0.27 c -0.75,0 -1.26,0.58 -1.26,1.44 0,0.64 0.22,1.06 0.79,1.52 l 0.6,-0.43 c 0.73,-0.52 0.96,-0.88 0.96,-1.43 0,-0.65 -0.44,-1.1 -1.09,-1.1 l -0.11,-0.27 c 1.2,0 1.96,0.65 1.96,1.67 0,0.77 -0.34,1.26 -1.54,2.15 z"
         inkscape:connector-curvature="0"
         style="fill:#000000;stroke-width:0" /><path
         id="path12743"
         d="m 240.35,713.7 h -3.68 l -0.59,-1.46 0.17,-0.08 c 0.43,0.68 0.61,0.81 1.16,0.81 h 2.16 l -1.97,-5.92 h 0.64 l 2.11,6.49 z"
         inkscape:connector-curvature="0"
         style="fill:#000000;stroke-width:0" /><path
         id="path12745"
         d="m 242.67,712.92 h 1.95 c 0.16,0 0.2,0.02 0.23,0.09 l 0.37,0.88 -0.09,0.07 c -0.14,-0.21 -0.24,-0.26 -0.45,-0.26 h -2.08 l -1.09,-2.35 c -0.01,-0.02 -0.01,-0.03 -0.01,-0.05 0,-0.05 0.04,-0.08 0.12,-0.08 0.32,0 0.72,-0.07 1.13,-0.2 1.14,-0.37 1.67,-0.98 1.67,-1.97 0,-0.95 -0.61,-1.7 -1.38,-1.7 -0.2,0 -0.37,0.07 -0.67,0.29 -0.32,0.23 -0.55,0.33 -0.76,0.33 -0.29,0 -0.43,-0.12 -0.43,-0.37 0,-0.38 0.47,-0.61 1.22,-0.61 0.83,0 1.55,0.26 2.05,0.77 0.46,0.45 0.67,1.01 0.67,1.77 0,0.71 -0.19,1.17 -0.69,1.67 -0.44,0.44 -1.01,0.66 -2.18,0.87 z"
         inkscape:connector-curvature="0"
         style="fill:#000000;stroke-width:0" /><polygon
         id="polygon12747"
         points="253.43,712.29 251.23,710.08 249.02,712.29 248.62,711.89 250.83,709.68 248.62,707.47 249.02,707.08 251.23,709.29 253.43,707.08 253.83,707.47 251.61,709.68 253.83,711.89 "
         style="fill:#000000;stroke-width:0" /><path
         id="path12749"
         d="m 259.5,710.81 0.09,0.05 0.08,0.05 0.09,0.05 0.08,0.04 0.07,0.05 0.08,0.05 0.07,0.04 0.06,0.05 0.06,0.05 0.06,0.04 0.06,0.05 0.05,0.05 0.05,0.04 0.05,0.05 0.04,0.05 0.04,0.04 0.04,0.05 0.04,0.05 0.03,0.05 0.03,0.05 0.03,0.05 0.02,0.05 0.02,0.05 0.02,0.06 0.02,0.05 0.01,0.05 0.01,0.06 0.01,0.06 0.01,0.06 0.01,0.06 0,0.06 0,0.06 c 0,0.81 -0.72,1.41 -1.71,1.41 l -0.08,-0.28 c 0.68,0 1.1,-0.44 1.1,-1.12 0,-0.57 -0.28,-1.01 -0.84,-1.39 -0.05,-0.03 -0.05,-0.03 -0.09,-0.06 h 0 c -0.89,0.58 -1.25,1.03 -1.25,1.59 0,0.58 0.45,0.98 1.08,0.98 l 0.08,0.28 c -1.08,0 -1.89,-0.67 -1.89,-1.57 0,-0.65 0.19,-0.93 1.23,-1.85 -1.07,-0.81 -1.29,-1.12 -1.29,-1.8 0,-0.96 0.78,-1.63 1.91,-1.63 l 0.11,0.27 c -0.76,0 -1.27,0.58 -1.27,1.44 0,0.64 0.22,1.06 0.8,1.52 l 0.6,-0.43 c 0.72,-0.52 0.96,-0.88 0.96,-1.43 0,-0.65 -0.44,-1.1 -1.09,-1.1 l -0.11,-0.27 c 1.19,0 1.96,0.65 1.96,1.67 0,0.77 -0.34,1.26 -1.54,2.15 z"
         inkscape:connector-curvature="0"
         style="fill:#000000;stroke-width:0" /><polygon
         id="polygon12751"
         points="264.98,710.4 270.07,710.4 270.07,710.96 264.98,710.96 "
         style="fill:#000000;stroke-width:0" /><polygon
         id="polygon12753"
         points="264.98,708.39 270.07,708.39 270.07,708.94 264.98,708.94 "
         style="fill:#000000;stroke-width:0" /><path
         id="path12755"
         d="m 277.93,713.7 h -3.68 l -0.59,-1.46 0.17,-0.08 c 0.43,0.68 0.61,0.81 1.16,0.81 h 2.15 l -1.97,-5.92 h 0.65 l 2.11,6.49 z"
         inkscape:connector-curvature="0"
         style="fill:#000000;stroke-width:0" /><path
         id="path12757"
         d="m 280.25,707.55 0,0.03 -0.01,0.03 0,0.03 0,0.02 -0.01,0.03 -0.01,0.03 -0.01,0.02 -0.01,0.03 -0.01,0.03 -0.01,0.02 -0.02,0.02 -0.01,0.03 -0.02,0.02 -0.01,0.02 -0.02,0.02 -0.02,0.02 -0.02,0.02 -0.02,0.02 -0.02,0.01 -0.02,0.02 -0.03,0.01 -0.02,0.02 -0.02,0.01 -0.03,0.01 -0.02,0.01 -0.03,0.01 -0.02,0.01 -0.03,0.01 -0.03,0 -0.02,0.01 -0.03,0 -0.03,0 c -0.3,0 -0.55,-0.25 -0.55,-0.57 0,-0.38 0.34,-0.53 0.55,-0.53 0.21,0 0.56,0.16 0.56,0.53 z"
         inkscape:connector-curvature="0"
         style="fill:#000000;stroke-width:0" /><path
         id="path12759"
         d="m 283.46,713.84 -0.05,0 -0.05,0 -0.05,0 -0.05,-0.01 -0.04,0 -0.05,-0.01 -0.05,0 -0.04,-0.01 -0.05,-0.01 -0.04,-0.01 -0.05,-0.01 -0.04,-0.01 -0.05,-0.01 -0.04,-0.02 -0.04,-0.01 -0.04,-0.02 -0.04,-0.01 -0.04,-0.02 -0.04,-0.02 -0.04,-0.02 -0.04,-0.02 -0.04,-0.02 -0.04,-0.03 -0.03,-0.02 -0.04,-0.02 -0.04,-0.03 -0.03,-0.03 -0.04,-0.02 -0.04,-0.03 -0.03,-0.03 -0.04,-0.03 -0.03,-0.04 c -0.58,-0.55 -0.96,-1.7 -0.96,-2.86 0,-1.08 0.33,-2.24 0.8,-2.8 0.37,-0.44 0.88,-0.67 1.45,-0.67 v 0.25 c -0.85,0 -1.29,1.07 -1.29,3.13 0,2.11 0.45,3.21 1.3,3.21 h 0 c 0.84,0 1.29,-1.12 1.29,-3.2 0,-2.07 -0.44,-3.14 -1.3,-3.14 v -0.25 c 0.51,0 0.94,0.17 1.3,0.51 0.57,0.55 0.95,1.7 0.95,2.9 0,2.04 -0.9,3.44 -2.21,3.44 z"
         inkscape:connector-curvature="0"
         style="fill:#000000;stroke-width:0" /><path
         id="path12761"
         d="m 288.44,713.84 -0.05,0 -0.05,0 -0.05,0 -0.05,-0.01 -0.04,0 -0.05,-0.01 -0.05,0 -0.04,-0.01 -0.05,-0.01 -0.04,-0.01 -0.05,-0.01 -0.04,-0.01 -0.04,-0.01 -0.05,-0.02 -0.04,-0.01 -0.04,-0.02 -0.04,-0.01 -0.04,-0.02 -0.04,-0.02 -0.04,-0.02 -0.04,-0.02 -0.04,-0.02 -0.03,-0.03 -0.04,-0.02 -0.04,-0.02 -0.04,-0.03 -0.03,-0.03 -0.04,-0.02 -0.03,-0.03 -0.04,-0.03 -0.03,-0.03 -0.04,-0.04 c -0.58,-0.55 -0.95,-1.7 -0.95,-2.86 0,-1.08 0.32,-2.24 0.79,-2.8 0.37,-0.44 0.88,-0.67 1.45,-0.67 v 0.25 c -0.85,0 -1.29,1.07 -1.29,3.13 0,2.11 0.45,3.21 1.31,3.21 h 0 c 0.83,0 1.28,-1.12 1.28,-3.2 0,-2.07 -0.44,-3.14 -1.3,-3.14 v -0.25 c 0.51,0 0.94,0.17 1.3,0.51 0.57,0.55 0.95,1.7 0.95,2.9 0,2.04 -0.9,3.44 -2.21,3.44 z"
         inkscape:connector-curvature="0"
         style="fill:#000000;stroke-width:0" /><path
         id="path12763"
         d="m 317.43,711.21 0,0.02 0,0.03 -0.01,0.03 0,0.02 -0.01,0.03 0,0.02 -0.01,0.03 -0.01,0.02 -0.01,0.02 -0.01,0.03 -0.02,0.02 -0.01,0.02 -0.01,0.02 -0.02,0.02 -0.02,0.02 -0.01,0.02 -0.02,0.02 -0.02,0.01 -0.02,0.02 -0.02,0.01 -0.02,0.02 -0.03,0.01 -0.02,0.01 -0.02,0.01 -0.03,0.01 -0.02,0.01 -0.02,0.01 -0.03,0 -0.03,0.01 -0.02,0 -0.03,0 -0.03,0 c -0.28,0 -0.52,-0.23 -0.52,-0.52 0,-0.29 0.24,-0.53 0.52,-0.53 0.28,0 0.53,0.23 0.53,0.53 z"
         inkscape:connector-curvature="0"
         style="fill:#000000;stroke-width:0" /><path
         id="path12765"
         d="m 319.92,706.91 0,0.02 0,0.03 -0.01,0.03 0,0.02 -0.01,0.03 0,0.02 -0.01,0.03 -0.01,0.02 -0.01,0.02 -0.02,0.03 -0.01,0.02 -0.01,0.02 -0.02,0.02 -0.01,0.02 -0.02,0.02 -0.02,0.02 -0.02,0.02 -0.01,0.01 -0.02,0.02 -0.02,0.01 -0.03,0.02 -0.02,0.01 -0.02,0.01 -0.02,0.01 -0.03,0.01 -0.02,0.01 -0.03,0.01 -0.02,0 -0.03,0.01 -0.03,0 -0.02,0 -0.03,0 c -0.29,0 -0.53,-0.24 -0.53,-0.52 0,-0.29 0.24,-0.53 0.53,-0.53 0.29,0 0.53,0.24 0.53,0.53 z"
         inkscape:connector-curvature="0"
         style="fill:#000000;stroke-width:0" /><path
         id="path12767"
         d="m 314.94,706.91 0,0.02 0,0.03 0,0.03 -0.01,0.02 0,0.03 -0.01,0.02 -0.01,0.03 -0.01,0.02 -0.01,0.02 -0.01,0.03 -0.01,0.02 -0.02,0.02 -0.01,0.02 -0.02,0.02 -0.01,0.02 -0.02,0.02 -0.02,0.02 -0.02,0.01 -0.02,0.02 -0.02,0.01 -0.02,0.02 -0.02,0.01 -0.03,0.01 -0.02,0.01 -0.02,0.01 -0.03,0.01 -0.02,0.01 -0.03,0 -0.02,0.01 -0.03,0 -0.03,0 -0.02,0 c -0.29,0 -0.53,-0.24 -0.53,-0.52 0,-0.29 0.24,-0.53 0.53,-0.53 0.28,0 0.52,0.24 0.52,0.53 z"
         inkscape:connector-curvature="0"
         style="fill:#000000;stroke-width:0" /><path
         id="path12769"
         d="m 328.43,713.84 -0.07,-0.04 -0.07,-0.05 -0.06,-0.04 -0.06,-0.04 -0.06,-0.04 -0.06,-0.04 -0.05,-0.04 -0.05,-0.03 -0.05,-0.04 -0.05,-0.04 -0.05,-0.03 -0.04,-0.04 -0.05,-0.03 -0.04,-0.04 -0.08,-0.06 -0.08,-0.07 -0.08,-0.07 -0.07,-0.07 -0.07,-0.07 -0.06,-0.07 -0.07,-0.08 -0.07,-0.08 -0.07,-0.08 c -0.7,-0.87 -1.05,-1.86 -1.05,-3.02 0,-1.26 0.37,-2.24 1.24,-3.25 0.41,-0.48 0.67,-0.7 1.19,-1.01 l 0.12,0.16 c -0.8,0.62 -1.08,0.97 -1.35,1.71 -0.24,0.67 -0.35,1.42 -0.35,2.42 0,1.04 0.13,1.86 0.4,2.47 0.28,0.62 0.58,0.97 1.3,1.55 z"
         inkscape:connector-curvature="0"
         style="fill:#000000;stroke-width:0" /><path
         id="path12771"
         d="m 331.34,713.84 -0.05,0 -0.06,0 -0.04,0 -0.05,-0.01 -0.05,0 -0.05,-0.01 -0.05,0 -0.04,-0.01 -0.05,-0.01 -0.04,-0.01 -0.05,-0.01 -0.04,-0.01 -0.04,-0.01 -0.05,-0.02 -0.04,-0.01 -0.04,-0.02 -0.04,-0.01 -0.04,-0.02 -0.04,-0.02 -0.04,-0.02 -0.04,-0.02 -0.04,-0.02 -0.03,-0.03 -0.04,-0.02 -0.04,-0.02 -0.04,-0.03 -0.03,-0.03 -0.04,-0.02 -0.03,-0.03 -0.04,-0.03 -0.03,-0.03 -0.04,-0.04 c -0.58,-0.55 -0.95,-1.7 -0.95,-2.86 0,-1.08 0.33,-2.24 0.79,-2.8 0.37,-0.44 0.88,-0.67 1.46,-0.67 v 0.25 c -0.86,0 -1.3,1.07 -1.3,3.13 0,2.11 0.45,3.21 1.31,3.21 h 0 c 0.83,0 1.28,-1.12 1.28,-3.2 0,-2.07 -0.44,-3.14 -1.29,-3.14 v -0.25 c 0.5,0 0.93,0.17 1.29,0.51 0.58,0.55 0.95,1.7 0.95,2.9 0,2.04 -0.9,3.44 -2.2,3.44 z"
         inkscape:connector-curvature="0"
         style="fill:#000000;stroke-width:0" /><path
         id="path12773"
         d="m 335.59,707.55 0,0.03 0,0.03 -0.01,0.03 0,0.02 -0.01,0.03 0,0.03 -0.01,0.02 -0.01,0.03 -0.02,0.03 -0.01,0.02 -0.01,0.02 -0.02,0.03 -0.01,0.02 -0.02,0.02 -0.02,0.02 -0.02,0.02 -0.02,0.02 -0.02,0.02 -0.02,0.01 -0.02,0.02 -0.02,0.01 -0.02,0.02 -0.03,0.01 -0.02,0.01 -0.03,0.01 -0.02,0.01 -0.03,0.01 -0.03,0.01 -0.02,0 -0.03,0.01 -0.03,0 -0.03,0 c -0.3,0 -0.54,-0.25 -0.54,-0.57 0,-0.38 0.34,-0.53 0.54,-0.53 0.21,0 0.56,0.16 0.56,0.53 z"
         inkscape:connector-curvature="0"
         style="fill:#000000;stroke-width:0" /><path
         id="path12775"
         d="m 339.17,710.81 0.09,0.05 0.08,0.05 0.09,0.05 0.08,0.04 0.07,0.05 0.07,0.05 0.07,0.04 0.07,0.05 0.06,0.05 0.06,0.04 0.06,0.05 0.05,0.05 0.05,0.04 0.05,0.05 0.04,0.05 0.04,0.04 0.04,0.05 0.03,0.05 0.04,0.05 0.03,0.05 0.02,0.05 0.03,0.05 0.02,0.05 0.02,0.06 0.02,0.05 0.01,0.05 0.01,0.06 0.01,0.06 0.01,0.06 0,0.06 0.01,0.06 0,0.06 c 0,0.81 -0.72,1.41 -1.71,1.41 l -0.08,-0.28 c 0.68,0 1.1,-0.44 1.1,-1.12 0,-0.57 -0.28,-1.01 -0.84,-1.39 -0.05,-0.03 -0.05,-0.03 -0.09,-0.06 h 0 c -0.89,0.58 -1.25,1.03 -1.25,1.59 0,0.58 0.45,0.98 1.08,0.98 l 0.08,0.28 c -1.09,0 -1.89,-0.67 -1.89,-1.57 0,-0.65 0.19,-0.93 1.23,-1.85 -1.07,-0.81 -1.29,-1.12 -1.29,-1.8 0,-0.96 0.78,-1.63 1.91,-1.63 l 0.11,0.27 c -0.76,0 -1.27,0.58 -1.27,1.44 0,0.64 0.22,1.06 0.8,1.52 l 0.6,-0.43 c 0.72,-0.52 0.96,-0.88 0.96,-1.43 0,-0.65 -0.44,-1.1 -1.09,-1.1 l -0.11,-0.27 c 1.19,0 1.96,0.65 1.96,1.67 0,0.77 -0.34,1.26 -1.54,2.15 z"
         inkscape:connector-curvature="0"
         style="fill:#000000;stroke-width:0" /><path
         id="path12777"
         d="m 345.73,713.7 h -3.68 l -0.59,-1.46 0.17,-0.08 c 0.43,0.68 0.61,0.81 1.16,0.81 h 2.15 l -1.97,-5.92 h 0.65 l 2.11,6.49 z"
         inkscape:connector-curvature="0"
         style="fill:#000000;stroke-width:0" /><path
         id="path12779"
         d="m 348.04,712.92 h 1.95 c 0.16,0 0.2,0.02 0.23,0.09 l 0.38,0.88 -0.09,0.07 c -0.15,-0.21 -0.25,-0.26 -0.46,-0.26 h -2.07 l -1.09,-2.35 c -0.01,-0.02 -0.01,-0.03 -0.01,-0.05 0,-0.05 0.04,-0.08 0.12,-0.08 0.32,0 0.72,-0.07 1.12,-0.2 1.15,-0.37 1.68,-0.98 1.68,-1.97 0,-0.95 -0.61,-1.7 -1.39,-1.7 -0.2,0 -0.37,0.07 -0.66,0.29 -0.32,0.23 -0.55,0.33 -0.76,0.33 -0.29,0 -0.43,-0.12 -0.43,-0.37 0,-0.38 0.47,-0.61 1.22,-0.61 0.83,0 1.55,0.26 2.05,0.77 0.45,0.45 0.66,1.01 0.66,1.77 0,0.71 -0.19,1.17 -0.69,1.67 -0.43,0.44 -1,0.66 -2.17,0.87 z"
         inkscape:connector-curvature="0"
         style="fill:#000000;stroke-width:0" /><path
         id="path12781"
         d="m 351.6,705.37 0.07,0.04 0.07,0.04 0.06,0.05 0.06,0.04 0.06,0.04 0.05,0.03 0.06,0.04 0.05,0.04 0.05,0.04 0.05,0.03 0.05,0.04 0.04,0.03 0.05,0.04 0.04,0.03 0.08,0.07 0.08,0.07 0.07,0.07 0.08,0.07 0.07,0.07 0.06,0.07 0.07,0.08 0.07,0.08 0.07,0.08 c 0.7,0.86 1.05,1.86 1.05,3.02 0,1.27 -0.37,2.23 -1.24,3.25 -0.41,0.47 -0.67,0.69 -1.19,1.01 l -0.12,-0.16 c 0.8,-0.63 1.07,-0.97 1.35,-1.72 0.24,-0.66 0.34,-1.42 0.34,-2.41 0,-1.03 -0.12,-1.86 -0.39,-2.46 -0.28,-0.63 -0.58,-0.99 -1.3,-1.56 z"
         inkscape:connector-curvature="0"
         style="fill:#000000;stroke-width:0" /><path
         id="path12783"
         d="m 356.57,710.33 -1.25,-0.63 v -0.1 c 0.08,0.04 0.16,0.06 0.18,0.08 0.13,0.05 0.25,0.08 0.32,0.08 0.14,0 0.2,-0.11 0.2,-0.33 v -3.15 c 0,-0.23 -0.05,-0.39 -0.16,-0.45 -0.11,-0.07 -0.2,-0.09 -0.5,-0.1 v -0.1 h 1.93 v 0.1 c -0.55,0.01 -0.67,0.08 -0.67,0.42 v 4.17 z"
         inkscape:connector-curvature="0"
         style="fill:#000000;stroke-width:0" /><path
         id="path12785"
         d="m 359.8,710.33 -0.04,0 -0.03,0 -0.04,0 -0.03,0 -0.04,-0.01 -0.03,0 -0.03,-0.01 -0.03,0 -0.03,-0.01 -0.04,0 -0.03,-0.01 -0.03,-0.01 -0.03,-0.01 -0.03,-0.01 -0.03,-0.01 -0.03,-0.01 -0.02,-0.01 -0.03,-0.01 -0.03,-0.01 -0.03,-0.02 -0.03,-0.01 -0.02,-0.02 -0.03,-0.01 -0.02,-0.02 -0.03,-0.02 -0.03,-0.02 -0.02,-0.02 -0.03,-0.01 -0.02,-0.02 -0.03,-0.03 -0.02,-0.02 -0.03,-0.02 c -0.4,-0.39 -0.66,-1.19 -0.66,-2 0,-0.76 0.23,-1.57 0.55,-1.96 0.26,-0.31 0.62,-0.48 1.02,-0.48 v 0.18 c -0.6,0 -0.91,0.75 -0.91,2.2 0,1.47 0.32,2.24 0.92,2.24 h 0 c 0.58,0 0.89,-0.79 0.89,-2.24 0,-1.45 -0.3,-2.2 -0.9,-2.2 v -0.18 c 0.35,0 0.65,0.12 0.9,0.37 0.41,0.38 0.67,1.18 0.67,2.03 0,1.42 -0.63,2.4 -1.54,2.4 z"
         inkscape:connector-curvature="0"
         style="fill:#000000;stroke-width:0" /><polygon
         id="polygon12787"
         points="365.4,710.4 370.49,710.4 370.49,710.96 365.4,710.96 "
         style="fill:#000000;stroke-width:0" /><polygon
         id="polygon12789"
         points="365.4,708.39 370.49,708.39 370.49,708.94 365.4,708.94 "
         style="fill:#000000;stroke-width:0" /><path
         id="path12791"
         d="m 376.82,713.84 -0.07,-0.04 -0.06,-0.05 -0.07,-0.04 -0.06,-0.04 -0.05,-0.04 -0.06,-0.04 -0.06,-0.04 -0.05,-0.03 -0.05,-0.04 -0.05,-0.04 -0.04,-0.03 -0.05,-0.04 -0.04,-0.03 -0.05,-0.04 -0.08,-0.06 -0.08,-0.07 -0.07,-0.07 -0.07,-0.07 -0.07,-0.07 -0.07,-0.07 -0.07,-0.08 -0.06,-0.08 -0.07,-0.08 c -0.71,-0.87 -1.06,-1.86 -1.06,-3.02 0,-1.26 0.37,-2.24 1.25,-3.25 0.4,-0.48 0.66,-0.7 1.18,-1.01 l 0.12,0.16 c -0.8,0.62 -1.08,0.97 -1.34,1.71 -0.24,0.67 -0.35,1.42 -0.35,2.42 0,1.04 0.13,1.86 0.4,2.47 0.27,0.62 0.57,0.97 1.29,1.55 z"
         inkscape:connector-curvature="0"
         style="fill:#000000;stroke-width:0" /><path
         id="path12793"
         d="m 379.73,713.84 -0.05,0 -0.05,0 -0.05,0 -0.05,-0.01 -0.05,0 -0.05,-0.01 -0.04,0 -0.05,-0.01 -0.04,-0.01 -0.05,-0.01 -0.04,-0.01 -0.05,-0.01 -0.04,-0.01 -0.04,-0.02 -0.04,-0.01 -0.04,-0.02 -0.05,-0.01 -0.04,-0.02 -0.04,-0.02 -0.03,-0.02 -0.04,-0.02 -0.04,-0.02 -0.04,-0.03 -0.04,-0.02 -0.03,-0.02 -0.04,-0.03 -0.04,-0.03 -0.03,-0.02 -0.04,-0.03 -0.03,-0.03 -0.04,-0.03 -0.03,-0.04 c -0.58,-0.55 -0.96,-1.7 -0.96,-2.86 0,-1.08 0.33,-2.24 0.8,-2.8 0.37,-0.44 0.87,-0.67 1.45,-0.67 v 0.25 c -0.86,0 -1.29,1.07 -1.29,3.13 0,2.11 0.44,3.21 1.3,3.21 h 0 c 0.84,0 1.28,-1.12 1.28,-3.2 0,-2.07 -0.43,-3.14 -1.29,-3.14 v -0.25 c 0.51,0 0.93,0.17 1.29,0.51 0.58,0.55 0.96,1.7 0.96,2.9 0,2.04 -0.91,3.44 -2.21,3.44 z"
         inkscape:connector-curvature="0"
         style="fill:#000000;stroke-width:0" /><path
         id="path12795"
         d="m 383.98,707.55 0,0.03 0,0.03 0,0.03 -0.01,0.02 0,0.03 -0.01,0.03 -0.01,0.02 -0.01,0.03 -0.01,0.03 -0.01,0.02 -0.02,0.02 -0.01,0.03 -0.02,0.02 -0.02,0.02 -0.01,0.02 -0.02,0.02 -0.02,0.02 -0.02,0.02 -0.02,0.01 -0.02,0.02 -0.03,0.01 -0.02,0.02 -0.02,0.01 -0.03,0.01 -0.02,0.01 -0.03,0.01 -0.03,0.01 -0.02,0.01 -0.03,0 -0.03,0.01 -0.02,0 -0.03,0 c -0.3,0 -0.55,-0.25 -0.55,-0.57 0,-0.38 0.34,-0.53 0.55,-0.53 0.21,0 0.55,0.16 0.55,0.53 z"
         inkscape:connector-curvature="0"
         style="fill:#000000;stroke-width:0" /><path
         id="path12797"
         d="m 389.14,713.7 h -3.68 l -0.59,-1.46 0.17,-0.08 c 0.43,0.68 0.61,0.81 1.16,0.81 h 2.16 l -1.97,-5.92 h 0.64 l 2.11,6.49 z"
         inkscape:connector-curvature="0"
         style="fill:#000000;stroke-width:0" /><path
         id="path12799"
         d="m 390.03,705.37 0.07,0.04 0.07,0.04 0.06,0.05 0.06,0.04 0.06,0.04 0.06,0.03 0.05,0.04 0.05,0.04 0.05,0.04 0.05,0.03 0.05,0.04 0.04,0.03 0.05,0.04 0.04,0.03 0.08,0.07 0.08,0.07 0.08,0.07 0.07,0.07 0.07,0.07 0.06,0.07 0.07,0.08 0.07,0.08 0.07,0.08 c 0.7,0.86 1.05,1.86 1.05,3.02 0,1.27 -0.37,2.23 -1.24,3.25 -0.41,0.47 -0.67,0.69 -1.19,1.01 l -0.11,-0.16 c 0.79,-0.63 1.06,-0.97 1.34,-1.72 0.24,-0.66 0.35,-1.42 0.35,-2.41 0,-1.03 -0.13,-1.86 -0.4,-2.46 -0.28,-0.63 -0.58,-0.99 -1.29,-1.56 z"
         inkscape:connector-curvature="0"
         style="fill:#000000;stroke-width:0" /><path
         id="path12801"
         d="m 394.99,708.21 0.07,0.04 0.06,0.03 0.06,0.03 0.05,0.04 0.06,0.03 0.05,0.03 0.04,0.03 0.05,0.04 0.04,0.03 0.05,0.03 0.03,0.03 0.04,0.04 0.04,0.03 0.03,0.03 0.03,0.03 0.03,0.04 0.03,0.03 0.02,0.04 0.02,0.03 0.02,0.03 0.02,0.04 0.02,0.04 0.01,0.03 0.02,0.04 0.01,0.04 0.01,0.04 0.01,0.03 0.01,0.04 0,0.05 0,0.04 0.01,0.04 0,0.04 c 0,0.57 -0.51,0.99 -1.2,0.99 l -0.06,-0.19 c 0.48,0 0.78,-0.31 0.78,-0.79 0,-0.39 -0.2,-0.71 -0.6,-0.97 -0.03,-0.02 -0.03,-0.02 -0.06,-0.04 h 0 c -0.62,0.4 -0.87,0.72 -0.87,1.11 0,0.4 0.31,0.69 0.75,0.69 l 0.06,0.19 c -0.76,0 -1.32,-0.46 -1.32,-1.1 0,-0.45 0.13,-0.65 0.86,-1.29 -0.75,-0.57 -0.91,-0.79 -0.91,-1.26 0,-0.67 0.55,-1.15 1.34,-1.15 l 0.08,0.2 c -0.53,0 -0.89,0.4 -0.89,1.01 0,0.44 0.16,0.73 0.56,1.06 l 0.42,-0.31 c 0.51,-0.36 0.67,-0.61 0.67,-1 0,-0.45 -0.31,-0.76 -0.76,-0.76 l -0.08,-0.2 c 0.84,0 1.37,0.46 1.37,1.18 0,0.53 -0.23,0.88 -1.08,1.5 z"
         inkscape:connector-curvature="0"
         style="fill:#000000;stroke-width:0" /><path
         id="path12803"
         d="m 227.27,689.29 0,0.03 0,0.02 0,0.03 -0.01,0.03 0,0.02 -0.01,0.03 -0.01,0.02 -0.01,0.02 -0.01,0.03 -0.01,0.02 -0.01,0.02 -0.02,0.02 -0.01,0.02 -0.02,0.02 -0.02,0.02 -0.01,0.02 -0.02,0.02 -0.02,0.02 -0.02,0.01 -0.02,0.02 -0.02,0.01 -0.02,0.01 -0.03,0.01 -0.02,0.01 -0.02,0.01 -0.03,0.01 -0.02,0.01 -0.03,0.01 -0.03,0 -0.02,0 -0.03,0.01 -0.03,0 c -0.28,0 -0.52,-0.24 -0.52,-0.53 0,-0.29 0.24,-0.53 0.52,-0.53 0.28,0 0.53,0.23 0.53,0.53 z"
         inkscape:connector-curvature="0"
         style="fill:#000000;stroke-width:0" /><path
         id="path12805"
         d="m 229.76,684.99 0,0.02 0,0.03 -0.01,0.03 0,0.02 -0.01,0.03 0,0.02 -0.01,0.03 -0.01,0.02 -0.01,0.03 -0.01,0.02 -0.02,0.02 -0.01,0.02 -0.02,0.02 -0.01,0.02 -0.02,0.02 -0.02,0.02 -0.01,0.02 -0.02,0.01 -0.02,0.02 -0.02,0.01 -0.03,0.02 -0.02,0.01 -0.02,0.01 -0.02,0.01 -0.03,0.01 -0.02,0.01 -0.03,0.01 -0.02,0 -0.03,0.01 -0.02,0 -0.03,0 -0.03,0.01 c -0.29,0 -0.52,-0.24 -0.52,-0.53 0,-0.29 0.23,-0.53 0.52,-0.53 0.29,0 0.53,0.24 0.53,0.53 z"
         inkscape:connector-curvature="0"
         style="fill:#000000;stroke-width:0" /><path
         id="path12807"
         d="m 224.79,684.99 -0.01,0.02 0,0.03 0,0.03 -0.01,0.02 0,0.03 -0.01,0.02 -0.01,0.03 -0.01,0.02 -0.01,0.03 -0.01,0.02 -0.01,0.02 -0.02,0.02 -0.01,0.02 -0.02,0.02 -0.01,0.02 -0.02,0.02 -0.02,0.02 -0.02,0.01 -0.02,0.02 -0.02,0.01 -0.02,0.02 -0.02,0.01 -0.02,0.01 -0.03,0.01 -0.02,0.01 -0.03,0.01 -0.02,0.01 -0.03,0 -0.02,0.01 -0.03,0 -0.03,0 -0.02,0.01 c -0.29,0 -0.53,-0.24 -0.53,-0.53 0,-0.29 0.24,-0.53 0.53,-0.53 0.29,0 0.53,0.24 0.53,0.53 z"
         inkscape:connector-curvature="0"
         style="fill:#000000;stroke-width:0" /><path
         id="path12809"
         d="m 238.27,691.92 -0.07,-0.04 -0.07,-0.04 -0.06,-0.05 -0.06,-0.04 -0.06,-0.04 -0.05,-0.04 -0.06,-0.03 -0.05,-0.04 -0.05,-0.04 -0.05,-0.03 -0.05,-0.04 -0.04,-0.03 -0.05,-0.04 -0.04,-0.03 -0.08,-0.07 -0.08,-0.07 -0.07,-0.07 -0.08,-0.07 -0.07,-0.07 -0.06,-0.07 -0.07,-0.08 -0.07,-0.08 -0.07,-0.08 c -0.7,-0.86 -1.05,-1.86 -1.05,-3.02 0,-1.26 0.37,-2.24 1.24,-3.25 0.41,-0.48 0.67,-0.69 1.19,-1.01 l 0.12,0.16 c -0.8,0.62 -1.08,0.97 -1.35,1.72 -0.24,0.66 -0.35,1.42 -0.35,2.41 0,1.04 0.13,1.86 0.4,2.47 0.28,0.62 0.58,0.98 1.3,1.55 z"
         inkscape:connector-curvature="0"
         style="fill:#000000;stroke-width:0" /><path
         id="path12811"
         d="m 241.54,691.92 -1.79,-0.9 v -0.14 c 0.12,0.05 0.23,0.09 0.27,0.11 0.18,0.07 0.35,0.11 0.45,0.11 0.21,0 0.3,-0.15 0.3,-0.47 v -4.5 c 0,-0.33 -0.08,-0.56 -0.24,-0.65 -0.15,-0.08 -0.29,-0.11 -0.71,-0.12 v -0.15 h 2.75 v 0.15 c -0.79,0.01 -0.95,0.11 -0.95,0.58 v 5.96 z"
         inkscape:connector-curvature="0"
         style="fill:#000000;stroke-width:0" /><path
         id="path12813"
         d="m 246.53,691.92 -1.79,-0.9 v -0.14 c 0.11,0.05 0.22,0.09 0.26,0.11 0.18,0.07 0.35,0.11 0.45,0.11 0.21,0 0.3,-0.15 0.3,-0.47 v -4.5 c 0,-0.33 -0.08,-0.56 -0.24,-0.65 -0.15,-0.08 -0.29,-0.11 -0.71,-0.12 v -0.15 h 2.75 v 0.15 c -0.79,0.01 -0.94,0.11 -0.94,0.58 v 5.96 z"
         inkscape:connector-curvature="0"
         style="fill:#000000;stroke-width:0" /><path
         id="path12815"
         d="m 250.41,691 h 1.95 c 0.16,0 0.2,0.02 0.23,0.09 l 0.38,0.88 -0.09,0.07 c -0.15,-0.21 -0.25,-0.26 -0.46,-0.26 h -2.08 l -1.08,-2.35 c -0.01,-0.02 -0.01,-0.03 -0.01,-0.05 0,-0.05 0.04,-0.08 0.12,-0.08 0.32,0 0.72,-0.07 1.12,-0.2 1.15,-0.37 1.67,-0.98 1.67,-1.97 0,-0.95 -0.6,-1.7 -1.38,-1.7 -0.2,0 -0.37,0.08 -0.67,0.29 -0.31,0.23 -0.54,0.33 -0.75,0.33 -0.29,0 -0.43,-0.12 -0.43,-0.37 0,-0.37 0.47,-0.61 1.21,-0.61 0.84,0 1.56,0.27 2.05,0.77 0.46,0.45 0.67,1.02 0.67,1.77 0,0.72 -0.19,1.17 -0.69,1.67 -0.43,0.44 -1,0.67 -2.18,0.87 z"
         inkscape:connector-curvature="0"
         style="fill:#000000;stroke-width:0" /><path
         id="path12817"
         d="m 256.48,688.89 0.09,0.05 0.09,0.05 0.08,0.05 0.08,0.05 0.08,0.04 0.07,0.05 0.07,0.05 0.06,0.04 0.07,0.05 0.05,0.05 0.06,0.04 0.05,0.05 0.05,0.04 0.05,0.05 0.04,0.05 0.04,0.05 0.04,0.04 0.04,0.05 0.03,0.05 0.03,0.05 0.03,0.05 0.02,0.05 0.02,0.05 0.02,0.06 0.02,0.05 0.01,0.06 0.02,0.05 0.01,0.06 0,0.06 0.01,0.06 0,0.06 0,0.06 c 0,0.82 -0.71,1.41 -1.71,1.41 l -0.08,-0.28 c 0.68,0 1.1,-0.43 1.1,-1.12 0,-0.56 -0.27,-1.01 -0.84,-1.39 -0.05,-0.03 -0.05,-0.03 -0.09,-0.06 h 0 c -0.89,0.58 -1.24,1.03 -1.24,1.59 0,0.58 0.44,0.98 1.07,0.98 l 0.08,0.28 c -1.08,0 -1.89,-0.66 -1.89,-1.57 0,-0.64 0.19,-0.93 1.23,-1.84 -1.07,-0.82 -1.29,-1.13 -1.29,-1.8 0,-0.97 0.79,-1.64 1.91,-1.64 l 0.11,0.28 c -0.76,0 -1.26,0.57 -1.26,1.44 0,0.63 0.22,1.05 0.79,1.52 l 0.6,-0.44 c 0.73,-0.52 0.97,-0.88 0.97,-1.43 0,-0.65 -0.45,-1.09 -1.1,-1.09 l -0.11,-0.28 c 1.2,0 1.96,0.65 1.96,1.68 0,0.76 -0.34,1.25 -1.54,2.14 z"
         inkscape:connector-curvature="0"
         style="fill:#000000;stroke-width:0" /><path
         id="path12819"
         d="m 263.3,686.57 -0.13,0.05 c -0.37,-0.57 -0.5,-0.66 -0.94,-0.66 h -2.38 l 1.67,1.75 c 0.88,0.92 1.27,1.68 1.27,2.45 0,1 -0.8,1.76 -1.84,1.76 -0.55,0 -1.06,-0.22 -1.43,-0.61 -0.32,-0.34 -0.47,-0.66 -0.64,-1.36 l 0.21,-0.05 c 0.4,0.97 0.76,1.29 1.45,1.29 0.83,0 1.4,-0.57 1.4,-1.4 0,-0.78 -0.46,-1.7 -1.3,-2.59 l -1.77,-1.87 v -0.12 h 3.88 z"
         inkscape:connector-curvature="0"
         style="fill:#000000;stroke-width:0" /><path
         id="path12821"
         d="m 265.36,685.63 0,0.03 -0.01,0.03 0,0.03 0,0.03 -0.01,0.02 -0.01,0.03 -0.01,0.03 -0.01,0.02 -0.01,0.03 -0.01,0.02 -0.02,0.03 -0.01,0.02 -0.02,0.02 -0.01,0.02 -0.02,0.02 -0.02,0.02 -0.02,0.02 -0.02,0.02 -0.02,0.02 -0.02,0.01 -0.03,0.02 -0.02,0.01 -0.02,0.01 -0.03,0.01 -0.02,0.02 -0.03,0 -0.02,0.01 -0.03,0.01 -0.03,0 -0.02,0.01 -0.03,0 -0.03,0 c -0.3,0 -0.55,-0.25 -0.55,-0.57 0,-0.37 0.34,-0.53 0.55,-0.53 0.21,0 0.56,0.17 0.56,0.53 z"
         inkscape:connector-curvature="0"
         style="fill:#000000;stroke-width:0" /><path
         id="path12823"
         d="m 268.93,688.89 0.09,0.05 0.09,0.05 0.08,0.05 0.08,0.05 0.08,0.04 0.07,0.05 0.07,0.05 0.07,0.04 0.06,0.05 0.06,0.05 0.05,0.04 0.06,0.05 0.05,0.04 0.04,0.05 0.05,0.05 0.04,0.05 0.04,0.04 0.03,0.05 0.03,0.05 0.03,0.05 0.03,0.05 0.02,0.05 0.03,0.05 0.02,0.06 0.01,0.05 0.02,0.06 0.01,0.05 0.01,0.06 0.01,0.06 0,0.06 0,0.06 0.01,0.06 c 0,0.82 -0.72,1.41 -1.72,1.41 l -0.07,-0.28 c 0.67,0 1.1,-0.43 1.1,-1.12 0,-0.56 -0.28,-1.01 -0.85,-1.39 -0.05,-0.03 -0.05,-0.03 -0.09,-0.06 h 0 c -0.88,0.58 -1.24,1.03 -1.24,1.59 0,0.58 0.45,0.98 1.08,0.98 l 0.07,0.28 c -1.08,0 -1.89,-0.66 -1.89,-1.57 0,-0.64 0.19,-0.93 1.24,-1.84 -1.08,-0.82 -1.3,-1.13 -1.3,-1.8 0,-0.97 0.79,-1.64 1.91,-1.64 l 0.11,0.28 c -0.75,0 -1.26,0.57 -1.26,1.44 0,0.63 0.22,1.05 0.8,1.52 l 0.59,-0.44 c 0.73,-0.52 0.97,-0.88 0.97,-1.43 0,-0.65 -0.45,-1.09 -1.1,-1.09 l -0.11,-0.28 c 1.2,0 1.96,0.65 1.96,1.68 0,0.76 -0.33,1.25 -1.54,2.14 z"
         inkscape:connector-curvature="0"
         style="fill:#000000;stroke-width:0" /><path
         id="path12825"
         d="m 275.49,691.78 h -3.68 l -0.58,-1.46 0.17,-0.08 c 0.42,0.68 0.6,0.81 1.15,0.81 h 2.16 l -1.97,-5.92 h 0.65 l 2.1,6.49 z"
         inkscape:connector-curvature="0"
         style="fill:#000000;stroke-width:0" /><path
         id="path12827"
         d="m 277.81,691 h 1.95 c 0.16,0 0.2,0.02 0.23,0.09 l 0.38,0.88 -0.09,0.07 c -0.15,-0.21 -0.25,-0.26 -0.46,-0.26 h -2.08 l -1.08,-2.35 c -0.01,-0.02 -0.01,-0.03 -0.01,-0.05 0,-0.05 0.04,-0.08 0.12,-0.08 0.31,0 0.71,-0.07 1.12,-0.2 1.14,-0.37 1.67,-0.98 1.67,-1.97 0,-0.95 -0.61,-1.7 -1.38,-1.7 -0.2,0 -0.37,0.08 -0.67,0.29 -0.32,0.23 -0.55,0.33 -0.75,0.33 -0.29,0 -0.43,-0.12 -0.43,-0.37 0,-0.37 0.47,-0.61 1.21,-0.61 0.84,0 1.55,0.27 2.05,0.77 0.46,0.45 0.67,1.02 0.67,1.77 0,0.72 -0.19,1.17 -0.69,1.67 -0.44,0.44 -1,0.67 -2.18,0.87 z"
         inkscape:connector-curvature="0"
         style="fill:#000000;stroke-width:0" /><path
         id="path12829"
         d="m 281.37,683.45 0.07,0.04 0.06,0.05 0.06,0.04 0.07,0.04 0.05,0.04 0.06,0.04 0.05,0.03 0.06,0.04 0.05,0.04 0.05,0.03 0.04,0.04 0.05,0.04 0.04,0.03 0.05,0.03 0.08,0.07 0.08,0.07 0.07,0.07 0.07,0.07 0.07,0.07 0.07,0.07 0.07,0.08 0.06,0.08 0.07,0.08 c 0.71,0.87 1.06,1.86 1.06,3.02 0,1.27 -0.37,2.24 -1.25,3.25 -0.41,0.48 -0.66,0.69 -1.18,1.01 l -0.12,-0.16 c 0.8,-0.62 1.06,-0.97 1.34,-1.72 0.24,-0.66 0.35,-1.42 0.35,-2.41 0,-1.03 -0.13,-1.86 -0.4,-2.46 -0.28,-0.63 -0.57,-0.99 -1.29,-1.56 z"
         inkscape:connector-curvature="0"
         style="fill:#000000;stroke-width:0" /><path
         id="path12831"
         d="m 286.33,688.41 -1.25,-0.63 v -0.1 c 0.09,0.04 0.16,0.07 0.19,0.08 0.12,0.05 0.24,0.08 0.31,0.08 0.15,0 0.21,-0.11 0.21,-0.33 v -3.15 c 0,-0.23 -0.05,-0.39 -0.17,-0.45 -0.1,-0.07 -0.2,-0.09 -0.49,-0.09 v -0.11 h 1.92 v 0.11 c -0.55,0 -0.66,0.07 -0.66,0.41 v 4.17 z"
         inkscape:connector-curvature="0"
         style="fill:#000000;stroke-width:0" /><path
         id="path12833"
         d="m 289.56,688.41 -0.03,0 -0.04,0 -0.03,0 -0.04,0 -0.03,0 -0.03,-0.01 -0.03,0 -0.04,-0.01 -0.03,0 -0.03,-0.01 -0.03,-0.01 -0.03,-0.01 -0.03,-0.01 -0.03,0 -0.03,-0.01 -0.03,-0.02 -0.03,-0.01 -0.03,-0.01 -0.02,-0.01 -0.03,-0.02 -0.03,-0.01 -0.03,-0.02 -0.02,-0.01 -0.03,-0.02 -0.02,-0.02 -0.03,-0.01 -0.03,-0.02 -0.02,-0.02 -0.03,-0.02 -0.02,-0.02 -0.02,-0.03 -0.03,-0.02 c -0.4,-0.39 -0.67,-1.19 -0.67,-2 0,-0.76 0.23,-1.57 0.56,-1.96 0.26,-0.31 0.61,-0.47 1.02,-0.47 v 0.18 c -0.6,0 -0.91,0.74 -0.91,2.19 0,1.47 0.31,2.24 0.91,2.24 h 0 c 0.59,0 0.9,-0.78 0.9,-2.24 0,-1.45 -0.3,-2.19 -0.9,-2.19 v -0.18 c 0.35,0 0.65,0.11 0.9,0.36 0.41,0.38 0.67,1.19 0.67,2.03 0,1.42 -0.63,2.4 -1.55,2.4 z"
         inkscape:connector-curvature="0"
         style="fill:#000000;stroke-width:0" /><polygon
         id="polygon12835"
         points="295.17,688.48 300.26,688.48 300.26,689.04 295.17,689.04 "
         style="fill:#000000;stroke-width:0" /><polygon
         id="polygon12837"
         points="295.17,686.47 300.26,686.47 300.26,687.03 295.17,687.03 "
         style="fill:#000000;stroke-width:0" /><path
         id="path12839"
         d="m 306.59,691.92 -0.07,-0.04 -0.07,-0.04 -0.06,-0.05 -0.06,-0.04 -0.06,-0.04 -0.06,-0.04 -0.05,-0.03 -0.05,-0.04 -0.05,-0.04 -0.05,-0.03 -0.05,-0.04 -0.04,-0.03 -0.05,-0.04 -0.04,-0.03 -0.08,-0.07 -0.08,-0.07 -0.08,-0.07 -0.07,-0.07 -0.07,-0.07 -0.06,-0.07 -0.07,-0.08 -0.07,-0.08 -0.07,-0.08 c -0.7,-0.86 -1.05,-1.86 -1.05,-3.02 0,-1.26 0.37,-2.24 1.24,-3.25 0.41,-0.48 0.67,-0.69 1.19,-1.01 l 0.12,0.16 c -0.8,0.62 -1.08,0.97 -1.35,1.72 -0.24,0.66 -0.35,1.42 -0.35,2.41 0,1.04 0.13,1.86 0.4,2.47 0.28,0.62 0.58,0.98 1.3,1.55 z"
         inkscape:connector-curvature="0"
         style="fill:#000000;stroke-width:0" /><path
         id="path12841"
         d="m 311.69,686.57 -0.12,0.05 c -0.37,-0.57 -0.5,-0.66 -0.95,-0.66 h -2.38 l 1.67,1.75 c 0.89,0.92 1.28,1.68 1.28,2.45 0,1 -0.81,1.76 -1.84,1.76 -0.55,0 -1.07,-0.22 -1.44,-0.61 -0.31,-0.34 -0.46,-0.66 -0.63,-1.36 l 0.21,-0.05 c 0.39,0.97 0.75,1.29 1.44,1.29 0.83,0 1.4,-0.57 1.4,-1.4 0,-0.78 -0.46,-1.7 -1.29,-2.59 l -1.77,-1.87 v -0.12 h 3.88 z"
         inkscape:connector-curvature="0"
         style="fill:#000000;stroke-width:0" /><path
         id="path12843"
         d="m 316.39,692 -0.11,-0.01 -0.1,-0.01 -0.1,-0.01 -0.09,-0.01 -0.1,-0.01 -0.09,-0.02 -0.08,-0.01 -0.09,-0.01 -0.08,-0.02 -0.08,-0.01 -0.08,-0.02 -0.08,-0.02 -0.08,-0.02 -0.07,-0.02 -0.14,-0.04 -0.14,-0.05 -0.14,-0.06 -0.13,-0.05 -0.13,-0.07 -0.13,-0.07 -0.13,-0.08 -0.14,-0.08 -0.06,-0.05 -0.07,-0.04 c -1.07,-0.77 -1.66,-1.9 -1.66,-3.23 0,-0.87 0.27,-1.74 0.69,-2.24 0.38,-0.43 0.92,-0.67 1.54,-0.67 1.23,0 2.09,0.94 2.09,2.31 0,1.27 -0.73,2.08 -1.87,2.08 -0.44,0 -0.65,-0.07 -1.28,-0.45 l 0.03,-0.26 c 0.21,0.16 0.52,0.25 0.87,0.25 h 0 c 0.85,0 1.35,-0.71 1.35,-1.96 0,-1.09 -0.39,-1.69 -1.08,-1.69 -0.88,0 -1.42,0.93 -1.42,2.47 0,0.51 0.08,0.78 0.28,0.93 l -0.03,0.26 c 0.27,1.5 1.39,2.58 2.95,2.83 z"
         inkscape:connector-curvature="0"
         style="fill:#000000;stroke-width:0" /><polygon
         id="polygon12845"
         points="320.17,691.92 317.05,687.5 317.45,687.5 319.84,690.91 319.84,687.5 317.45,687.5 317.05,687.5 317.05,686.87 319.85,686.87 319.85,685.21 320.61,685.21 320.61,686.87 321.63,686.87 321.63,687.5 320.61,687.5 320.61,691.92 "
         style="fill:#000000;stroke-width:0" /><path
         id="path12847"
         d="m 326.38,691.78 h -3.68 l -0.59,-1.46 0.17,-0.08 c 0.43,0.68 0.61,0.81 1.15,0.81 h 2.16 l -1.97,-5.92 h 0.65 l 2.11,6.49 z"
         inkscape:connector-curvature="0"
         style="fill:#000000;stroke-width:0" /><path
         id="path12849"
         d="m 331.33,692 -0.1,-0.01 -0.11,-0.01 -0.09,-0.01 -0.1,-0.01 -0.09,-0.01 -0.09,-0.02 -0.09,-0.01 -0.09,-0.01 -0.08,-0.02 -0.08,-0.01 -0.08,-0.02 -0.08,-0.02 -0.07,-0.02 -0.08,-0.02 -0.14,-0.04 -0.14,-0.05 -0.14,-0.06 -0.13,-0.05 -0.13,-0.07 -0.13,-0.07 -0.13,-0.08 -0.13,-0.08 -0.07,-0.05 -0.07,-0.04 c -1.07,-0.77 -1.66,-1.9 -1.66,-3.23 0,-0.87 0.27,-1.74 0.7,-2.24 0.38,-0.43 0.91,-0.67 1.53,-0.67 1.23,0 2.09,0.94 2.09,2.31 0,1.27 -0.73,2.08 -1.87,2.08 -0.44,0 -0.65,-0.07 -1.27,-0.45 l 0.03,-0.26 c 0.2,0.16 0.51,0.25 0.86,0.25 h 0 c 0.86,0 1.35,-0.71 1.35,-1.96 0,-1.09 -0.38,-1.69 -1.08,-1.69 -0.88,0 -1.41,0.93 -1.41,2.47 0,0.51 0.08,0.78 0.28,0.93 l -0.03,0.26 c 0.26,1.5 1.38,2.58 2.94,2.83 z"
         inkscape:connector-curvature="0"
         style="fill:#000000;stroke-width:0" /><path
         id="path12851"
         d="m 333.68,685.63 0,0.03 -0.01,0.03 0,0.03 -0.01,0.03 0,0.02 -0.01,0.03 -0.01,0.03 -0.01,0.02 -0.01,0.03 -0.01,0.02 -0.02,0.03 -0.01,0.02 -0.02,0.02 -0.01,0.02 -0.02,0.02 -0.02,0.02 -0.02,0.02 -0.02,0.02 -0.02,0.02 -0.02,0.01 -0.03,0.02 -0.02,0.01 -0.02,0.01 -0.03,0.01 -0.02,0.02 -0.03,0 -0.03,0.01 -0.02,0.01 -0.03,0 -0.03,0.01 -0.02,0 -0.03,0 c -0.3,0 -0.55,-0.25 -0.55,-0.57 0,-0.37 0.34,-0.53 0.55,-0.53 0.21,0 0.56,0.17 0.56,0.53 z"
         inkscape:connector-curvature="0"
         style="fill:#000000;stroke-width:0" /><path
         id="path12853"
         d="m 338.83,691.78 h -3.68 l -0.58,-1.46 0.16,-0.08 c 0.43,0.68 0.61,0.81 1.16,0.81 h 2.16 l -1.97,-5.92 h 0.64 l 2.11,6.49 z"
         inkscape:connector-curvature="0"
         style="fill:#000000;stroke-width:0" /><path
         id="path12855"
         d="m 339.73,683.45 0.06,0.04 0.07,0.05 0.06,0.04 0.06,0.04 0.06,0.04 0.06,0.04 0.05,0.03 0.05,0.04 0.05,0.04 0.05,0.03 0.05,0.04 0.05,0.04 0.04,0.03 0.04,0.03 0.08,0.07 0.08,0.07 0.08,0.07 0.07,0.07 0.07,0.07 0.07,0.07 0.06,0.08 0.07,0.08 0.07,0.08 c 0.7,0.87 1.05,1.86 1.05,3.02 0,1.27 -0.36,2.24 -1.24,3.25 -0.41,0.48 -0.67,0.69 -1.18,1.01 l -0.12,-0.16 c 0.79,-0.62 1.06,-0.97 1.34,-1.72 0.24,-0.66 0.35,-1.42 0.35,-2.41 0,-1.03 -0.13,-1.86 -0.4,-2.46 -0.28,-0.63 -0.58,-0.99 -1.29,-1.56 z"
         inkscape:connector-curvature="0"
         style="fill:#000000;stroke-width:0" /><path
         id="path12857"
         d="m 344.68,686.29 0.07,0.04 0.06,0.03 0.06,0.03 0.05,0.04 0.06,0.03 0.05,0.03 0.05,0.04 0.04,0.03 0.05,0.03 0.04,0.03 0.04,0.04 0.03,0.03 0.04,0.03 0.03,0.03 0.03,0.04 0.03,0.03 0.03,0.03 0.02,0.04 0.02,0.03 0.02,0.04 0.02,0.03 0.02,0.04 0.02,0.03 0.01,0.04 0.01,0.04 0.01,0.04 0.01,0.04 0.01,0.04 0,0.04 0.01,0.04 0,0.04 0,0.05 c 0,0.57 -0.5,0.98 -1.2,0.98 l -0.06,-0.19 c 0.48,0 0.78,-0.31 0.78,-0.79 0,-0.39 -0.2,-0.71 -0.59,-0.97 -0.04,-0.02 -0.04,-0.02 -0.07,-0.04 h 0 c -0.62,0.4 -0.87,0.72 -0.87,1.11 0,0.4 0.32,0.69 0.75,0.69 l 0.06,0.19 c -0.76,0 -1.32,-0.46 -1.32,-1.09 0,-0.46 0.13,-0.66 0.86,-1.3 -0.75,-0.57 -0.91,-0.78 -0.91,-1.26 0,-0.67 0.56,-1.14 1.34,-1.14 l 0.08,0.19 c -0.53,0 -0.89,0.4 -0.89,1.01 0,0.44 0.16,0.74 0.56,1.06 l 0.42,-0.3 c 0.51,-0.36 0.67,-0.61 0.67,-1 0,-0.46 -0.31,-0.77 -0.76,-0.77 l -0.08,-0.19 c 0.84,0 1.37,0.46 1.37,1.17 0,0.54 -0.23,0.88 -1.08,1.5 z"
         inkscape:connector-curvature="0"
         style="fill:#000000;stroke-width:0" /></g>  </g>
</svg>
