<?xml version="1.0" encoding="UTF-8" standalone="no"?>
<!-- Created with Inkscape (http://www.inkscape.org/) -->

<svg
   xmlns:ns0="http://www.iki.fi/pav/software/textext/"
   xmlns:dc="http://purl.org/dc/elements/1.1/"
   xmlns:cc="http://creativecommons.org/ns#"
   xmlns:rdf="http://www.w3.org/1999/02/22-rdf-syntax-ns#"
   xmlns:svg="http://www.w3.org/2000/svg"
   xmlns="http://www.w3.org/2000/svg"
   xmlns:sodipodi="http://sodipodi.sourceforge.net/DTD/sodipodi-0.dtd"
   xmlns:inkscape="http://www.inkscape.org/namespaces/inkscape"
   width="496.06299"
   height="354.33069"
   id="svg2"
   version="1.1"
   inkscape:version="0.48.4 r9939"
   sodipodi:docname="div10.svg">
  <sodipodi:namedview
     id="base"
     pagecolor="#ffffff"
     bordercolor="#666666"
     borderopacity="1.0"
     inkscape:pageopacity="0.0"
     inkscape:pageshadow="2"
     inkscape:zoom="3.2507728"
     inkscape:cx="166.48247"
     inkscape:cy="275.81071"
     inkscape:document-units="cm"
     inkscape:current-layer="layer1"
     showgrid="false"
     units="cm"
     inkscape:object-nodes="true"
     inkscape:window-width="1366"
     inkscape:window-height="744"
     inkscape:window-x="0"
     inkscape:window-y="24"
     inkscape:window-maximized="1">
    <inkscape:grid
       type="xygrid"
       id="grid2985"
       empspacing="5"
       visible="true"
       enabled="true"
       snapvisiblegridlinesonly="true" />
  </sodipodi:namedview>
  <defs
     id="defs4">
    <marker
       inkscape:stockid="Arrow1Mstart"
       orient="auto"
       refY="0"
       refX="0"
       id="Arrow1Mstart"
       style="overflow:visible">
      <path
         inkscape:connector-curvature="0"
         id="path3775"
         d="M 0,0 5,-5 -12.5,0 5,5 0,0 z"
         style="fill-rule:evenodd;stroke:#000000;stroke-width:1pt"
         transform="matrix(0.4,0,0,0.4,4,0)" />
    </marker>
    <marker
       inkscape:stockid="Arrow1Mend"
       orient="auto"
       refY="0"
       refX="0"
       id="Arrow1Mend"
       style="overflow:visible">
      <path
         inkscape:connector-curvature="0"
         id="path3778"
         d="M 0,0 5,-5 -12.5,0 5,5 0,0 z"
         style="fill-rule:evenodd;stroke:#000000;stroke-width:1pt"
         transform="matrix(-0.4,0,0,-0.4,-4,0)" />
    </marker>
  </defs>
  <metadata
     id="metadata7">
    <rdf:RDF>
      <cc:Work
         rdf:about="">
        <dc:format>image/svg+xml</dc:format>
        <dc:type
           rdf:resource="http://purl.org/dc/dcmitype/StillImage" />
        <dc:title></dc:title>
      </cc:Work>
    </rdf:RDF>
  </metadata>
  <g
     inkscape:label="Layer 1"
     inkscape:groupmode="layer"
     id="layer1"
     transform="translate(0,-698.03016)">
    <text
       transform="translate(0,698.03016)"
       sodipodi:linespacing="100%"
       id="text5818"
       y="56.040417"
       x="61.700558"
       style="font-size:12px;font-style:normal;font-variant:normal;font-weight:normal;font-stretch:normal;text-align:start;line-height:100%;letter-spacing:0px;word-spacing:0px;text-anchor:start;fill:#000000;fill-opacity:1;stroke:none;font-family:LMRoman12;-inkscape-font-specification:Sans"
       xml:space="preserve"><tspan
         y="56.040417"
         x="61.700558"
         id="tspan5820"
         sodipodi:role="line" /></text>
    <flowRoot
       xml:space="preserve"
       id="flowRoot6377"
       style="fill:black;stroke:none;stroke-opacity:1;stroke-width:1px;stroke-linejoin:miter;stroke-linecap:butt;fill-opacity:1;font-family:LMRoman12;font-style:normal;font-weight:normal;font-size:12px;line-height:100%;letter-spacing:0px;word-spacing:0px;-inkscape-font-specification:Sans;font-stretch:normal;font-variant:normal;text-anchor:start;text-align:start"><flowRegion
         id="flowRegion6379"><rect
           id="rect6381"
           width="27.681772"
           height="40.319103"
           x="219.34796"
           y="87.141403" /></flowRegion><flowPara
         id="flowPara6383" /></flowRoot>    <text
       xml:space="preserve"
       style="font-size:12px;font-style:normal;font-variant:normal;font-weight:normal;font-stretch:normal;text-align:start;line-height:50%;letter-spacing:0px;word-spacing:0px;text-anchor:start;fill:#000000;fill-opacity:1;stroke:none;font-family:LMRoman12;-inkscape-font-specification:Sans"
       x="275.91507"
       y="55.247185"
       id="text6385"
       sodipodi:linespacing="50%"
       transform="translate(0,698.03016)"><tspan
         sodipodi:role="line"
         id="tspan6387" /></text>
    <text
       xml:space="preserve"
       style="font-size:12px;font-style:normal;font-variant:normal;font-weight:normal;font-stretch:normal;text-align:start;line-height:100%;letter-spacing:0px;word-spacing:0px;text-anchor:start;fill:#000000;fill-opacity:1;stroke:none;font-family:LMRoman12;-inkscape-font-specification:Sans"
       x="348.65417"
       y="194.38702"
       id="text3884"
       sodipodi:linespacing="100%"
       transform="translate(0,698.03016)"><tspan
         sodipodi:role="line"
         x="348.65417"
         y="194.38702"
         id="tspan3890" /></text>
    <text
       xml:space="preserve"
       style="font-size:12px;font-style:normal;font-variant:normal;font-weight:normal;font-stretch:normal;text-align:start;line-height:150%;letter-spacing:0px;word-spacing:0px;text-anchor:start;fill:#000000;fill-opacity:1;stroke:none;font-family:LMRoman12;-inkscape-font-specification:Sans"
       x="216.96629"
       y="250.89732"
       id="text3887"
       sodipodi:linespacing="150%"
       transform="translate(0,698.03016)"><tspan
         sodipodi:role="line"
         id="tspan3889"
         x="216.96629"
         y="250.89732" /></text>
    <path
       style="fill:none;stroke:#000000;stroke-width:1;stroke-linecap:square;stroke-linejoin:round;stroke-miterlimit:4;stroke-opacity:1;stroke-dasharray:none;stroke-dashoffset:0"
       d="m 130,731.13798 0,11.22287 29.50797,0"
       id="path7259"
       inkscape:connector-curvature="0"
       sodipodi:nodetypes="ccc" />
    <text
       xml:space="preserve"
       style="font-size:12px;font-style:normal;font-variant:normal;font-weight:normal;font-stretch:normal;text-align:start;line-height:150%;letter-spacing:0px;word-spacing:0px;text-anchor:start;fill:#000000;fill-opacity:1;stroke:none;font-family:LMRoman12;-inkscape-font-specification:Sans"
       x="136.92648"
       y="739.5755"
       id="text7261"
       sodipodi:linespacing="150%"><tspan
         sodipodi:role="line"
         id="tspan7263"
         x="136.92648"
         y="739.5755">2003</tspan></text>
    <text
       sodipodi:linespacing="150%"
       id="text7271"
       y="754.70447"
       x="137.09448"
       style="font-size:12px;font-style:normal;font-variant:normal;font-weight:normal;font-stretch:normal;text-align:start;line-height:150%;letter-spacing:0px;word-spacing:0px;text-anchor:start;fill:#000000;fill-opacity:1;stroke:none;font-family:LMRoman12;-inkscape-font-specification:Sans"
       xml:space="preserve"><tspan
         y="754.70447"
         x="137.09448"
         id="tspan7273"
         sodipodi:role="line">250</tspan></text>
    <text
       xml:space="preserve"
       style="font-size:12px;font-style:normal;font-variant:normal;font-weight:normal;font-stretch:normal;text-align:start;line-height:150%;letter-spacing:0px;word-spacing:0px;text-anchor:start;fill:#000000;fill-opacity:1;stroke:none;font-family:LMRoman12;-inkscape-font-specification:Sans"
       x="142.8093"
       y="770.54987"
       id="text7279"
       sodipodi:linespacing="150%"><tspan
         sodipodi:role="line"
         id="tspan7281"
         x="142.8093"
         y="770.54987">31</tspan></text>
    <text
       sodipodi:linespacing="150%"
       id="text7287"
       y="785.35657"
       x="149.3161"
       style="font-size:12px;font-style:normal;font-variant:normal;font-weight:normal;font-stretch:normal;text-align:start;line-height:150%;letter-spacing:0px;word-spacing:0px;text-anchor:start;fill:#000000;fill-opacity:1;stroke:none;font-family:LMRoman12;-inkscape-font-specification:Sans"
       xml:space="preserve"><tspan
         y="785.35657"
         x="149.3161"
         id="tspan7289"
         sodipodi:role="line">3</tspan></text>
    <text
       xml:space="preserve"
       style="font-size:12px;font-style:normal;font-variant:normal;font-weight:normal;font-stretch:normal;text-align:start;line-height:150%;letter-spacing:0px;word-spacing:0px;text-anchor:start;fill:#000000;fill-opacity:1;stroke:none;font-family:LMRoman12;-inkscape-font-specification:Sans"
       x="116.5"
       y="42.330688"
       id="text7341"
       sodipodi:linespacing="150%"
       transform="translate(0,698.03016)"><tspan
         sodipodi:role="line"
         x="116.5"
         y="42.330688"
         id="tspan7349">8</tspan></text>
    <text
       sodipodi:linespacing="150%"
       id="text7357"
       y="753.45624"
       x="116.5"
       style="font-size:12px;font-style:normal;font-variant:normal;font-weight:normal;font-stretch:normal;text-align:start;line-height:150%;letter-spacing:0px;word-spacing:0px;text-anchor:start;fill:#000000;fill-opacity:1;stroke:none;font-family:LMRoman12;-inkscape-font-specification:Sans"
       xml:space="preserve"><tspan
         id="tspan7359"
         y="753.45624"
         x="116.5"
         sodipodi:role="line">8</tspan></text>
    <text
       xml:space="preserve"
       style="font-size:12px;font-style:normal;font-variant:normal;font-weight:normal;font-stretch:normal;text-align:start;line-height:150%;letter-spacing:0px;word-spacing:0px;text-anchor:start;fill:#000000;fill-opacity:1;stroke:none;font-family:LMRoman12;-inkscape-font-specification:Sans"
       x="116.5"
       y="769.55164"
       id="text7361"
       sodipodi:linespacing="150%"><tspan
         sodipodi:role="line"
         x="116.5"
         y="769.55164"
         id="tspan7363">8</tspan></text>
    <text
       sodipodi:linespacing="150%"
       id="text7365"
       y="784.48334"
       x="116.5"
       style="font-size:12px;font-style:normal;font-variant:normal;font-weight:normal;font-stretch:normal;text-align:start;line-height:150%;letter-spacing:0px;word-spacing:0px;text-anchor:start;fill:#000000;fill-opacity:1;stroke:none;font-family:LMRoman12;-inkscape-font-specification:Sans"
       xml:space="preserve"><tspan
         id="tspan7367"
         y="784.48334"
         x="116.5"
         sodipodi:role="line">8</tspan></text>
    <text
       xml:space="preserve"
       style="font-size:12px;font-style:normal;font-variant:normal;font-weight:normal;font-stretch:normal;text-align:start;line-height:150%;letter-spacing:0px;word-spacing:0px;text-anchor:start;fill:#000000;fill-opacity:1;stroke:none;font-family:LMRoman12;-inkscape-font-specification:Sans"
       x="173"
       y="61.080688"
       id="text7389"
       sodipodi:linespacing="150%"
       transform="translate(0,698.03016)"><tspan
         sodipodi:role="line"
         id="tspan7391"
         x="173"
         y="61.080688" /></text>
    <path
       style="fill:none;stroke:#000000;stroke-width:0.60000002;stroke-linecap:square;stroke-linejoin:round;stroke-miterlimit:4;stroke-opacity:1;stroke-dasharray:none;stroke-dashoffset:0;marker-mid:none"
       d="m 167.5,750.95622 8.5,0"
       id="path7393"
       inkscape:connector-curvature="0" />
    <path
       inkscape:connector-curvature="0"
       id="path7763"
       d="m 167.5,766.42659 8.5,0"
       style="fill:none;stroke:#000000;stroke-width:0.60000002;stroke-linecap:square;stroke-linejoin:round;stroke-miterlimit:4;stroke-opacity:1;stroke-dasharray:none;stroke-dashoffset:0;marker-mid:none" />
    <path
       inkscape:connector-curvature="0"
       id="path7765"
       d="m 167.5,781.3583 8.5,0"
       style="fill:none;stroke:#000000;stroke-width:0.60000002;stroke-linecap:square;stroke-linejoin:round;stroke-miterlimit:4;stroke-opacity:1;stroke-dasharray:none;stroke-dashoffset:0;marker-mid:none" />
    <text
       xml:space="preserve"
       style="font-size:12px;font-style:normal;font-variant:normal;font-weight:normal;font-stretch:normal;text-align:start;line-height:150%;letter-spacing:0px;word-spacing:0px;text-anchor:start;fill:#000000;fill-opacity:1;stroke:none;font-family:LMRoman12;-inkscape-font-specification:Sans"
       x="188.62489"
       y="753.45624"
       id="text7777"
       sodipodi:linespacing="150%"><tspan
         sodipodi:role="line"
         x="188.62489"
         y="753.45624"
         id="tspan7779">3</tspan></text>
    <text
       sodipodi:linespacing="150%"
       id="text7781"
       y="769.55164"
       x="188.62489"
       style="font-size:12px;font-style:normal;font-variant:normal;font-weight:normal;font-stretch:normal;text-align:start;line-height:150%;letter-spacing:0px;word-spacing:0px;text-anchor:start;fill:#000000;fill-opacity:1;stroke:none;font-family:LMRoman12;-inkscape-font-specification:Sans"
       xml:space="preserve"><tspan
         id="tspan7783"
         y="769.55164"
         x="188.62489"
         sodipodi:role="line">2</tspan></text>
    <text
       xml:space="preserve"
       style="font-size:12px;font-style:normal;font-variant:normal;font-weight:normal;font-stretch:normal;text-align:start;line-height:150%;letter-spacing:0px;word-spacing:0px;text-anchor:start;fill:#000000;fill-opacity:1;stroke:none;font-family:LMRoman12;-inkscape-font-specification:Sans"
       x="188.62489"
       y="784.48334"
       id="text7785"
       sodipodi:linespacing="150%"><tspan
         sodipodi:role="line"
         x="188.62489"
         y="784.48334"
         id="tspan7787">7</tspan></text>
    <text
       xml:space="preserve"
       style="font-size:12px;font-style:normal;font-variant:normal;font-weight:normal;font-stretch:normal;text-align:start;line-height:150%;letter-spacing:0px;word-spacing:0px;text-anchor:start;fill:#000000;fill-opacity:1;stroke:none;font-family:LMRoman12;-inkscape-font-specification:Sans"
       x="173.07074"
       y="739.27783"
       id="text7815"
       sodipodi:linespacing="150%"><tspan
         sodipodi:role="line"
         id="tspan7817"
         x="173.07074"
         y="739.27783">Remainder</tspan></text>
    <path
       sodipodi:nodetypes="ccc"
       inkscape:connector-curvature="0"
       id="path9265"
       d="m 130,746.13798 0,11.22287 29.50797,0"
       style="fill:none;stroke:#000000;stroke-width:1;stroke-linecap:square;stroke-linejoin:round;stroke-miterlimit:4;stroke-opacity:1;stroke-dasharray:none;stroke-dashoffset:0" />
    <path
       style="fill:none;stroke:#000000;stroke-width:1;stroke-linecap:square;stroke-linejoin:round;stroke-miterlimit:4;stroke-opacity:1;stroke-dasharray:none;stroke-dashoffset:0"
       d="m 130,761.13798 0,11.22287 29.50797,0"
       id="path9267"
       inkscape:connector-curvature="0"
       sodipodi:nodetypes="ccc" />
    <path
       sodipodi:nodetypes="ccc"
       inkscape:connector-curvature="0"
       id="path9269"
       d="m 130,776.13798 0,11.22287 29.50797,0"
       style="fill:none;stroke:#000000;stroke-width:1;stroke-linecap:square;stroke-linejoin:round;stroke-miterlimit:4;stroke-opacity:1;stroke-dasharray:none;stroke-dashoffset:0" />
    <text
       xml:space="preserve"
       style="font-size:12px;font-style:normal;font-variant:normal;font-weight:normal;font-stretch:normal;text-align:start;line-height:150%;letter-spacing:0px;word-spacing:0px;text-anchor:start;fill:#000000;fill-opacity:1;stroke:none;font-family:LMRoman12;-inkscape-font-specification:Sans"
       x="149.3161"
       y="801.72412"
       id="text11170"
       sodipodi:linespacing="150%"><tspan
         sodipodi:role="line"
         id="tspan11172"
         x="149.3161"
         y="801.72412">0</tspan></text>
    <path
       style="fill:none;stroke:#000000;stroke-width:0.60000002;stroke-linecap:square;stroke-linejoin:round;stroke-miterlimit:4;stroke-opacity:1;stroke-dasharray:none;stroke-dashoffset:0;marker-mid:none"
       d="m 167.5,797.72586 8.5,0"
       id="path11174"
       inkscape:connector-curvature="0" />
    <text
       sodipodi:linespacing="150%"
       id="text11176"
       y="800.85089"
       x="188.62489"
       style="font-size:12px;font-style:normal;font-variant:normal;font-weight:normal;font-stretch:normal;text-align:start;line-height:150%;letter-spacing:0px;word-spacing:0px;text-anchor:start;fill:#000000;fill-opacity:1;stroke:none;font-family:LMRoman12;-inkscape-font-specification:Sans"
       xml:space="preserve"><tspan
         id="tspan11178"
         y="800.85089"
         x="188.62489"
         sodipodi:role="line">3</tspan></text>
    <g
       style="font-style:normal;font-variant:normal;font-weight:normal;font-stretch:normal;letter-spacing:normal;word-spacing:normal;text-anchor:start;fill:none;stroke:#000000;stroke-width:1;stroke-linecap:butt;stroke-linejoin:miter;stroke-miterlimit:10.43299961;stroke-opacity:1;stroke-dasharray:none;stroke-dashoffset:0"
       ns0:preamble="/home/sriranga/Desktop/Prism_BasicElectronics/preamble.tex"
       ns0:text="$\\therefore~ (2003)_{10}= (3723)_8$"
       text-anchor="start"
       word-spacing="normal"
       letter-spacing="normal"
       font-size-adjust="none"
       font-stretch="normal"
       font-weight="normal"
       font-variant="normal"
       font-style="normal"
       fill-opacity="1"
       fill-rule="evenodd"
       fill="none"
       stroke-opacity="1"
       stroke-dashoffset="0"
       stroke-dasharray="none"
       stroke-miterlimit="10.433"
       stroke-linejoin="miter"
       stroke-linecap="butt"
       stroke="black"
       xml:space="preserve"
       transform="matrix(1.2,0,0,-1.2,-163.93498,1668.9063)"
       id="content"><path
         id="path11456"
         fill="black"
         stroke-width="0"
         d="M227.27,711.21 L227.27,711.23 L227.27,711.26 L227.27,711.29 L227.26,711.31 L227.26,711.34 L227.25,711.36 L227.24,711.39 L227.23,711.41 L227.22,711.43 L227.21,711.46 L227.2,711.48 L227.18,711.5 L227.17,711.52 L227.15,711.54 L227.13,711.56 L227.12,711.58 L227.1,711.6 L227.08,711.61 L227.06,711.63 L227.04,711.64 L227.02,711.66 L227,711.67 L226.97,711.68 L226.95,711.69 L226.93,711.7 L226.9,711.71 L226.88,711.72 L226.85,711.72 L226.82,711.73 L226.8,711.73 L226.77,711.73 L226.74,711.73 C226.46,711.73,226.22,711.5,226.22,711.21 C226.22,710.92,226.46,710.68,226.74,710.68 C227.02,710.68,227.27,710.91,227.27,711.21 Z " /><path
         id="path11458"
         fill="black"
         stroke-width="0"
         d="M229.76,706.91 L229.76,706.93 L229.76,706.96 L229.75,706.99 L229.75,707.01 L229.74,707.04 L229.74,707.06 L229.73,707.09 L229.72,707.11 L229.71,707.13 L229.7,707.16 L229.68,707.18 L229.67,707.2 L229.65,707.22 L229.64,707.24 L229.62,707.26 L229.6,707.28 L229.59,707.3 L229.57,707.31 L229.55,707.33 L229.53,707.34 L229.5,707.36 L229.48,707.37 L229.46,707.38 L229.44,707.39 L229.41,707.4 L229.39,707.41 L229.36,707.42 L229.34,707.42 L229.31,707.43 L229.29,707.43 L229.26,707.43 L229.23,707.43 C228.94,707.43,228.71,707.19,228.71,706.91 C228.71,706.62,228.94,706.38,229.23,706.38 C229.52,706.38,229.76,706.62,229.76,706.91 Z " /><path
         id="path11460"
         fill="black"
         stroke-width="0"
         d="M224.79,706.91 L224.78,706.93 L224.78,706.96 L224.78,706.99 L224.77,707.01 L224.77,707.04 L224.76,707.06 L224.75,707.09 L224.74,707.11 L224.73,707.13 L224.72,707.16 L224.71,707.18 L224.69,707.2 L224.68,707.22 L224.66,707.24 L224.65,707.26 L224.63,707.28 L224.61,707.3 L224.59,707.31 L224.57,707.33 L224.55,707.34 L224.53,707.36 L224.51,707.37 L224.49,707.38 L224.46,707.39 L224.44,707.4 L224.41,707.41 L224.39,707.42 L224.36,707.42 L224.34,707.43 L224.31,707.43 L224.28,707.43 L224.26,707.43 C223.97,707.43,223.73,707.19,223.73,706.91 C223.73,706.62,223.97,706.38,224.26,706.38 C224.55,706.38,224.79,706.62,224.79,706.91 Z " /><path
         id="path11462"
         fill="black"
         stroke-width="0"
         d="M238.27,713.84 L238.2,713.8 L238.13,713.75 L238.07,713.71 L238.01,713.67 L237.95,713.63 L237.9,713.59 L237.84,713.55 L237.79,713.52 L237.74,713.48 L237.69,713.44 L237.64,713.41 L237.6,713.37 L237.55,713.34 L237.51,713.3 L237.43,713.24 L237.35,713.17 L237.28,713.1 L237.2,713.03 L237.13,712.96 L237.07,712.89 L237,712.81 L236.93,712.73 L236.86,712.65 C236.16,711.78,235.81,710.79,235.81,709.63 C235.81,708.37,236.18,707.39,237.05,706.38 C237.46,705.9,237.72,705.68,238.24,705.37 L238.36,705.53 C237.56,706.15,237.28,706.5,237.01,707.24 C236.77,707.91,236.66,708.66,236.66,709.66 C236.66,710.7,236.79,711.52,237.06,712.13 C237.34,712.75,237.64,713.1,238.36,713.68 Z " /><path
         id="path11464"
         fill="black"
         stroke-width="0"
         d="M243.38,708.49 L243.25,708.54 C242.88,707.97,242.75,707.88,242.3,707.88 H239.92 L241.59,709.63 C242.48,710.55,242.87,711.31,242.87,712.08 C242.87,713.08,242.06,713.84,241.03,713.84 C240.48,713.84,239.96,713.62,239.6,713.22 C239.28,712.89,239.13,712.57,238.96,711.86 L239.17,711.81 C239.57,712.79,239.92,713.1,240.61,713.1 C241.45,713.1,242.01,712.54,242.01,711.71 C242.01,710.93,241.55,710.01,240.72,709.12 L238.95,707.24 V707.12 H242.83 Z " /><path
         id="path11466"
         fill="black"
         stroke-width="0"
         d="M246.16,713.84 L246.11,713.84 L246.06,713.84 L246.01,713.84 L245.96,713.83 L245.91,713.83 L245.86,713.82 L245.82,713.82 L245.77,713.81 L245.73,713.8 L245.68,713.79 L245.64,713.78 L245.59,713.77 L245.55,713.76 L245.51,713.74 L245.47,713.73 L245.42,713.71 L245.38,713.7 L245.34,713.68 L245.3,713.66 L245.26,713.64 L245.23,713.62 L245.19,713.6 L245.15,713.57 L245.11,713.55 L245.07,713.53 L245.04,713.5 L245,713.47 L244.97,713.45 L244.93,713.42 L244.89,713.39 L244.86,713.36 L244.82,713.32 C244.25,712.77,243.87,711.62,243.87,710.46 C243.87,709.38,244.2,708.22,244.67,707.66 C245.03,707.22,245.54,706.99,246.12,706.99 V707.24 C245.26,707.24,244.82,708.31,244.82,710.37 C244.82,712.48,245.27,713.58,246.13,713.58 H246.13 C246.96,713.58,247.41,712.46,247.41,710.38 C247.41,708.31,246.97,707.24,246.12,707.24 V706.99 C246.63,706.99,247.05,707.16,247.41,707.5 C247.99,708.05,248.37,709.2,248.37,710.4 C248.37,712.44,247.46,713.84,246.16,713.84 Z " /><path
         id="path11468"
         fill="black"
         stroke-width="0"
         d="M251.14,713.84 L251.09,713.84 L251.04,713.84 L250.99,713.84 L250.94,713.83 L250.89,713.83 L250.84,713.82 L250.8,713.82 L250.75,713.81 L250.71,713.8 L250.66,713.79 L250.62,713.78 L250.57,713.77 L250.53,713.76 L250.49,713.74 L250.45,713.73 L250.41,713.71 L250.36,713.7 L250.32,713.68 L250.28,713.66 L250.25,713.64 L250.21,713.62 L250.17,713.6 L250.13,713.57 L250.09,713.55 L250.06,713.53 L250.02,713.5 L249.98,713.47 L249.95,713.45 L249.91,713.42 L249.88,713.39 L249.84,713.36 L249.81,713.32 C249.23,712.77,248.85,711.62,248.85,710.46 C248.85,709.38,249.18,708.22,249.65,707.66 C250.01,707.22,250.52,706.99,251.1,706.99 V707.24 C250.24,707.24,249.81,708.31,249.81,710.37 C249.81,712.48,250.25,713.58,251.11,713.58 H251.11 C251.95,713.58,252.39,712.46,252.39,710.38 C252.39,708.31,251.96,707.24,251.1,707.24 V706.99 C251.61,706.99,252.04,707.16,252.39,707.5 C252.97,708.05,253.35,709.2,253.35,710.4 C253.35,712.44,252.44,713.84,251.14,713.84 Z " /><path
         id="path11470"
         fill="black"
         stroke-width="0"
         d="M255.12,710.4 L255.17,710.4 L255.22,710.4 L255.27,710.4 L255.32,710.4 L255.37,710.4 L255.41,710.4 L255.45,710.4 L255.49,710.4 L255.53,710.4 L255.57,710.4 L255.61,710.39 L255.64,710.39 L255.68,710.39 L255.71,710.39 L255.74,710.38 L255.77,710.38 L255.8,710.38 L255.83,710.38 L255.86,710.37 L255.89,710.37 L255.91,710.36 L255.94,710.36 L255.99,710.35 L256.03,710.34 L256.08,710.32 L256.13,710.31 L256.17,710.29 C256.79,710.08,257.17,709.51,257.17,708.82 C257.17,707.99,256.61,707.34,255.87,707.34 C255.6,707.34,255.4,707.41,255.04,707.65 C254.74,707.83,254.57,707.9,254.4,707.9 C254.17,707.9,254.02,707.76,254.02,707.55 C254.02,707.2,254.45,706.99,255.15,706.99 C255.91,706.99,256.7,707.24,257.17,707.65 C257.63,708.06,257.89,708.64,257.89,709.3 C257.89,709.81,257.73,710.27,257.44,710.58 C257.24,710.8,257.06,710.92,256.62,711.11 C257.3,711.58,257.55,711.94,257.55,712.48 C257.55,713.28,256.92,713.84,256,713.84 C255.5,713.84,255.07,713.67,254.71,713.35 C254.41,713.09,254.26,712.83,254.04,712.23 L254.19,712.19 C254.6,712.92,255.05,713.24,255.67,713.24 C256.32,713.24,256.77,712.81,256.77,712.18 C256.77,711.82,256.62,711.47,256.37,711.22 C256.07,710.92,255.79,710.77,255.12,710.53 Z " /><path
         id="path11472"
         fill="black"
         stroke-width="0"
         d="M258.95,705.37 L259.02,705.41 L259.09,705.45 L259.15,705.5 L259.21,705.54 L259.27,705.58 L259.32,705.61 L259.38,705.65 L259.43,705.69 L259.48,705.73 L259.53,705.76 L259.58,705.8 L259.62,705.83 L259.67,705.87 L259.71,705.9 L259.79,705.97 L259.87,706.04 L259.94,706.11 L260.02,706.18 L260.09,706.25 L260.15,706.32 L260.22,706.4 L260.29,706.48 L260.36,706.56 C261.06,707.42,261.41,708.42,261.41,709.58 C261.41,710.85,261.04,711.81,260.17,712.83 C259.76,713.3,259.5,713.52,258.98,713.84 L258.86,713.68 C259.66,713.05,259.93,712.71,260.21,711.96 C260.45,711.3,260.55,710.54,260.55,709.55 C260.55,708.52,260.42,707.69,260.16,707.09 C259.88,706.46,259.58,706.1,258.86,705.53 Z " /><path
         id="path11474"
         fill="black"
         stroke-width="0"
         d="M263.92,710.33 L262.67,709.7 V709.6 C262.75,709.64,262.83,709.66,262.85,709.68 C262.98,709.73,263.1,709.76,263.17,709.76 C263.31,709.76,263.38,709.65,263.38,709.43 V706.28 C263.38,706.05,263.32,705.89,263.21,705.83 C263.1,705.76,263.01,705.74,262.71,705.73 V705.63 H264.64 V705.73 C264.09,705.74,263.97,705.81,263.97,706.15 V710.32 Z " /><path
         id="path11476"
         fill="black"
         stroke-width="0"
         d="M267.15,710.33 L267.11,710.33 L267.08,710.33 L267.04,710.33 L267.01,710.33 L266.97,710.32 L266.94,710.32 L266.91,710.31 L266.88,710.31 L266.85,710.3 L266.81,710.3 L266.78,710.29 L266.75,710.28 L266.72,710.27 L266.69,710.26 L266.66,710.25 L266.63,710.24 L266.61,710.23 L266.58,710.22 L266.55,710.21 L266.52,710.19 L266.49,710.18 L266.47,710.16 L266.44,710.15 L266.42,710.13 L266.39,710.11 L266.36,710.09 L266.34,710.07 L266.31,710.06 L266.29,710.04 L266.26,710.01 L266.24,709.99 L266.21,709.97 C265.81,709.58,265.55,708.78,265.55,707.97 C265.55,707.21,265.78,706.4,266.1,706.01 C266.36,705.7,266.72,705.53,267.12,705.53 V705.71 C266.52,705.71,266.21,706.46,266.21,707.91 C266.21,709.38,266.53,710.15,267.13,710.15 H267.13 C267.71,710.15,268.02,709.36,268.02,707.91 C268.02,706.46,267.72,705.71,267.12,705.71 V705.53 C267.48,705.53,267.77,705.65,268.02,705.9 C268.43,706.28,268.69,707.08,268.69,707.93 C268.69,709.35,268.06,710.33,267.15,710.33 Z " /><polygon
         id="polygon11478"
         fill="black"
         stroke-width="0"
         points="277.84,710.4 277.84,710.96 272.75,710.96 272.75,710.4 " /><polygon
         id="polygon11480"
         fill="black"
         stroke-width="0"
         points="277.84,708.39 277.84,708.94 272.75,708.94 272.75,708.39 " /><path
         id="path11482"
         fill="black"
         stroke-width="0"
         d="M284.17,713.84 L284.1,713.8 L284.04,713.75 L283.97,713.71 L283.91,713.67 L283.86,713.63 L283.8,713.59 L283.74,713.55 L283.69,713.52 L283.64,713.48 L283.59,713.44 L283.55,713.41 L283.5,713.37 L283.46,713.34 L283.41,713.3 L283.33,713.24 L283.25,713.17 L283.18,713.1 L283.11,713.03 L283.04,712.96 L282.97,712.89 L282.9,712.81 L282.84,712.73 L282.77,712.65 C282.06,711.78,281.71,710.79,281.71,709.63 C281.71,708.37,282.08,707.39,282.96,706.38 C283.36,705.9,283.62,705.68,284.14,705.37 L284.26,705.53 C283.46,706.15,283.18,706.5,282.92,707.24 C282.68,707.91,282.57,708.66,282.57,709.66 C282.57,710.7,282.7,711.52,282.97,712.13 C283.24,712.75,283.54,713.1,284.26,713.68 Z " /><path
         id="path11484"
         fill="black"
         stroke-width="0"
         d="M286.08,710.4 L286.13,710.4 L286.18,710.4 L286.23,710.4 L286.28,710.4 L286.33,710.4 L286.37,710.4 L286.41,710.4 L286.45,710.4 L286.49,710.4 L286.53,710.4 L286.57,710.39 L286.6,710.39 L286.64,710.39 L286.67,710.39 L286.7,710.38 L286.73,710.38 L286.76,710.38 L286.79,710.38 L286.82,710.37 L286.85,710.37 L286.87,710.36 L286.9,710.36 L286.95,710.35 L286.99,710.34 L287.04,710.32 L287.08,710.31 L287.13,710.29 C287.75,710.08,288.13,709.51,288.13,708.82 C288.13,707.99,287.57,707.34,286.83,707.34 C286.56,707.34,286.36,707.41,285.99,707.65 C285.7,707.83,285.53,707.9,285.36,707.9 C285.13,707.9,284.98,707.76,284.98,707.55 C284.98,707.2,285.41,706.99,286.11,706.99 C286.87,706.99,287.66,707.24,288.12,707.65 C288.59,708.06,288.85,708.64,288.85,709.3 C288.85,709.81,288.69,710.27,288.4,710.58 C288.2,710.8,288.02,710.92,287.58,711.11 C288.26,711.58,288.51,711.94,288.51,712.48 C288.51,713.28,287.88,713.84,286.96,713.84 C286.46,713.84,286.02,713.67,285.67,713.35 C285.37,713.09,285.22,712.83,285,712.23 L285.15,712.19 C285.56,712.92,286.01,713.24,286.63,713.24 C287.28,713.24,287.73,712.81,287.73,712.18 C287.73,711.82,287.58,711.47,287.33,711.22 C287.03,710.92,286.75,710.77,286.08,710.53 Z " /><path
         id="path11486"
         fill="black"
         stroke-width="0"
         d="M294,713.7 H290.32 L289.73,712.24 L289.9,712.16 C290.33,712.84,290.51,712.97,291.06,712.97 H293.21 L291.24,707.05 H291.89 L294,713.54 Z " /><path
         id="path11488"
         fill="black"
         stroke-width="0"
         d="M299.24,708.49 L299.11,708.54 C298.74,707.97,298.61,707.88,298.17,707.88 H295.79 L297.46,709.63 C298.35,710.55,298.73,711.31,298.73,712.08 C298.73,713.08,297.93,713.84,296.89,713.84 C296.35,713.84,295.83,713.62,295.46,713.22 C295.14,712.89,294.99,712.57,294.82,711.86 L295.03,711.81 C295.43,712.79,295.79,713.1,296.48,713.1 C297.31,713.1,297.88,712.54,297.88,711.71 C297.88,710.93,297.42,710.01,296.58,709.12 L294.81,707.24 V707.12 H298.69 Z " /><path
         id="path11490"
         fill="black"
         stroke-width="0"
         d="M301.02,710.4 L301.07,710.4 L301.12,710.4 L301.17,710.4 L301.22,710.4 L301.27,710.4 L301.31,710.4 L301.36,710.4 L301.4,710.4 L301.44,710.4 L301.48,710.4 L301.51,710.39 L301.55,710.39 L301.58,710.39 L301.61,710.39 L301.65,710.38 L301.68,710.38 L301.71,710.38 L301.73,710.38 L301.76,710.37 L301.79,710.37 L301.82,710.36 L301.84,710.36 L301.89,710.35 L301.94,710.34 L301.98,710.32 L302.03,710.31 L302.07,710.29 C302.69,710.08,303.08,709.51,303.08,708.82 C303.08,707.99,302.51,707.34,301.77,707.34 C301.51,707.34,301.31,707.41,300.94,707.65 C300.64,707.83,300.47,707.9,300.3,707.9 C300.07,707.9,299.92,707.76,299.92,707.55 C299.92,707.2,300.35,706.99,301.05,706.99 C301.82,706.99,302.6,707.24,303.07,707.65 C303.54,708.06,303.79,708.64,303.79,709.3 C303.79,709.81,303.64,710.27,303.35,710.58 C303.15,710.8,302.96,710.92,302.52,711.11 C303.21,711.58,303.46,711.94,303.46,712.48 C303.46,713.28,302.82,713.84,301.9,713.84 C301.41,713.84,300.97,713.67,300.61,713.35 C300.31,713.09,300.16,712.83,299.94,712.23 L300.09,712.19 C300.5,712.92,300.95,713.24,301.58,713.24 C302.22,713.24,302.67,712.81,302.67,712.18 C302.67,711.82,302.52,711.47,302.27,711.22 C301.97,710.92,301.7,710.77,301.02,710.53 Z " /><path
         id="path11492"
         fill="black"
         stroke-width="0"
         d="M304.86,705.37 L304.92,705.41 L304.99,705.45 L305.05,705.5 L305.11,705.54 L305.17,705.58 L305.23,705.61 L305.28,705.65 L305.33,705.69 L305.38,705.73 L305.43,705.76 L305.48,705.8 L305.53,705.83 L305.57,705.87 L305.61,705.9 L305.7,705.97 L305.77,706.04 L305.85,706.11 L305.92,706.18 L305.99,706.25 L306.06,706.32 L306.12,706.4 L306.19,706.48 L306.26,706.56 C306.96,707.42,307.31,708.42,307.31,709.58 C307.31,710.85,306.95,711.81,306.07,712.83 C305.66,713.3,305.4,713.52,304.89,713.84 L304.77,713.68 C305.56,713.05,305.83,712.71,306.11,711.96 C306.35,711.3,306.46,710.54,306.46,709.55 C306.46,708.52,306.33,707.69,306.06,707.09 C305.78,706.46,305.48,706.1,304.77,705.53 Z " /><path
         id="path11494"
         fill="black"
         stroke-width="0"
         d="M309.82,708.21 L309.88,708.25 L309.94,708.28 L310,708.31 L310.05,708.35 L310.11,708.38 L310.16,708.41 L310.21,708.44 L310.25,708.48 L310.3,708.51 L310.34,708.54 L310.38,708.57 L310.41,708.61 L310.45,708.64 L310.48,708.67 L310.51,708.7 L310.54,708.74 L310.57,708.77 L310.59,708.81 L310.61,708.84 L310.64,708.87 L310.65,708.91 L310.67,708.95 L310.69,708.98 L310.7,709.02 L310.71,709.06 L310.72,709.1 L310.73,709.13 L310.74,709.17 L310.74,709.22 L310.75,709.26 L310.75,709.3 L310.75,709.34 C310.75,709.91,310.25,710.33,309.55,710.33 L309.49,710.14 C309.97,710.14,310.27,709.83,310.27,709.35 C310.27,708.96,310.07,708.64,309.68,708.38 C309.64,708.36,309.64,708.36,309.61,708.34 H309.61 C308.99,708.74,308.74,709.06,308.74,709.45 C308.74,709.85,309.06,710.14,309.49,710.14 L309.55,710.33 C308.79,710.33,308.23,709.87,308.23,709.23 C308.23,708.78,308.36,708.58,309.09,707.94 C308.34,707.37,308.19,707.15,308.19,706.68 C308.19,706.01,308.74,705.53,309.52,705.53 L309.6,705.73 C309.07,705.73,308.71,706.13,308.71,706.74 C308.71,707.18,308.87,707.47,309.27,707.8 L309.69,707.49 C310.2,707.13,310.37,706.88,310.37,706.49 C310.37,706.04,310.05,705.73,309.6,705.73 L309.52,705.53 C310.36,705.53,310.89,705.99,310.89,706.71 C310.89,707.24,310.66,707.59,309.82,708.21 Z " /></g>  </g>
</svg>
