<?xml version="1.0" encoding="UTF-8" standalone="no"?>
<!-- Created with Inkscape (http://www.inkscape.org/) -->

<svg
   xmlns:ns0="http://www.iki.fi/pav/software/textext/"
   xmlns:dc="http://purl.org/dc/elements/1.1/"
   xmlns:cc="http://creativecommons.org/ns#"
   xmlns:rdf="http://www.w3.org/1999/02/22-rdf-syntax-ns#"
   xmlns:svg="http://www.w3.org/2000/svg"
   xmlns="http://www.w3.org/2000/svg"
   xmlns:sodipodi="http://sodipodi.sourceforge.net/DTD/sodipodi-0.dtd"
   xmlns:inkscape="http://www.inkscape.org/namespaces/inkscape"
   width="496.06299"
   height="354.33069"
   id="svg2"
   version="1.1"
   inkscape:version="0.48.4 r9939"
   sodipodi:docname="div15.eps">
  <sodipodi:namedview
     id="base"
     pagecolor="#ffffff"
     bordercolor="#666666"
     borderopacity="1.0"
     inkscape:pageopacity="0.0"
     inkscape:pageshadow="2"
     inkscape:zoom="2.6883933"
     inkscape:cx="130.75104"
     inkscape:cy="278.46685"
     inkscape:document-units="cm"
     inkscape:current-layer="layer1"
     showgrid="false"
     units="cm"
     inkscape:object-nodes="true"
     inkscape:window-width="1366"
     inkscape:window-height="744"
     inkscape:window-x="0"
     inkscape:window-y="24"
     inkscape:window-maximized="1">
    <inkscape:grid
       type="xygrid"
       id="grid2985"
       empspacing="5"
       visible="true"
       enabled="true"
       snapvisiblegridlinesonly="true" />
  </sodipodi:namedview>
  <defs
     id="defs4">
    <marker
       inkscape:stockid="Arrow1Mstart"
       orient="auto"
       refY="0"
       refX="0"
       id="Arrow1Mstart"
       style="overflow:visible">
      <path
         inkscape:connector-curvature="0"
         id="path3775"
         d="M 0,0 5,-5 -12.5,0 5,5 0,0 z"
         style="fill-rule:evenodd;stroke:#000000;stroke-width:1pt"
         transform="matrix(0.4,0,0,0.4,4,0)" />
    </marker>
    <marker
       inkscape:stockid="Arrow1Mend"
       orient="auto"
       refY="0"
       refX="0"
       id="Arrow1Mend"
       style="overflow:visible">
      <path
         inkscape:connector-curvature="0"
         id="path3778"
         d="M 0,0 5,-5 -12.5,0 5,5 0,0 z"
         style="fill-rule:evenodd;stroke:#000000;stroke-width:1pt"
         transform="matrix(-0.4,0,0,-0.4,-4,0)" />
    </marker>
    <marker
       inkscape:stockid="Arrow1Mstart"
       orient="auto"
       refY="0"
       refX="0"
       id="Arrow1Mstart-2"
       style="overflow:visible">
      <path
         inkscape:connector-curvature="0"
         id="path3775-8"
         d="M 0,0 5,-5 -12.5,0 5,5 0,0 z"
         style="fill-rule:evenodd;stroke:#000000;stroke-width:1pt"
         transform="matrix(0.4,0,0,0.4,4,0)" />
    </marker>
  </defs>
  <metadata
     id="metadata7">
    <rdf:RDF>
      <cc:Work
         rdf:about="">
        <dc:format>image/svg+xml</dc:format>
        <dc:type
           rdf:resource="http://purl.org/dc/dcmitype/StillImage" />
        <dc:title></dc:title>
      </cc:Work>
    </rdf:RDF>
  </metadata>
  <g
     inkscape:label="Layer 1"
     inkscape:groupmode="layer"
     id="layer1"
     transform="translate(0,-698.03016)">
    <text
       transform="translate(0,698.03016)"
       sodipodi:linespacing="100%"
       id="text5818"
       y="56.040417"
       x="61.700558"
       style="font-size:12px;font-style:normal;font-variant:normal;font-weight:normal;font-stretch:normal;text-align:start;line-height:100%;letter-spacing:0px;word-spacing:0px;text-anchor:start;fill:#000000;fill-opacity:1;stroke:none;font-family:LMRoman12;-inkscape-font-specification:Sans"
       xml:space="preserve"><tspan
         y="56.040417"
         x="61.700558"
         id="tspan5820"
         sodipodi:role="line" /></text>
    <flowRoot
       xml:space="preserve"
       id="flowRoot6377"
       style="fill:black;stroke:none;stroke-opacity:1;stroke-width:1px;stroke-linejoin:miter;stroke-linecap:butt;fill-opacity:1;font-family:LMRoman12;font-style:normal;font-weight:normal;font-size:12px;line-height:100%;letter-spacing:0px;word-spacing:0px;-inkscape-font-specification:Sans;font-stretch:normal;font-variant:normal;text-anchor:start;text-align:start"><flowRegion
         id="flowRegion6379"><rect
           id="rect6381"
           width="27.681772"
           height="40.319103"
           x="219.34796"
           y="87.141403" /></flowRegion><flowPara
         id="flowPara6383" /></flowRoot>    <text
       xml:space="preserve"
       style="font-size:12px;font-style:normal;font-variant:normal;font-weight:normal;font-stretch:normal;text-align:start;line-height:50%;letter-spacing:0px;word-spacing:0px;text-anchor:start;fill:#000000;fill-opacity:1;stroke:none;font-family:LMRoman12;-inkscape-font-specification:Sans"
       x="275.91507"
       y="55.247185"
       id="text6385"
       sodipodi:linespacing="50%"
       transform="translate(0,698.03016)"><tspan
         sodipodi:role="line"
         id="tspan6387" /></text>
    <text
       xml:space="preserve"
       style="font-size:12px;font-style:normal;font-variant:normal;font-weight:normal;font-stretch:normal;text-align:start;line-height:100%;letter-spacing:0px;word-spacing:0px;text-anchor:start;fill:#000000;fill-opacity:1;stroke:none;font-family:LMRoman12;-inkscape-font-specification:Sans"
       x="348.65417"
       y="194.38702"
       id="text3884"
       sodipodi:linespacing="100%"
       transform="translate(0,698.03016)"><tspan
         sodipodi:role="line"
         x="348.65417"
         y="194.38702"
         id="tspan3890" /></text>
    <text
       xml:space="preserve"
       style="font-size:12px;font-style:normal;font-variant:normal;font-weight:normal;font-stretch:normal;text-align:start;line-height:150%;letter-spacing:0px;word-spacing:0px;text-anchor:start;fill:#000000;fill-opacity:1;stroke:none;font-family:LMRoman12;-inkscape-font-specification:Sans"
       x="216.96629"
       y="250.89732"
       id="text3887"
       sodipodi:linespacing="150%"
       transform="translate(0,698.03016)"><tspan
         sodipodi:role="line"
         id="tspan3889"
         x="216.96629"
         y="250.89732" /></text>
    <path
       style="fill:none;stroke:#000000;stroke-width:1;stroke-linecap:square;stroke-linejoin:round;stroke-miterlimit:4;stroke-opacity:1;stroke-dasharray:none;stroke-dashoffset:0"
       d="m 125,731.13798 0,11.22287 40,0"
       id="path7259"
       inkscape:connector-curvature="0"
       sodipodi:nodetypes="ccc" />
    <text
       xml:space="preserve"
       style="font-size:12px;font-style:normal;font-variant:normal;font-weight:normal;font-stretch:normal;text-align:start;line-height:150%;letter-spacing:0px;word-spacing:0px;text-anchor:start;fill:#000000;fill-opacity:1;stroke:none;font-family:LMRoman12;-inkscape-font-specification:Sans"
       x="127.21133"
       y="739.18097"
       id="text7261"
       sodipodi:linespacing="150%"><tspan
         sodipodi:role="line"
         id="tspan7263"
         x="127.21133"
         y="739.18097">894867</tspan></text>
    <text
       sodipodi:linespacing="150%"
       id="text7271"
       y="754.70447"
       x="133.41814"
       style="font-size:12px;font-style:normal;font-variant:normal;font-weight:normal;font-stretch:normal;text-align:start;line-height:150%;letter-spacing:0px;word-spacing:0px;text-anchor:start;fill:#000000;fill-opacity:1;stroke:none;font-family:LMRoman12;-inkscape-font-specification:Sans"
       xml:space="preserve"><tspan
         y="754.70447"
         x="133.41814"
         id="tspan7273"
         sodipodi:role="line">55929</tspan></text>
    <text
       xml:space="preserve"
       style="font-size:12px;font-style:normal;font-variant:normal;font-weight:normal;font-stretch:normal;text-align:start;line-height:150%;letter-spacing:0px;word-spacing:0px;text-anchor:start;fill:#000000;fill-opacity:1;stroke:none;font-family:LMRoman12;-inkscape-font-specification:Sans"
       x="139.39696"
       y="770.54987"
       id="text7279"
       sodipodi:linespacing="150%"><tspan
         sodipodi:role="line"
         id="tspan7281"
         x="139.39696"
         y="770.54987">3495</tspan></text>
    <text
       sodipodi:linespacing="150%"
       id="text7287"
       y="785.35657"
       x="145.18376"
       style="font-size:12px;font-style:normal;font-variant:normal;font-weight:normal;font-stretch:normal;text-align:start;line-height:150%;letter-spacing:0px;word-spacing:0px;text-anchor:start;fill:#000000;fill-opacity:1;stroke:none;font-family:LMRoman12;-inkscape-font-specification:Sans"
       xml:space="preserve"><tspan
         y="785.35657"
         x="145.18376"
         id="tspan7289"
         sodipodi:role="line">218</tspan></text>
    <text
       xml:space="preserve"
       style="font-size:12px;font-style:normal;font-variant:normal;font-weight:normal;font-stretch:normal;text-align:start;line-height:150%;letter-spacing:0px;word-spacing:0px;text-anchor:start;fill:#000000;fill-opacity:1;stroke:none;font-family:LMRoman12;-inkscape-font-specification:Sans"
       x="104.69036"
       y="740.36084"
       id="text7341"
       sodipodi:linespacing="150%"><tspan
         sodipodi:role="line"
         x="104.69036"
         y="740.36084"
         id="tspan7349">16</tspan></text>
    <text
       sodipodi:linespacing="150%"
       id="text7357"
       y="753.45624"
       x="104.69036"
       style="font-size:12px;font-style:normal;font-variant:normal;font-weight:normal;font-stretch:normal;text-align:start;line-height:150%;letter-spacing:0px;word-spacing:0px;text-anchor:start;fill:#000000;fill-opacity:1;stroke:none;font-family:LMRoman12;-inkscape-font-specification:Sans"
       xml:space="preserve"><tspan
         id="tspan7359"
         y="753.45624"
         x="104.69036"
         sodipodi:role="line">16</tspan></text>
    <text
       xml:space="preserve"
       style="font-size:12px;font-style:normal;font-variant:normal;font-weight:normal;font-stretch:normal;text-align:start;line-height:150%;letter-spacing:0px;word-spacing:0px;text-anchor:start;fill:#000000;fill-opacity:1;stroke:none;font-family:LMRoman12;-inkscape-font-specification:Sans"
       x="104.69036"
       y="769.55164"
       id="text7361"
       sodipodi:linespacing="150%"><tspan
         sodipodi:role="line"
         x="104.69036"
         y="769.55164"
         id="tspan7363">16</tspan></text>
    <text
       sodipodi:linespacing="150%"
       id="text7365"
       y="784.48334"
       x="104.69036"
       style="font-size:12px;font-style:normal;font-variant:normal;font-weight:normal;font-stretch:normal;text-align:start;line-height:150%;letter-spacing:0px;word-spacing:0px;text-anchor:start;fill:#000000;fill-opacity:1;stroke:none;font-family:LMRoman12;-inkscape-font-specification:Sans"
       xml:space="preserve"><tspan
         id="tspan7367"
         y="784.48334"
         x="104.69036"
         sodipodi:role="line">16</tspan></text>
    <text
       xml:space="preserve"
       style="font-size:12px;font-style:normal;font-variant:normal;font-weight:normal;font-stretch:normal;text-align:start;line-height:150%;letter-spacing:0px;word-spacing:0px;text-anchor:start;fill:#000000;fill-opacity:1;stroke:none;font-family:LMRoman12;-inkscape-font-specification:Sans"
       x="173"
       y="61.080688"
       id="text7389"
       sodipodi:linespacing="150%"
       transform="translate(0,698.03016)"><tspan
         sodipodi:role="line"
         id="tspan7391"
         x="173"
         y="61.080688" /></text>
    <path
       style="fill:none;stroke:#000000;stroke-width:0.60000002;stroke-linecap:square;stroke-linejoin:round;stroke-miterlimit:4;stroke-opacity:1;stroke-dasharray:none;stroke-dashoffset:0;marker-mid:none"
       d="m 171.5,750.95622 8.5,0"
       id="path7393"
       inkscape:connector-curvature="0" />
    <path
       inkscape:connector-curvature="0"
       id="path7763"
       d="m 171.5,766.42659 8.5,0"
       style="fill:none;stroke:#000000;stroke-width:0.60000002;stroke-linecap:square;stroke-linejoin:round;stroke-miterlimit:4;stroke-opacity:1;stroke-dasharray:none;stroke-dashoffset:0;marker-mid:none" />
    <path
       inkscape:connector-curvature="0"
       id="path7765"
       d="m 171.5,781.3583 8.5,0"
       style="fill:none;stroke:#000000;stroke-width:0.60000002;stroke-linecap:square;stroke-linejoin:round;stroke-miterlimit:4;stroke-opacity:1;stroke-dasharray:none;stroke-dashoffset:0;marker-mid:none" />
    <text
       xml:space="preserve"
       style="font-size:12px;font-style:normal;font-variant:normal;font-weight:normal;font-stretch:normal;text-align:start;line-height:150%;letter-spacing:0px;word-spacing:0px;text-anchor:start;fill:#000000;fill-opacity:1;stroke:none;font-family:LMRoman12;-inkscape-font-specification:Sans"
       x="191.51814"
       y="753.19324"
       id="text7777"
       sodipodi:linespacing="150%"><tspan
         sodipodi:role="line"
         x="191.51814"
         y="753.19324"
         id="tspan7779">3</tspan></text>
    <text
       sodipodi:linespacing="150%"
       id="text7781"
       y="769.55164"
       x="191.51814"
       style="font-size:12px;font-style:normal;font-variant:normal;font-weight:normal;font-stretch:normal;text-align:start;line-height:150%;letter-spacing:0px;word-spacing:0px;text-anchor:start;fill:#000000;fill-opacity:1;stroke:none;font-family:LMRoman12;-inkscape-font-specification:Sans"
       xml:space="preserve"><tspan
         id="tspan7783"
         y="769.55164"
         x="191.51814"
         sodipodi:role="line">9</tspan></text>
    <text
       xml:space="preserve"
       style="font-size:12px;font-style:normal;font-variant:normal;font-weight:normal;font-stretch:normal;text-align:start;line-height:150%;letter-spacing:0px;word-spacing:0px;text-anchor:start;fill:#000000;fill-opacity:1;stroke:none;font-family:LMRoman12;-inkscape-font-specification:Sans"
       x="191.27814"
       y="784.48334"
       id="text7785"
       sodipodi:linespacing="150%"><tspan
         sodipodi:role="line"
         x="191.27814"
         y="784.48334"
         id="tspan7787">7</tspan></text>
    <text
       xml:space="preserve"
       style="font-size:12px;font-style:normal;font-variant:normal;font-weight:normal;font-stretch:normal;text-align:start;line-height:150%;letter-spacing:0px;word-spacing:0px;text-anchor:start;fill:#000000;fill-opacity:1;stroke:none;font-family:LMRoman12;-inkscape-font-specification:Sans"
       x="180"
       y="739.27783"
       id="text7815"
       sodipodi:linespacing="150%"><tspan
         sodipodi:role="line"
         id="tspan7817"
         x="180"
         y="739.27783">Remainder</tspan></text>
    <path
       sodipodi:nodetypes="ccc"
       inkscape:connector-curvature="0"
       id="path9265"
       d="m 125,746.13798 0,11.22287 40,0"
       style="fill:none;stroke:#000000;stroke-width:1;stroke-linecap:square;stroke-linejoin:round;stroke-miterlimit:4;stroke-opacity:1;stroke-dasharray:none;stroke-dashoffset:0" />
    <path
       style="fill:none;stroke:#000000;stroke-width:1;stroke-linecap:square;stroke-linejoin:round;stroke-miterlimit:4;stroke-opacity:1;stroke-dasharray:none;stroke-dashoffset:0"
       d="m 125,761.13798 0,11.22287 40,0"
       id="path9267"
       inkscape:connector-curvature="0"
       sodipodi:nodetypes="ccc" />
    <path
       sodipodi:nodetypes="ccc"
       inkscape:connector-curvature="0"
       id="path9269"
       d="m 125,776.13798 0,11.22287 40,0"
       style="fill:none;stroke:#000000;stroke-width:1;stroke-linecap:square;stroke-linejoin:round;stroke-miterlimit:4;stroke-opacity:1;stroke-dasharray:none;stroke-dashoffset:0" />
    <text
       xml:space="preserve"
       style="font-size:12px;font-style:normal;font-variant:normal;font-weight:normal;font-stretch:normal;text-align:start;line-height:150%;letter-spacing:0px;word-spacing:0px;text-anchor:start;fill:#000000;fill-opacity:1;stroke:none;font-family:LMRoman12;-inkscape-font-specification:Sans"
       x="151.06657"
       y="800.18604"
       id="text11170"
       sodipodi:linespacing="150%"><tspan
         sodipodi:role="line"
         id="tspan11172"
         x="151.06657"
         y="800.18604">13</tspan></text>
    <path
       style="fill:none;stroke:#000000;stroke-width:0.60000002;stroke-linecap:square;stroke-linejoin:round;stroke-miterlimit:4;stroke-opacity:1;stroke-dasharray:none;stroke-dashoffset:0;marker-mid:none"
       d="m 171.5,797.72586 8.5,0"
       id="path11174"
       inkscape:connector-curvature="0" />
    <text
       sodipodi:linespacing="150%"
       id="text11176"
       y="800.85089"
       x="190.05414"
       style="font-size:12px;font-style:normal;font-variant:normal;font-weight:normal;font-stretch:normal;text-align:start;line-height:150%;letter-spacing:0px;word-spacing:0px;text-anchor:start;fill:#000000;fill-opacity:1;stroke:none;font-family:LMRoman12;-inkscape-font-specification:Sans"
       xml:space="preserve"><tspan
         id="tspan11178"
         y="800.85089"
         x="190.05414"
         sodipodi:role="line">A</tspan></text>
    <path
       style="fill:none;stroke:#000000;stroke-width:1;stroke-linecap:square;stroke-linejoin:round;stroke-miterlimit:4;stroke-opacity:1;stroke-dasharray:none;stroke-dashoffset:0"
       d="m 125,791.13798 0,11.22287 40,0"
       id="path11617"
       inkscape:connector-curvature="0"
       sodipodi:nodetypes="ccc" />
    <text
       sodipodi:linespacing="150%"
       id="text11623"
       y="800.18604"
       x="108.82086"
       style="font-size:12px;font-style:normal;font-variant:normal;font-weight:normal;font-stretch:normal;text-align:start;line-height:150%;letter-spacing:0px;word-spacing:0px;text-anchor:start;fill:#000000;fill-opacity:1;stroke:none;font-family:LMRoman12;-inkscape-font-specification:Sans"
       xml:space="preserve"><tspan
         y="800.18604"
         x="108.82086"
         id="tspan11625"
         sodipodi:role="line" /></text>
    <path
       style="fill:none;stroke:#000000;stroke-width:0.99999994;stroke-linecap:square;stroke-linejoin:round;stroke-miterlimit:4;stroke-opacity:1;stroke-dasharray:none;stroke-dashoffset:0;marker-start:url(#Arrow1Mstart);marker-end:none"
       d="m 211.64198,746.23419 0,70.36309"
       id="path4924"
       inkscape:connector-curvature="0" />
    <text
       xml:space="preserve"
       style="font-size:12px;font-style:normal;font-variant:normal;font-weight:normal;font-stretch:normal;text-align:start;line-height:150%;letter-spacing:0px;word-spacing:0px;text-anchor:start;fill:#000000;fill-opacity:1;stroke:none;font-family:LMRoman12;-inkscape-font-specification:Sans"
       x="104.69036"
       y="800.48334"
       id="text13316"
       sodipodi:linespacing="150%"><tspan
         sodipodi:role="line"
         x="104.69036"
         y="800.48334"
         id="tspan13318">16</tspan></text>
    <text
       sodipodi:linespacing="150%"
       id="text13324"
       y="815.70435"
       x="156.94939"
       style="font-size:12px;font-style:normal;font-variant:normal;font-weight:normal;font-stretch:normal;text-align:start;line-height:150%;letter-spacing:0px;word-spacing:0px;text-anchor:start;fill:#000000;fill-opacity:1;stroke:none;font-family:LMRoman12;-inkscape-font-specification:Sans"
       xml:space="preserve"><tspan
         y="815.70435"
         x="156.94939"
         id="tspan13326"
         sodipodi:role="line">0</tspan></text>
    <path
       inkscape:connector-curvature="0"
       id="path13328"
       d="m 171.5,813.24416 8.5,0"
       style="fill:none;stroke:#000000;stroke-width:0.60000002;stroke-linecap:square;stroke-linejoin:round;stroke-miterlimit:4;stroke-opacity:1;stroke-dasharray:none;stroke-dashoffset:0;marker-mid:none" />
    <text
       xml:space="preserve"
       style="font-size:12px;font-style:normal;font-variant:normal;font-weight:normal;font-stretch:normal;text-align:start;line-height:150%;letter-spacing:0px;word-spacing:0px;text-anchor:start;fill:#000000;fill-opacity:1;stroke:none;font-family:LMRoman12;-inkscape-font-specification:Sans"
       x="190.04214"
       y="816.3692"
       id="text13330"
       sodipodi:linespacing="150%"><tspan
         sodipodi:role="line"
         x="190.04214"
         y="816.3692"
         id="tspan13332">D</tspan></text>
    <g
       style="font-style:normal;font-variant:normal;font-weight:normal;font-stretch:normal;letter-spacing:normal;word-spacing:normal;text-anchor:start;fill:none;stroke:#000000;stroke-width:1;stroke-linecap:butt;stroke-linejoin:miter;stroke-miterlimit:10.43299961;stroke-opacity:1;stroke-dasharray:none;stroke-dashoffset:0"
       ns0:preamble="/home/sriranga/Desktop/Prism_BasicElectronics/preamble.tex"
       ns0:text="$\\therefore~ (894867)_{10}= (DA793)_{16}$"
       word-spacing="normal"
       letter-spacing="normal"
       font-size-adjust="none"
       font-stretch="normal"
       font-weight="normal"
       font-variant="normal"
       font-style="normal"
       stroke-miterlimit="10.433"
       xml:space="preserve"
       transform="matrix(1.2,0,0,-1.2,-167.32029,1685.7278)"
       id="content"><path
         id="path13408"
         d="m 227.27,711.21 0,0.02 0,0.03 0,0.03 -0.01,0.02 0,0.03 -0.01,0.02 -0.01,0.03 -0.01,0.02 -0.01,0.02 -0.01,0.03 -0.01,0.02 -0.02,0.02 -0.01,0.02 -0.02,0.02 -0.02,0.02 -0.01,0.02 -0.02,0.02 -0.02,0.01 -0.02,0.02 -0.02,0.01 -0.02,0.02 -0.02,0.01 -0.03,0.01 -0.02,0.01 -0.02,0.01 -0.03,0.01 -0.02,0.01 -0.03,0 -0.03,0.01 -0.02,0 -0.03,0 -0.03,0 c -0.28,0 -0.52,-0.23 -0.52,-0.52 0,-0.29 0.24,-0.53 0.52,-0.53 0.28,0 0.53,0.23 0.53,0.53 z"
         inkscape:connector-curvature="0"
         style="fill:#000000;stroke-width:0" /><path
         id="path13410"
         d="m 229.76,706.91 0,0.02 0,0.03 -0.01,0.03 0,0.02 -0.01,0.03 0,0.02 -0.01,0.03 -0.01,0.02 -0.01,0.02 -0.01,0.03 -0.02,0.02 -0.01,0.02 -0.02,0.02 -0.01,0.02 -0.02,0.02 -0.02,0.02 -0.01,0.02 -0.02,0.01 -0.02,0.02 -0.02,0.01 -0.03,0.02 -0.02,0.01 -0.02,0.01 -0.02,0.01 -0.03,0.01 -0.02,0.01 -0.03,0.01 -0.02,0 -0.03,0.01 -0.02,0 -0.03,0 -0.03,0 c -0.29,0 -0.52,-0.24 -0.52,-0.52 0,-0.29 0.23,-0.53 0.52,-0.53 0.29,0 0.53,0.24 0.53,0.53 z"
         inkscape:connector-curvature="0"
         style="fill:#000000;stroke-width:0" /><path
         id="path13412"
         d="m 224.79,706.91 -0.01,0.02 0,0.03 0,0.03 -0.01,0.02 0,0.03 -0.01,0.02 -0.01,0.03 -0.01,0.02 -0.01,0.02 -0.01,0.03 -0.01,0.02 -0.02,0.02 -0.01,0.02 -0.02,0.02 -0.01,0.02 -0.02,0.02 -0.02,0.02 -0.02,0.01 -0.02,0.02 -0.02,0.01 -0.02,0.02 -0.02,0.01 -0.02,0.01 -0.03,0.01 -0.02,0.01 -0.03,0.01 -0.02,0.01 -0.03,0 -0.02,0.01 -0.03,0 -0.03,0 -0.02,0 c -0.29,0 -0.53,-0.24 -0.53,-0.52 0,-0.29 0.24,-0.53 0.53,-0.53 0.29,0 0.53,0.24 0.53,0.53 z"
         inkscape:connector-curvature="0"
         style="fill:#000000;stroke-width:0" /><path
         id="path13414"
         d="m 238.27,713.84 -0.07,-0.04 -0.07,-0.05 -0.06,-0.04 -0.06,-0.04 -0.06,-0.04 -0.05,-0.04 -0.06,-0.04 -0.05,-0.03 -0.05,-0.04 -0.05,-0.04 -0.05,-0.03 -0.04,-0.04 -0.05,-0.03 -0.04,-0.04 -0.08,-0.06 -0.08,-0.07 -0.07,-0.07 -0.08,-0.07 -0.07,-0.07 -0.06,-0.07 -0.07,-0.08 -0.07,-0.08 -0.07,-0.08 c -0.7,-0.87 -1.05,-1.86 -1.05,-3.02 0,-1.26 0.37,-2.24 1.24,-3.25 0.41,-0.48 0.67,-0.7 1.19,-1.01 l 0.12,0.16 c -0.8,0.62 -1.08,0.97 -1.35,1.71 -0.24,0.67 -0.35,1.42 -0.35,2.42 0,1.04 0.13,1.86 0.4,2.47 0.28,0.62 0.58,0.97 1.3,1.55 z"
         inkscape:connector-curvature="0"
         style="fill:#000000;stroke-width:0" /><path
         id="path13416"
         d="m 241.54,710.81 0.09,0.05 0.08,0.05 0.09,0.05 0.08,0.04 0.07,0.05 0.07,0.05 0.07,0.04 0.07,0.05 0.06,0.05 0.06,0.04 0.06,0.05 0.05,0.05 0.05,0.04 0.05,0.05 0.04,0.05 0.04,0.04 0.04,0.05 0.03,0.05 0.04,0.05 0.03,0.05 0.02,0.05 0.03,0.05 0.02,0.05 0.02,0.06 0.02,0.05 0.01,0.05 0.01,0.06 0.01,0.06 0.01,0.06 0,0.06 0.01,0.06 0,0.06 c 0,0.81 -0.72,1.41 -1.71,1.41 l -0.08,-0.28 c 0.67,0 1.1,-0.44 1.1,-1.12 0,-0.57 -0.28,-1.01 -0.84,-1.39 -0.05,-0.03 -0.05,-0.03 -0.09,-0.06 h 0 c -0.89,0.58 -1.25,1.03 -1.25,1.59 0,0.58 0.45,0.98 1.08,0.98 l 0.08,0.28 c -1.09,0 -1.89,-0.67 -1.89,-1.57 0,-0.65 0.19,-0.93 1.23,-1.85 -1.07,-0.81 -1.29,-1.12 -1.29,-1.8 0,-0.96 0.78,-1.63 1.91,-1.63 l 0.11,0.27 c -0.76,0 -1.27,0.58 -1.27,1.44 0,0.64 0.22,1.06 0.8,1.52 l 0.6,-0.43 c 0.72,-0.52 0.96,-0.88 0.96,-1.43 0,-0.65 -0.45,-1.1 -1.09,-1.1 l -0.11,-0.27 c 1.19,0 1.96,0.65 1.96,1.67 0,0.77 -0.34,1.26 -1.54,2.15 z"
         inkscape:connector-curvature="0"
         style="fill:#000000;stroke-width:0" /><path
         id="path13418"
         d="m 244.22,706.91 0.1,0.01 0.1,0.01 0.1,0.01 0.09,0.02 0.09,0.01 0.09,0.02 0.08,0.01 0.09,0.02 0.08,0.01 0.08,0.02 0.07,0.02 0.08,0.02 0.07,0.02 0.07,0.02 0.14,0.04 0.13,0.05 0.13,0.06 0.13,0.05 0.12,0.07 0.12,0.07 0.13,0.07 0.12,0.08 0.06,0.05 0.07,0.04 c 1.03,0.76 1.64,1.99 1.64,3.33 0,1.64 -0.92,2.8 -2.2,2.8 -1.18,0 -2.07,-1 -2.07,-2.34 0,-1.22 0.72,-2.02 1.79,-2.02 0.55,0 0.96,0.16 1.49,0.57 l -0.13,0.22 c -0.28,-0.23 -0.64,-0.36 -1,-0.36 -0.76,0 -1.23,0.74 -1.23,1.92 0,0.57 0.15,1.17 0.36,1.42 0.17,0.2 0.42,0.31 0.71,0.31 0.87,0 1.31,-0.85 1.31,-2.52 v -0.39 c 0,-0.2 -0.04,-0.29 -0.15,-0.38 l 0.13,-0.22 c -0.41,-1.62 -1.51,-2.69 -3.02,-2.95 z"
         inkscape:connector-curvature="0"
         style="fill:#000000;stroke-width:0" /><polygon
         id="polygon13420"
         points="251.86,713.84 248.73,709.42 249.13,709.42 251.52,712.83 251.52,709.42 249.13,709.42 248.73,709.42 248.73,708.78 251.53,708.78 251.53,707.12 252.29,707.12 252.29,708.78 253.31,708.78 253.31,709.42 252.29,709.42 252.29,713.84 "
         style="fill:#000000;stroke-width:0" /><path
         id="path13422"
         d="m 256.48,710.81 0.09,0.05 0.09,0.05 0.08,0.05 0.08,0.04 0.08,0.05 0.07,0.05 0.07,0.04 0.06,0.05 0.07,0.05 0.05,0.04 0.06,0.05 0.05,0.05 0.05,0.04 0.05,0.05 0.04,0.05 0.04,0.04 0.04,0.05 0.04,0.05 0.03,0.05 0.03,0.05 0.03,0.05 0.02,0.05 0.02,0.05 0.02,0.06 0.02,0.05 0.01,0.05 0.02,0.06 0.01,0.06 0,0.06 0.01,0.06 0,0.06 0,0.06 c 0,0.81 -0.71,1.41 -1.71,1.41 l -0.08,-0.28 c 0.68,0 1.1,-0.44 1.1,-1.12 0,-0.57 -0.27,-1.01 -0.84,-1.39 -0.05,-0.03 -0.05,-0.03 -0.09,-0.06 h 0 c -0.89,0.58 -1.24,1.03 -1.24,1.59 0,0.58 0.44,0.98 1.07,0.98 l 0.08,0.28 c -1.08,0 -1.89,-0.67 -1.89,-1.57 0,-0.65 0.19,-0.93 1.23,-1.85 -1.07,-0.81 -1.29,-1.12 -1.29,-1.8 0,-0.96 0.79,-1.63 1.91,-1.63 l 0.11,0.27 c -0.76,0 -1.26,0.58 -1.26,1.44 0,0.64 0.22,1.06 0.79,1.52 l 0.6,-0.43 c 0.73,-0.52 0.97,-0.88 0.97,-1.43 0,-0.65 -0.45,-1.1 -1.1,-1.1 l -0.11,-0.27 c 1.2,0 1.96,0.65 1.96,1.67 0,0.77 -0.34,1.26 -1.54,2.15 z"
         inkscape:connector-curvature="0"
         style="fill:#000000;stroke-width:0" /><path
         id="path13424"
         d="m 263.01,713.92 -0.1,-0.01 -0.1,-0.01 -0.1,-0.01 -0.1,-0.01 -0.09,-0.01 -0.09,-0.02 -0.09,-0.01 -0.09,-0.02 -0.08,-0.01 -0.08,-0.02 -0.08,-0.01 -0.08,-0.02 -0.07,-0.02 -0.08,-0.02 -0.14,-0.04 -0.14,-0.05 -0.13,-0.06 -0.14,-0.06 -0.13,-0.06 -0.13,-0.07 -0.13,-0.08 -0.13,-0.08 -0.07,-0.05 -0.07,-0.05 c -1.07,-0.76 -1.66,-1.89 -1.66,-3.22 0,-0.87 0.27,-1.74 0.7,-2.24 0.38,-0.44 0.91,-0.67 1.53,-0.67 1.24,0 2.09,0.94 2.09,2.31 0,1.27 -0.72,2.08 -1.87,2.08 -0.44,0 -0.65,-0.07 -1.27,-0.45 l 0.03,-0.26 c 0.21,0.16 0.51,0.25 0.86,0.25 h 0 c 0.86,0 1.35,-0.72 1.35,-1.96 0,-1.09 -0.38,-1.7 -1.08,-1.7 -0.87,0 -1.41,0.94 -1.41,2.48 0,0.5 0.08,0.78 0.28,0.93 l -0.03,0.26 c 0.27,1.5 1.38,2.57 2.94,2.83 z"
         inkscape:connector-curvature="0"
         style="fill:#000000;stroke-width:0" /><path
         id="path13426"
         d="m 268.02,713.7 h -3.68 l -0.58,-1.46 0.16,-0.08 c 0.43,0.68 0.61,0.81 1.16,0.81 h 2.16 l -1.97,-5.92 h 0.64 l 2.11,6.49 z"
         inkscape:connector-curvature="0"
         style="fill:#000000;stroke-width:0" /><path
         id="path13428"
         d="m 268.92,705.37 0.06,0.04 0.07,0.04 0.06,0.05 0.06,0.04 0.06,0.04 0.06,0.03 0.05,0.04 0.05,0.04 0.05,0.04 0.05,0.03 0.05,0.04 0.05,0.03 0.04,0.04 0.04,0.03 0.08,0.07 0.08,0.07 0.08,0.07 0.07,0.07 0.07,0.07 0.07,0.07 0.06,0.08 0.07,0.08 0.07,0.08 c 0.7,0.86 1.05,1.86 1.05,3.02 0,1.27 -0.36,2.23 -1.24,3.25 -0.41,0.47 -0.67,0.69 -1.18,1.01 l -0.12,-0.16 c 0.79,-0.63 1.06,-0.97 1.34,-1.72 0.24,-0.66 0.35,-1.42 0.35,-2.41 0,-1.03 -0.13,-1.86 -0.4,-2.46 -0.28,-0.63 -0.58,-0.99 -1.29,-1.56 z"
         inkscape:connector-curvature="0"
         style="fill:#000000;stroke-width:0" /><path
         id="path13430"
         d="m 273.88,710.33 -1.25,-0.63 v -0.1 c 0.08,0.04 0.16,0.06 0.19,0.08 0.12,0.05 0.24,0.08 0.31,0.08 0.15,0 0.21,-0.11 0.21,-0.33 v -3.15 c 0,-0.23 -0.06,-0.39 -0.17,-0.45 -0.1,-0.07 -0.2,-0.09 -0.49,-0.1 v -0.1 h 1.92 v 0.1 c -0.55,0.01 -0.66,0.08 -0.66,0.42 v 4.17 z"
         inkscape:connector-curvature="0"
         style="fill:#000000;stroke-width:0" /><path
         id="path13432"
         d="m 277.11,710.33 -0.03,0 -0.04,0 -0.03,0 -0.04,0 -0.03,-0.01 -0.04,0 -0.03,-0.01 -0.03,0 -0.03,-0.01 -0.03,0 -0.03,-0.01 -0.03,-0.01 -0.03,-0.01 -0.03,-0.01 -0.03,-0.01 -0.03,-0.01 -0.03,-0.01 -0.03,-0.01 -0.03,-0.01 -0.02,-0.02 -0.03,-0.01 -0.03,-0.02 -0.03,-0.01 -0.02,-0.02 -0.03,-0.02 -0.02,-0.02 -0.03,-0.02 -0.02,-0.01 -0.03,-0.02 -0.02,-0.03 -0.03,-0.02 -0.02,-0.02 c -0.41,-0.39 -0.67,-1.19 -0.67,-2 0,-0.76 0.23,-1.57 0.56,-1.96 0.25,-0.31 0.61,-0.48 1.01,-0.48 v 0.18 c -0.6,0 -0.9,0.75 -0.9,2.2 0,1.47 0.31,2.24 0.91,2.24 h 0 c 0.58,0 0.9,-0.79 0.9,-2.24 0,-1.45 -0.31,-2.2 -0.91,-2.2 v -0.18 c 0.36,0 0.66,0.12 0.91,0.37 0.4,0.38 0.67,1.18 0.67,2.03 0,1.42 -0.64,2.4 -1.55,2.4 z"
         inkscape:connector-curvature="0"
         style="fill:#000000;stroke-width:0" /><polygon
         id="polygon13434"
         points="282.71,710.4 287.8,710.4 287.8,710.96 282.71,710.96 "
         style="fill:#000000;stroke-width:0" /><polygon
         id="polygon13436"
         points="282.71,708.39 287.8,708.39 287.8,708.94 282.71,708.94 "
         style="fill:#000000;stroke-width:0" /><path
         id="path13438"
         d="m 294.13,713.84 -0.06,-0.04 -0.07,-0.05 -0.06,-0.04 -0.06,-0.04 -0.06,-0.04 -0.06,-0.04 -0.05,-0.04 -0.05,-0.03 -0.06,-0.04 -0.04,-0.04 -0.05,-0.03 -0.05,-0.04 -0.04,-0.03 -0.04,-0.04 -0.09,-0.06 -0.07,-0.07 -0.08,-0.07 -0.07,-0.07 -0.07,-0.07 -0.07,-0.07 -0.06,-0.08 -0.07,-0.08 -0.07,-0.08 c -0.71,-0.87 -1.05,-1.86 -1.05,-3.02 0,-1.26 0.36,-2.24 1.24,-3.25 0.41,-0.48 0.67,-0.7 1.18,-1.01 l 0.12,0.16 c -0.79,0.62 -1.07,0.97 -1.34,1.71 -0.24,0.67 -0.35,1.42 -0.35,2.42 0,1.04 0.13,1.86 0.4,2.47 0.28,0.62 0.58,0.97 1.29,1.55 z"
         inkscape:connector-curvature="0"
         style="fill:#000000;stroke-width:0" /><path
         id="path13440"
         d="m 296.06,713.45 0.03,0 0.02,0 0.03,-0.01 0.03,0 0.02,0 0.03,0 0.05,-0.01 0.04,-0.01 0.05,0 0.04,-0.01 0.04,-0.01 0.03,-0.01 0.04,0 0.03,-0.01 0.03,-0.01 0.03,-0.01 0.02,-0.01 0.03,-0.01 0.02,-0.01 0.02,-0.01 0.02,-0.02 0.02,-0.01 0.01,-0.01 0.02,-0.02 0.01,-0.01 0.01,-0.02 0.01,-0.02 0.01,-0.01 0.01,-0.02 0,-0.02 0.01,-0.02 0,-0.02 0,-0.03 0,-0.02 0,-0.02 c 0,-0.15 -0.04,-0.39 -0.11,-0.64 l -1.22,-4.39 c -0.18,-0.58 -0.25,-0.64 -0.81,-0.74 v -0.16 h 2.52 l -0.1,0.3 c -0.46,0 -0.65,0.11 -0.65,0.37 0,0.13 0.06,0.35 0.22,0.94 l 1.21,4.3 c 0.06,0.21 0.21,0.28 0.6,0.28 0.57,0 1.07,-0.13 1.39,-0.36 0.49,-0.36 0.75,-0.99 0.75,-1.77 0,-1.08 -0.41,-2.19 -1.09,-2.86 -0.59,-0.6 -1.39,-0.9 -2.43,-0.9 l 0.1,-0.3 c 1.17,0 2.23,0.31 3,0.87 0.96,0.7 1.53,1.8 1.53,2.95 0,1.63 -1.14,2.67 -2.91,2.67 h -2.76 z"
         inkscape:connector-curvature="0"
         style="fill:#000000;stroke-width:0" /><path
         id="path13442"
         d="m 307.82,707.28 -0.05,0.01 -0.05,0 -0.05,0.01 -0.04,0.01 -0.04,0 -0.04,0.01 -0.04,0.01 -0.03,0.01 -0.03,0.01 -0.03,0.01 -0.03,0.01 -0.03,0.02 -0.02,0.01 -0.02,0.02 -0.03,0.02 -0.01,0.02 -0.02,0.02 -0.02,0.03 -0.02,0.02 -0.01,0.03 -0.02,0.03 -0.01,0.04 -0.01,0.04 -0.02,0.04 -0.01,0.04 -0.01,0.04 -0.01,0.05 -0.01,0.06 -0.01,0.02 0,0.03 -0.01,0.03 -0.01,0.03 0,0.03 -0.01,0.03 0,0.03 -0.01,0.04 -0.93,5.62 h -0.26 l -2.89,-4.97 c -0.78,-1.32 -0.88,-1.43 -1.28,-1.51 v -0.16 h 1.86 v 0.16 c -0.51,0.05 -0.59,0.1 -0.59,0.35 0,0.19 0.03,0.28 0.2,0.62 l 0.57,1.12 h 2.19 l -0.05,0.36 h -1.93 l 1.49,2.58 0.44,-2.58 0.05,-0.36 0.2,-1.3 c 0.01,-0.09 0.02,-0.18 0.02,-0.26 0,-0.38 -0.14,-0.47 -0.78,-0.53 v -0.16 h 2.45 z"
         inkscape:connector-curvature="0"
         style="fill:#000000;stroke-width:0" /><path
         id="path13444"
         d="m 312.76,713.7 h -3.68 l -0.59,-1.46 0.17,-0.08 c 0.43,0.68 0.61,0.81 1.16,0.81 h 2.16 l -1.97,-5.92 h 0.64 l 2.11,6.49 z"
         inkscape:connector-curvature="0"
         style="fill:#000000;stroke-width:0" /><path
         id="path13446"
         d="m 313.86,706.91 0.1,0.01 0.1,0.01 0.1,0.01 0.09,0.02 0.1,0.01 0.08,0.02 0.09,0.01 0.08,0.02 0.08,0.01 0.08,0.02 0.08,0.02 0.07,0.02 0.08,0.02 0.07,0.02 0.14,0.04 0.13,0.05 0.13,0.06 0.12,0.05 0.13,0.07 0.12,0.07 0.12,0.07 0.12,0.08 0.07,0.05 0.06,0.04 c 1.03,0.76 1.64,1.99 1.64,3.33 0,1.64 -0.91,2.8 -2.2,2.8 -1.18,0 -2.07,-1 -2.07,-2.34 0,-1.22 0.72,-2.02 1.79,-2.02 0.55,0 0.97,0.16 1.5,0.57 l -0.13,0.22 c -0.28,-0.23 -0.65,-0.36 -1.01,-0.36 -0.75,0 -1.23,0.74 -1.23,1.92 0,0.57 0.16,1.17 0.37,1.42 0.17,0.2 0.41,0.31 0.7,0.31 0.87,0 1.32,-0.85 1.32,-2.52 v -0.39 c 0,-0.2 -0.04,-0.29 -0.15,-0.38 l 0.13,-0.22 c -0.41,-1.62 -1.51,-2.69 -3.03,-2.95 z"
         inkscape:connector-curvature="0"
         style="fill:#000000;stroke-width:0" /><path
         id="path13448"
         d="m 319.78,710.4 0.05,0 0.05,0 0.05,0 0.05,0 0.05,0 0.04,0 0.05,0 0.04,0 0.04,0 0.04,0 0.03,-0.01 0.04,0 0.03,0 0.03,0 0.04,-0.01 0.03,0 0.03,0 0.03,0 0.02,-0.01 0.03,0 0.03,-0.01 0.02,0 0.05,-0.01 0.05,-0.01 0.04,-0.02 0.05,-0.01 0.04,-0.02 c 0.62,-0.21 1.01,-0.78 1.01,-1.47 0,-0.83 -0.57,-1.48 -1.3,-1.48 -0.27,0 -0.47,0.07 -0.84,0.31 -0.3,0.18 -0.47,0.25 -0.64,0.25 -0.23,0 -0.38,-0.14 -0.38,-0.35 0,-0.35 0.43,-0.56 1.13,-0.56 0.77,0 1.55,0.25 2.02,0.66 0.47,0.41 0.72,0.99 0.72,1.65 0,0.51 -0.16,0.97 -0.44,1.28 -0.2,0.22 -0.39,0.34 -0.83,0.53 0.69,0.47 0.94,0.83 0.94,1.37 0,0.8 -0.64,1.36 -1.56,1.36 -0.49,0 -0.93,-0.17 -1.29,-0.49 -0.3,-0.26 -0.45,-0.52 -0.67,-1.12 l 0.15,-0.04 c 0.41,0.73 0.86,1.05 1.49,1.05 0.64,0 1.09,-0.43 1.09,-1.06 0,-0.36 -0.15,-0.71 -0.4,-0.96 -0.3,-0.3 -0.58,-0.45 -1.25,-0.69 z"
         inkscape:connector-curvature="0"
         style="fill:#000000;stroke-width:0" /><path
         id="path13450"
         d="m 323.62,705.37 0.06,0.04 0.07,0.04 0.06,0.05 0.06,0.04 0.06,0.04 0.06,0.03 0.05,0.04 0.05,0.04 0.05,0.04 0.05,0.03 0.05,0.04 0.05,0.03 0.04,0.04 0.04,0.03 0.09,0.07 0.07,0.07 0.08,0.07 0.07,0.07 0.07,0.07 0.07,0.07 0.06,0.08 0.07,0.08 0.07,0.08 c 0.71,0.86 1.05,1.86 1.05,3.02 0,1.27 -0.37,2.23 -1.24,3.25 -0.41,0.47 -0.67,0.69 -1.18,1.01 l -0.12,-0.16 c 0.79,-0.63 1.06,-0.97 1.34,-1.72 0.24,-0.66 0.35,-1.42 0.35,-2.41 0,-1.03 -0.13,-1.86 -0.4,-2.46 -0.28,-0.63 -0.58,-0.99 -1.29,-1.56 z"
         inkscape:connector-curvature="0"
         style="fill:#000000;stroke-width:0" /><path
         id="path13452"
         d="m 328.58,710.33 -1.25,-0.63 v -0.1 c 0.08,0.04 0.16,0.06 0.19,0.08 0.12,0.05 0.24,0.08 0.31,0.08 0.15,0 0.21,-0.11 0.21,-0.33 v -3.15 c 0,-0.23 -0.06,-0.39 -0.17,-0.45 -0.1,-0.07 -0.2,-0.09 -0.49,-0.1 v -0.1 h 1.92 v 0.1 c -0.55,0.01 -0.66,0.08 -0.66,0.42 v 4.17 z"
         inkscape:connector-curvature="0"
         style="fill:#000000;stroke-width:0" /><path
         id="path13454"
         d="m 333.15,710.39 -0.08,-0.01 -0.07,-0.01 -0.07,0 -0.06,-0.01 -0.07,-0.01 -0.06,-0.01 -0.06,-0.01 -0.06,-0.01 -0.06,-0.01 -0.06,-0.01 -0.05,-0.01 -0.06,-0.02 -0.05,-0.01 -0.05,-0.01 -0.1,-0.03 -0.1,-0.04 -0.09,-0.04 -0.1,-0.04 -0.09,-0.04 -0.09,-0.05 -0.09,-0.06 -0.09,-0.06 -0.05,-0.03 -0.05,-0.03 c -0.75,-0.53 -1.16,-1.33 -1.16,-2.26 0,-0.6 0.19,-1.22 0.49,-1.56 0.26,-0.31 0.64,-0.48 1.07,-0.48 0.86,0 1.46,0.66 1.46,1.62 0,0.89 -0.51,1.46 -1.31,1.46 -0.31,0 -0.45,-0.05 -0.89,-0.32 l 0.02,-0.18 c 0.15,0.11 0.36,0.18 0.61,0.18 h 0 c 0.6,0 0.94,-0.5 0.94,-1.37 0,-0.77 -0.27,-1.19 -0.75,-1.19 -0.62,0 -0.99,0.65 -0.99,1.73 0,0.35 0.05,0.55 0.19,0.65 l -0.02,0.18 c 0.19,1.05 0.97,1.8 2.06,1.99 z"
         inkscape:connector-curvature="0"
         style="fill:#000000;stroke-width:0" /></g>  </g>
</svg>
