<?xml version="1.0" encoding="UTF-8" standalone="no"?>
<!-- Created with Inkscape (http://www.inkscape.org/) -->

<svg
   xmlns:ns0="http://www.iki.fi/pav/software/textext/"
   xmlns:dc="http://purl.org/dc/elements/1.1/"
   xmlns:cc="http://creativecommons.org/ns#"
   xmlns:rdf="http://www.w3.org/1999/02/22-rdf-syntax-ns#"
   xmlns:svg="http://www.w3.org/2000/svg"
   xmlns="http://www.w3.org/2000/svg"
   xmlns:sodipodi="http://sodipodi.sourceforge.net/DTD/sodipodi-0.dtd"
   xmlns:inkscape="http://www.inkscape.org/namespaces/inkscape"
   width="496.06299"
   height="354.33069"
   id="svg2"
   version="1.1"
   inkscape:version="0.48.4 r9939"
   sodipodi:docname="div7.svg">
  <sodipodi:namedview
     id="base"
     pagecolor="#ffffff"
     bordercolor="#666666"
     borderopacity="1.0"
     inkscape:pageopacity="0.0"
     inkscape:pageshadow="2"
     inkscape:zoom="3.3697335"
     inkscape:cx="145.33072"
     inkscape:cy="219.99204"
     inkscape:document-units="cm"
     inkscape:current-layer="layer1"
     showgrid="false"
     units="cm"
     inkscape:object-nodes="true"
     inkscape:window-width="1366"
     inkscape:window-height="744"
     inkscape:window-x="0"
     inkscape:window-y="24"
     inkscape:window-maximized="1">
    <inkscape:grid
       type="xygrid"
       id="grid2985"
       empspacing="5"
       visible="true"
       enabled="true"
       snapvisiblegridlinesonly="true" />
  </sodipodi:namedview>
  <defs
     id="defs4">
    <marker
       inkscape:stockid="Arrow1Mstart"
       orient="auto"
       refY="0"
       refX="0"
       id="Arrow1Mstart"
       style="overflow:visible">
      <path
         inkscape:connector-curvature="0"
         id="path3775"
         d="M 0,0 5,-5 -12.5,0 5,5 0,0 z"
         style="fill-rule:evenodd;stroke:#000000;stroke-width:1pt"
         transform="matrix(0.4,0,0,0.4,4,0)" />
    </marker>
    <marker
       inkscape:stockid="Arrow1Mend"
       orient="auto"
       refY="0"
       refX="0"
       id="Arrow1Mend"
       style="overflow:visible">
      <path
         inkscape:connector-curvature="0"
         id="path3778"
         d="M 0,0 5,-5 -12.5,0 5,5 0,0 z"
         style="fill-rule:evenodd;stroke:#000000;stroke-width:1pt"
         transform="matrix(-0.4,0,0,-0.4,-4,0)" />
    </marker>
  </defs>
  <metadata
     id="metadata7">
    <rdf:RDF>
      <cc:Work
         rdf:about="">
        <dc:format>image/svg+xml</dc:format>
        <dc:type
           rdf:resource="http://purl.org/dc/dcmitype/StillImage" />
        <dc:title></dc:title>
      </cc:Work>
    </rdf:RDF>
  </metadata>
  <g
     inkscape:label="Layer 1"
     inkscape:groupmode="layer"
     id="layer1"
     transform="translate(0,-698.03016)">
    <text
       transform="translate(0,698.03016)"
       sodipodi:linespacing="100%"
       id="text5818"
       y="56.040417"
       x="61.700558"
       style="font-size:12px;font-style:normal;font-variant:normal;font-weight:normal;font-stretch:normal;text-align:start;line-height:100%;letter-spacing:0px;word-spacing:0px;text-anchor:start;fill:#000000;fill-opacity:1;stroke:none;font-family:LMRoman12;-inkscape-font-specification:Sans"
       xml:space="preserve"><tspan
         y="56.040417"
         x="61.700558"
         id="tspan5820"
         sodipodi:role="line" /></text>
    <flowRoot
       xml:space="preserve"
       id="flowRoot6377"
       style="fill:black;stroke:none;stroke-opacity:1;stroke-width:1px;stroke-linejoin:miter;stroke-linecap:butt;fill-opacity:1;font-family:LMRoman12;font-style:normal;font-weight:normal;font-size:12px;line-height:100%;letter-spacing:0px;word-spacing:0px;-inkscape-font-specification:Sans;font-stretch:normal;font-variant:normal;text-anchor:start;text-align:start"><flowRegion
         id="flowRegion6379"><rect
           id="rect6381"
           width="27.681772"
           height="40.319103"
           x="219.34796"
           y="87.141403" /></flowRegion><flowPara
         id="flowPara6383" /></flowRoot>    <text
       xml:space="preserve"
       style="font-size:12px;font-style:normal;font-variant:normal;font-weight:normal;font-stretch:normal;text-align:start;line-height:50%;letter-spacing:0px;word-spacing:0px;text-anchor:start;fill:#000000;fill-opacity:1;stroke:none;font-family:LMRoman12;-inkscape-font-specification:Sans"
       x="275.91507"
       y="55.247185"
       id="text6385"
       sodipodi:linespacing="50%"
       transform="translate(0,698.03016)"><tspan
         sodipodi:role="line"
         id="tspan6387" /></text>
    <text
       xml:space="preserve"
       style="font-size:12px;font-style:normal;font-variant:normal;font-weight:normal;font-stretch:normal;text-align:start;line-height:100%;letter-spacing:0px;word-spacing:0px;text-anchor:start;fill:#000000;fill-opacity:1;stroke:none;font-family:LMRoman12;-inkscape-font-specification:Sans"
       x="348.65417"
       y="194.38702"
       id="text3884"
       sodipodi:linespacing="100%"
       transform="translate(0,698.03016)"><tspan
         sodipodi:role="line"
         x="348.65417"
         y="194.38702"
         id="tspan3890" /></text>
    <text
       xml:space="preserve"
       style="font-size:12px;font-style:normal;font-variant:normal;font-weight:normal;font-stretch:normal;text-align:start;line-height:150%;letter-spacing:0px;word-spacing:0px;text-anchor:start;fill:#000000;fill-opacity:1;stroke:none;font-family:LMRoman12;-inkscape-font-specification:Sans"
       x="216.96629"
       y="250.89732"
       id="text3887"
       sodipodi:linespacing="150%"
       transform="translate(0,698.03016)"><tspan
         sodipodi:role="line"
         id="tspan3889"
         x="216.96629"
         y="250.89732" /></text>
    <path
       style="fill:none;stroke:#000000;stroke-width:0.99999994;stroke-linecap:square;stroke-linejoin:round;stroke-miterlimit:4;stroke-opacity:1;stroke-dasharray:none;stroke-dashoffset:0;marker-start:url(#Arrow1Mstart);marker-end:none"
       d="m 127.82186,840.32507 0,-78.77875"
       id="path4924"
       inkscape:connector-curvature="0" />
    <text
       xml:space="preserve"
       style="font-size:12px;font-style:normal;font-variant:normal;font-weight:normal;font-stretch:normal;text-align:start;line-height:150%;letter-spacing:0px;word-spacing:0px;text-anchor:start;fill:#000000;fill-opacity:1;stroke:none;font-family:LMRoman12;-inkscape-font-specification:Sans"
       x="173"
       y="61.080688"
       id="text7389"
       sodipodi:linespacing="150%"
       transform="translate(0,698.03016)"><tspan
         sodipodi:role="line"
         id="tspan7391"
         x="173"
         y="61.080688" /></text>
    <g
       id="content"
       transform="matrix(1.2,0,0,-1.2,-363.30901,1617.8784)"
       xml:space="preserve"
       stroke="black"
       stroke-linecap="butt"
       stroke-linejoin="miter"
       stroke-miterlimit="10.433"
       stroke-dasharray="none"
       stroke-dashoffset="0"
       stroke-opacity="1"
       fill="none"
       fill-rule="evenodd"
       fill-opacity="1"
       font-style="normal"
       font-variant="normal"
       font-weight="normal"
       font-stretch="normal"
       font-size-adjust="none"
       letter-spacing="normal"
       word-spacing="normal"
       text-anchor="start"
       ns0:text="\\begin{align*}\n0.705 \\times 8 &amp; =\\quad 5.64\\\\\n0.64 \\times 8  &amp; = \\quad 5.12\\\\\n0.12 \\times 8  &amp; = \\quad 0.96\\\\\n0.96 \\times 8  &amp; = \\quad 7.68\\\\\n0.68 \\times 8  &amp; = \\quad 5.44\n\\end{align*}"
       ns0:preamble="/home/sriranga/Desktop/Prism_BasicElectronics/preamble.tex"
       style="font-style:normal;font-variant:normal;font-weight:normal;font-stretch:normal;letter-spacing:normal;word-spacing:normal;text-anchor:start;fill:none;stroke:#000000;stroke-width:1;stroke-linecap:butt;stroke-linejoin:miter;stroke-miterlimit:10.43299961;stroke-opacity:1;stroke-dasharray:none;stroke-dashoffset:0"><path
         d="M359.1,713.84 L359.05,713.84 L359,713.84 L358.95,713.84 L358.9,713.83 L358.85,713.83 L358.81,713.82 L358.76,713.82 L358.71,713.81 L358.67,713.8 L358.62,713.79 L358.58,713.78 L358.53,713.77 L358.49,713.76 L358.45,713.74 L358.41,713.73 L358.37,713.71 L358.33,713.7 L358.29,713.68 L358.25,713.66 L358.21,713.64 L358.17,713.62 L358.13,713.6 L358.09,713.57 L358.05,713.55 L358.02,713.53 L357.98,713.5 L357.94,713.47 L357.91,713.45 L357.87,713.42 L357.84,713.39 L357.8,713.36 L357.77,713.32 C357.19,712.77,356.81,711.62,356.81,710.46 C356.81,709.38,357.14,708.22,357.61,707.66 C357.98,707.22,358.48,706.99,359.06,706.99 V707.24 C358.2,707.24,357.77,708.31,357.77,710.37 C357.77,712.48,358.21,713.58,359.07,713.58 H359.07 C359.91,713.58,360.35,712.46,360.35,710.38 C360.35,708.31,359.92,707.24,359.06,707.24 V706.99 C359.57,706.99,360,707.16,360.35,707.5 C360.93,708.05,361.31,709.2,361.31,710.4 C361.31,712.44,360.4,713.84,359.1,713.84 Z "
         stroke-width="0"
         fill="black"
         id="path6313" /><path
         d="M363.36,707.55 L363.35,707.58 L363.35,707.61 L363.35,707.64 L363.34,707.66 L363.34,707.69 L363.33,707.72 L363.32,707.74 L363.31,707.77 L363.3,707.8 L363.29,707.82 L363.27,707.84 L363.26,707.87 L363.24,707.89 L363.22,707.91 L363.21,707.93 L363.19,707.95 L363.17,707.97 L363.15,707.99 L363.13,708 L363.11,708.02 L363.08,708.03 L363.06,708.05 L363.04,708.06 L363.01,708.07 L362.99,708.08 L362.96,708.09 L362.93,708.1 L362.91,708.11 L362.88,708.11 L362.85,708.12 L362.83,708.12 L362.8,708.12 C362.5,708.12,362.25,707.87,362.25,707.55 C362.25,707.17,362.59,707.02,362.8,707.02 C363.01,707.02,363.36,707.18,363.36,707.55 Z "
         stroke-width="0"
         fill="black"
         id="path6315" /><path
         d="M368.51,713.7 H364.83 L364.24,712.24 L364.41,712.16 C364.84,712.84,365.02,712.97,365.57,712.97 H367.73 L365.76,707.05 H366.4 L368.51,713.54 Z "
         stroke-width="0"
         fill="black"
         id="path6317" /><path
         d="M371.55,713.84 L371.5,713.84 L371.45,713.84 L371.4,713.84 L371.35,713.83 L371.31,713.83 L371.26,713.82 L371.21,713.82 L371.17,713.81 L371.12,713.8 L371.08,713.79 L371.03,713.78 L370.99,713.77 L370.94,713.76 L370.9,713.74 L370.86,713.73 L370.82,713.71 L370.78,713.7 L370.74,713.68 L370.7,713.66 L370.66,713.64 L370.62,713.62 L370.58,713.6 L370.54,713.57 L370.51,713.55 L370.47,713.53 L370.43,713.5 L370.4,713.47 L370.36,713.45 L370.32,713.42 L370.29,713.39 L370.25,713.36 L370.22,713.32 C369.64,712.77,369.27,711.62,369.27,710.46 C369.27,709.38,369.59,708.22,370.06,707.66 C370.43,707.22,370.94,706.99,371.51,706.99 V707.24 C370.66,707.24,370.22,708.31,370.22,710.37 C370.22,712.48,370.67,713.58,371.52,713.58 H371.52 C372.36,713.58,372.81,712.46,372.81,710.38 C372.81,708.31,372.37,707.24,371.51,707.24 V706.99 C372.02,706.99,372.45,707.16,372.81,707.5 C373.38,708.05,373.76,709.2,373.76,710.4 C373.76,712.44,372.86,713.84,371.55,713.84 Z "
         stroke-width="0"
         fill="black"
         id="path6319" /><path
         d="M375.81,712.92 H377.76 C377.92,712.92,377.96,712.94,377.99,713.01 L378.36,713.89 L378.28,713.96 C378.13,713.75,378.03,713.7,377.82,713.7 H375.74 L374.65,711.35 C374.64,711.33,374.64,711.32,374.64,711.3 C374.64,711.25,374.68,711.22,374.76,711.22 C375.08,711.22,375.48,711.15,375.89,711.02 C377.03,710.65,377.56,710.04,377.56,709.05 C377.56,708.1,376.95,707.35,376.18,707.35 C375.98,707.35,375.81,707.42,375.51,707.64 C375.19,707.87,374.96,707.97,374.75,707.97 C374.46,707.97,374.33,707.85,374.33,707.6 C374.33,707.22,374.79,706.99,375.54,706.99 C376.38,706.99,377.09,707.25,377.59,707.76 C378.05,708.21,378.26,708.77,378.26,709.53 C378.26,710.24,378.07,710.7,377.57,711.2 C377.13,711.64,376.56,711.86,375.39,712.07 Z "
         stroke-width="0"
         fill="black"
         id="path6321" /><polygon
         points="386.97,707.47 384.76,709.68 386.97,711.89 386.58,712.29 384.37,710.08 382.16,712.29 381.76,711.89 383.97,709.68 381.76,707.47 382.16,707.08 384.37,709.29 386.58,707.08 "
         stroke-width="0"
         fill="black"
         id="polygon6323" /><path
         d="M392.64,710.81 L392.73,710.86 L392.82,710.91 L392.9,710.96 L392.98,711 L393.05,711.05 L393.13,711.1 L393.2,711.14 L393.26,711.19 L393.32,711.24 L393.38,711.28 L393.44,711.33 L393.49,711.38 L393.54,711.42 L393.59,711.47 L393.63,711.52 L393.67,711.56 L393.71,711.61 L393.75,711.66 L393.78,711.71 L393.81,711.76 L393.84,711.81 L393.86,711.86 L393.88,711.91 L393.9,711.97 L393.92,712.02 L393.93,712.07 L393.94,712.13 L393.95,712.19 L393.96,712.25 L393.97,712.31 L393.97,712.37 L393.97,712.43 C393.97,713.24,393.26,713.84,392.26,713.84 L392.18,713.56 C392.86,713.56,393.29,713.12,393.29,712.44 C393.29,711.87,393.01,711.43,392.44,711.05 C392.39,711.02,392.39,711.02,392.35,710.99 H392.35 C391.46,711.57,391.11,712.02,391.11,712.58 C391.11,713.16,391.55,713.56,392.18,713.56 L392.26,713.84 C391.18,713.84,390.37,713.17,390.37,712.27 C390.37,711.62,390.56,711.34,391.6,710.42 C390.53,709.61,390.31,709.3,390.31,708.62 C390.31,707.66,391.1,706.99,392.22,706.99 L392.33,707.26 C391.57,707.26,391.07,707.84,391.07,708.7 C391.07,709.34,391.29,709.76,391.86,710.22 L392.46,709.79 C393.18,709.27,393.42,708.91,393.42,708.36 C393.42,707.71,392.98,707.26,392.33,707.26 L392.22,706.99 C393.41,706.99,394.18,707.64,394.18,708.66 C394.18,709.43,393.84,709.92,392.64,710.81 Z "
         stroke-width="0"
         fill="black"
         id="path6325" /><polygon
         points="403.21,710.4 403.21,710.96 398.12,710.96 398.12,710.4 "
         stroke-width="0"
         fill="black"
         id="polygon6327" /><polygon
         points="403.21,708.39 403.21,708.94 398.12,708.94 398.12,708.39 "
         stroke-width="0"
         fill="black"
         id="polygon6329" /><path
         d="M418.37,712.92 H420.32 C420.48,712.92,420.52,712.94,420.55,713.01 L420.93,713.89 L420.84,713.96 C420.69,713.75,420.59,713.7,420.38,713.7 H418.3 L417.21,711.35 C417.2,711.33,417.2,711.32,417.2,711.3 C417.2,711.25,417.24,711.22,417.32,711.22 C417.64,711.22,418.04,711.15,418.45,711.02 C419.59,710.65,420.12,710.04,420.12,709.05 C420.12,708.1,419.51,707.35,418.74,707.35 C418.54,707.35,418.37,707.42,418.07,707.64 C417.75,707.87,417.52,707.97,417.31,707.97 C417.03,707.97,416.89,707.85,416.89,707.6 C416.89,707.22,417.35,706.99,418.1,706.99 C418.94,706.99,419.65,707.25,420.15,707.76 C420.61,708.21,420.82,708.77,420.82,709.53 C420.82,710.24,420.63,710.7,420.13,711.2 C419.69,711.64,419.12,711.86,417.95,712.07 Z "
         stroke-width="0"
         fill="black"
         id="path6331" /><path
         d="M423.35,707.55 L423.35,707.58 L423.35,707.61 L423.34,707.64 L423.34,707.66 L423.33,707.69 L423.32,707.72 L423.32,707.74 L423.3,707.77 L423.29,707.8 L423.28,707.82 L423.27,707.84 L423.25,707.87 L423.24,707.89 L423.22,707.91 L423.2,707.93 L423.18,707.95 L423.16,707.97 L423.14,707.99 L423.12,708 L423.1,708.02 L423.08,708.03 L423.05,708.05 L423.03,708.06 L423.01,708.07 L422.98,708.08 L422.96,708.09 L422.93,708.1 L422.9,708.11 L422.88,708.11 L422.85,708.12 L422.82,708.12 L422.79,708.12 C422.49,708.12,422.24,707.87,422.24,707.55 C422.24,707.17,422.58,707.02,422.79,707.02 C423,707.02,423.35,707.18,423.35,707.55 Z "
         stroke-width="0"
         fill="black"
         id="path6333" /><path
         d="M428.48,713.92 L428.37,713.91 L428.27,713.9 L428.17,713.89 L428.08,713.88 L427.98,713.87 L427.89,713.85 L427.81,713.84 L427.72,713.82 L427.64,713.81 L427.56,713.79 L427.48,713.78 L427.4,713.76 L427.32,713.74 L427.25,713.72 L427.11,713.68 L426.97,713.63 L426.83,713.57 L426.7,713.51 L426.57,713.45 L426.44,713.38 L426.31,713.3 L426.17,713.22 L426.11,713.17 L426.04,713.12 C424.96,712.36,424.38,711.23,424.38,709.9 C424.38,709.03,424.65,708.16,425.08,707.66 C425.45,707.22,425.99,706.99,426.61,706.99 C427.84,706.99,428.7,707.93,428.7,709.3 C428.7,710.57,427.97,711.38,426.83,711.38 C426.39,711.38,426.18,711.31,425.55,710.93 L425.58,710.67 C425.79,710.83,426.1,710.92,426.45,710.92 H426.45 C427.3,710.92,427.8,710.2,427.8,708.96 C427.8,707.87,427.41,707.26,426.72,707.26 C425.84,707.26,425.3,708.2,425.3,709.74 C425.3,710.24,425.38,710.52,425.58,710.67 L425.55,710.93 C425.82,712.43,426.93,713.5,428.5,713.76 Z "
         stroke-width="0"
         fill="black"
         id="path6335" /><polygon
         points="433.72,709.42 432.7,709.42 432.7,713.84 432.27,713.84 429.14,709.42 429.54,709.42 431.93,712.83 431.93,709.42 429.54,709.42 429.14,709.42 429.14,708.78 431.94,708.78 431.94,707.12 432.7,707.12 432.7,708.78 433.72,708.78 "
         stroke-width="0"
         fill="black"
         id="polygon6337" /><path
         d="M364.08,698.9 L364.03,698.9 L363.98,698.89 L363.93,698.89 L363.88,698.89 L363.83,698.88 L363.79,698.88 L363.74,698.87 L363.69,698.86 L363.65,698.86 L363.6,698.85 L363.56,698.84 L363.52,698.82 L363.47,698.81 L363.43,698.8 L363.39,698.78 L363.35,698.77 L363.31,698.75 L363.27,698.73 L363.23,698.72 L363.19,698.7 L363.15,698.68 L363.11,698.65 L363.07,698.63 L363.03,698.61 L363,698.58 L362.96,698.56 L362.92,698.53 L362.89,698.5 L362.85,698.47 L362.82,698.44 L362.78,698.41 L362.75,698.38 C362.17,697.82,361.79,696.68,361.79,695.52 C361.79,694.44,362.12,693.27,362.59,692.72 C362.96,692.28,363.46,692.04,364.04,692.04 V692.3 C363.19,692.3,362.75,693.36,362.75,695.43 C362.75,697.53,363.2,698.64,364.05,698.64 H364.05 C364.89,698.64,365.33,697.52,365.33,695.44 C365.33,693.36,364.9,692.3,364.04,692.3 V692.04 C364.55,692.04,364.98,692.21,365.33,692.56 C365.91,693.1,366.29,694.26,366.29,695.46 C366.29,697.5,365.38,698.9,364.08,698.9 Z "
         stroke-width="0"
         fill="black"
         id="path6339" /><path
         d="M368.34,692.61 L368.34,692.64 L368.33,692.67 L368.33,692.69 L368.33,692.72 L368.32,692.75 L368.31,692.77 L368.3,692.8 L368.29,692.83 L368.28,692.85 L368.27,692.88 L368.25,692.9 L368.24,692.92 L368.22,692.94 L368.21,692.97 L368.19,692.99 L368.17,693.01 L368.15,693.03 L368.13,693.04 L368.11,693.06 L368.09,693.08 L368.06,693.09 L368.04,693.1 L368.02,693.12 L367.99,693.13 L367.97,693.14 L367.94,693.15 L367.92,693.16 L367.89,693.16 L367.86,693.17 L367.84,693.17 L367.81,693.17 L367.78,693.17 C367.48,693.17,367.23,692.93,367.23,692.61 C367.23,692.23,367.57,692.07,367.78,692.07 C367.99,692.07,368.34,692.24,368.34,692.61 Z "
         stroke-width="0"
         fill="black"
         id="path6341" /><path
         d="M373.46,698.98 L373.36,698.97 L373.26,698.96 L373.16,698.95 L373.06,698.93 L372.97,698.92 L372.88,698.91 L372.79,698.9 L372.71,698.88 L372.62,698.87 L372.54,698.85 L372.46,698.83 L372.39,698.81 L372.31,698.8 L372.24,698.77 L372.09,698.73 L371.95,698.68 L371.82,698.63 L371.68,698.57 L371.55,698.51 L371.42,698.43 L371.29,698.36 L371.16,698.27 L371.09,698.23 L371.03,698.18 C369.95,697.42,369.36,696.28,369.36,694.95 C369.36,694.09,369.63,693.21,370.06,692.72 C370.44,692.28,370.98,692.04,371.59,692.04 C372.83,692.04,373.68,692.99,373.68,694.36 C373.68,695.63,372.96,696.43,371.81,696.43 C371.37,696.43,371.17,696.36,370.54,695.99 L370.57,695.73 C370.78,695.89,371.08,695.98,371.43,695.98 H371.43 C372.29,695.98,372.79,695.26,372.79,694.02 C372.79,692.93,372.4,692.32,371.7,692.32 C370.83,692.32,370.29,693.25,370.29,694.79 C370.29,695.3,370.37,695.58,370.57,695.73 L370.54,695.99 C370.81,697.49,371.92,698.56,373.48,698.82 Z "
         stroke-width="0"
         fill="black"
         id="path6343" /><polygon
         points="378.7,694.48 377.69,694.48 377.69,698.9 377.25,698.9 374.13,694.48 374.52,694.48 376.91,697.88 376.91,694.48 374.52,694.48 374.13,694.48 374.13,693.84 376.92,693.84 376.92,692.18 377.69,692.18 377.69,693.84 378.7,693.84 "
         stroke-width="0"
         fill="black"
         id="polygon6345" /><polygon
         points="386.97,692.53 384.76,694.73 386.97,696.95 386.58,697.35 384.37,695.13 382.16,697.35 381.76,696.95 383.97,694.73 381.76,692.53 382.16,692.13 384.37,694.35 386.58,692.13 "
         stroke-width="0"
         fill="black"
         id="polygon6347" /><path
         d="M392.64,695.87 L392.73,695.92 L392.82,695.96 L392.9,696.01 L392.98,696.06 L393.05,696.11 L393.13,696.15 L393.2,696.2 L393.26,696.25 L393.32,696.29 L393.38,696.34 L393.44,696.39 L393.49,696.43 L393.54,696.48 L393.59,696.53 L393.63,696.57 L393.67,696.62 L393.71,696.67 L393.75,696.72 L393.78,696.77 L393.81,696.82 L393.84,696.87 L393.86,696.92 L393.88,696.97 L393.9,697.02 L393.92,697.08 L393.93,697.13 L393.94,697.19 L393.95,697.24 L393.96,697.3 L393.97,697.36 L393.97,697.42 L393.97,697.49 C393.97,698.3,393.26,698.9,392.26,698.9 L392.18,698.62 C392.86,698.62,393.29,698.18,393.29,697.5 C393.29,696.93,393.01,696.48,392.44,696.1 C392.39,696.08,392.39,696.08,392.35,696.04 H392.35 C391.46,696.62,391.11,697.08,391.11,697.64 C391.11,698.21,391.55,698.62,392.18,698.62 L392.26,698.9 C391.18,698.9,390.37,698.23,390.37,697.33 C390.37,696.68,390.56,696.39,391.6,695.48 C390.53,694.66,390.31,694.36,390.31,693.68 C390.31,692.72,391.1,692.04,392.22,692.04 L392.33,692.32 C391.57,692.32,391.07,692.9,391.07,693.76 C391.07,694.4,391.29,694.81,391.86,695.28 L392.46,694.84 C393.18,694.33,393.42,693.97,393.42,693.41 C393.42,692.77,392.98,692.32,392.33,692.32 L392.22,692.04 C393.41,692.04,394.18,692.7,394.18,693.72 C394.18,694.49,393.84,694.97,392.64,695.87 Z "
         stroke-width="0"
         fill="black"
         id="path6349" /><polygon
         points="403.21,695.46 403.21,696.02 398.12,696.02 398.12,695.46 "
         stroke-width="0"
         fill="black"
         id="polygon6351" /><polygon
         points="403.21,693.44 403.21,694 398.12,694 398.12,693.44 "
         stroke-width="0"
         fill="black"
         id="polygon6353" /><path
         d="M418.37,697.97 H420.32 C420.48,697.97,420.52,697.99,420.55,698.06 L420.93,698.95 L420.84,699.02 C420.69,698.81,420.59,698.76,420.38,698.76 H418.3 L417.21,696.4 C417.2,696.38,417.2,696.37,417.2,696.35 C417.2,696.3,417.24,696.27,417.32,696.27 C417.64,696.27,418.04,696.2,418.45,696.08 C419.59,695.71,420.12,695.09,420.12,694.11 C420.12,693.15,419.51,692.41,418.74,692.41 C418.54,692.41,418.37,692.48,418.07,692.7 C417.75,692.93,417.52,693.03,417.31,693.03 C417.03,693.03,416.89,692.91,416.89,692.66 C416.89,692.28,417.35,692.04,418.1,692.04 C418.94,692.04,419.65,692.31,420.15,692.82 C420.61,693.26,420.82,693.83,420.82,694.59 C420.82,695.3,420.63,695.76,420.13,696.25 C419.69,696.69,419.12,696.92,417.95,697.13 Z "
         stroke-width="0"
         fill="black"
         id="path6355" /><path
         d="M423.35,692.61 L423.35,692.64 L423.35,692.67 L423.34,692.69 L423.34,692.72 L423.33,692.75 L423.32,692.77 L423.32,692.8 L423.3,692.83 L423.29,692.85 L423.28,692.88 L423.27,692.9 L423.25,692.92 L423.24,692.94 L423.22,692.97 L423.2,692.99 L423.18,693.01 L423.16,693.03 L423.14,693.04 L423.12,693.06 L423.1,693.08 L423.08,693.09 L423.05,693.1 L423.03,693.12 L423.01,693.13 L422.98,693.14 L422.96,693.15 L422.93,693.16 L422.9,693.16 L422.88,693.17 L422.85,693.17 L422.82,693.17 L422.79,693.17 C422.49,693.17,422.24,692.93,422.24,692.61 C422.24,692.23,422.58,692.07,422.79,692.07 C423,692.07,423.35,692.24,423.35,692.61 Z "
         stroke-width="0"
         fill="black"
         id="path6357" /><path
         d="M426.93,698.9 L425.14,697.99 V697.85 C425.26,697.9,425.37,697.94,425.41,697.96 C425.59,698.03,425.76,698.07,425.86,698.07 C426.07,698.07,426.16,697.92,426.16,697.6 V693.1 C426.16,692.78,426.08,692.55,425.92,692.46 C425.77,692.37,425.63,692.34,425.21,692.33 V692.18 H427.96 V692.33 C427.17,692.34,427.02,692.44,427.02,692.92 V698.88 Z "
         stroke-width="0"
         fill="black"
         id="path6359" /><path
         d="M433.75,693.54 L433.62,693.59 C433.25,693.03,433.12,692.94,432.67,692.94 H430.3 L431.97,694.68 C432.85,695.61,433.24,696.36,433.24,697.14 C433.24,698.13,432.43,698.9,431.4,698.9 C430.85,698.9,430.33,698.68,429.97,698.28 C429.65,697.94,429.5,697.62,429.33,696.92 L429.54,696.87 C429.94,697.84,430.3,698.16,430.98,698.16 C431.82,698.16,432.38,697.59,432.38,696.76 C432.38,695.99,431.93,695.06,431.09,694.18 L429.32,692.3 V692.18 H433.2 Z "
         stroke-width="0"
         fill="black"
         id="path6361" /><path
         d="M364.08,683.95 L364.03,683.95 L363.98,683.95 L363.93,683.95 L363.88,683.94 L363.83,683.94 L363.79,683.93 L363.74,683.93 L363.69,683.92 L363.65,683.91 L363.6,683.9 L363.56,683.89 L363.52,683.88 L363.47,683.87 L363.43,683.85 L363.39,683.84 L363.35,683.82 L363.31,683.81 L363.27,683.79 L363.23,683.77 L363.19,683.75 L363.15,683.73 L363.11,683.71 L363.07,683.69 L363.03,683.66 L363,683.64 L362.96,683.61 L362.92,683.59 L362.89,683.56 L362.85,683.53 L362.82,683.5 L362.78,683.47 L362.75,683.44 C362.17,682.88,361.79,681.74,361.79,680.58 C361.79,679.49,362.12,678.33,362.59,677.77 C362.96,677.34,363.46,677.1,364.04,677.1 V677.36 C363.19,677.36,362.75,678.42,362.75,680.48 C362.75,682.59,363.2,683.69,364.05,683.69 H364.05 C364.89,683.69,365.33,682.57,365.33,680.49 C365.33,678.42,364.9,677.36,364.04,677.36 V677.1 C364.55,677.1,364.98,677.27,365.33,677.61 C365.91,678.16,366.29,679.31,366.29,680.52 C366.29,682.55,365.38,683.95,364.08,683.95 Z "
         stroke-width="0"
         fill="black"
         id="path6363" /><path
         d="M368.34,677.66 L368.34,677.69 L368.33,677.72 L368.33,677.75 L368.33,677.78 L368.32,677.8 L368.31,677.83 L368.3,677.86 L368.29,677.88 L368.28,677.91 L368.27,677.93 L368.25,677.96 L368.24,677.98 L368.22,678 L368.21,678.02 L368.19,678.04 L368.17,678.06 L368.15,678.08 L368.13,678.1 L368.11,678.12 L368.09,678.13 L368.06,678.15 L368.04,678.16 L368.02,678.17 L367.99,678.18 L367.97,678.2 L367.94,678.2 L367.92,678.21 L367.89,678.22 L367.86,678.22 L367.84,678.23 L367.81,678.23 L367.78,678.23 C367.48,678.23,367.23,677.98,367.23,677.66 C367.23,677.29,367.57,677.13,367.78,677.13 C367.99,677.13,368.34,677.3,368.34,677.66 Z "
         stroke-width="0"
         fill="black"
         id="path6365" /><path
         d="M371.92,683.95 L370.13,683.05 V682.91 C370.25,682.96,370.36,683,370.4,683.02 C370.58,683.09,370.75,683.13,370.85,683.13 C371.06,683.13,371.14,682.98,371.14,682.66 V678.16 C371.14,677.83,371.07,677.6,370.91,677.52 C370.76,677.43,370.62,677.4,370.2,677.39 V677.24 H372.95 V677.39 C372.16,677.4,372,677.49,372,677.97 V683.93 Z "
         stroke-width="0"
         fill="black"
         id="path6367" /><path
         d="M378.73,678.6 L378.6,678.65 C378.24,678.08,378.11,677.99,377.66,677.99 H375.28 L376.95,679.74 C377.84,680.66,378.23,681.42,378.23,682.19 C378.23,683.19,377.42,683.95,376.39,683.95 C375.84,683.95,375.32,683.73,374.95,683.34 C374.63,683,374.48,682.68,374.32,681.98 L374.52,681.93 C374.92,682.9,375.28,683.22,375.97,683.22 C376.8,683.22,377.37,682.65,377.37,681.82 C377.37,681.04,376.91,680.12,376.08,679.23 L374.31,677.36 V677.24 H378.19 Z "
         stroke-width="0"
         fill="black"
         id="path6369" /><polygon
         points="386.97,677.59 384.76,679.79 386.97,682.01 386.58,682.4 384.37,680.19 382.16,682.4 381.76,682.01 383.97,679.79 381.76,677.59 382.16,677.19 384.37,679.4 386.58,677.19 "
         stroke-width="0"
         fill="black"
         id="polygon6371" /><path
         d="M392.64,680.92 L392.73,680.97 L392.82,681.02 L392.9,681.07 L392.98,681.12 L393.05,681.16 L393.13,681.21 L393.2,681.26 L393.26,681.3 L393.32,681.35 L393.38,681.4 L393.44,681.44 L393.49,681.49 L393.54,681.53 L393.59,681.58 L393.63,681.63 L393.67,681.68 L393.71,681.72 L393.75,681.77 L393.78,681.82 L393.81,681.87 L393.84,681.92 L393.86,681.97 L393.88,682.02 L393.9,682.08 L393.92,682.13 L393.93,682.19 L393.94,682.24 L393.95,682.3 L393.96,682.36 L393.97,682.42 L393.97,682.48 L393.97,682.54 C393.97,683.36,393.26,683.95,392.26,683.95 L392.18,683.67 C392.86,683.67,393.29,683.24,393.29,682.55 C393.29,681.98,393.01,681.54,392.44,681.16 C392.39,681.13,392.39,681.13,392.35,681.1 H392.35 C391.46,681.68,391.11,682.13,391.11,682.69 C391.11,683.27,391.55,683.67,392.18,683.67 L392.26,683.95 C391.18,683.95,390.37,683.29,390.37,682.38 C390.37,681.74,390.56,681.45,391.6,680.53 C390.53,679.72,390.31,679.41,390.31,678.74 C390.31,677.77,391.1,677.1,392.22,677.1 L392.33,677.38 C391.57,677.38,391.07,677.95,391.07,678.82 C391.07,679.45,391.29,679.87,391.86,680.34 L392.46,679.9 C393.18,679.38,393.42,679.03,393.42,678.47 C393.42,677.82,392.98,677.38,392.33,677.38 L392.22,677.1 C393.41,677.1,394.18,677.75,394.18,678.78 C394.18,679.54,393.84,680.03,392.64,680.92 Z "
         stroke-width="0"
         fill="black"
         id="path6373" /><polygon
         points="403.21,680.52 403.21,681.07 398.12,681.07 398.12,680.52 "
         stroke-width="0"
         fill="black"
         id="polygon6375" /><polygon
         points="403.21,678.5 403.21,679.05 398.12,679.05 398.12,678.5 "
         stroke-width="0"
         fill="black"
         id="polygon6377" /><path
         d="M419.1,683.95 L419.04,683.95 L418.99,683.95 L418.94,683.95 L418.9,683.94 L418.85,683.94 L418.8,683.93 L418.75,683.93 L418.71,683.92 L418.66,683.91 L418.62,683.9 L418.57,683.89 L418.53,683.88 L418.49,683.87 L418.44,683.85 L418.4,683.84 L418.36,683.82 L418.32,683.81 L418.28,683.79 L418.24,683.77 L418.2,683.75 L418.16,683.73 L418.12,683.71 L418.09,683.69 L418.05,683.66 L418.01,683.64 L417.97,683.61 L417.94,683.59 L417.9,683.56 L417.87,683.53 L417.83,683.5 L417.8,683.47 L417.76,683.44 C417.18,682.88,416.81,681.74,416.81,680.58 C416.81,679.49,417.14,678.33,417.6,677.77 C417.97,677.34,418.48,677.1,419.05,677.1 V677.36 C418.2,677.36,417.76,678.42,417.76,680.48 C417.76,682.59,418.21,683.69,419.07,683.69 H419.07 C419.9,683.69,420.35,682.57,420.35,680.49 C420.35,678.42,419.91,677.36,419.05,677.36 V677.1 C419.56,677.1,419.99,677.27,420.35,677.61 C420.93,678.16,421.3,679.31,421.3,680.52 C421.3,682.55,420.4,683.95,419.1,683.95 Z "
         stroke-width="0"
         fill="black"
         id="path6379" /><path
         d="M423.35,677.66 L423.35,677.69 L423.35,677.72 L423.34,677.75 L423.34,677.78 L423.33,677.8 L423.32,677.83 L423.32,677.86 L423.3,677.88 L423.29,677.91 L423.28,677.93 L423.27,677.96 L423.25,677.98 L423.24,678 L423.22,678.02 L423.2,678.04 L423.18,678.06 L423.16,678.08 L423.14,678.1 L423.12,678.12 L423.1,678.13 L423.08,678.15 L423.05,678.16 L423.03,678.17 L423.01,678.18 L422.98,678.2 L422.95,678.2 L422.93,678.21 L422.9,678.22 L422.87,678.22 L422.85,678.23 L422.82,678.23 L422.79,678.23 C422.49,678.23,422.24,677.98,422.24,677.66 C422.24,677.29,422.58,677.13,422.79,677.13 C423,677.13,423.35,677.3,423.35,677.66 Z "
         stroke-width="0"
         fill="black"
         id="path6381" /><path
         d="M424.63,677.02 L424.73,677.03 L424.83,677.04 L424.93,677.06 L425.02,677.07 L425.11,677.08 L425.2,677.1 L425.28,677.11 L425.37,677.13 L425.45,677.15 L425.53,677.16 L425.6,677.18 L425.68,677.2 L425.75,677.22 L425.82,677.24 L425.96,677.29 L426.09,677.34 L426.22,677.39 L426.35,677.45 L426.47,677.51 L426.59,677.58 L426.72,677.65 L426.84,677.74 L426.9,677.78 L426.96,677.82 C428,678.58,428.61,679.81,428.61,681.15 C428.61,682.79,427.69,683.95,426.41,683.95 C425.22,683.95,424.34,682.95,424.34,681.61 C424.34,680.4,425.05,679.59,426.13,679.59 C426.68,679.59,427.09,679.75,427.62,680.16 L427.49,680.39 C427.21,680.15,426.85,680.02,426.49,680.02 C425.73,680.02,425.25,680.76,425.25,681.95 C425.25,682.51,425.41,683.11,425.62,683.37 C425.79,683.57,426.04,683.67,426.33,683.67 C427.19,683.67,427.64,682.82,427.64,681.15 V680.76 C427.64,680.57,427.6,680.48,427.49,680.39 L427.62,680.16 C427.21,678.54,426.11,677.47,424.6,677.22 Z "
         stroke-width="0"
         fill="black"
         id="path6383" /><path
         d="M433.46,684.03 L433.35,684.02 L433.25,684.01 L433.15,684 L433.06,683.99 L432.96,683.98 L432.87,683.96 L432.79,683.95 L432.7,683.94 L432.62,683.92 L432.54,683.91 L432.46,683.89 L432.38,683.87 L432.3,683.85 L432.23,683.83 L432.09,683.79 L431.95,683.74 L431.81,683.68 L431.68,683.63 L431.55,683.56 L431.42,683.49 L431.29,683.41 L431.16,683.33 L431.09,683.28 L431.02,683.24 C429.95,682.47,429.36,681.34,429.36,680.01 C429.36,679.14,429.63,678.27,430.06,677.77 C430.43,677.34,430.97,677.1,431.59,677.1 C432.82,677.1,433.68,678.04,433.68,679.41 C433.68,680.68,432.95,681.49,431.81,681.49 C431.37,681.49,431.16,681.42,430.53,681.04 L430.56,680.78 C430.77,680.94,431.08,681.03,431.43,681.03 H431.43 C432.28,681.03,432.78,680.32,432.78,679.08 C432.78,677.98,432.39,677.38,431.7,677.38 C430.82,677.38,430.29,678.31,430.29,679.85 C430.29,680.36,430.36,680.63,430.56,680.78 L430.53,681.04 C430.8,682.54,431.92,683.61,433.48,683.87 Z "
         stroke-width="0"
         fill="black"
         id="path6385" /><path
         d="M364.08,669.01 L364.03,669.01 L363.98,669.01 L363.93,669 L363.88,669 L363.83,669 L363.79,668.99 L363.74,668.98 L363.69,668.98 L363.65,668.97 L363.6,668.96 L363.56,668.95 L363.52,668.94 L363.47,668.92 L363.43,668.91 L363.39,668.9 L363.35,668.88 L363.31,668.86 L363.27,668.85 L363.23,668.83 L363.19,668.81 L363.15,668.79 L363.11,668.77 L363.07,668.74 L363.03,668.72 L363,668.69 L362.96,668.67 L362.92,668.64 L362.89,668.61 L362.85,668.59 L362.82,668.56 L362.78,668.52 L362.75,668.49 C362.17,667.94,361.79,666.79,361.79,665.63 C361.79,664.55,362.12,663.39,362.59,662.83 C362.96,662.39,363.46,662.15,364.04,662.15 V662.41 C363.19,662.41,362.75,663.47,362.75,665.54 C362.75,667.65,363.2,668.75,364.05,668.75 H364.05 C364.89,668.75,365.33,667.63,365.33,665.55 C365.33,663.47,364.9,662.41,364.04,662.41 V662.15 C364.55,662.15,364.98,662.32,365.33,662.67 C365.91,663.22,366.29,664.37,366.29,665.57 C366.29,667.61,365.38,669.01,364.08,669.01 Z "
         stroke-width="0"
         fill="black"
         id="path6387" /><path
         d="M368.34,662.72 L368.34,662.75 L368.33,662.78 L368.33,662.81 L368.33,662.83 L368.32,662.86 L368.31,662.89 L368.3,662.91 L368.29,662.94 L368.28,662.96 L368.27,662.99 L368.25,663.01 L368.24,663.03 L368.22,663.06 L368.21,663.08 L368.19,663.1 L368.17,663.12 L368.15,663.14 L368.13,663.16 L368.11,663.17 L368.09,663.19 L368.06,663.2 L368.04,663.22 L368.02,663.23 L367.99,663.24 L367.97,663.25 L367.94,663.26 L367.92,663.27 L367.89,663.27 L367.86,663.28 L367.83,663.28 L367.81,663.29 L367.78,663.29 C367.48,663.29,367.23,663.04,367.23,662.72 C367.23,662.34,367.57,662.18,367.78,662.18 C367.99,662.18,368.34,662.35,368.34,662.72 Z "
         stroke-width="0"
         fill="black"
         id="path6389" /><path
         d="M369.61,662.08 L369.72,662.09 L369.82,662.1 L369.91,662.11 L370.01,662.13 L370.1,662.14 L370.18,662.16 L370.27,662.17 L370.35,662.19 L370.43,662.2 L370.51,662.22 L370.59,662.24 L370.66,662.26 L370.74,662.28 L370.81,662.3 L370.95,662.34 L371.08,662.39 L371.21,662.44 L371.33,662.5 L371.46,662.57 L371.58,662.64 L371.7,662.71 L371.83,662.79 L371.89,662.83 L371.95,662.88 C372.99,663.63,373.59,664.87,373.59,666.21 C373.59,667.85,372.68,669.01,371.39,669.01 C370.21,669.01,369.32,668.01,369.32,666.66 C369.32,665.45,370.04,664.65,371.11,664.65 C371.66,664.65,372.08,664.81,372.61,665.21 L372.48,665.44 C372.2,665.2,371.83,665.08,371.47,665.08 C370.72,665.08,370.24,665.82,370.24,667 C370.24,667.57,370.4,668.16,370.61,668.42 C370.78,668.62,371.03,668.73,371.31,668.73 C372.18,668.73,372.63,667.88,372.63,666.21 V665.82 C372.63,665.62,372.59,665.53,372.48,665.44 L372.61,665.21 C372.2,663.59,371.1,662.53,369.58,662.27 Z "
         stroke-width="0"
         fill="black"
         id="path6391" /><path
         d="M378.44,669.09 L378.34,669.08 L378.24,669.07 L378.14,669.06 L378.04,669.05 L377.95,669.03 L377.86,669.02 L377.77,669.01 L377.69,668.99 L377.6,668.98 L377.52,668.96 L377.44,668.94 L377.37,668.93 L377.29,668.91 L377.22,668.89 L377.07,668.84 L376.93,668.79 L376.8,668.74 L376.67,668.68 L376.53,668.62 L376.4,668.55 L376.27,668.47 L376.14,668.38 L376.07,668.34 L376.01,668.29 C374.93,667.53,374.35,666.4,374.35,665.07 C374.35,664.2,374.61,663.33,375.04,662.83 C375.42,662.39,375.96,662.15,376.57,662.15 C377.81,662.15,378.66,663.1,378.66,664.47 C378.66,665.74,377.94,666.54,376.79,666.54 C376.36,666.54,376.15,666.47,375.52,666.1 L375.55,665.84 C375.76,666,376.07,666.09,376.42,666.09 H376.42 C377.27,666.09,377.77,665.37,377.77,664.13 C377.77,663.04,377.38,662.43,376.68,662.43 C375.81,662.43,375.27,663.37,375.27,664.91 C375.27,665.41,375.35,665.69,375.55,665.84 L375.52,666.1 C375.79,667.6,376.9,668.67,378.46,668.93 Z "
         stroke-width="0"
         fill="black"
         id="path6393" /><polygon
         points="386.97,662.64 384.76,664.85 386.97,667.06 386.58,667.46 384.37,665.24 382.16,667.46 381.76,667.06 383.97,664.85 381.76,662.64 382.16,662.24 384.37,664.46 386.58,662.24 "
         stroke-width="0"
         fill="black"
         id="polygon6395" /><path
         d="M392.64,665.98 L392.73,666.03 L392.82,666.08 L392.9,666.12 L392.98,666.17 L393.05,666.22 L393.13,666.27 L393.2,666.31 L393.26,666.36 L393.32,666.41 L393.38,666.45 L393.44,666.5 L393.49,666.54 L393.54,666.59 L393.59,666.64 L393.63,666.68 L393.67,666.73 L393.71,666.78 L393.75,666.83 L393.78,666.88 L393.81,666.93 L393.84,666.98 L393.86,667.03 L393.88,667.08 L393.9,667.13 L393.92,667.19 L393.93,667.24 L393.94,667.3 L393.95,667.36 L393.96,667.41 L393.97,667.47 L393.97,667.54 L393.97,667.6 C393.97,668.41,393.26,669.01,392.26,669.01 L392.18,668.73 C392.86,668.73,393.29,668.29,393.29,667.61 C393.29,667.04,393.01,666.59,392.44,666.22 C392.39,666.19,392.39,666.19,392.35,666.16 H392.35 C391.46,666.73,391.11,667.19,391.11,667.75 C391.11,668.32,391.55,668.73,392.18,668.73 L392.26,669.01 C391.18,669.01,390.37,668.34,390.37,667.44 C390.37,666.79,390.56,666.51,391.6,665.59 C390.53,664.78,390.31,664.47,390.31,663.79 C390.31,662.83,391.1,662.15,392.22,662.15 L392.33,662.43 C391.57,662.43,391.07,663.01,391.07,663.87 C391.07,664.51,391.29,664.93,391.86,665.39 L392.46,664.96 C393.18,664.44,393.42,664.08,393.42,663.53 C393.42,662.88,392.98,662.43,392.33,662.43 L392.22,662.15 C393.41,662.15,394.18,662.81,394.18,663.83 C394.18,664.6,393.84,665.08,392.64,665.98 Z "
         stroke-width="0"
         fill="black"
         id="path6397" /><polygon
         points="403.21,665.57 403.21,666.13 398.12,666.13 398.12,665.57 "
         stroke-width="0"
         fill="black"
         id="polygon6399" /><polygon
         points="403.21,663.55 403.21,664.11 398.12,664.11 398.12,663.55 "
         stroke-width="0"
         fill="black"
         id="polygon6401" /><path
         d="M421.04,668.87 H417.35 L416.77,667.41 L416.94,667.33 C417.36,668.01,417.54,668.13,418.09,668.13 H420.25 L418.28,662.21 H418.93 L421.04,668.71 Z "
         stroke-width="0"
         fill="black"
         id="path6403" /><path
         d="M423.35,662.72 L423.35,662.75 L423.35,662.78 L423.34,662.81 L423.34,662.83 L423.33,662.86 L423.32,662.89 L423.32,662.91 L423.3,662.94 L423.29,662.96 L423.28,662.99 L423.27,663.01 L423.25,663.03 L423.24,663.06 L423.22,663.08 L423.2,663.1 L423.18,663.12 L423.16,663.14 L423.14,663.16 L423.12,663.17 L423.1,663.19 L423.08,663.2 L423.05,663.22 L423.03,663.23 L423.01,663.24 L422.98,663.25 L422.95,663.26 L422.93,663.27 L422.9,663.27 L422.87,663.28 L422.85,663.28 L422.82,663.29 L422.79,663.29 C422.49,663.29,422.24,663.04,422.24,662.72 C422.24,662.34,422.58,662.18,422.79,662.18 C423,662.18,423.35,662.35,423.35,662.72 Z "
         stroke-width="0"
         fill="black"
         id="path6405" /><path
         d="M428.48,669.09 L428.37,669.08 L428.27,669.07 L428.17,669.06 L428.08,669.05 L427.98,669.03 L427.89,669.02 L427.81,669.01 L427.72,668.99 L427.64,668.98 L427.56,668.96 L427.48,668.94 L427.4,668.93 L427.32,668.91 L427.25,668.89 L427.11,668.84 L426.97,668.79 L426.83,668.74 L426.7,668.68 L426.57,668.62 L426.44,668.55 L426.31,668.47 L426.17,668.38 L426.11,668.34 L426.04,668.29 C424.96,667.53,424.38,666.4,424.38,665.07 C424.38,664.2,424.65,663.33,425.08,662.83 C425.45,662.39,425.99,662.15,426.61,662.15 C427.84,662.15,428.7,663.1,428.7,664.47 C428.7,665.74,427.97,666.54,426.83,666.54 C426.39,666.54,426.18,666.47,425.55,666.1 L425.58,665.84 C425.79,666,426.1,666.09,426.45,666.09 H426.45 C427.3,666.09,427.8,665.37,427.8,664.13 C427.8,663.04,427.41,662.43,426.72,662.43 C425.84,662.43,425.3,663.37,425.3,664.91 C425.3,665.41,425.38,665.69,425.58,665.84 L425.55,666.1 C425.82,667.6,426.93,668.67,428.5,668.93 Z "
         stroke-width="0"
         fill="black"
         id="path6407" /><path
         d="M431.91,665.98 L432,666.03 L432.08,666.08 L432.17,666.12 L432.25,666.17 L432.32,666.22 L432.39,666.27 L432.46,666.31 L432.53,666.36 L432.59,666.41 L432.65,666.45 L432.71,666.5 L432.76,666.54 L432.81,666.59 L432.86,666.64 L432.9,666.68 L432.94,666.73 L432.98,666.78 L433.02,666.83 L433.05,666.88 L433.08,666.93 L433.1,666.98 L433.13,667.03 L433.15,667.08 L433.17,667.13 L433.19,667.19 L433.2,667.24 L433.21,667.3 L433.22,667.36 L433.23,667.41 L433.24,667.47 L433.24,667.54 L433.24,667.6 C433.24,668.41,432.52,669.01,431.53,669.01 L431.45,668.73 C432.12,668.73,432.55,668.29,432.55,667.61 C432.55,667.04,432.27,666.59,431.71,666.22 C431.66,666.19,431.66,666.19,431.62,666.16 H431.62 C430.73,666.73,430.37,667.19,430.37,667.75 C430.37,668.32,430.82,668.73,431.45,668.73 L431.53,669.01 C430.44,669.01,429.64,668.34,429.64,667.44 C429.64,666.79,429.83,666.51,430.87,665.59 C429.8,664.78,429.58,664.47,429.58,663.79 C429.58,662.83,430.36,662.15,431.49,662.15 L431.6,662.43 C430.84,662.43,430.33,663.01,430.33,663.87 C430.33,664.51,430.55,664.93,431.13,665.39 L431.73,664.96 C432.45,664.44,432.69,664.08,432.69,663.53 C432.69,662.88,432.24,662.43,431.6,662.43 L431.49,662.15 C432.68,662.15,433.45,662.81,433.45,663.83 C433.45,664.6,433.11,665.08,431.91,665.98 Z "
         stroke-width="0"
         fill="black"
         id="path6409" /><path
         d="M364.08,654.06 L364.03,654.06 L363.98,654.06 L363.93,654.06 L363.88,654.06 L363.83,654.05 L363.79,654.05 L363.74,654.04 L363.69,654.03 L363.65,654.02 L363.6,654.01 L363.56,654 L363.52,653.99 L363.47,653.98 L363.43,653.97 L363.39,653.95 L363.35,653.94 L363.31,653.92 L363.27,653.9 L363.23,653.88 L363.19,653.86 L363.15,653.84 L363.11,653.82 L363.07,653.8 L363.03,653.78 L363,653.75 L362.96,653.72 L362.92,653.7 L362.89,653.67 L362.85,653.64 L362.82,653.61 L362.78,653.58 L362.75,653.55 C362.17,652.99,361.79,651.85,361.79,650.69 C361.79,649.6,362.12,648.44,362.59,647.89 C362.96,647.45,363.46,647.21,364.04,647.21 V647.47 C363.19,647.47,362.75,648.53,362.75,650.6 C362.75,652.7,363.2,653.81,364.05,653.81 H364.05 C364.89,653.81,365.33,652.68,365.33,650.61 C365.33,648.53,364.9,647.47,364.04,647.47 V647.21 C364.55,647.21,364.98,647.38,365.33,647.73 C365.91,648.27,366.29,649.42,366.29,650.63 C366.29,652.66,365.38,654.06,364.08,654.06 Z "
         stroke-width="0"
         fill="black"
         id="path6411" /><path
         d="M368.34,647.78 L368.34,647.8 L368.33,647.83 L368.33,647.86 L368.33,647.89 L368.32,647.92 L368.31,647.94 L368.3,647.97 L368.29,647.99 L368.28,648.02 L368.27,648.04 L368.25,648.07 L368.24,648.09 L368.22,648.11 L368.21,648.13 L368.19,648.16 L368.17,648.18 L368.15,648.19 L368.13,648.21 L368.11,648.23 L368.09,648.24 L368.06,648.26 L368.04,648.27 L368.02,648.29 L367.99,648.3 L367.97,648.31 L367.94,648.32 L367.92,648.32 L367.89,648.33 L367.86,648.34 L367.83,648.34 L367.81,648.34 L367.78,648.34 C367.48,648.34,367.23,648.09,367.23,647.78 C367.23,647.4,367.57,647.24,367.78,647.24 C367.99,647.24,368.34,647.41,368.34,647.78 Z "
         stroke-width="0"
         fill="black"
         id="path6413" /><path
         d="M373.46,654.14 L373.36,654.13 L373.26,654.12 L373.16,654.11 L373.06,654.1 L372.97,654.09 L372.88,654.08 L372.79,654.06 L372.71,654.05 L372.62,654.03 L372.54,654.02 L372.46,654 L372.39,653.98 L372.31,653.96 L372.24,653.94 L372.09,653.9 L371.95,653.85 L371.82,653.8 L371.68,653.74 L371.55,653.67 L371.42,653.6 L371.29,653.52 L371.16,653.44 L371.09,653.4 L371.03,653.35 C369.95,652.58,369.36,651.45,369.36,650.12 C369.36,649.26,369.63,648.38,370.06,647.89 C370.44,647.45,370.98,647.21,371.59,647.21 C372.83,647.21,373.68,648.15,373.68,649.53 C373.68,650.8,372.96,651.6,371.81,651.6 C371.37,651.6,371.17,651.53,370.54,651.15 L370.57,650.9 C370.78,651.05,371.08,651.14,371.43,651.14 H371.43 C372.29,651.14,372.79,650.43,372.79,649.19 C372.79,648.09,372.4,647.49,371.7,647.49 C370.83,647.49,370.29,648.42,370.29,649.96 C370.29,650.47,370.37,650.75,370.57,650.9 L370.54,651.15 C370.81,652.65,371.92,653.73,373.48,653.98 Z "
         stroke-width="0"
         fill="black"
         id="path6415" /><path
         d="M376.89,651.03 L376.98,651.08 L377.07,651.13 L377.15,651.18 L377.23,651.23 L377.31,651.27 L377.38,651.32 L377.45,651.37 L377.52,651.41 L377.58,651.46 L377.64,651.51 L377.69,651.55 L377.75,651.6 L377.8,651.65 L377.84,651.69 L377.89,651.74 L377.93,651.79 L377.97,651.84 L378,651.88 L378.03,651.93 L378.06,651.98 L378.09,652.03 L378.12,652.08 L378.14,652.14 L378.16,652.19 L378.17,652.24 L378.19,652.3 L378.2,652.35 L378.21,652.41 L378.22,652.47 L378.22,652.53 L378.22,652.59 L378.23,652.65 C378.23,653.47,377.51,654.06,376.51,654.06 L376.43,653.79 C377.11,653.79,377.54,653.35,377.54,652.66 C377.54,652.1,377.26,651.65,376.69,651.27 C376.64,651.24,376.64,651.24,376.6,651.21 H376.6 C375.72,651.79,375.36,652.25,375.36,652.8 C375.36,653.38,375.81,653.79,376.43,653.79 L376.51,654.06 C375.43,654.06,374.62,653.4,374.62,652.49 C374.62,651.85,374.81,651.56,375.86,650.65 C374.78,649.83,374.56,649.53,374.56,648.85 C374.56,647.89,375.35,647.21,376.48,647.21 L376.58,647.49 C375.83,647.49,375.32,648.06,375.32,648.93 C375.32,649.56,375.54,649.98,376.12,650.45 L376.71,650.01 C377.44,649.49,377.68,649.14,377.68,648.58 C377.68,647.93,377.23,647.49,376.58,647.49 L376.48,647.21 C377.67,647.21,378.43,647.87,378.43,648.89 C378.43,649.65,378.1,650.14,376.89,651.03 Z "
         stroke-width="0"
         fill="black"
         id="path6417" /><polygon
         points="386.97,647.7 384.76,649.9 386.97,652.12 386.58,652.52 384.37,650.3 382.16,652.52 381.76,652.12 383.97,649.9 381.76,647.7 382.16,647.3 384.37,649.52 386.58,647.3 "
         stroke-width="0"
         fill="black"
         id="polygon6419" /><path
         d="M392.64,651.03 L392.73,651.08 L392.82,651.13 L392.9,651.18 L392.98,651.23 L393.05,651.27 L393.13,651.32 L393.2,651.37 L393.26,651.41 L393.32,651.46 L393.38,651.51 L393.44,651.55 L393.49,651.6 L393.54,651.65 L393.59,651.69 L393.63,651.74 L393.67,651.79 L393.71,651.84 L393.75,651.88 L393.78,651.93 L393.81,651.98 L393.84,652.03 L393.86,652.08 L393.88,652.14 L393.9,652.19 L393.92,652.24 L393.93,652.3 L393.94,652.35 L393.95,652.41 L393.96,652.47 L393.97,652.53 L393.97,652.59 L393.97,652.65 C393.97,653.47,393.26,654.06,392.26,654.06 L392.18,653.79 C392.86,653.79,393.29,653.35,393.29,652.66 C393.29,652.1,393.01,651.65,392.44,651.27 C392.39,651.24,392.39,651.24,392.35,651.21 H392.35 C391.46,651.79,391.11,652.25,391.11,652.8 C391.11,653.38,391.55,653.79,392.18,653.79 L392.26,654.06 C391.18,654.06,390.37,653.4,390.37,652.49 C390.37,651.85,390.56,651.56,391.6,650.65 C390.53,649.83,390.31,649.53,390.31,648.85 C390.31,647.89,391.1,647.21,392.22,647.21 L392.33,647.49 C391.57,647.49,391.07,648.06,391.07,648.93 C391.07,649.56,391.29,649.98,391.86,650.45 L392.46,650.01 C393.18,649.49,393.42,649.14,393.42,648.58 C393.42,647.93,392.98,647.49,392.33,647.49 L392.22,647.21 C393.41,647.21,394.18,647.87,394.18,648.89 C394.18,649.65,393.84,650.14,392.64,651.03 Z "
         stroke-width="0"
         fill="black"
         id="path6421" /><polygon
         points="403.21,650.63 403.21,651.18 398.12,651.18 398.12,650.63 "
         stroke-width="0"
         fill="black"
         id="polygon6423" /><polygon
         points="403.21,648.61 403.21,649.17 398.12,649.17 398.12,648.61 "
         stroke-width="0"
         fill="black"
         id="polygon6425" /><path
         d="M418.37,653.14 H420.32 C420.48,653.14,420.52,653.16,420.55,653.23 L420.93,654.11 L420.84,654.18 C420.69,653.97,420.59,653.92,420.38,653.92 H418.3 L417.21,651.57 C417.2,651.55,417.2,651.54,417.2,651.52 C417.2,651.47,417.24,651.44,417.32,651.44 C417.64,651.44,418.04,651.37,418.45,651.24 C419.59,650.88,420.12,650.26,420.12,649.28 C420.12,648.32,419.51,647.58,418.74,647.58 C418.54,647.58,418.37,647.65,418.07,647.87 C417.75,648.09,417.52,648.19,417.31,648.19 C417.02,648.19,416.89,648.07,416.89,647.83 C416.89,647.45,417.35,647.21,418.1,647.21 C418.94,647.21,419.65,647.48,420.15,647.98 C420.61,648.43,420.82,649,420.82,649.75 C420.82,650.47,420.63,650.92,420.13,651.42 C419.69,651.86,419.12,652.09,417.95,652.3 Z "
         stroke-width="0"
         fill="black"
         id="path6427" /><path
         d="M423.35,647.78 L423.35,647.8 L423.35,647.83 L423.34,647.86 L423.34,647.89 L423.33,647.92 L423.32,647.94 L423.32,647.97 L423.3,647.99 L423.29,648.02 L423.28,648.04 L423.27,648.07 L423.25,648.09 L423.24,648.11 L423.22,648.13 L423.2,648.16 L423.18,648.18 L423.16,648.19 L423.14,648.21 L423.12,648.23 L423.1,648.24 L423.08,648.26 L423.05,648.27 L423.03,648.29 L423.01,648.3 L422.98,648.31 L422.95,648.32 L422.93,648.32 L422.9,648.33 L422.87,648.34 L422.85,648.34 L422.82,648.34 L422.79,648.34 C422.49,648.34,422.24,648.09,422.24,647.78 C422.24,647.4,422.58,647.24,422.79,647.24 C423,647.24,423.35,647.41,423.35,647.78 Z "
         stroke-width="0"
         fill="black"
         id="path6429" /><polygon
         points="428.74,649.64 427.72,649.64 427.72,654.06 427.28,654.06 424.16,649.64 424.56,649.64 426.95,653.05 426.95,649.64 424.56,649.64 424.16,649.64 424.16,649.01 426.95,649.01 426.95,647.35 427.72,647.35 427.72,649.01 428.74,649.01 "
         stroke-width="0"
         fill="black"
         id="polygon6431" /><polygon
         points="433.72,649.64 432.7,649.64 432.7,654.06 432.26,654.06 429.14,649.64 429.54,649.64 431.93,653.05 431.93,649.64 429.54,649.64 429.14,649.64 429.14,649.01 431.94,649.01 431.94,647.35 432.7,647.35 432.7,649.01 433.72,649.01 "
         stroke-width="0"
         fill="black"
         id="polygon6433" /></g>    <g
       style="font-style:normal;font-variant:normal;font-weight:normal;font-stretch:normal;letter-spacing:normal;word-spacing:normal;text-anchor:start;fill:none;stroke:#000000;stroke-width:1;stroke-linecap:butt;stroke-linejoin:miter;stroke-miterlimit:10.43299961;stroke-opacity:1;stroke-dasharray:none;stroke-dashoffset:0"
       ns0:preamble="/home/sriranga/Desktop/Prism_BasicElectronics/preamble.tex"
       ns0:text="$\\therefore~ (0.705)_{10}= (0.55075\\ldots)_8$"
       word-spacing="normal"
       letter-spacing="normal"
       font-size-adjust="none"
       font-stretch="normal"
       font-weight="normal"
       font-variant="normal"
       font-style="normal"
       stroke-miterlimit="10.433"
       xml:space="preserve"
       transform="matrix(1.2,0,0,-1.2,-227.33962,1710.4718)"
       id="g6684"><path
         id="path6686"
         d="m 227.27,711.21 0,0.02 0,0.03 0,0.03 -0.01,0.02 0,0.03 -0.01,0.02 -0.01,0.03 -0.01,0.02 -0.01,0.02 -0.01,0.03 -0.01,0.02 -0.02,0.02 -0.01,0.02 -0.02,0.02 -0.02,0.02 -0.01,0.02 -0.02,0.02 -0.02,0.01 -0.02,0.02 -0.02,0.01 -0.02,0.02 -0.02,0.01 -0.03,0.01 -0.02,0.01 -0.02,0.01 -0.03,0.01 -0.02,0.01 -0.03,0 -0.03,0.01 -0.02,0 -0.03,0 -0.03,0 c -0.28,0 -0.52,-0.23 -0.52,-0.52 0,-0.29 0.24,-0.53 0.52,-0.53 0.28,0 0.53,0.23 0.53,0.53 z"
         inkscape:connector-curvature="0"
         style="fill:#000000;stroke-width:0" /><path
         id="path6688"
         d="m 229.76,706.91 0,0.02 0,0.03 -0.01,0.03 0,0.02 -0.01,0.03 0,0.02 -0.01,0.03 -0.01,0.02 -0.01,0.02 -0.01,0.03 -0.02,0.02 -0.01,0.02 -0.02,0.02 -0.01,0.02 -0.02,0.02 -0.02,0.02 -0.01,0.02 -0.02,0.01 -0.02,0.02 -0.02,0.01 -0.03,0.02 -0.02,0.01 -0.02,0.01 -0.02,0.01 -0.03,0.01 -0.02,0.01 -0.03,0.01 -0.02,0 -0.03,0.01 -0.02,0 -0.03,0 -0.03,0 c -0.29,0 -0.52,-0.24 -0.52,-0.52 0,-0.29 0.23,-0.53 0.52,-0.53 0.29,0 0.53,0.24 0.53,0.53 z"
         inkscape:connector-curvature="0"
         style="fill:#000000;stroke-width:0" /><path
         id="path6690"
         d="m 224.79,706.91 -0.01,0.02 0,0.03 0,0.03 -0.01,0.02 0,0.03 -0.01,0.02 -0.01,0.03 -0.01,0.02 -0.01,0.02 -0.01,0.03 -0.01,0.02 -0.02,0.02 -0.01,0.02 -0.02,0.02 -0.01,0.02 -0.02,0.02 -0.02,0.02 -0.02,0.01 -0.02,0.02 -0.02,0.01 -0.02,0.02 -0.02,0.01 -0.02,0.01 -0.03,0.01 -0.02,0.01 -0.03,0.01 -0.02,0.01 -0.03,0 -0.02,0.01 -0.03,0 -0.03,0 -0.02,0 c -0.29,0 -0.53,-0.24 -0.53,-0.52 0,-0.29 0.24,-0.53 0.53,-0.53 0.29,0 0.53,0.24 0.53,0.53 z"
         inkscape:connector-curvature="0"
         style="fill:#000000;stroke-width:0" /><path
         id="path6692"
         d="m 238.27,713.84 -0.07,-0.04 -0.07,-0.05 -0.06,-0.04 -0.06,-0.04 -0.06,-0.04 -0.05,-0.04 -0.06,-0.04 -0.05,-0.03 -0.05,-0.04 -0.05,-0.04 -0.05,-0.03 -0.04,-0.04 -0.05,-0.03 -0.04,-0.04 -0.08,-0.06 -0.08,-0.07 -0.07,-0.07 -0.08,-0.07 -0.07,-0.07 -0.06,-0.07 -0.07,-0.08 -0.07,-0.08 -0.07,-0.08 c -0.7,-0.87 -1.05,-1.86 -1.05,-3.02 0,-1.26 0.37,-2.24 1.24,-3.25 0.41,-0.48 0.67,-0.7 1.19,-1.01 l 0.12,0.16 c -0.8,0.62 -1.08,0.97 -1.35,1.71 -0.24,0.67 -0.35,1.42 -0.35,2.42 0,1.04 0.13,1.86 0.4,2.47 0.28,0.62 0.58,0.97 1.3,1.55 z"
         inkscape:connector-curvature="0"
         style="fill:#000000;stroke-width:0" /><path
         id="path6694"
         d="m 241.18,713.84 -0.05,0 -0.05,0 -0.05,0 -0.05,-0.01 -0.05,0 -0.05,-0.01 -0.04,0 -0.05,-0.01 -0.05,-0.01 -0.04,-0.01 -0.05,-0.01 -0.04,-0.01 -0.04,-0.01 -0.04,-0.02 -0.05,-0.01 -0.04,-0.02 -0.04,-0.01 -0.04,-0.02 -0.04,-0.02 -0.04,-0.02 -0.04,-0.02 -0.03,-0.02 -0.04,-0.03 -0.04,-0.02 -0.04,-0.02 -0.03,-0.03 -0.04,-0.03 -0.04,-0.02 -0.03,-0.03 -0.04,-0.03 -0.03,-0.03 -0.04,-0.04 c -0.57,-0.55 -0.95,-1.7 -0.95,-2.86 0,-1.08 0.33,-2.24 0.79,-2.8 0.37,-0.44 0.88,-0.67 1.46,-0.67 v 0.25 c -0.86,0 -1.3,1.07 -1.3,3.13 0,2.11 0.45,3.21 1.31,3.21 h 0 c 0.83,0 1.28,-1.12 1.28,-3.2 0,-2.07 -0.44,-3.14 -1.29,-3.14 v -0.25 c 0.5,0 0.93,0.17 1.29,0.51 0.58,0.55 0.95,1.7 0.95,2.9 0,2.04 -0.9,3.44 -2.2,3.44 z"
         inkscape:connector-curvature="0"
         style="fill:#000000;stroke-width:0" /><path
         id="path6696"
         d="m 245.43,707.55 0,0.03 0,0.03 0,0.03 -0.01,0.02 -0.01,0.03 0,0.03 -0.01,0.02 -0.01,0.03 -0.01,0.03 -0.02,0.02 -0.01,0.02 -0.02,0.03 -0.01,0.02 -0.02,0.02 -0.02,0.02 -0.01,0.02 -0.02,0.02 -0.02,0.02 -0.03,0.01 -0.02,0.02 -0.02,0.01 -0.02,0.02 -0.03,0.01 -0.02,0.01 -0.03,0.01 -0.02,0.01 -0.03,0.01 -0.03,0.01 -0.02,0 -0.03,0.01 -0.03,0 -0.02,0 c -0.3,0 -0.55,-0.25 -0.55,-0.57 0,-0.38 0.34,-0.53 0.55,-0.53 0.2,0 0.55,0.16 0.55,0.53 z"
         inkscape:connector-curvature="0"
         style="fill:#000000;stroke-width:0" /><path
         id="path6698"
         d="m 250.59,713.7 h -3.68 l -0.59,-1.46 0.17,-0.08 c 0.43,0.68 0.61,0.81 1.15,0.81 h 2.16 l -1.97,-5.92 h 0.65 l 2.11,6.49 z"
         inkscape:connector-curvature="0"
         style="fill:#000000;stroke-width:0" /><path
         id="path6700"
         d="m 253.63,713.84 -0.05,0 -0.05,0 -0.05,0 -0.05,-0.01 -0.05,0 -0.05,-0.01 -0.04,0 -0.05,-0.01 -0.04,-0.01 -0.05,-0.01 -0.04,-0.01 -0.05,-0.01 -0.04,-0.01 -0.04,-0.02 -0.04,-0.01 -0.04,-0.02 -0.05,-0.01 -0.04,-0.02 -0.04,-0.02 -0.03,-0.02 -0.04,-0.02 -0.04,-0.02 -0.04,-0.03 -0.04,-0.02 -0.03,-0.02 -0.04,-0.03 -0.04,-0.03 -0.03,-0.02 -0.04,-0.03 -0.03,-0.03 -0.04,-0.03 -0.03,-0.04 c -0.58,-0.55 -0.96,-1.7 -0.96,-2.86 0,-1.08 0.33,-2.24 0.8,-2.8 0.37,-0.44 0.87,-0.67 1.45,-0.67 v 0.25 c -0.86,0 -1.29,1.07 -1.29,3.13 0,2.11 0.44,3.21 1.3,3.21 h 0 c 0.83,0 1.28,-1.12 1.28,-3.2 0,-2.07 -0.43,-3.14 -1.29,-3.14 v -0.25 c 0.51,0 0.93,0.17 1.29,0.51 0.58,0.55 0.96,1.7 0.96,2.9 0,2.04 -0.91,3.44 -2.21,3.44 z"
         inkscape:connector-curvature="0"
         style="fill:#000000;stroke-width:0" /><path
         id="path6702"
         d="m 257.88,712.92 h 1.95 c 0.16,0 0.2,0.02 0.23,0.09 l 0.38,0.88 -0.09,0.07 c -0.15,-0.21 -0.25,-0.26 -0.46,-0.26 h -2.07 l -1.09,-2.35 c -0.01,-0.02 -0.01,-0.03 -0.01,-0.05 0,-0.05 0.04,-0.08 0.12,-0.08 0.32,0 0.72,-0.07 1.12,-0.2 1.15,-0.37 1.68,-0.98 1.68,-1.97 0,-0.95 -0.61,-1.7 -1.39,-1.7 -0.2,0 -0.37,0.07 -0.66,0.29 -0.32,0.23 -0.55,0.33 -0.76,0.33 -0.29,0 -0.43,-0.12 -0.43,-0.37 0,-0.38 0.47,-0.61 1.22,-0.61 0.83,0 1.55,0.26 2.05,0.77 0.45,0.45 0.66,1.01 0.66,1.77 0,0.71 -0.19,1.17 -0.69,1.67 -0.43,0.44 -1,0.66 -2.17,0.87 z"
         inkscape:connector-curvature="0"
         style="fill:#000000;stroke-width:0" /><path
         id="path6704"
         d="m 261.44,705.37 0.07,0.04 0.07,0.04 0.06,0.05 0.06,0.04 0.06,0.04 0.05,0.03 0.06,0.04 0.05,0.04 0.05,0.04 0.05,0.03 0.05,0.04 0.04,0.03 0.05,0.04 0.04,0.03 0.08,0.07 0.08,0.07 0.07,0.07 0.08,0.07 0.07,0.07 0.06,0.07 0.07,0.08 0.07,0.08 0.07,0.08 c 0.7,0.86 1.05,1.86 1.05,3.02 0,1.27 -0.37,2.23 -1.24,3.25 -0.41,0.47 -0.67,0.69 -1.19,1.01 l -0.12,-0.16 c 0.8,-0.63 1.07,-0.97 1.35,-1.72 0.23,-0.66 0.35,-1.42 0.35,-2.41 0,-1.03 -0.13,-1.86 -0.4,-2.46 -0.28,-0.63 -0.58,-0.99 -1.3,-1.56 z"
         inkscape:connector-curvature="0"
         style="fill:#000000;stroke-width:0" /><path
         id="path6706"
         d="m 266.41,710.33 -1.25,-0.63 v -0.1 c 0.08,0.04 0.16,0.06 0.18,0.08 0.13,0.05 0.25,0.08 0.32,0.08 0.14,0 0.21,-0.11 0.21,-0.33 v -3.15 c 0,-0.23 -0.06,-0.39 -0.17,-0.45 -0.1,-0.07 -0.2,-0.09 -0.5,-0.1 v -0.1 h 1.93 v 0.1 c -0.55,0.01 -0.67,0.08 -0.67,0.42 v 4.17 z"
         inkscape:connector-curvature="0"
         style="fill:#000000;stroke-width:0" /><path
         id="path6708"
         d="m 269.64,710.33 -0.04,0 -0.03,0 -0.04,0 -0.03,0 -0.03,-0.01 -0.04,0 -0.03,-0.01 -0.03,0 -0.03,-0.01 -0.04,0 -0.03,-0.01 -0.03,-0.01 -0.03,-0.01 -0.03,-0.01 -0.03,-0.01 -0.02,-0.01 -0.03,-0.01 -0.03,-0.01 -0.03,-0.01 -0.03,-0.02 -0.02,-0.01 -0.03,-0.02 -0.03,-0.01 -0.02,-0.02 -0.03,-0.02 -0.03,-0.02 -0.02,-0.02 -0.03,-0.01 -0.02,-0.02 -0.03,-0.03 -0.02,-0.02 -0.02,-0.02 c -0.41,-0.39 -0.67,-1.19 -0.67,-2 0,-0.76 0.23,-1.57 0.55,-1.96 0.26,-0.31 0.62,-0.48 1.02,-0.48 v 0.18 c -0.6,0 -0.9,0.75 -0.9,2.2 0,1.47 0.31,2.24 0.91,2.24 h 0 c 0.58,0 0.9,-0.79 0.9,-2.24 0,-1.45 -0.31,-2.2 -0.91,-2.2 v -0.18 c 0.36,0 0.66,0.12 0.91,0.37 0.4,0.38 0.66,1.18 0.66,2.03 0,1.42 -0.63,2.4 -1.54,2.4 z"
         inkscape:connector-curvature="0"
         style="fill:#000000;stroke-width:0" /><polygon
         id="polygon6710"
         points="275.24,710.96 275.24,710.4 280.33,710.4 280.33,710.96 "
         style="fill:#000000;stroke-width:0" /><polygon
         id="polygon6712"
         points="275.24,708.94 275.24,708.39 280.33,708.39 280.33,708.94 "
         style="fill:#000000;stroke-width:0" /><path
         id="path6714"
         d="m 286.66,713.84 -0.07,-0.04 -0.06,-0.05 -0.06,-0.04 -0.07,-0.04 -0.05,-0.04 -0.06,-0.04 -0.05,-0.04 -0.06,-0.03 -0.05,-0.04 -0.05,-0.04 -0.04,-0.03 -0.05,-0.04 -0.04,-0.03 -0.05,-0.04 -0.08,-0.06 -0.08,-0.07 -0.07,-0.07 -0.07,-0.07 -0.07,-0.07 -0.07,-0.07 -0.07,-0.08 -0.06,-0.08 -0.07,-0.08 c -0.71,-0.87 -1.06,-1.86 -1.06,-3.02 0,-1.26 0.37,-2.24 1.25,-3.25 0.41,-0.48 0.66,-0.7 1.18,-1.01 l 0.12,0.16 c -0.8,0.62 -1.07,0.97 -1.34,1.71 -0.24,0.67 -0.35,1.42 -0.35,2.42 0,1.04 0.13,1.86 0.4,2.47 0.28,0.62 0.57,0.97 1.29,1.55 z"
         inkscape:connector-curvature="0"
         style="fill:#000000;stroke-width:0" /><path
         id="path6716"
         d="m 289.57,713.84 -0.05,0 -0.05,0 -0.05,0 -0.05,-0.01 -0.05,0 -0.04,-0.01 -0.05,0 -0.05,-0.01 -0.04,-0.01 -0.05,-0.01 -0.04,-0.01 -0.04,-0.01 -0.05,-0.01 -0.04,-0.02 -0.04,-0.01 -0.04,-0.02 -0.04,-0.01 -0.04,-0.02 -0.04,-0.02 -0.04,-0.02 -0.04,-0.02 -0.04,-0.02 -0.04,-0.03 -0.04,-0.02 -0.03,-0.02 -0.04,-0.03 -0.04,-0.03 -0.03,-0.02 -0.04,-0.03 -0.03,-0.03 -0.04,-0.03 -0.03,-0.04 c -0.58,-0.55 -0.96,-1.7 -0.96,-2.86 0,-1.08 0.33,-2.24 0.8,-2.8 0.37,-0.44 0.87,-0.67 1.45,-0.67 v 0.25 c -0.86,0 -1.29,1.07 -1.29,3.13 0,2.11 0.44,3.21 1.3,3.21 h 0 c 0.84,0 1.28,-1.12 1.28,-3.2 0,-2.07 -0.43,-3.14 -1.29,-3.14 v -0.25 c 0.51,0 0.94,0.17 1.29,0.51 0.58,0.55 0.96,1.7 0.96,2.9 0,2.04 -0.91,3.44 -2.21,3.44 z"
         inkscape:connector-curvature="0"
         style="fill:#000000;stroke-width:0" /><path
         id="path6718"
         d="m 293.83,707.55 0,0.03 -0.01,0.03 0,0.03 -0.01,0.02 0,0.03 -0.01,0.03 -0.01,0.02 -0.01,0.03 -0.01,0.03 -0.01,0.02 -0.02,0.02 -0.01,0.03 -0.02,0.02 -0.01,0.02 -0.02,0.02 -0.02,0.02 -0.02,0.02 -0.02,0.02 -0.02,0.01 -0.02,0.02 -0.03,0.01 -0.02,0.02 -0.02,0.01 -0.03,0.01 -0.02,0.01 -0.03,0.01 -0.03,0.01 -0.02,0.01 -0.03,0 -0.03,0.01 -0.02,0 -0.03,0 c -0.3,0 -0.55,-0.25 -0.55,-0.57 0,-0.38 0.34,-0.53 0.55,-0.53 0.21,0 0.56,0.16 0.56,0.53 z"
         inkscape:connector-curvature="0"
         style="fill:#000000;stroke-width:0" /><path
         id="path6720"
         d="m 296.32,712.92 h 1.95 c 0.15,0 0.19,0.02 0.22,0.09 l 0.38,0.88 -0.09,0.07 c -0.15,-0.21 -0.24,-0.26 -0.45,-0.26 h -2.08 l -1.09,-2.35 c -0.01,-0.02 -0.01,-0.03 -0.01,-0.05 0,-0.05 0.04,-0.08 0.12,-0.08 0.32,0 0.72,-0.07 1.12,-0.2 1.15,-0.37 1.68,-0.98 1.68,-1.97 0,-0.95 -0.61,-1.7 -1.39,-1.7 -0.2,0 -0.36,0.07 -0.66,0.29 -0.32,0.23 -0.55,0.33 -0.76,0.33 -0.29,0 -0.43,-0.12 -0.43,-0.37 0,-0.38 0.47,-0.61 1.22,-0.61 0.83,0 1.55,0.26 2.05,0.77 0.45,0.45 0.66,1.01 0.66,1.77 0,0.71 -0.19,1.17 -0.68,1.67 -0.44,0.44 -1.01,0.66 -2.18,0.87 z"
         inkscape:connector-curvature="0"
         style="fill:#000000;stroke-width:0" /><path
         id="path6722"
         d="m 301.3,712.92 h 1.95 c 0.16,0 0.2,0.02 0.23,0.09 l 0.37,0.88 -0.08,0.07 c -0.16,-0.21 -0.25,-0.26 -0.46,-0.26 h -2.08 l -1.09,-2.35 c -0.01,-0.02 -0.01,-0.03 -0.01,-0.05 0,-0.05 0.04,-0.08 0.12,-0.08 0.32,0 0.72,-0.07 1.13,-0.2 1.14,-0.37 1.67,-0.98 1.67,-1.97 0,-0.95 -0.61,-1.7 -1.38,-1.7 -0.2,0 -0.37,0.07 -0.67,0.29 -0.32,0.23 -0.55,0.33 -0.76,0.33 -0.29,0 -0.42,-0.12 -0.42,-0.37 0,-0.38 0.46,-0.61 1.21,-0.61 0.83,0 1.55,0.26 2.05,0.77 0.46,0.45 0.66,1.01 0.66,1.77 0,0.71 -0.18,1.17 -0.68,1.67 -0.44,0.44 -1.01,0.66 -2.18,0.87 z"
         inkscape:connector-curvature="0"
         style="fill:#000000;stroke-width:0" /><path
         id="path6724"
         d="m 307.01,713.84 -0.06,0 -0.05,0 -0.05,0 -0.04,-0.01 -0.05,0 -0.05,-0.01 -0.05,0 -0.04,-0.01 -0.05,-0.01 -0.04,-0.01 -0.05,-0.01 -0.04,-0.01 -0.04,-0.01 -0.05,-0.02 -0.04,-0.01 -0.04,-0.02 -0.04,-0.01 -0.04,-0.02 -0.04,-0.02 -0.04,-0.02 -0.04,-0.02 -0.04,-0.02 -0.03,-0.03 -0.04,-0.02 -0.04,-0.02 -0.04,-0.03 -0.03,-0.03 -0.04,-0.02 -0.03,-0.03 -0.04,-0.03 -0.03,-0.03 -0.04,-0.04 c -0.58,-0.55 -0.95,-1.7 -0.95,-2.86 0,-1.08 0.33,-2.24 0.79,-2.8 0.37,-0.44 0.88,-0.67 1.45,-0.67 v 0.25 c -0.85,0 -1.29,1.07 -1.29,3.13 0,2.11 0.45,3.21 1.31,3.21 h 0 c 0.83,0 1.28,-1.12 1.28,-3.2 0,-2.07 -0.44,-3.14 -1.3,-3.14 v -0.25 c 0.51,0 0.94,0.17 1.3,0.51 0.57,0.55 0.95,1.7 0.95,2.9 0,2.04 -0.9,3.44 -2.2,3.44 z"
         inkscape:connector-curvature="0"
         style="fill:#000000;stroke-width:0" /><path
         id="path6726"
         d="m 313.93,713.7 h -3.69 l -0.58,-1.46 0.17,-0.08 c 0.43,0.68 0.6,0.81 1.15,0.81 h 2.16 l -1.97,-5.92 h 0.65 l 2.11,6.49 z"
         inkscape:connector-curvature="0"
         style="fill:#000000;stroke-width:0" /><path
         id="path6728"
         d="m 316.24,712.92 h 1.95 c 0.16,0 0.2,0.02 0.23,0.09 l 0.38,0.88 -0.09,0.07 c -0.15,-0.21 -0.25,-0.26 -0.46,-0.26 h -2.08 l -1.08,-2.35 c -0.01,-0.02 -0.01,-0.03 -0.01,-0.05 0,-0.05 0.04,-0.08 0.12,-0.08 0.32,0 0.71,-0.07 1.12,-0.2 1.14,-0.37 1.67,-0.98 1.67,-1.97 0,-0.95 -0.6,-1.7 -1.38,-1.7 -0.2,0 -0.37,0.07 -0.67,0.29 -0.32,0.23 -0.55,0.33 -0.75,0.33 -0.29,0 -0.43,-0.12 -0.43,-0.37 0,-0.38 0.47,-0.61 1.21,-0.61 0.84,0 1.55,0.26 2.05,0.77 0.46,0.45 0.67,1.01 0.67,1.77 0,0.71 -0.19,1.17 -0.69,1.67 -0.44,0.44 -1,0.66 -2.18,0.87 z"
         inkscape:connector-curvature="0"
         style="fill:#000000;stroke-width:0" /><path
         id="path6730"
         d="m 322.88,707.55 0,0.03 0,0.03 0,0.03 -0.01,0.02 -0.01,0.03 0,0.03 -0.01,0.02 -0.01,0.03 -0.01,0.03 -0.02,0.02 -0.01,0.02 -0.01,0.03 -0.02,0.02 -0.02,0.02 -0.02,0.02 -0.01,0.02 -0.02,0.02 -0.02,0.02 -0.02,0.01 -0.03,0.02 -0.02,0.01 -0.02,0.02 -0.03,0.01 -0.02,0.01 -0.03,0.01 -0.02,0.01 -0.03,0.01 -0.02,0.01 -0.03,0 -0.03,0.01 -0.03,0 -0.02,0 c -0.3,0 -0.55,-0.25 -0.55,-0.57 0,-0.38 0.34,-0.53 0.55,-0.53 0.21,0 0.55,0.16 0.55,0.53 z"
         inkscape:connector-curvature="0"
         style="fill:#000000;stroke-width:0" /><path
         id="path6732"
         d="m 327.04,707.55 0,0.03 -0.01,0.03 0,0.03 0,0.02 -0.01,0.03 -0.01,0.03 -0.01,0.02 -0.01,0.03 -0.01,0.03 -0.01,0.02 -0.02,0.02 -0.01,0.03 -0.02,0.02 -0.01,0.02 -0.02,0.02 -0.02,0.02 -0.02,0.02 -0.02,0.02 -0.02,0.01 -0.02,0.02 -0.03,0.01 -0.02,0.02 -0.02,0.01 -0.03,0.01 -0.02,0.01 -0.03,0.01 -0.02,0.01 -0.03,0.01 -0.03,0 -0.02,0.01 -0.03,0 -0.03,0 c -0.3,0 -0.55,-0.25 -0.55,-0.57 0,-0.38 0.34,-0.53 0.55,-0.53 0.21,0 0.56,0.16 0.56,0.53 z"
         inkscape:connector-curvature="0"
         style="fill:#000000;stroke-width:0" /><path
         id="path6734"
         d="m 331.18,707.55 0,0.03 0,0.03 0,0.03 -0.01,0.02 -0.01,0.03 0,0.03 -0.01,0.02 -0.01,0.03 -0.01,0.03 -0.02,0.02 -0.01,0.02 -0.02,0.03 -0.01,0.02 -0.02,0.02 -0.02,0.02 -0.01,0.02 -0.02,0.02 -0.02,0.02 -0.03,0.01 -0.02,0.02 -0.02,0.01 -0.02,0.02 -0.03,0.01 -0.02,0.01 -0.03,0.01 -0.02,0.01 -0.03,0.01 -0.03,0.01 -0.02,0 -0.03,0.01 -0.03,0 -0.03,0 c -0.29,0 -0.54,-0.25 -0.54,-0.57 0,-0.38 0.34,-0.53 0.54,-0.53 0.21,0 0.56,0.16 0.56,0.53 z"
         inkscape:connector-curvature="0"
         style="fill:#000000;stroke-width:0" /><path
         id="path6736"
         d="m 332.25,705.37 0.07,0.04 0.07,0.04 0.06,0.05 0.06,0.04 0.06,0.04 0.05,0.03 0.06,0.04 0.05,0.04 0.05,0.04 0.05,0.03 0.05,0.04 0.04,0.03 0.05,0.04 0.04,0.03 0.08,0.07 0.08,0.07 0.07,0.07 0.08,0.07 0.07,0.07 0.06,0.07 0.07,0.08 0.07,0.08 0.07,0.08 c 0.7,0.86 1.05,1.86 1.05,3.02 0,1.27 -0.37,2.23 -1.24,3.25 -0.41,0.47 -0.67,0.69 -1.19,1.01 l -0.12,-0.16 c 0.8,-0.63 1.07,-0.97 1.35,-1.72 0.23,-0.66 0.35,-1.42 0.35,-2.41 0,-1.03 -0.13,-1.86 -0.4,-2.46 -0.28,-0.63 -0.58,-0.99 -1.3,-1.56 z"
         inkscape:connector-curvature="0"
         style="fill:#000000;stroke-width:0" /><path
         id="path6738"
         d="m 337.21,708.21 0.07,0.04 0.06,0.03 0.06,0.03 0.05,0.04 0.05,0.03 0.05,0.03 0.05,0.03 0.05,0.04 0.04,0.03 0.04,0.03 0.04,0.03 0.04,0.04 0.04,0.03 0.03,0.03 0.03,0.03 0.03,0.04 0.02,0.03 0.03,0.04 0.02,0.03 0.02,0.03 0.02,0.04 0.02,0.04 0.01,0.03 0.02,0.04 0.01,0.04 0.01,0.04 0.01,0.03 0,0.04 0.01,0.05 0,0.04 0.01,0.04 0,0.04 c 0,0.57 -0.51,0.99 -1.2,0.99 l -0.06,-0.19 c 0.48,0 0.78,-0.31 0.78,-0.79 0,-0.39 -0.2,-0.71 -0.6,-0.97 -0.03,-0.02 -0.03,-0.02 -0.06,-0.04 h 0 c -0.62,0.4 -0.87,0.72 -0.87,1.11 0,0.4 0.31,0.69 0.75,0.69 l 0.06,0.19 c -0.76,0 -1.33,-0.46 -1.33,-1.1 0,-0.45 0.14,-0.65 0.87,-1.29 -0.75,-0.57 -0.91,-0.79 -0.91,-1.26 0,-0.67 0.55,-1.15 1.34,-1.15 l 0.08,0.2 c -0.53,0 -0.89,0.4 -0.89,1.01 0,0.44 0.16,0.73 0.56,1.06 l 0.42,-0.31 c 0.51,-0.36 0.67,-0.61 0.67,-1 0,-0.45 -0.31,-0.76 -0.76,-0.76 l -0.08,-0.2 c 0.84,0 1.37,0.46 1.37,1.18 0,0.53 -0.24,0.88 -1.08,1.5 z"
         inkscape:connector-curvature="0"
         style="fill:#000000;stroke-width:0" /></g>  </g>
</svg>
