<?xml version="1.0" encoding="UTF-8" standalone="no"?>
<!-- Created with Inkscape (http://www.inkscape.org/) -->

<svg
   xmlns:ns0="http://www.iki.fi/pav/software/textext/"
   xmlns:dc="http://purl.org/dc/elements/1.1/"
   xmlns:cc="http://creativecommons.org/ns#"
   xmlns:rdf="http://www.w3.org/1999/02/22-rdf-syntax-ns#"
   xmlns:svg="http://www.w3.org/2000/svg"
   xmlns="http://www.w3.org/2000/svg"
   xmlns:sodipodi="http://sodipodi.sourceforge.net/DTD/sodipodi-0.dtd"
   xmlns:inkscape="http://www.inkscape.org/namespaces/inkscape"
   width="496.06299"
   height="354.33069"
   id="svg2"
   version="1.1"
   inkscape:version="0.48.4 r9939"
   sodipodi:docname="div27.eps">
  <sodipodi:namedview
     id="base"
     pagecolor="#ffffff"
     bordercolor="#666666"
     borderopacity="1.0"
     inkscape:pageopacity="0.0"
     inkscape:pageshadow="2"
     inkscape:zoom="1.6848668"
     inkscape:cx="246.20102"
     inkscape:cy="179.69518"
     inkscape:document-units="cm"
     inkscape:current-layer="layer1"
     showgrid="false"
     units="cm"
     inkscape:object-nodes="true"
     inkscape:window-width="1366"
     inkscape:window-height="744"
     inkscape:window-x="0"
     inkscape:window-y="24"
     inkscape:window-maximized="1">
    <inkscape:grid
       type="xygrid"
       id="grid2985"
       empspacing="5"
       visible="true"
       enabled="true"
       snapvisiblegridlinesonly="true" />
  </sodipodi:namedview>
  <defs
     id="defs4">
    <marker
       inkscape:stockid="Arrow1Mstart"
       orient="auto"
       refY="0"
       refX="0"
       id="Arrow1Mstart"
       style="overflow:visible">
      <path
         inkscape:connector-curvature="0"
         id="path3775"
         d="M 0,0 5,-5 -12.5,0 5,5 0,0 z"
         style="fill-rule:evenodd;stroke:#000000;stroke-width:1pt"
         transform="matrix(0.4,0,0,0.4,4,0)" />
    </marker>
    <marker
       inkscape:stockid="Arrow1Mend"
       orient="auto"
       refY="0"
       refX="0"
       id="Arrow1Mend"
       style="overflow:visible">
      <path
         inkscape:connector-curvature="0"
         id="path3778"
         d="M 0,0 5,-5 -12.5,0 5,5 0,0 z"
         style="fill-rule:evenodd;stroke:#000000;stroke-width:1pt"
         transform="matrix(-0.4,0,0,-0.4,-4,0)" />
    </marker>
    <marker
       style="overflow:visible"
       id="Arrow1Mstart-7"
       refX="0"
       refY="0"
       orient="auto"
       inkscape:stockid="Arrow1Mstart">
      <path
         transform="matrix(0.4,0,0,0.4,4,0)"
         style="fill-rule:evenodd;stroke:#000000;stroke-width:1pt"
         d="M 0,0 5,-5 -12.5,0 5,5 0,0 z"
         id="path3775-8"
         inkscape:connector-curvature="0" />
    </marker>
  </defs>
  <metadata
     id="metadata7">
    <rdf:RDF>
      <cc:Work
         rdf:about="">
        <dc:format>image/svg+xml</dc:format>
        <dc:type
           rdf:resource="http://purl.org/dc/dcmitype/StillImage" />
        <dc:title></dc:title>
      </cc:Work>
    </rdf:RDF>
  </metadata>
  <g
     inkscape:label="Layer 1"
     inkscape:groupmode="layer"
     id="layer1"
     transform="translate(0,-698.03016)">
    <text
       sodipodi:linespacing="100%"
       id="text5818"
       y="754.07056"
       x="61.700558"
       style="font-size:12px;font-style:normal;font-variant:normal;font-weight:normal;font-stretch:normal;text-align:start;line-height:100%;letter-spacing:0px;word-spacing:0px;text-anchor:start;fill:#000000;fill-opacity:1;stroke:none;font-family:LMRoman12;-inkscape-font-specification:Sans"
       xml:space="preserve"><tspan
         y="754.07056"
         x="61.700558"
         id="tspan5820"
         sodipodi:role="line" /></text>
    <flowRoot
       xml:space="preserve"
       id="flowRoot6377"
       style="font-size:12px;font-style:normal;font-variant:normal;font-weight:normal;font-stretch:normal;text-align:start;line-height:100%;letter-spacing:0px;word-spacing:0px;text-anchor:start;fill:#000000;fill-opacity:1;stroke:none;font-family:LMRoman12;-inkscape-font-specification:Sans"><flowRegion
         id="flowRegion6379"><rect
           id="rect6381"
           width="27.681772"
           height="40.319103"
           x="219.34796"
           y="87.141403" /></flowRegion><flowPara
         id="flowPara6383" /></flowRoot>    <text
       xml:space="preserve"
       style="font-size:12px;font-style:normal;font-variant:normal;font-weight:normal;font-stretch:normal;text-align:start;line-height:50%;letter-spacing:0px;word-spacing:0px;text-anchor:start;fill:#000000;fill-opacity:1;stroke:none;font-family:LMRoman12;-inkscape-font-specification:Sans"
       x="275.91507"
       y="753.27734"
       id="text6385"
       sodipodi:linespacing="50%"><tspan
         sodipodi:role="line"
         id="tspan6387"
         x="275.91507"
         y="753.27734" /></text>
    <text
       xml:space="preserve"
       style="font-size:12px;font-style:normal;font-variant:normal;font-weight:normal;font-stretch:normal;text-align:start;line-height:100%;letter-spacing:0px;word-spacing:0px;text-anchor:start;fill:#000000;fill-opacity:1;stroke:none;font-family:LMRoman12;-inkscape-font-specification:Sans"
       x="348.65417"
       y="892.41718"
       id="text3884"
       sodipodi:linespacing="100%"><tspan
         sodipodi:role="line"
         x="348.65417"
         y="892.41718"
         id="tspan3890" /></text>
    <text
       xml:space="preserve"
       style="font-size:12px;font-style:normal;font-variant:normal;font-weight:normal;font-stretch:normal;text-align:start;line-height:150%;letter-spacing:0px;word-spacing:0px;text-anchor:start;fill:#000000;fill-opacity:1;stroke:none;font-family:LMRoman12;-inkscape-font-specification:Sans"
       x="216.96629"
       y="948.92749"
       id="text3887"
       sodipodi:linespacing="150%"><tspan
         sodipodi:role="line"
         id="tspan3889"
         x="216.96629"
         y="948.92749" /></text>
    <text
       xml:space="preserve"
       style="font-size:12px;font-style:normal;font-variant:normal;font-weight:normal;font-stretch:normal;text-align:start;line-height:150%;letter-spacing:0px;word-spacing:0px;text-anchor:start;fill:#000000;fill-opacity:1;stroke:none;font-family:LMRoman12;-inkscape-font-specification:Sans"
       x="173"
       y="759.11084"
       id="text7389"
       sodipodi:linespacing="150%"><tspan
         sodipodi:role="line"
         id="tspan7391"
         x="173"
         y="759.11084" /></text>
    <text
       xml:space="preserve"
       style="font-size:12px;font-style:normal;font-variant:normal;font-weight:normal;font-stretch:normal;text-align:start;line-height:150%;letter-spacing:0px;word-spacing:0px;text-anchor:start;fill:#000000;fill-opacity:1;stroke:none;font-family:LMRoman12;-inkscape-font-specification:Sans"
       x="262.90411"
       y="800.76282"
       id="text11589"
       sodipodi:linespacing="150%"><tspan
         sodipodi:role="line"
         id="tspan11591"
         x="262.90411"
         y="800.76282"
         dx="0 0 0 -2.5180867">   1 0 1 1 0 1  0</tspan><tspan
         sodipodi:role="line"
         x="262.90411"
         y="818.76282"
         id="tspan12762">1 0 1 0 0 1 0  1</tspan><tspan
         sodipodi:role="line"
         x="262.90411"
         y="836.76282"
         id="tspan12760" /></text>
    <path
       inkscape:connector-curvature="0"
       id="path12575"
       d="m 265.24498,819.89643 -7.87275,8.48812"
       style="fill:none;stroke:#000000;stroke-width:0.5;stroke-linecap:square;stroke-linejoin:round;stroke-miterlimit:4;stroke-opacity:1;stroke-dasharray:none;stroke-dashoffset:0;marker-end:url(#Arrow1Mend)" />
    <text
       sodipodi:linespacing="150%"
       id="text12764"
       y="848.61829"
       x="253.1362"
       style="font-size:12px;font-style:normal;font-variant:normal;font-weight:normal;font-stretch:normal;text-align:start;line-height:150%;letter-spacing:0px;word-spacing:0px;text-anchor:start;fill:#000000;fill-opacity:1;stroke:none;font-family:LMRoman12;-inkscape-font-specification:Sans"
       xml:space="preserve"><tspan
         y="848.61829"
         x="253.1362"
         id="tspan12766"
         sodipodi:role="line"
         dx="0 0 0 1.4837968">   0 1 0 0 1 1 1 0</tspan><tspan
         id="tspan12768"
         y="866.61829"
         x="253.1362"
         sodipodi:role="line">+ 1 0 1 0 0 1 0 1</tspan><tspan
         id="tspan12770"
         y="884.61829"
         x="253.1362"
         sodipodi:role="line" /></text>
    <text
       xml:space="preserve"
       style="font-size:12px;font-style:normal;font-variant:normal;font-weight:normal;font-stretch:normal;text-align:start;line-height:150%;letter-spacing:0px;word-spacing:0px;text-anchor:start;fill:#000000;fill-opacity:1;stroke:none;font-family:LMRoman12;-inkscape-font-specification:Sans"
       x="216.90637"
       y="831.86865"
       id="text12772"
       sodipodi:linespacing="150%"><tspan
         sodipodi:role="line"
         id="tspan12774"
         x="216.90637"
         y="831.86865">sign bit</tspan></text>
    <text
       xml:space="preserve"
       style="font-size:12px;font-style:normal;font-variant:normal;font-weight:normal;font-stretch:normal;text-align:start;line-height:150%;letter-spacing:0px;word-spacing:0px;text-anchor:start;fill:#000000;fill-opacity:1;stroke:none;font-family:LMRoman12;-inkscape-font-specification:Sans"
       x="347.50522"
       y="185.47461"
       id="text12776"
       sodipodi:linespacing="150%"
       transform="translate(0,698.03016)"><tspan
         sodipodi:role="line"
         id="tspan12778"
         x="347.50522"
         y="185.47461" /></text>
    <path
       style="fill:none;stroke:#000000;stroke-width:0.80000001;stroke-linecap:square;stroke-linejoin:round;stroke-miterlimit:4;stroke-opacity:1;stroke-dasharray:none;stroke-dashoffset:0"
       d="m 255.60803,872.82143 89.91809,0"
       id="path12780"
       inkscape:connector-curvature="0" />
    <text
       sodipodi:linespacing="150%"
       id="text12782"
       y="884.50726"
       x="266.89108"
       style="font-size:12px;font-style:normal;font-variant:normal;font-weight:normal;font-stretch:normal;text-align:start;line-height:150%;letter-spacing:0px;word-spacing:0px;text-anchor:start;fill:#000000;fill-opacity:1;stroke:none;font-family:LMRoman12;-inkscape-font-specification:Sans"
       xml:space="preserve"><tspan
         id="tspan12786"
         y="884.50726"
         x="266.89108"
         sodipodi:role="line">1 1 1 1 0 0 1 1 </tspan><tspan
         id="tspan12788"
         y="902.50726"
         x="266.89108"
         sodipodi:role="line" /></text>
    <text
       sodipodi:linespacing="150%"
       id="text12981"
       y="906.90283"
       x="160.49568"
       style="font-size:12px;font-style:normal;font-variant:normal;font-weight:normal;font-stretch:normal;text-align:start;line-height:150%;letter-spacing:0px;word-spacing:0px;text-anchor:start;fill:#000000;fill-opacity:1;stroke:none;font-family:LMRoman12;-inkscape-font-specification:Sans"
       xml:space="preserve"><tspan
         y="906.90283"
         x="160.49568"
         id="tspan12983"
         sodipodi:role="line">No carry 1'st complement</tspan></text>
    <g
       id="g14221"
       transform="matrix(1.2,0,0,-1.2,-355.7056,1647.0508)"
       xml:space="preserve"
       stroke="black"
       stroke-linecap="butt"
       stroke-linejoin="miter"
       stroke-miterlimit="10.433"
       stroke-dasharray="none"
       stroke-dashoffset="0"
       stroke-opacity="1"
       fill="none"
       fill-rule="evenodd"
       fill-opacity="1"
       font-style="normal"
       font-variant="normal"
       font-weight="normal"
       font-stretch="normal"
       font-size-adjust="none"
       letter-spacing="normal"
       word-spacing="normal"
       text-anchor="start"
       ns0:text="\\begin{align*}\n\\text{Binary equivalent of}~ 90 =\\\\\n\\therefore ~\\text{1\'st complement representation of} -90 =\n\\end{align*}"
       ns0:preamble="/home/sriranga/Desktop/Prism_BasicElectronics/preamble.tex"
       style="font-style:normal;font-variant:normal;font-weight:normal;font-stretch:normal;letter-spacing:normal;word-spacing:normal;text-anchor:start;fill:none;stroke:#000000;stroke-width:1;stroke-linecap:butt;stroke-linejoin:miter;stroke-miterlimit:10.43299961;stroke-opacity:1;stroke-dasharray:none;stroke-dashoffset:0"><path
         d="M381.29,713.7 V713.51 C382.13,713.46,382.24,713.35,382.24,712.62 V708.21 C382.24,707.47,382.12,707.34,381.29,707.31 V707.12 H384.61 C385.39,707.12,386.1,707.33,386.46,707.67 C386.82,707.99,387.02,708.44,387.02,708.91 C387.02,709.35,386.84,709.75,386.53,710.04 C386.23,710.3,385.97,710.42,385.32,710.58 C385.84,710.71,386.05,710.81,386.29,711.02 C386.53,711.24,386.68,711.6,386.68,712.01 C386.68,713.12,385.8,713.7,384.08,713.7 L383.92,713.33 C385.06,713.33,385.67,712.86,385.67,711.97 C385.67,711.2,385.14,710.76,384.2,710.76 H383.26 V710.36 C384.23,710.36,384.68,710.31,385.04,710.16 C385.61,709.93,385.88,709.53,385.88,708.9 C385.88,708.37,385.67,707.98,385.27,707.75 C384.95,707.57,384.54,707.49,383.89,707.49 C383.4,707.49,383.26,707.58,383.26,707.9 V710.36 V710.76 V713.04 C383.26,713.24,383.33,713.33,383.48,713.33 H383.92 L384.08,713.7 Z "
         stroke-width="0"
         fill="black"
         id="path14223" /><path
         d="M389.51,711.7 L387.96,711.15 V711 L388.05,711.01 C388.16,711.03,388.29,711.04,388.38,711.04 C388.62,711.04,388.71,710.88,388.71,710.44 V708.14 C388.71,707.42,388.61,707.31,387.92,707.27 V707.12 H390.28 V707.27 C389.63,707.32,389.55,707.42,389.55,708.14 V711.66 Z "
         stroke-width="0"
         fill="black"
         id="path14225" /><path
         d="M389.04,713.91 L389.01,713.91 L388.99,713.91 L388.97,713.9 L388.94,713.9 L388.92,713.89 L388.89,713.89 L388.87,713.88 L388.85,713.87 L388.83,713.86 L388.81,713.85 L388.78,713.84 L388.76,713.82 L388.74,713.81 L388.73,713.79 L388.71,713.78 L388.69,713.76 L388.67,713.74 L388.66,713.72 L388.64,713.71 L388.63,713.69 L388.62,713.67 L388.6,713.64 L388.59,713.62 L388.58,713.6 L388.57,713.58 L388.56,713.55 L388.56,713.53 L388.55,713.5 L388.55,713.48 L388.54,713.45 L388.54,713.43 L388.54,713.4 C388.54,713.12,388.76,712.9,389.04,712.9 C389.33,712.9,389.56,713.11,389.56,713.4 C389.56,713.68,389.33,713.91,389.04,713.91 Z "
         stroke-width="0"
         fill="black"
         id="path14227" /><path
         d="M390.7,711.08 L390.7,711.08 L390.71,711.08 L390.71,711.09 L390.72,711.09 L390.73,711.09 L390.73,711.09 L390.74,711.1 L390.75,711.1 L390.75,711.1 L390.76,711.1 L390.78,711.1 L390.79,711.11 L390.81,711.11 L390.83,711.11 L390.85,711.11 L390.86,711.11 L390.88,711.12 L390.9,711.12 L390.92,711.12 L390.94,711.12 L390.96,711.12 C391.24,711.12,391.33,710.97,391.33,710.48 V708.02 C391.33,707.45,391.22,707.31,390.71,707.27 V707.12 H392.82 V707.27 C392.32,707.31,392.17,707.43,392.17,707.79 V710.58 C392.64,711.03,392.86,711.15,393.19,711.15 C393.68,711.15,393.92,710.84,393.92,710.18 V708.11 C393.92,707.48,393.79,707.31,393.29,707.27 V707.12 H395.36 V707.27 C394.87,707.32,394.75,707.44,394.75,707.93 V710.2 C394.75,711.14,394.32,711.7,393.58,711.7 C393.12,711.7,392.81,711.53,392.14,710.89 V711.67 L392.07,711.7 C391.58,711.52,391.24,711.41,390.7,711.25 Z "
         stroke-width="0"
         fill="black"
         id="path14229" /><path
         d="M399.91,707.78 L399.9,707.77 L399.88,707.76 L399.87,707.74 L399.85,707.73 L399.84,707.72 L399.82,707.71 L399.81,707.7 L399.8,707.69 L399.78,707.68 L399.77,707.68 L399.75,707.67 L399.74,707.66 L399.73,707.65 L399.71,707.65 L399.7,707.64 L399.69,707.63 L399.67,707.63 L399.66,707.62 L399.65,707.62 L399.64,707.62 L399.62,707.61 L399.61,707.61 L399.6,707.6 L399.58,707.6 L399.56,707.6 L399.53,707.59 L399.5,707.59 L399.48,707.59 C399.25,707.59,399.18,707.73,399.18,708.17 V710.1 C399.18,710.62,399.13,710.91,398.98,711.15 C398.76,711.51,398.33,711.7,397.75,711.7 C396.81,711.7,396.07,711.21,396.07,710.58 C396.07,710.35,396.27,710.16,396.5,710.16 C396.74,710.16,396.95,710.35,396.95,710.57 C396.95,710.61,396.94,710.66,396.93,710.73 C396.91,710.82,396.9,710.9,396.9,710.97 C396.9,711.24,397.22,711.46,397.62,711.46 C398.1,711.46,398.37,711.17,398.37,710.63 V710.03 V709.79 V708.35 C398.37,708.04,398.32,707.95,398.11,707.83 C397.88,707.69,397.6,707.6,397.39,707.6 C397.04,707.6,396.76,707.94,396.76,708.37 V708.41 C396.76,708.99,397.17,709.35,398.37,709.79 V710.03 C396.84,709.41,396.67,709.33,396.24,708.95 C396.02,708.75,395.89,708.42,395.89,708.09 C395.89,707.46,396.32,707.03,396.93,707.03 C397.37,707.03,397.77,707.23,398.38,707.75 C398.43,707.23,398.61,707.03,399.02,707.03 C399.36,707.03,399.57,707.15,399.91,707.52 Z "
         stroke-width="0"
         fill="black"
         id="path14231" /><path
         d="M400.01,711 L400.02,711 L400.04,711 L400.05,711.01 L400.06,711.01 L400.08,711.01 L400.11,711.02 L400.13,711.02 L400.15,711.02 L400.17,711.03 L400.19,711.03 L400.21,711.03 L400.23,711.03 L400.25,711.04 L400.27,711.04 L400.29,711.04 L400.31,711.04 L400.34,711.04 L400.36,711.04 C400.61,711.04,400.7,710.88,400.7,710.44 V707.96 C400.7,707.46,400.63,707.39,399.99,707.27 V707.12 H402.38 V707.27 C401.7,707.3,401.53,707.45,401.53,708.02 V710.25 C401.53,710.57,401.96,711.07,402.23,711.07 C402.29,711.07,402.38,711.02,402.49,710.92 C402.65,710.78,402.76,710.72,402.89,710.72 C403.12,710.72,403.27,710.89,403.27,711.17 C403.27,711.5,403.06,711.7,402.73,711.7 C402.31,711.7,402.02,711.47,401.53,710.76 V711.67 L401.48,711.7 C400.95,711.48,400.6,711.35,400.01,711.16 Z "
         stroke-width="0"
         fill="black"
         id="path14233" /><path
         d="M407.98,711.59 H406.64 V711.45 C406.96,711.45,407.12,711.36,407.12,711.2 C407.12,711.16,407.11,711.1,407.08,711.03 L406.11,708.29 L404.97,710.8 C404.91,710.94,404.87,711.07,404.87,711.18 C404.87,711.36,405.02,711.43,405.45,711.45 V711.59 H403.4 V711.46 C403.66,711.42,403.83,711.31,403.9,711.14 L405.04,708.69 L405.07,708.61 L405.22,708.32 C405.5,707.82,405.66,707.46,405.66,707.31 C405.66,707.16,405.43,706.54,405.26,706.24 C405.12,705.98,404.9,705.79,404.76,705.79 C404.7,705.79,404.61,705.81,404.51,705.86 C404.32,705.93,404.15,705.97,403.98,705.97 C403.76,705.97,403.56,705.77,403.56,705.54 C403.56,705.21,403.88,704.96,404.29,704.96 C404.96,704.96,405.44,705.52,405.97,706.95 L407.51,711 C407.64,711.32,407.74,711.42,407.98,711.45 Z "
         stroke-width="0"
         fill="black"
         id="path14235" /><path
         d="M414.79,708.75 L414.74,708.68 L414.7,708.62 L414.66,708.55 L414.61,708.49 L414.57,708.43 L414.52,708.38 L414.48,708.32 L414.44,708.27 L414.39,708.22 L414.35,708.18 L414.3,708.13 L414.26,708.09 L414.21,708.05 L414.17,708.02 L414.12,707.98 L414.08,707.95 L414.03,707.92 L413.98,707.89 L413.94,707.87 L413.89,707.84 L413.84,707.82 L413.79,707.8 L413.74,707.78 L413.69,707.77 L413.64,707.75 L413.58,707.74 L413.53,707.73 L413.48,707.72 L413.42,707.72 L413.36,707.71 L413.31,707.71 L413.25,707.71 C412.68,707.71,412.25,708,411.96,708.57 C411.78,708.94,411.71,709.27,411.7,709.88 L411.71,710.2 C411.82,710.97,412.16,711.34,412.77,711.34 C413.38,711.34,413.61,711.06,413.74,710.2 H411.71 L411.7,709.88 H414.76 C414.68,710.52,414.58,710.81,414.33,711.13 C414.03,711.49,413.58,711.7,413.06,711.7 C412.56,711.7,412.09,711.52,411.71,711.18 C411.25,710.77,410.98,710.07,410.98,709.25 C410.98,707.88,411.7,707.03,412.84,707.03 C413.78,707.03,414.53,707.61,414.95,708.68 Z "
         stroke-width="0"
         fill="black"
         id="path14237" /><path
         d="M418.73,711.35 L418.69,711.37 L418.65,711.4 L418.61,711.42 L418.57,711.44 L418.53,711.46 L418.49,711.48 L418.45,711.5 L418.42,711.52 L418.38,711.53 L418.34,711.55 L418.31,711.56 L418.27,711.58 L418.24,711.59 L418.2,711.6 L418.14,711.63 L418.07,711.65 L418,711.66 L417.94,711.68 L417.87,711.69 L417.8,711.69 L417.73,711.7 L417.66,711.7 L417.59,711.71 C416.35,711.71,415.39,710.59,415.39,709.16 C415.39,707.91,416.05,707.03,416.98,707.03 C417.56,707.03,418.11,707.28,418.55,707.76 L418.41,707.94 C418.19,707.75,417.86,707.63,417.55,707.63 C417.24,707.63,416.97,707.73,416.77,707.93 C416.46,708.22,416.25,708.86,416.25,709.52 C416.25,710.69,416.77,711.43,417.62,711.43 C418.24,711.43,418.55,711.1,418.55,710.43 V708.39 C418.55,708.15,418.51,708.02,418.41,707.94 L418.55,707.76 V705.89 C418.55,705.34,418.37,705.19,417.66,705.14 V704.97 H420.01 V705.11 C419.46,705.23,419.38,705.31,419.38,705.72 V711.66 H419.27 Z "
         stroke-width="0"
         fill="black"
         id="path14239" /><path
         d="M424.9,707.62 H424.85 C424.39,707.62,424.28,707.73,424.28,708.19 V711.59 H422.71 V711.43 C423.33,711.4,423.45,711.3,423.45,710.8 V708.47 C423.45,708.19,423.4,708.05,423.26,707.94 C422.99,707.72,422.68,707.6,422.38,707.6 C421.99,707.6,421.68,707.94,421.68,708.36 V711.59 H420.22 V711.46 C420.7,711.43,420.84,711.28,420.84,710.82 V708.32 C420.84,707.53,421.32,707.03,422.05,707.03 C422.41,707.03,422.8,707.18,423.07,707.45 L423.5,707.88 V707.05 L423.54,707.04 C424.04,707.23,424.39,707.34,424.9,707.48 Z "
         stroke-width="0"
         fill="black"
         id="path14241" /><path
         d="M426.86,711.7 L425.32,711.15 V711 L425.39,711.01 C425.51,711.03,425.64,711.04,425.73,711.04 C425.97,711.04,426.06,710.88,426.06,710.44 V708.14 C426.06,707.42,425.96,707.31,425.27,707.27 V707.12 H427.63 V707.27 C426.98,707.32,426.9,707.42,426.9,708.14 V711.66 Z "
         stroke-width="0"
         fill="black"
         id="path14243" /><path
         d="M426.39,713.91 L426.36,713.91 L426.34,713.91 L426.31,713.9 L426.29,713.9 L426.27,713.89 L426.24,713.89 L426.22,713.88 L426.2,713.87 L426.18,713.86 L426.15,713.85 L426.13,713.84 L426.11,713.82 L426.09,713.81 L426.08,713.79 L426.06,713.78 L426.04,713.76 L426.02,713.74 L426.01,713.72 L425.99,713.71 L425.98,713.69 L425.97,713.67 L425.95,713.64 L425.94,713.62 L425.93,713.6 L425.92,713.58 L425.91,713.55 L425.91,713.53 L425.9,713.5 L425.9,713.48 L425.89,713.45 L425.89,713.43 L425.89,713.4 C425.89,713.12,426.11,712.9,426.39,712.9 C426.68,712.9,426.91,713.11,426.91,713.4 C426.91,713.68,426.68,713.91,426.39,713.91 Z "
         stroke-width="0"
         fill="black"
         id="path14245" /><path
         d="M432.38,711.59 H431 V711.45 C431.32,711.42,431.47,711.32,431.47,711.13 C431.47,711.03,431.45,710.93,431.41,710.83 L430.42,708.26 L429.41,710.8 C429.35,710.94,429.32,711.08,429.32,711.17 C429.32,711.35,429.43,711.42,429.77,711.45 V711.59 H427.83 V711.45 C428.2,711.43,428.27,711.33,428.73,710.3 L429.92,707.45 C429.94,707.39,429.97,707.32,430,707.24 C430.06,707.07,430.12,706.99,430.18,706.99 C430.24,706.99,430.31,707.11,430.46,707.48 L431.73,710.67 C432.02,711.35,432.08,711.42,432.38,711.45 Z "
         stroke-width="0"
         fill="black"
         id="path14247" /><path
         d="M436.77,707.78 L436.75,707.77 L436.73,707.76 L436.72,707.74 L436.7,707.73 L436.69,707.72 L436.68,707.71 L436.66,707.7 L436.65,707.69 L436.63,707.68 L436.62,707.68 L436.61,707.67 L436.59,707.66 L436.58,707.65 L436.57,707.65 L436.55,707.64 L436.54,707.63 L436.53,707.63 L436.51,707.62 L436.5,707.62 L436.49,707.62 L436.47,707.61 L436.46,707.61 L436.45,707.6 L436.44,707.6 L436.41,707.6 L436.38,707.59 L436.36,707.59 L436.33,707.59 C436.1,707.59,436.03,707.73,436.03,708.17 V710.1 C436.03,710.62,435.98,710.91,435.83,711.15 C435.61,711.51,435.18,711.7,434.6,711.7 C433.66,711.7,432.93,711.21,432.93,710.58 C432.93,710.35,433.12,710.16,433.35,710.16 C433.59,710.16,433.8,710.35,433.8,710.57 C433.8,710.61,433.79,710.66,433.78,710.73 C433.76,710.82,433.75,710.9,433.75,710.97 C433.75,711.24,434.07,711.46,434.47,711.46 C434.95,711.46,435.22,711.17,435.22,710.63 V710.03 V709.79 V708.35 C435.22,708.04,435.17,707.95,434.96,707.83 C434.73,707.69,434.45,707.6,434.24,707.6 C433.89,707.6,433.61,707.94,433.61,708.37 V708.41 C433.61,708.99,434.02,709.35,435.22,709.79 V710.03 C433.69,709.41,433.52,709.33,433.1,708.95 C432.88,708.75,432.74,708.42,432.74,708.09 C432.74,707.46,433.17,707.03,433.78,707.03 C434.22,707.03,434.63,707.23,435.23,707.75 C435.28,707.23,435.46,707.03,435.87,707.03 C436.21,707.03,436.42,707.15,436.77,707.52 Z "
         stroke-width="0"
         fill="black"
         id="path14249" /><path
         d="M436.98,713.31 H437.04 C437.15,713.32,437.27,713.33,437.35,713.33 C437.67,713.33,437.77,713.2,437.77,712.73 V707.99 C437.77,707.45,437.63,707.32,437,707.27 V707.12 H439.35 V707.27 C438.72,707.31,438.6,707.41,438.6,707.96 V713.89 L438.56,713.91 C438.05,713.74,437.67,713.64,436.98,713.47 Z "
         stroke-width="0"
         fill="black"
         id="path14251" /><path
         d="M443.62,708.75 L443.58,708.68 L443.53,708.62 L443.49,708.55 L443.44,708.49 L443.4,708.43 L443.36,708.38 L443.31,708.32 L443.27,708.27 L443.22,708.22 L443.18,708.18 L443.14,708.13 L443.09,708.09 L443.05,708.05 L443,708.02 L442.96,707.98 L442.91,707.95 L442.86,707.92 L442.82,707.89 L442.77,707.87 L442.72,707.84 L442.67,707.82 L442.62,707.8 L442.57,707.78 L442.52,707.77 L442.47,707.75 L442.42,707.74 L442.36,707.73 L442.31,707.72 L442.25,707.72 L442.2,707.71 L442.14,707.71 L442.08,707.71 C441.51,707.71,441.08,708,440.8,708.57 C440.62,708.94,440.55,709.27,440.53,709.88 L440.55,710.2 C440.66,710.97,440.99,711.34,441.6,711.34 C442.21,711.34,442.45,711.06,442.58,710.2 H440.55 L440.53,709.88 H443.59 C443.51,710.52,443.41,710.81,443.16,711.13 C442.86,711.49,442.41,711.7,441.89,711.7 C441.39,711.7,440.92,711.52,440.55,711.18 C440.08,710.77,439.81,710.07,439.81,709.25 C439.81,707.88,440.53,707.03,441.67,707.03 C442.62,707.03,443.36,707.61,443.78,708.68 Z "
         stroke-width="0"
         fill="black"
         id="path14253" /><path
         d="M444.14,711.08 L444.15,711.08 L444.16,711.08 L444.16,711.09 L444.17,711.09 L444.17,711.09 L444.18,711.09 L444.19,711.1 L444.2,711.1 L444.2,711.1 L444.21,711.1 L444.23,711.1 L444.24,711.11 L444.26,711.11 L444.28,711.11 L444.3,711.11 L444.31,711.11 L444.33,711.12 L444.35,711.12 L444.37,711.12 L444.39,711.12 L444.41,711.12 C444.69,711.12,444.78,710.97,444.78,710.48 V708.02 C444.78,707.45,444.67,707.31,444.16,707.27 V707.12 H446.27 V707.27 C445.77,707.31,445.62,707.43,445.62,707.79 V710.58 C446.09,711.03,446.31,711.15,446.64,711.15 C447.13,711.15,447.37,710.84,447.37,710.18 V708.11 C447.37,707.48,447.24,707.31,446.74,707.27 V707.12 H448.81 V707.27 C448.32,707.32,448.2,707.44,448.2,707.93 V710.2 C448.2,711.14,447.77,711.7,447.03,711.7 C446.57,711.7,446.26,711.53,445.59,710.89 V711.67 L445.52,711.7 C445.03,711.52,444.69,711.41,444.14,711.25 Z "
         stroke-width="0"
         fill="black"
         id="path14255" /><path
         d="M451.5,711.59 H450.5 V712.75 C450.5,712.85,450.49,712.88,450.43,712.88 C450.36,712.79,450.3,712.7,450.23,712.6 C449.85,712.05,449.42,711.58,449.27,711.54 C449.15,711.47,449.1,711.4,449.1,711.35 C449.1,711.32,449.11,711.3,449.14,711.28 H449.66 V708.29 C449.66,707.45,449.96,707.03,450.55,707.03 C451.04,707.03,451.41,707.26,451.74,707.78 L451.61,707.89 C451.4,707.64,451.23,707.54,451.02,707.54 C450.65,707.54,450.5,707.81,450.5,708.44 V711.28 H451.5 Z "
         stroke-width="0"
         fill="black"
         id="path14257" /><path
         d="M456.71,711.7 L456.59,711.69 L456.48,711.68 L456.36,711.67 L456.25,711.65 L456.14,711.63 L456.03,711.6 L455.93,711.56 L455.82,711.52 L455.73,711.48 L455.63,711.43 L455.54,711.38 L455.45,711.32 L455.36,711.26 L455.28,711.19 L455.2,711.12 L455.13,711.05 L455.06,710.97 L454.99,710.89 L454.93,710.8 L454.87,710.71 L454.81,710.61 L454.76,710.52 L454.72,710.42 L454.68,710.31 L454.64,710.2 L454.61,710.09 L454.58,709.98 L454.56,709.86 L454.54,709.74 L454.53,709.62 L454.52,709.5 L454.52,709.37 C454.52,708.03,455.44,707.03,456.69,707.03 L456.81,707.3 C456.42,707.3,456.06,707.54,455.85,707.94 C455.57,708.46,455.41,709.15,455.41,709.86 C455.41,710.8,455.88,711.42,456.58,711.42 H456.58 C457.42,711.42,458.01,710.46,458.01,709.1 C458.01,707.98,457.56,707.3,456.81,707.3 L456.69,707.03 C457.95,707.03,458.9,708.08,458.9,709.45 C458.9,710.75,457.99,711.7,456.71,711.7 Z "
         stroke-width="0"
         fill="black"
         id="path14259" /><path
         d="M462.28,711.59 H461.06 V712.75 C461.06,713.32,461.25,713.63,461.62,713.63 C461.83,713.63,461.97,713.53,462.15,713.24 C462.31,712.99,462.43,712.89,462.6,712.89 C462.83,712.89,463.02,713.07,463.02,713.29 C463.02,713.65,462.58,713.91,461.98,713.91 C461.37,713.91,460.84,713.64,460.58,713.18 C460.32,712.75,460.24,712.39,460.23,711.59 H459.42 V711.28 H460.23 V708.16 C460.23,707.43,460.12,707.31,459.41,707.27 V707.12 H461.99 V707.27 C461.18,707.3,461.07,707.41,461.07,708.16 V711.28 H462.28 Z "
         stroke-width="0"
         fill="black"
         id="path14261" /><path
         d="M465.6,706.91 L465.71,706.92 L465.81,706.93 L465.9,706.94 L466,706.96 L466.09,706.97 L466.17,706.99 L466.26,707 L466.34,707.02 L466.42,707.03 L466.5,707.05 L466.58,707.07 L466.65,707.09 L466.73,707.11 L466.8,707.13 L466.94,707.17 L467.07,707.22 L467.2,707.28 L467.32,707.33 L467.45,707.4 L467.57,707.47 L467.69,707.54 L467.82,707.62 L467.88,707.67 L467.94,707.71 C468.98,708.47,469.58,709.7,469.58,711.04 C469.58,712.68,468.67,713.84,467.38,713.84 C466.2,713.84,465.31,712.84,465.31,711.5 C465.31,710.28,466.03,709.48,467.11,709.48 C467.65,709.48,468.07,709.64,468.6,710.05 L468.47,710.27 C468.19,710.04,467.82,709.91,467.46,709.91 C466.71,709.91,466.23,710.65,466.23,711.83 C466.23,712.4,466.39,713,466.6,713.25 C466.77,713.45,467.02,713.56,467.3,713.56 C468.17,713.56,468.62,712.71,468.62,711.04 V710.65 C468.62,710.45,468.58,710.36,468.47,710.27 L468.6,710.05 C468.19,708.43,467.08,707.36,465.57,707.1 Z "
         stroke-width="0"
         fill="black"
         id="path14263" /><path
         d="M472.52,713.84 L472.47,713.84 L472.42,713.84 L472.37,713.84 L472.32,713.83 L472.28,713.83 L472.23,713.82 L472.18,713.82 L472.14,713.81 L472.09,713.8 L472.05,713.79 L472,713.78 L471.96,713.77 L471.92,713.76 L471.87,713.74 L471.83,713.73 L471.79,713.71 L471.75,713.7 L471.71,713.68 L471.67,713.66 L471.63,713.64 L471.59,713.62 L471.55,713.6 L471.52,713.57 L471.48,713.55 L471.44,713.53 L471.4,713.5 L471.37,713.47 L471.33,713.45 L471.3,713.42 L471.26,713.39 L471.23,713.36 L471.19,713.32 C470.61,712.77,470.24,711.62,470.24,710.46 C470.24,709.38,470.56,708.22,471.03,707.66 C471.4,707.22,471.91,706.99,472.48,706.99 V707.24 C471.63,707.24,471.19,708.31,471.19,710.37 C471.19,712.48,471.64,713.58,472.49,713.58 H472.49 C473.33,713.58,473.78,712.46,473.78,710.38 C473.78,708.31,473.34,707.24,472.48,707.24 V706.99 C472.99,706.99,473.42,707.16,473.78,707.5 C474.36,708.05,474.73,709.2,474.73,710.4 C474.73,712.44,473.83,713.84,472.52,713.84 Z "
         stroke-width="0"
         fill="black"
         id="path14265" /><polygon
         points="483.46,710.4 483.46,710.96 478.36,710.96 478.36,710.4 "
         stroke-width="0"
         fill="black"
         id="polygon14267" /><polygon
         points="483.46,708.39 483.46,708.94 478.36,708.94 478.36,708.39 "
         stroke-width="0"
         fill="black"
         id="polygon14269" /><path
         d="M310.33,696.26 L310.33,696.29 L310.33,696.32 L310.33,696.34 L310.32,696.37 L310.32,696.39 L310.31,696.42 L310.3,696.44 L310.29,696.47 L310.28,696.49 L310.27,696.51 L310.26,696.54 L310.24,696.56 L310.23,696.58 L310.21,696.6 L310.19,696.62 L310.18,696.63 L310.16,696.65 L310.14,696.67 L310.12,696.68 L310.1,696.7 L310.08,696.71 L310.06,696.73 L310.03,696.74 L310.01,696.75 L309.99,696.76 L309.96,696.77 L309.94,696.77 L309.91,696.78 L309.88,696.78 L309.86,696.79 L309.83,696.79 L309.8,696.79 C309.52,696.79,309.28,696.55,309.28,696.26 C309.28,695.98,309.52,695.74,309.8,695.74 C310.08,695.74,310.33,695.97,310.33,696.26 Z "
         stroke-width="0"
         fill="black"
         id="path14271" /><path
         d="M312.82,691.96 L312.82,691.99 L312.82,692.02 L312.81,692.04 L312.81,692.07 L312.8,692.09 L312.8,692.12 L312.79,692.14 L312.78,692.17 L312.77,692.19 L312.76,692.21 L312.74,692.23 L312.73,692.26 L312.71,692.28 L312.7,692.3 L312.68,692.32 L312.66,692.33 L312.65,692.35 L312.63,692.37 L312.61,692.38 L312.59,692.4 L312.56,692.41 L312.54,692.42 L312.52,692.44 L312.5,692.45 L312.47,692.46 L312.45,692.47 L312.42,692.47 L312.4,692.48 L312.37,692.48 L312.35,692.49 L312.32,692.49 L312.29,692.49 C312,692.49,311.77,692.25,311.77,691.96 C311.77,691.67,312,691.44,312.29,691.44 C312.58,691.44,312.82,691.67,312.82,691.96 Z "
         stroke-width="0"
         fill="black"
         id="path14273" /><path
         d="M307.85,691.96 L307.84,691.99 L307.84,692.02 L307.84,692.04 L307.83,692.07 L307.83,692.09 L307.82,692.12 L307.81,692.14 L307.8,692.17 L307.79,692.19 L307.78,692.21 L307.77,692.23 L307.75,692.26 L307.74,692.28 L307.72,692.3 L307.71,692.32 L307.69,692.33 L307.67,692.35 L307.65,692.37 L307.63,692.38 L307.61,692.4 L307.59,692.41 L307.57,692.42 L307.55,692.44 L307.52,692.45 L307.5,692.46 L307.47,692.47 L307.45,692.47 L307.42,692.48 L307.4,692.48 L307.37,692.49 L307.34,692.49 L307.32,692.49 C307.03,692.49,306.79,692.25,306.79,691.96 C306.79,691.67,307.03,691.44,307.32,691.44 C307.61,691.44,307.85,691.67,307.85,691.96 Z "
         stroke-width="0"
         fill="black"
         id="path14275" /><path
         d="M321.29,698.9 L319.5,697.99 V697.85 C319.62,697.9,319.73,697.94,319.77,697.96 C319.94,698.03,320.11,698.07,320.21,698.07 C320.42,698.07,320.51,697.92,320.51,697.6 V693.1 C320.51,692.78,320.43,692.55,320.27,692.46 C320.12,692.37,319.98,692.34,319.57,692.33 V692.18 H322.31 V692.33 C321.53,692.34,321.37,692.44,321.37,692.92 V698.88 Z "
         stroke-width="0"
         fill="black"
         id="path14277" /><path
         d="M324.43,696.48 L324.49,696.51 L324.55,696.55 L324.61,696.58 L324.67,696.62 L324.72,696.66 L324.78,696.69 L324.83,696.73 L324.88,696.78 L324.93,696.82 L324.98,696.86 L325.03,696.91 L325.07,696.95 L325.12,697 L325.16,697.05 L325.2,697.1 L325.24,697.15 L325.27,697.2 L325.3,697.25 L325.34,697.3 L325.37,697.35 L325.39,697.41 L325.42,697.46 L325.44,697.51 L325.46,697.57 L325.48,697.62 L325.5,697.68 L325.51,697.73 L325.52,697.79 L325.53,697.84 L325.54,697.9 L325.54,697.96 L325.54,698.01 C325.54,698.51,325.19,698.9,324.75,698.9 C324.4,698.9,324.16,698.67,324.16,698.33 C324.16,698.01,324.39,697.82,324.75,697.82 C324.81,697.82,324.88,697.83,324.93,697.84 C325.01,697.86,325.01,697.86,325.02,697.86 C325.1,697.86,325.15,697.8,325.15,697.72 C325.15,697.4,324.88,697.04,324.34,696.67 Z "
         stroke-width="0"
         fill="black"
         id="path14279" /><path
         d="M329.28,695.3 L329.24,696.65 H329.13 L329.11,696.63 C329.02,696.56,329.01,696.55,328.97,696.55 C328.91,696.55,328.81,696.57,328.7,696.62 C328.48,696.7,328.26,696.74,328,696.74 C327.22,696.74,326.65,696.23,326.65,695.52 C326.65,694.96,326.97,694.57,327.81,694.09 L328.39,693.76 C328.74,693.56,328.91,693.32,328.91,693.02 C328.91,692.58,328.59,692.3,328.08,692.3 C327.74,692.3,327.44,692.43,327.25,692.65 C327.04,692.9,326.95,693.12,326.82,693.69 H326.66 V692.14 H326.79 C326.86,692.24,326.9,692.26,327.02,692.26 C327.11,692.26,327.25,692.24,327.48,692.18 C327.76,692.12,328.02,692.08,328.2,692.08 C328.97,692.08,329.61,692.66,329.61,693.35 C329.61,693.85,329.37,694.18,328.77,694.53 L327.7,695.17 C327.42,695.33,327.27,695.58,327.27,695.85 C327.27,696.24,327.58,696.52,328.03,696.52 C328.6,696.52,328.9,696.18,329.13,695.3 Z "
         stroke-width="0"
         fill="black"
         id="path14281" /><path
         d="M332.55,696.65 H331.55 V697.8 C331.55,697.9,331.54,697.93,331.48,697.93 C331.41,697.84,331.35,697.75,331.28,697.66 C330.9,697.11,330.48,696.63,330.32,696.59 C330.21,696.52,330.15,696.45,330.15,696.4 C330.15,696.37,330.16,696.35,330.19,696.33 H330.71 V693.34 C330.71,692.51,331.01,692.08,331.6,692.08 C332.09,692.08,332.47,692.32,332.79,692.84 L332.67,692.95 C332.46,692.7,332.29,692.6,332.07,692.6 C331.7,692.6,331.55,692.87,331.55,693.49 V696.33 H332.55 Z "
         stroke-width="0"
         fill="black"
         id="path14283" /><path
         d="M339.24,693.73 L339.19,693.67 L339.15,693.61 L339.11,693.55 L339.06,693.49 L339.02,693.44 L338.98,693.39 L338.94,693.34 L338.9,693.29 L338.86,693.25 L338.82,693.21 L338.77,693.17 L338.73,693.13 L338.69,693.09 L338.65,693.06 L338.61,693.03 L338.57,693 L338.53,692.98 L338.49,692.95 L338.45,692.93 L338.4,692.91 L338.36,692.89 L338.32,692.87 L338.27,692.86 L338.23,692.85 L338.18,692.83 L338.13,692.82 L338.09,692.82 L338.04,692.81 L337.99,692.8 L337.94,692.8 L337.89,692.8 L337.83,692.8 C336.93,692.8,336.29,693.59,336.29,694.73 C336.29,695.76,336.84,696.46,337.65,696.46 C338.01,696.46,338.13,696.35,338.23,695.99 L338.29,695.77 C338.37,695.49,338.55,695.31,338.76,695.31 C339.02,695.31,339.24,695.5,339.24,695.73 C339.24,696.28,338.54,696.75,337.71,696.75 C337.22,696.75,336.71,696.55,336.3,696.19 C335.81,695.76,335.53,695.08,335.53,694.3 C335.53,693.01,336.31,692.08,337.42,692.08 C337.86,692.08,338.26,692.24,338.62,692.55 C338.89,692.79,339.08,693.05,339.38,693.64 Z "
         stroke-width="0"
         fill="black"
         id="path14285" /><path
         d="M342.19,696.75 L342.07,696.75 L341.95,696.74 L341.84,696.73 L341.72,696.71 L341.61,696.68 L341.51,696.65 L341.4,696.62 L341.3,696.58 L341.2,696.54 L341.11,696.49 L341.01,696.43 L340.93,696.38 L340.84,696.31 L340.76,696.25 L340.68,696.18 L340.6,696.1 L340.53,696.02 L340.47,695.94 L340.4,695.85 L340.34,695.76 L340.29,695.67 L340.24,695.57 L340.19,695.47 L340.15,695.37 L340.11,695.26 L340.08,695.15 L340.05,695.04 L340.03,694.92 L340.01,694.8 L340,694.68 L339.99,694.55 L339.99,694.43 C339.99,693.09,340.92,692.08,342.17,692.08 L342.29,692.36 C341.9,692.36,341.53,692.6,341.32,693 C341.05,693.51,340.89,694.21,340.89,694.91 C340.89,695.86,341.35,696.47,342.06,696.47 H342.06 C342.9,696.47,343.48,695.52,343.48,694.16 C343.48,693.03,343.04,692.36,342.29,692.36 L342.17,692.08 C343.42,692.08,344.38,693.14,344.38,694.51 C344.38,695.81,343.46,696.75,342.19,696.75 Z "
         stroke-width="0"
         fill="black"
         id="path14287" /><path
         d="M344.87,696.14 L344.88,696.14 L344.9,696.14 L344.91,696.14 L344.92,696.15 L344.93,696.15 L344.94,696.15 L344.96,696.15 L344.98,696.16 L345,696.16 L345.02,696.16 L345.04,696.17 L345.06,696.17 L345.08,696.17 L345.09,696.17 L345.11,696.17 L345.13,696.17 L345.15,696.17 L345.17,696.17 L345.19,696.17 C345.45,696.17,345.54,696.02,345.54,695.54 V693.03 C345.54,692.49,345.4,692.34,344.84,692.33 V692.18 H347.05 V692.33 C346.52,692.35,346.38,692.46,346.38,692.85 V695.65 C346.38,695.67,346.45,695.77,346.52,695.84 C346.77,696.07,347.2,696.23,347.55,696.23 C347.99,696.23,348.2,695.89,348.2,695.19 V693.03 C348.2,692.48,348.1,692.37,347.53,692.33 V692.18 H349.76 V692.33 C349.19,692.34,349.04,692.51,349.04,693.12 V695.63 C349.34,696.05,349.67,696.23,350.12,696.23 C350.69,696.23,350.87,695.97,350.87,695.14 V693.04 C350.87,692.48,350.79,692.4,350.21,692.33 V692.18 H352.39 V692.33 L352.14,692.35 C351.84,692.37,351.71,692.55,351.71,692.94 V694.98 C351.71,696.16,351.32,696.75,350.55,696.75 C349.98,696.75,349.47,696.49,348.93,695.92 C348.75,696.48,348.41,696.75,347.88,696.75 C347.44,696.75,347.16,696.61,346.33,695.99 V696.73 L346.27,696.75 C345.76,696.56,345.42,696.45,344.87,696.3 Z "
         stroke-width="0"
         fill="black"
         id="path14289" /><path
         d="M352.52,696.09 L352.54,696.09 L352.56,696.09 L352.57,696.09 L352.59,696.09 L352.6,696.09 L352.62,696.09 L352.65,696.09 L352.68,696.09 L352.69,696.09 L352.71,696.09 L352.72,696.09 L352.74,696.09 L352.76,696.09 L352.77,696.09 C353.11,696.09,353.18,696,353.18,695.53 V690.88 C353.18,690.36,353.07,690.25,352.48,690.19 V690.03 H354.89 V690.2 C354.14,690.21,354.02,690.32,354.02,690.95 V692.51 C354.36,692.18,354.6,692.08,355.02,692.08 L355.05,692.4 C354.58,692.4,354.02,692.76,354.02,693.05 V695.5 C354.02,695.8,354.57,696.16,355.03,696.16 C355.77,696.16,356.26,695.4,356.26,694.25 C356.26,693.15,355.77,692.4,355.05,692.4 L355.02,692.08 C356.2,692.08,357.11,693.19,357.11,694.64 C357.11,695.87,356.41,696.75,355.45,696.75 C354.89,696.75,354.45,696.5,354.02,695.97 V696.73 L353.96,696.75 C353.42,696.54,353.07,696.41,352.52,696.24 Z "
         stroke-width="0"
         fill="black"
         id="path14291" /><path
         d="M357.6,698.37 H357.66 C357.77,698.38,357.89,698.39,357.97,698.39 C358.29,698.39,358.39,698.25,358.39,697.78 V693.04 C358.39,692.51,358.25,692.38,357.62,692.33 V692.18 H359.97 V692.33 C359.35,692.37,359.23,692.47,359.23,693.02 V698.95 L359.19,698.97 C358.67,698.8,358.29,698.7,357.6,698.53 Z "
         stroke-width="0"
         fill="black"
         id="path14293" /><path
         d="M364.24,693.81 L364.2,693.74 L364.16,693.67 L364.11,693.61 L364.07,693.55 L364.02,693.49 L363.98,693.43 L363.94,693.38 L363.89,693.33 L363.85,693.28 L363.8,693.23 L363.76,693.19 L363.71,693.15 L363.67,693.11 L363.62,693.07 L363.58,693.04 L363.53,693.01 L363.49,692.98 L363.44,692.95 L363.39,692.92 L363.34,692.9 L363.3,692.88 L363.25,692.86 L363.2,692.84 L363.14,692.82 L363.09,692.81 L363.04,692.8 L362.99,692.79 L362.93,692.78 L362.88,692.77 L362.82,692.77 L362.76,692.77 L362.7,692.77 C362.14,692.77,361.71,693.05,361.42,693.62 C361.24,694,361.17,694.33,361.15,694.93 L361.17,695.25 C361.28,696.03,361.62,696.39,362.23,696.39 C362.83,696.39,363.07,696.11,363.2,695.25 H361.17 L361.15,694.93 H364.21 C364.14,695.58,364.04,695.87,363.79,696.18 C363.49,696.54,363.03,696.75,362.51,696.75 C362.02,696.75,361.55,696.57,361.17,696.23 C360.7,695.83,360.43,695.12,360.43,694.31 C360.43,692.94,361.15,692.08,362.29,692.08 C363.24,692.08,363.99,692.67,364.4,693.74 Z "
         stroke-width="0"
         fill="black"
         id="path14295" /><path
         d="M364.8,696.14 L364.81,696.14 L364.82,696.14 L364.83,696.14 L364.84,696.15 L364.85,696.15 L364.87,696.15 L364.89,696.15 L364.91,696.16 L364.93,696.16 L364.95,696.16 L364.96,696.17 L364.98,696.17 L365,696.17 L365.02,696.17 L365.04,696.17 L365.06,696.17 L365.08,696.17 L365.1,696.17 L365.12,696.17 C365.37,696.17,365.46,696.02,365.46,695.54 V693.03 C365.46,692.49,365.33,692.34,364.77,692.33 V692.18 H366.98 V692.33 C366.45,692.35,366.3,692.46,366.3,692.85 V695.65 C366.3,695.67,366.38,695.77,366.45,695.84 C366.7,696.07,367.13,696.23,367.47,696.23 C367.91,696.23,368.13,695.89,368.13,695.19 V693.03 C368.13,692.48,368.02,692.37,367.45,692.33 V692.18 H369.68 V692.33 C369.11,692.34,368.97,692.51,368.97,693.12 V695.63 C369.27,696.05,369.59,696.23,370.05,696.23 C370.62,696.23,370.8,695.97,370.8,695.14 V693.04 C370.8,692.48,370.72,692.4,370.14,692.33 V692.18 H372.32 V692.33 L372.06,692.35 C371.76,692.37,371.63,692.55,371.63,692.94 V694.98 C371.63,696.16,371.24,696.75,370.48,696.75 C369.9,696.75,369.39,696.49,368.86,695.92 C368.68,696.48,368.34,696.75,367.8,696.75 C367.36,696.75,367.09,696.61,366.26,695.99 V696.73 L366.19,696.75 C365.68,696.56,365.35,696.45,364.8,696.3 Z "
         stroke-width="0"
         fill="black"
         id="path14297" /><path
         d="M376.42,693.81 L376.37,693.74 L376.33,693.67 L376.29,693.61 L376.24,693.55 L376.2,693.49 L376.15,693.43 L376.11,693.38 L376.07,693.33 L376.02,693.28 L375.98,693.23 L375.93,693.19 L375.89,693.15 L375.84,693.11 L375.8,693.07 L375.75,693.04 L375.71,693.01 L375.66,692.98 L375.61,692.95 L375.57,692.92 L375.52,692.9 L375.47,692.88 L375.42,692.86 L375.37,692.84 L375.32,692.82 L375.27,692.81 L375.21,692.8 L375.16,692.79 L375.11,692.78 L375.05,692.77 L374.99,692.77 L374.94,692.77 L374.88,692.77 C374.31,692.77,373.88,693.05,373.59,693.62 C373.41,694,373.34,694.33,373.32,694.93 L373.34,695.25 C373.45,696.03,373.79,696.39,374.4,696.39 C375.01,696.39,375.24,696.11,375.37,695.25 H373.34 L373.32,694.93 H376.39 C376.31,695.58,376.21,695.87,375.96,696.18 C375.66,696.54,375.2,696.75,374.69,696.75 C374.19,696.75,373.72,696.57,373.34,696.23 C372.88,695.83,372.61,695.12,372.61,694.31 C372.61,692.94,373.32,692.08,374.47,692.08 C375.41,692.08,376.16,692.67,376.58,693.74 Z "
         stroke-width="0"
         fill="black"
         id="path14299" /><path
         d="M376.94,696.14 L376.95,696.14 L376.95,696.14 L376.96,696.14 L376.97,696.15 L376.97,696.15 L376.98,696.15 L376.99,696.15 L376.99,696.15 L377,696.16 L377.01,696.16 L377.02,696.16 L377.04,696.16 L377.06,696.17 L377.08,696.17 L377.09,696.17 L377.11,696.17 L377.13,696.17 L377.15,696.17 L377.17,696.17 L377.19,696.17 L377.21,696.17 C377.49,696.17,377.58,696.03,377.58,695.54 V693.08 C377.58,692.51,377.47,692.37,376.96,692.33 V692.18 H379.07 V692.33 C378.56,692.37,378.41,692.49,378.41,692.85 V695.64 C378.89,696.09,379.11,696.2,379.44,696.2 C379.93,696.2,380.17,695.9,380.17,695.24 V693.16 C380.17,692.54,380.04,692.37,379.54,692.33 V692.18 H381.61 V692.33 C381.12,692.38,381,692.5,381,692.99 V695.26 C381,696.19,380.56,696.75,379.83,696.75 C379.37,696.75,379.06,696.58,378.39,695.95 V696.73 L378.32,696.75 C377.83,696.57,377.49,696.46,376.94,696.3 Z "
         stroke-width="0"
         fill="black"
         id="path14301" /><path
         d="M384.3,696.65 H383.3 V697.8 C383.3,697.9,383.29,697.93,383.23,697.93 C383.16,697.84,383.1,697.75,383.03,697.66 C382.65,697.11,382.22,696.63,382.06,696.59 C381.95,696.52,381.89,696.45,381.89,696.4 C381.89,696.37,381.9,696.35,381.93,696.33 H382.46 V693.34 C382.46,692.51,382.76,692.08,383.35,692.08 C383.83,692.08,384.21,692.32,384.54,692.84 L384.41,692.95 C384.2,692.7,384.03,692.6,383.81,692.6 C383.45,692.6,383.3,692.87,383.3,693.49 V696.33 H384.3 Z "
         stroke-width="0"
         fill="black"
         id="path14303" /><path
         d="M387.09,696.05 L387.11,696.06 L387.12,696.06 L387.13,696.06 L387.14,696.07 L387.17,696.07 L387.19,696.07 L387.21,696.08 L387.23,696.08 L387.25,696.08 L387.28,696.09 L387.3,696.09 L387.32,696.09 L387.34,696.09 L387.36,696.09 L387.38,696.09 L387.4,696.09 L387.42,696.09 L387.44,696.09 C387.69,696.09,387.78,695.94,387.78,695.5 V693.02 C387.78,692.52,387.71,692.45,387.07,692.33 V692.18 H389.46 V692.33 C388.79,692.36,388.62,692.51,388.62,693.08 V695.31 C388.62,695.63,389.04,696.12,389.31,696.12 C389.37,696.12,389.46,696.08,389.57,695.98 C389.73,695.84,389.84,695.78,389.97,695.78 C390.21,695.78,390.36,695.95,390.36,696.22 C390.36,696.55,390.15,696.75,389.81,696.75 C389.39,696.75,389.1,696.52,388.62,695.82 V696.73 L388.57,696.75 C388.04,696.53,387.68,696.4,387.09,696.21 Z "
         stroke-width="0"
         fill="black"
         id="path14305" /><path
         d="M394.4,693.81 L394.36,693.74 L394.31,693.67 L394.27,693.61 L394.22,693.55 L394.18,693.49 L394.14,693.43 L394.09,693.38 L394.05,693.33 L394,693.28 L393.96,693.23 L393.92,693.19 L393.87,693.15 L393.83,693.11 L393.78,693.07 L393.74,693.04 L393.69,693.01 L393.64,692.98 L393.6,692.95 L393.55,692.92 L393.5,692.9 L393.45,692.88 L393.4,692.86 L393.35,692.84 L393.3,692.82 L393.25,692.81 L393.2,692.8 L393.14,692.79 L393.09,692.78 L393.03,692.77 L392.98,692.77 L392.92,692.77 L392.86,692.77 C392.29,692.77,391.86,693.05,391.58,693.62 C391.4,694,391.33,694.33,391.31,694.93 L391.33,695.25 C391.44,696.03,391.77,696.39,392.38,696.39 C392.99,696.39,393.23,696.11,393.36,695.25 H391.33 L391.31,694.93 H394.37 C394.29,695.58,394.19,695.87,393.94,696.18 C393.64,696.54,393.19,696.75,392.67,696.75 C392.17,696.75,391.7,696.57,391.33,696.23 C390.86,695.83,390.59,695.12,390.59,694.31 C390.59,692.94,391.31,692.08,392.45,692.08 C393.4,692.08,394.14,692.67,394.56,693.74 Z "
         stroke-width="0"
         fill="black"
         id="path14307" /><path
         d="M394.86,696.09 L394.87,696.09 L394.89,696.09 L394.9,696.09 L394.92,696.09 L394.93,696.09 L394.95,696.09 L394.98,696.09 L395.01,696.09 L395.02,696.09 L395.04,696.09 L395.05,696.09 L395.07,696.09 L395.09,696.09 L395.1,696.09 C395.44,696.09,395.51,696,395.51,695.53 V690.88 C395.51,690.36,395.4,690.25,394.82,690.19 V690.03 H397.22 V690.2 C396.48,690.21,396.35,690.32,396.35,690.95 V692.51 C396.7,692.18,396.93,692.08,397.35,692.08 L397.38,692.4 C396.91,692.4,396.35,692.76,396.35,693.05 V695.5 C396.35,695.8,396.9,696.16,397.36,696.16 C398.1,696.16,398.59,695.4,398.59,694.25 C398.59,693.15,398.1,692.4,397.38,692.4 L397.35,692.08 C398.53,692.08,399.44,693.19,399.44,694.64 C399.44,695.87,398.74,696.75,397.78,696.75 C397.22,696.75,396.79,696.5,396.35,695.97 V696.73 L396.29,696.75 C395.75,696.54,395.4,696.41,394.86,696.24 Z "
         stroke-width="0"
         fill="black"
         id="path14309" /><path
         d="M399.82,696.05 L399.83,696.06 L399.84,696.06 L399.85,696.06 L399.87,696.07 L399.89,696.07 L399.91,696.07 L399.93,696.08 L399.96,696.08 L399.98,696.08 L400,696.09 L400.02,696.09 L400.04,696.09 L400.06,696.09 L400.08,696.09 L400.1,696.09 L400.12,696.09 L400.14,696.09 L400.16,696.09 C400.41,696.09,400.5,695.94,400.5,695.5 V693.02 C400.5,692.52,400.43,692.45,399.8,692.33 V692.18 H402.18 V692.33 C401.51,692.36,401.34,692.51,401.34,693.08 V695.31 C401.34,695.63,401.77,696.12,402.04,696.12 C402.09,696.12,402.18,696.08,402.29,695.98 C402.45,695.84,402.56,695.78,402.69,695.78 C402.93,695.78,403.08,695.95,403.08,696.22 C403.08,696.55,402.87,696.75,402.53,696.75 C402.11,696.75,401.83,696.52,401.34,695.82 V696.73 L401.29,696.75 C400.76,696.53,400.4,696.4,399.82,696.21 Z "
         stroke-width="0"
         fill="black"
         id="path14311" /><path
         d="M407.12,693.81 L407.08,693.74 L407.03,693.67 L406.99,693.61 L406.95,693.55 L406.9,693.49 L406.86,693.43 L406.81,693.38 L406.77,693.33 L406.73,693.28 L406.68,693.23 L406.64,693.19 L406.59,693.15 L406.55,693.11 L406.5,693.07 L406.46,693.04 L406.41,693.01 L406.37,692.98 L406.32,692.95 L406.27,692.92 L406.22,692.9 L406.17,692.88 L406.12,692.86 L406.07,692.84 L406.02,692.82 L405.97,692.81 L405.92,692.8 L405.87,692.79 L405.81,692.78 L405.75,692.77 L405.7,692.77 L405.64,692.77 L405.58,692.77 C405.01,692.77,404.59,693.05,404.3,693.62 C404.12,694,404.05,694.33,404.03,694.93 L404.05,695.25 C404.16,696.03,404.5,696.39,405.1,696.39 C405.71,696.39,405.95,696.11,406.08,695.25 H404.05 L404.03,694.93 H407.09 C407.01,695.58,406.91,695.87,406.67,696.18 C406.37,696.54,405.91,696.75,405.39,696.75 C404.89,696.75,404.43,696.57,404.05,696.23 C403.58,695.83,403.31,695.12,403.31,694.31 C403.31,692.94,404.03,692.08,405.17,692.08 C406.12,692.08,406.86,692.67,407.28,693.74 Z "
         stroke-width="0"
         fill="black"
         id="path14313" /><path
         d="M410.62,695.3 L410.58,696.65 H410.47 L410.45,696.63 C410.36,696.56,410.35,696.55,410.31,696.55 C410.25,696.55,410.15,696.57,410.04,696.62 C409.83,696.7,409.61,696.74,409.35,696.74 C408.56,696.74,407.99,696.23,407.99,695.52 C407.99,694.96,408.31,694.57,409.16,694.09 L409.74,693.76 C410.08,693.56,410.25,693.32,410.25,693.02 C410.25,692.58,409.93,692.3,409.43,692.3 C409.09,692.3,408.78,692.43,408.59,692.65 C408.38,692.9,408.29,693.12,408.16,693.69 H408.01 V692.14 H408.13 C408.2,692.24,408.24,692.26,408.36,692.26 C408.45,692.26,408.59,692.24,408.82,692.18 C409.1,692.12,409.37,692.08,409.55,692.08 C410.31,692.08,410.95,692.66,410.95,693.35 C410.95,693.85,410.71,694.18,410.11,694.53 L409.04,695.17 C408.76,695.33,408.61,695.58,408.61,695.85 C408.61,696.24,408.92,696.52,409.38,696.52 C409.95,696.52,410.24,696.18,410.47,695.3 Z "
         stroke-width="0"
         fill="black"
         id="path14315" /><path
         d="M415.42,693.81 L415.38,693.74 L415.33,693.67 L415.29,693.61 L415.24,693.55 L415.2,693.49 L415.16,693.43 L415.11,693.38 L415.07,693.33 L415.02,693.28 L414.98,693.23 L414.94,693.19 L414.89,693.15 L414.85,693.11 L414.8,693.07 L414.76,693.04 L414.71,693.01 L414.66,692.98 L414.62,692.95 L414.57,692.92 L414.52,692.9 L414.47,692.88 L414.42,692.86 L414.37,692.84 L414.32,692.82 L414.27,692.81 L414.22,692.8 L414.16,692.79 L414.11,692.78 L414.05,692.77 L414,692.77 L413.94,692.77 L413.88,692.77 C413.31,692.77,412.89,693.05,412.6,693.62 C412.42,694,412.35,694.33,412.33,694.93 L412.35,695.25 C412.46,696.03,412.8,696.39,413.4,696.39 C414.01,696.39,414.25,696.11,414.38,695.25 H412.35 L412.33,694.93 H415.39 C415.31,695.58,415.21,695.87,414.96,696.18 C414.67,696.54,414.21,696.75,413.69,696.75 C413.19,696.75,412.73,696.57,412.35,696.23 C411.88,695.83,411.61,695.12,411.61,694.31 C411.61,692.94,412.33,692.08,413.47,692.08 C414.42,692.08,415.16,692.67,415.58,693.74 Z "
         stroke-width="0"
         fill="black"
         id="path14317" /><path
         d="M415.95,696.14 L415.95,696.14 L415.96,696.14 L415.96,696.14 L415.97,696.15 L415.98,696.15 L415.98,696.15 L415.99,696.15 L416,696.15 L416,696.16 L416.01,696.16 L416.03,696.16 L416.04,696.16 L416.06,696.17 L416.08,696.17 L416.1,696.17 L416.12,696.17 L416.13,696.17 L416.15,696.17 L416.17,696.17 L416.19,696.17 L416.21,696.17 C416.49,696.17,416.58,696.03,416.58,695.54 V693.08 C416.58,692.51,416.47,692.37,415.96,692.33 V692.18 H418.07 V692.33 C417.57,692.37,417.42,692.49,417.42,692.85 V695.64 C417.89,696.09,418.11,696.2,418.44,696.2 C418.93,696.2,419.17,695.9,419.17,695.24 V693.16 C419.17,692.54,419.04,692.37,418.54,692.33 V692.18 H420.61 V692.33 C420.12,692.38,420.01,692.5,420.01,692.99 V695.26 C420.01,696.19,419.57,696.75,418.83,696.75 C418.37,696.75,418.06,696.58,417.39,695.95 V696.73 L417.32,696.75 C416.83,696.57,416.49,696.46,415.95,696.3 Z "
         stroke-width="0"
         fill="black"
         id="path14319" /><path
         d="M423.3,696.65 H422.3 V697.8 C422.3,697.9,422.29,697.93,422.23,697.93 C422.16,697.84,422.1,697.75,422.03,697.66 C421.65,697.11,421.23,696.63,421.07,696.59 C420.96,696.52,420.9,696.45,420.9,696.4 C420.9,696.37,420.91,696.35,420.94,696.33 H421.46 V693.34 C421.46,692.51,421.76,692.08,422.35,692.08 C422.84,692.08,423.21,692.32,423.54,692.84 L423.41,692.95 C423.2,692.7,423.04,692.6,422.82,692.6 C422.45,692.6,422.3,692.87,422.3,693.49 V696.33 H423.3 Z "
         stroke-width="0"
         fill="black"
         id="path14321" /><path
         d="M427.93,692.84 L427.92,692.82 L427.9,692.81 L427.89,692.8 L427.87,692.79 L427.86,692.78 L427.84,692.77 L427.83,692.76 L427.82,692.75 L427.8,692.74 L427.79,692.73 L427.77,692.72 L427.76,692.72 L427.75,692.71 L427.73,692.7 L427.72,692.7 L427.71,692.69 L427.7,692.68 L427.68,692.68 L427.67,692.68 L427.66,692.67 L427.64,692.67 L427.63,692.66 L427.62,692.66 L427.6,692.66 L427.58,692.65 L427.55,692.65 L427.52,692.65 L427.5,692.65 C427.27,692.65,427.2,692.79,427.2,693.22 V695.16 C427.2,695.68,427.15,695.97,427,696.2 C426.78,696.56,426.35,696.75,425.77,696.75 C424.83,696.75,424.09,696.26,424.09,695.64 C424.09,695.41,424.29,695.21,424.52,695.21 C424.76,695.21,424.97,695.41,424.97,695.63 C424.97,695.67,424.96,695.72,424.95,695.79 C424.93,695.88,424.92,695.96,424.92,696.03 C424.92,696.29,425.24,696.51,425.64,696.51 C426.12,696.51,426.39,696.22,426.39,695.69 V695.08 V694.84 V693.4 C426.39,693.09,426.34,693.01,426.13,692.89 C425.89,692.75,425.62,692.66,425.41,692.66 C425.06,692.66,424.78,693,424.78,693.42 V693.46 C424.78,694.05,425.19,694.41,426.39,694.84 V695.08 C424.86,694.47,424.69,694.39,424.26,694.01 C424.04,693.81,423.9,693.47,423.9,693.15 C423.9,692.52,424.34,692.08,424.95,692.08 C425.39,692.08,425.8,692.29,426.4,692.81 C426.45,692.29,426.63,692.08,427.04,692.08 C427.38,692.08,427.59,692.2,427.93,692.58 Z "
         stroke-width="0"
         fill="black"
         id="path14323" /><path
         d="M430.5,696.65 H429.49 V697.8 C429.49,697.9,429.48,697.93,429.42,697.93 C429.35,697.84,429.29,697.75,429.22,697.66 C428.85,697.11,428.42,696.63,428.26,696.59 C428.15,696.52,428.09,696.45,428.09,696.4 C428.09,696.37,428.1,696.35,428.13,696.33 H428.66 V693.34 C428.66,692.51,428.95,692.08,429.54,692.08 C430.03,692.08,430.41,692.32,430.74,692.84 L430.61,692.95 C430.4,692.7,430.23,692.6,430.01,692.6 C429.64,692.6,429.49,692.87,429.49,693.49 V696.33 H430.5 Z "
         stroke-width="0"
         fill="black"
         id="path14325" /><path
         d="M432.47,696.75 L430.93,696.2 V696.05 L431.01,696.07 C431.13,696.09,431.26,696.09,431.35,696.09 C431.59,696.09,431.67,695.94,431.67,695.5 V693.19 C431.67,692.48,431.58,692.37,430.89,692.33 V692.18 H433.25 V692.33 C432.59,692.38,432.51,692.48,432.51,693.19 V696.72 Z "
         stroke-width="0"
         fill="black"
         id="path14327" /><path
         d="M432,698.97 L431.98,698.97 L431.95,698.96 L431.93,698.96 L431.9,698.96 L431.88,698.95 L431.86,698.94 L431.83,698.94 L431.81,698.93 L431.79,698.92 L431.77,698.9 L431.75,698.89 L431.73,698.88 L431.71,698.86 L431.69,698.85 L431.67,698.83 L431.65,698.82 L431.64,698.8 L431.62,698.78 L431.61,698.76 L431.59,698.74 L431.58,698.72 L431.57,698.7 L431.56,698.68 L431.55,698.66 L431.54,698.63 L431.53,698.61 L431.52,698.59 L431.52,698.56 L431.51,698.54 L431.51,698.51 L431.51,698.48 L431.51,698.46 C431.51,698.18,431.73,697.95,432,697.95 C432.29,697.95,432.52,698.17,432.52,698.46 C432.52,698.74,432.29,698.97,432,698.97 Z "
         stroke-width="0"
         fill="black"
         id="path14329" /><path
         d="M435.99,696.75 L435.87,696.75 L435.75,696.74 L435.63,696.73 L435.52,696.71 L435.41,696.68 L435.3,696.65 L435.2,696.62 L435.1,696.58 L435,696.54 L434.9,696.49 L434.81,696.43 L434.72,696.38 L434.64,696.31 L434.56,696.25 L434.48,696.18 L434.4,696.1 L434.33,696.02 L434.26,695.94 L434.2,695.85 L434.14,695.76 L434.09,695.67 L434.04,695.57 L433.99,695.47 L433.95,695.37 L433.91,695.26 L433.88,695.15 L433.85,695.04 L433.83,694.92 L433.81,694.8 L433.8,694.68 L433.79,694.55 L433.79,694.43 C433.79,693.09,434.71,692.08,435.97,692.08 L436.09,692.36 C435.7,692.36,435.33,692.6,435.12,693 C434.84,693.51,434.68,694.21,434.68,694.91 C434.68,695.86,435.15,696.47,435.86,696.47 H435.86 C436.69,696.47,437.28,695.52,437.28,694.16 C437.28,693.03,436.83,692.36,436.09,692.36 L435.97,692.08 C437.22,692.08,438.18,693.14,438.18,694.51 C438.18,695.81,437.26,696.75,435.99,696.75 Z "
         stroke-width="0"
         fill="black"
         id="path14331" /><path
         d="M438.64,696.14 L438.65,696.14 L438.65,696.14 L438.66,696.14 L438.66,696.15 L438.67,696.15 L438.68,696.15 L438.68,696.15 L438.69,696.15 L438.7,696.16 L438.71,696.16 L438.72,696.16 L438.74,696.16 L438.76,696.17 L438.77,696.17 L438.79,696.17 L438.81,696.17 L438.83,696.17 L438.85,696.17 L438.87,696.17 L438.89,696.17 L438.91,696.17 C439.19,696.17,439.28,696.03,439.28,695.54 V693.08 C439.28,692.51,439.17,692.37,438.66,692.33 V692.18 H440.77 V692.33 C440.26,692.37,440.11,692.49,440.11,692.85 V695.64 C440.59,696.09,440.81,696.2,441.14,696.2 C441.62,696.2,441.86,695.9,441.86,695.24 V693.16 C441.86,692.54,441.73,692.37,441.24,692.33 V692.18 H443.31 V692.33 C442.82,692.38,442.7,692.5,442.7,692.99 V695.26 C442.7,696.19,442.26,696.75,441.52,696.75 C441.07,696.75,440.76,696.58,440.08,695.95 V696.73 L440.01,696.75 C439.52,696.57,439.19,696.46,438.64,696.3 Z "
         stroke-width="0"
         fill="black"
         id="path14333" /><path
         d="M448.44,696.75 L448.32,696.75 L448.2,696.74 L448.09,696.73 L447.97,696.71 L447.86,696.68 L447.76,696.65 L447.65,696.62 L447.55,696.58 L447.45,696.54 L447.36,696.49 L447.26,696.43 L447.18,696.38 L447.09,696.31 L447.01,696.25 L446.93,696.18 L446.86,696.1 L446.78,696.02 L446.72,695.94 L446.65,695.85 L446.6,695.76 L446.54,695.67 L446.49,695.57 L446.44,695.47 L446.4,695.37 L446.37,695.26 L446.33,695.15 L446.31,695.04 L446.28,694.92 L446.26,694.8 L446.25,694.68 L446.24,694.55 L446.24,694.43 C446.24,693.09,447.17,692.08,448.42,692.08 L448.54,692.36 C448.15,692.36,447.78,692.6,447.58,693 C447.3,693.51,447.14,694.21,447.14,694.91 C447.14,695.86,447.6,696.47,448.31,696.47 H448.31 C449.15,696.47,449.73,695.52,449.73,694.16 C449.73,693.03,449.29,692.36,448.54,692.36 L448.42,692.08 C449.67,692.08,450.63,693.14,450.63,694.51 C450.63,695.81,449.71,696.75,448.44,696.75 Z "
         stroke-width="0"
         fill="black"
         id="path14335" /><path
         d="M454.01,696.65 H452.79 V697.8 C452.79,698.38,452.97,698.69,453.35,698.69 C453.56,698.69,453.7,698.59,453.88,698.3 C454.04,698.04,454.16,697.94,454.33,697.94 C454.56,697.94,454.74,698.12,454.74,698.35 C454.74,698.71,454.31,698.97,453.71,698.97 C453.09,698.97,452.57,698.7,452.31,698.24 C452.05,697.8,451.97,697.45,451.96,696.65 H451.14 V696.33 H451.96 V693.21 C451.96,692.49,451.85,692.37,451.13,692.33 V692.18 H453.72 V692.33 C452.9,692.36,452.8,692.47,452.8,693.21 V696.33 H454.01 Z "
         stroke-width="0"
         fill="black"
         id="path14337" /><polygon
         points="462.18,694.46 462.18,695.01 457.08,695.01 457.08,694.46 "
         stroke-width="0"
         fill="black"
         id="polygon14339" /><path
         d="M465.6,691.96 L465.71,691.97 L465.81,691.99 L465.9,692 L466,692.01 L466.09,692.03 L466.18,692.04 L466.26,692.06 L466.34,692.07 L466.42,692.09 L466.5,692.11 L466.58,692.13 L466.65,692.15 L466.73,692.17 L466.8,692.19 L466.94,692.23 L467.07,692.28 L467.2,692.33 L467.32,692.39 L467.45,692.45 L467.57,692.52 L467.69,692.6 L467.82,692.68 L467.88,692.72 L467.94,692.77 C468.98,693.52,469.58,694.75,469.58,696.09 C469.58,697.73,468.67,698.9,467.39,698.9 C466.2,698.9,465.32,697.89,465.32,696.55 C465.32,695.34,466.03,694.53,467.11,694.53 C467.65,694.53,468.07,694.69,468.6,695.1 L468.47,695.33 C468.19,695.09,467.82,694.96,467.46,694.96 C466.71,694.96,466.23,695.71,466.23,696.89 C466.23,697.46,466.39,698.05,466.6,698.31 C466.77,698.51,467.02,698.62,467.3,698.62 C468.17,698.62,468.62,697.76,468.62,696.09 V695.71 C468.62,695.51,468.58,695.42,468.47,695.33 L468.6,695.1 C468.19,693.48,467.09,692.42,465.57,692.16 Z "
         stroke-width="0"
         fill="black"
         id="path14341" /><path
         d="M472.52,698.9 L472.47,698.9 L472.42,698.89 L472.37,698.89 L472.33,698.89 L472.28,698.88 L472.23,698.88 L472.18,698.87 L472.14,698.86 L472.09,698.86 L472.05,698.85 L472,698.84 L471.96,698.82 L471.92,698.81 L471.87,698.8 L471.83,698.78 L471.79,698.77 L471.75,698.75 L471.71,698.73 L471.67,698.72 L471.63,698.7 L471.59,698.68 L471.55,698.65 L471.52,698.63 L471.48,698.61 L471.44,698.58 L471.4,698.56 L471.37,698.53 L471.33,698.5 L471.3,698.47 L471.26,698.44 L471.23,698.41 L471.19,698.38 C470.61,697.82,470.24,696.68,470.24,695.52 C470.24,694.44,470.57,693.27,471.03,692.72 C471.4,692.28,471.91,692.04,472.49,692.04 V692.3 C471.63,692.3,471.19,693.36,471.19,695.43 C471.19,697.53,471.64,698.64,472.5,698.64 H472.5 C473.33,698.64,473.78,697.52,473.78,695.44 C473.78,693.36,473.34,692.3,472.49,692.3 V692.04 C472.99,692.04,473.42,692.21,473.78,692.56 C474.36,693.1,474.73,694.26,474.73,695.46 C474.73,697.5,473.83,698.9,472.52,698.9 Z "
         stroke-width="0"
         fill="black"
         id="path14343" /><polygon
         points="483.46,695.46 483.46,696.02 478.36,696.02 478.36,695.46 "
         stroke-width="0"
         fill="black"
         id="polygon14345" /><polygon
         points="483.46,693.44 483.46,694 478.36,694 478.36,693.44 "
         stroke-width="0"
         fill="black"
         id="polygon14347" /></g>    <g
       style="font-style:normal;font-variant:normal;font-weight:normal;font-stretch:normal;letter-spacing:normal;word-spacing:normal;text-anchor:start;fill:none;stroke:#000000;stroke-width:1;stroke-linecap:butt;stroke-linejoin:miter;stroke-miterlimit:10.43299961;stroke-opacity:1;stroke-dasharray:none;stroke-dashoffset:0"
       ns0:preamble="/home/sriranga/Desktop/Prism_BasicElectronics/preamble.tex"
       ns0:text="$M= 78$\\\\\n$N= -90$"
       text-anchor="start"
       word-spacing="normal"
       letter-spacing="normal"
       font-size-adjust="none"
       font-stretch="normal"
       font-weight="normal"
       font-variant="normal"
       font-style="normal"
       fill-opacity="1"
       fill-rule="evenodd"
       fill="none"
       stroke-opacity="1"
       stroke-dashoffset="0"
       stroke-dasharray="none"
       stroke-miterlimit="10.433"
       stroke-linejoin="miter"
       stroke-linecap="butt"
       stroke="black"
       xml:space="preserve"
       transform="matrix(1.2,0,0,-1.2,-126.887,1699.4783)"
       id="content"><path
         id="path14650"
         fill="black"
         stroke-width="0"
         d="M232.62,713.61 H230.95 L227.61,708.71 L227.06,713.61 H225.26 V713.45 C225.76,713.42,226,713.31,226,713.09 C226,713.01,225.96,712.86,225.9,712.68 C225.88,712.64,225.85,712.53,225.81,712.38 C225.8,712.35,225.79,712.31,225.78,712.27 L224.73,708.58 C224.42,707.54,224.27,707.34,223.75,707.28 V707.12 H225.72 V707.28 C225.21,707.32,225.01,707.44,225.01,707.72 C225.01,707.82,225.05,708.08,225.1,708.25 L226.28,712.55 L226.88,707.12 H227.05 L230.8,712.7 L229.52,708.03 C229.36,707.5,229.16,707.35,228.52,707.28 V707.12 H231.23 V707.28 C230.56,707.34,230.47,707.4,230.47,707.71 C230.47,707.88,230.49,708.01,230.58,708.32 L231.8,712.72 C231.98,713.31,232.03,713.36,232.62,713.45 Z " /><polygon
         id="polygon14652"
         fill="black"
         stroke-width="0"
         points="241.11,710.4 241.11,710.96 236.01,710.96 236.01,710.4 " /><polygon
         id="polygon14654"
         fill="black"
         stroke-width="0"
         points="241.11,708.39 241.11,708.94 236.01,708.94 236.01,708.39 " /><path
         id="path14656"
         fill="black"
         stroke-width="0"
         d="M248.97,713.7 H245.29 L244.7,712.24 L244.87,712.16 C245.29,712.84,245.47,712.97,246.02,712.97 H248.18 L246.21,707.05 H246.86 L248.97,713.54 Z " /><path
         id="path14658"
         fill="black"
         stroke-width="0"
         d="M252.37,710.81 L252.46,710.86 L252.54,710.91 L252.63,710.96 L252.71,711 L252.78,711.05 L252.85,711.1 L252.92,711.14 L252.99,711.19 L253.05,711.24 L253.11,711.28 L253.17,711.33 L253.22,711.38 L253.27,711.42 L253.32,711.47 L253.36,711.52 L253.4,711.56 L253.44,711.61 L253.47,711.66 L253.51,711.71 L253.54,711.76 L253.56,711.81 L253.59,711.86 L253.61,711.91 L253.63,711.97 L253.65,712.02 L253.66,712.07 L253.67,712.13 L253.68,712.19 L253.69,712.25 L253.69,712.31 L253.7,712.37 L253.7,712.43 C253.7,713.24,252.98,713.84,251.99,713.84 L251.91,713.56 C252.58,713.56,253.01,713.12,253.01,712.44 C253.01,711.87,252.73,711.43,252.17,711.05 C252.12,711.02,252.12,711.02,252.08,710.99 H252.08 C251.19,711.57,250.83,712.02,250.83,712.58 C250.83,713.16,251.28,713.56,251.91,713.56 L251.99,713.84 C250.9,713.84,250.1,713.17,250.1,712.27 C250.1,711.62,250.29,711.34,251.33,710.42 C250.26,709.61,250.04,709.3,250.04,708.62 C250.04,707.66,250.82,706.99,251.95,706.99 L252.06,707.26 C251.3,707.26,250.79,707.84,250.79,708.7 C250.79,709.34,251.01,709.76,251.59,710.22 L252.19,709.79 C252.91,709.27,253.15,708.91,253.15,708.36 C253.15,707.71,252.7,707.26,252.06,707.26 L251.95,706.99 C253.14,706.99,253.91,707.64,253.91,708.66 C253.91,709.43,253.57,709.92,252.37,710.81 Z " /><path
         id="path14660"
         fill="black"
         stroke-width="0"
         d="M230.91,701.66 H228.93 V701.5 C229.5,701.45,229.63,701.35,229.63,700.99 C229.63,700.87,229.61,700.75,229.54,700.55 C229.53,700.52,229.52,700.48,229.52,700.47 L228.51,696.7 L226.44,701.66 H224.84 V701.5 C225.3,701.46,225.51,701.33,225.69,700.94 L224.51,696.8 C224.13,695.53,224.05,695.41,223.48,695.33 V695.17 H225.45 V695.33 C224.95,695.37,224.76,695.48,224.76,695.76 C224.76,695.89,224.79,696.08,224.85,696.29 L225.98,700.48 L228.27,695.02 H228.45 L229.88,700.02 C230.25,701.3,230.29,701.36,230.91,701.5 Z " /><polygon
         id="polygon14662"
         fill="black"
         stroke-width="0"
         points="239.4,698.45 239.4,699 234.31,699 234.31,698.45 " /><polygon
         id="polygon14664"
         fill="black"
         stroke-width="0"
         points="239.4,696.43 239.4,696.99 234.31,696.99 234.31,696.43 " /><polygon
         id="polygon14666"
         fill="black"
         stroke-width="0"
         points="248.51,697.45 248.51,698 243.41,698 243.41,697.45 " /><path
         id="path14668"
         fill="black"
         stroke-width="0"
         d="M249.72,694.95 L249.82,694.96 L249.92,694.98 L250.02,694.99 L250.11,695 L250.2,695.02 L250.29,695.03 L250.37,695.05 L250.46,695.06 L250.54,695.08 L250.62,695.1 L250.69,695.12 L250.77,695.13 L250.84,695.15 L250.91,695.18 L251.05,695.22 L251.18,695.27 L251.31,695.32 L251.44,695.38 L251.56,695.44 L251.68,695.51 L251.81,695.59 L251.93,695.67 L251.99,695.71 L252.06,695.76 C253.09,696.51,253.7,697.74,253.7,699.08 C253.7,700.72,252.78,701.89,251.5,701.89 C250.32,701.89,249.43,700.88,249.43,699.54 C249.43,698.33,250.15,697.52,251.22,697.52 C251.77,697.52,252.18,697.68,252.71,698.09 L252.58,698.32 C252.3,698.08,251.94,697.95,251.58,697.95 C250.82,697.95,250.35,698.7,250.35,699.88 C250.35,700.45,250.5,701.04,250.71,701.3 C250.88,701.5,251.13,701.61,251.42,701.61 C252.29,701.61,252.73,700.75,252.73,699.08 V698.7 C252.73,698.5,252.69,698.41,252.58,698.32 L252.71,698.09 C252.3,696.47,251.2,695.41,249.69,695.15 Z " /><path
         id="path14670"
         fill="black"
         stroke-width="0"
         d="M256.64,701.89 L256.59,701.88 L256.54,701.88 L256.49,701.88 L256.44,701.88 L256.39,701.87 L256.34,701.87 L256.3,701.86 L256.25,701.85 L256.21,701.84 L256.16,701.84 L256.12,701.82 L256.07,701.81 L256.03,701.8 L255.99,701.79 L255.95,701.77 L255.91,701.76 L255.86,701.74 L255.82,701.72 L255.78,701.7 L255.75,701.68 L255.71,701.66 L255.67,701.64 L255.63,701.62 L255.59,701.6 L255.56,701.57 L255.52,701.55 L255.48,701.52 L255.45,701.49 L255.41,701.46 L255.38,701.43 L255.34,701.4 L255.31,701.37 C254.73,700.81,254.35,699.67,254.35,698.51 C254.35,697.42,254.68,696.26,255.15,695.71 C255.51,695.27,256.02,695.03,256.6,695.03 V695.29 C255.74,695.29,255.31,696.35,255.31,698.42 C255.31,700.52,255.75,701.63,256.61,701.63 H256.61 C257.45,701.63,257.89,700.5,257.89,698.43 C257.89,696.35,257.45,695.29,256.6,695.29 V695.03 C257.11,695.03,257.54,695.2,257.89,695.55 C258.47,696.09,258.85,697.25,258.85,698.45 C258.85,700.48,257.94,701.89,256.64,701.89 Z " /></g>    <path
       style="fill:none;stroke:#000000;stroke-width:0.80000001;stroke-linecap:square;stroke-linejoin:round;stroke-miterlimit:4;stroke-opacity:1;stroke-dasharray:none;stroke-dashoffset:0;marker-start:none;marker-end:url(#Arrow1Mend)"
       d="m 301.75073,893.30171 0,21.82341"
       id="path14827"
       inkscape:connector-curvature="0" />
    <g
       id="g15565"
       transform="matrix(1.2,0,0,-1.2,-21.41998,1779.6919)"
       xml:space="preserve"
       stroke-miterlimit="10.433"
       font-style="normal"
       font-variant="normal"
       font-weight="normal"
       font-stretch="normal"
       font-size-adjust="none"
       letter-spacing="normal"
       word-spacing="normal"
       ns0:text="$=- (0~0~0~0~1~1~0~0)$"
       ns0:preamble="/home/sriranga/Desktop/Prism_BasicElectronics/preamble.tex"
       style="font-style:normal;font-variant:normal;font-weight:normal;font-stretch:normal;letter-spacing:normal;word-spacing:normal;text-anchor:start;fill:none;stroke:#000000;stroke-width:1;stroke-linecap:butt;stroke-linejoin:miter;stroke-miterlimit:10.43299961;stroke-opacity:1;stroke-dasharray:none;stroke-dashoffset:0"><polygon
         style="fill:#000000;stroke-width:0"
         points="229.14,710.4 229.14,710.96 224.05,710.96 224.05,710.4 "
         id="polygon15567" /><polygon
         style="fill:#000000;stroke-width:0"
         points="229.14,708.39 229.14,708.94 224.05,708.94 224.05,708.39 "
         id="polygon15569" /><polygon
         style="fill:#000000;stroke-width:0"
         points="238.25,709.4 238.25,709.96 233.15,709.96 233.15,709.4 "
         id="polygon15571" /><path
         style="fill:#000000;stroke-width:0"
         inkscape:connector-curvature="0"
         d="m 241.81,713.84 -0.07,-0.04 -0.07,-0.05 -0.06,-0.04 -0.06,-0.04 -0.06,-0.04 -0.05,-0.04 -0.06,-0.04 -0.05,-0.03 -0.05,-0.04 -0.05,-0.04 -0.05,-0.03 -0.04,-0.04 -0.05,-0.03 -0.04,-0.04 -0.08,-0.06 -0.08,-0.07 -0.07,-0.07 -0.08,-0.07 -0.07,-0.07 -0.06,-0.07 -0.07,-0.08 -0.07,-0.08 -0.07,-0.08 c -0.7,-0.87 -1.05,-1.86 -1.05,-3.02 0,-1.26 0.37,-2.24 1.24,-3.25 0.41,-0.48 0.67,-0.7 1.19,-1.01 l 0.12,0.16 c -0.8,0.62 -1.08,0.97 -1.35,1.71 -0.23,0.67 -0.34,1.42 -0.34,2.42 0,1.04 0.13,1.86 0.39,2.47 0.28,0.62 0.58,0.97 1.3,1.55 z"
         id="path15573" /><path
         style="fill:#000000;stroke-width:0"
         inkscape:connector-curvature="0"
         d="m 244.72,713.84 -0.05,0 -0.05,0 -0.05,0 -0.05,-0.01 -0.05,0 -0.05,-0.01 -0.04,0 -0.05,-0.01 -0.05,-0.01 -0.04,-0.01 -0.05,-0.01 -0.04,-0.01 -0.04,-0.01 -0.04,-0.02 -0.05,-0.01 -0.04,-0.02 -0.04,-0.01 -0.04,-0.02 -0.04,-0.02 -0.04,-0.02 -0.04,-0.02 -0.03,-0.02 -0.04,-0.03 -0.04,-0.02 -0.04,-0.02 -0.03,-0.03 -0.04,-0.03 -0.04,-0.02 -0.03,-0.03 -0.04,-0.03 -0.03,-0.03 -0.04,-0.04 c -0.57,-0.55 -0.95,-1.7 -0.95,-2.86 0,-1.08 0.33,-2.24 0.79,-2.8 0.37,-0.44 0.88,-0.67 1.46,-0.67 v 0.25 c -0.86,0 -1.3,1.07 -1.3,3.13 0,2.11 0.45,3.21 1.31,3.21 h 0 c 0.83,0 1.28,-1.12 1.28,-3.2 0,-2.07 -0.44,-3.14 -1.29,-3.14 v -0.25 c 0.5,0 0.93,0.17 1.29,0.51 0.58,0.55 0.96,1.7 0.96,2.9 0,2.04 -0.91,3.44 -2.21,3.44 z"
         id="path15575" /><path
         style="fill:#000000;stroke-width:0"
         inkscape:connector-curvature="0"
         d="m 252.19,713.84 -0.05,0 -0.05,0 -0.05,0 -0.05,-0.01 -0.05,0 -0.05,-0.01 -0.04,0 -0.05,-0.01 -0.04,-0.01 -0.05,-0.01 -0.04,-0.01 -0.05,-0.01 -0.04,-0.01 -0.04,-0.02 -0.04,-0.01 -0.05,-0.02 -0.04,-0.01 -0.04,-0.02 -0.04,-0.02 -0.04,-0.02 -0.03,-0.02 -0.04,-0.02 -0.04,-0.03 -0.04,-0.02 -0.04,-0.02 -0.03,-0.03 -0.04,-0.03 -0.03,-0.02 -0.04,-0.03 -0.04,-0.03 -0.03,-0.03 -0.04,-0.04 c -0.57,-0.55 -0.95,-1.7 -0.95,-2.86 0,-1.08 0.33,-2.24 0.8,-2.8 0.36,-0.44 0.87,-0.67 1.45,-0.67 v 0.25 c -0.86,0 -1.3,1.07 -1.3,3.13 0,2.11 0.45,3.21 1.31,3.21 h 0 c 0.83,0 1.28,-1.12 1.28,-3.2 0,-2.07 -0.44,-3.14 -1.29,-3.14 v -0.25 c 0.51,0 0.93,0.17 1.29,0.51 0.58,0.55 0.96,1.7 0.96,2.9 0,2.04 -0.91,3.44 -2.21,3.44 z"
         id="path15577" /><path
         style="fill:#000000;stroke-width:0"
         inkscape:connector-curvature="0"
         d="m 259.66,713.84 -0.05,0 -0.05,0 -0.05,0 -0.05,-0.01 -0.05,0 -0.04,-0.01 -0.05,0 -0.05,-0.01 -0.04,-0.01 -0.05,-0.01 -0.04,-0.01 -0.04,-0.01 -0.05,-0.01 -0.04,-0.02 -0.04,-0.01 -0.04,-0.02 -0.04,-0.01 -0.04,-0.02 -0.04,-0.02 -0.04,-0.02 -0.04,-0.02 -0.04,-0.02 -0.04,-0.03 -0.04,-0.02 -0.03,-0.02 -0.04,-0.03 -0.04,-0.03 -0.03,-0.02 -0.04,-0.03 -0.03,-0.03 -0.04,-0.03 -0.03,-0.04 c -0.58,-0.55 -0.96,-1.7 -0.96,-2.86 0,-1.08 0.33,-2.24 0.8,-2.8 0.37,-0.44 0.87,-0.67 1.45,-0.67 v 0.25 c -0.85,0 -1.29,1.07 -1.29,3.13 0,2.11 0.44,3.21 1.3,3.21 h 0 c 0.84,0 1.28,-1.12 1.28,-3.2 0,-2.07 -0.43,-3.14 -1.29,-3.14 v -0.25 c 0.51,0 0.94,0.17 1.29,0.51 0.58,0.55 0.96,1.7 0.96,2.9 0,2.04 -0.91,3.44 -2.21,3.44 z"
         id="path15579" /><path
         style="fill:#000000;stroke-width:0"
         inkscape:connector-curvature="0"
         d="m 267.13,713.84 -0.05,0 -0.05,0 -0.05,0 -0.05,-0.01 -0.05,0 -0.04,-0.01 -0.05,0 -0.05,-0.01 -0.04,-0.01 -0.05,-0.01 -0.04,-0.01 -0.04,-0.01 -0.05,-0.01 -0.04,-0.02 -0.04,-0.01 -0.04,-0.02 -0.04,-0.01 -0.04,-0.02 -0.04,-0.02 -0.04,-0.02 -0.04,-0.02 -0.04,-0.02 -0.04,-0.03 -0.03,-0.02 -0.04,-0.02 -0.04,-0.03 -0.03,-0.03 -0.04,-0.02 -0.04,-0.03 -0.03,-0.03 -0.04,-0.03 -0.03,-0.04 c -0.58,-0.55 -0.96,-1.7 -0.96,-2.86 0,-1.08 0.33,-2.24 0.8,-2.8 0.37,-0.44 0.88,-0.67 1.45,-0.67 v 0.25 c -0.85,0 -1.29,1.07 -1.29,3.13 0,2.11 0.45,3.21 1.3,3.21 h 0 c 0.84,0 1.29,-1.12 1.29,-3.2 0,-2.07 -0.44,-3.14 -1.3,-3.14 v -0.25 c 0.51,0 0.94,0.17 1.3,0.51 0.57,0.55 0.95,1.7 0.95,2.9 0,2.04 -0.9,3.44 -2.21,3.44 z"
         id="path15581" /><path
         style="fill:#000000;stroke-width:0"
         inkscape:connector-curvature="0"
         d="m 274.97,713.84 -1.79,-0.9 v -0.14 c 0.12,0.05 0.23,0.09 0.27,0.11 0.18,0.07 0.35,0.11 0.45,0.11 0.21,0 0.3,-0.15 0.3,-0.47 v -4.5 c 0,-0.33 -0.08,-0.56 -0.24,-0.65 -0.15,-0.09 -0.29,-0.12 -0.71,-0.13 v -0.15 H 276 v 0.15 c -0.79,0.01 -0.95,0.11 -0.95,0.59 v 5.96 z"
         id="path15583" /><path
         style="fill:#000000;stroke-width:0"
         inkscape:connector-curvature="0"
         d="m 282.44,713.84 -1.79,-0.9 v -0.14 c 0.12,0.05 0.23,0.09 0.27,0.11 0.18,0.07 0.35,0.11 0.45,0.11 0.21,0 0.3,-0.15 0.3,-0.47 v -4.5 c 0,-0.33 -0.08,-0.56 -0.24,-0.65 -0.15,-0.09 -0.29,-0.12 -0.71,-0.13 v -0.15 h 2.75 v 0.15 c -0.79,0.01 -0.95,0.11 -0.95,0.59 v 5.96 z"
         id="path15585" /><path
         style="fill:#000000;stroke-width:0"
         inkscape:connector-curvature="0"
         d="m 289.55,713.84 -0.05,0 -0.05,0 -0.05,0 -0.05,-0.01 -0.05,0 -0.05,-0.01 -0.04,0 -0.05,-0.01 -0.04,-0.01 -0.05,-0.01 -0.04,-0.01 -0.05,-0.01 -0.04,-0.01 -0.04,-0.02 -0.04,-0.01 -0.05,-0.02 -0.04,-0.01 -0.04,-0.02 -0.04,-0.02 -0.04,-0.02 -0.03,-0.02 -0.04,-0.02 -0.04,-0.03 -0.04,-0.02 -0.04,-0.02 -0.03,-0.03 -0.04,-0.03 -0.03,-0.02 -0.04,-0.03 -0.04,-0.03 -0.03,-0.03 -0.04,-0.04 c -0.57,-0.55 -0.95,-1.7 -0.95,-2.86 0,-1.08 0.33,-2.24 0.8,-2.8 0.36,-0.44 0.87,-0.67 1.45,-0.67 v 0.25 c -0.86,0 -1.3,1.07 -1.3,3.13 0,2.11 0.45,3.21 1.31,3.21 h 0 c 0.83,0 1.28,-1.12 1.28,-3.2 0,-2.07 -0.44,-3.14 -1.29,-3.14 v -0.25 c 0.51,0 0.93,0.17 1.29,0.51 0.58,0.55 0.96,1.7 0.96,2.9 0,2.04 -0.91,3.44 -2.21,3.44 z"
         id="path15587" /><path
         style="fill:#000000;stroke-width:0"
         inkscape:connector-curvature="0"
         d="m 297.02,713.84 -0.05,0 -0.05,0 -0.05,0 -0.05,-0.01 -0.05,0 -0.04,-0.01 -0.05,0 -0.05,-0.01 -0.04,-0.01 -0.05,-0.01 -0.04,-0.01 -0.05,-0.01 -0.04,-0.01 -0.04,-0.02 -0.04,-0.01 -0.04,-0.02 -0.04,-0.01 -0.04,-0.02 -0.04,-0.02 -0.04,-0.02 -0.04,-0.02 -0.04,-0.02 -0.04,-0.03 -0.04,-0.02 -0.03,-0.02 -0.04,-0.03 -0.04,-0.03 -0.03,-0.02 -0.04,-0.03 -0.03,-0.03 -0.04,-0.03 -0.03,-0.04 c -0.58,-0.55 -0.96,-1.7 -0.96,-2.86 0,-1.08 0.33,-2.24 0.8,-2.8 0.37,-0.44 0.87,-0.67 1.45,-0.67 v 0.25 c -0.86,0 -1.29,1.07 -1.29,3.13 0,2.11 0.45,3.21 1.3,3.21 h 0 c 0.84,0 1.28,-1.12 1.28,-3.2 0,-2.07 -0.43,-3.14 -1.29,-3.14 v -0.25 c 0.51,0 0.94,0.17 1.29,0.51 0.58,0.55 0.96,1.7 0.96,2.9 0,2.04 -0.91,3.44 -2.21,3.44 z"
         id="path15589" /><path
         style="fill:#000000;stroke-width:0"
         inkscape:connector-curvature="0"
         d="m 299.85,705.37 0.07,0.04 0.07,0.04 0.06,0.05 0.06,0.04 0.06,0.04 0.05,0.03 0.06,0.04 0.05,0.04 0.05,0.04 0.05,0.03 0.05,0.04 0.04,0.03 0.05,0.04 0.04,0.03 0.08,0.07 0.08,0.07 0.07,0.07 0.07,0.07 0.07,0.07 0.07,0.07 0.07,0.08 0.07,0.08 0.07,0.08 c 0.7,0.86 1.05,1.86 1.05,3.02 0,1.27 -0.37,2.23 -1.24,3.25 -0.41,0.47 -0.67,0.69 -1.19,1.01 l -0.12,-0.16 c 0.8,-0.63 1.07,-0.97 1.35,-1.72 0.24,-0.66 0.34,-1.42 0.34,-2.41 0,-1.03 -0.12,-1.86 -0.39,-2.46 -0.28,-0.63 -0.58,-0.99 -1.3,-1.56 z"
         id="path15591" /></g>    <g
       style="font-style:normal;font-variant:normal;font-weight:normal;font-stretch:normal;letter-spacing:normal;word-spacing:normal;text-anchor:start;fill:none;stroke:#000000;stroke-width:1;stroke-linecap:butt;stroke-linejoin:miter;stroke-miterlimit:10.43299961;stroke-opacity:1;stroke-dasharray:none;stroke-dashoffset:0"
       ns0:preamble="/home/sriranga/Desktop/Prism_BasicElectronics/preamble.tex"
       ns0:text="$\\therefore $~ Answer~ $: (00001100)_2= -12$ "
       word-spacing="normal"
       letter-spacing="normal"
       font-size-adjust="none"
       font-stretch="normal"
       font-weight="normal"
       font-variant="normal"
       font-style="normal"
       stroke-miterlimit="10.433"
       xml:space="preserve"
       transform="matrix(1.2,0,0,-1.2,-84.57598,1800.0196)"
       id="g15895"><path
         id="path15897"
         d="m 227.27,711.21 0,0.02 0,0.03 0,0.03 -0.01,0.02 0,0.03 -0.01,0.02 -0.01,0.03 -0.01,0.02 -0.01,0.02 -0.01,0.03 -0.01,0.02 -0.02,0.02 -0.01,0.02 -0.02,0.02 -0.02,0.02 -0.01,0.02 -0.02,0.02 -0.02,0.01 -0.02,0.02 -0.02,0.01 -0.02,0.02 -0.02,0.01 -0.03,0.01 -0.02,0.01 -0.02,0.01 -0.03,0.01 -0.02,0.01 -0.03,0 -0.03,0.01 -0.02,0 -0.03,0 -0.03,0 c -0.28,0 -0.52,-0.23 -0.52,-0.52 0,-0.29 0.24,-0.53 0.52,-0.53 0.28,0 0.53,0.23 0.53,0.53 z"
         inkscape:connector-curvature="0"
         style="fill:#000000;stroke-width:0" /><path
         id="path15899"
         d="m 229.76,706.91 0,0.02 0,0.03 -0.01,0.03 0,0.02 -0.01,0.03 0,0.02 -0.01,0.03 -0.01,0.02 -0.01,0.02 -0.01,0.03 -0.02,0.02 -0.01,0.02 -0.02,0.02 -0.01,0.02 -0.02,0.02 -0.02,0.02 -0.01,0.02 -0.02,0.01 -0.02,0.02 -0.02,0.01 -0.03,0.02 -0.02,0.01 -0.02,0.01 -0.02,0.01 -0.03,0.01 -0.02,0.01 -0.03,0.01 -0.02,0 -0.03,0.01 -0.02,0 -0.03,0 -0.03,0 c -0.29,0 -0.52,-0.24 -0.52,-0.52 0,-0.29 0.23,-0.53 0.52,-0.53 0.29,0 0.53,0.24 0.53,0.53 z"
         inkscape:connector-curvature="0"
         style="fill:#000000;stroke-width:0" /><path
         id="path15901"
         d="m 224.79,706.91 -0.01,0.02 0,0.03 0,0.03 -0.01,0.02 0,0.03 -0.01,0.02 -0.01,0.03 -0.01,0.02 -0.01,0.02 -0.01,0.03 -0.01,0.02 -0.02,0.02 -0.01,0.02 -0.02,0.02 -0.01,0.02 -0.02,0.02 -0.02,0.02 -0.02,0.01 -0.02,0.02 -0.02,0.01 -0.02,0.02 -0.02,0.01 -0.02,0.01 -0.03,0.01 -0.02,0.01 -0.03,0.01 -0.02,0.01 -0.03,0 -0.02,0.01 -0.03,0 -0.03,0 -0.02,0 c -0.29,0 -0.53,-0.24 -0.53,-0.52 0,-0.29 0.24,-0.53 0.53,-0.53 0.29,0 0.53,0.24 0.53,0.53 z"
         inkscape:connector-curvature="0"
         style="fill:#000000;stroke-width:0" /><path
         id="path15903"
         d="m 242.08,707.31 -0.04,0.01 -0.04,0 -0.04,0 -0.03,0.01 -0.04,0.01 -0.03,0 -0.03,0.01 -0.03,0.01 -0.03,0.01 -0.03,0.01 -0.02,0.01 -0.03,0.02 -0.02,0.01 -0.03,0.02 -0.02,0.02 -0.03,0.02 -0.02,0.03 -0.02,0.02 -0.03,0.03 -0.02,0.03 -0.02,0.03 -0.02,0.04 -0.03,0.04 -0.02,0.04 -0.03,0.04 -0.02,0.05 -0.03,0.05 -0.03,0.05 -0.02,0.06 -0.03,0.06 -0.02,0.03 -0.01,0.03 -0.02,0.03 -0.02,0.04 -2.47,5.64 h -0.2 l -2.07,-4.88 c -0.64,-1.45 -0.76,-1.61 -1.24,-1.63 v -0.19 h 1.97 v 0.19 c -0.47,0 -0.67,0.13 -0.67,0.41 0,0.12 0.03,0.26 0.08,0.39 l 0.46,1.16 h 2.6 l -0.14,0.41 h -2.3 l 1.15,2.73 1.15,-2.73 0.14,-0.41 0.41,-0.95 c 0.12,-0.27 0.19,-0.53 0.19,-0.67 0,-0.25 -0.17,-0.33 -0.7,-0.34 v -0.19 h 2.54 z"
         inkscape:connector-curvature="0"
         style="fill:#000000;stroke-width:0" /><path
         id="path15905"
         d="m 242.41,711.08 0,0 0.01,0 0,0.01 0.01,0 0.01,0 0,0 0.01,0.01 0.01,0 0.01,0 0,0 0.02,0 0.02,0.01 0.01,0 0.02,0 0.02,0 0.02,0 0.02,0.01 0.02,0 0.02,0 0.02,0 0.02,0 c 0.27,0 0.36,-0.15 0.36,-0.64 v -2.46 c 0,-0.57 -0.11,-0.71 -0.61,-0.75 v -0.15 h 2.11 v 0.15 c -0.51,0.04 -0.66,0.16 -0.66,0.52 v 2.79 c 0.48,0.45 0.7,0.57 1.02,0.57 0.49,0 0.73,-0.31 0.73,-0.97 v -2.07 c 0,-0.63 -0.13,-0.8 -0.63,-0.84 v -0.15 h 2.07 v 0.15 c -0.48,0.05 -0.6,0.17 -0.6,0.66 v 2.27 c 0,0.94 -0.44,1.5 -1.18,1.5 -0.45,0 -0.76,-0.17 -1.44,-0.81 v 0.78 l -0.07,0.03 c -0.49,-0.18 -0.83,-0.29 -1.37,-0.45 z"
         inkscape:connector-curvature="0"
         style="fill:#000000;stroke-width:0" /><path
         id="path15907"
         d="m 250.36,710.24 -0.04,1.35 h -0.11 l -0.02,-0.01 c -0.09,-0.07 -0.09,-0.08 -0.14,-0.08 -0.06,0 -0.15,0.02 -0.26,0.07 -0.22,0.08 -0.44,0.11 -0.7,0.11 -0.79,0 -1.35,-0.5 -1.35,-1.22 0,-0.55 0.31,-0.95 1.16,-1.43 l 0.58,-0.33 c 0.35,-0.19 0.51,-0.43 0.51,-0.74 0,-0.44 -0.31,-0.72 -0.82,-0.72 -0.34,0 -0.65,0.13 -0.84,0.35 -0.21,0.25 -0.29,0.48 -0.42,1.05 h -0.16 v -1.55 h 0.13 c 0.07,0.09 0.11,0.11 0.22,0.11 0.09,0 0.23,-0.02 0.46,-0.08 0.28,-0.05 0.55,-0.09 0.73,-0.09 0.76,0 1.4,0.57 1.4,1.27 0,0.49 -0.24,0.82 -0.83,1.18 l -1.08,0.63 c -0.28,0.16 -0.43,0.41 -0.43,0.68 0,0.4 0.31,0.68 0.77,0.68 0.57,0 0.87,-0.34 1.09,-1.23 z"
         inkscape:connector-curvature="0"
         style="fill:#000000;stroke-width:0" /><path
         id="path15909"
         d="m 256.79,711.59 v -0.14 c 0.33,-0.07 0.43,-0.14 0.43,-0.31 0,-0.15 -0.06,-0.39 -0.17,-0.66 l -0.89,-2.2 -0.84,2.22 c -0.17,0.46 -0.17,0.46 -0.17,0.59 0,0.22 0.11,0.29 0.58,0.36 v 0.14 h -2.02 v -0.14 c 0.37,-0.04 0.49,-0.15 0.69,-0.69 0.07,-0.19 0.14,-0.38 0.2,-0.56 l -0.91,-1.97 -0.98,2.59 c -0.04,0.1 -0.06,0.2 -0.06,0.3 0,0.21 0.12,0.29 0.45,0.33 v 0.14 h -1.79 v -0.14 c 0.23,-0.02 0.31,-0.12 0.53,-0.63 l 1.34,-3.4 c 0.12,-0.3 0.2,-0.43 0.26,-0.43 0.05,0 0.13,0.12 0.25,0.38 l 1.12,2.39 0.9,-2.35 c 0.14,-0.36 0.18,-0.42 0.24,-0.42 0.07,0 0.12,0.09 0.28,0.48 l 1.37,3.44 c 0.18,0.42 0.21,0.47 0.41,0.54 v 0.14 z"
         inkscape:connector-curvature="0"
         style="fill:#000000;stroke-width:0" /><path
         id="path15911"
         d="m 262.36,708.75 -0.05,-0.07 -0.04,-0.06 -0.05,-0.07 -0.04,-0.06 -0.04,-0.06 -0.05,-0.05 -0.04,-0.06 -0.05,-0.05 -0.04,-0.05 -0.04,-0.04 -0.05,-0.05 -0.04,-0.04 -0.05,-0.04 -0.04,-0.03 -0.05,-0.04 -0.04,-0.03 -0.05,-0.03 -0.05,-0.03 -0.05,-0.02 -0.04,-0.03 -0.05,-0.02 -0.05,-0.02 -0.05,-0.02 -0.05,-0.01 -0.05,-0.02 -0.06,-0.01 -0.05,-0.01 -0.06,-0.01 -0.05,0 -0.06,-0.01 -0.06,0 -0.05,0 c -0.57,0 -1,0.29 -1.29,0.86 -0.18,0.37 -0.25,0.7 -0.27,1.31 l 0.02,0.32 c 0.11,0.77 0.45,1.14 1.06,1.14 0.6,0 0.84,-0.28 0.97,-1.14 h -2.03 l -0.02,-0.32 h 3.07 c -0.08,0.64 -0.18,0.93 -0.43,1.25 -0.3,0.36 -0.76,0.57 -1.27,0.57 -0.5,0 -0.97,-0.18 -1.35,-0.52 -0.46,-0.41 -0.73,-1.11 -0.73,-1.93 0,-1.37 0.71,-2.22 1.86,-2.22 0.94,0 1.69,0.58 2.11,1.65 z"
         inkscape:connector-curvature="0"
         style="fill:#000000;stroke-width:0" /><path
         id="path15913"
         d="m 262.79,711 0.01,0 0.02,0 0.01,0.01 0.01,0 0.02,0 0.03,0.01 0.02,0 0.02,0 0.02,0.01 0.02,0 0.02,0 0.02,0 0.02,0.01 0.02,0 0.02,0 0.03,0 0.02,0 0.02,0 c 0.25,0 0.34,-0.16 0.34,-0.6 v -2.48 c 0,-0.5 -0.07,-0.57 -0.71,-0.69 v -0.15 h 2.39 v 0.15 c -0.68,0.03 -0.85,0.18 -0.85,0.75 v 2.23 c 0,0.32 0.43,0.82 0.7,0.82 0.06,0 0.15,-0.05 0.26,-0.15 0.16,-0.14 0.27,-0.2 0.4,-0.2 0.23,0 0.38,0.17 0.38,0.45 0,0.33 -0.2,0.53 -0.54,0.53 -0.42,0 -0.71,-0.23 -1.2,-0.94 v 0.91 l -0.05,0.03 c -0.52,-0.22 -0.88,-0.35 -1.47,-0.54 z"
         inkscape:connector-curvature="0"
         style="fill:#000000;stroke-width:0" /><path
         id="path15915"
         d="m 272.37,711.68 -0.02,0 -0.03,0 -0.03,0 -0.03,-0.01 -0.02,0 -0.03,-0.01 -0.02,-0.01 -0.03,-0.01 -0.02,-0.01 -0.03,-0.01 -0.02,-0.02 -0.02,-0.01 -0.02,-0.02 -0.02,-0.02 -0.02,-0.01 -0.02,-0.02 -0.02,-0.02 -0.02,-0.02 -0.01,-0.02 -0.02,-0.03 -0.01,-0.02 -0.02,-0.02 -0.01,-0.03 -0.01,-0.02 -0.01,-0.03 -0.01,-0.03 -0.01,-0.02 0,-0.03 -0.01,-0.03 0,-0.02 0,-0.03 0,-0.03 c 0,-0.29 0.24,-0.54 0.53,-0.54 0.31,0 0.57,0.25 0.57,0.54 0,0.31 -0.26,0.56 -0.56,0.56 z"
         inkscape:connector-curvature="0"
         style="fill:#000000;stroke-width:0" /><path
         id="path15917"
         d="m 272.37,708.12 -0.02,0 -0.03,0 -0.03,-0.01 -0.03,0 -0.02,-0.01 -0.03,-0.01 -0.02,-0.01 -0.03,-0.01 -0.02,-0.01 -0.03,-0.01 -0.02,-0.02 -0.02,-0.01 -0.02,-0.02 -0.02,-0.01 -0.02,-0.02 -0.02,-0.02 -0.02,-0.02 -0.02,-0.02 -0.01,-0.02 -0.02,-0.02 -0.01,-0.03 -0.02,-0.02 -0.01,-0.02 -0.01,-0.03 -0.01,-0.03 -0.01,-0.02 -0.01,-0.03 0,-0.03 -0.01,-0.02 0,-0.03 0,-0.03 0,-0.03 c 0,-0.29 0.24,-0.53 0.53,-0.53 0.31,0 0.57,0.24 0.57,0.53 0,0.31 -0.26,0.57 -0.56,0.57 z"
         inkscape:connector-curvature="0"
         style="fill:#000000;stroke-width:0" /><path
         id="path15919"
         d="m 279.49,713.84 -0.06,-0.04 -0.07,-0.05 -0.06,-0.04 -0.06,-0.04 -0.06,-0.04 -0.06,-0.04 -0.05,-0.04 -0.05,-0.03 -0.05,-0.04 -0.05,-0.04 -0.05,-0.03 -0.05,-0.04 -0.04,-0.03 -0.04,-0.04 -0.09,-0.06 -0.07,-0.07 -0.08,-0.07 -0.07,-0.07 -0.07,-0.07 -0.07,-0.07 -0.06,-0.08 -0.07,-0.08 -0.07,-0.08 c -0.7,-0.87 -1.05,-1.86 -1.05,-3.02 0,-1.26 0.36,-2.24 1.24,-3.25 0.41,-0.48 0.67,-0.7 1.18,-1.01 l 0.12,0.16 c -0.79,0.62 -1.07,0.97 -1.34,1.71 -0.24,0.67 -0.35,1.42 -0.35,2.42 0,1.04 0.13,1.86 0.4,2.47 0.28,0.62 0.58,0.97 1.29,1.55 z"
         inkscape:connector-curvature="0"
         style="fill:#000000;stroke-width:0" /><path
         id="path15921"
         d="m 282.4,713.84 -0.05,0 -0.05,0 -0.05,0 -0.05,-0.01 -0.04,0 -0.05,-0.01 -0.05,0 -0.04,-0.01 -0.05,-0.01 -0.04,-0.01 -0.05,-0.01 -0.04,-0.01 -0.04,-0.01 -0.05,-0.02 -0.04,-0.01 -0.04,-0.02 -0.04,-0.01 -0.04,-0.02 -0.04,-0.02 -0.04,-0.02 -0.04,-0.02 -0.04,-0.02 -0.04,-0.03 -0.03,-0.02 -0.04,-0.02 -0.04,-0.03 -0.03,-0.03 -0.04,-0.02 -0.03,-0.03 -0.04,-0.03 -0.04,-0.03 -0.03,-0.04 c -0.58,-0.55 -0.96,-1.7 -0.96,-2.86 0,-1.08 0.33,-2.24 0.8,-2.8 0.37,-0.44 0.88,-0.67 1.45,-0.67 v 0.25 c -0.85,0 -1.29,1.07 -1.29,3.13 0,2.11 0.45,3.21 1.3,3.21 h 0 c 0.84,0 1.29,-1.12 1.29,-3.2 0,-2.07 -0.44,-3.14 -1.3,-3.14 v -0.25 c 0.51,0 0.94,0.17 1.3,0.51 0.57,0.55 0.95,1.7 0.95,2.9 0,2.04 -0.9,3.44 -2.21,3.44 z"
         inkscape:connector-curvature="0"
         style="fill:#000000;stroke-width:0" /><path
         id="path15923"
         d="m 287.39,713.84 -0.06,0 -0.05,0 -0.05,0 -0.04,-0.01 -0.05,0 -0.05,-0.01 -0.05,0 -0.04,-0.01 -0.05,-0.01 -0.04,-0.01 -0.05,-0.01 -0.04,-0.01 -0.04,-0.01 -0.05,-0.02 -0.04,-0.01 -0.04,-0.02 -0.04,-0.01 -0.04,-0.02 -0.04,-0.02 -0.04,-0.02 -0.04,-0.02 -0.04,-0.02 -0.03,-0.03 -0.04,-0.02 -0.04,-0.02 -0.04,-0.03 -0.03,-0.03 -0.04,-0.02 -0.03,-0.03 -0.04,-0.03 -0.03,-0.03 -0.04,-0.04 c -0.57,-0.55 -0.95,-1.7 -0.95,-2.86 0,-1.08 0.32,-2.24 0.79,-2.8 0.37,-0.44 0.88,-0.67 1.46,-0.67 v 0.25 c -0.86,0 -1.3,1.07 -1.3,3.13 0,2.11 0.45,3.21 1.31,3.21 h 0 c 0.83,0 1.28,-1.12 1.28,-3.2 0,-2.07 -0.44,-3.14 -1.29,-3.14 v -0.25 c 0.5,0 0.93,0.17 1.29,0.51 0.58,0.55 0.95,1.7 0.95,2.9 0,2.04 -0.9,3.44 -2.2,3.44 z"
         inkscape:connector-curvature="0"
         style="fill:#000000;stroke-width:0" /><path
         id="path15925"
         d="m 292.37,713.84 -0.05,0 -0.06,0 -0.04,0 -0.05,-0.01 -0.05,0 -0.05,-0.01 -0.05,0 -0.04,-0.01 -0.05,-0.01 -0.04,-0.01 -0.05,-0.01 -0.04,-0.01 -0.04,-0.01 -0.04,-0.02 -0.05,-0.01 -0.04,-0.02 -0.04,-0.01 -0.04,-0.02 -0.04,-0.02 -0.04,-0.02 -0.04,-0.02 -0.03,-0.02 -0.04,-0.03 -0.04,-0.02 -0.04,-0.02 -0.03,-0.03 -0.04,-0.03 -0.04,-0.02 -0.03,-0.03 -0.04,-0.03 -0.03,-0.03 -0.04,-0.04 c -0.57,-0.55 -0.95,-1.7 -0.95,-2.86 0,-1.08 0.33,-2.24 0.79,-2.8 0.37,-0.44 0.88,-0.67 1.46,-0.67 v 0.25 c -0.86,0 -1.3,1.07 -1.3,3.13 0,2.11 0.45,3.21 1.31,3.21 h 0 c 0.83,0 1.28,-1.12 1.28,-3.2 0,-2.07 -0.44,-3.14 -1.29,-3.14 v -0.25 c 0.5,0 0.93,0.17 1.29,0.51 0.58,0.55 0.96,1.7 0.96,2.9 0,2.04 -0.91,3.44 -2.21,3.44 z"
         inkscape:connector-curvature="0"
         style="fill:#000000;stroke-width:0" /><path
         id="path15927"
         d="m 297.35,713.84 -0.05,0 -0.05,0 -0.05,0 -0.05,-0.01 -0.05,0 -0.05,-0.01 -0.04,0 -0.05,-0.01 -0.05,-0.01 -0.04,-0.01 -0.04,-0.01 -0.05,-0.01 -0.04,-0.01 -0.04,-0.02 -0.05,-0.01 -0.04,-0.02 -0.04,-0.01 -0.04,-0.02 -0.04,-0.02 -0.04,-0.02 -0.04,-0.02 -0.03,-0.02 -0.04,-0.03 -0.04,-0.02 -0.04,-0.02 -0.03,-0.03 -0.04,-0.03 -0.04,-0.02 -0.03,-0.03 -0.04,-0.03 -0.03,-0.03 -0.04,-0.04 c -0.57,-0.55 -0.95,-1.7 -0.95,-2.86 0,-1.08 0.33,-2.24 0.8,-2.8 0.36,-0.44 0.87,-0.67 1.45,-0.67 v 0.25 c -0.86,0 -1.3,1.07 -1.3,3.13 0,2.11 0.45,3.21 1.31,3.21 h 0 c 0.83,0 1.28,-1.12 1.28,-3.2 0,-2.07 -0.44,-3.14 -1.29,-3.14 v -0.25 c 0.51,0 0.93,0.17 1.29,0.51 0.58,0.55 0.96,1.7 0.96,2.9 0,2.04 -0.91,3.44 -2.21,3.44 z"
         inkscape:connector-curvature="0"
         style="fill:#000000;stroke-width:0" /><path
         id="path15929"
         d="m 302.7,713.84 -1.79,-0.9 v -0.14 c 0.12,0.05 0.23,0.09 0.26,0.11 0.18,0.07 0.35,0.11 0.45,0.11 0.21,0 0.3,-0.15 0.3,-0.47 v -4.5 c 0,-0.33 -0.08,-0.56 -0.24,-0.65 -0.15,-0.09 -0.29,-0.12 -0.7,-0.13 v -0.15 h 2.74 v 0.15 c -0.78,0.01 -0.94,0.11 -0.94,0.59 v 5.96 z"
         inkscape:connector-curvature="0"
         style="fill:#000000;stroke-width:0" /><path
         id="path15931"
         d="m 307.68,713.84 -1.79,-0.9 v -0.14 c 0.12,0.05 0.23,0.09 0.27,0.11 0.17,0.07 0.34,0.11 0.44,0.11 0.21,0 0.3,-0.15 0.3,-0.47 v -4.5 c 0,-0.33 -0.08,-0.56 -0.24,-0.65 -0.15,-0.09 -0.28,-0.12 -0.7,-0.13 v -0.15 h 2.74 v 0.15 c -0.78,0.01 -0.94,0.11 -0.94,0.59 v 5.96 z"
         inkscape:connector-curvature="0"
         style="fill:#000000;stroke-width:0" /><path
         id="path15933"
         d="m 312.29,713.84 -0.05,0 -0.05,0 -0.05,0 -0.05,-0.01 -0.05,0 -0.04,-0.01 -0.05,0 -0.05,-0.01 -0.04,-0.01 -0.05,-0.01 -0.04,-0.01 -0.04,-0.01 -0.05,-0.01 -0.04,-0.02 -0.04,-0.01 -0.04,-0.02 -0.04,-0.01 -0.04,-0.02 -0.04,-0.02 -0.04,-0.02 -0.04,-0.02 -0.04,-0.02 -0.04,-0.03 -0.04,-0.02 -0.03,-0.02 -0.04,-0.03 -0.04,-0.03 -0.03,-0.02 -0.04,-0.03 -0.03,-0.03 -0.04,-0.03 -0.03,-0.04 c -0.58,-0.55 -0.96,-1.7 -0.96,-2.86 0,-1.08 0.33,-2.24 0.8,-2.8 0.37,-0.44 0.87,-0.67 1.45,-0.67 v 0.25 c -0.85,0 -1.29,1.07 -1.29,3.13 0,2.11 0.45,3.21 1.3,3.21 h 0 c 0.84,0 1.29,-1.12 1.29,-3.2 0,-2.07 -0.44,-3.14 -1.3,-3.14 v -0.25 c 0.51,0 0.94,0.17 1.3,0.51 0.57,0.55 0.95,1.7 0.95,2.9 0,2.04 -0.9,3.44 -2.21,3.44 z"
         inkscape:connector-curvature="0"
         style="fill:#000000;stroke-width:0" /><path
         id="path15935"
         d="m 317.27,713.84 -0.05,0 -0.05,0 -0.05,0 -0.05,-0.01 -0.04,0 -0.05,-0.01 -0.05,0 -0.04,-0.01 -0.05,-0.01 -0.04,-0.01 -0.05,-0.01 -0.04,-0.01 -0.05,-0.01 -0.04,-0.02 -0.04,-0.01 -0.04,-0.02 -0.04,-0.01 -0.04,-0.02 -0.04,-0.02 -0.04,-0.02 -0.04,-0.02 -0.04,-0.02 -0.04,-0.03 -0.03,-0.02 -0.04,-0.02 -0.04,-0.03 -0.03,-0.03 -0.04,-0.02 -0.04,-0.03 -0.03,-0.03 -0.04,-0.03 -0.03,-0.04 c -0.58,-0.55 -0.96,-1.7 -0.96,-2.86 0,-1.08 0.33,-2.24 0.8,-2.8 0.37,-0.44 0.88,-0.67 1.45,-0.67 v 0.25 c -0.85,0 -1.29,1.07 -1.29,3.13 0,2.11 0.45,3.21 1.3,3.21 h 0 c 0.84,0 1.29,-1.12 1.29,-3.2 0,-2.07 -0.44,-3.14 -1.3,-3.14 v -0.25 c 0.51,0 0.94,0.17 1.3,0.51 0.57,0.55 0.95,1.7 0.95,2.9 0,2.04 -0.9,3.44 -2.21,3.44 z"
         inkscape:connector-curvature="0"
         style="fill:#000000;stroke-width:0" /><path
         id="path15937"
         d="m 320.11,705.37 0.06,0.04 0.07,0.04 0.06,0.05 0.06,0.04 0.06,0.04 0.06,0.03 0.05,0.04 0.05,0.04 0.05,0.04 0.05,0.03 0.05,0.04 0.05,0.03 0.04,0.04 0.04,0.03 0.08,0.07 0.08,0.07 0.08,0.07 0.07,0.07 0.07,0.07 0.06,0.07 0.07,0.08 0.07,0.08 0.07,0.08 c 0.7,0.86 1.05,1.86 1.05,3.02 0,1.27 -0.37,2.23 -1.24,3.25 -0.41,0.47 -0.67,0.69 -1.18,1.01 l -0.12,-0.16 c 0.79,-0.63 1.06,-0.97 1.34,-1.72 0.24,-0.66 0.35,-1.42 0.35,-2.41 0,-1.03 -0.13,-1.86 -0.4,-2.46 -0.28,-0.63 -0.58,-0.99 -1.29,-1.56 z"
         inkscape:connector-curvature="0"
         style="fill:#000000;stroke-width:0" /><path
         id="path15939"
         d="m 326.35,706.58 -0.09,0.04 c -0.26,-0.4 -0.35,-0.46 -0.66,-0.46 h -1.67 l 1.17,1.22 c 0.62,0.65 0.9,1.18 0.9,1.72 0,0.7 -0.57,1.23 -1.29,1.23 -0.39,0 -0.75,-0.15 -1.01,-0.43 -0.22,-0.24 -0.32,-0.46 -0.44,-0.95 l 0.14,-0.04 c 0.28,0.68 0.53,0.91 1.02,0.91 0.58,0 0.98,-0.4 0.98,-0.98 0,-0.55 -0.32,-1.19 -0.91,-1.81 l -1.24,-1.32 v -0.08 h 2.72 z"
         inkscape:connector-curvature="0"
         style="fill:#000000;stroke-width:0" /><polygon
         id="polygon15941"
         points="330.41,710.96 330.41,710.4 335.51,710.4 335.51,710.96 "
         style="fill:#000000;stroke-width:0" /><polygon
         id="polygon15943"
         points="330.41,708.94 330.41,708.39 335.51,708.39 335.51,708.94 "
         style="fill:#000000;stroke-width:0" /><polygon
         id="polygon15945"
         points="339.52,709.96 339.52,709.4 344.61,709.4 344.61,709.96 "
         style="fill:#000000;stroke-width:0" /><path
         id="path15947"
         d="m 348.13,713.84 -1.79,-0.9 v -0.14 c 0.12,0.05 0.23,0.09 0.27,0.11 0.18,0.07 0.35,0.11 0.45,0.11 0.21,0 0.29,-0.15 0.29,-0.47 v -4.5 c 0,-0.33 -0.08,-0.56 -0.24,-0.65 -0.14,-0.09 -0.28,-0.12 -0.7,-0.13 v -0.15 h 2.74 v 0.15 c -0.78,0.01 -0.94,0.11 -0.94,0.59 v 5.96 z"
         inkscape:connector-curvature="0"
         style="fill:#000000;stroke-width:0" /><path
         id="path15949"
         d="m 354.94,708.49 -0.13,0.05 c -0.36,-0.57 -0.49,-0.66 -0.94,-0.66 h -2.38 l 1.67,1.75 c 0.89,0.92 1.27,1.68 1.27,2.45 0,1 -0.8,1.76 -1.84,1.76 -0.54,0 -1.06,-0.22 -1.43,-0.62 -0.32,-0.33 -0.47,-0.65 -0.64,-1.36 l 0.21,-0.05 c 0.4,0.98 0.76,1.29 1.45,1.29 0.83,0 1.4,-0.56 1.4,-1.39 0,-0.78 -0.46,-1.7 -1.29,-2.59 l -1.77,-1.88 v -0.12 h 3.87 z"
         inkscape:connector-curvature="0"
         style="fill:#000000;stroke-width:0" /></g>  </g>
</svg>
