<?xml version="1.0" encoding="UTF-8" standalone="no"?>
<!-- Created with Inkscape (http://www.inkscape.org/) -->

<svg
   xmlns:ns0="http://www.iki.fi/pav/software/textext/"
   xmlns:dc="http://purl.org/dc/elements/1.1/"
   xmlns:cc="http://creativecommons.org/ns#"
   xmlns:rdf="http://www.w3.org/1999/02/22-rdf-syntax-ns#"
   xmlns:svg="http://www.w3.org/2000/svg"
   xmlns="http://www.w3.org/2000/svg"
   xmlns:sodipodi="http://sodipodi.sourceforge.net/DTD/sodipodi-0.dtd"
   xmlns:inkscape="http://www.inkscape.org/namespaces/inkscape"
   width="496.06299"
   height="354.33069"
   id="svg2"
   version="1.1"
   inkscape:version="0.48.4 r9939"
   sodipodi:docname="div29.eps">
  <sodipodi:namedview
     id="base"
     pagecolor="#ffffff"
     bordercolor="#666666"
     borderopacity="1.0"
     inkscape:pageopacity="0.0"
     inkscape:pageshadow="2"
     inkscape:zoom="1.6848668"
     inkscape:cx="139.86204"
     inkscape:cy="153.01283"
     inkscape:document-units="cm"
     inkscape:current-layer="layer1"
     showgrid="false"
     units="cm"
     inkscape:object-nodes="true"
     inkscape:window-width="1366"
     inkscape:window-height="744"
     inkscape:window-x="0"
     inkscape:window-y="24"
     inkscape:window-maximized="1">
    <inkscape:grid
       snapvisiblegridlinesonly="true"
       enabled="true"
       visible="true"
       empspacing="5"
       id="grid2985"
       type="xygrid" />
  </sodipodi:namedview>
  <defs
     id="defs4">
    <marker
       style="overflow:visible"
       id="Arrow1Mstart"
       refX="0"
       refY="0"
       orient="auto"
       inkscape:stockid="Arrow1Mstart">
      <path
         transform="matrix(0.4,0,0,0.4,4,0)"
         style="fill-rule:evenodd;stroke:#000000;stroke-width:1pt"
         d="M 0,0 5,-5 -12.5,0 5,5 0,0 z"
         id="path3775"
         inkscape:connector-curvature="0" />
    </marker>
    <marker
       style="overflow:visible"
       id="Arrow1Mend"
       refX="0"
       refY="0"
       orient="auto"
       inkscape:stockid="Arrow1Mend">
      <path
         transform="matrix(-0.4,0,0,-0.4,-4,0)"
         style="fill-rule:evenodd;stroke:#000000;stroke-width:1pt"
         d="M 0,0 5,-5 -12.5,0 5,5 0,0 z"
         id="path3778"
         inkscape:connector-curvature="0" />
    </marker>
    <marker
       inkscape:stockid="Arrow1Mstart"
       orient="auto"
       refY="0"
       refX="0"
       id="Arrow1Mstart-7"
       style="overflow:visible">
      <path
         inkscape:connector-curvature="0"
         id="path3775-8"
         d="M 0,0 5,-5 -12.5,0 5,5 0,0 z"
         style="fill-rule:evenodd;stroke:#000000;stroke-width:1pt"
         transform="matrix(0.4,0,0,0.4,4,0)" />
    </marker>
  </defs>
  <metadata
     id="metadata7">
    <rdf:RDF>
      <cc:Work
         rdf:about="">
        <dc:format>image/svg+xml</dc:format>
        <dc:type
           rdf:resource="http://purl.org/dc/dcmitype/StillImage" />
        <dc:title></dc:title>
      </cc:Work>
    </rdf:RDF>
  </metadata>
  <g
     transform="translate(0,-698.03016)"
     id="layer1"
     inkscape:groupmode="layer"
     inkscape:label="Layer 1">
    <text
       xml:space="preserve"
       style="font-size:12px;font-style:normal;font-variant:normal;font-weight:normal;font-stretch:normal;text-align:start;line-height:100%;letter-spacing:0px;word-spacing:0px;text-anchor:start;fill:#000000;fill-opacity:1;stroke:none;font-family:LMRoman12;-inkscape-font-specification:Sans"
       x="61.700558"
       y="754.07056"
       id="text5818"
       sodipodi:linespacing="100%"><tspan
         sodipodi:role="line"
         id="tspan5820"
         x="61.700558"
         y="754.07056" /></text>
    <flowRoot
       style="font-size:12px;font-style:normal;font-variant:normal;font-weight:normal;font-stretch:normal;text-align:start;line-height:100%;letter-spacing:0px;word-spacing:0px;text-anchor:start;fill:#000000;fill-opacity:1;stroke:none;font-family:LMRoman12;-inkscape-font-specification:Sans"
       id="flowRoot6377"
       xml:space="preserve"><flowRegion
         id="flowRegion6379"><rect
           y="87.141403"
           x="219.34796"
           height="40.319103"
           width="27.681772"
           id="rect6381" /></flowRegion><flowPara
         id="flowPara6383" /></flowRoot>    <text
       sodipodi:linespacing="50%"
       id="text6385"
       y="753.27734"
       x="275.91507"
       style="font-size:12px;font-style:normal;font-variant:normal;font-weight:normal;font-stretch:normal;text-align:start;line-height:50%;letter-spacing:0px;word-spacing:0px;text-anchor:start;fill:#000000;fill-opacity:1;stroke:none;font-family:LMRoman12;-inkscape-font-specification:Sans"
       xml:space="preserve"><tspan
         y="753.27734"
         x="275.91507"
         id="tspan6387"
         sodipodi:role="line" /></text>
    <text
       sodipodi:linespacing="100%"
       id="text3884"
       y="892.41718"
       x="348.65417"
       style="font-size:12px;font-style:normal;font-variant:normal;font-weight:normal;font-stretch:normal;text-align:start;line-height:100%;letter-spacing:0px;word-spacing:0px;text-anchor:start;fill:#000000;fill-opacity:1;stroke:none;font-family:LMRoman12;-inkscape-font-specification:Sans"
       xml:space="preserve"><tspan
         id="tspan3890"
         y="892.41718"
         x="348.65417"
         sodipodi:role="line" /></text>
    <text
       sodipodi:linespacing="150%"
       id="text3887"
       y="948.92749"
       x="216.96629"
       style="font-size:12px;font-style:normal;font-variant:normal;font-weight:normal;font-stretch:normal;text-align:start;line-height:150%;letter-spacing:0px;word-spacing:0px;text-anchor:start;fill:#000000;fill-opacity:1;stroke:none;font-family:LMRoman12;-inkscape-font-specification:Sans"
       xml:space="preserve"><tspan
         y="948.92749"
         x="216.96629"
         id="tspan3889"
         sodipodi:role="line" /></text>
    <text
       sodipodi:linespacing="150%"
       id="text7389"
       y="759.11084"
       x="173"
       style="font-size:12px;font-style:normal;font-variant:normal;font-weight:normal;font-stretch:normal;text-align:start;line-height:150%;letter-spacing:0px;word-spacing:0px;text-anchor:start;fill:#000000;fill-opacity:1;stroke:none;font-family:LMRoman12;-inkscape-font-specification:Sans"
       xml:space="preserve"><tspan
         y="759.11084"
         x="173"
         id="tspan7391"
         sodipodi:role="line" /></text>
    <text
       sodipodi:linespacing="150%"
       id="text11589"
       y="800.76282"
       x="262.90411"
       style="font-size:12px;font-style:normal;font-variant:normal;font-weight:normal;font-stretch:normal;text-align:start;line-height:150%;letter-spacing:0px;word-spacing:0px;text-anchor:start;fill:#000000;fill-opacity:1;stroke:none;font-family:LMRoman12;-inkscape-font-specification:Sans"
       xml:space="preserve"><tspan
         dx="0 0 0 -2.5180867"
         y="800.76282"
         x="262.90411"
         id="tspan11591"
         sodipodi:role="line">   1 0 1 0 1 0  0</tspan><tspan
         id="tspan12760"
         y="818.76282"
         x="262.90411"
         sodipodi:role="line">1 0 1 0 1 1 0  0</tspan></text>
    <path
       style="fill:none;stroke:#000000;stroke-width:0.5;stroke-linecap:square;stroke-linejoin:round;stroke-miterlimit:4;stroke-opacity:1;stroke-dasharray:none;stroke-dashoffset:0;marker-end:url(#Arrow1Mend)"
       d="m 265.24498,819.89643 -7.87275,8.48812"
       id="path12575"
       inkscape:connector-curvature="0" />
    <text
       xml:space="preserve"
       style="font-size:12px;font-style:normal;font-variant:normal;font-weight:normal;font-stretch:normal;text-align:start;line-height:150%;letter-spacing:0px;word-spacing:0px;text-anchor:start;fill:#000000;fill-opacity:1;stroke:none;font-family:LMRoman12;-inkscape-font-specification:Sans"
       x="253.1362"
       y="848.61829"
       id="text12764"
       sodipodi:linespacing="150%"><tspan
         dx="0 0 0 1.4837968"
         sodipodi:role="line"
         id="tspan12766"
         x="253.1362"
         y="848.61829">   0 1 0 0 1 1 1 0</tspan><tspan
         sodipodi:role="line"
         x="253.1362"
         y="866.61829"
         id="tspan12770">+ 1 0 1 0 1 1 0 0</tspan></text>
    <text
       sodipodi:linespacing="150%"
       id="text12772"
       y="831.86865"
       x="216.90637"
       style="font-size:12px;font-style:normal;font-variant:normal;font-weight:normal;font-stretch:normal;text-align:start;line-height:150%;letter-spacing:0px;word-spacing:0px;text-anchor:start;fill:#000000;fill-opacity:1;stroke:none;font-family:LMRoman12;-inkscape-font-specification:Sans"
       xml:space="preserve"><tspan
         y="831.86865"
         x="216.90637"
         id="tspan12774"
         sodipodi:role="line">sign bit</tspan></text>
    <text
       transform="translate(0,698.03016)"
       sodipodi:linespacing="150%"
       id="text12776"
       y="185.47461"
       x="347.50522"
       style="font-size:12px;font-style:normal;font-variant:normal;font-weight:normal;font-stretch:normal;text-align:start;line-height:150%;letter-spacing:0px;word-spacing:0px;text-anchor:start;fill:#000000;fill-opacity:1;stroke:none;font-family:LMRoman12;-inkscape-font-specification:Sans"
       xml:space="preserve"><tspan
         y="185.47461"
         x="347.50522"
         id="tspan12778"
         sodipodi:role="line" /></text>
    <path
       inkscape:connector-curvature="0"
       id="path12780"
       d="m 255.60803,872.82143 89.91809,0"
       style="fill:none;stroke:#000000;stroke-width:0.80000001;stroke-linecap:square;stroke-linejoin:round;stroke-miterlimit:4;stroke-opacity:1;stroke-dasharray:none;stroke-dashoffset:0" />
    <text
       xml:space="preserve"
       style="font-size:12px;font-style:normal;font-variant:normal;font-weight:normal;font-stretch:normal;text-align:start;line-height:150%;letter-spacing:0px;word-spacing:0px;text-anchor:start;fill:#000000;fill-opacity:1;stroke:none;font-family:LMRoman12;-inkscape-font-specification:Sans"
       x="265.85538"
       y="884.50726"
       id="text12782"
       sodipodi:linespacing="150%"><tspan
         sodipodi:role="line"
         x="265.85538"
         y="884.50726"
         id="tspan12786">1 1 1 1 1 0 1 0 </tspan><tspan
         sodipodi:role="line"
         x="265.85538"
         y="902.50726"
         id="tspan12788" /></text>
    <text
       xml:space="preserve"
       style="font-size:12px;font-style:normal;font-variant:normal;font-weight:normal;font-stretch:normal;text-align:start;line-height:150%;letter-spacing:0px;word-spacing:0px;text-anchor:start;fill:#000000;fill-opacity:1;stroke:none;font-family:LMRoman12;-inkscape-font-specification:Sans"
       x="153.49274"
       y="903.37408"
       id="text17237"
       sodipodi:linespacing="150%"><tspan
         sodipodi:role="line"
         id="tspan17239"
         x="153.49274"
         y="903.37408">No carry 2'nd complement</tspan></text>
    <g
       style="font-style:normal;font-variant:normal;font-weight:normal;font-stretch:normal;letter-spacing:normal;word-spacing:normal;text-anchor:start;fill:none;stroke:#000000;stroke-width:1;stroke-linecap:butt;stroke-linejoin:miter;stroke-miterlimit:10.43299961;stroke-opacity:1;stroke-dasharray:none;stroke-dashoffset:0"
       ns0:preamble="/home/sriranga/Desktop/Prism_BasicElectronics/preamble.tex"
       ns0:text="\\begin{align*}\n\\text{Binary equivalent of}~ 84 =\\\\\n\\therefore ~\\text{2\'nd complement representation of} -84 =\n\\end{align*}"
       text-anchor="start"
       word-spacing="normal"
       letter-spacing="normal"
       font-size-adjust="none"
       font-stretch="normal"
       font-weight="normal"
       font-variant="normal"
       font-style="normal"
       fill-opacity="1"
       fill-rule="evenodd"
       fill="none"
       stroke-opacity="1"
       stroke-dashoffset="0"
       stroke-dasharray="none"
       stroke-miterlimit="10.433"
       stroke-linejoin="miter"
       stroke-linecap="butt"
       stroke="black"
       xml:space="preserve"
       transform="matrix(1.2,0,0,-1.2,-355.7056,1647.0508)"
       id="g17717"><path
         id="path17719"
         fill="black"
         stroke-width="0"
         d="M383.22,713.7 V713.51 C384.06,713.46,384.18,713.35,384.18,712.62 V708.21 C384.18,707.47,384.05,707.34,383.22,707.31 V707.12 H386.55 C387.32,707.12,388.03,707.33,388.4,707.67 C388.76,707.99,388.95,708.44,388.95,708.91 C388.95,709.35,388.77,709.75,388.47,710.04 C388.17,710.3,387.9,710.42,387.25,710.58 C387.77,710.71,387.98,710.81,388.22,711.02 C388.47,711.24,388.62,711.6,388.62,712.01 C388.62,713.12,387.73,713.7,386.01,713.7 L385.85,713.33 C386.99,713.33,387.6,712.86,387.6,711.97 C387.6,711.2,387.07,710.76,386.14,710.76 H385.19 V710.36 C386.16,710.36,386.62,710.31,386.97,710.16 C387.54,709.93,387.81,709.53,387.81,708.9 C387.81,708.37,387.6,707.98,387.2,707.75 C386.88,707.57,386.48,707.49,385.82,707.49 C385.33,707.49,385.19,707.58,385.19,707.9 V710.36 V710.76 V713.04 C385.19,713.24,385.26,713.33,385.41,713.33 H385.85 L386.01,713.7 Z " /><path
         id="path17721"
         fill="black"
         stroke-width="0"
         d="M391.44,711.7 L389.9,711.15 V711 L389.98,711.01 C390.1,711.03,390.23,711.04,390.32,711.04 C390.55,711.04,390.64,710.88,390.64,710.44 V708.14 C390.64,707.42,390.55,707.31,389.86,707.27 V707.12 H392.22 V707.27 C391.56,707.32,391.48,707.42,391.48,708.14 V711.66 Z " /><path
         id="path17723"
         fill="black"
         stroke-width="0"
         d="M390.97,713.91 L390.95,713.91 L390.92,713.91 L390.9,713.9 L390.87,713.9 L390.85,713.89 L390.83,713.89 L390.8,713.88 L390.78,713.87 L390.76,713.86 L390.74,713.85 L390.72,713.84 L390.7,713.82 L390.68,713.81 L390.66,713.79 L390.64,713.78 L390.62,713.76 L390.61,713.74 L390.59,713.72 L390.58,713.71 L390.56,713.69 L390.55,713.67 L390.54,713.64 L390.53,713.62 L390.51,713.6 L390.51,713.58 L390.5,713.55 L390.49,713.53 L390.49,713.5 L390.48,713.48 L390.48,713.45 L390.48,713.43 L390.48,713.4 C390.48,713.12,390.69,712.9,390.97,712.9 C391.26,712.9,391.49,713.11,391.49,713.4 C391.49,713.68,391.26,713.91,390.97,713.91 Z " /><path
         id="path17725"
         fill="black"
         stroke-width="0"
         d="M392.63,711.08 L392.63,711.08 L392.64,711.08 L392.65,711.09 L392.65,711.09 L392.66,711.09 L392.67,711.09 L392.67,711.1 L392.68,711.1 L392.69,711.1 L392.69,711.1 L392.71,711.1 L392.73,711.11 L392.74,711.11 L392.76,711.11 L392.78,711.11 L392.8,711.11 L392.82,711.12 L392.84,711.12 L392.86,711.12 L392.88,711.12 L392.9,711.12 C393.17,711.12,393.27,710.97,393.27,710.48 V708.02 C393.27,707.45,393.15,707.31,392.65,707.27 V707.12 H394.76 V707.27 C394.25,707.31,394.1,707.43,394.1,707.79 V710.58 C394.58,711.03,394.8,711.15,395.12,711.15 C395.61,711.15,395.85,710.84,395.85,710.18 V708.11 C395.85,707.48,395.72,707.31,395.22,707.27 V707.12 H397.29 V707.27 C396.81,707.32,396.69,707.44,396.69,707.93 V710.2 C396.69,711.14,396.25,711.7,395.51,711.7 C395.05,711.7,394.75,711.53,394.07,710.89 V711.67 L394,711.7 C393.51,711.52,393.17,711.41,392.63,711.25 Z " /><path
         id="path17727"
         fill="black"
         stroke-width="0"
         d="M401.85,707.78 L401.83,707.77 L401.82,707.76 L401.8,707.74 L401.79,707.73 L401.77,707.72 L401.76,707.71 L401.74,707.7 L401.73,707.69 L401.71,707.68 L401.7,707.68 L401.69,707.67 L401.67,707.66 L401.66,707.65 L401.65,707.65 L401.63,707.64 L401.62,707.63 L401.61,707.63 L401.6,707.62 L401.58,707.62 L401.57,707.62 L401.56,707.61 L401.54,707.61 L401.53,707.6 L401.52,707.6 L401.49,707.6 L401.46,707.59 L401.44,707.59 L401.41,707.59 C401.18,707.59,401.11,707.73,401.11,708.17 V710.1 C401.11,710.62,401.06,710.91,400.91,711.15 C400.69,711.51,400.27,711.7,399.68,711.7 C398.74,711.7,398.01,711.21,398.01,710.58 C398.01,710.35,398.21,710.16,398.43,710.16 C398.67,710.16,398.88,710.35,398.88,710.57 C398.88,710.61,398.87,710.66,398.86,710.73 C398.84,710.82,398.83,710.9,398.83,710.97 C398.83,711.24,399.15,711.46,399.55,711.46 C400.04,711.46,400.3,711.17,400.3,710.63 V710.03 V709.79 V708.35 C400.3,708.04,400.26,707.95,400.05,707.83 C399.81,707.69,399.53,707.6,399.32,707.6 C398.97,707.6,398.69,707.94,398.69,708.37 V708.41 C398.69,708.99,399.1,709.35,400.3,709.79 V710.03 C398.77,709.41,398.6,709.33,398.18,708.95 C397.96,708.75,397.82,708.42,397.82,708.09 C397.82,707.46,398.26,707.03,398.86,707.03 C399.3,707.03,399.71,707.23,400.32,707.75 C400.36,707.23,400.54,707.03,400.95,707.03 C401.29,707.03,401.5,707.15,401.85,707.52 Z " /><path
         id="path17729"
         fill="black"
         stroke-width="0"
         d="M401.94,711 L401.96,711 L401.97,711 L401.98,711.01 L401.99,711.01 L402.02,711.01 L402.04,711.02 L402.06,711.02 L402.08,711.02 L402.1,711.03 L402.12,711.03 L402.14,711.03 L402.17,711.03 L402.19,711.04 L402.21,711.04 L402.23,711.04 L402.25,711.04 L402.27,711.04 L402.29,711.04 C402.54,711.04,402.63,710.88,402.63,710.44 V707.96 C402.63,707.46,402.56,707.39,401.92,707.27 V707.12 H404.31 V707.27 C403.63,707.3,403.46,707.45,403.46,708.02 V710.25 C403.46,710.57,403.89,711.07,404.16,711.07 C404.22,711.07,404.31,711.02,404.42,710.92 C404.58,710.78,404.69,710.72,404.82,710.72 C405.06,710.72,405.21,710.89,405.21,711.17 C405.21,711.5,405,711.7,404.66,711.7 C404.24,711.7,403.95,711.47,403.46,710.76 V711.67 L403.42,711.7 C402.89,711.48,402.53,711.35,401.94,711.16 Z " /><path
         id="path17731"
         fill="black"
         stroke-width="0"
         d="M409.92,711.59 H408.57 V711.45 C408.89,711.45,409.05,711.36,409.05,711.2 C409.05,711.16,409.04,711.1,409.01,711.03 L408.05,708.29 L406.9,710.8 C406.84,710.94,406.8,711.07,406.8,711.18 C406.8,711.36,406.95,711.43,407.38,711.45 V711.59 H405.33 V711.46 C405.59,711.42,405.76,711.31,405.84,711.14 L406.97,708.69 L407,708.61 L407.15,708.32 C407.43,707.82,407.59,707.46,407.59,707.31 C407.59,707.16,407.36,706.54,407.19,706.24 C407.05,705.98,406.83,705.79,406.69,705.79 C406.63,705.79,406.54,705.81,406.44,705.86 C406.26,705.93,406.09,705.97,405.92,705.97 C405.69,705.97,405.49,705.77,405.49,705.54 C405.49,705.21,405.81,704.96,406.23,704.96 C406.89,704.96,407.37,705.52,407.91,706.95 L409.44,711 C409.57,711.32,409.68,711.42,409.92,711.45 Z " /><path
         id="path17733"
         fill="black"
         stroke-width="0"
         d="M416.72,708.75 L416.68,708.68 L416.63,708.62 L416.59,708.55 L416.54,708.49 L416.5,708.43 L416.46,708.38 L416.41,708.32 L416.37,708.27 L416.32,708.22 L416.28,708.18 L416.24,708.13 L416.19,708.09 L416.15,708.05 L416.1,708.02 L416.06,707.98 L416.01,707.95 L415.96,707.92 L415.92,707.89 L415.87,707.87 L415.82,707.84 L415.77,707.82 L415.72,707.8 L415.67,707.78 L415.62,707.77 L415.57,707.75 L415.52,707.74 L415.46,707.73 L415.41,707.72 L415.35,707.72 L415.3,707.71 L415.24,707.71 L415.18,707.71 C414.61,707.71,414.18,708,413.9,708.57 C413.72,708.94,413.65,709.27,413.63,709.88 L413.65,710.2 C413.76,710.97,414.1,711.34,414.7,711.34 C415.31,711.34,415.55,711.06,415.68,710.2 H413.65 L413.63,709.88 H416.69 C416.61,710.52,416.51,710.81,416.26,711.13 C415.97,711.49,415.51,711.7,414.99,711.7 C414.49,711.7,414.03,711.52,413.65,711.18 C413.18,710.77,412.91,710.07,412.91,709.25 C412.91,707.88,413.63,707.03,414.77,707.03 C415.72,707.03,416.46,707.61,416.88,708.68 Z " /><path
         id="path17735"
         fill="black"
         stroke-width="0"
         d="M420.67,711.35 L420.63,711.37 L420.58,711.4 L420.54,711.42 L420.5,711.44 L420.46,711.46 L420.43,711.48 L420.39,711.5 L420.35,711.52 L420.31,711.53 L420.28,711.55 L420.24,711.56 L420.21,711.58 L420.17,711.59 L420.14,711.6 L420.07,711.63 L420,711.65 L419.94,711.66 L419.87,711.68 L419.8,711.69 L419.73,711.69 L419.67,711.7 L419.6,711.7 L419.52,711.71 C418.28,711.71,417.33,710.59,417.33,709.16 C417.33,707.91,417.98,707.03,418.92,707.03 C419.49,707.03,420.04,707.28,420.48,707.76 L420.34,707.94 C420.12,707.75,419.79,707.63,419.48,707.63 C419.17,707.63,418.91,707.73,418.71,707.93 C418.39,708.22,418.18,708.86,418.18,709.52 C418.18,710.69,418.71,711.43,419.55,711.43 C420.17,711.43,420.48,711.1,420.48,710.43 V708.39 C420.48,708.15,420.44,708.02,420.34,707.94 L420.48,707.76 V705.89 C420.48,705.34,420.3,705.19,419.59,705.14 V704.97 H421.94 V705.11 C421.39,705.23,421.31,705.31,421.31,705.72 V711.66 H421.2 Z " /><path
         id="path17737"
         fill="black"
         stroke-width="0"
         d="M426.83,707.62 H426.78 C426.33,707.62,426.22,707.73,426.22,708.19 V711.59 H424.64 V711.43 C425.26,711.4,425.38,711.3,425.38,710.8 V708.47 C425.38,708.19,425.33,708.05,425.19,707.94 C424.92,707.72,424.61,707.6,424.32,707.6 C423.93,707.6,423.61,707.94,423.61,708.36 V711.59 H422.16 V711.46 C422.63,711.43,422.77,711.28,422.77,710.82 V708.32 C422.77,707.53,423.25,707.03,423.98,707.03 C424.35,707.03,424.73,707.18,425,707.45 L425.43,707.88 V707.05 L425.47,707.04 C425.97,707.23,426.33,707.34,426.83,707.48 Z " /><path
         id="path17739"
         fill="black"
         stroke-width="0"
         d="M428.79,711.7 L427.25,711.15 V711 L427.33,711.01 C427.45,711.03,427.58,711.04,427.67,711.04 C427.9,711.04,427.99,710.88,427.99,710.44 V708.14 C427.99,707.42,427.89,707.31,427.21,707.27 V707.12 H429.57 V707.27 C428.91,707.32,428.83,707.42,428.83,708.14 V711.66 Z " /><path
         id="path17741"
         fill="black"
         stroke-width="0"
         d="M428.32,713.91 L428.3,713.91 L428.27,713.91 L428.25,713.9 L428.22,713.9 L428.2,713.89 L428.18,713.89 L428.15,713.88 L428.13,713.87 L428.11,713.86 L428.09,713.85 L428.07,713.84 L428.05,713.82 L428.03,713.81 L428.01,713.79 L427.99,713.78 L427.97,713.76 L427.96,713.74 L427.94,713.72 L427.93,713.71 L427.91,713.69 L427.9,713.67 L427.89,713.64 L427.88,713.62 L427.86,713.6 L427.86,713.58 L427.85,713.55 L427.84,713.53 L427.84,713.5 L427.83,713.48 L427.83,713.45 L427.83,713.43 L427.83,713.4 C427.83,713.12,428.04,712.9,428.32,712.9 C428.61,712.9,428.84,713.11,428.84,713.4 C428.84,713.68,428.61,713.91,428.32,713.91 Z " /><path
         id="path17743"
         fill="black"
         stroke-width="0"
         d="M434.32,711.59 H432.93 V711.45 C433.25,711.42,433.4,711.32,433.4,711.13 C433.4,711.03,433.38,710.93,433.34,710.83 L432.36,708.26 L431.34,710.8 C431.28,710.94,431.25,711.08,431.25,711.17 C431.25,711.35,431.36,711.42,431.71,711.45 V711.59 H429.76 V711.45 C430.14,711.43,430.21,711.33,430.66,710.3 L431.86,707.45 C431.88,707.39,431.91,707.32,431.94,707.24 C432,707.07,432.06,706.99,432.12,706.99 C432.18,706.99,432.25,707.11,432.39,707.48 L433.67,710.67 C433.96,711.35,434.02,711.42,434.32,711.45 Z " /><path
         id="path17745"
         fill="black"
         stroke-width="0"
         d="M438.7,707.78 L438.68,707.77 L438.67,707.76 L438.65,707.74 L438.64,707.73 L438.62,707.72 L438.61,707.71 L438.59,707.7 L438.58,707.69 L438.57,707.68 L438.55,707.68 L438.54,707.67 L438.53,707.66 L438.51,707.65 L438.5,707.65 L438.49,707.64 L438.47,707.63 L438.46,707.63 L438.45,707.62 L438.43,707.62 L438.42,707.62 L438.41,707.61 L438.39,707.61 L438.38,707.6 L438.37,707.6 L438.34,707.6 L438.32,707.59 L438.29,707.59 L438.26,707.59 C438.03,707.59,437.96,707.73,437.96,708.17 V710.1 C437.96,710.62,437.91,710.91,437.76,711.15 C437.55,711.51,437.12,711.7,436.53,711.7 C435.6,711.7,434.86,711.21,434.86,710.58 C434.86,710.35,435.06,710.16,435.29,710.16 C435.52,710.16,435.73,710.35,435.73,710.57 C435.73,710.61,435.72,710.66,435.71,710.73 C435.69,710.82,435.68,710.9,435.68,710.97 C435.68,711.24,436,711.46,436.4,711.46 C436.89,711.46,437.16,711.17,437.16,710.63 V710.03 V709.79 V708.35 C437.16,708.04,437.11,707.95,436.9,707.83 C436.66,707.69,436.38,707.6,436.17,707.6 C435.82,707.6,435.55,707.94,435.55,708.37 V708.41 C435.55,708.99,435.95,709.35,437.16,709.79 V710.03 C435.62,709.41,435.46,709.33,435.03,708.95 C434.81,708.75,434.67,708.42,434.67,708.09 C434.67,707.46,435.11,707.03,435.71,707.03 C436.15,707.03,436.56,707.23,437.17,707.75 C437.22,707.23,437.4,707.03,437.8,707.03 C438.14,707.03,438.35,707.15,438.7,707.52 Z " /><path
         id="path17747"
         fill="black"
         stroke-width="0"
         d="M438.91,713.31 H438.97 C439.08,713.32,439.2,713.33,439.28,713.33 C439.6,713.33,439.7,713.2,439.7,712.73 V707.99 C439.7,707.45,439.56,707.32,438.93,707.27 V707.12 H441.28 V707.27 C440.65,707.31,440.54,707.41,440.54,707.96 V713.89 L440.5,713.91 C439.98,713.74,439.6,713.64,438.91,713.47 Z " /><path
         id="path17749"
         fill="black"
         stroke-width="0"
         d="M445.55,708.75 L445.51,708.68 L445.46,708.62 L445.42,708.55 L445.38,708.49 L445.33,708.43 L445.29,708.38 L445.24,708.32 L445.2,708.27 L445.16,708.22 L445.11,708.18 L445.07,708.13 L445.02,708.09 L444.98,708.05 L444.93,708.02 L444.89,707.98 L444.84,707.95 L444.8,707.92 L444.75,707.89 L444.7,707.87 L444.65,707.84 L444.6,707.82 L444.56,707.8 L444.51,707.78 L444.45,707.77 L444.4,707.75 L444.35,707.74 L444.3,707.73 L444.24,707.72 L444.19,707.72 L444.13,707.71 L444.07,707.71 L444.01,707.71 C443.44,707.71,443.02,708,442.73,708.57 C442.55,708.94,442.48,709.27,442.46,709.88 L442.48,710.2 C442.59,710.97,442.93,711.34,443.53,711.34 C444.14,711.34,444.38,711.06,444.51,710.2 H442.48 L442.46,709.88 H445.52 C445.44,710.52,445.35,710.81,445.1,711.13 C444.8,711.49,444.34,711.7,443.82,711.7 C443.33,711.7,442.86,711.52,442.48,711.18 C442.01,710.77,441.74,710.07,441.74,709.25 C441.74,707.88,442.46,707.03,443.6,707.03 C444.55,707.03,445.3,707.61,445.71,708.68 Z " /><path
         id="path17751"
         fill="black"
         stroke-width="0"
         d="M446.08,711.08 L446.08,711.08 L446.09,711.08 L446.09,711.09 L446.1,711.09 L446.11,711.09 L446.11,711.09 L446.12,711.1 L446.13,711.1 L446.14,711.1 L446.14,711.1 L446.16,711.1 L446.18,711.11 L446.19,711.11 L446.21,711.11 L446.23,711.11 L446.25,711.11 L446.27,711.12 L446.29,711.12 L446.31,711.12 L446.33,711.12 L446.35,711.12 C446.62,711.12,446.71,710.97,446.71,710.48 V708.02 C446.71,707.45,446.6,707.31,446.1,707.27 V707.12 H448.21 V707.27 C447.7,707.31,447.55,707.43,447.55,707.79 V710.58 C448.03,711.03,448.25,711.15,448.57,711.15 C449.06,711.15,449.3,710.84,449.3,710.18 V708.11 C449.3,707.48,449.17,707.31,448.67,707.27 V707.12 H450.74 V707.27 C450.26,707.32,450.14,707.44,450.14,707.93 V710.2 C450.14,711.14,449.7,711.7,448.96,711.7 C448.51,711.7,448.2,711.53,447.52,710.89 V711.67 L447.45,711.7 C446.96,711.52,446.62,711.41,446.08,711.25 Z " /><path
         id="path17753"
         fill="black"
         stroke-width="0"
         d="M453.44,711.59 H452.43 V712.75 C452.43,712.85,452.42,712.88,452.36,712.88 C452.29,712.79,452.23,712.7,452.16,712.6 C451.79,712.05,451.36,711.58,451.2,711.54 C451.09,711.47,451.03,711.4,451.03,711.35 C451.03,711.32,451.04,711.3,451.07,711.28 H451.6 V708.29 C451.6,707.45,451.89,707.03,452.48,707.03 C452.97,707.03,453.35,707.26,453.67,707.78 L453.55,707.89 C453.34,707.64,453.17,707.54,452.95,707.54 C452.58,707.54,452.43,707.81,452.43,708.44 V711.28 H453.44 Z " /><path
         id="path17755"
         fill="black"
         stroke-width="0"
         d="M458.65,711.7 L458.53,711.69 L458.41,711.68 L458.29,711.67 L458.18,711.65 L458.07,711.63 L457.96,711.6 L457.86,711.56 L457.76,711.52 L457.66,711.48 L457.56,711.43 L457.47,711.38 L457.38,711.32 L457.3,711.26 L457.22,711.19 L457.14,711.12 L457.06,711.05 L456.99,710.97 L456.92,710.89 L456.86,710.8 L456.8,710.71 L456.75,710.61 L456.7,710.52 L456.65,710.42 L456.61,710.31 L456.57,710.2 L456.54,710.09 L456.51,709.98 L456.49,709.86 L456.47,709.74 L456.46,709.62 L456.45,709.5 L456.45,709.37 C456.45,708.03,457.37,707.03,458.63,707.03 L458.75,707.3 C458.36,707.3,457.99,707.54,457.78,707.94 C457.5,708.46,457.34,709.15,457.34,709.86 C457.34,710.8,457.81,711.42,458.52,711.42 H458.52 C459.35,711.42,459.94,710.46,459.94,709.1 C459.94,707.98,459.49,707.3,458.75,707.3 L458.63,707.03 C459.88,707.03,460.83,708.08,460.83,709.45 C460.83,710.75,459.92,711.7,458.65,711.7 Z " /><path
         id="path17757"
         fill="black"
         stroke-width="0"
         d="M464.21,711.59 H462.99 V712.75 C462.99,713.32,463.18,713.63,463.56,713.63 C463.77,713.63,463.91,713.53,464.09,713.24 C464.24,712.99,464.36,712.89,464.53,712.89 C464.76,712.89,464.95,713.07,464.95,713.29 C464.95,713.65,464.51,713.91,463.92,713.91 C463.3,713.91,462.77,713.64,462.51,713.18 C462.26,712.75,462.17,712.39,462.17,711.59 H461.35 V711.28 H462.17 V708.16 C462.17,707.43,462.06,707.31,461.34,707.27 V707.12 H463.93 V707.27 C463.11,707.3,463,707.41,463,708.16 V711.28 H464.21 Z " /><path
         id="path17759"
         fill="black"
         stroke-width="0"
         d="M469.83,710.81 L469.92,710.86 L470.01,710.91 L470.09,710.96 L470.17,711 L470.25,711.05 L470.32,711.1 L470.39,711.14 L470.46,711.19 L470.52,711.24 L470.58,711.28 L470.64,711.33 L470.69,711.38 L470.74,711.42 L470.79,711.47 L470.83,711.52 L470.87,711.56 L470.91,711.61 L470.94,711.66 L470.98,711.71 L471,711.76 L471.03,711.81 L471.06,711.86 L471.08,711.91 L471.1,711.97 L471.11,712.02 L471.13,712.07 L471.14,712.13 L471.15,712.19 L471.16,712.25 L471.16,712.31 L471.17,712.37 L471.17,712.43 C471.17,713.24,470.45,713.84,469.46,713.84 L469.38,713.56 C470.05,713.56,470.48,713.12,470.48,712.44 C470.48,711.87,470.2,711.43,469.64,711.05 C469.58,711.02,469.58,711.02,469.55,710.99 H469.55 C468.66,711.57,468.3,712.02,468.3,712.58 C468.3,713.16,468.75,713.56,469.38,713.56 L469.46,713.84 C468.37,713.84,467.57,713.17,467.57,712.27 C467.57,711.62,467.76,711.34,468.8,710.42 C467.73,709.61,467.51,709.3,467.51,708.62 C467.51,707.66,468.29,706.99,469.42,706.99 L469.53,707.26 C468.77,707.26,468.26,707.84,468.26,708.7 C468.26,709.34,468.48,709.76,469.06,710.22 L469.65,709.79 C470.38,709.27,470.62,708.91,470.62,708.36 C470.62,707.71,470.17,707.26,469.53,707.26 L469.42,706.99 C470.61,706.99,471.38,707.64,471.38,708.66 C471.38,709.43,471.04,709.92,469.83,710.81 Z " /><polygon
         id="polygon17761"
         fill="black"
         stroke-width="0"
         points="476.63,709.42 475.61,709.42 475.61,713.84 475.17,713.84 472.05,709.42 472.45,709.42 474.83,712.83 474.83,709.42 472.45,709.42 472.05,709.42 472.05,708.78 474.85,708.78 474.85,707.12 475.61,707.12 475.61,708.78 476.63,708.78 " /><polygon
         id="polygon17763"
         fill="black"
         stroke-width="0"
         points="485.39,710.4 485.39,710.96 480.3,710.96 480.3,710.4 " /><polygon
         id="polygon17765"
         fill="black"
         stroke-width="0"
         points="485.39,708.39 485.39,708.94 480.3,708.94 480.3,708.39 " /><path
         id="path17767"
         fill="black"
         stroke-width="0"
         d="M308.4,696.26 L308.4,696.29 L308.4,696.32 L308.39,696.34 L308.39,696.37 L308.38,696.39 L308.38,696.42 L308.37,696.44 L308.36,696.47 L308.35,696.49 L308.34,696.51 L308.32,696.54 L308.31,696.56 L308.29,696.58 L308.28,696.6 L308.26,696.62 L308.24,696.63 L308.23,696.65 L308.21,696.67 L308.19,696.68 L308.17,696.7 L308.15,696.71 L308.12,696.73 L308.1,696.74 L308.08,696.75 L308.05,696.76 L308.03,696.77 L308,696.77 L307.98,696.78 L307.95,696.78 L307.93,696.79 L307.9,696.79 L307.87,696.79 C307.58,696.79,307.35,696.55,307.35,696.26 C307.35,695.98,307.58,695.74,307.87,695.74 C308.15,695.74,308.4,695.97,308.4,696.26 Z " /><path
         id="path17769"
         fill="black"
         stroke-width="0"
         d="M310.89,691.96 L310.89,691.99 L310.89,692.02 L310.88,692.04 L310.88,692.07 L310.87,692.09 L310.86,692.12 L310.86,692.14 L310.85,692.17 L310.84,692.19 L310.82,692.21 L310.81,692.23 L310.8,692.26 L310.78,692.28 L310.77,692.3 L310.75,692.32 L310.73,692.33 L310.71,692.35 L310.69,692.37 L310.67,692.38 L310.65,692.4 L310.63,692.41 L310.61,692.42 L310.59,692.44 L310.56,692.45 L310.54,692.46 L310.52,692.47 L310.49,692.47 L310.47,692.48 L310.44,692.48 L310.41,692.49 L310.39,692.49 L310.36,692.49 C310.07,692.49,309.83,692.25,309.83,691.96 C309.83,691.67,310.07,691.44,310.36,691.44 C310.65,691.44,310.89,691.67,310.89,691.96 Z " /><path
         id="path17771"
         fill="black"
         stroke-width="0"
         d="M305.91,691.96 L305.91,691.99 L305.91,692.02 L305.91,692.04 L305.9,692.07 L305.9,692.09 L305.89,692.12 L305.88,692.14 L305.87,692.17 L305.86,692.19 L305.85,692.21 L305.84,692.23 L305.82,692.26 L305.81,692.28 L305.79,692.3 L305.78,692.32 L305.76,692.33 L305.74,692.35 L305.72,692.37 L305.7,692.38 L305.68,692.4 L305.66,692.41 L305.64,692.42 L305.61,692.44 L305.59,692.45 L305.57,692.46 L305.54,692.47 L305.52,692.47 L305.49,692.48 L305.47,692.48 L305.44,692.49 L305.41,692.49 L305.39,692.49 C305.1,692.49,304.86,692.25,304.86,691.96 C304.86,691.67,305.1,691.44,305.39,691.44 C305.67,691.44,305.91,691.67,305.91,691.96 Z " /><path
         id="path17773"
         fill="black"
         stroke-width="0"
         d="M321.18,693.54 L321.06,693.59 C320.69,693.03,320.56,692.94,320.11,692.94 H317.73 L319.4,694.68 C320.29,695.61,320.68,696.36,320.68,697.14 C320.68,698.13,319.87,698.9,318.84,698.9 C318.29,698.9,317.77,698.68,317.4,698.28 C317.09,697.94,316.94,697.62,316.77,696.92 L316.98,696.87 C317.37,697.84,317.73,698.16,318.42,698.16 C319.26,698.16,319.82,697.59,319.82,696.76 C319.82,695.99,319.36,695.06,318.53,694.18 L316.76,692.3 V692.18 H320.64 Z " /><path
         id="path17775"
         fill="black"
         stroke-width="0"
         d="M322.49,696.48 L322.56,696.51 L322.62,696.55 L322.68,696.58 L322.73,696.62 L322.79,696.66 L322.85,696.69 L322.9,696.73 L322.95,696.78 L323,696.82 L323.05,696.86 L323.1,696.91 L323.14,696.95 L323.18,697 L323.23,697.05 L323.26,697.1 L323.3,697.15 L323.34,697.2 L323.37,697.25 L323.4,697.3 L323.43,697.35 L323.46,697.41 L323.48,697.46 L323.51,697.51 L323.53,697.57 L323.55,697.62 L323.56,697.68 L323.58,697.73 L323.59,697.79 L323.6,697.84 L323.6,697.9 L323.61,697.96 L323.61,698.01 C323.61,698.51,323.26,698.9,322.81,698.9 C322.46,698.9,322.23,698.67,322.23,698.33 C322.23,698.01,322.45,697.82,322.81,697.82 C322.87,697.82,322.94,697.83,323,697.84 C323.07,697.86,323.07,697.86,323.08,697.86 C323.16,697.86,323.22,697.8,323.22,697.72 C323.22,697.4,322.94,697.04,322.4,696.67 Z " /><path
         id="path17777"
         fill="black"
         stroke-width="0"
         d="M324.92,696.14 L324.92,696.14 L324.93,696.14 L324.93,696.14 L324.94,696.15 L324.95,696.15 L324.95,696.15 L324.96,696.15 L324.97,696.15 L324.98,696.16 L324.98,696.16 L325,696.16 L325.02,696.16 L325.03,696.17 L325.05,696.17 L325.07,696.17 L325.09,696.17 L325.11,696.17 L325.13,696.17 L325.15,696.17 L325.17,696.17 L325.19,696.17 C325.46,696.17,325.55,696.03,325.55,695.54 V693.08 C325.55,692.51,325.44,692.37,324.94,692.33 V692.18 H327.05 V692.33 C326.54,692.37,326.39,692.49,326.39,692.85 V695.64 C326.87,696.09,327.09,696.2,327.41,696.2 C327.9,696.2,328.14,695.9,328.14,695.24 V693.16 C328.14,692.54,328.01,692.37,327.51,692.33 V692.18 H329.58 V692.33 C329.1,692.38,328.98,692.5,328.98,692.99 V695.26 C328.98,696.19,328.54,696.75,327.8,696.75 C327.35,696.75,327.04,696.58,326.36,695.95 V696.73 L326.29,696.75 C325.8,696.57,325.46,696.46,324.92,696.3 Z " /><path
         id="path17779"
         fill="black"
         stroke-width="0"
         d="M333.16,692.08 L334.62,692.6 V692.76 C334.45,692.75,334.42,692.75,334.39,692.75 C334.04,692.75,333.96,692.86,333.96,693.31 V698.95 L333.91,698.97 C333.43,698.8,333.08,698.7,332.45,698.53 V698.37 C332.52,698.38,332.58,698.38,332.66,698.38 C333.03,698.38,333.12,698.28,333.12,697.87 V696.32 C332.74,696.64,332.48,696.75,332.08,696.75 C330.93,696.75,330.01,695.63,330.01,694.22 C330.01,692.95,330.75,692.08,331.85,692.08 C332.4,692.08,332.78,692.28,333.12,692.75 L332.95,692.9 C332.77,692.7,332.52,692.6,332.24,692.6 C331.41,692.6,330.86,693.39,330.86,694.61 C330.86,695.74,331.35,696.47,332.11,696.47 C332.63,696.47,333.12,696.01,333.12,695.48 V693.19 C333.12,693.12,333.05,693.01,332.95,692.9 L333.12,692.75 V692.11 Z " /><path
         id="path17781"
         fill="black"
         stroke-width="0"
         d="M341.17,693.73 L341.13,693.67 L341.08,693.61 L341.04,693.55 L341,693.49 L340.95,693.44 L340.91,693.39 L340.87,693.34 L340.83,693.29 L340.79,693.25 L340.75,693.21 L340.71,693.17 L340.67,693.13 L340.63,693.09 L340.58,693.06 L340.54,693.03 L340.5,693 L340.46,692.98 L340.42,692.95 L340.38,692.93 L340.34,692.91 L340.29,692.89 L340.25,692.87 L340.2,692.86 L340.16,692.85 L340.11,692.83 L340.07,692.82 L340.02,692.82 L339.97,692.81 L339.92,692.8 L339.87,692.8 L339.82,692.8 L339.77,692.8 C338.86,692.8,338.23,693.59,338.23,694.73 C338.23,695.76,338.77,696.46,339.58,696.46 C339.94,696.46,340.07,696.35,340.17,695.99 L340.23,695.77 C340.3,695.49,340.48,695.31,340.69,695.31 C340.95,695.31,341.17,695.5,341.17,695.73 C341.17,696.28,340.47,696.75,339.64,696.75 C339.15,696.75,338.64,696.55,338.24,696.19 C337.74,695.76,337.46,695.08,337.46,694.3 C337.46,693.01,338.25,692.08,339.35,692.08 C339.8,692.08,340.2,692.24,340.55,692.55 C340.82,692.79,341.01,693.05,341.31,693.64 Z " /><path
         id="path17783"
         fill="black"
         stroke-width="0"
         d="M344.12,696.75 L344,696.75 L343.88,696.74 L343.77,696.73 L343.66,696.71 L343.55,696.68 L343.44,696.65 L343.33,696.62 L343.23,696.58 L343.13,696.54 L343.04,696.49 L342.95,696.43 L342.86,696.38 L342.77,696.31 L342.69,696.25 L342.61,696.18 L342.54,696.1 L342.47,696.02 L342.4,695.94 L342.34,695.85 L342.28,695.76 L342.22,695.67 L342.17,695.57 L342.13,695.47 L342.08,695.37 L342.05,695.26 L342.02,695.15 L341.99,695.04 L341.96,694.92 L341.95,694.8 L341.93,694.68 L341.93,694.55 L341.92,694.43 C341.92,693.09,342.85,692.08,344.1,692.08 L344.22,692.36 C343.83,692.36,343.46,692.6,343.26,693 C342.98,693.51,342.82,694.21,342.82,694.91 C342.82,695.86,343.29,696.47,343.99,696.47 H343.99 C344.83,696.47,345.42,695.52,345.42,694.16 C345.42,693.03,344.97,692.36,344.22,692.36 L344.1,692.08 C345.36,692.08,346.31,693.14,346.31,694.51 C346.31,695.81,345.39,696.75,344.12,696.75 Z " /><path
         id="path17785"
         fill="black"
         stroke-width="0"
         d="M346.8,696.14 L346.82,696.14 L346.83,696.14 L346.84,696.14 L346.85,696.15 L346.86,696.15 L346.87,696.15 L346.89,696.15 L346.91,696.16 L346.93,696.16 L346.95,696.16 L346.97,696.17 L346.99,696.17 L347.01,696.17 L347.03,696.17 L347.05,696.17 L347.06,696.17 L347.08,696.17 L347.1,696.17 L347.12,696.17 C347.38,696.17,347.47,696.02,347.47,695.54 V693.03 C347.47,692.49,347.33,692.34,346.77,692.33 V692.18 H348.98 V692.33 C348.46,692.35,348.31,692.46,348.31,692.85 V695.65 C348.31,695.67,348.39,695.77,348.46,695.84 C348.7,696.07,349.13,696.23,349.48,696.23 C349.92,696.23,350.14,695.89,350.14,695.19 V693.03 C350.14,692.48,350.03,692.37,349.46,692.33 V692.18 H351.69 V692.33 C351.12,692.34,350.97,692.51,350.97,693.12 V695.63 C351.27,696.05,351.6,696.23,352.06,696.23 C352.62,696.23,352.8,695.97,352.8,695.14 V693.04 C352.8,692.48,352.73,692.4,352.15,692.33 V692.18 H354.33 V692.33 L354.07,692.35 C353.77,692.37,353.64,692.55,353.64,692.94 V694.98 C353.64,696.16,353.25,696.75,352.49,696.75 C351.91,696.75,351.4,696.49,350.86,695.92 C350.68,696.48,350.35,696.75,349.81,696.75 C349.37,696.75,349.09,696.61,348.27,695.99 V696.73 L348.2,696.75 C347.69,696.56,347.35,696.45,346.8,696.3 Z " /><path
         id="path17787"
         fill="black"
         stroke-width="0"
         d="M354.46,696.09 L354.47,696.09 L354.49,696.09 L354.5,696.09 L354.52,696.09 L354.54,696.09 L354.55,696.09 L354.57,696.09 L354.58,696.09 L354.61,696.09 L354.63,696.09 L354.64,696.09 L354.66,696.09 L354.67,696.09 L354.69,696.09 L354.7,696.09 C355.04,696.09,355.11,696,355.11,695.53 V690.88 C355.11,690.36,355,690.25,354.42,690.19 V690.03 H356.82 V690.2 C356.08,690.21,355.95,690.32,355.95,690.95 V692.51 C356.3,692.18,356.54,692.08,356.95,692.08 L356.98,692.4 C356.52,692.4,355.95,692.76,355.95,693.05 V695.5 C355.95,695.8,356.51,696.16,356.96,696.16 C357.7,696.16,358.19,695.4,358.19,694.25 C358.19,693.15,357.7,692.4,356.98,692.4 L356.95,692.08 C358.13,692.08,359.04,693.19,359.04,694.64 C359.04,695.87,358.35,696.75,357.38,696.75 C356.82,696.75,356.39,696.5,355.95,695.97 V696.73 L355.89,696.75 C355.35,696.54,355,696.41,354.46,696.24 Z " /><path
         id="path17789"
         fill="black"
         stroke-width="0"
         d="M359.54,698.37 H359.6 C359.71,698.38,359.83,698.39,359.9,698.39 C360.22,698.39,360.32,698.25,360.32,697.78 V693.04 C360.32,692.51,360.18,692.38,359.56,692.33 V692.18 H361.9 V692.33 C361.28,692.37,361.16,692.47,361.16,693.02 V698.95 L361.12,698.97 C360.6,698.8,360.22,698.7,359.54,698.53 Z " /><path
         id="path17791"
         fill="black"
         stroke-width="0"
         d="M366.18,693.81 L366.13,693.74 L366.09,693.67 L366.04,693.61 L366,693.55 L365.96,693.49 L365.91,693.43 L365.87,693.38 L365.82,693.33 L365.78,693.28 L365.74,693.23 L365.69,693.19 L365.65,693.15 L365.6,693.11 L365.56,693.07 L365.51,693.04 L365.47,693.01 L365.42,692.98 L365.37,692.95 L365.32,692.92 L365.28,692.9 L365.23,692.88 L365.18,692.86 L365.13,692.84 L365.08,692.82 L365.03,692.81 L364.97,692.8 L364.92,692.79 L364.86,692.78 L364.81,692.77 L364.75,692.77 L364.69,692.77 L364.64,692.77 C364.07,692.77,363.64,693.05,363.35,693.62 C363.17,694,363.1,694.33,363.08,694.93 L363.1,695.25 C363.21,696.03,363.55,696.39,364.16,696.39 C364.76,696.39,365,696.11,365.13,695.25 H363.1 L363.08,694.93 H366.15 C366.07,695.58,365.97,695.87,365.72,696.18 C365.42,696.54,364.96,696.75,364.45,696.75 C363.95,696.75,363.48,696.57,363.1,696.23 C362.64,695.83,362.37,695.12,362.37,694.31 C362.37,692.94,363.08,692.08,364.23,692.08 C365.17,692.08,365.92,692.67,366.34,693.74 Z " /><path
         id="path17793"
         fill="black"
         stroke-width="0"
         d="M366.73,696.14 L366.74,696.14 L366.75,696.14 L366.77,696.14 L366.78,696.15 L366.79,696.15 L366.8,696.15 L366.82,696.15 L366.84,696.16 L366.86,696.16 L366.88,696.16 L366.9,696.17 L366.92,696.17 L366.93,696.17 L366.95,696.17 L366.97,696.17 L366.99,696.17 L367.01,696.17 L367.03,696.17 L367.05,696.17 C367.31,696.17,367.4,696.02,367.4,695.54 V693.03 C367.4,692.49,367.26,692.34,366.7,692.33 V692.18 H368.91 V692.33 C368.38,692.35,368.23,692.46,368.23,692.85 V695.65 C368.23,695.67,368.31,695.77,368.38,695.84 C368.63,696.07,369.06,696.23,369.41,696.23 C369.84,696.23,370.06,695.89,370.06,695.19 V693.03 C370.06,692.48,369.95,692.37,369.39,692.33 V692.18 H371.61 V692.33 C371.05,692.34,370.9,692.51,370.9,693.12 V695.63 C371.2,696.05,371.52,696.23,371.98,696.23 C372.55,696.23,372.73,695.97,372.73,695.14 V693.04 C372.73,692.48,372.65,692.4,372.07,692.33 V692.18 H374.25 V692.33 L373.99,692.35 C373.69,692.37,373.57,692.55,373.57,692.94 V694.98 C373.57,696.16,373.18,696.75,372.41,696.75 C371.83,696.75,371.33,696.49,370.79,695.92 C370.61,696.48,370.27,696.75,369.73,696.75 C369.3,696.75,369.02,696.61,368.19,695.99 V696.73 L368.12,696.75 C367.61,696.56,367.28,696.45,366.73,696.3 Z " /><path
         id="path17795"
         fill="black"
         stroke-width="0"
         d="M378.35,693.81 L378.31,693.74 L378.26,693.67 L378.22,693.61 L378.17,693.55 L378.13,693.49 L378.09,693.43 L378.04,693.38 L378,693.33 L377.95,693.28 L377.91,693.23 L377.87,693.19 L377.82,693.15 L377.78,693.11 L377.73,693.07 L377.69,693.04 L377.64,693.01 L377.59,692.98 L377.55,692.95 L377.5,692.92 L377.45,692.9 L377.4,692.88 L377.35,692.86 L377.3,692.84 L377.25,692.82 L377.2,692.81 L377.15,692.8 L377.09,692.79 L377.04,692.78 L376.98,692.77 L376.93,692.77 L376.87,692.77 L376.81,692.77 C376.24,692.77,375.81,693.05,375.53,693.62 C375.35,694,375.28,694.33,375.26,694.93 L375.28,695.25 C375.39,696.03,375.72,696.39,376.33,696.39 C376.94,696.39,377.18,696.11,377.31,695.25 H375.28 L375.26,694.93 H378.32 C378.24,695.58,378.14,695.87,377.89,696.18 C377.6,696.54,377.14,696.75,376.62,696.75 C376.12,696.75,375.65,696.57,375.28,696.23 C374.81,695.83,374.54,695.12,374.54,694.31 C374.54,692.94,375.26,692.08,376.4,692.08 C377.35,692.08,378.09,692.67,378.51,693.74 Z " /><path
         id="path17797"
         fill="black"
         stroke-width="0"
         d="M378.87,696.14 L378.88,696.14 L378.89,696.14 L378.89,696.14 L378.9,696.15 L378.9,696.15 L378.91,696.15 L378.92,696.15 L378.93,696.15 L378.93,696.16 L378.94,696.16 L378.96,696.16 L378.97,696.16 L378.99,696.17 L379.01,696.17 L379.03,696.17 L379.04,696.17 L379.06,696.17 L379.08,696.17 L379.1,696.17 L379.12,696.17 L379.14,696.17 C379.42,696.17,379.51,696.03,379.51,695.54 V693.08 C379.51,692.51,379.4,692.37,378.89,692.33 V692.18 H381 V692.33 C380.5,692.37,380.35,692.49,380.35,692.85 V695.64 C380.82,696.09,381.04,696.2,381.37,696.2 C381.86,696.2,382.1,695.9,382.1,695.24 V693.16 C382.1,692.54,381.97,692.37,381.47,692.33 V692.18 H383.54 V692.33 C383.05,692.38,382.93,692.5,382.93,692.99 V695.26 C382.93,696.19,382.5,696.75,381.76,696.75 C381.3,696.75,380.99,696.58,380.32,695.95 V696.73 L380.25,696.75 C379.76,696.57,379.42,696.46,378.87,696.3 Z " /><path
         id="path17799"
         fill="black"
         stroke-width="0"
         d="M386.23,696.65 H385.23 V697.8 C385.23,697.9,385.22,697.93,385.16,697.93 C385.09,697.84,385.03,697.75,384.96,697.66 C384.58,697.11,384.15,696.63,383.99,696.59 C383.89,696.52,383.83,696.45,383.83,696.4 C383.83,696.37,383.84,696.35,383.87,696.33 H384.39 V693.34 C384.39,692.51,384.69,692.08,385.28,692.08 C385.77,692.08,386.14,692.32,386.47,692.84 L386.34,692.95 C386.13,692.7,385.96,692.6,385.75,692.6 C385.38,692.6,385.23,692.87,385.23,693.49 V696.33 H386.23 Z " /><path
         id="path17801"
         fill="black"
         stroke-width="0"
         d="M389.03,696.05 L389.04,696.06 L389.05,696.06 L389.06,696.06 L389.08,696.07 L389.1,696.07 L389.12,696.07 L389.14,696.08 L389.17,696.08 L389.19,696.08 L389.21,696.09 L389.23,696.09 L389.25,696.09 L389.27,696.09 L389.29,696.09 L389.31,696.09 L389.33,696.09 L389.35,696.09 L389.38,696.09 C389.62,696.09,389.71,695.94,389.71,695.5 V693.02 C389.71,692.52,389.64,692.45,389.01,692.33 V692.18 H391.39 V692.33 C390.72,692.36,390.55,692.51,390.55,693.08 V695.31 C390.55,695.63,390.98,696.12,391.24,696.12 C391.3,696.12,391.39,696.08,391.5,695.98 C391.66,695.84,391.77,695.78,391.9,695.78 C392.14,695.78,392.29,695.95,392.29,696.22 C392.29,696.55,392.08,696.75,391.74,696.75 C391.33,696.75,391.04,696.52,390.55,695.82 V696.73 L390.5,696.75 C389.97,696.53,389.61,696.4,389.03,696.21 Z " /><path
         id="path17803"
         fill="black"
         stroke-width="0"
         d="M396.33,693.81 L396.29,693.74 L396.24,693.67 L396.2,693.61 L396.16,693.55 L396.11,693.49 L396.07,693.43 L396.02,693.38 L395.98,693.33 L395.94,693.28 L395.89,693.23 L395.85,693.19 L395.8,693.15 L395.76,693.11 L395.71,693.07 L395.67,693.04 L395.62,693.01 L395.58,692.98 L395.53,692.95 L395.48,692.92 L395.43,692.9 L395.38,692.88 L395.33,692.86 L395.28,692.84 L395.23,692.82 L395.18,692.81 L395.13,692.8 L395.08,692.79 L395.02,692.78 L394.96,692.77 L394.91,692.77 L394.85,692.77 L394.79,692.77 C394.22,692.77,393.8,693.05,393.51,693.62 C393.33,694,393.26,694.33,393.24,694.93 L393.26,695.25 C393.37,696.03,393.71,696.39,394.31,696.39 C394.92,696.39,395.16,696.11,395.29,695.25 H393.26 L393.24,694.93 H396.3 C396.22,695.58,396.12,695.87,395.88,696.18 C395.58,696.54,395.12,696.75,394.6,696.75 C394.11,696.75,393.64,696.57,393.26,696.23 C392.79,695.83,392.52,695.12,392.52,694.31 C392.52,692.94,393.24,692.08,394.38,692.08 C395.33,692.08,396.08,692.67,396.49,693.74 Z " /><path
         id="path17805"
         fill="black"
         stroke-width="0"
         d="M396.79,696.09 L396.8,696.09 L396.82,696.09 L396.84,696.09 L396.85,696.09 L396.87,696.09 L396.88,696.09 L396.9,696.09 L396.91,696.09 L396.94,696.09 L396.96,696.09 L396.97,696.09 L396.99,696.09 L397,696.09 L397.02,696.09 L397.04,696.09 C397.37,696.09,397.44,696,397.44,695.53 V690.88 C397.44,690.36,397.33,690.25,396.75,690.19 V690.03 H399.15 V690.2 C398.41,690.21,398.28,690.32,398.28,690.95 V692.51 C398.63,692.18,398.87,692.08,399.28,692.08 L399.31,692.4 C398.85,692.4,398.28,692.76,398.28,693.05 V695.5 C398.28,695.8,398.84,696.16,399.29,696.16 C400.03,696.16,400.52,695.4,400.52,694.25 C400.52,693.15,400.03,692.4,399.31,692.4 L399.28,692.08 C400.46,692.08,401.37,693.19,401.37,694.64 C401.37,695.87,400.68,696.75,399.71,696.75 C399.15,696.75,398.72,696.5,398.28,695.97 V696.73 L398.22,696.75 C397.68,696.54,397.33,696.41,396.79,696.24 Z " /><path
         id="path17807"
         fill="black"
         stroke-width="0"
         d="M401.75,696.05 L401.76,696.06 L401.77,696.06 L401.79,696.06 L401.8,696.07 L401.82,696.07 L401.85,696.07 L401.87,696.08 L401.89,696.08 L401.91,696.08 L401.93,696.09 L401.95,696.09 L401.97,696.09 L401.99,696.09 L402.01,696.09 L402.03,696.09 L402.05,696.09 L402.07,696.09 L402.1,696.09 C402.35,696.09,402.43,695.94,402.43,695.5 V693.02 C402.43,692.52,402.36,692.45,401.73,692.33 V692.18 H404.12 V692.33 C403.44,692.36,403.27,692.51,403.27,693.08 V695.31 C403.27,695.63,403.7,696.12,403.97,696.12 C404.03,696.12,404.12,696.08,404.23,695.98 C404.39,695.84,404.49,695.78,404.62,695.78 C404.86,695.78,405.01,695.95,405.01,696.22 C405.01,696.55,404.8,696.75,404.46,696.75 C404.05,696.75,403.76,696.52,403.27,695.82 V696.73 L403.22,696.75 C402.69,696.53,402.33,696.4,401.75,696.21 Z " /><path
         id="path17809"
         fill="black"
         stroke-width="0"
         d="M409.06,693.81 L409.01,693.74 L408.97,693.67 L408.92,693.61 L408.88,693.55 L408.83,693.49 L408.79,693.43 L408.75,693.38 L408.7,693.33 L408.66,693.28 L408.61,693.23 L408.57,693.19 L408.53,693.15 L408.48,693.11 L408.44,693.07 L408.39,693.04 L408.34,693.01 L408.3,692.98 L408.25,692.95 L408.2,692.92 L408.16,692.9 L408.11,692.88 L408.06,692.86 L408.01,692.84 L407.96,692.82 L407.9,692.81 L407.85,692.8 L407.8,692.79 L407.74,692.78 L407.69,692.77 L407.63,692.77 L407.57,692.77 L407.51,692.77 C406.95,692.77,406.52,693.05,406.23,693.62 C406.05,694,405.98,694.33,405.96,694.93 L405.98,695.25 C406.09,696.03,406.43,696.39,407.04,696.39 C407.64,696.39,407.88,696.11,408.01,695.25 H405.98 L405.96,694.93 H409.03 C408.95,695.58,408.85,695.87,408.6,696.18 C408.3,696.54,407.84,696.75,407.33,696.75 C406.83,696.75,406.36,696.57,405.98,696.23 C405.51,695.83,405.24,695.12,405.24,694.31 C405.24,692.94,405.96,692.08,407.11,692.08 C408.05,692.08,408.8,692.67,409.21,693.74 Z " /><path
         id="path17811"
         fill="black"
         stroke-width="0"
         d="M412.55,695.3 L412.51,696.65 H412.4 L412.39,696.63 C412.3,696.56,412.29,696.55,412.24,696.55 C412.19,696.55,412.09,696.57,411.98,696.62 C411.76,696.7,411.54,696.74,411.28,696.74 C410.49,696.74,409.93,696.23,409.93,695.52 C409.93,694.96,410.25,694.57,411.09,694.09 L411.67,693.76 C412.02,693.56,412.19,693.32,412.19,693.02 C412.19,692.58,411.87,692.3,411.36,692.3 C411.02,692.3,410.71,692.43,410.52,692.65 C410.32,692.9,410.23,693.12,410.1,693.69 H409.94 V692.14 H410.07 C410.14,692.24,410.18,692.26,410.3,692.26 C410.39,692.26,410.52,692.24,410.75,692.18 C411.03,692.12,411.3,692.08,411.48,692.08 C412.24,692.08,412.88,692.66,412.88,693.35 C412.88,693.85,412.64,694.18,412.05,694.53 L410.97,695.17 C410.69,695.33,410.54,695.58,410.54,695.85 C410.54,696.24,410.85,696.52,411.31,696.52 C411.88,696.52,412.18,696.18,412.4,695.3 Z " /><path
         id="path17813"
         fill="black"
         stroke-width="0"
         d="M417.36,693.81 L417.31,693.74 L417.27,693.67 L417.22,693.61 L417.18,693.55 L417.13,693.49 L417.09,693.43 L417.05,693.38 L417,693.33 L416.96,693.28 L416.91,693.23 L416.87,693.19 L416.82,693.15 L416.78,693.11 L416.73,693.07 L416.69,693.04 L416.64,693.01 L416.6,692.98 L416.55,692.95 L416.5,692.92 L416.45,692.9 L416.41,692.88 L416.36,692.86 L416.31,692.84 L416.25,692.82 L416.2,692.81 L416.15,692.8 L416.1,692.79 L416.04,692.78 L415.99,692.77 L415.93,692.77 L415.87,692.77 L415.81,692.77 C415.24,692.77,414.82,693.05,414.53,693.62 C414.35,694,414.28,694.33,414.26,694.93 L414.28,695.25 C414.39,696.03,414.73,696.39,415.33,696.39 C415.94,696.39,416.18,696.11,416.31,695.25 H414.28 L414.26,694.93 H417.33 C417.24,695.58,417.15,695.87,416.9,696.18 C416.6,696.54,416.14,696.75,415.62,696.75 C415.13,696.75,414.66,696.57,414.28,696.23 C413.81,695.83,413.54,695.12,413.54,694.31 C413.54,692.94,414.26,692.08,415.4,692.08 C416.35,692.08,417.1,692.67,417.51,693.74 Z " /><path
         id="path17815"
         fill="black"
         stroke-width="0"
         d="M417.88,696.14 L417.88,696.14 L417.89,696.14 L417.9,696.14 L417.9,696.15 L417.91,696.15 L417.92,696.15 L417.92,696.15 L417.93,696.15 L417.94,696.16 L417.94,696.16 L417.96,696.16 L417.98,696.16 L417.99,696.17 L418.01,696.17 L418.03,696.17 L418.05,696.17 L418.07,696.17 L418.09,696.17 L418.11,696.17 L418.13,696.17 L418.15,696.17 C418.42,696.17,418.52,696.03,418.52,695.54 V693.08 C418.52,692.51,418.4,692.37,417.9,692.33 V692.18 H420.01 V692.33 C419.5,692.37,419.35,692.49,419.35,692.85 V695.64 C419.83,696.09,420.05,696.2,420.38,696.2 C420.86,696.2,421.1,695.9,421.1,695.24 V693.16 C421.1,692.54,420.97,692.37,420.48,692.33 V692.18 H422.54 V692.33 C422.06,692.38,421.94,692.5,421.94,692.99 V695.26 C421.94,696.19,421.5,696.75,420.76,696.75 C420.3,696.75,420,696.58,419.32,695.95 V696.73 L419.25,696.75 C418.76,696.57,418.42,696.46,417.88,696.3 Z " /><path
         id="path17817"
         fill="black"
         stroke-width="0"
         d="M425.24,696.65 H424.23 V697.8 C424.23,697.9,424.22,697.93,424.16,697.93 C424.09,697.84,424.03,697.75,423.96,697.66 C423.58,697.11,423.16,696.63,423,696.59 C422.89,696.52,422.83,696.45,422.83,696.4 C422.83,696.37,422.84,696.35,422.87,696.33 H423.4 V693.34 C423.4,692.51,423.7,692.08,424.28,692.08 C424.77,692.08,425.15,692.32,425.48,692.84 L425.35,692.95 C425.14,692.7,424.97,692.6,424.75,692.6 C424.38,692.6,424.23,692.87,424.23,693.49 V696.33 H425.24 Z " /><path
         id="path17819"
         fill="black"
         stroke-width="0"
         d="M429.87,692.84 L429.85,692.82 L429.84,692.81 L429.82,692.8 L429.81,692.79 L429.79,692.78 L429.78,692.77 L429.76,692.76 L429.75,692.75 L429.73,692.74 L429.72,692.73 L429.71,692.72 L429.69,692.72 L429.68,692.71 L429.67,692.7 L429.65,692.7 L429.64,692.69 L429.63,692.68 L429.61,692.68 L429.6,692.68 L429.59,692.67 L429.58,692.67 L429.56,692.66 L429.55,692.66 L429.54,692.66 L429.51,692.65 L429.48,692.65 L429.46,692.65 L429.43,692.65 C429.2,692.65,429.13,692.79,429.13,693.22 V695.16 C429.13,695.68,429.08,695.97,428.93,696.2 C428.71,696.56,428.29,696.75,427.7,696.75 C426.76,696.75,426.03,696.26,426.03,695.64 C426.03,695.41,426.23,695.21,426.45,695.21 C426.69,695.21,426.9,695.41,426.9,695.63 C426.9,695.67,426.89,695.72,426.88,695.79 C426.86,695.88,426.85,695.96,426.85,696.03 C426.85,696.29,427.17,696.51,427.57,696.51 C428.06,696.51,428.33,696.22,428.33,695.69 V695.08 V694.84 V693.4 C428.33,693.09,428.27,693.01,428.07,692.89 C427.83,692.75,427.55,692.66,427.34,692.66 C426.99,692.66,426.71,693,426.71,693.42 V693.46 C426.71,694.05,427.12,694.41,428.33,694.84 V695.08 C426.79,694.47,426.62,694.39,426.2,694.01 C425.98,693.81,425.84,693.47,425.84,693.15 C425.84,692.52,426.27,692.08,426.88,692.08 C427.32,692.08,427.73,692.29,428.33,692.81 C428.39,692.29,428.56,692.08,428.97,692.08 C429.31,692.08,429.52,692.2,429.87,692.58 Z " /><path
         id="path17821"
         fill="black"
         stroke-width="0"
         d="M432.43,696.65 H431.42 V697.8 C431.42,697.9,431.42,697.93,431.36,697.93 C431.29,697.84,431.23,697.75,431.16,697.66 C430.78,697.11,430.35,696.63,430.19,696.59 C430.08,696.52,430.02,696.45,430.02,696.4 C430.02,696.37,430.03,696.35,430.06,696.33 H430.59 V693.34 C430.59,692.51,430.89,692.08,431.48,692.08 C431.96,692.08,432.34,692.32,432.67,692.84 L432.54,692.95 C432.33,692.7,432.16,692.6,431.94,692.6 C431.57,692.6,431.42,692.87,431.42,693.49 V696.33 H432.43 Z " /><path
         id="path17823"
         fill="black"
         stroke-width="0"
         d="M434.4,696.75 L432.86,696.2 V696.05 L432.94,696.07 C433.06,696.09,433.19,696.09,433.28,696.09 C433.52,696.09,433.61,695.94,433.61,695.5 V693.19 C433.61,692.48,433.51,692.37,432.82,692.33 V692.18 H435.18 V692.33 C434.52,692.38,434.44,692.48,434.44,693.19 V696.72 Z " /><path
         id="path17825"
         fill="black"
         stroke-width="0"
         d="M433.94,698.97 L433.91,698.97 L433.89,698.96 L433.86,698.96 L433.84,698.96 L433.81,698.95 L433.79,698.94 L433.77,698.94 L433.74,698.93 L433.72,698.92 L433.7,698.9 L433.68,698.89 L433.66,698.88 L433.64,698.86 L433.62,698.85 L433.6,698.83 L433.59,698.82 L433.57,698.8 L433.55,698.78 L433.54,698.76 L433.53,698.74 L433.51,698.72 L433.5,698.7 L433.49,698.68 L433.48,698.66 L433.47,698.63 L433.46,698.61 L433.45,698.59 L433.45,698.56 L433.44,698.54 L433.44,698.51 L433.44,698.48 L433.44,698.46 C433.44,698.18,433.66,697.95,433.94,697.95 C434.22,697.95,434.45,698.17,434.45,698.46 C434.45,698.74,434.22,698.97,433.94,698.97 Z " /><path
         id="path17827"
         fill="black"
         stroke-width="0"
         d="M437.92,696.75 L437.8,696.75 L437.68,696.74 L437.57,696.73 L437.45,696.71 L437.34,696.68 L437.24,696.65 L437.13,696.62 L437.03,696.58 L436.93,696.54 L436.84,696.49 L436.74,696.43 L436.66,696.38 L436.57,696.31 L436.49,696.25 L436.41,696.18 L436.34,696.1 L436.26,696.02 L436.2,695.94 L436.13,695.85 L436.08,695.76 L436.02,695.67 L435.97,695.57 L435.92,695.47 L435.88,695.37 L435.85,695.26 L435.81,695.15 L435.79,695.04 L435.76,694.92 L435.74,694.8 L435.73,694.68 L435.72,694.55 L435.72,694.43 C435.72,693.09,436.65,692.08,437.9,692.08 L438.02,692.36 C437.63,692.36,437.26,692.6,437.05,693 C436.77,693.51,436.62,694.21,436.62,694.91 C436.62,695.86,437.08,696.47,437.79,696.47 H437.79 C438.63,696.47,439.21,695.52,439.21,694.16 C439.21,693.03,438.77,692.36,438.02,692.36 L437.9,692.08 C439.15,692.08,440.11,693.14,440.11,694.51 C440.11,695.81,439.19,696.75,437.92,696.75 Z " /><path
         id="path17829"
         fill="black"
         stroke-width="0"
         d="M440.57,696.14 L440.58,696.14 L440.58,696.14 L440.59,696.14 L440.6,696.15 L440.6,696.15 L440.61,696.15 L440.62,696.15 L440.62,696.15 L440.63,696.16 L440.64,696.16 L440.65,696.16 L440.67,696.16 L440.69,696.17 L440.71,696.17 L440.72,696.17 L440.74,696.17 L440.76,696.17 L440.78,696.17 L440.8,696.17 L440.82,696.17 L440.84,696.17 C441.12,696.17,441.21,696.03,441.21,695.54 V693.08 C441.21,692.51,441.1,692.37,440.59,692.33 V692.18 H442.7 V692.33 C442.19,692.37,442.05,692.49,442.05,692.85 V695.64 C442.52,696.09,442.74,696.2,443.07,696.2 C443.56,696.2,443.8,695.9,443.8,695.24 V693.16 C443.8,692.54,443.67,692.37,443.17,692.33 V692.18 H445.24 V692.33 C444.75,692.38,444.63,692.5,444.63,692.99 V695.26 C444.63,696.19,444.19,696.75,443.46,696.75 C443,696.75,442.69,696.58,442.02,695.95 V696.73 L441.95,696.75 C441.46,696.57,441.12,696.46,440.57,696.3 Z " /><path
         id="path17831"
         fill="black"
         stroke-width="0"
         d="M450.37,696.75 L450.25,696.75 L450.14,696.74 L450.02,696.73 L449.91,696.71 L449.8,696.68 L449.69,696.65 L449.59,696.62 L449.48,696.58 L449.38,696.54 L449.29,696.49 L449.2,696.43 L449.11,696.38 L449.02,696.31 L448.94,696.25 L448.86,696.18 L448.79,696.1 L448.72,696.02 L448.65,695.94 L448.59,695.85 L448.53,695.76 L448.47,695.67 L448.42,695.57 L448.38,695.47 L448.34,695.37 L448.3,695.26 L448.27,695.15 L448.24,695.04 L448.22,694.92 L448.2,694.8 L448.18,694.68 L448.18,694.55 L448.17,694.43 C448.17,693.09,449.1,692.08,450.35,692.08 L450.47,692.36 C450.08,692.36,449.72,692.6,449.51,693 C449.23,693.51,449.07,694.21,449.07,694.91 C449.07,695.86,449.54,696.47,450.24,696.47 H450.24 C451.08,696.47,451.67,695.52,451.67,694.16 C451.67,693.03,451.22,692.36,450.47,692.36 L450.35,692.08 C451.61,692.08,452.56,693.14,452.56,694.51 C452.56,695.81,451.65,696.75,450.37,696.75 Z " /><path
         id="path17833"
         fill="black"
         stroke-width="0"
         d="M455.94,696.65 H454.72 V697.8 C454.72,698.38,454.91,698.69,455.28,698.69 C455.49,698.69,455.63,698.59,455.81,698.3 C455.97,698.04,456.09,697.94,456.26,697.94 C456.49,697.94,456.68,698.12,456.68,698.35 C456.68,698.71,456.24,698.97,455.64,698.97 C455.02,698.97,454.5,698.7,454.24,698.24 C453.98,697.8,453.9,697.45,453.89,696.65 H453.08 V696.33 H453.89 V693.21 C453.89,692.49,453.78,692.37,453.07,692.33 V692.18 H455.65 V692.33 C454.84,692.36,454.73,692.47,454.73,693.21 V696.33 H455.94 Z " /><polygon
         id="polygon17835"
         fill="black"
         stroke-width="0"
         points="464.11,694.46 464.11,695.01 459.02,695.01 459.02,694.46 " /><path
         id="path17837"
         fill="black"
         stroke-width="0"
         d="M469.83,695.87 L469.92,695.92 L470.01,695.96 L470.09,696.01 L470.17,696.06 L470.25,696.11 L470.32,696.15 L470.39,696.2 L470.46,696.25 L470.52,696.29 L470.58,696.34 L470.64,696.39 L470.69,696.43 L470.74,696.48 L470.79,696.53 L470.83,696.57 L470.87,696.62 L470.91,696.67 L470.94,696.72 L470.98,696.77 L471,696.82 L471.03,696.87 L471.06,696.92 L471.08,696.97 L471.1,697.02 L471.11,697.08 L471.13,697.13 L471.14,697.19 L471.15,697.24 L471.16,697.3 L471.16,697.36 L471.17,697.42 L471.17,697.49 C471.17,698.3,470.45,698.9,469.46,698.9 L469.38,698.62 C470.05,698.62,470.48,698.18,470.48,697.5 C470.48,696.93,470.2,696.48,469.64,696.1 C469.58,696.08,469.58,696.08,469.55,696.04 H469.55 C468.66,696.62,468.3,697.08,468.3,697.64 C468.3,698.21,468.75,698.62,469.38,698.62 L469.46,698.9 C468.37,698.9,467.57,698.23,467.57,697.33 C467.57,696.68,467.76,696.39,468.8,695.48 C467.73,694.66,467.51,694.36,467.51,693.68 C467.51,692.72,468.29,692.04,469.42,692.04 L469.53,692.32 C468.77,692.32,468.26,692.9,468.26,693.76 C468.26,694.4,468.48,694.81,469.06,695.28 L469.65,694.84 C470.38,694.33,470.62,693.97,470.62,693.41 C470.62,692.77,470.17,692.32,469.53,692.32 L469.42,692.04 C470.61,692.04,471.38,692.7,471.38,693.72 C471.38,694.49,471.04,694.97,469.83,695.87 Z " /><polygon
         id="polygon17839"
         fill="black"
         stroke-width="0"
         points="476.63,694.48 475.61,694.48 475.61,698.9 475.17,698.9 472.05,694.48 472.45,694.48 474.83,697.88 474.83,694.48 472.45,694.48 472.05,694.48 472.05,693.84 474.85,693.84 474.85,692.18 475.61,692.18 475.61,693.84 476.63,693.84 " /><polygon
         id="polygon17841"
         fill="black"
         stroke-width="0"
         points="485.39,695.46 485.39,696.02 480.3,696.02 480.3,695.46 " /><polygon
         id="polygon17843"
         fill="black"
         stroke-width="0"
         points="485.39,693.44 485.39,694 480.3,694 480.3,693.44 " /></g>    <g
       id="content"
       transform="matrix(1.2,0,0,-1.2,-346.48893,1699.4783)"
       xml:space="preserve"
       stroke="black"
       stroke-linecap="butt"
       stroke-linejoin="miter"
       stroke-miterlimit="10.433"
       stroke-dasharray="none"
       stroke-dashoffset="0"
       stroke-opacity="1"
       fill="none"
       fill-rule="evenodd"
       fill-opacity="1"
       font-style="normal"
       font-variant="normal"
       font-weight="normal"
       font-stretch="normal"
       font-size-adjust="none"
       letter-spacing="normal"
       word-spacing="normal"
       text-anchor="start"
       ns0:text="\\begin{align*}\n\\therefore~ M &amp; = 78\\\\\nN &amp; = -84\n\\end{align*}"
       ns0:preamble="/home/sriranga/Desktop/Prism_BasicElectronics/preamble.tex"
       style="font-style:normal;font-variant:normal;font-weight:normal;font-stretch:normal;letter-spacing:normal;word-spacing:normal;text-anchor:start;fill:none;stroke:#000000;stroke-width:1;stroke-linecap:butt;stroke-linejoin:miter;stroke-miterlimit:10.43299961;stroke-opacity:1;stroke-dasharray:none;stroke-dashoffset:0"><path
         d="M374.49,711.21 L374.49,711.23 L374.49,711.26 L374.49,711.29 L374.48,711.31 L374.48,711.34 L374.47,711.36 L374.46,711.39 L374.45,711.41 L374.44,711.43 L374.43,711.46 L374.42,711.48 L374.4,711.5 L374.39,711.52 L374.37,711.54 L374.36,711.56 L374.34,711.58 L374.32,711.6 L374.3,711.61 L374.28,711.63 L374.26,711.64 L374.24,711.66 L374.22,711.67 L374.2,711.68 L374.17,711.69 L374.15,711.7 L374.12,711.71 L374.1,711.72 L374.07,711.72 L374.05,711.73 L374.02,711.73 L373.99,711.73 L373.97,711.73 C373.68,711.73,373.44,711.5,373.44,711.21 C373.44,710.92,373.68,710.68,373.97,710.68 C374.25,710.68,374.49,710.91,374.49,711.21 Z "
         stroke-width="0"
         fill="black"
         id="path18134" /><path
         d="M376.98,706.91 L376.98,706.93 L376.98,706.96 L376.98,706.99 L376.97,707.01 L376.97,707.04 L376.96,707.06 L376.95,707.09 L376.94,707.11 L376.93,707.13 L376.92,707.16 L376.91,707.18 L376.89,707.2 L376.88,707.22 L376.86,707.24 L376.84,707.26 L376.83,707.28 L376.81,707.3 L376.79,707.31 L376.77,707.33 L376.75,707.34 L376.73,707.36 L376.71,707.37 L376.68,707.38 L376.66,707.39 L376.64,707.4 L376.61,707.41 L376.59,707.42 L376.56,707.42 L376.53,707.43 L376.51,707.43 L376.48,707.43 L376.45,707.43 C376.17,707.43,375.93,707.19,375.93,706.91 C375.93,706.62,376.17,706.38,376.45,706.38 C376.74,706.38,376.98,706.62,376.98,706.91 Z "
         stroke-width="0"
         fill="black"
         id="path18136" /><path
         d="M372.01,706.91 L372.01,706.93 L372.01,706.96 L372,706.99 L372,707.01 L371.99,707.04 L371.98,707.06 L371.98,707.09 L371.97,707.11 L371.96,707.13 L371.94,707.16 L371.93,707.18 L371.92,707.2 L371.9,707.22 L371.89,707.24 L371.87,707.26 L371.85,707.28 L371.83,707.3 L371.81,707.31 L371.8,707.33 L371.77,707.34 L371.75,707.36 L371.73,707.37 L371.71,707.38 L371.68,707.39 L371.66,707.4 L371.64,707.41 L371.61,707.42 L371.59,707.42 L371.56,707.43 L371.53,707.43 L371.51,707.43 L371.48,707.43 C371.19,707.43,370.95,707.19,370.95,706.91 C370.95,706.62,371.19,706.38,371.48,706.38 C371.77,706.38,372.01,706.62,372.01,706.91 Z "
         stroke-width="0"
         fill="black"
         id="path18138" /><path
         d="M391.74,713.61 H390.08 L386.73,708.71 L386.19,713.61 H384.39 V713.45 C384.88,713.42,385.12,713.31,385.12,713.09 C385.12,713.01,385.08,712.86,385.02,712.68 C385,712.64,384.97,712.53,384.93,712.38 C384.92,712.35,384.91,712.31,384.9,712.27 L383.85,708.58 C383.54,707.54,383.39,707.34,382.87,707.28 V707.12 H384.84 V707.28 C384.34,707.32,384.14,707.44,384.14,707.72 C384.14,707.82,384.18,708.08,384.23,708.25 L385.4,712.55 L386.01,707.12 H386.18 L389.93,712.7 L388.64,708.03 C388.48,707.5,388.29,707.35,387.64,707.28 V707.12 H390.36 V707.28 C389.68,707.34,389.59,707.4,389.59,707.71 C389.59,707.88,389.61,708.01,389.7,708.32 L390.92,712.72 C391.1,713.31,391.15,713.36,391.74,713.45 Z "
         stroke-width="0"
         fill="black"
         id="path18140" /><polygon
         points="400.23,710.4 400.23,710.96 395.14,710.96 395.14,710.4 "
         stroke-width="0"
         fill="black"
         id="polygon18142" /><polygon
         points="400.23,708.39 400.23,708.94 395.14,708.94 395.14,708.39 "
         stroke-width="0"
         fill="black"
         id="polygon18144" /><path
         d="M408.09,713.7 H404.41 L403.82,712.24 L403.99,712.16 C404.42,712.84,404.6,712.97,405.14,712.97 H407.3 L405.33,707.05 H405.98 L408.09,713.54 Z "
         stroke-width="0"
         fill="black"
         id="path18146" /><path
         d="M411.49,710.81 L411.58,710.86 L411.67,710.91 L411.75,710.96 L411.83,711 L411.9,711.05 L411.98,711.1 L412.05,711.14 L412.11,711.19 L412.17,711.24 L412.23,711.28 L412.29,711.33 L412.34,711.38 L412.39,711.42 L412.44,711.47 L412.48,711.52 L412.52,711.56 L412.56,711.61 L412.6,711.66 L412.63,711.71 L412.66,711.76 L412.69,711.81 L412.71,711.86 L412.73,711.91 L412.75,711.97 L412.77,712.02 L412.78,712.07 L412.79,712.13 L412.8,712.19 L412.81,712.25 L412.82,712.31 L412.82,712.37 L412.82,712.43 C412.82,713.24,412.1,713.84,411.11,713.84 L411.03,713.56 C411.71,713.56,412.13,713.12,412.13,712.44 C412.13,711.87,411.86,711.43,411.29,711.05 C411.24,711.02,411.24,711.02,411.2,710.99 H411.2 C410.31,711.57,409.95,712.02,409.95,712.58 C409.95,713.16,410.4,713.56,411.03,713.56 L411.11,713.84 C410.02,713.84,409.22,713.17,409.22,712.27 C409.22,711.62,409.41,711.34,410.45,710.42 C409.38,709.61,409.16,709.3,409.16,708.62 C409.16,707.66,409.95,706.99,411.07,706.99 L411.18,707.26 C410.42,707.26,409.92,707.84,409.92,708.7 C409.92,709.34,410.14,709.76,410.71,710.22 L411.31,709.79 C412.04,709.27,412.27,708.91,412.27,708.36 C412.27,707.71,411.83,707.26,411.18,707.26 L411.07,706.99 C412.26,706.99,413.03,707.64,413.03,708.66 C413.03,709.43,412.69,709.92,411.49,710.81 Z "
         stroke-width="0"
         fill="black"
         id="path18148" /><path
         d="M391.74,698.67 H389.76 V698.51 C390.33,698.46,390.46,698.36,390.46,698 C390.46,697.88,390.44,697.76,390.37,697.57 C390.36,697.53,390.35,697.5,390.35,697.49 L389.33,693.71 L387.26,698.67 H385.66 V698.51 C386.13,698.47,386.34,698.34,386.52,697.95 L385.33,693.81 C384.96,692.54,384.88,692.42,384.31,692.34 V692.18 H386.28 V692.34 C385.77,692.38,385.58,692.49,385.58,692.77 C385.58,692.9,385.61,693.09,385.67,693.3 L386.81,697.5 L389.1,692.03 H389.27 L390.71,697.03 C391.07,698.31,391.11,698.37,391.74,698.51 Z "
         stroke-width="0"
         fill="black"
         id="path18150" /><polygon
         points="400.23,695.46 400.23,696.02 395.14,696.02 395.14,695.46 "
         stroke-width="0"
         fill="black"
         id="polygon18152" /><polygon
         points="400.23,693.44 400.23,694 395.14,694 395.14,693.44 "
         stroke-width="0"
         fill="black"
         id="polygon18154" /><polygon
         points="409.33,694.46 409.33,695.01 404.24,695.01 404.24,694.46 "
         stroke-width="0"
         fill="black"
         id="polygon18156" /><path
         d="M412.84,695.87 L412.93,695.92 L413.02,695.96 L413.1,696.01 L413.18,696.06 L413.26,696.11 L413.33,696.15 L413.4,696.2 L413.47,696.25 L413.53,696.29 L413.59,696.34 L413.64,696.39 L413.7,696.43 L413.75,696.48 L413.79,696.53 L413.84,696.57 L413.88,696.62 L413.92,696.67 L413.95,696.72 L413.98,696.77 L414.01,696.82 L414.04,696.87 L414.07,696.92 L414.09,696.97 L414.11,697.02 L414.12,697.08 L414.14,697.13 L414.15,697.19 L414.16,697.24 L414.17,697.3 L414.17,697.36 L414.18,697.42 L414.18,697.49 C414.18,698.3,413.46,698.9,412.46,698.9 L412.39,698.62 C413.06,698.62,413.49,698.18,413.49,697.5 C413.49,696.93,413.21,696.48,412.64,696.1 C412.6,696.08,412.6,696.08,412.55,696.04 H412.55 C411.67,696.62,411.31,697.08,411.31,697.64 C411.31,698.21,411.76,698.62,412.39,698.62 L412.46,698.9 C411.38,698.9,410.58,698.23,410.58,697.33 C410.58,696.68,410.76,696.39,411.81,695.48 C410.73,694.66,410.52,694.36,410.52,693.68 C410.52,692.72,411.3,692.04,412.42,692.04 L412.54,692.32 C411.78,692.32,411.27,692.9,411.27,693.76 C411.27,694.4,411.49,694.81,412.07,695.28 L412.66,694.84 C413.39,694.33,413.63,693.97,413.63,693.41 C413.63,692.77,413.18,692.32,412.54,692.32 L412.42,692.04 C413.62,692.04,414.39,692.7,414.39,693.72 C414.39,694.49,414.05,694.97,412.84,695.87 Z "
         stroke-width="0"
         fill="black"
         id="path18158" /><polygon
         points="419.64,694.48 418.62,694.48 418.62,698.9 418.18,698.9 415.06,694.48 415.46,694.48 417.85,697.88 417.85,694.48 415.46,694.48 415.06,694.48 415.06,693.84 417.85,693.84 417.85,692.18 418.62,692.18 418.62,693.84 419.64,693.84 "
         stroke-width="0"
         fill="black"
         id="polygon18160" /></g>    <path
       inkscape:connector-curvature="0"
       id="path18311"
       d="m 301.50752,889.14319 0,22.25696"
       style="fill:none;stroke:#000000;stroke-width:0.80000001;stroke-linecap:square;stroke-linejoin:round;stroke-miterlimit:4;stroke-opacity:1;stroke-dasharray:none;stroke-dashoffset:0;marker-end:url(#Arrow1Mend)" />
    <text
       sodipodi:linespacing="150%"
       id="text18499"
       y="925.94135"
       x="253.3075"
       style="font-size:12px;font-style:normal;font-variant:normal;font-weight:normal;font-stretch:normal;text-align:start;line-height:150%;letter-spacing:0px;word-spacing:0px;text-anchor:start;fill:#000000;fill-opacity:1;stroke:none;font-family:LMRoman12;-inkscape-font-specification:Sans"
       xml:space="preserve"><tspan
         y="925.94135"
         x="253.3075"
         id="tspan18501"
         sodipodi:role="line">= 0 0 0 0 0 1 1 0</tspan></text>
    <g
       style="font-style:normal;font-variant:normal;font-weight:normal;font-stretch:normal;letter-spacing:normal;word-spacing:normal;text-anchor:start;fill:none;stroke:#000000;stroke-width:1;stroke-linecap:butt;stroke-linejoin:miter;stroke-miterlimit:10.43299961;stroke-opacity:1;stroke-dasharray:none;stroke-dashoffset:0"
       ns0:preamble="/home/sriranga/Desktop/Prism_BasicElectronics/preamble.tex"
       ns0:text="$\\therefore $~ Answer~ $=- (00000110)_2= -6$ "
       word-spacing="normal"
       letter-spacing="normal"
       font-size-adjust="none"
       font-stretch="normal"
       font-weight="normal"
       font-variant="normal"
       font-style="normal"
       stroke-miterlimit="10.433"
       xml:space="preserve"
       transform="matrix(1.2,0,0,-1.2,-91.431685,1800.555)"
       id="g18628"><path
         id="path18630"
         d="m 227.27,711.21 0,0.02 0,0.03 0,0.03 -0.01,0.02 0,0.03 -0.01,0.02 -0.01,0.03 -0.01,0.02 -0.01,0.02 -0.01,0.03 -0.01,0.02 -0.02,0.02 -0.01,0.02 -0.02,0.02 -0.02,0.02 -0.01,0.02 -0.02,0.02 -0.02,0.01 -0.02,0.02 -0.02,0.01 -0.02,0.02 -0.02,0.01 -0.03,0.01 -0.02,0.01 -0.02,0.01 -0.03,0.01 -0.02,0.01 -0.03,0 -0.03,0.01 -0.02,0 -0.03,0 -0.03,0 c -0.28,0 -0.52,-0.23 -0.52,-0.52 0,-0.29 0.24,-0.53 0.52,-0.53 0.28,0 0.53,0.23 0.53,0.53 z"
         inkscape:connector-curvature="0"
         style="fill:#000000;stroke-width:0" /><path
         id="path18632"
         d="m 229.76,706.91 0,0.02 0,0.03 -0.01,0.03 0,0.02 -0.01,0.03 0,0.02 -0.01,0.03 -0.01,0.02 -0.01,0.02 -0.01,0.03 -0.02,0.02 -0.01,0.02 -0.02,0.02 -0.01,0.02 -0.02,0.02 -0.02,0.02 -0.01,0.02 -0.02,0.01 -0.02,0.02 -0.02,0.01 -0.03,0.02 -0.02,0.01 -0.02,0.01 -0.02,0.01 -0.03,0.01 -0.02,0.01 -0.03,0.01 -0.02,0 -0.03,0.01 -0.02,0 -0.03,0 -0.03,0 c -0.29,0 -0.52,-0.24 -0.52,-0.52 0,-0.29 0.23,-0.53 0.52,-0.53 0.29,0 0.53,0.24 0.53,0.53 z"
         inkscape:connector-curvature="0"
         style="fill:#000000;stroke-width:0" /><path
         id="path18634"
         d="m 224.79,706.91 -0.01,0.02 0,0.03 0,0.03 -0.01,0.02 0,0.03 -0.01,0.02 -0.01,0.03 -0.01,0.02 -0.01,0.02 -0.01,0.03 -0.01,0.02 -0.02,0.02 -0.01,0.02 -0.02,0.02 -0.01,0.02 -0.02,0.02 -0.02,0.02 -0.02,0.01 -0.02,0.02 -0.02,0.01 -0.02,0.02 -0.02,0.01 -0.02,0.01 -0.03,0.01 -0.02,0.01 -0.03,0.01 -0.02,0.01 -0.03,0 -0.02,0.01 -0.03,0 -0.03,0 -0.02,0 c -0.29,0 -0.53,-0.24 -0.53,-0.52 0,-0.29 0.24,-0.53 0.53,-0.53 0.29,0 0.53,0.24 0.53,0.53 z"
         inkscape:connector-curvature="0"
         style="fill:#000000;stroke-width:0" /><path
         id="path18636"
         d="m 242.08,707.31 -0.04,0.01 -0.04,0 -0.04,0 -0.03,0.01 -0.04,0.01 -0.03,0 -0.03,0.01 -0.03,0.01 -0.03,0.01 -0.03,0.01 -0.02,0.01 -0.03,0.02 -0.02,0.01 -0.03,0.02 -0.02,0.02 -0.03,0.02 -0.02,0.03 -0.02,0.02 -0.03,0.03 -0.02,0.03 -0.02,0.03 -0.02,0.04 -0.03,0.04 -0.02,0.04 -0.03,0.04 -0.02,0.05 -0.03,0.05 -0.03,0.05 -0.02,0.06 -0.03,0.06 -0.02,0.03 -0.01,0.03 -0.02,0.03 -0.02,0.04 -2.47,5.64 h -0.2 l -2.07,-4.88 c -0.64,-1.45 -0.76,-1.61 -1.24,-1.63 v -0.19 h 1.97 v 0.19 c -0.47,0 -0.67,0.13 -0.67,0.41 0,0.12 0.03,0.26 0.08,0.39 l 0.46,1.16 h 2.6 l -0.14,0.41 h -2.3 l 1.15,2.73 1.15,-2.73 0.14,-0.41 0.41,-0.95 c 0.12,-0.27 0.19,-0.53 0.19,-0.67 0,-0.25 -0.17,-0.33 -0.7,-0.34 v -0.19 h 2.54 z"
         inkscape:connector-curvature="0"
         style="fill:#000000;stroke-width:0" /><path
         id="path18638"
         d="m 242.41,711.08 0,0 0.01,0 0,0.01 0.01,0 0.01,0 0,0 0.01,0.01 0.01,0 0.01,0 0,0 0.02,0 0.02,0.01 0.01,0 0.02,0 0.02,0 0.02,0 0.02,0.01 0.02,0 0.02,0 0.02,0 0.02,0 c 0.27,0 0.36,-0.15 0.36,-0.64 v -2.46 c 0,-0.57 -0.11,-0.71 -0.61,-0.75 v -0.15 h 2.11 v 0.15 c -0.51,0.04 -0.66,0.16 -0.66,0.52 v 2.79 c 0.48,0.45 0.7,0.57 1.02,0.57 0.49,0 0.73,-0.31 0.73,-0.97 v -2.07 c 0,-0.63 -0.13,-0.8 -0.63,-0.84 v -0.15 h 2.07 v 0.15 c -0.48,0.05 -0.6,0.17 -0.6,0.66 v 2.27 c 0,0.94 -0.44,1.5 -1.18,1.5 -0.45,0 -0.76,-0.17 -1.44,-0.81 v 0.78 l -0.07,0.03 c -0.49,-0.18 -0.83,-0.29 -1.37,-0.45 z"
         inkscape:connector-curvature="0"
         style="fill:#000000;stroke-width:0" /><path
         id="path18640"
         d="m 250.36,710.24 -0.04,1.35 h -0.11 l -0.02,-0.01 c -0.09,-0.07 -0.09,-0.08 -0.14,-0.08 -0.06,0 -0.15,0.02 -0.26,0.07 -0.22,0.08 -0.44,0.11 -0.7,0.11 -0.79,0 -1.35,-0.5 -1.35,-1.22 0,-0.55 0.31,-0.95 1.16,-1.43 l 0.58,-0.33 c 0.35,-0.19 0.51,-0.43 0.51,-0.74 0,-0.44 -0.31,-0.72 -0.82,-0.72 -0.34,0 -0.65,0.13 -0.84,0.35 -0.21,0.25 -0.29,0.48 -0.42,1.05 h -0.16 v -1.55 h 0.13 c 0.07,0.09 0.11,0.11 0.22,0.11 0.09,0 0.23,-0.02 0.46,-0.08 0.28,-0.05 0.55,-0.09 0.73,-0.09 0.76,0 1.4,0.57 1.4,1.27 0,0.49 -0.24,0.82 -0.83,1.18 l -1.08,0.63 c -0.28,0.16 -0.43,0.41 -0.43,0.68 0,0.4 0.31,0.68 0.77,0.68 0.57,0 0.87,-0.34 1.09,-1.23 z"
         inkscape:connector-curvature="0"
         style="fill:#000000;stroke-width:0" /><path
         id="path18642"
         d="m 256.79,711.59 v -0.14 c 0.33,-0.07 0.43,-0.14 0.43,-0.31 0,-0.15 -0.06,-0.39 -0.17,-0.66 l -0.89,-2.2 -0.84,2.22 c -0.17,0.46 -0.17,0.46 -0.17,0.59 0,0.22 0.11,0.29 0.58,0.36 v 0.14 h -2.02 v -0.14 c 0.37,-0.04 0.49,-0.15 0.69,-0.69 0.07,-0.19 0.14,-0.38 0.2,-0.56 l -0.91,-1.97 -0.98,2.59 c -0.04,0.1 -0.06,0.2 -0.06,0.3 0,0.21 0.12,0.29 0.45,0.33 v 0.14 h -1.79 v -0.14 c 0.23,-0.02 0.31,-0.12 0.53,-0.63 l 1.34,-3.4 c 0.12,-0.3 0.2,-0.43 0.26,-0.43 0.05,0 0.13,0.12 0.25,0.38 l 1.12,2.39 0.9,-2.35 c 0.14,-0.36 0.18,-0.42 0.24,-0.42 0.07,0 0.12,0.09 0.28,0.48 l 1.37,3.44 c 0.18,0.42 0.21,0.47 0.41,0.54 v 0.14 z"
         inkscape:connector-curvature="0"
         style="fill:#000000;stroke-width:0" /><path
         id="path18644"
         d="m 262.36,708.75 -0.05,-0.07 -0.04,-0.06 -0.05,-0.07 -0.04,-0.06 -0.04,-0.06 -0.05,-0.05 -0.04,-0.06 -0.05,-0.05 -0.04,-0.05 -0.04,-0.04 -0.05,-0.05 -0.04,-0.04 -0.05,-0.04 -0.04,-0.03 -0.05,-0.04 -0.04,-0.03 -0.05,-0.03 -0.05,-0.03 -0.05,-0.02 -0.04,-0.03 -0.05,-0.02 -0.05,-0.02 -0.05,-0.02 -0.05,-0.01 -0.05,-0.02 -0.06,-0.01 -0.05,-0.01 -0.06,-0.01 -0.05,0 -0.06,-0.01 -0.06,0 -0.05,0 c -0.57,0 -1,0.29 -1.29,0.86 -0.18,0.37 -0.25,0.7 -0.27,1.31 l 0.02,0.32 c 0.11,0.77 0.45,1.14 1.06,1.14 0.6,0 0.84,-0.28 0.97,-1.14 h -2.03 l -0.02,-0.32 h 3.07 c -0.08,0.64 -0.18,0.93 -0.43,1.25 -0.3,0.36 -0.76,0.57 -1.27,0.57 -0.5,0 -0.97,-0.18 -1.35,-0.52 -0.46,-0.41 -0.73,-1.11 -0.73,-1.93 0,-1.37 0.71,-2.22 1.86,-2.22 0.94,0 1.69,0.58 2.11,1.65 z"
         inkscape:connector-curvature="0"
         style="fill:#000000;stroke-width:0" /><path
         id="path18646"
         d="m 262.79,711 0.01,0 0.02,0 0.01,0.01 0.01,0 0.02,0 0.03,0.01 0.02,0 0.02,0 0.02,0.01 0.02,0 0.02,0 0.02,0 0.02,0.01 0.02,0 0.02,0 0.03,0 0.02,0 0.02,0 c 0.25,0 0.34,-0.16 0.34,-0.6 v -2.48 c 0,-0.5 -0.07,-0.57 -0.71,-0.69 v -0.15 h 2.39 v 0.15 c -0.68,0.03 -0.85,0.18 -0.85,0.75 v 2.23 c 0,0.32 0.43,0.82 0.7,0.82 0.06,0 0.15,-0.05 0.26,-0.15 0.16,-0.14 0.27,-0.2 0.4,-0.2 0.23,0 0.38,0.17 0.38,0.45 0,0.33 -0.2,0.53 -0.54,0.53 -0.42,0 -0.71,-0.23 -1.2,-0.94 v 0.91 l -0.05,0.03 c -0.52,-0.22 -0.88,-0.35 -1.47,-0.54 z"
         inkscape:connector-curvature="0"
         style="fill:#000000;stroke-width:0" /><polygon
         id="polygon18648"
         points="271.64,710.4 276.73,710.4 276.73,710.96 271.64,710.96 "
         style="fill:#000000;stroke-width:0" /><polygon
         id="polygon18650"
         points="271.64,708.39 276.73,708.39 276.73,708.94 271.64,708.94 "
         style="fill:#000000;stroke-width:0" /><polygon
         id="polygon18652"
         points="280.74,709.4 285.83,709.4 285.83,709.96 280.74,709.96 "
         style="fill:#000000;stroke-width:0" /><path
         id="path18654"
         d="m 289.39,713.84 -0.06,-0.04 -0.07,-0.05 -0.06,-0.04 -0.06,-0.04 -0.06,-0.04 -0.06,-0.04 -0.05,-0.04 -0.05,-0.03 -0.05,-0.04 -0.05,-0.04 -0.05,-0.03 -0.05,-0.04 -0.04,-0.03 -0.04,-0.04 -0.08,-0.06 -0.08,-0.07 -0.08,-0.07 -0.07,-0.07 -0.07,-0.07 -0.06,-0.07 -0.07,-0.08 -0.07,-0.08 -0.07,-0.08 c -0.7,-0.87 -1.05,-1.86 -1.05,-3.02 0,-1.26 0.37,-2.24 1.24,-3.25 0.41,-0.48 0.67,-0.7 1.18,-1.01 l 0.12,0.16 c -0.79,0.62 -1.07,0.97 -1.34,1.71 -0.24,0.67 -0.35,1.42 -0.35,2.42 0,1.04 0.13,1.86 0.4,2.47 0.28,0.62 0.58,0.97 1.29,1.55 z"
         inkscape:connector-curvature="0"
         style="fill:#000000;stroke-width:0" /><path
         id="path18656"
         d="m 292.3,713.84 -0.05,0 -0.05,0 -0.05,0 -0.04,-0.01 -0.05,0 -0.05,-0.01 -0.05,0 -0.04,-0.01 -0.05,-0.01 -0.04,-0.01 -0.05,-0.01 -0.04,-0.01 -0.04,-0.01 -0.05,-0.02 -0.04,-0.01 -0.04,-0.02 -0.04,-0.01 -0.04,-0.02 -0.04,-0.02 -0.04,-0.02 -0.04,-0.02 -0.04,-0.02 -0.03,-0.03 -0.04,-0.02 -0.04,-0.02 -0.04,-0.03 -0.03,-0.03 -0.04,-0.02 -0.03,-0.03 -0.04,-0.03 -0.03,-0.03 -0.04,-0.04 c -0.58,-0.55 -0.95,-1.7 -0.95,-2.86 0,-1.08 0.33,-2.24 0.79,-2.8 0.37,-0.44 0.88,-0.67 1.46,-0.67 v 0.25 c -0.86,0 -1.3,1.07 -1.3,3.13 0,2.11 0.45,3.21 1.3,3.21 h 0 c 0.84,0 1.29,-1.12 1.29,-3.2 0,-2.07 -0.44,-3.14 -1.29,-3.14 v -0.25 c 0.5,0 0.93,0.17 1.29,0.51 0.58,0.55 0.95,1.7 0.95,2.9 0,2.04 -0.9,3.44 -2.21,3.44 z"
         inkscape:connector-curvature="0"
         style="fill:#000000;stroke-width:0" /><path
         id="path18658"
         d="m 297.29,713.84 -0.05,0 -0.06,0 -0.04,0 -0.05,-0.01 -0.05,0 -0.05,-0.01 -0.05,0 -0.04,-0.01 -0.05,-0.01 -0.04,-0.01 -0.05,-0.01 -0.04,-0.01 -0.04,-0.01 -0.04,-0.02 -0.05,-0.01 -0.04,-0.02 -0.04,-0.01 -0.04,-0.02 -0.04,-0.02 -0.04,-0.02 -0.04,-0.02 -0.03,-0.02 -0.04,-0.03 -0.04,-0.02 -0.04,-0.02 -0.03,-0.03 -0.04,-0.03 -0.04,-0.02 -0.03,-0.03 -0.04,-0.03 -0.03,-0.03 -0.04,-0.04 c -0.57,-0.55 -0.95,-1.7 -0.95,-2.86 0,-1.08 0.33,-2.24 0.79,-2.8 0.37,-0.44 0.88,-0.67 1.46,-0.67 v 0.25 c -0.86,0 -1.3,1.07 -1.3,3.13 0,2.11 0.45,3.21 1.31,3.21 h 0 c 0.83,0 1.28,-1.12 1.28,-3.2 0,-2.07 -0.44,-3.14 -1.29,-3.14 v -0.25 c 0.5,0 0.93,0.17 1.29,0.51 0.58,0.55 0.95,1.7 0.95,2.9 0,2.04 -0.9,3.44 -2.2,3.44 z"
         inkscape:connector-curvature="0"
         style="fill:#000000;stroke-width:0" /><path
         id="path18660"
         d="m 302.27,713.84 -0.05,0 -0.05,0 -0.05,0 -0.05,-0.01 -0.05,0 -0.05,-0.01 -0.04,0 -0.05,-0.01 -0.05,-0.01 -0.04,-0.01 -0.04,-0.01 -0.05,-0.01 -0.04,-0.01 -0.04,-0.02 -0.05,-0.01 -0.04,-0.02 -0.04,-0.01 -0.04,-0.02 -0.04,-0.02 -0.04,-0.02 -0.04,-0.02 -0.03,-0.02 -0.04,-0.03 -0.04,-0.02 -0.04,-0.02 -0.03,-0.03 -0.04,-0.03 -0.04,-0.02 -0.03,-0.03 -0.04,-0.03 -0.03,-0.03 -0.04,-0.04 c -0.57,-0.55 -0.95,-1.7 -0.95,-2.86 0,-1.08 0.33,-2.24 0.79,-2.8 0.37,-0.44 0.88,-0.67 1.46,-0.67 v 0.25 c -0.86,0 -1.3,1.07 -1.3,3.13 0,2.11 0.45,3.21 1.31,3.21 h 0 c 0.83,0 1.28,-1.12 1.28,-3.2 0,-2.07 -0.44,-3.14 -1.29,-3.14 v -0.25 c 0.5,0 0.93,0.17 1.29,0.51 0.58,0.55 0.96,1.7 0.96,2.9 0,2.04 -0.91,3.44 -2.21,3.44 z"
         inkscape:connector-curvature="0"
         style="fill:#000000;stroke-width:0" /><path
         id="path18662"
         d="m 307.25,713.84 -0.05,0 -0.05,0 -0.05,0 -0.05,-0.01 -0.05,0 -0.05,-0.01 -0.04,0 -0.05,-0.01 -0.04,-0.01 -0.05,-0.01 -0.04,-0.01 -0.05,-0.01 -0.04,-0.01 -0.04,-0.02 -0.04,-0.01 -0.05,-0.02 -0.04,-0.01 -0.04,-0.02 -0.04,-0.02 -0.04,-0.02 -0.03,-0.02 -0.04,-0.02 -0.04,-0.03 -0.04,-0.02 -0.04,-0.02 -0.03,-0.03 -0.04,-0.03 -0.03,-0.02 -0.04,-0.03 -0.04,-0.03 -0.03,-0.03 -0.03,-0.04 c -0.58,-0.55 -0.96,-1.7 -0.96,-2.86 0,-1.08 0.33,-2.24 0.8,-2.8 0.36,-0.44 0.87,-0.67 1.45,-0.67 v 0.25 c -0.86,0 -1.29,1.07 -1.29,3.13 0,2.11 0.44,3.21 1.3,3.21 h 0 c 0.83,0 1.28,-1.12 1.28,-3.2 0,-2.07 -0.44,-3.14 -1.29,-3.14 v -0.25 c 0.51,0 0.93,0.17 1.29,0.51 0.58,0.55 0.96,1.7 0.96,2.9 0,2.04 -0.91,3.44 -2.21,3.44 z"
         inkscape:connector-curvature="0"
         style="fill:#000000;stroke-width:0" /><path
         id="path18664"
         d="m 312.23,713.84 -0.05,0 -0.05,0 -0.05,0 -0.05,-0.01 -0.05,0 -0.04,-0.01 -0.05,0 -0.05,-0.01 -0.04,-0.01 -0.05,-0.01 -0.04,-0.01 -0.05,-0.01 -0.04,-0.01 -0.04,-0.02 -0.04,-0.01 -0.04,-0.02 -0.04,-0.01 -0.04,-0.02 -0.04,-0.02 -0.04,-0.02 -0.04,-0.02 -0.04,-0.02 -0.04,-0.03 -0.04,-0.02 -0.03,-0.02 -0.04,-0.03 -0.04,-0.03 -0.03,-0.02 -0.04,-0.03 -0.03,-0.03 -0.04,-0.03 -0.03,-0.04 c -0.58,-0.55 -0.96,-1.7 -0.96,-2.86 0,-1.08 0.33,-2.24 0.8,-2.8 0.37,-0.44 0.87,-0.67 1.45,-0.67 v 0.25 c -0.86,0 -1.29,1.07 -1.29,3.13 0,2.11 0.44,3.21 1.3,3.21 h 0 c 0.84,0 1.28,-1.12 1.28,-3.2 0,-2.07 -0.43,-3.14 -1.29,-3.14 v -0.25 c 0.51,0 0.93,0.17 1.29,0.51 0.58,0.55 0.96,1.7 0.96,2.9 0,2.04 -0.91,3.44 -2.21,3.44 z"
         inkscape:connector-curvature="0"
         style="fill:#000000;stroke-width:0" /><path
         id="path18666"
         d="m 317.58,713.84 -1.79,-0.9 v -0.14 c 0.12,0.05 0.23,0.09 0.27,0.11 0.18,0.07 0.34,0.11 0.45,0.11 0.2,0 0.29,-0.15 0.29,-0.47 v -4.5 c 0,-0.33 -0.08,-0.56 -0.24,-0.65 -0.14,-0.09 -0.28,-0.12 -0.7,-0.13 v -0.15 h 2.74 v 0.15 c -0.78,0.01 -0.94,0.11 -0.94,0.59 v 5.96 z"
         inkscape:connector-curvature="0"
         style="fill:#000000;stroke-width:0" /><path
         id="path18668"
         d="m 322.56,713.84 -1.79,-0.9 v -0.14 c 0.12,0.05 0.23,0.09 0.27,0.11 0.18,0.07 0.35,0.11 0.45,0.11 0.21,0 0.29,-0.15 0.29,-0.47 v -4.5 c 0,-0.33 -0.08,-0.56 -0.23,-0.65 -0.15,-0.09 -0.29,-0.12 -0.71,-0.13 v -0.15 h 2.74 v 0.15 c -0.78,0.01 -0.94,0.11 -0.94,0.59 v 5.96 z"
         inkscape:connector-curvature="0"
         style="fill:#000000;stroke-width:0" /><path
         id="path18670"
         d="m 327.17,713.84 -0.05,0 -0.05,0 -0.05,0 -0.05,-0.01 -0.04,0 -0.05,-0.01 -0.05,0 -0.04,-0.01 -0.05,-0.01 -0.04,-0.01 -0.05,-0.01 -0.04,-0.01 -0.04,-0.01 -0.05,-0.02 -0.04,-0.01 -0.04,-0.02 -0.04,-0.01 -0.04,-0.02 -0.04,-0.02 -0.04,-0.02 -0.04,-0.02 -0.04,-0.02 -0.04,-0.03 -0.03,-0.02 -0.04,-0.02 -0.04,-0.03 -0.03,-0.03 -0.04,-0.02 -0.03,-0.03 -0.04,-0.03 -0.04,-0.03 -0.03,-0.04 c -0.58,-0.55 -0.95,-1.7 -0.95,-2.86 0,-1.08 0.32,-2.24 0.79,-2.8 0.37,-0.44 0.88,-0.67 1.45,-0.67 v 0.25 c -0.85,0 -1.29,1.07 -1.29,3.13 0,2.11 0.45,3.21 1.3,3.21 h 0 c 0.84,0 1.29,-1.12 1.29,-3.2 0,-2.07 -0.44,-3.14 -1.3,-3.14 v -0.25 c 0.51,0 0.94,0.17 1.3,0.51 0.57,0.55 0.95,1.7 0.95,2.9 0,2.04 -0.9,3.44 -2.21,3.44 z"
         inkscape:connector-curvature="0"
         style="fill:#000000;stroke-width:0" /><path
         id="path18672"
         d="m 330.01,705.37 0.06,0.04 0.07,0.04 0.06,0.05 0.06,0.04 0.06,0.04 0.06,0.03 0.05,0.04 0.05,0.04 0.05,0.04 0.05,0.03 0.05,0.04 0.05,0.03 0.04,0.04 0.04,0.03 0.09,0.07 0.07,0.07 0.08,0.07 0.07,0.07 0.07,0.07 0.07,0.07 0.06,0.08 0.07,0.08 0.07,0.08 c 0.7,0.86 1.05,1.86 1.05,3.02 0,1.27 -0.36,2.23 -1.24,3.25 -0.41,0.47 -0.67,0.69 -1.18,1.01 l -0.12,-0.16 c 0.79,-0.63 1.06,-0.97 1.34,-1.72 0.24,-0.66 0.35,-1.42 0.35,-2.41 0,-1.03 -0.13,-1.86 -0.4,-2.46 -0.28,-0.63 -0.58,-0.99 -1.29,-1.56 z"
         inkscape:connector-curvature="0"
         style="fill:#000000;stroke-width:0" /><path
         id="path18674"
         d="m 336.25,706.58 -0.09,0.04 c -0.25,-0.4 -0.34,-0.46 -0.66,-0.46 h -1.66 l 1.17,1.22 c 0.62,0.65 0.89,1.18 0.89,1.72 0,0.7 -0.57,1.23 -1.29,1.23 -0.38,0 -0.75,-0.15 -1,-0.43 -0.22,-0.24 -0.33,-0.46 -0.45,-0.95 l 0.15,-0.04 c 0.28,0.68 0.53,0.91 1.01,0.91 0.58,0 0.98,-0.4 0.98,-0.98 0,-0.55 -0.32,-1.19 -0.91,-1.81 l -1.24,-1.32 v -0.08 h 2.72 z"
         inkscape:connector-curvature="0"
         style="fill:#000000;stroke-width:0" /><polygon
         id="polygon18676"
         points="340.32,710.4 345.41,710.4 345.41,710.96 340.32,710.96 "
         style="fill:#000000;stroke-width:0" /><polygon
         id="polygon18678"
         points="340.32,708.39 345.41,708.39 345.41,708.94 340.32,708.94 "
         style="fill:#000000;stroke-width:0" /><polygon
         id="polygon18680"
         points="349.42,709.4 354.51,709.4 354.51,709.96 349.42,709.96 "
         style="fill:#000000;stroke-width:0" /><path
         id="path18682"
         d="m 359.58,713.92 -0.11,-0.01 -0.1,-0.01 -0.1,-0.01 -0.1,-0.01 -0.09,-0.01 -0.09,-0.02 -0.09,-0.01 -0.08,-0.02 -0.09,-0.01 -0.08,-0.02 -0.08,-0.01 -0.07,-0.02 -0.08,-0.02 -0.07,-0.02 -0.15,-0.04 -0.14,-0.05 -0.13,-0.06 -0.13,-0.06 -0.13,-0.06 -0.13,-0.07 -0.14,-0.08 -0.13,-0.08 -0.06,-0.05 -0.07,-0.05 c -1.08,-0.76 -1.66,-1.89 -1.66,-3.22 0,-0.87 0.26,-1.74 0.69,-2.24 0.38,-0.44 0.92,-0.67 1.53,-0.67 1.24,0 2.09,0.94 2.09,2.31 0,1.27 -0.72,2.08 -1.87,2.08 -0.43,0 -0.64,-0.07 -1.27,-0.45 l 0.03,-0.26 c 0.21,0.16 0.52,0.25 0.87,0.25 h 0 c 0.85,0 1.35,-0.72 1.35,-1.96 0,-1.09 -0.39,-1.7 -1.09,-1.7 -0.87,0 -1.41,0.94 -1.41,2.48 0,0.5 0.08,0.78 0.28,0.93 l -0.03,0.26 c 0.27,1.5 1.38,2.57 2.95,2.83 z"
         inkscape:connector-curvature="0"
         style="fill:#000000;stroke-width:0" /></g>  </g>
</svg>
