<?xml version="1.0" encoding="UTF-8" standalone="no"?>
<!-- Created with Inkscape (http://www.inkscape.org/) -->

<svg
   xmlns:ns0="http://www.iki.fi/pav/software/textext/"
   xmlns:dc="http://purl.org/dc/elements/1.1/"
   xmlns:cc="http://creativecommons.org/ns#"
   xmlns:rdf="http://www.w3.org/1999/02/22-rdf-syntax-ns#"
   xmlns:svg="http://www.w3.org/2000/svg"
   xmlns="http://www.w3.org/2000/svg"
   xmlns:sodipodi="http://sodipodi.sourceforge.net/DTD/sodipodi-0.dtd"
   xmlns:inkscape="http://www.inkscape.org/namespaces/inkscape"
   width="496.06299"
   height="354.33069"
   id="svg2"
   version="1.1"
   inkscape:version="0.48.4 r9939"
   sodipodi:docname="div39.eps">
  <sodipodi:namedview
     id="base"
     pagecolor="#ffffff"
     bordercolor="#666666"
     borderopacity="1.0"
     inkscape:pageopacity="0.0"
     inkscape:pageshadow="2"
     inkscape:zoom="1.6848668"
     inkscape:cx="240.40087"
     inkscape:cy="162.68029"
     inkscape:document-units="cm"
     inkscape:current-layer="layer1"
     showgrid="false"
     units="cm"
     inkscape:object-nodes="true"
     inkscape:window-width="1366"
     inkscape:window-height="744"
     inkscape:window-x="0"
     inkscape:window-y="24"
     inkscape:window-maximized="1">
    <inkscape:grid
       snapvisiblegridlinesonly="true"
       enabled="true"
       visible="true"
       empspacing="5"
       id="grid2985"
       type="xygrid" />
  </sodipodi:namedview>
  <defs
     id="defs4">
    <marker
       style="overflow:visible"
       id="Arrow1Mstart"
       refX="0"
       refY="0"
       orient="auto"
       inkscape:stockid="Arrow1Mstart">
      <path
         transform="matrix(0.4,0,0,0.4,4,0)"
         style="fill-rule:evenodd;stroke:#000000;stroke-width:1pt"
         d="M 0,0 5,-5 -12.5,0 5,5 0,0 z"
         id="path3775"
         inkscape:connector-curvature="0" />
    </marker>
    <marker
       style="overflow:visible"
       id="Arrow1Mend"
       refX="0"
       refY="0"
       orient="auto"
       inkscape:stockid="Arrow1Mend">
      <path
         transform="matrix(-0.4,0,0,-0.4,-4,0)"
         style="fill-rule:evenodd;stroke:#000000;stroke-width:1pt"
         d="M 0,0 5,-5 -12.5,0 5,5 0,0 z"
         id="path3778"
         inkscape:connector-curvature="0" />
    </marker>
    <marker
       inkscape:stockid="Arrow1Mstart"
       orient="auto"
       refY="0"
       refX="0"
       id="Arrow1Mstart-7"
       style="overflow:visible">
      <path
         inkscape:connector-curvature="0"
         id="path3775-8"
         d="M 0,0 5,-5 -12.5,0 5,5 0,0 z"
         style="fill-rule:evenodd;stroke:#000000;stroke-width:1pt"
         transform="matrix(0.4,0,0,0.4,4,0)" />
    </marker>
    <marker
       inkscape:stockid="Arrow1Mend"
       orient="auto"
       refY="0"
       refX="0"
       id="Arrow1Mend-3"
       style="overflow:visible">
      <path
         inkscape:connector-curvature="0"
         id="path3778-2"
         d="M 0,0 5,-5 -12.5,0 5,5 0,0 z"
         style="fill-rule:evenodd;stroke:#000000;stroke-width:1pt"
         transform="matrix(-0.4,0,0,-0.4,-4,0)" />
    </marker>
  </defs>
  <metadata
     id="metadata7">
    <rdf:RDF>
      <cc:Work
         rdf:about="">
        <dc:format>image/svg+xml</dc:format>
        <dc:type
           rdf:resource="http://purl.org/dc/dcmitype/StillImage" />
        <dc:title></dc:title>
      </cc:Work>
    </rdf:RDF>
  </metadata>
  <g
     transform="translate(0,-698.03016)"
     id="layer1"
     inkscape:groupmode="layer"
     inkscape:label="Layer 1">
    <text
       xml:space="preserve"
       style="font-size:12px;font-style:normal;font-variant:normal;font-weight:normal;font-stretch:normal;text-align:start;line-height:100%;letter-spacing:0px;word-spacing:0px;text-anchor:start;fill:#000000;fill-opacity:1;stroke:none;font-family:LMRoman12;-inkscape-font-specification:Sans"
       x="61.700558"
       y="754.07056"
       id="text5818"
       sodipodi:linespacing="100%"><tspan
         sodipodi:role="line"
         id="tspan5820"
         x="61.700558"
         y="754.07056" /></text>
    <flowRoot
       style="font-size:12px;font-style:normal;font-variant:normal;font-weight:normal;font-stretch:normal;text-align:start;line-height:100%;letter-spacing:0px;word-spacing:0px;text-anchor:start;fill:#000000;fill-opacity:1;stroke:none;font-family:LMRoman12;-inkscape-font-specification:Sans"
       id="flowRoot6377"
       xml:space="preserve"><flowRegion
         id="flowRegion6379"><rect
           y="87.141403"
           x="219.34796"
           height="40.319103"
           width="27.681772"
           id="rect6381" /></flowRegion><flowPara
         id="flowPara6383" /></flowRoot>    <text
       sodipodi:linespacing="50%"
       id="text6385"
       y="753.27734"
       x="275.91507"
       style="font-size:12px;font-style:normal;font-variant:normal;font-weight:normal;font-stretch:normal;text-align:start;line-height:50%;letter-spacing:0px;word-spacing:0px;text-anchor:start;fill:#000000;fill-opacity:1;stroke:none;font-family:LMRoman12;-inkscape-font-specification:Sans"
       xml:space="preserve"><tspan
         y="753.27734"
         x="275.91507"
         id="tspan6387"
         sodipodi:role="line" /></text>
    <text
       sodipodi:linespacing="100%"
       id="text3884"
       y="892.41718"
       x="348.65417"
       style="font-size:12px;font-style:normal;font-variant:normal;font-weight:normal;font-stretch:normal;text-align:start;line-height:100%;letter-spacing:0px;word-spacing:0px;text-anchor:start;fill:#000000;fill-opacity:1;stroke:none;font-family:LMRoman12;-inkscape-font-specification:Sans"
       xml:space="preserve"><tspan
         id="tspan3890"
         y="892.41718"
         x="348.65417"
         sodipodi:role="line" /></text>
    <text
       sodipodi:linespacing="150%"
       id="text3887"
       y="948.92749"
       x="216.96629"
       style="font-size:12px;font-style:normal;font-variant:normal;font-weight:normal;font-stretch:normal;text-align:start;line-height:150%;letter-spacing:0px;word-spacing:0px;text-anchor:start;fill:#000000;fill-opacity:1;stroke:none;font-family:LMRoman12;-inkscape-font-specification:Sans"
       xml:space="preserve"><tspan
         y="948.92749"
         x="216.96629"
         id="tspan3889"
         sodipodi:role="line" /></text>
    <text
       sodipodi:linespacing="150%"
       id="text7389"
       y="759.11084"
       x="173"
       style="font-size:12px;font-style:normal;font-variant:normal;font-weight:normal;font-stretch:normal;text-align:start;line-height:150%;letter-spacing:0px;word-spacing:0px;text-anchor:start;fill:#000000;fill-opacity:1;stroke:none;font-family:LMRoman12;-inkscape-font-specification:Sans"
       xml:space="preserve"><tspan
         y="759.11084"
         x="173"
         id="tspan7391"
         sodipodi:role="line" /></text>
    <text
       xml:space="preserve"
       style="font-size:12px;font-style:normal;font-variant:normal;font-weight:normal;font-stretch:normal;text-align:start;line-height:150%;letter-spacing:0px;word-spacing:0px;text-anchor:start;fill:#000000;fill-opacity:1;stroke:none;font-family:LMRoman12;-inkscape-font-specification:Sans"
       x="235.18646"
       y="833.35034"
       id="text12764"
       sodipodi:linespacing="150%"><tspan
         dx="0 0 0.51797229"
         sodipodi:role="line"
         id="tspan12766"
         x="235.18646"
         y="833.35034">  0 1 0 1 1 0 0 0 1 0 0</tspan><tspan
         sodipodi:role="line"
         x="235.18646"
         y="851.35034"
         id="tspan12770">+1 0 1 0 1 1 1 1 0 0 0</tspan></text>
    <text
       transform="translate(0,698.03016)"
       sodipodi:linespacing="150%"
       id="text12776"
       y="185.47461"
       x="347.50522"
       style="font-size:12px;font-style:normal;font-variant:normal;font-weight:normal;font-stretch:normal;text-align:start;line-height:150%;letter-spacing:0px;word-spacing:0px;text-anchor:start;fill:#000000;fill-opacity:1;stroke:none;font-family:LMRoman12;-inkscape-font-specification:Sans"
       xml:space="preserve"><tspan
         y="185.47461"
         x="347.50522"
         id="tspan12778"
         sodipodi:role="line" /></text>
    <path
       inkscape:connector-curvature="0"
       id="path12780"
       d="m 226.9678,857.55347 125.11689,0"
       style="fill:none;stroke:#000000;stroke-width:0.80000001;stroke-linecap:square;stroke-linejoin:round;stroke-miterlimit:4;stroke-opacity:1;stroke-dasharray:none;stroke-dashoffset:0" />
    <text
       xml:space="preserve"
       style="font-size:12px;font-style:normal;font-variant:normal;font-weight:normal;font-stretch:normal;text-align:start;line-height:150%;letter-spacing:0px;word-spacing:0px;text-anchor:start;fill:#000000;fill-opacity:1;stroke:none;font-family:LMRoman12;-inkscape-font-specification:Sans"
       x="233.5674"
       y="869.23932"
       id="text12782"
       sodipodi:linespacing="150%"><tspan
         sodipodi:role="line"
         x="233.5674"
         y="869.23932"
         id="tspan12786">1 0 0 0 0 0 1 1 1 1 0 0</tspan><tspan
         sodipodi:role="line"
         x="233.5674"
         y="887.23932"
         id="tspan12788" /></text>
    <text
       xml:space="preserve"
       style="font-size:12px;font-style:normal;font-variant:normal;font-weight:normal;font-stretch:normal;text-align:start;line-height:150%;letter-spacing:0px;word-spacing:0px;text-anchor:start;fill:#000000;fill-opacity:1;stroke:none;font-family:LMRoman12;-inkscape-font-specification:Sans"
       x="175.61487"
       y="886.58783"
       id="text12981"
       sodipodi:linespacing="150%"><tspan
         sodipodi:role="line"
         id="tspan12983"
         x="175.61487"
         y="886.58783">Neglect carry</tspan></text>
    <path
       transform="translate(-32.180274,683.17851)"
       d="m 272.8109,182.19679 c 0,2.98466 -1.85538,5.40421 -4.14412,5.40421 -2.28874,0 -4.14413,-2.41955 -4.14413,-5.40421 0,-2.98466 1.85539,-5.40421 4.14413,-5.40421 2.28874,0 4.14412,2.41955 4.14412,5.40421 z"
       sodipodi:ry="5.4042087"
       sodipodi:rx="4.144124"
       sodipodi:cy="182.19679"
       sodipodi:cx="268.66678"
       id="path3764"
       style="fill:none;stroke:#000000;stroke-width:0.60000002;stroke-linecap:square;stroke-linejoin:round;stroke-miterlimit:4;stroke-opacity:1;stroke-dasharray:none;stroke-dashoffset:0"
       sodipodi:type="arc" />
    <text
       sodipodi:linespacing="150%"
       id="text6388"
       y="793.37469"
       x="244.22394"
       style="font-size:12px;font-style:normal;font-variant:normal;font-weight:normal;font-stretch:normal;text-align:start;line-height:150%;letter-spacing:0px;word-spacing:0px;text-anchor:start;fill:#000000;fill-opacity:1;stroke:none;font-family:LMRoman12;-inkscape-font-specification:Sans"
       xml:space="preserve"><tspan
         dx="2.0718892"
         y="793.37469"
         x="244.22394"
         id="tspan6390"
         sodipodi:role="line">  1 0 1 0 0 0 1 0 0 0</tspan><tspan
         id="tspan6392"
         y="811.37469"
         x="244.22394"
         sodipodi:role="line">1 0 1 0 1 1 1 1 0 0 0</tspan></text>
    <path
       style="fill:none;stroke:#000000;stroke-width:0.5;stroke-linecap:square;stroke-linejoin:round;stroke-miterlimit:4;stroke-opacity:1;stroke-dasharray:none;stroke-dashoffset:0;marker-start:none;marker-end:url(#Arrow1Mend)"
       d="m 232.65175,871.25376 -6.50195,6.50196"
       id="path14827"
       inkscape:connector-curvature="0"
       sodipodi:nodetypes="cc" />
    <g
       style="font-style:normal;font-variant:normal;font-weight:normal;font-stretch:normal;letter-spacing:normal;word-spacing:normal;text-anchor:start;fill:none;stroke:#000000;stroke-width:1;stroke-linecap:butt;stroke-linejoin:miter;stroke-miterlimit:10.43299961;stroke-opacity:1;stroke-dasharray:none;stroke-dashoffset:0"
       ns0:preamble="/home/sriranga/Desktop/Prism_BasicElectronics/preamble.tex"
       ns0:text="\\begin{align*}\n\\text{Binary equivalent of } 648 &amp;= \\\\\n\\therefore ~\\text{2\'nd complement representation of} -648&amp; =\n\\end{align*}"
       text-anchor="start"
       word-spacing="normal"
       letter-spacing="normal"
       font-size-adjust="none"
       font-stretch="normal"
       font-weight="normal"
       font-variant="normal"
       font-style="normal"
       fill-opacity="1"
       fill-rule="evenodd"
       fill="none"
       stroke-opacity="1"
       stroke-dashoffset="0"
       stroke-dasharray="none"
       stroke-miterlimit="10.433"
       stroke-linejoin="miter"
       stroke-linecap="butt"
       stroke="black"
       xml:space="preserve"
       transform="matrix(1.2,0,0,-1.2,-354.72057,1642.3845)"
       id="g8591"><path
         id="path8593"
         fill="black"
         stroke-width="0"
         d="M380.73,713.7 V713.51 C381.57,713.46,381.69,713.35,381.69,712.62 V708.21 C381.69,707.47,381.56,707.34,380.73,707.31 V707.12 H384.05 C384.83,707.12,385.54,707.33,385.91,707.67 C386.26,707.99,386.46,708.44,386.46,708.91 C386.46,709.35,386.28,709.75,385.98,710.04 C385.68,710.3,385.41,710.42,384.76,710.58 C385.28,710.71,385.49,710.81,385.73,711.02 C385.98,711.24,386.12,711.6,386.12,712.01 C386.12,713.12,385.24,713.7,383.52,713.7 L383.36,713.33 C384.5,713.33,385.11,712.86,385.11,711.97 C385.11,711.2,384.58,710.76,383.65,710.76 H382.7 V710.36 C383.67,710.36,384.12,710.31,384.48,710.16 C385.05,709.93,385.32,709.53,385.32,708.9 C385.32,708.37,385.11,707.98,384.71,707.75 C384.39,707.57,383.99,707.49,383.33,707.49 C382.84,707.49,382.7,707.58,382.7,707.9 V710.36 V710.76 V713.04 C382.7,713.24,382.77,713.33,382.92,713.33 H383.36 L383.52,713.7 Z " /><path
         id="path8595"
         fill="black"
         stroke-width="0"
         d="M388.95,711.7 L387.41,711.15 V711 L387.49,711.01 C387.61,711.03,387.73,711.04,387.83,711.04 C388.06,711.04,388.15,710.88,388.15,710.44 V708.14 C388.15,707.42,388.05,707.31,387.37,707.27 V707.12 H389.73 V707.27 C389.07,707.32,388.99,707.42,388.99,708.14 V711.66 Z " /><path
         id="path8597"
         fill="black"
         stroke-width="0"
         d="M388.48,713.91 L388.46,713.91 L388.43,713.91 L388.41,713.9 L388.38,713.9 L388.36,713.89 L388.34,713.89 L388.31,713.88 L388.29,713.87 L388.27,713.86 L388.25,713.85 L388.23,713.84 L388.21,713.82 L388.19,713.81 L388.17,713.79 L388.15,713.78 L388.13,713.76 L388.12,713.74 L388.1,713.72 L388.08,713.71 L388.07,713.69 L388.06,713.67 L388.05,713.64 L388.03,713.62 L388.02,713.6 L388.01,713.58 L388.01,713.55 L388,713.53 L387.99,713.5 L387.99,713.48 L387.99,713.45 L387.98,713.43 L387.98,713.4 C387.98,713.12,388.2,712.9,388.48,712.9 C388.77,712.9,389,713.11,389,713.4 C389,713.68,388.77,713.91,388.48,713.91 Z " /><path
         id="path8599"
         fill="black"
         stroke-width="0"
         d="M390.14,711.08 L390.14,711.08 L390.15,711.08 L390.15,711.09 L390.16,711.09 L390.17,711.09 L390.17,711.09 L390.18,711.1 L390.19,711.1 L390.2,711.1 L390.2,711.1 L390.22,711.1 L390.24,711.11 L390.25,711.11 L390.27,711.11 L390.29,711.11 L390.31,711.11 L390.33,711.12 L390.34,711.12 L390.36,711.12 L390.38,711.12 L390.4,711.12 C390.68,711.12,390.77,710.97,390.77,710.48 V708.02 C390.77,707.45,390.66,707.31,390.16,707.27 V707.12 H392.27 V707.27 C391.76,707.31,391.61,707.43,391.61,707.79 V710.58 C392.09,711.03,392.31,711.15,392.63,711.15 C393.12,711.15,393.36,710.84,393.36,710.18 V708.11 C393.36,707.48,393.23,707.31,392.73,707.27 V707.12 H394.8 V707.27 C394.32,707.32,394.2,707.44,394.2,707.93 V710.2 C394.2,711.14,393.76,711.7,393.02,711.7 C392.56,711.7,392.26,711.53,391.58,710.89 V711.67 L391.51,711.7 C391.02,711.52,390.68,711.41,390.14,711.25 Z " /><path
         id="path8601"
         fill="black"
         stroke-width="0"
         d="M399.36,707.78 L399.34,707.77 L399.32,707.76 L399.31,707.74 L399.29,707.73 L399.28,707.72 L399.27,707.71 L399.25,707.7 L399.24,707.69 L399.22,707.68 L399.21,707.68 L399.2,707.67 L399.18,707.66 L399.17,707.65 L399.16,707.65 L399.14,707.64 L399.13,707.63 L399.12,707.63 L399.1,707.62 L399.09,707.62 L399.08,707.62 L399.07,707.61 L399.05,707.61 L399.04,707.6 L399.03,707.6 L399,707.6 L398.97,707.59 L398.95,707.59 L398.92,707.59 C398.69,707.59,398.62,707.73,398.62,708.17 V710.1 C398.62,710.62,398.57,710.91,398.42,711.15 C398.2,711.51,397.77,711.7,397.19,711.7 C396.25,711.7,395.52,711.21,395.52,710.58 C395.52,710.35,395.71,710.16,395.94,710.16 C396.18,710.16,396.39,710.35,396.39,710.57 C396.39,710.61,396.38,710.66,396.37,710.73 C396.35,710.82,396.34,710.9,396.34,710.97 C396.34,711.24,396.66,711.46,397.06,711.46 C397.55,711.46,397.81,711.17,397.81,710.63 V710.03 V709.79 V708.35 C397.81,708.04,397.77,707.95,397.56,707.83 C397.32,707.69,397.04,707.6,396.83,707.6 C396.48,707.6,396.2,707.94,396.2,708.37 V708.41 C396.2,708.99,396.61,709.35,397.81,709.79 V710.03 C396.28,709.41,396.11,709.33,395.68,708.95 C395.47,708.75,395.33,708.42,395.33,708.09 C395.33,707.46,395.77,707.03,396.37,707.03 C396.81,707.03,397.22,707.23,397.82,707.75 C397.87,707.23,398.05,707.03,398.46,707.03 C398.8,707.03,399.01,707.15,399.36,707.52 Z " /><path
         id="path8603"
         fill="black"
         stroke-width="0"
         d="M399.45,711 L399.46,711 L399.48,711 L399.49,711.01 L399.5,711.01 L399.53,711.01 L399.55,711.02 L399.57,711.02 L399.59,711.02 L399.61,711.03 L399.63,711.03 L399.65,711.03 L399.67,711.03 L399.69,711.04 L399.71,711.04 L399.74,711.04 L399.76,711.04 L399.78,711.04 L399.8,711.04 C400.05,711.04,400.14,710.88,400.14,710.44 V707.96 C400.14,707.46,400.07,707.39,399.43,707.27 V707.12 H401.82 V707.27 C401.14,707.3,400.97,707.45,400.97,708.02 V710.25 C400.97,710.57,401.4,711.07,401.67,711.07 C401.73,711.07,401.82,711.02,401.93,710.92 C402.09,710.78,402.2,710.72,402.33,710.72 C402.57,710.72,402.71,710.89,402.71,711.17 C402.71,711.5,402.51,711.7,402.17,711.7 C401.75,711.7,401.46,711.47,400.97,710.76 V711.67 L400.92,711.7 C400.4,711.48,400.04,711.35,399.45,711.16 Z " /><path
         id="path8605"
         fill="black"
         stroke-width="0"
         d="M407.43,711.59 H406.08 V711.45 C406.4,711.45,406.56,711.36,406.56,711.2 C406.56,711.16,406.55,711.1,406.52,711.03 L405.55,708.29 L404.41,710.8 C404.35,710.94,404.31,711.07,404.31,711.18 C404.31,711.36,404.46,711.43,404.89,711.45 V711.59 H402.84 V711.46 C403.1,711.42,403.27,711.31,403.35,711.14 L404.48,708.69 L404.51,708.61 L404.66,708.32 C404.94,707.82,405.1,707.46,405.1,707.31 C405.1,707.16,404.87,706.54,404.7,706.24 C404.56,705.98,404.34,705.79,404.2,705.79 C404.14,705.79,404.05,705.81,403.95,705.86 C403.76,705.93,403.6,705.97,403.43,705.97 C403.2,705.97,403,705.77,403,705.54 C403,705.21,403.32,704.96,403.73,704.96 C404.4,704.96,404.88,705.52,405.42,706.95 L406.95,711 C407.08,711.32,407.19,711.42,407.43,711.45 Z " /><path
         id="path8607"
         fill="black"
         stroke-width="0"
         d="M414.23,708.75 L414.19,708.68 L414.14,708.62 L414.1,708.55 L414.05,708.49 L414.01,708.43 L413.97,708.38 L413.92,708.32 L413.88,708.27 L413.83,708.22 L413.79,708.18 L413.75,708.13 L413.7,708.09 L413.66,708.05 L413.61,708.02 L413.57,707.98 L413.52,707.95 L413.47,707.92 L413.43,707.89 L413.38,707.87 L413.33,707.84 L413.28,707.82 L413.23,707.8 L413.18,707.78 L413.13,707.77 L413.08,707.75 L413.03,707.74 L412.97,707.73 L412.92,707.72 L412.86,707.72 L412.81,707.71 L412.75,707.71 L412.69,707.71 C412.12,707.71,411.69,708,411.4,708.57 C411.23,708.94,411.16,709.27,411.14,709.88 L411.16,710.2 C411.27,710.97,411.6,711.34,412.21,711.34 C412.82,711.34,413.06,711.06,413.19,710.2 H411.16 L411.14,709.88 H414.2 C414.12,710.52,414.02,710.81,413.77,711.13 C413.48,711.49,413.02,711.7,412.5,711.7 C412,711.7,411.54,711.52,411.16,711.18 C410.69,710.77,410.42,710.07,410.42,709.25 C410.42,707.88,411.14,707.03,412.28,707.03 C413.23,707.03,413.97,707.61,414.39,708.68 Z " /><path
         id="path8609"
         fill="black"
         stroke-width="0"
         d="M418.18,711.35 L418.13,711.37 L418.09,711.4 L418.05,711.42 L418.01,711.44 L417.97,711.46 L417.93,711.48 L417.9,711.5 L417.86,711.52 L417.82,711.53 L417.79,711.55 L417.75,711.56 L417.72,711.58 L417.68,711.59 L417.65,711.6 L417.58,711.63 L417.51,711.65 L417.44,711.66 L417.38,711.68 L417.31,711.69 L417.24,711.69 L417.17,711.7 L417.1,711.7 L417.03,711.71 C415.79,711.71,414.83,710.59,414.83,709.16 C414.83,707.91,415.49,707.03,416.43,707.03 C417,707.03,417.55,707.28,417.99,707.76 L417.85,707.94 C417.63,707.75,417.3,707.63,416.99,707.63 C416.68,707.63,416.42,707.73,416.22,707.93 C415.9,708.22,415.69,708.86,415.69,709.52 C415.69,710.69,416.22,711.43,417.06,711.43 C417.68,711.43,417.99,711.1,417.99,710.43 V708.39 C417.99,708.15,417.95,708.02,417.85,707.94 L417.99,707.76 V705.89 C417.99,705.34,417.81,705.19,417.1,705.14 V704.97 H419.45 V705.11 C418.9,705.23,418.82,705.31,418.82,705.72 V711.66 H418.71 Z " /><path
         id="path8611"
         fill="black"
         stroke-width="0"
         d="M424.34,707.62 H424.29 C423.83,707.62,423.73,707.73,423.73,708.19 V711.59 H422.15 V711.43 C422.77,711.4,422.89,711.3,422.89,710.8 V708.47 C422.89,708.19,422.84,708.05,422.7,707.94 C422.43,707.72,422.12,707.6,421.83,707.6 C421.44,707.6,421.12,707.94,421.12,708.36 V711.59 H419.67 V711.46 C420.14,711.43,420.28,711.28,420.28,710.82 V708.32 C420.28,707.53,420.76,707.03,421.49,707.03 C421.86,707.03,422.24,707.18,422.51,707.45 L422.94,707.88 V707.05 L422.98,707.04 C423.48,707.23,423.83,707.34,424.34,707.48 Z " /><path
         id="path8613"
         fill="black"
         stroke-width="0"
         d="M426.3,711.7 L424.76,711.15 V711 L424.84,711.01 C424.96,711.03,425.08,711.04,425.17,711.04 C425.41,711.04,425.5,710.88,425.5,710.44 V708.14 C425.5,707.42,425.4,707.31,424.72,707.27 V707.12 H427.08 V707.27 C426.42,707.32,426.34,707.42,426.34,708.14 V711.66 Z " /><path
         id="path8615"
         fill="black"
         stroke-width="0"
         d="M425.83,713.91 L425.81,713.91 L425.78,713.91 L425.76,713.9 L425.73,713.9 L425.71,713.89 L425.69,713.89 L425.66,713.88 L425.64,713.87 L425.62,713.86 L425.6,713.85 L425.58,713.84 L425.56,713.82 L425.54,713.81 L425.52,713.79 L425.5,713.78 L425.48,713.76 L425.47,713.74 L425.45,713.72 L425.43,713.71 L425.42,713.69 L425.41,713.67 L425.4,713.64 L425.38,713.62 L425.37,713.6 L425.36,713.58 L425.36,713.55 L425.35,713.53 L425.34,713.5 L425.34,713.48 L425.34,713.45 L425.33,713.43 L425.33,713.4 C425.33,713.12,425.55,712.9,425.83,712.9 C426.12,712.9,426.35,713.11,426.35,713.4 C426.35,713.68,426.12,713.91,425.83,713.91 Z " /><path
         id="path8617"
         fill="black"
         stroke-width="0"
         d="M431.82,711.59 H430.44 V711.45 C430.76,711.42,430.91,711.32,430.91,711.13 C430.91,711.03,430.89,710.93,430.85,710.83 L429.86,708.26 L428.85,710.8 C428.79,710.94,428.76,711.08,428.76,711.17 C428.76,711.35,428.87,711.42,429.22,711.45 V711.59 H427.27 V711.45 C427.64,711.43,427.71,711.33,428.17,710.3 L429.37,707.45 C429.39,707.39,429.42,707.32,429.45,707.24 C429.51,707.07,429.57,706.99,429.62,706.99 C429.68,706.99,429.76,707.11,429.9,707.48 L431.18,710.67 C431.47,711.35,431.52,711.42,431.82,711.45 Z " /><path
         id="path8619"
         fill="black"
         stroke-width="0"
         d="M436.21,707.78 L436.19,707.77 L436.18,707.76 L436.16,707.74 L436.15,707.73 L436.13,707.72 L436.12,707.71 L436.1,707.7 L436.09,707.69 L436.08,707.68 L436.06,707.68 L436.05,707.67 L436.03,707.66 L436.02,707.65 L436.01,707.65 L435.99,707.64 L435.98,707.63 L435.97,707.63 L435.96,707.62 L435.94,707.62 L435.93,707.62 L435.92,707.61 L435.9,707.61 L435.89,707.6 L435.88,707.6 L435.85,707.6 L435.82,707.59 L435.8,707.59 L435.77,707.59 C435.54,707.59,435.47,707.73,435.47,708.17 V710.1 C435.47,710.62,435.42,710.91,435.27,711.15 C435.05,711.51,434.63,711.7,434.04,711.7 C433.1,711.7,432.37,711.21,432.37,710.58 C432.37,710.35,432.57,710.16,432.8,710.16 C433.03,710.16,433.24,710.35,433.24,710.57 C433.24,710.61,433.23,710.66,433.22,710.73 C433.2,710.82,433.19,710.9,433.19,710.97 C433.19,711.24,433.51,711.46,433.91,711.46 C434.4,711.46,434.67,711.17,434.67,710.63 V710.03 V709.79 V708.35 C434.67,708.04,434.62,707.95,434.41,707.83 C434.17,707.69,433.89,707.6,433.68,707.6 C433.33,707.6,433.05,707.94,433.05,708.37 V708.41 C433.05,708.99,433.46,709.35,434.67,709.79 V710.03 C433.13,709.41,432.96,709.33,432.54,708.95 C432.32,708.75,432.18,708.42,432.18,708.09 C432.18,707.46,432.62,707.03,433.22,707.03 C433.66,707.03,434.07,707.23,434.68,707.75 C434.73,707.23,434.9,707.03,435.31,707.03 C435.65,707.03,435.86,707.15,436.21,707.52 Z " /><path
         id="path8621"
         fill="black"
         stroke-width="0"
         d="M436.42,713.31 H436.48 C436.59,713.32,436.71,713.33,436.79,713.33 C437.11,713.33,437.21,713.2,437.21,712.73 V707.99 C437.21,707.45,437.07,707.32,436.44,707.27 V707.12 H438.79 V707.27 C438.16,707.31,438.05,707.41,438.05,707.96 V713.89 L438.01,713.91 C437.49,713.74,437.11,713.64,436.42,713.47 Z " /><path
         id="path8623"
         fill="black"
         stroke-width="0"
         d="M443.06,708.75 L443.02,708.68 L442.97,708.62 L442.93,708.55 L442.89,708.49 L442.84,708.43 L442.8,708.38 L442.75,708.32 L442.71,708.27 L442.67,708.22 L442.62,708.18 L442.58,708.13 L442.53,708.09 L442.49,708.05 L442.44,708.02 L442.4,707.98 L442.35,707.95 L442.3,707.92 L442.26,707.89 L442.21,707.87 L442.16,707.84 L442.11,707.82 L442.06,707.8 L442.01,707.78 L441.96,707.77 L441.91,707.75 L441.86,707.74 L441.8,707.73 L441.75,707.72 L441.69,707.72 L441.64,707.71 L441.58,707.71 L441.52,707.71 C440.95,707.71,440.53,708,440.24,708.57 C440.06,708.94,439.99,709.27,439.97,709.88 L439.99,710.2 C440.1,710.97,440.44,711.34,441.04,711.34 C441.65,711.34,441.89,711.06,442.02,710.2 H439.99 L439.97,709.88 H443.03 C442.95,710.52,442.85,710.81,442.61,711.13 C442.31,711.49,441.85,711.7,441.33,711.7 C440.83,711.7,440.37,711.52,439.99,711.18 C439.52,710.77,439.25,710.07,439.25,709.25 C439.25,707.88,439.97,707.03,441.11,707.03 C442.06,707.03,442.8,707.61,443.22,708.68 Z " /><path
         id="path8625"
         fill="black"
         stroke-width="0"
         d="M443.59,711.08 L443.59,711.08 L443.6,711.08 L443.6,711.09 L443.61,711.09 L443.62,711.09 L443.62,711.09 L443.63,711.1 L443.64,711.1 L443.65,711.1 L443.65,711.1 L443.67,711.1 L443.68,711.11 L443.7,711.11 L443.72,711.11 L443.74,711.11 L443.76,711.11 L443.78,711.12 L443.79,711.12 L443.81,711.12 L443.83,711.12 L443.86,711.12 C444.13,711.12,444.22,710.97,444.22,710.48 V708.02 C444.22,707.45,444.11,707.31,443.61,707.27 V707.12 H445.71 V707.27 C445.21,707.31,445.06,707.43,445.06,707.79 V710.58 C445.54,711.03,445.76,711.15,446.08,711.15 C446.57,711.15,446.81,710.84,446.81,710.18 V708.11 C446.81,707.48,446.68,707.31,446.18,707.27 V707.12 H448.25 V707.27 C447.77,707.32,447.64,707.44,447.64,707.93 V710.2 C447.64,711.14,447.21,711.7,446.47,711.7 C446.01,711.7,445.7,711.53,445.03,710.89 V711.67 L444.96,711.7 C444.47,711.52,444.13,711.41,443.59,711.25 Z " /><path
         id="path8627"
         fill="black"
         stroke-width="0"
         d="M450.95,711.59 H449.94 V712.75 C449.94,712.85,449.93,712.88,449.87,712.88 C449.8,712.79,449.74,712.7,449.67,712.6 C449.29,712.05,448.87,711.58,448.71,711.54 C448.6,711.47,448.54,711.4,448.54,711.35 C448.54,711.32,448.55,711.3,448.58,711.28 H449.11 V708.29 C449.11,707.45,449.4,707.03,449.99,707.03 C450.48,707.03,450.86,707.26,451.18,707.78 L451.05,707.89 C450.85,707.64,450.68,707.54,450.46,707.54 C450.09,707.54,449.94,707.81,449.94,708.44 V711.28 H450.95 Z " /><path
         id="path8629"
         fill="black"
         stroke-width="0"
         d="M456.16,711.7 L456.04,711.69 L455.92,711.68 L455.8,711.67 L455.69,711.65 L455.58,711.63 L455.47,711.6 L455.37,711.56 L455.27,711.52 L455.17,711.48 L455.07,711.43 L454.98,711.38 L454.89,711.32 L454.81,711.26 L454.72,711.19 L454.65,711.12 L454.57,711.05 L454.5,710.97 L454.43,710.89 L454.37,710.8 L454.31,710.71 L454.26,710.61 L454.21,710.52 L454.16,710.42 L454.12,710.31 L454.08,710.2 L454.05,710.09 L454.02,709.98 L454,709.86 L453.98,709.74 L453.97,709.62 L453.96,709.5 L453.96,709.37 C453.96,708.03,454.88,707.03,456.14,707.03 L456.26,707.3 C455.87,707.3,455.5,707.54,455.29,707.94 C455.01,708.46,454.85,709.15,454.85,709.86 C454.85,710.8,455.32,711.42,456.03,711.42 H456.03 C456.86,711.42,457.45,710.46,457.45,709.1 C457.45,707.98,457,707.3,456.26,707.3 L456.14,707.03 C457.39,707.03,458.34,708.08,458.34,709.45 C458.34,710.75,457.43,711.7,456.16,711.7 Z " /><path
         id="path8631"
         fill="black"
         stroke-width="0"
         d="M461.72,711.59 H460.5 V712.75 C460.5,713.32,460.69,713.63,461.07,713.63 C461.28,713.63,461.42,713.53,461.6,713.24 C461.75,712.99,461.87,712.89,462.04,712.89 C462.27,712.89,462.46,713.07,462.46,713.29 C462.46,713.65,462.02,713.91,461.42,713.91 C460.81,713.91,460.28,713.64,460.02,713.18 C459.76,712.75,459.68,712.39,459.67,711.59 H458.86 V711.28 H459.67 V708.16 C459.67,707.43,459.57,707.31,458.85,707.27 V707.12 H461.43 V707.27 C460.62,707.3,460.51,707.41,460.51,708.16 V711.28 H461.72 Z " /><path
         id="path8633"
         fill="black"
         stroke-width="0"
         d="M468.89,713.92 L468.79,713.91 L468.69,713.9 L468.59,713.89 L468.49,713.88 L468.4,713.87 L468.31,713.85 L468.22,713.84 L468.14,713.82 L468.05,713.81 L467.97,713.79 L467.89,713.78 L467.82,713.76 L467.74,713.74 L467.67,713.72 L467.52,713.68 L467.38,713.63 L467.25,713.57 L467.12,713.51 L466.99,713.45 L466.86,713.38 L466.72,713.3 L466.59,713.22 L466.53,713.17 L466.46,713.12 C465.38,712.36,464.8,711.23,464.8,709.9 C464.8,709.03,465.07,708.16,465.49,707.66 C465.87,707.22,466.41,706.99,467.02,706.99 C468.26,706.99,469.11,707.93,469.11,709.3 C469.11,710.57,468.39,711.38,467.24,711.38 C466.81,711.38,466.6,711.31,465.97,710.93 L466,710.67 C466.21,710.83,466.52,710.92,466.87,710.92 H466.87 C467.72,710.92,468.22,710.2,468.22,708.96 C468.22,707.87,467.83,707.26,467.13,707.26 C466.26,707.26,465.72,708.2,465.72,709.74 C465.72,710.24,465.8,710.52,466,710.67 L465.97,710.93 C466.24,712.43,467.35,713.5,468.92,713.76 Z " /><polygon
         id="polygon8635"
         fill="black"
         stroke-width="0"
         points="474.14,709.42 473.12,709.42 473.12,713.84 472.68,713.84 469.56,709.42 469.96,709.42 472.34,712.83 472.34,709.42 469.96,709.42 469.56,709.42 469.56,708.78 472.35,708.78 472.35,707.12 473.12,707.12 473.12,708.78 474.14,708.78 " /><path
         id="path8637"
         fill="black"
         stroke-width="0"
         d="M477.31,710.81 L477.4,710.86 L477.48,710.91 L477.57,710.96 L477.65,711 L477.72,711.05 L477.79,711.1 L477.86,711.14 L477.93,711.19 L477.99,711.24 L478.05,711.28 L478.11,711.33 L478.16,711.38 L478.21,711.42 L478.26,711.47 L478.3,711.52 L478.34,711.56 L478.38,711.61 L478.41,711.66 L478.45,711.71 L478.48,711.76 L478.5,711.81 L478.53,711.86 L478.55,711.91 L478.57,711.97 L478.59,712.02 L478.6,712.07 L478.61,712.13 L478.62,712.19 L478.63,712.25 L478.63,712.31 L478.64,712.37 L478.64,712.43 C478.64,713.24,477.92,713.84,476.93,713.84 L476.85,713.56 C477.52,713.56,477.95,713.12,477.95,712.44 C477.95,711.87,477.67,711.43,477.11,711.05 C477.06,711.02,477.06,711.02,477.02,710.99 H477.02 C476.13,711.57,475.77,712.02,475.77,712.58 C475.77,713.16,476.22,713.56,476.85,713.56 L476.93,713.84 C475.84,713.84,475.04,713.17,475.04,712.27 C475.04,711.62,475.23,711.34,476.27,710.42 C475.2,709.61,474.98,709.3,474.98,708.62 C474.98,707.66,475.76,706.99,476.89,706.99 L477,707.26 C476.24,707.26,475.73,707.84,475.73,708.7 C475.73,709.34,475.95,709.76,476.53,710.22 L477.13,709.79 C477.85,709.27,478.09,708.91,478.09,708.36 C478.09,707.71,477.64,707.26,477,707.26 L476.89,706.99 C478.08,706.99,478.85,707.64,478.85,708.66 C478.85,709.43,478.51,709.92,477.31,710.81 Z " /><polygon
         id="polygon8639"
         fill="black"
         stroke-width="0"
         points="487.88,710.4 487.88,710.96 482.79,710.96 482.79,710.4 " /><polygon
         id="polygon8641"
         fill="black"
         stroke-width="0"
         points="487.88,708.39 487.88,708.94 482.79,708.94 482.79,708.39 " /><path
         id="path8643"
         fill="black"
         stroke-width="0"
         d="M305.91,696.26 L305.91,696.29 L305.91,696.32 L305.9,696.34 L305.9,696.37 L305.89,696.39 L305.89,696.42 L305.88,696.44 L305.87,696.47 L305.86,696.49 L305.84,696.51 L305.83,696.54 L305.82,696.56 L305.8,696.58 L305.79,696.6 L305.77,696.62 L305.75,696.63 L305.74,696.65 L305.72,696.67 L305.7,696.68 L305.68,696.7 L305.65,696.71 L305.63,696.73 L305.61,696.74 L305.59,696.75 L305.56,696.76 L305.54,696.77 L305.51,696.77 L305.49,696.78 L305.46,696.78 L305.44,696.79 L305.41,696.79 L305.38,696.79 C305.09,696.79,304.86,696.55,304.86,696.26 C304.86,695.98,305.09,695.74,305.38,695.74 C305.66,695.74,305.91,695.97,305.91,696.26 Z " /><path
         id="path8645"
         fill="black"
         stroke-width="0"
         d="M308.4,691.96 L308.4,691.99 L308.39,692.02 L308.39,692.04 L308.39,692.07 L308.38,692.09 L308.37,692.12 L308.36,692.14 L308.36,692.17 L308.34,692.19 L308.33,692.21 L308.32,692.23 L308.31,692.26 L308.29,692.28 L308.28,692.3 L308.26,692.32 L308.24,692.33 L308.22,692.35 L308.2,692.37 L308.18,692.38 L308.16,692.4 L308.14,692.41 L308.12,692.42 L308.1,692.44 L308.07,692.45 L308.05,692.46 L308.03,692.47 L308,692.47 L307.97,692.48 L307.95,692.48 L307.92,692.49 L307.9,692.49 L307.87,692.49 C307.58,692.49,307.34,692.25,307.34,691.96 C307.34,691.67,307.58,691.44,307.87,691.44 C308.16,691.44,308.4,691.67,308.4,691.96 Z " /><path
         id="path8647"
         fill="black"
         stroke-width="0"
         d="M303.42,691.96 L303.42,691.99 L303.42,692.02 L303.42,692.04 L303.41,692.07 L303.41,692.09 L303.4,692.12 L303.39,692.14 L303.38,692.17 L303.37,692.19 L303.36,692.21 L303.34,692.23 L303.33,692.26 L303.32,692.28 L303.3,692.3 L303.28,692.32 L303.27,692.33 L303.25,692.35 L303.23,692.37 L303.21,692.38 L303.19,692.4 L303.17,692.41 L303.14,692.42 L303.12,692.44 L303.1,692.45 L303.07,692.46 L303.05,692.47 L303.03,692.47 L303,692.48 L302.97,692.48 L302.95,692.49 L302.92,692.49 L302.89,692.49 C302.61,692.49,302.37,692.25,302.37,691.96 C302.37,691.67,302.61,691.44,302.89,691.44 C303.18,691.44,303.42,691.67,303.42,691.96 Z " /><path
         id="path8649"
         fill="black"
         stroke-width="0"
         d="M318.7,693.54 L318.57,693.59 C318.2,693.03,318.07,692.94,317.62,692.94 H315.24 L316.91,694.68 C317.8,695.61,318.19,696.36,318.19,697.14 C318.19,698.13,317.38,698.9,316.35,698.9 C315.8,698.9,315.28,698.68,314.91,698.28 C314.6,697.94,314.45,697.62,314.28,696.92 L314.49,696.87 C314.88,697.84,315.24,698.16,315.93,698.16 C316.77,698.16,317.33,697.59,317.33,696.76 C317.33,695.99,316.87,695.06,316.04,694.18 L314.27,692.3 V692.18 H318.15 Z " /><path
         id="path8651"
         fill="black"
         stroke-width="0"
         d="M320.01,696.48 L320.07,696.51 L320.13,696.55 L320.19,696.58 L320.24,696.62 L320.3,696.66 L320.36,696.69 L320.41,696.73 L320.46,696.78 L320.51,696.82 L320.56,696.86 L320.61,696.91 L320.65,696.95 L320.69,697 L320.74,697.05 L320.77,697.1 L320.81,697.15 L320.85,697.2 L320.88,697.25 L320.91,697.3 L320.94,697.35 L320.97,697.41 L320.99,697.46 L321.02,697.51 L321.04,697.57 L321.06,697.62 L321.07,697.68 L321.09,697.73 L321.1,697.79 L321.11,697.84 L321.11,697.9 L321.12,697.96 L321.12,698.01 C321.12,698.51,320.77,698.9,320.32,698.9 C319.98,698.9,319.74,698.67,319.74,698.33 C319.74,698.01,319.96,697.82,320.32,697.82 C320.38,697.82,320.45,697.83,320.51,697.84 C320.58,697.86,320.58,697.86,320.59,697.86 C320.67,697.86,320.73,697.8,320.73,697.72 C320.73,697.4,320.45,697.04,319.92,696.67 Z " /><path
         id="path8653"
         fill="black"
         stroke-width="0"
         d="M322.43,696.14 L322.43,696.14 L322.44,696.14 L322.44,696.14 L322.45,696.15 L322.46,696.15 L322.46,696.15 L322.47,696.15 L322.48,696.15 L322.49,696.16 L322.49,696.16 L322.51,696.16 L322.53,696.16 L322.54,696.17 L322.56,696.17 L322.58,696.17 L322.6,696.17 L322.62,696.17 L322.64,696.17 L322.66,696.17 L322.68,696.17 L322.7,696.17 C322.97,696.17,323.06,696.03,323.06,695.54 V693.08 C323.06,692.51,322.95,692.37,322.45,692.33 V692.18 H324.56 V692.33 C324.05,692.37,323.9,692.49,323.9,692.85 V695.64 C324.38,696.09,324.6,696.2,324.92,696.2 C325.41,696.2,325.65,695.9,325.65,695.24 V693.16 C325.65,692.54,325.52,692.37,325.02,692.33 V692.18 H327.09 V692.33 C326.61,692.38,326.49,692.5,326.49,692.99 V695.26 C326.49,696.19,326.05,696.75,325.31,696.75 C324.86,696.75,324.55,696.58,323.87,695.95 V696.73 L323.8,696.75 C323.31,696.57,322.97,696.46,322.43,696.3 Z " /><path
         id="path8655"
         fill="black"
         stroke-width="0"
         d="M330.67,692.08 L332.13,692.6 V692.76 C331.95,692.75,331.93,692.75,331.9,692.75 C331.55,692.75,331.47,692.86,331.47,693.31 V698.95 L331.42,698.97 C330.94,698.8,330.59,698.7,329.95,698.53 V698.37 C330.04,698.38,330.09,698.38,330.17,698.38 C330.54,698.38,330.63,698.28,330.63,697.87 V696.32 C330.25,696.64,329.98,696.75,329.59,696.75 C328.44,696.75,327.52,695.63,327.52,694.22 C327.52,692.95,328.26,692.08,329.36,692.08 C329.92,692.08,330.29,692.28,330.63,692.75 L330.46,692.9 C330.28,692.7,330.04,692.6,329.75,692.6 C328.92,692.6,328.37,693.39,328.37,694.61 C328.37,695.74,328.86,696.47,329.62,696.47 C330.14,696.47,330.63,696.01,330.63,695.48 V693.19 C330.63,693.12,330.56,693.01,330.46,692.9 L330.63,692.75 V692.11 Z " /><path
         id="path8657"
         fill="black"
         stroke-width="0"
         d="M338.68,693.73 L338.64,693.67 L338.59,693.61 L338.55,693.55 L338.51,693.49 L338.46,693.44 L338.42,693.39 L338.38,693.34 L338.34,693.29 L338.3,693.25 L338.26,693.21 L338.22,693.17 L338.18,693.13 L338.14,693.09 L338.09,693.06 L338.05,693.03 L338.01,693 L337.97,692.98 L337.93,692.95 L337.89,692.93 L337.85,692.91 L337.8,692.89 L337.76,692.87 L337.71,692.86 L337.67,692.85 L337.62,692.83 L337.58,692.82 L337.53,692.82 L337.48,692.81 L337.43,692.8 L337.38,692.8 L337.33,692.8 L337.28,692.8 C336.37,692.8,335.74,693.59,335.74,694.73 C335.74,695.76,336.28,696.46,337.09,696.46 C337.45,696.46,337.58,696.35,337.68,695.99 L337.74,695.77 C337.82,695.49,337.99,695.31,338.2,695.31 C338.46,695.31,338.68,695.5,338.68,695.73 C338.68,696.28,337.98,696.75,337.15,696.75 C336.66,696.75,336.15,696.55,335.75,696.19 C335.25,695.76,334.97,695.08,334.97,694.3 C334.97,693.01,335.76,692.08,336.86,692.08 C337.31,692.08,337.71,692.24,338.06,692.55 C338.33,692.79,338.52,693.05,338.82,693.64 Z " /><path
         id="path8659"
         fill="black"
         stroke-width="0"
         d="M341.63,696.75 L341.51,696.75 L341.39,696.74 L341.28,696.73 L341.17,696.71 L341.06,696.68 L340.95,696.65 L340.84,696.62 L340.74,696.58 L340.64,696.54 L340.55,696.49 L340.46,696.43 L340.37,696.38 L340.28,696.31 L340.2,696.25 L340.12,696.18 L340.05,696.1 L339.98,696.02 L339.91,695.94 L339.85,695.85 L339.79,695.76 L339.73,695.67 L339.68,695.57 L339.64,695.47 L339.59,695.37 L339.56,695.26 L339.53,695.15 L339.5,695.04 L339.47,694.92 L339.46,694.8 L339.44,694.68 L339.44,694.55 L339.43,694.43 C339.43,693.09,340.36,692.08,341.61,692.08 L341.73,692.36 C341.34,692.36,340.98,692.6,340.77,693 C340.49,693.51,340.33,694.21,340.33,694.91 C340.33,695.86,340.8,696.47,341.5,696.47 H341.5 C342.34,696.47,342.92,695.52,342.92,694.16 C342.92,693.03,342.48,692.36,341.73,692.36 L341.61,692.08 C342.86,692.08,343.82,693.14,343.82,694.51 C343.82,695.81,342.9,696.75,341.63,696.75 Z " /><path
         id="path8661"
         fill="black"
         stroke-width="0"
         d="M344.32,696.14 L344.33,696.14 L344.34,696.14 L344.35,696.14 L344.36,696.15 L344.37,696.15 L344.38,696.15 L344.4,696.15 L344.42,696.16 L344.44,696.16 L344.46,696.16 L344.48,696.17 L344.5,696.17 L344.52,696.17 L344.54,696.17 L344.56,696.17 L344.57,696.17 L344.59,696.17 L344.61,696.17 L344.63,696.17 C344.89,696.17,344.98,696.02,344.98,695.54 V693.03 C344.98,692.49,344.84,692.34,344.29,692.33 V692.18 H346.49 V692.33 C345.97,692.35,345.82,692.46,345.82,692.85 V695.65 C345.82,695.67,345.9,695.77,345.97,695.84 C346.21,696.07,346.64,696.23,346.99,696.23 C347.43,696.23,347.65,695.89,347.65,695.19 V693.03 C347.65,692.48,347.54,692.37,346.97,692.33 V692.18 H349.2 V692.33 C348.63,692.34,348.48,692.51,348.48,693.12 V695.63 C348.78,696.05,349.11,696.23,349.57,696.23 C350.14,696.23,350.31,695.97,350.31,695.14 V693.04 C350.31,692.48,350.23,692.4,349.66,692.33 V692.18 H351.84 V692.33 L351.58,692.35 C351.28,692.37,351.15,692.55,351.15,692.94 V694.98 C351.15,696.16,350.76,696.75,350,696.75 C349.42,696.75,348.91,696.49,348.37,695.92 C348.2,696.48,347.86,696.75,347.32,696.75 C346.88,696.75,346.6,696.61,345.78,695.99 V696.73 L345.71,696.75 C345.2,696.56,344.86,696.45,344.32,696.3 Z " /><path
         id="path8663"
         fill="black"
         stroke-width="0"
         d="M351.97,696.09 L351.98,696.09 L352,696.09 L352.01,696.09 L352.03,696.09 L352.05,696.09 L352.06,696.09 L352.08,696.09 L352.09,696.09 L352.12,696.09 L352.14,696.09 L352.15,696.09 L352.17,696.09 L352.18,696.09 L352.2,696.09 L352.21,696.09 C352.55,696.09,352.62,696,352.62,695.53 V690.88 C352.62,690.36,352.51,690.25,351.93,690.19 V690.03 H354.33 V690.2 C353.59,690.21,353.46,690.32,353.46,690.95 V692.51 C353.81,692.18,354.05,692.08,354.46,692.08 L354.49,692.4 C354.03,692.4,353.46,692.76,353.46,693.05 V695.5 C353.46,695.8,354.02,696.16,354.47,696.16 C355.21,696.16,355.7,695.4,355.7,694.25 C355.7,693.15,355.21,692.4,354.49,692.4 L354.46,692.08 C355.64,692.08,356.55,693.19,356.55,694.64 C356.55,695.87,355.86,696.75,354.89,696.75 C354.33,696.75,353.9,696.5,353.46,695.97 V696.73 L353.4,696.75 C352.86,696.54,352.51,696.41,351.97,696.24 Z " /><path
         id="path8665"
         fill="black"
         stroke-width="0"
         d="M357.05,698.37 H357.11 C357.22,698.38,357.33,698.39,357.42,698.39 C357.73,698.39,357.83,698.25,357.83,697.78 V693.04 C357.83,692.51,357.69,692.38,357.07,692.33 V692.18 H359.42 V692.33 C358.79,692.37,358.67,692.47,358.67,693.02 V698.95 L358.63,698.97 C358.11,698.8,357.73,698.7,357.05,698.53 Z " /><path
         id="path8667"
         fill="black"
         stroke-width="0"
         d="M363.69,693.81 L363.64,693.74 L363.6,693.67 L363.55,693.61 L363.51,693.55 L363.47,693.49 L363.42,693.43 L363.38,693.38 L363.33,693.33 L363.29,693.28 L363.25,693.23 L363.2,693.19 L363.16,693.15 L363.11,693.11 L363.07,693.07 L363.02,693.04 L362.98,693.01 L362.93,692.98 L362.88,692.95 L362.83,692.92 L362.79,692.9 L362.74,692.88 L362.69,692.86 L362.64,692.84 L362.59,692.82 L362.54,692.81 L362.48,692.8 L362.43,692.79 L362.37,692.78 L362.32,692.77 L362.26,692.77 L362.2,692.77 L362.14,692.77 C361.58,692.77,361.15,693.05,360.86,693.62 C360.68,694,360.61,694.33,360.59,694.93 L360.61,695.25 C360.72,696.03,361.06,696.39,361.67,696.39 C362.27,696.39,362.51,696.11,362.64,695.25 H360.61 L360.59,694.93 H363.66 C363.58,695.58,363.48,695.87,363.23,696.18 C362.93,696.54,362.47,696.75,361.96,696.75 C361.46,696.75,360.99,696.57,360.61,696.23 C360.14,695.83,359.88,695.12,359.88,694.31 C359.88,692.94,360.59,692.08,361.74,692.08 C362.68,692.08,363.43,692.67,363.85,693.74 Z " /><path
         id="path8669"
         fill="black"
         stroke-width="0"
         d="M364.24,696.14 L364.25,696.14 L364.26,696.14 L364.28,696.14 L364.29,696.15 L364.3,696.15 L364.31,696.15 L364.33,696.15 L364.35,696.16 L364.37,696.16 L364.39,696.16 L364.41,696.17 L364.43,696.17 L364.44,696.17 L364.46,696.17 L364.48,696.17 L364.5,696.17 L364.52,696.17 L364.54,696.17 L364.56,696.17 C364.82,696.17,364.91,696.02,364.91,695.54 V693.03 C364.91,692.49,364.77,692.34,364.21,692.33 V692.18 H366.42 V692.33 C365.89,692.35,365.74,692.46,365.74,692.85 V695.65 C365.74,695.67,365.82,695.77,365.89,695.84 C366.14,696.07,366.57,696.23,366.92,696.23 C367.35,696.23,367.57,695.89,367.57,695.19 V693.03 C367.57,692.48,367.46,692.37,366.9,692.33 V692.18 H369.12 V692.33 C368.56,692.34,368.41,692.51,368.41,693.12 V695.63 C368.71,696.05,369.04,696.23,369.49,696.23 C370.06,696.23,370.24,695.97,370.24,695.14 V693.04 C370.24,692.48,370.16,692.4,369.58,692.33 V692.18 H371.76 V692.33 L371.5,692.35 C371.2,692.37,371.08,692.55,371.08,692.94 V694.98 C371.08,696.16,370.69,696.75,369.92,696.75 C369.34,696.75,368.84,696.49,368.3,695.92 C368.12,696.48,367.78,696.75,367.24,696.75 C366.81,696.75,366.53,696.61,365.7,695.99 V696.73 L365.63,696.75 C365.12,696.56,364.79,696.45,364.24,696.3 Z " /><path
         id="path8671"
         fill="black"
         stroke-width="0"
         d="M375.86,693.81 L375.82,693.74 L375.77,693.67 L375.73,693.61 L375.68,693.55 L375.64,693.49 L375.6,693.43 L375.55,693.38 L375.51,693.33 L375.46,693.28 L375.42,693.23 L375.38,693.19 L375.33,693.15 L375.29,693.11 L375.24,693.07 L375.2,693.04 L375.15,693.01 L375.1,692.98 L375.06,692.95 L375.01,692.92 L374.96,692.9 L374.91,692.88 L374.86,692.86 L374.81,692.84 L374.76,692.82 L374.71,692.81 L374.66,692.8 L374.6,692.79 L374.55,692.78 L374.49,692.77 L374.44,692.77 L374.38,692.77 L374.32,692.77 C373.75,692.77,373.32,693.05,373.04,693.62 C372.86,694,372.79,694.33,372.77,694.93 L372.79,695.25 C372.9,696.03,373.23,696.39,373.84,696.39 C374.45,696.39,374.69,696.11,374.82,695.25 H372.79 L372.77,694.93 H375.83 C375.75,695.58,375.65,695.87,375.4,696.18 C375.11,696.54,374.65,696.75,374.13,696.75 C373.63,696.75,373.17,696.57,372.79,696.23 C372.32,695.83,372.05,695.12,372.05,694.31 C372.05,692.94,372.77,692.08,373.91,692.08 C374.86,692.08,375.6,692.67,376.02,693.74 Z " /><path
         id="path8673"
         fill="black"
         stroke-width="0"
         d="M376.38,696.14 L376.39,696.14 L376.4,696.14 L376.4,696.14 L376.41,696.15 L376.41,696.15 L376.42,696.15 L376.43,696.15 L376.44,696.15 L376.44,696.16 L376.45,696.16 L376.47,696.16 L376.48,696.16 L376.5,696.17 L376.52,696.17 L376.54,696.17 L376.55,696.17 L376.57,696.17 L376.59,696.17 L376.61,696.17 L376.63,696.17 L376.65,696.17 C376.93,696.17,377.02,696.03,377.02,695.54 V693.08 C377.02,692.51,376.91,692.37,376.4,692.33 V692.18 H378.51 V692.33 C378.01,692.37,377.86,692.49,377.86,692.85 V695.64 C378.33,696.09,378.55,696.2,378.88,696.2 C379.37,696.2,379.61,695.9,379.61,695.24 V693.16 C379.61,692.54,379.48,692.37,378.98,692.33 V692.18 H381.05 V692.33 C380.56,692.38,380.44,692.5,380.44,692.99 V695.26 C380.44,696.19,380.01,696.75,379.27,696.75 C378.81,696.75,378.5,696.58,377.83,695.95 V696.73 L377.76,696.75 C377.27,696.57,376.93,696.46,376.38,696.3 Z " /><path
         id="path8675"
         fill="black"
         stroke-width="0"
         d="M383.74,696.65 H382.74 V697.8 C382.74,697.9,382.73,697.93,382.67,697.93 C382.6,697.84,382.54,697.75,382.47,697.66 C382.09,697.11,381.66,696.63,381.51,696.59 C381.39,696.52,381.34,696.45,381.34,696.4 C381.34,696.37,381.35,696.35,381.38,696.33 H381.9 V693.34 C381.9,692.51,382.2,692.08,382.79,692.08 C383.28,692.08,383.65,692.32,383.98,692.84 L383.85,692.95 C383.64,692.7,383.48,692.6,383.26,692.6 C382.89,692.6,382.74,692.87,382.74,693.49 V696.33 H383.74 Z " /><path
         id="path8677"
         fill="black"
         stroke-width="0"
         d="M386.54,696.05 L386.55,696.06 L386.56,696.06 L386.57,696.06 L386.59,696.07 L386.61,696.07 L386.63,696.07 L386.65,696.08 L386.68,696.08 L386.7,696.08 L386.72,696.09 L386.74,696.09 L386.76,696.09 L386.78,696.09 L386.8,696.09 L386.82,696.09 L386.84,696.09 L386.86,696.09 L386.89,696.09 C387.13,696.09,387.22,695.94,387.22,695.5 V693.02 C387.22,692.52,387.15,692.45,386.52,692.33 V692.18 H388.9 V692.33 C388.23,692.36,388.06,692.51,388.06,693.08 V695.31 C388.06,695.63,388.49,696.12,388.76,696.12 C388.82,696.12,388.9,696.08,389.01,695.98 C389.17,695.84,389.28,695.78,389.41,695.78 C389.65,695.78,389.8,695.95,389.8,696.22 C389.8,696.55,389.59,696.75,389.25,696.75 C388.83,696.75,388.55,696.52,388.06,695.82 V696.73 L388.01,696.75 C387.48,696.53,387.12,696.4,386.54,696.21 Z " /><path
         id="path8679"
         fill="black"
         stroke-width="0"
         d="M393.84,693.81 L393.8,693.74 L393.75,693.67 L393.71,693.61 L393.67,693.55 L393.62,693.49 L393.58,693.43 L393.53,693.38 L393.49,693.33 L393.45,693.28 L393.4,693.23 L393.36,693.19 L393.31,693.15 L393.27,693.11 L393.22,693.07 L393.18,693.04 L393.13,693.01 L393.09,692.98 L393.04,692.95 L392.99,692.92 L392.94,692.9 L392.89,692.88 L392.84,692.86 L392.79,692.84 L392.74,692.82 L392.69,692.81 L392.64,692.8 L392.59,692.79 L392.53,692.78 L392.47,692.77 L392.42,692.77 L392.36,692.77 L392.3,692.77 C391.73,692.77,391.31,693.05,391.02,693.62 C390.84,694,390.77,694.33,390.75,694.93 L390.77,695.25 C390.88,696.03,391.22,696.39,391.82,696.39 C392.43,696.39,392.67,696.11,392.8,695.25 H390.77 L390.75,694.93 H393.81 C393.73,695.58,393.63,695.87,393.39,696.18 C393.09,696.54,392.63,696.75,392.11,696.75 C391.61,696.75,391.15,696.57,390.77,696.23 C390.3,695.83,390.03,695.12,390.03,694.31 C390.03,692.94,390.75,692.08,391.89,692.08 C392.84,692.08,393.58,692.67,394,693.74 Z " /><path
         id="path8681"
         fill="black"
         stroke-width="0"
         d="M394.3,696.09 L394.31,696.09 L394.33,696.09 L394.35,696.09 L394.36,696.09 L394.38,696.09 L394.39,696.09 L394.41,696.09 L394.42,696.09 L394.45,696.09 L394.47,696.09 L394.48,696.09 L394.5,696.09 L394.51,696.09 L394.53,696.09 L394.55,696.09 C394.88,696.09,394.95,696,394.95,695.53 V690.88 C394.95,690.36,394.84,690.25,394.26,690.19 V690.03 H396.67 V690.2 C395.92,690.21,395.79,690.32,395.79,690.95 V692.51 C396.14,692.18,396.38,692.08,396.79,692.08 L396.82,692.4 C396.36,692.4,395.79,692.76,395.79,693.05 V695.5 C395.79,695.8,396.35,696.16,396.8,696.16 C397.54,696.16,398.03,695.4,398.03,694.25 C398.03,693.15,397.54,692.4,396.82,692.4 L396.79,692.08 C397.97,692.08,398.88,693.19,398.88,694.64 C398.88,695.87,398.19,696.75,397.22,696.75 C396.67,696.75,396.23,696.5,395.79,695.97 V696.73 L395.73,696.75 C395.19,696.54,394.84,696.41,394.3,696.24 Z " /><path
         id="path8683"
         fill="black"
         stroke-width="0"
         d="M399.26,696.05 L399.27,696.06 L399.28,696.06 L399.3,696.06 L399.31,696.07 L399.33,696.07 L399.35,696.07 L399.38,696.08 L399.4,696.08 L399.42,696.08 L399.44,696.09 L399.46,696.09 L399.48,696.09 L399.5,696.09 L399.52,696.09 L399.54,696.09 L399.56,696.09 L399.58,696.09 L399.61,696.09 C399.86,696.09,399.95,695.94,399.95,695.5 V693.02 C399.95,692.52,399.88,692.45,399.24,692.33 V692.18 H401.63 V692.33 C400.95,692.36,400.78,692.51,400.78,693.08 V695.31 C400.78,695.63,401.21,696.12,401.48,696.12 C401.54,696.12,401.63,696.08,401.74,695.98 C401.89,695.84,402,695.78,402.13,695.78 C402.37,695.78,402.52,695.95,402.52,696.22 C402.52,696.55,402.31,696.75,401.98,696.75 C401.56,696.75,401.27,696.52,400.78,695.82 V696.73 L400.73,696.75 C400.2,696.53,399.85,696.4,399.26,696.21 Z " /><path
         id="path8685"
         fill="black"
         stroke-width="0"
         d="M406.57,693.81 L406.52,693.74 L406.48,693.67 L406.43,693.61 L406.39,693.55 L406.34,693.49 L406.3,693.43 L406.26,693.38 L406.21,693.33 L406.17,693.28 L406.12,693.23 L406.08,693.19 L406.04,693.15 L405.99,693.11 L405.95,693.07 L405.9,693.04 L405.85,693.01 L405.81,692.98 L405.76,692.95 L405.71,692.92 L405.67,692.9 L405.62,692.88 L405.57,692.86 L405.52,692.84 L405.47,692.82 L405.41,692.81 L405.36,692.8 L405.31,692.79 L405.25,692.78 L405.2,692.77 L405.14,692.77 L405.08,692.77 L405.02,692.77 C404.46,692.77,404.03,693.05,403.74,693.62 C403.56,694,403.49,694.33,403.47,694.93 L403.49,695.25 C403.6,696.03,403.94,696.39,404.55,696.39 C405.15,696.39,405.39,696.11,405.52,695.25 H403.49 L403.47,694.93 H406.54 C406.46,695.58,406.36,695.87,406.11,696.18 C405.81,696.54,405.35,696.75,404.83,696.75 C404.34,696.75,403.87,696.57,403.49,696.23 C403.02,695.83,402.76,695.12,402.76,694.31 C402.76,692.94,403.47,692.08,404.62,692.08 C405.56,692.08,406.31,692.67,406.73,693.74 Z " /><path
         id="path8687"
         fill="black"
         stroke-width="0"
         d="M410.06,695.3 L410.02,696.65 H409.92 L409.89,696.63 C409.8,696.56,409.8,696.55,409.76,696.55 C409.7,696.55,409.6,696.57,409.49,696.62 C409.27,696.7,409.05,696.74,408.79,696.74 C408,696.74,407.44,696.23,407.44,695.52 C407.44,694.96,407.76,694.57,408.6,694.09 L409.18,693.76 C409.53,693.56,409.7,693.32,409.7,693.02 C409.7,692.58,409.38,692.3,408.87,692.3 C408.53,692.3,408.22,692.43,408.03,692.65 C407.83,692.9,407.74,693.12,407.61,693.69 H407.45 V692.14 H407.58 C407.65,692.24,407.69,692.26,407.8,692.26 C407.89,692.26,408.03,692.24,408.26,692.18 C408.54,692.12,408.81,692.08,408.99,692.08 C409.76,692.08,410.39,692.66,410.39,693.35 C410.39,693.85,410.15,694.18,409.56,694.53 L408.48,695.17 C408.2,695.33,408.05,695.58,408.05,695.85 C408.05,696.24,408.36,696.52,408.82,696.52 C409.39,696.52,409.69,696.18,409.92,695.3 Z " /><path
         id="path8689"
         fill="black"
         stroke-width="0"
         d="M414.86,693.81 L414.82,693.74 L414.78,693.67 L414.73,693.61 L414.69,693.55 L414.64,693.49 L414.6,693.43 L414.56,693.38 L414.51,693.33 L414.47,693.28 L414.42,693.23 L414.38,693.19 L414.33,693.15 L414.29,693.11 L414.24,693.07 L414.2,693.04 L414.15,693.01 L414.11,692.98 L414.06,692.95 L414.01,692.92 L413.96,692.9 L413.92,692.88 L413.87,692.86 L413.82,692.84 L413.76,692.82 L413.71,692.81 L413.66,692.8 L413.61,692.79 L413.55,692.78 L413.5,692.77 L413.44,692.77 L413.38,692.77 L413.32,692.77 C412.76,692.77,412.33,693.05,412.04,693.62 C411.86,694,411.79,694.33,411.77,694.93 L411.79,695.25 C411.9,696.03,412.24,696.39,412.85,696.39 C413.45,696.39,413.69,696.11,413.82,695.25 H411.79 L411.77,694.93 H414.83 C414.76,695.58,414.66,695.87,414.41,696.18 C414.11,696.54,413.65,696.75,413.13,696.75 C412.64,696.75,412.17,696.57,411.79,696.23 C411.32,695.83,411.05,695.12,411.05,694.31 C411.05,692.94,411.77,692.08,412.91,692.08 C413.86,692.08,414.61,692.67,415.02,693.74 Z " /><path
         id="path8691"
         fill="black"
         stroke-width="0"
         d="M415.39,696.14 L415.39,696.14 L415.4,696.14 L415.41,696.14 L415.41,696.15 L415.42,696.15 L415.43,696.15 L415.43,696.15 L415.44,696.15 L415.45,696.16 L415.45,696.16 L415.46,696.16 L415.47,696.16 L415.49,696.16 L415.5,696.17 L415.52,696.17 L415.54,696.17 L415.56,696.17 L415.58,696.17 L415.6,696.17 L415.62,696.17 L415.64,696.17 L415.66,696.17 C415.93,696.17,416.02,696.03,416.02,695.54 V693.08 C416.02,692.51,415.92,692.37,415.41,692.33 V692.18 H417.52 V692.33 C417.01,692.37,416.86,692.49,416.86,692.85 V695.64 C417.34,696.09,417.56,696.2,417.89,696.2 C418.37,696.2,418.61,695.9,418.61,695.24 V693.16 C418.61,692.54,418.48,692.37,417.98,692.33 V692.18 H420.05 V692.33 C419.57,692.38,419.45,692.5,419.45,692.99 V695.26 C419.45,696.19,419.01,696.75,418.27,696.75 C417.82,696.75,417.51,696.58,416.83,695.95 V696.73 L416.76,696.75 C416.27,696.57,415.93,696.46,415.39,696.3 Z " /><path
         id="path8693"
         fill="black"
         stroke-width="0"
         d="M422.75,696.65 H421.74 V697.8 C421.74,697.9,421.73,697.93,421.67,697.93 C421.6,697.84,421.54,697.75,421.47,697.66 C421.1,697.11,420.67,696.63,420.51,696.59 C420.4,696.52,420.34,696.45,420.34,696.4 C420.34,696.37,420.35,696.35,420.38,696.33 H420.91 V693.34 C420.91,692.51,421.2,692.08,421.79,692.08 C422.28,692.08,422.66,692.32,422.99,692.84 L422.86,692.95 C422.65,692.7,422.48,692.6,422.26,692.6 C421.89,692.6,421.74,692.87,421.74,693.49 V696.33 H422.75 Z " /><path
         id="path8695"
         fill="black"
         stroke-width="0"
         d="M427.38,692.84 L427.36,692.82 L427.35,692.81 L427.33,692.8 L427.32,692.79 L427.3,692.78 L427.29,692.77 L427.27,692.76 L427.26,692.75 L427.24,692.74 L427.23,692.73 L427.22,692.72 L427.2,692.72 L427.19,692.71 L427.18,692.7 L427.16,692.7 L427.15,692.69 L427.14,692.68 L427.12,692.68 L427.11,692.68 L427.1,692.67 L427.09,692.67 L427.07,692.66 L427.06,692.66 L427.05,692.66 L427.02,692.65 L426.99,692.65 L426.97,692.65 L426.94,692.65 C426.71,692.65,426.64,692.79,426.64,693.22 V695.16 C426.64,695.68,426.59,695.97,426.44,696.2 C426.22,696.56,425.8,696.75,425.21,696.75 C424.27,696.75,423.54,696.26,423.54,695.64 C423.54,695.41,423.74,695.21,423.96,695.21 C424.2,695.21,424.41,695.41,424.41,695.63 C424.41,695.67,424.4,695.72,424.39,695.79 C424.37,695.88,424.36,695.96,424.36,696.03 C424.36,696.29,424.68,696.51,425.08,696.51 C425.57,696.51,425.83,696.22,425.83,695.69 V695.08 V694.84 V693.4 C425.83,693.09,425.79,693.01,425.58,692.89 C425.34,692.75,425.06,692.66,424.85,692.66 C424.5,692.66,424.22,693,424.22,693.42 V693.46 C424.22,694.05,424.63,694.41,425.83,694.84 V695.08 C424.3,694.47,424.13,694.39,423.71,694.01 C423.49,693.81,423.35,693.47,423.35,693.15 C423.35,692.52,423.79,692.08,424.39,692.08 C424.83,692.08,425.24,692.29,425.85,692.81 C425.89,692.29,426.07,692.08,426.48,692.08 C426.82,692.08,427.03,692.2,427.38,692.58 Z " /><path
         id="path8697"
         fill="black"
         stroke-width="0"
         d="M429.94,696.65 H428.93 V697.8 C428.93,697.9,428.92,697.93,428.86,697.93 C428.8,697.84,428.74,697.75,428.67,697.66 C428.29,697.11,427.86,696.63,427.7,696.59 C427.59,696.52,427.53,696.45,427.53,696.4 C427.53,696.37,427.54,696.35,427.57,696.33 H428.1 V693.34 C428.1,692.51,428.4,692.08,428.98,692.08 C429.47,692.08,429.85,692.32,430.18,692.84 L430.05,692.95 C429.84,692.7,429.67,692.6,429.45,692.6 C429.08,692.6,428.93,692.87,428.93,693.49 V696.33 H429.94 Z " /><path
         id="path8699"
         fill="black"
         stroke-width="0"
         d="M431.91,696.75 L430.37,696.2 V696.05 L430.45,696.07 C430.57,696.09,430.7,696.09,430.79,696.09 C431.03,696.09,431.12,695.94,431.12,695.5 V693.19 C431.12,692.48,431.02,692.37,430.33,692.33 V692.18 H432.69 V692.33 C432.03,692.38,431.95,692.48,431.95,693.19 V696.72 Z " /><path
         id="path8701"
         fill="black"
         stroke-width="0"
         d="M431.45,698.97 L431.42,698.97 L431.4,698.96 L431.37,698.96 L431.35,698.96 L431.32,698.95 L431.3,698.94 L431.28,698.94 L431.25,698.93 L431.23,698.92 L431.21,698.9 L431.19,698.89 L431.17,698.88 L431.15,698.86 L431.13,698.85 L431.11,698.83 L431.1,698.82 L431.08,698.8 L431.06,698.78 L431.05,698.76 L431.03,698.74 L431.02,698.72 L431.01,698.7 L431,698.68 L430.99,698.66 L430.98,698.63 L430.97,698.61 L430.96,698.59 L430.96,698.56 L430.95,698.54 L430.95,698.51 L430.95,698.48 L430.95,698.46 C430.95,698.18,431.17,697.95,431.45,697.95 C431.73,697.95,431.96,698.17,431.96,698.46 C431.96,698.74,431.73,698.97,431.45,698.97 Z " /><path
         id="path8703"
         fill="black"
         stroke-width="0"
         d="M435.43,696.75 L435.31,696.75 L435.19,696.74 L435.08,696.73 L434.96,696.71 L434.85,696.68 L434.75,696.65 L434.64,696.62 L434.54,696.58 L434.44,696.54 L434.35,696.49 L434.25,696.43 L434.17,696.38 L434.08,696.31 L434,696.25 L433.92,696.18 L433.85,696.1 L433.77,696.02 L433.71,695.94 L433.64,695.85 L433.59,695.76 L433.53,695.67 L433.48,695.57 L433.43,695.47 L433.39,695.37 L433.36,695.26 L433.32,695.15 L433.3,695.04 L433.27,694.92 L433.25,694.8 L433.24,694.68 L433.23,694.55 L433.23,694.43 C433.23,693.09,434.16,692.08,435.41,692.08 L435.53,692.36 C435.14,692.36,434.77,692.6,434.56,693 C434.29,693.51,434.13,694.21,434.13,694.91 C434.13,695.86,434.59,696.47,435.3,696.47 H435.3 C436.14,696.47,436.72,695.52,436.72,694.16 C436.72,693.03,436.27,692.36,435.53,692.36 L435.41,692.08 C436.66,692.08,437.62,693.14,437.62,694.51 C437.62,695.81,436.7,696.75,435.43,696.75 Z " /><path
         id="path8705"
         fill="black"
         stroke-width="0"
         d="M438.08,696.14 L438.09,696.14 L438.09,696.14 L438.1,696.14 L438.11,696.15 L438.11,696.15 L438.12,696.15 L438.13,696.15 L438.13,696.15 L438.14,696.16 L438.15,696.16 L438.16,696.16 L438.18,696.16 L438.2,696.17 L438.22,696.17 L438.23,696.17 L438.25,696.17 L438.27,696.17 L438.29,696.17 L438.31,696.17 L438.33,696.17 L438.35,696.17 C438.63,696.17,438.72,696.03,438.72,695.54 V693.08 C438.72,692.51,438.61,692.37,438.1,692.33 V692.18 H440.21 V692.33 C439.7,692.37,439.55,692.49,439.55,692.85 V695.64 C440.03,696.09,440.25,696.2,440.58,696.2 C441.07,696.2,441.31,695.9,441.31,695.24 V693.16 C441.31,692.54,441.18,692.37,440.68,692.33 V692.18 H442.75 V692.33 C442.26,692.38,442.14,692.5,442.14,692.99 V695.26 C442.14,696.19,441.7,696.75,440.97,696.75 C440.51,696.75,440.2,696.58,439.52,695.95 V696.73 L439.46,696.75 C438.97,696.57,438.63,696.46,438.08,696.3 Z " /><path
         id="path8707"
         fill="black"
         stroke-width="0"
         d="M447.88,696.75 L447.76,696.75 L447.65,696.74 L447.53,696.73 L447.42,696.71 L447.31,696.68 L447.2,696.65 L447.1,696.62 L446.99,696.58 L446.89,696.54 L446.8,696.49 L446.71,696.43 L446.62,696.38 L446.53,696.31 L446.45,696.25 L446.37,696.18 L446.3,696.1 L446.23,696.02 L446.16,695.94 L446.1,695.85 L446.04,695.76 L445.98,695.67 L445.93,695.57 L445.89,695.47 L445.85,695.37 L445.81,695.26 L445.78,695.15 L445.75,695.04 L445.73,694.92 L445.71,694.8 L445.69,694.68 L445.69,694.55 L445.68,694.43 C445.68,693.09,446.61,692.08,447.86,692.08 L447.98,692.36 C447.59,692.36,447.23,692.6,447.02,693 C446.74,693.51,446.58,694.21,446.58,694.91 C446.58,695.86,447.05,696.47,447.75,696.47 H447.75 C448.59,696.47,449.18,695.52,449.18,694.16 C449.18,693.03,448.73,692.36,447.98,692.36 L447.86,692.08 C449.12,692.08,450.07,693.14,450.07,694.51 C450.07,695.81,449.16,696.75,447.88,696.75 Z " /><path
         id="path8709"
         fill="black"
         stroke-width="0"
         d="M453.45,696.65 H452.23 V697.8 C452.23,698.38,452.42,698.69,452.79,698.69 C453,698.69,453.14,698.59,453.32,698.3 C453.48,698.04,453.6,697.94,453.77,697.94 C454,697.94,454.19,698.12,454.19,698.35 C454.19,698.71,453.75,698.97,453.15,698.97 C452.54,698.97,452.01,698.7,451.75,698.24 C451.49,697.8,451.41,697.45,451.4,696.65 H450.58 V696.33 H451.4 V693.21 C451.4,692.49,451.29,692.37,450.58,692.33 V692.18 H453.16 V692.33 C452.35,692.36,452.24,692.47,452.24,693.21 V696.33 H453.45 Z " /><polygon
         id="polygon8711"
         fill="black"
         stroke-width="0"
         points="461.62,694.46 461.62,695.01 456.53,695.01 456.53,694.46 " /><path
         id="path8713"
         fill="black"
         stroke-width="0"
         d="M468.9,698.98 L468.79,698.97 L468.69,698.96 L468.59,698.95 L468.5,698.93 L468.4,698.92 L468.31,698.91 L468.22,698.9 L468.14,698.88 L468.06,698.87 L467.97,698.85 L467.9,698.83 L467.82,698.81 L467.74,698.8 L467.67,698.77 L467.52,698.73 L467.39,698.68 L467.25,698.63 L467.12,698.57 L466.99,698.51 L466.86,698.43 L466.73,698.36 L466.59,698.27 L466.53,698.23 L466.46,698.18 C465.38,697.42,464.8,696.28,464.8,694.95 C464.8,694.09,465.07,693.21,465.49,692.72 C465.87,692.28,466.41,692.04,467.03,692.04 C468.26,692.04,469.11,692.99,469.11,694.36 C469.11,695.63,468.39,696.43,467.24,696.43 C466.81,696.43,466.6,696.36,465.97,695.99 L466,695.73 C466.21,695.89,466.52,695.98,466.87,695.98 H466.87 C467.72,695.98,468.22,695.26,468.22,694.02 C468.22,692.93,467.83,692.32,467.14,692.32 C466.26,692.32,465.72,693.25,465.72,694.79 C465.72,695.3,465.8,695.58,466,695.73 L465.97,695.99 C466.24,697.49,467.35,698.56,468.92,698.82 Z " /><polygon
         id="polygon8715"
         fill="black"
         stroke-width="0"
         points="474.14,694.48 473.12,694.48 473.12,698.9 472.68,698.9 469.56,694.48 469.96,694.48 472.35,697.88 472.35,694.48 469.96,694.48 469.56,694.48 469.56,693.84 472.36,693.84 472.36,692.18 473.12,692.18 473.12,693.84 474.14,693.84 " /><path
         id="path8717"
         fill="black"
         stroke-width="0"
         d="M477.31,695.87 L477.4,695.92 L477.48,695.96 L477.57,696.01 L477.65,696.06 L477.72,696.11 L477.8,696.15 L477.86,696.2 L477.93,696.25 L477.99,696.29 L478.05,696.34 L478.11,696.39 L478.16,696.43 L478.21,696.48 L478.26,696.53 L478.3,696.57 L478.34,696.62 L478.38,696.67 L478.42,696.72 L478.45,696.77 L478.48,696.82 L478.5,696.87 L478.53,696.92 L478.55,696.97 L478.57,697.02 L478.59,697.08 L478.6,697.13 L478.61,697.19 L478.62,697.24 L478.63,697.3 L478.64,697.36 L478.64,697.42 L478.64,697.49 C478.64,698.3,477.92,698.9,476.93,698.9 L476.85,698.62 C477.53,698.62,477.95,698.18,477.95,697.5 C477.95,696.93,477.67,696.48,477.11,696.1 C477.06,696.08,477.06,696.08,477.02,696.04 H477.02 C476.13,696.62,475.77,697.08,475.77,697.64 C475.77,698.21,476.22,698.62,476.85,698.62 L476.93,698.9 C475.84,698.9,475.04,698.23,475.04,697.33 C475.04,696.68,475.23,696.39,476.27,695.48 C475.2,694.66,474.98,694.36,474.98,693.68 C474.98,692.72,475.77,692.04,476.89,692.04 L477,692.32 C476.24,692.32,475.73,692.9,475.73,693.76 C475.73,694.4,475.95,694.81,476.53,695.28 L477.13,694.84 C477.85,694.33,478.09,693.97,478.09,693.41 C478.09,692.77,477.64,692.32,477,692.32 L476.89,692.04 C478.08,692.04,478.85,692.7,478.85,693.72 C478.85,694.49,478.51,694.97,477.31,695.87 Z " /><polygon
         id="polygon8719"
         fill="black"
         stroke-width="0"
         points="487.88,695.46 487.88,696.02 482.79,696.02 482.79,695.46 " /><polygon
         id="polygon8721"
         fill="black"
         stroke-width="0"
         points="487.88,693.44 487.88,694 482.79,694 482.79,693.44 " /></g>    <g
       id="content"
       transform="matrix(1.2,0,0,-1.2,-323.0257,1681.8794)"
       xml:space="preserve"
       stroke="black"
       stroke-linecap="butt"
       stroke-linejoin="miter"
       stroke-miterlimit="10.433"
       stroke-dasharray="none"
       stroke-dashoffset="0"
       stroke-opacity="1"
       fill="none"
       fill-rule="evenodd"
       fill-opacity="1"
       font-style="normal"
       font-variant="normal"
       font-weight="normal"
       font-stretch="normal"
       font-size-adjust="none"
       letter-spacing="normal"
       word-spacing="normal"
       text-anchor="start"
       ns0:text="\\begin{align*}\nM&amp; = 708\\\\\nN&amp; = -648\n\\end{align*}"
       ns0:preamble="/home/sriranga/Desktop/Prism_BasicElectronics/preamble.tex"
       style="font-style:normal;font-variant:normal;font-weight:normal;font-stretch:normal;letter-spacing:normal;word-spacing:normal;text-anchor:start;fill:none;stroke:#000000;stroke-width:1;stroke-linecap:butt;stroke-linejoin:miter;stroke-miterlimit:10.43299961;stroke-opacity:1;stroke-dasharray:none;stroke-dashoffset:0"><path
         d="M383.3,713.61 H381.64 L378.29,708.71 L377.75,713.61 H375.95 V713.45 C376.44,713.42,376.68,713.31,376.68,713.09 C376.68,713.01,376.64,712.86,376.58,712.68 C376.56,712.64,376.53,712.53,376.49,712.38 C376.48,712.35,376.47,712.31,376.46,712.27 L375.41,708.58 C375.1,707.54,374.95,707.34,374.43,707.28 V707.12 H376.4 V707.28 C375.89,707.32,375.7,707.44,375.7,707.72 C375.7,707.82,375.74,708.08,375.79,708.25 L376.96,712.55 L377.57,707.12 H377.74 L381.49,712.7 L380.2,708.03 C380.04,707.5,379.85,707.35,379.2,707.28 V707.12 H381.92 V707.28 C381.24,707.34,381.15,707.4,381.15,707.71 C381.15,707.88,381.17,708.01,381.26,708.32 L382.48,712.72 C382.66,713.31,382.71,713.36,383.3,713.45 Z "
         stroke-width="0"
         fill="black"
         id="path9008" /><polygon
         points="391.79,710.4 391.79,710.96 386.69,710.96 386.69,710.4 "
         stroke-width="0"
         fill="black"
         id="polygon9010" /><polygon
         points="391.79,708.39 391.79,708.94 386.69,708.94 386.69,708.39 "
         stroke-width="0"
         fill="black"
         id="polygon9012" /><path
         d="M399.65,713.7 H395.97 L395.38,712.24 L395.55,712.16 C395.98,712.84,396.16,712.97,396.7,712.97 H398.86 L396.89,707.05 H397.54 L399.65,713.54 Z "
         stroke-width="0"
         fill="black"
         id="path9014" /><path
         d="M402.69,713.84 L402.64,713.84 L402.59,713.84 L402.54,713.84 L402.49,713.83 L402.44,713.83 L402.39,713.82 L402.35,713.82 L402.3,713.81 L402.26,713.8 L402.21,713.79 L402.17,713.78 L402.12,713.77 L402.08,713.76 L402.04,713.74 L402,713.73 L401.96,713.71 L401.91,713.7 L401.87,713.68 L401.83,713.66 L401.8,713.64 L401.76,713.62 L401.72,713.6 L401.68,713.57 L401.64,713.55 L401.61,713.53 L401.57,713.5 L401.53,713.47 L401.5,713.45 L401.46,713.42 L401.43,713.39 L401.39,713.36 L401.36,713.32 C400.78,712.77,400.4,711.62,400.4,710.46 C400.4,709.38,400.73,708.22,401.2,707.66 C401.57,707.22,402.07,706.99,402.65,706.99 V707.24 C401.79,707.24,401.36,708.31,401.36,710.37 C401.36,712.48,401.8,713.58,402.66,713.58 H402.66 C403.49,713.58,403.94,712.46,403.94,710.38 C403.94,708.31,403.51,707.24,402.65,707.24 V706.99 C403.16,706.99,403.58,707.16,403.94,707.5 C404.52,708.05,404.9,709.2,404.9,710.4 C404.9,712.44,403.99,713.84,402.69,713.84 Z "
         stroke-width="0"
         fill="black"
         id="path9016" /><path
         d="M408.03,710.81 L408.12,710.86 L408.21,710.91 L408.29,710.96 L408.37,711 L408.45,711.05 L408.52,711.1 L408.59,711.14 L408.65,711.19 L408.72,711.24 L408.77,711.28 L408.83,711.33 L408.88,711.38 L408.93,711.42 L408.98,711.47 L409.02,711.52 L409.06,711.56 L409.1,711.61 L409.14,711.66 L409.17,711.71 L409.2,711.76 L409.23,711.81 L409.25,711.86 L409.27,711.91 L409.29,711.97 L409.31,712.02 L409.32,712.07 L409.34,712.13 L409.35,712.19 L409.35,712.25 L409.36,712.31 L409.36,712.37 L409.36,712.43 C409.36,713.24,408.65,713.84,407.65,713.84 L407.57,713.56 C408.25,713.56,408.67,713.12,408.67,712.44 C408.67,711.87,408.4,711.43,407.83,711.05 C407.78,711.02,407.78,711.02,407.74,710.99 H407.74 C406.86,711.57,406.5,712.02,406.5,712.58 C406.5,713.16,406.94,713.56,407.57,713.56 L407.65,713.84 C406.57,713.84,405.76,713.17,405.76,712.27 C405.76,711.62,405.95,711.34,406.99,710.42 C405.92,709.61,405.7,709.3,405.7,708.62 C405.7,707.66,406.49,706.99,407.61,706.99 L407.72,707.26 C406.96,707.26,406.46,707.84,406.46,708.7 C406.46,709.34,406.68,709.76,407.25,710.22 L407.85,709.79 C408.58,709.27,408.82,708.91,408.82,708.36 C408.82,707.71,408.37,707.26,407.72,707.26 L407.61,706.99 C408.8,706.99,409.57,707.64,409.57,708.66 C409.57,709.43,409.23,709.92,408.03,710.81 Z "
         stroke-width="0"
         fill="black"
         id="path9018" /><path
         d="M383.3,698.67 H381.32 V698.51 C381.89,698.46,382.02,698.36,382.02,698 C382.02,697.88,382,697.76,381.93,697.57 C381.92,697.53,381.91,697.5,381.91,697.49 L380.89,693.71 L378.82,698.67 H377.22 V698.51 C377.69,698.47,377.9,698.34,378.08,697.95 L376.89,693.81 C376.52,692.54,376.43,692.42,375.87,692.34 V692.18 H377.84 V692.34 C377.33,692.38,377.14,692.49,377.14,692.77 C377.14,692.9,377.17,693.09,377.23,693.3 L378.36,697.5 L380.65,692.03 H380.83 L382.27,697.03 C382.63,698.31,382.67,698.37,383.3,698.51 Z "
         stroke-width="0"
         fill="black"
         id="path9020" /><polygon
         points="391.79,695.46 391.79,696.02 386.69,696.02 386.69,695.46 "
         stroke-width="0"
         fill="black"
         id="polygon9022" /><polygon
         points="391.79,693.44 391.79,694 386.69,694 386.69,693.44 "
         stroke-width="0"
         fill="black"
         id="polygon9024" /><polygon
         points="400.89,694.46 400.89,695.01 395.8,695.01 395.8,694.46 "
         stroke-width="0"
         fill="black"
         id="polygon9026" /><path
         d="M405.95,698.98 L405.85,698.97 L405.75,698.96 L405.65,698.95 L405.55,698.93 L405.46,698.92 L405.37,698.91 L405.28,698.9 L405.2,698.88 L405.11,698.87 L405.03,698.85 L404.95,698.83 L404.88,698.81 L404.8,698.8 L404.73,698.77 L404.58,698.73 L404.44,698.68 L404.31,698.63 L404.18,698.57 L404.04,698.51 L403.91,698.43 L403.78,698.36 L403.65,698.27 L403.58,698.23 L403.52,698.18 C402.44,697.42,401.86,696.28,401.86,694.95 C401.86,694.09,402.12,693.21,402.55,692.72 C402.93,692.28,403.47,692.04,404.08,692.04 C405.32,692.04,406.17,692.99,406.17,694.36 C406.17,695.63,405.45,696.43,404.3,696.43 C403.86,696.43,403.66,696.36,403.03,695.99 L403.06,695.73 C403.27,695.89,403.58,695.98,403.92,695.98 H403.92 C404.78,695.98,405.28,695.26,405.28,694.02 C405.28,692.93,404.89,692.32,404.19,692.32 C403.32,692.32,402.78,693.25,402.78,694.79 C402.78,695.3,402.86,695.58,403.06,695.73 L403.03,695.99 C403.3,697.49,404.41,698.56,405.97,698.82 Z "
         stroke-width="0"
         fill="black"
         id="path9028" /><polygon
         points="411.19,694.48 410.18,694.48 410.18,698.9 409.74,698.9 406.62,694.48 407.02,694.48 409.4,697.88 409.4,694.48 407.02,694.48 406.62,694.48 406.62,693.84 409.41,693.84 409.41,692.18 410.18,692.18 410.18,693.84 411.19,693.84 "
         stroke-width="0"
         fill="black"
         id="polygon9030" /><path
         d="M414.36,695.87 L414.46,695.92 L414.54,695.96 L414.63,696.01 L414.71,696.06 L414.78,696.11 L414.85,696.15 L414.92,696.2 L414.99,696.25 L415.05,696.29 L415.11,696.34 L415.17,696.39 L415.22,696.43 L415.27,696.48 L415.32,696.53 L415.36,696.57 L415.4,696.62 L415.44,696.67 L415.47,696.72 L415.51,696.77 L415.54,696.82 L415.56,696.87 L415.59,696.92 L415.61,696.97 L415.63,697.02 L415.65,697.08 L415.66,697.13 L415.67,697.19 L415.68,697.24 L415.69,697.3 L415.69,697.36 L415.7,697.42 L415.7,697.49 C415.7,698.3,414.98,698.9,413.99,698.9 L413.91,698.62 C414.58,698.62,415.01,698.18,415.01,697.5 C415.01,696.93,414.73,696.48,414.17,696.1 C414.12,696.08,414.12,696.08,414.08,696.04 H414.08 C413.19,696.62,412.83,697.08,412.83,697.64 C412.83,698.21,413.28,698.62,413.91,698.62 L413.99,698.9 C412.9,698.9,412.1,698.23,412.1,697.33 C412.1,696.68,412.29,696.39,413.33,695.48 C412.26,694.66,412.04,694.36,412.04,693.68 C412.04,692.72,412.82,692.04,413.95,692.04 L414.06,692.32 C413.3,692.32,412.79,692.9,412.79,693.76 C412.79,694.4,413.01,694.81,413.59,695.28 L414.19,694.84 C414.91,694.33,415.15,693.97,415.15,693.41 C415.15,692.77,414.7,692.32,414.06,692.32 L413.95,692.04 C415.14,692.04,415.91,692.7,415.91,693.72 C415.91,694.49,415.57,694.97,414.36,695.87 Z "
         stroke-width="0"
         fill="black"
         id="path9032" /></g>    <g
       style="font-style:normal;font-variant:normal;font-weight:normal;font-stretch:normal;letter-spacing:normal;word-spacing:normal;text-anchor:start;fill:none;stroke:#000000;stroke-width:1;stroke-linecap:butt;stroke-linejoin:miter;stroke-miterlimit:10.43299961;stroke-opacity:1;stroke-dasharray:none;stroke-dashoffset:0"
       ns0:preamble="/home/sriranga/Desktop/Prism_BasicElectronics/preamble.tex"
       ns0:text="$\\therefore $~ Answer~ $= (00000111100)_{2}=60$ "
       text-anchor="start"
       word-spacing="normal"
       letter-spacing="normal"
       font-size-adjust="none"
       font-stretch="normal"
       font-weight="normal"
       font-variant="normal"
       font-style="normal"
       fill-opacity="1"
       fill-rule="evenodd"
       fill="none"
       stroke-opacity="1"
       stroke-dashoffset="0"
       stroke-dasharray="none"
       stroke-miterlimit="10.433"
       stroke-linejoin="miter"
       stroke-linecap="butt"
       stroke="black"
       xml:space="preserve"
       transform="matrix(1.2,0,0,-1.2,-104.26279,1760.9868)"
       id="g9307"><path
         id="path9309"
         fill="black"
         stroke-width="0"
         d="M227.27,711.21 L227.27,711.23 L227.27,711.26 L227.27,711.29 L227.26,711.31 L227.26,711.34 L227.25,711.36 L227.24,711.39 L227.23,711.41 L227.22,711.43 L227.21,711.46 L227.2,711.48 L227.18,711.5 L227.17,711.52 L227.15,711.54 L227.13,711.56 L227.12,711.58 L227.1,711.6 L227.08,711.61 L227.06,711.63 L227.04,711.64 L227.02,711.66 L227,711.67 L226.97,711.68 L226.95,711.69 L226.93,711.7 L226.9,711.71 L226.88,711.72 L226.85,711.72 L226.82,711.73 L226.8,711.73 L226.77,711.73 L226.74,711.73 C226.46,711.73,226.22,711.5,226.22,711.21 C226.22,710.92,226.46,710.68,226.74,710.68 C227.02,710.68,227.27,710.91,227.27,711.21 Z " /><path
         id="path9311"
         fill="black"
         stroke-width="0"
         d="M229.76,706.91 L229.76,706.93 L229.76,706.96 L229.75,706.99 L229.75,707.01 L229.74,707.04 L229.74,707.06 L229.73,707.09 L229.72,707.11 L229.71,707.13 L229.7,707.16 L229.68,707.18 L229.67,707.2 L229.65,707.22 L229.64,707.24 L229.62,707.26 L229.6,707.28 L229.59,707.3 L229.57,707.31 L229.55,707.33 L229.53,707.34 L229.5,707.36 L229.48,707.37 L229.46,707.38 L229.44,707.39 L229.41,707.4 L229.39,707.41 L229.36,707.42 L229.34,707.42 L229.31,707.43 L229.29,707.43 L229.26,707.43 L229.23,707.43 C228.94,707.43,228.71,707.19,228.71,706.91 C228.71,706.62,228.94,706.38,229.23,706.38 C229.52,706.38,229.76,706.62,229.76,706.91 Z " /><path
         id="path9313"
         fill="black"
         stroke-width="0"
         d="M224.79,706.91 L224.78,706.93 L224.78,706.96 L224.78,706.99 L224.77,707.01 L224.77,707.04 L224.76,707.06 L224.75,707.09 L224.74,707.11 L224.73,707.13 L224.72,707.16 L224.71,707.18 L224.69,707.2 L224.68,707.22 L224.66,707.24 L224.65,707.26 L224.63,707.28 L224.61,707.3 L224.59,707.31 L224.57,707.33 L224.55,707.34 L224.53,707.36 L224.51,707.37 L224.49,707.38 L224.46,707.39 L224.44,707.4 L224.41,707.41 L224.39,707.42 L224.36,707.42 L224.34,707.43 L224.31,707.43 L224.28,707.43 L224.26,707.43 C223.97,707.43,223.73,707.19,223.73,706.91 C223.73,706.62,223.97,706.38,224.26,706.38 C224.55,706.38,224.79,706.62,224.79,706.91 Z " /><path
         id="path9315"
         fill="black"
         stroke-width="0"
         d="M242.08,707.31 L242.04,707.32 L242,707.32 L241.96,707.32 L241.93,707.33 L241.89,707.34 L241.86,707.34 L241.83,707.35 L241.8,707.36 L241.77,707.37 L241.74,707.38 L241.72,707.39 L241.69,707.41 L241.67,707.42 L241.64,707.44 L241.62,707.46 L241.59,707.48 L241.57,707.51 L241.55,707.53 L241.52,707.56 L241.5,707.59 L241.48,707.62 L241.46,707.66 L241.43,707.7 L241.41,707.74 L241.38,707.78 L241.36,707.83 L241.33,707.88 L241.3,707.93 L241.28,707.99 L241.25,708.05 L241.23,708.08 L241.22,708.11 L241.2,708.14 L241.18,708.18 L238.71,713.82 H238.51 L236.44,708.94 C235.8,707.49,235.68,707.33,235.2,707.31 V707.12 H237.17 V707.31 C236.7,707.31,236.5,707.44,236.5,707.72 C236.5,707.84,236.53,707.98,236.58,708.11 L237.04,709.27 H239.64 L239.5,709.68 H237.2 L238.35,712.41 L239.5,709.68 L239.64,709.27 L240.05,708.32 C240.17,708.05,240.24,707.79,240.24,707.65 C240.24,707.4,240.07,707.32,239.54,707.31 V707.12 H242.08 Z " /><path
         id="path9317"
         fill="black"
         stroke-width="0"
         d="M242.41,711.08 L242.41,711.08 L242.42,711.08 L242.42,711.09 L242.43,711.09 L242.44,711.09 L242.44,711.09 L242.45,711.1 L242.46,711.1 L242.47,711.1 L242.47,711.1 L242.49,711.1 L242.51,711.11 L242.52,711.11 L242.54,711.11 L242.56,711.11 L242.58,711.11 L242.6,711.12 L242.62,711.12 L242.64,711.12 L242.66,711.12 L242.68,711.12 C242.95,711.12,243.04,710.97,243.04,710.48 V708.02 C243.04,707.45,242.93,707.31,242.43,707.27 V707.12 H244.54 V707.27 C244.03,707.31,243.88,707.43,243.88,707.79 V710.58 C244.36,711.03,244.58,711.15,244.9,711.15 C245.39,711.15,245.63,710.84,245.63,710.18 V708.11 C245.63,707.48,245.5,707.31,245,707.27 V707.12 H247.07 V707.27 C246.59,707.32,246.47,707.44,246.47,707.93 V710.2 C246.47,711.14,246.03,711.7,245.29,711.7 C244.84,711.7,244.53,711.53,243.85,710.89 V711.67 L243.78,711.7 C243.29,711.52,242.95,711.41,242.41,711.25 Z " /><path
         id="path9319"
         fill="black"
         stroke-width="0"
         d="M250.36,710.24 L250.32,711.59 H250.21 L250.19,711.58 C250.1,711.51,250.1,711.5,250.05,711.5 C249.99,711.5,249.9,711.52,249.79,711.57 C249.57,711.65,249.35,711.68,249.09,711.68 C248.3,711.68,247.74,711.18,247.74,710.46 C247.74,709.91,248.05,709.51,248.9,709.03 L249.48,708.7 C249.83,708.51,249.99,708.27,249.99,707.96 C249.99,707.52,249.68,707.24,249.17,707.24 C248.83,707.24,248.52,707.37,248.33,707.59 C248.12,707.84,248.04,708.07,247.91,708.64 H247.75 V707.09 H247.88 C247.95,707.18,247.99,707.2,248.1,707.2 C248.19,707.2,248.33,707.18,248.56,707.12 C248.84,707.07,249.11,707.03,249.29,707.03 C250.05,707.03,250.69,707.6,250.69,708.3 C250.69,708.79,250.45,709.12,249.86,709.48 L248.78,710.11 C248.5,710.27,248.35,710.52,248.35,710.79 C248.35,711.19,248.66,711.47,249.12,711.47 C249.69,711.47,249.99,711.13,250.21,710.24 Z " /><path
         id="path9321"
         fill="black"
         stroke-width="0"
         d="M256.79,711.59 V711.45 C257.12,711.38,257.22,711.31,257.22,711.14 C257.22,710.99,257.16,710.75,257.05,710.48 L256.16,708.28 L255.32,710.5 C255.15,710.96,255.15,710.96,255.15,711.09 C255.15,711.31,255.26,711.38,255.73,711.45 V711.59 H253.71 V711.45 C254.08,711.41,254.2,711.3,254.4,710.76 C254.47,710.57,254.54,710.38,254.6,710.2 L253.69,708.23 L252.71,710.82 C252.67,710.92,252.65,711.02,252.65,711.12 C252.65,711.33,252.77,711.41,253.1,711.45 V711.59 H251.31 V711.45 C251.54,711.43,251.62,711.33,251.84,710.82 L253.18,707.42 C253.3,707.12,253.38,706.99,253.44,706.99 C253.49,706.99,253.57,707.11,253.69,707.37 L254.81,709.76 L255.71,707.41 C255.85,707.05,255.89,706.99,255.95,706.99 C256.02,706.99,256.07,707.08,256.23,707.47 L257.6,710.91 C257.78,711.33,257.81,711.38,258.01,711.45 V711.59 Z " /><path
         id="path9323"
         fill="black"
         stroke-width="0"
         d="M262.36,708.75 L262.31,708.68 L262.27,708.62 L262.22,708.55 L262.18,708.49 L262.14,708.43 L262.09,708.38 L262.05,708.32 L262,708.27 L261.96,708.22 L261.92,708.18 L261.87,708.13 L261.83,708.09 L261.78,708.05 L261.74,708.02 L261.69,707.98 L261.65,707.95 L261.6,707.92 L261.55,707.89 L261.5,707.87 L261.46,707.84 L261.41,707.82 L261.36,707.8 L261.31,707.78 L261.26,707.77 L261.21,707.75 L261.15,707.74 L261.1,707.73 L261.04,707.72 L260.99,707.72 L260.93,707.71 L260.87,707.71 L260.82,707.71 C260.25,707.71,259.82,708,259.53,708.57 C259.35,708.94,259.28,709.27,259.26,709.88 L259.28,710.2 C259.39,710.97,259.73,711.34,260.34,711.34 C260.94,711.34,261.18,711.06,261.31,710.2 H259.28 L259.26,709.88 H262.33 C262.25,710.52,262.15,710.81,261.9,711.13 C261.6,711.49,261.14,711.7,260.63,711.7 C260.13,711.7,259.66,711.52,259.28,711.18 C258.82,710.77,258.55,710.07,258.55,709.25 C258.55,707.88,259.26,707.03,260.41,707.03 C261.35,707.03,262.1,707.61,262.52,708.68 Z " /><path
         id="path9325"
         fill="black"
         stroke-width="0"
         d="M262.79,711 L262.8,711 L262.82,711 L262.83,711.01 L262.84,711.01 L262.86,711.01 L262.89,711.02 L262.91,711.02 L262.93,711.02 L262.95,711.03 L262.97,711.03 L262.99,711.03 L263.01,711.03 L263.03,711.04 L263.05,711.04 L263.07,711.04 L263.1,711.04 L263.12,711.04 L263.14,711.04 C263.39,711.04,263.48,710.88,263.48,710.44 V707.96 C263.48,707.46,263.41,707.39,262.77,707.27 V707.12 H265.16 V707.27 C264.48,707.3,264.31,707.45,264.31,708.02 V710.25 C264.31,710.57,264.74,711.07,265.01,711.07 C265.07,711.07,265.16,711.02,265.27,710.92 C265.43,710.78,265.54,710.72,265.67,710.72 C265.9,710.72,266.05,710.89,266.05,711.17 C266.05,711.5,265.85,711.7,265.51,711.7 C265.09,711.7,264.8,711.47,264.31,710.76 V711.67 L264.26,711.7 C263.74,711.48,263.38,711.35,262.79,711.16 Z " /><polygon
         id="polygon9327"
         fill="black"
         stroke-width="0"
         points="276.73,710.4 276.73,710.96 271.64,710.96 271.64,710.4 " /><polygon
         id="polygon9329"
         fill="black"
         stroke-width="0"
         points="276.73,708.39 276.73,708.94 271.64,708.94 271.64,708.39 " /><path
         id="path9331"
         fill="black"
         stroke-width="0"
         d="M283.06,713.84 L282.99,713.8 L282.93,713.75 L282.86,713.71 L282.8,713.67 L282.74,713.63 L282.69,713.59 L282.63,713.55 L282.58,713.52 L282.53,713.48 L282.48,713.44 L282.43,713.41 L282.39,713.37 L282.34,713.34 L282.3,713.3 L282.22,713.24 L282.14,713.17 L282.07,713.1 L282,713.03 L281.93,712.96 L281.86,712.89 L281.79,712.81 L281.72,712.73 L281.66,712.65 C280.95,711.78,280.6,710.79,280.6,709.63 C280.6,708.37,280.97,707.39,281.85,706.38 C282.25,705.9,282.51,705.68,283.03,705.37 L283.15,705.53 C282.35,706.15,282.07,706.5,281.8,707.24 C281.57,707.91,281.46,708.66,281.46,709.66 C281.46,710.7,281.59,711.52,281.86,712.13 C282.13,712.75,282.43,713.1,283.15,713.68 Z " /><path
         id="path9333"
         fill="black"
         stroke-width="0"
         d="M285.97,713.84 L285.92,713.84 L285.87,713.84 L285.82,713.84 L285.77,713.83 L285.72,713.83 L285.67,713.82 L285.63,713.82 L285.58,713.81 L285.54,713.8 L285.49,713.79 L285.45,713.78 L285.4,713.77 L285.36,713.76 L285.32,713.74 L285.28,713.73 L285.23,713.71 L285.19,713.7 L285.15,713.68 L285.11,713.66 L285.07,713.64 L285.04,713.62 L285,713.6 L284.96,713.57 L284.92,713.55 L284.88,713.53 L284.85,713.5 L284.81,713.47 L284.78,713.45 L284.74,713.42 L284.7,713.39 L284.67,713.36 L284.64,713.32 C284.06,712.77,283.68,711.62,283.68,710.46 C283.68,709.38,284.01,708.22,284.48,707.66 C284.84,707.22,285.35,706.99,285.93,706.99 V707.24 C285.07,707.24,284.64,708.31,284.64,710.37 C284.64,712.48,285.08,713.58,285.94,713.58 H285.94 C286.77,713.58,287.22,712.46,287.22,710.38 C287.22,708.31,286.78,707.24,285.93,707.24 V706.99 C286.44,706.99,286.86,707.16,287.22,707.5 C287.8,708.05,288.18,709.2,288.18,710.4 C288.18,712.44,287.27,713.84,285.97,713.84 Z " /><path
         id="path9335"
         fill="black"
         stroke-width="0"
         d="M290.95,713.84 L290.9,713.84 L290.85,713.84 L290.8,713.84 L290.75,713.83 L290.7,713.83 L290.66,713.82 L290.61,713.82 L290.56,713.81 L290.52,713.8 L290.47,713.79 L290.43,713.78 L290.38,713.77 L290.34,713.76 L290.3,713.74 L290.26,713.73 L290.22,713.71 L290.18,713.7 L290.14,713.68 L290.1,713.66 L290.06,713.64 L290.02,713.62 L289.98,713.6 L289.94,713.57 L289.9,713.55 L289.87,713.53 L289.83,713.5 L289.79,713.47 L289.76,713.45 L289.72,713.42 L289.69,713.39 L289.65,713.36 L289.62,713.32 C289.04,712.77,288.66,711.62,288.66,710.46 C288.66,709.38,288.99,708.22,289.46,707.66 C289.83,707.22,290.33,706.99,290.91,706.99 V707.24 C290.05,707.24,289.62,708.31,289.62,710.37 C289.62,712.48,290.06,713.58,290.92,713.58 H290.92 C291.76,713.58,292.2,712.46,292.2,710.38 C292.2,708.31,291.77,707.24,290.91,707.24 V706.99 C291.42,706.99,291.85,707.16,292.2,707.5 C292.78,708.05,293.16,709.2,293.16,710.4 C293.16,712.44,292.25,713.84,290.95,713.84 Z " /><path
         id="path9337"
         fill="black"
         stroke-width="0"
         d="M295.93,713.84 L295.88,713.84 L295.83,713.84 L295.78,713.84 L295.73,713.83 L295.68,713.83 L295.64,713.82 L295.59,713.82 L295.54,713.81 L295.5,713.8 L295.45,713.79 L295.41,713.78 L295.37,713.77 L295.32,713.76 L295.28,713.74 L295.24,713.73 L295.2,713.71 L295.16,713.7 L295.12,713.68 L295.08,713.66 L295.04,713.64 L295,713.62 L294.96,713.6 L294.92,713.57 L294.88,713.55 L294.85,713.53 L294.81,713.5 L294.77,713.47 L294.74,713.45 L294.7,713.42 L294.67,713.39 L294.63,713.36 L294.6,713.32 C294.02,712.77,293.64,711.62,293.64,710.46 C293.64,709.38,293.97,708.22,294.44,707.66 C294.81,707.22,295.31,706.99,295.89,706.99 V707.24 C295.04,707.24,294.6,708.31,294.6,710.37 C294.6,712.48,295.05,713.58,295.9,713.58 H295.9 C296.74,713.58,297.18,712.46,297.18,710.38 C297.18,708.31,296.75,707.24,295.89,707.24 V706.99 C296.4,706.99,296.83,707.16,297.18,707.5 C297.76,708.05,298.14,709.2,298.14,710.4 C298.14,712.44,297.23,713.84,295.93,713.84 Z " /><path
         id="path9339"
         fill="black"
         stroke-width="0"
         d="M300.91,713.84 L300.86,713.84 L300.81,713.84 L300.76,713.84 L300.71,713.83 L300.67,713.83 L300.62,713.82 L300.57,713.82 L300.53,713.81 L300.48,713.8 L300.43,713.79 L300.39,713.78 L300.35,713.77 L300.3,713.76 L300.26,713.74 L300.22,713.73 L300.18,713.71 L300.14,713.7 L300.1,713.68 L300.06,713.66 L300.02,713.64 L299.98,713.62 L299.94,713.6 L299.9,713.57 L299.87,713.55 L299.83,713.53 L299.79,713.5 L299.76,713.47 L299.72,713.45 L299.68,713.42 L299.65,713.39 L299.61,713.36 L299.58,713.32 C299,712.77,298.62,711.62,298.62,710.46 C298.62,709.38,298.95,708.22,299.42,707.66 C299.79,707.22,300.3,706.99,300.87,706.99 V707.24 C300.02,707.24,299.58,708.31,299.58,710.37 C299.58,712.48,300.03,713.58,300.88,713.58 H300.88 C301.72,713.58,302.17,712.46,302.17,710.38 C302.17,708.31,301.73,707.24,300.87,707.24 V706.99 C301.38,706.99,301.81,707.16,302.17,707.5 C302.74,708.05,303.12,709.2,303.12,710.4 C303.12,712.44,302.22,713.84,300.91,713.84 Z " /><path
         id="path9341"
         fill="black"
         stroke-width="0"
         d="M305.89,713.84 L305.84,713.84 L305.79,713.84 L305.74,713.84 L305.69,713.83 L305.65,713.83 L305.6,713.82 L305.55,713.82 L305.51,713.81 L305.46,713.8 L305.42,713.79 L305.37,713.78 L305.33,713.77 L305.29,713.76 L305.24,713.74 L305.2,713.73 L305.16,713.71 L305.12,713.7 L305.08,713.68 L305.04,713.66 L305,713.64 L304.96,713.62 L304.92,713.6 L304.89,713.57 L304.85,713.55 L304.81,713.53 L304.77,713.5 L304.74,713.47 L304.7,713.45 L304.67,713.42 L304.63,713.39 L304.6,713.36 L304.56,713.32 C303.98,712.77,303.61,711.62,303.61,710.46 C303.61,709.38,303.93,708.22,304.4,707.66 C304.77,707.22,305.28,706.99,305.85,706.99 V707.24 C305,707.24,304.56,708.31,304.56,710.37 C304.56,712.48,305.01,713.58,305.86,713.58 H305.86 C306.7,713.58,307.15,712.46,307.15,710.38 C307.15,708.31,306.71,707.24,305.85,707.24 V706.99 C306.36,706.99,306.79,707.16,307.15,707.5 C307.72,708.05,308.1,709.2,308.1,710.4 C308.1,712.44,307.2,713.84,305.89,713.84 Z " /><path
         id="path9343"
         fill="black"
         stroke-width="0"
         d="M311.24,713.84 L309.45,712.94 V712.8 C309.57,712.85,309.68,712.89,309.72,712.91 C309.9,712.98,310.07,713.02,310.17,713.02 C310.38,713.02,310.47,712.87,310.47,712.55 V708.05 C310.47,707.72,310.39,707.49,310.23,707.4 C310.08,707.31,309.94,707.28,309.52,707.27 V707.12 H312.27 V707.27 C311.48,707.28,311.32,707.38,311.32,707.86 V713.82 Z " /><path
         id="path9345"
         fill="black"
         stroke-width="0"
         d="M316.23,713.84 L314.43,712.94 V712.8 C314.55,712.85,314.66,712.89,314.7,712.91 C314.88,712.98,315.05,713.02,315.15,713.02 C315.36,713.02,315.45,712.87,315.45,712.55 V708.05 C315.45,707.72,315.37,707.49,315.21,707.4 C315.06,707.31,314.92,707.28,314.5,707.27 V707.12 H317.25 V707.27 C316.46,707.28,316.3,707.38,316.3,707.86 V713.82 Z " /><path
         id="path9347"
         fill="black"
         stroke-width="0"
         d="M321.21,713.84 L319.42,712.94 V712.8 C319.53,712.85,319.64,712.89,319.68,712.91 C319.86,712.98,320.03,713.02,320.13,713.02 C320.34,713.02,320.43,712.87,320.43,712.55 V708.05 C320.43,707.72,320.35,707.49,320.19,707.4 C320.04,707.31,319.9,707.28,319.48,707.27 V707.12 H322.23 V707.27 C321.45,707.28,321.29,707.38,321.29,707.86 V713.82 Z " /><path
         id="path9349"
         fill="black"
         stroke-width="0"
         d="M326.19,713.84 L324.4,712.94 V712.8 C324.52,712.85,324.62,712.89,324.67,712.91 C324.84,712.98,325.01,713.02,325.11,713.02 C325.32,713.02,325.41,712.87,325.41,712.55 V708.05 C325.41,707.72,325.33,707.49,325.17,707.4 C325.02,707.31,324.88,707.28,324.47,707.27 V707.12 H327.21 V707.27 C326.43,707.28,326.27,707.38,326.27,707.86 V713.82 Z " /><path
         id="path9351"
         fill="black"
         stroke-width="0"
         d="M330.8,713.84 L330.75,713.84 L330.7,713.84 L330.65,713.84 L330.6,713.83 L330.55,713.83 L330.51,713.82 L330.46,713.82 L330.41,713.81 L330.37,713.8 L330.32,713.79 L330.28,713.78 L330.23,713.77 L330.19,713.76 L330.15,713.74 L330.11,713.73 L330.07,713.71 L330.03,713.7 L329.99,713.68 L329.95,713.66 L329.91,713.64 L329.87,713.62 L329.83,713.6 L329.79,713.57 L329.75,713.55 L329.72,713.53 L329.68,713.5 L329.64,713.47 L329.61,713.45 L329.57,713.42 L329.54,713.39 L329.5,713.36 L329.47,713.32 C328.89,712.77,328.51,711.62,328.51,710.46 C328.51,709.38,328.84,708.22,329.31,707.66 C329.68,707.22,330.18,706.99,330.76,706.99 V707.24 C329.9,707.24,329.47,708.31,329.47,710.37 C329.47,712.48,329.92,713.58,330.77,713.58 H330.77 C331.61,713.58,332.05,712.46,332.05,710.38 C332.05,708.31,331.62,707.24,330.76,707.24 V706.99 C331.27,706.99,331.7,707.16,332.05,707.5 C332.63,708.05,333.01,709.2,333.01,710.4 C333.01,712.44,332.1,713.84,330.8,713.84 Z " /><path
         id="path9353"
         fill="black"
         stroke-width="0"
         d="M335.78,713.84 L335.73,713.84 L335.68,713.84 L335.63,713.84 L335.58,713.83 L335.53,713.83 L335.49,713.82 L335.44,713.82 L335.39,713.81 L335.35,713.8 L335.3,713.79 L335.26,713.78 L335.22,713.77 L335.17,713.76 L335.13,713.74 L335.09,713.73 L335.05,713.71 L335.01,713.7 L334.97,713.68 L334.93,713.66 L334.89,713.64 L334.85,713.62 L334.81,713.6 L334.77,713.57 L334.73,713.55 L334.7,713.53 L334.66,713.5 L334.62,713.47 L334.59,713.45 L334.55,713.42 L334.52,713.39 L334.48,713.36 L334.45,713.32 C333.87,712.77,333.49,711.62,333.49,710.46 C333.49,709.38,333.82,708.22,334.29,707.66 C334.66,707.22,335.17,706.99,335.74,706.99 V707.24 C334.89,707.24,334.45,708.31,334.45,710.37 C334.45,712.48,334.9,713.58,335.75,713.58 H335.75 C336.59,713.58,337.04,712.46,337.04,710.38 C337.04,708.31,336.6,707.24,335.74,707.24 V706.99 C336.25,706.99,336.68,707.16,337.04,707.5 C337.61,708.05,337.99,709.2,337.99,710.4 C337.99,712.44,337.08,713.84,335.78,713.84 Z " /><path
         id="path9355"
         fill="black"
         stroke-width="0"
         d="M338.61,705.37 L338.68,705.41 L338.75,705.45 L338.81,705.5 L338.87,705.54 L338.93,705.58 L338.99,705.61 L339.04,705.65 L339.09,705.69 L339.14,705.73 L339.19,705.76 L339.24,705.8 L339.28,705.83 L339.33,705.87 L339.37,705.9 L339.45,705.97 L339.53,706.04 L339.61,706.11 L339.68,706.18 L339.75,706.25 L339.81,706.32 L339.88,706.4 L339.95,706.48 L340.02,706.56 C340.72,707.42,341.07,708.42,341.07,709.58 C341.07,710.85,340.7,711.81,339.83,712.83 C339.42,713.3,339.16,713.52,338.64,713.84 L338.52,713.68 C339.32,713.05,339.59,712.71,339.87,711.96 C340.11,711.3,340.22,710.54,340.22,709.55 C340.22,708.52,340.09,707.69,339.82,707.09 C339.54,706.46,339.24,706.1,338.52,705.53 Z " /><path
         id="path9357"
         fill="black"
         stroke-width="0"
         d="M344.86,706.58 L344.77,706.62 C344.51,706.22,344.42,706.16,344.11,706.16 H342.45 L343.61,707.38 C344.23,708.03,344.51,708.56,344.51,709.1 C344.51,709.8,343.94,710.33,343.22,710.33 C342.83,710.33,342.47,710.18,342.22,709.9 C341.99,709.66,341.89,709.44,341.77,708.95 L341.92,708.91 C342.2,709.59,342.45,709.82,342.93,709.82 C343.51,709.82,343.91,709.42,343.91,708.84 C343.91,708.29,343.59,707.65,343,707.03 L341.76,705.71 V705.63 H344.48 Z " /><polygon
         id="polygon9359"
         fill="black"
         stroke-width="0"
         points="354.02,710.4 354.02,710.96 348.92,710.96 348.92,710.4 " /><polygon
         id="polygon9361"
         fill="black"
         stroke-width="0"
         points="354.02,708.39 354.02,708.94 348.92,708.94 348.92,708.39 " /><path
         id="path9363"
         fill="black"
         stroke-width="0"
         d="M361.85,713.92 L361.74,713.91 L361.64,713.9 L361.54,713.89 L361.45,713.88 L361.35,713.87 L361.26,713.85 L361.17,713.84 L361.09,713.82 L361.01,713.81 L360.92,713.79 L360.85,713.78 L360.77,713.76 L360.69,713.74 L360.62,713.72 L360.47,713.68 L360.34,713.63 L360.2,713.57 L360.07,713.51 L359.94,713.45 L359.81,713.38 L359.68,713.3 L359.54,713.22 L359.48,713.17 L359.41,713.12 C358.33,712.36,357.75,711.23,357.75,709.9 C357.75,709.03,358.02,708.16,358.44,707.66 C358.82,707.22,359.36,706.99,359.98,706.99 C361.21,706.99,362.07,707.93,362.07,709.3 C362.07,710.57,361.34,711.38,360.2,711.38 C359.76,711.38,359.55,711.31,358.92,710.93 L358.95,710.67 C359.16,710.83,359.47,710.92,359.82,710.92 H359.82 C360.67,710.92,361.17,710.2,361.17,708.96 C361.17,707.87,360.78,707.26,360.08,707.26 C359.21,707.26,358.67,708.2,358.67,709.74 C358.67,710.24,358.75,710.52,358.95,710.67 L358.92,710.93 C359.19,712.43,360.3,713.5,361.87,713.76 Z " /><path
         id="path9365"
         fill="black"
         stroke-width="0"
         d="M364.92,713.84 L364.87,713.84 L364.82,713.84 L364.77,713.84 L364.72,713.83 L364.67,713.83 L364.62,713.82 L364.58,713.82 L364.53,713.81 L364.48,713.8 L364.44,713.79 L364.4,713.78 L364.35,713.77 L364.31,713.76 L364.27,713.74 L364.22,713.73 L364.18,713.71 L364.14,713.7 L364.1,713.68 L364.06,713.66 L364.02,713.64 L363.98,713.62 L363.95,713.6 L363.91,713.57 L363.87,713.55 L363.83,713.53 L363.8,713.5 L363.76,713.47 L363.72,713.45 L363.69,713.42 L363.65,713.39 L363.62,713.36 L363.58,713.32 C363.01,712.77,362.63,711.62,362.63,710.46 C362.63,709.38,362.96,708.22,363.42,707.66 C363.79,707.22,364.3,706.99,364.88,706.99 V707.24 C364.02,707.24,363.58,708.31,363.58,710.37 C363.58,712.48,364.03,713.58,364.89,713.58 H364.89 C365.72,713.58,366.17,712.46,366.17,710.38 C366.17,708.31,365.73,707.24,364.88,707.24 V706.99 C365.39,706.99,365.81,707.16,366.17,707.5 C366.75,708.05,367.13,709.2,367.13,710.4 C367.13,712.44,366.22,713.84,364.92,713.84 Z " /></g>  </g>
</svg>
