<?xml version="1.0" encoding="UTF-8" standalone="no"?>
<!-- Created with Inkscape (http://www.inkscape.org/) -->

<svg
   xmlns:ns0="http://www.iki.fi/pav/software/textext/"
   xmlns:dc="http://purl.org/dc/elements/1.1/"
   xmlns:cc="http://creativecommons.org/ns#"
   xmlns:rdf="http://www.w3.org/1999/02/22-rdf-syntax-ns#"
   xmlns:svg="http://www.w3.org/2000/svg"
   xmlns="http://www.w3.org/2000/svg"
   xmlns:sodipodi="http://sodipodi.sourceforge.net/DTD/sodipodi-0.dtd"
   xmlns:inkscape="http://www.inkscape.org/namespaces/inkscape"
   width="496.06299"
   height="354.33069"
   id="svg2"
   version="1.1"
   inkscape:version="0.48.4 r9939"
   sodipodi:docname="div31.eps">
  <sodipodi:namedview
     id="base"
     pagecolor="#ffffff"
     bordercolor="#666666"
     borderopacity="1.0"
     inkscape:pageopacity="0.0"
     inkscape:pageshadow="2"
     inkscape:zoom="1.6848668"
     inkscape:cx="248.03149"
     inkscape:cy="177.16534"
     inkscape:document-units="cm"
     inkscape:current-layer="layer1"
     showgrid="false"
     units="cm"
     inkscape:object-nodes="true"
     inkscape:window-width="1366"
     inkscape:window-height="744"
     inkscape:window-x="0"
     inkscape:window-y="24"
     inkscape:window-maximized="1">
    <inkscape:grid
       snapvisiblegridlinesonly="true"
       enabled="true"
       visible="true"
       empspacing="5"
       id="grid2985"
       type="xygrid" />
  </sodipodi:namedview>
  <defs
     id="defs4">
    <marker
       style="overflow:visible"
       id="Arrow1Mstart"
       refX="0"
       refY="0"
       orient="auto"
       inkscape:stockid="Arrow1Mstart">
      <path
         transform="matrix(0.4,0,0,0.4,4,0)"
         style="fill-rule:evenodd;stroke:#000000;stroke-width:1pt"
         d="M 0,0 5,-5 -12.5,0 5,5 0,0 z"
         id="path3775"
         inkscape:connector-curvature="0" />
    </marker>
    <marker
       style="overflow:visible"
       id="Arrow1Mend"
       refX="0"
       refY="0"
       orient="auto"
       inkscape:stockid="Arrow1Mend">
      <path
         transform="matrix(-0.4,0,0,-0.4,-4,0)"
         style="fill-rule:evenodd;stroke:#000000;stroke-width:1pt"
         d="M 0,0 5,-5 -12.5,0 5,5 0,0 z"
         id="path3778"
         inkscape:connector-curvature="0" />
    </marker>
    <marker
       inkscape:stockid="Arrow1Mstart"
       orient="auto"
       refY="0"
       refX="0"
       id="Arrow1Mstart-7"
       style="overflow:visible">
      <path
         inkscape:connector-curvature="0"
         id="path3775-8"
         d="M 0,0 5,-5 -12.5,0 5,5 0,0 z"
         style="fill-rule:evenodd;stroke:#000000;stroke-width:1pt"
         transform="matrix(0.4,0,0,0.4,4,0)" />
    </marker>
  </defs>
  <metadata
     id="metadata7">
    <rdf:RDF>
      <cc:Work
         rdf:about="">
        <dc:format>image/svg+xml</dc:format>
        <dc:type
           rdf:resource="http://purl.org/dc/dcmitype/StillImage" />
        <dc:title></dc:title>
      </cc:Work>
    </rdf:RDF>
  </metadata>
  <g
     transform="translate(0,-698.03016)"
     id="layer1"
     inkscape:groupmode="layer"
     inkscape:label="Layer 1">
    <text
       xml:space="preserve"
       style="font-size:12px;font-style:normal;font-variant:normal;font-weight:normal;font-stretch:normal;text-align:start;line-height:100%;letter-spacing:0px;word-spacing:0px;text-anchor:start;fill:#000000;fill-opacity:1;stroke:none;font-family:LMRoman12;-inkscape-font-specification:Sans"
       x="61.700558"
       y="754.07056"
       id="text5818"
       sodipodi:linespacing="100%"><tspan
         sodipodi:role="line"
         id="tspan5820"
         x="61.700558"
         y="754.07056" /></text>
    <flowRoot
       style="font-size:12px;font-style:normal;font-variant:normal;font-weight:normal;font-stretch:normal;text-align:start;line-height:100%;letter-spacing:0px;word-spacing:0px;text-anchor:start;fill:#000000;fill-opacity:1;stroke:none;font-family:LMRoman12;-inkscape-font-specification:Sans"
       id="flowRoot6377"
       xml:space="preserve"><flowRegion
         id="flowRegion6379"><rect
           y="87.141403"
           x="219.34796"
           height="40.319103"
           width="27.681772"
           id="rect6381" /></flowRegion><flowPara
         id="flowPara6383" /></flowRoot>    <text
       sodipodi:linespacing="50%"
       id="text6385"
       y="753.27734"
       x="275.91507"
       style="font-size:12px;font-style:normal;font-variant:normal;font-weight:normal;font-stretch:normal;text-align:start;line-height:50%;letter-spacing:0px;word-spacing:0px;text-anchor:start;fill:#000000;fill-opacity:1;stroke:none;font-family:LMRoman12;-inkscape-font-specification:Sans"
       xml:space="preserve"><tspan
         y="753.27734"
         x="275.91507"
         id="tspan6387"
         sodipodi:role="line" /></text>
    <text
       sodipodi:linespacing="100%"
       id="text3884"
       y="892.41718"
       x="348.65417"
       style="font-size:12px;font-style:normal;font-variant:normal;font-weight:normal;font-stretch:normal;text-align:start;line-height:100%;letter-spacing:0px;word-spacing:0px;text-anchor:start;fill:#000000;fill-opacity:1;stroke:none;font-family:LMRoman12;-inkscape-font-specification:Sans"
       xml:space="preserve"><tspan
         id="tspan3890"
         y="892.41718"
         x="348.65417"
         sodipodi:role="line" /></text>
    <text
       sodipodi:linespacing="150%"
       id="text3887"
       y="948.92749"
       x="216.96629"
       style="font-size:12px;font-style:normal;font-variant:normal;font-weight:normal;font-stretch:normal;text-align:start;line-height:150%;letter-spacing:0px;word-spacing:0px;text-anchor:start;fill:#000000;fill-opacity:1;stroke:none;font-family:LMRoman12;-inkscape-font-specification:Sans"
       xml:space="preserve"><tspan
         y="948.92749"
         x="216.96629"
         id="tspan3889"
         sodipodi:role="line" /></text>
    <text
       sodipodi:linespacing="150%"
       id="text7389"
       y="759.11084"
       x="173"
       style="font-size:12px;font-style:normal;font-variant:normal;font-weight:normal;font-stretch:normal;text-align:start;line-height:150%;letter-spacing:0px;word-spacing:0px;text-anchor:start;fill:#000000;fill-opacity:1;stroke:none;font-family:LMRoman12;-inkscape-font-specification:Sans"
       xml:space="preserve"><tspan
         y="759.11084"
         x="173"
         id="tspan7391"
         sodipodi:role="line" /></text>
    <text
       sodipodi:linespacing="150%"
       id="text11589"
       y="799.55078"
       x="266.36218"
       style="font-size:12px;font-style:normal;font-variant:normal;font-weight:normal;font-stretch:normal;text-align:start;line-height:150%;letter-spacing:0px;word-spacing:0px;text-anchor:start;fill:#000000;fill-opacity:1;stroke:none;font-family:LMRoman12;-inkscape-font-specification:Sans"
       xml:space="preserve"><tspan
         dx="0 0 0 -2.5180867"
         y="799.55078"
         x="266.36218"
         id="tspan11591"
         sodipodi:role="line">   1 1 1 0 1 0 1 1 0</tspan><tspan
         id="tspan12760"
         y="817.55078"
         x="266.36218"
         sodipodi:role="line">1 0 0 0 1 0 1 0 0 1</tspan></text>
    <text
       xml:space="preserve"
       style="font-size:12px;font-style:normal;font-variant:normal;font-weight:normal;font-stretch:normal;text-align:start;line-height:150%;letter-spacing:0px;word-spacing:0px;text-anchor:start;fill:#000000;fill-opacity:1;stroke:none;font-family:LMRoman12;-inkscape-font-specification:Sans"
       x="253.1362"
       y="848.61829"
       id="text12764"
       sodipodi:linespacing="150%"><tspan
         sodipodi:role="line"
         x="253.1362"
         y="848.61829"
         id="tspan12770"><tspan
           dx="0 0 0 1.4837968"
           id="tspan19563">   0 1 1 1 1 1 1 0 0 1</tspan></tspan><tspan
         sodipodi:role="line"
         x="253.1362"
         y="866.61829"
         id="tspan19565">+ 1 0 0 0 1 0 1 0 0 1</tspan></text>
    <text
       transform="translate(0,698.03016)"
       sodipodi:linespacing="150%"
       id="text12776"
       y="185.47461"
       x="347.50522"
       style="font-size:12px;font-style:normal;font-variant:normal;font-weight:normal;font-stretch:normal;text-align:start;line-height:150%;letter-spacing:0px;word-spacing:0px;text-anchor:start;fill:#000000;fill-opacity:1;stroke:none;font-family:LMRoman12;-inkscape-font-specification:Sans"
       xml:space="preserve"><tspan
         y="185.47461"
         x="347.50522"
         id="tspan12778"
         sodipodi:role="line" /></text>
    <path
       inkscape:connector-curvature="0"
       id="path12780"
       d="m 245.68045,872.82143 119.98557,0"
       style="fill:none;stroke:#000000;stroke-width:0.80000001;stroke-linecap:square;stroke-linejoin:round;stroke-miterlimit:4;stroke-opacity:1;stroke-dasharray:none;stroke-dashoffset:0" />
    <text
       xml:space="preserve"
       style="font-size:12px;font-style:normal;font-variant:normal;font-weight:normal;font-stretch:normal;text-align:start;line-height:150%;letter-spacing:0px;word-spacing:0px;text-anchor:start;fill:#000000;fill-opacity:1;stroke:none;font-family:LMRoman12;-inkscape-font-specification:Sans"
       x="255.9278"
       y="884.50726"
       id="text12782"
       sodipodi:linespacing="150%"><tspan
         sodipodi:role="line"
         x="255.9278"
         y="884.50726"
         id="tspan12786">1 0 0 0 0 1 0 0 0 1 0 </tspan><tspan
         sodipodi:role="line"
         x="255.9278"
         y="902.50726"
         id="tspan12788" /></text>
    <path
       inkscape:connector-curvature="0"
       id="path18311"
       d="m 258.41861,888.49523 0,11.54031 c 0,1.32531 1,2.32531 2.28281,2.32531 l 91.18996,0"
       style="fill:none;stroke:#000000;stroke-width:0.80000001;stroke-linecap:square;stroke-linejoin:round;stroke-miterlimit:4;stroke-opacity:1;stroke-dasharray:none;stroke-dashoffset:0;marker-end:url(#Arrow1Mend)"
       sodipodi:nodetypes="cccc" />
    <path
       sodipodi:type="arc"
       style="fill:none;stroke:#000000;stroke-width:0.80000001;stroke-linecap:square;stroke-linejoin:round;stroke-miterlimit:4;stroke-opacity:1;stroke-dasharray:none;stroke-dashoffset:0"
       id="path20211"
       sodipodi:cx="258.80392"
       sodipodi:cy="182.74728"
       sodipodi:rx="4.2243562"
       sodipodi:ry="6.8351517"
       d="m 263.02828,182.74728 c 0,3.77495 -1.89131,6.83516 -4.22436,6.83516 -2.33304,0 -4.22435,-3.06021 -4.22435,-6.83516 0,-3.77495 1.89131,-6.83515 4.22435,-6.83515 2.33305,0 4.22436,3.0602 4.22436,6.83515 z"
       transform="translate(0,698.03016)" />
    <text
       xml:space="preserve"
       style="font-size:12px;font-style:normal;font-variant:normal;font-weight:normal;font-stretch:normal;text-align:start;line-height:150%;letter-spacing:0px;word-spacing:0px;text-anchor:start;fill:#000000;fill-opacity:1;stroke:none;font-family:LMRoman12;-inkscape-font-specification:Sans"
       x="354.28516"
       y="905.81866"
       id="text20213"
       sodipodi:linespacing="150%"><tspan
         sodipodi:role="line"
         id="tspan20215"
         x="354.28516"
         y="905.81866">1</tspan></text>
    <path
       style="fill:none;stroke:#000000;stroke-width:0.80000001;stroke-linecap:square;stroke-linejoin:round;stroke-miterlimit:4;stroke-opacity:1;stroke-dasharray:none;stroke-dashoffset:0"
       d="m 245.68045,911.12622 119.98557,0"
       id="path20217"
       inkscape:connector-curvature="0" />
    <text
       sodipodi:linespacing="150%"
       id="text20219"
       y="922.81207"
       x="265.72467"
       style="font-size:12px;font-style:normal;font-variant:normal;font-weight:normal;font-stretch:normal;text-align:start;line-height:150%;letter-spacing:0px;word-spacing:0px;text-anchor:start;fill:#000000;fill-opacity:1;stroke:none;font-family:LMRoman12;-inkscape-font-specification:Sans"
       xml:space="preserve"><tspan
         id="tspan20223"
         y="922.81207"
         x="265.72467"
         sodipodi:role="line">0 0 0 0 1 0 0 0 1 1 </tspan></text>
    <text
       sodipodi:linespacing="150%"
       id="text20568"
       y="891.33856"
       x="200.55313"
       style="font-size:12px;font-style:normal;font-variant:normal;font-weight:normal;font-stretch:normal;text-align:start;line-height:150%;letter-spacing:0px;word-spacing:0px;text-anchor:start;fill:#000000;fill-opacity:1;stroke:none;font-family:LMRoman12;-inkscape-font-specification:Sans"
       xml:space="preserve"><tspan
         y="891.33856"
         x="200.55313"
         id="tspan20570"
         sodipodi:role="line">end carry</tspan></text>
    <g
       style="font-style:normal;font-variant:normal;font-weight:normal;font-stretch:normal;letter-spacing:normal;word-spacing:normal;text-anchor:start;fill:none;stroke:#000000;stroke-width:1;stroke-linecap:butt;stroke-linejoin:miter;stroke-miterlimit:10.43299961;stroke-opacity:1;stroke-dasharray:none;stroke-dashoffset:0"
       ns0:preamble="/home/sriranga/Desktop/Prism_BasicElectronics/preamble.tex"
       ns0:text="\\begin{align*}\n\\text{Binary equivalent of}~ 470 =\\\\\n\\therefore ~\\text{1\'st complement representation of} -470 =\n\\end{align*}"
       word-spacing="normal"
       letter-spacing="normal"
       font-size-adjust="none"
       font-stretch="normal"
       font-weight="normal"
       font-variant="normal"
       font-style="normal"
       stroke-miterlimit="10.433"
       xml:space="preserve"
       transform="matrix(1.2,0,0,-1.2,-349.7418,1647.0508)"
       id="g20705"><path
         id="path20707"
         d="m 378.8,713.7 v -0.19 c 0.84,-0.05 0.96,-0.16 0.96,-0.89 v -4.41 c 0,-0.74 -0.13,-0.87 -0.96,-0.9 v -0.19 h 3.32 c 0.78,0 1.49,0.21 1.85,0.55 0.36,0.32 0.56,0.77 0.56,1.24 0,0.44 -0.18,0.84 -0.49,1.13 -0.3,0.26 -0.56,0.38 -1.21,0.54 0.52,0.13 0.73,0.23 0.97,0.44 0.24,0.22 0.39,0.58 0.39,0.99 0,1.11 -0.88,1.69 -2.6,1.69 l -0.16,-0.37 c 1.14,0 1.75,-0.47 1.75,-1.36 0,-0.77 -0.53,-1.21 -1.47,-1.21 h -0.94 v -0.4 c 0.96,0 1.42,-0.05 1.78,-0.2 0.57,-0.23 0.84,-0.63 0.84,-1.26 0,-0.53 -0.21,-0.92 -0.61,-1.15 -0.32,-0.18 -0.73,-0.26 -1.38,-0.26 -0.49,0 -0.63,0.09 -0.63,0.41 v 2.46 0.4 2.28 c 0,0.2 0.07,0.29 0.22,0.29 h 0.44 l 0.16,0.37 z"
         inkscape:connector-curvature="0"
         style="fill:#000000;stroke-width:0" /><path
         id="path20709"
         d="m 387.02,711.7 -1.54,-0.55 V 711 l 0.07,0.01 c 0.12,0.02 0.25,0.03 0.34,0.03 0.24,0 0.33,-0.16 0.33,-0.6 v -2.3 c 0,-0.72 -0.1,-0.83 -0.79,-0.87 v -0.15 h 2.36 v 0.15 c -0.65,0.05 -0.73,0.15 -0.73,0.87 v 3.52 z"
         inkscape:connector-curvature="0"
         style="fill:#000000;stroke-width:0" /><path
         id="path20711"
         d="m 386.55,713.91 -0.03,0 -0.02,0 -0.02,-0.01 -0.03,0 -0.02,-0.01 -0.03,0 -0.02,-0.01 -0.02,-0.01 -0.02,-0.01 -0.02,-0.01 -0.03,-0.01 -0.02,-0.02 -0.02,-0.01 -0.01,-0.02 -0.02,-0.01 -0.02,-0.02 -0.02,-0.02 -0.01,-0.02 -0.02,-0.01 -0.01,-0.02 -0.01,-0.02 -0.02,-0.03 -0.01,-0.02 -0.01,-0.02 -0.01,-0.02 -0.01,-0.03 0,-0.02 -0.01,-0.03 0,-0.02 -0.01,-0.03 0,-0.02 0,-0.03 c 0,-0.28 0.22,-0.5 0.5,-0.5 0.29,0 0.52,0.21 0.52,0.5 0,0.28 -0.23,0.51 -0.52,0.51 z"
         inkscape:connector-curvature="0"
         style="fill:#000000;stroke-width:0" /><path
         id="path20713"
         d="m 388.2,711.08 0.01,0 0.01,0 0,0.01 0.01,0 0.01,0 0,0 0.01,0.01 0.01,0 0,0 0.01,0 0.02,0 0.01,0.01 0.02,0 0.02,0 0.02,0 0.01,0 0.02,0.01 0.02,0 0.02,0 0.02,0 0.02,0 c 0.28,0 0.37,-0.15 0.37,-0.64 v -2.46 c 0,-0.57 -0.11,-0.71 -0.61,-0.75 v -0.15 h 2.1 v 0.15 c -0.5,0.04 -0.65,0.16 -0.65,0.52 v 2.79 c 0.47,0.45 0.69,0.57 1.02,0.57 0.49,0 0.73,-0.31 0.73,-0.97 v -2.07 c 0,-0.63 -0.13,-0.8 -0.63,-0.84 v -0.15 h 2.07 v 0.15 c -0.49,0.05 -0.61,0.17 -0.61,0.66 v 2.27 c 0,0.94 -0.43,1.5 -1.17,1.5 -0.46,0 -0.77,-0.17 -1.44,-0.81 v 0.78 l -0.07,0.03 c -0.49,-0.18 -0.83,-0.29 -1.38,-0.45 z"
         inkscape:connector-curvature="0"
         style="fill:#000000;stroke-width:0" /><path
         id="path20715"
         d="m 397.42,707.78 -0.01,-0.01 -0.02,-0.01 -0.01,-0.02 -0.02,-0.01 -0.01,-0.01 -0.02,-0.01 -0.01,-0.01 -0.01,-0.01 -0.02,-0.01 -0.01,0 -0.02,-0.01 -0.01,-0.01 -0.01,-0.01 -0.02,0 -0.01,-0.01 -0.01,-0.01 -0.02,0 -0.01,-0.01 -0.01,0 -0.01,0 -0.02,-0.01 -0.01,0 -0.01,-0.01 -0.02,0 -0.02,0 -0.03,-0.01 -0.03,0 -0.02,0 c -0.23,0 -0.3,0.14 -0.3,0.58 v 1.93 c 0,0.52 -0.05,0.81 -0.2,1.05 -0.22,0.36 -0.65,0.55 -1.23,0.55 -0.94,0 -1.68,-0.49 -1.68,-1.12 0,-0.23 0.2,-0.42 0.43,-0.42 0.24,0 0.45,0.19 0.45,0.41 0,0.04 -0.01,0.09 -0.02,0.16 -0.02,0.09 -0.03,0.17 -0.03,0.24 0,0.27 0.32,0.49 0.72,0.49 0.48,0 0.75,-0.29 0.75,-0.83 v -0.6 -0.24 -1.44 c 0,-0.31 -0.05,-0.4 -0.26,-0.52 -0.23,-0.14 -0.51,-0.23 -0.72,-0.23 -0.35,0 -0.63,0.34 -0.63,0.77 v 0.04 c 0,0.58 0.41,0.94 1.61,1.38 v 0.24 c -1.53,-0.62 -1.7,-0.7 -2.13,-1.08 -0.22,-0.2 -0.36,-0.53 -0.36,-0.86 0,-0.63 0.44,-1.06 1.05,-1.06 0.44,0 0.85,0.2 1.45,0.72 0.05,-0.52 0.23,-0.72 0.64,-0.72 0.34,0 0.55,0.12 0.89,0.49 z"
         inkscape:connector-curvature="0"
         style="fill:#000000;stroke-width:0" /><path
         id="path20717"
         d="m 397.52,711 0.01,0 0.02,0 0.01,0.01 0.01,0 0.02,0 0.03,0.01 0.02,0 0.02,0 0.02,0.01 0.02,0 0.02,0 0.02,0 0.02,0.01 0.02,0 0.02,0 0.02,0 0.03,0 0.02,0 c 0.25,0 0.34,-0.16 0.34,-0.6 v -2.48 c 0,-0.5 -0.07,-0.57 -0.71,-0.69 v -0.15 h 2.39 v 0.15 c -0.68,0.03 -0.85,0.18 -0.85,0.75 v 2.23 c 0,0.32 0.43,0.82 0.7,0.82 0.06,0 0.15,-0.05 0.26,-0.15 0.16,-0.14 0.27,-0.2 0.39,-0.2 0.24,0 0.39,0.17 0.39,0.45 0,0.33 -0.21,0.53 -0.54,0.53 -0.42,0 -0.71,-0.23 -1.2,-0.94 v 0.91 l -0.05,0.03 c -0.53,-0.22 -0.88,-0.35 -1.47,-0.54 z"
         inkscape:connector-curvature="0"
         style="fill:#000000;stroke-width:0" /><path
         id="path20719"
         d="m 405.49,711.59 h -1.34 v -0.14 c 0.32,0 0.48,-0.09 0.48,-0.25 0,-0.04 -0.01,-0.1 -0.04,-0.17 l -0.97,-2.74 -1.14,2.51 c -0.06,0.14 -0.1,0.27 -0.1,0.38 0,0.18 0.15,0.25 0.58,0.27 v 0.14 h -2.05 v -0.13 c 0.26,-0.04 0.42,-0.15 0.5,-0.32 l 1.14,-2.45 0.03,-0.08 0.15,-0.29 c 0.28,-0.5 0.44,-0.86 0.44,-1.01 0,-0.15 -0.23,-0.77 -0.4,-1.07 -0.14,-0.26 -0.36,-0.45 -0.5,-0.45 -0.06,0 -0.15,0.02 -0.25,0.07 -0.19,0.07 -0.36,0.11 -0.53,0.11 -0.22,0 -0.42,-0.2 -0.42,-0.43 0,-0.33 0.32,-0.58 0.73,-0.58 0.67,0 1.15,0.56 1.68,1.99 l 1.54,4.05 c 0.12,0.32 0.24,0.42 0.47,0.45 z"
         inkscape:connector-curvature="0"
         style="fill:#000000;stroke-width:0" /><path
         id="path20721"
         d="m 412.3,708.75 -0.05,-0.07 -0.04,-0.06 -0.04,-0.07 -0.05,-0.06 -0.04,-0.06 -0.05,-0.05 -0.04,-0.06 -0.04,-0.05 -0.05,-0.05 -0.04,-0.04 -0.05,-0.05 -0.04,-0.04 -0.05,-0.04 -0.04,-0.03 -0.05,-0.04 -0.04,-0.03 -0.05,-0.03 -0.05,-0.03 -0.04,-0.02 -0.05,-0.03 -0.05,-0.02 -0.05,-0.02 -0.05,-0.02 -0.05,-0.01 -0.05,-0.02 -0.06,-0.01 -0.05,-0.01 -0.05,-0.01 -0.06,0 -0.06,-0.01 -0.05,0 -0.06,0 c -0.57,0 -1,0.29 -1.29,0.86 -0.18,0.37 -0.24,0.7 -0.27,1.31 l 0.03,0.32 c 0.1,0.77 0.44,1.14 1.05,1.14 0.61,0 0.84,-0.28 0.97,-1.14 h -2.02 l -0.03,-0.32 h 3.07 c -0.08,0.64 -0.18,0.93 -0.43,1.25 -0.3,0.36 -0.76,0.57 -1.27,0.57 -0.5,0 -0.97,-0.18 -1.34,-0.52 -0.47,-0.41 -0.74,-1.11 -0.74,-1.93 0,-1.37 0.71,-2.22 1.86,-2.22 0.94,0 1.69,0.58 2.11,1.65 z"
         inkscape:connector-curvature="0"
         style="fill:#000000;stroke-width:0" /><path
         id="path20723"
         d="m 416.24,711.35 -0.04,0.02 -0.04,0.03 -0.04,0.02 -0.04,0.02 -0.04,0.02 -0.04,0.02 -0.04,0.02 -0.03,0.02 -0.04,0.01 -0.04,0.02 -0.03,0.01 -0.04,0.02 -0.03,0.01 -0.04,0.01 -0.06,0.03 -0.07,0.02 -0.07,0.01 -0.06,0.02 -0.07,0.01 -0.07,0 -0.07,0.01 -0.07,0 -0.07,0.01 c -1.24,0 -2.2,-1.12 -2.2,-2.55 0,-1.25 0.66,-2.13 1.59,-2.13 0.58,0 1.13,0.25 1.57,0.73 l -0.14,0.18 c -0.22,-0.19 -0.55,-0.31 -0.86,-0.31 -0.31,0 -0.58,0.1 -0.77,0.3 -0.32,0.29 -0.53,0.93 -0.53,1.59 0,1.17 0.53,1.91 1.37,1.91 0.62,0 0.93,-0.33 0.93,-1 v -2.04 c 0,-0.24 -0.04,-0.37 -0.14,-0.45 l 0.14,-0.18 v -1.87 c 0,-0.55 -0.18,-0.7 -0.89,-0.75 v -0.17 h 2.35 v 0.14 c -0.55,0.12 -0.63,0.2 -0.63,0.61 v 5.94 h -0.11 z"
         inkscape:connector-curvature="0"
         style="fill:#000000;stroke-width:0" /><path
         id="path20725"
         d="m 422.41,707.62 h -0.05 c -0.46,0 -0.57,0.11 -0.57,0.57 v 3.4 h -1.57 v -0.16 c 0.62,-0.03 0.74,-0.13 0.74,-0.63 v -2.33 c 0,-0.28 -0.05,-0.42 -0.19,-0.53 -0.27,-0.22 -0.58,-0.34 -0.88,-0.34 -0.38,0 -0.7,0.34 -0.7,0.76 v 3.23 h -1.46 v -0.13 c 0.48,-0.03 0.62,-0.18 0.62,-0.64 v -2.5 c 0,-0.79 0.48,-1.29 1.2,-1.29 0.37,0 0.76,0.15 1.03,0.42 l 0.43,0.43 v -0.83 l 0.04,-0.01 c 0.5,0.19 0.85,0.3 1.36,0.44 z"
         inkscape:connector-curvature="0"
         style="fill:#000000;stroke-width:0" /><path
         id="path20727"
         d="m 424.37,711.7 -1.54,-0.55 V 711 l 0.07,0.01 c 0.12,0.02 0.25,0.03 0.34,0.03 0.24,0 0.33,-0.16 0.33,-0.6 v -2.3 c 0,-0.72 -0.1,-0.83 -0.78,-0.87 v -0.15 h 2.35 v 0.15 c -0.65,0.05 -0.73,0.15 -0.73,0.87 v 3.52 z"
         inkscape:connector-curvature="0"
         style="fill:#000000;stroke-width:0" /><path
         id="path20729"
         d="m 423.9,713.91 -0.03,0 -0.02,0 -0.03,-0.01 -0.02,0 -0.02,-0.01 -0.03,0 -0.02,-0.01 -0.02,-0.01 -0.02,-0.01 -0.03,-0.01 -0.02,-0.01 -0.02,-0.02 -0.02,-0.01 -0.01,-0.02 -0.02,-0.01 -0.02,-0.02 -0.02,-0.02 -0.01,-0.02 -0.02,-0.01 -0.01,-0.02 -0.01,-0.02 -0.02,-0.03 -0.01,-0.02 -0.01,-0.02 -0.01,-0.02 -0.01,-0.03 0,-0.02 -0.01,-0.03 0,-0.02 -0.01,-0.03 0,-0.02 0,-0.03 c 0,-0.28 0.22,-0.5 0.5,-0.5 0.29,0 0.52,0.21 0.52,0.5 0,0.28 -0.23,0.51 -0.52,0.51 z"
         inkscape:connector-curvature="0"
         style="fill:#000000;stroke-width:0" /><path
         id="path20731"
         d="m 429.89,711.59 h -1.38 v -0.14 c 0.32,-0.03 0.47,-0.13 0.47,-0.32 0,-0.1 -0.02,-0.2 -0.06,-0.3 l -0.99,-2.57 -1.01,2.54 c -0.06,0.14 -0.09,0.28 -0.09,0.37 0,0.18 0.11,0.25 0.46,0.28 v 0.14 h -1.96 v -0.14 c 0.38,-0.02 0.45,-0.12 0.91,-1.15 l 1.19,-2.85 c 0.02,-0.06 0.05,-0.13 0.08,-0.21 0.06,-0.17 0.12,-0.25 0.18,-0.25 0.06,0 0.13,0.12 0.28,0.49 l 1.27,3.19 c 0.29,0.68 0.35,0.75 0.65,0.78 z"
         inkscape:connector-curvature="0"
         style="fill:#000000;stroke-width:0" /><path
         id="path20733"
         d="m 434.28,707.78 -0.02,-0.01 -0.02,-0.01 -0.01,-0.02 -0.02,-0.01 -0.01,-0.01 -0.01,-0.01 -0.02,-0.01 -0.01,-0.01 -0.02,-0.01 -0.01,0 -0.01,-0.01 -0.02,-0.01 -0.01,-0.01 -0.01,0 -0.02,-0.01 -0.01,-0.01 -0.01,0 -0.02,-0.01 -0.01,0 -0.01,0 -0.02,-0.01 -0.01,0 -0.01,-0.01 -0.01,0 -0.03,0 -0.03,-0.01 -0.02,0 -0.03,0 c -0.23,0 -0.3,0.14 -0.3,0.58 v 1.93 c 0,0.52 -0.05,0.81 -0.2,1.05 -0.22,0.36 -0.65,0.55 -1.23,0.55 -0.94,0 -1.67,-0.49 -1.67,-1.12 0,-0.23 0.2,-0.42 0.42,-0.42 0.24,0 0.45,0.19 0.45,0.41 0,0.04 -0.01,0.09 -0.02,0.16 -0.02,0.09 -0.03,0.17 -0.03,0.24 0,0.27 0.32,0.49 0.72,0.49 0.48,0 0.75,-0.29 0.75,-0.83 v -0.6 -0.24 -1.44 c 0,-0.31 -0.05,-0.4 -0.25,-0.52 -0.24,-0.14 -0.52,-0.23 -0.73,-0.23 -0.35,0 -0.63,0.34 -0.63,0.77 v 0.04 c 0,0.58 0.41,0.94 1.61,1.38 v 0.24 c -1.53,-0.62 -1.7,-0.7 -2.12,-1.08 -0.22,-0.2 -0.36,-0.53 -0.36,-0.86 0,-0.63 0.43,-1.06 1.04,-1.06 0.44,0 0.85,0.2 1.45,0.72 0.05,-0.52 0.23,-0.72 0.64,-0.72 0.34,0 0.55,0.12 0.9,0.49 z"
         inkscape:connector-curvature="0"
         style="fill:#000000;stroke-width:0" /><path
         id="path20735"
         d="m 434.49,713.31 h 0.06 c 0.11,0.01 0.23,0.02 0.31,0.02 0.32,0 0.42,-0.13 0.42,-0.6 v -4.74 c 0,-0.54 -0.14,-0.67 -0.77,-0.72 v -0.15 h 2.35 v 0.15 c -0.63,0.04 -0.75,0.14 -0.75,0.69 v 5.93 l -0.04,0.02 c -0.52,-0.17 -0.89,-0.27 -1.58,-0.44 z"
         inkscape:connector-curvature="0"
         style="fill:#000000;stroke-width:0" /><path
         id="path20737"
         d="m 441.13,708.75 -0.04,-0.07 -0.05,-0.06 -0.04,-0.07 -0.05,-0.06 -0.04,-0.06 -0.04,-0.05 -0.05,-0.06 -0.04,-0.05 -0.05,-0.05 -0.04,-0.04 -0.04,-0.05 -0.05,-0.04 -0.04,-0.04 -0.05,-0.03 -0.04,-0.04 -0.05,-0.03 -0.05,-0.03 -0.04,-0.03 -0.05,-0.02 -0.05,-0.03 -0.05,-0.02 -0.05,-0.02 -0.05,-0.02 -0.05,-0.01 -0.05,-0.02 -0.05,-0.01 -0.06,-0.01 -0.05,-0.01 -0.06,0 -0.05,-0.01 -0.06,0 -0.06,0 c -0.57,0 -1,0.29 -1.29,0.86 -0.17,0.37 -0.24,0.7 -0.26,1.31 l 0.02,0.32 c 0.11,0.77 0.44,1.14 1.05,1.14 0.61,0 0.85,-0.28 0.98,-1.14 h -2.03 l -0.02,-0.32 h 3.06 c -0.08,0.64 -0.18,0.93 -0.43,1.25 -0.29,0.36 -0.75,0.57 -1.27,0.57 -0.5,0 -0.97,-0.18 -1.34,-0.52 -0.47,-0.41 -0.74,-1.11 -0.74,-1.93 0,-1.37 0.72,-2.22 1.86,-2.22 0.95,0 1.69,0.58 2.11,1.65 z"
         inkscape:connector-curvature="0"
         style="fill:#000000;stroke-width:0" /><path
         id="path20739"
         d="m 441.65,711.08 0.01,0 0.01,0 0,0.01 0.01,0 0,0 0.01,0 0.01,0.01 0.01,0 0,0 0.01,0 0.02,0 0.01,0.01 0.02,0 0.02,0 0.02,0 0.01,0 0.02,0.01 0.02,0 0.02,0 0.02,0 0.02,0 c 0.28,0 0.37,-0.15 0.37,-0.64 v -2.46 c 0,-0.57 -0.11,-0.71 -0.62,-0.75 v -0.15 h 2.11 v 0.15 c -0.5,0.04 -0.65,0.16 -0.65,0.52 v 2.79 c 0.47,0.45 0.69,0.57 1.02,0.57 0.49,0 0.73,-0.31 0.73,-0.97 v -2.07 c 0,-0.63 -0.13,-0.8 -0.63,-0.84 v -0.15 h 2.07 v 0.15 c -0.49,0.05 -0.61,0.17 -0.61,0.66 v 2.27 c 0,0.94 -0.43,1.5 -1.17,1.5 -0.46,0 -0.77,-0.17 -1.44,-0.81 v 0.78 l -0.07,0.03 c -0.49,-0.18 -0.83,-0.29 -1.38,-0.45 z"
         inkscape:connector-curvature="0"
         style="fill:#000000;stroke-width:0" /><path
         id="path20741"
         d="m 449.01,711.59 h -1 v 1.16 c 0,0.1 -0.01,0.13 -0.07,0.13 -0.07,-0.09 -0.13,-0.18 -0.2,-0.28 -0.38,-0.55 -0.81,-1.02 -0.97,-1.06 -0.1,-0.07 -0.16,-0.14 -0.16,-0.19 0,-0.03 0,-0.05 0.03,-0.07 h 0.53 v -2.99 c 0,-0.84 0.3,-1.26 0.89,-1.26 0.49,0 0.86,0.23 1.19,0.75 l -0.13,0.11 c -0.21,-0.25 -0.38,-0.35 -0.59,-0.35 -0.37,0 -0.52,0.27 -0.52,0.9 v 2.84 h 1 z"
         inkscape:connector-curvature="0"
         style="fill:#000000;stroke-width:0" /><path
         id="path20743"
         d="m 454.22,711.7 -0.12,-0.01 -0.11,-0.01 -0.12,-0.01 -0.11,-0.02 -0.11,-0.02 -0.11,-0.03 -0.1,-0.04 -0.11,-0.04 -0.09,-0.04 -0.1,-0.05 -0.09,-0.05 -0.09,-0.06 -0.09,-0.06 -0.08,-0.07 -0.08,-0.07 -0.07,-0.07 -0.07,-0.08 -0.07,-0.08 -0.06,-0.09 -0.06,-0.09 -0.06,-0.1 -0.05,-0.09 -0.04,-0.1 -0.04,-0.11 -0.04,-0.11 -0.03,-0.11 -0.03,-0.11 -0.02,-0.12 -0.02,-0.12 -0.01,-0.12 -0.01,-0.12 -0.01,-0.13 c 0,-1.34 0.93,-2.34 2.18,-2.34 l 0.12,0.27 c -0.39,0 -0.75,0.24 -0.96,0.64 -0.28,0.52 -0.44,1.21 -0.44,1.92 0,0.94 0.47,1.56 1.17,1.56 h 0 c 0.84,0 1.43,-0.96 1.43,-2.32 0,-1.12 -0.45,-1.8 -1.2,-1.8 l -0.12,-0.27 c 1.26,0 2.21,1.05 2.21,2.42 0,1.3 -0.91,2.25 -2.19,2.25 z"
         inkscape:connector-curvature="0"
         style="fill:#000000;stroke-width:0" /><path
         id="path20745"
         d="m 459.79,711.59 h -1.22 v 1.16 c 0,0.57 0.19,0.88 0.57,0.88 0.2,0 0.34,-0.1 0.52,-0.39 0.16,-0.25 0.28,-0.35 0.45,-0.35 0.23,0 0.42,0.18 0.42,0.4 0,0.36 -0.44,0.62 -1.04,0.62 -0.61,0 -1.14,-0.27 -1.4,-0.73 -0.26,-0.43 -0.34,-0.79 -0.35,-1.59 h -0.81 v -0.31 h 0.81 v -3.12 c 0,-0.73 -0.11,-0.85 -0.82,-0.89 v -0.15 h 2.58 v 0.15 c -0.81,0.03 -0.92,0.14 -0.92,0.89 v 3.12 h 1.21 z"
         inkscape:connector-curvature="0"
         style="fill:#000000;stroke-width:0" /><polygon
         id="polygon20747"
         points="465.77,713.84 462.64,709.42 463.04,709.42 465.43,712.83 465.43,709.42 463.04,709.42 462.64,709.42 462.64,708.78 465.44,708.78 465.44,707.12 466.21,707.12 466.21,708.78 467.22,708.78 467.22,709.42 466.21,709.42 466.21,713.84 "
         style="fill:#000000;stroke-width:0" /><path
         id="path20749"
         d="m 471.97,713.7 h -3.68 l -0.58,-1.46 0.17,-0.08 c 0.42,0.68 0.6,0.81 1.15,0.81 h 2.16 l -1.97,-5.92 h 0.64 l 2.11,6.49 z"
         inkscape:connector-curvature="0"
         style="fill:#000000;stroke-width:0" /><path
         id="path20751"
         d="m 475.02,713.84 -0.06,0 -0.05,0 -0.04,0 -0.05,-0.01 -0.05,0 -0.05,-0.01 -0.05,0 -0.04,-0.01 -0.05,-0.01 -0.04,-0.01 -0.05,-0.01 -0.04,-0.01 -0.04,-0.01 -0.05,-0.02 -0.04,-0.01 -0.04,-0.02 -0.04,-0.01 -0.04,-0.02 -0.04,-0.02 -0.04,-0.02 -0.04,-0.02 -0.04,-0.02 -0.03,-0.03 -0.04,-0.02 -0.04,-0.02 -0.04,-0.03 -0.03,-0.03 -0.04,-0.02 -0.03,-0.03 -0.04,-0.03 -0.03,-0.03 -0.04,-0.04 c -0.57,-0.55 -0.95,-1.7 -0.95,-2.86 0,-1.08 0.32,-2.24 0.79,-2.8 0.37,-0.44 0.88,-0.67 1.46,-0.67 v 0.25 c -0.86,0 -1.3,1.07 -1.3,3.13 0,2.11 0.45,3.21 1.31,3.21 h 0 c 0.83,0 1.28,-1.12 1.28,-3.2 0,-2.07 -0.44,-3.14 -1.29,-3.14 v -0.25 c 0.5,0 0.93,0.17 1.29,0.51 0.58,0.55 0.95,1.7 0.95,2.9 0,2.04 -0.9,3.44 -2.2,3.44 z"
         inkscape:connector-curvature="0"
         style="fill:#000000;stroke-width:0" /><polygon
         id="polygon20753"
         points="480.85,710.4 485.95,710.4 485.95,710.96 480.85,710.96 "
         style="fill:#000000;stroke-width:0" /><polygon
         id="polygon20755"
         points="480.85,708.39 485.95,708.39 485.95,708.94 480.85,708.94 "
         style="fill:#000000;stroke-width:0" /><path
         id="path20757"
         d="m 307.84,696.26 0,0.03 0,0.03 0,0.02 -0.01,0.03 0,0.02 -0.01,0.03 -0.01,0.02 -0.01,0.03 -0.01,0.02 -0.01,0.02 -0.01,0.03 -0.02,0.02 -0.01,0.02 -0.02,0.02 -0.02,0.02 -0.01,0.01 -0.02,0.02 -0.02,0.02 -0.02,0.01 -0.02,0.02 -0.02,0.01 -0.02,0.02 -0.03,0.01 -0.02,0.01 -0.02,0.01 -0.03,0.01 -0.02,0 -0.03,0.01 -0.03,0 -0.02,0.01 -0.03,0 -0.02,0 c -0.29,0 -0.53,-0.24 -0.53,-0.53 0,-0.28 0.24,-0.52 0.53,-0.52 0.27,0 0.52,0.23 0.52,0.52 z"
         inkscape:connector-curvature="0"
         style="fill:#000000;stroke-width:0" /><path
         id="path20759"
         d="m 310.33,691.96 0,0.03 0,0.03 -0.01,0.02 0,0.03 -0.01,0.02 0,0.03 -0.01,0.02 -0.01,0.03 -0.01,0.02 -0.01,0.02 -0.02,0.02 -0.01,0.03 -0.02,0.02 -0.01,0.02 -0.02,0.02 -0.02,0.01 -0.01,0.02 -0.02,0.02 -0.02,0.01 -0.02,0.02 -0.03,0.01 -0.02,0.01 -0.02,0.02 -0.02,0.01 -0.03,0.01 -0.02,0.01 -0.03,0 -0.02,0.01 -0.03,0 -0.02,0.01 -0.03,0 -0.03,0 c -0.29,0 -0.53,-0.24 -0.53,-0.53 0,-0.29 0.24,-0.52 0.53,-0.52 0.29,0 0.53,0.23 0.53,0.52 z"
         inkscape:connector-curvature="0"
         style="fill:#000000;stroke-width:0" /><path
         id="path20761"
         d="m 305.36,691.96 -0.01,0.03 0,0.03 0,0.02 -0.01,0.03 0,0.02 -0.01,0.03 -0.01,0.02 -0.01,0.03 -0.01,0.02 -0.01,0.02 -0.01,0.02 -0.02,0.03 -0.01,0.02 -0.02,0.02 -0.01,0.02 -0.02,0.01 -0.02,0.02 -0.02,0.02 -0.02,0.01 -0.02,0.02 -0.02,0.01 -0.02,0.01 -0.02,0.02 -0.03,0.01 -0.02,0.01 -0.03,0.01 -0.02,0 -0.03,0.01 -0.02,0 -0.03,0.01 -0.03,0 -0.02,0 c -0.29,0 -0.53,-0.24 -0.53,-0.53 0,-0.29 0.24,-0.52 0.53,-0.52 0.29,0 0.53,0.23 0.53,0.52 z"
         inkscape:connector-curvature="0"
         style="fill:#000000;stroke-width:0" /><path
         id="path20763"
         d="m 318.8,698.9 -1.79,-0.91 v -0.14 c 0.12,0.05 0.22,0.09 0.26,0.11 0.18,0.07 0.35,0.11 0.45,0.11 0.21,0 0.3,-0.15 0.3,-0.47 v -4.5 c 0,-0.32 -0.08,-0.55 -0.24,-0.64 -0.15,-0.09 -0.29,-0.12 -0.7,-0.13 v -0.15 h 2.74 v 0.15 c -0.78,0.01 -0.94,0.11 -0.94,0.59 v 5.96 z"
         inkscape:connector-curvature="0"
         style="fill:#000000;stroke-width:0" /><path
         id="path20765"
         d="m 321.94,696.48 0.06,0.03 0.06,0.04 0.06,0.03 0.06,0.04 0.05,0.04 0.06,0.03 0.05,0.04 0.05,0.05 0.05,0.04 0.05,0.04 0.05,0.05 0.04,0.04 0.05,0.05 0.04,0.05 0.04,0.05 0.04,0.05 0.03,0.05 0.03,0.05 0.04,0.05 0.03,0.05 0.02,0.06 0.03,0.05 0.02,0.05 0.02,0.06 0.02,0.05 0.02,0.06 0.01,0.05 0.01,0.06 0.01,0.05 0.01,0.06 0,0.06 0,0.05 c 0,0.5 -0.35,0.89 -0.79,0.89 -0.35,0 -0.59,-0.23 -0.59,-0.57 0,-0.32 0.23,-0.51 0.59,-0.51 0.06,0 0.13,0.01 0.19,0.02 0.07,0.02 0.07,0.02 0.07,0.02 0.09,0 0.14,-0.06 0.14,-0.14 0,-0.32 -0.27,-0.68 -0.81,-1.05 z"
         inkscape:connector-curvature="0"
         style="fill:#000000;stroke-width:0" /><path
         id="path20767"
         d="m 326.79,695.3 -0.04,1.35 h -0.11 l -0.02,-0.02 c -0.09,-0.07 -0.1,-0.08 -0.14,-0.08 -0.06,0 -0.16,0.02 -0.27,0.07 -0.22,0.08 -0.44,0.12 -0.7,0.12 -0.78,0 -1.35,-0.51 -1.35,-1.22 0,-0.56 0.32,-0.95 1.16,-1.43 l 0.58,-0.33 c 0.35,-0.2 0.52,-0.44 0.52,-0.74 0,-0.44 -0.32,-0.72 -0.83,-0.72 -0.33,0 -0.64,0.13 -0.83,0.35 -0.21,0.25 -0.3,0.47 -0.43,1.04 h -0.16 v -1.55 h 0.13 c 0.07,0.1 0.11,0.12 0.23,0.12 0.09,0 0.23,-0.02 0.46,-0.08 0.28,-0.06 0.54,-0.1 0.72,-0.1 0.77,0 1.4,0.58 1.4,1.27 0,0.5 -0.23,0.83 -0.83,1.18 l -1.08,0.64 c -0.27,0.16 -0.42,0.41 -0.42,0.68 0,0.39 0.31,0.67 0.76,0.67 0.57,0 0.87,-0.34 1.1,-1.22 z"
         inkscape:connector-curvature="0"
         style="fill:#000000;stroke-width:0" /><path
         id="path20769"
         d="m 330.07,696.65 h -1.01 v 1.15 c 0,0.1 -0.01,0.13 -0.07,0.13 -0.07,-0.09 -0.13,-0.18 -0.2,-0.27 -0.38,-0.55 -0.8,-1.03 -0.96,-1.07 -0.11,-0.07 -0.17,-0.14 -0.17,-0.19 0,-0.03 0.01,-0.05 0.04,-0.07 h 0.53 v -2.99 c 0,-0.83 0.29,-1.26 0.88,-1.26 0.49,0 0.87,0.24 1.19,0.76 l -0.13,0.11 c -0.2,-0.25 -0.37,-0.35 -0.59,-0.35 -0.37,0 -0.52,0.27 -0.52,0.89 v 2.84 h 1.01 z"
         inkscape:connector-curvature="0"
         style="fill:#000000;stroke-width:0" /><path
         id="path20771"
         d="m 336.75,693.73 -0.05,-0.06 -0.04,-0.06 -0.04,-0.06 -0.05,-0.06 -0.04,-0.05 -0.04,-0.05 -0.04,-0.05 -0.04,-0.05 -0.04,-0.04 -0.04,-0.04 -0.05,-0.04 -0.04,-0.04 -0.04,-0.04 -0.04,-0.03 -0.04,-0.03 -0.04,-0.03 -0.04,-0.02 -0.04,-0.03 -0.04,-0.02 -0.05,-0.02 -0.04,-0.02 -0.04,-0.02 -0.05,-0.01 -0.04,-0.01 -0.05,-0.02 -0.05,-0.01 -0.04,0 -0.05,-0.01 -0.05,-0.01 -0.05,0 -0.05,0 -0.05,0 c -0.91,0 -1.55,0.79 -1.55,1.93 0,1.03 0.55,1.73 1.36,1.73 0.36,0 0.48,-0.11 0.58,-0.47 l 0.06,-0.22 c 0.08,-0.28 0.26,-0.46 0.47,-0.46 0.26,0 0.48,0.19 0.48,0.42 0,0.55 -0.7,1.02 -1.53,1.02 -0.49,0 -1,-0.2 -1.41,-0.56 -0.49,-0.43 -0.77,-1.11 -0.77,-1.89 0,-1.29 0.78,-2.22 1.89,-2.22 0.45,0 0.84,0.16 1.2,0.47 0.27,0.24 0.46,0.5 0.76,1.09 z"
         inkscape:connector-curvature="0"
         style="fill:#000000;stroke-width:0" /><path
         id="path20773"
         d="m 339.7,696.75 -0.12,0 -0.12,-0.01 -0.11,-0.01 -0.12,-0.02 -0.11,-0.03 -0.1,-0.03 -0.11,-0.03 -0.1,-0.04 -0.1,-0.04 -0.09,-0.05 -0.1,-0.06 -0.08,-0.05 -0.09,-0.07 -0.08,-0.06 -0.08,-0.07 -0.08,-0.08 -0.07,-0.08 -0.06,-0.08 -0.07,-0.09 -0.06,-0.09 -0.05,-0.09 -0.05,-0.1 -0.05,-0.1 -0.04,-0.1 -0.04,-0.11 -0.03,-0.11 -0.03,-0.11 -0.02,-0.12 -0.02,-0.12 -0.01,-0.12 -0.01,-0.13 0,-0.12 c 0,-1.34 0.93,-2.35 2.18,-2.35 l 0.12,0.28 c -0.39,0 -0.76,0.24 -0.97,0.64 -0.28,0.51 -0.43,1.21 -0.43,1.91 0,0.95 0.46,1.56 1.17,1.56 h 0 c 0.84,0 1.42,-0.95 1.42,-2.31 0,-1.13 -0.44,-1.8 -1.19,-1.8 l -0.12,-0.28 c 1.25,0 2.21,1.06 2.21,2.43 0,1.3 -0.92,2.24 -2.19,2.24 z"
         inkscape:connector-curvature="0"
         style="fill:#000000;stroke-width:0" /><path
         id="path20775"
         d="m 342.38,696.14 0.01,0 0.02,0 0.01,0 0.01,0.01 0.01,0 0.01,0 0.02,0 0.02,0.01 0.02,0 0.02,0 0.02,0.01 0.02,0 0.02,0 0.01,0 0.02,0 0.02,0 0.02,0 0.02,0 0.02,0 c 0.26,0 0.35,-0.15 0.35,-0.63 v -2.51 c 0,-0.54 -0.14,-0.69 -0.7,-0.7 v -0.15 h 2.21 v 0.15 c -0.53,0.02 -0.67,0.13 -0.67,0.52 v 2.8 c 0,0.02 0.07,0.12 0.14,0.19 0.25,0.23 0.68,0.39 1.03,0.39 0.44,0 0.65,-0.34 0.65,-1.04 v -2.16 c 0,-0.55 -0.1,-0.66 -0.67,-0.7 v -0.15 h 2.23 v 0.15 c -0.57,0.01 -0.72,0.18 -0.72,0.79 v 2.51 c 0.3,0.42 0.63,0.6 1.09,0.6 0.56,0 0.74,-0.26 0.74,-1.09 v -2.1 c 0,-0.56 -0.08,-0.64 -0.65,-0.71 v -0.15 h 2.17 v 0.15 l -0.26,0.02 c -0.29,0.02 -0.42,0.2 -0.42,0.59 v 2.04 c 0,1.18 -0.39,1.77 -1.16,1.77 -0.57,0 -1.08,-0.26 -1.62,-0.83 -0.18,0.56 -0.52,0.83 -1.05,0.83 -0.44,0 -0.72,-0.14 -1.54,-0.76 v 0.74 l -0.08,0.02 c -0.5,-0.19 -0.84,-0.3 -1.39,-0.45 z"
         inkscape:connector-curvature="0"
         style="fill:#000000;stroke-width:0" /><path
         id="path20777"
         d="m 350.03,696.09 0.02,0 0.02,0 0.01,0 0.02,0 0.01,0 0.02,0 0.03,0 0.03,0 0.01,0 0.02,0 0.01,0 0.02,0 0.02,0 0.01,0 c 0.34,0 0.41,-0.09 0.41,-0.56 v -4.65 c 0,-0.52 -0.11,-0.63 -0.7,-0.69 v -0.16 h 2.41 v 0.17 c -0.75,0.01 -0.87,0.12 -0.87,0.75 v 1.56 c 0.34,-0.33 0.58,-0.43 1,-0.43 l 0.03,0.32 c -0.47,0 -1.03,0.36 -1.03,0.65 v 2.45 c 0,0.3 0.55,0.66 1.01,0.66 0.74,0 1.23,-0.76 1.23,-1.91 0,-1.1 -0.49,-1.85 -1.21,-1.85 l -0.03,-0.32 c 1.17,0 2.09,1.11 2.09,2.56 0,1.23 -0.7,2.11 -1.66,2.11 -0.56,0 -1,-0.25 -1.43,-0.78 v 0.76 l -0.06,0.02 c -0.54,-0.21 -0.89,-0.34 -1.44,-0.51 z"
         inkscape:connector-curvature="0"
         style="fill:#000000;stroke-width:0" /><path
         id="path20779"
         d="m 355.11,698.37 h 0.06 c 0.11,0.01 0.23,0.02 0.31,0.02 0.32,0 0.42,-0.14 0.42,-0.61 v -4.74 c 0,-0.53 -0.14,-0.66 -0.77,-0.71 v -0.15 h 2.35 v 0.15 c -0.62,0.04 -0.74,0.14 -0.74,0.69 v 5.93 l -0.04,0.02 c -0.52,-0.17 -0.9,-0.27 -1.59,-0.44 z"
         inkscape:connector-curvature="0"
         style="fill:#000000;stroke-width:0" /><path
         id="path20781"
         d="m 361.75,693.81 -0.04,-0.07 -0.04,-0.07 -0.05,-0.06 -0.04,-0.06 -0.05,-0.06 -0.04,-0.06 -0.04,-0.05 -0.05,-0.05 -0.04,-0.05 -0.05,-0.05 -0.04,-0.04 -0.05,-0.04 -0.04,-0.04 -0.05,-0.04 -0.04,-0.03 -0.05,-0.03 -0.04,-0.03 -0.05,-0.03 -0.05,-0.03 -0.05,-0.02 -0.04,-0.02 -0.05,-0.02 -0.05,-0.02 -0.06,-0.02 -0.05,-0.01 -0.05,-0.01 -0.05,-0.01 -0.06,-0.01 -0.05,-0.01 -0.06,0 -0.06,0 -0.06,0 c -0.57,0 -0.99,0.28 -1.28,0.85 -0.18,0.38 -0.25,0.71 -0.27,1.31 l 0.02,0.32 c 0.11,0.78 0.45,1.14 1.05,1.14 0.61,0 0.85,-0.28 0.98,-1.14 h -2.03 l -0.02,-0.32 h 3.06 c -0.08,0.65 -0.17,0.94 -0.42,1.25 -0.3,0.36 -0.76,0.57 -1.28,0.57 -0.49,0 -0.96,-0.18 -1.34,-0.52 -0.47,-0.4 -0.74,-1.11 -0.74,-1.92 0,-1.37 0.72,-2.23 1.86,-2.23 0.95,0 1.7,0.59 2.11,1.66 z"
         inkscape:connector-curvature="0"
         style="fill:#000000;stroke-width:0" /><path
         id="path20783"
         d="m 362.31,696.14 0.01,0 0.01,0 0.01,0 0.01,0.01 0.01,0 0.02,0 0.02,0 0.02,0.01 0.02,0 0.02,0 0.01,0.01 0.02,0 0.02,0 0.02,0 0.02,0 0.02,0 0.02,0 0.02,0 0.02,0 c 0.25,0 0.34,-0.15 0.34,-0.63 v -2.51 c 0,-0.54 -0.14,-0.69 -0.69,-0.7 v -0.15 h 2.21 v 0.15 c -0.53,0.02 -0.68,0.13 -0.68,0.52 v 2.8 c 0,0.02 0.08,0.12 0.15,0.19 0.25,0.23 0.68,0.39 1.02,0.39 0.44,0 0.66,-0.34 0.66,-1.04 v -2.16 c 0,-0.55 -0.11,-0.66 -0.68,-0.7 v -0.15 h 2.23 v 0.15 c -0.57,0.01 -0.71,0.18 -0.71,0.79 v 2.51 c 0.29,0.42 0.62,0.6 1.08,0.6 0.57,0 0.75,-0.26 0.75,-1.09 v -2.1 c 0,-0.56 -0.08,-0.64 -0.66,-0.71 v -0.15 h 2.18 v 0.15 l -0.26,0.02 c -0.3,0.02 -0.43,0.2 -0.43,0.59 v 2.04 c 0,1.18 -0.39,1.77 -1.15,1.77 -0.58,0 -1.09,-0.26 -1.62,-0.83 -0.18,0.56 -0.52,0.83 -1.06,0.83 -0.44,0 -0.71,-0.14 -1.54,-0.76 v 0.74 l -0.07,0.02 c -0.51,-0.19 -0.84,-0.3 -1.39,-0.45 z"
         inkscape:connector-curvature="0"
         style="fill:#000000;stroke-width:0" /><path
         id="path20785"
         d="m 373.93,693.81 -0.05,-0.07 -0.04,-0.07 -0.04,-0.06 -0.05,-0.06 -0.04,-0.06 -0.05,-0.06 -0.04,-0.05 -0.04,-0.05 -0.05,-0.05 -0.04,-0.05 -0.05,-0.04 -0.04,-0.04 -0.05,-0.04 -0.04,-0.04 -0.05,-0.03 -0.04,-0.03 -0.05,-0.03 -0.05,-0.03 -0.04,-0.03 -0.05,-0.02 -0.05,-0.02 -0.05,-0.02 -0.05,-0.02 -0.05,-0.02 -0.05,-0.01 -0.06,-0.01 -0.05,-0.01 -0.05,-0.01 -0.06,-0.01 -0.06,0 -0.05,0 -0.06,0 c -0.57,0 -1,0.28 -1.29,0.85 -0.18,0.38 -0.25,0.71 -0.27,1.31 l 0.02,0.32 c 0.11,0.78 0.45,1.14 1.06,1.14 0.61,0 0.85,-0.28 0.97,-1.14 h -2.03 l -0.02,-0.32 h 3.07 c -0.08,0.65 -0.18,0.94 -0.43,1.25 -0.3,0.36 -0.76,0.57 -1.27,0.57 -0.5,0 -0.97,-0.18 -1.35,-0.52 -0.46,-0.4 -0.73,-1.11 -0.73,-1.92 0,-1.37 0.71,-2.23 1.86,-2.23 0.94,0 1.69,0.59 2.11,1.66 z"
         inkscape:connector-curvature="0"
         style="fill:#000000;stroke-width:0" /><path
         id="path20787"
         d="m 374.45,696.14 0.01,0 0,0 0.01,0 0.01,0.01 0,0 0.01,0 0.01,0 0,0 0.01,0.01 0.01,0 0.01,0 0.02,0 0.02,0.01 0.02,0 0.01,0 0.02,0 0.02,0 0.02,0 0.02,0 0.02,0 0.02,0 c 0.28,0 0.37,-0.14 0.37,-0.63 v -2.46 c 0,-0.57 -0.11,-0.71 -0.62,-0.75 v -0.15 h 2.11 v 0.15 c -0.51,0.04 -0.66,0.16 -0.66,0.52 v 2.79 c 0.48,0.45 0.7,0.56 1.03,0.56 0.49,0 0.72,-0.3 0.72,-0.96 v -2.08 c 0,-0.62 -0.12,-0.79 -0.62,-0.83 v -0.15 h 2.07 v 0.15 c -0.49,0.05 -0.61,0.17 -0.61,0.66 v 2.27 c 0,0.93 -0.44,1.49 -1.17,1.49 -0.46,0 -0.77,-0.17 -1.45,-0.8 v 0.78 l -0.06,0.02 c -0.49,-0.18 -0.83,-0.29 -1.38,-0.45 z"
         inkscape:connector-curvature="0"
         style="fill:#000000;stroke-width:0" /><path
         id="path20789"
         d="m 381.81,696.65 h -1 v 1.15 c 0,0.1 -0.01,0.13 -0.07,0.13 -0.07,-0.09 -0.13,-0.18 -0.2,-0.27 -0.38,-0.55 -0.81,-1.03 -0.97,-1.07 -0.11,-0.07 -0.17,-0.14 -0.17,-0.19 0,-0.03 0.01,-0.05 0.04,-0.07 h 0.53 v -2.99 c 0,-0.83 0.3,-1.26 0.89,-1.26 0.48,0 0.86,0.24 1.19,0.76 l -0.13,0.11 c -0.21,-0.25 -0.38,-0.35 -0.6,-0.35 -0.37,0 -0.51,0.27 -0.51,0.89 v 2.84 h 1 z"
         inkscape:connector-curvature="0"
         style="fill:#000000;stroke-width:0" /><path
         id="path20791"
         d="m 384.6,696.05 0.02,0.01 0.01,0 0.01,0 0.01,0.01 0.03,0 0.02,0 0.02,0.01 0.02,0 0.02,0 0.03,0.01 0.02,0 0.02,0 0.02,0 0.02,0 0.02,0 0.02,0 0.02,0 0.02,0 c 0.25,0 0.34,-0.15 0.34,-0.59 v -2.48 c 0,-0.5 -0.07,-0.57 -0.71,-0.69 v -0.15 h 2.39 v 0.15 c -0.67,0.03 -0.84,0.18 -0.84,0.75 v 2.23 c 0,0.32 0.42,0.81 0.69,0.81 0.06,0 0.15,-0.04 0.26,-0.14 0.16,-0.14 0.27,-0.2 0.4,-0.2 0.24,0 0.39,0.17 0.39,0.44 0,0.33 -0.21,0.53 -0.55,0.53 -0.42,0 -0.71,-0.23 -1.19,-0.93 v 0.91 l -0.05,0.02 c -0.53,-0.22 -0.89,-0.35 -1.48,-0.54 z"
         inkscape:connector-curvature="0"
         style="fill:#000000;stroke-width:0" /><path
         id="path20793"
         d="m 391.91,693.81 -0.04,-0.07 -0.05,-0.07 -0.04,-0.06 -0.05,-0.06 -0.04,-0.06 -0.04,-0.06 -0.05,-0.05 -0.04,-0.05 -0.05,-0.05 -0.04,-0.05 -0.04,-0.04 -0.05,-0.04 -0.04,-0.04 -0.05,-0.04 -0.04,-0.03 -0.05,-0.03 -0.05,-0.03 -0.04,-0.03 -0.05,-0.03 -0.05,-0.02 -0.05,-0.02 -0.05,-0.02 -0.05,-0.02 -0.05,-0.02 -0.05,-0.01 -0.05,-0.01 -0.06,-0.01 -0.05,-0.01 -0.06,-0.01 -0.05,0 -0.06,0 -0.06,0 c -0.57,0 -1,0.28 -1.29,0.85 -0.17,0.38 -0.24,0.71 -0.26,1.31 l 0.02,0.32 c 0.11,0.78 0.44,1.14 1.05,1.14 0.61,0 0.85,-0.28 0.98,-1.14 h -2.03 l -0.02,-0.32 h 3.06 c -0.08,0.65 -0.18,0.94 -0.43,1.25 -0.3,0.36 -0.75,0.57 -1.27,0.57 -0.5,0 -0.97,-0.18 -1.34,-0.52 -0.47,-0.4 -0.74,-1.11 -0.74,-1.92 0,-1.37 0.72,-2.23 1.86,-2.23 0.95,0 1.69,0.59 2.11,1.66 z"
         inkscape:connector-curvature="0"
         style="fill:#000000;stroke-width:0" /><path
         id="path20795"
         d="m 392.36,696.09 0.02,0 0.02,0 0.01,0 0.02,0 0.01,0 0.02,0 0.03,0 0.03,0 0.01,0 0.02,0 0.01,0 0.02,0 0.02,0 0.01,0 c 0.34,0 0.41,-0.09 0.41,-0.56 v -4.65 c 0,-0.52 -0.11,-0.63 -0.69,-0.69 v -0.16 h 2.4 v 0.17 c -0.74,0.01 -0.87,0.12 -0.87,0.75 v 1.56 c 0.34,-0.33 0.58,-0.43 1,-0.43 l 0.03,0.32 c -0.47,0 -1.03,0.36 -1.03,0.65 v 2.45 c 0,0.3 0.55,0.66 1.01,0.66 0.74,0 1.23,-0.76 1.23,-1.91 0,-1.1 -0.49,-1.85 -1.21,-1.85 l -0.03,-0.32 c 1.18,0 2.09,1.11 2.09,2.56 0,1.23 -0.69,2.11 -1.66,2.11 -0.56,0 -0.99,-0.25 -1.43,-0.78 v 0.76 l -0.06,0.02 c -0.54,-0.21 -0.89,-0.34 -1.44,-0.51 z"
         inkscape:connector-curvature="0"
         style="fill:#000000;stroke-width:0" /><path
         id="path20797"
         d="m 397.33,696.05 0.01,0.01 0.01,0 0.01,0 0.02,0.01 0.02,0 0.02,0 0.02,0.01 0.03,0 0.02,0 0.02,0.01 0.02,0 0.02,0 0.02,0 0.02,0 0.02,0 0.02,0 0.02,0 0.02,0 c 0.25,0 0.34,-0.15 0.34,-0.59 v -2.48 c 0,-0.5 -0.07,-0.57 -0.7,-0.69 v -0.15 h 2.38 v 0.15 c -0.67,0.03 -0.84,0.18 -0.84,0.75 v 2.23 c 0,0.32 0.43,0.81 0.7,0.81 0.05,0 0.14,-0.04 0.25,-0.14 0.16,-0.14 0.27,-0.2 0.4,-0.2 0.24,0 0.39,0.17 0.39,0.44 0,0.33 -0.21,0.53 -0.55,0.53 -0.42,0 -0.7,-0.23 -1.19,-0.93 v 0.91 l -0.05,0.02 c -0.53,-0.22 -0.89,-0.35 -1.47,-0.54 z"
         inkscape:connector-curvature="0"
         style="fill:#000000;stroke-width:0" /><path
         id="path20799"
         d="m 404.63,693.81 -0.04,-0.07 -0.05,-0.07 -0.04,-0.06 -0.04,-0.06 -0.05,-0.06 -0.04,-0.06 -0.05,-0.05 -0.04,-0.05 -0.04,-0.05 -0.05,-0.05 -0.04,-0.04 -0.05,-0.04 -0.04,-0.04 -0.05,-0.04 -0.04,-0.03 -0.05,-0.03 -0.04,-0.03 -0.05,-0.03 -0.05,-0.03 -0.05,-0.02 -0.05,-0.02 -0.05,-0.02 -0.05,-0.02 -0.05,-0.02 -0.05,-0.01 -0.05,-0.01 -0.05,-0.01 -0.06,-0.01 -0.06,-0.01 -0.05,0 -0.06,0 -0.06,0 c -0.57,0 -0.99,0.28 -1.28,0.85 -0.18,0.38 -0.25,0.71 -0.27,1.31 l 0.02,0.32 c 0.11,0.78 0.45,1.14 1.05,1.14 0.61,0 0.85,-0.28 0.98,-1.14 h -2.03 l -0.02,-0.32 h 3.06 c -0.08,0.65 -0.18,0.94 -0.42,1.25 -0.3,0.36 -0.76,0.57 -1.28,0.57 -0.5,0 -0.96,-0.18 -1.34,-0.52 -0.47,-0.4 -0.74,-1.11 -0.74,-1.92 0,-1.37 0.72,-2.23 1.86,-2.23 0.95,0 1.7,0.59 2.11,1.66 z"
         inkscape:connector-curvature="0"
         style="fill:#000000;stroke-width:0" /><path
         id="path20801"
         d="m 408.13,695.3 -0.04,1.35 h -0.11 l -0.02,-0.02 c -0.09,-0.07 -0.1,-0.08 -0.14,-0.08 -0.06,0 -0.16,0.02 -0.27,0.07 -0.22,0.08 -0.43,0.12 -0.69,0.12 -0.79,0 -1.35,-0.51 -1.35,-1.22 0,-0.56 0.31,-0.95 1.16,-1.43 l 0.58,-0.33 c 0.34,-0.2 0.51,-0.44 0.51,-0.74 0,-0.44 -0.31,-0.72 -0.82,-0.72 -0.34,0 -0.65,0.13 -0.84,0.35 -0.21,0.25 -0.3,0.47 -0.43,1.04 h -0.15 v -1.55 h 0.12 c 0.07,0.1 0.11,0.12 0.23,0.12 0.09,0 0.23,-0.02 0.46,-0.08 0.28,-0.06 0.55,-0.1 0.73,-0.1 0.76,0 1.4,0.58 1.4,1.27 0,0.5 -0.24,0.83 -0.84,1.18 l -1.07,0.64 c -0.28,0.16 -0.43,0.41 -0.43,0.68 0,0.39 0.31,0.67 0.77,0.67 0.56,0 0.86,-0.34 1.09,-1.22 z"
         inkscape:connector-curvature="0"
         style="fill:#000000;stroke-width:0" /><path
         id="path20803"
         d="m 412.93,693.81 -0.04,-0.07 -0.05,-0.07 -0.04,-0.06 -0.05,-0.06 -0.04,-0.06 -0.04,-0.06 -0.05,-0.05 -0.04,-0.05 -0.05,-0.05 -0.04,-0.05 -0.04,-0.04 -0.05,-0.04 -0.04,-0.04 -0.05,-0.04 -0.04,-0.03 -0.05,-0.03 -0.05,-0.03 -0.04,-0.03 -0.05,-0.03 -0.05,-0.02 -0.05,-0.02 -0.05,-0.02 -0.05,-0.02 -0.05,-0.02 -0.05,-0.01 -0.05,-0.01 -0.06,-0.01 -0.05,-0.01 -0.06,-0.01 -0.05,0 -0.06,0 -0.06,0 c -0.57,0 -1,0.28 -1.28,0.85 -0.18,0.38 -0.25,0.71 -0.27,1.31 l 0.02,0.32 c 0.11,0.78 0.44,1.14 1.05,1.14 0.61,0 0.85,-0.28 0.98,-1.14 h -2.03 l -0.02,-0.32 h 3.06 c -0.08,0.65 -0.18,0.94 -0.43,1.25 -0.29,0.36 -0.75,0.57 -1.27,0.57 -0.5,0 -0.96,-0.18 -1.34,-0.52 -0.47,-0.4 -0.74,-1.11 -0.74,-1.92 0,-1.37 0.72,-2.23 1.86,-2.23 0.95,0 1.69,0.59 2.11,1.66 z"
         inkscape:connector-curvature="0"
         style="fill:#000000;stroke-width:0" /><path
         id="path20805"
         d="m 413.45,696.14 0.01,0 0.01,0 0,0 0.01,0.01 0.01,0 0,0 0.01,0 0.01,0 0,0.01 0.01,0 0.02,0 0.01,0 0.02,0.01 0.02,0 0.02,0 0.02,0 0.01,0 0.02,0 0.02,0 0.02,0 0.02,0 c 0.28,0 0.37,-0.14 0.37,-0.63 v -2.46 c 0,-0.57 -0.11,-0.71 -0.61,-0.75 v -0.15 h 2.1 v 0.15 c -0.5,0.04 -0.65,0.16 -0.65,0.52 v 2.79 c 0.47,0.45 0.69,0.56 1.02,0.56 0.49,0 0.73,-0.3 0.73,-0.96 v -2.08 c 0,-0.62 -0.13,-0.79 -0.63,-0.83 v -0.15 h 2.07 v 0.15 c -0.49,0.05 -0.6,0.17 -0.6,0.66 v 2.27 c 0,0.93 -0.44,1.49 -1.18,1.49 -0.46,0 -0.77,-0.17 -1.44,-0.8 v 0.78 l -0.07,0.02 c -0.49,-0.18 -0.83,-0.29 -1.38,-0.45 z"
         inkscape:connector-curvature="0"
         style="fill:#000000;stroke-width:0" /><path
         id="path20807"
         d="m 420.81,696.65 h -1 v 1.15 c 0,0.1 -0.01,0.13 -0.07,0.13 -0.07,-0.09 -0.13,-0.18 -0.2,-0.27 -0.38,-0.55 -0.81,-1.03 -0.96,-1.07 -0.11,-0.07 -0.17,-0.14 -0.17,-0.19 0,-0.03 0.01,-0.05 0.04,-0.07 h 0.52 v -2.99 c 0,-0.83 0.3,-1.26 0.89,-1.26 0.49,0 0.87,0.24 1.19,0.76 l -0.13,0.11 c -0.21,-0.25 -0.37,-0.35 -0.59,-0.35 -0.37,0 -0.52,0.27 -0.52,0.89 v 2.84 h 1 z"
         inkscape:connector-curvature="0"
         style="fill:#000000;stroke-width:0" /><path
         id="path20809"
         d="m 425.45,692.84 -0.02,-0.02 -0.02,-0.01 -0.01,-0.01 -0.02,-0.01 -0.01,-0.01 -0.02,-0.01 -0.01,-0.01 -0.01,-0.01 -0.02,-0.01 -0.01,-0.01 -0.02,-0.01 -0.01,0 -0.01,-0.01 -0.02,-0.01 -0.01,0 -0.01,-0.01 -0.01,-0.01 -0.02,0 -0.01,0 -0.01,-0.01 -0.02,0 -0.01,-0.01 -0.01,0 -0.02,0 -0.02,-0.01 -0.03,0 -0.03,0 -0.02,0 c -0.23,0 -0.3,0.14 -0.3,0.57 v 1.94 c 0,0.52 -0.05,0.81 -0.2,1.04 -0.22,0.36 -0.65,0.55 -1.23,0.55 -0.94,0 -1.68,-0.49 -1.68,-1.11 0,-0.23 0.2,-0.43 0.43,-0.43 0.24,0 0.45,0.2 0.45,0.42 0,0.04 -0.01,0.09 -0.02,0.16 -0.02,0.09 -0.03,0.17 -0.03,0.24 0,0.26 0.32,0.48 0.72,0.48 0.48,0 0.75,-0.29 0.75,-0.82 v -0.61 -0.24 -1.44 c 0,-0.31 -0.05,-0.39 -0.26,-0.51 -0.24,-0.14 -0.51,-0.23 -0.72,-0.23 -0.35,0 -0.63,0.34 -0.63,0.76 v 0.04 c 0,0.59 0.41,0.95 1.61,1.38 v 0.24 c -1.53,-0.61 -1.7,-0.69 -2.13,-1.07 -0.22,-0.2 -0.35,-0.54 -0.35,-0.86 0,-0.63 0.43,-1.07 1.04,-1.07 0.44,0 0.84,0.21 1.45,0.73 0.05,-0.52 0.23,-0.73 0.64,-0.73 0.34,0 0.55,0.12 0.9,0.5 z"
         inkscape:connector-curvature="0"
         style="fill:#000000;stroke-width:0" /><path
         id="path20811"
         d="M 428.01,696.65 H 427 v 1.15 c 0,0.1 -0.01,0.13 -0.07,0.13 -0.07,-0.09 -0.13,-0.18 -0.2,-0.27 -0.37,-0.55 -0.8,-1.03 -0.96,-1.07 -0.11,-0.07 -0.17,-0.14 -0.17,-0.19 0,-0.03 0.01,-0.05 0.04,-0.07 h 0.53 v -2.99 c 0,-0.83 0.29,-1.26 0.88,-1.26 0.49,0 0.87,0.24 1.2,0.76 l -0.13,0.11 c -0.21,-0.25 -0.38,-0.35 -0.6,-0.35 -0.37,0 -0.52,0.27 -0.52,0.89 v 2.84 h 1.01 z"
         inkscape:connector-curvature="0"
         style="fill:#000000;stroke-width:0" /><path
         id="path20813"
         d="m 429.98,696.75 -1.54,-0.55 v -0.15 l 0.08,0.02 c 0.12,0.02 0.25,0.02 0.34,0.02 0.24,0 0.32,-0.15 0.32,-0.59 v -2.31 c 0,-0.71 -0.09,-0.82 -0.78,-0.86 v -0.15 h 2.36 v 0.15 c -0.66,0.05 -0.74,0.15 -0.74,0.86 v 3.53 z"
         inkscape:connector-curvature="0"
         style="fill:#000000;stroke-width:0" /><path
         id="path20815"
         d="m 429.51,698.97 -0.02,0 -0.03,-0.01 -0.02,0 -0.03,0 -0.02,-0.01 -0.02,-0.01 -0.03,0 -0.02,-0.01 -0.02,-0.01 -0.02,-0.02 -0.02,-0.01 -0.02,-0.01 -0.02,-0.02 -0.02,-0.01 -0.02,-0.02 -0.02,-0.01 -0.01,-0.02 -0.02,-0.02 -0.01,-0.02 -0.02,-0.02 -0.01,-0.02 -0.01,-0.02 -0.01,-0.02 -0.01,-0.02 -0.01,-0.03 -0.01,-0.02 -0.01,-0.02 0,-0.03 -0.01,-0.02 0,-0.03 0,-0.03 0,-0.02 c 0,-0.28 0.21,-0.51 0.49,-0.51 0.29,0 0.52,0.22 0.52,0.51 0,0.28 -0.23,0.51 -0.52,0.51 z"
         inkscape:connector-curvature="0"
         style="fill:#000000;stroke-width:0" /><path
         id="path20817"
         d="m 433.5,696.75 -0.12,0 -0.12,-0.01 -0.12,-0.01 -0.11,-0.02 -0.11,-0.03 -0.11,-0.03 -0.1,-0.03 -0.1,-0.04 -0.1,-0.04 -0.1,-0.05 -0.09,-0.06 -0.09,-0.05 -0.08,-0.07 -0.08,-0.06 -0.08,-0.07 -0.08,-0.08 -0.07,-0.08 -0.07,-0.08 -0.06,-0.09 -0.06,-0.09 -0.05,-0.09 -0.05,-0.1 -0.05,-0.1 -0.04,-0.1 -0.04,-0.11 -0.03,-0.11 -0.03,-0.11 -0.02,-0.12 -0.02,-0.12 -0.01,-0.12 -0.01,-0.13 0,-0.12 c 0,-1.34 0.92,-2.35 2.18,-2.35 l 0.12,0.28 c -0.39,0 -0.76,0.24 -0.97,0.64 -0.28,0.51 -0.44,1.21 -0.44,1.91 0,0.95 0.47,1.56 1.18,1.56 h 0 c 0.83,0 1.42,-0.95 1.42,-2.31 0,-1.13 -0.45,-1.8 -1.19,-1.8 l -0.12,-0.28 c 1.25,0 2.21,1.06 2.21,2.43 0,1.3 -0.92,2.24 -2.19,2.24 z"
         inkscape:connector-curvature="0"
         style="fill:#000000;stroke-width:0" /><path
         id="path20819"
         d="m 436.15,696.14 0.01,0 0,0 0.01,0 0,0.01 0.01,0 0.01,0 0,0 0.01,0 0.01,0.01 0.01,0 0.01,0 0.02,0 0.02,0.01 0.01,0 0.02,0 0.02,0 0.02,0 0.02,0 0.02,0 0.02,0 0.02,0 c 0.28,0 0.37,-0.14 0.37,-0.63 v -2.46 c 0,-0.57 -0.11,-0.71 -0.62,-0.75 v -0.15 h 2.11 v 0.15 c -0.51,0.04 -0.66,0.16 -0.66,0.52 v 2.79 c 0.48,0.45 0.7,0.56 1.03,0.56 0.49,0 0.72,-0.3 0.72,-0.96 v -2.08 c 0,-0.62 -0.13,-0.79 -0.62,-0.83 v -0.15 h 2.07 v 0.15 c -0.49,0.05 -0.61,0.17 -0.61,0.66 v 2.27 c 0,0.93 -0.44,1.49 -1.17,1.49 -0.46,0 -0.77,-0.17 -1.45,-0.8 v 0.78 l -0.07,0.02 c -0.48,-0.18 -0.82,-0.29 -1.37,-0.45 z"
         inkscape:connector-curvature="0"
         style="fill:#000000;stroke-width:0" /><path
         id="path20821"
         d="m 445.95,696.75 -0.12,0 -0.12,-0.01 -0.11,-0.01 -0.12,-0.02 -0.11,-0.03 -0.1,-0.03 -0.11,-0.03 -0.1,-0.04 -0.1,-0.04 -0.09,-0.05 -0.1,-0.06 -0.08,-0.05 -0.09,-0.07 -0.08,-0.06 -0.08,-0.07 -0.07,-0.08 -0.08,-0.08 -0.06,-0.08 -0.07,-0.09 -0.05,-0.09 -0.06,-0.09 -0.05,-0.1 -0.05,-0.1 -0.04,-0.1 -0.03,-0.11 -0.04,-0.11 -0.02,-0.11 -0.03,-0.12 -0.02,-0.12 -0.01,-0.12 -0.01,-0.13 0,-0.12 c 0,-1.34 0.93,-2.35 2.18,-2.35 l 0.12,0.28 c -0.39,0 -0.76,0.24 -0.97,0.64 -0.27,0.51 -0.43,1.21 -0.43,1.91 0,0.95 0.46,1.56 1.17,1.56 h 0 c 0.84,0 1.42,-0.95 1.42,-2.31 0,-1.13 -0.44,-1.8 -1.19,-1.8 l -0.12,-0.28 c 1.25,0 2.21,1.06 2.21,2.43 0,1.3 -0.92,2.24 -2.19,2.24 z"
         inkscape:connector-curvature="0"
         style="fill:#000000;stroke-width:0" /><path
         id="path20823"
         d="m 451.52,696.65 h -1.22 v 1.15 c 0,0.58 0.18,0.89 0.56,0.89 0.21,0 0.35,-0.1 0.53,-0.39 0.16,-0.26 0.28,-0.36 0.45,-0.36 0.23,0 0.42,0.18 0.42,0.41 0,0.36 -0.44,0.62 -1.04,0.62 -0.62,0 -1.14,-0.27 -1.4,-0.73 -0.26,-0.44 -0.34,-0.79 -0.35,-1.59 h -0.82 v -0.32 h 0.82 v -3.12 c 0,-0.72 -0.11,-0.84 -0.83,-0.88 v -0.15 h 2.59 v 0.15 c -0.82,0.03 -0.93,0.14 -0.93,0.88 v 3.12 h 1.22 z"
         inkscape:connector-curvature="0"
         style="fill:#000000;stroke-width:0" /><polygon
         id="polygon20825"
         points="454.59,694.46 459.69,694.46 459.69,695.01 454.59,695.01 "
         style="fill:#000000;stroke-width:0" /><polygon
         id="polygon20827"
         points="465.77,698.9 462.64,694.48 463.04,694.48 465.43,697.88 465.43,694.48 463.04,694.48 462.64,694.48 462.64,693.84 465.44,693.84 465.44,692.18 466.21,692.18 466.21,693.84 467.22,693.84 467.22,694.48 466.21,694.48 466.21,698.9 "
         style="fill:#000000;stroke-width:0" /><path
         id="path20829"
         d="m 471.97,698.76 h -3.68 l -0.58,-1.46 0.17,-0.08 c 0.42,0.67 0.6,0.8 1.15,0.8 h 2.16 l -1.97,-5.92 h 0.64 l 2.11,6.5 z"
         inkscape:connector-curvature="0"
         style="fill:#000000;stroke-width:0" /><path
         id="path20831"
         d="m 475.02,698.9 -0.06,0 -0.05,-0.01 -0.04,0 -0.05,0 -0.05,-0.01 -0.05,0 -0.05,-0.01 -0.04,-0.01 -0.05,0 -0.04,-0.01 -0.05,-0.01 -0.04,-0.02 -0.04,-0.01 -0.04,-0.01 -0.05,-0.02 -0.04,-0.01 -0.04,-0.02 -0.04,-0.02 -0.04,-0.01 -0.04,-0.02 -0.04,-0.02 -0.04,-0.03 -0.03,-0.02 -0.04,-0.02 -0.04,-0.03 -0.03,-0.02 -0.04,-0.03 -0.04,-0.03 -0.03,-0.03 -0.04,-0.03 -0.03,-0.03 -0.04,-0.03 c -0.57,-0.56 -0.95,-1.7 -0.95,-2.86 0,-1.08 0.33,-2.25 0.79,-2.8 0.37,-0.44 0.88,-0.68 1.46,-0.68 v 0.26 c -0.86,0 -1.3,1.06 -1.3,3.13 0,2.1 0.45,3.21 1.31,3.21 h 0 c 0.83,0 1.28,-1.12 1.28,-3.2 0,-2.08 -0.44,-3.14 -1.29,-3.14 v -0.26 c 0.5,0 0.93,0.17 1.29,0.52 0.58,0.54 0.95,1.7 0.95,2.9 0,2.04 -0.9,3.44 -2.2,3.44 z"
         inkscape:connector-curvature="0"
         style="fill:#000000;stroke-width:0" /><polygon
         id="polygon20833"
         points="480.85,695.46 485.95,695.46 485.95,696.02 480.85,696.02 "
         style="fill:#000000;stroke-width:0" /><polygon
         id="polygon20835"
         points="480.85,693.44 485.95,693.44 485.95,694 480.85,694 "
         style="fill:#000000;stroke-width:0" /></g>    <g
       id="content"
       transform="matrix(1.2,0,0,-1.2,-311.34692,1699.4783)"
       xml:space="preserve"
       stroke="black"
       stroke-linecap="butt"
       stroke-linejoin="miter"
       stroke-miterlimit="10.433"
       stroke-dasharray="none"
       stroke-dashoffset="0"
       stroke-opacity="1"
       fill="none"
       fill-rule="evenodd"
       fill-opacity="1"
       font-style="normal"
       font-variant="normal"
       font-weight="normal"
       font-stretch="normal"
       font-size-adjust="none"
       letter-spacing="normal"
       word-spacing="normal"
       text-anchor="start"
       ns0:text="\\begin{align*}\n M &amp; = 505\\\\\nN &amp; = -470\n\\end{align*}"
       ns0:preamble="/home/sriranga/Desktop/Prism_BasicElectronics/preamble.tex"
       style="font-style:normal;font-variant:normal;font-weight:normal;font-stretch:normal;letter-spacing:normal;word-spacing:normal;text-anchor:start;fill:none;stroke:#000000;stroke-width:1;stroke-linecap:butt;stroke-linejoin:miter;stroke-miterlimit:10.43299961;stroke-opacity:1;stroke-dasharray:none;stroke-dashoffset:0"><path
         d="M383.3,713.61 H381.64 L378.29,708.71 L377.75,713.61 H375.95 V713.45 C376.44,713.42,376.68,713.31,376.68,713.09 C376.68,713.01,376.64,712.86,376.58,712.68 C376.56,712.64,376.53,712.53,376.49,712.38 C376.48,712.35,376.47,712.31,376.46,712.27 L375.41,708.58 C375.1,707.54,374.95,707.34,374.43,707.28 V707.12 H376.4 V707.28 C375.89,707.32,375.7,707.44,375.7,707.72 C375.7,707.82,375.74,708.08,375.79,708.25 L376.96,712.55 L377.57,707.12 H377.74 L381.49,712.7 L380.2,708.03 C380.04,707.5,379.85,707.35,379.2,707.28 V707.12 H381.92 V707.28 C381.24,707.34,381.15,707.4,381.15,707.71 C381.15,707.88,381.17,708.01,381.26,708.32 L382.48,712.72 C382.66,713.31,382.71,713.36,383.3,713.45 Z "
         stroke-width="0"
         fill="black"
         id="path21142" /><polygon
         points="391.79,710.4 391.79,710.96 386.69,710.96 386.69,710.4 "
         stroke-width="0"
         fill="black"
         id="polygon21144" /><polygon
         points="391.79,708.39 391.79,708.94 386.69,708.94 386.69,708.39 "
         stroke-width="0"
         fill="black"
         id="polygon21146" /><path
         d="M396.98,712.92 H398.93 C399.09,712.92,399.13,712.94,399.16,713.01 L399.54,713.89 L399.45,713.96 C399.3,713.75,399.2,713.7,398.99,713.7 H396.91 L395.83,711.35 C395.82,711.33,395.82,711.32,395.82,711.3 C395.82,711.25,395.86,711.22,395.94,711.22 C396.26,711.22,396.65,711.15,397.06,711.02 C398.21,710.65,398.73,710.04,398.73,709.05 C398.73,708.1,398.13,707.35,397.35,707.35 C397.15,707.35,396.98,707.42,396.68,707.64 C396.36,707.87,396.14,707.97,395.93,707.97 C395.64,707.97,395.5,707.85,395.5,707.6 C395.5,707.22,395.97,706.99,396.71,706.99 C397.55,706.99,398.27,707.25,398.76,707.76 C399.22,708.21,399.43,708.77,399.43,709.53 C399.43,710.24,399.24,710.7,398.74,711.2 C398.3,711.64,397.74,711.86,396.56,712.07 Z "
         stroke-width="0"
         fill="black"
         id="path21148" /><path
         d="M402.69,713.84 L402.64,713.84 L402.59,713.84 L402.54,713.84 L402.49,713.83 L402.44,713.83 L402.39,713.82 L402.35,713.82 L402.3,713.81 L402.26,713.8 L402.21,713.79 L402.17,713.78 L402.12,713.77 L402.08,713.76 L402.04,713.74 L402,713.73 L401.96,713.71 L401.91,713.7 L401.87,713.68 L401.83,713.66 L401.8,713.64 L401.76,713.62 L401.72,713.6 L401.68,713.57 L401.64,713.55 L401.61,713.53 L401.57,713.5 L401.53,713.47 L401.5,713.45 L401.46,713.42 L401.43,713.39 L401.39,713.36 L401.36,713.32 C400.78,712.77,400.4,711.62,400.4,710.46 C400.4,709.38,400.73,708.22,401.2,707.66 C401.57,707.22,402.07,706.99,402.65,706.99 V707.24 C401.79,707.24,401.36,708.31,401.36,710.37 C401.36,712.48,401.8,713.58,402.66,713.58 H402.66 C403.49,713.58,403.94,712.46,403.94,710.38 C403.94,708.31,403.51,707.24,402.65,707.24 V706.99 C403.16,706.99,403.58,707.16,403.94,707.5 C404.52,708.05,404.9,709.2,404.9,710.4 C404.9,712.44,403.99,713.84,402.69,713.84 Z "
         stroke-width="0"
         fill="black"
         id="path21150" /><path
         d="M406.94,712.92 H408.89 C409.05,712.92,409.09,712.94,409.12,713.01 L409.5,713.89 L409.41,713.96 C409.26,713.75,409.16,713.7,408.95,713.7 H406.88 L405.79,711.35 C405.78,711.33,405.78,711.32,405.78,711.3 C405.78,711.25,405.82,711.22,405.9,711.22 C406.22,711.22,406.62,711.15,407.02,711.02 C408.17,710.65,408.7,710.04,408.7,709.05 C408.7,708.1,408.09,707.35,407.31,707.35 C407.11,707.35,406.94,707.42,406.65,707.64 C406.33,707.87,406.1,707.97,405.89,707.97 C405.6,707.97,405.46,707.85,405.46,707.6 C405.46,707.22,405.93,706.99,406.68,706.99 C407.51,706.99,408.23,707.25,408.73,707.76 C409.18,708.21,409.39,708.77,409.39,709.53 C409.39,710.24,409.2,710.7,408.7,711.2 C408.27,711.64,407.7,711.86,406.53,712.07 Z "
         stroke-width="0"
         fill="black"
         id="path21152" /><path
         d="M383.3,698.67 H381.32 V698.51 C381.89,698.46,382.02,698.36,382.02,698 C382.02,697.88,382,697.76,381.93,697.57 C381.92,697.53,381.91,697.5,381.91,697.49 L380.89,693.71 L378.82,698.67 H377.22 V698.51 C377.69,698.47,377.9,698.34,378.08,697.95 L376.89,693.81 C376.52,692.54,376.43,692.42,375.87,692.34 V692.18 H377.84 V692.34 C377.33,692.38,377.14,692.49,377.14,692.77 C377.14,692.9,377.17,693.09,377.23,693.3 L378.36,697.5 L380.65,692.03 H380.83 L382.27,697.03 C382.63,698.31,382.67,698.37,383.3,698.51 Z "
         stroke-width="0"
         fill="black"
         id="path21154" /><polygon
         points="391.79,695.46 391.79,696.02 386.69,696.02 386.69,695.46 "
         stroke-width="0"
         fill="black"
         id="polygon21156" /><polygon
         points="391.79,693.44 391.79,694 386.69,694 386.69,693.44 "
         stroke-width="0"
         fill="black"
         id="polygon21158" /><polygon
         points="400.89,694.46 400.89,695.01 395.8,695.01 395.8,694.46 "
         stroke-width="0"
         fill="black"
         id="polygon21160" /><polygon
         points="406.21,694.48 405.2,694.48 405.2,698.9 404.76,698.9 401.64,694.48 402.03,694.48 404.42,697.88 404.42,694.48 402.03,694.48 401.64,694.48 401.64,693.84 404.43,693.84 404.43,692.18 405.2,692.18 405.2,693.84 406.21,693.84 "
         stroke-width="0"
         fill="black"
         id="polygon21162" /><path
         d="M410.96,698.76 H407.28 L406.7,697.3 L406.87,697.22 C407.29,697.89,407.47,698.02,408.02,698.02 H410.18 L408.21,692.1 H408.86 L410.96,698.6 Z "
         stroke-width="0"
         fill="black"
         id="path21164" /><path
         d="M414.01,698.9 L413.96,698.9 L413.91,698.89 L413.86,698.89 L413.81,698.89 L413.76,698.88 L413.71,698.88 L413.67,698.87 L413.62,698.86 L413.57,698.86 L413.53,698.85 L413.48,698.84 L413.44,698.82 L413.4,698.81 L413.36,698.8 L413.31,698.78 L413.27,698.77 L413.23,698.75 L413.19,698.73 L413.15,698.72 L413.11,698.7 L413.07,698.68 L413.04,698.65 L413,698.63 L412.96,698.61 L412.92,698.58 L412.89,698.56 L412.85,698.53 L412.81,698.5 L412.78,698.47 L412.74,698.44 L412.71,698.41 L412.67,698.38 C412.1,697.82,411.72,696.68,411.72,695.52 C411.72,694.44,412.05,693.27,412.51,692.72 C412.88,692.28,413.39,692.04,413.97,692.04 V692.3 C413.11,692.3,412.67,693.36,412.67,695.43 C412.67,697.53,413.12,698.64,413.98,698.64 H413.98 C414.81,698.64,415.26,697.52,415.26,695.44 C415.26,693.36,414.82,692.3,413.97,692.3 V692.04 C414.47,692.04,414.9,692.21,415.26,692.56 C415.84,693.1,416.21,694.26,416.21,695.46 C416.21,697.5,415.31,698.9,414.01,698.9 Z "
         stroke-width="0"
         fill="black"
         id="path21166" /></g>    <g
       style="font-style:normal;font-variant:normal;font-weight:normal;font-stretch:normal;letter-spacing:normal;word-spacing:normal;text-anchor:start;fill:none;stroke:#000000;stroke-width:1;stroke-linecap:butt;stroke-linejoin:miter;stroke-miterlimit:10.43299961;stroke-opacity:1;stroke-dasharray:none;stroke-dashoffset:0"
       ns0:preamble="/home/sriranga/Desktop/Prism_BasicElectronics/preamble.tex"
       ns0:text="$\\therefore $~ Answer~ $= (0000100011)_2=35$ "
       word-spacing="normal"
       letter-spacing="normal"
       font-size-adjust="none"
       font-stretch="normal"
       font-weight="normal"
       font-variant="normal"
       font-style="normal"
       stroke-miterlimit="10.433"
       xml:space="preserve"
       transform="matrix(1.2,0,0,-1.2,-74.344642,1800.555)"
       id="g21459"><path
         id="path21461"
         d="m 227.27,711.21 0,0.02 0,0.03 0,0.03 -0.01,0.02 0,0.03 -0.01,0.02 -0.01,0.03 -0.01,0.02 -0.01,0.02 -0.01,0.03 -0.01,0.02 -0.02,0.02 -0.01,0.02 -0.02,0.02 -0.02,0.02 -0.01,0.02 -0.02,0.02 -0.02,0.01 -0.02,0.02 -0.02,0.01 -0.02,0.02 -0.02,0.01 -0.03,0.01 -0.02,0.01 -0.02,0.01 -0.03,0.01 -0.02,0.01 -0.03,0 -0.03,0.01 -0.02,0 -0.03,0 -0.03,0 c -0.28,0 -0.52,-0.23 -0.52,-0.52 0,-0.29 0.24,-0.53 0.52,-0.53 0.28,0 0.53,0.23 0.53,0.53 z"
         inkscape:connector-curvature="0"
         style="fill:#000000;stroke-width:0" /><path
         id="path21463"
         d="m 229.76,706.91 0,0.02 0,0.03 -0.01,0.03 0,0.02 -0.01,0.03 0,0.02 -0.01,0.03 -0.01,0.02 -0.01,0.02 -0.01,0.03 -0.02,0.02 -0.01,0.02 -0.02,0.02 -0.01,0.02 -0.02,0.02 -0.02,0.02 -0.01,0.02 -0.02,0.01 -0.02,0.02 -0.02,0.01 -0.03,0.02 -0.02,0.01 -0.02,0.01 -0.02,0.01 -0.03,0.01 -0.02,0.01 -0.03,0.01 -0.02,0 -0.03,0.01 -0.02,0 -0.03,0 -0.03,0 c -0.29,0 -0.52,-0.24 -0.52,-0.52 0,-0.29 0.23,-0.53 0.52,-0.53 0.29,0 0.53,0.24 0.53,0.53 z"
         inkscape:connector-curvature="0"
         style="fill:#000000;stroke-width:0" /><path
         id="path21465"
         d="m 224.79,706.91 -0.01,0.02 0,0.03 0,0.03 -0.01,0.02 0,0.03 -0.01,0.02 -0.01,0.03 -0.01,0.02 -0.01,0.02 -0.01,0.03 -0.01,0.02 -0.02,0.02 -0.01,0.02 -0.02,0.02 -0.01,0.02 -0.02,0.02 -0.02,0.02 -0.02,0.01 -0.02,0.02 -0.02,0.01 -0.02,0.02 -0.02,0.01 -0.02,0.01 -0.03,0.01 -0.02,0.01 -0.03,0.01 -0.02,0.01 -0.03,0 -0.02,0.01 -0.03,0 -0.03,0 -0.02,0 c -0.29,0 -0.53,-0.24 -0.53,-0.52 0,-0.29 0.24,-0.53 0.53,-0.53 0.29,0 0.53,0.24 0.53,0.53 z"
         inkscape:connector-curvature="0"
         style="fill:#000000;stroke-width:0" /><path
         id="path21467"
         d="m 242.08,707.31 -0.04,0.01 -0.04,0 -0.04,0 -0.03,0.01 -0.04,0.01 -0.03,0 -0.03,0.01 -0.03,0.01 -0.03,0.01 -0.03,0.01 -0.02,0.01 -0.03,0.02 -0.02,0.01 -0.03,0.02 -0.02,0.02 -0.03,0.02 -0.02,0.03 -0.02,0.02 -0.03,0.03 -0.02,0.03 -0.02,0.03 -0.02,0.04 -0.03,0.04 -0.02,0.04 -0.03,0.04 -0.02,0.05 -0.03,0.05 -0.03,0.05 -0.02,0.06 -0.03,0.06 -0.02,0.03 -0.01,0.03 -0.02,0.03 -0.02,0.04 -2.47,5.64 h -0.2 l -2.07,-4.88 c -0.64,-1.45 -0.76,-1.61 -1.24,-1.63 v -0.19 h 1.97 v 0.19 c -0.47,0 -0.67,0.13 -0.67,0.41 0,0.12 0.03,0.26 0.08,0.39 l 0.46,1.16 h 2.6 l -0.14,0.41 h -2.3 l 1.15,2.73 1.15,-2.73 0.14,-0.41 0.41,-0.95 c 0.12,-0.27 0.19,-0.53 0.19,-0.67 0,-0.25 -0.17,-0.33 -0.7,-0.34 v -0.19 h 2.54 z"
         inkscape:connector-curvature="0"
         style="fill:#000000;stroke-width:0" /><path
         id="path21469"
         d="m 242.41,711.08 0,0 0.01,0 0,0.01 0.01,0 0.01,0 0,0 0.01,0.01 0.01,0 0.01,0 0,0 0.02,0 0.02,0.01 0.01,0 0.02,0 0.02,0 0.02,0 0.02,0.01 0.02,0 0.02,0 0.02,0 0.02,0 c 0.27,0 0.36,-0.15 0.36,-0.64 v -2.46 c 0,-0.57 -0.11,-0.71 -0.61,-0.75 v -0.15 h 2.11 v 0.15 c -0.51,0.04 -0.66,0.16 -0.66,0.52 v 2.79 c 0.48,0.45 0.7,0.57 1.02,0.57 0.49,0 0.73,-0.31 0.73,-0.97 v -2.07 c 0,-0.63 -0.13,-0.8 -0.63,-0.84 v -0.15 h 2.07 v 0.15 c -0.48,0.05 -0.6,0.17 -0.6,0.66 v 2.27 c 0,0.94 -0.44,1.5 -1.18,1.5 -0.45,0 -0.76,-0.17 -1.44,-0.81 v 0.78 l -0.07,0.03 c -0.49,-0.18 -0.83,-0.29 -1.37,-0.45 z"
         inkscape:connector-curvature="0"
         style="fill:#000000;stroke-width:0" /><path
         id="path21471"
         d="m 250.36,710.24 -0.04,1.35 h -0.11 l -0.02,-0.01 c -0.09,-0.07 -0.09,-0.08 -0.14,-0.08 -0.06,0 -0.15,0.02 -0.26,0.07 -0.22,0.08 -0.44,0.11 -0.7,0.11 -0.79,0 -1.35,-0.5 -1.35,-1.22 0,-0.55 0.31,-0.95 1.16,-1.43 l 0.58,-0.33 c 0.35,-0.19 0.51,-0.43 0.51,-0.74 0,-0.44 -0.31,-0.72 -0.82,-0.72 -0.34,0 -0.65,0.13 -0.84,0.35 -0.21,0.25 -0.29,0.48 -0.42,1.05 h -0.16 v -1.55 h 0.13 c 0.07,0.09 0.11,0.11 0.22,0.11 0.09,0 0.23,-0.02 0.46,-0.08 0.28,-0.05 0.55,-0.09 0.73,-0.09 0.76,0 1.4,0.57 1.4,1.27 0,0.49 -0.24,0.82 -0.83,1.18 l -1.08,0.63 c -0.28,0.16 -0.43,0.41 -0.43,0.68 0,0.4 0.31,0.68 0.77,0.68 0.57,0 0.87,-0.34 1.09,-1.23 z"
         inkscape:connector-curvature="0"
         style="fill:#000000;stroke-width:0" /><path
         id="path21473"
         d="m 256.79,711.59 v -0.14 c 0.33,-0.07 0.43,-0.14 0.43,-0.31 0,-0.15 -0.06,-0.39 -0.17,-0.66 l -0.89,-2.2 -0.84,2.22 c -0.17,0.46 -0.17,0.46 -0.17,0.59 0,0.22 0.11,0.29 0.58,0.36 v 0.14 h -2.02 v -0.14 c 0.37,-0.04 0.49,-0.15 0.69,-0.69 0.07,-0.19 0.14,-0.38 0.2,-0.56 l -0.91,-1.97 -0.98,2.59 c -0.04,0.1 -0.06,0.2 -0.06,0.3 0,0.21 0.12,0.29 0.45,0.33 v 0.14 h -1.79 v -0.14 c 0.23,-0.02 0.31,-0.12 0.53,-0.63 l 1.34,-3.4 c 0.12,-0.3 0.2,-0.43 0.26,-0.43 0.05,0 0.13,0.12 0.25,0.38 l 1.12,2.39 0.9,-2.35 c 0.14,-0.36 0.18,-0.42 0.24,-0.42 0.07,0 0.12,0.09 0.28,0.48 l 1.37,3.44 c 0.18,0.42 0.21,0.47 0.41,0.54 v 0.14 z"
         inkscape:connector-curvature="0"
         style="fill:#000000;stroke-width:0" /><path
         id="path21475"
         d="m 262.36,708.75 -0.05,-0.07 -0.04,-0.06 -0.05,-0.07 -0.04,-0.06 -0.04,-0.06 -0.05,-0.05 -0.04,-0.06 -0.05,-0.05 -0.04,-0.05 -0.04,-0.04 -0.05,-0.05 -0.04,-0.04 -0.05,-0.04 -0.04,-0.03 -0.05,-0.04 -0.04,-0.03 -0.05,-0.03 -0.05,-0.03 -0.05,-0.02 -0.04,-0.03 -0.05,-0.02 -0.05,-0.02 -0.05,-0.02 -0.05,-0.01 -0.05,-0.02 -0.06,-0.01 -0.05,-0.01 -0.06,-0.01 -0.05,0 -0.06,-0.01 -0.06,0 -0.05,0 c -0.57,0 -1,0.29 -1.29,0.86 -0.18,0.37 -0.25,0.7 -0.27,1.31 l 0.02,0.32 c 0.11,0.77 0.45,1.14 1.06,1.14 0.6,0 0.84,-0.28 0.97,-1.14 h -2.03 l -0.02,-0.32 h 3.07 c -0.08,0.64 -0.18,0.93 -0.43,1.25 -0.3,0.36 -0.76,0.57 -1.27,0.57 -0.5,0 -0.97,-0.18 -1.35,-0.52 -0.46,-0.41 -0.73,-1.11 -0.73,-1.93 0,-1.37 0.71,-2.22 1.86,-2.22 0.94,0 1.69,0.58 2.11,1.65 z"
         inkscape:connector-curvature="0"
         style="fill:#000000;stroke-width:0" /><path
         id="path21477"
         d="m 262.79,711 0.01,0 0.02,0 0.01,0.01 0.01,0 0.02,0 0.03,0.01 0.02,0 0.02,0 0.02,0.01 0.02,0 0.02,0 0.02,0 0.02,0.01 0.02,0 0.02,0 0.03,0 0.02,0 0.02,0 c 0.25,0 0.34,-0.16 0.34,-0.6 v -2.48 c 0,-0.5 -0.07,-0.57 -0.71,-0.69 v -0.15 h 2.39 v 0.15 c -0.68,0.03 -0.85,0.18 -0.85,0.75 v 2.23 c 0,0.32 0.43,0.82 0.7,0.82 0.06,0 0.15,-0.05 0.26,-0.15 0.16,-0.14 0.27,-0.2 0.4,-0.2 0.23,0 0.38,0.17 0.38,0.45 0,0.33 -0.2,0.53 -0.54,0.53 -0.42,0 -0.71,-0.23 -1.2,-0.94 v 0.91 l -0.05,0.03 c -0.52,-0.22 -0.88,-0.35 -1.47,-0.54 z"
         inkscape:connector-curvature="0"
         style="fill:#000000;stroke-width:0" /><polygon
         id="polygon21479"
         points="271.64,710.4 276.73,710.4 276.73,710.96 271.64,710.96 "
         style="fill:#000000;stroke-width:0" /><polygon
         id="polygon21481"
         points="271.64,708.39 276.73,708.39 276.73,708.94 271.64,708.94 "
         style="fill:#000000;stroke-width:0" /><path
         id="path21483"
         d="m 283.06,713.84 -0.07,-0.04 -0.06,-0.05 -0.07,-0.04 -0.06,-0.04 -0.06,-0.04 -0.05,-0.04 -0.06,-0.04 -0.05,-0.03 -0.05,-0.04 -0.05,-0.04 -0.05,-0.03 -0.04,-0.04 -0.05,-0.03 -0.04,-0.04 -0.08,-0.06 -0.08,-0.07 -0.07,-0.07 -0.07,-0.07 -0.07,-0.07 -0.07,-0.07 -0.07,-0.08 -0.07,-0.08 -0.06,-0.08 c -0.71,-0.87 -1.06,-1.86 -1.06,-3.02 0,-1.26 0.37,-2.24 1.25,-3.25 0.4,-0.48 0.66,-0.7 1.18,-1.01 l 0.12,0.16 c -0.8,0.62 -1.08,0.97 -1.35,1.71 -0.23,0.67 -0.34,1.42 -0.34,2.42 0,1.04 0.13,1.86 0.4,2.47 0.27,0.62 0.57,0.97 1.29,1.55 z"
         inkscape:connector-curvature="0"
         style="fill:#000000;stroke-width:0" /><path
         id="path21485"
         d="m 285.97,713.84 -0.05,0 -0.05,0 -0.05,0 -0.05,-0.01 -0.05,0 -0.05,-0.01 -0.04,0 -0.05,-0.01 -0.04,-0.01 -0.05,-0.01 -0.04,-0.01 -0.05,-0.01 -0.04,-0.01 -0.04,-0.02 -0.04,-0.01 -0.05,-0.02 -0.04,-0.01 -0.04,-0.02 -0.04,-0.02 -0.04,-0.02 -0.03,-0.02 -0.04,-0.02 -0.04,-0.03 -0.04,-0.02 -0.04,-0.02 -0.03,-0.03 -0.04,-0.03 -0.03,-0.02 -0.04,-0.03 -0.04,-0.03 -0.03,-0.03 -0.03,-0.04 c -0.58,-0.55 -0.96,-1.7 -0.96,-2.86 0,-1.08 0.33,-2.24 0.8,-2.8 0.36,-0.44 0.87,-0.67 1.45,-0.67 v 0.25 c -0.86,0 -1.29,1.07 -1.29,3.13 0,2.11 0.44,3.21 1.3,3.21 h 0 c 0.83,0 1.28,-1.12 1.28,-3.2 0,-2.07 -0.44,-3.14 -1.29,-3.14 v -0.25 c 0.51,0 0.93,0.17 1.29,0.51 0.58,0.55 0.96,1.7 0.96,2.9 0,2.04 -0.91,3.44 -2.21,3.44 z"
         inkscape:connector-curvature="0"
         style="fill:#000000;stroke-width:0" /><path
         id="path21487"
         d="m 290.95,713.84 -0.05,0 -0.05,0 -0.05,0 -0.05,-0.01 -0.05,0 -0.04,-0.01 -0.05,0 -0.05,-0.01 -0.04,-0.01 -0.05,-0.01 -0.04,-0.01 -0.05,-0.01 -0.04,-0.01 -0.04,-0.02 -0.04,-0.01 -0.04,-0.02 -0.04,-0.01 -0.04,-0.02 -0.04,-0.02 -0.04,-0.02 -0.04,-0.02 -0.04,-0.02 -0.04,-0.03 -0.04,-0.02 -0.03,-0.02 -0.04,-0.03 -0.04,-0.03 -0.03,-0.02 -0.04,-0.03 -0.03,-0.03 -0.04,-0.03 -0.03,-0.04 c -0.58,-0.55 -0.96,-1.7 -0.96,-2.86 0,-1.08 0.33,-2.24 0.8,-2.8 0.37,-0.44 0.87,-0.67 1.45,-0.67 v 0.25 c -0.86,0 -1.29,1.07 -1.29,3.13 0,2.11 0.44,3.21 1.3,3.21 h 0 c 0.84,0 1.28,-1.12 1.28,-3.2 0,-2.07 -0.43,-3.14 -1.29,-3.14 v -0.25 c 0.51,0 0.94,0.17 1.29,0.51 0.58,0.55 0.96,1.7 0.96,2.9 0,2.04 -0.91,3.44 -2.21,3.44 z"
         inkscape:connector-curvature="0"
         style="fill:#000000;stroke-width:0" /><path
         id="path21489"
         d="m 295.93,713.84 -0.05,0 -0.05,0 -0.05,0 -0.05,-0.01 -0.05,0 -0.04,-0.01 -0.05,0 -0.05,-0.01 -0.04,-0.01 -0.05,-0.01 -0.04,-0.01 -0.04,-0.01 -0.05,-0.01 -0.04,-0.02 -0.04,-0.01 -0.04,-0.02 -0.04,-0.01 -0.04,-0.02 -0.04,-0.02 -0.04,-0.02 -0.04,-0.02 -0.04,-0.02 -0.04,-0.03 -0.04,-0.02 -0.03,-0.02 -0.04,-0.03 -0.04,-0.03 -0.03,-0.02 -0.04,-0.03 -0.03,-0.03 -0.04,-0.03 -0.03,-0.04 c -0.58,-0.55 -0.96,-1.7 -0.96,-2.86 0,-1.08 0.33,-2.24 0.8,-2.8 0.37,-0.44 0.87,-0.67 1.45,-0.67 v 0.25 c -0.85,0 -1.29,1.07 -1.29,3.13 0,2.11 0.45,3.21 1.3,3.21 h 0 c 0.84,0 1.28,-1.12 1.28,-3.2 0,-2.07 -0.43,-3.14 -1.29,-3.14 v -0.25 c 0.51,0 0.94,0.17 1.29,0.51 0.58,0.55 0.96,1.7 0.96,2.9 0,2.04 -0.91,3.44 -2.21,3.44 z"
         inkscape:connector-curvature="0"
         style="fill:#000000;stroke-width:0" /><path
         id="path21491"
         d="m 300.91,713.84 -0.05,0 -0.05,0 -0.05,0 -0.05,-0.01 -0.04,0 -0.05,-0.01 -0.05,0 -0.04,-0.01 -0.05,-0.01 -0.05,-0.01 -0.04,-0.01 -0.04,-0.01 -0.05,-0.01 -0.04,-0.02 -0.04,-0.01 -0.04,-0.02 -0.04,-0.01 -0.04,-0.02 -0.04,-0.02 -0.04,-0.02 -0.04,-0.02 -0.04,-0.02 -0.04,-0.03 -0.03,-0.02 -0.04,-0.02 -0.04,-0.03 -0.03,-0.03 -0.04,-0.02 -0.04,-0.03 -0.03,-0.03 -0.04,-0.03 -0.03,-0.04 c -0.58,-0.55 -0.96,-1.7 -0.96,-2.86 0,-1.08 0.33,-2.24 0.8,-2.8 0.37,-0.44 0.88,-0.67 1.45,-0.67 v 0.25 c -0.85,0 -1.29,1.07 -1.29,3.13 0,2.11 0.45,3.21 1.3,3.21 h 0 c 0.84,0 1.29,-1.12 1.29,-3.2 0,-2.07 -0.44,-3.14 -1.3,-3.14 v -0.25 c 0.51,0 0.94,0.17 1.3,0.51 0.57,0.55 0.95,1.7 0.95,2.9 0,2.04 -0.9,3.44 -2.21,3.44 z"
         inkscape:connector-curvature="0"
         style="fill:#000000;stroke-width:0" /><path
         id="path21493"
         d="m 306.26,713.84 -1.79,-0.9 v -0.14 c 0.12,0.05 0.23,0.09 0.27,0.11 0.18,0.07 0.35,0.11 0.45,0.11 0.21,0 0.3,-0.15 0.3,-0.47 v -4.5 c 0,-0.33 -0.08,-0.56 -0.24,-0.65 -0.15,-0.09 -0.29,-0.12 -0.71,-0.13 v -0.15 h 2.75 v 0.15 c -0.79,0.01 -0.95,0.11 -0.95,0.59 v 5.96 z"
         inkscape:connector-curvature="0"
         style="fill:#000000;stroke-width:0" /><path
         id="path21495"
         d="m 310.88,713.84 -0.06,0 -0.05,0 -0.05,0 -0.04,-0.01 -0.05,0 -0.05,-0.01 -0.05,0 -0.04,-0.01 -0.05,-0.01 -0.04,-0.01 -0.05,-0.01 -0.04,-0.01 -0.04,-0.01 -0.05,-0.02 -0.04,-0.01 -0.04,-0.02 -0.04,-0.01 -0.04,-0.02 -0.04,-0.02 -0.04,-0.02 -0.04,-0.02 -0.04,-0.02 -0.03,-0.03 -0.04,-0.02 -0.04,-0.02 -0.04,-0.03 -0.03,-0.03 -0.04,-0.02 -0.03,-0.03 -0.04,-0.03 -0.03,-0.03 -0.04,-0.04 c -0.58,-0.55 -0.95,-1.7 -0.95,-2.86 0,-1.08 0.33,-2.24 0.79,-2.8 0.37,-0.44 0.88,-0.67 1.45,-0.67 v 0.25 c -0.85,0 -1.29,1.07 -1.29,3.13 0,2.11 0.45,3.21 1.31,3.21 h 0 c 0.83,0 1.28,-1.12 1.28,-3.2 0,-2.07 -0.44,-3.14 -1.3,-3.14 v -0.25 c 0.51,0 0.94,0.17 1.3,0.51 0.58,0.55 0.95,1.7 0.95,2.9 0,2.04 -0.9,3.44 -2.2,3.44 z"
         inkscape:connector-curvature="0"
         style="fill:#000000;stroke-width:0" /><path
         id="path21497"
         d="m 315.86,713.84 -0.05,0 -0.06,0 -0.04,0 -0.05,-0.01 -0.05,0 -0.05,-0.01 -0.05,0 -0.04,-0.01 -0.05,-0.01 -0.04,-0.01 -0.05,-0.01 -0.04,-0.01 -0.04,-0.01 -0.04,-0.02 -0.05,-0.01 -0.04,-0.02 -0.04,-0.01 -0.04,-0.02 -0.04,-0.02 -0.04,-0.02 -0.04,-0.02 -0.03,-0.02 -0.04,-0.03 -0.04,-0.02 -0.04,-0.02 -0.03,-0.03 -0.04,-0.03 -0.04,-0.02 -0.03,-0.03 -0.04,-0.03 -0.03,-0.03 -0.04,-0.04 c -0.57,-0.55 -0.95,-1.7 -0.95,-2.86 0,-1.08 0.33,-2.24 0.79,-2.8 0.37,-0.44 0.88,-0.67 1.46,-0.67 v 0.25 c -0.86,0 -1.3,1.07 -1.3,3.13 0,2.11 0.45,3.21 1.31,3.21 h 0 c 0.83,0 1.28,-1.12 1.28,-3.2 0,-2.07 -0.44,-3.14 -1.29,-3.14 v -0.25 c 0.5,0 0.93,0.17 1.29,0.51 0.58,0.55 0.96,1.7 0.96,2.9 0,2.04 -0.91,3.44 -2.21,3.44 z"
         inkscape:connector-curvature="0"
         style="fill:#000000;stroke-width:0" /><path
         id="path21499"
         d="m 320.84,713.84 -0.05,0 -0.05,0 -0.05,0 -0.05,-0.01 -0.05,0 -0.05,-0.01 -0.04,0 -0.05,-0.01 -0.05,-0.01 -0.04,-0.01 -0.04,-0.01 -0.05,-0.01 -0.04,-0.01 -0.04,-0.02 -0.04,-0.01 -0.05,-0.02 -0.04,-0.01 -0.04,-0.02 -0.04,-0.02 -0.04,-0.02 -0.04,-0.02 -0.03,-0.02 -0.04,-0.03 -0.04,-0.02 -0.04,-0.02 -0.03,-0.03 -0.04,-0.03 -0.04,-0.02 -0.03,-0.03 -0.04,-0.03 -0.03,-0.03 -0.04,-0.04 c -0.57,-0.55 -0.95,-1.7 -0.95,-2.86 0,-1.08 0.33,-2.24 0.8,-2.8 0.36,-0.44 0.87,-0.67 1.45,-0.67 v 0.25 c -0.86,0 -1.3,1.07 -1.3,3.13 0,2.11 0.45,3.21 1.31,3.21 h 0 c 0.83,0 1.28,-1.12 1.28,-3.2 0,-2.07 -0.44,-3.14 -1.29,-3.14 v -0.25 c 0.5,0 0.93,0.17 1.29,0.51 0.58,0.55 0.96,1.7 0.96,2.9 0,2.04 -0.91,3.44 -2.21,3.44 z"
         inkscape:connector-curvature="0"
         style="fill:#000000;stroke-width:0" /><path
         id="path21501"
         d="m 326.19,713.84 -1.79,-0.9 v -0.14 c 0.12,0.05 0.22,0.09 0.27,0.11 0.17,0.07 0.34,0.11 0.44,0.11 0.21,0 0.3,-0.15 0.3,-0.47 v -4.5 c 0,-0.33 -0.08,-0.56 -0.24,-0.65 -0.15,-0.09 -0.29,-0.12 -0.7,-0.13 v -0.15 h 2.74 v 0.15 c -0.78,0.01 -0.94,0.11 -0.94,0.59 v 5.96 z"
         inkscape:connector-curvature="0"
         style="fill:#000000;stroke-width:0" /><path
         id="path21503"
         d="m 331.17,713.84 -1.79,-0.9 v -0.14 c 0.12,0.05 0.23,0.09 0.27,0.11 0.18,0.07 0.34,0.11 0.44,0.11 0.21,0 0.3,-0.15 0.3,-0.47 v -4.5 c 0,-0.33 -0.08,-0.56 -0.24,-0.65 -0.15,-0.09 -0.29,-0.12 -0.7,-0.13 v -0.15 h 2.74 v 0.15 c -0.78,0.01 -0.94,0.11 -0.94,0.59 v 5.96 z"
         inkscape:connector-curvature="0"
         style="fill:#000000;stroke-width:0" /><path
         id="path21505"
         d="m 333.63,705.37 0.07,0.04 0.07,0.04 0.06,0.05 0.06,0.04 0.06,0.04 0.05,0.03 0.06,0.04 0.05,0.04 0.05,0.04 0.05,0.03 0.05,0.04 0.04,0.03 0.05,0.04 0.04,0.03 0.08,0.07 0.08,0.07 0.07,0.07 0.07,0.07 0.07,0.07 0.07,0.07 0.07,0.08 0.07,0.08 0.07,0.08 c 0.7,0.86 1.05,1.86 1.05,3.02 0,1.27 -0.37,2.23 -1.24,3.25 -0.41,0.47 -0.67,0.69 -1.19,1.01 l -0.12,-0.16 c 0.8,-0.63 1.07,-0.97 1.35,-1.72 0.23,-0.66 0.34,-1.42 0.34,-2.41 0,-1.03 -0.12,-1.86 -0.39,-2.46 -0.28,-0.63 -0.58,-0.99 -1.3,-1.56 z"
         inkscape:connector-curvature="0"
         style="fill:#000000;stroke-width:0" /><path
         id="path21507"
         d="m 339.88,706.58 -0.09,0.04 c -0.26,-0.4 -0.35,-0.46 -0.66,-0.46 h -1.67 l 1.17,1.22 c 0.62,0.65 0.89,1.18 0.89,1.72 0,0.7 -0.56,1.23 -1.28,1.23 -0.39,0 -0.75,-0.15 -1.01,-0.43 -0.22,-0.24 -0.32,-0.46 -0.44,-0.95 l 0.14,-0.04 c 0.28,0.68 0.53,0.91 1.01,0.91 0.59,0 0.99,-0.4 0.99,-0.98 0,-0.55 -0.32,-1.19 -0.91,-1.81 l -1.24,-1.32 v -0.08 h 2.72 z"
         inkscape:connector-curvature="0"
         style="fill:#000000;stroke-width:0" /><polygon
         id="polygon21509"
         points="343.94,710.4 349.04,710.4 349.04,710.96 343.94,710.96 "
         style="fill:#000000;stroke-width:0" /><polygon
         id="polygon21511"
         points="343.94,708.39 349.04,708.39 349.04,708.94 343.94,708.94 "
         style="fill:#000000;stroke-width:0" /><path
         id="path21513"
         d="m 353.95,710.4 0.05,0 0.06,0 0.05,0 0.04,0 0.05,0 0.04,0 0.05,0 0.04,0 0.04,0 0.04,0 0.03,-0.01 0.04,0 0.03,0 0.04,0 0.03,-0.01 0.03,0 0.03,0 0.03,0 0.02,-0.01 0.03,0 0.03,-0.01 0.02,0 0.05,-0.01 0.05,-0.01 0.05,-0.02 0.04,-0.01 0.05,-0.02 c 0.61,-0.21 1,-0.78 1,-1.47 0,-0.83 -0.57,-1.48 -1.3,-1.48 -0.27,0 -0.47,0.07 -0.84,0.31 -0.3,0.18 -0.47,0.25 -0.64,0.25 -0.22,0 -0.37,-0.14 -0.37,-0.35 0,-0.35 0.42,-0.56 1.12,-0.56 0.77,0 1.55,0.25 2.02,0.66 0.47,0.41 0.73,0.99 0.73,1.65 0,0.51 -0.16,0.97 -0.45,1.28 -0.2,0.22 -0.39,0.34 -0.83,0.53 0.69,0.47 0.94,0.83 0.94,1.37 0,0.8 -0.64,1.36 -1.55,1.36 -0.5,0 -0.94,-0.17 -1.3,-0.49 -0.3,-0.26 -0.44,-0.52 -0.66,-1.12 l 0.14,-0.04 c 0.41,0.73 0.86,1.05 1.49,1.05 0.64,0 1.09,-0.43 1.09,-1.06 0,-0.36 -0.15,-0.71 -0.4,-0.96 -0.3,-0.3 -0.57,-0.45 -1.25,-0.69 z"
         inkscape:connector-curvature="0"
         style="fill:#000000;stroke-width:0" /><path
         id="path21515"
         d="m 359.21,712.92 h 1.95 c 0.16,0 0.2,0.02 0.23,0.09 l 0.38,0.88 -0.09,0.07 c -0.15,-0.21 -0.25,-0.26 -0.46,-0.26 h -2.08 l -1.08,-2.35 c -0.01,-0.02 -0.01,-0.03 -0.01,-0.05 0,-0.05 0.04,-0.08 0.12,-0.08 0.31,0 0.71,-0.07 1.12,-0.2 1.14,-0.37 1.67,-0.98 1.67,-1.97 0,-0.95 -0.61,-1.7 -1.38,-1.7 -0.2,0 -0.37,0.07 -0.67,0.29 -0.32,0.23 -0.55,0.33 -0.76,0.33 -0.28,0 -0.42,-0.12 -0.42,-0.37 0,-0.38 0.47,-0.61 1.21,-0.61 0.84,0 1.55,0.26 2.05,0.77 0.46,0.45 0.67,1.01 0.67,1.77 0,0.71 -0.19,1.17 -0.69,1.67 -0.44,0.44 -1,0.66 -2.18,0.87 z"
         inkscape:connector-curvature="0"
         style="fill:#000000;stroke-width:0" /></g>  </g>
</svg>
