<?xml version="1.0" encoding="UTF-8" standalone="no"?>
<!-- Created with Inkscape (http://www.inkscape.org/) -->

<svg
   xmlns:ns0="http://www.iki.fi/pav/software/textext/"
   xmlns:dc="http://purl.org/dc/elements/1.1/"
   xmlns:cc="http://creativecommons.org/ns#"
   xmlns:rdf="http://www.w3.org/1999/02/22-rdf-syntax-ns#"
   xmlns:svg="http://www.w3.org/2000/svg"
   xmlns="http://www.w3.org/2000/svg"
   xmlns:sodipodi="http://sodipodi.sourceforge.net/DTD/sodipodi-0.dtd"
   xmlns:inkscape="http://www.inkscape.org/namespaces/inkscape"
   width="496.06299"
   height="354.33069"
   id="svg2"
   version="1.1"
   inkscape:version="0.48.4 r9939"
   sodipodi:docname="div33.eps">
  <sodipodi:namedview
     id="base"
     pagecolor="#ffffff"
     bordercolor="#666666"
     borderopacity="1.0"
     inkscape:pageopacity="0.0"
     inkscape:pageshadow="2"
     inkscape:zoom="1.7507669"
     inkscape:cx="168.93518"
     inkscape:cy="161.9094"
     inkscape:document-units="cm"
     inkscape:current-layer="layer1"
     showgrid="false"
     units="cm"
     inkscape:object-nodes="true"
     inkscape:window-width="1366"
     inkscape:window-height="744"
     inkscape:window-x="0"
     inkscape:window-y="24"
     inkscape:window-maximized="1">
    <inkscape:grid
       snapvisiblegridlinesonly="true"
       enabled="true"
       visible="true"
       empspacing="5"
       id="grid2985"
       type="xygrid" />
  </sodipodi:namedview>
  <defs
     id="defs4">
    <marker
       style="overflow:visible"
       id="Arrow1Mstart"
       refX="0"
       refY="0"
       orient="auto"
       inkscape:stockid="Arrow1Mstart">
      <path
         transform="matrix(0.4,0,0,0.4,4,0)"
         style="fill-rule:evenodd;stroke:#000000;stroke-width:1pt"
         d="M 0,0 5,-5 -12.5,0 5,5 0,0 z"
         id="path3775"
         inkscape:connector-curvature="0" />
    </marker>
    <marker
       style="overflow:visible"
       id="Arrow1Mend"
       refX="0"
       refY="0"
       orient="auto"
       inkscape:stockid="Arrow1Mend">
      <path
         transform="matrix(-0.4,0,0,-0.4,-4,0)"
         style="fill-rule:evenodd;stroke:#000000;stroke-width:1pt"
         d="M 0,0 5,-5 -12.5,0 5,5 0,0 z"
         id="path3778"
         inkscape:connector-curvature="0" />
    </marker>
    <marker
       inkscape:stockid="Arrow1Mstart"
       orient="auto"
       refY="0"
       refX="0"
       id="Arrow1Mstart-7"
       style="overflow:visible">
      <path
         inkscape:connector-curvature="0"
         id="path3775-8"
         d="M 0,0 5,-5 -12.5,0 5,5 0,0 z"
         style="fill-rule:evenodd;stroke:#000000;stroke-width:1pt"
         transform="matrix(0.4,0,0,0.4,4,0)" />
    </marker>
  </defs>
  <metadata
     id="metadata7">
    <rdf:RDF>
      <cc:Work
         rdf:about="">
        <dc:format>image/svg+xml</dc:format>
        <dc:type
           rdf:resource="http://purl.org/dc/dcmitype/StillImage" />
        <dc:title></dc:title>
      </cc:Work>
    </rdf:RDF>
  </metadata>
  <g
     transform="translate(0,-698.03016)"
     id="layer1"
     inkscape:groupmode="layer"
     inkscape:label="Layer 1">
    <text
       xml:space="preserve"
       style="font-size:12px;font-style:normal;font-variant:normal;font-weight:normal;font-stretch:normal;text-align:start;line-height:100%;letter-spacing:0px;word-spacing:0px;text-anchor:start;fill:#000000;fill-opacity:1;stroke:none;font-family:LMRoman12;-inkscape-font-specification:Sans"
       x="61.700558"
       y="754.07056"
       id="text5818"
       sodipodi:linespacing="100%"><tspan
         sodipodi:role="line"
         id="tspan5820"
         x="61.700558"
         y="754.07056" /></text>
    <flowRoot
       style="font-size:12px;font-style:normal;font-variant:normal;font-weight:normal;font-stretch:normal;text-align:start;line-height:100%;letter-spacing:0px;word-spacing:0px;text-anchor:start;fill:#000000;fill-opacity:1;stroke:none;font-family:LMRoman12;-inkscape-font-specification:Sans"
       id="flowRoot6377"
       xml:space="preserve"><flowRegion
         id="flowRegion6379"><rect
           y="87.141403"
           x="219.34796"
           height="40.319103"
           width="27.681772"
           id="rect6381" /></flowRegion><flowPara
         id="flowPara6383" /></flowRoot>    <text
       sodipodi:linespacing="50%"
       id="text6385"
       y="753.27734"
       x="275.91507"
       style="font-size:12px;font-style:normal;font-variant:normal;font-weight:normal;font-stretch:normal;text-align:start;line-height:50%;letter-spacing:0px;word-spacing:0px;text-anchor:start;fill:#000000;fill-opacity:1;stroke:none;font-family:LMRoman12;-inkscape-font-specification:Sans"
       xml:space="preserve"><tspan
         y="753.27734"
         x="275.91507"
         id="tspan6387"
         sodipodi:role="line" /></text>
    <text
       sodipodi:linespacing="100%"
       id="text3884"
       y="892.41718"
       x="348.65417"
       style="font-size:12px;font-style:normal;font-variant:normal;font-weight:normal;font-stretch:normal;text-align:start;line-height:100%;letter-spacing:0px;word-spacing:0px;text-anchor:start;fill:#000000;fill-opacity:1;stroke:none;font-family:LMRoman12;-inkscape-font-specification:Sans"
       xml:space="preserve"><tspan
         id="tspan3890"
         y="892.41718"
         x="348.65417"
         sodipodi:role="line" /></text>
    <text
       sodipodi:linespacing="150%"
       id="text3887"
       y="948.92749"
       x="216.96629"
       style="font-size:12px;font-style:normal;font-variant:normal;font-weight:normal;font-stretch:normal;text-align:start;line-height:150%;letter-spacing:0px;word-spacing:0px;text-anchor:start;fill:#000000;fill-opacity:1;stroke:none;font-family:LMRoman12;-inkscape-font-specification:Sans"
       xml:space="preserve"><tspan
         y="948.92749"
         x="216.96629"
         id="tspan3889"
         sodipodi:role="line" /></text>
    <text
       sodipodi:linespacing="150%"
       id="text7389"
       y="759.11084"
       x="173"
       style="font-size:12px;font-style:normal;font-variant:normal;font-weight:normal;font-stretch:normal;text-align:start;line-height:150%;letter-spacing:0px;word-spacing:0px;text-anchor:start;fill:#000000;fill-opacity:1;stroke:none;font-family:LMRoman12;-inkscape-font-specification:Sans"
       xml:space="preserve"><tspan
         y="759.11084"
         x="173"
         id="tspan7391"
         sodipodi:role="line" /></text>
    <text
       sodipodi:linespacing="150%"
       id="text11589"
       y="799.55078"
       x="266.36218"
       style="font-size:12px;font-style:normal;font-variant:normal;font-weight:normal;font-stretch:normal;text-align:start;line-height:150%;letter-spacing:0px;word-spacing:0px;text-anchor:start;fill:#000000;fill-opacity:1;stroke:none;font-family:LMRoman12;-inkscape-font-specification:Sans"
       xml:space="preserve"><tspan
         dx="0 0 0 -2.5180867"
         y="799.55078"
         x="266.36218"
         id="tspan11591"
         sodipodi:role="line">   1 1 1 1 1 0 1 0 0 1 1</tspan><tspan
         id="tspan12760"
         y="817.55078"
         x="266.36218"
         sodipodi:role="line">1 0 0 0 0 0 1 0 1 1 0 0</tspan></text>
    <text
       xml:space="preserve"
       style="font-size:12px;font-style:normal;font-variant:normal;font-weight:normal;font-stretch:normal;text-align:start;line-height:150%;letter-spacing:0px;word-spacing:0px;text-anchor:start;fill:#000000;fill-opacity:1;stroke:none;font-family:LMRoman12;-inkscape-font-specification:Sans"
       x="253.1362"
       y="837.91644"
       id="text12764"
       sodipodi:linespacing="150%"><tspan
         sodipodi:role="line"
         x="253.1362"
         y="837.91644"
         id="tspan12770"><tspan
           dx="0 0 0 1.4837968"
           id="tspan19563">   0 1 1 1 1 1 0 1 0 0 1 1</tspan></tspan><tspan
         sodipodi:role="line"
         x="253.1362"
         y="855.91644"
         id="tspan19565">+ 1 0 0 0 0 0 1 0 1 1 0 0</tspan></text>
    <text
       transform="translate(0,698.03016)"
       sodipodi:linespacing="150%"
       id="text12776"
       y="185.47461"
       x="347.50522"
       style="font-size:12px;font-style:normal;font-variant:normal;font-weight:normal;font-stretch:normal;text-align:start;line-height:150%;letter-spacing:0px;word-spacing:0px;text-anchor:start;fill:#000000;fill-opacity:1;stroke:none;font-family:LMRoman12;-inkscape-font-specification:Sans"
       xml:space="preserve"><tspan
         y="185.47461"
         x="347.50522"
         id="tspan12778"
         sodipodi:role="line" /></text>
    <path
       inkscape:connector-curvature="0"
       id="path12780"
       d="m 245.68046,862.11956 143.17354,0"
       style="fill:none;stroke:#000000;stroke-width:0.80000001;stroke-linecap:square;stroke-linejoin:round;stroke-miterlimit:4;stroke-opacity:1;stroke-dasharray:none;stroke-dashoffset:0" />
    <text
       xml:space="preserve"
       style="font-size:12px;font-style:normal;font-variant:normal;font-weight:normal;font-stretch:normal;text-align:start;line-height:150%;letter-spacing:0px;word-spacing:0px;text-anchor:start;fill:#000000;fill-opacity:1;stroke:none;font-family:LMRoman12;-inkscape-font-specification:Sans"
       x="265.39938"
       y="877.80542"
       id="text12782"
       sodipodi:linespacing="150%"><tspan
         sodipodi:role="line"
         x="265.39938"
         y="877.80542"
         id="tspan12786">1 1 1 1 1 1 1 1 1 1 1 1 </tspan><tspan
         sodipodi:role="line"
         x="265.39938"
         y="895.80542"
         id="tspan12788" /></text>
    <path
       inkscape:connector-curvature="0"
       id="path18311"
       d="m 297.3977,879.19194 0,22.29219"
       style="fill:none;stroke:#000000;stroke-width:0.80000001;stroke-linecap:square;stroke-linejoin:round;stroke-miterlimit:4;stroke-opacity:1;stroke-dasharray:none;stroke-dashoffset:0;marker-end:url(#Arrow1Mend)"
       sodipodi:nodetypes="cc" />
    <text
       sodipodi:linespacing="150%"
       id="text20219"
       y="916.11023"
       x="265.72467"
       style="font-size:12px;font-style:normal;font-variant:normal;font-weight:normal;font-stretch:normal;text-align:start;line-height:150%;letter-spacing:0px;word-spacing:0px;text-anchor:start;fill:#000000;fill-opacity:1;stroke:none;font-family:LMRoman12;-inkscape-font-specification:Sans"
       xml:space="preserve"><tspan
         id="tspan20223"
         y="916.11023"
         x="265.72467"
         sodipodi:role="line">0 0 0 0 0 0 0 0 0 0 0 0 </tspan></text>
    <text
       sodipodi:linespacing="150%"
       id="text20568"
       y="893.86969"
       x="157.74567"
       style="font-size:12px;font-style:normal;font-variant:normal;font-weight:normal;font-stretch:normal;text-align:start;line-height:150%;letter-spacing:0px;word-spacing:0px;text-anchor:start;fill:#000000;fill-opacity:1;stroke:none;font-family:LMRoman12;-inkscape-font-specification:Sans"
       xml:space="preserve"><tspan
         y="893.86969"
         x="157.74567"
         id="tspan20570"
         sodipodi:role="line">No carry 1'st complement</tspan></text>
    <g
       style="font-style:normal;font-variant:normal;font-weight:normal;font-stretch:normal;letter-spacing:normal;word-spacing:normal;text-anchor:start;fill:none;stroke:#000000;stroke-width:1;stroke-linecap:butt;stroke-linejoin:miter;stroke-miterlimit:10.43299961;stroke-opacity:1;stroke-dasharray:none;stroke-dashoffset:0"
       ns0:preamble="/home/sriranga/Desktop/Prism_BasicElectronics/preamble.tex"
       ns0:text="\\begin{align*}\n\\text{Binary equivalent of}~ 2003 =\\\\\n\\therefore ~\\text{1\'st complement representation of} -2003 =\n\\end{align*}"
       text-anchor="start"
       word-spacing="normal"
       letter-spacing="normal"
       font-size-adjust="none"
       font-stretch="normal"
       font-weight="normal"
       font-variant="normal"
       font-style="normal"
       fill-opacity="1"
       fill-rule="evenodd"
       fill="none"
       stroke-opacity="1"
       stroke-dashoffset="0"
       stroke-dasharray="none"
       stroke-miterlimit="10.433"
       stroke-linejoin="miter"
       stroke-linecap="butt"
       stroke="black"
       xml:space="preserve"
       transform="matrix(1.2,0,0,-1.2,-349.7418,1647.0508)"
       id="g22839"><path
         id="path22841"
         fill="black"
         stroke-width="0"
         d="M376.31,713.7 V713.51 C377.14,713.46,377.26,713.35,377.26,712.62 V708.21 C377.26,707.47,377.14,707.34,376.31,707.31 V707.12 H379.63 C380.41,707.12,381.11,707.33,381.48,707.67 C381.84,707.99,382.04,708.44,382.04,708.91 C382.04,709.35,381.86,709.75,381.55,710.04 C381.25,710.3,380.98,710.42,380.34,710.58 C380.86,710.71,381.07,710.81,381.3,711.02 C381.55,711.24,381.7,711.6,381.7,712.01 C381.7,713.12,380.82,713.7,379.1,713.7 L378.94,713.33 C380.08,713.33,380.69,712.86,380.69,711.97 C380.69,711.2,380.16,710.76,379.22,710.76 H378.28 V710.36 C379.24,710.36,379.7,710.31,380.06,710.16 C380.63,709.93,380.9,709.53,380.9,708.9 C380.9,708.37,380.69,707.98,380.29,707.75 C379.97,707.57,379.56,707.49,378.91,707.49 C378.42,707.49,378.28,707.58,378.28,707.9 V710.36 V710.76 V713.04 C378.28,713.24,378.35,713.33,378.5,713.33 H378.94 L379.1,713.7 Z " /><path
         id="path22843"
         fill="black"
         stroke-width="0"
         d="M384.53,711.7 L382.98,711.15 V711 L383.06,711.01 C383.18,711.03,383.31,711.04,383.4,711.04 C383.64,711.04,383.73,710.88,383.73,710.44 V708.14 C383.73,707.42,383.63,707.31,382.94,707.27 V707.12 H385.3 V707.27 C384.65,707.32,384.57,707.42,384.57,708.14 V711.66 Z " /><path
         id="path22845"
         fill="black"
         stroke-width="0"
         d="M384.06,713.91 L384.03,713.91 L384.01,713.91 L383.98,713.9 L383.96,713.9 L383.94,713.89 L383.91,713.89 L383.89,713.88 L383.87,713.87 L383.85,713.86 L383.82,713.85 L383.8,713.84 L383.78,713.82 L383.76,713.81 L383.74,713.79 L383.73,713.78 L383.71,713.76 L383.69,713.74 L383.68,713.72 L383.66,713.71 L383.65,713.69 L383.63,713.67 L383.62,713.64 L383.61,713.62 L383.6,713.6 L383.59,713.58 L383.58,713.55 L383.58,713.53 L383.57,713.5 L383.57,713.48 L383.56,713.45 L383.56,713.43 L383.56,713.4 C383.56,713.12,383.78,712.9,384.06,712.9 C384.35,712.9,384.58,713.11,384.58,713.4 C384.58,713.68,384.35,713.91,384.06,713.91 Z " /><path
         id="path22847"
         fill="black"
         stroke-width="0"
         d="M385.71,711.08 L385.72,711.08 L385.73,711.08 L385.73,711.09 L385.74,711.09 L385.74,711.09 L385.75,711.09 L385.76,711.1 L385.77,711.1 L385.77,711.1 L385.78,711.1 L385.8,711.1 L385.81,711.11 L385.83,711.11 L385.85,711.11 L385.87,711.11 L385.88,711.11 L385.9,711.12 L385.92,711.12 L385.94,711.12 L385.96,711.12 L385.98,711.12 C386.26,711.12,386.35,710.97,386.35,710.48 V708.02 C386.35,707.45,386.24,707.31,385.73,707.27 V707.12 H387.84 V707.27 C387.34,707.31,387.19,707.43,387.19,707.79 V710.58 C387.66,711.03,387.88,711.15,388.21,711.15 C388.7,711.15,388.94,710.84,388.94,710.18 V708.11 C388.94,707.48,388.81,707.31,388.31,707.27 V707.12 H390.38 V707.27 C389.89,707.32,389.77,707.44,389.77,707.93 V710.2 C389.77,711.14,389.33,711.7,388.6,711.7 C388.14,711.7,387.83,711.53,387.16,710.89 V711.67 L387.09,711.7 C386.6,711.52,386.26,711.41,385.71,711.25 Z " /><path
         id="path22849"
         fill="black"
         stroke-width="0"
         d="M394.93,707.78 L394.92,707.77 L394.9,707.76 L394.89,707.74 L394.87,707.73 L394.86,707.72 L394.84,707.71 L394.83,707.7 L394.81,707.69 L394.8,707.68 L394.79,707.68 L394.77,707.67 L394.76,707.66 L394.75,707.65 L394.73,707.65 L394.72,707.64 L394.71,707.63 L394.69,707.63 L394.68,707.62 L394.67,707.62 L394.66,707.62 L394.64,707.61 L394.63,707.61 L394.62,707.6 L394.6,707.6 L394.58,707.6 L394.55,707.59 L394.52,707.59 L394.5,707.59 C394.27,707.59,394.2,707.73,394.2,708.17 V710.1 C394.2,710.62,394.15,710.91,394,711.15 C393.78,711.51,393.35,711.7,392.77,711.7 C391.83,711.7,391.09,711.21,391.09,710.58 C391.09,710.35,391.29,710.16,391.52,710.16 C391.76,710.16,391.97,710.35,391.97,710.57 C391.97,710.61,391.96,710.66,391.95,710.73 C391.93,710.82,391.92,710.9,391.92,710.97 C391.92,711.24,392.24,711.46,392.64,711.46 C393.12,711.46,393.39,711.17,393.39,710.63 V710.03 V709.79 V708.35 C393.39,708.04,393.34,707.95,393.13,707.83 C392.89,707.69,392.61,707.6,392.41,707.6 C392.06,707.6,391.78,707.94,391.78,708.37 V708.41 C391.78,708.99,392.19,709.35,393.39,709.79 V710.03 C391.86,709.41,391.69,709.33,391.26,708.95 C391.04,708.75,390.9,708.42,390.9,708.09 C390.9,707.46,391.34,707.03,391.95,707.03 C392.39,707.03,392.79,707.23,393.4,707.75 C393.45,707.23,393.63,707.03,394.04,707.03 C394.38,707.03,394.58,707.15,394.93,707.52 Z " /><path
         id="path22851"
         fill="black"
         stroke-width="0"
         d="M395.03,711 L395.04,711 L395.05,711 L395.07,711.01 L395.08,711.01 L395.1,711.01 L395.13,711.02 L395.15,711.02 L395.17,711.02 L395.19,711.03 L395.21,711.03 L395.23,711.03 L395.25,711.03 L395.27,711.04 L395.29,711.04 L395.31,711.04 L395.33,711.04 L395.36,711.04 L395.38,711.04 C395.63,711.04,395.71,710.88,395.71,710.44 V707.96 C395.71,707.46,395.65,707.39,395.01,707.27 V707.12 H397.4 V707.27 C396.72,707.3,396.55,707.45,396.55,708.02 V710.25 C396.55,710.57,396.98,711.07,397.25,711.07 C397.31,711.07,397.4,711.02,397.51,710.92 C397.67,710.78,397.77,710.72,397.9,710.72 C398.14,710.72,398.29,710.89,398.29,711.17 C398.29,711.5,398.08,711.7,397.74,711.7 C397.33,711.7,397.04,711.47,396.55,710.76 V711.67 L396.5,711.7 C395.97,711.48,395.62,711.35,395.03,711.16 Z " /><path
         id="path22853"
         fill="black"
         stroke-width="0"
         d="M403,711.59 H401.66 V711.45 C401.98,711.45,402.14,711.36,402.14,711.2 C402.14,711.16,402.13,711.1,402.1,711.03 L401.13,708.29 L399.99,710.8 C399.93,710.94,399.89,711.07,399.89,711.18 C399.89,711.36,400.04,711.43,400.47,711.45 V711.59 H398.42 V711.46 C398.67,711.42,398.84,711.31,398.92,711.14 L400.06,708.69 L400.09,708.61 L400.24,708.32 C400.52,707.82,400.67,707.46,400.67,707.31 C400.67,707.16,400.45,706.54,400.28,706.24 C400.14,705.98,399.92,705.79,399.78,705.79 C399.72,705.79,399.63,705.81,399.53,705.86 C399.34,705.93,399.17,705.97,399,705.97 C398.77,705.97,398.58,705.77,398.58,705.54 C398.58,705.21,398.89,704.96,399.31,704.96 C399.98,704.96,400.46,705.52,400.99,706.95 L402.52,711 C402.65,711.32,402.76,711.42,403,711.45 Z " /><path
         id="path22855"
         fill="black"
         stroke-width="0"
         d="M409.81,708.75 L409.76,708.68 L409.72,708.62 L409.67,708.55 L409.63,708.49 L409.59,708.43 L409.54,708.38 L409.5,708.32 L409.45,708.27 L409.41,708.22 L409.37,708.18 L409.32,708.13 L409.28,708.09 L409.23,708.05 L409.19,708.02 L409.14,707.98 L409.1,707.95 L409.05,707.92 L409,707.89 L408.96,707.87 L408.91,707.84 L408.86,707.82 L408.81,707.8 L408.76,707.78 L408.71,707.77 L408.66,707.75 L408.6,707.74 L408.55,707.73 L408.5,707.72 L408.44,707.72 L408.38,707.71 L408.33,707.71 L408.27,707.71 C407.7,707.71,407.27,708,406.98,708.57 C406.8,708.94,406.73,709.27,406.71,709.88 L406.73,710.2 C406.84,710.97,407.18,711.34,407.79,711.34 C408.39,711.34,408.63,711.06,408.76,710.2 H406.73 L406.71,709.88 H409.78 C409.7,710.52,409.6,710.81,409.35,711.13 C409.05,711.49,408.59,711.7,408.08,711.7 C407.58,711.7,407.11,711.52,406.73,711.18 C406.27,710.77,406,710.07,406,709.25 C406,707.88,406.71,707.03,407.86,707.03 C408.8,707.03,409.55,707.61,409.97,708.68 Z " /><path
         id="path22857"
         fill="black"
         stroke-width="0"
         d="M413.75,711.35 L413.71,711.37 L413.67,711.4 L413.63,711.42 L413.59,711.44 L413.55,711.46 L413.51,711.48 L413.47,711.5 L413.44,711.52 L413.4,711.53 L413.36,711.55 L413.33,711.56 L413.29,711.58 L413.26,711.59 L413.22,711.6 L413.16,711.63 L413.09,711.65 L413.02,711.66 L412.95,711.68 L412.89,711.69 L412.82,711.69 L412.75,711.7 L412.68,711.7 L412.61,711.71 C411.37,711.71,410.41,710.59,410.41,709.16 C410.41,707.91,411.07,707.03,412,707.03 C412.58,707.03,413.13,707.28,413.57,707.76 L413.43,707.94 C413.21,707.75,412.88,707.63,412.57,707.63 C412.26,707.63,411.99,707.73,411.79,707.93 C411.48,708.22,411.27,708.86,411.27,709.52 C411.27,710.69,411.79,711.43,412.64,711.43 C413.26,711.43,413.57,711.1,413.57,710.43 V708.39 C413.57,708.15,413.52,708.02,413.43,707.94 L413.57,707.76 V705.89 C413.57,705.34,413.39,705.19,412.68,705.14 V704.97 H415.03 V705.11 C414.48,705.23,414.4,705.31,414.4,705.72 V711.66 H414.29 Z " /><path
         id="path22859"
         fill="black"
         stroke-width="0"
         d="M419.92,707.62 H419.87 C419.41,707.62,419.3,707.73,419.3,708.19 V711.59 H417.73 V711.43 C418.35,711.4,418.47,711.3,418.47,710.8 V708.47 C418.47,708.19,418.42,708.05,418.28,707.94 C418.01,707.72,417.7,707.6,417.4,707.6 C417.01,707.6,416.7,707.94,416.7,708.36 V711.59 H415.24 V711.46 C415.72,711.43,415.86,711.28,415.86,710.82 V708.32 C415.86,707.53,416.34,707.03,417.06,707.03 C417.43,707.03,417.82,707.18,418.09,707.45 L418.52,707.88 V707.05 L418.56,707.04 C419.05,707.23,419.41,707.34,419.92,707.48 Z " /><path
         id="path22861"
         fill="black"
         stroke-width="0"
         d="M421.88,711.7 L420.33,711.15 V711 L420.41,711.01 C420.53,711.03,420.66,711.04,420.75,711.04 C420.99,711.04,421.08,710.88,421.08,710.44 V708.14 C421.08,707.42,420.98,707.31,420.29,707.27 V707.12 H422.65 V707.27 C421.99,707.32,421.92,707.42,421.92,708.14 V711.66 Z " /><path
         id="path22863"
         fill="black"
         stroke-width="0"
         d="M421.41,713.91 L421.38,713.91 L421.36,713.91 L421.33,713.9 L421.31,713.9 L421.29,713.89 L421.26,713.89 L421.24,713.88 L421.22,713.87 L421.2,713.86 L421.17,713.85 L421.15,713.84 L421.13,713.82 L421.11,713.81 L421.09,713.79 L421.08,713.78 L421.06,713.76 L421.04,713.74 L421.03,713.72 L421.01,713.71 L421,713.69 L420.98,713.67 L420.97,713.64 L420.96,713.62 L420.95,713.6 L420.94,713.58 L420.93,713.55 L420.93,713.53 L420.92,713.5 L420.92,713.48 L420.91,713.45 L420.91,713.43 L420.91,713.4 C420.91,713.12,421.13,712.9,421.41,712.9 C421.7,712.9,421.93,713.11,421.93,713.4 C421.93,713.68,421.7,713.91,421.41,713.91 Z " /><path
         id="path22865"
         fill="black"
         stroke-width="0"
         d="M427.4,711.59 H426.02 V711.45 C426.34,711.42,426.49,711.32,426.49,711.13 C426.49,711.03,426.47,710.93,426.43,710.83 L425.44,708.26 L424.43,710.8 C424.37,710.94,424.34,711.08,424.34,711.17 C424.34,711.35,424.45,711.42,424.79,711.45 V711.59 H422.84 V711.45 C423.22,711.43,423.29,711.33,423.75,710.3 L424.94,707.45 C424.96,707.39,424.99,707.32,425.02,707.24 C425.08,707.07,425.14,706.99,425.2,706.99 C425.26,706.99,425.33,707.11,425.48,707.48 L426.75,710.67 C427.04,711.35,427.1,711.42,427.4,711.45 Z " /><path
         id="path22867"
         fill="black"
         stroke-width="0"
         d="M431.79,707.78 L431.77,707.77 L431.75,707.76 L431.74,707.74 L431.72,707.73 L431.71,707.72 L431.69,707.71 L431.68,707.7 L431.67,707.69 L431.65,707.68 L431.64,707.68 L431.63,707.67 L431.61,707.66 L431.6,707.65 L431.59,707.65 L431.57,707.64 L431.56,707.63 L431.55,707.63 L431.53,707.62 L431.52,707.62 L431.51,707.62 L431.49,707.61 L431.48,707.61 L431.47,707.6 L431.45,707.6 L431.43,707.6 L431.4,707.59 L431.37,707.59 L431.35,707.59 C431.12,707.59,431.05,707.73,431.05,708.17 V710.1 C431.05,710.62,431,710.91,430.85,711.15 C430.63,711.51,430.2,711.7,429.62,711.7 C428.68,711.7,427.95,711.21,427.95,710.58 C427.95,710.35,428.14,710.16,428.37,710.16 C428.61,710.16,428.82,710.35,428.82,710.57 C428.82,710.61,428.81,710.66,428.8,710.73 C428.78,710.82,428.77,710.9,428.77,710.97 C428.77,711.24,429.09,711.46,429.49,711.46 C429.97,711.46,430.24,711.17,430.24,710.63 V710.03 V709.79 V708.35 C430.24,708.04,430.19,707.95,429.98,707.83 C429.74,707.69,429.47,707.6,429.26,707.6 C428.91,707.6,428.63,707.94,428.63,708.37 V708.41 C428.63,708.99,429.04,709.35,430.24,709.79 V710.03 C428.71,709.41,428.54,709.33,428.11,708.95 C427.89,708.75,427.76,708.42,427.76,708.09 C427.76,707.46,428.19,707.03,428.8,707.03 C429.24,707.03,429.65,707.23,430.25,707.75 C430.3,707.23,430.48,707.03,430.89,707.03 C431.23,707.03,431.44,707.15,431.79,707.52 Z " /><path
         id="path22869"
         fill="black"
         stroke-width="0"
         d="M432,713.31 H432.06 C432.17,713.32,432.29,713.33,432.37,713.33 C432.69,713.33,432.79,713.2,432.79,712.73 V707.99 C432.79,707.45,432.65,707.32,432.02,707.27 V707.12 H434.37 V707.27 C433.74,707.31,433.62,707.41,433.62,707.96 V713.89 L433.58,713.91 C433.06,713.74,432.69,713.64,432,713.47 Z " /><path
         id="path22871"
         fill="black"
         stroke-width="0"
         d="M438.64,708.75 L438.6,708.68 L438.55,708.62 L438.51,708.55 L438.46,708.49 L438.42,708.43 L438.37,708.38 L438.33,708.32 L438.29,708.27 L438.24,708.22 L438.2,708.18 L438.15,708.13 L438.11,708.09 L438.06,708.05 L438.02,708.02 L437.97,707.98 L437.93,707.95 L437.88,707.92 L437.83,707.89 L437.79,707.87 L437.74,707.84 L437.69,707.82 L437.64,707.8 L437.59,707.78 L437.54,707.77 L437.49,707.75 L437.44,707.74 L437.38,707.73 L437.33,707.72 L437.27,707.72 L437.21,707.71 L437.16,707.71 L437.1,707.71 C436.53,707.71,436.1,708,435.81,708.57 C435.64,708.94,435.57,709.27,435.55,709.88 L435.57,710.2 C435.67,710.97,436.01,711.34,436.62,711.34 C437.23,711.34,437.47,711.06,437.6,710.2 H435.57 L435.55,709.88 H438.61 C438.53,710.52,438.43,710.81,438.18,711.13 C437.88,711.49,437.43,711.7,436.91,711.7 C436.41,711.7,435.94,711.52,435.57,711.18 C435.1,710.77,434.83,710.07,434.83,709.25 C434.83,707.88,435.55,707.03,436.69,707.03 C437.64,707.03,438.38,707.61,438.8,708.68 Z " /><path
         id="path22873"
         fill="black"
         stroke-width="0"
         d="M439.16,711.08 L439.17,711.08 L439.17,711.08 L439.18,711.09 L439.19,711.09 L439.19,711.09 L439.2,711.09 L439.21,711.1 L439.21,711.1 L439.22,711.1 L439.23,711.1 L439.25,711.1 L439.26,711.11 L439.28,711.11 L439.3,711.11 L439.31,711.11 L439.33,711.11 L439.35,711.12 L439.37,711.12 L439.39,711.12 L439.41,711.12 L439.43,711.12 C439.71,711.12,439.8,710.97,439.8,710.48 V708.02 C439.8,707.45,439.69,707.31,439.18,707.27 V707.12 H441.29 V707.27 C440.79,707.31,440.64,707.43,440.64,707.79 V710.58 C441.11,711.03,441.33,711.15,441.66,711.15 C442.15,711.15,442.39,710.84,442.39,710.18 V708.11 C442.39,707.48,442.26,707.31,441.76,707.27 V707.12 H443.83 V707.27 C443.34,707.32,443.22,707.44,443.22,707.93 V710.2 C443.22,711.14,442.79,711.7,442.05,711.7 C441.59,711.7,441.28,711.53,440.61,710.89 V711.67 L440.54,711.7 C440.05,711.52,439.71,711.41,439.16,711.25 Z " /><path
         id="path22875"
         fill="black"
         stroke-width="0"
         d="M446.52,711.59 H445.52 V712.75 C445.52,712.85,445.51,712.88,445.45,712.88 C445.38,712.79,445.32,712.7,445.25,712.6 C444.87,712.05,444.44,711.58,444.28,711.54 C444.17,711.47,444.11,711.4,444.11,711.35 C444.11,711.32,444.12,711.3,444.15,711.28 H444.68 V708.29 C444.68,707.45,444.98,707.03,445.57,707.03 C446.05,707.03,446.43,707.26,446.76,707.78 L446.63,707.89 C446.42,707.64,446.25,707.54,446.04,707.54 C445.67,707.54,445.52,707.81,445.52,708.44 V711.28 H446.52 Z " /><path
         id="path22877"
         fill="black"
         stroke-width="0"
         d="M451.73,711.7 L451.61,711.69 L451.5,711.68 L451.38,711.67 L451.27,711.65 L451.16,711.63 L451.05,711.6 L450.95,711.56 L450.84,711.52 L450.74,711.48 L450.65,711.43 L450.56,711.38 L450.47,711.32 L450.38,711.26 L450.3,711.19 L450.22,711.12 L450.15,711.05 L450.08,710.97 L450.01,710.89 L449.95,710.8 L449.89,710.71 L449.83,710.61 L449.78,710.52 L449.74,710.42 L449.7,710.31 L449.66,710.2 L449.63,710.09 L449.6,709.98 L449.58,709.86 L449.56,709.74 L449.54,709.62 L449.54,709.5 L449.53,709.37 C449.53,708.03,450.46,707.03,451.71,707.03 L451.83,707.3 C451.44,707.3,451.08,707.54,450.87,707.94 C450.59,708.46,450.43,709.15,450.43,709.86 C450.43,710.8,450.9,711.42,451.6,711.42 H451.6 C452.44,711.42,453.03,710.46,453.03,709.1 C453.03,707.98,452.58,707.3,451.83,707.3 L451.71,707.03 C452.97,707.03,453.92,708.08,453.92,709.45 C453.92,710.75,453.01,711.7,451.73,711.7 Z " /><path
         id="path22879"
         fill="black"
         stroke-width="0"
         d="M457.3,711.59 H456.08 V712.75 C456.08,713.32,456.27,713.63,456.64,713.63 C456.85,713.63,456.99,713.53,457.17,713.24 C457.33,712.99,457.45,712.89,457.62,712.89 C457.85,712.89,458.04,713.07,458.04,713.29 C458.04,713.65,457.6,713.91,457,713.91 C456.39,713.91,455.86,713.64,455.6,713.18 C455.34,712.75,455.26,712.39,455.25,711.59 H454.44 V711.28 H455.25 V708.16 C455.25,707.43,455.14,707.31,454.43,707.27 V707.12 H457.01 V707.27 C456.2,707.3,456.09,707.41,456.09,708.16 V711.28 H457.3 Z " /><path
         id="path22881"
         fill="black"
         stroke-width="0"
         d="M464.76,708.49 L464.63,708.54 C464.26,707.97,464.13,707.88,463.69,707.88 H461.31 L462.98,709.63 C463.86,710.55,464.25,711.31,464.25,712.08 C464.25,713.08,463.45,713.84,462.41,713.84 C461.87,713.84,461.35,713.62,460.98,713.22 C460.66,712.89,460.51,712.57,460.34,711.86 L460.55,711.81 C460.95,712.79,461.31,713.1,461.99,713.1 C462.83,713.1,463.4,712.54,463.4,711.71 C463.4,710.93,462.94,710.01,462.1,709.12 L460.33,707.24 V707.12 H464.21 Z " /><path
         id="path22883"
         fill="black"
         stroke-width="0"
         d="M467.54,713.84 L467.49,713.84 L467.44,713.84 L467.39,713.84 L467.34,713.83 L467.3,713.83 L467.25,713.82 L467.2,713.82 L467.16,713.81 L467.11,713.8 L467.07,713.79 L467.02,713.78 L466.98,713.77 L466.93,713.76 L466.89,713.74 L466.85,713.73 L466.81,713.71 L466.77,713.7 L466.73,713.68 L466.69,713.66 L466.65,713.64 L466.61,713.62 L466.57,713.6 L466.53,713.57 L466.5,713.55 L466.46,713.53 L466.42,713.5 L466.39,713.47 L466.35,713.45 L466.31,713.42 L466.28,713.39 L466.24,713.36 L466.21,713.32 C465.63,712.77,465.26,711.62,465.26,710.46 C465.26,709.38,465.58,708.22,466.05,707.66 C466.42,707.22,466.93,706.99,467.5,706.99 V707.24 C466.65,707.24,466.21,708.31,466.21,710.37 C466.21,712.48,466.66,713.58,467.51,713.58 H467.51 C468.35,713.58,468.8,712.46,468.8,710.38 C468.8,708.31,468.36,707.24,467.5,707.24 V706.99 C468.01,706.99,468.44,707.16,468.8,707.5 C469.37,708.05,469.75,709.2,469.75,710.4 C469.75,712.44,468.85,713.84,467.54,713.84 Z " /><path
         id="path22885"
         fill="black"
         stroke-width="0"
         d="M472.52,713.84 L472.47,713.84 L472.42,713.84 L472.37,713.84 L472.33,713.83 L472.28,713.83 L472.23,713.82 L472.18,713.82 L472.14,713.81 L472.09,713.8 L472.05,713.79 L472,713.78 L471.96,713.77 L471.92,713.76 L471.87,713.74 L471.83,713.73 L471.79,713.71 L471.75,713.7 L471.71,713.68 L471.67,713.66 L471.63,713.64 L471.59,713.62 L471.55,713.6 L471.52,713.57 L471.48,713.55 L471.44,713.53 L471.4,713.5 L471.37,713.47 L471.33,713.45 L471.3,713.42 L471.26,713.39 L471.23,713.36 L471.19,713.32 C470.61,712.77,470.24,711.62,470.24,710.46 C470.24,709.38,470.56,708.22,471.03,707.66 C471.4,707.22,471.91,706.99,472.48,706.99 V707.24 C471.63,707.24,471.19,708.31,471.19,710.37 C471.19,712.48,471.64,713.58,472.49,713.58 H472.49 C473.33,713.58,473.78,712.46,473.78,710.38 C473.78,708.31,473.34,707.24,472.48,707.24 V706.99 C472.99,706.99,473.42,707.16,473.78,707.5 C474.36,708.05,474.73,709.2,474.73,710.4 C474.73,712.44,473.83,713.84,472.52,713.84 Z " /><path
         id="path22887"
         fill="black"
         stroke-width="0"
         d="M476.5,710.4 L476.56,710.4 L476.61,710.4 L476.66,710.4 L476.71,710.4 L476.75,710.4 L476.8,710.4 L476.84,710.4 L476.88,710.4 L476.92,710.4 L476.96,710.4 L476.99,710.39 L477.03,710.39 L477.06,710.39 L477.1,710.39 L477.13,710.38 L477.16,710.38 L477.19,710.38 L477.22,710.38 L477.24,710.37 L477.27,710.37 L477.3,710.36 L477.32,710.36 L477.37,710.35 L477.42,710.34 L477.47,710.32 L477.51,710.31 L477.56,710.29 C478.17,710.08,478.56,709.51,478.56,708.82 C478.56,707.99,477.99,707.34,477.26,707.34 C476.99,707.34,476.79,707.41,476.42,707.65 C476.12,707.83,475.95,707.9,475.79,707.9 C475.56,707.9,475.41,707.76,475.41,707.55 C475.41,707.2,475.83,706.99,476.53,706.99 C477.3,706.99,478.08,707.24,478.55,707.65 C479.02,708.06,479.28,708.64,479.28,709.3 C479.28,709.81,479.12,710.27,478.83,710.58 C478.63,710.8,478.44,710.92,478,711.11 C478.69,711.58,478.94,711.94,478.94,712.48 C478.94,713.28,478.3,713.84,477.39,713.84 C476.89,713.84,476.45,713.67,476.09,713.35 C475.8,713.09,475.64,712.83,475.43,712.23 L475.58,712.19 C475.98,712.92,476.43,713.24,477.06,713.24 C477.7,713.24,478.15,712.81,478.15,712.18 C478.15,711.82,478,711.47,477.75,711.22 C477.46,710.92,477.18,710.77,476.5,710.53 Z " /><polygon
         id="polygon22889"
         fill="black"
         stroke-width="0"
         points="488.44,710.4 488.44,710.96 483.35,710.96 483.35,710.4 " /><polygon
         id="polygon22891"
         fill="black"
         stroke-width="0"
         points="488.44,708.39 488.44,708.94 483.35,708.94 483.35,708.39 " /><path
         id="path22893"
         fill="black"
         stroke-width="0"
         d="M305.35,696.26 L305.35,696.29 L305.35,696.32 L305.34,696.34 L305.34,696.37 L305.33,696.39 L305.33,696.42 L305.32,696.44 L305.31,696.47 L305.3,696.49 L305.29,696.51 L305.27,696.54 L305.26,696.56 L305.25,696.58 L305.23,696.6 L305.21,696.62 L305.2,696.63 L305.18,696.65 L305.16,696.67 L305.14,696.68 L305.12,696.7 L305.1,696.71 L305.07,696.73 L305.05,696.74 L305.03,696.75 L305,696.76 L304.98,696.77 L304.96,696.77 L304.93,696.78 L304.9,696.78 L304.88,696.79 L304.85,696.79 L304.82,696.79 C304.54,696.79,304.3,696.55,304.3,696.26 C304.3,695.98,304.54,695.74,304.82,695.74 C305.1,695.74,305.35,695.97,305.35,696.26 Z " /><path
         id="path22895"
         fill="black"
         stroke-width="0"
         d="M307.84,691.96 L307.84,691.99 L307.84,692.02 L307.83,692.04 L307.83,692.07 L307.82,692.09 L307.82,692.12 L307.81,692.14 L307.8,692.17 L307.79,692.19 L307.77,692.21 L307.76,692.23 L307.75,692.26 L307.73,692.28 L307.72,692.3 L307.7,692.32 L307.68,692.33 L307.66,692.35 L307.65,692.37 L307.63,692.38 L307.61,692.4 L307.58,692.41 L307.56,692.42 L307.54,692.44 L307.52,692.45 L307.49,692.46 L307.47,692.47 L307.44,692.47 L307.42,692.48 L307.39,692.48 L307.36,692.49 L307.34,692.49 L307.31,692.49 C307.02,692.49,306.78,692.25,306.78,691.96 C306.78,691.67,307.02,691.44,307.31,691.44 C307.6,691.44,307.84,691.67,307.84,691.96 Z " /><path
         id="path22897"
         fill="black"
         stroke-width="0"
         d="M302.86,691.96 L302.86,691.99 L302.86,692.02 L302.86,692.04 L302.85,692.07 L302.85,692.09 L302.84,692.12 L302.83,692.14 L302.82,692.17 L302.81,692.19 L302.8,692.21 L302.79,692.23 L302.77,692.26 L302.76,692.28 L302.74,692.3 L302.73,692.32 L302.71,692.33 L302.69,692.35 L302.67,692.37 L302.65,692.38 L302.63,692.4 L302.61,692.41 L302.59,692.42 L302.56,692.44 L302.54,692.45 L302.52,692.46 L302.49,692.47 L302.47,692.47 L302.44,692.48 L302.42,692.48 L302.39,692.49 L302.36,692.49 L302.34,692.49 C302.05,692.49,301.81,692.25,301.81,691.96 C301.81,691.67,302.05,691.44,302.34,691.44 C302.62,691.44,302.86,691.67,302.86,691.96 Z " /><path
         id="path22899"
         fill="black"
         stroke-width="0"
         d="M316.31,698.9 L314.52,697.99 V697.85 C314.64,697.9,314.74,697.94,314.78,697.96 C314.96,698.03,315.13,698.07,315.23,698.07 C315.44,698.07,315.53,697.92,315.53,697.6 V693.1 C315.53,692.78,315.45,692.55,315.29,692.46 C315.14,692.37,315,692.34,314.58,692.33 V692.18 H317.33 V692.33 C316.55,692.34,316.39,692.44,316.39,692.92 V698.88 Z " /><path
         id="path22901"
         fill="black"
         stroke-width="0"
         d="M319.45,696.48 L319.51,696.51 L319.57,696.55 L319.63,696.58 L319.69,696.62 L319.74,696.66 L319.8,696.69 L319.85,696.73 L319.9,696.78 L319.95,696.82 L320,696.86 L320.05,696.91 L320.09,696.95 L320.14,697 L320.18,697.05 L320.22,697.1 L320.25,697.15 L320.29,697.2 L320.32,697.25 L320.35,697.3 L320.38,697.35 L320.41,697.41 L320.44,697.46 L320.46,697.51 L320.48,697.57 L320.5,697.62 L320.52,697.68 L320.53,697.73 L320.54,697.79 L320.55,697.84 L320.56,697.9 L320.56,697.96 L320.56,698.01 C320.56,698.51,320.21,698.9,319.77,698.9 C319.42,698.9,319.18,698.67,319.18,698.33 C319.18,698.01,319.41,697.82,319.77,697.82 C319.83,697.82,319.89,697.83,319.95,697.84 C320.02,697.86,320.02,697.86,320.03,697.86 C320.11,697.86,320.17,697.8,320.17,697.72 C320.17,697.4,319.89,697.04,319.36,696.67 Z " /><path
         id="path22903"
         fill="black"
         stroke-width="0"
         d="M324.3,695.3 L324.26,696.65 H324.15 L324.13,696.63 C324.04,696.56,324.03,696.55,323.99,696.55 C323.93,696.55,323.83,696.57,323.72,696.62 C323.5,696.7,323.28,696.74,323.02,696.74 C322.24,696.74,321.67,696.23,321.67,695.52 C321.67,694.96,321.99,694.57,322.83,694.09 L323.41,693.76 C323.76,693.56,323.93,693.32,323.93,693.02 C323.93,692.58,323.61,692.3,323.1,692.3 C322.76,692.3,322.45,692.43,322.27,692.65 C322.06,692.9,321.97,693.12,321.84,693.69 H321.68 V692.14 H321.81 C321.88,692.24,321.92,692.26,322.04,692.26 C322.13,692.26,322.27,692.24,322.49,692.18 C322.77,692.12,323.04,692.08,323.22,692.08 C323.99,692.08,324.62,692.66,324.62,693.35 C324.62,693.85,324.39,694.18,323.79,694.53 L322.71,695.17 C322.43,695.33,322.29,695.58,322.29,695.85 C322.29,696.24,322.6,696.52,323.05,696.52 C323.62,696.52,323.92,696.18,324.15,695.3 Z " /><path
         id="path22905"
         fill="black"
         stroke-width="0"
         d="M327.57,696.65 H326.57 V697.8 C326.57,697.9,326.56,697.93,326.5,697.93 C326.43,697.84,326.37,697.75,326.3,697.66 C325.92,697.11,325.49,696.63,325.34,696.59 C325.23,696.52,325.17,696.45,325.17,696.4 C325.17,696.37,325.18,696.35,325.21,696.33 H325.73 V693.34 C325.73,692.51,326.03,692.08,326.62,692.08 C327.11,692.08,327.48,692.32,327.81,692.84 L327.68,692.95 C327.48,692.7,327.31,692.6,327.09,692.6 C326.72,692.6,326.57,692.87,326.57,693.49 V696.33 H327.57 Z " /><path
         id="path22907"
         fill="black"
         stroke-width="0"
         d="M334.26,693.73 L334.21,693.67 L334.17,693.61 L334.13,693.55 L334.08,693.49 L334.04,693.44 L334,693.39 L333.96,693.34 L333.92,693.29 L333.88,693.25 L333.83,693.21 L333.79,693.17 L333.75,693.13 L333.71,693.09 L333.67,693.06 L333.63,693.03 L333.59,693 L333.55,692.98 L333.51,692.95 L333.46,692.93 L333.42,692.91 L333.38,692.89 L333.34,692.87 L333.29,692.86 L333.25,692.85 L333.2,692.83 L333.15,692.82 L333.11,692.82 L333.06,692.81 L333.01,692.8 L332.96,692.8 L332.91,692.8 L332.85,692.8 C331.95,692.8,331.31,693.59,331.31,694.73 C331.31,695.76,331.86,696.46,332.67,696.46 C333.02,696.46,333.15,696.35,333.25,695.99 L333.31,695.77 C333.39,695.49,333.57,695.31,333.78,695.31 C334.04,695.31,334.26,695.5,334.26,695.73 C334.26,696.28,333.56,696.75,332.73,696.75 C332.24,696.75,331.73,696.55,331.32,696.19 C330.83,695.76,330.55,695.08,330.55,694.3 C330.55,693.01,331.33,692.08,332.44,692.08 C332.88,692.08,333.28,692.24,333.64,692.55 C333.91,692.79,334.1,693.05,334.4,693.64 Z " /><path
         id="path22909"
         fill="black"
         stroke-width="0"
         d="M337.21,696.75 L337.09,696.75 L336.97,696.74 L336.85,696.73 L336.74,696.71 L336.63,696.68 L336.52,696.65 L336.42,696.62 L336.32,696.58 L336.22,696.54 L336.13,696.49 L336.03,696.43 L335.94,696.38 L335.86,696.31 L335.78,696.25 L335.7,696.18 L335.62,696.1 L335.55,696.02 L335.49,695.94 L335.42,695.85 L335.36,695.76 L335.31,695.67 L335.26,695.57 L335.21,695.47 L335.17,695.37 L335.13,695.26 L335.1,695.15 L335.07,695.04 L335.05,694.92 L335.03,694.8 L335.02,694.68 L335.01,694.55 L335.01,694.43 C335.01,693.09,335.93,692.08,337.19,692.08 L337.31,692.36 C336.92,692.36,336.55,692.6,336.34,693 C336.06,693.51,335.9,694.21,335.9,694.91 C335.9,695.86,336.37,696.47,337.08,696.47 H337.08 C337.92,696.47,338.5,695.52,338.5,694.16 C338.5,693.03,338.05,692.36,337.31,692.36 L337.19,692.08 C338.44,692.08,339.4,693.14,339.4,694.51 C339.4,695.81,338.48,696.75,337.21,696.75 Z " /><path
         id="path22911"
         fill="black"
         stroke-width="0"
         d="M339.89,696.14 L339.9,696.14 L339.91,696.14 L339.93,696.14 L339.94,696.15 L339.95,696.15 L339.96,696.15 L339.98,696.15 L340,696.16 L340.02,696.16 L340.04,696.16 L340.06,696.17 L340.08,696.17 L340.1,696.17 L340.11,696.17 L340.13,696.17 L340.15,696.17 L340.17,696.17 L340.19,696.17 L340.21,696.17 C340.47,696.17,340.56,696.02,340.56,695.54 V693.03 C340.56,692.49,340.42,692.34,339.86,692.33 V692.18 H342.07 V692.33 C341.54,692.35,341.39,692.46,341.39,692.85 V695.65 C341.39,695.67,341.47,695.77,341.54,695.84 C341.79,696.07,342.22,696.23,342.57,696.23 C343.01,696.23,343.22,695.89,343.22,695.19 V693.03 C343.22,692.48,343.11,692.37,342.55,692.33 V692.18 H344.78 V692.33 C344.21,692.34,344.06,692.51,344.06,693.12 V695.63 C344.36,696.05,344.69,696.23,345.14,696.23 C345.71,696.23,345.89,695.97,345.89,695.14 V693.04 C345.89,692.48,345.81,692.4,345.23,692.33 V692.18 H347.41 V692.33 L347.15,692.35 C346.86,692.37,346.73,692.55,346.73,692.94 V694.98 C346.73,696.16,346.34,696.75,345.57,696.75 C344.99,696.75,344.49,696.49,343.95,695.92 C343.77,696.48,343.43,696.75,342.9,696.75 C342.46,696.75,342.18,696.61,341.35,695.99 V696.73 L341.28,696.75 C340.78,696.56,340.44,696.45,339.89,696.3 Z " /><path
         id="path22913"
         fill="black"
         stroke-width="0"
         d="M347.54,696.09 L347.56,696.09 L347.58,696.09 L347.59,696.09 L347.61,696.09 L347.62,696.09 L347.64,696.09 L347.67,696.09 L347.7,696.09 L347.71,696.09 L347.73,696.09 L347.74,696.09 L347.76,696.09 L347.77,696.09 L347.79,696.09 C348.13,696.09,348.2,696,348.2,695.53 V690.88 C348.2,690.36,348.09,690.25,347.5,690.19 V690.03 H349.91 V690.2 C349.16,690.21,349.04,690.32,349.04,690.95 V692.51 C349.38,692.18,349.62,692.08,350.04,692.08 L350.07,692.4 C349.6,692.4,349.04,692.76,349.04,693.05 V695.5 C349.04,695.8,349.59,696.16,350.05,696.16 C350.79,696.16,351.27,695.4,351.27,694.25 C351.27,693.15,350.79,692.4,350.07,692.4 L350.04,692.08 C351.21,692.08,352.13,693.19,352.13,694.64 C352.13,695.87,351.43,696.75,350.47,696.75 C349.91,696.75,349.47,696.5,349.04,695.97 V696.73 L348.98,696.75 C348.44,696.54,348.09,696.41,347.54,696.24 Z " /><path
         id="path22915"
         fill="black"
         stroke-width="0"
         d="M352.62,698.37 H352.68 C352.79,698.38,352.91,698.39,352.99,698.39 C353.31,698.39,353.41,698.25,353.41,697.78 V693.04 C353.41,692.51,353.27,692.38,352.64,692.33 V692.18 H354.99 V692.33 C354.36,692.37,354.24,692.47,354.24,693.02 V698.95 L354.2,698.97 C353.69,698.8,353.31,698.7,352.62,698.53 Z " /><path
         id="path22917"
         fill="black"
         stroke-width="0"
         d="M359.26,693.81 L359.22,693.74 L359.17,693.67 L359.13,693.61 L359.09,693.55 L359.04,693.49 L359,693.43 L358.95,693.38 L358.91,693.33 L358.87,693.28 L358.82,693.23 L358.78,693.19 L358.73,693.15 L358.69,693.11 L358.64,693.07 L358.6,693.04 L358.55,693.01 L358.51,692.98 L358.46,692.95 L358.41,692.92 L358.36,692.9 L358.31,692.88 L358.26,692.86 L358.21,692.84 L358.16,692.82 L358.11,692.81 L358.06,692.8 L358.01,692.79 L357.95,692.78 L357.89,692.77 L357.84,692.77 L357.78,692.77 L357.72,692.77 C357.15,692.77,356.73,693.05,356.44,693.62 C356.26,694,356.19,694.33,356.17,694.93 L356.19,695.25 C356.3,696.03,356.64,696.39,357.24,696.39 C357.85,696.39,358.09,696.11,358.22,695.25 H356.19 L356.17,694.93 H359.23 C359.15,695.58,359.05,695.87,358.81,696.18 C358.51,696.54,358.05,696.75,357.53,696.75 C357.04,696.75,356.57,696.57,356.19,696.23 C355.72,695.83,355.45,695.12,355.45,694.31 C355.45,692.94,356.17,692.08,357.31,692.08 C358.26,692.08,359.01,692.67,359.42,693.74 Z " /><path
         id="path22919"
         fill="black"
         stroke-width="0"
         d="M359.82,696.14 L359.83,696.14 L359.84,696.14 L359.85,696.14 L359.86,696.15 L359.87,696.15 L359.88,696.15 L359.91,696.15 L359.93,696.16 L359.95,696.16 L359.96,696.16 L359.98,696.17 L360,696.17 L360.02,696.17 L360.04,696.17 L360.06,696.17 L360.08,696.17 L360.1,696.17 L360.11,696.17 L360.14,696.17 C360.39,696.17,360.48,696.02,360.48,695.54 V693.03 C360.48,692.49,360.34,692.34,359.79,692.33 V692.18 H361.99 V692.33 C361.47,692.35,361.32,692.46,361.32,692.85 V695.65 C361.32,695.67,361.4,695.77,361.47,695.84 C361.72,696.07,362.14,696.23,362.49,696.23 C362.93,696.23,363.15,695.89,363.15,695.19 V693.03 C363.15,692.48,363.04,692.37,362.47,692.33 V692.18 H364.7 V692.33 C364.13,692.34,363.98,692.51,363.98,693.12 V695.63 C364.28,696.05,364.61,696.23,365.07,696.23 C365.64,696.23,365.82,695.97,365.82,695.14 V693.04 C365.82,692.48,365.74,692.4,365.16,692.33 V692.18 H367.34 V692.33 L367.08,692.35 C366.78,692.37,366.65,692.55,366.65,692.94 V694.98 C366.65,696.16,366.26,696.75,365.5,696.75 C364.92,696.75,364.41,696.49,363.88,695.92 C363.7,696.48,363.36,696.75,362.82,696.75 C362.38,696.75,362.11,696.61,361.28,695.99 V696.73 L361.21,696.75 C360.7,696.56,360.36,696.45,359.82,696.3 Z " /><path
         id="path22921"
         fill="black"
         stroke-width="0"
         d="M371.44,693.81 L371.39,693.74 L371.35,693.67 L371.3,693.61 L371.26,693.55 L371.22,693.49 L371.17,693.43 L371.13,693.38 L371.08,693.33 L371.04,693.28 L371,693.23 L370.95,693.19 L370.91,693.15 L370.86,693.11 L370.82,693.07 L370.77,693.04 L370.73,693.01 L370.68,692.98 L370.63,692.95 L370.59,692.92 L370.54,692.9 L370.49,692.88 L370.44,692.86 L370.39,692.84 L370.34,692.82 L370.29,692.81 L370.23,692.8 L370.18,692.79 L370.13,692.78 L370.07,692.77 L370.01,692.77 L369.96,692.77 L369.9,692.77 C369.33,692.77,368.9,693.05,368.61,693.62 C368.43,694,368.36,694.33,368.34,694.93 L368.36,695.25 C368.47,696.03,368.81,696.39,369.42,696.39 C370.02,696.39,370.26,696.11,370.39,695.25 H368.36 L368.34,694.93 H371.41 C371.33,695.58,371.23,695.87,370.98,696.18 C370.68,696.54,370.22,696.75,369.71,696.75 C369.21,696.75,368.74,696.57,368.36,696.23 C367.9,695.83,367.63,695.12,367.63,694.31 C367.63,692.94,368.34,692.08,369.49,692.08 C370.43,692.08,371.18,692.67,371.6,693.74 Z " /><path
         id="path22923"
         fill="black"
         stroke-width="0"
         d="M371.96,696.14 L371.97,696.14 L371.97,696.14 L371.98,696.14 L371.99,696.15 L371.99,696.15 L372,696.15 L372.01,696.15 L372.01,696.15 L372.02,696.16 L372.03,696.16 L372.04,696.16 L372.06,696.16 L372.08,696.17 L372.09,696.17 L372.11,696.17 L372.13,696.17 L372.15,696.17 L372.17,696.17 L372.19,696.17 L372.21,696.17 L372.23,696.17 C372.51,696.17,372.6,696.03,372.6,695.54 V693.08 C372.6,692.51,372.49,692.37,371.98,692.33 V692.18 H374.09 V692.33 C373.58,692.37,373.43,692.49,373.43,692.85 V695.64 C373.91,696.09,374.13,696.2,374.46,696.2 C374.95,696.2,375.18,695.9,375.18,695.24 V693.16 C375.18,692.54,375.05,692.37,374.56,692.33 V692.18 H376.63 V692.33 C376.14,692.38,376.02,692.5,376.02,692.99 V695.26 C376.02,696.19,375.58,696.75,374.85,696.75 C374.39,696.75,374.08,696.58,373.4,695.95 V696.73 L373.33,696.75 C372.85,696.57,372.51,696.46,371.96,696.3 Z " /><path
         id="path22925"
         fill="black"
         stroke-width="0"
         d="M379.32,696.65 H378.32 V697.8 C378.32,697.9,378.3,697.93,378.24,697.93 C378.18,697.84,378.12,697.75,378.05,697.66 C377.67,697.11,377.24,696.63,377.08,696.59 C376.97,696.52,376.91,696.45,376.91,696.4 C376.91,696.37,376.92,696.35,376.95,696.33 H377.48 V693.34 C377.48,692.51,377.78,692.08,378.36,692.08 C378.85,692.08,379.23,692.32,379.56,692.84 L379.43,692.95 C379.22,692.7,379.05,692.6,378.83,692.6 C378.46,692.6,378.32,692.87,378.32,693.49 V696.33 H379.32 Z " /><path
         id="path22927"
         fill="black"
         stroke-width="0"
         d="M382.11,696.05 L382.13,696.06 L382.14,696.06 L382.15,696.06 L382.16,696.07 L382.19,696.07 L382.21,696.07 L382.23,696.08 L382.25,696.08 L382.27,696.08 L382.29,696.09 L382.31,696.09 L382.34,696.09 L382.36,696.09 L382.38,696.09 L382.4,696.09 L382.42,696.09 L382.44,696.09 L382.46,696.09 C382.71,696.09,382.8,695.94,382.8,695.5 V693.02 C382.8,692.52,382.73,692.45,382.09,692.33 V692.18 H384.48 V692.33 C383.8,692.36,383.64,692.51,383.64,693.08 V695.31 C383.64,695.63,384.06,696.12,384.33,696.12 C384.39,696.12,384.48,696.08,384.59,695.98 C384.75,695.84,384.86,695.78,384.99,695.78 C385.23,695.78,385.38,695.95,385.38,696.22 C385.38,696.55,385.17,696.75,384.83,696.75 C384.41,696.75,384.12,696.52,383.64,695.82 V696.73 L383.58,696.75 C383.06,696.53,382.7,696.4,382.11,696.21 Z " /><path
         id="path22929"
         fill="black"
         stroke-width="0"
         d="M389.42,693.81 L389.38,693.74 L389.33,693.67 L389.29,693.61 L389.24,693.55 L389.2,693.49 L389.15,693.43 L389.11,693.38 L389.07,693.33 L389.02,693.28 L388.98,693.23 L388.93,693.19 L388.89,693.15 L388.85,693.11 L388.8,693.07 L388.75,693.04 L388.71,693.01 L388.66,692.98 L388.62,692.95 L388.57,692.92 L388.52,692.9 L388.47,692.88 L388.42,692.86 L388.37,692.84 L388.32,692.82 L388.27,692.81 L388.22,692.8 L388.16,692.79 L388.11,692.78 L388.05,692.77 L388,692.77 L387.94,692.77 L387.88,692.77 C387.31,692.77,386.88,693.05,386.59,693.62 C386.42,694,386.35,694.33,386.33,694.93 L386.35,695.25 C386.45,696.03,386.79,696.39,387.4,696.39 C388.01,696.39,388.25,696.11,388.38,695.25 H386.35 L386.33,694.93 H389.39 C389.31,695.58,389.21,695.87,388.96,696.18 C388.66,696.54,388.21,696.75,387.69,696.75 C387.19,696.75,386.72,696.57,386.35,696.23 C385.88,695.83,385.61,695.12,385.61,694.31 C385.61,692.94,386.33,692.08,387.47,692.08 C388.42,692.08,389.16,692.67,389.58,693.74 Z " /><path
         id="path22931"
         fill="black"
         stroke-width="0"
         d="M389.87,696.09 L389.89,696.09 L389.91,696.09 L389.92,696.09 L389.94,696.09 L389.95,696.09 L389.97,696.09 L390,696.09 L390.03,696.09 L390.04,696.09 L390.06,696.09 L390.07,696.09 L390.09,696.09 L390.11,696.09 L390.12,696.09 C390.46,696.09,390.53,696,390.53,695.53 V690.88 C390.53,690.36,390.42,690.25,389.83,690.19 V690.03 H392.24 V690.2 C391.49,690.21,391.37,690.32,391.37,690.95 V692.51 C391.71,692.18,391.95,692.08,392.37,692.08 L392.4,692.4 C391.93,692.4,391.37,692.76,391.37,693.05 V695.5 C391.37,695.8,391.92,696.16,392.38,696.16 C393.12,696.16,393.61,695.4,393.61,694.25 C393.61,693.15,393.12,692.4,392.4,692.4 L392.37,692.08 C393.55,692.08,394.46,693.19,394.46,694.64 C394.46,695.87,393.76,696.75,392.8,696.75 C392.24,696.75,391.8,696.5,391.37,695.97 V696.73 L391.31,696.75 C390.77,696.54,390.42,696.41,389.87,696.24 Z " /><path
         id="path22933"
         fill="black"
         stroke-width="0"
         d="M394.83,696.05 L394.85,696.06 L394.86,696.06 L394.87,696.06 L394.88,696.07 L394.91,696.07 L394.93,696.07 L394.95,696.08 L394.97,696.08 L395,696.08 L395.02,696.09 L395.04,696.09 L395.06,696.09 L395.08,696.09 L395.1,696.09 L395.12,696.09 L395.14,696.09 L395.16,696.09 L395.18,696.09 C395.43,696.09,395.52,695.94,395.52,695.5 V693.02 C395.52,692.52,395.45,692.45,394.82,692.33 V692.18 H397.2 V692.33 C396.53,692.36,396.36,692.51,396.36,693.08 V695.31 C396.36,695.63,396.79,696.12,397.05,696.12 C397.11,696.12,397.2,696.08,397.31,695.98 C397.47,695.84,397.58,695.78,397.71,695.78 C397.95,695.78,398.1,695.95,398.1,696.22 C398.1,696.55,397.89,696.75,397.55,696.75 C397.13,696.75,396.85,696.52,396.36,695.82 V696.73 L396.31,696.75 C395.78,696.53,395.42,696.4,394.83,696.21 Z " /><path
         id="path22935"
         fill="black"
         stroke-width="0"
         d="M402.14,693.81 L402.1,693.74 L402.05,693.67 L402.01,693.61 L401.96,693.55 L401.92,693.49 L401.88,693.43 L401.83,693.38 L401.79,693.33 L401.75,693.28 L401.7,693.23 L401.66,693.19 L401.61,693.15 L401.57,693.11 L401.52,693.07 L401.48,693.04 L401.43,693.01 L401.38,692.98 L401.34,692.95 L401.29,692.92 L401.24,692.9 L401.19,692.88 L401.14,692.86 L401.09,692.84 L401.04,692.82 L400.99,692.81 L400.94,692.8 L400.88,692.79 L400.83,692.78 L400.77,692.77 L400.72,692.77 L400.66,692.77 L400.6,692.77 C400.03,692.77,399.61,693.05,399.32,693.62 C399.14,694,399.07,694.33,399.05,694.93 L399.07,695.25 C399.18,696.03,399.52,696.39,400.12,696.39 C400.73,696.39,400.97,696.11,401.1,695.25 H399.07 L399.05,694.93 H402.11 C402.03,695.58,401.93,695.87,401.68,696.18 C401.39,696.54,400.93,696.75,400.41,696.75 C399.91,696.75,399.45,696.57,399.07,696.23 C398.6,695.83,398.33,695.12,398.33,694.31 C398.33,692.94,399.05,692.08,400.19,692.08 C401.14,692.08,401.88,692.67,402.3,693.74 Z " /><path
         id="path22937"
         fill="black"
         stroke-width="0"
         d="M405.64,695.3 L405.6,696.65 H405.49 L405.47,696.63 C405.38,696.56,405.37,696.55,405.33,696.55 C405.27,696.55,405.17,696.57,405.06,696.62 C404.84,696.7,404.63,696.74,404.37,696.74 C403.58,696.74,403.01,696.23,403.01,695.52 C403.01,694.96,403.33,694.57,404.18,694.09 L404.76,693.76 C405.1,693.56,405.27,693.32,405.27,693.02 C405.27,692.58,404.95,692.3,404.45,692.3 C404.11,692.3,403.8,692.43,403.61,692.65 C403.4,692.9,403.31,693.12,403.18,693.69 H403.02 V692.14 H403.15 C403.22,692.24,403.26,692.26,403.38,692.26 C403.47,692.26,403.61,692.24,403.84,692.18 C404.12,692.12,404.39,692.08,404.57,692.08 C405.33,692.08,405.97,692.66,405.97,693.35 C405.97,693.85,405.73,694.18,405.13,694.53 L404.06,695.17 C403.78,695.33,403.63,695.58,403.63,695.85 C403.63,696.24,403.94,696.52,404.4,696.52 C404.96,696.52,405.26,696.18,405.49,695.3 Z " /><path
         id="path22939"
         fill="black"
         stroke-width="0"
         d="M410.44,693.81 L410.4,693.74 L410.35,693.67 L410.31,693.61 L410.26,693.55 L410.22,693.49 L410.18,693.43 L410.13,693.38 L410.09,693.33 L410.04,693.28 L410,693.23 L409.96,693.19 L409.91,693.15 L409.87,693.11 L409.82,693.07 L409.78,693.04 L409.73,693.01 L409.68,692.98 L409.64,692.95 L409.59,692.92 L409.54,692.9 L409.49,692.88 L409.44,692.86 L409.39,692.84 L409.34,692.82 L409.29,692.81 L409.24,692.8 L409.18,692.79 L409.13,692.78 L409.07,692.77 L409.02,692.77 L408.96,692.77 L408.9,692.77 C408.33,692.77,407.9,693.05,407.62,693.62 C407.44,694,407.37,694.33,407.35,694.93 L407.37,695.25 C407.48,696.03,407.82,696.39,408.42,696.39 C409.03,696.39,409.27,696.11,409.4,695.25 H407.37 L407.35,694.93 H410.41 C410.33,695.58,410.23,695.87,409.98,696.18 C409.68,696.54,409.23,696.75,408.71,696.75 C408.21,696.75,407.74,696.57,407.37,696.23 C406.9,695.83,406.63,695.12,406.63,694.31 C406.63,692.94,407.35,692.08,408.49,692.08 C409.44,692.08,410.18,692.67,410.6,693.74 Z " /><path
         id="path22941"
         fill="black"
         stroke-width="0"
         d="M410.96,696.14 L410.97,696.14 L410.98,696.14 L410.98,696.14 L410.99,696.15 L410.99,696.15 L411,696.15 L411.01,696.15 L411.02,696.15 L411.02,696.16 L411.03,696.16 L411.05,696.16 L411.06,696.16 L411.08,696.17 L411.1,696.17 L411.12,696.17 L411.13,696.17 L411.15,696.17 L411.17,696.17 L411.19,696.17 L411.21,696.17 L411.23,696.17 C411.51,696.17,411.6,696.03,411.6,695.54 V693.08 C411.6,692.51,411.49,692.37,410.98,692.33 V692.18 H413.09 V692.33 C412.59,692.37,412.44,692.49,412.44,692.85 V695.64 C412.91,696.09,413.13,696.2,413.46,696.2 C413.95,696.2,414.19,695.9,414.19,695.24 V693.16 C414.19,692.54,414.06,692.37,413.56,692.33 V692.18 H415.63 V692.33 C415.14,692.38,415.02,692.5,415.02,692.99 V695.26 C415.02,696.19,414.59,696.75,413.85,696.75 C413.39,696.75,413.08,696.58,412.41,695.95 V696.73 L412.34,696.75 C411.85,696.57,411.51,696.46,410.96,696.3 Z " /><path
         id="path22943"
         fill="black"
         stroke-width="0"
         d="M418.32,696.65 H417.32 V697.8 C417.32,697.9,417.31,697.93,417.25,697.93 C417.18,697.84,417.12,697.75,417.05,697.66 C416.67,697.11,416.24,696.63,416.08,696.59 C415.98,696.52,415.92,696.45,415.92,696.4 C415.92,696.37,415.93,696.35,415.96,696.33 H416.48 V693.34 C416.48,692.51,416.78,692.08,417.37,692.08 C417.86,692.08,418.23,692.32,418.56,692.84 L418.43,692.95 C418.22,692.7,418.05,692.6,417.84,692.6 C417.47,692.6,417.32,692.87,417.32,693.49 V696.33 H418.32 Z " /><path
         id="path22945"
         fill="black"
         stroke-width="0"
         d="M422.95,692.84 L422.94,692.82 L422.92,692.81 L422.91,692.8 L422.89,692.79 L422.88,692.78 L422.86,692.77 L422.85,692.76 L422.83,692.75 L422.82,692.74 L422.81,692.73 L422.79,692.72 L422.78,692.72 L422.77,692.71 L422.75,692.7 L422.74,692.7 L422.73,692.69 L422.71,692.68 L422.7,692.68 L422.69,692.68 L422.68,692.67 L422.66,692.67 L422.65,692.66 L422.64,692.66 L422.62,692.66 L422.6,692.65 L422.57,692.65 L422.54,692.65 L422.52,692.65 C422.29,692.65,422.22,692.79,422.22,693.22 V695.16 C422.22,695.68,422.17,695.97,422.02,696.2 C421.8,696.56,421.37,696.75,420.79,696.75 C419.85,696.75,419.11,696.26,419.11,695.64 C419.11,695.41,419.31,695.21,419.54,695.21 C419.78,695.21,419.99,695.41,419.99,695.63 C419.99,695.67,419.98,695.72,419.97,695.79 C419.95,695.88,419.94,695.96,419.94,696.03 C419.94,696.29,420.26,696.51,420.65,696.51 C421.14,696.51,421.41,696.22,421.41,695.69 V695.08 V694.84 V693.4 C421.41,693.09,421.36,693.01,421.15,692.89 C420.91,692.75,420.64,692.66,420.43,692.66 C420.08,692.66,419.8,693,419.8,693.42 V693.46 C419.8,694.05,420.21,694.41,421.41,694.84 V695.08 C419.88,694.47,419.71,694.39,419.28,694.01 C419.06,693.81,418.92,693.47,418.92,693.15 C418.92,692.52,419.36,692.08,419.97,692.08 C420.41,692.08,420.81,692.29,421.42,692.81 C421.47,692.29,421.65,692.08,422.06,692.08 C422.4,692.08,422.61,692.2,422.95,692.58 Z " /><path
         id="path22947"
         fill="black"
         stroke-width="0"
         d="M425.52,696.65 H424.51 V697.8 C424.51,697.9,424.5,697.93,424.44,697.93 C424.37,697.84,424.31,697.75,424.24,697.66 C423.86,697.11,423.44,696.63,423.28,696.59 C423.17,696.52,423.11,696.45,423.11,696.4 C423.11,696.37,423.12,696.35,423.15,696.33 H423.68 V693.34 C423.68,692.51,423.97,692.08,424.56,692.08 C425.05,692.08,425.43,692.32,425.76,692.84 L425.63,692.95 C425.42,692.7,425.25,692.6,425.03,692.6 C424.66,692.6,424.51,692.87,424.51,693.49 V696.33 H425.52 Z " /><path
         id="path22949"
         fill="black"
         stroke-width="0"
         d="M427.49,696.75 L425.95,696.2 V696.05 L426.03,696.07 C426.15,696.09,426.28,696.09,426.37,696.09 C426.61,696.09,426.69,695.94,426.69,695.5 V693.19 C426.69,692.48,426.6,692.37,425.91,692.33 V692.18 H428.27 V692.33 C427.61,692.38,427.53,692.48,427.53,693.19 V696.72 Z " /><path
         id="path22951"
         fill="black"
         stroke-width="0"
         d="M427.02,698.97 L427,698.97 L426.97,698.96 L426.95,698.96 L426.92,698.96 L426.9,698.95 L426.88,698.94 L426.85,698.94 L426.83,698.93 L426.81,698.92 L426.79,698.9 L426.77,698.89 L426.75,698.88 L426.73,698.86 L426.71,698.85 L426.69,698.83 L426.67,698.82 L426.66,698.8 L426.64,698.78 L426.63,698.76 L426.61,698.74 L426.6,698.72 L426.59,698.7 L426.58,698.68 L426.56,698.66 L426.56,698.63 L426.55,698.61 L426.54,698.59 L426.54,698.56 L426.53,698.54 L426.53,698.51 L426.53,698.48 L426.52,698.46 C426.52,698.18,426.74,697.95,427.02,697.95 C427.31,697.95,427.54,698.17,427.54,698.46 C427.54,698.74,427.31,698.97,427.02,698.97 Z " /><path
         id="path22953"
         fill="black"
         stroke-width="0"
         d="M431.01,696.75 L430.89,696.75 L430.77,696.74 L430.65,696.73 L430.54,696.71 L430.43,696.68 L430.32,696.65 L430.22,696.62 L430.12,696.58 L430.02,696.54 L429.92,696.49 L429.83,696.43 L429.74,696.38 L429.66,696.31 L429.57,696.25 L429.5,696.18 L429.42,696.1 L429.35,696.02 L429.28,695.94 L429.22,695.85 L429.16,695.76 L429.11,695.67 L429.06,695.57 L429.01,695.47 L428.97,695.37 L428.93,695.26 L428.9,695.15 L428.87,695.04 L428.85,694.92 L428.83,694.8 L428.82,694.68 L428.81,694.55 L428.81,694.43 C428.81,693.09,429.73,692.08,430.99,692.08 L431.11,692.36 C430.72,692.36,430.35,692.6,430.14,693 C429.86,693.51,429.7,694.21,429.7,694.91 C429.7,695.86,430.17,696.47,430.88,696.47 H430.88 C431.71,696.47,432.3,695.52,432.3,694.16 C432.3,693.03,431.85,692.36,431.11,692.36 L430.99,692.08 C432.24,692.08,433.2,693.14,433.2,694.51 C433.2,695.81,432.28,696.75,431.01,696.75 Z " /><path
         id="path22955"
         fill="black"
         stroke-width="0"
         d="M433.66,696.14 L433.66,696.14 L433.67,696.14 L433.68,696.14 L433.68,696.15 L433.69,696.15 L433.7,696.15 L433.7,696.15 L433.71,696.15 L433.72,696.16 L433.73,696.16 L433.74,696.16 L433.76,696.16 L433.77,696.17 L433.79,696.17 L433.81,696.17 L433.83,696.17 L433.85,696.17 L433.87,696.17 L433.89,696.17 L433.91,696.17 L433.93,696.17 C434.21,696.17,434.3,696.03,434.3,695.54 V693.08 C434.3,692.51,434.19,692.37,433.68,692.33 V692.18 H435.79 V692.33 C435.28,692.37,435.13,692.49,435.13,692.85 V695.64 C435.61,696.09,435.83,696.2,436.16,696.2 C436.64,696.2,436.88,695.9,436.88,695.24 V693.16 C436.88,692.54,436.75,692.37,436.26,692.33 V692.18 H438.33 V692.33 C437.84,692.38,437.72,692.5,437.72,692.99 V695.26 C437.72,696.19,437.28,696.75,436.54,696.75 C436.09,696.75,435.78,696.58,435.1,695.95 V696.73 L435.03,696.75 C434.54,696.57,434.21,696.46,433.66,696.3 Z " /><path
         id="path22957"
         fill="black"
         stroke-width="0"
         d="M443.46,696.75 L443.34,696.75 L443.22,696.74 L443.11,696.73 L442.99,696.71 L442.88,696.68 L442.78,696.65 L442.67,696.62 L442.57,696.58 L442.47,696.54 L442.38,696.49 L442.28,696.43 L442.2,696.38 L442.11,696.31 L442.03,696.25 L441.95,696.18 L441.87,696.1 L441.8,696.02 L441.74,695.94 L441.67,695.85 L441.61,695.76 L441.56,695.67 L441.51,695.57 L441.46,695.47 L441.42,695.37 L441.38,695.26 L441.35,695.15 L441.32,695.04 L441.3,694.92 L441.28,694.8 L441.27,694.68 L441.26,694.55 L441.26,694.43 C441.26,693.09,442.19,692.08,443.44,692.08 L443.56,692.36 C443.17,692.36,442.8,692.6,442.59,693 C442.32,693.51,442.16,694.21,442.16,694.91 C442.16,695.86,442.62,696.47,443.33,696.47 H443.33 C444.17,696.47,444.75,695.52,444.75,694.16 C444.75,693.03,444.3,692.36,443.56,692.36 L443.44,692.08 C444.69,692.08,445.65,693.14,445.65,694.51 C445.65,695.81,444.73,696.75,443.46,696.75 Z " /><path
         id="path22959"
         fill="black"
         stroke-width="0"
         d="M449.03,696.65 H447.8 V697.8 C447.8,698.38,447.99,698.69,448.37,698.69 C448.58,698.69,448.72,698.59,448.9,698.3 C449.06,698.04,449.18,697.94,449.35,697.94 C449.58,697.94,449.76,698.12,449.76,698.35 C449.76,698.71,449.33,698.97,448.73,698.97 C448.11,698.97,447.58,698.7,447.33,698.24 C447.07,697.8,446.99,697.45,446.98,696.65 H446.16 V696.33 H446.98 V693.21 C446.98,692.49,446.87,692.37,446.15,692.33 V692.18 H448.74 V692.33 C447.92,692.36,447.81,692.47,447.81,693.21 V696.33 H449.03 Z " /><polygon
         id="polygon22961"
         fill="black"
         stroke-width="0"
         points="457.2,694.46 457.2,695.01 452.1,695.01 452.1,694.46 " /><path
         id="path22963"
         fill="black"
         stroke-width="0"
         d="M464.76,693.54 L464.63,693.59 C464.26,693.03,464.13,692.94,463.69,692.94 H461.31 L462.98,694.68 C463.86,695.61,464.25,696.36,464.25,697.14 C464.25,698.13,463.45,698.9,462.41,698.9 C461.87,698.9,461.35,698.68,460.98,698.28 C460.66,697.94,460.51,697.62,460.34,696.92 L460.55,696.87 C460.95,697.84,461.31,698.16,461.99,698.16 C462.83,698.16,463.4,697.59,463.4,696.76 C463.4,695.99,462.94,695.06,462.1,694.18 L460.33,692.3 V692.18 H464.21 Z " /><path
         id="path22965"
         fill="black"
         stroke-width="0"
         d="M467.54,698.9 L467.49,698.9 L467.44,698.89 L467.39,698.89 L467.34,698.89 L467.3,698.88 L467.25,698.88 L467.2,698.87 L467.16,698.86 L467.11,698.86 L467.07,698.85 L467.02,698.84 L466.98,698.82 L466.93,698.81 L466.89,698.8 L466.85,698.78 L466.81,698.77 L466.77,698.75 L466.73,698.73 L466.69,698.72 L466.65,698.7 L466.61,698.68 L466.57,698.65 L466.53,698.63 L466.5,698.61 L466.46,698.58 L466.42,698.56 L466.39,698.53 L466.35,698.5 L466.31,698.47 L466.28,698.44 L466.24,698.41 L466.21,698.38 C465.63,697.82,465.26,696.68,465.26,695.52 C465.26,694.44,465.58,693.27,466.05,692.72 C466.42,692.28,466.93,692.04,467.5,692.04 V692.3 C466.65,692.3,466.21,693.36,466.21,695.43 C466.21,697.53,466.66,698.64,467.51,698.64 H467.51 C468.35,698.64,468.8,697.52,468.8,695.44 C468.8,693.36,468.36,692.3,467.5,692.3 V692.04 C468.01,692.04,468.44,692.21,468.8,692.56 C469.37,693.1,469.75,694.26,469.75,695.46 C469.75,697.5,468.85,698.9,467.54,698.9 Z " /><path
         id="path22967"
         fill="black"
         stroke-width="0"
         d="M472.52,698.9 L472.47,698.9 L472.42,698.89 L472.37,698.89 L472.33,698.89 L472.28,698.88 L472.23,698.88 L472.18,698.87 L472.14,698.86 L472.09,698.86 L472.05,698.85 L472,698.84 L471.96,698.82 L471.92,698.81 L471.87,698.8 L471.83,698.78 L471.79,698.77 L471.75,698.75 L471.71,698.73 L471.67,698.72 L471.63,698.7 L471.59,698.68 L471.55,698.65 L471.52,698.63 L471.48,698.61 L471.44,698.58 L471.4,698.56 L471.37,698.53 L471.33,698.5 L471.3,698.47 L471.26,698.44 L471.23,698.41 L471.19,698.38 C470.61,697.82,470.24,696.68,470.24,695.52 C470.24,694.44,470.57,693.27,471.03,692.72 C471.4,692.28,471.91,692.04,472.48,692.04 V692.3 C471.63,692.3,471.19,693.36,471.19,695.43 C471.19,697.53,471.64,698.64,472.49,698.64 H472.49 C473.33,698.64,473.78,697.52,473.78,695.44 C473.78,693.36,473.34,692.3,472.48,692.3 V692.04 C472.99,692.04,473.42,692.21,473.78,692.56 C474.36,693.1,474.73,694.26,474.73,695.46 C474.73,697.5,473.83,698.9,472.52,698.9 Z " /><path
         id="path22969"
         fill="black"
         stroke-width="0"
         d="M476.5,695.46 L476.56,695.46 L476.61,695.46 L476.66,695.46 L476.71,695.46 L476.75,695.46 L476.8,695.46 L476.84,695.46 L476.88,695.45 L476.92,695.45 L476.96,695.45 L476.99,695.45 L477.03,695.45 L477.06,695.45 L477.1,695.44 L477.13,695.44 L477.16,695.44 L477.19,695.43 L477.22,695.43 L477.24,695.43 L477.27,695.42 L477.3,695.42 L477.32,695.41 L477.37,695.4 L477.42,695.39 L477.47,695.38 L477.51,695.37 L477.56,695.35 C478.17,695.13,478.56,694.57,478.56,693.88 C478.56,693.04,477.99,692.4,477.26,692.4 C476.99,692.4,476.79,692.47,476.42,692.71 C476.12,692.89,475.95,692.96,475.79,692.96 C475.56,692.96,475.41,692.82,475.41,692.61 C475.41,692.26,475.83,692.04,476.53,692.04 C477.3,692.04,478.08,692.3,478.55,692.71 C479.02,693.11,479.28,693.69,479.28,694.36 C479.28,694.86,479.12,695.33,478.83,695.64 C478.63,695.86,478.44,695.98,478,696.16 C478.69,696.63,478.94,697,478.94,697.53 C478.94,698.34,478.3,698.9,477.39,698.9 C476.89,698.9,476.45,698.73,476.09,698.41 C475.8,698.14,475.64,697.88,475.43,697.29 L475.58,697.25 C475.98,697.97,476.43,698.3,477.06,698.3 C477.7,698.3,478.15,697.86,478.15,697.24 C478.15,696.88,478,696.52,477.76,696.27 C477.46,695.98,477.18,695.83,476.5,695.59 Z " /><polygon
         id="polygon22971"
         fill="black"
         stroke-width="0"
         points="488.44,695.46 488.44,696.02 483.35,696.02 483.35,695.46 " /><polygon
         id="polygon22973"
         fill="black"
         stroke-width="0"
         points="488.44,693.44 488.44,694 483.35,694 483.35,693.44 " /></g>    <g
       id="content"
       transform="matrix(1.2,0,0,-1.2,-311.34692,1688.7764)"
       xml:space="preserve"
       stroke="black"
       stroke-linecap="butt"
       stroke-linejoin="miter"
       stroke-miterlimit="10.433"
       stroke-dasharray="none"
       stroke-dashoffset="0"
       stroke-opacity="1"
       fill="none"
       fill-rule="evenodd"
       fill-opacity="1"
       font-style="normal"
       font-variant="normal"
       font-weight="normal"
       font-stretch="normal"
       font-size-adjust="none"
       letter-spacing="normal"
       word-spacing="normal"
       text-anchor="start"
       ns0:text="\\begin{align*}\n\\therefore ~  M &amp; =2003\\\\\nN &amp; = -2003\n\\end{align*}"
       ns0:preamble="/home/sriranga/Desktop/Prism_BasicElectronics/preamble.tex"
       style="font-style:normal;font-variant:normal;font-weight:normal;font-stretch:normal;letter-spacing:normal;word-spacing:normal;text-anchor:start;fill:none;stroke:#000000;stroke-width:1;stroke-linecap:butt;stroke-linejoin:miter;stroke-miterlimit:10.43299961;stroke-opacity:1;stroke-dasharray:none;stroke-dashoffset:0"><path
         d="M369.51,711.21 L369.51,711.23 L369.51,711.26 L369.51,711.29 L369.5,711.31 L369.5,711.34 L369.49,711.36 L369.48,711.39 L369.47,711.41 L369.46,711.43 L369.45,711.46 L369.44,711.48 L369.42,711.5 L369.41,711.52 L369.39,711.54 L369.38,711.56 L369.36,711.58 L369.34,711.6 L369.32,711.61 L369.3,711.63 L369.28,711.64 L369.26,711.66 L369.24,711.67 L369.21,711.68 L369.19,711.69 L369.17,711.7 L369.14,711.71 L369.12,711.72 L369.09,711.72 L369.07,711.73 L369.04,711.73 L369.01,711.73 L368.99,711.73 C368.7,711.73,368.46,711.5,368.46,711.21 C368.46,710.92,368.7,710.68,368.99,710.68 C369.27,710.68,369.51,710.91,369.51,711.21 Z "
         stroke-width="0"
         fill="black"
         id="path23262" /><path
         d="M372,706.91 L372,706.93 L372,706.96 L372,706.99 L371.99,707.01 L371.99,707.04 L371.98,707.06 L371.97,707.09 L371.96,707.11 L371.95,707.13 L371.94,707.16 L371.92,707.18 L371.91,707.2 L371.9,707.22 L371.88,707.24 L371.86,707.26 L371.85,707.28 L371.83,707.3 L371.81,707.31 L371.79,707.33 L371.77,707.34 L371.75,707.36 L371.72,707.37 L371.7,707.38 L371.68,707.39 L371.65,707.4 L371.63,707.41 L371.61,707.42 L371.58,707.42 L371.55,707.43 L371.53,707.43 L371.5,707.43 L371.47,707.43 C371.19,707.43,370.95,707.19,370.95,706.91 C370.95,706.62,371.19,706.38,371.47,706.38 C371.76,706.38,372,706.62,372,706.91 Z "
         stroke-width="0"
         fill="black"
         id="path23264" /><path
         d="M367.03,706.91 L367.03,706.93 L367.02,706.96 L367.02,706.99 L367.02,707.01 L367.01,707.04 L367,707.06 L366.99,707.09 L366.99,707.11 L366.97,707.13 L366.96,707.16 L366.95,707.18 L366.94,707.2 L366.92,707.22 L366.91,707.24 L366.89,707.26 L366.87,707.28 L366.85,707.3 L366.83,707.31 L366.81,707.33 L366.79,707.34 L366.77,707.36 L366.75,707.37 L366.73,707.38 L366.7,707.39 L366.68,707.4 L366.66,707.41 L366.63,707.42 L366.61,707.42 L366.58,707.43 L366.55,707.43 L366.53,707.43 L366.5,707.43 C366.21,707.43,365.97,707.19,365.97,706.91 C365.97,706.62,366.21,706.38,366.5,706.38 C366.79,706.38,367.03,706.62,367.03,706.91 Z "
         stroke-width="0"
         fill="black"
         id="path23266" /><path
         d="M386.76,713.61 H385.1 L381.75,708.71 L381.21,713.61 H379.4 V713.45 C379.9,713.42,380.14,713.31,380.14,713.09 C380.14,713.01,380.1,712.86,380.04,712.68 C380.02,712.64,379.99,712.53,379.95,712.38 C379.94,712.35,379.93,712.31,379.92,712.27 L378.87,708.58 C378.56,707.54,378.41,707.34,377.89,707.28 V707.12 H379.86 V707.28 C379.36,707.32,379.16,707.44,379.16,707.72 C379.16,707.82,379.2,708.08,379.25,708.25 L380.42,712.55 L381.03,707.12 H381.2 L384.95,712.7 L383.66,708.03 C383.5,707.5,383.3,707.35,382.66,707.28 V707.12 H385.38 V707.28 C384.7,707.34,384.61,707.4,384.61,707.71 C384.61,707.88,384.63,708.01,384.72,708.32 L385.94,712.72 C386.12,713.31,386.17,713.36,386.76,713.45 Z "
         stroke-width="0"
         fill="black"
         id="path23268" /><polygon
         points="395.25,710.4 395.25,710.96 390.15,710.96 390.15,710.4 "
         stroke-width="0"
         fill="black"
         id="polygon23270" /><polygon
         points="395.25,708.39 395.25,708.94 390.15,708.94 390.15,708.39 "
         stroke-width="0"
         fill="black"
         id="polygon23272" /><path
         d="M403.37,708.49 L403.24,708.54 C402.87,707.97,402.74,707.88,402.29,707.88 H399.91 L401.58,709.63 C402.47,710.55,402.86,711.31,402.86,712.08 C402.86,713.08,402.05,713.84,401.02,713.84 C400.47,713.84,399.95,713.62,399.58,713.22 C399.27,712.89,399.12,712.57,398.95,711.86 L399.16,711.81 C399.55,712.79,399.91,713.1,400.6,713.1 C401.44,713.1,402,712.54,402,711.71 C402,710.93,401.55,710.01,400.71,709.12 L398.94,707.24 V707.12 H402.82 Z "
         stroke-width="0"
         fill="black"
         id="path23274" /><path
         d="M406.15,713.84 L406.1,713.84 L406.05,713.84 L406,713.84 L405.95,713.83 L405.9,713.83 L405.85,713.82 L405.81,713.82 L405.76,713.81 L405.72,713.8 L405.67,713.79 L405.63,713.78 L405.58,713.77 L405.54,713.76 L405.5,713.74 L405.46,713.73 L405.41,713.71 L405.37,713.7 L405.33,713.68 L405.29,713.66 L405.25,713.64 L405.22,713.62 L405.18,713.6 L405.14,713.57 L405.1,713.55 L405.06,713.53 L405.03,713.5 L404.99,713.47 L404.96,713.45 L404.92,713.42 L404.88,713.39 L404.85,713.36 L404.82,713.32 C404.24,712.77,403.86,711.62,403.86,710.46 C403.86,709.38,404.19,708.22,404.66,707.66 C405.02,707.22,405.53,706.99,406.11,706.99 V707.24 C405.25,707.24,404.82,708.31,404.82,710.37 C404.82,712.48,405.26,713.58,406.12,713.58 H406.12 C406.95,713.58,407.4,712.46,407.4,710.38 C407.4,708.31,406.96,707.24,406.11,707.24 V706.99 C406.62,706.99,407.04,707.16,407.4,707.5 C407.98,708.05,408.36,709.2,408.36,710.4 C408.36,712.44,407.45,713.84,406.15,713.84 Z "
         stroke-width="0"
         fill="black"
         id="path23276" /><path
         d="M411.13,713.84 L411.08,713.84 L411.03,713.84 L410.98,713.84 L410.93,713.83 L410.88,713.83 L410.84,713.82 L410.79,713.82 L410.74,713.81 L410.7,713.8 L410.65,713.79 L410.61,713.78 L410.56,713.77 L410.52,713.76 L410.48,713.74 L410.44,713.73 L410.4,713.71 L410.36,713.7 L410.32,713.68 L410.28,713.66 L410.24,713.64 L410.2,713.62 L410.16,713.6 L410.12,713.57 L410.08,713.55 L410.05,713.53 L410.01,713.5 L409.97,713.47 L409.94,713.45 L409.9,713.42 L409.87,713.39 L409.83,713.36 L409.8,713.32 C409.22,712.77,408.84,711.62,408.84,710.46 C408.84,709.38,409.17,708.22,409.64,707.66 C410.01,707.22,410.51,706.99,411.09,706.99 V707.24 C410.23,707.24,409.8,708.31,409.8,710.37 C409.8,712.48,410.24,713.58,411.1,713.58 H411.1 C411.94,713.58,412.38,712.46,412.38,710.38 C412.38,708.31,411.95,707.24,411.09,707.24 V706.99 C411.6,706.99,412.02,707.16,412.38,707.5 C412.96,708.05,413.34,709.2,413.34,710.4 C413.34,712.44,412.43,713.84,411.13,713.84 Z "
         stroke-width="0"
         fill="black"
         id="path23278" /><path
         d="M415.11,710.4 L415.16,710.4 L415.21,710.4 L415.26,710.4 L415.31,710.4 L415.36,710.4 L415.4,710.4 L415.44,710.4 L415.48,710.4 L415.52,710.4 L415.56,710.4 L415.6,710.39 L415.63,710.39 L415.67,710.39 L415.7,710.39 L415.73,710.38 L415.76,710.38 L415.79,710.38 L415.82,710.38 L415.85,710.37 L415.88,710.37 L415.9,710.36 L415.93,710.36 L415.98,710.35 L416.03,710.34 L416.07,710.32 L416.12,710.31 L416.16,710.29 C416.78,710.08,417.17,709.51,417.17,708.82 C417.17,707.99,416.6,707.34,415.86,707.34 C415.59,707.34,415.39,707.41,415.03,707.65 C414.73,707.83,414.56,707.9,414.39,707.9 C414.16,707.9,414.01,707.76,414.01,707.55 C414.01,707.2,414.44,706.99,415.14,706.99 C415.9,706.99,416.69,707.24,417.16,707.65 C417.62,708.06,417.88,708.64,417.88,709.3 C417.88,709.81,417.72,710.27,417.43,710.58 C417.23,710.8,417.05,710.92,416.61,711.11 C417.3,711.58,417.54,711.94,417.54,712.48 C417.54,713.28,416.91,713.84,415.99,713.84 C415.49,713.84,415.06,713.67,414.7,713.35 C414.4,713.09,414.25,712.83,414.03,712.23 L414.18,712.19 C414.59,712.92,415.04,713.24,415.66,713.24 C416.31,713.24,416.76,712.81,416.76,712.18 C416.76,711.82,416.61,711.47,416.36,711.22 C416.06,710.92,415.78,710.77,415.11,710.53 Z "
         stroke-width="0"
         fill="black"
         id="path23280" /><path
         d="M386.76,698.67 H384.78 V698.51 C385.35,698.46,385.48,698.36,385.48,698 C385.48,697.88,385.46,697.76,385.39,697.57 C385.38,697.53,385.37,697.5,385.37,697.49 L384.35,693.71 L382.28,698.67 H380.68 V698.51 C381.15,698.47,381.36,698.34,381.54,697.95 L380.35,693.81 C379.97,692.54,379.89,692.42,379.33,692.34 V692.18 H381.3 V692.34 C380.79,692.38,380.6,692.49,380.6,692.77 C380.6,692.9,380.63,693.09,380.69,693.3 L381.82,697.5 L384.11,692.03 H384.29 L385.72,697.03 C386.09,698.31,386.13,698.37,386.76,698.51 Z "
         stroke-width="0"
         fill="black"
         id="path23282" /><polygon
         points="395.25,695.46 395.25,696.02 390.15,696.02 390.15,695.46 "
         stroke-width="0"
         fill="black"
         id="polygon23284" /><polygon
         points="395.25,693.44 395.25,694 390.15,694 390.15,693.44 "
         stroke-width="0"
         fill="black"
         id="polygon23286" /><polygon
         points="404.35,694.46 404.35,695.01 399.26,695.01 399.26,694.46 "
         stroke-width="0"
         fill="black"
         id="polygon23288" /><path
         d="M409.7,693.54 L409.57,693.59 C409.2,693.03,409.08,692.94,408.63,692.94 H406.25 L407.92,694.68 C408.81,695.61,409.2,696.36,409.2,697.14 C409.2,698.13,408.39,698.9,407.35,698.9 C406.81,698.9,406.29,698.68,405.92,698.28 C405.6,697.94,405.45,697.62,405.28,696.92 L405.49,696.87 C405.89,697.84,406.25,698.16,406.94,698.16 C407.77,698.16,408.34,697.59,408.34,696.76 C408.34,695.99,407.88,695.06,407.05,694.18 L405.27,692.3 V692.18 H409.15 Z "
         stroke-width="0"
         fill="black"
         id="path23290" /><path
         d="M412.48,698.9 L412.43,698.9 L412.38,698.89 L412.33,698.89 L412.28,698.89 L412.24,698.88 L412.19,698.88 L412.14,698.87 L412.1,698.86 L412.05,698.86 L412.01,698.85 L411.96,698.84 L411.92,698.82 L411.88,698.81 L411.83,698.8 L411.79,698.78 L411.75,698.77 L411.71,698.75 L411.67,698.73 L411.63,698.72 L411.59,698.7 L411.55,698.68 L411.51,698.65 L411.48,698.63 L411.44,698.61 L411.4,698.58 L411.36,698.56 L411.33,698.53 L411.29,698.5 L411.26,698.47 L411.22,698.44 L411.19,698.41 L411.15,698.38 C410.57,697.82,410.2,696.68,410.2,695.52 C410.2,694.44,410.52,693.27,410.99,692.72 C411.36,692.28,411.87,692.04,412.45,692.04 V692.3 C411.59,692.3,411.15,693.36,411.15,695.43 C411.15,697.53,411.6,698.64,412.45,698.64 H412.45 C413.29,698.64,413.74,697.52,413.74,695.44 C413.74,693.36,413.3,692.3,412.45,692.3 V692.04 C412.95,692.04,413.38,692.21,413.74,692.56 C414.32,693.1,414.69,694.26,414.69,695.46 C414.69,697.5,413.79,698.9,412.48,698.9 Z "
         stroke-width="0"
         fill="black"
         id="path23292" /><path
         d="M417.47,698.9 L417.42,698.9 L417.36,698.89 L417.32,698.89 L417.27,698.89 L417.22,698.88 L417.17,698.88 L417.12,698.87 L417.08,698.86 L417.03,698.86 L416.99,698.85 L416.94,698.84 L416.9,698.82 L416.86,698.81 L416.82,698.8 L416.77,698.78 L416.73,698.77 L416.69,698.75 L416.65,698.73 L416.61,698.72 L416.57,698.7 L416.53,698.68 L416.49,698.65 L416.46,698.63 L416.42,698.61 L416.38,698.58 L416.35,698.56 L416.31,698.53 L416.27,698.5 L416.24,698.47 L416.2,698.44 L416.17,698.41 L416.13,698.38 C415.55,697.82,415.18,696.68,415.18,695.52 C415.18,694.44,415.51,693.27,415.97,692.72 C416.34,692.28,416.85,692.04,417.43,692.04 V692.3 C416.57,692.3,416.13,693.36,416.13,695.43 C416.13,697.53,416.58,698.64,417.44,698.64 H417.44 C418.27,698.64,418.72,697.52,418.72,695.44 C418.72,693.36,418.28,692.3,417.43,692.3 V692.04 C417.93,692.04,418.36,692.21,418.72,692.56 C419.3,693.1,419.67,694.26,419.67,695.46 C419.67,697.5,418.77,698.9,417.47,698.9 Z "
         stroke-width="0"
         fill="black"
         id="path23294" /><path
         d="M421.44,695.46 L421.5,695.46 L421.55,695.46 L421.6,695.46 L421.65,695.46 L421.69,695.46 L421.74,695.46 L421.78,695.46 L421.82,695.45 L421.86,695.45 L421.9,695.45 L421.94,695.45 L421.97,695.45 L422,695.45 L422.04,695.44 L422.07,695.44 L422.1,695.44 L422.13,695.43 L422.16,695.43 L422.19,695.43 L422.21,695.42 L422.24,695.42 L422.26,695.41 L422.31,695.4 L422.36,695.39 L422.41,695.38 L422.45,695.37 L422.5,695.35 C423.11,695.13,423.5,694.57,423.5,693.88 C423.5,693.04,422.93,692.4,422.2,692.4 C421.93,692.4,421.73,692.47,421.36,692.71 C421.06,692.89,420.89,692.96,420.73,692.96 C420.5,692.96,420.35,692.82,420.35,692.61 C420.35,692.26,420.77,692.04,421.47,692.04 C422.24,692.04,423.02,692.3,423.49,692.71 C423.96,693.11,424.22,693.69,424.22,694.36 C424.22,694.86,424.06,695.33,423.77,695.64 C423.57,695.86,423.38,695.98,422.94,696.16 C423.63,696.63,423.88,697,423.88,697.53 C423.88,698.34,423.24,698.9,422.33,698.9 C421.83,698.9,421.39,698.73,421.03,698.41 C420.74,698.14,420.59,697.88,420.37,697.29 L420.52,697.25 C420.92,697.97,421.37,698.3,422,698.3 C422.65,698.3,423.09,697.86,423.09,697.24 C423.09,696.88,422.94,696.52,422.7,696.27 C422.4,695.98,422.12,695.83,421.44,695.59 Z "
         stroke-width="0"
         fill="black"
         id="path23296" /></g>    <g
       style="font-style:normal;font-variant:normal;font-weight:normal;font-stretch:normal;letter-spacing:normal;word-spacing:normal;text-anchor:start;fill:none;stroke:#000000;stroke-width:1;stroke-linecap:butt;stroke-linejoin:miter;stroke-miterlimit:10.43299961;stroke-opacity:1;stroke-dasharray:none;stroke-dashoffset:0"
       ns0:preamble="/home/sriranga/Desktop/Prism_BasicElectronics/preamble.tex"
       ns0:text="$\\therefore $~ Answer~ $= (000000000000)=0$ "
       word-spacing="normal"
       letter-spacing="normal"
       font-size-adjust="none"
       font-stretch="normal"
       font-weight="normal"
       font-variant="normal"
       font-style="normal"
       stroke-miterlimit="10.433"
       xml:space="preserve"
       transform="matrix(1.2,0,0,-1.2,-56.394892,1784.2004)"
       id="g23584"><path
         id="path23586"
         d="m 227.27,711.21 0,0.02 0,0.03 0,0.03 -0.01,0.02 0,0.03 -0.01,0.02 -0.01,0.03 -0.01,0.02 -0.01,0.02 -0.01,0.03 -0.01,0.02 -0.02,0.02 -0.01,0.02 -0.02,0.02 -0.02,0.02 -0.01,0.02 -0.02,0.02 -0.02,0.01 -0.02,0.02 -0.02,0.01 -0.02,0.02 -0.02,0.01 -0.03,0.01 -0.02,0.01 -0.02,0.01 -0.03,0.01 -0.02,0.01 -0.03,0 -0.03,0.01 -0.02,0 -0.03,0 -0.03,0 c -0.28,0 -0.52,-0.23 -0.52,-0.52 0,-0.29 0.24,-0.53 0.52,-0.53 0.28,0 0.53,0.23 0.53,0.53 z"
         inkscape:connector-curvature="0"
         style="fill:#000000;stroke-width:0" /><path
         id="path23588"
         d="m 229.76,706.91 0,0.02 0,0.03 -0.01,0.03 0,0.02 -0.01,0.03 0,0.02 -0.01,0.03 -0.01,0.02 -0.01,0.02 -0.01,0.03 -0.02,0.02 -0.01,0.02 -0.02,0.02 -0.01,0.02 -0.02,0.02 -0.02,0.02 -0.01,0.02 -0.02,0.01 -0.02,0.02 -0.02,0.01 -0.03,0.02 -0.02,0.01 -0.02,0.01 -0.02,0.01 -0.03,0.01 -0.02,0.01 -0.03,0.01 -0.02,0 -0.03,0.01 -0.02,0 -0.03,0 -0.03,0 c -0.29,0 -0.52,-0.24 -0.52,-0.52 0,-0.29 0.23,-0.53 0.52,-0.53 0.29,0 0.53,0.24 0.53,0.53 z"
         inkscape:connector-curvature="0"
         style="fill:#000000;stroke-width:0" /><path
         id="path23590"
         d="m 224.79,706.91 -0.01,0.02 0,0.03 0,0.03 -0.01,0.02 0,0.03 -0.01,0.02 -0.01,0.03 -0.01,0.02 -0.01,0.02 -0.01,0.03 -0.01,0.02 -0.02,0.02 -0.01,0.02 -0.02,0.02 -0.01,0.02 -0.02,0.02 -0.02,0.02 -0.02,0.01 -0.02,0.02 -0.02,0.01 -0.02,0.02 -0.02,0.01 -0.02,0.01 -0.03,0.01 -0.02,0.01 -0.03,0.01 -0.02,0.01 -0.03,0 -0.02,0.01 -0.03,0 -0.03,0 -0.02,0 c -0.29,0 -0.53,-0.24 -0.53,-0.52 0,-0.29 0.24,-0.53 0.53,-0.53 0.29,0 0.53,0.24 0.53,0.53 z"
         inkscape:connector-curvature="0"
         style="fill:#000000;stroke-width:0" /><path
         id="path23592"
         d="m 242.08,707.31 -0.04,0.01 -0.04,0 -0.04,0 -0.03,0.01 -0.04,0.01 -0.03,0 -0.03,0.01 -0.03,0.01 -0.03,0.01 -0.03,0.01 -0.02,0.01 -0.03,0.02 -0.02,0.01 -0.03,0.02 -0.02,0.02 -0.03,0.02 -0.02,0.03 -0.02,0.02 -0.03,0.03 -0.02,0.03 -0.02,0.03 -0.02,0.04 -0.03,0.04 -0.02,0.04 -0.03,0.04 -0.02,0.05 -0.03,0.05 -0.03,0.05 -0.02,0.06 -0.03,0.06 -0.02,0.03 -0.01,0.03 -0.02,0.03 -0.02,0.04 -2.47,5.64 h -0.2 l -2.07,-4.88 c -0.64,-1.45 -0.76,-1.61 -1.24,-1.63 v -0.19 h 1.97 v 0.19 c -0.47,0 -0.67,0.13 -0.67,0.41 0,0.12 0.03,0.26 0.08,0.39 l 0.46,1.16 h 2.6 l -0.14,0.41 h -2.3 l 1.15,2.73 1.15,-2.73 0.14,-0.41 0.41,-0.95 c 0.12,-0.27 0.19,-0.53 0.19,-0.67 0,-0.25 -0.17,-0.33 -0.7,-0.34 v -0.19 h 2.54 z"
         inkscape:connector-curvature="0"
         style="fill:#000000;stroke-width:0" /><path
         id="path23594"
         d="m 242.41,711.08 0,0 0.01,0 0,0.01 0.01,0 0.01,0 0,0 0.01,0.01 0.01,0 0.01,0 0,0 0.02,0 0.02,0.01 0.01,0 0.02,0 0.02,0 0.02,0 0.02,0.01 0.02,0 0.02,0 0.02,0 0.02,0 c 0.27,0 0.36,-0.15 0.36,-0.64 v -2.46 c 0,-0.57 -0.11,-0.71 -0.61,-0.75 v -0.15 h 2.11 v 0.15 c -0.51,0.04 -0.66,0.16 -0.66,0.52 v 2.79 c 0.48,0.45 0.7,0.57 1.02,0.57 0.49,0 0.73,-0.31 0.73,-0.97 v -2.07 c 0,-0.63 -0.13,-0.8 -0.63,-0.84 v -0.15 h 2.07 v 0.15 c -0.48,0.05 -0.6,0.17 -0.6,0.66 v 2.27 c 0,0.94 -0.44,1.5 -1.18,1.5 -0.45,0 -0.76,-0.17 -1.44,-0.81 v 0.78 l -0.07,0.03 c -0.49,-0.18 -0.83,-0.29 -1.37,-0.45 z"
         inkscape:connector-curvature="0"
         style="fill:#000000;stroke-width:0" /><path
         id="path23596"
         d="m 250.36,710.24 -0.04,1.35 h -0.11 l -0.02,-0.01 c -0.09,-0.07 -0.09,-0.08 -0.14,-0.08 -0.06,0 -0.15,0.02 -0.26,0.07 -0.22,0.08 -0.44,0.11 -0.7,0.11 -0.79,0 -1.35,-0.5 -1.35,-1.22 0,-0.55 0.31,-0.95 1.16,-1.43 l 0.58,-0.33 c 0.35,-0.19 0.51,-0.43 0.51,-0.74 0,-0.44 -0.31,-0.72 -0.82,-0.72 -0.34,0 -0.65,0.13 -0.84,0.35 -0.21,0.25 -0.29,0.48 -0.42,1.05 h -0.16 v -1.55 h 0.13 c 0.07,0.09 0.11,0.11 0.22,0.11 0.09,0 0.23,-0.02 0.46,-0.08 0.28,-0.05 0.55,-0.09 0.73,-0.09 0.76,0 1.4,0.57 1.4,1.27 0,0.49 -0.24,0.82 -0.83,1.18 l -1.08,0.63 c -0.28,0.16 -0.43,0.41 -0.43,0.68 0,0.4 0.31,0.68 0.77,0.68 0.57,0 0.87,-0.34 1.09,-1.23 z"
         inkscape:connector-curvature="0"
         style="fill:#000000;stroke-width:0" /><path
         id="path23598"
         d="m 256.79,711.59 v -0.14 c 0.33,-0.07 0.43,-0.14 0.43,-0.31 0,-0.15 -0.06,-0.39 -0.17,-0.66 l -0.89,-2.2 -0.84,2.22 c -0.17,0.46 -0.17,0.46 -0.17,0.59 0,0.22 0.11,0.29 0.58,0.36 v 0.14 h -2.02 v -0.14 c 0.37,-0.04 0.49,-0.15 0.69,-0.69 0.07,-0.19 0.14,-0.38 0.2,-0.56 l -0.91,-1.97 -0.98,2.59 c -0.04,0.1 -0.06,0.2 -0.06,0.3 0,0.21 0.12,0.29 0.45,0.33 v 0.14 h -1.79 v -0.14 c 0.23,-0.02 0.31,-0.12 0.53,-0.63 l 1.34,-3.4 c 0.12,-0.3 0.2,-0.43 0.26,-0.43 0.05,0 0.13,0.12 0.25,0.38 l 1.12,2.39 0.9,-2.35 c 0.14,-0.36 0.18,-0.42 0.24,-0.42 0.07,0 0.12,0.09 0.28,0.48 l 1.37,3.44 c 0.18,0.42 0.21,0.47 0.41,0.54 v 0.14 z"
         inkscape:connector-curvature="0"
         style="fill:#000000;stroke-width:0" /><path
         id="path23600"
         d="m 262.36,708.75 -0.05,-0.07 -0.04,-0.06 -0.05,-0.07 -0.04,-0.06 -0.04,-0.06 -0.05,-0.05 -0.04,-0.06 -0.05,-0.05 -0.04,-0.05 -0.04,-0.04 -0.05,-0.05 -0.04,-0.04 -0.05,-0.04 -0.04,-0.03 -0.05,-0.04 -0.04,-0.03 -0.05,-0.03 -0.05,-0.03 -0.05,-0.02 -0.04,-0.03 -0.05,-0.02 -0.05,-0.02 -0.05,-0.02 -0.05,-0.01 -0.05,-0.02 -0.06,-0.01 -0.05,-0.01 -0.06,-0.01 -0.05,0 -0.06,-0.01 -0.06,0 -0.05,0 c -0.57,0 -1,0.29 -1.29,0.86 -0.18,0.37 -0.25,0.7 -0.27,1.31 l 0.02,0.32 c 0.11,0.77 0.45,1.14 1.06,1.14 0.6,0 0.84,-0.28 0.97,-1.14 h -2.03 l -0.02,-0.32 h 3.07 c -0.08,0.64 -0.18,0.93 -0.43,1.25 -0.3,0.36 -0.76,0.57 -1.27,0.57 -0.5,0 -0.97,-0.18 -1.35,-0.52 -0.46,-0.41 -0.73,-1.11 -0.73,-1.93 0,-1.37 0.71,-2.22 1.86,-2.22 0.94,0 1.69,0.58 2.11,1.65 z"
         inkscape:connector-curvature="0"
         style="fill:#000000;stroke-width:0" /><path
         id="path23602"
         d="m 262.79,711 0.01,0 0.02,0 0.01,0.01 0.01,0 0.02,0 0.03,0.01 0.02,0 0.02,0 0.02,0.01 0.02,0 0.02,0 0.02,0 0.02,0.01 0.02,0 0.02,0 0.03,0 0.02,0 0.02,0 c 0.25,0 0.34,-0.16 0.34,-0.6 v -2.48 c 0,-0.5 -0.07,-0.57 -0.71,-0.69 v -0.15 h 2.39 v 0.15 c -0.68,0.03 -0.85,0.18 -0.85,0.75 v 2.23 c 0,0.32 0.43,0.82 0.7,0.82 0.06,0 0.15,-0.05 0.26,-0.15 0.16,-0.14 0.27,-0.2 0.4,-0.2 0.23,0 0.38,0.17 0.38,0.45 0,0.33 -0.2,0.53 -0.54,0.53 -0.42,0 -0.71,-0.23 -1.2,-0.94 v 0.91 l -0.05,0.03 c -0.52,-0.22 -0.88,-0.35 -1.47,-0.54 z"
         inkscape:connector-curvature="0"
         style="fill:#000000;stroke-width:0" /><polygon
         id="polygon23604"
         points="271.64,710.4 276.73,710.4 276.73,710.96 271.64,710.96 "
         style="fill:#000000;stroke-width:0" /><polygon
         id="polygon23606"
         points="271.64,708.39 276.73,708.39 276.73,708.94 271.64,708.94 "
         style="fill:#000000;stroke-width:0" /><path
         id="path23608"
         d="m 283.06,713.84 -0.07,-0.04 -0.06,-0.05 -0.07,-0.04 -0.06,-0.04 -0.06,-0.04 -0.05,-0.04 -0.06,-0.04 -0.05,-0.03 -0.05,-0.04 -0.05,-0.04 -0.05,-0.03 -0.04,-0.04 -0.05,-0.03 -0.04,-0.04 -0.08,-0.06 -0.08,-0.07 -0.07,-0.07 -0.07,-0.07 -0.07,-0.07 -0.07,-0.07 -0.07,-0.08 -0.07,-0.08 -0.06,-0.08 c -0.71,-0.87 -1.06,-1.86 -1.06,-3.02 0,-1.26 0.37,-2.24 1.25,-3.25 0.4,-0.48 0.66,-0.7 1.18,-1.01 l 0.12,0.16 c -0.8,0.62 -1.08,0.97 -1.35,1.71 -0.23,0.67 -0.34,1.42 -0.34,2.42 0,1.04 0.13,1.86 0.4,2.47 0.27,0.62 0.57,0.97 1.29,1.55 z"
         inkscape:connector-curvature="0"
         style="fill:#000000;stroke-width:0" /><path
         id="path23610"
         d="m 285.97,713.84 -0.05,0 -0.05,0 -0.05,0 -0.05,-0.01 -0.05,0 -0.05,-0.01 -0.04,0 -0.05,-0.01 -0.04,-0.01 -0.05,-0.01 -0.04,-0.01 -0.05,-0.01 -0.04,-0.01 -0.04,-0.02 -0.04,-0.01 -0.05,-0.02 -0.04,-0.01 -0.04,-0.02 -0.04,-0.02 -0.04,-0.02 -0.03,-0.02 -0.04,-0.02 -0.04,-0.03 -0.04,-0.02 -0.04,-0.02 -0.03,-0.03 -0.04,-0.03 -0.03,-0.02 -0.04,-0.03 -0.04,-0.03 -0.03,-0.03 -0.03,-0.04 c -0.58,-0.55 -0.96,-1.7 -0.96,-2.86 0,-1.08 0.33,-2.24 0.8,-2.8 0.36,-0.44 0.87,-0.67 1.45,-0.67 v 0.25 c -0.86,0 -1.29,1.07 -1.29,3.13 0,2.11 0.44,3.21 1.3,3.21 h 0 c 0.83,0 1.28,-1.12 1.28,-3.2 0,-2.07 -0.44,-3.14 -1.29,-3.14 v -0.25 c 0.51,0 0.93,0.17 1.29,0.51 0.58,0.55 0.96,1.7 0.96,2.9 0,2.04 -0.91,3.44 -2.21,3.44 z"
         inkscape:connector-curvature="0"
         style="fill:#000000;stroke-width:0" /><path
         id="path23612"
         d="m 290.95,713.84 -0.05,0 -0.05,0 -0.05,0 -0.05,-0.01 -0.05,0 -0.04,-0.01 -0.05,0 -0.05,-0.01 -0.04,-0.01 -0.05,-0.01 -0.04,-0.01 -0.05,-0.01 -0.04,-0.01 -0.04,-0.02 -0.04,-0.01 -0.04,-0.02 -0.04,-0.01 -0.04,-0.02 -0.04,-0.02 -0.04,-0.02 -0.04,-0.02 -0.04,-0.02 -0.04,-0.03 -0.04,-0.02 -0.03,-0.02 -0.04,-0.03 -0.04,-0.03 -0.03,-0.02 -0.04,-0.03 -0.03,-0.03 -0.04,-0.03 -0.03,-0.04 c -0.58,-0.55 -0.96,-1.7 -0.96,-2.86 0,-1.08 0.33,-2.24 0.8,-2.8 0.37,-0.44 0.87,-0.67 1.45,-0.67 v 0.25 c -0.86,0 -1.29,1.07 -1.29,3.13 0,2.11 0.44,3.21 1.3,3.21 h 0 c 0.84,0 1.28,-1.12 1.28,-3.2 0,-2.07 -0.43,-3.14 -1.29,-3.14 v -0.25 c 0.51,0 0.94,0.17 1.29,0.51 0.58,0.55 0.96,1.7 0.96,2.9 0,2.04 -0.91,3.44 -2.21,3.44 z"
         inkscape:connector-curvature="0"
         style="fill:#000000;stroke-width:0" /><path
         id="path23614"
         d="m 295.93,713.84 -0.05,0 -0.05,0 -0.05,0 -0.05,-0.01 -0.05,0 -0.04,-0.01 -0.05,0 -0.05,-0.01 -0.04,-0.01 -0.05,-0.01 -0.04,-0.01 -0.04,-0.01 -0.05,-0.01 -0.04,-0.02 -0.04,-0.01 -0.04,-0.02 -0.04,-0.01 -0.04,-0.02 -0.04,-0.02 -0.04,-0.02 -0.04,-0.02 -0.04,-0.02 -0.04,-0.03 -0.04,-0.02 -0.03,-0.02 -0.04,-0.03 -0.04,-0.03 -0.03,-0.02 -0.04,-0.03 -0.03,-0.03 -0.04,-0.03 -0.03,-0.04 c -0.58,-0.55 -0.96,-1.7 -0.96,-2.86 0,-1.08 0.33,-2.24 0.8,-2.8 0.37,-0.44 0.87,-0.67 1.45,-0.67 v 0.25 c -0.85,0 -1.29,1.07 -1.29,3.13 0,2.11 0.45,3.21 1.3,3.21 h 0 c 0.84,0 1.28,-1.12 1.28,-3.2 0,-2.07 -0.43,-3.14 -1.29,-3.14 v -0.25 c 0.51,0 0.94,0.17 1.29,0.51 0.58,0.55 0.96,1.7 0.96,2.9 0,2.04 -0.91,3.44 -2.21,3.44 z"
         inkscape:connector-curvature="0"
         style="fill:#000000;stroke-width:0" /><path
         id="path23616"
         d="m 300.91,713.84 -0.05,0 -0.05,0 -0.05,0 -0.05,-0.01 -0.04,0 -0.05,-0.01 -0.05,0 -0.04,-0.01 -0.05,-0.01 -0.05,-0.01 -0.04,-0.01 -0.04,-0.01 -0.05,-0.01 -0.04,-0.02 -0.04,-0.01 -0.04,-0.02 -0.04,-0.01 -0.04,-0.02 -0.04,-0.02 -0.04,-0.02 -0.04,-0.02 -0.04,-0.02 -0.04,-0.03 -0.03,-0.02 -0.04,-0.02 -0.04,-0.03 -0.03,-0.03 -0.04,-0.02 -0.04,-0.03 -0.03,-0.03 -0.04,-0.03 -0.03,-0.04 c -0.58,-0.55 -0.96,-1.7 -0.96,-2.86 0,-1.08 0.33,-2.24 0.8,-2.8 0.37,-0.44 0.88,-0.67 1.45,-0.67 v 0.25 c -0.85,0 -1.29,1.07 -1.29,3.13 0,2.11 0.45,3.21 1.3,3.21 h 0 c 0.84,0 1.29,-1.12 1.29,-3.2 0,-2.07 -0.44,-3.14 -1.3,-3.14 v -0.25 c 0.51,0 0.94,0.17 1.3,0.51 0.57,0.55 0.95,1.7 0.95,2.9 0,2.04 -0.9,3.44 -2.21,3.44 z"
         inkscape:connector-curvature="0"
         style="fill:#000000;stroke-width:0" /><path
         id="path23618"
         d="m 305.89,713.84 -0.05,0 -0.05,0 -0.05,0 -0.05,-0.01 -0.04,0 -0.05,-0.01 -0.05,0 -0.04,-0.01 -0.05,-0.01 -0.04,-0.01 -0.05,-0.01 -0.04,-0.01 -0.04,-0.01 -0.05,-0.02 -0.04,-0.01 -0.04,-0.02 -0.04,-0.01 -0.04,-0.02 -0.04,-0.02 -0.04,-0.02 -0.04,-0.02 -0.04,-0.02 -0.03,-0.03 -0.04,-0.02 -0.04,-0.02 -0.04,-0.03 -0.03,-0.03 -0.04,-0.02 -0.03,-0.03 -0.04,-0.03 -0.03,-0.03 -0.04,-0.04 c -0.58,-0.55 -0.95,-1.7 -0.95,-2.86 0,-1.08 0.32,-2.24 0.79,-2.8 0.37,-0.44 0.88,-0.67 1.45,-0.67 v 0.25 c -0.85,0 -1.29,1.07 -1.29,3.13 0,2.11 0.45,3.21 1.3,3.21 h 0 c 0.84,0 1.29,-1.12 1.29,-3.2 0,-2.07 -0.44,-3.14 -1.3,-3.14 v -0.25 c 0.51,0 0.94,0.17 1.3,0.51 0.57,0.55 0.95,1.7 0.95,2.9 0,2.04 -0.9,3.44 -2.21,3.44 z"
         inkscape:connector-curvature="0"
         style="fill:#000000;stroke-width:0" /><path
         id="path23620"
         d="m 310.88,713.84 -0.06,0 -0.05,0 -0.05,0 -0.04,-0.01 -0.05,0 -0.05,-0.01 -0.05,0 -0.04,-0.01 -0.05,-0.01 -0.04,-0.01 -0.05,-0.01 -0.04,-0.01 -0.04,-0.01 -0.05,-0.02 -0.04,-0.01 -0.04,-0.02 -0.04,-0.01 -0.04,-0.02 -0.04,-0.02 -0.04,-0.02 -0.04,-0.02 -0.04,-0.02 -0.03,-0.03 -0.04,-0.02 -0.04,-0.02 -0.04,-0.03 -0.03,-0.03 -0.04,-0.02 -0.03,-0.03 -0.04,-0.03 -0.03,-0.03 -0.04,-0.04 c -0.58,-0.55 -0.95,-1.7 -0.95,-2.86 0,-1.08 0.33,-2.24 0.79,-2.8 0.37,-0.44 0.88,-0.67 1.45,-0.67 v 0.25 c -0.85,0 -1.29,1.07 -1.29,3.13 0,2.11 0.45,3.21 1.31,3.21 h 0 c 0.83,0 1.28,-1.12 1.28,-3.2 0,-2.07 -0.44,-3.14 -1.3,-3.14 v -0.25 c 0.51,0 0.94,0.17 1.3,0.51 0.58,0.55 0.95,1.7 0.95,2.9 0,2.04 -0.9,3.44 -2.2,3.44 z"
         inkscape:connector-curvature="0"
         style="fill:#000000;stroke-width:0" /><path
         id="path23622"
         d="m 315.86,713.84 -0.05,0 -0.06,0 -0.04,0 -0.05,-0.01 -0.05,0 -0.05,-0.01 -0.05,0 -0.04,-0.01 -0.05,-0.01 -0.04,-0.01 -0.05,-0.01 -0.04,-0.01 -0.04,-0.01 -0.04,-0.02 -0.05,-0.01 -0.04,-0.02 -0.04,-0.01 -0.04,-0.02 -0.04,-0.02 -0.04,-0.02 -0.04,-0.02 -0.03,-0.02 -0.04,-0.03 -0.04,-0.02 -0.04,-0.02 -0.03,-0.03 -0.04,-0.03 -0.04,-0.02 -0.03,-0.03 -0.04,-0.03 -0.03,-0.03 -0.04,-0.04 c -0.57,-0.55 -0.95,-1.7 -0.95,-2.86 0,-1.08 0.33,-2.24 0.79,-2.8 0.37,-0.44 0.88,-0.67 1.46,-0.67 v 0.25 c -0.86,0 -1.3,1.07 -1.3,3.13 0,2.11 0.45,3.21 1.31,3.21 h 0 c 0.83,0 1.28,-1.12 1.28,-3.2 0,-2.07 -0.44,-3.14 -1.29,-3.14 v -0.25 c 0.5,0 0.93,0.17 1.29,0.51 0.58,0.55 0.96,1.7 0.96,2.9 0,2.04 -0.91,3.44 -2.21,3.44 z"
         inkscape:connector-curvature="0"
         style="fill:#000000;stroke-width:0" /><path
         id="path23624"
         d="m 320.84,713.84 -0.05,0 -0.05,0 -0.05,0 -0.05,-0.01 -0.05,0 -0.05,-0.01 -0.04,0 -0.05,-0.01 -0.05,-0.01 -0.04,-0.01 -0.04,-0.01 -0.05,-0.01 -0.04,-0.01 -0.04,-0.02 -0.04,-0.01 -0.05,-0.02 -0.04,-0.01 -0.04,-0.02 -0.04,-0.02 -0.04,-0.02 -0.04,-0.02 -0.03,-0.02 -0.04,-0.03 -0.04,-0.02 -0.04,-0.02 -0.03,-0.03 -0.04,-0.03 -0.04,-0.02 -0.03,-0.03 -0.04,-0.03 -0.03,-0.03 -0.04,-0.04 c -0.57,-0.55 -0.95,-1.7 -0.95,-2.86 0,-1.08 0.33,-2.24 0.8,-2.8 0.36,-0.44 0.87,-0.67 1.45,-0.67 v 0.25 c -0.86,0 -1.3,1.07 -1.3,3.13 0,2.11 0.45,3.21 1.31,3.21 h 0 c 0.83,0 1.28,-1.12 1.28,-3.2 0,-2.07 -0.44,-3.14 -1.29,-3.14 v -0.25 c 0.5,0 0.93,0.17 1.29,0.51 0.58,0.55 0.96,1.7 0.96,2.9 0,2.04 -0.91,3.44 -2.21,3.44 z"
         inkscape:connector-curvature="0"
         style="fill:#000000;stroke-width:0" /><path
         id="path23626"
         d="m 325.82,713.84 -0.05,0 -0.05,0 -0.05,0 -0.05,-0.01 -0.05,0 -0.05,-0.01 -0.04,0 -0.05,-0.01 -0.04,-0.01 -0.05,-0.01 -0.04,-0.01 -0.05,-0.01 -0.04,-0.01 -0.04,-0.02 -0.04,-0.01 -0.04,-0.02 -0.05,-0.01 -0.04,-0.02 -0.04,-0.02 -0.03,-0.02 -0.04,-0.02 -0.04,-0.02 -0.04,-0.03 -0.04,-0.02 -0.03,-0.02 -0.04,-0.03 -0.04,-0.03 -0.03,-0.02 -0.04,-0.03 -0.03,-0.03 -0.04,-0.03 -0.03,-0.04 c -0.58,-0.55 -0.96,-1.7 -0.96,-2.86 0,-1.08 0.33,-2.24 0.8,-2.8 0.37,-0.44 0.87,-0.67 1.45,-0.67 v 0.25 c -0.86,0 -1.29,1.07 -1.29,3.13 0,2.11 0.44,3.21 1.3,3.21 h 0 c 0.83,0 1.28,-1.12 1.28,-3.2 0,-2.07 -0.43,-3.14 -1.29,-3.14 v -0.25 c 0.51,0 0.93,0.17 1.29,0.51 0.58,0.55 0.96,1.7 0.96,2.9 0,2.04 -0.91,3.44 -2.21,3.44 z"
         inkscape:connector-curvature="0"
         style="fill:#000000;stroke-width:0" /><path
         id="path23628"
         d="m 330.8,713.84 -0.05,0 -0.05,0 -0.05,0 -0.05,-0.01 -0.05,0 -0.04,-0.01 -0.05,0 -0.05,-0.01 -0.04,-0.01 -0.05,-0.01 -0.04,-0.01 -0.05,-0.01 -0.04,-0.01 -0.04,-0.02 -0.04,-0.01 -0.04,-0.02 -0.04,-0.01 -0.04,-0.02 -0.04,-0.02 -0.04,-0.02 -0.04,-0.02 -0.04,-0.02 -0.04,-0.03 -0.04,-0.02 -0.03,-0.02 -0.04,-0.03 -0.04,-0.03 -0.03,-0.02 -0.04,-0.03 -0.03,-0.03 -0.04,-0.03 -0.03,-0.04 c -0.58,-0.55 -0.96,-1.7 -0.96,-2.86 0,-1.08 0.33,-2.24 0.8,-2.8 0.37,-0.44 0.87,-0.67 1.45,-0.67 v 0.25 c -0.86,0 -1.29,1.07 -1.29,3.13 0,2.11 0.45,3.21 1.3,3.21 h 0 c 0.84,0 1.28,-1.12 1.28,-3.2 0,-2.07 -0.43,-3.14 -1.29,-3.14 v -0.25 c 0.51,0 0.94,0.17 1.29,0.51 0.58,0.55 0.96,1.7 0.96,2.9 0,2.04 -0.91,3.44 -2.21,3.44 z"
         inkscape:connector-curvature="0"
         style="fill:#000000;stroke-width:0" /><path
         id="path23630"
         d="m 335.78,713.84 -0.05,0 -0.05,0 -0.05,0 -0.05,-0.01 -0.05,0 -0.04,-0.01 -0.05,0 -0.05,-0.01 -0.04,-0.01 -0.05,-0.01 -0.04,-0.01 -0.04,-0.01 -0.05,-0.01 -0.04,-0.02 -0.04,-0.01 -0.04,-0.02 -0.04,-0.01 -0.04,-0.02 -0.04,-0.02 -0.04,-0.02 -0.04,-0.02 -0.04,-0.02 -0.04,-0.03 -0.04,-0.02 -0.03,-0.02 -0.04,-0.03 -0.04,-0.03 -0.03,-0.02 -0.04,-0.03 -0.03,-0.03 -0.04,-0.03 -0.03,-0.04 c -0.58,-0.55 -0.96,-1.7 -0.96,-2.86 0,-1.08 0.33,-2.24 0.8,-2.8 0.37,-0.44 0.88,-0.67 1.45,-0.67 v 0.25 c -0.85,0 -1.29,1.07 -1.29,3.13 0,2.11 0.45,3.21 1.3,3.21 h 0 c 0.84,0 1.29,-1.12 1.29,-3.2 0,-2.07 -0.44,-3.14 -1.3,-3.14 v -0.25 c 0.51,0 0.94,0.17 1.3,0.51 0.57,0.55 0.95,1.7 0.95,2.9 0,2.04 -0.91,3.44 -2.21,3.44 z"
         inkscape:connector-curvature="0"
         style="fill:#000000;stroke-width:0" /><path
         id="path23632"
         d="m 340.76,713.84 -0.05,0 -0.05,0 -0.05,0 -0.05,-0.01 -0.04,0 -0.05,-0.01 -0.05,0 -0.04,-0.01 -0.05,-0.01 -0.04,-0.01 -0.05,-0.01 -0.04,-0.01 -0.05,-0.01 -0.04,-0.02 -0.04,-0.01 -0.04,-0.02 -0.04,-0.01 -0.04,-0.02 -0.04,-0.02 -0.04,-0.02 -0.04,-0.02 -0.04,-0.02 -0.04,-0.03 -0.03,-0.02 -0.04,-0.02 -0.04,-0.03 -0.03,-0.03 -0.04,-0.02 -0.04,-0.03 -0.03,-0.03 -0.04,-0.03 -0.03,-0.04 c -0.58,-0.55 -0.95,-1.7 -0.95,-2.86 0,-1.08 0.32,-2.24 0.79,-2.8 0.37,-0.44 0.88,-0.67 1.45,-0.67 v 0.25 c -0.85,0 -1.29,1.07 -1.29,3.13 0,2.11 0.45,3.21 1.3,3.21 h 0 c 0.84,0 1.29,-1.12 1.29,-3.2 0,-2.07 -0.44,-3.14 -1.3,-3.14 v -0.25 c 0.51,0 0.94,0.17 1.3,0.51 0.57,0.55 0.95,1.7 0.95,2.9 0,2.04 -0.9,3.44 -2.21,3.44 z"
         inkscape:connector-curvature="0"
         style="fill:#000000;stroke-width:0" /><path
         id="path23634"
         d="m 343.6,705.37 0.06,0.04 0.07,0.04 0.06,0.05 0.06,0.04 0.06,0.04 0.06,0.03 0.05,0.04 0.05,0.04 0.05,0.04 0.05,0.03 0.05,0.04 0.05,0.03 0.04,0.04 0.04,0.03 0.08,0.07 0.08,0.07 0.08,0.07 0.07,0.07 0.07,0.07 0.06,0.07 0.07,0.08 0.07,0.08 0.07,0.08 c 0.7,0.86 1.05,1.86 1.05,3.02 0,1.27 -0.37,2.23 -1.24,3.25 -0.41,0.47 -0.67,0.69 -1.19,1.01 l -0.11,-0.16 c 0.79,-0.63 1.06,-0.97 1.34,-1.72 0.24,-0.66 0.35,-1.42 0.35,-2.41 0,-1.03 -0.13,-1.86 -0.4,-2.46 -0.28,-0.63 -0.58,-0.99 -1.29,-1.56 z"
         inkscape:connector-curvature="0"
         style="fill:#000000;stroke-width:0" /><polygon
         id="polygon23636"
         points="349.92,710.4 355.01,710.4 355.01,710.96 349.92,710.96 "
         style="fill:#000000;stroke-width:0" /><polygon
         id="polygon23638"
         points="349.92,708.39 355.01,708.39 355.01,708.94 349.92,708.94 "
         style="fill:#000000;stroke-width:0" /><path
         id="path23640"
         d="m 360.93,713.84 -0.05,0 -0.05,0 -0.05,0 -0.05,-0.01 -0.04,0 -0.05,-0.01 -0.05,0 -0.04,-0.01 -0.05,-0.01 -0.04,-0.01 -0.05,-0.01 -0.04,-0.01 -0.05,-0.01 -0.04,-0.02 -0.04,-0.01 -0.04,-0.02 -0.04,-0.01 -0.04,-0.02 -0.04,-0.02 -0.04,-0.02 -0.04,-0.02 -0.04,-0.02 -0.04,-0.03 -0.03,-0.02 -0.04,-0.02 -0.04,-0.03 -0.03,-0.03 -0.04,-0.02 -0.04,-0.03 -0.03,-0.03 -0.04,-0.03 -0.03,-0.04 c -0.58,-0.55 -0.96,-1.7 -0.96,-2.86 0,-1.08 0.33,-2.24 0.8,-2.8 0.37,-0.44 0.88,-0.67 1.45,-0.67 v 0.25 c -0.85,0 -1.29,1.07 -1.29,3.13 0,2.11 0.45,3.21 1.3,3.21 h 0 c 0.84,0 1.29,-1.12 1.29,-3.2 0,-2.07 -0.44,-3.14 -1.3,-3.14 v -0.25 c 0.51,0 0.94,0.17 1.3,0.51 0.57,0.55 0.95,1.7 0.95,2.9 0,2.04 -0.9,3.44 -2.21,3.44 z"
         inkscape:connector-curvature="0"
         style="fill:#000000;stroke-width:0" /></g>  </g>
</svg>
