<?xml version="1.0" encoding="UTF-8" standalone="no"?>
<!-- Created with Inkscape (http://www.inkscape.org/) -->

<svg
   xmlns:ns0="http://www.iki.fi/pav/software/textext/"
   xmlns:dc="http://purl.org/dc/elements/1.1/"
   xmlns:cc="http://creativecommons.org/ns#"
   xmlns:rdf="http://www.w3.org/1999/02/22-rdf-syntax-ns#"
   xmlns:svg="http://www.w3.org/2000/svg"
   xmlns="http://www.w3.org/2000/svg"
   xmlns:sodipodi="http://sodipodi.sourceforge.net/DTD/sodipodi-0.dtd"
   xmlns:inkscape="http://www.inkscape.org/namespaces/inkscape"
   width="496.06299"
   height="354.33069"
   id="svg2"
   version="1.1"
   inkscape:version="0.48.4 r9939"
   sodipodi:docname="div36.eps">
  <sodipodi:namedview
     id="base"
     pagecolor="#ffffff"
     bordercolor="#666666"
     borderopacity="1.0"
     inkscape:pageopacity="0.0"
     inkscape:pageshadow="2"
     inkscape:zoom="1.6848668"
     inkscape:cx="248.03149"
     inkscape:cy="177.16534"
     inkscape:document-units="cm"
     inkscape:current-layer="layer1"
     showgrid="false"
     units="cm"
     inkscape:object-nodes="true"
     inkscape:window-width="1366"
     inkscape:window-height="744"
     inkscape:window-x="0"
     inkscape:window-y="24"
     inkscape:window-maximized="1">
    <inkscape:grid
       type="xygrid"
       id="grid2985"
       empspacing="5"
       visible="true"
       enabled="true"
       snapvisiblegridlinesonly="true" />
  </sodipodi:namedview>
  <defs
     id="defs4">
    <marker
       inkscape:stockid="Arrow1Mstart"
       orient="auto"
       refY="0"
       refX="0"
       id="Arrow1Mstart"
       style="overflow:visible">
      <path
         inkscape:connector-curvature="0"
         id="path3775"
         d="M 0,0 5,-5 -12.5,0 5,5 0,0 z"
         style="fill-rule:evenodd;stroke:#000000;stroke-width:1pt"
         transform="matrix(0.4,0,0,0.4,4,0)" />
    </marker>
    <marker
       inkscape:stockid="Arrow1Mend"
       orient="auto"
       refY="0"
       refX="0"
       id="Arrow1Mend"
       style="overflow:visible">
      <path
         inkscape:connector-curvature="0"
         id="path3778"
         d="M 0,0 5,-5 -12.5,0 5,5 0,0 z"
         style="fill-rule:evenodd;stroke:#000000;stroke-width:1pt"
         transform="matrix(-0.4,0,0,-0.4,-4,0)" />
    </marker>
    <marker
       style="overflow:visible"
       id="Arrow1Mstart-7"
       refX="0"
       refY="0"
       orient="auto"
       inkscape:stockid="Arrow1Mstart">
      <path
         transform="matrix(0.4,0,0,0.4,4,0)"
         style="fill-rule:evenodd;stroke:#000000;stroke-width:1pt"
         d="M 0,0 5,-5 -12.5,0 5,5 0,0 z"
         id="path3775-8"
         inkscape:connector-curvature="0" />
    </marker>
    <marker
       style="overflow:visible"
       id="Arrow1Mend-3"
       refX="0"
       refY="0"
       orient="auto"
       inkscape:stockid="Arrow1Mend">
      <path
         transform="matrix(-0.4,0,0,-0.4,-4,0)"
         style="fill-rule:evenodd;stroke:#000000;stroke-width:1pt"
         d="M 0,0 5,-5 -12.5,0 5,5 0,0 z"
         id="path3778-2"
         inkscape:connector-curvature="0" />
    </marker>
  </defs>
  <metadata
     id="metadata7">
    <rdf:RDF>
      <cc:Work
         rdf:about="">
        <dc:format>image/svg+xml</dc:format>
        <dc:type
           rdf:resource="http://purl.org/dc/dcmitype/StillImage" />
        <dc:title></dc:title>
      </cc:Work>
    </rdf:RDF>
  </metadata>
  <g
     inkscape:label="Layer 1"
     inkscape:groupmode="layer"
     id="layer1"
     transform="translate(0,-698.03016)">
    <text
       sodipodi:linespacing="100%"
       id="text5818"
       y="754.07056"
       x="61.700558"
       style="font-size:12px;font-style:normal;font-variant:normal;font-weight:normal;font-stretch:normal;text-align:start;line-height:100%;letter-spacing:0px;word-spacing:0px;text-anchor:start;fill:#000000;fill-opacity:1;stroke:none;font-family:LMRoman12;-inkscape-font-specification:Sans"
       xml:space="preserve"><tspan
         y="754.07056"
         x="61.700558"
         id="tspan5820"
         sodipodi:role="line" /></text>
    <flowRoot
       xml:space="preserve"
       id="flowRoot6377"
       style="font-size:12px;font-style:normal;font-variant:normal;font-weight:normal;font-stretch:normal;text-align:start;line-height:100%;letter-spacing:0px;word-spacing:0px;text-anchor:start;fill:#000000;fill-opacity:1;stroke:none;font-family:LMRoman12;-inkscape-font-specification:Sans"><flowRegion
         id="flowRegion6379"><rect
           id="rect6381"
           width="27.681772"
           height="40.319103"
           x="219.34796"
           y="87.141403" /></flowRegion><flowPara
         id="flowPara6383" /></flowRoot>    <text
       xml:space="preserve"
       style="font-size:12px;font-style:normal;font-variant:normal;font-weight:normal;font-stretch:normal;text-align:start;line-height:50%;letter-spacing:0px;word-spacing:0px;text-anchor:start;fill:#000000;fill-opacity:1;stroke:none;font-family:LMRoman12;-inkscape-font-specification:Sans"
       x="275.91507"
       y="753.27734"
       id="text6385"
       sodipodi:linespacing="50%"><tspan
         sodipodi:role="line"
         id="tspan6387"
         x="275.91507"
         y="753.27734" /></text>
    <text
       xml:space="preserve"
       style="font-size:12px;font-style:normal;font-variant:normal;font-weight:normal;font-stretch:normal;text-align:start;line-height:100%;letter-spacing:0px;word-spacing:0px;text-anchor:start;fill:#000000;fill-opacity:1;stroke:none;font-family:LMRoman12;-inkscape-font-specification:Sans"
       x="348.65417"
       y="892.41718"
       id="text3884"
       sodipodi:linespacing="100%"><tspan
         sodipodi:role="line"
         x="348.65417"
         y="892.41718"
         id="tspan3890" /></text>
    <text
       xml:space="preserve"
       style="font-size:12px;font-style:normal;font-variant:normal;font-weight:normal;font-stretch:normal;text-align:start;line-height:150%;letter-spacing:0px;word-spacing:0px;text-anchor:start;fill:#000000;fill-opacity:1;stroke:none;font-family:LMRoman12;-inkscape-font-specification:Sans"
       x="216.96629"
       y="948.92749"
       id="text3887"
       sodipodi:linespacing="150%"><tspan
         sodipodi:role="line"
         id="tspan3889"
         x="216.96629"
         y="948.92749" /></text>
    <text
       xml:space="preserve"
       style="font-size:12px;font-style:normal;font-variant:normal;font-weight:normal;font-stretch:normal;text-align:start;line-height:150%;letter-spacing:0px;word-spacing:0px;text-anchor:start;fill:#000000;fill-opacity:1;stroke:none;font-family:LMRoman12;-inkscape-font-specification:Sans"
       x="173"
       y="759.11084"
       id="text7389"
       sodipodi:linespacing="150%"><tspan
         sodipodi:role="line"
         id="tspan7391"
         x="173"
         y="759.11084" /></text>
    <text
       sodipodi:linespacing="150%"
       id="text12764"
       y="833.35034"
       x="235.18646"
       style="font-size:12px;font-style:normal;font-variant:normal;font-weight:normal;font-stretch:normal;text-align:start;line-height:150%;letter-spacing:0px;word-spacing:0px;text-anchor:start;fill:#000000;fill-opacity:1;stroke:none;font-family:LMRoman12;-inkscape-font-specification:Sans"
       xml:space="preserve"><tspan
         y="833.35034"
         x="235.18646"
         id="tspan12766"
         sodipodi:role="line"
         dx="0 0 0.51797229">  0 1 0 0 1 1 1 0</tspan><tspan
         id="tspan12770"
         y="851.35034"
         x="235.18646"
         sodipodi:role="line">+1 0 1 1 1 1 1 1</tspan></text>
    <text
       xml:space="preserve"
       style="font-size:12px;font-style:normal;font-variant:normal;font-weight:normal;font-stretch:normal;text-align:start;line-height:150%;letter-spacing:0px;word-spacing:0px;text-anchor:start;fill:#000000;fill-opacity:1;stroke:none;font-family:LMRoman12;-inkscape-font-specification:Sans"
       x="347.50522"
       y="185.47461"
       id="text12776"
       sodipodi:linespacing="150%"
       transform="translate(0,698.03016)"><tspan
         sodipodi:role="line"
         id="tspan12778"
         x="347.50522"
         y="185.47461" /></text>
    <path
       style="fill:none;stroke:#000000;stroke-width:0.80000001;stroke-linecap:square;stroke-linejoin:round;stroke-miterlimit:4;stroke-opacity:1;stroke-dasharray:none;stroke-dashoffset:0"
       d="m 226.9678,857.55347 95.02598,0"
       id="path12780"
       inkscape:connector-curvature="0" />
    <text
       sodipodi:linespacing="150%"
       id="text12782"
       y="869.23932"
       x="233.5674"
       style="font-size:12px;font-style:normal;font-variant:normal;font-weight:normal;font-stretch:normal;text-align:start;line-height:150%;letter-spacing:0px;word-spacing:0px;text-anchor:start;fill:#000000;fill-opacity:1;stroke:none;font-family:LMRoman12;-inkscape-font-specification:Sans"
       xml:space="preserve"><tspan
         id="tspan12786"
         y="869.23932"
         x="233.5674"
         sodipodi:role="line">1 0 0 0 0 1 1 0 1 </tspan><tspan
         id="tspan12788"
         y="887.23932"
         x="233.5674"
         sodipodi:role="line" /></text>
    <text
       sodipodi:linespacing="150%"
       id="text12981"
       y="886.58783"
       x="175.61487"
       style="font-size:12px;font-style:normal;font-variant:normal;font-weight:normal;font-stretch:normal;text-align:start;line-height:150%;letter-spacing:0px;word-spacing:0px;text-anchor:start;fill:#000000;fill-opacity:1;stroke:none;font-family:LMRoman12;-inkscape-font-specification:Sans"
       xml:space="preserve"><tspan
         y="886.58783"
         x="175.61487"
         id="tspan12983"
         sodipodi:role="line">Neglect carry</tspan></text>
    <path
       sodipodi:type="arc"
       style="fill:none;stroke:#000000;stroke-width:0.60000002;stroke-linecap:square;stroke-linejoin:round;stroke-miterlimit:4;stroke-opacity:1;stroke-dasharray:none;stroke-dashoffset:0"
       id="path3764"
       sodipodi:cx="268.66678"
       sodipodi:cy="182.19679"
       sodipodi:rx="4.144124"
       sodipodi:ry="5.4042087"
       d="m 272.8109,182.19679 c 0,2.98466 -1.85538,5.40421 -4.14412,5.40421 -2.28874,0 -4.14413,-2.41955 -4.14413,-5.40421 0,-2.98466 1.85539,-5.40421 4.14413,-5.40421 2.28874,0 4.14412,2.41955 4.14412,5.40421 z"
       transform="translate(-32.180274,683.17851)" />
    <g
       style="font-style:normal;font-variant:normal;font-weight:normal;font-stretch:normal;letter-spacing:normal;word-spacing:normal;text-anchor:start;fill:none;stroke:#000000;stroke-width:1;stroke-linecap:butt;stroke-linejoin:miter;stroke-miterlimit:10.43299961;stroke-opacity:1;stroke-dasharray:none;stroke-dashoffset:0"
       ns0:preamble="/home/sriranga/Desktop/Prism_BasicElectronics/preamble.tex"
       ns0:text="\\begin{align*}\n\\text{Binary equivalent of } 65 &amp;= \\\\\n\\therefore ~\\text{2\'nd complement representation of} -65&amp; =\n\\end{align*}"
       word-spacing="normal"
       letter-spacing="normal"
       font-size-adjust="none"
       font-stretch="normal"
       font-weight="normal"
       font-variant="normal"
       font-style="normal"
       stroke-miterlimit="10.433"
       xml:space="preserve"
       transform="matrix(1.2,0,0,-1.2,-354.72057,1642.3845)"
       id="g6111"><path
         style="fill:#000000;stroke-width:0"
         inkscape:connector-curvature="0"
         id="path6113"
         d="m 383.22,713.7 v -0.19 c 0.84,-0.05 0.96,-0.16 0.96,-0.89 v -4.41 c 0,-0.74 -0.13,-0.87 -0.96,-0.9 v -0.19 h 3.33 c 0.77,0 1.48,0.21 1.85,0.55 0.36,0.32 0.55,0.77 0.55,1.24 0,0.44 -0.18,0.84 -0.48,1.13 -0.3,0.26 -0.57,0.38 -1.22,0.54 0.52,0.13 0.73,0.23 0.97,0.44 0.25,0.22 0.4,0.58 0.4,0.99 0,1.11 -0.89,1.69 -2.61,1.69 l -0.16,-0.37 c 1.14,0 1.75,-0.47 1.75,-1.36 0,-0.77 -0.53,-1.21 -1.46,-1.21 h -0.95 v -0.4 c 0.97,0 1.43,-0.05 1.78,-0.2 0.57,-0.23 0.84,-0.63 0.84,-1.26 0,-0.53 -0.21,-0.92 -0.61,-1.15 -0.32,-0.18 -0.72,-0.26 -1.38,-0.26 -0.49,0 -0.63,0.09 -0.63,0.41 v 2.46 0.4 2.28 c 0,0.2 0.07,0.29 0.22,0.29 h 0.44 l 0.16,0.37 z" /><path
         style="fill:#000000;stroke-width:0"
         inkscape:connector-curvature="0"
         id="path6115"
         d="m 391.44,711.7 -1.54,-0.55 V 711 l 0.08,0.01 c 0.12,0.02 0.25,0.03 0.34,0.03 0.23,0 0.32,-0.16 0.32,-0.6 v -2.3 c 0,-0.72 -0.09,-0.83 -0.78,-0.87 v -0.15 h 2.36 v 0.15 c -0.66,0.05 -0.74,0.15 -0.74,0.87 v 3.52 z" /><path
         style="fill:#000000;stroke-width:0"
         inkscape:connector-curvature="0"
         id="path6117"
         d="m 390.97,713.91 -0.02,0 -0.03,0 -0.02,-0.01 -0.03,0 -0.02,-0.01 -0.02,0 -0.03,-0.01 -0.02,-0.01 -0.02,-0.01 -0.02,-0.01 -0.02,-0.01 -0.02,-0.02 -0.02,-0.01 -0.02,-0.02 -0.02,-0.01 -0.02,-0.02 -0.01,-0.02 -0.02,-0.02 -0.01,-0.01 -0.02,-0.02 -0.01,-0.02 -0.01,-0.03 -0.01,-0.02 -0.02,-0.02 0,-0.02 -0.01,-0.03 -0.01,-0.02 0,-0.03 -0.01,-0.02 0,-0.03 0,-0.02 0,-0.03 c 0,-0.28 0.21,-0.5 0.49,-0.5 0.29,0 0.52,0.21 0.52,0.5 0,0.28 -0.23,0.51 -0.52,0.51 z" /><path
         style="fill:#000000;stroke-width:0"
         inkscape:connector-curvature="0"
         id="path6119"
         d="m 392.63,711.08 0,0 0.01,0 0.01,0.01 0,0 0.01,0 0.01,0 0,0.01 0.01,0 0.01,0 0,0 0.02,0 0.02,0.01 0.01,0 0.02,0 0.02,0 0.02,0 0.02,0.01 0.02,0 0.02,0 0.02,0 0.02,0 c 0.27,0 0.37,-0.15 0.37,-0.64 v -2.46 c 0,-0.57 -0.12,-0.71 -0.62,-0.75 v -0.15 h 2.11 v 0.15 c -0.51,0.04 -0.66,0.16 -0.66,0.52 v 2.79 c 0.48,0.45 0.7,0.57 1.02,0.57 0.49,0 0.73,-0.31 0.73,-0.97 v -2.07 c 0,-0.63 -0.13,-0.8 -0.63,-0.84 v -0.15 h 2.07 v 0.15 c -0.48,0.05 -0.6,0.17 -0.6,0.66 v 2.27 c 0,0.94 -0.44,1.5 -1.18,1.5 -0.46,0 -0.76,-0.17 -1.44,-0.81 v 0.78 L 394,711.7 c -0.49,-0.18 -0.83,-0.29 -1.37,-0.45 z" /><path
         style="fill:#000000;stroke-width:0"
         inkscape:connector-curvature="0"
         id="path6121"
         d="m 401.85,707.78 -0.02,-0.01 -0.01,-0.01 -0.02,-0.02 -0.01,-0.01 -0.02,-0.01 -0.01,-0.01 -0.02,-0.01 -0.01,-0.01 -0.02,-0.01 -0.01,0 -0.01,-0.01 -0.02,-0.01 -0.01,-0.01 -0.01,0 -0.02,-0.01 -0.01,-0.01 -0.01,0 -0.01,-0.01 -0.02,0 -0.01,0 -0.01,-0.01 -0.02,0 -0.01,-0.01 -0.01,0 -0.03,0 -0.03,-0.01 -0.02,0 -0.03,0 c -0.23,0 -0.3,0.14 -0.3,0.58 v 1.93 c 0,0.52 -0.05,0.81 -0.2,1.05 -0.22,0.36 -0.64,0.55 -1.23,0.55 -0.94,0 -1.67,-0.49 -1.67,-1.12 0,-0.23 0.2,-0.42 0.42,-0.42 0.24,0 0.45,0.19 0.45,0.41 0,0.04 -0.01,0.09 -0.02,0.16 -0.02,0.09 -0.03,0.17 -0.03,0.24 0,0.27 0.32,0.49 0.72,0.49 0.49,0 0.75,-0.29 0.75,-0.83 v -0.6 -0.24 -1.44 c 0,-0.31 -0.04,-0.4 -0.25,-0.52 -0.24,-0.14 -0.52,-0.23 -0.73,-0.23 -0.35,0 -0.63,0.34 -0.63,0.77 v 0.04 c 0,0.58 0.41,0.94 1.61,1.38 v 0.24 c -1.53,-0.62 -1.7,-0.7 -2.12,-1.08 -0.22,-0.2 -0.36,-0.53 -0.36,-0.86 0,-0.63 0.44,-1.06 1.04,-1.06 0.44,0 0.85,0.2 1.46,0.72 0.04,-0.52 0.22,-0.72 0.63,-0.72 0.34,0 0.55,0.12 0.9,0.49 z" /><path
         style="fill:#000000;stroke-width:0"
         inkscape:connector-curvature="0"
         id="path6123"
         d="m 401.94,711 0.02,0 0.01,0 0.01,0.01 0.01,0 0.03,0 0.02,0.01 0.02,0 0.02,0 0.02,0.01 0.02,0 0.02,0 0.03,0 0.02,0.01 0.02,0 0.02,0 0.02,0 0.02,0 0.02,0 c 0.25,0 0.34,-0.16 0.34,-0.6 v -2.48 c 0,-0.5 -0.07,-0.57 -0.71,-0.69 v -0.15 h 2.39 v 0.15 c -0.68,0.03 -0.85,0.18 -0.85,0.75 v 2.23 c 0,0.32 0.43,0.82 0.7,0.82 0.06,0 0.15,-0.05 0.26,-0.15 0.16,-0.14 0.27,-0.2 0.4,-0.2 0.24,0 0.39,0.17 0.39,0.45 0,0.33 -0.21,0.53 -0.55,0.53 -0.42,0 -0.71,-0.23 -1.2,-0.94 v 0.91 l -0.04,0.03 c -0.53,-0.22 -0.89,-0.35 -1.48,-0.54 z" /><path
         style="fill:#000000;stroke-width:0"
         inkscape:connector-curvature="0"
         id="path6125"
         d="m 409.92,711.59 h -1.35 v -0.14 c 0.32,0 0.48,-0.09 0.48,-0.25 0,-0.04 -0.01,-0.1 -0.04,-0.17 l -0.96,-2.74 -1.15,2.51 c -0.06,0.14 -0.1,0.27 -0.1,0.38 0,0.18 0.15,0.25 0.58,0.27 v 0.14 h -2.05 v -0.13 c 0.26,-0.04 0.43,-0.15 0.51,-0.32 l 1.13,-2.45 0.03,-0.08 0.15,-0.29 c 0.28,-0.5 0.44,-0.86 0.44,-1.01 0,-0.15 -0.23,-0.77 -0.4,-1.07 -0.14,-0.26 -0.36,-0.45 -0.5,-0.45 -0.06,0 -0.15,0.02 -0.25,0.07 -0.18,0.07 -0.35,0.11 -0.52,0.11 -0.23,0 -0.43,-0.2 -0.43,-0.43 0,-0.33 0.32,-0.58 0.74,-0.58 0.66,0 1.14,0.56 1.68,1.99 l 1.53,4.05 c 0.13,0.32 0.24,0.42 0.48,0.45 z" /><path
         style="fill:#000000;stroke-width:0"
         inkscape:connector-curvature="0"
         id="path6127"
         d="m 416.72,708.75 -0.04,-0.07 -0.05,-0.06 -0.04,-0.07 -0.05,-0.06 -0.04,-0.06 -0.04,-0.05 -0.05,-0.06 -0.04,-0.05 -0.05,-0.05 -0.04,-0.04 -0.04,-0.05 -0.05,-0.04 -0.04,-0.04 -0.05,-0.03 -0.04,-0.04 -0.05,-0.03 -0.05,-0.03 -0.04,-0.03 -0.05,-0.02 -0.05,-0.03 -0.05,-0.02 -0.05,-0.02 -0.05,-0.02 -0.05,-0.01 -0.05,-0.02 -0.05,-0.01 -0.06,-0.01 -0.05,-0.01 -0.06,0 -0.05,-0.01 -0.06,0 -0.06,0 c -0.57,0 -1,0.29 -1.28,0.86 -0.18,0.37 -0.25,0.7 -0.27,1.31 l 0.02,0.32 c 0.11,0.77 0.45,1.14 1.05,1.14 0.61,0 0.85,-0.28 0.98,-1.14 h -2.03 l -0.02,-0.32 h 3.06 c -0.08,0.64 -0.18,0.93 -0.43,1.25 -0.29,0.36 -0.75,0.57 -1.27,0.57 -0.5,0 -0.96,-0.18 -1.34,-0.52 -0.47,-0.41 -0.74,-1.11 -0.74,-1.93 0,-1.37 0.72,-2.22 1.86,-2.22 0.95,0 1.69,0.58 2.11,1.65 z" /><path
         style="fill:#000000;stroke-width:0"
         inkscape:connector-curvature="0"
         id="path6129"
         d="m 420.67,711.35 -0.04,0.02 -0.05,0.03 -0.04,0.02 -0.04,0.02 -0.04,0.02 -0.03,0.02 -0.04,0.02 -0.04,0.02 -0.04,0.01 -0.03,0.02 -0.04,0.01 -0.03,0.02 -0.04,0.01 -0.03,0.01 -0.07,0.03 -0.07,0.02 -0.06,0.01 -0.07,0.02 -0.07,0.01 -0.07,0 -0.06,0.01 -0.07,0 -0.08,0.01 c -1.24,0 -2.19,-1.12 -2.19,-2.55 0,-1.25 0.65,-2.13 1.59,-2.13 0.57,0 1.12,0.25 1.56,0.73 l -0.14,0.18 c -0.22,-0.19 -0.55,-0.31 -0.86,-0.31 -0.31,0 -0.57,0.1 -0.77,0.3 -0.32,0.29 -0.53,0.93 -0.53,1.59 0,1.17 0.53,1.91 1.37,1.91 0.62,0 0.93,-0.33 0.93,-1 v -2.04 c 0,-0.24 -0.04,-0.37 -0.14,-0.45 l 0.14,-0.18 v -1.87 c 0,-0.55 -0.18,-0.7 -0.89,-0.75 v -0.17 h 2.35 v 0.14 c -0.55,0.12 -0.63,0.2 -0.63,0.61 v 5.94 h -0.11 z" /><path
         style="fill:#000000;stroke-width:0"
         inkscape:connector-curvature="0"
         id="path6131"
         d="m 426.83,707.62 h -0.05 c -0.45,0 -0.56,0.11 -0.56,0.57 v 3.4 h -1.58 v -0.16 c 0.62,-0.03 0.74,-0.13 0.74,-0.63 v -2.33 c 0,-0.28 -0.05,-0.42 -0.19,-0.53 -0.27,-0.22 -0.58,-0.34 -0.87,-0.34 -0.39,0 -0.71,0.34 -0.71,0.76 v 3.23 h -1.45 v -0.13 c 0.47,-0.03 0.61,-0.18 0.61,-0.64 v -2.5 c 0,-0.79 0.48,-1.29 1.21,-1.29 0.37,0 0.75,0.15 1.02,0.42 l 0.43,0.43 v -0.83 l 0.04,-0.01 c 0.5,0.19 0.86,0.3 1.36,0.44 z" /><path
         style="fill:#000000;stroke-width:0"
         inkscape:connector-curvature="0"
         id="path6133"
         d="m 428.79,711.7 -1.54,-0.55 V 711 l 0.08,0.01 c 0.12,0.02 0.25,0.03 0.34,0.03 0.23,0 0.32,-0.16 0.32,-0.6 v -2.3 c 0,-0.72 -0.1,-0.83 -0.78,-0.87 v -0.15 h 2.36 v 0.15 c -0.66,0.05 -0.74,0.15 -0.74,0.87 v 3.52 z" /><path
         style="fill:#000000;stroke-width:0"
         inkscape:connector-curvature="0"
         id="path6135"
         d="m 428.32,713.91 -0.02,0 -0.03,0 -0.02,-0.01 -0.03,0 -0.02,-0.01 -0.02,0 -0.03,-0.01 -0.02,-0.01 -0.02,-0.01 -0.02,-0.01 -0.02,-0.01 -0.02,-0.02 -0.02,-0.01 -0.02,-0.02 -0.02,-0.01 -0.02,-0.02 -0.01,-0.02 -0.02,-0.02 -0.01,-0.01 -0.02,-0.02 -0.01,-0.02 -0.01,-0.03 -0.01,-0.02 -0.02,-0.02 0,-0.02 -0.01,-0.03 -0.01,-0.02 0,-0.03 -0.01,-0.02 0,-0.03 0,-0.02 0,-0.03 c 0,-0.28 0.21,-0.5 0.49,-0.5 0.29,0 0.52,0.21 0.52,0.5 0,0.28 -0.23,0.51 -0.52,0.51 z" /><path
         style="fill:#000000;stroke-width:0"
         inkscape:connector-curvature="0"
         id="path6137"
         d="m 434.32,711.59 h -1.39 v -0.14 c 0.32,-0.03 0.47,-0.13 0.47,-0.32 0,-0.1 -0.02,-0.2 -0.06,-0.3 l -0.98,-2.57 -1.02,2.54 c -0.06,0.14 -0.09,0.28 -0.09,0.37 0,0.18 0.11,0.25 0.46,0.28 v 0.14 h -1.95 v -0.14 c 0.38,-0.02 0.45,-0.12 0.9,-1.15 l 1.2,-2.85 c 0.02,-0.06 0.05,-0.13 0.08,-0.21 0.06,-0.17 0.12,-0.25 0.18,-0.25 0.06,0 0.13,0.12 0.27,0.49 l 1.28,3.19 c 0.29,0.68 0.35,0.75 0.65,0.78 z" /><path
         style="fill:#000000;stroke-width:0"
         inkscape:connector-curvature="0"
         id="path6139"
         d="m 438.7,707.78 -0.02,-0.01 -0.01,-0.01 -0.02,-0.02 -0.01,-0.01 -0.02,-0.01 -0.01,-0.01 -0.02,-0.01 -0.01,-0.01 -0.01,-0.01 -0.02,0 -0.01,-0.01 -0.01,-0.01 -0.02,-0.01 -0.01,0 -0.01,-0.01 -0.02,-0.01 -0.01,0 -0.01,-0.01 -0.02,0 -0.01,0 -0.01,-0.01 -0.02,0 -0.01,-0.01 -0.01,0 -0.03,0 -0.02,-0.01 -0.03,0 -0.03,0 c -0.23,0 -0.3,0.14 -0.3,0.58 v 1.93 c 0,0.52 -0.05,0.81 -0.2,1.05 -0.21,0.36 -0.64,0.55 -1.23,0.55 -0.93,0 -1.67,-0.49 -1.67,-1.12 0,-0.23 0.2,-0.42 0.43,-0.42 0.23,0 0.44,0.19 0.44,0.41 0,0.04 -0.01,0.09 -0.02,0.16 -0.02,0.09 -0.03,0.17 -0.03,0.24 0,0.27 0.32,0.49 0.72,0.49 0.49,0 0.76,-0.29 0.76,-0.83 v -0.6 -0.24 -1.44 c 0,-0.31 -0.05,-0.4 -0.26,-0.52 -0.24,-0.14 -0.52,-0.23 -0.73,-0.23 -0.35,0 -0.62,0.34 -0.62,0.77 v 0.04 c 0,0.58 0.4,0.94 1.61,1.38 v 0.24 c -1.54,-0.62 -1.7,-0.7 -2.13,-1.08 -0.22,-0.2 -0.36,-0.53 -0.36,-0.86 0,-0.63 0.44,-1.06 1.04,-1.06 0.44,0 0.85,0.2 1.46,0.72 0.05,-0.52 0.23,-0.72 0.63,-0.72 0.34,0 0.55,0.12 0.9,0.49 z" /><path
         style="fill:#000000;stroke-width:0"
         inkscape:connector-curvature="0"
         id="path6141"
         d="m 438.91,713.31 h 0.06 c 0.11,0.01 0.23,0.02 0.31,0.02 0.32,0 0.42,-0.13 0.42,-0.6 v -4.74 c 0,-0.54 -0.14,-0.67 -0.77,-0.72 v -0.15 h 2.35 v 0.15 c -0.63,0.04 -0.74,0.14 -0.74,0.69 v 5.93 l -0.04,0.02 c -0.52,-0.17 -0.9,-0.27 -1.59,-0.44 z" /><path
         style="fill:#000000;stroke-width:0"
         inkscape:connector-curvature="0"
         id="path6143"
         d="m 445.55,708.75 -0.04,-0.07 -0.05,-0.06 -0.04,-0.07 -0.04,-0.06 -0.05,-0.06 -0.04,-0.05 -0.05,-0.06 -0.04,-0.05 -0.04,-0.05 -0.05,-0.04 -0.04,-0.05 -0.05,-0.04 -0.04,-0.04 -0.05,-0.03 -0.04,-0.04 -0.05,-0.03 -0.04,-0.03 -0.05,-0.03 -0.05,-0.02 -0.05,-0.03 -0.05,-0.02 -0.04,-0.02 -0.05,-0.02 -0.06,-0.01 -0.05,-0.02 -0.05,-0.01 -0.05,-0.01 -0.06,-0.01 -0.05,0 -0.06,-0.01 -0.06,0 -0.06,0 c -0.57,0 -0.99,0.29 -1.28,0.86 -0.18,0.37 -0.25,0.7 -0.27,1.31 l 0.02,0.32 c 0.11,0.77 0.45,1.14 1.05,1.14 0.61,0 0.85,-0.28 0.98,-1.14 h -2.03 l -0.02,-0.32 h 3.06 c -0.08,0.64 -0.17,0.93 -0.42,1.25 -0.3,0.36 -0.76,0.57 -1.28,0.57 -0.49,0 -0.96,-0.18 -1.34,-0.52 -0.47,-0.41 -0.74,-1.11 -0.74,-1.93 0,-1.37 0.72,-2.22 1.86,-2.22 0.95,0 1.7,0.58 2.11,1.65 z" /><path
         style="fill:#000000;stroke-width:0"
         inkscape:connector-curvature="0"
         id="path6145"
         d="m 446.08,711.08 0,0 0.01,0 0,0.01 0.01,0 0.01,0 0,0 0.01,0.01 0.01,0 0.01,0 0,0 0.02,0 0.02,0.01 0.01,0 0.02,0 0.02,0 0.02,0 0.02,0.01 0.02,0 0.02,0 0.02,0 0.02,0 c 0.27,0 0.36,-0.15 0.36,-0.64 v -2.46 c 0,-0.57 -0.11,-0.71 -0.61,-0.75 v -0.15 h 2.11 v 0.15 c -0.51,0.04 -0.66,0.16 -0.66,0.52 v 2.79 c 0.48,0.45 0.7,0.57 1.02,0.57 0.49,0 0.73,-0.31 0.73,-0.97 v -2.07 c 0,-0.63 -0.13,-0.8 -0.63,-0.84 v -0.15 h 2.07 v 0.15 c -0.48,0.05 -0.6,0.17 -0.6,0.66 v 2.27 c 0,0.94 -0.44,1.5 -1.18,1.5 -0.45,0 -0.76,-0.17 -1.44,-0.81 v 0.78 l -0.07,0.03 c -0.49,-0.18 -0.83,-0.29 -1.37,-0.45 z" /><path
         style="fill:#000000;stroke-width:0"
         inkscape:connector-curvature="0"
         id="path6147"
         d="m 453.44,711.59 h -1.01 v 1.16 c 0,0.1 -0.01,0.13 -0.07,0.13 -0.07,-0.09 -0.13,-0.18 -0.2,-0.28 -0.37,-0.55 -0.8,-1.02 -0.96,-1.06 -0.11,-0.07 -0.17,-0.14 -0.17,-0.19 0,-0.03 0.01,-0.05 0.04,-0.07 h 0.53 v -2.99 c 0,-0.84 0.29,-1.26 0.88,-1.26 0.49,0 0.87,0.23 1.19,0.75 l -0.12,0.11 c -0.21,-0.25 -0.38,-0.35 -0.6,-0.35 -0.37,0 -0.52,0.27 -0.52,0.9 v 2.84 h 1.01 z" /><path
         style="fill:#000000;stroke-width:0"
         inkscape:connector-curvature="0"
         id="path6149"
         d="m 458.65,711.7 -0.12,-0.01 -0.12,-0.01 -0.12,-0.01 -0.11,-0.02 -0.11,-0.02 -0.11,-0.03 -0.1,-0.04 -0.1,-0.04 -0.1,-0.04 -0.1,-0.05 -0.09,-0.05 -0.09,-0.06 -0.08,-0.06 -0.08,-0.07 -0.08,-0.07 -0.08,-0.07 -0.07,-0.08 -0.07,-0.08 -0.06,-0.09 -0.06,-0.09 -0.05,-0.1 -0.05,-0.09 -0.05,-0.1 -0.04,-0.11 -0.04,-0.11 -0.03,-0.11 -0.03,-0.11 -0.02,-0.12 -0.02,-0.12 -0.01,-0.12 -0.01,-0.12 0,-0.13 c 0,-1.34 0.92,-2.34 2.18,-2.34 l 0.12,0.27 c -0.39,0 -0.76,0.24 -0.97,0.64 -0.28,0.52 -0.44,1.21 -0.44,1.92 0,0.94 0.47,1.56 1.18,1.56 h 0 c 0.83,0 1.42,-0.96 1.42,-2.32 0,-1.12 -0.45,-1.8 -1.19,-1.8 l -0.12,-0.27 c 1.25,0 2.2,1.05 2.2,2.42 0,1.3 -0.91,2.25 -2.18,2.25 z" /><path
         style="fill:#000000;stroke-width:0"
         inkscape:connector-curvature="0"
         id="path6151"
         d="m 464.21,711.59 h -1.22 v 1.16 c 0,0.57 0.19,0.88 0.57,0.88 0.21,0 0.35,-0.1 0.53,-0.39 0.15,-0.25 0.27,-0.35 0.44,-0.35 0.23,0 0.42,0.18 0.42,0.4 0,0.36 -0.44,0.62 -1.03,0.62 -0.62,0 -1.15,-0.27 -1.41,-0.73 -0.25,-0.43 -0.34,-0.79 -0.34,-1.59 h -0.82 v -0.31 h 0.82 v -3.12 c 0,-0.73 -0.11,-0.85 -0.83,-0.89 v -0.15 h 2.59 v 0.15 c -0.82,0.03 -0.93,0.14 -0.93,0.89 v 3.12 h 1.21 z" /><path
         style="fill:#000000;stroke-width:0"
         inkscape:connector-curvature="0"
         id="path6153"
         d="m 471.39,713.92 -0.11,-0.01 -0.1,-0.01 -0.1,-0.01 -0.09,-0.01 -0.1,-0.01 -0.09,-0.02 -0.09,-0.01 -0.08,-0.02 -0.08,-0.01 -0.09,-0.02 -0.07,-0.01 -0.08,-0.02 -0.08,-0.02 -0.07,-0.02 -0.15,-0.04 -0.13,-0.05 -0.14,-0.06 -0.13,-0.06 -0.13,-0.06 -0.13,-0.07 -0.13,-0.08 -0.14,-0.08 -0.06,-0.05 -0.07,-0.05 c -1.08,-0.76 -1.66,-1.89 -1.66,-3.22 0,-0.87 0.27,-1.74 0.69,-2.24 0.38,-0.44 0.92,-0.67 1.54,-0.67 1.23,0 2.09,0.94 2.09,2.31 0,1.27 -0.73,2.08 -1.88,2.08 -0.43,0 -0.64,-0.07 -1.27,-0.45 l 0.03,-0.26 c 0.21,0.16 0.52,0.25 0.87,0.25 h 0 c 0.85,0 1.35,-0.72 1.35,-1.96 0,-1.09 -0.39,-1.7 -1.09,-1.7 -0.87,0 -1.41,0.94 -1.41,2.48 0,0.5 0.08,0.78 0.28,0.93 l -0.03,0.26 c 0.27,1.5 1.38,2.57 2.95,2.83 z" /><path
         style="fill:#000000;stroke-width:0"
         inkscape:connector-curvature="0"
         id="path6155"
         d="m 473.73,712.92 h 1.95 c 0.16,0 0.2,0.02 0.23,0.09 l 0.38,0.88 -0.09,0.07 c -0.15,-0.21 -0.25,-0.26 -0.46,-0.26 h -2.08 l -1.08,-2.35 c -0.01,-0.02 -0.01,-0.03 -0.01,-0.05 0,-0.05 0.04,-0.08 0.12,-0.08 0.32,0 0.71,-0.07 1.12,-0.2 1.14,-0.37 1.67,-0.98 1.67,-1.97 0,-0.95 -0.6,-1.7 -1.38,-1.7 -0.2,0 -0.37,0.07 -0.67,0.29 -0.32,0.23 -0.54,0.33 -0.75,0.33 -0.29,0 -0.43,-0.12 -0.43,-0.37 0,-0.38 0.47,-0.61 1.21,-0.61 0.84,0 1.55,0.26 2.05,0.77 0.46,0.45 0.67,1.01 0.67,1.77 0,0.71 -0.19,1.17 -0.69,1.67 -0.44,0.44 -1,0.66 -2.18,0.87 z" /><polygon
         style="fill:#000000;stroke-width:0"
         id="polygon6157"
         points="480.3,710.4 485.39,710.4 485.39,710.96 480.3,710.96 " /><polygon
         style="fill:#000000;stroke-width:0"
         id="polygon6159"
         points="480.3,708.39 485.39,708.39 485.39,708.94 480.3,708.94 " /><path
         style="fill:#000000;stroke-width:0"
         inkscape:connector-curvature="0"
         id="path6161"
         d="m 308.4,696.26 0,0.03 0,0.03 -0.01,0.02 0,0.03 -0.01,0.02 0,0.03 -0.01,0.02 -0.01,0.03 -0.01,0.02 -0.01,0.02 -0.02,0.03 -0.01,0.02 -0.02,0.02 -0.01,0.02 -0.02,0.02 -0.02,0.01 -0.01,0.02 -0.02,0.02 -0.02,0.01 -0.02,0.02 -0.02,0.01 -0.03,0.02 -0.02,0.01 -0.02,0.01 -0.03,0.01 -0.02,0.01 -0.03,0 -0.02,0.01 -0.03,0 -0.02,0.01 -0.03,0 -0.03,0 c -0.29,0 -0.52,-0.24 -0.52,-0.53 0,-0.28 0.23,-0.52 0.52,-0.52 0.28,0 0.53,0.23 0.53,0.52 z" /><path
         style="fill:#000000;stroke-width:0"
         inkscape:connector-curvature="0"
         id="path6163"
         d="m 310.89,691.96 0,0.03 0,0.03 -0.01,0.02 0,0.03 -0.01,0.02 -0.01,0.03 0,0.02 -0.01,0.03 -0.01,0.02 -0.02,0.02 -0.01,0.02 -0.01,0.03 -0.02,0.02 -0.01,0.02 -0.02,0.02 -0.02,0.01 -0.02,0.02 -0.02,0.02 -0.02,0.01 -0.02,0.02 -0.02,0.01 -0.02,0.01 -0.02,0.02 -0.03,0.01 -0.02,0.01 -0.02,0.01 -0.03,0 -0.02,0.01 -0.03,0 -0.03,0.01 -0.02,0 -0.03,0 c -0.29,0 -0.53,-0.24 -0.53,-0.53 0,-0.29 0.24,-0.52 0.53,-0.52 0.29,0 0.53,0.23 0.53,0.52 z" /><path
         style="fill:#000000;stroke-width:0"
         inkscape:connector-curvature="0"
         id="path6165"
         d="m 305.91,691.96 0,0.03 0,0.03 0,0.02 -0.01,0.03 0,0.02 -0.01,0.03 -0.01,0.02 -0.01,0.03 -0.01,0.02 -0.01,0.02 -0.01,0.02 -0.02,0.03 -0.01,0.02 -0.02,0.02 -0.01,0.02 -0.02,0.01 -0.02,0.02 -0.02,0.02 -0.02,0.01 -0.02,0.02 -0.02,0.01 -0.02,0.01 -0.03,0.02 -0.02,0.01 -0.02,0.01 -0.03,0.01 -0.02,0 -0.03,0.01 -0.02,0 -0.03,0.01 -0.03,0 -0.02,0 c -0.29,0 -0.53,-0.24 -0.53,-0.53 0,-0.29 0.24,-0.52 0.53,-0.52 0.28,0 0.52,0.23 0.52,0.52 z" /><path
         style="fill:#000000;stroke-width:0"
         inkscape:connector-curvature="0"
         id="path6167"
         d="m 321.18,693.54 -0.12,0.05 c -0.37,-0.56 -0.5,-0.65 -0.95,-0.65 h -2.38 l 1.67,1.74 c 0.89,0.93 1.28,1.68 1.28,2.46 0,0.99 -0.81,1.76 -1.84,1.76 -0.55,0 -1.07,-0.22 -1.44,-0.62 -0.31,-0.34 -0.46,-0.66 -0.63,-1.36 l 0.21,-0.05 c 0.39,0.97 0.75,1.29 1.44,1.29 0.84,0 1.4,-0.57 1.4,-1.4 0,-0.77 -0.46,-1.7 -1.29,-2.58 l -1.77,-1.88 v -0.12 h 3.88 z" /><path
         style="fill:#000000;stroke-width:0"
         inkscape:connector-curvature="0"
         id="path6169"
         d="m 322.49,696.48 0.07,0.03 0.06,0.04 0.06,0.03 0.05,0.04 0.06,0.04 0.06,0.03 0.05,0.04 0.05,0.05 0.05,0.04 0.05,0.04 0.05,0.05 0.04,0.04 0.04,0.05 0.05,0.05 0.03,0.05 0.04,0.05 0.04,0.05 0.03,0.05 0.03,0.05 0.03,0.05 0.03,0.06 0.02,0.05 0.03,0.05 0.02,0.06 0.02,0.05 0.01,0.06 0.02,0.05 0.01,0.06 0.01,0.05 0,0.06 0.01,0.06 0,0.05 c 0,0.5 -0.35,0.89 -0.8,0.89 -0.35,0 -0.58,-0.23 -0.58,-0.57 0,-0.32 0.22,-0.51 0.58,-0.51 0.06,0 0.13,0.01 0.19,0.02 0.07,0.02 0.07,0.02 0.08,0.02 0.08,0 0.14,-0.06 0.14,-0.14 0,-0.32 -0.28,-0.68 -0.82,-1.05 z" /><path
         style="fill:#000000;stroke-width:0"
         inkscape:connector-curvature="0"
         id="path6171"
         d="m 324.92,696.14 0,0 0.01,0 0,0 0.01,0.01 0.01,0 0,0 0.01,0 0.01,0 0.01,0.01 0,0 0.02,0 0.02,0 0.01,0.01 0.02,0 0.02,0 0.02,0 0.02,0 0.02,0 0.02,0 0.02,0 0.02,0 c 0.27,0 0.36,-0.14 0.36,-0.63 v -2.46 c 0,-0.57 -0.11,-0.71 -0.61,-0.75 v -0.15 h 2.11 v 0.15 c -0.51,0.04 -0.66,0.16 -0.66,0.52 v 2.79 c 0.48,0.45 0.7,0.56 1.02,0.56 0.49,0 0.73,-0.3 0.73,-0.96 v -2.08 c 0,-0.62 -0.13,-0.79 -0.63,-0.83 v -0.15 h 2.07 v 0.15 c -0.48,0.05 -0.6,0.17 -0.6,0.66 v 2.27 c 0,0.93 -0.44,1.49 -1.18,1.49 -0.45,0 -0.76,-0.17 -1.44,-0.8 v 0.78 l -0.07,0.02 c -0.49,-0.18 -0.83,-0.29 -1.37,-0.45 z" /><path
         style="fill:#000000;stroke-width:0"
         inkscape:connector-curvature="0"
         id="path6173"
         d="m 333.16,692.08 1.46,0.52 v 0.16 c -0.17,-0.01 -0.2,-0.01 -0.23,-0.01 -0.35,0 -0.43,0.11 -0.43,0.56 v 5.64 l -0.05,0.02 c -0.48,-0.17 -0.83,-0.27 -1.46,-0.44 v -0.16 c 0.07,0.01 0.13,0.01 0.21,0.01 0.37,0 0.46,-0.1 0.46,-0.51 v -1.55 c -0.38,0.32 -0.64,0.43 -1.04,0.43 -1.15,0 -2.07,-1.12 -2.07,-2.53 0,-1.27 0.74,-2.14 1.84,-2.14 0.55,0 0.93,0.2 1.27,0.67 l -0.17,0.15 c -0.18,-0.2 -0.43,-0.3 -0.71,-0.3 -0.83,0 -1.38,0.79 -1.38,2.01 0,1.13 0.49,1.86 1.25,1.86 0.52,0 1.01,-0.46 1.01,-0.99 v -2.29 c 0,-0.07 -0.07,-0.18 -0.17,-0.29 l 0.17,-0.15 v -0.64 z" /><path
         style="fill:#000000;stroke-width:0"
         inkscape:connector-curvature="0"
         id="path6175"
         d="m 341.17,693.73 -0.04,-0.06 -0.05,-0.06 -0.04,-0.06 -0.04,-0.06 -0.05,-0.05 -0.04,-0.05 -0.04,-0.05 -0.04,-0.05 -0.04,-0.04 -0.04,-0.04 -0.04,-0.04 -0.04,-0.04 -0.04,-0.04 -0.05,-0.03 -0.04,-0.03 -0.04,-0.03 -0.04,-0.02 -0.04,-0.03 -0.04,-0.02 -0.04,-0.02 -0.05,-0.02 -0.04,-0.02 -0.05,-0.01 -0.04,-0.01 -0.05,-0.02 -0.04,-0.01 -0.05,0 -0.05,-0.01 -0.05,-0.01 -0.05,0 -0.05,0 -0.05,0 c -0.91,0 -1.54,0.79 -1.54,1.93 0,1.03 0.54,1.73 1.35,1.73 0.36,0 0.49,-0.11 0.59,-0.47 l 0.06,-0.22 c 0.07,-0.28 0.25,-0.46 0.46,-0.46 0.26,0 0.48,0.19 0.48,0.42 0,0.55 -0.7,1.02 -1.53,1.02 -0.49,0 -1,-0.2 -1.4,-0.56 -0.5,-0.43 -0.78,-1.11 -0.78,-1.89 0,-1.29 0.79,-2.22 1.89,-2.22 0.45,0 0.85,0.16 1.2,0.47 0.27,0.24 0.46,0.5 0.76,1.09 z" /><path
         style="fill:#000000;stroke-width:0"
         inkscape:connector-curvature="0"
         id="path6177"
         d="m 344.12,696.75 -0.12,0 -0.12,-0.01 -0.11,-0.01 -0.11,-0.02 -0.11,-0.03 -0.11,-0.03 -0.11,-0.03 -0.1,-0.04 -0.1,-0.04 -0.09,-0.05 -0.09,-0.06 -0.09,-0.05 -0.09,-0.07 -0.08,-0.06 -0.08,-0.07 -0.07,-0.08 -0.07,-0.08 -0.07,-0.08 -0.06,-0.09 -0.06,-0.09 -0.06,-0.09 -0.05,-0.1 -0.04,-0.1 -0.05,-0.1 -0.03,-0.11 -0.03,-0.11 -0.03,-0.11 -0.03,-0.12 -0.01,-0.12 -0.02,-0.12 0,-0.13 -0.01,-0.12 c 0,-1.34 0.93,-2.35 2.18,-2.35 l 0.12,0.28 c -0.39,0 -0.76,0.24 -0.96,0.64 -0.28,0.51 -0.44,1.21 -0.44,1.91 0,0.95 0.47,1.56 1.17,1.56 h 0 c 0.84,0 1.43,-0.95 1.43,-2.31 0,-1.13 -0.45,-1.8 -1.2,-1.8 l -0.12,-0.28 c 1.26,0 2.21,1.06 2.21,2.43 0,1.3 -0.92,2.24 -2.19,2.24 z" /><path
         style="fill:#000000;stroke-width:0"
         inkscape:connector-curvature="0"
         id="path6179"
         d="m 346.8,696.14 0.02,0 0.01,0 0.01,0 0.01,0.01 0.01,0 0.01,0 0.02,0 0.02,0.01 0.02,0 0.02,0 0.02,0.01 0.02,0 0.02,0 0.02,0 0.02,0 0.01,0 0.02,0 0.02,0 0.02,0 c 0.26,0 0.35,-0.15 0.35,-0.63 v -2.51 c 0,-0.54 -0.14,-0.69 -0.7,-0.7 v -0.15 h 2.21 v 0.15 c -0.52,0.02 -0.67,0.13 -0.67,0.52 v 2.8 c 0,0.02 0.08,0.12 0.15,0.19 0.24,0.23 0.67,0.39 1.02,0.39 0.44,0 0.66,-0.34 0.66,-1.04 v -2.16 c 0,-0.55 -0.11,-0.66 -0.68,-0.7 v -0.15 h 2.23 v 0.15 c -0.57,0.01 -0.72,0.18 -0.72,0.79 v 2.51 c 0.3,0.42 0.63,0.6 1.09,0.6 0.56,0 0.74,-0.26 0.74,-1.09 v -2.1 c 0,-0.56 -0.07,-0.64 -0.65,-0.71 v -0.15 h 2.18 v 0.15 l -0.26,0.02 c -0.3,0.02 -0.43,0.2 -0.43,0.59 v 2.04 c 0,1.18 -0.39,1.77 -1.15,1.77 -0.58,0 -1.09,-0.26 -1.63,-0.83 -0.18,0.56 -0.51,0.83 -1.05,0.83 -0.44,0 -0.72,-0.14 -1.54,-0.76 v 0.74 l -0.07,0.02 c -0.51,-0.19 -0.85,-0.3 -1.4,-0.45 z" /><path
         style="fill:#000000;stroke-width:0"
         inkscape:connector-curvature="0"
         id="path6181"
         d="m 354.46,696.09 0.01,0 0.02,0 0.01,0 0.02,0 0.02,0 0.01,0 0.02,0 0.01,0 0.03,0 0.02,0 0.01,0 0.02,0 0.01,0 0.02,0 0.01,0 c 0.34,0 0.41,-0.09 0.41,-0.56 v -4.65 c 0,-0.52 -0.11,-0.63 -0.69,-0.69 v -0.16 h 2.4 v 0.17 c -0.74,0.01 -0.87,0.12 -0.87,0.75 v 1.56 c 0.35,-0.33 0.59,-0.43 1,-0.43 l 0.03,0.32 c -0.46,0 -1.03,0.36 -1.03,0.65 v 2.45 c 0,0.3 0.56,0.66 1.01,0.66 0.74,0 1.23,-0.76 1.23,-1.91 0,-1.1 -0.49,-1.85 -1.21,-1.85 l -0.03,-0.32 c 1.18,0 2.09,1.11 2.09,2.56 0,1.23 -0.69,2.11 -1.66,2.11 -0.56,0 -0.99,-0.25 -1.43,-0.78 v 0.76 l -0.06,0.02 c -0.54,-0.21 -0.89,-0.34 -1.43,-0.51 z" /><path
         style="fill:#000000;stroke-width:0"
         inkscape:connector-curvature="0"
         id="path6183"
         d="m 359.54,698.37 h 0.06 c 0.11,0.01 0.23,0.02 0.3,0.02 0.32,0 0.42,-0.14 0.42,-0.61 v -4.74 c 0,-0.53 -0.14,-0.66 -0.76,-0.71 v -0.15 h 2.34 v 0.15 c -0.62,0.04 -0.74,0.14 -0.74,0.69 v 5.93 l -0.04,0.02 c -0.52,-0.17 -0.9,-0.27 -1.58,-0.44 z" /><path
         style="fill:#000000;stroke-width:0"
         inkscape:connector-curvature="0"
         id="path6185"
         d="m 366.18,693.81 -0.05,-0.07 -0.04,-0.07 -0.05,-0.06 -0.04,-0.06 -0.04,-0.06 -0.05,-0.06 -0.04,-0.05 -0.05,-0.05 -0.04,-0.05 -0.04,-0.05 -0.05,-0.04 -0.04,-0.04 -0.05,-0.04 -0.04,-0.04 -0.05,-0.03 -0.04,-0.03 -0.05,-0.03 -0.05,-0.03 -0.05,-0.03 -0.04,-0.02 -0.05,-0.02 -0.05,-0.02 -0.05,-0.02 -0.05,-0.02 -0.05,-0.01 -0.06,-0.01 -0.05,-0.01 -0.06,-0.01 -0.05,-0.01 -0.06,0 -0.06,0 -0.05,0 c -0.57,0 -1,0.28 -1.29,0.85 -0.18,0.38 -0.25,0.71 -0.27,1.31 l 0.02,0.32 c 0.11,0.78 0.45,1.14 1.06,1.14 0.6,0 0.84,-0.28 0.97,-1.14 h -2.03 l -0.02,-0.32 h 3.07 c -0.08,0.65 -0.18,0.94 -0.43,1.25 -0.3,0.36 -0.76,0.57 -1.27,0.57 -0.5,0 -0.97,-0.18 -1.35,-0.52 -0.46,-0.4 -0.73,-1.11 -0.73,-1.92 0,-1.37 0.71,-2.23 1.86,-2.23 0.94,0 1.69,0.59 2.11,1.66 z" /><path
         style="fill:#000000;stroke-width:0"
         inkscape:connector-curvature="0"
         id="path6187"
         d="m 366.73,696.14 0.01,0 0.01,0 0.02,0 0.01,0.01 0.01,0 0.01,0 0.02,0 0.02,0.01 0.02,0 0.02,0 0.02,0.01 0.02,0 0.01,0 0.02,0 0.02,0 0.02,0 0.02,0 0.02,0 0.02,0 c 0.26,0 0.35,-0.15 0.35,-0.63 v -2.51 c 0,-0.54 -0.14,-0.69 -0.7,-0.7 v -0.15 h 2.21 v 0.15 c -0.53,0.02 -0.68,0.13 -0.68,0.52 v 2.8 c 0,0.02 0.08,0.12 0.15,0.19 0.25,0.23 0.68,0.39 1.03,0.39 0.43,0 0.65,-0.34 0.65,-1.04 v -2.16 c 0,-0.55 -0.11,-0.66 -0.67,-0.7 v -0.15 h 2.22 v 0.15 c -0.56,0.01 -0.71,0.18 -0.71,0.79 v 2.51 c 0.3,0.42 0.62,0.6 1.08,0.6 0.57,0 0.75,-0.26 0.75,-1.09 v -2.1 c 0,-0.56 -0.08,-0.64 -0.66,-0.71 v -0.15 h 2.18 v 0.15 l -0.26,0.02 c -0.3,0.02 -0.42,0.2 -0.42,0.59 v 2.04 c 0,1.18 -0.39,1.77 -1.16,1.77 -0.58,0 -1.08,-0.26 -1.62,-0.83 -0.18,0.56 -0.52,0.83 -1.06,0.83 -0.43,0 -0.71,-0.14 -1.54,-0.76 v 0.74 l -0.07,0.02 c -0.51,-0.19 -0.84,-0.3 -1.39,-0.45 z" /><path
         style="fill:#000000;stroke-width:0"
         inkscape:connector-curvature="0"
         id="path6189"
         d="m 378.35,693.81 -0.04,-0.07 -0.05,-0.07 -0.04,-0.06 -0.05,-0.06 -0.04,-0.06 -0.04,-0.06 -0.05,-0.05 -0.04,-0.05 -0.05,-0.05 -0.04,-0.05 -0.04,-0.04 -0.05,-0.04 -0.04,-0.04 -0.05,-0.04 -0.04,-0.03 -0.05,-0.03 -0.05,-0.03 -0.04,-0.03 -0.05,-0.03 -0.05,-0.02 -0.05,-0.02 -0.05,-0.02 -0.05,-0.02 -0.05,-0.02 -0.05,-0.01 -0.05,-0.01 -0.06,-0.01 -0.05,-0.01 -0.06,-0.01 -0.05,0 -0.06,0 -0.06,0 c -0.57,0 -1,0.28 -1.28,0.85 -0.18,0.38 -0.25,0.71 -0.27,1.31 l 0.02,0.32 c 0.11,0.78 0.44,1.14 1.05,1.14 0.61,0 0.85,-0.28 0.98,-1.14 h -2.03 l -0.02,-0.32 h 3.06 c -0.08,0.65 -0.18,0.94 -0.43,1.25 -0.29,0.36 -0.75,0.57 -1.27,0.57 -0.5,0 -0.97,-0.18 -1.34,-0.52 -0.47,-0.4 -0.74,-1.11 -0.74,-1.92 0,-1.37 0.72,-2.23 1.86,-2.23 0.95,0 1.69,0.59 2.11,1.66 z" /><path
         style="fill:#000000;stroke-width:0"
         inkscape:connector-curvature="0"
         id="path6191"
         d="m 378.87,696.14 0.01,0 0.01,0 0,0 0.01,0.01 0,0 0.01,0 0.01,0 0.01,0 0,0.01 0.01,0 0.02,0 0.01,0 0.02,0.01 0.02,0 0.02,0 0.01,0 0.02,0 0.02,0 0.02,0 0.02,0 0.02,0 c 0.28,0 0.37,-0.14 0.37,-0.63 v -2.46 c 0,-0.57 -0.11,-0.71 -0.62,-0.75 v -0.15 H 381 v 0.15 c -0.5,0.04 -0.65,0.16 -0.65,0.52 v 2.79 c 0.47,0.45 0.69,0.56 1.02,0.56 0.49,0 0.73,-0.3 0.73,-0.96 v -2.08 c 0,-0.62 -0.13,-0.79 -0.63,-0.83 v -0.15 h 2.07 v 0.15 c -0.49,0.05 -0.61,0.17 -0.61,0.66 v 2.27 c 0,0.93 -0.43,1.49 -1.17,1.49 -0.46,0 -0.77,-0.17 -1.44,-0.8 v 0.78 l -0.07,0.02 c -0.49,-0.18 -0.83,-0.29 -1.38,-0.45 z" /><path
         style="fill:#000000;stroke-width:0"
         inkscape:connector-curvature="0"
         id="path6193"
         d="m 386.23,696.65 h -1 v 1.15 c 0,0.1 -0.01,0.13 -0.07,0.13 -0.07,-0.09 -0.13,-0.18 -0.2,-0.27 -0.38,-0.55 -0.81,-1.03 -0.97,-1.07 -0.1,-0.07 -0.16,-0.14 -0.16,-0.19 0,-0.03 0.01,-0.05 0.04,-0.07 h 0.52 v -2.99 c 0,-0.83 0.3,-1.26 0.89,-1.26 0.49,0 0.86,0.24 1.19,0.76 l -0.13,0.11 c -0.21,-0.25 -0.38,-0.35 -0.59,-0.35 -0.37,0 -0.52,0.27 -0.52,0.89 v 2.84 h 1 z" /><path
         style="fill:#000000;stroke-width:0"
         inkscape:connector-curvature="0"
         id="path6195"
         d="m 389.03,696.05 0.01,0.01 0.01,0 0.01,0 0.02,0.01 0.02,0 0.02,0 0.02,0.01 0.03,0 0.02,0 0.02,0.01 0.02,0 0.02,0 0.02,0 0.02,0 0.02,0 0.02,0 0.02,0 0.03,0 c 0.24,0 0.33,-0.15 0.33,-0.59 v -2.48 c 0,-0.5 -0.07,-0.57 -0.7,-0.69 v -0.15 h 2.38 v 0.15 c -0.67,0.03 -0.84,0.18 -0.84,0.75 v 2.23 c 0,0.32 0.43,0.81 0.69,0.81 0.06,0 0.15,-0.04 0.26,-0.14 0.16,-0.14 0.27,-0.2 0.4,-0.2 0.24,0 0.39,0.17 0.39,0.44 0,0.33 -0.21,0.53 -0.55,0.53 -0.41,0 -0.7,-0.23 -1.19,-0.93 v 0.91 l -0.05,0.02 c -0.53,-0.22 -0.89,-0.35 -1.47,-0.54 z" /><path
         style="fill:#000000;stroke-width:0"
         inkscape:connector-curvature="0"
         id="path6197"
         d="m 396.33,693.81 -0.04,-0.07 -0.05,-0.07 -0.04,-0.06 -0.04,-0.06 -0.05,-0.06 -0.04,-0.06 -0.05,-0.05 -0.04,-0.05 -0.04,-0.05 -0.05,-0.05 -0.04,-0.04 -0.05,-0.04 -0.04,-0.04 -0.05,-0.04 -0.04,-0.03 -0.05,-0.03 -0.04,-0.03 -0.05,-0.03 -0.05,-0.03 -0.05,-0.02 -0.05,-0.02 -0.05,-0.02 -0.05,-0.02 -0.05,-0.02 -0.05,-0.01 -0.05,-0.01 -0.05,-0.01 -0.06,-0.01 -0.06,-0.01 -0.05,0 -0.06,0 -0.06,0 c -0.57,0 -0.99,0.28 -1.28,0.85 -0.18,0.38 -0.25,0.71 -0.27,1.31 l 0.02,0.32 c 0.11,0.78 0.45,1.14 1.05,1.14 0.61,0 0.85,-0.28 0.98,-1.14 h -2.03 l -0.02,-0.32 h 3.06 c -0.08,0.65 -0.18,0.94 -0.42,1.25 -0.3,0.36 -0.76,0.57 -1.28,0.57 -0.49,0 -0.96,-0.18 -1.34,-0.52 -0.47,-0.4 -0.74,-1.11 -0.74,-1.92 0,-1.37 0.72,-2.23 1.86,-2.23 0.95,0 1.7,0.59 2.11,1.66 z" /><path
         style="fill:#000000;stroke-width:0"
         inkscape:connector-curvature="0"
         id="path6199"
         d="m 396.79,696.09 0.01,0 0.02,0 0.02,0 0.01,0 0.02,0 0.01,0 0.02,0 0.01,0 0.03,0 0.02,0 0.01,0 0.02,0 0.01,0 0.02,0 0.02,0 c 0.33,0 0.4,-0.09 0.4,-0.56 v -4.65 c 0,-0.52 -0.11,-0.63 -0.69,-0.69 v -0.16 h 2.4 v 0.17 c -0.74,0.01 -0.87,0.12 -0.87,0.75 v 1.56 c 0.35,-0.33 0.59,-0.43 1,-0.43 l 0.03,0.32 c -0.46,0 -1.03,0.36 -1.03,0.65 v 2.45 c 0,0.3 0.56,0.66 1.01,0.66 0.74,0 1.23,-0.76 1.23,-1.91 0,-1.1 -0.49,-1.85 -1.21,-1.85 l -0.03,-0.32 c 1.18,0 2.09,1.11 2.09,2.56 0,1.23 -0.69,2.11 -1.66,2.11 -0.56,0 -0.99,-0.25 -1.43,-0.78 v 0.76 l -0.06,0.02 c -0.54,-0.21 -0.89,-0.34 -1.43,-0.51 z" /><path
         style="fill:#000000;stroke-width:0"
         inkscape:connector-curvature="0"
         id="path6201"
         d="m 401.75,696.05 0.01,0.01 0.01,0 0.02,0 0.01,0.01 0.02,0 0.03,0 0.02,0.01 0.02,0 0.02,0 0.02,0.01 0.02,0 0.02,0 0.02,0 0.02,0 0.02,0 0.02,0 0.02,0 0.03,0 c 0.25,0 0.33,-0.15 0.33,-0.59 v -2.48 c 0,-0.5 -0.07,-0.57 -0.7,-0.69 v -0.15 h 2.39 v 0.15 c -0.68,0.03 -0.85,0.18 -0.85,0.75 v 2.23 c 0,0.32 0.43,0.81 0.7,0.81 0.06,0 0.15,-0.04 0.26,-0.14 0.16,-0.14 0.26,-0.2 0.39,-0.2 0.24,0 0.39,0.17 0.39,0.44 0,0.33 -0.21,0.53 -0.55,0.53 -0.41,0 -0.7,-0.23 -1.19,-0.93 v 0.91 l -0.05,0.02 c -0.53,-0.22 -0.89,-0.35 -1.47,-0.54 z" /><path
         style="fill:#000000;stroke-width:0"
         inkscape:connector-curvature="0"
         id="path6203"
         d="m 409.06,693.81 -0.05,-0.07 -0.04,-0.07 -0.05,-0.06 -0.04,-0.06 -0.05,-0.06 -0.04,-0.06 -0.04,-0.05 -0.05,-0.05 -0.04,-0.05 -0.05,-0.05 -0.04,-0.04 -0.04,-0.04 -0.05,-0.04 -0.04,-0.04 -0.05,-0.03 -0.05,-0.03 -0.04,-0.03 -0.05,-0.03 -0.05,-0.03 -0.04,-0.02 -0.05,-0.02 -0.05,-0.02 -0.05,-0.02 -0.05,-0.02 -0.06,-0.01 -0.05,-0.01 -0.05,-0.01 -0.06,-0.01 -0.05,-0.01 -0.06,0 -0.06,0 -0.06,0 c -0.56,0 -0.99,0.28 -1.28,0.85 -0.18,0.38 -0.25,0.71 -0.27,1.31 l 0.02,0.32 c 0.11,0.78 0.45,1.14 1.06,1.14 0.6,0 0.84,-0.28 0.97,-1.14 h -2.03 l -0.02,-0.32 h 3.07 c -0.08,0.65 -0.18,0.94 -0.43,1.25 -0.3,0.36 -0.76,0.57 -1.27,0.57 -0.5,0 -0.97,-0.18 -1.35,-0.52 -0.47,-0.4 -0.74,-1.11 -0.74,-1.92 0,-1.37 0.72,-2.23 1.87,-2.23 0.94,0 1.69,0.59 2.1,1.66 z" /><path
         style="fill:#000000;stroke-width:0"
         inkscape:connector-curvature="0"
         id="path6205"
         d="m 412.55,695.3 -0.04,1.35 h -0.11 l -0.01,-0.02 c -0.09,-0.07 -0.1,-0.08 -0.15,-0.08 -0.05,0 -0.15,0.02 -0.26,0.07 -0.22,0.08 -0.44,0.12 -0.7,0.12 -0.79,0 -1.35,-0.51 -1.35,-1.22 0,-0.56 0.32,-0.95 1.16,-1.43 l 0.58,-0.33 c 0.35,-0.2 0.52,-0.44 0.52,-0.74 0,-0.44 -0.32,-0.72 -0.83,-0.72 -0.34,0 -0.65,0.13 -0.84,0.35 -0.2,0.25 -0.29,0.47 -0.42,1.04 h -0.16 v -1.55 h 0.13 c 0.07,0.1 0.11,0.12 0.23,0.12 0.09,0 0.22,-0.02 0.45,-0.08 0.28,-0.06 0.55,-0.1 0.73,-0.1 0.76,0 1.4,0.58 1.4,1.27 0,0.5 -0.24,0.83 -0.83,1.18 l -1.08,0.64 c -0.28,0.16 -0.43,0.41 -0.43,0.68 0,0.39 0.31,0.67 0.77,0.67 0.57,0 0.87,-0.34 1.09,-1.22 z" /><path
         style="fill:#000000;stroke-width:0"
         inkscape:connector-curvature="0"
         id="path6207"
         d="m 417.36,693.81 -0.05,-0.07 -0.04,-0.07 -0.05,-0.06 -0.04,-0.06 -0.05,-0.06 -0.04,-0.06 -0.04,-0.05 -0.05,-0.05 -0.04,-0.05 -0.05,-0.05 -0.04,-0.04 -0.05,-0.04 -0.04,-0.04 -0.05,-0.04 -0.04,-0.03 -0.05,-0.03 -0.04,-0.03 -0.05,-0.03 -0.05,-0.03 -0.05,-0.02 -0.04,-0.02 -0.05,-0.02 -0.05,-0.02 -0.06,-0.02 -0.05,-0.01 -0.05,-0.01 -0.05,-0.01 -0.06,-0.01 -0.05,-0.01 -0.06,0 -0.06,0 -0.06,0 c -0.57,0 -0.99,0.28 -1.28,0.85 -0.18,0.38 -0.25,0.71 -0.27,1.31 l 0.02,0.32 c 0.11,0.78 0.45,1.14 1.05,1.14 0.61,0 0.85,-0.28 0.98,-1.14 h -2.03 l -0.02,-0.32 h 3.07 c -0.09,0.65 -0.18,0.94 -0.43,1.25 -0.3,0.36 -0.76,0.57 -1.28,0.57 -0.49,0 -0.96,-0.18 -1.34,-0.52 -0.47,-0.4 -0.74,-1.11 -0.74,-1.92 0,-1.37 0.72,-2.23 1.86,-2.23 0.95,0 1.7,0.59 2.11,1.66 z" /><path
         style="fill:#000000;stroke-width:0"
         inkscape:connector-curvature="0"
         id="path6209"
         d="m 417.88,696.14 0,0 0.01,0 0.01,0 0,0.01 0.01,0 0.01,0 0,0 0.01,0 0.01,0.01 0,0 0.02,0 0.02,0 0.01,0.01 0.02,0 0.02,0 0.02,0 0.02,0 0.02,0 0.02,0 0.02,0 0.02,0 c 0.27,0 0.37,-0.14 0.37,-0.63 v -2.46 c 0,-0.57 -0.12,-0.71 -0.62,-0.75 v -0.15 h 2.11 v 0.15 c -0.51,0.04 -0.66,0.16 -0.66,0.52 v 2.79 c 0.48,0.45 0.7,0.56 1.03,0.56 0.48,0 0.72,-0.3 0.72,-0.96 v -2.08 c 0,-0.62 -0.13,-0.79 -0.62,-0.83 v -0.15 h 2.06 v 0.15 c -0.48,0.05 -0.6,0.17 -0.6,0.66 v 2.27 c 0,0.93 -0.44,1.49 -1.18,1.49 -0.46,0 -0.76,-0.17 -1.44,-0.8 v 0.78 l -0.07,0.02 c -0.49,-0.18 -0.83,-0.29 -1.37,-0.45 z" /><path
         style="fill:#000000;stroke-width:0"
         inkscape:connector-curvature="0"
         id="path6211"
         d="m 425.24,696.65 h -1.01 v 1.15 c 0,0.1 -0.01,0.13 -0.07,0.13 -0.07,-0.09 -0.13,-0.18 -0.2,-0.27 -0.38,-0.55 -0.8,-1.03 -0.96,-1.07 -0.11,-0.07 -0.17,-0.14 -0.17,-0.19 0,-0.03 0.01,-0.05 0.04,-0.07 h 0.53 v -2.99 c 0,-0.83 0.3,-1.26 0.88,-1.26 0.49,0 0.87,0.24 1.2,0.76 l -0.13,0.11 c -0.21,-0.25 -0.38,-0.35 -0.6,-0.35 -0.37,0 -0.52,0.27 -0.52,0.89 v 2.84 h 1.01 z" /><path
         style="fill:#000000;stroke-width:0"
         inkscape:connector-curvature="0"
         id="path6213"
         d="m 429.87,692.84 -0.02,-0.02 -0.01,-0.01 -0.02,-0.01 -0.01,-0.01 -0.02,-0.01 -0.01,-0.01 -0.02,-0.01 -0.01,-0.01 -0.02,-0.01 -0.01,-0.01 -0.01,-0.01 -0.02,0 -0.01,-0.01 -0.01,-0.01 -0.02,0 -0.01,-0.01 -0.01,-0.01 -0.02,0 -0.01,0 -0.01,-0.01 -0.01,0 -0.02,-0.01 -0.01,0 -0.01,0 -0.03,-0.01 -0.03,0 -0.02,0 -0.03,0 c -0.23,0 -0.3,0.14 -0.3,0.57 v 1.94 c 0,0.52 -0.05,0.81 -0.2,1.04 -0.22,0.36 -0.64,0.55 -1.23,0.55 -0.94,0 -1.67,-0.49 -1.67,-1.11 0,-0.23 0.2,-0.43 0.42,-0.43 0.24,0 0.45,0.2 0.45,0.42 0,0.04 -0.01,0.09 -0.02,0.16 -0.02,0.09 -0.03,0.17 -0.03,0.24 0,0.26 0.32,0.48 0.72,0.48 0.49,0 0.76,-0.29 0.76,-0.82 v -0.61 -0.24 -1.44 c 0,-0.31 -0.06,-0.39 -0.26,-0.51 -0.24,-0.14 -0.52,-0.23 -0.73,-0.23 -0.35,0 -0.63,0.34 -0.63,0.76 v 0.04 c 0,0.59 0.41,0.95 1.62,1.38 v 0.24 c -1.54,-0.61 -1.71,-0.69 -2.13,-1.07 -0.22,-0.2 -0.36,-0.54 -0.36,-0.86 0,-0.63 0.43,-1.07 1.04,-1.07 0.44,0 0.85,0.21 1.45,0.73 0.06,-0.52 0.23,-0.73 0.64,-0.73 0.34,0 0.55,0.12 0.9,0.5 z" /><path
         style="fill:#000000;stroke-width:0"
         inkscape:connector-curvature="0"
         id="path6215"
         d="m 432.43,696.65 h -1.01 v 1.15 c 0,0.1 0,0.13 -0.06,0.13 -0.07,-0.09 -0.13,-0.18 -0.2,-0.27 -0.38,-0.55 -0.81,-1.03 -0.97,-1.07 -0.11,-0.07 -0.17,-0.14 -0.17,-0.19 0,-0.03 0.01,-0.05 0.04,-0.07 h 0.53 v -2.99 c 0,-0.83 0.3,-1.26 0.89,-1.26 0.48,0 0.86,0.24 1.19,0.76 l -0.13,0.11 c -0.21,-0.25 -0.38,-0.35 -0.6,-0.35 -0.37,0 -0.52,0.27 -0.52,0.89 v 2.84 h 1.01 z" /><path
         style="fill:#000000;stroke-width:0"
         inkscape:connector-curvature="0"
         id="path6217"
         d="m 434.4,696.75 -1.54,-0.55 v -0.15 l 0.08,0.02 c 0.12,0.02 0.25,0.02 0.34,0.02 0.24,0 0.33,-0.15 0.33,-0.59 v -2.31 c 0,-0.71 -0.1,-0.82 -0.79,-0.86 v -0.15 h 2.36 v 0.15 c -0.66,0.05 -0.74,0.15 -0.74,0.86 v 3.53 z" /><path
         style="fill:#000000;stroke-width:0"
         inkscape:connector-curvature="0"
         id="path6219"
         d="m 433.94,698.97 -0.03,0 -0.02,-0.01 -0.03,0 -0.02,0 -0.03,-0.01 -0.02,-0.01 -0.02,0 -0.03,-0.01 -0.02,-0.01 -0.02,-0.02 -0.02,-0.01 -0.02,-0.01 -0.02,-0.02 -0.02,-0.01 -0.02,-0.02 -0.01,-0.01 -0.02,-0.02 -0.02,-0.02 -0.01,-0.02 -0.01,-0.02 -0.02,-0.02 -0.01,-0.02 -0.01,-0.02 -0.01,-0.02 -0.01,-0.03 -0.01,-0.02 -0.01,-0.02 0,-0.03 -0.01,-0.02 0,-0.03 0,-0.03 0,-0.02 c 0,-0.28 0.22,-0.51 0.5,-0.51 0.28,0 0.51,0.22 0.51,0.51 0,0.28 -0.23,0.51 -0.51,0.51 z" /><path
         style="fill:#000000;stroke-width:0"
         inkscape:connector-curvature="0"
         id="path6221"
         d="m 437.92,696.75 -0.12,0 -0.12,-0.01 -0.11,-0.01 -0.12,-0.02 -0.11,-0.03 -0.1,-0.03 -0.11,-0.03 -0.1,-0.04 -0.1,-0.04 -0.09,-0.05 -0.1,-0.06 -0.08,-0.05 -0.09,-0.07 -0.08,-0.06 -0.08,-0.07 -0.07,-0.08 -0.08,-0.08 -0.06,-0.08 -0.07,-0.09 -0.05,-0.09 -0.06,-0.09 -0.05,-0.1 -0.05,-0.1 -0.04,-0.1 -0.03,-0.11 -0.04,-0.11 -0.02,-0.11 -0.03,-0.12 -0.02,-0.12 -0.01,-0.12 -0.01,-0.13 0,-0.12 c 0,-1.34 0.93,-2.35 2.18,-2.35 l 0.12,0.28 c -0.39,0 -0.76,0.24 -0.97,0.64 -0.28,0.51 -0.43,1.21 -0.43,1.91 0,0.95 0.46,1.56 1.17,1.56 h 0 c 0.84,0 1.42,-0.95 1.42,-2.31 0,-1.13 -0.44,-1.8 -1.19,-1.8 l -0.12,-0.28 c 1.25,0 2.21,1.06 2.21,2.43 0,1.3 -0.92,2.24 -2.19,2.24 z" /><path
         style="fill:#000000;stroke-width:0"
         inkscape:connector-curvature="0"
         id="path6223"
         d="m 440.57,696.14 0.01,0 0,0 0.01,0 0.01,0.01 0,0 0.01,0 0.01,0 0,0 0.01,0.01 0.01,0 0.01,0 0.02,0 0.02,0.01 0.02,0 0.01,0 0.02,0 0.02,0 0.02,0 0.02,0 0.02,0 0.02,0 c 0.28,0 0.37,-0.14 0.37,-0.63 v -2.46 c 0,-0.57 -0.11,-0.71 -0.62,-0.75 v -0.15 h 2.11 v 0.15 c -0.51,0.04 -0.65,0.16 -0.65,0.52 v 2.79 c 0.47,0.45 0.69,0.56 1.02,0.56 0.49,0 0.73,-0.3 0.73,-0.96 v -2.08 c 0,-0.62 -0.13,-0.79 -0.63,-0.83 v -0.15 h 2.07 v 0.15 c -0.49,0.05 -0.61,0.17 -0.61,0.66 v 2.27 c 0,0.93 -0.44,1.49 -1.17,1.49 -0.46,0 -0.77,-0.17 -1.44,-0.8 v 0.78 l -0.07,0.02 c -0.49,-0.18 -0.83,-0.29 -1.38,-0.45 z" /><path
         style="fill:#000000;stroke-width:0"
         inkscape:connector-curvature="0"
         id="path6225"
         d="m 450.37,696.75 -0.12,0 -0.11,-0.01 -0.12,-0.01 -0.11,-0.02 -0.11,-0.03 -0.11,-0.03 -0.1,-0.03 -0.11,-0.04 -0.1,-0.04 -0.09,-0.05 -0.09,-0.06 -0.09,-0.05 -0.09,-0.07 -0.08,-0.06 -0.08,-0.07 -0.07,-0.08 -0.07,-0.08 -0.07,-0.08 -0.06,-0.09 -0.06,-0.09 -0.06,-0.09 -0.05,-0.1 -0.04,-0.1 -0.04,-0.1 -0.04,-0.11 -0.03,-0.11 -0.03,-0.11 -0.02,-0.12 -0.02,-0.12 -0.02,-0.12 0,-0.13 -0.01,-0.12 c 0,-1.34 0.93,-2.35 2.18,-2.35 l 0.12,0.28 c -0.39,0 -0.75,0.24 -0.96,0.64 -0.28,0.51 -0.44,1.21 -0.44,1.91 0,0.95 0.47,1.56 1.17,1.56 h 0 c 0.84,0 1.43,-0.95 1.43,-2.31 0,-1.13 -0.45,-1.8 -1.2,-1.8 l -0.12,-0.28 c 1.26,0 2.21,1.06 2.21,2.43 0,1.3 -0.91,2.24 -2.19,2.24 z" /><path
         style="fill:#000000;stroke-width:0"
         inkscape:connector-curvature="0"
         id="path6227"
         d="m 455.94,696.65 h -1.22 v 1.15 c 0,0.58 0.19,0.89 0.56,0.89 0.21,0 0.35,-0.1 0.53,-0.39 0.16,-0.26 0.28,-0.36 0.45,-0.36 0.23,0 0.42,0.18 0.42,0.41 0,0.36 -0.44,0.62 -1.04,0.62 -0.62,0 -1.14,-0.27 -1.4,-0.73 -0.26,-0.44 -0.34,-0.79 -0.35,-1.59 h -0.81 v -0.32 h 0.81 v -3.12 c 0,-0.72 -0.11,-0.84 -0.82,-0.88 v -0.15 h 2.58 v 0.15 c -0.81,0.03 -0.92,0.14 -0.92,0.88 v 3.12 h 1.21 z" /><polygon
         style="fill:#000000;stroke-width:0"
         id="polygon6229"
         points="459.02,694.46 464.11,694.46 464.11,695.01 459.02,695.01 " /><path
         style="fill:#000000;stroke-width:0"
         inkscape:connector-curvature="0"
         id="path6231"
         d="m 471.39,698.98 -0.11,-0.01 -0.1,-0.01 -0.1,-0.01 -0.09,-0.02 -0.1,-0.01 -0.09,-0.01 -0.09,-0.01 -0.08,-0.02 -0.08,-0.01 -0.09,-0.02 -0.07,-0.02 -0.08,-0.02 -0.08,-0.01 -0.07,-0.03 -0.15,-0.04 -0.13,-0.05 -0.14,-0.05 -0.13,-0.06 -0.13,-0.06 -0.13,-0.08 -0.13,-0.07 -0.14,-0.09 -0.06,-0.04 -0.07,-0.05 c -1.08,-0.76 -1.66,-1.9 -1.66,-3.23 0,-0.86 0.27,-1.74 0.69,-2.23 0.38,-0.44 0.92,-0.68 1.54,-0.68 1.23,0 2.09,0.95 2.09,2.32 0,1.27 -0.73,2.07 -1.88,2.07 -0.43,0 -0.64,-0.07 -1.27,-0.44 l 0.03,-0.26 c 0.21,0.16 0.52,0.25 0.87,0.25 h 0 c 0.85,0 1.35,-0.72 1.35,-1.96 0,-1.09 -0.39,-1.7 -1.09,-1.7 -0.87,0 -1.41,0.93 -1.41,2.47 0,0.51 0.08,0.79 0.28,0.94 l -0.03,0.26 c 0.27,1.5 1.38,2.57 2.95,2.83 z" /><path
         style="fill:#000000;stroke-width:0"
         inkscape:connector-curvature="0"
         id="path6233"
         d="m 473.73,697.97 h 1.95 c 0.16,0 0.2,0.02 0.23,0.09 l 0.38,0.89 -0.09,0.07 c -0.15,-0.21 -0.25,-0.26 -0.46,-0.26 h -2.08 l -1.08,-2.36 c -0.01,-0.02 -0.01,-0.03 -0.01,-0.05 0,-0.05 0.04,-0.08 0.12,-0.08 0.32,0 0.71,-0.07 1.12,-0.19 1.14,-0.37 1.67,-0.99 1.67,-1.97 0,-0.96 -0.6,-1.7 -1.38,-1.7 -0.2,0 -0.37,0.07 -0.67,0.29 -0.32,0.23 -0.54,0.33 -0.75,0.33 -0.29,0 -0.43,-0.12 -0.43,-0.37 0,-0.38 0.47,-0.62 1.21,-0.62 0.84,0 1.55,0.27 2.05,0.78 0.46,0.44 0.67,1.01 0.67,1.77 0,0.71 -0.19,1.17 -0.69,1.66 -0.44,0.44 -1,0.67 -2.18,0.88 z" /><polygon
         style="fill:#000000;stroke-width:0"
         id="polygon6235"
         points="480.3,695.46 485.39,695.46 485.39,696.02 480.3,696.02 " /><polygon
         style="fill:#000000;stroke-width:0"
         id="polygon6237"
         points="480.3,693.44 485.39,693.44 485.39,694 480.3,694 " /></g>    <text
       xml:space="preserve"
       style="font-size:12px;font-style:normal;font-variant:normal;font-weight:normal;font-stretch:normal;text-align:start;line-height:150%;letter-spacing:0px;word-spacing:0px;text-anchor:start;fill:#000000;fill-opacity:1;stroke:none;font-family:LMRoman12;-inkscape-font-specification:Sans"
       x="244.22394"
       y="793.37469"
       id="text6388"
       sodipodi:linespacing="150%"><tspan
         sodipodi:role="line"
         id="tspan6390"
         x="244.22394"
         y="793.37469"
         dx="2.0718892">  1 0 0 0 0 0 1</tspan><tspan
         sodipodi:role="line"
         x="244.22394"
         y="811.37469"
         id="tspan6392">1 0 1 1 1 1 1 1</tspan></text>
    <path
       sodipodi:nodetypes="cc"
       inkscape:connector-curvature="0"
       id="path14827"
       d="m 232.65175,871.25376 -6.50195,6.50196"
       style="fill:none;stroke:#000000;stroke-width:0.5;stroke-linecap:square;stroke-linejoin:round;stroke-miterlimit:4;stroke-opacity:1;stroke-dasharray:none;stroke-dashoffset:0;marker-start:none;marker-end:url(#Arrow1Mend)" />
    <g
       id="content"
       transform="matrix(1.2,0,0,-1.2,-323.0257,1681.8794)"
       xml:space="preserve"
       stroke="black"
       stroke-linecap="butt"
       stroke-linejoin="miter"
       stroke-miterlimit="10.433"
       stroke-dasharray="none"
       stroke-dashoffset="0"
       stroke-opacity="1"
       fill="none"
       fill-rule="evenodd"
       fill-opacity="1"
       font-style="normal"
       font-variant="normal"
       font-weight="normal"
       font-stretch="normal"
       font-size-adjust="none"
       letter-spacing="normal"
       word-spacing="normal"
       text-anchor="start"
       ns0:text="\\begin{align*}\nM&amp; = 78\\\\\nN&amp; = -65\n\\end{align*}"
       ns0:preamble="/home/sriranga/Desktop/Prism_BasicElectronics/preamble.tex"
       style="font-style:normal;font-variant:normal;font-weight:normal;font-stretch:normal;letter-spacing:normal;word-spacing:normal;text-anchor:start;fill:none;stroke:#000000;stroke-width:1;stroke-linecap:butt;stroke-linejoin:miter;stroke-miterlimit:10.43299961;stroke-opacity:1;stroke-dasharray:none;stroke-dashoffset:0"><path
         d="M385.79,713.61 H384.13 L380.78,708.71 L380.24,713.61 H378.44 V713.45 C378.93,713.42,379.17,713.31,379.17,713.09 C379.17,713.01,379.13,712.86,379.07,712.68 C379.05,712.64,379.02,712.53,378.98,712.38 C378.97,712.35,378.96,712.31,378.95,712.27 L377.9,708.58 C377.59,707.54,377.44,707.34,376.92,707.28 V707.12 H378.89 V707.28 C378.39,707.32,378.19,707.44,378.19,707.72 C378.19,707.82,378.23,708.08,378.28,708.25 L379.45,712.55 L380.06,707.12 H380.23 L383.98,712.7 L382.69,708.03 C382.54,707.5,382.34,707.35,381.69,707.28 V707.12 H384.41 V707.28 C383.73,707.34,383.64,707.4,383.64,707.71 C383.64,707.88,383.66,708.01,383.75,708.32 L384.97,712.72 C385.15,713.31,385.2,713.36,385.79,713.45 Z "
         stroke-width="0"
         fill="black"
         id="path7987" /><polygon
         points="394.28,710.4 394.28,710.96 389.18,710.96 389.18,710.4 "
         stroke-width="0"
         fill="black"
         id="polygon7989" /><polygon
         points="394.28,708.39 394.28,708.94 389.18,708.94 389.18,708.39 "
         stroke-width="0"
         fill="black"
         id="polygon7991" /><path
         d="M402.14,713.7 H398.46 L397.87,712.24 L398.04,712.16 C398.47,712.84,398.65,712.97,399.19,712.97 H401.35 L399.38,707.05 H400.03 L402.14,713.54 Z "
         stroke-width="0"
         fill="black"
         id="path7993" /><path
         d="M405.54,710.81 L405.63,710.86 L405.72,710.91 L405.8,710.96 L405.88,711 L405.95,711.05 L406.03,711.1 L406.1,711.14 L406.16,711.19 L406.22,711.24 L406.28,711.28 L406.34,711.33 L406.39,711.38 L406.44,711.42 L406.49,711.47 L406.53,711.52 L406.57,711.56 L406.61,711.61 L406.65,711.66 L406.68,711.71 L406.71,711.76 L406.74,711.81 L406.76,711.86 L406.78,711.91 L406.8,711.97 L406.82,712.02 L406.83,712.07 L406.84,712.13 L406.85,712.19 L406.86,712.25 L406.87,712.31 L406.87,712.37 L406.87,712.43 C406.87,713.24,406.15,713.84,405.16,713.84 L405.08,713.56 C405.76,713.56,406.18,713.12,406.18,712.44 C406.18,711.87,405.91,711.43,405.34,711.05 C405.29,711.02,405.29,711.02,405.25,710.99 H405.25 C404.36,711.57,404.01,712.02,404.01,712.58 C404.01,713.16,404.45,713.56,405.08,713.56 L405.16,713.84 C404.08,713.84,403.27,713.17,403.27,712.27 C403.27,711.62,403.46,711.34,404.5,710.42 C403.43,709.61,403.21,709.3,403.21,708.62 C403.21,707.66,403.99,706.99,405.12,706.99 L405.23,707.26 C404.47,707.26,403.97,707.84,403.97,708.7 C403.97,709.34,404.18,709.76,404.76,710.22 L405.36,709.79 C406.08,709.27,406.32,708.91,406.32,708.36 C406.32,707.71,405.88,707.26,405.23,707.26 L405.12,706.99 C406.31,706.99,407.08,707.64,407.08,708.66 C407.08,709.43,406.74,709.92,405.54,710.81 Z "
         stroke-width="0"
         fill="black"
         id="path7995" /><path
         d="M385.79,698.67 H383.81 V698.51 C384.38,698.46,384.51,698.36,384.51,698 C384.51,697.88,384.49,697.76,384.42,697.57 C384.41,697.53,384.4,697.5,384.4,697.49 L383.38,693.71 L381.31,698.67 H379.71 V698.51 C380.18,698.47,380.39,698.34,380.57,697.95 L379.38,693.81 C379.01,692.54,378.93,692.42,378.36,692.34 V692.18 H380.33 V692.34 C379.82,692.38,379.63,692.49,379.63,692.77 C379.63,692.9,379.66,693.09,379.72,693.3 L380.86,697.5 L383.14,692.03 H383.32 L384.76,697.03 C385.12,698.31,385.16,698.37,385.79,698.51 Z "
         stroke-width="0"
         fill="black"
         id="path7997" /><polygon
         points="394.28,695.46 394.28,696.02 389.18,696.02 389.18,695.46 "
         stroke-width="0"
         fill="black"
         id="polygon7999" /><polygon
         points="394.28,693.44 394.28,694 389.18,694 389.18,693.44 "
         stroke-width="0"
         fill="black"
         id="polygon8001" /><polygon
         points="403.38,694.46 403.38,695.01 398.29,695.01 398.29,694.46 "
         stroke-width="0"
         fill="black"
         id="polygon8003" /><path
         d="M408.45,698.98 L408.34,698.97 L408.24,698.96 L408.14,698.95 L408.04,698.93 L407.95,698.92 L407.86,698.91 L407.77,698.9 L407.69,698.88 L407.6,698.87 L407.52,698.85 L407.44,698.83 L407.37,698.81 L407.29,698.8 L407.22,698.77 L407.07,698.73 L406.93,698.68 L406.8,698.63 L406.67,698.57 L406.54,698.51 L406.41,698.43 L406.27,698.36 L406.14,698.27 L406.08,698.23 L406.01,698.18 C404.93,697.42,404.35,696.28,404.35,694.95 C404.35,694.09,404.61,693.21,405.04,692.72 C405.42,692.28,405.96,692.04,406.58,692.04 C407.81,692.04,408.66,692.99,408.66,694.36 C408.66,695.63,407.94,696.43,406.79,696.43 C406.36,696.43,406.15,696.36,405.52,695.99 L405.55,695.73 C405.76,695.89,406.07,695.98,406.42,695.98 H406.42 C407.27,695.98,407.77,695.26,407.77,694.02 C407.77,692.93,407.38,692.32,406.68,692.32 C405.81,692.32,405.27,693.25,405.27,694.79 C405.27,695.3,405.35,695.58,405.55,695.73 L405.52,695.99 C405.79,697.49,406.9,698.56,408.46,698.82 Z "
         stroke-width="0"
         fill="black"
         id="path8005" /><path
         d="M410.79,697.97 H412.74 C412.9,697.97,412.94,697.99,412.97,698.06 L413.35,698.95 L413.26,699.02 C413.11,698.81,413.01,698.76,412.8,698.76 H410.72 L409.64,696.4 C409.63,696.38,409.63,696.37,409.63,696.35 C409.63,696.3,409.67,696.27,409.74,696.27 C410.06,696.27,410.46,696.2,410.87,696.08 C412.01,695.71,412.54,695.09,412.54,694.11 C412.54,693.15,411.93,692.41,411.16,692.41 C410.96,692.41,410.79,692.48,410.49,692.7 C410.17,692.93,409.94,693.03,409.73,693.03 C409.45,693.03,409.31,692.91,409.31,692.66 C409.31,692.28,409.77,692.04,410.52,692.04 C411.36,692.04,412.07,692.31,412.57,692.82 C413.03,693.26,413.24,693.83,413.24,694.59 C413.24,695.3,413.05,695.76,412.55,696.25 C412.11,696.69,411.55,696.92,410.37,697.13 Z "
         stroke-width="0"
         fill="black"
         id="path8007" /></g>    <g
       style="font-style:normal;font-variant:normal;font-weight:normal;font-stretch:normal;letter-spacing:normal;word-spacing:normal;text-anchor:start;fill:none;stroke:#000000;stroke-width:1;stroke-linecap:butt;stroke-linejoin:miter;stroke-miterlimit:10.43299961;stroke-opacity:1;stroke-dasharray:none;stroke-dashoffset:0"
       ns0:preamble="/home/sriranga/Desktop/Prism_BasicElectronics/preamble.tex"
       ns0:text="$\\therefore $~ Answer~ $= (00001101)_{2}=13$ "
       word-spacing="normal"
       letter-spacing="normal"
       font-size-adjust="none"
       font-stretch="normal"
       font-weight="normal"
       font-variant="normal"
       font-style="normal"
       stroke-miterlimit="10.433"
       xml:space="preserve"
       transform="matrix(1.2,0,0,-1.2,-104.26279,1760.9868)"
       id="g8271"><path
         id="path8273"
         d="m 227.27,711.21 0,0.02 0,0.03 0,0.03 -0.01,0.02 0,0.03 -0.01,0.02 -0.01,0.03 -0.01,0.02 -0.01,0.02 -0.01,0.03 -0.01,0.02 -0.02,0.02 -0.01,0.02 -0.02,0.02 -0.02,0.02 -0.01,0.02 -0.02,0.02 -0.02,0.01 -0.02,0.02 -0.02,0.01 -0.02,0.02 -0.02,0.01 -0.03,0.01 -0.02,0.01 -0.02,0.01 -0.03,0.01 -0.02,0.01 -0.03,0 -0.03,0.01 -0.02,0 -0.03,0 -0.03,0 c -0.28,0 -0.52,-0.23 -0.52,-0.52 0,-0.29 0.24,-0.53 0.52,-0.53 0.28,0 0.53,0.23 0.53,0.53 z"
         inkscape:connector-curvature="0"
         style="fill:#000000;stroke-width:0" /><path
         id="path8275"
         d="m 229.76,706.91 0,0.02 0,0.03 -0.01,0.03 0,0.02 -0.01,0.03 0,0.02 -0.01,0.03 -0.01,0.02 -0.01,0.02 -0.01,0.03 -0.02,0.02 -0.01,0.02 -0.02,0.02 -0.01,0.02 -0.02,0.02 -0.02,0.02 -0.01,0.02 -0.02,0.01 -0.02,0.02 -0.02,0.01 -0.03,0.02 -0.02,0.01 -0.02,0.01 -0.02,0.01 -0.03,0.01 -0.02,0.01 -0.03,0.01 -0.02,0 -0.03,0.01 -0.02,0 -0.03,0 -0.03,0 c -0.29,0 -0.52,-0.24 -0.52,-0.52 0,-0.29 0.23,-0.53 0.52,-0.53 0.29,0 0.53,0.24 0.53,0.53 z"
         inkscape:connector-curvature="0"
         style="fill:#000000;stroke-width:0" /><path
         id="path8277"
         d="m 224.79,706.91 -0.01,0.02 0,0.03 0,0.03 -0.01,0.02 0,0.03 -0.01,0.02 -0.01,0.03 -0.01,0.02 -0.01,0.02 -0.01,0.03 -0.01,0.02 -0.02,0.02 -0.01,0.02 -0.02,0.02 -0.01,0.02 -0.02,0.02 -0.02,0.02 -0.02,0.01 -0.02,0.02 -0.02,0.01 -0.02,0.02 -0.02,0.01 -0.02,0.01 -0.03,0.01 -0.02,0.01 -0.03,0.01 -0.02,0.01 -0.03,0 -0.02,0.01 -0.03,0 -0.03,0 -0.02,0 c -0.29,0 -0.53,-0.24 -0.53,-0.52 0,-0.29 0.24,-0.53 0.53,-0.53 0.29,0 0.53,0.24 0.53,0.53 z"
         inkscape:connector-curvature="0"
         style="fill:#000000;stroke-width:0" /><path
         id="path8279"
         d="m 242.08,707.31 -0.04,0.01 -0.04,0 -0.04,0 -0.03,0.01 -0.04,0.01 -0.03,0 -0.03,0.01 -0.03,0.01 -0.03,0.01 -0.03,0.01 -0.02,0.01 -0.03,0.02 -0.02,0.01 -0.03,0.02 -0.02,0.02 -0.03,0.02 -0.02,0.03 -0.02,0.02 -0.03,0.03 -0.02,0.03 -0.02,0.03 -0.02,0.04 -0.03,0.04 -0.02,0.04 -0.03,0.04 -0.02,0.05 -0.03,0.05 -0.03,0.05 -0.02,0.06 -0.03,0.06 -0.02,0.03 -0.01,0.03 -0.02,0.03 -0.02,0.04 -2.47,5.64 h -0.2 l -2.07,-4.88 c -0.64,-1.45 -0.76,-1.61 -1.24,-1.63 v -0.19 h 1.97 v 0.19 c -0.47,0 -0.67,0.13 -0.67,0.41 0,0.12 0.03,0.26 0.08,0.39 l 0.46,1.16 h 2.6 l -0.14,0.41 h -2.3 l 1.15,2.73 1.15,-2.73 0.14,-0.41 0.41,-0.95 c 0.12,-0.27 0.19,-0.53 0.19,-0.67 0,-0.25 -0.17,-0.33 -0.7,-0.34 v -0.19 h 2.54 z"
         inkscape:connector-curvature="0"
         style="fill:#000000;stroke-width:0" /><path
         id="path8281"
         d="m 242.41,711.08 0,0 0.01,0 0,0.01 0.01,0 0.01,0 0,0 0.01,0.01 0.01,0 0.01,0 0,0 0.02,0 0.02,0.01 0.01,0 0.02,0 0.02,0 0.02,0 0.02,0.01 0.02,0 0.02,0 0.02,0 0.02,0 c 0.27,0 0.36,-0.15 0.36,-0.64 v -2.46 c 0,-0.57 -0.11,-0.71 -0.61,-0.75 v -0.15 h 2.11 v 0.15 c -0.51,0.04 -0.66,0.16 -0.66,0.52 v 2.79 c 0.48,0.45 0.7,0.57 1.02,0.57 0.49,0 0.73,-0.31 0.73,-0.97 v -2.07 c 0,-0.63 -0.13,-0.8 -0.63,-0.84 v -0.15 h 2.07 v 0.15 c -0.48,0.05 -0.6,0.17 -0.6,0.66 v 2.27 c 0,0.94 -0.44,1.5 -1.18,1.5 -0.45,0 -0.76,-0.17 -1.44,-0.81 v 0.78 l -0.07,0.03 c -0.49,-0.18 -0.83,-0.29 -1.37,-0.45 z"
         inkscape:connector-curvature="0"
         style="fill:#000000;stroke-width:0" /><path
         id="path8283"
         d="m 250.36,710.24 -0.04,1.35 h -0.11 l -0.02,-0.01 c -0.09,-0.07 -0.09,-0.08 -0.14,-0.08 -0.06,0 -0.15,0.02 -0.26,0.07 -0.22,0.08 -0.44,0.11 -0.7,0.11 -0.79,0 -1.35,-0.5 -1.35,-1.22 0,-0.55 0.31,-0.95 1.16,-1.43 l 0.58,-0.33 c 0.35,-0.19 0.51,-0.43 0.51,-0.74 0,-0.44 -0.31,-0.72 -0.82,-0.72 -0.34,0 -0.65,0.13 -0.84,0.35 -0.21,0.25 -0.29,0.48 -0.42,1.05 h -0.16 v -1.55 h 0.13 c 0.07,0.09 0.11,0.11 0.22,0.11 0.09,0 0.23,-0.02 0.46,-0.08 0.28,-0.05 0.55,-0.09 0.73,-0.09 0.76,0 1.4,0.57 1.4,1.27 0,0.49 -0.24,0.82 -0.83,1.18 l -1.08,0.63 c -0.28,0.16 -0.43,0.41 -0.43,0.68 0,0.4 0.31,0.68 0.77,0.68 0.57,0 0.87,-0.34 1.09,-1.23 z"
         inkscape:connector-curvature="0"
         style="fill:#000000;stroke-width:0" /><path
         id="path8285"
         d="m 256.79,711.59 v -0.14 c 0.33,-0.07 0.43,-0.14 0.43,-0.31 0,-0.15 -0.06,-0.39 -0.17,-0.66 l -0.89,-2.2 -0.84,2.22 c -0.17,0.46 -0.17,0.46 -0.17,0.59 0,0.22 0.11,0.29 0.58,0.36 v 0.14 h -2.02 v -0.14 c 0.37,-0.04 0.49,-0.15 0.69,-0.69 0.07,-0.19 0.14,-0.38 0.2,-0.56 l -0.91,-1.97 -0.98,2.59 c -0.04,0.1 -0.06,0.2 -0.06,0.3 0,0.21 0.12,0.29 0.45,0.33 v 0.14 h -1.79 v -0.14 c 0.23,-0.02 0.31,-0.12 0.53,-0.63 l 1.34,-3.4 c 0.12,-0.3 0.2,-0.43 0.26,-0.43 0.05,0 0.13,0.12 0.25,0.38 l 1.12,2.39 0.9,-2.35 c 0.14,-0.36 0.18,-0.42 0.24,-0.42 0.07,0 0.12,0.09 0.28,0.48 l 1.37,3.44 c 0.18,0.42 0.21,0.47 0.41,0.54 v 0.14 z"
         inkscape:connector-curvature="0"
         style="fill:#000000;stroke-width:0" /><path
         id="path8287"
         d="m 262.36,708.75 -0.05,-0.07 -0.04,-0.06 -0.05,-0.07 -0.04,-0.06 -0.04,-0.06 -0.05,-0.05 -0.04,-0.06 -0.05,-0.05 -0.04,-0.05 -0.04,-0.04 -0.05,-0.05 -0.04,-0.04 -0.05,-0.04 -0.04,-0.03 -0.05,-0.04 -0.04,-0.03 -0.05,-0.03 -0.05,-0.03 -0.05,-0.02 -0.04,-0.03 -0.05,-0.02 -0.05,-0.02 -0.05,-0.02 -0.05,-0.01 -0.05,-0.02 -0.06,-0.01 -0.05,-0.01 -0.06,-0.01 -0.05,0 -0.06,-0.01 -0.06,0 -0.05,0 c -0.57,0 -1,0.29 -1.29,0.86 -0.18,0.37 -0.25,0.7 -0.27,1.31 l 0.02,0.32 c 0.11,0.77 0.45,1.14 1.06,1.14 0.6,0 0.84,-0.28 0.97,-1.14 h -2.03 l -0.02,-0.32 h 3.07 c -0.08,0.64 -0.18,0.93 -0.43,1.25 -0.3,0.36 -0.76,0.57 -1.27,0.57 -0.5,0 -0.97,-0.18 -1.35,-0.52 -0.46,-0.41 -0.73,-1.11 -0.73,-1.93 0,-1.37 0.71,-2.22 1.86,-2.22 0.94,0 1.69,0.58 2.11,1.65 z"
         inkscape:connector-curvature="0"
         style="fill:#000000;stroke-width:0" /><path
         id="path8289"
         d="m 262.79,711 0.01,0 0.02,0 0.01,0.01 0.01,0 0.02,0 0.03,0.01 0.02,0 0.02,0 0.02,0.01 0.02,0 0.02,0 0.02,0 0.02,0.01 0.02,0 0.02,0 0.03,0 0.02,0 0.02,0 c 0.25,0 0.34,-0.16 0.34,-0.6 v -2.48 c 0,-0.5 -0.07,-0.57 -0.71,-0.69 v -0.15 h 2.39 v 0.15 c -0.68,0.03 -0.85,0.18 -0.85,0.75 v 2.23 c 0,0.32 0.43,0.82 0.7,0.82 0.06,0 0.15,-0.05 0.26,-0.15 0.16,-0.14 0.27,-0.2 0.4,-0.2 0.23,0 0.38,0.17 0.38,0.45 0,0.33 -0.2,0.53 -0.54,0.53 -0.42,0 -0.71,-0.23 -1.2,-0.94 v 0.91 l -0.05,0.03 c -0.52,-0.22 -0.88,-0.35 -1.47,-0.54 z"
         inkscape:connector-curvature="0"
         style="fill:#000000;stroke-width:0" /><polygon
         id="polygon8291"
         points="271.64,710.4 276.73,710.4 276.73,710.96 271.64,710.96 "
         style="fill:#000000;stroke-width:0" /><polygon
         id="polygon8293"
         points="271.64,708.39 276.73,708.39 276.73,708.94 271.64,708.94 "
         style="fill:#000000;stroke-width:0" /><path
         id="path8295"
         d="m 283.06,713.84 -0.07,-0.04 -0.06,-0.05 -0.07,-0.04 -0.06,-0.04 -0.06,-0.04 -0.05,-0.04 -0.06,-0.04 -0.05,-0.03 -0.05,-0.04 -0.05,-0.04 -0.05,-0.03 -0.04,-0.04 -0.05,-0.03 -0.04,-0.04 -0.08,-0.06 -0.08,-0.07 -0.07,-0.07 -0.07,-0.07 -0.07,-0.07 -0.07,-0.07 -0.07,-0.08 -0.07,-0.08 -0.06,-0.08 c -0.71,-0.87 -1.06,-1.86 -1.06,-3.02 0,-1.26 0.37,-2.24 1.25,-3.25 0.4,-0.48 0.66,-0.7 1.18,-1.01 l 0.12,0.16 c -0.8,0.62 -1.08,0.97 -1.35,1.71 -0.23,0.67 -0.34,1.42 -0.34,2.42 0,1.04 0.13,1.86 0.4,2.47 0.27,0.62 0.57,0.97 1.29,1.55 z"
         inkscape:connector-curvature="0"
         style="fill:#000000;stroke-width:0" /><path
         id="path8297"
         d="m 285.97,713.84 -0.05,0 -0.05,0 -0.05,0 -0.05,-0.01 -0.05,0 -0.05,-0.01 -0.04,0 -0.05,-0.01 -0.04,-0.01 -0.05,-0.01 -0.04,-0.01 -0.05,-0.01 -0.04,-0.01 -0.04,-0.02 -0.04,-0.01 -0.05,-0.02 -0.04,-0.01 -0.04,-0.02 -0.04,-0.02 -0.04,-0.02 -0.03,-0.02 -0.04,-0.02 -0.04,-0.03 -0.04,-0.02 -0.04,-0.02 -0.03,-0.03 -0.04,-0.03 -0.03,-0.02 -0.04,-0.03 -0.04,-0.03 -0.03,-0.03 -0.03,-0.04 c -0.58,-0.55 -0.96,-1.7 -0.96,-2.86 0,-1.08 0.33,-2.24 0.8,-2.8 0.36,-0.44 0.87,-0.67 1.45,-0.67 v 0.25 c -0.86,0 -1.29,1.07 -1.29,3.13 0,2.11 0.44,3.21 1.3,3.21 h 0 c 0.83,0 1.28,-1.12 1.28,-3.2 0,-2.07 -0.44,-3.14 -1.29,-3.14 v -0.25 c 0.51,0 0.93,0.17 1.29,0.51 0.58,0.55 0.96,1.7 0.96,2.9 0,2.04 -0.91,3.44 -2.21,3.44 z"
         inkscape:connector-curvature="0"
         style="fill:#000000;stroke-width:0" /><path
         id="path8299"
         d="m 290.95,713.84 -0.05,0 -0.05,0 -0.05,0 -0.05,-0.01 -0.05,0 -0.04,-0.01 -0.05,0 -0.05,-0.01 -0.04,-0.01 -0.05,-0.01 -0.04,-0.01 -0.05,-0.01 -0.04,-0.01 -0.04,-0.02 -0.04,-0.01 -0.04,-0.02 -0.04,-0.01 -0.04,-0.02 -0.04,-0.02 -0.04,-0.02 -0.04,-0.02 -0.04,-0.02 -0.04,-0.03 -0.04,-0.02 -0.03,-0.02 -0.04,-0.03 -0.04,-0.03 -0.03,-0.02 -0.04,-0.03 -0.03,-0.03 -0.04,-0.03 -0.03,-0.04 c -0.58,-0.55 -0.96,-1.7 -0.96,-2.86 0,-1.08 0.33,-2.24 0.8,-2.8 0.37,-0.44 0.87,-0.67 1.45,-0.67 v 0.25 c -0.86,0 -1.29,1.07 -1.29,3.13 0,2.11 0.44,3.21 1.3,3.21 h 0 c 0.84,0 1.28,-1.12 1.28,-3.2 0,-2.07 -0.43,-3.14 -1.29,-3.14 v -0.25 c 0.51,0 0.94,0.17 1.29,0.51 0.58,0.55 0.96,1.7 0.96,2.9 0,2.04 -0.91,3.44 -2.21,3.44 z"
         inkscape:connector-curvature="0"
         style="fill:#000000;stroke-width:0" /><path
         id="path8301"
         d="m 295.93,713.84 -0.05,0 -0.05,0 -0.05,0 -0.05,-0.01 -0.05,0 -0.04,-0.01 -0.05,0 -0.05,-0.01 -0.04,-0.01 -0.05,-0.01 -0.04,-0.01 -0.04,-0.01 -0.05,-0.01 -0.04,-0.02 -0.04,-0.01 -0.04,-0.02 -0.04,-0.01 -0.04,-0.02 -0.04,-0.02 -0.04,-0.02 -0.04,-0.02 -0.04,-0.02 -0.04,-0.03 -0.04,-0.02 -0.03,-0.02 -0.04,-0.03 -0.04,-0.03 -0.03,-0.02 -0.04,-0.03 -0.03,-0.03 -0.04,-0.03 -0.03,-0.04 c -0.58,-0.55 -0.96,-1.7 -0.96,-2.86 0,-1.08 0.33,-2.24 0.8,-2.8 0.37,-0.44 0.87,-0.67 1.45,-0.67 v 0.25 c -0.85,0 -1.29,1.07 -1.29,3.13 0,2.11 0.45,3.21 1.3,3.21 h 0 c 0.84,0 1.28,-1.12 1.28,-3.2 0,-2.07 -0.43,-3.14 -1.29,-3.14 v -0.25 c 0.51,0 0.94,0.17 1.29,0.51 0.58,0.55 0.96,1.7 0.96,2.9 0,2.04 -0.91,3.44 -2.21,3.44 z"
         inkscape:connector-curvature="0"
         style="fill:#000000;stroke-width:0" /><path
         id="path8303"
         d="m 300.91,713.84 -0.05,0 -0.05,0 -0.05,0 -0.05,-0.01 -0.04,0 -0.05,-0.01 -0.05,0 -0.04,-0.01 -0.05,-0.01 -0.05,-0.01 -0.04,-0.01 -0.04,-0.01 -0.05,-0.01 -0.04,-0.02 -0.04,-0.01 -0.04,-0.02 -0.04,-0.01 -0.04,-0.02 -0.04,-0.02 -0.04,-0.02 -0.04,-0.02 -0.04,-0.02 -0.04,-0.03 -0.03,-0.02 -0.04,-0.02 -0.04,-0.03 -0.03,-0.03 -0.04,-0.02 -0.04,-0.03 -0.03,-0.03 -0.04,-0.03 -0.03,-0.04 c -0.58,-0.55 -0.96,-1.7 -0.96,-2.86 0,-1.08 0.33,-2.24 0.8,-2.8 0.37,-0.44 0.88,-0.67 1.45,-0.67 v 0.25 c -0.85,0 -1.29,1.07 -1.29,3.13 0,2.11 0.45,3.21 1.3,3.21 h 0 c 0.84,0 1.29,-1.12 1.29,-3.2 0,-2.07 -0.44,-3.14 -1.3,-3.14 v -0.25 c 0.51,0 0.94,0.17 1.3,0.51 0.57,0.55 0.95,1.7 0.95,2.9 0,2.04 -0.9,3.44 -2.21,3.44 z"
         inkscape:connector-curvature="0"
         style="fill:#000000;stroke-width:0" /><path
         id="path8305"
         d="m 306.26,713.84 -1.79,-0.9 v -0.14 c 0.12,0.05 0.23,0.09 0.27,0.11 0.18,0.07 0.35,0.11 0.45,0.11 0.21,0 0.3,-0.15 0.3,-0.47 v -4.5 c 0,-0.33 -0.08,-0.56 -0.24,-0.65 -0.15,-0.09 -0.29,-0.12 -0.71,-0.13 v -0.15 h 2.75 v 0.15 c -0.79,0.01 -0.95,0.11 -0.95,0.59 v 5.96 z"
         inkscape:connector-curvature="0"
         style="fill:#000000;stroke-width:0" /><path
         id="path8307"
         d="m 311.24,713.84 -1.79,-0.9 v -0.14 c 0.12,0.05 0.23,0.09 0.27,0.11 0.18,0.07 0.35,0.11 0.45,0.11 0.21,0 0.3,-0.15 0.3,-0.47 v -4.5 c 0,-0.33 -0.08,-0.56 -0.24,-0.65 -0.15,-0.09 -0.29,-0.12 -0.71,-0.13 v -0.15 h 2.75 v 0.15 c -0.79,0.01 -0.95,0.11 -0.95,0.59 v 5.96 z"
         inkscape:connector-curvature="0"
         style="fill:#000000;stroke-width:0" /><path
         id="path8309"
         d="m 315.86,713.84 -0.05,0 -0.06,0 -0.04,0 -0.05,-0.01 -0.05,0 -0.05,-0.01 -0.05,0 -0.04,-0.01 -0.05,-0.01 -0.04,-0.01 -0.05,-0.01 -0.04,-0.01 -0.04,-0.01 -0.04,-0.02 -0.05,-0.01 -0.04,-0.02 -0.04,-0.01 -0.04,-0.02 -0.04,-0.02 -0.04,-0.02 -0.04,-0.02 -0.03,-0.02 -0.04,-0.03 -0.04,-0.02 -0.04,-0.02 -0.03,-0.03 -0.04,-0.03 -0.04,-0.02 -0.03,-0.03 -0.04,-0.03 -0.03,-0.03 -0.04,-0.04 c -0.57,-0.55 -0.95,-1.7 -0.95,-2.86 0,-1.08 0.33,-2.24 0.79,-2.8 0.37,-0.44 0.88,-0.67 1.46,-0.67 v 0.25 c -0.86,0 -1.3,1.07 -1.3,3.13 0,2.11 0.45,3.21 1.31,3.21 h 0 c 0.83,0 1.28,-1.12 1.28,-3.2 0,-2.07 -0.44,-3.14 -1.29,-3.14 v -0.25 c 0.5,0 0.93,0.17 1.29,0.51 0.58,0.55 0.96,1.7 0.96,2.9 0,2.04 -0.91,3.44 -2.21,3.44 z"
         inkscape:connector-curvature="0"
         style="fill:#000000;stroke-width:0" /><path
         id="path8311"
         d="m 321.21,713.84 -1.79,-0.9 v -0.14 c 0.11,0.05 0.22,0.09 0.26,0.11 0.18,0.07 0.35,0.11 0.45,0.11 0.21,0 0.3,-0.15 0.3,-0.47 v -4.5 c 0,-0.33 -0.08,-0.56 -0.24,-0.65 -0.15,-0.09 -0.29,-0.12 -0.71,-0.13 v -0.15 h 2.75 v 0.15 c -0.78,0.01 -0.94,0.11 -0.94,0.59 v 5.96 z"
         inkscape:connector-curvature="0"
         style="fill:#000000;stroke-width:0" /><path
         id="path8313"
         d="m 323.67,705.37 0.07,0.04 0.06,0.04 0.07,0.05 0.06,0.04 0.05,0.04 0.06,0.03 0.06,0.04 0.05,0.04 0.05,0.04 0.05,0.03 0.04,0.04 0.05,0.03 0.04,0.04 0.05,0.03 0.08,0.07 0.08,0.07 0.07,0.07 0.07,0.07 0.07,0.07 0.07,0.07 0.07,0.08 0.06,0.08 0.07,0.08 c 0.71,0.86 1.06,1.86 1.06,3.02 0,1.27 -0.37,2.23 -1.25,3.25 -0.4,0.47 -0.66,0.69 -1.18,1.01 l -0.12,-0.16 c 0.8,-0.63 1.06,-0.97 1.34,-1.72 0.24,-0.66 0.35,-1.42 0.35,-2.41 0,-1.03 -0.13,-1.86 -0.4,-2.46 -0.27,-0.63 -0.57,-0.99 -1.29,-1.56 z"
         inkscape:connector-curvature="0"
         style="fill:#000000;stroke-width:0" /><path
         id="path8315"
         d="m 329.92,706.58 -0.09,0.04 c -0.26,-0.4 -0.35,-0.46 -0.66,-0.46 h -1.67 l 1.17,1.22 c 0.62,0.65 0.89,1.18 0.89,1.72 0,0.7 -0.56,1.23 -1.29,1.23 -0.38,0 -0.74,-0.15 -1,-0.43 -0.22,-0.24 -0.33,-0.46 -0.44,-0.95 l 0.14,-0.04 c 0.28,0.68 0.53,0.91 1.01,0.91 0.59,0 0.98,-0.4 0.98,-0.98 0,-0.55 -0.32,-1.19 -0.9,-1.81 l -1.24,-1.32 v -0.08 h 2.72 z"
         inkscape:connector-curvature="0"
         style="fill:#000000;stroke-width:0" /><polygon
         id="polygon8317"
         points="333.98,710.4 339.07,710.4 339.07,710.96 333.98,710.96 "
         style="fill:#000000;stroke-width:0" /><polygon
         id="polygon8319"
         points="333.98,708.39 339.07,708.39 339.07,708.94 333.98,708.94 "
         style="fill:#000000;stroke-width:0" /><path
         id="path8321"
         d="m 345.36,713.84 -1.79,-0.9 v -0.14 c 0.12,0.05 0.23,0.09 0.27,0.11 0.18,0.07 0.35,0.11 0.45,0.11 0.21,0 0.29,-0.15 0.29,-0.47 v -4.5 c 0,-0.33 -0.07,-0.56 -0.23,-0.65 -0.15,-0.09 -0.29,-0.12 -0.71,-0.13 v -0.15 h 2.75 v 0.15 c -0.79,0.01 -0.95,0.11 -0.95,0.59 v 5.96 z"
         inkscape:connector-curvature="0"
         style="fill:#000000;stroke-width:0" /><path
         id="path8323"
         d="m 348.97,710.4 0.05,0 0.06,0 0.05,0 0.04,0 0.05,0 0.04,0 0.05,0 0.04,0 0.04,0 0.04,0 0.03,-0.01 0.04,0 0.03,0 0.04,0 0.03,-0.01 0.03,0 0.03,0 0.03,0 0.02,-0.01 0.03,0 0.03,-0.01 0.02,0 0.05,-0.01 0.05,-0.01 0.04,-0.02 0.05,-0.01 0.04,-0.02 c 0.62,-0.21 1.01,-0.78 1.01,-1.47 0,-0.83 -0.57,-1.48 -1.3,-1.48 -0.27,0 -0.47,0.07 -0.84,0.31 -0.3,0.18 -0.47,0.25 -0.64,0.25 -0.23,0 -0.37,-0.14 -0.37,-0.35 0,-0.35 0.42,-0.56 1.12,-0.56 0.77,0 1.55,0.25 2.02,0.66 0.47,0.41 0.72,0.99 0.72,1.65 0,0.51 -0.15,0.97 -0.44,1.28 -0.2,0.22 -0.39,0.34 -0.83,0.53 0.69,0.47 0.94,0.83 0.94,1.37 0,0.8 -0.64,1.36 -1.55,1.36 -0.5,0 -0.94,-0.17 -1.3,-0.49 -0.3,-0.26 -0.45,-0.52 -0.67,-1.12 l 0.15,-0.04 c 0.41,0.73 0.86,1.05 1.49,1.05 0.64,0 1.09,-0.43 1.09,-1.06 0,-0.36 -0.15,-0.71 -0.4,-0.96 -0.3,-0.3 -0.57,-0.45 -1.25,-0.69 z"
         inkscape:connector-curvature="0"
         style="fill:#000000;stroke-width:0" /></g>  </g>
</svg>
