<?xml version="1.0" encoding="UTF-8" standalone="no"?>
<!-- Created with Inkscape (http://www.inkscape.org/) -->

<svg
   xmlns:ns0="http://www.iki.fi/pav/software/textext/"
   xmlns:dc="http://purl.org/dc/elements/1.1/"
   xmlns:cc="http://creativecommons.org/ns#"
   xmlns:rdf="http://www.w3.org/1999/02/22-rdf-syntax-ns#"
   xmlns:svg="http://www.w3.org/2000/svg"
   xmlns="http://www.w3.org/2000/svg"
   xmlns:sodipodi="http://sodipodi.sourceforge.net/DTD/sodipodi-0.dtd"
   xmlns:inkscape="http://www.inkscape.org/namespaces/inkscape"
   width="496.06299"
   height="354.33069"
   id="svg2"
   version="1.1"
   inkscape:version="0.48.4 r9939"
   sodipodi:docname="div46.eps">
  <sodipodi:namedview
     id="base"
     pagecolor="#ffffff"
     bordercolor="#666666"
     borderopacity="1.0"
     inkscape:pageopacity="0.0"
     inkscape:pageshadow="2"
     inkscape:zoom="1.6848668"
     inkscape:cx="248.03149"
     inkscape:cy="177.16534"
     inkscape:document-units="cm"
     inkscape:current-layer="layer1"
     showgrid="false"
     units="cm"
     inkscape:object-nodes="true"
     inkscape:window-width="1366"
     inkscape:window-height="744"
     inkscape:window-x="0"
     inkscape:window-y="24"
     inkscape:window-maximized="1">
    <inkscape:grid
       snapvisiblegridlinesonly="true"
       enabled="true"
       visible="true"
       empspacing="5"
       id="grid2985"
       type="xygrid" />
  </sodipodi:namedview>
  <defs
     id="defs4">
    <marker
       style="overflow:visible"
       id="Arrow1Mstart"
       refX="0"
       refY="0"
       orient="auto"
       inkscape:stockid="Arrow1Mstart">
      <path
         transform="matrix(0.4,0,0,0.4,4,0)"
         style="fill-rule:evenodd;stroke:#000000;stroke-width:1pt"
         d="M 0,0 5,-5 -12.5,0 5,5 0,0 z"
         id="path3775"
         inkscape:connector-curvature="0" />
    </marker>
    <marker
       style="overflow:visible"
       id="Arrow1Mend"
       refX="0"
       refY="0"
       orient="auto"
       inkscape:stockid="Arrow1Mend">
      <path
         transform="matrix(-0.4,0,0,-0.4,-4,0)"
         style="fill-rule:evenodd;stroke:#000000;stroke-width:1pt"
         d="M 0,0 5,-5 -12.5,0 5,5 0,0 z"
         id="path3778"
         inkscape:connector-curvature="0" />
    </marker>
    <marker
       inkscape:stockid="Arrow1Mstart"
       orient="auto"
       refY="0"
       refX="0"
       id="Arrow1Mstart-7"
       style="overflow:visible">
      <path
         inkscape:connector-curvature="0"
         id="path3775-8"
         d="M 0,0 5,-5 -12.5,0 5,5 0,0 z"
         style="fill-rule:evenodd;stroke:#000000;stroke-width:1pt"
         transform="matrix(0.4,0,0,0.4,4,0)" />
    </marker>
    <marker
       inkscape:stockid="Arrow1Mend"
       orient="auto"
       refY="0"
       refX="0"
       id="Arrow1Mend-3"
       style="overflow:visible">
      <path
         inkscape:connector-curvature="0"
         id="path3778-2"
         d="M 0,0 5,-5 -12.5,0 5,5 0,0 z"
         style="fill-rule:evenodd;stroke:#000000;stroke-width:1pt"
         transform="matrix(-0.4,0,0,-0.4,-4,0)" />
    </marker>
    <marker
       inkscape:stockid="Arrow1Mend"
       orient="auto"
       refY="0"
       refX="0"
       id="Arrow1Mend-8"
       style="overflow:visible">
      <path
         inkscape:connector-curvature="0"
         id="path3778-3"
         d="M 0,0 5,-5 -12.5,0 5,5 0,0 z"
         style="fill-rule:evenodd;stroke:#000000;stroke-width:1pt"
         transform="matrix(-0.4,0,0,-0.4,-4,0)" />
    </marker>
  </defs>
  <metadata
     id="metadata7">
    <rdf:RDF>
      <cc:Work
         rdf:about="">
        <dc:format>image/svg+xml</dc:format>
        <dc:type
           rdf:resource="http://purl.org/dc/dcmitype/StillImage" />
        <dc:title></dc:title>
      </cc:Work>
    </rdf:RDF>
  </metadata>
  <g
     transform="translate(0,-698.03016)"
     id="layer1"
     inkscape:groupmode="layer"
     inkscape:label="Layer 1">
    <text
       xml:space="preserve"
       style="font-size:12px;font-style:normal;font-variant:normal;font-weight:normal;font-stretch:normal;text-align:end;line-height:154.99999523%;letter-spacing:0px;word-spacing:0px;text-anchor:end;fill:#000000;fill-opacity:1;stroke:none;font-family:LMRoman12;-inkscape-font-specification:Sans"
       x="47.264973"
       y="795.36725"
       id="text15575"
       sodipodi:linespacing="155%"><tspan
         sodipodi:role="line"
         id="tspan15577"
         x="47.264973"
         y="795.36725">1</tspan><tspan
         sodipodi:role="line"
         x="47.264973"
         y="813.96722"
         id="tspan15579">3</tspan><tspan
         sodipodi:role="line"
         x="47.264973"
         y="832.56726"
         id="tspan15581">6</tspan><tspan
         sodipodi:role="line"
         x="47.264973"
         y="851.16724"
         id="tspan15583"
         style="text-align:end;line-height:154.99999523%;letter-spacing:0px;text-anchor:end">10</tspan></text>
    <text
       xml:space="preserve"
       style="font-size:12px;font-style:normal;font-variant:normal;font-weight:normal;font-stretch:normal;text-align:start;line-height:150%;letter-spacing:0px;word-spacing:0px;text-anchor:start;fill:#000000;fill-opacity:1;stroke:none;font-family:LMRoman12;-inkscape-font-specification:Sans"
       x="99.414391"
       y="143.63155"
       id="text15585"
       sodipodi:linespacing="150%"
       transform="translate(0,698.03016)"><tspan
         sodipodi:role="line"
         id="tspan15587"
         x="99.414391"
         y="143.63155" /></text>
    <path
       style="fill:none;stroke:#000000;stroke-width:0.79999995;stroke-linecap:square;stroke-linejoin:round;stroke-miterlimit:4;stroke-opacity:1;stroke-dasharray:none;stroke-dashoffset:0"
       d="m 15.889791,837.90379 455.066199,0"
       id="path15599"
       inkscape:connector-curvature="0" />
    <path
       style="fill:none;stroke:#000000;stroke-width:0.80000001;stroke-linecap:square;stroke-linejoin:round;stroke-miterlimit:4;stroke-opacity:1;stroke-dasharray:none;stroke-dashoffset:0;marker-start:url(#Arrow1Mstart-7)"
       d="m 48.664041,785.96735 c 3.20969,-2.13092 8.98978,-6.66331 13.650931,-6.25417 29.192784,-1.79967 -1.346287,92.07012 40.359278,91.90187"
       id="path15601"
       inkscape:connector-curvature="0"
       sodipodi:nodetypes="ccc" />
    <g
       id="content"
       transform="matrix(1.2,0,0,-1.2,-260.9184,1724.2633)"
       xml:space="preserve"
       stroke-miterlimit="10.433"
       font-style="normal"
       font-variant="normal"
       font-weight="normal"
       font-stretch="normal"
       font-size-adjust="none"
       letter-spacing="normal"
       word-spacing="normal"
       ns0:text="$C=1$ "
       ns0:preamble="/home/sriranga/Desktop/Prism_BasicElectronics/preamble.tex"
       style="font-style:normal;font-variant:normal;font-weight:normal;font-stretch:normal;letter-spacing:normal;word-spacing:normal;text-anchor:start;fill:none;stroke:#000000;stroke-width:1;stroke-linecap:butt;stroke-linejoin:miter;stroke-miterlimit:10.43299961;stroke-opacity:1;stroke-dasharray:none;stroke-dashoffset:0"><path
         style="fill:#000000;stroke-width:0"
         inkscape:connector-curvature="0"
         d="m 229.67,711.74 0.37,1.98 h -0.21 c -0.08,-0.16 -0.18,-0.22 -0.38,-0.22 -0.08,0 -0.2,0.02 -0.41,0.07 -0.44,0.11 -0.84,0.17 -1.16,0.17 -2.12,0 -4.04,-2 -4.04,-4.2 0,-1.52 1.07,-2.59 2.6,-2.59 1.02,0 1.82,0.43 2.71,1.48 l -0.17,0.14 c -0.89,-0.88 -1.47,-1.18 -2.28,-1.18 -1.11,0 -1.75,0.76 -1.75,2.04 0,1.18 0.48,2.38 1.26,3.19 0.47,0.48 1.1,0.76 1.76,0.76 0.91,0 1.42,-0.53 1.52,-1.61 z"
         id="path15900" /><polygon
         style="fill:#000000;stroke-width:0"
         points="238.77,710.96 233.68,710.96 233.68,710.4 238.77,710.4 "
         id="polygon15902" /><polygon
         style="fill:#000000;stroke-width:0"
         points="238.77,708.94 233.68,708.94 233.68,708.39 238.77,708.39 "
         id="polygon15904" /><path
         style="fill:#000000;stroke-width:0"
         inkscape:connector-curvature="0"
         d="m 245.06,713.84 -1.79,-0.9 v -0.14 c 0.12,0.05 0.23,0.09 0.27,0.11 0.18,0.07 0.35,0.11 0.45,0.11 0.21,0 0.3,-0.15 0.3,-0.47 v -4.5 c 0,-0.33 -0.08,-0.56 -0.24,-0.65 -0.15,-0.09 -0.29,-0.12 -0.71,-0.13 v -0.15 h 2.75 v 0.15 c -0.79,0.01 -0.95,0.11 -0.95,0.59 v 5.96 z"
         id="path15906" /></g>    <path
       inkscape:connector-curvature="0"
       id="path15936"
       d="m 22.553712,864.51217 15.728247,-9.4963"
       style="fill:none;stroke:#000000;stroke-width:0.80000001;stroke-linecap:square;stroke-linejoin:round;stroke-miterlimit:4;stroke-opacity:1;stroke-dasharray:none;stroke-dashoffset:0" />
    <path
       style="fill:none;stroke:#000000;stroke-width:0.80000001;stroke-linecap:square;stroke-linejoin:round;stroke-miterlimit:4;stroke-opacity:1;stroke-dasharray:none;stroke-dashoffset:0"
       d="M 62.912987,864.51217 47.18474,855.01587"
       id="path15940"
       inkscape:connector-curvature="0" />
    <text
       sodipodi:linespacing="155%"
       id="text16029"
       y="795.36725"
       x="146.38258"
       style="font-size:12px;font-style:normal;font-variant:normal;font-weight:normal;font-stretch:normal;text-align:end;line-height:154.99999523%;letter-spacing:0px;word-spacing:0px;text-anchor:end;fill:#000000;fill-opacity:1;stroke:none;font-family:LMRoman12;-inkscape-font-specification:Sans"
       xml:space="preserve"><tspan
         y="795.36725"
         x="146.38258"
         id="tspan16031"
         sodipodi:role="line">0</tspan><tspan
         id="tspan16033"
         y="813.96722"
         x="146.38258"
         sodipodi:role="line">3</tspan><tspan
         id="tspan16035"
         y="832.56726"
         x="146.38258"
         sodipodi:role="line">7</tspan><tspan
         style="text-align:end;line-height:154.99999523%;letter-spacing:0px;text-anchor:end"
         id="tspan16037"
         y="851.16724"
         x="146.38258"
         sodipodi:role="line">10</tspan></text>
    <g
       style="font-style:normal;font-variant:normal;font-weight:normal;font-stretch:normal;letter-spacing:normal;word-spacing:normal;text-anchor:start;fill:none;stroke:#000000;stroke-width:1;stroke-linecap:butt;stroke-linejoin:miter;stroke-miterlimit:10.43299961;stroke-opacity:1;stroke-dasharray:none;stroke-dashoffset:0"
       ns0:preamble="/home/sriranga/Desktop/Prism_BasicElectronics/preamble.tex"
       ns0:text="$C=1$ "
       word-spacing="normal"
       letter-spacing="normal"
       font-size-adjust="none"
       font-stretch="normal"
       font-weight="normal"
       font-variant="normal"
       font-style="normal"
       stroke-miterlimit="10.433"
       xml:space="preserve"
       transform="matrix(1.2,0,0,-1.2,-161.80076,1724.2633)"
       id="g16041"><path
         id="path16043"
         d="m 229.67,711.74 0.37,1.98 h -0.21 c -0.08,-0.16 -0.18,-0.22 -0.38,-0.22 -0.08,0 -0.2,0.02 -0.41,0.07 -0.44,0.11 -0.84,0.17 -1.16,0.17 -2.12,0 -4.04,-2 -4.04,-4.2 0,-1.52 1.07,-2.59 2.6,-2.59 1.02,0 1.82,0.43 2.71,1.48 l -0.17,0.14 c -0.89,-0.88 -1.47,-1.18 -2.28,-1.18 -1.11,0 -1.75,0.76 -1.75,2.04 0,1.18 0.48,2.38 1.26,3.19 0.47,0.48 1.1,0.76 1.76,0.76 0.91,0 1.42,-0.53 1.52,-1.61 z"
         inkscape:connector-curvature="0"
         style="fill:#000000;stroke-width:0" /><polygon
         id="polygon16045"
         points="233.68,710.96 233.68,710.4 238.77,710.4 238.77,710.96 "
         style="fill:#000000;stroke-width:0" /><polygon
         id="polygon16047"
         points="233.68,708.94 233.68,708.39 238.77,708.39 238.77,708.94 "
         style="fill:#000000;stroke-width:0" /><path
         id="path16049"
         d="m 245.06,713.84 -1.79,-0.9 v -0.14 c 0.12,0.05 0.23,0.09 0.27,0.11 0.18,0.07 0.35,0.11 0.45,0.11 0.21,0 0.3,-0.15 0.3,-0.47 v -4.5 c 0,-0.33 -0.08,-0.56 -0.24,-0.65 -0.15,-0.09 -0.29,-0.12 -0.71,-0.13 v -0.15 h 2.75 v 0.15 c -0.79,0.01 -0.95,0.11 -0.95,0.59 v 5.96 z"
         inkscape:connector-curvature="0"
         style="fill:#000000;stroke-width:0" /></g>    <path
       style="fill:none;stroke:#000000;stroke-width:0.80000001;stroke-linecap:square;stroke-linejoin:round;stroke-miterlimit:4;stroke-opacity:1;stroke-dasharray:none;stroke-dashoffset:0"
       d="m 121.67135,864.51217 15.72825,-9.4963"
       id="path16051"
       inkscape:connector-curvature="0" />
    <path
       inkscape:connector-curvature="0"
       id="path16053"
       d="m 162.03063,864.51217 -15.72825,-9.4963"
       style="fill:none;stroke:#000000;stroke-width:0.80000001;stroke-linecap:square;stroke-linejoin:round;stroke-miterlimit:4;stroke-opacity:1;stroke-dasharray:none;stroke-dashoffset:0" />
    <text
       xml:space="preserve"
       style="font-size:12px;font-style:normal;font-variant:normal;font-weight:normal;font-stretch:normal;text-align:end;line-height:154.99999523%;letter-spacing:0px;word-spacing:0px;text-anchor:end;fill:#000000;fill-opacity:1;stroke:none;font-family:LMRoman12;-inkscape-font-specification:Sans"
       x="247.8743"
       y="795.36725"
       id="text16065"
       sodipodi:linespacing="155%"><tspan
         sodipodi:role="line"
         id="tspan16067"
         x="247.8743"
         y="795.36725">1</tspan><tspan
         sodipodi:role="line"
         x="247.8743"
         y="813.96722"
         id="tspan16069">4</tspan><tspan
         sodipodi:role="line"
         x="247.8743"
         y="832.56726"
         id="tspan16071">1</tspan><tspan
         sodipodi:role="line"
         x="247.8743"
         y="851.16724"
         id="tspan16073"
         style="text-align:end;line-height:154.99999523%;letter-spacing:0px;text-anchor:end">6</tspan></text>
    <path
       inkscape:connector-curvature="0"
       id="path16087"
       d="m 223.16306,864.51217 15.72825,-9.4963"
       style="fill:none;stroke:#000000;stroke-width:0.80000001;stroke-linecap:square;stroke-linejoin:round;stroke-miterlimit:4;stroke-opacity:1;stroke-dasharray:none;stroke-dashoffset:0" />
    <path
       style="fill:none;stroke:#000000;stroke-width:0.80000001;stroke-linecap:square;stroke-linejoin:round;stroke-miterlimit:4;stroke-opacity:1;stroke-dasharray:none;stroke-dashoffset:0"
       d="m 263.52234,864.51217 -15.72825,-9.4963"
       id="path16089"
       inkscape:connector-curvature="0" />
    <text
       sodipodi:linespacing="155%"
       id="text16101"
       y="795.36725"
       x="345.21143"
       style="font-size:12px;font-style:normal;font-variant:normal;font-weight:normal;font-stretch:normal;text-align:end;line-height:154.99999523%;letter-spacing:0px;word-spacing:0px;text-anchor:end;fill:#000000;fill-opacity:1;stroke:none;font-family:LMRoman12;-inkscape-font-specification:Sans"
       xml:space="preserve"><tspan
         y="795.36725"
         x="345.21143"
         id="tspan16103"
         sodipodi:role="line">1</tspan><tspan
         id="tspan16105"
         y="813.96722"
         x="345.21143"
         sodipodi:role="line">6</tspan><tspan
         id="tspan16107"
         y="832.56726"
         x="345.21143"
         sodipodi:role="line">1</tspan><tspan
         style="text-align:end;line-height:154.99999523%;letter-spacing:0px;text-anchor:end"
         id="tspan16109"
         y="851.16724"
         x="345.21143"
         sodipodi:role="line">8</tspan></text>
    <g
       style="font-style:normal;font-variant:normal;font-weight:normal;font-stretch:normal;letter-spacing:normal;word-spacing:normal;text-anchor:start;fill:none;stroke:#000000;stroke-width:1;stroke-linecap:butt;stroke-linejoin:miter;stroke-miterlimit:10.43299961;stroke-opacity:1;stroke-dasharray:none;stroke-dashoffset:0"
       ns0:preamble="/home/sriranga/Desktop/Prism_BasicElectronics/preamble.tex"
       ns0:text="$C=1$ "
       word-spacing="normal"
       letter-spacing="normal"
       font-size-adjust="none"
       font-stretch="normal"
       font-weight="normal"
       font-variant="normal"
       font-style="normal"
       stroke-miterlimit="10.433"
       xml:space="preserve"
       transform="matrix(1.2,0,0,-1.2,37.028009,1724.2633)"
       id="g16113"><path
         id="path16115"
         d="m 229.67,711.74 0.37,1.98 h -0.21 c -0.08,-0.16 -0.18,-0.22 -0.38,-0.22 -0.08,0 -0.2,0.02 -0.41,0.07 -0.44,0.11 -0.84,0.17 -1.16,0.17 -2.12,0 -4.04,-2 -4.04,-4.2 0,-1.52 1.07,-2.59 2.6,-2.59 1.02,0 1.82,0.43 2.71,1.48 l -0.17,0.14 c -0.89,-0.88 -1.47,-1.18 -2.28,-1.18 -1.11,0 -1.75,0.76 -1.75,2.04 0,1.18 0.48,2.38 1.26,3.19 0.47,0.48 1.1,0.76 1.76,0.76 0.91,0 1.42,-0.53 1.52,-1.61 z"
         inkscape:connector-curvature="0"
         style="fill:#000000;stroke-width:0" /><polygon
         id="polygon16117"
         points="238.77,710.4 238.77,710.96 233.68,710.96 233.68,710.4 "
         style="fill:#000000;stroke-width:0" /><polygon
         id="polygon16119"
         points="238.77,708.39 238.77,708.94 233.68,708.94 233.68,708.39 "
         style="fill:#000000;stroke-width:0" /><path
         id="path16121"
         d="m 245.06,713.84 -1.79,-0.9 v -0.14 c 0.12,0.05 0.23,0.09 0.27,0.11 0.18,0.07 0.35,0.11 0.45,0.11 0.21,0 0.3,-0.15 0.3,-0.47 v -4.5 c 0,-0.33 -0.08,-0.56 -0.24,-0.65 -0.15,-0.09 -0.29,-0.12 -0.71,-0.13 v -0.15 h 2.75 v 0.15 c -0.79,0.01 -0.95,0.11 -0.95,0.59 v 5.96 z"
         inkscape:connector-curvature="0"
         style="fill:#000000;stroke-width:0" /></g>    <path
       style="fill:none;stroke:#000000;stroke-width:0.80000001;stroke-linecap:square;stroke-linejoin:round;stroke-miterlimit:4;stroke-opacity:1;stroke-dasharray:none;stroke-dashoffset:0"
       d="m 320.50013,864.51217 15.72825,-9.4963"
       id="path16123"
       inkscape:connector-curvature="0" />
    <path
       inkscape:connector-curvature="0"
       id="path16125"
       d="m 360.85941,864.51217 -15.72825,-9.4963"
       style="fill:none;stroke:#000000;stroke-width:0.80000001;stroke-linecap:square;stroke-linejoin:round;stroke-miterlimit:4;stroke-opacity:1;stroke-dasharray:none;stroke-dashoffset:0" />
    <text
       xml:space="preserve"
       style="font-size:12px;font-style:normal;font-variant:normal;font-weight:normal;font-stretch:normal;text-align:end;line-height:154.99999523%;letter-spacing:0px;word-spacing:0px;text-anchor:end;fill:#000000;fill-opacity:1;stroke:none;font-family:LMRoman12;-inkscape-font-specification:Sans"
       x="446.10959"
       y="795.36725"
       id="text16137"
       sodipodi:linespacing="155%"><tspan
         sodipodi:role="line"
         id="tspan16139"
         x="446.10959"
         y="795.36725" /><tspan
         sodipodi:role="line"
         x="446.10959"
         y="813.96722"
         id="tspan16141">5</tspan><tspan
         sodipodi:role="line"
         x="446.10959"
         y="832.56726"
         id="tspan16143">4</tspan><tspan
         sodipodi:role="line"
         x="446.10959"
         y="851.16724"
         id="tspan16145"
         style="text-align:end;line-height:154.99999523%;letter-spacing:0px;text-anchor:end">9</tspan></text>
    <g
       id="g16149"
       transform="matrix(1.2,0,0,-1.2,137.92619,1724.2633)"
       xml:space="preserve"
       stroke-miterlimit="10.433"
       font-style="normal"
       font-variant="normal"
       font-weight="normal"
       font-stretch="normal"
       font-size-adjust="none"
       letter-spacing="normal"
       word-spacing="normal"
       ns0:text="$C=1$ "
       ns0:preamble="/home/sriranga/Desktop/Prism_BasicElectronics/preamble.tex"
       style="font-style:normal;font-variant:normal;font-weight:normal;font-stretch:normal;letter-spacing:normal;word-spacing:normal;text-anchor:start;fill:none;stroke:#000000;stroke-width:1;stroke-linecap:butt;stroke-linejoin:miter;stroke-miterlimit:10.43299961;stroke-opacity:1;stroke-dasharray:none;stroke-dashoffset:0"><path
         style="fill:#000000;stroke-width:0"
         inkscape:connector-curvature="0"
         d="m 229.67,711.74 0.37,1.98 h -0.21 c -0.08,-0.16 -0.18,-0.22 -0.38,-0.22 -0.08,0 -0.2,0.02 -0.41,0.07 -0.44,0.11 -0.84,0.17 -1.16,0.17 -2.12,0 -4.04,-2 -4.04,-4.2 0,-1.52 1.07,-2.59 2.6,-2.59 1.02,0 1.82,0.43 2.71,1.48 l -0.17,0.14 c -0.89,-0.88 -1.47,-1.18 -2.28,-1.18 -1.11,0 -1.75,0.76 -1.75,2.04 0,1.18 0.48,2.38 1.26,3.19 0.47,0.48 1.1,0.76 1.76,0.76 0.91,0 1.42,-0.53 1.52,-1.61 z"
         id="path16151" /><polygon
         style="fill:#000000;stroke-width:0"
         points="238.77,710.96 233.68,710.96 233.68,710.4 238.77,710.4 "
         id="polygon16153" /><polygon
         style="fill:#000000;stroke-width:0"
         points="238.77,708.94 233.68,708.94 233.68,708.39 238.77,708.39 "
         id="polygon16155" /><path
         style="fill:#000000;stroke-width:0"
         inkscape:connector-curvature="0"
         d="m 245.06,713.84 -1.79,-0.9 v -0.14 c 0.12,0.05 0.23,0.09 0.27,0.11 0.18,0.07 0.35,0.11 0.45,0.11 0.21,0 0.3,-0.15 0.3,-0.47 v -4.5 c 0,-0.33 -0.08,-0.56 -0.24,-0.65 -0.15,-0.09 -0.29,-0.12 -0.71,-0.13 v -0.15 h 2.75 v 0.15 c -0.79,0.01 -0.95,0.11 -0.95,0.59 v 5.96 z"
         id="path16157" /></g>    <path
       inkscape:connector-curvature="0"
       id="path16159"
       d="m 421.39831,864.51217 15.72825,-9.4963"
       style="fill:none;stroke:#000000;stroke-width:0.80000001;stroke-linecap:square;stroke-linejoin:round;stroke-miterlimit:4;stroke-opacity:1;stroke-dasharray:none;stroke-dashoffset:0" />
    <path
       style="fill:none;stroke:#000000;stroke-width:0.80000001;stroke-linecap:square;stroke-linejoin:round;stroke-miterlimit:4;stroke-opacity:1;stroke-dasharray:none;stroke-dashoffset:0"
       d="m 461.75759,864.51217 -15.72825,-9.4963"
       id="path16161"
       inkscape:connector-curvature="0" />
    <path
       sodipodi:nodetypes="ccc"
       inkscape:connector-curvature="0"
       id="path16173"
       d="m 150.22687,785.96735 c 3.20969,-2.13092 8.98978,-6.66331 13.65093,-6.25417 29.19279,-1.79967 -1.34628,92.07012 40.35928,91.90187"
       style="fill:none;stroke:#000000;stroke-width:0.80000001;stroke-linecap:square;stroke-linejoin:round;stroke-miterlimit:4;stroke-opacity:1;stroke-dasharray:none;stroke-dashoffset:0;marker-start:url(#Arrow1Mstart-7)" />
    <path
       style="fill:none;stroke:#000000;stroke-width:0.80000001;stroke-linecap:square;stroke-linejoin:round;stroke-miterlimit:4;stroke-opacity:1;stroke-dasharray:none;stroke-dashoffset:0;marker-start:url(#Arrow1Mstart-7)"
       d="m 249.27162,785.96735 c 3.20969,-2.13092 8.98978,-6.66331 13.65093,-6.25417 29.19279,-1.79967 -1.34628,92.07012 40.35928,91.90187"
       id="path16175"
       inkscape:connector-curvature="0"
       sodipodi:nodetypes="ccc" />
    <path
       sodipodi:nodetypes="ccc"
       inkscape:connector-curvature="0"
       id="path16177"
       d="m 348.31637,785.96735 c 3.20969,-2.13092 8.98978,-6.66331 13.65093,-6.25417 29.19279,-1.79967 -1.34628,92.07012 40.35928,91.90187"
       style="fill:none;stroke:#000000;stroke-width:0.80000001;stroke-linecap:square;stroke-linejoin:round;stroke-miterlimit:4;stroke-opacity:1;stroke-dasharray:none;stroke-dashoffset:0;marker-start:url(#Arrow1Mstart-7)" />
    <g
       id="g16282"
       transform="matrix(1.2,0,0,-1.2,-219.07532,1724.2633)"
       xml:space="preserve"
       stroke="black"
       stroke-linecap="butt"
       stroke-linejoin="miter"
       stroke-miterlimit="10.433"
       stroke-dasharray="none"
       stroke-dashoffset="0"
       stroke-opacity="1"
       fill="none"
       fill-rule="evenodd"
       fill-opacity="1"
       font-style="normal"
       font-variant="normal"
       font-weight="normal"
       font-stretch="normal"
       font-size-adjust="none"
       letter-spacing="normal"
       word-spacing="normal"
       text-anchor="start"
       ns0:text="$S=2$ "
       ns0:preamble="/home/sriranga/Desktop/Prism_BasicElectronics/preamble.tex"
       style="font-style:normal;font-variant:normal;font-weight:normal;font-stretch:normal;letter-spacing:normal;word-spacing:normal;text-anchor:start;fill:none;stroke:#000000;stroke-width:1;stroke-linecap:butt;stroke-linejoin:miter;stroke-miterlimit:10.43299961;stroke-opacity:1;stroke-dasharray:none;stroke-dashoffset:0"><path
         d="M228.09,711.77 L228.49,713.75 H228.26 C228.12,713.54,228.03,713.49,227.81,713.49 C227.69,713.49,227.58,713.52,227.35,713.6 C227.13,713.69,226.82,713.74,226.51,713.74 C225.47,713.74,224.74,713.05,224.74,712.08 C224.74,711.55,224.88,711.26,225.48,710.62 C225.57,710.53,225.7,710.39,225.87,710.2 C226.05,710.02,226.19,709.87,226.26,709.79 C226.73,709.3,226.85,709.04,226.85,708.61 C226.85,707.87,226.3,707.29,225.57,707.29 C224.74,707.29,224.12,708,224.12,708.94 C224.12,709.02,224.13,709.1,224.14,709.17 L223.94,709.19 L223.6,706.98 H223.78 C223.85,707.2,223.96,707.3,224.16,707.3 C224.27,707.3,224.42,707.26,224.68,707.17 C225.13,707.01,225.4,706.95,225.71,706.95 C226.85,706.95,227.72,707.81,227.72,708.93 C227.72,709.58,227.49,709.97,226.6,710.87 C225.7,711.77,225.61,711.91,225.61,712.4 C225.61,713.03,226.03,713.41,226.71,713.41 C227.07,713.41,227.38,713.28,227.59,713.05 C227.81,712.8,227.89,712.46,227.91,711.8 Z "
         stroke-width="0"
         fill="black"
         id="path16284" /><polygon
         points="238.47,710.4 238.47,710.96 233.37,710.96 233.37,710.4 "
         stroke-width="0"
         fill="black"
         id="polygon16286" /><polygon
         points="238.47,708.39 238.47,708.94 233.37,708.94 233.37,708.39 "
         stroke-width="0"
         fill="black"
         id="polygon16288" /><path
         d="M246.58,708.49 L246.46,708.54 C246.09,707.97,245.96,707.88,245.51,707.88 H243.13 L244.8,709.63 C245.69,710.55,246.08,711.31,246.08,712.08 C246.08,713.08,245.27,713.84,244.24,713.84 C243.69,713.84,243.17,713.62,242.8,713.22 C242.49,712.89,242.34,712.57,242.17,711.86 L242.38,711.81 C242.77,712.79,243.13,713.1,243.82,713.1 C244.65,713.1,245.22,712.54,245.22,711.71 C245.22,710.93,244.76,710.01,243.93,709.12 L242.16,707.24 V707.12 H246.04 Z "
         stroke-width="0"
         fill="black"
         id="path16290" /></g>    <g
       style="font-style:normal;font-variant:normal;font-weight:normal;font-stretch:normal;letter-spacing:normal;word-spacing:normal;text-anchor:start;fill:none;stroke:#000000;stroke-width:1;stroke-linecap:butt;stroke-linejoin:miter;stroke-miterlimit:10.43299961;stroke-opacity:1;stroke-dasharray:none;stroke-dashoffset:0"
       ns0:preamble="/home/sriranga/Desktop/Prism_BasicElectronics/preamble.tex"
       ns0:text="$S=2$ "
       text-anchor="start"
       word-spacing="normal"
       letter-spacing="normal"
       font-size-adjust="none"
       font-stretch="normal"
       font-weight="normal"
       font-variant="normal"
       font-style="normal"
       fill-opacity="1"
       fill-rule="evenodd"
       fill="none"
       stroke-opacity="1"
       stroke-dashoffset="0"
       stroke-dasharray="none"
       stroke-miterlimit="10.433"
       stroke-linejoin="miter"
       stroke-linecap="butt"
       stroke="black"
       xml:space="preserve"
       transform="matrix(1.2,0,0,-1.2,-119.95768,1724.2633)"
       id="g16501"><path
         id="path16503"
         fill="black"
         stroke-width="0"
         d="M228.09,711.77 L228.49,713.75 H228.26 C228.12,713.54,228.03,713.49,227.81,713.49 C227.69,713.49,227.58,713.52,227.35,713.6 C227.13,713.69,226.82,713.74,226.51,713.74 C225.47,713.74,224.74,713.05,224.74,712.08 C224.74,711.55,224.88,711.26,225.48,710.62 C225.57,710.53,225.7,710.39,225.87,710.2 C226.05,710.02,226.19,709.87,226.26,709.79 C226.73,709.3,226.85,709.04,226.85,708.61 C226.85,707.87,226.3,707.29,225.57,707.29 C224.74,707.29,224.12,708,224.12,708.94 C224.12,709.02,224.13,709.1,224.14,709.17 L223.94,709.19 L223.6,706.98 H223.78 C223.85,707.2,223.96,707.3,224.16,707.3 C224.27,707.3,224.42,707.26,224.68,707.17 C225.13,707.01,225.4,706.95,225.71,706.95 C226.85,706.95,227.72,707.81,227.72,708.93 C227.72,709.58,227.49,709.97,226.6,710.87 C225.7,711.77,225.61,711.91,225.61,712.4 C225.61,713.03,226.03,713.41,226.71,713.41 C227.07,713.41,227.38,713.28,227.59,713.05 C227.81,712.8,227.89,712.46,227.91,711.8 Z " /><polygon
         id="polygon16505"
         fill="black"
         stroke-width="0"
         points="238.47,710.4 238.47,710.96 233.37,710.96 233.37,710.4 " /><polygon
         id="polygon16507"
         fill="black"
         stroke-width="0"
         points="238.47,708.39 238.47,708.94 233.37,708.94 233.37,708.39 " /><path
         id="path16509"
         fill="black"
         stroke-width="0"
         d="M246.58,708.49 L246.46,708.54 C246.09,707.97,245.96,707.88,245.51,707.88 H243.13 L244.8,709.63 C245.69,710.55,246.08,711.31,246.08,712.08 C246.08,713.08,245.27,713.84,244.24,713.84 C243.69,713.84,243.17,713.62,242.8,713.22 C242.49,712.89,242.34,712.57,242.17,711.86 L242.38,711.81 C242.77,712.79,243.13,713.1,243.82,713.1 C244.65,713.1,245.22,712.54,245.22,711.71 C245.22,710.93,244.76,710.01,243.93,709.12 L242.16,707.24 V707.12 H246.04 Z " /></g>    <g
       id="g16720"
       transform="matrix(1.2,0,0,-1.2,-60.309064,1724.2633)"
       xml:space="preserve"
       stroke="black"
       stroke-linecap="butt"
       stroke-linejoin="miter"
       stroke-miterlimit="10.433"
       stroke-dasharray="none"
       stroke-dashoffset="0"
       stroke-opacity="1"
       fill="none"
       fill-rule="evenodd"
       fill-opacity="1"
       font-style="normal"
       font-variant="normal"
       font-weight="normal"
       font-stretch="normal"
       font-size-adjust="none"
       letter-spacing="normal"
       word-spacing="normal"
       text-anchor="start"
       ns0:text="$C=0$ "
       ns0:preamble="/home/sriranga/Desktop/Prism_BasicElectronics/preamble.tex"
       style="font-style:normal;font-variant:normal;font-weight:normal;font-stretch:normal;letter-spacing:normal;word-spacing:normal;text-anchor:start;fill:none;stroke:#000000;stroke-width:1;stroke-linecap:butt;stroke-linejoin:miter;stroke-miterlimit:10.43299961;stroke-opacity:1;stroke-dasharray:none;stroke-dashoffset:0"><path
         d="M229.67,711.74 L230.04,713.72 H229.83 C229.75,713.56,229.65,713.5,229.45,713.5 C229.37,713.5,229.25,713.52,229.04,713.57 C228.6,713.68,228.2,713.74,227.88,713.74 C225.76,713.74,223.84,711.74,223.84,709.54 C223.84,708.02,224.91,706.95,226.44,706.95 C227.46,706.95,228.26,707.38,229.15,708.43 L228.98,708.57 C228.09,707.69,227.51,707.39,226.7,707.39 C225.59,707.39,224.95,708.15,224.95,709.43 C224.95,710.61,225.43,711.81,226.21,712.62 C226.68,713.1,227.31,713.38,227.97,713.38 C228.88,713.38,229.39,712.85,229.49,711.77 Z "
         stroke-width="0"
         fill="black"
         id="path16722" /><polygon
         points="238.77,710.4 238.77,710.96 233.68,710.96 233.68,710.4 "
         stroke-width="0"
         fill="black"
         id="polygon16724" /><polygon
         points="238.77,708.39 238.77,708.94 233.68,708.94 233.68,708.39 "
         stroke-width="0"
         fill="black"
         id="polygon16726" /><path
         d="M244.69,713.84 L244.64,713.84 L244.59,713.84 L244.54,713.84 L244.49,713.83 L244.45,713.83 L244.4,713.82 L244.35,713.82 L244.31,713.81 L244.26,713.8 L244.22,713.79 L244.17,713.78 L244.13,713.77 L244.09,713.76 L244.04,713.74 L244,713.73 L243.96,713.71 L243.92,713.7 L243.88,713.68 L243.84,713.66 L243.8,713.64 L243.76,713.62 L243.72,713.6 L243.69,713.57 L243.65,713.55 L243.61,713.53 L243.57,713.5 L243.54,713.47 L243.5,713.45 L243.47,713.42 L243.43,713.39 L243.4,713.36 L243.36,713.32 C242.78,712.77,242.41,711.62,242.41,710.46 C242.41,709.38,242.73,708.22,243.2,707.66 C243.57,707.22,244.08,706.99,244.65,706.99 V707.24 C243.8,707.24,243.36,708.31,243.36,710.37 C243.36,712.48,243.81,713.58,244.66,713.58 H244.66 C245.5,713.58,245.95,712.46,245.95,710.38 C245.95,708.31,245.51,707.24,244.65,707.24 V706.99 C245.16,706.99,245.59,707.16,245.95,707.5 C246.52,708.05,246.9,709.2,246.9,710.4 C246.9,712.44,246,713.84,244.69,713.84 Z "
         stroke-width="0"
         fill="black"
         id="path16728" /></g>    <g
       style="font-style:normal;font-variant:normal;font-weight:normal;font-stretch:normal;letter-spacing:normal;word-spacing:normal;text-anchor:start;fill:none;stroke:#000000;stroke-width:1;stroke-linecap:butt;stroke-linejoin:miter;stroke-miterlimit:10.43299961;stroke-opacity:1;stroke-dasharray:none;stroke-dashoffset:0"
       ns0:preamble="/home/sriranga/Desktop/Prism_BasicElectronics/preamble.tex"
       ns0:text="$S=6$ "
       text-anchor="start"
       word-spacing="normal"
       letter-spacing="normal"
       font-size-adjust="none"
       font-stretch="normal"
       font-weight="normal"
       font-variant="normal"
       font-style="normal"
       fill-opacity="1"
       fill-rule="evenodd"
       fill="none"
       stroke-opacity="1"
       stroke-dashoffset="0"
       stroke-dasharray="none"
       stroke-miterlimit="10.433"
       stroke-linejoin="miter"
       stroke-linecap="butt"
       stroke="black"
       xml:space="preserve"
       transform="matrix(1.2,0,0,-1.2,-18.465984,1724.2633)"
       id="g16939"><path
         id="path16941"
         fill="black"
         stroke-width="0"
         d="M228.09,711.77 L228.49,713.75 H228.26 C228.12,713.54,228.03,713.49,227.81,713.49 C227.69,713.49,227.58,713.52,227.35,713.6 C227.13,713.69,226.82,713.74,226.51,713.74 C225.47,713.74,224.74,713.05,224.74,712.08 C224.74,711.55,224.88,711.26,225.48,710.62 C225.57,710.53,225.7,710.39,225.87,710.2 C226.05,710.02,226.19,709.87,226.26,709.79 C226.73,709.3,226.85,709.04,226.85,708.61 C226.85,707.87,226.3,707.29,225.57,707.29 C224.74,707.29,224.12,708,224.12,708.94 C224.12,709.02,224.13,709.1,224.14,709.17 L223.94,709.19 L223.6,706.98 H223.78 C223.85,707.2,223.96,707.3,224.16,707.3 C224.27,707.3,224.42,707.26,224.68,707.17 C225.13,707.01,225.4,706.95,225.71,706.95 C226.85,706.95,227.72,707.81,227.72,708.93 C227.72,709.58,227.49,709.97,226.6,710.87 C225.7,711.77,225.61,711.91,225.61,712.4 C225.61,713.03,226.03,713.41,226.71,713.41 C227.07,713.41,227.38,713.28,227.59,713.05 C227.81,712.8,227.89,712.46,227.91,711.8 Z " /><polygon
         id="polygon16943"
         fill="black"
         stroke-width="0"
         points="238.47,710.4 238.47,710.96 233.37,710.96 233.37,710.4 " /><polygon
         id="polygon16945"
         fill="black"
         stroke-width="0"
         points="238.47,708.39 238.47,708.94 233.37,708.94 233.37,708.39 " /><path
         id="path16947"
         fill="black"
         stroke-width="0"
         d="M246.29,713.92 L246.19,713.91 L246.09,713.9 L245.99,713.89 L245.89,713.88 L245.8,713.87 L245.71,713.85 L245.62,713.84 L245.54,713.82 L245.45,713.81 L245.37,713.79 L245.29,713.78 L245.22,713.76 L245.14,713.74 L245.07,713.72 L244.92,713.68 L244.78,713.63 L244.65,713.57 L244.52,713.51 L244.39,713.45 L244.26,713.38 L244.12,713.3 L243.99,713.22 L243.93,713.17 L243.86,713.12 C242.78,712.36,242.2,711.23,242.2,709.9 C242.2,709.03,242.46,708.16,242.89,707.66 C243.27,707.22,243.81,706.99,244.43,706.99 C245.66,706.99,246.51,707.93,246.51,709.3 C246.51,710.57,245.79,711.38,244.64,711.38 C244.21,711.38,244,711.31,243.37,710.93 L243.4,710.67 C243.61,710.83,243.92,710.92,244.27,710.92 H244.27 C245.12,710.92,245.62,710.2,245.62,708.96 C245.62,707.87,245.23,707.26,244.53,707.26 C243.66,707.26,243.12,708.2,243.12,709.74 C243.12,710.24,243.2,710.52,243.4,710.67 L243.37,710.93 C243.64,712.43,244.75,713.5,246.32,713.76 Z " /></g>    <g
       id="g17158"
       transform="matrix(1.2,0,0,-1.2,78.871089,1724.2633)"
       xml:space="preserve"
       stroke="black"
       stroke-linecap="butt"
       stroke-linejoin="miter"
       stroke-miterlimit="10.433"
       stroke-dasharray="none"
       stroke-dashoffset="0"
       stroke-opacity="1"
       fill="none"
       fill-rule="evenodd"
       fill-opacity="1"
       font-style="normal"
       font-variant="normal"
       font-weight="normal"
       font-stretch="normal"
       font-size-adjust="none"
       letter-spacing="normal"
       word-spacing="normal"
       text-anchor="start"
       ns0:text="$S=0$ "
       ns0:preamble="/home/sriranga/Desktop/Prism_BasicElectronics/preamble.tex"
       style="font-style:normal;font-variant:normal;font-weight:normal;font-stretch:normal;letter-spacing:normal;word-spacing:normal;text-anchor:start;fill:none;stroke:#000000;stroke-width:1;stroke-linecap:butt;stroke-linejoin:miter;stroke-miterlimit:10.43299961;stroke-opacity:1;stroke-dasharray:none;stroke-dashoffset:0"><path
         d="M228.09,711.77 L228.49,713.75 H228.26 C228.12,713.54,228.03,713.49,227.81,713.49 C227.69,713.49,227.58,713.52,227.35,713.6 C227.13,713.69,226.82,713.74,226.51,713.74 C225.47,713.74,224.74,713.05,224.74,712.08 C224.74,711.55,224.88,711.26,225.48,710.62 C225.57,710.53,225.7,710.39,225.87,710.2 C226.05,710.02,226.19,709.87,226.26,709.79 C226.73,709.3,226.85,709.04,226.85,708.61 C226.85,707.87,226.3,707.29,225.57,707.29 C224.74,707.29,224.12,708,224.12,708.94 C224.12,709.02,224.13,709.1,224.14,709.17 L223.94,709.19 L223.6,706.98 H223.78 C223.85,707.2,223.96,707.3,224.16,707.3 C224.27,707.3,224.42,707.26,224.68,707.17 C225.13,707.01,225.4,706.95,225.71,706.95 C226.85,706.95,227.72,707.81,227.72,708.93 C227.72,709.58,227.49,709.97,226.6,710.87 C225.7,711.77,225.61,711.91,225.61,712.4 C225.61,713.03,226.03,713.41,226.71,713.41 C227.07,713.41,227.38,713.28,227.59,713.05 C227.81,712.8,227.89,712.46,227.91,711.8 Z "
         stroke-width="0"
         fill="black"
         id="path17160" /><polygon
         points="238.47,710.4 238.47,710.96 233.37,710.96 233.37,710.4 "
         stroke-width="0"
         fill="black"
         id="polygon17162" /><polygon
         points="238.47,708.39 238.47,708.94 233.37,708.94 233.37,708.39 "
         stroke-width="0"
         fill="black"
         id="polygon17164" /><path
         d="M244.38,713.84 L244.33,713.84 L244.28,713.84 L244.23,713.84 L244.19,713.83 L244.14,713.83 L244.09,713.82 L244.04,713.82 L244,713.81 L243.95,713.8 L243.91,713.79 L243.86,713.78 L243.82,713.77 L243.78,713.76 L243.73,713.74 L243.69,713.73 L243.65,713.71 L243.61,713.7 L243.57,713.68 L243.53,713.66 L243.49,713.64 L243.45,713.62 L243.41,713.6 L243.38,713.57 L243.34,713.55 L243.3,713.53 L243.26,713.5 L243.23,713.47 L243.19,713.45 L243.16,713.42 L243.12,713.39 L243.09,713.36 L243.05,713.32 C242.48,712.77,242.1,711.62,242.1,710.46 C242.1,709.38,242.43,708.22,242.89,707.66 C243.26,707.22,243.77,706.99,244.35,706.99 V707.24 C243.49,707.24,243.05,708.31,243.05,710.37 C243.05,712.48,243.5,713.58,244.35,713.58 H244.35 C245.19,713.58,245.64,712.46,245.64,710.38 C245.64,708.31,245.2,707.24,244.35,707.24 V706.99 C244.85,706.99,245.28,707.16,245.64,707.5 C246.22,708.05,246.59,709.2,246.59,710.4 C246.59,712.44,245.69,713.84,244.38,713.84 Z "
         stroke-width="0"
         fill="black"
         id="path17166" /></g>    <g
       style="font-style:normal;font-variant:normal;font-weight:normal;font-stretch:normal;letter-spacing:normal;word-spacing:normal;text-anchor:start;fill:none;stroke:#000000;stroke-width:1;stroke-linecap:butt;stroke-linejoin:miter;stroke-miterlimit:10.43299961;stroke-opacity:1;stroke-dasharray:none;stroke-dashoffset:0"
       ns0:preamble="/home/sriranga/Desktop/Prism_BasicElectronics/preamble.tex"
       ns0:text="$S=1$ "
       text-anchor="start"
       word-spacing="normal"
       letter-spacing="normal"
       font-size-adjust="none"
       font-stretch="normal"
       font-weight="normal"
       font-variant="normal"
       font-style="normal"
       fill-opacity="1"
       fill-rule="evenodd"
       fill="none"
       stroke-opacity="1"
       stroke-dashoffset="0"
       stroke-dasharray="none"
       stroke-miterlimit="10.433"
       stroke-linejoin="miter"
       stroke-linecap="butt"
       stroke="black"
       xml:space="preserve"
       transform="matrix(1.2,0,0,-1.2,179.76928,1724.2633)"
       id="g17377"><path
         id="path17379"
         fill="black"
         stroke-width="0"
         d="M228.09,711.77 L228.49,713.75 H228.26 C228.12,713.54,228.03,713.49,227.81,713.49 C227.69,713.49,227.58,713.52,227.35,713.6 C227.13,713.69,226.82,713.74,226.51,713.74 C225.47,713.74,224.74,713.05,224.74,712.08 C224.74,711.55,224.88,711.26,225.48,710.62 C225.57,710.53,225.7,710.39,225.87,710.2 C226.05,710.02,226.19,709.87,226.26,709.79 C226.73,709.3,226.85,709.04,226.85,708.61 C226.85,707.87,226.3,707.29,225.57,707.29 C224.74,707.29,224.12,708,224.12,708.94 C224.12,709.02,224.13,709.1,224.14,709.17 L223.94,709.19 L223.6,706.98 H223.78 C223.85,707.2,223.96,707.3,224.16,707.3 C224.27,707.3,224.42,707.26,224.68,707.17 C225.13,707.01,225.4,706.95,225.71,706.95 C226.85,706.95,227.72,707.81,227.72,708.93 C227.72,709.58,227.49,709.97,226.6,710.87 C225.7,711.77,225.61,711.91,225.61,712.4 C225.61,713.03,226.03,713.41,226.71,713.41 C227.07,713.41,227.38,713.28,227.59,713.05 C227.81,712.8,227.89,712.46,227.91,711.8 Z " /><polygon
         id="polygon17381"
         fill="black"
         stroke-width="0"
         points="238.47,710.4 238.47,710.96 233.37,710.96 233.37,710.4 " /><polygon
         id="polygon17383"
         fill="black"
         stroke-width="0"
         points="238.47,708.39 238.47,708.94 233.37,708.94 233.37,708.39 " /><path
         id="path17385"
         fill="black"
         stroke-width="0"
         d="M244.75,713.84 L242.96,712.94 V712.8 C243.08,712.85,243.19,712.89,243.23,712.91 C243.41,712.98,243.58,713.02,243.68,713.02 C243.89,713.02,243.98,712.87,243.98,712.55 V708.05 C243.98,707.72,243.9,707.49,243.74,707.4 C243.59,707.31,243.45,707.28,243.03,707.27 V707.12 H245.78 V707.27 C244.99,707.28,244.83,707.38,244.83,707.86 V713.82 Z " /></g>    <text
       xml:space="preserve"
       style="font-size:12px;font-style:normal;font-variant:normal;font-weight:normal;font-stretch:normal;text-align:start;line-height:150%;letter-spacing:0px;word-spacing:0px;text-anchor:start;fill:#000000;fill-opacity:1;stroke:none;font-family:LMRoman12;-inkscape-font-specification:Sans"
       x="22.217642"
       y="831.42419"
       id="text17493"
       sodipodi:linespacing="150%"><tspan
         sodipodi:role="line"
         id="tspan17495"
         x="22.217642"
         y="831.42419">+</tspan></text>
    <g
       id="g17617"
       transform="matrix(1.2,0,0,-1.2,-248.75126,1752.1586)"
       xml:space="preserve"
       stroke-miterlimit="10.433"
       font-style="normal"
       font-variant="normal"
       font-weight="normal"
       font-stretch="normal"
       font-size-adjust="none"
       letter-spacing="normal"
       word-spacing="normal"
       ns0:text="$\\therefore~$ Answer ~ $= (1226.01)_8$"
       ns0:preamble="/home/sriranga/Desktop/Prism_BasicElectronics/preamble.tex"
       style="font-style:normal;font-variant:normal;font-weight:normal;font-stretch:normal;letter-spacing:normal;word-spacing:normal;text-anchor:start;fill:none;stroke:#000000;stroke-width:1;stroke-linecap:butt;stroke-linejoin:miter;stroke-miterlimit:10.43299961;stroke-opacity:1;stroke-dasharray:none;stroke-dashoffset:0"><path
         style="fill:#000000;stroke-width:0"
         inkscape:connector-curvature="0"
         d="m 227.27,711.21 0,0.02 0,0.03 0,0.03 -0.01,0.02 0,0.03 -0.01,0.02 -0.01,0.03 -0.01,0.02 -0.01,0.02 -0.01,0.03 -0.01,0.02 -0.02,0.02 -0.01,0.02 -0.02,0.02 -0.02,0.02 -0.01,0.02 -0.02,0.02 -0.02,0.01 -0.02,0.02 -0.02,0.01 -0.02,0.02 -0.02,0.01 -0.03,0.01 -0.02,0.01 -0.02,0.01 -0.03,0.01 -0.02,0.01 -0.03,0 -0.03,0.01 -0.02,0 -0.03,0 -0.03,0 c -0.28,0 -0.52,-0.23 -0.52,-0.52 0,-0.29 0.24,-0.53 0.52,-0.53 0.28,0 0.53,0.23 0.53,0.53 z"
         id="path17619" /><path
         style="fill:#000000;stroke-width:0"
         inkscape:connector-curvature="0"
         d="m 229.76,706.91 0,0.02 0,0.03 -0.01,0.03 0,0.02 -0.01,0.03 0,0.02 -0.01,0.03 -0.01,0.02 -0.01,0.02 -0.01,0.03 -0.02,0.02 -0.01,0.02 -0.02,0.02 -0.01,0.02 -0.02,0.02 -0.02,0.02 -0.01,0.02 -0.02,0.01 -0.02,0.02 -0.02,0.01 -0.03,0.02 -0.02,0.01 -0.02,0.01 -0.02,0.01 -0.03,0.01 -0.02,0.01 -0.03,0.01 -0.02,0 -0.03,0.01 -0.02,0 -0.03,0 -0.03,0 c -0.29,0 -0.52,-0.24 -0.52,-0.52 0,-0.29 0.23,-0.53 0.52,-0.53 0.29,0 0.53,0.24 0.53,0.53 z"
         id="path17621" /><path
         style="fill:#000000;stroke-width:0"
         inkscape:connector-curvature="0"
         d="m 224.79,706.91 -0.01,0.02 0,0.03 0,0.03 -0.01,0.02 0,0.03 -0.01,0.02 -0.01,0.03 -0.01,0.02 -0.01,0.02 -0.01,0.03 -0.01,0.02 -0.02,0.02 -0.01,0.02 -0.02,0.02 -0.01,0.02 -0.02,0.02 -0.02,0.02 -0.02,0.01 -0.02,0.02 -0.02,0.01 -0.02,0.02 -0.02,0.01 -0.02,0.01 -0.03,0.01 -0.02,0.01 -0.03,0.01 -0.02,0.01 -0.03,0 -0.02,0.01 -0.03,0 -0.03,0 -0.02,0 c -0.29,0 -0.53,-0.24 -0.53,-0.52 0,-0.29 0.24,-0.53 0.53,-0.53 0.29,0 0.53,0.24 0.53,0.53 z"
         id="path17623" /><path
         style="fill:#000000;stroke-width:0"
         inkscape:connector-curvature="0"
         d="m 244.85,707.31 -0.04,0.01 -0.04,0 -0.04,0 -0.04,0.01 -0.03,0.01 -0.03,0 -0.03,0.01 -0.03,0.01 -0.03,0.01 -0.03,0.01 -0.03,0.01 -0.02,0.02 -0.03,0.01 -0.02,0.02 -0.02,0.02 -0.03,0.02 -0.02,0.03 -0.02,0.02 -0.03,0.03 -0.02,0.03 -0.02,0.03 -0.03,0.04 -0.02,0.04 -0.02,0.04 -0.03,0.04 -0.02,0.05 -0.03,0.05 -0.03,0.05 -0.03,0.06 -0.03,0.06 -0.01,0.03 -0.02,0.03 -0.01,0.03 -0.02,0.04 -2.48,5.64 h -0.2 l -2.06,-4.88 c -0.64,-1.45 -0.76,-1.61 -1.24,-1.63 v -0.19 h 1.97 v 0.19 c -0.48,0 -0.67,0.13 -0.67,0.41 0,0.12 0.02,0.26 0.08,0.39 l 0.45,1.16 h 2.61 l -0.14,0.41 h -2.3 l 1.15,2.73 1.15,-2.73 0.14,-0.41 0.41,-0.95 c 0.12,-0.27 0.19,-0.53 0.19,-0.67 0,-0.25 -0.17,-0.33 -0.7,-0.34 v -0.19 h 2.54 z"
         id="path17625" /><path
         style="fill:#000000;stroke-width:0"
         inkscape:connector-curvature="0"
         d="m 245.18,711.08 0,0 0.01,0 0,0.01 0.01,0 0.01,0 0,0 0.01,0.01 0.01,0 0,0 0.01,0 0.02,0 0.01,0.01 0.02,0 0.02,0 0.02,0 0.01,0 0.02,0.01 0.02,0 0.02,0 0.02,0 0.02,0 c 0.28,0 0.37,-0.15 0.37,-0.64 v -2.46 c 0,-0.57 -0.11,-0.71 -0.61,-0.75 v -0.15 h 2.1 v 0.15 c -0.5,0.04 -0.65,0.16 -0.65,0.52 v 2.79 c 0.47,0.45 0.69,0.57 1.02,0.57 0.49,0 0.73,-0.31 0.73,-0.97 v -2.07 c 0,-0.63 -0.13,-0.8 -0.63,-0.84 v -0.15 h 2.07 v 0.15 c -0.49,0.05 -0.61,0.17 -0.61,0.66 v 2.27 c 0,0.94 -0.43,1.5 -1.17,1.5 -0.46,0 -0.77,-0.17 -1.44,-0.81 v 0.78 l -0.07,0.03 c -0.49,-0.18 -0.83,-0.29 -1.37,-0.45 z"
         id="path17627" /><path
         style="fill:#000000;stroke-width:0"
         inkscape:connector-curvature="0"
         d="m 253.13,710.24 -0.04,1.35 h -0.11 l -0.02,-0.01 c -0.09,-0.07 -0.1,-0.08 -0.14,-0.08 -0.06,0 -0.16,0.02 -0.27,0.07 -0.21,0.08 -0.43,0.11 -0.69,0.11 -0.79,0 -1.35,-0.5 -1.35,-1.22 0,-0.55 0.31,-0.95 1.16,-1.43 l 0.58,-0.33 c 0.34,-0.19 0.51,-0.43 0.51,-0.74 0,-0.44 -0.31,-0.72 -0.82,-0.72 -0.34,0 -0.65,0.13 -0.84,0.35 -0.21,0.25 -0.3,0.48 -0.43,1.05 h -0.16 v -1.55 h 0.13 c 0.07,0.09 0.11,0.11 0.23,0.11 0.09,0 0.23,-0.02 0.46,-0.08 0.28,-0.05 0.55,-0.09 0.73,-0.09 0.76,0 1.4,0.57 1.4,1.27 0,0.49 -0.24,0.82 -0.84,1.18 l -1.07,0.63 c -0.28,0.16 -0.43,0.41 -0.43,0.68 0,0.4 0.31,0.68 0.77,0.68 0.57,0 0.86,-0.34 1.09,-1.23 z"
         id="path17629" /><path
         style="fill:#000000;stroke-width:0"
         inkscape:connector-curvature="0"
         d="m 259.55,711.59 v -0.14 c 0.34,-0.07 0.44,-0.14 0.44,-0.31 0,-0.15 -0.06,-0.39 -0.17,-0.66 l -0.89,-2.2 -0.84,2.22 c -0.17,0.46 -0.17,0.46 -0.17,0.59 0,0.22 0.11,0.29 0.58,0.36 v 0.14 h -2.02 v -0.14 c 0.37,-0.04 0.49,-0.15 0.69,-0.69 0.07,-0.19 0.13,-0.38 0.19,-0.56 l -0.9,-1.97 -0.98,2.59 c -0.05,0.1 -0.07,0.2 -0.07,0.3 0,0.21 0.12,0.29 0.46,0.33 v 0.14 h -1.79 v -0.14 c 0.23,-0.02 0.31,-0.12 0.53,-0.63 l 1.34,-3.4 c 0.12,-0.3 0.2,-0.43 0.26,-0.43 0.05,0 0.13,0.12 0.25,0.38 l 1.11,2.39 0.91,-2.35 c 0.14,-0.36 0.18,-0.42 0.24,-0.42 0.07,0 0.12,0.09 0.28,0.48 l 1.37,3.44 c 0.18,0.42 0.21,0.47 0.41,0.54 v 0.14 z"
         id="path17631" /><path
         style="fill:#000000;stroke-width:0"
         inkscape:connector-curvature="0"
         d="m 265.12,708.75 -0.04,-0.07 -0.04,-0.06 -0.05,-0.07 -0.04,-0.06 -0.05,-0.06 -0.04,-0.05 -0.04,-0.06 -0.05,-0.05 -0.04,-0.05 -0.05,-0.04 -0.04,-0.05 -0.04,-0.04 -0.05,-0.04 -0.04,-0.03 -0.05,-0.04 -0.05,-0.03 -0.04,-0.03 -0.05,-0.03 -0.05,-0.02 -0.05,-0.03 -0.04,-0.02 -0.05,-0.02 -0.05,-0.02 -0.05,-0.01 -0.06,-0.02 -0.05,-0.01 -0.05,-0.01 -0.06,-0.01 -0.05,0 -0.06,-0.01 -0.06,0 -0.06,0 c -0.56,0 -0.99,0.29 -1.28,0.86 -0.18,0.37 -0.25,0.7 -0.27,1.31 l 0.02,0.32 c 0.11,0.77 0.45,1.14 1.06,1.14 0.6,0 0.84,-0.28 0.97,-1.14 h -2.03 l -0.02,-0.32 h 3.07 c -0.08,0.64 -0.18,0.93 -0.43,1.25 -0.3,0.36 -0.76,0.57 -1.28,0.57 -0.49,0 -0.96,-0.18 -1.34,-0.52 -0.47,-0.41 -0.74,-1.11 -0.74,-1.93 0,-1.37 0.72,-2.22 1.86,-2.22 0.95,0 1.7,0.58 2.11,1.65 z"
         id="path17633" /><path
         style="fill:#000000;stroke-width:0"
         inkscape:connector-curvature="0"
         d="m 265.56,711 0.01,0 0.01,0 0.02,0.01 0.01,0 0.02,0 0.03,0.01 0.02,0 0.02,0 0.02,0.01 0.02,0 0.02,0 0.02,0 0.02,0.01 0.02,0 0.02,0 0.02,0 0.03,0 0.02,0 c 0.25,0 0.33,-0.16 0.33,-0.6 v -2.48 c 0,-0.5 -0.06,-0.57 -0.7,-0.69 v -0.15 h 2.39 v 0.15 c -0.68,0.03 -0.85,0.18 -0.85,0.75 v 2.23 c 0,0.32 0.43,0.82 0.7,0.82 0.06,0 0.15,-0.05 0.26,-0.15 0.16,-0.14 0.26,-0.2 0.39,-0.2 0.24,0 0.39,0.17 0.39,0.45 0,0.33 -0.21,0.53 -0.55,0.53 -0.41,0 -0.7,-0.23 -1.19,-0.94 v 0.91 l -0.05,0.03 c -0.53,-0.22 -0.88,-0.35 -1.47,-0.54 z"
         id="path17635" /><polygon
         style="fill:#000000;stroke-width:0"
         points="276.89,710.4 281.99,710.4 281.99,710.96 276.89,710.96 "
         id="polygon17637" /><polygon
         style="fill:#000000;stroke-width:0"
         points="276.89,708.39 281.99,708.39 281.99,708.94 276.89,708.94 "
         id="polygon17639" /><path
         style="fill:#000000;stroke-width:0"
         inkscape:connector-curvature="0"
         d="m 288.32,713.84 -0.07,-0.04 -0.07,-0.05 -0.06,-0.04 -0.06,-0.04 -0.06,-0.04 -0.05,-0.04 -0.06,-0.04 -0.05,-0.03 -0.05,-0.04 -0.05,-0.04 -0.05,-0.03 -0.04,-0.04 -0.05,-0.03 -0.04,-0.04 -0.08,-0.06 -0.08,-0.07 -0.07,-0.07 -0.08,-0.07 -0.07,-0.07 -0.06,-0.07 -0.07,-0.08 -0.07,-0.08 -0.07,-0.08 c -0.7,-0.87 -1.05,-1.86 -1.05,-3.02 0,-1.26 0.37,-2.24 1.24,-3.25 0.41,-0.48 0.67,-0.7 1.19,-1.01 l 0.12,0.16 c -0.8,0.62 -1.08,0.97 -1.35,1.71 -0.23,0.67 -0.35,1.42 -0.35,2.42 0,1.04 0.14,1.86 0.4,2.47 0.28,0.62 0.58,0.97 1.3,1.55 z"
         id="path17641" /><path
         style="fill:#000000;stroke-width:0"
         inkscape:connector-curvature="0"
         d="m 291.6,713.84 -1.8,-0.9 v -0.14 c 0.12,0.05 0.23,0.09 0.27,0.11 0.18,0.07 0.35,0.11 0.45,0.11 0.21,0 0.3,-0.15 0.3,-0.47 v -4.5 c 0,-0.33 -0.08,-0.56 -0.24,-0.65 -0.15,-0.09 -0.29,-0.12 -0.71,-0.13 v -0.15 h 2.75 v 0.15 c -0.79,0.01 -0.95,0.11 -0.95,0.59 v 5.96 z"
         id="path17643" /><path
         style="fill:#000000;stroke-width:0"
         inkscape:connector-curvature="0"
         d="m 298.41,708.49 -0.13,0.05 c -0.37,-0.57 -0.5,-0.66 -0.95,-0.66 h -2.38 l 1.68,1.75 c 0.88,0.92 1.27,1.68 1.27,2.45 0,1 -0.81,1.76 -1.84,1.76 -0.55,0 -1.07,-0.22 -1.43,-0.62 -0.32,-0.33 -0.47,-0.65 -0.64,-1.36 l 0.21,-0.05 c 0.4,0.98 0.75,1.29 1.44,1.29 0.84,0 1.4,-0.56 1.4,-1.39 0,-0.78 -0.45,-1.7 -1.29,-2.59 l -1.77,-1.88 v -0.12 h 3.88 z"
         id="path17645" /><path
         style="fill:#000000;stroke-width:0"
         inkscape:connector-curvature="0"
         d="m 303.39,708.49 -0.13,0.05 c -0.37,-0.57 -0.5,-0.66 -0.95,-0.66 h -2.37 l 1.67,1.75 c 0.88,0.92 1.27,1.68 1.27,2.45 0,1 -0.8,1.76 -1.84,1.76 -0.55,0 -1.06,-0.22 -1.43,-0.62 -0.32,-0.33 -0.47,-0.65 -0.64,-1.36 l 0.21,-0.05 c 0.4,0.98 0.76,1.29 1.44,1.29 0.84,0 1.4,-0.56 1.4,-1.39 0,-0.78 -0.45,-1.7 -1.29,-2.59 l -1.77,-1.88 v -0.12 h 3.88 z"
         id="path17647" /><path
         style="fill:#000000;stroke-width:0"
         inkscape:connector-curvature="0"
         d="m 308.08,713.92 -0.1,-0.01 -0.11,-0.01 -0.09,-0.01 -0.1,-0.01 -0.09,-0.01 -0.09,-0.02 -0.09,-0.01 -0.09,-0.02 -0.08,-0.01 -0.08,-0.02 -0.08,-0.01 -0.08,-0.02 -0.07,-0.02 -0.08,-0.02 -0.14,-0.04 -0.14,-0.05 -0.14,-0.06 -0.13,-0.06 -0.13,-0.06 -0.13,-0.07 -0.13,-0.08 -0.13,-0.08 -0.07,-0.05 -0.07,-0.05 c -1.07,-0.76 -1.66,-1.89 -1.66,-3.22 0,-0.87 0.27,-1.74 0.7,-2.24 0.38,-0.44 0.91,-0.67 1.53,-0.67 1.23,0 2.09,0.94 2.09,2.31 0,1.27 -0.73,2.08 -1.87,2.08 -0.44,0 -0.65,-0.07 -1.27,-0.45 l 0.02,-0.26 c 0.21,0.16 0.52,0.25 0.87,0.25 h 0 c 0.86,0 1.35,-0.72 1.35,-1.96 0,-1.09 -0.38,-1.7 -1.08,-1.7 -0.88,0 -1.41,0.94 -1.41,2.48 0,0.5 0.08,0.78 0.27,0.93 l -0.02,0.26 c 0.26,1.5 1.38,2.57 2.94,2.83 z"
         id="path17649" /><path
         style="fill:#000000;stroke-width:0"
         inkscape:connector-curvature="0"
         d="m 310.43,707.55 0,0.03 -0.01,0.03 0,0.03 -0.01,0.02 0,0.03 -0.01,0.03 -0.01,0.02 -0.01,0.03 -0.01,0.03 -0.01,0.02 -0.02,0.02 -0.01,0.03 -0.02,0.02 -0.01,0.02 -0.02,0.02 -0.02,0.02 -0.02,0.02 -0.02,0.02 -0.02,0.01 -0.02,0.02 -0.03,0.01 -0.02,0.02 -0.02,0.01 -0.03,0.01 -0.02,0.01 -0.03,0.01 -0.03,0.01 -0.02,0.01 -0.03,0 -0.03,0.01 -0.02,0 -0.03,0 c -0.3,0 -0.55,-0.25 -0.55,-0.57 0,-0.38 0.34,-0.53 0.55,-0.53 0.21,0 0.56,0.16 0.56,0.53 z"
         id="path17651" /><path
         style="fill:#000000;stroke-width:0"
         inkscape:connector-curvature="0"
         d="m 313.64,713.84 -0.05,0 -0.05,0 -0.05,0 -0.05,-0.01 -0.05,0 -0.04,-0.01 -0.05,0 -0.05,-0.01 -0.04,-0.01 -0.05,-0.01 -0.04,-0.01 -0.04,-0.01 -0.05,-0.01 -0.04,-0.02 -0.04,-0.01 -0.04,-0.02 -0.04,-0.01 -0.04,-0.02 -0.04,-0.02 -0.04,-0.02 -0.04,-0.02 -0.04,-0.02 -0.04,-0.03 -0.03,-0.02 -0.04,-0.02 -0.04,-0.03 -0.03,-0.03 -0.04,-0.02 -0.04,-0.03 -0.03,-0.03 -0.04,-0.03 -0.03,-0.04 c -0.58,-0.55 -0.96,-1.7 -0.96,-2.86 0,-1.08 0.33,-2.24 0.8,-2.8 0.37,-0.44 0.87,-0.67 1.45,-0.67 v 0.25 c -0.85,0 -1.29,1.07 -1.29,3.13 0,2.11 0.45,3.21 1.3,3.21 h 0 c 0.84,0 1.29,-1.12 1.29,-3.2 0,-2.07 -0.44,-3.14 -1.3,-3.14 v -0.25 c 0.51,0 0.94,0.17 1.3,0.51 0.57,0.55 0.95,1.7 0.95,2.9 0,2.04 -0.9,3.44 -2.21,3.44 z"
         id="path17653" /><path
         style="fill:#000000;stroke-width:0"
         inkscape:connector-curvature="0"
         d="m 318.99,713.84 -1.79,-0.9 v -0.14 c 0.12,0.05 0.23,0.09 0.27,0.11 0.18,0.07 0.35,0.11 0.45,0.11 0.21,0 0.3,-0.15 0.3,-0.47 v -4.5 c 0,-0.33 -0.08,-0.56 -0.24,-0.65 -0.15,-0.09 -0.29,-0.12 -0.71,-0.13 v -0.15 h 2.75 v 0.15 c -0.79,0.01 -0.95,0.11 -0.95,0.59 v 5.96 z"
         id="path17655" /><path
         style="fill:#000000;stroke-width:0"
         inkscape:connector-curvature="0"
         d="m 321.46,705.37 0.06,0.04 0.07,0.04 0.06,0.05 0.06,0.04 0.06,0.04 0.06,0.03 0.05,0.04 0.05,0.04 0.05,0.04 0.05,0.03 0.05,0.04 0.05,0.03 0.04,0.04 0.04,0.03 0.08,0.07 0.08,0.07 0.08,0.07 0.07,0.07 0.07,0.07 0.07,0.07 0.06,0.08 0.07,0.08 0.07,0.08 c 0.71,0.86 1.05,1.86 1.05,3.02 0,1.27 -0.36,2.23 -1.24,3.25 -0.41,0.47 -0.67,0.69 -1.18,1.01 l -0.12,-0.16 c 0.79,-0.63 1.06,-0.97 1.34,-1.72 0.24,-0.66 0.35,-1.42 0.35,-2.41 0,-1.03 -0.13,-1.86 -0.4,-2.46 -0.28,-0.63 -0.58,-0.99 -1.29,-1.56 z"
         id="path17657" /><path
         style="fill:#000000;stroke-width:0"
         inkscape:connector-curvature="0"
         d="m 326.42,708.21 0.06,0.04 0.06,0.03 0.06,0.03 0.05,0.04 0.06,0.03 0.05,0.03 0.05,0.03 0.04,0.04 0.05,0.03 0.04,0.03 0.04,0.03 0.03,0.04 0.04,0.03 0.03,0.03 0.03,0.03 0.03,0.04 0.03,0.03 0.02,0.04 0.02,0.03 0.03,0.03 0.01,0.04 0.02,0.04 0.02,0.03 0.01,0.04 0.01,0.04 0.01,0.04 0.01,0.03 0.01,0.04 0,0.05 0.01,0.04 0,0.04 0,0.04 c 0,0.57 -0.5,0.99 -1.2,0.99 l -0.05,-0.19 c 0.47,0 0.77,-0.31 0.77,-0.79 0,-0.39 -0.2,-0.71 -0.59,-0.97 -0.04,-0.02 -0.04,-0.02 -0.07,-0.04 h 0 c -0.62,0.4 -0.87,0.72 -0.87,1.11 0,0.4 0.32,0.69 0.76,0.69 l 0.05,0.19 c -0.76,0 -1.32,-0.46 -1.32,-1.1 0,-0.45 0.13,-0.65 0.86,-1.29 -0.75,-0.57 -0.9,-0.79 -0.9,-1.26 0,-0.67 0.55,-1.15 1.33,-1.15 l 0.08,0.2 c -0.53,0 -0.88,0.4 -0.88,1.01 0,0.44 0.15,0.73 0.55,1.06 l 0.42,-0.31 c 0.51,-0.36 0.68,-0.61 0.68,-1 0,-0.45 -0.32,-0.76 -0.77,-0.76 l -0.08,-0.2 c 0.84,0 1.37,0.46 1.37,1.18 0,0.53 -0.23,0.88 -1.07,1.5 z"
         id="path17659" /></g>    <path
       style="font-style:normal;font-variant:normal;font-weight:normal;font-stretch:normal;letter-spacing:normal;word-spacing:normal;text-anchor:start;fill:#000000;stroke:#000000;stroke-width:0;stroke-linecap:butt;stroke-linejoin:miter;stroke-miterlimit:10.43299961;stroke-opacity:1;stroke-dasharray:none;stroke-dashoffset:0"
       inkscape:connector-curvature="0"
       d="m 294.54337,809.39415 0,-0.036 0,-0.036 0,-0.036 -0.012,-0.024 -0.012,-0.036 0,-0.036 -0.012,-0.024 -0.012,-0.036 -0.012,-0.024 -0.024,-0.036 -0.012,-0.024 -0.012,-0.036 -0.024,-0.024 -0.024,-0.024 -0.024,-0.024 -0.012,-0.024 -0.024,-0.024 -0.024,-0.024 -0.024,-0.012 -0.036,-0.024 -0.024,-0.012 -0.024,-0.024 -0.036,-0.012 -0.024,-0.012 -0.036,-0.012 -0.024,-0.012 -0.036,-0.012 -0.024,-0.012 -0.036,0 -0.036,0 -0.036,-0.012 -0.024,0 c -0.36,0 -0.66,0.3 -0.66,0.684 0,0.456 0.408,0.648 0.66,0.648 0.24,0 0.66,-0.204 0.66,-0.648 z"
       id="path17973" />
    <path
       style="font-style:normal;font-variant:normal;font-weight:normal;font-stretch:normal;letter-spacing:normal;word-spacing:normal;text-anchor:start;fill:#000000;stroke:#000000;stroke-width:0;stroke-linecap:butt;stroke-linejoin:miter;stroke-miterlimit:10.43299961;stroke-opacity:1;stroke-dasharray:none;stroke-dashoffset:0"
       inkscape:connector-curvature="0"
       d="m 294.54337,819.73093 0,-0.024 0,-0.036 0,-0.036 -0.012,-0.036 -0.012,-0.036 0,-0.024 -0.012,-0.036 -0.012,-0.024 -0.012,-0.036 -0.024,-0.024 -0.012,-0.036 -0.012,-0.024 -0.024,-0.024 -0.024,-0.024 -0.024,-0.024 -0.012,-0.024 -0.024,-0.024 -0.024,-0.024 -0.024,-0.024 -0.036,-0.012 -0.024,-0.024 -0.024,-0.012 -0.036,-0.024 -0.024,-0.012 -0.036,-0.012 -0.024,-0.012 -0.036,0 -0.024,-0.012 -0.036,-0.012 -0.036,0 -0.036,0 -0.024,0 c -0.36,0 -0.66,0.3 -0.66,0.672 0,0.456 0.408,0.648 0.66,0.648 0.24,0 0.66,-0.204 0.66,-0.648 z"
       id="path17975" />
    <path
       style="font-style:normal;font-variant:normal;font-weight:normal;font-stretch:normal;letter-spacing:normal;word-spacing:normal;text-anchor:start;fill:#000000;stroke:#000000;stroke-width:0;stroke-linecap:butt;stroke-linejoin:miter;stroke-miterlimit:10.43299961;stroke-opacity:1;stroke-dasharray:none;stroke-dashoffset:0"
       inkscape:connector-curvature="0"
       d="m 294.54337,829.5551 0,-0.036 0,-0.036 0,-0.036 -0.012,-0.024 -0.012,-0.036 0,-0.036 -0.012,-0.024 -0.012,-0.036 -0.012,-0.024 -0.024,-0.036 -0.012,-0.024 -0.012,-0.036 -0.024,-0.024 -0.024,-0.024 -0.024,-0.024 -0.012,-0.024 -0.024,-0.024 -0.024,-0.024 -0.024,-0.012 -0.036,-0.024 -0.024,-0.012 -0.024,-0.024 -0.036,-0.012 -0.024,-0.012 -0.036,-0.012 -0.024,-0.012 -0.036,-0.012 -0.024,-0.012 -0.036,0 -0.036,0 -0.036,-0.012 -0.024,0 c -0.36,0 -0.66,0.3 -0.66,0.684 0,0.456 0.408,0.636 0.66,0.636 0.24,0 0.66,-0.192 0.66,-0.636 z"
       id="path17977" />
  </g>
</svg>
