<?xml version="1.0" encoding="UTF-8" standalone="no"?>
<!-- Created with Inkscape (http://www.inkscape.org/) -->

<svg
   xmlns:ns0="http://www.iki.fi/pav/software/textext/"
   xmlns:dc="http://purl.org/dc/elements/1.1/"
   xmlns:cc="http://creativecommons.org/ns#"
   xmlns:rdf="http://www.w3.org/1999/02/22-rdf-syntax-ns#"
   xmlns:svg="http://www.w3.org/2000/svg"
   xmlns="http://www.w3.org/2000/svg"
   xmlns:sodipodi="http://sodipodi.sourceforge.net/DTD/sodipodi-0.dtd"
   xmlns:inkscape="http://www.inkscape.org/namespaces/inkscape"
   width="496.06299"
   height="354.33069"
   id="svg2"
   version="1.1"
   inkscape:version="0.48.4 r9939"
   sodipodi:docname="div43.svg">
  <sodipodi:namedview
     id="base"
     pagecolor="#ffffff"
     bordercolor="#666666"
     borderopacity="1.0"
     inkscape:pageopacity="0.0"
     inkscape:pageshadow="2"
     inkscape:zoom="2.0059089"
     inkscape:cx="177.22221"
     inkscape:cy="192.06694"
     inkscape:document-units="cm"
     inkscape:current-layer="layer1"
     showgrid="false"
     units="cm"
     inkscape:object-nodes="true"
     inkscape:window-width="1366"
     inkscape:window-height="744"
     inkscape:window-x="0"
     inkscape:window-y="24"
     inkscape:window-maximized="1">
    <inkscape:grid
       snapvisiblegridlinesonly="true"
       enabled="true"
       visible="true"
       empspacing="5"
       id="grid2985"
       type="xygrid" />
  </sodipodi:namedview>
  <defs
     id="defs4">
    <marker
       style="overflow:visible"
       id="Arrow1Mstart"
       refX="0"
       refY="0"
       orient="auto"
       inkscape:stockid="Arrow1Mstart">
      <path
         transform="matrix(0.4,0,0,0.4,4,0)"
         style="fill-rule:evenodd;stroke:#000000;stroke-width:1pt"
         d="M 0,0 5,-5 -12.5,0 5,5 0,0 z"
         id="path3775"
         inkscape:connector-curvature="0" />
    </marker>
    <marker
       style="overflow:visible"
       id="Arrow1Mend"
       refX="0"
       refY="0"
       orient="auto"
       inkscape:stockid="Arrow1Mend">
      <path
         transform="matrix(-0.4,0,0,-0.4,-4,0)"
         style="fill-rule:evenodd;stroke:#000000;stroke-width:1pt"
         d="M 0,0 5,-5 -12.5,0 5,5 0,0 z"
         id="path3778"
         inkscape:connector-curvature="0" />
    </marker>
    <marker
       inkscape:stockid="Arrow1Mstart"
       orient="auto"
       refY="0"
       refX="0"
       id="Arrow1Mstart-7"
       style="overflow:visible">
      <path
         inkscape:connector-curvature="0"
         id="path3775-8"
         d="M 0,0 5,-5 -12.5,0 5,5 0,0 z"
         style="fill-rule:evenodd;stroke:#000000;stroke-width:1pt"
         transform="matrix(0.4,0,0,0.4,4,0)" />
    </marker>
    <marker
       inkscape:stockid="Arrow1Mend"
       orient="auto"
       refY="0"
       refX="0"
       id="Arrow1Mend-3"
       style="overflow:visible">
      <path
         inkscape:connector-curvature="0"
         id="path3778-2"
         d="M 0,0 5,-5 -12.5,0 5,5 0,0 z"
         style="fill-rule:evenodd;stroke:#000000;stroke-width:1pt"
         transform="matrix(-0.4,0,0,-0.4,-4,0)" />
    </marker>
    <marker
       inkscape:stockid="Arrow1Mend"
       orient="auto"
       refY="0"
       refX="0"
       id="Arrow1Mend-8"
       style="overflow:visible">
      <path
         inkscape:connector-curvature="0"
         id="path3778-3"
         d="M 0,0 5,-5 -12.5,0 5,5 0,0 z"
         style="fill-rule:evenodd;stroke:#000000;stroke-width:1pt"
         transform="matrix(-0.4,0,0,-0.4,-4,0)" />
    </marker>
  </defs>
  <metadata
     id="metadata7">
    <rdf:RDF>
      <cc:Work
         rdf:about="">
        <dc:format>image/svg+xml</dc:format>
        <dc:type
           rdf:resource="http://purl.org/dc/dcmitype/StillImage" />
        <dc:title></dc:title>
      </cc:Work>
    </rdf:RDF>
  </metadata>
  <g
     transform="translate(0,-698.03016)"
     id="layer1"
     inkscape:groupmode="layer"
     inkscape:label="Layer 1">
    <text
       xml:space="preserve"
       style="font-size:12px;font-style:normal;font-variant:normal;font-weight:normal;font-stretch:normal;text-align:start;line-height:100%;letter-spacing:0px;word-spacing:0px;text-anchor:start;fill:#000000;fill-opacity:1;stroke:none;font-family:LMRoman12;-inkscape-font-specification:Sans"
       x="61.700558"
       y="754.07056"
       id="text5818"
       sodipodi:linespacing="100%"><tspan
         sodipodi:role="line"
         id="tspan5820"
         x="61.700558"
         y="754.07056" /></text>
    <flowRoot
       style="font-size:12px;font-style:normal;font-variant:normal;font-weight:normal;font-stretch:normal;text-align:start;line-height:100%;letter-spacing:0px;word-spacing:0px;text-anchor:start;fill:#000000;fill-opacity:1;stroke:none;font-family:LMRoman12;-inkscape-font-specification:Sans"
       id="flowRoot6377"
       xml:space="preserve"><flowRegion
         id="flowRegion6379"><rect
           y="87.141403"
           x="219.34796"
           height="40.319103"
           width="27.681772"
           id="rect6381" /></flowRegion><flowPara
         id="flowPara6383" /></flowRoot>    <text
       sodipodi:linespacing="50%"
       id="text6385"
       y="753.27734"
       x="275.91507"
       style="font-size:12px;font-style:normal;font-variant:normal;font-weight:normal;font-stretch:normal;text-align:start;line-height:50%;letter-spacing:0px;word-spacing:0px;text-anchor:start;fill:#000000;fill-opacity:1;stroke:none;font-family:LMRoman12;-inkscape-font-specification:Sans"
       xml:space="preserve"><tspan
         y="753.27734"
         x="275.91507"
         id="tspan6387"
         sodipodi:role="line" /></text>
    <text
       sodipodi:linespacing="100%"
       id="text3884"
       y="892.41718"
       x="348.65417"
       style="font-size:12px;font-style:normal;font-variant:normal;font-weight:normal;font-stretch:normal;text-align:start;line-height:100%;letter-spacing:0px;word-spacing:0px;text-anchor:start;fill:#000000;fill-opacity:1;stroke:none;font-family:LMRoman12;-inkscape-font-specification:Sans"
       xml:space="preserve"><tspan
         id="tspan3890"
         y="892.41718"
         x="348.65417"
         sodipodi:role="line" /></text>
    <text
       sodipodi:linespacing="150%"
       id="text3887"
       y="948.92749"
       x="216.96629"
       style="font-size:12px;font-style:normal;font-variant:normal;font-weight:normal;font-stretch:normal;text-align:start;line-height:150%;letter-spacing:0px;word-spacing:0px;text-anchor:start;fill:#000000;fill-opacity:1;stroke:none;font-family:LMRoman12;-inkscape-font-specification:Sans"
       xml:space="preserve"><tspan
         y="948.92749"
         x="216.96629"
         id="tspan3889"
         sodipodi:role="line" /></text>
    <text
       sodipodi:linespacing="150%"
       id="text7389"
       y="759.11084"
       x="173"
       style="font-size:12px;font-style:normal;font-variant:normal;font-weight:normal;font-stretch:normal;text-align:start;line-height:150%;letter-spacing:0px;word-spacing:0px;text-anchor:start;fill:#000000;fill-opacity:1;stroke:none;font-family:LMRoman12;-inkscape-font-specification:Sans"
       xml:space="preserve"><tspan
         y="759.11084"
         x="173"
         id="tspan7391"
         sodipodi:role="line" /></text>
    <text
       xml:space="preserve"
       style="font-size:12px;font-style:normal;font-variant:normal;font-weight:normal;font-stretch:normal;text-align:start;line-height:150%;letter-spacing:0px;word-spacing:0px;text-anchor:start;fill:#000000;fill-opacity:1;stroke:none;font-family:LMRoman12;-inkscape-font-specification:Sans"
       x="241.06926"
       y="813.90778"
       id="text12764"
       sodipodi:linespacing="150%"><tspan
         dx="0 0"
         sodipodi:role="line"
         id="tspan12766"
         x="241.06926"
         y="813.90778">   0 1 1 0 1 0</tspan><tspan
         sodipodi:role="line"
         x="241.06926"
         y="831.90778"
         id="tspan12770">+ 1 1 0 0 0 0</tspan></text>
    <text
       transform="translate(0,698.03016)"
       sodipodi:linespacing="150%"
       id="text12776"
       y="185.47461"
       x="347.50522"
       style="font-size:12px;font-style:normal;font-variant:normal;font-weight:normal;font-stretch:normal;text-align:start;line-height:150%;letter-spacing:0px;word-spacing:0px;text-anchor:start;fill:#000000;fill-opacity:1;stroke:none;font-family:LMRoman12;-inkscape-font-specification:Sans"
       xml:space="preserve"><tspan
         y="185.47461"
         x="347.50522"
         id="tspan12778"
         sodipodi:role="line" /></text>
    <path
       inkscape:connector-curvature="0"
       id="path12780"
       d="m 240.11281,838.11091 72.59836,0"
       style="fill:none;stroke:#000000;stroke-width:0.79999995;stroke-linecap:square;stroke-linejoin:round;stroke-miterlimit:4;stroke-opacity:1;stroke-dasharray:none;stroke-dashoffset:0" />
    <text
       xml:space="preserve"
       style="font-size:12px;font-style:normal;font-variant:normal;font-weight:normal;font-stretch:normal;text-align:start;line-height:150%;letter-spacing:0px;word-spacing:0px;text-anchor:start;fill:#000000;fill-opacity:1;stroke:none;font-family:LMRoman12;-inkscape-font-specification:Sans"
       x="244.32707"
       y="849.79675"
       id="text12782"
       sodipodi:linespacing="150%"><tspan
         sodipodi:role="line"
         x="244.32707"
         y="849.79675"
         id="tspan12788">1 0 0 1 0 1 0</tspan></text>
    <text
       sodipodi:linespacing="150%"
       id="text6388"
       y="796.16852"
       x="244.22394"
       style="font-size:12px;font-style:normal;font-variant:normal;font-weight:normal;font-stretch:normal;text-align:start;line-height:150%;letter-spacing:0px;word-spacing:0px;text-anchor:start;fill:#000000;fill-opacity:1;stroke:none;font-family:LMRoman12;-inkscape-font-specification:Sans"
       xml:space="preserve"><tspan
         id="tspan6392"
         y="796.16852"
         x="244.22394"
         sodipodi:role="line"><tspan
           dx="2.0718892"
           id="tspan12197">  1 1 0 0 0 0</tspan></tspan></text>
    <text
       sodipodi:linespacing="150%"
       id="text12981"
       y="868.20465"
       x="180.37286"
       style="font-size:12px;font-style:normal;font-variant:normal;font-weight:normal;font-stretch:normal;text-align:start;line-height:150%;letter-spacing:0px;word-spacing:0px;text-anchor:start;fill:#000000;fill-opacity:1;stroke:none;font-family:LMRoman12;-inkscape-font-specification:Sans"
       xml:space="preserve"><tspan
         y="868.20465"
         x="180.37286"
         id="tspan12983"
         sodipodi:role="line">Neglect carry</tspan></text>
    <path
       style="fill:none;stroke:#000000;stroke-width:0.5;stroke-linecap:square;stroke-linejoin:round;stroke-miterlimit:4;stroke-opacity:1;stroke-dasharray:none;stroke-dashoffset:0;marker-start:none;marker-end:url(#Arrow1Mend)"
       d="m 243.77767,852.77725 -6.59397,6.16506"
       id="path14827"
       inkscape:connector-curvature="0"
       sodipodi:nodetypes="cc" />
    <g
       style="font-style:normal;font-variant:normal;font-weight:normal;font-stretch:normal;letter-spacing:normal;word-spacing:normal;text-anchor:start;fill:none;stroke:#000000;stroke-width:1;stroke-linecap:butt;stroke-linejoin:miter;stroke-miterlimit:10.43299961;stroke-opacity:1;stroke-dasharray:none;stroke-dashoffset:0"
       ns0:preamble="/home/sriranga/Desktop/Prism_BasicElectronics/preamble.tex"
       ns0:text="\\begin{align*}\n\\text{2\'nd complement representation of} -10000 &amp; =\n\\end{align*}"
       text-anchor="start"
       word-spacing="normal"
       letter-spacing="normal"
       font-size-adjust="none"
       font-stretch="normal"
       font-weight="normal"
       font-variant="normal"
       font-style="normal"
       fill-opacity="1"
       fill-rule="evenodd"
       fill="none"
       stroke-opacity="1"
       stroke-dashoffset="0"
       stroke-dasharray="none"
       stroke-miterlimit="10.433"
       stroke-linejoin="miter"
       stroke-linecap="butt"
       stroke="black"
       xml:space="preserve"
       transform="matrix(1.2,0,0,-1.2,-354.72057,1642.3845)"
       id="g13788"><path
         id="path13790"
         fill="black"
         stroke-width="0"
         d="M307.76,708.49 L307.64,708.54 C307.27,707.97,307.14,707.88,306.69,707.88 H304.31 L305.98,709.63 C306.87,710.55,307.26,711.31,307.26,712.08 C307.26,713.08,306.45,713.84,305.42,713.84 C304.87,713.84,304.35,713.62,303.98,713.22 C303.67,712.89,303.52,712.57,303.35,711.86 L303.55,711.81 C303.95,712.79,304.31,713.1,305,713.1 C305.83,713.1,306.4,712.54,306.4,711.71 C306.4,710.93,305.94,710.01,305.11,709.12 L303.34,707.24 V707.12 H307.22 Z " /><path
         id="path13792"
         fill="black"
         stroke-width="0"
         d="M309.07,711.43 L309.14,711.46 L309.2,711.49 L309.26,711.53 L309.31,711.56 L309.37,711.6 L309.42,711.64 L309.48,711.68 L309.53,711.72 L309.58,711.76 L309.63,711.81 L309.67,711.85 L309.72,711.9 L309.76,711.94 L309.8,711.99 L309.84,712.04 L309.88,712.09 L309.92,712.14 L309.95,712.19 L309.98,712.24 L310.01,712.3 L310.04,712.35 L310.06,712.4 L310.09,712.46 L310.11,712.51 L310.13,712.57 L310.14,712.62 L310.16,712.68 L310.17,712.73 L310.18,712.79 L310.18,712.84 L310.19,712.9 L310.19,712.96 C310.19,713.45,309.84,713.84,309.39,713.84 C309.04,713.84,308.8,713.61,308.8,713.27 C308.8,712.96,309.03,712.77,309.39,712.77 C309.45,712.77,309.52,712.78,309.58,712.79 C309.65,712.81,309.65,712.81,309.66,712.81 C309.74,712.81,309.8,712.75,309.8,712.67 C309.8,712.34,309.52,711.98,308.98,711.61 Z " /><path
         id="path13794"
         fill="black"
         stroke-width="0"
         d="M311.5,711.08 L311.5,711.08 L311.51,711.08 L311.51,711.09 L311.52,711.09 L311.53,711.09 L311.53,711.09 L311.54,711.1 L311.55,711.1 L311.56,711.1 L311.56,711.1 L311.58,711.1 L311.59,711.11 L311.61,711.11 L311.63,711.11 L311.65,711.11 L311.67,711.11 L311.69,711.12 L311.7,711.12 L311.72,711.12 L311.74,711.12 L311.77,711.12 C312.04,711.12,312.13,710.97,312.13,710.48 V708.02 C312.13,707.45,312.02,707.31,311.52,707.27 V707.12 H313.62 V707.27 C313.12,707.31,312.97,707.43,312.97,707.79 V710.58 C313.45,711.03,313.67,711.15,313.99,711.15 C314.48,711.15,314.72,710.84,314.72,710.18 V708.11 C314.72,707.48,314.59,707.31,314.09,707.27 V707.12 H316.16 V707.27 C315.67,707.32,315.55,707.44,315.55,707.93 V710.2 C315.55,711.14,315.12,711.7,314.38,711.7 C313.92,711.7,313.61,711.53,312.94,710.89 V711.67 L312.87,711.7 C312.38,711.52,312.04,711.41,311.5,711.25 Z " /><path
         id="path13796"
         fill="black"
         stroke-width="0"
         d="M319.74,707.03 L321.2,707.54 V707.7 C321.02,707.69,321,707.69,320.97,707.69 C320.62,707.69,320.54,707.8,320.54,708.26 V713.89 L320.49,713.91 C320.01,713.74,319.66,713.64,319.02,713.47 V713.31 C319.1,713.32,319.16,713.32,319.24,713.32 C319.61,713.32,319.7,713.22,319.7,712.82 V711.27 C319.32,711.59,319.05,711.7,318.66,711.7 C317.51,711.7,316.59,710.57,316.59,709.16 C316.59,707.89,317.33,707.03,318.43,707.03 C318.98,707.03,319.36,707.22,319.7,707.69 L319.53,707.84 C319.35,707.64,319.1,707.54,318.82,707.54 C317.99,707.54,317.44,708.34,317.44,709.56 C317.44,710.68,317.93,711.42,318.69,711.42 C319.21,711.42,319.7,710.95,319.7,710.42 V708.14 C319.7,708.07,319.63,707.95,319.53,707.84 L319.7,707.69 V707.05 Z " /><path
         id="path13798"
         fill="black"
         stroke-width="0"
         d="M327.75,708.67 L327.71,708.61 L327.66,708.55 L327.62,708.49 L327.58,708.44 L327.53,708.38 L327.49,708.33 L327.45,708.28 L327.41,708.24 L327.37,708.19 L327.33,708.15 L327.29,708.11 L327.25,708.07 L327.2,708.04 L327.16,708.01 L327.12,707.98 L327.08,707.95 L327.04,707.92 L327,707.9 L326.96,707.87 L326.91,707.85 L326.87,707.83 L326.83,707.82 L326.78,707.8 L326.74,707.79 L326.69,707.78 L326.65,707.77 L326.6,707.76 L326.55,707.75 L326.5,707.75 L326.45,707.74 L326.4,707.74 L326.35,707.74 C325.44,707.74,324.8,708.54,324.8,709.68 C324.8,710.7,325.35,711.41,326.16,711.41 C326.52,711.41,326.64,711.3,326.74,710.93 L326.8,710.71 C326.88,710.43,327.06,710.25,327.27,710.25 C327.53,710.25,327.75,710.44,327.75,710.67 C327.75,711.23,327.05,711.7,326.22,711.7 C325.73,711.7,325.22,711.5,324.82,711.14 C324.32,710.7,324.04,710.03,324.04,709.24 C324.04,707.95,324.83,707.03,325.93,707.03 C326.38,707.03,326.77,707.18,327.13,707.49 C327.4,707.73,327.59,708,327.89,708.59 Z " /><path
         id="path13800"
         fill="black"
         stroke-width="0"
         d="M330.7,711.7 L330.58,711.69 L330.46,711.68 L330.35,711.67 L330.23,711.65 L330.12,711.63 L330.02,711.6 L329.91,711.56 L329.81,711.52 L329.71,711.48 L329.62,711.43 L329.53,711.38 L329.44,711.32 L329.35,711.26 L329.27,711.19 L329.19,711.12 L329.12,711.05 L329.05,710.97 L328.98,710.89 L328.92,710.8 L328.86,710.71 L328.8,710.61 L328.75,710.52 L328.71,710.42 L328.66,710.31 L328.63,710.2 L328.59,710.09 L328.57,709.98 L328.54,709.86 L328.53,709.74 L328.51,709.62 L328.5,709.5 L328.5,709.37 C328.5,708.03,329.43,707.03,330.68,707.03 L330.8,707.3 C330.41,707.3,330.04,707.54,329.83,707.94 C329.56,708.46,329.4,709.15,329.4,709.86 C329.4,710.8,329.86,711.42,330.57,711.42 H330.57 C331.41,711.42,331.99,710.46,331.99,709.1 C331.99,707.98,331.55,707.3,330.8,707.3 L330.68,707.03 C331.93,707.03,332.89,708.08,332.89,709.45 C332.89,710.75,331.97,711.7,330.7,711.7 Z " /><path
         id="path13802"
         fill="black"
         stroke-width="0"
         d="M333.38,711.08 L333.4,711.08 L333.41,711.08 L333.42,711.09 L333.43,711.09 L333.44,711.09 L333.45,711.09 L333.47,711.1 L333.49,711.1 L333.51,711.1 L333.53,711.11 L333.55,711.11 L333.57,711.11 L333.59,711.11 L333.61,711.11 L333.62,711.12 L333.64,711.12 L333.66,711.12 L333.68,711.12 L333.7,711.12 C333.96,711.12,334.05,710.96,334.05,710.48 V707.97 C334.05,707.43,333.91,707.28,333.35,707.27 V707.12 H335.56 V707.27 C335.04,707.29,334.89,707.4,334.89,707.79 V710.59 C334.89,710.61,334.97,710.71,335.04,710.78 C335.28,711.01,335.71,711.18,336.06,711.18 C336.5,711.18,336.72,710.83,336.72,710.14 V707.98 C336.72,707.42,336.61,707.31,336.04,707.27 V707.12 H338.27 V707.27 C337.7,707.28,337.55,707.45,337.55,708.07 V710.57 C337.85,711,338.18,711.18,338.64,711.18 C339.2,711.18,339.38,710.91,339.38,710.09 V707.99 C339.38,707.42,339.3,707.34,338.73,707.27 V707.12 H340.9 V707.27 L340.65,707.29 C340.35,707.31,340.22,707.49,340.22,707.88 V709.93 C340.22,711.1,339.83,711.7,339.07,711.7 C338.49,711.7,337.98,711.44,337.44,710.86 C337.26,711.43,336.93,711.7,336.39,711.7 C335.95,711.7,335.67,711.55,334.85,710.93 V711.67 L334.78,711.7 C334.27,711.51,333.93,711.4,333.38,711.25 Z " /><path
         id="path13804"
         fill="black"
         stroke-width="0"
         d="M341.04,711.03 L341.05,711.03 L341.07,711.03 L341.08,711.03 L341.1,711.03 L341.11,711.04 L341.13,711.04 L341.14,711.04 L341.16,711.04 L341.19,711.04 L341.2,711.04 L341.22,711.04 L341.24,711.04 L341.25,711.04 L341.27,711.04 L341.28,711.04 C341.62,711.04,341.69,710.94,341.69,710.47 V705.82 C341.69,705.31,341.58,705.2,340.99,705.14 V704.97 H343.4 V705.15 C342.66,705.16,342.53,705.27,342.53,705.89 V707.45 C342.88,707.12,343.11,707.03,343.53,707.03 L343.56,707.34 C343.1,707.34,342.53,707.7,342.53,708 V710.44 C342.53,710.74,343.08,711.1,343.54,711.1 C344.28,711.1,344.77,710.34,344.77,709.19 C344.77,708.09,344.28,707.34,343.56,707.34 L343.53,707.03 C344.71,707.03,345.62,708.14,345.62,709.58 C345.62,710.81,344.92,711.7,343.96,711.7 C343.4,711.7,342.96,711.45,342.53,710.91 V711.67 L342.47,711.7 C341.93,711.49,341.58,711.36,341.04,711.19 Z " /><path
         id="path13806"
         fill="black"
         stroke-width="0"
         d="M346.12,713.31 H346.18 C346.29,713.32,346.4,713.33,346.48,713.33 C346.8,713.33,346.9,713.2,346.9,712.73 V707.99 C346.9,707.45,346.76,707.32,346.14,707.27 V707.12 H348.48 V707.27 C347.86,707.31,347.74,707.41,347.74,707.96 V713.89 L347.7,713.91 C347.18,713.74,346.8,713.64,346.12,713.47 Z " /><path
         id="path13808"
         fill="black"
         stroke-width="0"
         d="M352.76,708.75 L352.71,708.68 L352.67,708.62 L352.62,708.55 L352.58,708.49 L352.53,708.43 L352.49,708.38 L352.45,708.32 L352.4,708.27 L352.36,708.22 L352.31,708.18 L352.27,708.13 L352.23,708.09 L352.18,708.05 L352.14,708.02 L352.09,707.98 L352.04,707.95 L352,707.92 L351.95,707.89 L351.9,707.87 L351.86,707.84 L351.81,707.82 L351.76,707.8 L351.71,707.78 L351.66,707.77 L351.6,707.75 L351.55,707.74 L351.5,707.73 L351.44,707.72 L351.39,707.72 L351.33,707.71 L351.27,707.71 L351.21,707.71 C350.65,707.71,350.22,708,349.93,708.57 C349.75,708.94,349.68,709.27,349.66,709.88 L349.68,710.2 C349.79,710.97,350.13,711.34,350.74,711.34 C351.34,711.34,351.58,711.06,351.71,710.2 H349.68 L349.66,709.88 H352.73 C352.65,710.52,352.55,710.81,352.3,711.13 C352,711.49,351.54,711.7,351.02,711.7 C350.53,711.7,350.06,711.52,349.68,711.18 C349.21,710.77,348.95,710.07,348.95,709.25 C348.95,707.88,349.66,707.03,350.81,707.03 C351.75,707.03,352.5,707.61,352.92,708.68 Z " /><path
         id="path13810"
         fill="black"
         stroke-width="0"
         d="M353.31,711.08 L353.32,711.08 L353.33,711.08 L353.34,711.09 L353.36,711.09 L353.37,711.09 L353.38,711.09 L353.4,711.1 L353.42,711.1 L353.44,711.1 L353.46,711.11 L353.48,711.11 L353.49,711.11 L353.51,711.11 L353.53,711.11 L353.55,711.12 L353.57,711.12 L353.59,711.12 L353.61,711.12 L353.63,711.12 C353.89,711.12,353.98,710.96,353.98,710.48 V707.97 C353.98,707.43,353.84,707.28,353.28,707.27 V707.12 H355.49 V707.27 C354.96,707.29,354.81,707.4,354.81,707.79 V710.59 C354.81,710.61,354.89,710.71,354.96,710.78 C355.21,711.01,355.64,711.18,355.98,711.18 C356.42,711.18,356.64,710.83,356.64,710.14 V707.98 C356.64,707.42,356.53,707.31,355.96,707.27 V707.12 H358.19 V707.27 C357.63,707.28,357.48,707.45,357.48,708.07 V710.57 C357.78,711,358.1,711.18,358.56,711.18 C359.13,711.18,359.31,710.91,359.31,710.09 V707.99 C359.31,707.42,359.23,707.34,358.65,707.27 V707.12 H360.83 V707.27 L360.57,707.29 C360.27,707.31,360.14,707.49,360.14,707.88 V709.93 C360.14,711.1,359.76,711.7,358.99,711.7 C358.41,711.7,357.9,711.44,357.37,710.86 C357.19,711.43,356.85,711.7,356.31,711.7 C355.88,711.7,355.6,711.55,354.77,710.93 V711.67 L354.7,711.7 C354.19,711.51,353.86,711.4,353.31,711.25 Z " /><path
         id="path13812"
         fill="black"
         stroke-width="0"
         d="M364.93,708.75 L364.89,708.68 L364.84,708.62 L364.8,708.55 L364.75,708.49 L364.71,708.43 L364.66,708.38 L364.62,708.32 L364.58,708.27 L364.53,708.22 L364.49,708.18 L364.44,708.13 L364.4,708.09 L364.36,708.05 L364.31,708.02 L364.26,707.98 L364.22,707.95 L364.17,707.92 L364.13,707.89 L364.08,707.87 L364.03,707.84 L363.98,707.82 L363.93,707.8 L363.88,707.78 L363.83,707.77 L363.78,707.75 L363.73,707.74 L363.67,707.73 L363.62,707.72 L363.56,707.72 L363.51,707.71 L363.45,707.71 L363.39,707.71 C362.82,707.71,362.39,708,362.1,708.57 C361.92,708.94,361.86,709.27,361.84,709.88 L361.86,710.2 C361.96,710.97,362.3,711.34,362.91,711.34 C363.52,711.34,363.76,711.06,363.89,710.2 H361.86 L361.84,709.88 H364.9 C364.82,710.52,364.72,710.81,364.47,711.13 C364.17,711.49,363.72,711.7,363.2,711.7 C362.7,711.7,362.23,711.52,361.86,711.18 C361.39,710.77,361.12,710.07,361.12,709.25 C361.12,707.88,361.84,707.03,362.98,707.03 C363.92,707.03,364.67,707.61,365.09,708.68 Z " /><path
         id="path13814"
         fill="black"
         stroke-width="0"
         d="M365.45,711.08 L365.46,711.08 L365.46,711.08 L365.47,711.09 L365.48,711.09 L365.48,711.09 L365.49,711.09 L365.5,711.1 L365.51,711.1 L365.51,711.1 L365.52,711.1 L365.54,711.1 L365.55,711.11 L365.57,711.11 L365.59,711.11 L365.6,711.11 L365.62,711.11 L365.64,711.12 L365.66,711.12 L365.68,711.12 L365.7,711.12 L365.72,711.12 C366,711.12,366.09,710.97,366.09,710.48 V708.02 C366.09,707.45,365.98,707.31,365.47,707.27 V707.12 H367.58 V707.27 C367.08,707.31,366.93,707.43,366.93,707.79 V710.58 C367.4,711.03,367.62,711.15,367.95,711.15 C368.44,711.15,368.68,710.84,368.68,710.18 V708.11 C368.68,707.48,368.55,707.31,368.05,707.27 V707.12 H370.12 V707.27 C369.63,707.32,369.51,707.44,369.51,707.93 V710.2 C369.51,711.14,369.08,711.7,368.34,711.7 C367.88,711.7,367.57,711.53,366.9,710.89 V711.67 L366.83,711.7 C366.34,711.52,366,711.41,365.45,711.25 Z " /><path
         id="path13816"
         fill="black"
         stroke-width="0"
         d="M372.81,711.59 H371.81 V712.75 C371.81,712.85,371.8,712.88,371.74,712.88 C371.67,712.79,371.61,712.7,371.54,712.6 C371.16,712.05,370.73,711.58,370.57,711.54 C370.46,711.47,370.4,711.4,370.4,711.35 C370.4,711.32,370.42,711.3,370.45,711.28 H370.97 V708.29 C370.97,707.45,371.27,707.03,371.86,707.03 C372.35,707.03,372.72,707.26,373.05,707.78 L372.92,707.89 C372.71,707.64,372.54,707.54,372.33,707.54 C371.96,707.54,371.81,707.81,371.81,708.44 V711.28 H372.81 Z " /><path
         id="path13818"
         fill="black"
         stroke-width="0"
         d="M375.61,711 L375.62,711 L375.63,711 L375.64,711.01 L375.66,711.01 L375.68,711.01 L375.7,711.02 L375.72,711.02 L375.75,711.02 L375.77,711.03 L375.79,711.03 L375.81,711.03 L375.83,711.03 L375.85,711.04 L375.87,711.04 L375.89,711.04 L375.91,711.04 L375.93,711.04 L375.95,711.04 C376.2,711.04,376.29,710.88,376.29,710.44 V707.96 C376.29,707.46,376.22,707.39,375.58,707.27 V707.12 H377.97 V707.27 C377.3,707.3,377.13,707.45,377.13,708.02 V710.25 C377.13,710.57,377.55,711.07,377.82,711.07 C377.88,711.07,377.97,711.02,378.08,710.92 C378.24,710.78,378.35,710.72,378.48,710.72 C378.72,710.72,378.87,710.89,378.87,711.17 C378.87,711.5,378.66,711.7,378.32,711.7 C377.9,711.7,377.61,711.47,377.13,710.76 V711.67 L377.08,711.7 C376.55,711.48,376.19,711.35,375.61,711.16 Z " /><path
         id="path13820"
         fill="black"
         stroke-width="0"
         d="M382.91,708.75 L382.87,708.68 L382.82,708.62 L382.78,708.55 L382.73,708.49 L382.69,708.43 L382.65,708.38 L382.6,708.32 L382.56,708.27 L382.52,708.22 L382.47,708.18 L382.43,708.13 L382.38,708.09 L382.34,708.05 L382.29,708.02 L382.25,707.98 L382.2,707.95 L382.15,707.92 L382.11,707.89 L382.06,707.87 L382.01,707.84 L381.96,707.82 L381.91,707.8 L381.86,707.78 L381.81,707.77 L381.76,707.75 L381.71,707.74 L381.65,707.73 L381.6,707.72 L381.54,707.72 L381.49,707.71 L381.43,707.71 L381.37,707.71 C380.8,707.71,380.38,708,380.09,708.57 C379.91,708.94,379.84,709.27,379.82,709.88 L379.84,710.2 C379.95,710.97,380.29,711.34,380.89,711.34 C381.5,711.34,381.74,711.06,381.87,710.2 H379.84 L379.82,709.88 H382.88 C382.8,710.52,382.7,710.81,382.45,711.13 C382.16,711.49,381.7,711.7,381.18,711.7 C380.68,711.7,380.22,711.52,379.84,711.18 C379.37,710.77,379.1,710.07,379.1,709.25 C379.1,707.88,379.82,707.03,380.96,707.03 C381.91,707.03,382.65,707.61,383.07,708.68 Z " /><path
         id="path13822"
         fill="black"
         stroke-width="0"
         d="M383.37,711.03 L383.38,711.03 L383.4,711.03 L383.41,711.03 L383.43,711.03 L383.45,711.04 L383.46,711.04 L383.48,711.04 L383.49,711.04 L383.52,711.04 L383.54,711.04 L383.55,711.04 L383.57,711.04 L383.58,711.04 L383.6,711.04 L383.61,711.04 C383.95,711.04,384.02,710.94,384.02,710.47 V705.82 C384.02,705.31,383.91,705.2,383.33,705.14 V704.97 H385.73 V705.15 C384.99,705.16,384.86,705.27,384.86,705.89 V707.45 C385.21,707.12,385.45,707.03,385.86,707.03 L385.89,707.34 C385.43,707.34,384.86,707.7,384.86,708 V710.44 C384.86,710.74,385.42,711.1,385.87,711.1 C386.61,711.1,387.1,710.34,387.1,709.19 C387.1,708.09,386.61,707.34,385.89,707.34 L385.86,707.03 C387.04,707.03,387.95,708.14,387.95,709.58 C387.95,710.81,387.26,711.7,386.29,711.7 C385.73,711.7,385.3,711.45,384.86,710.91 V711.67 L384.8,711.7 C384.26,711.49,383.91,711.36,383.37,711.19 Z " /><path
         id="path13824"
         fill="black"
         stroke-width="0"
         d="M388.33,711 L388.34,711 L388.35,711 L388.37,711.01 L388.38,711.01 L388.4,711.01 L388.42,711.02 L388.45,711.02 L388.47,711.02 L388.49,711.03 L388.51,711.03 L388.53,711.03 L388.55,711.03 L388.57,711.04 L388.59,711.04 L388.61,711.04 L388.63,711.04 L388.65,711.04 L388.68,711.04 C388.92,711.04,389.01,710.88,389.01,710.44 V707.96 C389.01,707.46,388.94,707.39,388.31,707.27 V707.12 H390.7 V707.27 C390.02,707.3,389.85,707.45,389.85,708.02 V710.25 C389.85,710.57,390.28,711.07,390.55,711.07 C390.61,711.07,390.7,711.02,390.8,710.92 C390.96,710.78,391.07,710.72,391.2,710.72 C391.44,710.72,391.59,710.89,391.59,711.17 C391.59,711.5,391.38,711.7,391.04,711.7 C390.63,711.7,390.34,711.47,389.85,710.76 V711.67 L389.8,711.7 C389.27,711.48,388.91,711.35,388.33,711.16 Z " /><path
         id="path13826"
         fill="black"
         stroke-width="0"
         d="M395.64,708.75 L395.59,708.68 L395.55,708.62 L395.5,708.55 L395.46,708.49 L395.41,708.43 L395.37,708.38 L395.33,708.32 L395.28,708.27 L395.24,708.22 L395.19,708.18 L395.15,708.13 L395.1,708.09 L395.06,708.05 L395.01,708.02 L394.97,707.98 L394.92,707.95 L394.88,707.92 L394.83,707.89 L394.78,707.87 L394.73,707.84 L394.69,707.82 L394.64,707.8 L394.59,707.78 L394.54,707.77 L394.48,707.75 L394.43,707.74 L394.38,707.73 L394.32,707.72 L394.27,707.72 L394.21,707.71 L394.15,707.71 L394.09,707.71 C393.52,707.71,393.1,708,392.81,708.57 C392.63,708.94,392.56,709.27,392.54,709.88 L392.56,710.2 C392.67,710.97,393.01,711.34,393.61,711.34 C394.22,711.34,394.46,711.06,394.59,710.2 H392.56 L392.54,709.88 H395.61 C395.52,710.52,395.43,710.81,395.18,711.13 C394.88,711.49,394.42,711.7,393.9,711.7 C393.41,711.7,392.94,711.52,392.56,711.18 C392.09,710.77,391.82,710.07,391.82,709.25 C391.82,707.88,392.54,707.03,393.68,707.03 C394.63,707.03,395.38,707.61,395.79,708.68 Z " /><path
         id="path13828"
         fill="black"
         stroke-width="0"
         d="M399.13,710.24 L399.09,711.59 H398.98 L398.96,711.58 C398.87,711.51,398.86,711.5,398.82,711.5 C398.77,711.5,398.67,711.52,398.56,711.57 C398.34,711.65,398.12,711.68,397.86,711.68 C397.07,711.68,396.51,711.18,396.51,710.46 C396.51,709.91,396.83,709.51,397.67,709.03 L398.25,708.7 C398.6,708.51,398.77,708.27,398.77,707.96 C398.77,707.52,398.45,707.24,397.94,707.24 C397.6,707.24,397.29,707.37,397.1,707.59 C396.89,707.84,396.8,708.07,396.67,708.64 H396.52 V707.09 H396.64 C396.71,707.18,396.76,707.2,396.87,707.2 C396.96,707.2,397.1,707.18,397.33,707.12 C397.61,707.07,397.88,707.03,398.06,707.03 C398.82,707.03,399.46,707.6,399.46,708.3 C399.46,708.79,399.22,709.12,398.62,709.48 L397.55,710.11 C397.27,710.27,397.12,710.52,397.12,710.79 C397.12,711.19,397.43,711.47,397.89,711.47 C398.46,711.47,398.76,711.13,398.98,710.24 Z " /><path
         id="path13830"
         fill="black"
         stroke-width="0"
         d="M403.93,708.75 L403.89,708.68 L403.84,708.62 L403.8,708.55 L403.76,708.49 L403.71,708.43 L403.67,708.38 L403.62,708.32 L403.58,708.27 L403.54,708.22 L403.49,708.18 L403.45,708.13 L403.4,708.09 L403.36,708.05 L403.31,708.02 L403.27,707.98 L403.22,707.95 L403.18,707.92 L403.13,707.89 L403.08,707.87 L403.03,707.84 L402.98,707.82 L402.93,707.8 L402.88,707.78 L402.83,707.77 L402.78,707.75 L402.73,707.74 L402.68,707.73 L402.62,707.72 L402.56,707.72 L402.51,707.71 L402.45,707.71 L402.39,707.71 C401.82,707.71,401.4,708,401.11,708.57 C400.93,708.94,400.86,709.27,400.84,709.88 L400.86,710.2 C400.97,710.97,401.31,711.34,401.91,711.34 C402.52,711.34,402.76,711.06,402.89,710.2 H400.86 L400.84,709.88 H403.9 C403.82,710.52,403.73,710.81,403.48,711.13 C403.18,711.49,402.72,711.7,402.2,711.7 C401.7,711.7,401.24,711.52,400.86,711.18 C400.39,710.77,400.12,710.07,400.12,709.25 C400.12,707.88,400.84,707.03,401.98,707.03 C402.93,707.03,403.67,707.61,404.09,708.68 Z " /><path
         id="path13832"
         fill="black"
         stroke-width="0"
         d="M404.46,711.08 L404.46,711.08 L404.47,711.08 L404.47,711.09 L404.48,711.09 L404.49,711.09 L404.49,711.09 L404.5,711.1 L404.51,711.1 L404.52,711.1 L404.52,711.1 L404.54,711.1 L404.56,711.11 L404.57,711.11 L404.59,711.11 L404.61,711.11 L404.63,711.11 L404.65,711.12 L404.66,711.12 L404.68,711.12 L404.7,711.12 L404.73,711.12 C405,711.12,405.09,710.97,405.09,710.48 V708.02 C405.09,707.45,404.98,707.31,404.48,707.27 V707.12 H406.59 V707.27 C406.08,707.31,405.93,707.43,405.93,707.79 V710.58 C406.41,711.03,406.63,711.15,406.95,711.15 C407.44,711.15,407.68,710.84,407.68,710.18 V708.11 C407.68,707.48,407.55,707.31,407.05,707.27 V707.12 H409.12 V707.27 C408.64,707.32,408.52,707.44,408.52,707.93 V710.2 C408.52,711.14,408.08,711.7,407.34,711.7 C406.88,711.7,406.58,711.53,405.9,710.89 V711.67 L405.83,711.7 C405.34,711.52,405,711.41,404.46,711.25 Z " /><path
         id="path13834"
         fill="black"
         stroke-width="0"
         d="M411.82,711.59 H410.81 V712.75 C410.81,712.85,410.8,712.88,410.74,712.88 C410.67,712.79,410.61,712.7,410.54,712.6 C410.16,712.05,409.74,711.58,409.58,711.54 C409.47,711.47,409.41,711.4,409.41,711.35 C409.41,711.32,409.42,711.3,409.45,711.28 H409.98 V708.29 C409.98,707.45,410.27,707.03,410.86,707.03 C411.35,707.03,411.73,707.26,412.05,707.78 L411.92,707.89 C411.72,707.64,411.55,707.54,411.33,707.54 C410.96,707.54,410.81,707.81,410.81,708.44 V711.28 H411.82 Z " /><path
         id="path13836"
         fill="black"
         stroke-width="0"
         d="M416.45,707.78 L416.43,707.77 L416.41,707.76 L416.4,707.74 L416.38,707.73 L416.37,707.72 L416.36,707.71 L416.34,707.7 L416.33,707.69 L416.31,707.68 L416.3,707.68 L416.29,707.67 L416.27,707.66 L416.26,707.65 L416.25,707.65 L416.23,707.64 L416.22,707.63 L416.21,707.63 L416.19,707.62 L416.18,707.62 L416.17,707.62 L416.15,707.61 L416.14,707.61 L416.13,707.6 L416.12,707.6 L416.09,707.6 L416.06,707.59 L416.04,707.59 L416.01,707.59 C415.78,707.59,415.71,707.73,415.71,708.17 V710.1 C415.71,710.62,415.66,710.91,415.51,711.15 C415.29,711.51,414.86,711.7,414.28,711.7 C413.34,711.7,412.61,711.21,412.61,710.58 C412.61,710.35,412.8,710.16,413.03,710.16 C413.27,710.16,413.48,710.35,413.48,710.57 C413.48,710.61,413.47,710.66,413.46,710.73 C413.44,710.82,413.43,710.9,413.43,710.97 C413.43,711.24,413.75,711.46,414.15,711.46 C414.64,711.46,414.9,711.17,414.9,710.63 V710.03 V709.79 V708.35 C414.9,708.04,414.85,707.95,414.64,707.83 C414.41,707.69,414.13,707.6,413.92,707.6 C413.57,707.6,413.29,707.94,413.29,708.37 V708.41 C413.29,708.99,413.7,709.35,414.9,709.79 V710.03 C413.37,709.41,413.2,709.33,412.77,708.95 C412.56,708.75,412.42,708.42,412.42,708.09 C412.42,707.46,412.85,707.03,413.46,707.03 C413.9,707.03,414.31,707.23,414.91,707.75 C414.96,707.23,415.14,707.03,415.55,707.03 C415.89,707.03,416.1,707.15,416.45,707.52 Z " /><path
         id="path13838"
         fill="black"
         stroke-width="0"
         d="M419.01,711.59 H418 V712.75 C418,712.85,417.99,712.88,417.93,712.88 C417.86,712.79,417.8,712.7,417.73,712.6 C417.36,712.05,416.93,711.58,416.77,711.54 C416.66,711.47,416.6,711.4,416.6,711.35 C416.6,711.32,416.61,711.3,416.64,711.28 H417.17 V708.29 C417.17,707.45,417.47,707.03,418.05,707.03 C418.54,707.03,418.92,707.26,419.25,707.78 L419.12,707.89 C418.91,707.64,418.74,707.54,418.52,707.54 C418.15,707.54,418,707.81,418,708.44 V711.28 H419.01 Z " /><path
         id="path13840"
         fill="black"
         stroke-width="0"
         d="M420.98,711.7 L419.44,711.15 V711 L419.52,711.01 C419.64,711.03,419.77,711.04,419.86,711.04 C420.1,711.04,420.19,710.88,420.19,710.44 V708.14 C420.19,707.42,420.09,707.31,419.4,707.27 V707.12 H421.76 V707.27 C421.1,707.32,421.02,707.42,421.02,708.14 V711.66 Z " /><path
         id="path13842"
         fill="black"
         stroke-width="0"
         d="M420.52,713.91 L420.49,713.91 L420.47,713.91 L420.44,713.9 L420.42,713.9 L420.39,713.89 L420.37,713.89 L420.35,713.88 L420.32,713.87 L420.3,713.86 L420.28,713.85 L420.26,713.84 L420.24,713.82 L420.22,713.81 L420.2,713.79 L420.18,713.78 L420.17,713.76 L420.15,713.74 L420.13,713.72 L420.12,713.71 L420.1,713.69 L420.09,713.67 L420.08,713.64 L420.07,713.62 L420.06,713.6 L420.05,713.58 L420.04,713.55 L420.03,713.53 L420.03,713.5 L420.02,713.48 L420.02,713.45 L420.02,713.43 L420.02,713.4 C420.02,713.12,420.24,712.9,420.52,712.9 C420.8,712.9,421.03,713.11,421.03,713.4 C421.03,713.68,420.8,713.91,420.52,713.91 Z " /><path
         id="path13844"
         fill="black"
         stroke-width="0"
         d="M424.5,711.7 L424.38,711.69 L424.26,711.68 L424.14,711.67 L424.03,711.65 L423.92,711.63 L423.82,711.6 L423.71,711.56 L423.61,711.52 L423.51,711.48 L423.42,711.43 L423.32,711.38 L423.23,711.32 L423.15,711.26 L423.07,711.19 L422.99,711.12 L422.91,711.05 L422.84,710.97 L422.78,710.89 L422.71,710.8 L422.65,710.71 L422.6,710.61 L422.55,710.52 L422.5,710.42 L422.46,710.31 L422.42,710.2 L422.39,710.09 L422.36,709.98 L422.34,709.86 L422.32,709.74 L422.31,709.62 L422.3,709.5 L422.3,709.37 C422.3,708.03,423.23,707.03,424.48,707.03 L424.6,707.3 C424.21,707.3,423.84,707.54,423.63,707.94 C423.35,708.46,423.2,709.15,423.2,709.86 C423.2,710.8,423.66,711.42,424.37,711.42 H424.37 C425.2,711.42,425.79,710.46,425.79,709.1 C425.79,707.98,425.34,707.3,424.6,707.3 L424.48,707.03 C425.73,707.03,426.69,708.08,426.69,709.45 C426.69,710.75,425.77,711.7,424.5,711.7 Z " /><path
         id="path13846"
         fill="black"
         stroke-width="0"
         d="M427.15,711.08 L427.16,711.08 L427.16,711.08 L427.17,711.09 L427.18,711.09 L427.18,711.09 L427.19,711.09 L427.2,711.1 L427.2,711.1 L427.21,711.1 L427.22,711.1 L427.23,711.1 L427.25,711.11 L427.27,711.11 L427.28,711.11 L427.3,711.11 L427.32,711.11 L427.34,711.12 L427.36,711.12 L427.38,711.12 L427.4,711.12 L427.42,711.12 C427.7,711.12,427.79,710.97,427.79,710.48 V708.02 C427.79,707.45,427.68,707.31,427.17,707.27 V707.12 H429.28 V707.27 C428.77,707.31,428.62,707.43,428.62,707.79 V710.58 C429.1,711.03,429.32,711.15,429.65,711.15 C430.14,711.15,430.38,710.84,430.38,710.18 V708.11 C430.38,707.48,430.25,707.31,429.75,707.27 V707.12 H431.82 V707.27 C431.33,707.32,431.21,707.44,431.21,707.93 V710.2 C431.21,711.14,430.77,711.7,430.04,711.7 C429.58,711.7,429.27,711.53,428.59,710.89 V711.67 L428.52,711.7 C428.04,711.52,427.7,711.41,427.15,711.25 Z " /><path
         id="path13848"
         fill="black"
         stroke-width="0"
         d="M436.95,711.7 L436.83,711.69 L436.71,711.68 L436.6,711.67 L436.49,711.65 L436.38,711.63 L436.27,711.6 L436.16,711.56 L436.06,711.52 L435.96,711.48 L435.87,711.43 L435.78,711.38 L435.69,711.32 L435.6,711.26 L435.52,711.19 L435.44,711.12 L435.37,711.05 L435.3,710.97 L435.23,710.89 L435.17,710.8 L435.11,710.71 L435.05,710.61 L435,710.52 L434.96,710.42 L434.91,710.31 L434.88,710.2 L434.85,710.09 L434.82,709.98 L434.79,709.86 L434.78,709.74 L434.76,709.62 L434.76,709.5 L434.75,709.37 C434.75,708.03,435.68,707.03,436.93,707.03 L437.05,707.3 C436.66,707.3,436.3,707.54,436.09,707.94 C435.81,708.46,435.65,709.15,435.65,709.86 C435.65,710.8,436.12,711.42,436.82,711.42 H436.82 C437.66,711.42,438.24,710.46,438.24,709.1 C438.24,707.98,437.8,707.3,437.05,707.3 L436.93,707.03 C438.18,707.03,439.14,708.08,439.14,709.45 C439.14,710.75,438.23,711.7,436.95,711.7 Z " /><path
         id="path13850"
         fill="black"
         stroke-width="0"
         d="M442.52,711.59 H441.3 V712.75 C441.3,713.32,441.48,713.63,441.86,713.63 C442.07,713.63,442.21,713.53,442.39,713.24 C442.55,712.99,442.67,712.89,442.84,712.89 C443.07,712.89,443.26,713.07,443.26,713.29 C443.26,713.65,442.82,713.91,442.22,713.91 C441.6,713.91,441.08,713.64,440.82,713.18 C440.56,712.75,440.48,712.39,440.47,711.59 H439.65 V711.28 H440.47 V708.16 C440.47,707.43,440.36,707.31,439.64,707.27 V707.12 H442.23 V707.27 C441.42,707.3,441.31,707.41,441.31,708.16 V711.28 H442.52 Z " /><polygon
         id="polygon13852"
         fill="black"
         stroke-width="0"
         points="450.69,709.4 450.69,709.96 445.59,709.96 445.59,709.4 " /><path
         id="path13854"
         fill="black"
         stroke-width="0"
         d="M456.42,713.84 L454.63,712.94 V712.8 C454.75,712.85,454.86,712.89,454.9,712.91 C455.08,712.98,455.25,713.02,455.35,713.02 C455.56,713.02,455.65,712.87,455.65,712.55 V708.05 C455.65,707.72,455.57,707.49,455.41,707.4 C455.26,707.31,455.12,707.28,454.7,707.27 V707.12 H457.45 V707.27 C456.66,707.28,456.5,707.38,456.5,707.86 V713.82 Z " /><path
         id="path13856"
         fill="black"
         stroke-width="0"
         d="M461.04,713.84 L460.99,713.84 L460.93,713.84 L460.89,713.84 L460.84,713.83 L460.79,713.83 L460.74,713.82 L460.69,713.82 L460.65,713.81 L460.6,713.8 L460.56,713.79 L460.51,713.78 L460.47,713.77 L460.43,713.76 L460.39,713.74 L460.34,713.73 L460.3,713.71 L460.26,713.7 L460.22,713.68 L460.18,713.66 L460.14,713.64 L460.1,713.62 L460.07,713.6 L460.03,713.57 L459.99,713.55 L459.95,713.53 L459.92,713.5 L459.88,713.47 L459.84,713.45 L459.81,713.42 L459.77,713.39 L459.74,713.36 L459.7,713.32 C459.13,712.77,458.75,711.62,458.75,710.46 C458.75,709.38,459.08,708.22,459.54,707.66 C459.91,707.22,460.42,706.99,461,706.99 V707.24 C460.14,707.24,459.7,708.31,459.7,710.37 C459.7,712.48,460.15,713.58,461.01,713.58 H461.01 C461.84,713.58,462.29,712.46,462.29,710.38 C462.29,708.31,461.85,707.24,461,707.24 V706.99 C461.5,706.99,461.93,707.16,462.29,707.5 C462.87,708.05,463.24,709.2,463.24,710.4 C463.24,712.44,462.34,713.84,461.04,713.84 Z " /><path
         id="path13858"
         fill="black"
         stroke-width="0"
         d="M466.02,713.84 L465.97,713.84 L465.92,713.84 L465.87,713.84 L465.82,713.83 L465.77,713.83 L465.72,713.82 L465.68,713.82 L465.63,713.81 L465.58,713.8 L465.54,713.79 L465.5,713.78 L465.45,713.77 L465.41,713.76 L465.37,713.74 L465.33,713.73 L465.28,713.71 L465.24,713.7 L465.2,713.68 L465.16,713.66 L465.12,713.64 L465.08,713.62 L465.05,713.6 L465.01,713.57 L464.97,713.55 L464.93,713.53 L464.9,713.5 L464.86,713.47 L464.82,713.45 L464.79,713.42 L464.75,713.39 L464.72,713.36 L464.68,713.32 C464.11,712.77,463.73,711.62,463.73,710.46 C463.73,709.38,464.06,708.22,464.52,707.66 C464.89,707.22,465.4,706.99,465.98,706.99 V707.24 C465.12,707.24,464.68,708.31,464.68,710.37 C464.68,712.48,465.13,713.58,465.99,713.58 H465.99 C466.82,713.58,467.27,712.46,467.27,710.38 C467.27,708.31,466.83,707.24,465.98,707.24 V706.99 C466.48,706.99,466.91,707.16,467.27,707.5 C467.85,708.05,468.23,709.2,468.23,710.4 C468.23,712.44,467.32,713.84,466.02,713.84 Z " /><path
         id="path13860"
         fill="black"
         stroke-width="0"
         d="M471,713.84 L470.95,713.84 L470.9,713.84 L470.85,713.84 L470.8,713.83 L470.75,713.83 L470.7,713.82 L470.66,713.82 L470.61,713.81 L470.57,713.8 L470.52,713.79 L470.48,713.78 L470.43,713.77 L470.39,713.76 L470.35,713.74 L470.31,713.73 L470.27,713.71 L470.22,713.7 L470.18,713.68 L470.14,713.66 L470.11,713.64 L470.07,713.62 L470.03,713.6 L469.99,713.57 L469.95,713.55 L469.92,713.53 L469.88,713.5 L469.84,713.47 L469.81,713.45 L469.77,713.42 L469.74,713.39 L469.7,713.36 L469.67,713.32 C469.09,712.77,468.71,711.62,468.71,710.46 C468.71,709.38,469.04,708.22,469.51,707.66 C469.88,707.22,470.38,706.99,470.96,706.99 V707.24 C470.1,707.24,469.67,708.31,469.67,710.37 C469.67,712.48,470.11,713.58,470.97,713.58 H470.97 C471.8,713.58,472.25,712.46,472.25,710.38 C472.25,708.31,471.82,707.24,470.96,707.24 V706.99 C471.47,706.99,471.89,707.16,472.25,707.5 C472.83,708.05,473.21,709.2,473.21,710.4 C473.21,712.44,472.3,713.84,471,713.84 Z " /><path
         id="path13862"
         fill="black"
         stroke-width="0"
         d="M475.98,713.84 L475.93,713.84 L475.88,713.84 L475.83,713.84 L475.78,713.83 L475.73,713.83 L475.69,713.82 L475.64,713.82 L475.59,713.81 L475.55,713.8 L475.5,713.79 L475.46,713.78 L475.41,713.77 L475.37,713.76 L475.33,713.74 L475.29,713.73 L475.25,713.71 L475.21,713.7 L475.17,713.68 L475.13,713.66 L475.09,713.64 L475.05,713.62 L475.01,713.6 L474.97,713.57 L474.93,713.55 L474.9,713.53 L474.86,713.5 L474.82,713.47 L474.79,713.45 L474.75,713.42 L474.72,713.39 L474.68,713.36 L474.65,713.32 C474.07,712.77,473.69,711.62,473.69,710.46 C473.69,709.38,474.02,708.22,474.49,707.66 C474.86,707.22,475.36,706.99,475.94,706.99 V707.24 C475.08,707.24,474.65,708.31,474.65,710.37 C474.65,712.48,475.1,713.58,475.95,713.58 H475.95 C476.79,713.58,477.23,712.46,477.23,710.38 C477.23,708.31,476.8,707.24,475.94,707.24 V706.99 C476.45,706.99,476.88,707.16,477.23,707.5 C477.81,708.05,478.19,709.2,478.19,710.4 C478.19,712.44,477.28,713.84,475.98,713.84 Z " /><polygon
         id="polygon13864"
         fill="black"
         stroke-width="0"
         points="486.91,710.4 486.91,710.96 481.82,710.96 481.82,710.4 " /><polygon
         id="polygon13866"
         fill="black"
         stroke-width="0"
         points="486.91,708.39 486.91,708.94 481.82,708.94 481.82,708.39 " /></g>    <g
       id="content"
       transform="matrix(1.2,0,0,-1.2,-323.0257,1662.4368)"
       xml:space="preserve"
       stroke="black"
       stroke-linecap="butt"
       stroke-linejoin="miter"
       stroke-miterlimit="10.433"
       stroke-dasharray="none"
       stroke-dashoffset="0"
       stroke-opacity="1"
       fill="none"
       fill-rule="evenodd"
       fill-opacity="1"
       font-style="normal"
       font-variant="normal"
       font-weight="normal"
       font-stretch="normal"
       font-size-adjust="none"
       letter-spacing="normal"
       word-spacing="normal"
       text-anchor="start"
       ns0:text="\\begin{align*}\nM&amp; = 11010\\\\\nN&amp; = -10000\n\\end{align*}"
       ns0:preamble="/home/sriranga/Desktop/Prism_BasicElectronics/preamble.tex"
       style="font-style:normal;font-variant:normal;font-weight:normal;font-stretch:normal;letter-spacing:normal;word-spacing:normal;text-anchor:start;fill:none;stroke:#000000;stroke-width:1;stroke-linecap:butt;stroke-linejoin:miter;stroke-miterlimit:10.43299961;stroke-opacity:1;stroke-dasharray:none;stroke-dashoffset:0"><path
         d="M378.32,713.61 H376.65 L373.31,708.71 L372.77,713.61 H370.96 V713.45 C371.46,713.42,371.7,713.31,371.7,713.09 C371.7,713.01,371.66,712.86,371.6,712.68 C371.58,712.64,371.55,712.53,371.51,712.38 C371.5,712.35,371.49,712.31,371.48,712.27 L370.43,708.58 C370.12,707.54,369.97,707.34,369.45,707.28 V707.12 H371.42 V707.28 C370.91,707.32,370.71,707.44,370.71,707.72 C370.71,707.82,370.76,708.08,370.8,708.25 L371.98,712.55 L372.59,707.12 H372.76 L376.51,712.7 L375.22,708.03 C375.06,707.5,374.86,707.35,374.22,707.28 V707.12 H376.93 V707.28 C376.26,707.34,376.17,707.4,376.17,707.71 C376.17,707.88,376.19,708.01,376.28,708.32 L377.5,712.72 C377.68,713.31,377.73,713.36,378.32,713.45 Z "
         stroke-width="0"
         fill="black"
         id="path14101" /><polygon
         points="386.81,710.4 386.81,710.96 381.71,710.96 381.71,710.4 "
         stroke-width="0"
         fill="black"
         id="polygon14103" /><polygon
         points="386.81,708.39 386.81,708.94 381.71,708.94 381.71,708.39 "
         stroke-width="0"
         fill="black"
         id="polygon14105" /><path
         d="M393.09,713.84 L391.3,712.94 V712.8 C391.42,712.85,391.53,712.89,391.57,712.91 C391.75,712.98,391.92,713.02,392.02,713.02 C392.23,713.02,392.32,712.87,392.32,712.55 V708.05 C392.32,707.72,392.24,707.49,392.08,707.4 C391.93,707.31,391.79,707.28,391.37,707.27 V707.12 H394.12 V707.27 C393.33,707.28,393.17,707.38,393.17,707.86 V713.82 Z "
         stroke-width="0"
         fill="black"
         id="path14107" /><path
         d="M398.08,713.84 L396.29,712.94 V712.8 C396.4,712.85,396.51,712.89,396.55,712.91 C396.73,712.98,396.9,713.02,397,713.02 C397.21,713.02,397.3,712.87,397.3,712.55 V708.05 C397.3,707.72,397.22,707.49,397.06,707.4 C396.91,707.31,396.77,707.28,396.35,707.27 V707.12 H399.1 V707.27 C398.31,707.28,398.15,707.38,398.15,707.86 V713.82 Z "
         stroke-width="0"
         fill="black"
         id="path14109" /><path
         d="M402.69,713.84 L402.64,713.84 L402.59,713.84 L402.54,713.84 L402.49,713.83 L402.44,713.83 L402.39,713.82 L402.35,713.82 L402.3,713.81 L402.26,713.8 L402.21,713.79 L402.17,713.78 L402.12,713.77 L402.08,713.76 L402.04,713.74 L402,713.73 L401.95,713.71 L401.91,713.7 L401.87,713.68 L401.83,713.66 L401.79,713.64 L401.76,713.62 L401.72,713.6 L401.68,713.57 L401.64,713.55 L401.6,713.53 L401.57,713.5 L401.53,713.47 L401.5,713.45 L401.46,713.42 L401.42,713.39 L401.39,713.36 L401.36,713.32 C400.78,712.77,400.4,711.62,400.4,710.46 C400.4,709.38,400.73,708.22,401.2,707.66 C401.56,707.22,402.07,706.99,402.65,706.99 V707.24 C401.79,707.24,401.36,708.31,401.36,710.37 C401.36,712.48,401.8,713.58,402.66,713.58 H402.66 C403.49,713.58,403.94,712.46,403.94,710.38 C403.94,708.31,403.5,707.24,402.65,707.24 V706.99 C403.16,706.99,403.58,707.16,403.94,707.5 C404.52,708.05,404.9,709.2,404.9,710.4 C404.9,712.44,403.99,713.84,402.69,713.84 Z "
         stroke-width="0"
         fill="black"
         id="path14111" /><path
         d="M408.04,713.84 L406.25,712.94 V712.8 C406.37,712.85,406.48,712.89,406.52,712.91 C406.7,712.98,406.86,713.02,406.96,713.02 C407.17,713.02,407.26,712.87,407.26,712.55 V708.05 C407.26,707.72,407.18,707.49,407.02,707.4 C406.87,707.31,406.73,707.28,406.32,707.27 V707.12 H409.06 V707.27 C408.28,707.28,408.12,707.38,408.12,707.86 V713.82 Z "
         stroke-width="0"
         fill="black"
         id="path14113" /><path
         d="M412.65,713.84 L412.6,713.84 L412.55,713.84 L412.5,713.84 L412.45,713.83 L412.4,713.83 L412.36,713.82 L412.31,713.82 L412.26,713.81 L412.22,713.8 L412.17,713.79 L412.13,713.78 L412.09,713.77 L412.04,713.76 L412,713.74 L411.96,713.73 L411.92,713.71 L411.88,713.7 L411.84,713.68 L411.8,713.66 L411.76,713.64 L411.72,713.62 L411.68,713.6 L411.64,713.57 L411.6,713.55 L411.57,713.53 L411.53,713.5 L411.49,713.47 L411.46,713.45 L411.42,713.42 L411.39,713.39 L411.35,713.36 L411.32,713.32 C410.74,712.77,410.36,711.62,410.36,710.46 C410.36,709.38,410.69,708.22,411.16,707.66 C411.53,707.22,412.03,706.99,412.61,706.99 V707.24 C411.76,707.24,411.32,708.31,411.32,710.37 C411.32,712.48,411.77,713.58,412.62,713.58 H412.62 C413.46,713.58,413.9,712.46,413.9,710.38 C413.9,708.31,413.47,707.24,412.61,707.24 V706.99 C413.12,706.99,413.55,707.16,413.9,707.5 C414.48,708.05,414.86,709.2,414.86,710.4 C414.86,712.44,413.95,713.84,412.65,713.84 Z "
         stroke-width="0"
         fill="black"
         id="path14115" /><path
         d="M378.32,698.67 H376.34 V698.51 C376.91,698.46,377.04,698.36,377.04,698 C377.04,697.88,377.02,697.76,376.95,697.57 C376.94,697.53,376.93,697.5,376.93,697.49 L375.91,693.71 L373.84,698.67 H372.24 V698.51 C372.71,698.47,372.92,698.34,373.1,697.95 L371.91,693.81 C371.53,692.54,371.45,692.42,370.89,692.34 V692.18 H372.86 V692.34 C372.35,692.38,372.16,692.49,372.16,692.77 C372.16,692.9,372.19,693.09,372.25,693.3 L373.38,697.5 L375.67,692.03 H375.85 L377.28,697.03 C377.65,698.31,377.69,698.37,378.32,698.51 Z "
         stroke-width="0"
         fill="black"
         id="path14117" /><polygon
         points="386.81,695.46 386.81,696.02 381.71,696.02 381.71,695.46 "
         stroke-width="0"
         fill="black"
         id="polygon14119" /><polygon
         points="386.81,693.44 386.81,694 381.71,694 381.71,693.44 "
         stroke-width="0"
         fill="black"
         id="polygon14121" /><polygon
         points="395.91,694.46 395.91,695.01 390.82,695.01 390.82,694.46 "
         stroke-width="0"
         fill="black"
         id="polygon14123" /><path
         d="M399.43,698.9 L397.64,697.99 V697.85 C397.76,697.9,397.87,697.94,397.91,697.96 C398.09,698.03,398.26,698.07,398.36,698.07 C398.57,698.07,398.65,697.92,398.65,697.6 V693.1 C398.65,692.78,398.58,692.55,398.42,692.46 C398.27,692.37,398.13,692.34,397.71,692.33 V692.18 H400.46 V692.33 C399.67,692.34,399.51,692.44,399.51,692.92 V698.88 Z "
         stroke-width="0"
         fill="black"
         id="path14125" /><path
         d="M404.04,698.9 L403.99,698.9 L403.94,698.89 L403.89,698.89 L403.84,698.89 L403.8,698.88 L403.75,698.88 L403.7,698.87 L403.66,698.86 L403.61,698.86 L403.57,698.85 L403.52,698.84 L403.48,698.82 L403.44,698.81 L403.39,698.8 L403.35,698.78 L403.31,698.77 L403.27,698.75 L403.23,698.73 L403.19,698.72 L403.15,698.7 L403.11,698.68 L403.07,698.65 L403.04,698.63 L403,698.61 L402.96,698.58 L402.92,698.56 L402.89,698.53 L402.85,698.5 L402.82,698.47 L402.78,698.44 L402.75,698.41 L402.71,698.38 C402.13,697.82,401.76,696.68,401.76,695.52 C401.76,694.44,402.08,693.27,402.55,692.72 C402.92,692.28,403.43,692.04,404.01,692.04 V692.3 C403.15,692.3,402.71,693.36,402.71,695.43 C402.71,697.53,403.16,698.64,404.02,698.64 H404.02 C404.85,698.64,405.3,697.52,405.3,695.44 C405.3,693.36,404.86,692.3,404.01,692.3 V692.04 C404.51,692.04,404.94,692.21,405.3,692.56 C405.88,693.1,406.25,694.26,406.25,695.46 C406.25,697.5,405.35,698.9,404.04,698.9 Z "
         stroke-width="0"
         fill="black"
         id="path14127" /><path
         d="M409.03,698.9 L408.98,698.9 L408.92,698.89 L408.88,698.89 L408.83,698.89 L408.78,698.88 L408.73,698.88 L408.68,698.87 L408.64,698.86 L408.59,698.86 L408.55,698.85 L408.5,698.84 L408.46,698.82 L408.42,698.81 L408.38,698.8 L408.33,698.78 L408.29,698.77 L408.25,698.75 L408.21,698.73 L408.17,698.72 L408.13,698.7 L408.09,698.68 L408.05,698.65 L408.02,698.63 L407.98,698.61 L407.94,698.58 L407.91,698.56 L407.87,698.53 L407.83,698.5 L407.8,698.47 L407.76,698.44 L407.73,698.41 L407.69,698.38 C407.11,697.82,406.74,696.68,406.74,695.52 C406.74,694.44,407.07,693.27,407.53,692.72 C407.9,692.28,408.41,692.04,408.99,692.04 V692.3 C408.13,692.3,407.69,693.36,407.69,695.43 C407.69,697.53,408.14,698.64,409,698.64 H409 C409.83,698.64,410.28,697.52,410.28,695.44 C410.28,693.36,409.84,692.3,408.99,692.3 V692.04 C409.49,692.04,409.92,692.21,410.28,692.56 C410.86,693.1,411.23,694.26,411.23,695.46 C411.23,697.5,410.33,698.9,409.03,698.9 Z "
         stroke-width="0"
         fill="black"
         id="path14129" /><path
         d="M414.01,698.9 L413.96,698.9 L413.91,698.89 L413.86,698.89 L413.81,698.89 L413.76,698.88 L413.71,698.88 L413.67,698.87 L413.62,698.86 L413.57,698.86 L413.53,698.85 L413.49,698.84 L413.44,698.82 L413.4,698.81 L413.36,698.8 L413.31,698.78 L413.27,698.77 L413.23,698.75 L413.19,698.73 L413.15,698.72 L413.11,698.7 L413.07,698.68 L413.04,698.65 L413,698.63 L412.96,698.61 L412.92,698.58 L412.89,698.56 L412.85,698.53 L412.81,698.5 L412.78,698.47 L412.74,698.44 L412.71,698.41 L412.67,698.38 C412.1,697.82,411.72,696.68,411.72,695.52 C411.72,694.44,412.05,693.27,412.52,692.72 C412.88,692.28,413.39,692.04,413.97,692.04 V692.3 C413.11,692.3,412.67,693.36,412.67,695.43 C412.67,697.53,413.12,698.64,413.98,698.64 H413.98 C414.81,698.64,415.26,697.52,415.26,695.44 C415.26,693.36,414.82,692.3,413.97,692.3 V692.04 C414.48,692.04,414.9,692.21,415.26,692.56 C415.84,693.1,416.22,694.26,416.22,695.46 C416.22,697.5,415.31,698.9,414.01,698.9 Z "
         stroke-width="0"
         fill="black"
         id="path14131" /><path
         d="M418.99,698.9 L418.94,698.9 L418.89,698.89 L418.84,698.89 L418.79,698.89 L418.74,698.88 L418.69,698.88 L418.65,698.87 L418.6,698.86 L418.56,698.86 L418.51,698.85 L418.47,698.84 L418.42,698.82 L418.38,698.81 L418.34,698.8 L418.3,698.78 L418.25,698.77 L418.21,698.75 L418.17,698.73 L418.13,698.72 L418.09,698.7 L418.06,698.68 L418.02,698.65 L417.98,698.63 L417.94,698.61 L417.9,698.58 L417.87,698.56 L417.83,698.53 L417.8,698.5 L417.76,698.47 L417.72,698.44 L417.69,698.41 L417.65,698.38 C417.08,697.82,416.7,696.68,416.7,695.52 C416.7,694.44,417.03,693.27,417.5,692.72 C417.86,692.28,418.37,692.04,418.95,692.04 V692.3 C418.09,692.3,417.65,693.36,417.65,695.43 C417.65,697.53,418.1,698.64,418.96,698.64 H418.96 C419.79,698.64,420.24,697.52,420.24,695.44 C420.24,693.36,419.8,692.3,418.95,692.3 V692.04 C419.46,692.04,419.88,692.21,420.24,692.56 C420.82,693.1,421.2,694.26,421.2,695.46 C421.2,697.5,420.29,698.9,418.99,698.9 Z "
         stroke-width="0"
         fill="black"
         id="path14133" /></g>    <path
       transform="translate(0,698.03016)"
       d="m 252.75325,148.06509 c 0,3.02862 -2.45518,5.4838 -5.4838,5.4838 -3.02861,0 -5.48379,-2.45518 -5.48379,-5.4838 0,-3.02861 2.45518,-5.48379 5.48379,-5.48379 3.02862,0 5.4838,2.45518 5.4838,5.48379 z"
       sodipodi:ry="5.4837985"
       sodipodi:rx="5.4837985"
       sodipodi:cy="148.06509"
       sodipodi:cx="247.26945"
       id="path14259"
       style="fill:none;stroke:#000000;stroke-width:0.5;stroke-linecap:square;stroke-linejoin:round;stroke-miterlimit:4;stroke-opacity:1;stroke-dasharray:none;stroke-dashoffset:0"
       sodipodi:type="arc" />
    <g
       style="font-style:normal;font-variant:normal;font-weight:normal;font-stretch:normal;letter-spacing:normal;word-spacing:normal;text-anchor:start;fill:none;stroke:#000000;stroke-width:1;stroke-linecap:butt;stroke-linejoin:miter;stroke-miterlimit:10.43299961;stroke-opacity:1;stroke-dasharray:none;stroke-dashoffset:0"
       ns0:preamble="/home/sriranga/Desktop/Prism_BasicElectronics/preamble.tex"
       ns0:text="$\\therefore $~ Answer~ $= -(001010)_{2}$ "
       text-anchor="start"
       word-spacing="normal"
       letter-spacing="normal"
       font-size-adjust="none"
       font-stretch="normal"
       font-weight="normal"
       font-variant="normal"
       font-style="normal"
       fill-opacity="1"
       fill-rule="evenodd"
       fill="none"
       stroke-opacity="1"
       stroke-dashoffset="0"
       stroke-dasharray="none"
       stroke-miterlimit="10.433"
       stroke-linejoin="miter"
       stroke-linecap="butt"
       stroke="black"
       xml:space="preserve"
       transform="matrix(1.2,0,0,-1.2,-86.651126,1738.0735)"
       id="g14364"><path
         id="path14366"
         fill="black"
         stroke-width="0"
         d="M227.27,711.21 L227.27,711.23 L227.27,711.26 L227.27,711.29 L227.26,711.31 L227.26,711.34 L227.25,711.36 L227.24,711.39 L227.23,711.41 L227.22,711.43 L227.21,711.46 L227.2,711.48 L227.18,711.5 L227.17,711.52 L227.15,711.54 L227.13,711.56 L227.12,711.58 L227.1,711.6 L227.08,711.61 L227.06,711.63 L227.04,711.64 L227.02,711.66 L227,711.67 L226.97,711.68 L226.95,711.69 L226.93,711.7 L226.9,711.71 L226.88,711.72 L226.85,711.72 L226.82,711.73 L226.8,711.73 L226.77,711.73 L226.74,711.73 C226.46,711.73,226.22,711.5,226.22,711.21 C226.22,710.92,226.46,710.68,226.74,710.68 C227.02,710.68,227.27,710.91,227.27,711.21 Z " /><path
         id="path14368"
         fill="black"
         stroke-width="0"
         d="M229.76,706.91 L229.76,706.93 L229.76,706.96 L229.75,706.99 L229.75,707.01 L229.74,707.04 L229.74,707.06 L229.73,707.09 L229.72,707.11 L229.71,707.13 L229.7,707.16 L229.68,707.18 L229.67,707.2 L229.65,707.22 L229.64,707.24 L229.62,707.26 L229.6,707.28 L229.59,707.3 L229.57,707.31 L229.55,707.33 L229.53,707.34 L229.5,707.36 L229.48,707.37 L229.46,707.38 L229.44,707.39 L229.41,707.4 L229.39,707.41 L229.36,707.42 L229.34,707.42 L229.31,707.43 L229.29,707.43 L229.26,707.43 L229.23,707.43 C228.94,707.43,228.71,707.19,228.71,706.91 C228.71,706.62,228.94,706.38,229.23,706.38 C229.52,706.38,229.76,706.62,229.76,706.91 Z " /><path
         id="path14370"
         fill="black"
         stroke-width="0"
         d="M224.79,706.91 L224.78,706.93 L224.78,706.96 L224.78,706.99 L224.77,707.01 L224.77,707.04 L224.76,707.06 L224.75,707.09 L224.74,707.11 L224.73,707.13 L224.72,707.16 L224.71,707.18 L224.69,707.2 L224.68,707.22 L224.66,707.24 L224.65,707.26 L224.63,707.28 L224.61,707.3 L224.59,707.31 L224.57,707.33 L224.55,707.34 L224.53,707.36 L224.51,707.37 L224.49,707.38 L224.46,707.39 L224.44,707.4 L224.41,707.41 L224.39,707.42 L224.36,707.42 L224.34,707.43 L224.31,707.43 L224.28,707.43 L224.26,707.43 C223.97,707.43,223.73,707.19,223.73,706.91 C223.73,706.62,223.97,706.38,224.26,706.38 C224.55,706.38,224.79,706.62,224.79,706.91 Z " /><path
         id="path14372"
         fill="black"
         stroke-width="0"
         d="M242.08,707.31 L242.04,707.32 L242,707.32 L241.96,707.32 L241.93,707.33 L241.89,707.34 L241.86,707.34 L241.83,707.35 L241.8,707.36 L241.77,707.37 L241.74,707.38 L241.72,707.39 L241.69,707.41 L241.67,707.42 L241.64,707.44 L241.62,707.46 L241.59,707.48 L241.57,707.51 L241.55,707.53 L241.52,707.56 L241.5,707.59 L241.48,707.62 L241.46,707.66 L241.43,707.7 L241.41,707.74 L241.38,707.78 L241.36,707.83 L241.33,707.88 L241.3,707.93 L241.28,707.99 L241.25,708.05 L241.23,708.08 L241.22,708.11 L241.2,708.14 L241.18,708.18 L238.71,713.82 H238.51 L236.44,708.94 C235.8,707.49,235.68,707.33,235.2,707.31 V707.12 H237.17 V707.31 C236.7,707.31,236.5,707.44,236.5,707.72 C236.5,707.84,236.53,707.98,236.58,708.11 L237.04,709.27 H239.64 L239.5,709.68 H237.2 L238.35,712.41 L239.5,709.68 L239.64,709.27 L240.05,708.32 C240.17,708.05,240.24,707.79,240.24,707.65 C240.24,707.4,240.07,707.32,239.54,707.31 V707.12 H242.08 Z " /><path
         id="path14374"
         fill="black"
         stroke-width="0"
         d="M242.41,711.08 L242.41,711.08 L242.42,711.08 L242.42,711.09 L242.43,711.09 L242.44,711.09 L242.44,711.09 L242.45,711.1 L242.46,711.1 L242.47,711.1 L242.47,711.1 L242.49,711.1 L242.51,711.11 L242.52,711.11 L242.54,711.11 L242.56,711.11 L242.58,711.11 L242.6,711.12 L242.62,711.12 L242.64,711.12 L242.66,711.12 L242.68,711.12 C242.95,711.12,243.04,710.97,243.04,710.48 V708.02 C243.04,707.45,242.93,707.31,242.43,707.27 V707.12 H244.54 V707.27 C244.03,707.31,243.88,707.43,243.88,707.79 V710.58 C244.36,711.03,244.58,711.15,244.9,711.15 C245.39,711.15,245.63,710.84,245.63,710.18 V708.11 C245.63,707.48,245.5,707.31,245,707.27 V707.12 H247.07 V707.27 C246.59,707.32,246.47,707.44,246.47,707.93 V710.2 C246.47,711.14,246.03,711.7,245.29,711.7 C244.84,711.7,244.53,711.53,243.85,710.89 V711.67 L243.78,711.7 C243.29,711.52,242.95,711.41,242.41,711.25 Z " /><path
         id="path14376"
         fill="black"
         stroke-width="0"
         d="M250.36,710.24 L250.32,711.59 H250.21 L250.19,711.58 C250.1,711.51,250.1,711.5,250.05,711.5 C249.99,711.5,249.9,711.52,249.79,711.57 C249.57,711.65,249.35,711.68,249.09,711.68 C248.3,711.68,247.74,711.18,247.74,710.46 C247.74,709.91,248.05,709.51,248.9,709.03 L249.48,708.7 C249.83,708.51,249.99,708.27,249.99,707.96 C249.99,707.52,249.68,707.24,249.17,707.24 C248.83,707.24,248.52,707.37,248.33,707.59 C248.12,707.84,248.04,708.07,247.91,708.64 H247.75 V707.09 H247.88 C247.95,707.18,247.99,707.2,248.1,707.2 C248.19,707.2,248.33,707.18,248.56,707.12 C248.84,707.07,249.11,707.03,249.29,707.03 C250.05,707.03,250.69,707.6,250.69,708.3 C250.69,708.79,250.45,709.12,249.86,709.48 L248.78,710.11 C248.5,710.27,248.35,710.52,248.35,710.79 C248.35,711.19,248.66,711.47,249.12,711.47 C249.69,711.47,249.99,711.13,250.21,710.24 Z " /><path
         id="path14378"
         fill="black"
         stroke-width="0"
         d="M256.79,711.59 V711.45 C257.12,711.38,257.22,711.31,257.22,711.14 C257.22,710.99,257.16,710.75,257.05,710.48 L256.16,708.28 L255.32,710.5 C255.15,710.96,255.15,710.96,255.15,711.09 C255.15,711.31,255.26,711.38,255.73,711.45 V711.59 H253.71 V711.45 C254.08,711.41,254.2,711.3,254.4,710.76 C254.47,710.57,254.54,710.38,254.6,710.2 L253.69,708.23 L252.71,710.82 C252.67,710.92,252.65,711.02,252.65,711.12 C252.65,711.33,252.77,711.41,253.1,711.45 V711.59 H251.31 V711.45 C251.54,711.43,251.62,711.33,251.84,710.82 L253.18,707.42 C253.3,707.12,253.38,706.99,253.44,706.99 C253.49,706.99,253.57,707.11,253.69,707.37 L254.81,709.76 L255.71,707.41 C255.85,707.05,255.89,706.99,255.95,706.99 C256.02,706.99,256.07,707.08,256.23,707.47 L257.6,710.91 C257.78,711.33,257.81,711.38,258.01,711.45 V711.59 Z " /><path
         id="path14380"
         fill="black"
         stroke-width="0"
         d="M262.36,708.75 L262.31,708.68 L262.27,708.62 L262.22,708.55 L262.18,708.49 L262.14,708.43 L262.09,708.38 L262.05,708.32 L262,708.27 L261.96,708.22 L261.92,708.18 L261.87,708.13 L261.83,708.09 L261.78,708.05 L261.74,708.02 L261.69,707.98 L261.65,707.95 L261.6,707.92 L261.55,707.89 L261.5,707.87 L261.46,707.84 L261.41,707.82 L261.36,707.8 L261.31,707.78 L261.26,707.77 L261.21,707.75 L261.15,707.74 L261.1,707.73 L261.04,707.72 L260.99,707.72 L260.93,707.71 L260.87,707.71 L260.82,707.71 C260.25,707.71,259.82,708,259.53,708.57 C259.35,708.94,259.28,709.27,259.26,709.88 L259.28,710.2 C259.39,710.97,259.73,711.34,260.34,711.34 C260.94,711.34,261.18,711.06,261.31,710.2 H259.28 L259.26,709.88 H262.33 C262.25,710.52,262.15,710.81,261.9,711.13 C261.6,711.49,261.14,711.7,260.63,711.7 C260.13,711.7,259.66,711.52,259.28,711.18 C258.82,710.77,258.55,710.07,258.55,709.25 C258.55,707.88,259.26,707.03,260.41,707.03 C261.35,707.03,262.1,707.61,262.52,708.68 Z " /><path
         id="path14382"
         fill="black"
         stroke-width="0"
         d="M262.79,711 L262.8,711 L262.82,711 L262.83,711.01 L262.84,711.01 L262.86,711.01 L262.89,711.02 L262.91,711.02 L262.93,711.02 L262.95,711.03 L262.97,711.03 L262.99,711.03 L263.01,711.03 L263.03,711.04 L263.05,711.04 L263.07,711.04 L263.1,711.04 L263.12,711.04 L263.14,711.04 C263.39,711.04,263.48,710.88,263.48,710.44 V707.96 C263.48,707.46,263.41,707.39,262.77,707.27 V707.12 H265.16 V707.27 C264.48,707.3,264.31,707.45,264.31,708.02 V710.25 C264.31,710.57,264.74,711.07,265.01,711.07 C265.07,711.07,265.16,711.02,265.27,710.92 C265.43,710.78,265.54,710.72,265.67,710.72 C265.9,710.72,266.05,710.89,266.05,711.17 C266.05,711.5,265.85,711.7,265.51,711.7 C265.09,711.7,264.8,711.47,264.31,710.76 V711.67 L264.26,711.7 C263.74,711.48,263.38,711.35,262.79,711.16 Z " /><polygon
         id="polygon14384"
         fill="black"
         stroke-width="0"
         points="276.73,710.4 276.73,710.96 271.64,710.96 271.64,710.4 " /><polygon
         id="polygon14386"
         fill="black"
         stroke-width="0"
         points="276.73,708.39 276.73,708.94 271.64,708.94 271.64,708.39 " /><polygon
         id="polygon14388"
         fill="black"
         stroke-width="0"
         points="285.83,709.4 285.83,709.96 280.74,709.96 280.74,709.4 " /><path
         id="path14390"
         fill="black"
         stroke-width="0"
         d="M289.39,713.84 L289.33,713.8 L289.26,713.75 L289.2,713.71 L289.14,713.67 L289.08,713.63 L289.02,713.59 L288.97,713.55 L288.92,713.52 L288.87,713.48 L288.82,713.44 L288.77,713.41 L288.72,713.37 L288.68,713.34 L288.64,713.3 L288.56,713.24 L288.48,713.17 L288.4,713.1 L288.33,713.03 L288.26,712.96 L288.2,712.89 L288.13,712.81 L288.06,712.73 L287.99,712.65 C287.29,711.78,286.94,710.79,286.94,709.63 C286.94,708.37,287.31,707.39,288.18,706.38 C288.59,705.9,288.85,705.68,289.36,705.37 L289.48,705.53 C288.69,706.15,288.41,706.5,288.14,707.24 C287.9,707.91,287.79,708.66,287.79,709.66 C287.79,710.7,287.92,711.52,288.19,712.13 C288.47,712.75,288.77,713.1,289.48,713.68 Z " /><path
         id="path14392"
         fill="black"
         stroke-width="0"
         d="M292.3,713.84 L292.25,713.84 L292.2,713.84 L292.15,713.84 L292.11,713.83 L292.06,713.83 L292.01,713.82 L291.96,713.82 L291.92,713.81 L291.87,713.8 L291.83,713.79 L291.78,713.78 L291.74,713.77 L291.7,713.76 L291.65,713.74 L291.61,713.73 L291.57,713.71 L291.53,713.7 L291.49,713.68 L291.45,713.66 L291.41,713.64 L291.37,713.62 L291.33,713.6 L291.3,713.57 L291.26,713.55 L291.22,713.53 L291.18,713.5 L291.15,713.47 L291.11,713.45 L291.08,713.42 L291.04,713.39 L291.01,713.36 L290.97,713.32 C290.39,712.77,290.02,711.62,290.02,710.46 C290.02,709.38,290.35,708.22,290.81,707.66 C291.18,707.22,291.69,706.99,292.27,706.99 V707.24 C291.41,707.24,290.97,708.31,290.97,710.37 C290.97,712.48,291.42,713.58,292.27,713.58 H292.27 C293.11,713.58,293.56,712.46,293.56,710.38 C293.56,708.31,293.12,707.24,292.27,707.24 V706.99 C292.77,706.99,293.2,707.16,293.56,707.5 C294.14,708.05,294.51,709.2,294.51,710.4 C294.51,712.44,293.61,713.84,292.3,713.84 Z " /><path
         id="path14394"
         fill="black"
         stroke-width="0"
         d="M297.29,713.84 L297.24,713.84 L297.18,713.84 L297.14,713.84 L297.09,713.83 L297.04,713.83 L296.99,713.82 L296.94,713.82 L296.9,713.81 L296.85,713.8 L296.81,713.79 L296.76,713.78 L296.72,713.77 L296.68,713.76 L296.64,713.74 L296.59,713.73 L296.55,713.71 L296.51,713.7 L296.47,713.68 L296.43,713.66 L296.39,713.64 L296.35,713.62 L296.32,713.6 L296.28,713.57 L296.24,713.55 L296.2,713.53 L296.17,713.5 L296.13,713.47 L296.09,713.45 L296.06,713.42 L296.02,713.39 L295.99,713.36 L295.95,713.32 C295.38,712.77,295,711.62,295,710.46 C295,709.38,295.33,708.22,295.79,707.66 C296.16,707.22,296.67,706.99,297.25,706.99 V707.24 C296.39,707.24,295.95,708.31,295.95,710.37 C295.95,712.48,296.4,713.58,297.26,713.58 H297.26 C298.09,713.58,298.54,712.46,298.54,710.38 C298.54,708.31,298.1,707.24,297.25,707.24 V706.99 C297.75,706.99,298.18,707.16,298.54,707.5 C299.12,708.05,299.49,709.2,299.49,710.4 C299.49,712.44,298.59,713.84,297.29,713.84 Z " /><path
         id="path14396"
         fill="black"
         stroke-width="0"
         d="M302.64,713.84 L300.84,712.94 V712.8 C300.96,712.85,301.07,712.89,301.11,712.91 C301.29,712.98,301.46,713.02,301.56,713.02 C301.77,713.02,301.86,712.87,301.86,712.55 V708.05 C301.86,707.72,301.78,707.49,301.62,707.4 C301.47,707.31,301.33,707.28,300.91,707.27 V707.12 H303.66 V707.27 C302.87,707.28,302.71,707.38,302.71,707.86 V713.82 Z " /><path
         id="path14398"
         fill="black"
         stroke-width="0"
         d="M307.25,713.84 L307.2,713.84 L307.15,713.84 L307.1,713.84 L307.05,713.83 L307,713.83 L306.95,713.82 L306.91,713.82 L306.86,713.81 L306.82,713.8 L306.77,713.79 L306.73,713.78 L306.68,713.77 L306.64,713.76 L306.6,713.74 L306.56,713.73 L306.51,713.71 L306.47,713.7 L306.43,713.68 L306.39,713.66 L306.35,713.64 L306.32,713.62 L306.28,713.6 L306.24,713.57 L306.2,713.55 L306.16,713.53 L306.13,713.5 L306.09,713.47 L306.06,713.45 L306.02,713.42 L305.98,713.39 L305.95,713.36 L305.92,713.32 C305.34,712.77,304.96,711.62,304.96,710.46 C304.96,709.38,305.29,708.22,305.76,707.66 C306.12,707.22,306.63,706.99,307.21,706.99 V707.24 C306.35,707.24,305.92,708.31,305.92,710.37 C305.92,712.48,306.36,713.58,307.22,713.58 H307.22 C308.05,713.58,308.5,712.46,308.5,710.38 C308.5,708.31,308.06,707.24,307.21,707.24 V706.99 C307.72,706.99,308.14,707.16,308.5,707.5 C309.08,708.05,309.46,709.2,309.46,710.4 C309.46,712.44,308.55,713.84,307.25,713.84 Z " /><path
         id="path14400"
         fill="black"
         stroke-width="0"
         d="M312.6,713.84 L310.81,712.94 V712.8 C310.93,712.85,311.04,712.89,311.08,712.91 C311.26,712.98,311.42,713.02,311.52,713.02 C311.73,713.02,311.82,712.87,311.82,712.55 V708.05 C311.82,707.72,311.74,707.49,311.58,707.4 C311.43,707.31,311.3,707.28,310.88,707.27 V707.12 H313.62 V707.27 C312.84,707.28,312.68,707.38,312.68,707.86 V713.82 Z " /><path
         id="path14402"
         fill="black"
         stroke-width="0"
         d="M317.21,713.84 L317.16,713.84 L317.11,713.84 L317.06,713.84 L317.01,713.83 L316.96,713.83 L316.92,713.82 L316.87,713.82 L316.82,713.81 L316.78,713.8 L316.73,713.79 L316.69,713.78 L316.65,713.77 L316.6,713.76 L316.56,713.74 L316.52,713.73 L316.48,713.71 L316.44,713.7 L316.4,713.68 L316.36,713.66 L316.32,713.64 L316.28,713.62 L316.24,713.6 L316.2,713.57 L316.16,713.55 L316.13,713.53 L316.09,713.5 L316.05,713.47 L316.02,713.45 L315.98,713.42 L315.95,713.39 L315.91,713.36 L315.88,713.32 C315.3,712.77,314.92,711.62,314.92,710.46 C314.92,709.38,315.25,708.22,315.72,707.66 C316.09,707.22,316.59,706.99,317.17,706.99 V707.24 C316.32,707.24,315.88,708.31,315.88,710.37 C315.88,712.48,316.33,713.58,317.18,713.58 H317.18 C318.02,713.58,318.46,712.46,318.46,710.38 C318.46,708.31,318.03,707.24,317.17,707.24 V706.99 C317.68,706.99,318.11,707.16,318.46,707.5 C319.04,708.05,319.42,709.2,319.42,710.4 C319.42,712.44,318.51,713.84,317.21,713.84 Z " /><path
         id="path14404"
         fill="black"
         stroke-width="0"
         d="M320.04,705.37 L320.11,705.41 L320.18,705.45 L320.24,705.5 L320.3,705.54 L320.36,705.58 L320.41,705.61 L320.47,705.65 L320.52,705.69 L320.57,705.73 L320.62,705.76 L320.67,705.8 L320.71,705.83 L320.76,705.87 L320.8,705.9 L320.88,705.97 L320.96,706.04 L321.03,706.11 L321.11,706.18 L321.18,706.25 L321.24,706.32 L321.31,706.4 L321.38,706.48 L321.45,706.56 C322.15,707.42,322.5,708.42,322.5,709.58 C322.5,710.85,322.13,711.81,321.26,712.83 C320.85,713.3,320.59,713.52,320.07,713.84 L319.95,713.68 C320.75,713.05,321.02,712.71,321.3,711.96 C321.54,711.3,321.64,710.54,321.64,709.55 C321.64,708.52,321.52,707.69,321.25,707.09 C320.97,706.46,320.67,706.1,319.95,705.53 Z " /><path
         id="path14406"
         fill="black"
         stroke-width="0"
         d="M326.29,706.58 L326.2,706.62 C325.94,706.22,325.85,706.16,325.54,706.16 H323.87 L325.04,707.38 C325.66,708.03,325.94,708.56,325.94,709.1 C325.94,709.8,325.37,710.33,324.65,710.33 C324.26,710.33,323.9,710.18,323.64,709.9 C323.42,709.66,323.32,709.44,323.2,708.95 L323.35,708.91 C323.62,709.59,323.87,709.82,324.36,709.82 C324.94,709.82,325.34,709.42,325.34,708.84 C325.34,708.29,325.02,707.65,324.43,707.03 L323.19,705.71 V705.63 H325.91 Z " /></g>  </g>
</svg>
