<?xml version="1.0" encoding="UTF-8" standalone="no"?>
<!-- Created with Inkscape (http://www.inkscape.org/) -->

<svg
   xmlns:ns0="http://www.iki.fi/pav/software/textext/"
   xmlns:dc="http://purl.org/dc/elements/1.1/"
   xmlns:cc="http://creativecommons.org/ns#"
   xmlns:rdf="http://www.w3.org/1999/02/22-rdf-syntax-ns#"
   xmlns:svg="http://www.w3.org/2000/svg"
   xmlns="http://www.w3.org/2000/svg"
   xmlns:sodipodi="http://sodipodi.sourceforge.net/DTD/sodipodi-0.dtd"
   xmlns:inkscape="http://www.inkscape.org/namespaces/inkscape"
   width="496.06299"
   height="354.33069"
   id="svg2"
   version="1.1"
   inkscape:version="0.48.4 r9939"
   sodipodi:docname="div41.eps">
  <sodipodi:namedview
     id="base"
     pagecolor="#ffffff"
     bordercolor="#666666"
     borderopacity="1.0"
     inkscape:pageopacity="0.0"
     inkscape:pageshadow="2"
     inkscape:zoom="1.7242571"
     inkscape:cx="140.76384"
     inkscape:cy="187.53332"
     inkscape:document-units="cm"
     inkscape:current-layer="layer1"
     showgrid="false"
     units="cm"
     inkscape:object-nodes="true"
     inkscape:window-width="1366"
     inkscape:window-height="744"
     inkscape:window-x="0"
     inkscape:window-y="24"
     inkscape:window-maximized="1">
    <inkscape:grid
       type="xygrid"
       id="grid2985"
       empspacing="5"
       visible="true"
       enabled="true"
       snapvisiblegridlinesonly="true" />
  </sodipodi:namedview>
  <defs
     id="defs4">
    <marker
       inkscape:stockid="Arrow1Mstart"
       orient="auto"
       refY="0"
       refX="0"
       id="Arrow1Mstart"
       style="overflow:visible">
      <path
         inkscape:connector-curvature="0"
         id="path3775"
         d="M 0,0 5,-5 -12.5,0 5,5 0,0 z"
         style="fill-rule:evenodd;stroke:#000000;stroke-width:1pt"
         transform="matrix(0.4,0,0,0.4,4,0)" />
    </marker>
    <marker
       inkscape:stockid="Arrow1Mend"
       orient="auto"
       refY="0"
       refX="0"
       id="Arrow1Mend"
       style="overflow:visible">
      <path
         inkscape:connector-curvature="0"
         id="path3778"
         d="M 0,0 5,-5 -12.5,0 5,5 0,0 z"
         style="fill-rule:evenodd;stroke:#000000;stroke-width:1pt"
         transform="matrix(-0.4,0,0,-0.4,-4,0)" />
    </marker>
    <marker
       style="overflow:visible"
       id="Arrow1Mstart-7"
       refX="0"
       refY="0"
       orient="auto"
       inkscape:stockid="Arrow1Mstart">
      <path
         transform="matrix(0.4,0,0,0.4,4,0)"
         style="fill-rule:evenodd;stroke:#000000;stroke-width:1pt"
         d="M 0,0 5,-5 -12.5,0 5,5 0,0 z"
         id="path3775-8"
         inkscape:connector-curvature="0" />
    </marker>
    <marker
       style="overflow:visible"
       id="Arrow1Mend-3"
       refX="0"
       refY="0"
       orient="auto"
       inkscape:stockid="Arrow1Mend">
      <path
         transform="matrix(-0.4,0,0,-0.4,-4,0)"
         style="fill-rule:evenodd;stroke:#000000;stroke-width:1pt"
         d="M 0,0 5,-5 -12.5,0 5,5 0,0 z"
         id="path3778-2"
         inkscape:connector-curvature="0" />
    </marker>
  </defs>
  <metadata
     id="metadata7">
    <rdf:RDF>
      <cc:Work
         rdf:about="">
        <dc:format>image/svg+xml</dc:format>
        <dc:type
           rdf:resource="http://purl.org/dc/dcmitype/StillImage" />
        <dc:title></dc:title>
      </cc:Work>
    </rdf:RDF>
  </metadata>
  <g
     inkscape:label="Layer 1"
     inkscape:groupmode="layer"
     id="layer1"
     transform="translate(0,-698.03016)">
    <text
       sodipodi:linespacing="100%"
       id="text5818"
       y="754.07056"
       x="61.700558"
       style="font-size:12px;font-style:normal;font-variant:normal;font-weight:normal;font-stretch:normal;text-align:start;line-height:100%;letter-spacing:0px;word-spacing:0px;text-anchor:start;fill:#000000;fill-opacity:1;stroke:none;font-family:LMRoman12;-inkscape-font-specification:Sans"
       xml:space="preserve"><tspan
         y="754.07056"
         x="61.700558"
         id="tspan5820"
         sodipodi:role="line" /></text>
    <flowRoot
       xml:space="preserve"
       id="flowRoot6377"
       style="font-size:12px;font-style:normal;font-variant:normal;font-weight:normal;font-stretch:normal;text-align:start;line-height:100%;letter-spacing:0px;word-spacing:0px;text-anchor:start;fill:#000000;fill-opacity:1;stroke:none;font-family:LMRoman12;-inkscape-font-specification:Sans"><flowRegion
         id="flowRegion6379"><rect
           id="rect6381"
           width="27.681772"
           height="40.319103"
           x="219.34796"
           y="87.141403" /></flowRegion><flowPara
         id="flowPara6383" /></flowRoot>    <text
       xml:space="preserve"
       style="font-size:12px;font-style:normal;font-variant:normal;font-weight:normal;font-stretch:normal;text-align:start;line-height:50%;letter-spacing:0px;word-spacing:0px;text-anchor:start;fill:#000000;fill-opacity:1;stroke:none;font-family:LMRoman12;-inkscape-font-specification:Sans"
       x="275.91507"
       y="753.27734"
       id="text6385"
       sodipodi:linespacing="50%"><tspan
         sodipodi:role="line"
         id="tspan6387"
         x="275.91507"
         y="753.27734" /></text>
    <text
       xml:space="preserve"
       style="font-size:12px;font-style:normal;font-variant:normal;font-weight:normal;font-stretch:normal;text-align:start;line-height:100%;letter-spacing:0px;word-spacing:0px;text-anchor:start;fill:#000000;fill-opacity:1;stroke:none;font-family:LMRoman12;-inkscape-font-specification:Sans"
       x="348.65417"
       y="892.41718"
       id="text3884"
       sodipodi:linespacing="100%"><tspan
         sodipodi:role="line"
         x="348.65417"
         y="892.41718"
         id="tspan3890" /></text>
    <text
       xml:space="preserve"
       style="font-size:12px;font-style:normal;font-variant:normal;font-weight:normal;font-stretch:normal;text-align:start;line-height:150%;letter-spacing:0px;word-spacing:0px;text-anchor:start;fill:#000000;fill-opacity:1;stroke:none;font-family:LMRoman12;-inkscape-font-specification:Sans"
       x="216.96629"
       y="948.92749"
       id="text3887"
       sodipodi:linespacing="150%"><tspan
         sodipodi:role="line"
         id="tspan3889"
         x="216.96629"
         y="948.92749" /></text>
    <text
       xml:space="preserve"
       style="font-size:12px;font-style:normal;font-variant:normal;font-weight:normal;font-stretch:normal;text-align:start;line-height:150%;letter-spacing:0px;word-spacing:0px;text-anchor:start;fill:#000000;fill-opacity:1;stroke:none;font-family:LMRoman12;-inkscape-font-specification:Sans"
       x="173"
       y="759.11084"
       id="text7389"
       sodipodi:linespacing="150%"><tspan
         sodipodi:role="line"
         id="tspan7391"
         x="173"
         y="759.11084" /></text>
    <text
       sodipodi:linespacing="150%"
       id="text12764"
       y="833.35034"
       x="235.18646"
       style="font-size:12px;font-style:normal;font-variant:normal;font-weight:normal;font-stretch:normal;text-align:start;line-height:150%;letter-spacing:0px;word-spacing:0px;text-anchor:start;fill:#000000;fill-opacity:1;stroke:none;font-family:LMRoman12;-inkscape-font-specification:Sans"
       xml:space="preserve"><tspan
         y="833.35034"
         x="235.18646"
         id="tspan12766"
         sodipodi:role="line"
         dx="0 0 0.51797229">  0 1 0 0 0 0 0 0 1 0 1</tspan><tspan
         id="tspan12770"
         y="851.35034"
         x="235.18646"
         sodipodi:role="line">+1 0 1 1 1 1 1 1 0 1 1</tspan></text>
    <text
       xml:space="preserve"
       style="font-size:12px;font-style:normal;font-variant:normal;font-weight:normal;font-stretch:normal;text-align:start;line-height:150%;letter-spacing:0px;word-spacing:0px;text-anchor:start;fill:#000000;fill-opacity:1;stroke:none;font-family:LMRoman12;-inkscape-font-specification:Sans"
       x="347.50522"
       y="185.47461"
       id="text12776"
       sodipodi:linespacing="150%"
       transform="translate(0,698.03016)"><tspan
         sodipodi:role="line"
         id="tspan12778"
         x="347.50522"
         y="185.47461" /></text>
    <path
       style="fill:none;stroke:#000000;stroke-width:0.80000001;stroke-linecap:square;stroke-linejoin:round;stroke-miterlimit:4;stroke-opacity:1;stroke-dasharray:none;stroke-dashoffset:0"
       d="m 226.9678,857.55347 125.11689,0"
       id="path12780"
       inkscape:connector-curvature="0" />
    <text
       sodipodi:linespacing="150%"
       id="text12782"
       y="869.23932"
       x="233.5674"
       style="font-size:12px;font-style:normal;font-variant:normal;font-weight:normal;font-stretch:normal;text-align:start;line-height:150%;letter-spacing:0px;word-spacing:0px;text-anchor:start;fill:#000000;fill-opacity:1;stroke:none;font-family:LMRoman12;-inkscape-font-specification:Sans"
       xml:space="preserve"><tspan
         id="tspan12786"
         y="869.23932"
         x="233.5674"
         sodipodi:role="line">1 0 0 0 0 0 0 0 0 0 0 0</tspan><tspan
         id="tspan12788"
         y="887.23932"
         x="233.5674"
         sodipodi:role="line" /></text>
    <text
       sodipodi:linespacing="150%"
       id="text12981"
       y="886.58783"
       x="175.61487"
       style="font-size:12px;font-style:normal;font-variant:normal;font-weight:normal;font-stretch:normal;text-align:start;line-height:150%;letter-spacing:0px;word-spacing:0px;text-anchor:start;fill:#000000;fill-opacity:1;stroke:none;font-family:LMRoman12;-inkscape-font-specification:Sans"
       xml:space="preserve"><tspan
         y="886.58783"
         x="175.61487"
         id="tspan12983"
         sodipodi:role="line">Neglect carry</tspan></text>
    <path
       sodipodi:type="arc"
       style="fill:none;stroke:#000000;stroke-width:0.51674169;stroke-linecap:square;stroke-linejoin:round;stroke-miterlimit:4;stroke-opacity:1;stroke-dasharray:none;stroke-dashoffset:0"
       id="path3764"
       sodipodi:cx="268.66678"
       sodipodi:cy="182.19679"
       sodipodi:rx="4.144124"
       sodipodi:ry="5.4042087"
       d="m 272.8109,182.19679 c 0,2.98466 -1.85538,5.40421 -4.14412,5.40421 -2.28874,0 -4.14413,-2.41955 -4.14413,-5.40421 0,-2.98466 1.85539,-5.40421 4.14413,-5.40421 2.28874,0 4.14412,2.41955 4.14412,5.40421 z"
       transform="matrix(1.1611218,0,0,1.1611218,-75.46834,653.82264)" />
    <text
       xml:space="preserve"
       style="font-size:12px;font-style:normal;font-variant:normal;font-weight:normal;font-stretch:normal;text-align:start;line-height:150%;letter-spacing:0px;word-spacing:0px;text-anchor:start;fill:#000000;fill-opacity:1;stroke:none;font-family:LMRoman12;-inkscape-font-specification:Sans"
       x="244.22394"
       y="793.37469"
       id="text6388"
       sodipodi:linespacing="150%"><tspan
         sodipodi:role="line"
         id="tspan6390"
         x="244.22394"
         y="793.37469"
         dx="2.0718892">  1 0 0 0 0 0 0 1 0 1</tspan><tspan
         sodipodi:role="line"
         x="244.22394"
         y="811.37469"
         id="tspan6392">1 0 1 1 1 1 1 1 0 1 1</tspan></text>
    <path
       sodipodi:nodetypes="cc"
       inkscape:connector-curvature="0"
       id="path14827"
       d="m 232.65175,871.25376 -6.50195,6.50196"
       style="fill:none;stroke:#000000;stroke-width:0.5;stroke-linecap:square;stroke-linejoin:round;stroke-miterlimit:4;stroke-opacity:1;stroke-dasharray:none;stroke-dashoffset:0;marker-start:none;marker-end:url(#Arrow1Mend)" />
    <g
       style="font-style:normal;font-variant:normal;font-weight:normal;font-stretch:normal;letter-spacing:normal;word-spacing:normal;text-anchor:start;fill:none;stroke:#000000;stroke-width:1;stroke-linecap:butt;stroke-linejoin:miter;stroke-miterlimit:10.43299961;stroke-opacity:1;stroke-dasharray:none;stroke-dashoffset:0"
       ns0:preamble="/home/sriranga/Desktop/Prism_BasicElectronics/preamble.tex"
       ns0:text="\\begin{align*}\n\\text{Binary equivalent of } 1029 &amp;= \\\\\n\\therefore ~\\text{2\'nd complement representation of} -1029 &amp; =\n\\end{align*}"
       text-anchor="start"
       word-spacing="normal"
       letter-spacing="normal"
       font-size-adjust="none"
       font-stretch="normal"
       font-weight="normal"
       font-variant="normal"
       font-style="normal"
       fill-opacity="1"
       fill-rule="evenodd"
       fill="none"
       stroke-opacity="1"
       stroke-dashoffset="0"
       stroke-dasharray="none"
       stroke-miterlimit="10.433"
       stroke-linejoin="miter"
       stroke-linecap="butt"
       stroke="black"
       xml:space="preserve"
       transform="matrix(1.2,0,0,-1.2,-354.72057,1642.3845)"
       id="g10906"><path
         id="path10908"
         fill="black"
         stroke-width="0"
         d="M378.24,713.7 V713.51 C379.08,713.46,379.2,713.35,379.2,712.62 V708.21 C379.2,707.47,379.07,707.34,378.24,707.31 V707.12 H381.57 C382.34,707.12,383.05,707.33,383.42,707.67 C383.77,707.99,383.97,708.44,383.97,708.91 C383.97,709.35,383.79,709.75,383.48,710.04 C383.19,710.3,382.92,710.42,382.27,710.58 C382.79,710.71,383,710.81,383.24,711.02 C383.48,711.24,383.64,711.6,383.64,712.01 C383.64,713.12,382.75,713.7,381.03,713.7 L380.87,713.33 C382.01,713.33,382.62,712.86,382.62,711.97 C382.62,711.2,382.09,710.76,381.16,710.76 H380.21 V710.36 C381.18,710.36,381.64,710.31,381.99,710.16 C382.56,709.93,382.83,709.53,382.83,708.9 C382.83,708.37,382.62,707.98,382.22,707.75 C381.9,707.57,381.5,707.49,380.84,707.49 C380.35,707.49,380.21,707.58,380.21,707.9 V710.36 V710.76 V713.04 C380.21,713.24,380.28,713.33,380.43,713.33 H380.87 L381.03,713.7 Z " /><path
         id="path10910"
         fill="black"
         stroke-width="0"
         d="M386.46,711.7 L384.92,711.15 V711 L385,711.01 C385.12,711.03,385.24,711.04,385.33,711.04 C385.57,711.04,385.66,710.88,385.66,710.44 V708.14 C385.66,707.42,385.56,707.31,384.88,707.27 V707.12 H387.23 V707.27 C386.58,707.32,386.5,707.42,386.5,708.14 V711.66 Z " /><path
         id="path10912"
         fill="black"
         stroke-width="0"
         d="M385.99,713.91 L385.97,713.91 L385.94,713.91 L385.92,713.9 L385.89,713.9 L385.87,713.89 L385.85,713.89 L385.82,713.88 L385.8,713.87 L385.78,713.86 L385.76,713.85 L385.74,713.84 L385.72,713.82 L385.7,713.81 L385.68,713.79 L385.66,713.78 L385.64,713.76 L385.63,713.74 L385.61,713.72 L385.59,713.71 L385.58,713.69 L385.57,713.67 L385.56,713.64 L385.54,713.62 L385.53,713.6 L385.52,713.58 L385.52,713.55 L385.51,713.53 L385.5,713.5 L385.5,713.48 L385.5,713.45 L385.49,713.43 L385.49,713.4 C385.49,713.12,385.71,712.9,385.99,712.9 C386.28,712.9,386.51,713.11,386.51,713.4 C386.51,713.68,386.28,713.91,385.99,713.91 Z " /><path
         id="path10914"
         fill="black"
         stroke-width="0"
         d="M387.65,711.08 L387.65,711.08 L387.66,711.08 L387.66,711.09 L387.67,711.09 L387.68,711.09 L387.68,711.09 L387.69,711.1 L387.7,711.1 L387.71,711.1 L387.71,711.1 L387.73,711.1 L387.75,711.11 L387.76,711.11 L387.78,711.11 L387.8,711.11 L387.82,711.11 L387.84,711.12 L387.85,711.12 L387.87,711.12 L387.89,711.12 L387.92,711.12 C388.19,711.12,388.28,710.97,388.28,710.48 V708.02 C388.28,707.45,388.17,707.31,387.67,707.27 V707.12 H389.78 V707.27 C389.27,707.31,389.12,707.43,389.12,707.79 V710.58 C389.6,711.03,389.82,711.15,390.14,711.15 C390.63,711.15,390.87,710.84,390.87,710.18 V708.11 C390.87,707.48,390.74,707.31,390.24,707.27 V707.12 H392.31 V707.27 C391.83,707.32,391.71,707.44,391.71,707.93 V710.2 C391.71,711.14,391.27,711.7,390.53,711.7 C390.07,711.7,389.77,711.53,389.09,710.89 V711.67 L389.02,711.7 C388.53,711.52,388.19,711.41,387.65,711.25 Z " /><path
         id="path10916"
         fill="black"
         stroke-width="0"
         d="M396.87,707.78 L396.85,707.77 L396.83,707.76 L396.82,707.74 L396.8,707.73 L396.79,707.72 L396.78,707.71 L396.76,707.7 L396.75,707.69 L396.73,707.68 L396.72,707.68 L396.71,707.67 L396.69,707.66 L396.68,707.65 L396.67,707.65 L396.65,707.64 L396.64,707.63 L396.63,707.63 L396.61,707.62 L396.6,707.62 L396.59,707.62 L396.58,707.61 L396.56,707.61 L396.55,707.6 L396.54,707.6 L396.51,707.6 L396.48,707.59 L396.46,707.59 L396.43,707.59 C396.2,707.59,396.13,707.73,396.13,708.17 V710.1 C396.13,710.62,396.08,710.91,395.93,711.15 C395.71,711.51,395.29,711.7,394.7,711.7 C393.76,711.7,393.03,711.21,393.03,710.58 C393.03,710.35,393.23,710.16,393.45,710.16 C393.69,710.16,393.9,710.35,393.9,710.57 C393.9,710.61,393.89,710.66,393.88,710.73 C393.86,710.82,393.85,710.9,393.85,710.97 C393.85,711.24,394.17,711.46,394.57,711.46 C395.06,711.46,395.32,711.17,395.32,710.63 V710.03 V709.79 V708.35 C395.32,708.04,395.27,707.95,395.07,707.83 C394.83,707.69,394.55,707.6,394.34,707.6 C393.99,707.6,393.71,707.94,393.71,708.37 V708.41 C393.71,708.99,394.12,709.35,395.32,709.79 V710.03 C393.79,709.41,393.62,709.33,393.2,708.95 C392.98,708.75,392.84,708.42,392.84,708.09 C392.84,707.46,393.27,707.03,393.88,707.03 C394.32,707.03,394.73,707.23,395.33,707.75 C395.38,707.23,395.56,707.03,395.97,707.03 C396.31,707.03,396.52,707.15,396.87,707.52 Z " /><path
         id="path10918"
         fill="black"
         stroke-width="0"
         d="M396.96,711 L396.97,711 L396.99,711 L397,711.01 L397.01,711.01 L397.04,711.01 L397.06,711.02 L397.08,711.02 L397.1,711.02 L397.12,711.03 L397.14,711.03 L397.16,711.03 L397.18,711.03 L397.2,711.04 L397.22,711.04 L397.25,711.04 L397.27,711.04 L397.29,711.04 L397.31,711.04 C397.56,711.04,397.65,710.88,397.65,710.44 V707.96 C397.65,707.46,397.58,707.39,396.94,707.27 V707.12 H399.33 V707.27 C398.65,707.3,398.48,707.45,398.48,708.02 V710.25 C398.48,710.57,398.91,711.07,399.18,711.07 C399.24,711.07,399.33,711.02,399.44,710.92 C399.6,710.78,399.71,710.72,399.84,710.72 C400.08,710.72,400.23,710.89,400.23,711.17 C400.23,711.5,400.02,711.7,399.68,711.7 C399.26,711.7,398.97,711.47,398.48,710.76 V711.67 L398.43,711.7 C397.91,711.48,397.55,711.35,396.96,711.16 Z " /><path
         id="path10920"
         fill="black"
         stroke-width="0"
         d="M404.94,711.59 H403.59 V711.45 C403.91,711.45,404.07,711.36,404.07,711.2 C404.07,711.16,404.06,711.1,404.03,711.03 L403.07,708.29 L401.92,710.8 C401.86,710.94,401.82,711.07,401.82,711.18 C401.82,711.36,401.97,711.43,402.4,711.45 V711.59 H400.35 V711.46 C400.61,711.42,400.78,711.31,400.86,711.14 L401.99,708.69 L402.02,708.61 L402.17,708.32 C402.45,707.82,402.61,707.46,402.61,707.31 C402.61,707.16,402.38,706.54,402.21,706.24 C402.07,705.98,401.85,705.79,401.71,705.79 C401.65,705.79,401.56,705.81,401.46,705.86 C401.27,705.93,401.11,705.97,400.94,705.97 C400.71,705.97,400.51,705.77,400.51,705.54 C400.51,705.21,400.83,704.96,401.24,704.96 C401.91,704.96,402.39,705.52,402.93,706.95 L404.46,711 C404.59,711.32,404.7,711.42,404.94,711.45 Z " /><path
         id="path10922"
         fill="black"
         stroke-width="0"
         d="M411.74,708.75 L411.7,708.68 L411.65,708.62 L411.61,708.55 L411.56,708.49 L411.52,708.43 L411.48,708.38 L411.43,708.32 L411.39,708.27 L411.34,708.22 L411.3,708.18 L411.26,708.13 L411.21,708.09 L411.17,708.05 L411.12,708.02 L411.08,707.98 L411.03,707.95 L410.98,707.92 L410.94,707.89 L410.89,707.87 L410.84,707.84 L410.79,707.82 L410.74,707.8 L410.69,707.78 L410.64,707.77 L410.59,707.75 L410.54,707.74 L410.48,707.73 L410.43,707.72 L410.37,707.72 L410.32,707.71 L410.26,707.71 L410.2,707.71 C409.63,707.71,409.2,708,408.92,708.57 C408.74,708.94,408.67,709.27,408.65,709.88 L408.67,710.2 C408.78,710.97,409.11,711.34,409.72,711.34 C410.33,711.34,410.57,711.06,410.7,710.2 H408.67 L408.65,709.88 H411.71 C411.63,710.52,411.53,710.81,411.28,711.13 C410.98,711.49,410.53,711.7,410.01,711.7 C409.51,711.7,409.05,711.52,408.67,711.18 C408.2,710.77,407.93,710.07,407.93,709.25 C407.93,707.88,408.65,707.03,409.79,707.03 C410.74,707.03,411.48,707.61,411.9,708.68 Z " /><path
         id="path10924"
         fill="black"
         stroke-width="0"
         d="M415.69,711.35 L415.64,711.37 L415.6,711.4 L415.56,711.42 L415.52,711.44 L415.48,711.46 L415.44,711.48 L415.41,711.5 L415.37,711.52 L415.33,711.53 L415.3,711.55 L415.26,711.56 L415.23,711.58 L415.19,711.59 L415.16,711.6 L415.09,711.63 L415.02,711.65 L414.95,711.66 L414.89,711.68 L414.82,711.69 L414.75,711.69 L414.68,711.7 L414.61,711.7 L414.54,711.71 C413.3,711.71,412.34,710.59,412.34,709.16 C412.34,707.91,413,707.03,413.94,707.03 C414.51,707.03,415.06,707.28,415.5,707.76 L415.36,707.94 C415.14,707.75,414.81,707.63,414.5,707.63 C414.19,707.63,413.93,707.73,413.73,707.93 C413.41,708.22,413.2,708.86,413.2,709.52 C413.2,710.69,413.73,711.43,414.57,711.43 C415.19,711.43,415.5,711.1,415.5,710.43 V708.39 C415.5,708.15,415.46,708.02,415.36,707.94 L415.5,707.76 V705.89 C415.5,705.34,415.32,705.19,414.61,705.14 V704.97 H416.96 V705.11 C416.41,705.23,416.33,705.31,416.33,705.72 V711.66 H416.22 Z " /><path
         id="path10926"
         fill="black"
         stroke-width="0"
         d="M421.85,707.62 H421.8 C421.35,707.62,421.23,707.73,421.23,708.19 V711.59 H419.66 V711.43 C420.28,711.4,420.4,711.3,420.4,710.8 V708.47 C420.4,708.19,420.35,708.05,420.21,707.94 C419.94,707.72,419.63,707.6,419.33,707.6 C418.95,707.6,418.63,707.94,418.63,708.36 V711.59 H417.18 V711.46 C417.65,711.43,417.79,711.28,417.79,710.82 V708.32 C417.79,707.53,418.27,707.03,419,707.03 C419.36,707.03,419.75,707.18,420.02,707.45 L420.45,707.88 V707.05 L420.49,707.04 C420.99,707.23,421.35,707.34,421.85,707.48 Z " /><path
         id="path10928"
         fill="black"
         stroke-width="0"
         d="M423.81,711.7 L422.27,711.15 V711 L422.35,711.01 C422.47,711.03,422.6,711.04,422.68,711.04 C422.92,711.04,423.01,710.88,423.01,710.44 V708.14 C423.01,707.42,422.91,707.31,422.23,707.27 V707.12 H424.58 V707.27 C423.93,707.32,423.85,707.42,423.85,708.14 V711.66 Z " /><path
         id="path10930"
         fill="black"
         stroke-width="0"
         d="M423.34,713.91 L423.32,713.91 L423.29,713.91 L423.27,713.9 L423.24,713.9 L423.22,713.89 L423.2,713.89 L423.17,713.88 L423.15,713.87 L423.13,713.86 L423.11,713.85 L423.09,713.84 L423.07,713.82 L423.05,713.81 L423.03,713.79 L423.01,713.78 L422.99,713.76 L422.98,713.74 L422.96,713.72 L422.94,713.71 L422.93,713.69 L422.92,713.67 L422.91,713.64 L422.89,713.62 L422.88,713.6 L422.87,713.58 L422.87,713.55 L422.86,713.53 L422.85,713.5 L422.85,713.48 L422.85,713.45 L422.84,713.43 L422.84,713.4 C422.84,713.12,423.06,712.9,423.34,712.9 C423.63,712.9,423.86,713.11,423.86,713.4 C423.86,713.68,423.63,713.91,423.34,713.91 Z " /><path
         id="path10932"
         fill="black"
         stroke-width="0"
         d="M429.33,711.59 H427.95 V711.45 C428.27,711.42,428.42,711.32,428.42,711.13 C428.42,711.03,428.4,710.93,428.36,710.83 L427.37,708.26 L426.36,710.8 C426.3,710.94,426.27,711.08,426.27,711.17 C426.27,711.35,426.38,711.42,426.73,711.45 V711.59 H424.78 V711.45 C425.15,711.43,425.23,711.33,425.68,710.3 L426.88,707.45 C426.9,707.39,426.93,707.32,426.96,707.24 C427.02,707.07,427.08,706.99,427.14,706.99 C427.2,706.99,427.27,707.11,427.41,707.48 L428.69,710.67 C428.98,711.35,429.04,711.42,429.33,711.45 Z " /><path
         id="path10934"
         fill="black"
         stroke-width="0"
         d="M433.72,707.78 L433.7,707.77 L433.69,707.76 L433.67,707.74 L433.66,707.73 L433.64,707.72 L433.63,707.71 L433.61,707.7 L433.6,707.69 L433.59,707.68 L433.57,707.68 L433.56,707.67 L433.54,707.66 L433.53,707.65 L433.52,707.65 L433.5,707.64 L433.49,707.63 L433.48,707.63 L433.47,707.62 L433.45,707.62 L433.44,707.62 L433.43,707.61 L433.41,707.61 L433.4,707.6 L433.39,707.6 L433.36,707.6 L433.33,707.59 L433.31,707.59 L433.28,707.59 C433.05,707.59,432.98,707.73,432.98,708.17 V710.1 C432.98,710.62,432.93,710.91,432.78,711.15 C432.56,711.51,432.14,711.7,431.55,711.7 C430.61,711.7,429.88,711.21,429.88,710.58 C429.88,710.35,430.08,710.16,430.3,710.16 C430.54,710.16,430.75,710.35,430.75,710.57 C430.75,710.61,430.74,710.66,430.73,710.73 C430.71,710.82,430.7,710.9,430.7,710.97 C430.7,711.24,431.02,711.46,431.42,711.46 C431.91,711.46,432.18,711.17,432.18,710.63 V710.03 V709.79 V708.35 C432.18,708.04,432.13,707.95,431.92,707.83 C431.68,707.69,431.4,707.6,431.19,707.6 C430.84,707.6,430.56,707.94,430.56,708.37 V708.41 C430.56,708.99,430.97,709.35,432.18,709.79 V710.03 C430.64,709.41,430.47,709.33,430.05,708.95 C429.83,708.75,429.69,708.42,429.69,708.09 C429.69,707.46,430.13,707.03,430.73,707.03 C431.17,707.03,431.58,707.23,432.19,707.75 C432.24,707.23,432.42,707.03,432.82,707.03 C433.16,707.03,433.37,707.15,433.72,707.52 Z " /><path
         id="path10936"
         fill="black"
         stroke-width="0"
         d="M433.93,713.31 H433.99 C434.1,713.32,434.22,713.33,434.3,713.33 C434.62,713.33,434.72,713.2,434.72,712.73 V707.99 C434.72,707.45,434.58,707.32,433.95,707.27 V707.12 H436.3 V707.27 C435.67,707.31,435.55,707.41,435.55,707.96 V713.89 L435.52,713.91 C435,713.74,434.62,713.64,433.93,713.47 Z " /><path
         id="path10938"
         fill="black"
         stroke-width="0"
         d="M440.57,708.75 L440.53,708.68 L440.48,708.62 L440.44,708.55 L440.4,708.49 L440.35,708.43 L440.31,708.38 L440.26,708.32 L440.22,708.27 L440.18,708.22 L440.13,708.18 L440.09,708.13 L440.04,708.09 L440,708.05 L439.95,708.02 L439.91,707.98 L439.86,707.95 L439.81,707.92 L439.77,707.89 L439.72,707.87 L439.67,707.84 L439.62,707.82 L439.57,707.8 L439.52,707.78 L439.47,707.77 L439.42,707.75 L439.37,707.74 L439.31,707.73 L439.26,707.72 L439.2,707.72 L439.15,707.71 L439.09,707.71 L439.03,707.71 C438.46,707.71,438.04,708,437.75,708.57 C437.57,708.94,437.5,709.27,437.48,709.88 L437.5,710.2 C437.61,710.97,437.95,711.34,438.55,711.34 C439.16,711.34,439.4,711.06,439.53,710.2 H437.5 L437.48,709.88 H440.54 C440.46,710.52,440.36,710.81,440.11,711.13 C439.82,711.49,439.36,711.7,438.84,711.7 C438.34,711.7,437.88,711.52,437.5,711.18 C437.03,710.77,436.76,710.07,436.76,709.25 C436.76,707.88,437.48,707.03,438.62,707.03 C439.57,707.03,440.31,707.61,440.73,708.68 Z " /><path
         id="path10940"
         fill="black"
         stroke-width="0"
         d="M441.1,711.08 L441.1,711.08 L441.11,711.08 L441.11,711.09 L441.12,711.09 L441.13,711.09 L441.13,711.09 L441.14,711.1 L441.15,711.1 L441.16,711.1 L441.16,711.1 L441.18,711.1 L441.19,711.11 L441.21,711.11 L441.23,711.11 L441.25,711.11 L441.27,711.11 L441.28,711.12 L441.3,711.12 L441.32,711.12 L441.34,711.12 L441.36,711.12 C441.64,711.12,441.73,710.97,441.73,710.48 V708.02 C441.73,707.45,441.62,707.31,441.12,707.27 V707.12 H443.23 V707.27 C442.72,707.31,442.57,707.43,442.57,707.79 V710.58 C443.05,711.03,443.27,711.15,443.59,711.15 C444.08,711.15,444.32,710.84,444.32,710.18 V708.11 C444.32,707.48,444.19,707.31,443.69,707.27 V707.12 H445.76 V707.27 C445.27,707.32,445.15,707.44,445.15,707.93 V710.2 C445.15,711.14,444.72,711.7,443.98,711.7 C443.52,711.7,443.21,711.53,442.54,710.89 V711.67 L442.47,711.7 C441.98,711.52,441.64,711.41,441.1,711.25 Z " /><path
         id="path10942"
         fill="black"
         stroke-width="0"
         d="M448.45,711.59 H447.45 V712.75 C447.45,712.85,447.44,712.88,447.38,712.88 C447.31,712.79,447.25,712.7,447.18,712.6 C446.8,712.05,446.38,711.58,446.22,711.54 C446.11,711.47,446.05,711.4,446.05,711.35 C446.05,711.32,446.06,711.3,446.09,711.28 H446.61 V708.29 C446.61,707.45,446.91,707.03,447.5,707.03 C447.99,707.03,448.37,707.26,448.69,707.78 L448.57,707.89 C448.36,707.64,448.19,707.54,447.97,707.54 C447.6,707.54,447.45,707.81,447.45,708.44 V711.28 H448.45 Z " /><path
         id="path10944"
         fill="black"
         stroke-width="0"
         d="M453.67,711.7 L453.55,711.69 L453.43,711.68 L453.31,711.67 L453.2,711.65 L453.09,711.63 L452.98,711.6 L452.88,711.56 L452.78,711.52 L452.68,711.48 L452.58,711.43 L452.49,711.38 L452.4,711.32 L452.32,711.26 L452.23,711.19 L452.16,711.12 L452.08,711.05 L452.01,710.97 L451.94,710.89 L451.88,710.8 L451.82,710.71 L451.77,710.61 L451.72,710.52 L451.67,710.42 L451.63,710.31 L451.59,710.2 L451.56,710.09 L451.53,709.98 L451.51,709.86 L451.49,709.74 L451.48,709.62 L451.47,709.5 L451.47,709.37 C451.47,708.03,452.39,707.03,453.65,707.03 L453.77,707.3 C453.38,707.3,453.01,707.54,452.8,707.94 C452.52,708.46,452.36,709.15,452.36,709.86 C452.36,710.8,452.83,711.42,453.54,711.42 H453.54 C454.37,711.42,454.96,710.46,454.96,709.1 C454.96,707.98,454.51,707.3,453.77,707.3 L453.65,707.03 C454.9,707.03,455.85,708.08,455.85,709.45 C455.85,710.75,454.94,711.7,453.67,711.7 Z " /><path
         id="path10946"
         fill="black"
         stroke-width="0"
         d="M459.23,711.59 H458.01 V712.75 C458.01,713.32,458.2,713.63,458.58,713.63 C458.79,713.63,458.92,713.53,459.11,713.24 C459.26,712.99,459.38,712.89,459.55,712.89 C459.78,712.89,459.97,713.07,459.97,713.29 C459.97,713.65,459.53,713.91,458.93,713.91 C458.32,713.91,457.79,713.64,457.53,713.18 C457.27,712.75,457.19,712.39,457.18,711.59 H456.37 V711.28 H457.18 V708.16 C457.18,707.43,457.08,707.31,456.36,707.27 V707.12 H458.95 V707.27 C458.13,707.3,458.02,707.41,458.02,708.16 V711.28 H459.23 Z " /><path
         id="path10948"
         fill="black"
         stroke-width="0"
         d="M464.86,713.84 L463.07,712.94 V712.8 C463.19,712.85,463.3,712.89,463.34,712.91 C463.52,712.98,463.69,713.02,463.79,713.02 C464,713.02,464.09,712.87,464.09,712.55 V708.05 C464.09,707.72,464.01,707.49,463.85,707.4 C463.7,707.31,463.56,707.28,463.14,707.27 V707.12 H465.89 V707.27 C465.1,707.28,464.94,707.38,464.94,707.86 V713.82 Z " /><path
         id="path10950"
         fill="black"
         stroke-width="0"
         d="M469.48,713.84 L469.43,713.84 L469.37,713.84 L469.33,713.84 L469.28,713.83 L469.23,713.83 L469.18,713.82 L469.13,713.82 L469.09,713.81 L469.04,713.8 L469,713.79 L468.95,713.78 L468.91,713.77 L468.87,713.76 L468.83,713.74 L468.78,713.73 L468.74,713.71 L468.7,713.7 L468.66,713.68 L468.62,713.66 L468.58,713.64 L468.54,713.62 L468.51,713.6 L468.47,713.57 L468.43,713.55 L468.39,713.53 L468.36,713.5 L468.32,713.47 L468.28,713.45 L468.25,713.42 L468.21,713.39 L468.18,713.36 L468.14,713.32 C467.57,712.77,467.19,711.62,467.19,710.46 C467.19,709.38,467.52,708.22,467.98,707.66 C468.35,707.22,468.86,706.99,469.44,706.99 V707.24 C468.58,707.24,468.14,708.31,468.14,710.37 C468.14,712.48,468.59,713.58,469.45,713.58 H469.45 C470.28,713.58,470.73,712.46,470.73,710.38 C470.73,708.31,470.29,707.24,469.44,707.24 V706.99 C469.94,706.99,470.37,707.16,470.73,707.5 C471.31,708.05,471.68,709.2,471.68,710.4 C471.68,712.44,470.78,713.84,469.48,713.84 Z " /><path
         id="path10952"
         fill="black"
         stroke-width="0"
         d="M476.66,708.49 L476.53,708.54 C476.16,707.97,476.03,707.88,475.58,707.88 H473.2 L474.88,709.63 C475.76,710.55,476.15,711.31,476.15,712.08 C476.15,713.08,475.34,713.84,474.31,713.84 C473.76,713.84,473.24,713.62,472.88,713.22 C472.56,712.89,472.41,712.57,472.24,711.86 L472.45,711.81 C472.85,712.79,473.2,713.1,473.89,713.1 C474.73,713.1,475.29,712.54,475.29,711.71 C475.29,710.93,474.84,710.01,474,709.12 L472.23,707.24 V707.12 H476.11 Z " /><path
         id="path10954"
         fill="black"
         stroke-width="0"
         d="M477.5,706.91 L477.6,706.92 L477.7,706.93 L477.8,706.94 L477.89,706.96 L477.98,706.97 L478.07,706.99 L478.16,707 L478.24,707.02 L478.32,707.03 L478.4,707.05 L478.48,707.07 L478.55,707.09 L478.62,707.11 L478.69,707.13 L478.83,707.17 L478.96,707.22 L479.09,707.28 L479.22,707.33 L479.34,707.4 L479.47,707.47 L479.59,707.54 L479.71,707.62 L479.77,707.67 L479.84,707.71 C480.87,708.47,481.48,709.7,481.48,711.04 C481.48,712.68,480.56,713.84,479.28,713.84 C478.1,713.84,477.21,712.84,477.21,711.5 C477.21,710.28,477.93,709.48,479,709.48 C479.55,709.48,479.97,709.64,480.49,710.05 L480.36,710.27 C480.08,710.04,479.72,709.91,479.36,709.91 C478.6,709.91,478.12,710.65,478.12,711.83 C478.12,712.4,478.29,713,478.49,713.25 C478.66,713.45,478.91,713.56,479.2,713.56 C480.07,713.56,480.51,712.71,480.51,711.04 V710.65 C480.51,710.45,480.47,710.36,480.36,710.27 L480.49,710.05 C480.08,708.43,478.98,707.36,477.47,707.1 Z " /><polygon
         id="polygon10956"
         fill="black"
         stroke-width="0"
         points="490.37,710.4 490.37,710.96 485.28,710.96 485.28,710.4 " /><polygon
         id="polygon10958"
         fill="black"
         stroke-width="0"
         points="490.37,708.39 490.37,708.94 485.28,708.94 485.28,708.39 " /><path
         id="path10960"
         fill="black"
         stroke-width="0"
         d="M303.42,696.26 L303.42,696.29 L303.42,696.32 L303.41,696.34 L303.41,696.37 L303.4,696.39 L303.39,696.42 L303.39,696.44 L303.38,696.47 L303.37,696.49 L303.35,696.51 L303.34,696.54 L303.33,696.56 L303.31,696.58 L303.3,696.6 L303.28,696.62 L303.26,696.63 L303.24,696.65 L303.23,696.67 L303.21,696.68 L303.18,696.7 L303.16,696.71 L303.14,696.73 L303.12,696.74 L303.1,696.75 L303.07,696.76 L303.05,696.77 L303.02,696.77 L303,696.78 L302.97,696.78 L302.94,696.79 L302.92,696.79 L302.89,696.79 C302.6,696.79,302.36,696.55,302.36,696.26 C302.36,695.98,302.6,695.74,302.89,695.74 C303.17,695.74,303.42,695.97,303.42,696.26 Z " /><path
         id="path10962"
         fill="black"
         stroke-width="0"
         d="M305.91,691.96 L305.91,691.99 L305.9,692.02 L305.9,692.04 L305.9,692.07 L305.89,692.09 L305.88,692.12 L305.87,692.14 L305.86,692.17 L305.85,692.19 L305.84,692.21 L305.83,692.23 L305.82,692.26 L305.8,692.28 L305.78,692.3 L305.77,692.32 L305.75,692.33 L305.73,692.35 L305.71,692.37 L305.69,692.38 L305.67,692.4 L305.65,692.41 L305.63,692.42 L305.61,692.44 L305.58,692.45 L305.56,692.46 L305.53,692.47 L305.51,692.47 L305.48,692.48 L305.46,692.48 L305.43,692.49 L305.4,692.49 L305.38,692.49 C305.09,692.49,304.85,692.25,304.85,691.96 C304.85,691.67,305.09,691.44,305.38,691.44 C305.67,691.44,305.91,691.67,305.91,691.96 Z " /><path
         id="path10964"
         fill="black"
         stroke-width="0"
         d="M300.93,691.96 L300.93,691.99 L300.93,692.02 L300.92,692.04 L300.92,692.07 L300.91,692.09 L300.91,692.12 L300.9,692.14 L300.89,692.17 L300.88,692.19 L300.87,692.21 L300.85,692.23 L300.84,692.26 L300.83,692.28 L300.81,692.3 L300.79,692.32 L300.78,692.33 L300.76,692.35 L300.74,692.37 L300.72,692.38 L300.7,692.4 L300.68,692.41 L300.65,692.42 L300.63,692.44 L300.61,692.45 L300.58,692.46 L300.56,692.47 L300.53,692.47 L300.51,692.48 L300.48,692.48 L300.46,692.49 L300.43,692.49 L300.4,692.49 C300.11,692.49,299.88,692.25,299.88,691.96 C299.88,691.67,300.11,691.44,300.4,691.44 C300.69,691.44,300.93,691.67,300.93,691.96 Z " /><path
         id="path10966"
         fill="black"
         stroke-width="0"
         d="M316.2,693.54 L316.08,693.59 C315.71,693.03,315.58,692.94,315.13,692.94 H312.75 L314.42,694.68 C315.31,695.61,315.7,696.36,315.7,697.14 C315.7,698.13,314.89,698.9,313.86,698.9 C313.31,698.9,312.79,698.68,312.42,698.28 C312.11,697.94,311.96,697.62,311.79,696.92 L311.99,696.87 C312.39,697.84,312.75,698.16,313.44,698.16 C314.27,698.16,314.84,697.59,314.84,696.76 C314.84,695.99,314.38,695.06,313.55,694.18 L311.78,692.3 V692.18 H315.66 Z " /><path
         id="path10968"
         fill="black"
         stroke-width="0"
         d="M317.51,696.48 L317.58,696.51 L317.64,696.55 L317.7,696.58 L317.75,696.62 L317.81,696.66 L317.86,696.69 L317.92,696.73 L317.97,696.78 L318.02,696.82 L318.07,696.86 L318.11,696.91 L318.16,696.95 L318.2,697 L318.24,697.05 L318.28,697.1 L318.32,697.15 L318.36,697.2 L318.39,697.25 L318.42,697.3 L318.45,697.35 L318.48,697.41 L318.5,697.46 L318.53,697.51 L318.55,697.57 L318.57,697.62 L318.58,697.68 L318.6,697.73 L318.61,697.79 L318.62,697.84 L318.62,697.9 L318.63,697.96 L318.63,698.01 C318.63,698.51,318.28,698.9,317.83,698.9 C317.48,698.9,317.24,698.67,317.24,698.33 C317.24,698.01,317.47,697.82,317.83,697.82 C317.89,697.82,317.96,697.83,318.02,697.84 C318.09,697.86,318.09,697.86,318.1,697.86 C318.18,697.86,318.24,697.8,318.24,697.72 C318.24,697.4,317.96,697.04,317.42,696.67 Z " /><path
         id="path10970"
         fill="black"
         stroke-width="0"
         d="M319.94,696.14 L319.94,696.14 L319.95,696.14 L319.95,696.14 L319.96,696.15 L319.97,696.15 L319.97,696.15 L319.98,696.15 L319.99,696.15 L320,696.16 L320,696.16 L320.02,696.16 L320.03,696.16 L320.05,696.17 L320.07,696.17 L320.09,696.17 L320.11,696.17 L320.12,696.17 L320.14,696.17 L320.16,696.17 L320.18,696.17 L320.2,696.17 C320.48,696.17,320.57,696.03,320.57,695.54 V693.08 C320.57,692.51,320.46,692.37,319.96,692.33 V692.18 H322.07 V692.33 C321.56,692.37,321.41,692.49,321.41,692.85 V695.64 C321.89,696.09,322.11,696.2,322.43,696.2 C322.92,696.2,323.16,695.9,323.16,695.24 V693.16 C323.16,692.54,323.03,692.37,322.53,692.33 V692.18 H324.6 V692.33 C324.11,692.38,323.99,692.5,323.99,692.99 V695.26 C323.99,696.19,323.56,696.75,322.82,696.75 C322.36,696.75,322.05,696.58,321.38,695.95 V696.73 L321.31,696.75 C320.82,696.57,320.48,696.46,319.94,696.3 Z " /><path
         id="path10972"
         fill="black"
         stroke-width="0"
         d="M328.18,692.08 L329.64,692.6 V692.76 C329.46,692.75,329.44,692.75,329.41,692.75 C329.06,692.75,328.98,692.86,328.98,693.31 V698.95 L328.93,698.97 C328.45,698.8,328.1,698.7,327.46,698.53 V698.37 C327.54,698.38,327.6,698.38,327.68,698.38 C328.05,698.38,328.14,698.28,328.14,697.87 V696.32 C327.76,696.64,327.49,696.75,327.1,696.75 C325.95,696.75,325.03,695.63,325.03,694.22 C325.03,692.95,325.77,692.08,326.87,692.08 C327.42,692.08,327.8,692.28,328.14,692.75 L327.97,692.9 C327.79,692.7,327.54,692.6,327.26,692.6 C326.43,692.6,325.88,693.39,325.88,694.61 C325.88,695.74,326.37,696.47,327.13,696.47 C327.65,696.47,328.14,696.01,328.14,695.48 V693.19 C328.14,693.12,328.07,693.01,327.97,692.9 L328.14,692.75 V692.11 Z " /><path
         id="path10974"
         fill="black"
         stroke-width="0"
         d="M336.19,693.73 L336.15,693.67 L336.1,693.61 L336.06,693.55 L336.02,693.49 L335.97,693.44 L335.93,693.39 L335.89,693.34 L335.85,693.29 L335.81,693.25 L335.77,693.21 L335.73,693.17 L335.69,693.13 L335.64,693.09 L335.6,693.06 L335.56,693.03 L335.52,693 L335.48,692.98 L335.44,692.95 L335.4,692.93 L335.35,692.91 L335.31,692.89 L335.27,692.87 L335.22,692.86 L335.18,692.85 L335.13,692.83 L335.09,692.82 L335.04,692.82 L334.99,692.81 L334.94,692.8 L334.89,692.8 L334.84,692.8 L334.79,692.8 C333.88,692.8,333.24,693.59,333.24,694.73 C333.24,695.76,333.79,696.46,334.6,696.46 C334.96,696.46,335.08,696.35,335.18,695.99 L335.24,695.77 C335.32,695.49,335.5,695.31,335.71,695.31 C335.97,695.31,336.19,695.5,336.19,695.73 C336.19,696.28,335.49,696.75,334.66,696.75 C334.17,696.75,333.66,696.55,333.26,696.19 C332.76,695.76,332.48,695.08,332.48,694.3 C332.48,693.01,333.27,692.08,334.37,692.08 C334.82,692.08,335.21,692.24,335.57,692.55 C335.84,692.79,336.03,693.05,336.33,693.64 Z " /><path
         id="path10976"
         fill="black"
         stroke-width="0"
         d="M339.14,696.75 L339.02,696.75 L338.9,696.74 L338.79,696.73 L338.67,696.71 L338.56,696.68 L338.46,696.65 L338.35,696.62 L338.25,696.58 L338.15,696.54 L338.06,696.49 L337.97,696.43 L337.88,696.38 L337.79,696.31 L337.71,696.25 L337.63,696.18 L337.56,696.1 L337.49,696.02 L337.42,695.94 L337.36,695.85 L337.3,695.76 L337.24,695.67 L337.19,695.57 L337.15,695.47 L337.1,695.37 L337.07,695.26 L337.03,695.15 L337.01,695.04 L336.98,694.92 L336.97,694.8 L336.95,694.68 L336.94,694.55 L336.94,694.43 C336.94,693.09,337.87,692.08,339.12,692.08 L339.24,692.36 C338.85,692.36,338.48,692.6,338.27,693 C338,693.51,337.84,694.21,337.84,694.91 C337.84,695.86,338.3,696.47,339.01,696.47 H339.01 C339.85,696.47,340.43,695.52,340.43,694.16 C340.43,693.03,339.99,692.36,339.24,692.36 L339.12,692.08 C340.37,692.08,341.33,693.14,341.33,694.51 C341.33,695.81,340.41,696.75,339.14,696.75 Z " /><path
         id="path10978"
         fill="black"
         stroke-width="0"
         d="M341.82,696.14 L341.84,696.14 L341.85,696.14 L341.86,696.14 L341.87,696.15 L341.88,696.15 L341.89,696.15 L341.91,696.15 L341.93,696.16 L341.95,696.16 L341.97,696.16 L341.99,696.17 L342.01,696.17 L342.03,696.17 L342.05,696.17 L342.06,696.17 L342.08,696.17 L342.1,696.17 L342.12,696.17 L342.14,696.17 C342.4,696.17,342.49,696.02,342.49,695.54 V693.03 C342.49,692.49,342.35,692.34,341.79,692.33 V692.18 H344 V692.33 C343.48,692.35,343.33,692.46,343.33,692.85 V695.65 C343.33,695.67,343.41,695.77,343.48,695.84 C343.72,696.07,344.15,696.23,344.5,696.23 C344.94,696.23,345.16,695.89,345.16,695.19 V693.03 C345.16,692.48,345.05,692.37,344.48,692.33 V692.18 H346.71 V692.33 C346.14,692.34,345.99,692.51,345.99,693.12 V695.63 C346.29,696.05,346.62,696.23,347.08,696.23 C347.64,696.23,347.82,695.97,347.82,695.14 V693.04 C347.82,692.48,347.74,692.4,347.17,692.33 V692.18 H349.35 V692.33 L349.09,692.35 C348.79,692.37,348.66,692.55,348.66,692.94 V694.98 C348.66,696.16,348.27,696.75,347.51,696.75 C346.93,696.75,346.42,696.49,345.88,695.92 C345.7,696.48,345.37,696.75,344.83,696.75 C344.39,696.75,344.11,696.61,343.29,695.99 V696.73 L343.22,696.75 C342.71,696.56,342.37,696.45,341.82,696.3 Z " /><path
         id="path10980"
         fill="black"
         stroke-width="0"
         d="M349.48,696.09 L349.49,696.09 L349.51,696.09 L349.52,696.09 L349.54,696.09 L349.55,696.09 L349.57,696.09 L349.58,696.09 L349.6,696.09 L349.63,696.09 L349.64,696.09 L349.66,696.09 L349.68,696.09 L349.69,696.09 L349.71,696.09 L349.72,696.09 C350.06,696.09,350.13,696,350.13,695.53 V690.88 C350.13,690.36,350.02,690.25,349.43,690.19 V690.03 H351.84 V690.2 C351.1,690.21,350.97,690.32,350.97,690.95 V692.51 C351.32,692.18,351.55,692.08,351.97,692.08 L352,692.4 C351.54,692.4,350.97,692.76,350.97,693.05 V695.5 C350.97,695.8,351.52,696.16,351.98,696.16 C352.72,696.16,353.21,695.4,353.21,694.25 C353.21,693.15,352.72,692.4,352,692.4 L351.97,692.08 C353.15,692.08,354.06,693.19,354.06,694.64 C354.06,695.87,353.36,696.75,352.4,696.75 C351.84,696.75,351.4,696.5,350.97,695.97 V696.73 L350.91,696.75 C350.37,696.54,350.02,696.41,349.48,696.24 Z " /><path
         id="path10982"
         fill="black"
         stroke-width="0"
         d="M354.56,698.37 H354.62 C354.73,698.38,354.84,698.39,354.92,698.39 C355.24,698.39,355.34,698.25,355.34,697.78 V693.04 C355.34,692.51,355.2,692.38,354.58,692.33 V692.18 H356.92 V692.33 C356.3,692.37,356.18,692.47,356.18,693.02 V698.95 L356.14,698.97 C355.62,698.8,355.24,698.7,354.56,698.53 Z " /><path
         id="path10984"
         fill="black"
         stroke-width="0"
         d="M361.2,693.81 L361.15,693.74 L361.11,693.67 L361.06,693.61 L361.02,693.55 L360.97,693.49 L360.93,693.43 L360.89,693.38 L360.84,693.33 L360.8,693.28 L360.75,693.23 L360.71,693.19 L360.67,693.15 L360.62,693.11 L360.58,693.07 L360.53,693.04 L360.48,693.01 L360.44,692.98 L360.39,692.95 L360.34,692.92 L360.3,692.9 L360.25,692.88 L360.2,692.86 L360.15,692.84 L360.1,692.82 L360.04,692.81 L359.99,692.8 L359.94,692.79 L359.88,692.78 L359.83,692.77 L359.77,692.77 L359.71,692.77 L359.65,692.77 C359.09,692.77,358.66,693.05,358.37,693.62 C358.19,694,358.12,694.33,358.1,694.93 L358.12,695.25 C358.23,696.03,358.57,696.39,359.18,696.39 C359.78,696.39,360.02,696.11,360.15,695.25 H358.12 L358.1,694.93 H361.17 C361.09,695.58,360.99,695.87,360.74,696.18 C360.44,696.54,359.98,696.75,359.46,696.75 C358.97,696.75,358.5,696.57,358.12,696.23 C357.65,695.83,357.39,695.12,357.39,694.31 C357.39,692.94,358.1,692.08,359.25,692.08 C360.19,692.08,360.94,692.67,361.36,693.74 Z " /><path
         id="path10986"
         fill="black"
         stroke-width="0"
         d="M361.75,696.14 L361.76,696.14 L361.77,696.14 L361.78,696.14 L361.8,696.15 L361.81,696.15 L361.82,696.15 L361.84,696.15 L361.86,696.16 L361.88,696.16 L361.9,696.16 L361.92,696.17 L361.93,696.17 L361.95,696.17 L361.97,696.17 L361.99,696.17 L362.01,696.17 L362.03,696.17 L362.05,696.17 L362.07,696.17 C362.33,696.17,362.42,696.02,362.42,695.54 V693.03 C362.42,692.49,362.28,692.34,361.72,692.33 V692.18 H363.93 V692.33 C363.4,692.35,363.25,692.46,363.25,692.85 V695.65 C363.25,695.67,363.33,695.77,363.4,695.84 C363.65,696.07,364.08,696.23,364.42,696.23 C364.86,696.23,365.08,695.89,365.08,695.19 V693.03 C365.08,692.48,364.97,692.37,364.4,692.33 V692.18 H366.63 V692.33 C366.07,692.34,365.92,692.51,365.92,693.12 V695.63 C366.22,696.05,366.54,696.23,367,696.23 C367.57,696.23,367.75,695.97,367.75,695.14 V693.04 C367.75,692.48,367.67,692.4,367.09,692.33 V692.18 H369.27 V692.33 L369.01,692.35 C368.71,692.37,368.58,692.55,368.58,692.94 V694.98 C368.58,696.16,368.2,696.75,367.43,696.75 C366.85,696.75,366.35,696.49,365.81,695.92 C365.63,696.48,365.29,696.75,364.75,696.75 C364.32,696.75,364.04,696.61,363.21,695.99 V696.73 L363.14,696.75 C362.63,696.56,362.3,696.45,361.75,696.3 Z " /><path
         id="path10988"
         fill="black"
         stroke-width="0"
         d="M373.37,693.81 L373.33,693.74 L373.28,693.67 L373.24,693.61 L373.19,693.55 L373.15,693.49 L373.1,693.43 L373.06,693.38 L373.02,693.33 L372.97,693.28 L372.93,693.23 L372.88,693.19 L372.84,693.15 L372.8,693.11 L372.75,693.07 L372.7,693.04 L372.66,693.01 L372.61,692.98 L372.57,692.95 L372.52,692.92 L372.47,692.9 L372.42,692.88 L372.37,692.86 L372.32,692.84 L372.27,692.82 L372.22,692.81 L372.17,692.8 L372.11,692.79 L372.06,692.78 L372,692.77 L371.95,692.77 L371.89,692.77 L371.83,692.77 C371.26,692.77,370.83,693.05,370.55,693.62 C370.36,694,370.3,694.33,370.28,694.93 L370.3,695.25 C370.4,696.03,370.74,696.39,371.35,696.39 C371.96,696.39,372.2,696.11,372.33,695.25 H370.3 L370.28,694.93 H373.34 C373.26,695.58,373.16,695.87,372.91,696.18 C372.61,696.54,372.16,696.75,371.64,696.75 C371.14,696.75,370.67,696.57,370.3,696.23 C369.83,695.83,369.56,695.12,369.56,694.31 C369.56,692.94,370.28,692.08,371.42,692.08 C372.36,692.08,373.11,692.67,373.53,693.74 Z " /><path
         id="path10990"
         fill="black"
         stroke-width="0"
         d="M373.89,696.14 L373.9,696.14 L373.9,696.14 L373.91,696.14 L373.92,696.15 L373.92,696.15 L373.93,696.15 L373.94,696.15 L373.95,696.15 L373.95,696.16 L373.96,696.16 L373.98,696.16 L373.99,696.16 L374.01,696.17 L374.03,696.17 L374.04,696.17 L374.06,696.17 L374.08,696.17 L374.1,696.17 L374.12,696.17 L374.14,696.17 L374.16,696.17 C374.44,696.17,374.53,696.03,374.53,695.54 V693.08 C374.53,692.51,374.42,692.37,373.91,692.33 V692.18 H376.02 V692.33 C375.52,692.37,375.37,692.49,375.37,692.85 V695.64 C375.84,696.09,376.06,696.2,376.39,696.2 C376.88,696.2,377.12,695.9,377.12,695.24 V693.16 C377.12,692.54,376.99,692.37,376.49,692.33 V692.18 H378.56 V692.33 C378.07,692.38,377.95,692.5,377.95,692.99 V695.26 C377.95,696.19,377.52,696.75,376.78,696.75 C376.32,696.75,376.01,696.58,375.34,695.95 V696.73 L375.27,696.75 C374.78,696.57,374.44,696.46,373.89,696.3 Z " /><path
         id="path10992"
         fill="black"
         stroke-width="0"
         d="M381.25,696.65 H380.25 V697.8 C380.25,697.9,380.24,697.93,380.18,697.93 C380.11,697.84,380.05,697.75,379.98,697.66 C379.6,697.11,379.17,696.63,379.01,696.59 C378.9,696.52,378.85,696.45,378.85,696.4 C378.85,696.37,378.86,696.35,378.89,696.33 H379.41 V693.34 C379.41,692.51,379.71,692.08,380.3,692.08 C380.79,692.08,381.16,692.32,381.49,692.84 L381.36,692.95 C381.15,692.7,380.98,692.6,380.77,692.6 C380.4,692.6,380.25,692.87,380.25,693.49 V696.33 H381.25 Z " /><path
         id="path10994"
         fill="black"
         stroke-width="0"
         d="M384.05,696.05 L384.06,696.06 L384.07,696.06 L384.08,696.06 L384.1,696.07 L384.12,696.07 L384.14,696.07 L384.16,696.08 L384.19,696.08 L384.21,696.08 L384.23,696.09 L384.25,696.09 L384.27,696.09 L384.29,696.09 L384.31,696.09 L384.33,696.09 L384.35,696.09 L384.37,696.09 L384.39,696.09 C384.64,696.09,384.73,695.94,384.73,695.5 V693.02 C384.73,692.52,384.66,692.45,384.02,692.33 V692.18 H386.41 V692.33 C385.74,692.36,385.57,692.51,385.57,693.08 V695.31 C385.57,695.63,385.99,696.12,386.26,696.12 C386.32,696.12,386.41,696.08,386.52,695.98 C386.68,695.84,386.79,695.78,386.92,695.78 C387.16,695.78,387.31,695.95,387.31,696.22 C387.31,696.55,387.1,696.75,386.76,696.75 C386.34,696.75,386.05,696.52,385.57,695.82 V696.73 L385.52,696.75 C384.99,696.53,384.63,696.4,384.05,696.21 Z " /><path
         id="path10996"
         fill="black"
         stroke-width="0"
         d="M391.35,693.81 L391.31,693.74 L391.26,693.67 L391.22,693.61 L391.17,693.55 L391.13,693.49 L391.09,693.43 L391.04,693.38 L391,693.33 L390.96,693.28 L390.91,693.23 L390.87,693.19 L390.82,693.15 L390.78,693.11 L390.73,693.07 L390.69,693.04 L390.64,693.01 L390.59,692.98 L390.55,692.95 L390.5,692.92 L390.45,692.9 L390.4,692.88 L390.35,692.86 L390.3,692.84 L390.25,692.82 L390.2,692.81 L390.15,692.8 L390.09,692.79 L390.04,692.78 L389.98,692.77 L389.93,692.77 L389.87,692.77 L389.81,692.77 C389.24,692.77,388.82,693.05,388.53,693.62 C388.35,694,388.28,694.33,388.26,694.93 L388.28,695.25 C388.39,696.03,388.73,696.39,389.33,696.39 C389.94,696.39,390.18,696.11,390.31,695.25 H388.28 L388.26,694.93 H391.32 C391.24,695.58,391.14,695.87,390.89,696.18 C390.6,696.54,390.14,696.75,389.62,696.75 C389.12,696.75,388.66,696.57,388.28,696.23 C387.81,695.83,387.54,695.12,387.54,694.31 C387.54,692.94,388.26,692.08,389.4,692.08 C390.35,692.08,391.09,692.67,391.51,693.74 Z " /><path
         id="path10998"
         fill="black"
         stroke-width="0"
         d="M391.81,696.09 L391.82,696.09 L391.84,696.09 L391.85,696.09 L391.87,696.09 L391.89,696.09 L391.9,696.09 L391.92,696.09 L391.93,696.09 L391.96,696.09 L391.98,696.09 L391.99,696.09 L392.01,696.09 L392.02,696.09 L392.04,696.09 L392.05,696.09 C392.39,696.09,392.46,696,392.46,695.53 V690.88 C392.46,690.36,392.35,690.25,391.77,690.19 V690.03 H394.17 V690.2 C393.43,690.21,393.3,690.32,393.3,690.95 V692.51 C393.65,692.18,393.89,692.08,394.3,692.08 L394.33,692.4 C393.87,692.4,393.3,692.76,393.3,693.05 V695.5 C393.3,695.8,393.86,696.16,394.31,696.16 C395.05,696.16,395.54,695.4,395.54,694.25 C395.54,693.15,395.05,692.4,394.33,692.4 L394.3,692.08 C395.48,692.08,396.39,693.19,396.39,694.64 C396.39,695.87,395.7,696.75,394.73,696.75 C394.17,696.75,393.74,696.5,393.3,695.97 V696.73 L393.24,696.75 C392.7,696.54,392.35,696.41,391.81,696.24 Z " /><path
         id="path11000"
         fill="black"
         stroke-width="0"
         d="M396.77,696.05 L396.78,696.06 L396.79,696.06 L396.81,696.06 L396.82,696.07 L396.84,696.07 L396.86,696.07 L396.89,696.08 L396.91,696.08 L396.93,696.08 L396.95,696.09 L396.97,696.09 L396.99,696.09 L397.01,696.09 L397.03,696.09 L397.05,696.09 L397.07,696.09 L397.09,696.09 L397.12,696.09 C397.36,696.09,397.45,695.94,397.45,695.5 V693.02 C397.45,692.52,397.38,692.45,396.75,692.33 V692.18 H399.14 V692.33 C398.46,692.36,398.29,692.51,398.29,693.08 V695.31 C398.29,695.63,398.72,696.12,398.99,696.12 C399.05,696.12,399.14,696.08,399.24,695.98 C399.4,695.84,399.51,695.78,399.64,695.78 C399.88,695.78,400.03,695.95,400.03,696.22 C400.03,696.55,399.82,696.75,399.48,696.75 C399.07,696.75,398.78,696.52,398.29,695.82 V696.73 L398.24,696.75 C397.71,696.53,397.35,696.4,396.77,696.21 Z " /><path
         id="path11002"
         fill="black"
         stroke-width="0"
         d="M404.08,693.81 L404.03,693.74 L403.99,693.67 L403.94,693.61 L403.9,693.55 L403.85,693.49 L403.81,693.43 L403.77,693.38 L403.72,693.33 L403.68,693.28 L403.63,693.23 L403.59,693.19 L403.54,693.15 L403.5,693.11 L403.45,693.07 L403.41,693.04 L403.36,693.01 L403.32,692.98 L403.27,692.95 L403.22,692.92 L403.17,692.9 L403.13,692.88 L403.08,692.86 L403.03,692.84 L402.98,692.82 L402.92,692.81 L402.87,692.8 L402.82,692.79 L402.76,692.78 L402.71,692.77 L402.65,692.77 L402.59,692.77 L402.53,692.77 C401.96,692.77,401.54,693.05,401.25,693.62 C401.07,694,401,694.33,400.98,694.93 L401,695.25 C401.11,696.03,401.45,696.39,402.05,696.39 C402.66,696.39,402.9,696.11,403.03,695.25 H401 L400.98,694.93 H404.05 C403.96,695.58,403.87,695.87,403.62,696.18 C403.32,696.54,402.86,696.75,402.34,696.75 C401.85,696.75,401.38,696.57,401,696.23 C400.53,695.83,400.26,695.12,400.26,694.31 C400.26,692.94,400.98,692.08,402.12,692.08 C403.07,692.08,403.82,692.67,404.23,693.74 Z " /><path
         id="path11004"
         fill="black"
         stroke-width="0"
         d="M407.57,695.3 L407.53,696.65 H407.42 L407.4,696.63 C407.31,696.56,407.3,696.55,407.26,696.55 C407.2,696.55,407.11,696.57,407,696.62 C406.78,696.7,406.56,696.74,406.3,696.74 C405.51,696.74,404.95,696.23,404.95,695.52 C404.95,694.96,405.27,694.57,406.11,694.09 L406.69,693.76 C407.04,693.56,407.2,693.32,407.2,693.02 C407.2,692.58,406.89,692.3,406.38,692.3 C406.04,692.3,405.73,692.43,405.54,692.65 C405.33,692.9,405.24,693.12,405.11,693.69 H404.96 V692.14 H405.08 C405.15,692.24,405.2,692.26,405.31,692.26 C405.4,692.26,405.54,692.24,405.77,692.18 C406.05,692.12,406.32,692.08,406.5,692.08 C407.26,692.08,407.9,692.66,407.9,693.35 C407.9,693.85,407.66,694.18,407.07,694.53 L405.99,695.17 C405.71,695.33,405.56,695.58,405.56,695.85 C405.56,696.24,405.87,696.52,406.33,696.52 C406.9,696.52,407.2,696.18,407.42,695.3 Z " /><path
         id="path11006"
         fill="black"
         stroke-width="0"
         d="M412.37,693.81 L412.33,693.74 L412.28,693.67 L412.24,693.61 L412.2,693.55 L412.15,693.49 L412.11,693.43 L412.06,693.38 L412.02,693.33 L411.98,693.28 L411.93,693.23 L411.89,693.19 L411.84,693.15 L411.8,693.11 L411.75,693.07 L411.71,693.04 L411.66,693.01 L411.62,692.98 L411.57,692.95 L411.52,692.92 L411.47,692.9 L411.42,692.88 L411.37,692.86 L411.32,692.84 L411.27,692.82 L411.22,692.81 L411.17,692.8 L411.12,692.79 L411.06,692.78 L411,692.77 L410.95,692.77 L410.89,692.77 L410.83,692.77 C410.26,692.77,409.84,693.05,409.55,693.62 C409.37,694,409.3,694.33,409.28,694.93 L409.3,695.25 C409.41,696.03,409.75,696.39,410.35,696.39 C410.96,696.39,411.2,696.11,411.33,695.25 H409.3 L409.28,694.93 H412.34 C412.26,695.58,412.17,695.87,411.92,696.18 C411.62,696.54,411.16,696.75,410.64,696.75 C410.14,696.75,409.68,696.57,409.3,696.23 C408.83,695.83,408.56,695.12,408.56,694.31 C408.56,692.94,409.28,692.08,410.42,692.08 C411.37,692.08,412.11,692.67,412.53,693.74 Z " /><path
         id="path11008"
         fill="black"
         stroke-width="0"
         d="M412.9,696.14 L412.9,696.14 L412.91,696.14 L412.91,696.14 L412.92,696.15 L412.93,696.15 L412.93,696.15 L412.94,696.15 L412.95,696.15 L412.96,696.16 L412.96,696.16 L412.98,696.16 L413,696.16 L413.01,696.17 L413.03,696.17 L413.05,696.17 L413.07,696.17 L413.09,696.17 L413.1,696.17 L413.12,696.17 L413.14,696.17 L413.17,696.17 C413.44,696.17,413.53,696.03,413.53,695.54 V693.08 C413.53,692.51,413.42,692.37,412.92,692.33 V692.18 H415.03 V692.33 C414.52,692.37,414.37,692.49,414.37,692.85 V695.64 C414.85,696.09,415.07,696.2,415.39,696.2 C415.88,696.2,416.12,695.9,416.12,695.24 V693.16 C416.12,692.54,415.99,692.37,415.49,692.33 V692.18 H417.56 V692.33 C417.08,692.38,416.96,692.5,416.96,692.99 V695.26 C416.96,696.19,416.52,696.75,415.78,696.75 C415.32,696.75,415.02,696.58,414.34,695.95 V696.73 L414.27,696.75 C413.78,696.57,413.44,696.46,412.9,696.3 Z " /><path
         id="path11010"
         fill="black"
         stroke-width="0"
         d="M420.26,696.65 H419.25 V697.8 C419.25,697.9,419.24,697.93,419.18,697.93 C419.11,697.84,419.05,697.75,418.98,697.66 C418.6,697.11,418.18,696.63,418.02,696.59 C417.91,696.52,417.85,696.45,417.85,696.4 C417.85,696.37,417.86,696.35,417.89,696.33 H418.42 V693.34 C418.42,692.51,418.71,692.08,419.3,692.08 C419.79,692.08,420.17,692.32,420.49,692.84 L420.36,692.95 C420.16,692.7,419.99,692.6,419.77,692.6 C419.4,692.6,419.25,692.87,419.25,693.49 V696.33 H420.26 Z " /><path
         id="path11012"
         fill="black"
         stroke-width="0"
         d="M424.89,692.84 L424.87,692.82 L424.85,692.81 L424.84,692.8 L424.82,692.79 L424.81,692.78 L424.8,692.77 L424.78,692.76 L424.77,692.75 L424.75,692.74 L424.74,692.73 L424.73,692.72 L424.71,692.72 L424.7,692.71 L424.69,692.7 L424.67,692.7 L424.66,692.69 L424.65,692.68 L424.63,692.68 L424.62,692.68 L424.61,692.67 L424.59,692.67 L424.58,692.66 L424.57,692.66 L424.56,692.66 L424.53,692.65 L424.5,692.65 L424.48,692.65 L424.45,692.65 C424.22,692.65,424.15,692.79,424.15,693.22 V695.16 C424.15,695.68,424.1,695.97,423.95,696.2 C423.73,696.56,423.3,696.75,422.72,696.75 C421.78,696.75,421.05,696.26,421.05,695.64 C421.05,695.41,421.24,695.21,421.47,695.21 C421.71,695.21,421.92,695.41,421.92,695.63 C421.92,695.67,421.91,695.72,421.9,695.79 C421.88,695.88,421.87,695.96,421.87,696.03 C421.87,696.29,422.19,696.51,422.59,696.51 C423.08,696.51,423.34,696.22,423.34,695.69 V695.08 V694.84 V693.4 C423.34,693.09,423.29,693.01,423.08,692.89 C422.85,692.75,422.57,692.66,422.36,692.66 C422.01,692.66,421.73,693,421.73,693.42 V693.46 C421.73,694.05,422.14,694.41,423.34,694.84 V695.08 C421.81,694.47,421.64,694.39,421.21,694.01 C421,693.81,420.86,693.47,420.86,693.15 C420.86,692.52,421.29,692.08,421.9,692.08 C422.34,692.08,422.75,692.29,423.35,692.81 C423.4,692.29,423.58,692.08,423.99,692.08 C424.33,692.08,424.54,692.2,424.89,692.58 Z " /><path
         id="path11014"
         fill="black"
         stroke-width="0"
         d="M427.45,696.65 H426.44 V697.8 C426.44,697.9,426.43,697.93,426.37,697.93 C426.3,697.84,426.24,697.75,426.17,697.66 C425.8,697.11,425.37,696.63,425.21,696.59 C425.1,696.52,425.04,696.45,425.04,696.4 C425.04,696.37,425.05,696.35,425.08,696.33 H425.61 V693.34 C425.61,692.51,425.91,692.08,426.49,692.08 C426.98,692.08,427.36,692.32,427.69,692.84 L427.56,692.95 C427.35,692.7,427.18,692.6,426.96,692.6 C426.59,692.6,426.44,692.87,426.44,693.49 V696.33 H427.45 Z " /><path
         id="path11016"
         fill="black"
         stroke-width="0"
         d="M429.42,696.75 L427.88,696.2 V696.05 L427.96,696.07 C428.08,696.09,428.21,696.09,428.3,696.09 C428.54,696.09,428.63,695.94,428.63,695.5 V693.19 C428.63,692.48,428.53,692.37,427.84,692.33 V692.18 H430.2 V692.33 C429.54,692.38,429.46,692.48,429.46,693.19 V696.72 Z " /><path
         id="path11018"
         fill="black"
         stroke-width="0"
         d="M428.95,698.97 L428.93,698.97 L428.91,698.96 L428.88,698.96 L428.86,698.96 L428.83,698.95 L428.81,698.94 L428.79,698.94 L428.76,698.93 L428.74,698.92 L428.72,698.9 L428.7,698.89 L428.68,698.88 L428.66,698.86 L428.64,698.85 L428.62,698.83 L428.61,698.82 L428.59,698.8 L428.57,698.78 L428.56,698.76 L428.54,698.74 L428.53,698.72 L428.52,698.7 L428.51,698.68 L428.5,698.66 L428.49,698.63 L428.48,698.61 L428.47,698.59 L428.47,698.56 L428.46,698.54 L428.46,698.51 L428.46,698.48 L428.46,698.46 C428.46,698.18,428.68,697.95,428.95,697.95 C429.24,697.95,429.47,698.17,429.47,698.46 C429.47,698.74,429.24,698.97,428.95,698.97 Z " /><path
         id="path11020"
         fill="black"
         stroke-width="0"
         d="M432.94,696.75 L432.82,696.75 L432.7,696.74 L432.58,696.73 L432.47,696.71 L432.36,696.68 L432.26,696.65 L432.15,696.62 L432.05,696.58 L431.95,696.54 L431.86,696.49 L431.76,696.43 L431.67,696.38 L431.59,696.31 L431.51,696.25 L431.43,696.18 L431.35,696.1 L431.28,696.02 L431.22,695.94 L431.15,695.85 L431.09,695.76 L431.04,695.67 L430.99,695.57 L430.94,695.47 L430.9,695.37 L430.86,695.26 L430.83,695.15 L430.8,695.04 L430.78,694.92 L430.76,694.8 L430.75,694.68 L430.74,694.55 L430.74,694.43 C430.74,693.09,431.67,692.08,432.92,692.08 L433.04,692.36 C432.65,692.36,432.28,692.6,432.07,693 C431.79,693.51,431.64,694.21,431.64,694.91 C431.64,695.86,432.1,696.47,432.81,696.47 H432.81 C433.64,696.47,434.23,695.52,434.23,694.16 C434.23,693.03,433.78,692.36,433.04,692.36 L432.92,692.08 C434.17,692.08,435.13,693.14,435.13,694.51 C435.13,695.81,434.21,696.75,432.94,696.75 Z " /><path
         id="path11022"
         fill="black"
         stroke-width="0"
         d="M435.59,696.14 L435.6,696.14 L435.6,696.14 L435.61,696.14 L435.62,696.15 L435.62,696.15 L435.63,696.15 L435.64,696.15 L435.64,696.15 L435.65,696.16 L435.66,696.16 L435.67,696.16 L435.69,696.16 L435.71,696.17 L435.72,696.17 L435.74,696.17 L435.76,696.17 L435.78,696.17 L435.8,696.17 L435.82,696.17 L435.84,696.17 L435.86,696.17 C436.14,696.17,436.23,696.03,436.23,695.54 V693.08 C436.23,692.51,436.12,692.37,435.61,692.33 V692.18 H437.72 V692.33 C437.21,692.37,437.06,692.49,437.06,692.85 V695.64 C437.54,696.09,437.76,696.2,438.09,696.2 C438.58,696.2,438.82,695.9,438.82,695.24 V693.16 C438.82,692.54,438.69,692.37,438.19,692.33 V692.18 H440.26 V692.33 C439.77,692.38,439.65,692.5,439.65,692.99 V695.26 C439.65,696.19,439.21,696.75,438.48,696.75 C438.02,696.75,437.71,696.58,437.03,695.95 V696.73 L436.96,696.75 C436.48,696.57,436.14,696.46,435.59,696.3 Z " /><path
         id="path11024"
         fill="black"
         stroke-width="0"
         d="M445.39,696.75 L445.27,696.75 L445.15,696.74 L445.04,696.73 L444.93,696.71 L444.82,696.68 L444.71,696.65 L444.6,696.62 L444.5,696.58 L444.4,696.54 L444.31,696.49 L444.22,696.43 L444.13,696.38 L444.04,696.31 L443.96,696.25 L443.88,696.18 L443.81,696.1 L443.74,696.02 L443.67,695.94 L443.61,695.85 L443.55,695.76 L443.49,695.67 L443.44,695.57 L443.4,695.47 L443.35,695.37 L443.32,695.26 L443.29,695.15 L443.26,695.04 L443.23,694.92 L443.22,694.8 L443.2,694.68 L443.2,694.55 L443.19,694.43 C443.19,693.09,444.12,692.08,445.37,692.08 L445.49,692.36 C445.1,692.36,444.73,692.6,444.53,693 C444.25,693.51,444.09,694.21,444.09,694.91 C444.09,695.86,444.56,696.47,445.26,696.47 H445.26 C446.1,696.47,446.68,695.52,446.68,694.16 C446.68,693.03,446.24,692.36,445.49,692.36 L445.37,692.08 C446.62,692.08,447.58,693.14,447.58,694.51 C447.58,695.81,446.67,696.75,445.39,696.75 Z " /><path
         id="path11026"
         fill="black"
         stroke-width="0"
         d="M450.96,696.65 H449.74 V697.8 C449.74,698.38,449.92,698.69,450.3,698.69 C450.51,698.69,450.65,698.59,450.83,698.3 C450.99,698.04,451.11,697.94,451.28,697.94 C451.51,697.94,451.7,698.12,451.7,698.35 C451.7,698.71,451.26,698.97,450.66,698.97 C450.04,698.97,449.52,698.7,449.26,698.24 C449,697.8,448.92,697.45,448.91,696.65 H448.09 V696.33 H448.91 V693.21 C448.91,692.49,448.8,692.37,448.08,692.33 V692.18 H450.67 V692.33 C449.86,692.36,449.75,692.47,449.75,693.21 V696.33 H450.96 Z " /><polygon
         id="polygon11028"
         fill="black"
         stroke-width="0"
         points="459.13,694.46 459.13,695.01 454.04,695.01 454.04,694.46 " /><path
         id="path11030"
         fill="black"
         stroke-width="0"
         d="M464.86,698.9 L463.07,697.99 V697.85 C463.19,697.9,463.3,697.94,463.34,697.96 C463.52,698.03,463.69,698.07,463.79,698.07 C464,698.07,464.09,697.92,464.09,697.6 V693.1 C464.09,692.78,464.01,692.55,463.85,692.46 C463.7,692.37,463.56,692.34,463.14,692.33 V692.18 H465.89 V692.33 C465.1,692.34,464.94,692.44,464.94,692.92 V698.88 Z " /><path
         id="path11032"
         fill="black"
         stroke-width="0"
         d="M469.48,698.9 L469.43,698.9 L469.37,698.89 L469.33,698.89 L469.28,698.89 L469.23,698.88 L469.18,698.88 L469.13,698.87 L469.09,698.86 L469.04,698.86 L469,698.85 L468.95,698.84 L468.91,698.82 L468.87,698.81 L468.83,698.8 L468.78,698.78 L468.74,698.77 L468.7,698.75 L468.66,698.73 L468.62,698.72 L468.58,698.7 L468.54,698.68 L468.51,698.65 L468.47,698.63 L468.43,698.61 L468.39,698.58 L468.36,698.56 L468.32,698.53 L468.28,698.5 L468.25,698.47 L468.21,698.44 L468.18,698.41 L468.14,698.38 C467.57,697.82,467.19,696.68,467.19,695.52 C467.19,694.44,467.52,693.27,467.98,692.72 C468.35,692.28,468.86,692.04,469.44,692.04 V692.3 C468.58,692.3,468.14,693.36,468.14,695.43 C468.14,697.53,468.59,698.64,469.45,698.64 H469.45 C470.28,698.64,470.73,697.52,470.73,695.44 C470.73,693.36,470.29,692.3,469.44,692.3 V692.04 C469.94,692.04,470.37,692.21,470.73,692.56 C471.31,693.1,471.68,694.26,471.68,695.46 C471.68,697.5,470.78,698.9,469.48,698.9 Z " /><path
         id="path11034"
         fill="black"
         stroke-width="0"
         d="M476.66,693.54 L476.53,693.59 C476.16,693.03,476.03,692.94,475.58,692.94 H473.2 L474.88,694.68 C475.76,695.61,476.15,696.36,476.15,697.14 C476.15,698.13,475.34,698.9,474.31,698.9 C473.76,698.9,473.24,698.68,472.88,698.28 C472.56,697.94,472.41,697.62,472.24,696.92 L472.45,696.87 C472.85,697.84,473.2,698.16,473.89,698.16 C474.73,698.16,475.29,697.59,475.29,696.76 C475.29,695.99,474.84,695.06,474,694.18 L472.23,692.3 V692.18 H476.11 Z " /><path
         id="path11036"
         fill="black"
         stroke-width="0"
         d="M477.5,691.96 L477.6,691.97 L477.7,691.99 L477.8,692 L477.89,692.01 L477.98,692.03 L478.07,692.04 L478.16,692.06 L478.24,692.07 L478.32,692.09 L478.4,692.11 L478.48,692.13 L478.55,692.15 L478.62,692.17 L478.69,692.19 L478.83,692.23 L478.96,692.28 L479.09,692.33 L479.22,692.39 L479.34,692.45 L479.47,692.52 L479.59,692.6 L479.71,692.68 L479.77,692.72 L479.84,692.77 C480.87,693.52,481.48,694.75,481.48,696.09 C481.48,697.73,480.56,698.9,479.28,698.9 C478.1,698.9,477.21,697.89,477.21,696.55 C477.21,695.34,477.93,694.53,479,694.53 C479.55,694.53,479.97,694.69,480.49,695.1 L480.36,695.33 C480.09,695.09,479.72,694.96,479.36,694.96 C478.6,694.96,478.13,695.71,478.13,696.89 C478.13,697.46,478.29,698.05,478.49,698.31 C478.66,698.51,478.91,698.62,479.2,698.62 C480.07,698.62,480.51,697.76,480.51,696.09 V695.71 C480.51,695.51,480.47,695.42,480.36,695.33 L480.49,695.1 C480.09,693.48,478.98,692.42,477.47,692.16 Z " /><polygon
         id="polygon11038"
         fill="black"
         stroke-width="0"
         points="490.37,695.46 490.37,696.02 485.28,696.02 485.28,695.46 " /><polygon
         id="polygon11040"
         fill="black"
         stroke-width="0"
         points="490.37,693.44 490.37,694 485.28,694 485.28,693.44 " /></g>    <g
       id="content"
       transform="matrix(1.2,0,0,-1.2,-323.0257,1681.8794)"
       xml:space="preserve"
       stroke="black"
       stroke-linecap="butt"
       stroke-linejoin="miter"
       stroke-miterlimit="10.433"
       stroke-dasharray="none"
       stroke-dashoffset="0"
       stroke-opacity="1"
       fill="none"
       fill-rule="evenodd"
       fill-opacity="1"
       font-style="normal"
       font-variant="normal"
       font-weight="normal"
       font-stretch="normal"
       font-size-adjust="none"
       letter-spacing="normal"
       word-spacing="normal"
       text-anchor="start"
       ns0:text="\\begin{align*}\nM&amp; = 1029\\\\\nN&amp; = -1029\n\\end{align*}"
       ns0:preamble="/home/sriranga/Desktop/Prism_BasicElectronics/preamble.tex"
       style="font-style:normal;font-variant:normal;font-weight:normal;font-stretch:normal;letter-spacing:normal;word-spacing:normal;text-anchor:start;fill:none;stroke:#000000;stroke-width:1;stroke-linecap:butt;stroke-linejoin:miter;stroke-miterlimit:10.43299961;stroke-opacity:1;stroke-dasharray:none;stroke-dashoffset:0"><path
         d="M380.81,713.61 H379.15 L375.8,708.71 L375.26,713.61 H373.45 V713.45 C373.95,713.42,374.19,713.31,374.19,713.09 C374.19,713.01,374.15,712.86,374.09,712.68 C374.07,712.64,374.04,712.53,374,712.38 C373.99,712.35,373.98,712.31,373.97,712.27 L372.92,708.58 C372.61,707.54,372.46,707.34,371.94,707.28 V707.12 H373.91 V707.28 C373.4,707.32,373.21,707.44,373.21,707.72 C373.21,707.82,373.25,708.08,373.3,708.25 L374.47,712.55 L375.08,707.12 H375.25 L379,712.7 L377.71,708.03 C377.55,707.5,377.36,707.35,376.71,707.28 V707.12 H379.42 V707.28 C378.75,707.34,378.66,707.4,378.66,707.71 C378.66,707.88,378.68,708.01,378.77,708.32 L379.99,712.72 C380.17,713.31,380.22,713.36,380.81,713.45 Z "
         stroke-width="0"
         fill="black"
         id="path11339" /><polygon
         points="389.3,710.4 389.3,710.96 384.2,710.96 384.2,710.4 "
         stroke-width="0"
         fill="black"
         id="polygon11341" /><polygon
         points="389.3,708.39 389.3,708.94 384.2,708.94 384.2,708.39 "
         stroke-width="0"
         fill="black"
         id="polygon11343" /><path
         d="M395.58,713.84 L393.79,712.94 V712.8 C393.91,712.85,394.02,712.89,394.06,712.91 C394.24,712.98,394.41,713.02,394.51,713.02 C394.72,713.02,394.81,712.87,394.81,712.55 V708.05 C394.81,707.72,394.73,707.49,394.57,707.4 C394.42,707.31,394.28,707.28,393.86,707.27 V707.12 H396.61 V707.27 C395.82,707.28,395.67,707.38,395.67,707.86 V713.82 Z "
         stroke-width="0"
         fill="black"
         id="path11345" /><path
         d="M400.2,713.84 L400.15,713.84 L400.1,713.84 L400.05,713.84 L400,713.83 L399.95,713.83 L399.9,713.82 L399.86,713.82 L399.81,713.81 L399.77,713.8 L399.72,713.79 L399.68,713.78 L399.63,713.77 L399.59,713.76 L399.55,713.74 L399.51,713.73 L399.46,713.71 L399.42,713.7 L399.38,713.68 L399.34,713.66 L399.3,713.64 L399.27,713.62 L399.23,713.6 L399.19,713.57 L399.15,713.55 L399.11,713.53 L399.08,713.5 L399.04,713.47 L399.01,713.45 L398.97,713.42 L398.93,713.39 L398.9,713.36 L398.86,713.32 C398.29,712.77,397.91,711.62,397.91,710.46 C397.91,709.38,398.24,708.22,398.71,707.66 C399.07,707.22,399.58,706.99,400.16,706.99 V707.24 C399.3,707.24,398.86,708.31,398.86,710.37 C398.86,712.48,399.31,713.58,400.17,713.58 H400.17 C401,713.58,401.45,712.46,401.45,710.38 C401.45,708.31,401.01,707.24,400.16,707.24 V706.99 C400.67,706.99,401.09,707.16,401.45,707.5 C402.03,708.05,402.41,709.2,402.41,710.4 C402.41,712.44,401.5,713.84,400.2,713.84 Z "
         stroke-width="0"
         fill="black"
         id="path11347" /><path
         d="M407.38,708.49 L407.25,708.54 C406.88,707.97,406.75,707.88,406.3,707.88 H403.93 L405.6,709.63 C406.48,710.55,406.87,711.31,406.87,712.08 C406.87,713.08,406.07,713.84,405.03,713.84 C404.48,713.84,403.97,713.62,403.6,713.22 C403.28,712.89,403.13,712.57,402.96,711.86 L403.17,711.81 C403.57,712.79,403.93,713.1,404.61,713.1 C405.45,713.1,406.02,712.54,406.02,711.71 C406.02,710.93,405.56,710.01,404.72,709.12 L402.95,707.24 V707.12 H406.83 Z "
         stroke-width="0"
         fill="black"
         id="path11349" /><path
         d="M408.22,706.91 L408.32,706.92 L408.42,706.93 L408.52,706.94 L408.61,706.96 L408.7,706.97 L408.79,706.99 L408.88,707 L408.96,707.02 L409.04,707.03 L409.12,707.05 L409.2,707.07 L409.27,707.09 L409.34,707.11 L409.42,707.13 L409.55,707.17 L409.69,707.22 L409.82,707.28 L409.94,707.33 L410.06,707.4 L410.19,707.47 L410.31,707.54 L410.43,707.62 L410.5,707.67 L410.56,707.71 C411.59,708.47,412.2,709.7,412.2,711.04 C412.2,712.68,411.29,713.84,410,713.84 C408.82,713.84,407.93,712.84,407.93,711.5 C407.93,710.28,408.65,709.48,409.72,709.48 C410.27,709.48,410.69,709.64,411.22,710.05 L411.09,710.27 C410.81,710.04,410.44,709.91,410.08,709.91 C409.33,709.91,408.85,710.65,408.85,711.83 C408.85,712.4,409.01,713,409.22,713.25 C409.39,713.45,409.63,713.56,409.92,713.56 C410.79,713.56,411.24,712.71,411.24,711.04 V710.65 C411.24,710.45,411.2,710.36,411.09,710.27 L411.22,710.05 C410.81,708.43,409.7,707.36,408.19,707.1 Z "
         stroke-width="0"
         fill="black"
         id="path11351" /><path
         d="M380.81,698.67 H378.83 V698.51 C379.4,698.46,379.53,698.36,379.53,698 C379.53,697.88,379.51,697.76,379.44,697.57 C379.43,697.53,379.42,697.5,379.42,697.49 L378.4,693.71 L376.33,698.67 H374.73 V698.51 C375.2,698.47,375.41,698.34,375.59,697.95 L374.4,693.81 C374.02,692.54,373.94,692.42,373.38,692.34 V692.18 H375.35 V692.34 C374.84,692.38,374.65,692.49,374.65,692.77 C374.65,692.9,374.68,693.09,374.74,693.3 L375.87,697.5 L378.16,692.03 H378.34 L379.77,697.03 C380.14,698.31,380.18,698.37,380.81,698.51 Z "
         stroke-width="0"
         fill="black"
         id="path11353" /><polygon
         points="389.3,695.46 389.3,696.02 384.2,696.02 384.2,695.46 "
         stroke-width="0"
         fill="black"
         id="polygon11355" /><polygon
         points="389.3,693.44 389.3,694 384.2,694 384.2,693.44 "
         stroke-width="0"
         fill="black"
         id="polygon11357" /><polygon
         points="398.4,694.46 398.4,695.01 393.31,695.01 393.31,694.46 "
         stroke-width="0"
         fill="black"
         id="polygon11359" /><path
         d="M401.92,698.9 L400.13,697.99 V697.85 C400.25,697.9,400.36,697.94,400.4,697.96 C400.58,698.03,400.75,698.07,400.85,698.07 C401.06,698.07,401.14,697.92,401.14,697.6 V693.1 C401.14,692.78,401.07,692.55,400.91,692.46 C400.76,692.37,400.62,692.34,400.2,692.33 V692.18 H402.95 V692.33 C402.16,692.34,402,692.44,402,692.92 V698.88 Z "
         stroke-width="0"
         fill="black"
         id="path11361" /><path
         d="M406.53,698.9 L406.48,698.9 L406.43,698.89 L406.38,698.89 L406.33,698.89 L406.29,698.88 L406.24,698.88 L406.19,698.87 L406.15,698.86 L406.1,698.86 L406.06,698.85 L406.01,698.84 L405.97,698.82 L405.93,698.81 L405.88,698.8 L405.84,698.78 L405.8,698.77 L405.76,698.75 L405.72,698.73 L405.68,698.72 L405.64,698.7 L405.6,698.68 L405.56,698.65 L405.53,698.63 L405.49,698.61 L405.45,698.58 L405.41,698.56 L405.38,698.53 L405.34,698.5 L405.31,698.47 L405.27,698.44 L405.24,698.41 L405.2,698.38 C404.62,697.82,404.25,696.68,404.25,695.52 C404.25,694.44,404.57,693.27,405.04,692.72 C405.41,692.28,405.92,692.04,406.49,692.04 V692.3 C405.64,692.3,405.2,693.36,405.2,695.43 C405.2,697.53,405.65,698.64,406.51,698.64 H406.51 C407.34,698.64,407.79,697.52,407.79,695.44 C407.79,693.36,407.35,692.3,406.49,692.3 V692.04 C407,692.04,407.43,692.21,407.79,692.56 C408.36,693.1,408.74,694.26,408.74,695.46 C408.74,697.5,407.84,698.9,406.53,698.9 Z "
         stroke-width="0"
         fill="black"
         id="path11363" /><path
         d="M413.71,693.54 L413.58,693.59 C413.22,693.03,413.09,692.94,412.64,692.94 H410.26 L411.93,694.68 C412.82,695.61,413.21,696.36,413.21,697.14 C413.21,698.13,412.4,698.9,411.37,698.9 C410.82,698.9,410.3,698.68,409.93,698.28 C409.61,697.94,409.47,697.62,409.3,696.92 L409.51,696.87 C409.9,697.84,410.26,698.16,410.95,698.16 C411.78,698.16,412.35,697.59,412.35,696.76 C412.35,695.99,411.89,695.06,411.06,694.18 L409.29,692.3 V692.18 H413.17 Z "
         stroke-width="0"
         fill="black"
         id="path11365" /><path
         d="M414.56,691.96 L414.66,691.97 L414.76,691.99 L414.86,692 L414.95,692.01 L415.04,692.03 L415.13,692.04 L415.21,692.06 L415.3,692.07 L415.38,692.09 L415.46,692.11 L415.53,692.13 L415.61,692.15 L415.68,692.17 L415.75,692.19 L415.89,692.23 L416.02,692.28 L416.15,692.33 L416.28,692.39 L416.4,692.45 L416.52,692.52 L416.65,692.6 L416.77,692.68 L416.83,692.72 L416.89,692.77 C417.93,693.52,418.54,694.75,418.54,696.09 C418.54,697.73,417.62,698.9,416.34,698.9 C415.15,698.9,414.27,697.89,414.27,696.55 C414.27,695.34,414.98,694.53,416.06,694.53 C416.61,694.53,417.02,694.69,417.55,695.1 L417.42,695.33 C417.14,695.09,416.78,694.96,416.42,694.96 C415.66,694.96,415.18,695.71,415.18,696.89 C415.18,697.46,415.34,698.05,415.55,698.31 C415.72,698.51,415.97,698.62,416.26,698.62 C417.12,698.62,417.57,697.76,417.57,696.09 V695.71 C417.57,695.51,417.53,695.42,417.42,695.33 L417.55,695.1 C417.14,693.48,416.04,692.42,414.53,692.16 Z "
         stroke-width="0"
         fill="black"
         id="path11367" /></g>    <g
       style="font-style:normal;font-variant:normal;font-weight:normal;font-stretch:normal;letter-spacing:normal;word-spacing:normal;text-anchor:start;fill:none;stroke:#000000;stroke-width:1;stroke-linecap:butt;stroke-linejoin:miter;stroke-miterlimit:10.43299961;stroke-opacity:1;stroke-dasharray:none;stroke-dashoffset:0"
       ns0:preamble="/home/sriranga/Desktop/Prism_BasicElectronics/preamble.tex"
       ns0:text="$\\therefore $~ Answer~ $= (00000000000)_{2}=0$ "
       word-spacing="normal"
       letter-spacing="normal"
       font-size-adjust="none"
       font-stretch="normal"
       font-weight="normal"
       font-variant="normal"
       font-style="normal"
       stroke-miterlimit="10.433"
       xml:space="preserve"
       transform="matrix(1.2,0,0,-1.2,-87.858977,1760.9868)"
       id="g11653"><path
         id="path11655"
         d="m 227.27,711.21 0,0.02 0,0.03 0,0.03 -0.01,0.02 0,0.03 -0.01,0.02 -0.01,0.03 -0.01,0.02 -0.01,0.02 -0.01,0.03 -0.01,0.02 -0.02,0.02 -0.01,0.02 -0.02,0.02 -0.02,0.02 -0.01,0.02 -0.02,0.02 -0.02,0.01 -0.02,0.02 -0.02,0.01 -0.02,0.02 -0.02,0.01 -0.03,0.01 -0.02,0.01 -0.02,0.01 -0.03,0.01 -0.02,0.01 -0.03,0 -0.03,0.01 -0.02,0 -0.03,0 -0.03,0 c -0.28,0 -0.52,-0.23 -0.52,-0.52 0,-0.29 0.24,-0.53 0.52,-0.53 0.28,0 0.53,0.23 0.53,0.53 z"
         inkscape:connector-curvature="0"
         style="fill:#000000;stroke-width:0" /><path
         id="path11657"
         d="m 229.76,706.91 0,0.02 0,0.03 -0.01,0.03 0,0.02 -0.01,0.03 0,0.02 -0.01,0.03 -0.01,0.02 -0.01,0.02 -0.01,0.03 -0.02,0.02 -0.01,0.02 -0.02,0.02 -0.01,0.02 -0.02,0.02 -0.02,0.02 -0.01,0.02 -0.02,0.01 -0.02,0.02 -0.02,0.01 -0.03,0.02 -0.02,0.01 -0.02,0.01 -0.02,0.01 -0.03,0.01 -0.02,0.01 -0.03,0.01 -0.02,0 -0.03,0.01 -0.02,0 -0.03,0 -0.03,0 c -0.29,0 -0.52,-0.24 -0.52,-0.52 0,-0.29 0.23,-0.53 0.52,-0.53 0.29,0 0.53,0.24 0.53,0.53 z"
         inkscape:connector-curvature="0"
         style="fill:#000000;stroke-width:0" /><path
         id="path11659"
         d="m 224.79,706.91 -0.01,0.02 0,0.03 0,0.03 -0.01,0.02 0,0.03 -0.01,0.02 -0.01,0.03 -0.01,0.02 -0.01,0.02 -0.01,0.03 -0.01,0.02 -0.02,0.02 -0.01,0.02 -0.02,0.02 -0.01,0.02 -0.02,0.02 -0.02,0.02 -0.02,0.01 -0.02,0.02 -0.02,0.01 -0.02,0.02 -0.02,0.01 -0.02,0.01 -0.03,0.01 -0.02,0.01 -0.03,0.01 -0.02,0.01 -0.03,0 -0.02,0.01 -0.03,0 -0.03,0 -0.02,0 c -0.29,0 -0.53,-0.24 -0.53,-0.52 0,-0.29 0.24,-0.53 0.53,-0.53 0.29,0 0.53,0.24 0.53,0.53 z"
         inkscape:connector-curvature="0"
         style="fill:#000000;stroke-width:0" /><path
         id="path11661"
         d="m 242.08,707.31 -0.04,0.01 -0.04,0 -0.04,0 -0.03,0.01 -0.04,0.01 -0.03,0 -0.03,0.01 -0.03,0.01 -0.03,0.01 -0.03,0.01 -0.02,0.01 -0.03,0.02 -0.02,0.01 -0.03,0.02 -0.02,0.02 -0.03,0.02 -0.02,0.03 -0.02,0.02 -0.03,0.03 -0.02,0.03 -0.02,0.03 -0.02,0.04 -0.03,0.04 -0.02,0.04 -0.03,0.04 -0.02,0.05 -0.03,0.05 -0.03,0.05 -0.02,0.06 -0.03,0.06 -0.02,0.03 -0.01,0.03 -0.02,0.03 -0.02,0.04 -2.47,5.64 h -0.2 l -2.07,-4.88 c -0.64,-1.45 -0.76,-1.61 -1.24,-1.63 v -0.19 h 1.97 v 0.19 c -0.47,0 -0.67,0.13 -0.67,0.41 0,0.12 0.03,0.26 0.08,0.39 l 0.46,1.16 h 2.6 l -0.14,0.41 h -2.3 l 1.15,2.73 1.15,-2.73 0.14,-0.41 0.41,-0.95 c 0.12,-0.27 0.19,-0.53 0.19,-0.67 0,-0.25 -0.17,-0.33 -0.7,-0.34 v -0.19 h 2.54 z"
         inkscape:connector-curvature="0"
         style="fill:#000000;stroke-width:0" /><path
         id="path11663"
         d="m 242.41,711.08 0,0 0.01,0 0,0.01 0.01,0 0.01,0 0,0 0.01,0.01 0.01,0 0.01,0 0,0 0.02,0 0.02,0.01 0.01,0 0.02,0 0.02,0 0.02,0 0.02,0.01 0.02,0 0.02,0 0.02,0 0.02,0 c 0.27,0 0.36,-0.15 0.36,-0.64 v -2.46 c 0,-0.57 -0.11,-0.71 -0.61,-0.75 v -0.15 h 2.11 v 0.15 c -0.51,0.04 -0.66,0.16 -0.66,0.52 v 2.79 c 0.48,0.45 0.7,0.57 1.02,0.57 0.49,0 0.73,-0.31 0.73,-0.97 v -2.07 c 0,-0.63 -0.13,-0.8 -0.63,-0.84 v -0.15 h 2.07 v 0.15 c -0.48,0.05 -0.6,0.17 -0.6,0.66 v 2.27 c 0,0.94 -0.44,1.5 -1.18,1.5 -0.45,0 -0.76,-0.17 -1.44,-0.81 v 0.78 l -0.07,0.03 c -0.49,-0.18 -0.83,-0.29 -1.37,-0.45 z"
         inkscape:connector-curvature="0"
         style="fill:#000000;stroke-width:0" /><path
         id="path11665"
         d="m 250.36,710.24 -0.04,1.35 h -0.11 l -0.02,-0.01 c -0.09,-0.07 -0.09,-0.08 -0.14,-0.08 -0.06,0 -0.15,0.02 -0.26,0.07 -0.22,0.08 -0.44,0.11 -0.7,0.11 -0.79,0 -1.35,-0.5 -1.35,-1.22 0,-0.55 0.31,-0.95 1.16,-1.43 l 0.58,-0.33 c 0.35,-0.19 0.51,-0.43 0.51,-0.74 0,-0.44 -0.31,-0.72 -0.82,-0.72 -0.34,0 -0.65,0.13 -0.84,0.35 -0.21,0.25 -0.29,0.48 -0.42,1.05 h -0.16 v -1.55 h 0.13 c 0.07,0.09 0.11,0.11 0.22,0.11 0.09,0 0.23,-0.02 0.46,-0.08 0.28,-0.05 0.55,-0.09 0.73,-0.09 0.76,0 1.4,0.57 1.4,1.27 0,0.49 -0.24,0.82 -0.83,1.18 l -1.08,0.63 c -0.28,0.16 -0.43,0.41 -0.43,0.68 0,0.4 0.31,0.68 0.77,0.68 0.57,0 0.87,-0.34 1.09,-1.23 z"
         inkscape:connector-curvature="0"
         style="fill:#000000;stroke-width:0" /><path
         id="path11667"
         d="m 256.79,711.59 v -0.14 c 0.33,-0.07 0.43,-0.14 0.43,-0.31 0,-0.15 -0.06,-0.39 -0.17,-0.66 l -0.89,-2.2 -0.84,2.22 c -0.17,0.46 -0.17,0.46 -0.17,0.59 0,0.22 0.11,0.29 0.58,0.36 v 0.14 h -2.02 v -0.14 c 0.37,-0.04 0.49,-0.15 0.69,-0.69 0.07,-0.19 0.14,-0.38 0.2,-0.56 l -0.91,-1.97 -0.98,2.59 c -0.04,0.1 -0.06,0.2 -0.06,0.3 0,0.21 0.12,0.29 0.45,0.33 v 0.14 h -1.79 v -0.14 c 0.23,-0.02 0.31,-0.12 0.53,-0.63 l 1.34,-3.4 c 0.12,-0.3 0.2,-0.43 0.26,-0.43 0.05,0 0.13,0.12 0.25,0.38 l 1.12,2.39 0.9,-2.35 c 0.14,-0.36 0.18,-0.42 0.24,-0.42 0.07,0 0.12,0.09 0.28,0.48 l 1.37,3.44 c 0.18,0.42 0.21,0.47 0.41,0.54 v 0.14 z"
         inkscape:connector-curvature="0"
         style="fill:#000000;stroke-width:0" /><path
         id="path11669"
         d="m 262.36,708.75 -0.05,-0.07 -0.04,-0.06 -0.05,-0.07 -0.04,-0.06 -0.04,-0.06 -0.05,-0.05 -0.04,-0.06 -0.05,-0.05 -0.04,-0.05 -0.04,-0.04 -0.05,-0.05 -0.04,-0.04 -0.05,-0.04 -0.04,-0.03 -0.05,-0.04 -0.04,-0.03 -0.05,-0.03 -0.05,-0.03 -0.05,-0.02 -0.04,-0.03 -0.05,-0.02 -0.05,-0.02 -0.05,-0.02 -0.05,-0.01 -0.05,-0.02 -0.06,-0.01 -0.05,-0.01 -0.06,-0.01 -0.05,0 -0.06,-0.01 -0.06,0 -0.05,0 c -0.57,0 -1,0.29 -1.29,0.86 -0.18,0.37 -0.25,0.7 -0.27,1.31 l 0.02,0.32 c 0.11,0.77 0.45,1.14 1.06,1.14 0.6,0 0.84,-0.28 0.97,-1.14 h -2.03 l -0.02,-0.32 h 3.07 c -0.08,0.64 -0.18,0.93 -0.43,1.25 -0.3,0.36 -0.76,0.57 -1.27,0.57 -0.5,0 -0.97,-0.18 -1.35,-0.52 -0.46,-0.41 -0.73,-1.11 -0.73,-1.93 0,-1.37 0.71,-2.22 1.86,-2.22 0.94,0 1.69,0.58 2.11,1.65 z"
         inkscape:connector-curvature="0"
         style="fill:#000000;stroke-width:0" /><path
         id="path11671"
         d="m 262.79,711 0.01,0 0.02,0 0.01,0.01 0.01,0 0.02,0 0.03,0.01 0.02,0 0.02,0 0.02,0.01 0.02,0 0.02,0 0.02,0 0.02,0.01 0.02,0 0.02,0 0.03,0 0.02,0 0.02,0 c 0.25,0 0.34,-0.16 0.34,-0.6 v -2.48 c 0,-0.5 -0.07,-0.57 -0.71,-0.69 v -0.15 h 2.39 v 0.15 c -0.68,0.03 -0.85,0.18 -0.85,0.75 v 2.23 c 0,0.32 0.43,0.82 0.7,0.82 0.06,0 0.15,-0.05 0.26,-0.15 0.16,-0.14 0.27,-0.2 0.4,-0.2 0.23,0 0.38,0.17 0.38,0.45 0,0.33 -0.2,0.53 -0.54,0.53 -0.42,0 -0.71,-0.23 -1.2,-0.94 v 0.91 l -0.05,0.03 c -0.52,-0.22 -0.88,-0.35 -1.47,-0.54 z"
         inkscape:connector-curvature="0"
         style="fill:#000000;stroke-width:0" /><polygon
         id="polygon11673"
         points="271.64,710.4 276.73,710.4 276.73,710.96 271.64,710.96 "
         style="fill:#000000;stroke-width:0" /><polygon
         id="polygon11675"
         points="271.64,708.39 276.73,708.39 276.73,708.94 271.64,708.94 "
         style="fill:#000000;stroke-width:0" /><path
         id="path11677"
         d="m 283.06,713.84 -0.07,-0.04 -0.06,-0.05 -0.07,-0.04 -0.06,-0.04 -0.06,-0.04 -0.05,-0.04 -0.06,-0.04 -0.05,-0.03 -0.05,-0.04 -0.05,-0.04 -0.05,-0.03 -0.04,-0.04 -0.05,-0.03 -0.04,-0.04 -0.08,-0.06 -0.08,-0.07 -0.07,-0.07 -0.07,-0.07 -0.07,-0.07 -0.07,-0.07 -0.07,-0.08 -0.07,-0.08 -0.06,-0.08 c -0.71,-0.87 -1.06,-1.86 -1.06,-3.02 0,-1.26 0.37,-2.24 1.25,-3.25 0.4,-0.48 0.66,-0.7 1.18,-1.01 l 0.12,0.16 c -0.8,0.62 -1.08,0.97 -1.35,1.71 -0.23,0.67 -0.34,1.42 -0.34,2.42 0,1.04 0.13,1.86 0.4,2.47 0.27,0.62 0.57,0.97 1.29,1.55 z"
         inkscape:connector-curvature="0"
         style="fill:#000000;stroke-width:0" /><path
         id="path11679"
         d="m 285.97,713.84 -0.05,0 -0.05,0 -0.05,0 -0.05,-0.01 -0.05,0 -0.05,-0.01 -0.04,0 -0.05,-0.01 -0.04,-0.01 -0.05,-0.01 -0.04,-0.01 -0.05,-0.01 -0.04,-0.01 -0.04,-0.02 -0.04,-0.01 -0.05,-0.02 -0.04,-0.01 -0.04,-0.02 -0.04,-0.02 -0.04,-0.02 -0.03,-0.02 -0.04,-0.02 -0.04,-0.03 -0.04,-0.02 -0.04,-0.02 -0.03,-0.03 -0.04,-0.03 -0.03,-0.02 -0.04,-0.03 -0.04,-0.03 -0.03,-0.03 -0.03,-0.04 c -0.58,-0.55 -0.96,-1.7 -0.96,-2.86 0,-1.08 0.33,-2.24 0.8,-2.8 0.36,-0.44 0.87,-0.67 1.45,-0.67 v 0.25 c -0.86,0 -1.29,1.07 -1.29,3.13 0,2.11 0.44,3.21 1.3,3.21 h 0 c 0.83,0 1.28,-1.12 1.28,-3.2 0,-2.07 -0.44,-3.14 -1.29,-3.14 v -0.25 c 0.51,0 0.93,0.17 1.29,0.51 0.58,0.55 0.96,1.7 0.96,2.9 0,2.04 -0.91,3.44 -2.21,3.44 z"
         inkscape:connector-curvature="0"
         style="fill:#000000;stroke-width:0" /><path
         id="path11681"
         d="m 290.95,713.84 -0.05,0 -0.05,0 -0.05,0 -0.05,-0.01 -0.05,0 -0.04,-0.01 -0.05,0 -0.05,-0.01 -0.04,-0.01 -0.05,-0.01 -0.04,-0.01 -0.05,-0.01 -0.04,-0.01 -0.04,-0.02 -0.04,-0.01 -0.04,-0.02 -0.04,-0.01 -0.04,-0.02 -0.04,-0.02 -0.04,-0.02 -0.04,-0.02 -0.04,-0.02 -0.04,-0.03 -0.04,-0.02 -0.03,-0.02 -0.04,-0.03 -0.04,-0.03 -0.03,-0.02 -0.04,-0.03 -0.03,-0.03 -0.04,-0.03 -0.03,-0.04 c -0.58,-0.55 -0.96,-1.7 -0.96,-2.86 0,-1.08 0.33,-2.24 0.8,-2.8 0.37,-0.44 0.87,-0.67 1.45,-0.67 v 0.25 c -0.86,0 -1.29,1.07 -1.29,3.13 0,2.11 0.44,3.21 1.3,3.21 h 0 c 0.84,0 1.28,-1.12 1.28,-3.2 0,-2.07 -0.43,-3.14 -1.29,-3.14 v -0.25 c 0.51,0 0.94,0.17 1.29,0.51 0.58,0.55 0.96,1.7 0.96,2.9 0,2.04 -0.91,3.44 -2.21,3.44 z"
         inkscape:connector-curvature="0"
         style="fill:#000000;stroke-width:0" /><path
         id="path11683"
         d="m 295.93,713.84 -0.05,0 -0.05,0 -0.05,0 -0.05,-0.01 -0.05,0 -0.04,-0.01 -0.05,0 -0.05,-0.01 -0.04,-0.01 -0.05,-0.01 -0.04,-0.01 -0.04,-0.01 -0.05,-0.01 -0.04,-0.02 -0.04,-0.01 -0.04,-0.02 -0.04,-0.01 -0.04,-0.02 -0.04,-0.02 -0.04,-0.02 -0.04,-0.02 -0.04,-0.02 -0.04,-0.03 -0.04,-0.02 -0.03,-0.02 -0.04,-0.03 -0.04,-0.03 -0.03,-0.02 -0.04,-0.03 -0.03,-0.03 -0.04,-0.03 -0.03,-0.04 c -0.58,-0.55 -0.96,-1.7 -0.96,-2.86 0,-1.08 0.33,-2.24 0.8,-2.8 0.37,-0.44 0.87,-0.67 1.45,-0.67 v 0.25 c -0.85,0 -1.29,1.07 -1.29,3.13 0,2.11 0.45,3.21 1.3,3.21 h 0 c 0.84,0 1.28,-1.12 1.28,-3.2 0,-2.07 -0.43,-3.14 -1.29,-3.14 v -0.25 c 0.51,0 0.94,0.17 1.29,0.51 0.58,0.55 0.96,1.7 0.96,2.9 0,2.04 -0.91,3.44 -2.21,3.44 z"
         inkscape:connector-curvature="0"
         style="fill:#000000;stroke-width:0" /><path
         id="path11685"
         d="m 300.91,713.84 -0.05,0 -0.05,0 -0.05,0 -0.05,-0.01 -0.04,0 -0.05,-0.01 -0.05,0 -0.04,-0.01 -0.05,-0.01 -0.05,-0.01 -0.04,-0.01 -0.04,-0.01 -0.05,-0.01 -0.04,-0.02 -0.04,-0.01 -0.04,-0.02 -0.04,-0.01 -0.04,-0.02 -0.04,-0.02 -0.04,-0.02 -0.04,-0.02 -0.04,-0.02 -0.04,-0.03 -0.03,-0.02 -0.04,-0.02 -0.04,-0.03 -0.03,-0.03 -0.04,-0.02 -0.04,-0.03 -0.03,-0.03 -0.04,-0.03 -0.03,-0.04 c -0.58,-0.55 -0.96,-1.7 -0.96,-2.86 0,-1.08 0.33,-2.24 0.8,-2.8 0.37,-0.44 0.88,-0.67 1.45,-0.67 v 0.25 c -0.85,0 -1.29,1.07 -1.29,3.13 0,2.11 0.45,3.21 1.3,3.21 h 0 c 0.84,0 1.29,-1.12 1.29,-3.2 0,-2.07 -0.44,-3.14 -1.3,-3.14 v -0.25 c 0.51,0 0.94,0.17 1.3,0.51 0.57,0.55 0.95,1.7 0.95,2.9 0,2.04 -0.9,3.44 -2.21,3.44 z"
         inkscape:connector-curvature="0"
         style="fill:#000000;stroke-width:0" /><path
         id="path11687"
         d="m 305.89,713.84 -0.05,0 -0.05,0 -0.05,0 -0.05,-0.01 -0.04,0 -0.05,-0.01 -0.05,0 -0.04,-0.01 -0.05,-0.01 -0.04,-0.01 -0.05,-0.01 -0.04,-0.01 -0.04,-0.01 -0.05,-0.02 -0.04,-0.01 -0.04,-0.02 -0.04,-0.01 -0.04,-0.02 -0.04,-0.02 -0.04,-0.02 -0.04,-0.02 -0.04,-0.02 -0.03,-0.03 -0.04,-0.02 -0.04,-0.02 -0.04,-0.03 -0.03,-0.03 -0.04,-0.02 -0.03,-0.03 -0.04,-0.03 -0.03,-0.03 -0.04,-0.04 c -0.58,-0.55 -0.95,-1.7 -0.95,-2.86 0,-1.08 0.32,-2.24 0.79,-2.8 0.37,-0.44 0.88,-0.67 1.45,-0.67 v 0.25 c -0.85,0 -1.29,1.07 -1.29,3.13 0,2.11 0.45,3.21 1.3,3.21 h 0 c 0.84,0 1.29,-1.12 1.29,-3.2 0,-2.07 -0.44,-3.14 -1.3,-3.14 v -0.25 c 0.51,0 0.94,0.17 1.3,0.51 0.57,0.55 0.95,1.7 0.95,2.9 0,2.04 -0.9,3.44 -2.21,3.44 z"
         inkscape:connector-curvature="0"
         style="fill:#000000;stroke-width:0" /><path
         id="path11689"
         d="m 310.88,713.84 -0.06,0 -0.05,0 -0.05,0 -0.04,-0.01 -0.05,0 -0.05,-0.01 -0.05,0 -0.04,-0.01 -0.05,-0.01 -0.04,-0.01 -0.05,-0.01 -0.04,-0.01 -0.04,-0.01 -0.05,-0.02 -0.04,-0.01 -0.04,-0.02 -0.04,-0.01 -0.04,-0.02 -0.04,-0.02 -0.04,-0.02 -0.04,-0.02 -0.04,-0.02 -0.03,-0.03 -0.04,-0.02 -0.04,-0.02 -0.04,-0.03 -0.03,-0.03 -0.04,-0.02 -0.03,-0.03 -0.04,-0.03 -0.03,-0.03 -0.04,-0.04 c -0.58,-0.55 -0.95,-1.7 -0.95,-2.86 0,-1.08 0.33,-2.24 0.79,-2.8 0.37,-0.44 0.88,-0.67 1.45,-0.67 v 0.25 c -0.85,0 -1.29,1.07 -1.29,3.13 0,2.11 0.45,3.21 1.31,3.21 h 0 c 0.83,0 1.28,-1.12 1.28,-3.2 0,-2.07 -0.44,-3.14 -1.3,-3.14 v -0.25 c 0.51,0 0.94,0.17 1.3,0.51 0.58,0.55 0.95,1.7 0.95,2.9 0,2.04 -0.9,3.44 -2.2,3.44 z"
         inkscape:connector-curvature="0"
         style="fill:#000000;stroke-width:0" /><path
         id="path11691"
         d="m 315.86,713.84 -0.05,0 -0.06,0 -0.04,0 -0.05,-0.01 -0.05,0 -0.05,-0.01 -0.05,0 -0.04,-0.01 -0.05,-0.01 -0.04,-0.01 -0.05,-0.01 -0.04,-0.01 -0.04,-0.01 -0.04,-0.02 -0.05,-0.01 -0.04,-0.02 -0.04,-0.01 -0.04,-0.02 -0.04,-0.02 -0.04,-0.02 -0.04,-0.02 -0.03,-0.02 -0.04,-0.03 -0.04,-0.02 -0.04,-0.02 -0.03,-0.03 -0.04,-0.03 -0.04,-0.02 -0.03,-0.03 -0.04,-0.03 -0.03,-0.03 -0.04,-0.04 c -0.57,-0.55 -0.95,-1.7 -0.95,-2.86 0,-1.08 0.33,-2.24 0.79,-2.8 0.37,-0.44 0.88,-0.67 1.46,-0.67 v 0.25 c -0.86,0 -1.3,1.07 -1.3,3.13 0,2.11 0.45,3.21 1.31,3.21 h 0 c 0.83,0 1.28,-1.12 1.28,-3.2 0,-2.07 -0.44,-3.14 -1.29,-3.14 v -0.25 c 0.5,0 0.93,0.17 1.29,0.51 0.58,0.55 0.96,1.7 0.96,2.9 0,2.04 -0.91,3.44 -2.21,3.44 z"
         inkscape:connector-curvature="0"
         style="fill:#000000;stroke-width:0" /><path
         id="path11693"
         d="m 320.84,713.84 -0.05,0 -0.05,0 -0.05,0 -0.05,-0.01 -0.05,0 -0.05,-0.01 -0.04,0 -0.05,-0.01 -0.05,-0.01 -0.04,-0.01 -0.04,-0.01 -0.05,-0.01 -0.04,-0.01 -0.04,-0.02 -0.04,-0.01 -0.05,-0.02 -0.04,-0.01 -0.04,-0.02 -0.04,-0.02 -0.04,-0.02 -0.04,-0.02 -0.03,-0.02 -0.04,-0.03 -0.04,-0.02 -0.04,-0.02 -0.03,-0.03 -0.04,-0.03 -0.04,-0.02 -0.03,-0.03 -0.04,-0.03 -0.03,-0.03 -0.04,-0.04 c -0.57,-0.55 -0.95,-1.7 -0.95,-2.86 0,-1.08 0.33,-2.24 0.8,-2.8 0.36,-0.44 0.87,-0.67 1.45,-0.67 v 0.25 c -0.86,0 -1.3,1.07 -1.3,3.13 0,2.11 0.45,3.21 1.31,3.21 h 0 c 0.83,0 1.28,-1.12 1.28,-3.2 0,-2.07 -0.44,-3.14 -1.29,-3.14 v -0.25 c 0.5,0 0.93,0.17 1.29,0.51 0.58,0.55 0.96,1.7 0.96,2.9 0,2.04 -0.91,3.44 -2.21,3.44 z"
         inkscape:connector-curvature="0"
         style="fill:#000000;stroke-width:0" /><path
         id="path11695"
         d="m 325.82,713.84 -0.05,0 -0.05,0 -0.05,0 -0.05,-0.01 -0.05,0 -0.05,-0.01 -0.04,0 -0.05,-0.01 -0.04,-0.01 -0.05,-0.01 -0.04,-0.01 -0.05,-0.01 -0.04,-0.01 -0.04,-0.02 -0.04,-0.01 -0.04,-0.02 -0.05,-0.01 -0.04,-0.02 -0.04,-0.02 -0.03,-0.02 -0.04,-0.02 -0.04,-0.02 -0.04,-0.03 -0.04,-0.02 -0.03,-0.02 -0.04,-0.03 -0.04,-0.03 -0.03,-0.02 -0.04,-0.03 -0.03,-0.03 -0.04,-0.03 -0.03,-0.04 c -0.58,-0.55 -0.96,-1.7 -0.96,-2.86 0,-1.08 0.33,-2.24 0.8,-2.8 0.37,-0.44 0.87,-0.67 1.45,-0.67 v 0.25 c -0.86,0 -1.29,1.07 -1.29,3.13 0,2.11 0.44,3.21 1.3,3.21 h 0 c 0.83,0 1.28,-1.12 1.28,-3.2 0,-2.07 -0.43,-3.14 -1.29,-3.14 v -0.25 c 0.51,0 0.93,0.17 1.29,0.51 0.58,0.55 0.96,1.7 0.96,2.9 0,2.04 -0.91,3.44 -2.21,3.44 z"
         inkscape:connector-curvature="0"
         style="fill:#000000;stroke-width:0" /><path
         id="path11697"
         d="m 330.8,713.84 -0.05,0 -0.05,0 -0.05,0 -0.05,-0.01 -0.05,0 -0.04,-0.01 -0.05,0 -0.05,-0.01 -0.04,-0.01 -0.05,-0.01 -0.04,-0.01 -0.05,-0.01 -0.04,-0.01 -0.04,-0.02 -0.04,-0.01 -0.04,-0.02 -0.04,-0.01 -0.04,-0.02 -0.04,-0.02 -0.04,-0.02 -0.04,-0.02 -0.04,-0.02 -0.04,-0.03 -0.04,-0.02 -0.03,-0.02 -0.04,-0.03 -0.04,-0.03 -0.03,-0.02 -0.04,-0.03 -0.03,-0.03 -0.04,-0.03 -0.03,-0.04 c -0.58,-0.55 -0.96,-1.7 -0.96,-2.86 0,-1.08 0.33,-2.24 0.8,-2.8 0.37,-0.44 0.87,-0.67 1.45,-0.67 v 0.25 c -0.86,0 -1.29,1.07 -1.29,3.13 0,2.11 0.45,3.21 1.3,3.21 h 0 c 0.84,0 1.28,-1.12 1.28,-3.2 0,-2.07 -0.43,-3.14 -1.29,-3.14 v -0.25 c 0.51,0 0.94,0.17 1.29,0.51 0.58,0.55 0.96,1.7 0.96,2.9 0,2.04 -0.91,3.44 -2.21,3.44 z"
         inkscape:connector-curvature="0"
         style="fill:#000000;stroke-width:0" /><path
         id="path11699"
         d="m 335.78,713.84 -0.05,0 -0.05,0 -0.05,0 -0.05,-0.01 -0.05,0 -0.04,-0.01 -0.05,0 -0.05,-0.01 -0.04,-0.01 -0.05,-0.01 -0.04,-0.01 -0.04,-0.01 -0.05,-0.01 -0.04,-0.02 -0.04,-0.01 -0.04,-0.02 -0.04,-0.01 -0.04,-0.02 -0.04,-0.02 -0.04,-0.02 -0.04,-0.02 -0.04,-0.02 -0.04,-0.03 -0.04,-0.02 -0.03,-0.02 -0.04,-0.03 -0.04,-0.03 -0.03,-0.02 -0.04,-0.03 -0.03,-0.03 -0.04,-0.03 -0.03,-0.04 c -0.58,-0.55 -0.96,-1.7 -0.96,-2.86 0,-1.08 0.33,-2.24 0.8,-2.8 0.37,-0.44 0.88,-0.67 1.45,-0.67 v 0.25 c -0.85,0 -1.29,1.07 -1.29,3.13 0,2.11 0.45,3.21 1.3,3.21 h 0 c 0.84,0 1.29,-1.12 1.29,-3.2 0,-2.07 -0.44,-3.14 -1.3,-3.14 v -0.25 c 0.51,0 0.94,0.17 1.3,0.51 0.57,0.55 0.95,1.7 0.95,2.9 0,2.04 -0.91,3.44 -2.21,3.44 z"
         inkscape:connector-curvature="0"
         style="fill:#000000;stroke-width:0" /><path
         id="path11701"
         d="m 338.61,705.37 0.07,0.04 0.07,0.04 0.06,0.05 0.06,0.04 0.06,0.04 0.06,0.03 0.05,0.04 0.05,0.04 0.05,0.04 0.05,0.03 0.05,0.04 0.04,0.03 0.05,0.04 0.04,0.03 0.08,0.07 0.08,0.07 0.08,0.07 0.07,0.07 0.07,0.07 0.06,0.07 0.07,0.08 0.07,0.08 0.07,0.08 c 0.7,0.86 1.05,1.86 1.05,3.02 0,1.27 -0.37,2.23 -1.24,3.25 -0.41,0.47 -0.67,0.69 -1.19,1.01 l -0.12,-0.16 c 0.8,-0.63 1.07,-0.97 1.35,-1.72 0.24,-0.66 0.35,-1.42 0.35,-2.41 0,-1.03 -0.13,-1.86 -0.4,-2.46 -0.28,-0.63 -0.58,-0.99 -1.3,-1.56 z"
         inkscape:connector-curvature="0"
         style="fill:#000000;stroke-width:0" /><path
         id="path11703"
         d="m 344.86,706.58 -0.09,0.04 c -0.26,-0.4 -0.35,-0.46 -0.66,-0.46 h -1.66 l 1.16,1.22 c 0.62,0.65 0.9,1.18 0.9,1.72 0,0.7 -0.57,1.23 -1.29,1.23 -0.39,0 -0.75,-0.15 -1,-0.43 -0.23,-0.24 -0.33,-0.46 -0.45,-0.95 l 0.15,-0.04 c 0.28,0.68 0.53,0.91 1.01,0.91 0.58,0 0.98,-0.4 0.98,-0.98 0,-0.55 -0.32,-1.19 -0.91,-1.81 l -1.24,-1.32 v -0.08 h 2.72 z"
         inkscape:connector-curvature="0"
         style="fill:#000000;stroke-width:0" /><polygon
         id="polygon11705"
         points="348.92,710.4 354.02,710.4 354.02,710.96 348.92,710.96 "
         style="fill:#000000;stroke-width:0" /><polygon
         id="polygon11707"
         points="348.92,708.39 354.02,708.39 354.02,708.94 348.92,708.94 "
         style="fill:#000000;stroke-width:0" /><path
         id="path11709"
         d="m 359.94,713.84 -0.05,0 -0.06,0 -0.04,0 -0.05,-0.01 -0.05,0 -0.05,-0.01 -0.05,0 -0.04,-0.01 -0.05,-0.01 -0.04,-0.01 -0.05,-0.01 -0.04,-0.01 -0.04,-0.01 -0.04,-0.02 -0.05,-0.01 -0.04,-0.02 -0.04,-0.01 -0.04,-0.02 -0.04,-0.02 -0.04,-0.02 -0.04,-0.02 -0.03,-0.02 -0.04,-0.03 -0.04,-0.02 -0.04,-0.02 -0.03,-0.03 -0.04,-0.03 -0.04,-0.02 -0.03,-0.03 -0.04,-0.03 -0.03,-0.03 -0.04,-0.04 c -0.57,-0.55 -0.95,-1.7 -0.95,-2.86 0,-1.08 0.33,-2.24 0.79,-2.8 0.37,-0.44 0.88,-0.67 1.46,-0.67 v 0.25 c -0.86,0 -1.3,1.07 -1.3,3.13 0,2.11 0.45,3.21 1.31,3.21 h 0 c 0.83,0 1.28,-1.12 1.28,-3.2 0,-2.07 -0.44,-3.14 -1.29,-3.14 v -0.25 c 0.5,0 0.93,0.17 1.29,0.51 0.58,0.55 0.95,1.7 0.95,2.9 0,2.04 -0.9,3.44 -2.2,3.44 z"
         inkscape:connector-curvature="0"
         style="fill:#000000;stroke-width:0" /></g>  </g>
</svg>
