<?xml version="1.0" encoding="UTF-8" standalone="no"?>
<!-- Created with Inkscape (http://www.inkscape.org/) -->

<svg
   xmlns:ns0="http://www.iki.fi/pav/software/textext/"
   xmlns:dc="http://purl.org/dc/elements/1.1/"
   xmlns:cc="http://creativecommons.org/ns#"
   xmlns:rdf="http://www.w3.org/1999/02/22-rdf-syntax-ns#"
   xmlns:svg="http://www.w3.org/2000/svg"
   xmlns="http://www.w3.org/2000/svg"
   xmlns:sodipodi="http://sodipodi.sourceforge.net/DTD/sodipodi-0.dtd"
   xmlns:inkscape="http://www.inkscape.org/namespaces/inkscape"
   width="496.06299"
   height="354.33069"
   id="svg2"
   version="1.1"
   inkscape:version="0.48.4 r9939"
   sodipodi:docname="div41.svg">
  <sodipodi:namedview
     id="base"
     pagecolor="#ffffff"
     bordercolor="#666666"
     borderopacity="1.0"
     inkscape:pageopacity="0.0"
     inkscape:pageshadow="2"
     inkscape:zoom="2.0059089"
     inkscape:cx="158.127"
     inkscape:cy="180.63664"
     inkscape:document-units="cm"
     inkscape:current-layer="layer1"
     showgrid="false"
     units="cm"
     inkscape:object-nodes="true"
     inkscape:window-width="1366"
     inkscape:window-height="744"
     inkscape:window-x="0"
     inkscape:window-y="24"
     inkscape:window-maximized="1">
    <inkscape:grid
       snapvisiblegridlinesonly="true"
       enabled="true"
       visible="true"
       empspacing="5"
       id="grid2985"
       type="xygrid" />
  </sodipodi:namedview>
  <defs
     id="defs4">
    <marker
       style="overflow:visible"
       id="Arrow1Mstart"
       refX="0"
       refY="0"
       orient="auto"
       inkscape:stockid="Arrow1Mstart">
      <path
         transform="matrix(0.4,0,0,0.4,4,0)"
         style="fill-rule:evenodd;stroke:#000000;stroke-width:1pt"
         d="M 0,0 5,-5 -12.5,0 5,5 0,0 z"
         id="path3775"
         inkscape:connector-curvature="0" />
    </marker>
    <marker
       style="overflow:visible"
       id="Arrow1Mend"
       refX="0"
       refY="0"
       orient="auto"
       inkscape:stockid="Arrow1Mend">
      <path
         transform="matrix(-0.4,0,0,-0.4,-4,0)"
         style="fill-rule:evenodd;stroke:#000000;stroke-width:1pt"
         d="M 0,0 5,-5 -12.5,0 5,5 0,0 z"
         id="path3778"
         inkscape:connector-curvature="0" />
    </marker>
    <marker
       inkscape:stockid="Arrow1Mstart"
       orient="auto"
       refY="0"
       refX="0"
       id="Arrow1Mstart-7"
       style="overflow:visible">
      <path
         inkscape:connector-curvature="0"
         id="path3775-8"
         d="M 0,0 5,-5 -12.5,0 5,5 0,0 z"
         style="fill-rule:evenodd;stroke:#000000;stroke-width:1pt"
         transform="matrix(0.4,0,0,0.4,4,0)" />
    </marker>
    <marker
       inkscape:stockid="Arrow1Mend"
       orient="auto"
       refY="0"
       refX="0"
       id="Arrow1Mend-3"
       style="overflow:visible">
      <path
         inkscape:connector-curvature="0"
         id="path3778-2"
         d="M 0,0 5,-5 -12.5,0 5,5 0,0 z"
         style="fill-rule:evenodd;stroke:#000000;stroke-width:1pt"
         transform="matrix(-0.4,0,0,-0.4,-4,0)" />
    </marker>
  </defs>
  <metadata
     id="metadata7">
    <rdf:RDF>
      <cc:Work
         rdf:about="">
        <dc:format>image/svg+xml</dc:format>
        <dc:type
           rdf:resource="http://purl.org/dc/dcmitype/StillImage" />
        <dc:title></dc:title>
      </cc:Work>
    </rdf:RDF>
  </metadata>
  <g
     transform="translate(0,-698.03016)"
     id="layer1"
     inkscape:groupmode="layer"
     inkscape:label="Layer 1">
    <text
       xml:space="preserve"
       style="font-size:12px;font-style:normal;font-variant:normal;font-weight:normal;font-stretch:normal;text-align:start;line-height:100%;letter-spacing:0px;word-spacing:0px;text-anchor:start;fill:#000000;fill-opacity:1;stroke:none;font-family:LMRoman12;-inkscape-font-specification:Sans"
       x="61.700558"
       y="754.07056"
       id="text5818"
       sodipodi:linespacing="100%"><tspan
         sodipodi:role="line"
         id="tspan5820"
         x="61.700558"
         y="754.07056" /></text>
    <flowRoot
       style="font-size:12px;font-style:normal;font-variant:normal;font-weight:normal;font-stretch:normal;text-align:start;line-height:100%;letter-spacing:0px;word-spacing:0px;text-anchor:start;fill:#000000;fill-opacity:1;stroke:none;font-family:LMRoman12;-inkscape-font-specification:Sans"
       id="flowRoot6377"
       xml:space="preserve"><flowRegion
         id="flowRegion6379"><rect
           y="87.141403"
           x="219.34796"
           height="40.319103"
           width="27.681772"
           id="rect6381" /></flowRegion><flowPara
         id="flowPara6383" /></flowRoot>    <text
       sodipodi:linespacing="50%"
       id="text6385"
       y="753.27734"
       x="275.91507"
       style="font-size:12px;font-style:normal;font-variant:normal;font-weight:normal;font-stretch:normal;text-align:start;line-height:50%;letter-spacing:0px;word-spacing:0px;text-anchor:start;fill:#000000;fill-opacity:1;stroke:none;font-family:LMRoman12;-inkscape-font-specification:Sans"
       xml:space="preserve"><tspan
         y="753.27734"
         x="275.91507"
         id="tspan6387"
         sodipodi:role="line" /></text>
    <text
       sodipodi:linespacing="100%"
       id="text3884"
       y="892.41718"
       x="348.65417"
       style="font-size:12px;font-style:normal;font-variant:normal;font-weight:normal;font-stretch:normal;text-align:start;line-height:100%;letter-spacing:0px;word-spacing:0px;text-anchor:start;fill:#000000;fill-opacity:1;stroke:none;font-family:LMRoman12;-inkscape-font-specification:Sans"
       xml:space="preserve"><tspan
         id="tspan3890"
         y="892.41718"
         x="348.65417"
         sodipodi:role="line" /></text>
    <text
       sodipodi:linespacing="150%"
       id="text3887"
       y="948.92749"
       x="216.96629"
       style="font-size:12px;font-style:normal;font-variant:normal;font-weight:normal;font-stretch:normal;text-align:start;line-height:150%;letter-spacing:0px;word-spacing:0px;text-anchor:start;fill:#000000;fill-opacity:1;stroke:none;font-family:LMRoman12;-inkscape-font-specification:Sans"
       xml:space="preserve"><tspan
         y="948.92749"
         x="216.96629"
         id="tspan3889"
         sodipodi:role="line" /></text>
    <text
       sodipodi:linespacing="150%"
       id="text7389"
       y="759.11084"
       x="173"
       style="font-size:12px;font-style:normal;font-variant:normal;font-weight:normal;font-stretch:normal;text-align:start;line-height:150%;letter-spacing:0px;word-spacing:0px;text-anchor:start;fill:#000000;fill-opacity:1;stroke:none;font-family:LMRoman12;-inkscape-font-specification:Sans"
       xml:space="preserve"><tspan
         y="759.11084"
         x="173"
         id="tspan7391"
         sodipodi:role="line" /></text>
    <text
       xml:space="preserve"
       style="font-size:12px;font-style:normal;font-variant:normal;font-weight:normal;font-stretch:normal;text-align:start;line-height:150%;letter-spacing:0px;word-spacing:0px;text-anchor:start;fill:#000000;fill-opacity:1;stroke:none;font-family:LMRoman12;-inkscape-font-specification:Sans"
       x="241.56602"
       y="833.35034"
       id="text12764"
       sodipodi:linespacing="150%"><tspan
         dx="0 0"
         sodipodi:role="line"
         id="tspan12766"
         x="241.56602"
         y="833.35034">   1 1 0 1 0</tspan><tspan
         sodipodi:role="line"
         x="241.56602"
         y="851.35034"
         id="tspan12770">+ 1 0 0 1 1</tspan></text>
    <text
       transform="translate(0,698.03016)"
       sodipodi:linespacing="150%"
       id="text12776"
       y="185.47461"
       x="347.50522"
       style="font-size:12px;font-style:normal;font-variant:normal;font-weight:normal;font-stretch:normal;text-align:start;line-height:150%;letter-spacing:0px;word-spacing:0px;text-anchor:start;fill:#000000;fill-opacity:1;stroke:none;font-family:LMRoman12;-inkscape-font-specification:Sans"
       xml:space="preserve"><tspan
         y="185.47461"
         x="347.50522"
         id="tspan12778"
         sodipodi:role="line" /></text>
    <path
       inkscape:connector-curvature="0"
       id="path12780"
       d="m 232.88417,857.55347 72.59836,0"
       style="fill:none;stroke:#000000;stroke-width:0.79999995;stroke-linecap:square;stroke-linejoin:round;stroke-miterlimit:4;stroke-opacity:1;stroke-dasharray:none;stroke-dashoffset:0" />
    <text
       xml:space="preserve"
       style="font-size:12px;font-style:normal;font-variant:normal;font-weight:normal;font-stretch:normal;text-align:start;line-height:150%;letter-spacing:0px;word-spacing:0px;text-anchor:start;fill:#000000;fill-opacity:1;stroke:none;font-family:LMRoman12;-inkscape-font-specification:Sans"
       x="244.84497"
       y="869.23932"
       id="text12782"
       sodipodi:linespacing="150%"><tspan
         sodipodi:role="line"
         x="244.84497"
         y="869.23932"
         id="tspan12788">1 0 1 1 0 1</tspan></text>
    <text
       xml:space="preserve"
       style="font-size:12px;font-style:normal;font-variant:normal;font-weight:normal;font-stretch:normal;text-align:start;line-height:150%;letter-spacing:0px;word-spacing:0px;text-anchor:start;fill:#000000;fill-opacity:1;stroke:none;font-family:LMRoman12;-inkscape-font-specification:Sans"
       x="175.61487"
       y="886.58783"
       id="text12981"
       sodipodi:linespacing="150%"><tspan
         sodipodi:role="line"
         id="tspan12983"
         x="175.61487"
         y="886.58783">Neglect carry</tspan></text>
    <path
       transform="matrix(1.1611218,0,0,1.1611218,-64.190767,653.82264)"
       d="m 272.8109,182.19679 c 0,2.98466 -1.85538,5.40421 -4.14412,5.40421 -2.28874,0 -4.14413,-2.41955 -4.14413,-5.40421 0,-2.98466 1.85539,-5.40421 4.14413,-5.40421 2.28874,0 4.14412,2.41955 4.14412,5.40421 z"
       sodipodi:ry="5.4042087"
       sodipodi:rx="4.144124"
       sodipodi:cy="182.19679"
       sodipodi:cx="268.66678"
       id="path3764"
       style="fill:none;stroke:#000000;stroke-width:0.51674169;stroke-linecap:square;stroke-linejoin:round;stroke-miterlimit:4;stroke-opacity:1;stroke-dasharray:none;stroke-dashoffset:0"
       sodipodi:type="arc" />
    <text
       sodipodi:linespacing="150%"
       id="text6388"
       y="793.37469"
       x="244.22394"
       style="font-size:12px;font-style:normal;font-variant:normal;font-weight:normal;font-stretch:normal;text-align:start;line-height:150%;letter-spacing:0px;word-spacing:0px;text-anchor:start;fill:#000000;fill-opacity:1;stroke:none;font-family:LMRoman12;-inkscape-font-specification:Sans"
       xml:space="preserve"><tspan
         id="tspan6392"
         y="793.37469"
         x="244.22394"
         sodipodi:role="line"><tspan
           dx="2.0718892"
           id="tspan12197">  1 0 0 1 1</tspan></tspan></text>
    <path
       style="fill:none;stroke:#000000;stroke-width:0.5;stroke-linecap:square;stroke-linejoin:round;stroke-miterlimit:4;stroke-opacity:1;stroke-dasharray:none;stroke-dashoffset:0;marker-start:none;marker-end:url(#Arrow1Mend)"
       d="m 243.92932,871.25376 -6.50195,6.50196"
       id="path14827"
       inkscape:connector-curvature="0"
       sodipodi:nodetypes="cc" />
    <g
       style="font-style:normal;font-variant:normal;font-weight:normal;font-stretch:normal;letter-spacing:normal;word-spacing:normal;text-anchor:start;fill:none;stroke:#000000;stroke-width:1;stroke-linecap:butt;stroke-linejoin:miter;stroke-miterlimit:10.43299961;stroke-opacity:1;stroke-dasharray:none;stroke-dashoffset:0"
       ns0:preamble="/home/sriranga/Desktop/Prism_BasicElectronics/preamble.tex"
       ns0:text="\\begin{align*}\n\\text{2\'nd complement representation of} -1101 &amp; =\n\\end{align*}"
       text-anchor="start"
       word-spacing="normal"
       letter-spacing="normal"
       font-size-adjust="none"
       font-stretch="normal"
       font-weight="normal"
       font-variant="normal"
       font-style="normal"
       fill-opacity="1"
       fill-rule="evenodd"
       fill="none"
       stroke-opacity="1"
       stroke-dashoffset="0"
       stroke-dasharray="none"
       stroke-miterlimit="10.433"
       stroke-linejoin="miter"
       stroke-linecap="butt"
       stroke="black"
       xml:space="preserve"
       transform="matrix(1.2,0,0,-1.2,-354.72057,1642.3845)"
       id="g11993"><path
         id="path11995"
         fill="black"
         stroke-width="0"
         d="M310.25,708.49 L310.12,708.54 C309.76,707.97,309.63,707.88,309.18,707.88 H306.8 L308.47,709.63 C309.36,710.55,309.75,711.31,309.75,712.08 C309.75,713.08,308.94,713.84,307.91,713.84 C307.36,713.84,306.84,713.62,306.47,713.22 C306.15,712.89,306.01,712.57,305.84,711.86 L306.05,711.81 C306.44,712.79,306.8,713.1,307.49,713.1 C308.32,713.1,308.89,712.54,308.89,711.71 C308.89,710.93,308.43,710.01,307.6,709.12 L305.83,707.24 V707.12 H309.71 Z " /><path
         id="path11997"
         fill="black"
         stroke-width="0"
         d="M311.56,711.43 L311.63,711.46 L311.69,711.49 L311.75,711.53 L311.8,711.56 L311.86,711.6 L311.91,711.64 L311.97,711.68 L312.02,711.72 L312.07,711.76 L312.12,711.81 L312.16,711.85 L312.21,711.9 L312.25,711.94 L312.29,711.99 L312.33,712.04 L312.37,712.09 L312.41,712.14 L312.44,712.19 L312.47,712.24 L312.5,712.3 L312.53,712.35 L312.55,712.4 L312.58,712.46 L312.6,712.51 L312.62,712.57 L312.63,712.62 L312.65,712.68 L312.66,712.73 L312.67,712.79 L312.67,712.84 L312.68,712.9 L312.68,712.96 C312.68,713.45,312.33,713.84,311.88,713.84 C311.53,713.84,311.3,713.61,311.3,713.27 C311.3,712.96,311.52,712.77,311.88,712.77 C311.94,712.77,312.01,712.78,312.07,712.79 C312.14,712.81,312.14,712.81,312.15,712.81 C312.23,712.81,312.29,712.75,312.29,712.67 C312.29,712.34,312.01,711.98,311.47,711.61 Z " /><path
         id="path11999"
         fill="black"
         stroke-width="0"
         d="M313.99,711.08 L313.99,711.08 L314,711.08 L314,711.09 L314.01,711.09 L314.02,711.09 L314.02,711.09 L314.03,711.1 L314.04,711.1 L314.05,711.1 L314.05,711.1 L314.07,711.1 L314.08,711.11 L314.1,711.11 L314.12,711.11 L314.14,711.11 L314.16,711.11 L314.17,711.12 L314.19,711.12 L314.21,711.12 L314.23,711.12 L314.26,711.12 C314.53,711.12,314.62,710.97,314.62,710.48 V708.02 C314.62,707.45,314.51,707.31,314.01,707.27 V707.12 H316.11 V707.27 C315.61,707.31,315.46,707.43,315.46,707.79 V710.58 C315.94,711.03,316.15,711.15,316.48,711.15 C316.97,711.15,317.21,710.84,317.21,710.18 V708.11 C317.21,707.48,317.08,707.31,316.58,707.27 V707.12 H318.65 V707.27 C318.17,707.32,318.05,707.44,318.05,707.93 V710.2 C318.05,711.14,317.61,711.7,316.87,711.7 C316.41,711.7,316.11,711.53,315.43,710.89 V711.67 L315.36,711.7 C314.87,711.52,314.53,711.41,313.99,711.25 Z " /><path
         id="path12001"
         fill="black"
         stroke-width="0"
         d="M322.23,707.03 L323.69,707.54 V707.7 C323.51,707.69,323.49,707.69,323.46,707.69 C323.11,707.69,323.03,707.8,323.03,708.26 V713.89 L322.98,713.91 C322.5,713.74,322.15,713.64,321.51,713.47 V713.31 C321.59,713.32,321.65,713.32,321.73,713.32 C322.1,713.32,322.19,713.22,322.19,712.82 V711.27 C321.81,711.59,321.54,711.7,321.15,711.7 C320,711.7,319.08,710.57,319.08,709.16 C319.08,707.89,319.82,707.03,320.92,707.03 C321.47,707.03,321.85,707.22,322.19,707.69 L322.02,707.84 C321.84,707.64,321.59,707.54,321.3,707.54 C320.48,707.54,319.93,708.34,319.93,709.56 C319.93,710.68,320.42,711.42,321.18,711.42 C321.7,711.42,322.19,710.95,322.19,710.42 V708.14 C322.19,708.07,322.12,707.95,322.02,707.84 L322.19,707.69 V707.05 Z " /><path
         id="path12003"
         fill="black"
         stroke-width="0"
         d="M330.24,708.67 L330.2,708.61 L330.15,708.55 L330.11,708.49 L330.07,708.44 L330.02,708.38 L329.98,708.33 L329.94,708.28 L329.9,708.24 L329.86,708.19 L329.82,708.15 L329.78,708.11 L329.74,708.07 L329.69,708.04 L329.65,708.01 L329.61,707.98 L329.57,707.95 L329.53,707.92 L329.49,707.9 L329.45,707.87 L329.4,707.85 L329.36,707.83 L329.32,707.82 L329.27,707.8 L329.23,707.79 L329.18,707.78 L329.14,707.77 L329.09,707.76 L329.04,707.75 L328.99,707.75 L328.94,707.74 L328.89,707.74 L328.84,707.74 C327.93,707.74,327.3,708.54,327.3,709.68 C327.3,710.7,327.84,711.41,328.65,711.41 C329.01,711.41,329.14,711.3,329.23,710.93 L329.3,710.71 C329.37,710.43,329.55,710.25,329.76,710.25 C330.02,710.25,330.24,710.44,330.24,710.67 C330.24,711.23,329.54,711.7,328.71,711.7 C328.22,711.7,327.71,711.5,327.3,711.14 C326.81,710.7,326.53,710.03,326.53,709.24 C326.53,707.95,327.32,707.03,328.42,707.03 C328.87,707.03,329.27,707.18,329.62,707.49 C329.89,707.73,330.08,708,330.38,708.59 Z " /><path
         id="path12005"
         fill="black"
         stroke-width="0"
         d="M333.19,711.7 L333.07,711.69 L332.95,711.68 L332.84,711.67 L332.72,711.65 L332.61,711.63 L332.51,711.6 L332.4,711.56 L332.3,711.52 L332.2,711.48 L332.11,711.43 L332.02,711.38 L331.93,711.32 L331.84,711.26 L331.76,711.19 L331.68,711.12 L331.61,711.05 L331.54,710.97 L331.47,710.89 L331.41,710.8 L331.35,710.71 L331.29,710.61 L331.24,710.52 L331.2,710.42 L331.15,710.31 L331.12,710.2 L331.08,710.09 L331.06,709.98 L331.03,709.86 L331.02,709.74 L331,709.62 L330.99,709.5 L330.99,709.37 C330.99,708.03,331.92,707.03,333.17,707.03 L333.29,707.3 C332.9,707.3,332.53,707.54,332.33,707.94 C332.05,708.46,331.89,709.15,331.89,709.86 C331.89,710.8,332.36,711.42,333.06,711.42 H333.06 C333.9,711.42,334.48,710.46,334.48,709.1 C334.48,707.98,334.04,707.3,333.29,707.3 L333.17,707.03 C334.42,707.03,335.38,708.08,335.38,709.45 C335.38,710.75,334.46,711.7,333.19,711.7 Z " /><path
         id="path12007"
         fill="black"
         stroke-width="0"
         d="M335.87,711.08 L335.89,711.08 L335.9,711.08 L335.91,711.09 L335.92,711.09 L335.93,711.09 L335.94,711.09 L335.96,711.1 L335.98,711.1 L336,711.1 L336.02,711.11 L336.04,711.11 L336.06,711.11 L336.08,711.11 L336.1,711.11 L336.11,711.12 L336.13,711.12 L336.15,711.12 L336.17,711.12 L336.19,711.12 C336.45,711.12,336.54,710.96,336.54,710.48 V707.97 C336.54,707.43,336.4,707.28,335.84,707.27 V707.12 H338.05 V707.27 C337.52,707.29,337.38,707.4,337.38,707.79 V710.59 C337.38,710.61,337.46,710.71,337.52,710.78 C337.77,711.01,338.2,711.18,338.55,711.18 C338.99,711.18,339.21,710.83,339.21,710.14 V707.98 C339.21,707.42,339.1,707.31,338.53,707.27 V707.12 H340.76 V707.27 C340.19,707.28,340.04,707.45,340.04,708.07 V710.57 C340.34,711,340.67,711.18,341.13,711.18 C341.69,711.18,341.87,710.91,341.87,710.09 V707.99 C341.87,707.42,341.79,707.34,341.22,707.27 V707.12 H343.39 V707.27 L343.14,707.29 C342.84,707.31,342.71,707.49,342.71,707.88 V709.93 C342.71,711.1,342.32,711.7,341.55,711.7 C340.98,711.7,340.47,711.44,339.93,710.86 C339.75,711.43,339.42,711.7,338.88,711.7 C338.44,711.7,338.16,711.55,337.34,710.93 V711.67 L337.27,711.7 C336.76,711.51,336.42,711.4,335.87,711.25 Z " /><path
         id="path12009"
         fill="black"
         stroke-width="0"
         d="M343.52,711.03 L343.54,711.03 L343.56,711.03 L343.57,711.03 L343.59,711.03 L343.6,711.04 L343.62,711.04 L343.63,711.04 L343.65,711.04 L343.68,711.04 L343.69,711.04 L343.71,711.04 L343.73,711.04 L343.74,711.04 L343.76,711.04 L343.77,711.04 C344.11,711.04,344.18,710.94,344.18,710.47 V705.82 C344.18,705.31,344.07,705.2,343.48,705.14 V704.97 H345.89 V705.15 C345.15,705.16,345.02,705.27,345.02,705.89 V707.45 C345.37,707.12,345.61,707.03,346.02,707.03 L346.05,707.34 C345.58,707.34,345.02,707.7,345.02,708 V710.44 C345.02,710.74,345.58,711.1,346.03,711.1 C346.77,711.1,347.26,710.34,347.26,709.19 C347.26,708.09,346.77,707.34,346.05,707.34 L346.02,707.03 C347.2,707.03,348.11,708.14,348.11,709.58 C348.11,710.81,347.42,711.7,346.45,711.7 C345.89,711.7,345.45,711.45,345.02,710.91 V711.67 L344.96,711.7 C344.42,711.49,344.07,711.36,343.52,711.19 Z " /><path
         id="path12011"
         fill="black"
         stroke-width="0"
         d="M348.61,713.31 H348.67 C348.77,713.32,348.89,713.33,348.97,713.33 C349.29,713.33,349.39,713.2,349.39,712.73 V707.99 C349.39,707.45,349.25,707.32,348.63,707.27 V707.12 H350.97 V707.27 C350.35,707.31,350.23,707.41,350.23,707.96 V713.89 L350.19,713.91 C349.67,713.74,349.29,713.64,348.61,713.47 Z " /><path
         id="path12013"
         fill="black"
         stroke-width="0"
         d="M355.25,708.75 L355.2,708.68 L355.16,708.62 L355.11,708.55 L355.07,708.49 L355.02,708.43 L354.98,708.38 L354.94,708.32 L354.89,708.27 L354.85,708.22 L354.8,708.18 L354.76,708.13 L354.72,708.09 L354.67,708.05 L354.63,708.02 L354.58,707.98 L354.53,707.95 L354.49,707.92 L354.44,707.89 L354.39,707.87 L354.35,707.84 L354.3,707.82 L354.25,707.8 L354.2,707.78 L354.15,707.77 L354.09,707.75 L354.04,707.74 L353.99,707.73 L353.93,707.72 L353.88,707.72 L353.82,707.71 L353.76,707.71 L353.7,707.71 C353.14,707.71,352.71,708,352.42,708.57 C352.24,708.94,352.17,709.27,352.15,709.88 L352.17,710.2 C352.28,710.97,352.62,711.34,353.23,711.34 C353.83,711.34,354.07,711.06,354.2,710.2 H352.17 L352.15,709.88 H355.22 C355.14,710.52,355.04,710.81,354.79,711.13 C354.49,711.49,354.03,711.7,353.52,711.7 C353.02,711.7,352.55,711.52,352.17,711.18 C351.7,710.77,351.43,710.07,351.43,709.25 C351.43,707.88,352.15,707.03,353.3,707.03 C354.24,707.03,354.99,707.61,355.4,708.68 Z " /><path
         id="path12015"
         fill="black"
         stroke-width="0"
         d="M355.8,711.08 L355.81,711.08 L355.82,711.08 L355.83,711.09 L355.85,711.09 L355.86,711.09 L355.87,711.09 L355.89,711.1 L355.91,711.1 L355.93,711.1 L355.95,711.11 L355.97,711.11 L355.98,711.11 L356,711.11 L356.02,711.11 L356.04,711.12 L356.06,711.12 L356.08,711.12 L356.1,711.12 L356.12,711.12 C356.38,711.12,356.46,710.96,356.46,710.48 V707.97 C356.46,707.43,356.33,707.28,355.77,707.27 V707.12 H357.98 V707.27 C357.45,707.29,357.3,707.4,357.3,707.79 V710.59 C357.3,710.61,357.38,710.71,357.45,710.78 C357.7,711.01,358.13,711.18,358.48,711.18 C358.91,711.18,359.13,710.83,359.13,710.14 V707.98 C359.13,707.42,359.02,707.31,358.45,707.27 V707.12 H360.68 V707.27 C360.12,707.28,359.97,707.45,359.97,708.07 V710.57 C360.27,711,360.59,711.18,361.05,711.18 C361.62,711.18,361.8,710.91,361.8,710.09 V707.99 C361.8,707.42,361.72,707.34,361.14,707.27 V707.12 H363.32 V707.27 L363.06,707.29 C362.76,707.31,362.63,707.49,362.63,707.88 V709.93 C362.63,711.1,362.25,711.7,361.48,711.7 C360.9,711.7,360.39,711.44,359.86,710.86 C359.68,711.43,359.34,711.7,358.8,711.7 C358.37,711.7,358.09,711.55,357.26,710.93 V711.67 L357.19,711.7 C356.68,711.51,356.35,711.4,355.8,711.25 Z " /><path
         id="path12017"
         fill="black"
         stroke-width="0"
         d="M367.42,708.75 L367.38,708.68 L367.33,708.62 L367.29,708.55 L367.24,708.49 L367.2,708.43 L367.16,708.38 L367.11,708.32 L367.07,708.27 L367.02,708.22 L366.98,708.18 L366.93,708.13 L366.89,708.09 L366.85,708.05 L366.8,708.02 L366.75,707.98 L366.71,707.95 L366.66,707.92 L366.62,707.89 L366.57,707.87 L366.52,707.84 L366.47,707.82 L366.42,707.8 L366.37,707.78 L366.32,707.77 L366.27,707.75 L366.22,707.74 L366.16,707.73 L366.11,707.72 L366.05,707.72 L366,707.71 L365.94,707.71 L365.88,707.71 C365.31,707.71,364.88,708,364.6,708.57 C364.42,708.94,364.35,709.27,364.33,709.88 L364.35,710.2 C364.45,710.97,364.79,711.34,365.4,711.34 C366.01,711.34,366.25,711.06,366.38,710.2 H364.35 L364.33,709.88 H367.39 C367.31,710.52,367.21,710.81,366.96,711.13 C366.66,711.49,366.21,711.7,365.69,711.7 C365.19,711.7,364.72,711.52,364.35,711.18 C363.88,710.77,363.61,710.07,363.61,709.25 C363.61,707.88,364.33,707.03,365.47,707.03 C366.42,707.03,367.16,707.61,367.58,708.68 Z " /><path
         id="path12019"
         fill="black"
         stroke-width="0"
         d="M367.94,711.08 L367.95,711.08 L367.95,711.08 L367.96,711.09 L367.97,711.09 L367.97,711.09 L367.98,711.09 L367.99,711.1 L368,711.1 L368,711.1 L368.01,711.1 L368.03,711.1 L368.04,711.11 L368.06,711.11 L368.08,711.11 L368.09,711.11 L368.11,711.11 L368.13,711.12 L368.15,711.12 L368.17,711.12 L368.19,711.12 L368.21,711.12 C368.49,711.12,368.58,710.97,368.58,710.48 V708.02 C368.58,707.45,368.47,707.31,367.96,707.27 V707.12 H370.07 V707.27 C369.57,707.31,369.42,707.43,369.42,707.79 V710.58 C369.89,711.03,370.11,711.15,370.44,711.15 C370.93,711.15,371.17,710.84,371.17,710.18 V708.11 C371.17,707.48,371.04,707.31,370.54,707.27 V707.12 H372.61 V707.27 C372.12,707.32,372,707.44,372,707.93 V710.2 C372,711.14,371.57,711.7,370.83,711.7 C370.37,711.7,370.06,711.53,369.39,710.89 V711.67 L369.32,711.7 C368.83,711.52,368.49,711.41,367.94,711.25 Z " /><path
         id="path12021"
         fill="black"
         stroke-width="0"
         d="M375.3,711.59 H374.3 V712.75 C374.3,712.85,374.29,712.88,374.23,712.88 C374.16,712.79,374.1,712.7,374.03,712.6 C373.65,712.05,373.22,711.58,373.06,711.54 C372.95,711.47,372.89,711.4,372.89,711.35 C372.89,711.32,372.9,711.3,372.93,711.28 H373.46 V708.29 C373.46,707.45,373.76,707.03,374.35,707.03 C374.83,707.03,375.21,707.26,375.54,707.78 L375.41,707.89 C375.2,707.64,375.03,707.54,374.82,707.54 C374.45,707.54,374.3,707.81,374.3,708.44 V711.28 H375.3 Z " /><path
         id="path12023"
         fill="black"
         stroke-width="0"
         d="M378.1,711 L378.11,711 L378.12,711 L378.13,711.01 L378.15,711.01 L378.17,711.01 L378.19,711.02 L378.21,711.02 L378.24,711.02 L378.26,711.03 L378.28,711.03 L378.3,711.03 L378.32,711.03 L378.34,711.04 L378.36,711.04 L378.38,711.04 L378.4,711.04 L378.42,711.04 L378.44,711.04 C378.69,711.04,378.78,710.88,378.78,710.44 V707.96 C378.78,707.46,378.71,707.39,378.08,707.27 V707.12 H380.46 V707.27 C379.79,707.3,379.62,707.45,379.62,708.02 V710.25 C379.62,710.57,380.05,711.07,380.31,711.07 C380.37,711.07,380.46,711.02,380.57,710.92 C380.73,710.78,380.84,710.72,380.97,710.72 C381.21,710.72,381.36,710.89,381.36,711.17 C381.36,711.5,381.15,711.7,380.81,711.7 C380.39,711.7,380.11,711.47,379.62,710.76 V711.67 L379.57,711.7 C379.04,711.48,378.68,711.35,378.1,711.16 Z " /><path
         id="path12025"
         fill="black"
         stroke-width="0"
         d="M385.4,708.75 L385.36,708.68 L385.31,708.62 L385.27,708.55 L385.22,708.49 L385.18,708.43 L385.14,708.38 L385.09,708.32 L385.05,708.27 L385.01,708.22 L384.96,708.18 L384.92,708.13 L384.87,708.09 L384.83,708.05 L384.78,708.02 L384.74,707.98 L384.69,707.95 L384.64,707.92 L384.6,707.89 L384.55,707.87 L384.5,707.84 L384.45,707.82 L384.4,707.8 L384.35,707.78 L384.3,707.77 L384.25,707.75 L384.2,707.74 L384.14,707.73 L384.09,707.72 L384.03,707.72 L383.98,707.71 L383.92,707.71 L383.86,707.71 C383.29,707.71,382.86,708,382.58,708.57 C382.4,708.94,382.33,709.27,382.31,709.88 L382.33,710.2 C382.44,710.97,382.78,711.34,383.38,711.34 C383.99,711.34,384.23,711.06,384.36,710.2 H382.33 L382.31,709.88 H385.37 C385.29,710.52,385.19,710.81,384.95,711.13 C384.65,711.49,384.19,711.7,383.67,711.7 C383.17,711.7,382.71,711.52,382.33,711.18 C381.86,710.77,381.59,710.07,381.59,709.25 C381.59,707.88,382.31,707.03,383.45,707.03 C384.4,707.03,385.14,707.61,385.56,708.68 Z " /><path
         id="path12027"
         fill="black"
         stroke-width="0"
         d="M385.86,711.03 L385.87,711.03 L385.89,711.03 L385.9,711.03 L385.92,711.03 L385.94,711.04 L385.95,711.04 L385.97,711.04 L385.98,711.04 L386.01,711.04 L386.03,711.04 L386.04,711.04 L386.06,711.04 L386.07,711.04 L386.09,711.04 L386.11,711.04 C386.44,711.04,386.51,710.94,386.51,710.47 V705.82 C386.51,705.31,386.4,705.2,385.82,705.14 V704.97 H388.22 V705.15 C387.48,705.16,387.35,705.27,387.35,705.89 V707.45 C387.7,707.12,387.93,707.03,388.35,707.03 L388.38,707.34 C387.92,707.34,387.35,707.7,387.35,708 V710.44 C387.35,710.74,387.91,711.1,388.36,711.1 C389.1,711.1,389.59,710.34,389.59,709.19 C389.59,708.09,389.1,707.34,388.38,707.34 L388.35,707.03 C389.53,707.03,390.44,708.14,390.44,709.58 C390.44,710.81,389.75,711.7,388.78,711.7 C388.22,711.7,387.79,711.45,387.35,710.91 V711.67 L387.29,711.7 C386.75,711.49,386.4,711.36,385.86,711.19 Z " /><path
         id="path12029"
         fill="black"
         stroke-width="0"
         d="M390.82,711 L390.83,711 L390.84,711 L390.86,711.01 L390.87,711.01 L390.89,711.01 L390.91,711.02 L390.94,711.02 L390.96,711.02 L390.98,711.03 L391,711.03 L391.02,711.03 L391.04,711.03 L391.06,711.04 L391.08,711.04 L391.1,711.04 L391.12,711.04 L391.14,711.04 L391.17,711.04 C391.41,711.04,391.5,710.88,391.5,710.44 V707.96 C391.5,707.46,391.43,707.39,390.8,707.27 V707.12 H393.18 V707.27 C392.51,707.3,392.34,707.45,392.34,708.02 V710.25 C392.34,710.57,392.77,711.07,393.04,711.07 C393.1,711.07,393.18,711.02,393.3,710.92 C393.45,710.78,393.56,710.72,393.69,710.72 C393.93,710.72,394.08,710.89,394.08,711.17 C394.08,711.5,393.87,711.7,393.53,711.7 C393.12,711.7,392.83,711.47,392.34,710.76 V711.67 L392.29,711.7 C391.76,711.48,391.4,711.35,390.82,711.16 Z " /><path
         id="path12031"
         fill="black"
         stroke-width="0"
         d="M398.12,708.75 L398.08,708.68 L398.04,708.62 L397.99,708.55 L397.95,708.49 L397.9,708.43 L397.86,708.38 L397.82,708.32 L397.77,708.27 L397.73,708.22 L397.68,708.18 L397.64,708.13 L397.59,708.09 L397.55,708.05 L397.5,708.02 L397.46,707.98 L397.41,707.95 L397.37,707.92 L397.32,707.89 L397.27,707.87 L397.22,707.84 L397.18,707.82 L397.13,707.8 L397.08,707.78 L397.03,707.77 L396.97,707.75 L396.92,707.74 L396.87,707.73 L396.81,707.72 L396.76,707.72 L396.7,707.71 L396.64,707.71 L396.58,707.71 C396.02,707.71,395.59,708,395.3,708.57 C395.12,708.94,395.05,709.27,395.03,709.88 L395.05,710.2 C395.16,710.97,395.5,711.34,396.11,711.34 C396.71,711.34,396.95,711.06,397.08,710.2 H395.05 L395.03,709.88 H398.1 C398.02,710.52,397.92,710.81,397.67,711.13 C397.37,711.49,396.91,711.7,396.39,711.7 C395.9,711.7,395.43,711.52,395.05,711.18 C394.58,710.77,394.31,710.07,394.31,709.25 C394.31,707.88,395.03,707.03,396.17,707.03 C397.12,707.03,397.87,707.61,398.28,708.68 Z " /><path
         id="path12033"
         fill="black"
         stroke-width="0"
         d="M401.62,710.24 L401.58,711.59 H401.47 L401.45,711.58 C401.36,711.51,401.35,711.5,401.31,711.5 C401.26,711.5,401.15,711.52,401.05,711.57 C400.83,711.65,400.61,711.68,400.35,711.68 C399.56,711.68,399,711.18,399,710.46 C399,709.91,399.32,709.51,400.16,709.03 L400.74,708.7 C401.09,708.51,401.26,708.27,401.26,707.96 C401.26,707.52,400.94,707.24,400.43,707.24 C400.09,707.24,399.78,707.37,399.59,707.59 C399.38,707.84,399.3,708.07,399.17,708.64 H399.01 V707.09 H399.14 C399.2,707.18,399.24,707.2,399.36,707.2 C399.45,707.2,399.59,707.18,399.82,707.12 C400.1,707.07,400.37,707.03,400.55,707.03 C401.31,707.03,401.95,707.6,401.95,708.3 C401.95,708.79,401.71,709.12,401.11,709.48 L400.04,710.11 C399.76,710.27,399.61,710.52,399.61,710.79 C399.61,711.19,399.92,711.47,400.38,711.47 C400.95,711.47,401.24,711.13,401.47,710.24 Z " /><path
         id="path12035"
         fill="black"
         stroke-width="0"
         d="M406.42,708.75 L406.38,708.68 L406.33,708.62 L406.29,708.55 L406.25,708.49 L406.2,708.43 L406.16,708.38 L406.11,708.32 L406.07,708.27 L406.03,708.22 L405.98,708.18 L405.94,708.13 L405.89,708.09 L405.85,708.05 L405.8,708.02 L405.76,707.98 L405.71,707.95 L405.67,707.92 L405.62,707.89 L405.57,707.87 L405.52,707.84 L405.47,707.82 L405.42,707.8 L405.37,707.78 L405.32,707.77 L405.27,707.75 L405.22,707.74 L405.17,707.73 L405.11,707.72 L405.05,707.72 L405,707.71 L404.94,707.71 L404.88,707.71 C404.31,707.71,403.89,708,403.6,708.57 C403.42,708.94,403.35,709.27,403.33,709.88 L403.35,710.2 C403.46,710.97,403.8,711.34,404.4,711.34 C405.01,711.34,405.25,711.06,405.38,710.2 H403.35 L403.33,709.88 H406.39 C406.31,710.52,406.21,710.81,405.97,711.13 C405.67,711.49,405.21,711.7,404.69,711.7 C404.2,711.7,403.73,711.52,403.35,711.18 C402.88,710.77,402.61,710.07,402.61,709.25 C402.61,707.88,403.33,707.03,404.47,707.03 C405.42,707.03,406.17,707.61,406.58,708.68 Z " /><path
         id="path12037"
         fill="black"
         stroke-width="0"
         d="M406.95,711.08 L406.95,711.08 L406.96,711.08 L406.96,711.09 L406.97,711.09 L406.98,711.09 L406.98,711.09 L406.99,711.1 L407,711.1 L407.01,711.1 L407.01,711.1 L407.03,711.1 L407.05,711.11 L407.06,711.11 L407.08,711.11 L407.1,711.11 L407.12,711.11 L407.14,711.12 L407.15,711.12 L407.17,711.12 L407.19,711.12 L407.21,711.12 C407.49,711.12,407.58,710.97,407.58,710.48 V708.02 C407.58,707.45,407.47,707.31,406.97,707.27 V707.12 H409.08 V707.27 C408.57,707.31,408.42,707.43,408.42,707.79 V710.58 C408.9,711.03,409.12,711.15,409.44,711.15 C409.93,711.15,410.17,710.84,410.17,710.18 V708.11 C410.17,707.48,410.04,707.31,409.54,707.27 V707.12 H411.61 V707.27 C411.12,707.32,411.01,707.44,411.01,707.93 V710.2 C411.01,711.14,410.57,711.7,409.83,711.7 C409.37,711.7,409.07,711.53,408.39,710.89 V711.67 L408.32,711.7 C407.83,711.52,407.49,711.41,406.95,711.25 Z " /><path
         id="path12039"
         fill="black"
         stroke-width="0"
         d="M414.31,711.59 H413.3 V712.75 C413.3,712.85,413.29,712.88,413.23,712.88 C413.16,712.79,413.1,712.7,413.03,712.6 C412.65,712.05,412.23,711.58,412.07,711.54 C411.96,711.47,411.9,711.4,411.9,711.35 C411.9,711.32,411.91,711.3,411.94,711.28 H412.46 V708.29 C412.46,707.45,412.76,707.03,413.35,707.03 C413.84,707.03,414.22,707.26,414.55,707.78 L414.42,707.89 C414.21,707.64,414.04,707.54,413.82,707.54 C413.45,707.54,413.3,707.81,413.3,708.44 V711.28 H414.31 Z " /><path
         id="path12041"
         fill="black"
         stroke-width="0"
         d="M418.94,707.78 L418.92,707.77 L418.9,707.76 L418.89,707.74 L418.87,707.73 L418.86,707.72 L418.85,707.71 L418.83,707.7 L418.82,707.69 L418.8,707.68 L418.79,707.68 L418.78,707.67 L418.76,707.66 L418.75,707.65 L418.74,707.65 L418.72,707.64 L418.71,707.63 L418.7,707.63 L418.68,707.62 L418.67,707.62 L418.66,707.62 L418.64,707.61 L418.63,707.61 L418.62,707.6 L418.61,707.6 L418.58,707.6 L418.55,707.59 L418.53,707.59 L418.5,707.59 C418.27,707.59,418.2,707.73,418.2,708.17 V710.1 C418.2,710.62,418.15,710.91,418,711.15 C417.78,711.51,417.35,711.7,416.77,711.7 C415.83,711.7,415.1,711.21,415.1,710.58 C415.1,710.35,415.3,710.16,415.52,710.16 C415.76,710.16,415.97,710.35,415.97,710.57 C415.97,710.61,415.96,710.66,415.95,710.73 C415.93,710.82,415.92,710.9,415.92,710.97 C415.92,711.24,416.24,711.46,416.64,711.46 C417.12,711.46,417.39,711.17,417.39,710.63 V710.03 V709.79 V708.35 C417.39,708.04,417.34,707.95,417.14,707.83 C416.9,707.69,416.62,707.6,416.41,707.6 C416.06,707.6,415.78,707.94,415.78,708.37 V708.41 C415.78,708.99,416.19,709.35,417.39,709.79 V710.03 C415.86,709.41,415.69,709.33,415.27,708.95 C415.05,708.75,414.91,708.42,414.91,708.09 C414.91,707.46,415.34,707.03,415.95,707.03 C416.39,707.03,416.8,707.23,417.4,707.75 C417.45,707.23,417.63,707.03,418.04,707.03 C418.38,707.03,418.59,707.15,418.94,707.52 Z " /><path
         id="path12043"
         fill="black"
         stroke-width="0"
         d="M421.5,711.59 H420.49 V712.75 C420.49,712.85,420.48,712.88,420.42,712.88 C420.36,712.79,420.3,712.7,420.23,712.6 C419.85,712.05,419.42,711.58,419.26,711.54 C419.15,711.47,419.09,711.4,419.09,711.35 C419.09,711.32,419.1,711.3,419.13,711.28 H419.66 V708.29 C419.66,707.45,419.96,707.03,420.54,707.03 C421.03,707.03,421.41,707.26,421.74,707.78 L421.61,707.89 C421.4,707.64,421.23,707.54,421.01,707.54 C420.64,707.54,420.49,707.81,420.49,708.44 V711.28 H421.5 Z " /><path
         id="path12045"
         fill="black"
         stroke-width="0"
         d="M423.47,711.7 L421.93,711.15 V711 L422.01,711.01 C422.13,711.03,422.26,711.04,422.35,711.04 C422.59,711.04,422.68,710.88,422.68,710.44 V708.14 C422.68,707.42,422.58,707.31,421.89,707.27 V707.12 H424.25 V707.27 C423.59,707.32,423.51,707.42,423.51,708.14 V711.66 Z " /><path
         id="path12047"
         fill="black"
         stroke-width="0"
         d="M423.01,713.91 L422.98,713.91 L422.96,713.91 L422.93,713.9 L422.91,713.9 L422.88,713.89 L422.86,713.89 L422.84,713.88 L422.81,713.87 L422.79,713.86 L422.77,713.85 L422.75,713.84 L422.73,713.82 L422.71,713.81 L422.69,713.79 L422.67,713.78 L422.66,713.76 L422.64,713.74 L422.62,713.72 L422.61,713.71 L422.59,713.69 L422.58,713.67 L422.57,713.64 L422.56,713.62 L422.55,713.6 L422.54,713.58 L422.53,713.55 L422.52,713.53 L422.52,713.5 L422.51,713.48 L422.51,713.45 L422.51,713.43 L422.51,713.4 C422.51,713.12,422.73,712.9,423.01,712.9 C423.29,712.9,423.52,713.11,423.52,713.4 C423.52,713.68,423.29,713.91,423.01,713.91 Z " /><path
         id="path12049"
         fill="black"
         stroke-width="0"
         d="M426.99,711.7 L426.87,711.69 L426.75,711.68 L426.64,711.67 L426.52,711.65 L426.41,711.63 L426.31,711.6 L426.2,711.56 L426.1,711.52 L426,711.48 L425.91,711.43 L425.81,711.38 L425.72,711.32 L425.64,711.26 L425.56,711.19 L425.48,711.12 L425.4,711.05 L425.33,710.97 L425.27,710.89 L425.2,710.8 L425.14,710.71 L425.09,710.61 L425.04,710.52 L424.99,710.42 L424.95,710.31 L424.91,710.2 L424.88,710.09 L424.85,709.98 L424.83,709.86 L424.81,709.74 L424.8,709.62 L424.79,709.5 L424.79,709.37 C424.79,708.03,425.71,707.03,426.97,707.03 L427.09,707.3 C426.7,707.3,426.33,707.54,426.12,707.94 C425.84,708.46,425.68,709.15,425.68,709.86 C425.68,710.8,426.15,711.42,426.86,711.42 H426.86 C427.7,711.42,428.28,710.46,428.28,709.1 C428.28,707.98,427.83,707.3,427.09,707.3 L426.97,707.03 C428.22,707.03,429.18,708.08,429.18,709.45 C429.18,710.75,428.26,711.7,426.99,711.7 Z " /><path
         id="path12051"
         fill="black"
         stroke-width="0"
         d="M429.64,711.08 L429.65,711.08 L429.65,711.08 L429.66,711.09 L429.67,711.09 L429.67,711.09 L429.68,711.09 L429.69,711.1 L429.69,711.1 L429.7,711.1 L429.71,711.1 L429.72,711.1 L429.74,711.11 L429.76,711.11 L429.77,711.11 L429.79,711.11 L429.81,711.11 L429.83,711.12 L429.85,711.12 L429.87,711.12 L429.89,711.12 L429.91,711.12 C430.19,711.12,430.28,710.97,430.28,710.48 V708.02 C430.28,707.45,430.17,707.31,429.66,707.27 V707.12 H431.77 V707.27 C431.26,707.31,431.11,707.43,431.11,707.79 V710.58 C431.59,711.03,431.81,711.15,432.14,711.15 C432.63,711.15,432.86,710.84,432.86,710.18 V708.11 C432.86,707.48,432.74,707.31,432.24,707.27 V707.12 H434.31 V707.27 C433.82,707.32,433.7,707.44,433.7,707.93 V710.2 C433.7,711.14,433.26,711.7,432.53,711.7 C432.07,711.7,431.76,711.53,431.08,710.89 V711.67 L431.02,711.7 C430.53,711.52,430.19,711.41,429.64,711.25 Z " /><path
         id="path12053"
         fill="black"
         stroke-width="0"
         d="M439.44,711.7 L439.32,711.69 L439.2,711.68 L439.09,711.67 L438.98,711.65 L438.87,711.63 L438.76,711.6 L438.65,711.56 L438.55,711.52 L438.45,711.48 L438.36,711.43 L438.27,711.38 L438.18,711.32 L438.09,711.26 L438.01,711.19 L437.93,711.12 L437.86,711.05 L437.79,710.97 L437.72,710.89 L437.66,710.8 L437.6,710.71 L437.54,710.61 L437.49,710.52 L437.45,710.42 L437.4,710.31 L437.37,710.2 L437.34,710.09 L437.31,709.98 L437.28,709.86 L437.27,709.74 L437.25,709.62 L437.25,709.5 L437.24,709.37 C437.24,708.03,438.17,707.03,439.42,707.03 L439.54,707.3 C439.15,707.3,438.79,707.54,438.58,707.94 C438.3,708.46,438.14,709.15,438.14,709.86 C438.14,710.8,438.61,711.42,439.31,711.42 H439.31 C440.15,711.42,440.73,710.46,440.73,709.1 C440.73,707.98,440.29,707.3,439.54,707.3 L439.42,707.03 C440.67,707.03,441.63,708.08,441.63,709.45 C441.63,710.75,440.71,711.7,439.44,711.7 Z " /><path
         id="path12055"
         fill="black"
         stroke-width="0"
         d="M445.01,711.59 H443.79 V712.75 C443.79,713.32,443.98,713.63,444.35,713.63 C444.56,713.63,444.7,713.53,444.88,713.24 C445.04,712.99,445.16,712.89,445.33,712.89 C445.56,712.89,445.75,713.07,445.75,713.29 C445.75,713.65,445.31,713.91,444.71,713.91 C444.1,713.91,443.57,713.64,443.31,713.18 C443.05,712.75,442.97,712.39,442.96,711.59 H442.14 V711.28 H442.96 V708.16 C442.96,707.43,442.85,707.31,442.14,707.27 V707.12 H444.72 V707.27 C443.91,707.3,443.8,707.41,443.8,708.16 V711.28 H445.01 Z " /><polygon
         id="polygon12057"
         fill="black"
         stroke-width="0"
         points="453.18,709.4 453.18,709.96 448.08,709.96 448.08,709.4 " /><path
         id="path12059"
         fill="black"
         stroke-width="0"
         d="M458.91,713.84 L457.12,712.94 V712.8 C457.24,712.85,457.35,712.89,457.39,712.91 C457.57,712.98,457.74,713.02,457.84,713.02 C458.05,713.02,458.14,712.87,458.14,712.55 V708.05 C458.14,707.72,458.06,707.49,457.9,707.4 C457.75,707.31,457.61,707.28,457.19,707.27 V707.12 H459.94 V707.27 C459.15,707.28,458.99,707.38,458.99,707.86 V713.82 Z " /><path
         id="path12061"
         fill="black"
         stroke-width="0"
         d="M463.89,713.84 L462.1,712.94 V712.8 C462.22,712.85,462.33,712.89,462.37,712.91 C462.55,712.98,462.72,713.02,462.82,713.02 C463.03,713.02,463.12,712.87,463.12,712.55 V708.05 C463.12,707.72,463.04,707.49,462.88,707.4 C462.73,707.31,462.59,707.28,462.17,707.27 V707.12 H464.92 V707.27 C464.13,707.28,463.97,707.38,463.97,707.86 V713.82 Z " /><path
         id="path12063"
         fill="black"
         stroke-width="0"
         d="M468.51,713.84 L468.46,713.84 L468.41,713.84 L468.36,713.84 L468.31,713.83 L468.26,713.83 L468.21,713.82 L468.17,713.82 L468.12,713.81 L468.07,713.8 L468.03,713.79 L467.99,713.78 L467.94,713.77 L467.9,713.76 L467.86,713.74 L467.82,713.73 L467.77,713.71 L467.73,713.7 L467.69,713.68 L467.65,713.66 L467.61,713.64 L467.57,713.62 L467.54,713.6 L467.5,713.57 L467.46,713.55 L467.42,713.53 L467.39,713.5 L467.35,713.47 L467.31,713.45 L467.28,713.42 L467.24,713.39 L467.21,713.36 L467.17,713.32 C466.6,712.77,466.22,711.62,466.22,710.46 C466.22,709.38,466.55,708.22,467.02,707.66 C467.38,707.22,467.89,706.99,468.47,706.99 V707.24 C467.61,707.24,467.17,708.31,467.17,710.37 C467.17,712.48,467.62,713.58,468.48,713.58 H468.48 C469.31,713.58,469.76,712.46,469.76,710.38 C469.76,708.31,469.32,707.24,468.47,707.24 V706.99 C468.98,706.99,469.4,707.16,469.76,707.5 C470.34,708.05,470.72,709.2,470.72,710.4 C470.72,712.44,469.81,713.84,468.51,713.84 Z " /><path
         id="path12065"
         fill="black"
         stroke-width="0"
         d="M473.86,713.84 L472.07,712.94 V712.8 C472.19,712.85,472.3,712.89,472.33,712.91 C472.51,712.98,472.68,713.02,472.78,713.02 C472.99,713.02,473.08,712.87,473.08,712.55 V708.05 C473.08,707.72,473,707.49,472.84,707.4 C472.69,707.31,472.55,707.28,472.14,707.27 V707.12 H474.88 V707.27 C474.1,707.28,473.94,707.38,473.94,707.86 V713.82 Z " /><polygon
         id="polygon12067"
         fill="black"
         stroke-width="0"
         points="484.42,710.4 484.42,710.96 479.33,710.96 479.33,710.4 " /><polygon
         id="polygon12069"
         fill="black"
         stroke-width="0"
         points="484.42,708.39 484.42,708.94 479.33,708.94 479.33,708.39 " /></g>    <path
       sodipodi:nodetypes="cc"
       inkscape:connector-curvature="0"
       id="path12201"
       d="m 254.65858,796.43893 -6.50195,6.50196"
       style="fill:none;stroke:#000000;stroke-width:0.5;stroke-linecap:square;stroke-linejoin:round;stroke-miterlimit:4;stroke-opacity:1;stroke-dasharray:none;stroke-dashoffset:0;marker-start:none;marker-end:url(#Arrow1Mend)" />
    <text
       xml:space="preserve"
       style="font-size:12px;font-style:normal;font-variant:normal;font-weight:normal;font-stretch:normal;text-align:start;line-height:150%;letter-spacing:0px;word-spacing:0px;text-anchor:start;fill:#000000;fill-opacity:1;stroke:none;font-family:LMRoman12;-inkscape-font-specification:Sans"
       x="220.38477"
       y="813.99731"
       id="text12203"
       sodipodi:linespacing="150%"><tspan
         sodipodi:role="line"
         id="tspan12205"
         x="220.38477"
         y="813.99731">sign bit</tspan></text>
    <g
       id="content"
       transform="matrix(1.2,0,0,-1.2,-323.0257,1681.8794)"
       xml:space="preserve"
       stroke="black"
       stroke-linecap="butt"
       stroke-linejoin="miter"
       stroke-miterlimit="10.433"
       stroke-dasharray="none"
       stroke-dashoffset="0"
       stroke-opacity="1"
       fill="none"
       fill-rule="evenodd"
       fill-opacity="1"
       font-style="normal"
       font-variant="normal"
       font-weight="normal"
       font-stretch="normal"
       font-size-adjust="none"
       letter-spacing="normal"
       word-spacing="normal"
       text-anchor="start"
       ns0:text="\\begin{align*}\nM&amp; = 11010\\\\\nN&amp; = -1101\n\\end{align*}"
       ns0:preamble="/home/sriranga/Desktop/Prism_BasicElectronics/preamble.tex"
       style="font-style:normal;font-variant:normal;font-weight:normal;font-stretch:normal;letter-spacing:normal;word-spacing:normal;text-anchor:start;fill:none;stroke:#000000;stroke-width:1;stroke-linecap:butt;stroke-linejoin:miter;stroke-miterlimit:10.43299961;stroke-opacity:1;stroke-dasharray:none;stroke-dashoffset:0"><path
         d="M380.81,713.61 H379.15 L375.8,708.71 L375.26,713.61 H373.45 V713.45 C373.95,713.42,374.19,713.31,374.19,713.09 C374.19,713.01,374.15,712.86,374.09,712.68 C374.07,712.64,374.04,712.53,374,712.38 C373.99,712.35,373.98,712.31,373.97,712.27 L372.92,708.58 C372.61,707.54,372.46,707.34,371.94,707.28 V707.12 H373.91 V707.28 C373.4,707.32,373.21,707.44,373.21,707.72 C373.21,707.82,373.25,708.08,373.3,708.25 L374.47,712.55 L375.08,707.12 H375.25 L379,712.7 L377.71,708.03 C377.55,707.5,377.36,707.35,376.71,707.28 V707.12 H379.42 V707.28 C378.75,707.34,378.66,707.4,378.66,707.71 C378.66,707.88,378.68,708.01,378.77,708.32 L379.99,712.72 C380.17,713.31,380.22,713.36,380.81,713.45 Z "
         stroke-width="0"
         fill="black"
         id="path12322" /><polygon
         points="389.3,710.4 389.3,710.96 384.2,710.96 384.2,710.4 "
         stroke-width="0"
         fill="black"
         id="polygon12324" /><polygon
         points="389.3,708.39 389.3,708.94 384.2,708.94 384.2,708.39 "
         stroke-width="0"
         fill="black"
         id="polygon12326" /><path
         d="M395.58,713.84 L393.79,712.94 V712.8 C393.91,712.85,394.02,712.89,394.06,712.91 C394.24,712.98,394.41,713.02,394.51,713.02 C394.72,713.02,394.81,712.87,394.81,712.55 V708.05 C394.81,707.72,394.73,707.49,394.57,707.4 C394.42,707.31,394.28,707.28,393.86,707.27 V707.12 H396.61 V707.27 C395.82,707.28,395.67,707.38,395.67,707.86 V713.82 Z "
         stroke-width="0"
         fill="black"
         id="path12328" /><path
         d="M400.57,713.84 L398.78,712.94 V712.8 C398.89,712.85,399.01,712.89,399.04,712.91 C399.22,712.98,399.39,713.02,399.49,713.02 C399.7,713.02,399.79,712.87,399.79,712.55 V708.05 C399.79,707.72,399.71,707.49,399.55,707.4 C399.4,707.31,399.26,707.28,398.85,707.27 V707.12 H401.59 V707.27 C400.8,707.28,400.65,707.38,400.65,707.86 V713.82 Z "
         stroke-width="0"
         fill="black"
         id="path12330" /><path
         d="M405.18,713.84 L405.13,713.84 L405.08,713.84 L405.03,713.84 L404.98,713.83 L404.93,713.83 L404.89,713.82 L404.84,713.82 L404.79,713.81 L404.75,713.8 L404.7,713.79 L404.66,713.78 L404.61,713.77 L404.57,713.76 L404.53,713.74 L404.49,713.73 L404.45,713.71 L404.41,713.7 L404.36,713.68 L404.33,713.66 L404.29,713.64 L404.25,713.62 L404.21,713.6 L404.17,713.57 L404.13,713.55 L404.1,713.53 L404.06,713.5 L404.02,713.47 L403.99,713.45 L403.95,713.42 L403.92,713.39 L403.88,713.36 L403.85,713.32 C403.27,712.77,402.89,711.62,402.89,710.46 C402.89,709.38,403.22,708.22,403.69,707.66 C404.05,707.22,404.56,706.99,405.14,706.99 V707.24 C404.28,707.24,403.85,708.31,403.85,710.37 C403.85,712.48,404.29,713.58,405.15,713.58 H405.15 C405.99,713.58,406.43,712.46,406.43,710.38 C406.43,708.31,405.99,707.24,405.14,707.24 V706.99 C405.65,706.99,406.08,707.16,406.43,707.5 C407.01,708.05,407.39,709.2,407.39,710.4 C407.39,712.44,406.48,713.84,405.18,713.84 Z "
         stroke-width="0"
         fill="black"
         id="path12332" /><path
         d="M410.53,713.84 L408.74,712.94 V712.8 C408.86,712.85,408.97,712.89,409.01,712.91 C409.19,712.98,409.36,713.02,409.45,713.02 C409.66,713.02,409.75,712.87,409.75,712.55 V708.05 C409.75,707.72,409.67,707.49,409.51,707.4 C409.36,707.31,409.23,707.28,408.81,707.27 V707.12 H411.55 V707.27 C410.77,707.28,410.61,707.38,410.61,707.86 V713.82 Z "
         stroke-width="0"
         fill="black"
         id="path12334" /><path
         d="M415.14,713.84 L415.09,713.84 L415.04,713.84 L414.99,713.84 L414.94,713.83 L414.89,713.83 L414.85,713.82 L414.8,713.82 L414.75,713.81 L414.71,713.8 L414.66,713.79 L414.62,713.78 L414.58,713.77 L414.53,713.76 L414.49,713.74 L414.45,713.73 L414.41,713.71 L414.37,713.7 L414.33,713.68 L414.29,713.66 L414.25,713.64 L414.21,713.62 L414.17,713.6 L414.13,713.57 L414.1,713.55 L414.06,713.53 L414.02,713.5 L413.99,713.47 L413.95,713.45 L413.91,713.42 L413.88,713.39 L413.84,713.36 L413.81,713.32 C413.23,712.77,412.85,711.62,412.85,710.46 C412.85,709.38,413.18,708.22,413.65,707.66 C414.02,707.22,414.52,706.99,415.1,706.99 V707.24 C414.25,707.24,413.81,708.31,413.81,710.37 C413.81,712.48,414.26,713.58,415.11,713.58 H415.11 C415.95,713.58,416.4,712.46,416.4,710.38 C416.4,708.31,415.96,707.24,415.1,707.24 V706.99 C415.61,706.99,416.04,707.16,416.4,707.5 C416.97,708.05,417.35,709.2,417.35,710.4 C417.35,712.44,416.45,713.84,415.14,713.84 Z "
         stroke-width="0"
         fill="black"
         id="path12336" /><path
         d="M380.81,698.67 H378.83 V698.51 C379.4,698.46,379.53,698.36,379.53,698 C379.53,697.88,379.51,697.76,379.44,697.57 C379.43,697.53,379.42,697.5,379.42,697.49 L378.4,693.71 L376.33,698.67 H374.73 V698.51 C375.2,698.47,375.41,698.34,375.59,697.95 L374.4,693.81 C374.02,692.54,373.94,692.42,373.38,692.34 V692.18 H375.35 V692.34 C374.84,692.38,374.65,692.49,374.65,692.77 C374.65,692.9,374.68,693.09,374.74,693.3 L375.87,697.5 L378.16,692.03 H378.34 L379.77,697.03 C380.14,698.31,380.18,698.37,380.81,698.51 Z "
         stroke-width="0"
         fill="black"
         id="path12338" /><polygon
         points="389.3,695.46 389.3,696.02 384.2,696.02 384.2,695.46 "
         stroke-width="0"
         fill="black"
         id="polygon12340" /><polygon
         points="389.3,693.44 389.3,694 384.2,694 384.2,693.44 "
         stroke-width="0"
         fill="black"
         id="polygon12342" /><polygon
         points="398.4,694.46 398.4,695.01 393.31,695.01 393.31,694.46 "
         stroke-width="0"
         fill="black"
         id="polygon12344" /><path
         d="M401.92,698.9 L400.13,697.99 V697.85 C400.25,697.9,400.36,697.94,400.4,697.96 C400.58,698.03,400.75,698.07,400.85,698.07 C401.06,698.07,401.14,697.92,401.14,697.6 V693.1 C401.14,692.78,401.07,692.55,400.91,692.46 C400.76,692.37,400.62,692.34,400.2,692.33 V692.18 H402.95 V692.33 C402.16,692.34,402,692.44,402,692.92 V698.88 Z "
         stroke-width="0"
         fill="black"
         id="path12346" /><path
         d="M406.9,698.9 L405.11,697.99 V697.85 C405.23,697.9,405.34,697.94,405.38,697.96 C405.56,698.03,405.73,698.07,405.83,698.07 C406.04,698.07,406.13,697.92,406.13,697.6 V693.1 C406.13,692.78,406.05,692.55,405.89,692.46 C405.74,692.37,405.6,692.34,405.18,692.33 V692.18 H407.93 V692.33 C407.14,692.34,406.98,692.44,406.98,692.92 V698.88 Z "
         stroke-width="0"
         fill="black"
         id="path12348" /><path
         d="M411.52,698.9 L411.46,698.9 L411.41,698.89 L411.37,698.89 L411.32,698.89 L411.27,698.88 L411.22,698.88 L411.17,698.87 L411.13,698.86 L411.08,698.86 L411.04,698.85 L410.99,698.84 L410.95,698.82 L410.91,698.81 L410.87,698.8 L410.82,698.78 L410.78,698.77 L410.74,698.75 L410.7,698.73 L410.66,698.72 L410.62,698.7 L410.58,698.68 L410.54,698.65 L410.51,698.63 L410.47,698.61 L410.43,698.58 L410.4,698.56 L410.36,698.53 L410.32,698.5 L410.29,698.47 L410.25,698.44 L410.22,698.41 L410.18,698.38 C409.61,697.82,409.23,696.68,409.23,695.52 C409.23,694.44,409.56,693.27,410.02,692.72 C410.39,692.28,410.9,692.04,411.48,692.04 V692.3 C410.62,692.3,410.18,693.36,410.18,695.43 C410.18,697.53,410.63,698.64,411.49,698.64 H411.49 C412.32,698.64,412.77,697.52,412.77,695.44 C412.77,693.36,412.33,692.3,411.48,692.3 V692.04 C411.98,692.04,412.41,692.21,412.77,692.56 C413.35,693.1,413.72,694.26,413.72,695.46 C413.72,697.5,412.82,698.9,411.52,698.9 Z "
         stroke-width="0"
         fill="black"
         id="path12350" /><path
         d="M416.86,698.9 L415.07,697.99 V697.85 C415.19,697.9,415.3,697.94,415.34,697.96 C415.52,698.03,415.69,698.07,415.79,698.07 C416,698.07,416.09,697.92,416.09,697.6 V693.1 C416.09,692.78,416.01,692.55,415.85,692.46 C415.7,692.37,415.56,692.34,415.14,692.33 V692.18 H417.89 V692.33 C417.1,692.34,416.95,692.44,416.95,692.92 V698.88 Z "
         stroke-width="0"
         fill="black"
         id="path12352" /></g>    <g
       style="font-style:normal;font-variant:normal;font-weight:normal;font-stretch:normal;letter-spacing:normal;word-spacing:normal;text-anchor:start;fill:none;stroke:#000000;stroke-width:1;stroke-linecap:butt;stroke-linejoin:miter;stroke-miterlimit:10.43299961;stroke-opacity:1;stroke-dasharray:none;stroke-dashoffset:0"
       ns0:preamble="/home/sriranga/Desktop/Prism_BasicElectronics/preamble.tex"
       ns0:text="$\\therefore $~ Answer~ $= (01101)_{2}=0$ "
       word-spacing="normal"
       letter-spacing="normal"
       font-size-adjust="none"
       font-stretch="normal"
       font-weight="normal"
       font-variant="normal"
       font-style="normal"
       stroke-miterlimit="10.433"
       xml:space="preserve"
       transform="matrix(1.2,0,0,-1.2,-101.60694,1760.9868)"
       id="g12585"><path
         id="path12587"
         d="m 227.27,711.21 0,0.02 0,0.03 0,0.03 -0.01,0.02 0,0.03 -0.01,0.02 -0.01,0.03 -0.01,0.02 -0.01,0.02 -0.01,0.03 -0.01,0.02 -0.02,0.02 -0.01,0.02 -0.02,0.02 -0.02,0.02 -0.01,0.02 -0.02,0.02 -0.02,0.01 -0.02,0.02 -0.02,0.01 -0.02,0.02 -0.02,0.01 -0.03,0.01 -0.02,0.01 -0.02,0.01 -0.03,0.01 -0.02,0.01 -0.03,0 -0.03,0.01 -0.02,0 -0.03,0 -0.03,0 c -0.28,0 -0.52,-0.23 -0.52,-0.52 0,-0.29 0.24,-0.53 0.52,-0.53 0.28,0 0.53,0.23 0.53,0.53 z"
         inkscape:connector-curvature="0"
         style="fill:#000000;stroke-width:0" /><path
         id="path12589"
         d="m 229.76,706.91 0,0.02 0,0.03 -0.01,0.03 0,0.02 -0.01,0.03 0,0.02 -0.01,0.03 -0.01,0.02 -0.01,0.02 -0.01,0.03 -0.02,0.02 -0.01,0.02 -0.02,0.02 -0.01,0.02 -0.02,0.02 -0.02,0.02 -0.01,0.02 -0.02,0.01 -0.02,0.02 -0.02,0.01 -0.03,0.02 -0.02,0.01 -0.02,0.01 -0.02,0.01 -0.03,0.01 -0.02,0.01 -0.03,0.01 -0.02,0 -0.03,0.01 -0.02,0 -0.03,0 -0.03,0 c -0.29,0 -0.52,-0.24 -0.52,-0.52 0,-0.29 0.23,-0.53 0.52,-0.53 0.29,0 0.53,0.24 0.53,0.53 z"
         inkscape:connector-curvature="0"
         style="fill:#000000;stroke-width:0" /><path
         id="path12591"
         d="m 224.79,706.91 -0.01,0.02 0,0.03 0,0.03 -0.01,0.02 0,0.03 -0.01,0.02 -0.01,0.03 -0.01,0.02 -0.01,0.02 -0.01,0.03 -0.01,0.02 -0.02,0.02 -0.01,0.02 -0.02,0.02 -0.01,0.02 -0.02,0.02 -0.02,0.02 -0.02,0.01 -0.02,0.02 -0.02,0.01 -0.02,0.02 -0.02,0.01 -0.02,0.01 -0.03,0.01 -0.02,0.01 -0.03,0.01 -0.02,0.01 -0.03,0 -0.02,0.01 -0.03,0 -0.03,0 -0.02,0 c -0.29,0 -0.53,-0.24 -0.53,-0.52 0,-0.29 0.24,-0.53 0.53,-0.53 0.29,0 0.53,0.24 0.53,0.53 z"
         inkscape:connector-curvature="0"
         style="fill:#000000;stroke-width:0" /><path
         id="path12593"
         d="m 242.08,707.31 -0.04,0.01 -0.04,0 -0.04,0 -0.03,0.01 -0.04,0.01 -0.03,0 -0.03,0.01 -0.03,0.01 -0.03,0.01 -0.03,0.01 -0.02,0.01 -0.03,0.02 -0.02,0.01 -0.03,0.02 -0.02,0.02 -0.03,0.02 -0.02,0.03 -0.02,0.02 -0.03,0.03 -0.02,0.03 -0.02,0.03 -0.02,0.04 -0.03,0.04 -0.02,0.04 -0.03,0.04 -0.02,0.05 -0.03,0.05 -0.03,0.05 -0.02,0.06 -0.03,0.06 -0.02,0.03 -0.01,0.03 -0.02,0.03 -0.02,0.04 -2.47,5.64 h -0.2 l -2.07,-4.88 c -0.64,-1.45 -0.76,-1.61 -1.24,-1.63 v -0.19 h 1.97 v 0.19 c -0.47,0 -0.67,0.13 -0.67,0.41 0,0.12 0.03,0.26 0.08,0.39 l 0.46,1.16 h 2.6 l -0.14,0.41 h -2.3 l 1.15,2.73 1.15,-2.73 0.14,-0.41 0.41,-0.95 c 0.12,-0.27 0.19,-0.53 0.19,-0.67 0,-0.25 -0.17,-0.33 -0.7,-0.34 v -0.19 h 2.54 z"
         inkscape:connector-curvature="0"
         style="fill:#000000;stroke-width:0" /><path
         id="path12595"
         d="m 242.41,711.08 0,0 0.01,0 0,0.01 0.01,0 0.01,0 0,0 0.01,0.01 0.01,0 0.01,0 0,0 0.02,0 0.02,0.01 0.01,0 0.02,0 0.02,0 0.02,0 0.02,0.01 0.02,0 0.02,0 0.02,0 0.02,0 c 0.27,0 0.36,-0.15 0.36,-0.64 v -2.46 c 0,-0.57 -0.11,-0.71 -0.61,-0.75 v -0.15 h 2.11 v 0.15 c -0.51,0.04 -0.66,0.16 -0.66,0.52 v 2.79 c 0.48,0.45 0.7,0.57 1.02,0.57 0.49,0 0.73,-0.31 0.73,-0.97 v -2.07 c 0,-0.63 -0.13,-0.8 -0.63,-0.84 v -0.15 h 2.07 v 0.15 c -0.48,0.05 -0.6,0.17 -0.6,0.66 v 2.27 c 0,0.94 -0.44,1.5 -1.18,1.5 -0.45,0 -0.76,-0.17 -1.44,-0.81 v 0.78 l -0.07,0.03 c -0.49,-0.18 -0.83,-0.29 -1.37,-0.45 z"
         inkscape:connector-curvature="0"
         style="fill:#000000;stroke-width:0" /><path
         id="path12597"
         d="m 250.36,710.24 -0.04,1.35 h -0.11 l -0.02,-0.01 c -0.09,-0.07 -0.09,-0.08 -0.14,-0.08 -0.06,0 -0.15,0.02 -0.26,0.07 -0.22,0.08 -0.44,0.11 -0.7,0.11 -0.79,0 -1.35,-0.5 -1.35,-1.22 0,-0.55 0.31,-0.95 1.16,-1.43 l 0.58,-0.33 c 0.35,-0.19 0.51,-0.43 0.51,-0.74 0,-0.44 -0.31,-0.72 -0.82,-0.72 -0.34,0 -0.65,0.13 -0.84,0.35 -0.21,0.25 -0.29,0.48 -0.42,1.05 h -0.16 v -1.55 h 0.13 c 0.07,0.09 0.11,0.11 0.22,0.11 0.09,0 0.23,-0.02 0.46,-0.08 0.28,-0.05 0.55,-0.09 0.73,-0.09 0.76,0 1.4,0.57 1.4,1.27 0,0.49 -0.24,0.82 -0.83,1.18 l -1.08,0.63 c -0.28,0.16 -0.43,0.41 -0.43,0.68 0,0.4 0.31,0.68 0.77,0.68 0.57,0 0.87,-0.34 1.09,-1.23 z"
         inkscape:connector-curvature="0"
         style="fill:#000000;stroke-width:0" /><path
         id="path12599"
         d="m 256.79,711.59 v -0.14 c 0.33,-0.07 0.43,-0.14 0.43,-0.31 0,-0.15 -0.06,-0.39 -0.17,-0.66 l -0.89,-2.2 -0.84,2.22 c -0.17,0.46 -0.17,0.46 -0.17,0.59 0,0.22 0.11,0.29 0.58,0.36 v 0.14 h -2.02 v -0.14 c 0.37,-0.04 0.49,-0.15 0.69,-0.69 0.07,-0.19 0.14,-0.38 0.2,-0.56 l -0.91,-1.97 -0.98,2.59 c -0.04,0.1 -0.06,0.2 -0.06,0.3 0,0.21 0.12,0.29 0.45,0.33 v 0.14 h -1.79 v -0.14 c 0.23,-0.02 0.31,-0.12 0.53,-0.63 l 1.34,-3.4 c 0.12,-0.3 0.2,-0.43 0.26,-0.43 0.05,0 0.13,0.12 0.25,0.38 l 1.12,2.39 0.9,-2.35 c 0.14,-0.36 0.18,-0.42 0.24,-0.42 0.07,0 0.12,0.09 0.28,0.48 l 1.37,3.44 c 0.18,0.42 0.21,0.47 0.41,0.54 v 0.14 z"
         inkscape:connector-curvature="0"
         style="fill:#000000;stroke-width:0" /><path
         id="path12601"
         d="m 262.36,708.75 -0.05,-0.07 -0.04,-0.06 -0.05,-0.07 -0.04,-0.06 -0.04,-0.06 -0.05,-0.05 -0.04,-0.06 -0.05,-0.05 -0.04,-0.05 -0.04,-0.04 -0.05,-0.05 -0.04,-0.04 -0.05,-0.04 -0.04,-0.03 -0.05,-0.04 -0.04,-0.03 -0.05,-0.03 -0.05,-0.03 -0.05,-0.02 -0.04,-0.03 -0.05,-0.02 -0.05,-0.02 -0.05,-0.02 -0.05,-0.01 -0.05,-0.02 -0.06,-0.01 -0.05,-0.01 -0.06,-0.01 -0.05,0 -0.06,-0.01 -0.06,0 -0.05,0 c -0.57,0 -1,0.29 -1.29,0.86 -0.18,0.37 -0.25,0.7 -0.27,1.31 l 0.02,0.32 c 0.11,0.77 0.45,1.14 1.06,1.14 0.6,0 0.84,-0.28 0.97,-1.14 h -2.03 l -0.02,-0.32 h 3.07 c -0.08,0.64 -0.18,0.93 -0.43,1.25 -0.3,0.36 -0.76,0.57 -1.27,0.57 -0.5,0 -0.97,-0.18 -1.35,-0.52 -0.46,-0.41 -0.73,-1.11 -0.73,-1.93 0,-1.37 0.71,-2.22 1.86,-2.22 0.94,0 1.69,0.58 2.11,1.65 z"
         inkscape:connector-curvature="0"
         style="fill:#000000;stroke-width:0" /><path
         id="path12603"
         d="m 262.79,711 0.01,0 0.02,0 0.01,0.01 0.01,0 0.02,0 0.03,0.01 0.02,0 0.02,0 0.02,0.01 0.02,0 0.02,0 0.02,0 0.02,0.01 0.02,0 0.02,0 0.03,0 0.02,0 0.02,0 c 0.25,0 0.34,-0.16 0.34,-0.6 v -2.48 c 0,-0.5 -0.07,-0.57 -0.71,-0.69 v -0.15 h 2.39 v 0.15 c -0.68,0.03 -0.85,0.18 -0.85,0.75 v 2.23 c 0,0.32 0.43,0.82 0.7,0.82 0.06,0 0.15,-0.05 0.26,-0.15 0.16,-0.14 0.27,-0.2 0.4,-0.2 0.23,0 0.38,0.17 0.38,0.45 0,0.33 -0.2,0.53 -0.54,0.53 -0.42,0 -0.71,-0.23 -1.2,-0.94 v 0.91 l -0.05,0.03 c -0.52,-0.22 -0.88,-0.35 -1.47,-0.54 z"
         inkscape:connector-curvature="0"
         style="fill:#000000;stroke-width:0" /><polygon
         id="polygon12605"
         points="271.64,710.4 276.73,710.4 276.73,710.96 271.64,710.96 "
         style="fill:#000000;stroke-width:0" /><polygon
         id="polygon12607"
         points="271.64,708.39 276.73,708.39 276.73,708.94 271.64,708.94 "
         style="fill:#000000;stroke-width:0" /><path
         id="path12609"
         d="m 283.06,713.84 -0.07,-0.04 -0.06,-0.05 -0.07,-0.04 -0.06,-0.04 -0.06,-0.04 -0.05,-0.04 -0.06,-0.04 -0.05,-0.03 -0.05,-0.04 -0.05,-0.04 -0.05,-0.03 -0.04,-0.04 -0.05,-0.03 -0.04,-0.04 -0.08,-0.06 -0.08,-0.07 -0.07,-0.07 -0.07,-0.07 -0.07,-0.07 -0.07,-0.07 -0.07,-0.08 -0.07,-0.08 -0.06,-0.08 c -0.71,-0.87 -1.06,-1.86 -1.06,-3.02 0,-1.26 0.37,-2.24 1.25,-3.25 0.4,-0.48 0.66,-0.7 1.18,-1.01 l 0.12,0.16 c -0.8,0.62 -1.08,0.97 -1.35,1.71 -0.23,0.67 -0.34,1.42 -0.34,2.42 0,1.04 0.13,1.86 0.4,2.47 0.27,0.62 0.57,0.97 1.29,1.55 z"
         inkscape:connector-curvature="0"
         style="fill:#000000;stroke-width:0" /><path
         id="path12611"
         d="m 285.97,713.84 -0.05,0 -0.05,0 -0.05,0 -0.05,-0.01 -0.05,0 -0.05,-0.01 -0.04,0 -0.05,-0.01 -0.04,-0.01 -0.05,-0.01 -0.04,-0.01 -0.05,-0.01 -0.04,-0.01 -0.04,-0.02 -0.04,-0.01 -0.05,-0.02 -0.04,-0.01 -0.04,-0.02 -0.04,-0.02 -0.04,-0.02 -0.03,-0.02 -0.04,-0.02 -0.04,-0.03 -0.04,-0.02 -0.04,-0.02 -0.03,-0.03 -0.04,-0.03 -0.03,-0.02 -0.04,-0.03 -0.04,-0.03 -0.03,-0.03 -0.03,-0.04 c -0.58,-0.55 -0.96,-1.7 -0.96,-2.86 0,-1.08 0.33,-2.24 0.8,-2.8 0.36,-0.44 0.87,-0.67 1.45,-0.67 v 0.25 c -0.86,0 -1.29,1.07 -1.29,3.13 0,2.11 0.44,3.21 1.3,3.21 h 0 c 0.83,0 1.28,-1.12 1.28,-3.2 0,-2.07 -0.44,-3.14 -1.29,-3.14 v -0.25 c 0.51,0 0.93,0.17 1.29,0.51 0.58,0.55 0.96,1.7 0.96,2.9 0,2.04 -0.91,3.44 -2.21,3.44 z"
         inkscape:connector-curvature="0"
         style="fill:#000000;stroke-width:0" /><path
         id="path12613"
         d="m 291.32,713.84 -1.79,-0.9 v -0.14 c 0.12,0.05 0.23,0.09 0.27,0.11 0.18,0.07 0.34,0.11 0.44,0.11 0.21,0 0.3,-0.15 0.3,-0.47 v -4.5 c 0,-0.33 -0.08,-0.56 -0.24,-0.65 -0.15,-0.09 -0.28,-0.12 -0.7,-0.13 v -0.15 h 2.74 v 0.15 c -0.78,0.01 -0.94,0.11 -0.94,0.59 v 5.96 z"
         inkscape:connector-curvature="0"
         style="fill:#000000;stroke-width:0" /><path
         id="path12615"
         d="m 296.3,713.84 -1.79,-0.9 v -0.14 c 0.12,0.05 0.23,0.09 0.27,0.11 0.18,0.07 0.34,0.11 0.45,0.11 0.2,0 0.29,-0.15 0.29,-0.47 v -4.5 c 0,-0.33 -0.08,-0.56 -0.23,-0.65 -0.15,-0.09 -0.29,-0.12 -0.71,-0.13 v -0.15 h 2.74 v 0.15 c -0.78,0.01 -0.94,0.11 -0.94,0.59 v 5.96 z"
         inkscape:connector-curvature="0"
         style="fill:#000000;stroke-width:0" /><path
         id="path12617"
         d="m 300.91,713.84 -0.05,0 -0.05,0 -0.05,0 -0.05,-0.01 -0.04,0 -0.05,-0.01 -0.05,0 -0.04,-0.01 -0.05,-0.01 -0.05,-0.01 -0.04,-0.01 -0.04,-0.01 -0.05,-0.01 -0.04,-0.02 -0.04,-0.01 -0.04,-0.02 -0.04,-0.01 -0.04,-0.02 -0.04,-0.02 -0.04,-0.02 -0.04,-0.02 -0.04,-0.02 -0.04,-0.03 -0.03,-0.02 -0.04,-0.02 -0.04,-0.03 -0.03,-0.03 -0.04,-0.02 -0.04,-0.03 -0.03,-0.03 -0.04,-0.03 -0.03,-0.04 c -0.58,-0.55 -0.96,-1.7 -0.96,-2.86 0,-1.08 0.33,-2.24 0.8,-2.8 0.37,-0.44 0.88,-0.67 1.45,-0.67 v 0.25 c -0.85,0 -1.29,1.07 -1.29,3.13 0,2.11 0.45,3.21 1.3,3.21 h 0 c 0.84,0 1.29,-1.12 1.29,-3.2 0,-2.07 -0.44,-3.14 -1.3,-3.14 v -0.25 c 0.51,0 0.94,0.17 1.3,0.51 0.57,0.55 0.95,1.7 0.95,2.9 0,2.04 -0.9,3.44 -2.21,3.44 z"
         inkscape:connector-curvature="0"
         style="fill:#000000;stroke-width:0" /><path
         id="path12619"
         d="m 306.26,713.84 -1.79,-0.9 v -0.14 c 0.12,0.05 0.23,0.09 0.27,0.11 0.18,0.07 0.35,0.11 0.45,0.11 0.21,0 0.3,-0.15 0.3,-0.47 v -4.5 c 0,-0.33 -0.08,-0.56 -0.24,-0.65 -0.15,-0.09 -0.29,-0.12 -0.71,-0.13 v -0.15 h 2.75 v 0.15 c -0.79,0.01 -0.95,0.11 -0.95,0.59 v 5.96 z"
         inkscape:connector-curvature="0"
         style="fill:#000000;stroke-width:0" /><path
         id="path12621"
         d="m 308.73,705.37 0.06,0.04 0.07,0.04 0.06,0.05 0.06,0.04 0.06,0.04 0.06,0.03 0.05,0.04 0.05,0.04 0.05,0.04 0.05,0.03 0.05,0.04 0.05,0.03 0.04,0.04 0.04,0.03 0.09,0.07 0.07,0.07 0.08,0.07 0.07,0.07 0.07,0.07 0.07,0.07 0.06,0.08 0.07,0.08 0.07,0.08 c 0.7,0.86 1.05,1.86 1.05,3.02 0,1.27 -0.36,2.23 -1.24,3.25 -0.41,0.47 -0.67,0.69 -1.18,1.01 l -0.12,-0.16 c 0.79,-0.63 1.06,-0.97 1.34,-1.72 0.24,-0.66 0.35,-1.42 0.35,-2.41 0,-1.03 -0.13,-1.86 -0.4,-2.46 -0.28,-0.63 -0.58,-0.99 -1.29,-1.56 z"
         inkscape:connector-curvature="0"
         style="fill:#000000;stroke-width:0" /><path
         id="path12623"
         d="m 314.97,706.58 -0.09,0.04 c -0.25,-0.4 -0.34,-0.46 -0.66,-0.46 h -1.66 l 1.17,1.22 c 0.62,0.65 0.89,1.18 0.89,1.72 0,0.7 -0.57,1.23 -1.29,1.23 -0.38,0 -0.75,-0.15 -1,-0.43 -0.22,-0.24 -0.33,-0.46 -0.45,-0.95 l 0.15,-0.04 c 0.28,0.68 0.53,0.91 1.01,0.91 0.58,0 0.98,-0.4 0.98,-0.98 0,-0.55 -0.32,-1.19 -0.91,-1.81 l -1.23,-1.32 v -0.08 h 2.71 z"
         inkscape:connector-curvature="0"
         style="fill:#000000;stroke-width:0" /><polygon
         id="polygon12625"
         points="319.04,710.4 324.13,710.4 324.13,710.96 319.04,710.96 "
         style="fill:#000000;stroke-width:0" /><polygon
         id="polygon12627"
         points="319.04,708.39 324.13,708.39 324.13,708.94 319.04,708.94 "
         style="fill:#000000;stroke-width:0" /><path
         id="path12629"
         d="m 330.05,713.84 -0.05,0 -0.05,0 -0.05,0 -0.05,-0.01 -0.05,0 -0.05,-0.01 -0.04,0 -0.05,-0.01 -0.04,-0.01 -0.05,-0.01 -0.04,-0.01 -0.05,-0.01 -0.04,-0.01 -0.04,-0.02 -0.04,-0.01 -0.04,-0.02 -0.05,-0.01 -0.04,-0.02 -0.04,-0.02 -0.03,-0.02 -0.04,-0.02 -0.04,-0.02 -0.04,-0.03 -0.04,-0.02 -0.03,-0.02 -0.04,-0.03 -0.04,-0.03 -0.03,-0.02 -0.04,-0.03 -0.03,-0.03 -0.04,-0.03 -0.03,-0.04 c -0.58,-0.55 -0.96,-1.7 -0.96,-2.86 0,-1.08 0.33,-2.24 0.8,-2.8 0.36,-0.44 0.87,-0.67 1.45,-0.67 v 0.25 c -0.86,0 -1.29,1.07 -1.29,3.13 0,2.11 0.44,3.21 1.3,3.21 h 0 c 0.84,0 1.28,-1.12 1.28,-3.2 0,-2.07 -0.44,-3.14 -1.29,-3.14 v -0.25 c 0.51,0 0.94,0.17 1.29,0.51 0.58,0.55 0.96,1.7 0.96,2.9 0,2.04 -0.91,3.44 -2.21,3.44 z"
         inkscape:connector-curvature="0"
         style="fill:#000000;stroke-width:0" /></g>  </g>
</svg>
