<?xml version="1.0" encoding="UTF-8" standalone="no"?>
<!-- Created with Inkscape (http://www.inkscape.org/) -->

<svg
   xmlns:ns0="http://www.iki.fi/pav/software/textext/"
   xmlns:dc="http://purl.org/dc/elements/1.1/"
   xmlns:cc="http://creativecommons.org/ns#"
   xmlns:rdf="http://www.w3.org/1999/02/22-rdf-syntax-ns#"
   xmlns:svg="http://www.w3.org/2000/svg"
   xmlns="http://www.w3.org/2000/svg"
   xmlns:sodipodi="http://sodipodi.sourceforge.net/DTD/sodipodi-0.dtd"
   xmlns:inkscape="http://www.inkscape.org/namespaces/inkscape"
   width="496.06299"
   height="354.33069"
   id="svg2"
   version="1.1"
   inkscape:version="0.48.4 r9939"
   sodipodi:docname="div48.svg">
  <sodipodi:namedview
     id="base"
     pagecolor="#ffffff"
     bordercolor="#666666"
     borderopacity="1.0"
     inkscape:pageopacity="0.0"
     inkscape:pageshadow="2"
     inkscape:zoom="2.3827614"
     inkscape:cx="240.02018"
     inkscape:cy="171.8007"
     inkscape:document-units="cm"
     inkscape:current-layer="layer1"
     showgrid="false"
     units="cm"
     inkscape:object-nodes="true"
     inkscape:window-width="1366"
     inkscape:window-height="744"
     inkscape:window-x="0"
     inkscape:window-y="24"
     inkscape:window-maximized="1">
    <inkscape:grid
       snapvisiblegridlinesonly="true"
       enabled="true"
       visible="true"
       empspacing="5"
       id="grid2985"
       type="xygrid" />
  </sodipodi:namedview>
  <defs
     id="defs4">
    <marker
       style="overflow:visible"
       id="Arrow1Mstart"
       refX="0"
       refY="0"
       orient="auto"
       inkscape:stockid="Arrow1Mstart">
      <path
         transform="matrix(0.4,0,0,0.4,4,0)"
         style="fill-rule:evenodd;stroke:#000000;stroke-width:1pt"
         d="M 0,0 5,-5 -12.5,0 5,5 0,0 z"
         id="path3775"
         inkscape:connector-curvature="0" />
    </marker>
    <marker
       style="overflow:visible"
       id="Arrow1Mend"
       refX="0"
       refY="0"
       orient="auto"
       inkscape:stockid="Arrow1Mend">
      <path
         transform="matrix(-0.4,0,0,-0.4,-4,0)"
         style="fill-rule:evenodd;stroke:#000000;stroke-width:1pt"
         d="M 0,0 5,-5 -12.5,0 5,5 0,0 z"
         id="path3778"
         inkscape:connector-curvature="0" />
    </marker>
    <marker
       inkscape:stockid="Arrow1Mstart"
       orient="auto"
       refY="0"
       refX="0"
       id="Arrow1Mstart-7"
       style="overflow:visible">
      <path
         inkscape:connector-curvature="0"
         id="path3775-8"
         d="M 0,0 5,-5 -12.5,0 5,5 0,0 z"
         style="fill-rule:evenodd;stroke:#000000;stroke-width:1pt"
         transform="matrix(0.4,0,0,0.4,4,0)" />
    </marker>
  </defs>
  <metadata
     id="metadata7">
    <rdf:RDF>
      <cc:Work
         rdf:about="">
        <dc:format>image/svg+xml</dc:format>
        <dc:type
           rdf:resource="http://purl.org/dc/dcmitype/StillImage" />
        <dc:title></dc:title>
      </cc:Work>
    </rdf:RDF>
  </metadata>
  <g
     transform="translate(0,-698.03016)"
     id="layer1"
     inkscape:groupmode="layer"
     inkscape:label="Layer 1">
    <text
       xml:space="preserve"
       style="font-size:12px;font-style:normal;font-variant:normal;font-weight:normal;font-stretch:normal;text-align:start;line-height:100%;letter-spacing:0px;word-spacing:0px;text-anchor:start;fill:#000000;fill-opacity:1;stroke:none;font-family:LMRoman12;-inkscape-font-specification:Sans"
       x="61.700558"
       y="754.07056"
       id="text5818"
       sodipodi:linespacing="100%"><tspan
         sodipodi:role="line"
         id="tspan5820"
         x="61.700558"
         y="754.07056" /></text>
    <flowRoot
       style="font-size:12px;font-style:normal;font-variant:normal;font-weight:normal;font-stretch:normal;text-align:start;line-height:100%;letter-spacing:0px;word-spacing:0px;text-anchor:start;fill:#000000;fill-opacity:1;stroke:none;font-family:LMRoman12;-inkscape-font-specification:Sans"
       id="flowRoot6377"
       xml:space="preserve"><flowRegion
         id="flowRegion6379"><rect
           y="87.141403"
           x="219.34796"
           height="40.319103"
           width="27.681772"
           id="rect6381" /></flowRegion><flowPara
         id="flowPara6383" /></flowRoot>    <text
       sodipodi:linespacing="50%"
       id="text6385"
       y="753.27734"
       x="275.91507"
       style="font-size:12px;font-style:normal;font-variant:normal;font-weight:normal;font-stretch:normal;text-align:start;line-height:50%;letter-spacing:0px;word-spacing:0px;text-anchor:start;fill:#000000;fill-opacity:1;stroke:none;font-family:LMRoman12;-inkscape-font-specification:Sans"
       xml:space="preserve"><tspan
         y="753.27734"
         x="275.91507"
         id="tspan6387"
         sodipodi:role="line" /></text>
    <text
       sodipodi:linespacing="100%"
       id="text3884"
       y="892.41718"
       x="348.65417"
       style="font-size:12px;font-style:normal;font-variant:normal;font-weight:normal;font-stretch:normal;text-align:start;line-height:100%;letter-spacing:0px;word-spacing:0px;text-anchor:start;fill:#000000;fill-opacity:1;stroke:none;font-family:LMRoman12;-inkscape-font-specification:Sans"
       xml:space="preserve"><tspan
         id="tspan3890"
         y="892.41718"
         x="348.65417"
         sodipodi:role="line" /></text>
    <text
       sodipodi:linespacing="150%"
       id="text3887"
       y="948.92749"
       x="216.96629"
       style="font-size:12px;font-style:normal;font-variant:normal;font-weight:normal;font-stretch:normal;text-align:start;line-height:150%;letter-spacing:0px;word-spacing:0px;text-anchor:start;fill:#000000;fill-opacity:1;stroke:none;font-family:LMRoman12;-inkscape-font-specification:Sans"
       xml:space="preserve"><tspan
         y="948.92749"
         x="216.96629"
         id="tspan3889"
         sodipodi:role="line" /></text>
    <text
       sodipodi:linespacing="150%"
       id="text7389"
       y="759.11084"
       x="173"
       style="font-size:12px;font-style:normal;font-variant:normal;font-weight:normal;font-stretch:normal;text-align:start;line-height:150%;letter-spacing:0px;word-spacing:0px;text-anchor:start;fill:#000000;fill-opacity:1;stroke:none;font-family:LMRoman12;-inkscape-font-specification:Sans"
       xml:space="preserve"><tspan
         y="759.11084"
         x="173"
         id="tspan7391"
         sodipodi:role="line" /></text>
    <text
       xml:space="preserve"
       style="font-size:12px;font-style:normal;font-variant:normal;font-weight:normal;font-stretch:normal;text-align:start;line-height:150%;letter-spacing:0px;word-spacing:0px;text-anchor:start;fill:#000000;fill-opacity:1;stroke:none;font-family:LMRoman12;-inkscape-font-specification:Sans"
       x="262.98758"
       y="833.35034"
       id="text12764"
       sodipodi:linespacing="150%"><tspan
         dx="0 0 0"
         sodipodi:role="line"
         id="tspan12766"
         x="262.98758"
         y="833.35034">   2 3 4 7 . 0 5 1</tspan><tspan
         sodipodi:role="line"
         x="262.98758"
         y="851.35034"
         id="tspan12770">+ 7 6 3 1 . 0 4 1</tspan></text>
    <text
       transform="translate(0,698.03016)"
       sodipodi:linespacing="150%"
       id="text12776"
       y="185.47461"
       x="347.50522"
       style="font-size:12px;font-style:normal;font-variant:normal;font-weight:normal;font-stretch:normal;text-align:start;line-height:150%;letter-spacing:0px;word-spacing:0px;text-anchor:start;fill:#000000;fill-opacity:1;stroke:none;font-family:LMRoman12;-inkscape-font-specification:Sans"
       xml:space="preserve"><tspan
         y="185.47461"
         x="347.50522"
         id="tspan12778"
         sodipodi:role="line" /></text>
    <path
       inkscape:connector-curvature="0"
       id="path12780"
       d="m 256.41662,857.55347 94.92782,0"
       style="fill:none;stroke:#000000;stroke-width:0.80000001;stroke-linecap:square;stroke-linejoin:round;stroke-miterlimit:4;stroke-opacity:1;stroke-dasharray:none;stroke-dashoffset:0"
       sodipodi:nodetypes="cc" />
    <text
       xml:space="preserve"
       style="font-size:12px;font-style:normal;font-variant:normal;font-weight:normal;font-stretch:normal;text-align:start;line-height:150%;letter-spacing:0px;word-spacing:0px;text-anchor:start;fill:#000000;fill-opacity:1;stroke:none;font-family:LMRoman12;-inkscape-font-specification:Sans"
       x="265.73859"
       y="869.23932"
       id="text12782"
       sodipodi:linespacing="150%"><tspan
         sodipodi:role="line"
         x="265.73859"
         y="869.23932"
         id="tspan12786">1 2 2 0 0 . 1 1 2</tspan><tspan
         sodipodi:role="line"
         x="265.73859"
         y="887.23932"
         id="tspan12788" /></text>
    <text
       xml:space="preserve"
       style="font-size:12px;font-style:normal;font-variant:normal;font-weight:normal;font-stretch:normal;text-align:start;line-height:150%;letter-spacing:0px;word-spacing:0px;text-anchor:start;fill:#000000;fill-opacity:1;stroke:none;font-family:LMRoman12;-inkscape-font-specification:Sans"
       x="208.35962"
       y="870.6402"
       id="text12981"
       sodipodi:linespacing="150%"><tspan
         sodipodi:role="line"
         id="tspan12983"
         x="208.35962"
         y="870.6402">end carry</tspan></text>
    <path
       sodipodi:nodetypes="cccc"
       inkscape:connector-curvature="0"
       id="path14827"
       d="m 268.83028,872.09289 0.0117,5.4557 c 0,3.26621 2.0336,4.43228 4.5037,4.43228 l 63.87933,0"
       style="fill:none;stroke:#000000;stroke-width:0.80000001;stroke-linecap:square;stroke-linejoin:round;stroke-miterlimit:4;stroke-opacity:1;stroke-dasharray:none;stroke-dashoffset:0;marker-start:none;marker-end:url(#Arrow1Mend)" />
    <path
       transform="matrix(1.2187317,0,0,1.2187317,-58.765953,643.32629)"
       d="m 272.8109,182.19679 c 0,2.98466 -1.85538,5.40421 -4.14412,5.40421 -2.28874,0 -4.14413,-2.41955 -4.14413,-5.40421 0,-2.98466 1.85539,-5.40421 4.14413,-5.40421 2.28874,0 4.14412,2.41955 4.14412,5.40421 z"
       sodipodi:ry="5.4042087"
       sodipodi:rx="4.144124"
       sodipodi:cy="182.19679"
       sodipodi:cx="268.66678"
       id="path3764"
       style="fill:none;stroke:#000000;stroke-width:0.49231508;stroke-linecap:square;stroke-linejoin:round;stroke-miterlimit:4;stroke-opacity:1;stroke-dasharray:none;stroke-dashoffset:0"
       sodipodi:type="arc" />
    <text
       sodipodi:linespacing="150%"
       id="text3766"
       y="885.1521"
       x="341.61038"
       style="font-size:12px;font-style:normal;font-variant:normal;font-weight:normal;font-stretch:normal;text-align:start;line-height:150%;letter-spacing:0px;word-spacing:0px;text-anchor:start;fill:#000000;fill-opacity:1;stroke:none;font-family:LMRoman12;-inkscape-font-specification:Sans"
       xml:space="preserve"><tspan
         y="885.1521"
         x="341.61038"
         id="tspan3768"
         sodipodi:role="line">1</tspan></text>
    <path
       style="fill:none;stroke:#000000;stroke-width:0.80000001;stroke-linecap:square;stroke-linejoin:round;stroke-miterlimit:4;stroke-opacity:1;stroke-dasharray:none;stroke-dashoffset:0"
       d="m 256.41662,888.37452 94.92782,0"
       id="path3770"
       inkscape:connector-curvature="0"
       sodipodi:nodetypes="cc" />
    <text
       sodipodi:linespacing="150%"
       id="text3772"
       y="900.06036"
       x="275.53546"
       style="font-size:12px;font-style:normal;font-variant:normal;font-weight:normal;font-stretch:normal;text-align:start;line-height:150%;letter-spacing:0px;word-spacing:0px;text-anchor:start;fill:#000000;fill-opacity:1;stroke:none;font-family:LMRoman12;-inkscape-font-specification:Sans"
       xml:space="preserve"><tspan
         id="tspan3774"
         y="900.06036"
         x="275.53546"
         sodipodi:role="line">2 2 0 0 . 1 1 3 </tspan><tspan
         id="tspan3776"
         y="918.06036"
         x="275.53546"
         sodipodi:role="line" /></text>
    <text
       sodipodi:linespacing="150%"
       id="text3383"
       y="833.43433"
       x="122.24146"
       style="font-size:12px;font-style:normal;font-variant:normal;font-weight:normal;font-stretch:normal;text-align:start;line-height:150%;letter-spacing:0px;word-spacing:0px;text-anchor:start;fill:#000000;fill-opacity:1;stroke:none;font-family:LMRoman12;-inkscape-font-specification:Sans"
       xml:space="preserve"><tspan
         y="833.43433"
         x="122.24146"
         id="tspan3385"
         sodipodi:role="line">Now</tspan></text>
    <g
       style="font-style:normal;font-variant:normal;font-weight:normal;font-stretch:normal;letter-spacing:normal;word-spacing:normal;text-anchor:start;fill:none;stroke:#000000;stroke-width:1;stroke-linecap:butt;stroke-linejoin:miter;stroke-miterlimit:10.43299961;stroke-opacity:1;stroke-dasharray:none;stroke-dashoffset:0"
       ns0:preamble="/home/sriranga/Desktop/Prism_BasicElectronics/preamble.tex"
       ns0:text="$\\therefore $~ Answer~ $= (2200.113)_8$ "
       text-anchor="start"
       word-spacing="normal"
       letter-spacing="normal"
       font-size-adjust="none"
       font-stretch="normal"
       font-weight="normal"
       font-variant="normal"
       font-style="normal"
       fill-opacity="1"
       fill-rule="evenodd"
       fill="none"
       stroke-opacity="1"
       stroke-dashoffset="0"
       stroke-dasharray="none"
       stroke-miterlimit="10.433"
       stroke-linejoin="miter"
       stroke-linecap="butt"
       stroke="black"
       xml:space="preserve"
       transform="matrix(1.2,0,0,-1.2,-57.358226,1768.7564)"
       id="content"><path
         id="path3473"
         fill="black"
         stroke-width="0"
         d="M227.27,711.21 L227.27,711.23 L227.27,711.26 L227.27,711.29 L227.26,711.31 L227.26,711.34 L227.25,711.36 L227.24,711.39 L227.23,711.41 L227.22,711.43 L227.21,711.46 L227.2,711.48 L227.18,711.5 L227.17,711.52 L227.15,711.54 L227.13,711.56 L227.12,711.58 L227.1,711.6 L227.08,711.61 L227.06,711.63 L227.04,711.64 L227.02,711.66 L227,711.67 L226.97,711.68 L226.95,711.69 L226.93,711.7 L226.9,711.71 L226.88,711.72 L226.85,711.72 L226.82,711.73 L226.8,711.73 L226.77,711.73 L226.74,711.73 C226.46,711.73,226.22,711.5,226.22,711.21 C226.22,710.92,226.46,710.68,226.74,710.68 C227.02,710.68,227.27,710.91,227.27,711.21 Z " /><path
         id="path3475"
         fill="black"
         stroke-width="0"
         d="M229.76,706.91 L229.76,706.93 L229.76,706.96 L229.75,706.99 L229.75,707.01 L229.74,707.04 L229.74,707.06 L229.73,707.09 L229.72,707.11 L229.71,707.13 L229.7,707.16 L229.68,707.18 L229.67,707.2 L229.65,707.22 L229.64,707.24 L229.62,707.26 L229.6,707.28 L229.59,707.3 L229.57,707.31 L229.55,707.33 L229.53,707.34 L229.5,707.36 L229.48,707.37 L229.46,707.38 L229.44,707.39 L229.41,707.4 L229.39,707.41 L229.36,707.42 L229.34,707.42 L229.31,707.43 L229.29,707.43 L229.26,707.43 L229.23,707.43 C228.94,707.43,228.71,707.19,228.71,706.91 C228.71,706.62,228.94,706.38,229.23,706.38 C229.52,706.38,229.76,706.62,229.76,706.91 Z " /><path
         id="path3477"
         fill="black"
         stroke-width="0"
         d="M224.79,706.91 L224.78,706.93 L224.78,706.96 L224.78,706.99 L224.77,707.01 L224.77,707.04 L224.76,707.06 L224.75,707.09 L224.74,707.11 L224.73,707.13 L224.72,707.16 L224.71,707.18 L224.69,707.2 L224.68,707.22 L224.66,707.24 L224.65,707.26 L224.63,707.28 L224.61,707.3 L224.59,707.31 L224.57,707.33 L224.55,707.34 L224.53,707.36 L224.51,707.37 L224.49,707.38 L224.46,707.39 L224.44,707.4 L224.41,707.41 L224.39,707.42 L224.36,707.42 L224.34,707.43 L224.31,707.43 L224.28,707.43 L224.26,707.43 C223.97,707.43,223.73,707.19,223.73,706.91 C223.73,706.62,223.97,706.38,224.26,706.38 C224.55,706.38,224.79,706.62,224.79,706.91 Z " /><path
         id="path3479"
         fill="black"
         stroke-width="0"
         d="M242.08,707.31 L242.04,707.32 L242,707.32 L241.96,707.32 L241.93,707.33 L241.89,707.34 L241.86,707.34 L241.83,707.35 L241.8,707.36 L241.77,707.37 L241.74,707.38 L241.72,707.39 L241.69,707.41 L241.67,707.42 L241.64,707.44 L241.62,707.46 L241.59,707.48 L241.57,707.51 L241.55,707.53 L241.52,707.56 L241.5,707.59 L241.48,707.62 L241.46,707.66 L241.43,707.7 L241.41,707.74 L241.38,707.78 L241.36,707.83 L241.33,707.88 L241.3,707.93 L241.28,707.99 L241.25,708.05 L241.23,708.08 L241.22,708.11 L241.2,708.14 L241.18,708.18 L238.71,713.82 H238.51 L236.44,708.94 C235.8,707.49,235.68,707.33,235.2,707.31 V707.12 H237.17 V707.31 C236.7,707.31,236.5,707.44,236.5,707.72 C236.5,707.84,236.53,707.98,236.58,708.11 L237.04,709.27 H239.64 L239.5,709.68 H237.2 L238.35,712.41 L239.5,709.68 L239.64,709.27 L240.05,708.32 C240.17,708.05,240.24,707.79,240.24,707.65 C240.24,707.4,240.07,707.32,239.54,707.31 V707.12 H242.08 Z " /><path
         id="path3481"
         fill="black"
         stroke-width="0"
         d="M242.41,711.08 L242.41,711.08 L242.42,711.08 L242.42,711.09 L242.43,711.09 L242.44,711.09 L242.44,711.09 L242.45,711.1 L242.46,711.1 L242.47,711.1 L242.47,711.1 L242.49,711.1 L242.51,711.11 L242.52,711.11 L242.54,711.11 L242.56,711.11 L242.58,711.11 L242.6,711.12 L242.62,711.12 L242.64,711.12 L242.66,711.12 L242.68,711.12 C242.95,711.12,243.04,710.97,243.04,710.48 V708.02 C243.04,707.45,242.93,707.31,242.43,707.27 V707.12 H244.54 V707.27 C244.03,707.31,243.88,707.43,243.88,707.79 V710.58 C244.36,711.03,244.58,711.15,244.9,711.15 C245.39,711.15,245.63,710.84,245.63,710.18 V708.11 C245.63,707.48,245.5,707.31,245,707.27 V707.12 H247.07 V707.27 C246.59,707.32,246.47,707.44,246.47,707.93 V710.2 C246.47,711.14,246.03,711.7,245.29,711.7 C244.84,711.7,244.53,711.53,243.85,710.89 V711.67 L243.78,711.7 C243.29,711.52,242.95,711.41,242.41,711.25 Z " /><path
         id="path3483"
         fill="black"
         stroke-width="0"
         d="M250.36,710.24 L250.32,711.59 H250.21 L250.19,711.58 C250.1,711.51,250.1,711.5,250.05,711.5 C249.99,711.5,249.9,711.52,249.79,711.57 C249.57,711.65,249.35,711.68,249.09,711.68 C248.3,711.68,247.74,711.18,247.74,710.46 C247.74,709.91,248.05,709.51,248.9,709.03 L249.48,708.7 C249.83,708.51,249.99,708.27,249.99,707.96 C249.99,707.52,249.68,707.24,249.17,707.24 C248.83,707.24,248.52,707.37,248.33,707.59 C248.12,707.84,248.04,708.07,247.91,708.64 H247.75 V707.09 H247.88 C247.95,707.18,247.99,707.2,248.1,707.2 C248.19,707.2,248.33,707.18,248.56,707.12 C248.84,707.07,249.11,707.03,249.29,707.03 C250.05,707.03,250.69,707.6,250.69,708.3 C250.69,708.79,250.45,709.12,249.86,709.48 L248.78,710.11 C248.5,710.27,248.35,710.52,248.35,710.79 C248.35,711.19,248.66,711.47,249.12,711.47 C249.69,711.47,249.99,711.13,250.21,710.24 Z " /><path
         id="path3485"
         fill="black"
         stroke-width="0"
         d="M256.79,711.59 V711.45 C257.12,711.38,257.22,711.31,257.22,711.14 C257.22,710.99,257.16,710.75,257.05,710.48 L256.16,708.28 L255.32,710.5 C255.15,710.96,255.15,710.96,255.15,711.09 C255.15,711.31,255.26,711.38,255.73,711.45 V711.59 H253.71 V711.45 C254.08,711.41,254.2,711.3,254.4,710.76 C254.47,710.57,254.54,710.38,254.6,710.2 L253.69,708.23 L252.71,710.82 C252.67,710.92,252.65,711.02,252.65,711.12 C252.65,711.33,252.77,711.41,253.1,711.45 V711.59 H251.31 V711.45 C251.54,711.43,251.62,711.33,251.84,710.82 L253.18,707.42 C253.3,707.12,253.38,706.99,253.44,706.99 C253.49,706.99,253.57,707.11,253.69,707.37 L254.81,709.76 L255.71,707.41 C255.85,707.05,255.89,706.99,255.95,706.99 C256.02,706.99,256.07,707.08,256.23,707.47 L257.6,710.91 C257.78,711.33,257.81,711.38,258.01,711.45 V711.59 Z " /><path
         id="path3487"
         fill="black"
         stroke-width="0"
         d="M262.36,708.75 L262.31,708.68 L262.27,708.62 L262.22,708.55 L262.18,708.49 L262.14,708.43 L262.09,708.38 L262.05,708.32 L262,708.27 L261.96,708.22 L261.92,708.18 L261.87,708.13 L261.83,708.09 L261.78,708.05 L261.74,708.02 L261.69,707.98 L261.65,707.95 L261.6,707.92 L261.55,707.89 L261.5,707.87 L261.46,707.84 L261.41,707.82 L261.36,707.8 L261.31,707.78 L261.26,707.77 L261.21,707.75 L261.15,707.74 L261.1,707.73 L261.04,707.72 L260.99,707.72 L260.93,707.71 L260.87,707.71 L260.82,707.71 C260.25,707.71,259.82,708,259.53,708.57 C259.35,708.94,259.28,709.27,259.26,709.88 L259.28,710.2 C259.39,710.97,259.73,711.34,260.34,711.34 C260.94,711.34,261.18,711.06,261.31,710.2 H259.28 L259.26,709.88 H262.33 C262.25,710.52,262.15,710.81,261.9,711.13 C261.6,711.49,261.14,711.7,260.63,711.7 C260.13,711.7,259.66,711.52,259.28,711.18 C258.82,710.77,258.55,710.07,258.55,709.25 C258.55,707.88,259.26,707.03,260.41,707.03 C261.35,707.03,262.1,707.61,262.52,708.68 Z " /><path
         id="path3489"
         fill="black"
         stroke-width="0"
         d="M262.79,711 L262.8,711 L262.82,711 L262.83,711.01 L262.84,711.01 L262.86,711.01 L262.89,711.02 L262.91,711.02 L262.93,711.02 L262.95,711.03 L262.97,711.03 L262.99,711.03 L263.01,711.03 L263.03,711.04 L263.05,711.04 L263.07,711.04 L263.1,711.04 L263.12,711.04 L263.14,711.04 C263.39,711.04,263.48,710.88,263.48,710.44 V707.96 C263.48,707.46,263.41,707.39,262.77,707.27 V707.12 H265.16 V707.27 C264.48,707.3,264.31,707.45,264.31,708.02 V710.25 C264.31,710.57,264.74,711.07,265.01,711.07 C265.07,711.07,265.16,711.02,265.27,710.92 C265.43,710.78,265.54,710.72,265.67,710.72 C265.9,710.72,266.05,710.89,266.05,711.17 C266.05,711.5,265.85,711.7,265.51,711.7 C265.09,711.7,264.8,711.47,264.31,710.76 V711.67 L264.26,711.7 C263.74,711.48,263.38,711.35,262.79,711.16 Z " /><polygon
         id="polygon3491"
         fill="black"
         stroke-width="0"
         points="276.73,710.4 276.73,710.96 271.64,710.96 271.64,710.4 " /><polygon
         id="polygon3493"
         fill="black"
         stroke-width="0"
         points="276.73,708.39 276.73,708.94 271.64,708.94 271.64,708.39 " /><path
         id="path3495"
         fill="black"
         stroke-width="0"
         d="M283.06,713.84 L282.99,713.8 L282.93,713.75 L282.86,713.71 L282.8,713.67 L282.74,713.63 L282.69,713.59 L282.63,713.55 L282.58,713.52 L282.53,713.48 L282.48,713.44 L282.43,713.41 L282.39,713.37 L282.34,713.34 L282.3,713.3 L282.22,713.24 L282.14,713.17 L282.07,713.1 L282,713.03 L281.93,712.96 L281.86,712.89 L281.79,712.81 L281.72,712.73 L281.66,712.65 C280.95,711.78,280.6,710.79,280.6,709.63 C280.6,708.37,280.97,707.39,281.85,706.38 C282.25,705.9,282.51,705.68,283.03,705.37 L283.15,705.53 C282.35,706.15,282.07,706.5,281.8,707.24 C281.57,707.91,281.46,708.66,281.46,709.66 C281.46,710.7,281.59,711.52,281.86,712.13 C282.13,712.75,282.43,713.1,283.15,713.68 Z " /><path
         id="path3497"
         fill="black"
         stroke-width="0"
         d="M288.17,708.49 L288.04,708.54 C287.67,707.97,287.54,707.88,287.09,707.88 H284.71 L286.39,709.63 C287.27,710.55,287.66,711.31,287.66,712.08 C287.66,713.08,286.85,713.84,285.82,713.84 C285.27,713.84,284.76,713.62,284.39,713.22 C284.07,712.89,283.92,712.57,283.75,711.86 L283.96,711.81 C284.36,712.79,284.71,713.1,285.4,713.1 C286.24,713.1,286.8,712.54,286.8,711.71 C286.8,710.93,286.35,710.01,285.51,709.12 L283.74,707.24 V707.12 H287.62 Z " /><path
         id="path3499"
         fill="black"
         stroke-width="0"
         d="M293.15,708.49 L293.02,708.54 C292.65,707.97,292.52,707.88,292.07,707.88 H289.7 L291.37,709.63 C292.25,710.55,292.64,711.31,292.64,712.08 C292.64,713.08,291.83,713.84,290.8,713.84 C290.25,713.84,289.74,713.62,289.37,713.22 C289.05,712.89,288.9,712.57,288.73,711.86 L288.94,711.81 C289.34,712.79,289.7,713.1,290.38,713.1 C291.22,713.1,291.79,712.54,291.79,711.71 C291.79,710.93,291.33,710.01,290.49,709.12 L288.72,707.24 V707.12 H292.6 Z " /><path
         id="path3501"
         fill="black"
         stroke-width="0"
         d="M295.93,713.84 L295.88,713.84 L295.83,713.84 L295.78,713.84 L295.73,713.83 L295.68,713.83 L295.64,713.82 L295.59,713.82 L295.54,713.81 L295.5,713.8 L295.45,713.79 L295.41,713.78 L295.37,713.77 L295.32,713.76 L295.28,713.74 L295.24,713.73 L295.2,713.71 L295.16,713.7 L295.12,713.68 L295.08,713.66 L295.04,713.64 L295,713.62 L294.96,713.6 L294.92,713.57 L294.88,713.55 L294.85,713.53 L294.81,713.5 L294.77,713.47 L294.74,713.45 L294.7,713.42 L294.67,713.39 L294.63,713.36 L294.6,713.32 C294.02,712.77,293.64,711.62,293.64,710.46 C293.64,709.38,293.97,708.22,294.44,707.66 C294.81,707.22,295.31,706.99,295.89,706.99 V707.24 C295.04,707.24,294.6,708.31,294.6,710.37 C294.6,712.48,295.05,713.58,295.9,713.58 H295.9 C296.74,713.58,297.18,712.46,297.18,710.38 C297.18,708.31,296.75,707.24,295.89,707.24 V706.99 C296.4,706.99,296.83,707.16,297.18,707.5 C297.76,708.05,298.14,709.2,298.14,710.4 C298.14,712.44,297.23,713.84,295.93,713.84 Z " /><path
         id="path3503"
         fill="black"
         stroke-width="0"
         d="M300.91,713.84 L300.86,713.84 L300.81,713.84 L300.76,713.84 L300.71,713.83 L300.67,713.83 L300.62,713.82 L300.57,713.82 L300.53,713.81 L300.48,713.8 L300.43,713.79 L300.39,713.78 L300.35,713.77 L300.3,713.76 L300.26,713.74 L300.22,713.73 L300.18,713.71 L300.14,713.7 L300.1,713.68 L300.06,713.66 L300.02,713.64 L299.98,713.62 L299.94,713.6 L299.9,713.57 L299.87,713.55 L299.83,713.53 L299.79,713.5 L299.76,713.47 L299.72,713.45 L299.68,713.42 L299.65,713.39 L299.61,713.36 L299.58,713.32 C299,712.77,298.62,711.62,298.62,710.46 C298.62,709.38,298.95,708.22,299.42,707.66 C299.79,707.22,300.3,706.99,300.87,706.99 V707.24 C300.02,707.24,299.58,708.31,299.58,710.37 C299.58,712.48,300.03,713.58,300.88,713.58 H300.88 C301.72,713.58,302.17,712.46,302.17,710.38 C302.17,708.31,301.73,707.24,300.87,707.24 V706.99 C301.38,706.99,301.81,707.16,302.17,707.5 C302.74,708.05,303.12,709.2,303.12,710.4 C303.12,712.44,302.22,713.84,300.91,713.84 Z " /><path
         id="path3505"
         fill="black"
         stroke-width="0"
         d="M305.17,707.55 L305.17,707.58 L305.17,707.61 L305.16,707.64 L305.16,707.66 L305.15,707.69 L305.14,707.72 L305.13,707.74 L305.12,707.77 L305.11,707.8 L305.1,707.82 L305.09,707.84 L305.07,707.87 L305.05,707.89 L305.04,707.91 L305.02,707.93 L305,707.95 L304.98,707.97 L304.96,707.99 L304.94,708 L304.92,708.02 L304.9,708.03 L304.87,708.05 L304.85,708.06 L304.82,708.07 L304.8,708.08 L304.77,708.09 L304.75,708.1 L304.72,708.11 L304.69,708.11 L304.67,708.12 L304.64,708.12 L304.61,708.12 C304.31,708.12,304.06,707.87,304.06,707.55 C304.06,707.17,304.4,707.02,304.61,707.02 C304.82,707.02,305.17,707.18,305.17,707.55 Z " /><path
         id="path3507"
         fill="black"
         stroke-width="0"
         d="M308.75,713.84 L306.96,712.94 V712.8 C307.08,712.85,307.19,712.89,307.23,712.91 C307.41,712.98,307.58,713.02,307.68,713.02 C307.89,713.02,307.98,712.87,307.98,712.55 V708.05 C307.98,707.72,307.9,707.49,307.74,707.4 C307.59,707.31,307.45,707.28,307.03,707.27 V707.12 H309.78 V707.27 C308.99,707.28,308.83,707.38,308.83,707.86 V713.82 Z " /><path
         id="path3509"
         fill="black"
         stroke-width="0"
         d="M313.73,713.84 L311.94,712.94 V712.8 C312.06,712.85,312.17,712.89,312.21,712.91 C312.39,712.98,312.56,713.02,312.66,713.02 C312.87,713.02,312.96,712.87,312.96,712.55 V708.05 C312.96,707.72,312.88,707.49,312.72,707.4 C312.57,707.31,312.43,707.28,312.01,707.27 V707.12 H314.76 V707.27 C313.97,707.28,313.81,707.38,313.81,707.86 V713.82 Z " /><path
         id="path3511"
         fill="black"
         stroke-width="0"
         d="M317.34,710.4 L317.4,710.4 L317.45,710.4 L317.5,710.4 L317.55,710.4 L317.59,710.4 L317.64,710.4 L317.68,710.4 L317.72,710.4 L317.76,710.4 L317.8,710.4 L317.84,710.39 L317.87,710.39 L317.9,710.39 L317.94,710.39 L317.97,710.38 L318,710.38 L318.03,710.38 L318.06,710.38 L318.09,710.37 L318.11,710.37 L318.14,710.36 L318.16,710.36 L318.21,710.35 L318.26,710.34 L318.31,710.32 L318.35,710.31 L318.4,710.29 C319.01,710.08,319.4,709.51,319.4,708.82 C319.4,707.99,318.83,707.34,318.1,707.34 C317.83,707.34,317.63,707.41,317.26,707.65 C316.96,707.83,316.8,707.9,316.62,707.9 C316.4,707.9,316.25,707.76,316.25,707.55 C316.25,707.2,316.67,706.99,317.37,706.99 C318.14,706.99,318.92,707.24,319.39,707.65 C319.86,708.06,320.12,708.64,320.12,709.3 C320.12,709.81,319.96,710.27,319.67,710.58 C319.47,710.8,319.28,710.92,318.84,711.11 C319.53,711.58,319.78,711.94,319.78,712.48 C319.78,713.28,319.14,713.84,318.23,713.84 C317.73,713.84,317.29,713.67,316.93,713.35 C316.64,713.09,316.49,712.83,316.27,712.23 L316.42,712.19 C316.82,712.92,317.27,713.24,317.9,713.24 C318.55,713.24,318.99,712.81,318.99,712.18 C318.99,711.82,318.84,711.47,318.6,711.22 C318.3,710.92,318.02,710.77,317.34,710.53 Z " /><path
         id="path3513"
         fill="black"
         stroke-width="0"
         d="M321.18,705.37 L321.25,705.41 L321.31,705.45 L321.37,705.5 L321.44,705.54 L321.49,705.58 L321.55,705.61 L321.6,705.65 L321.66,705.69 L321.71,705.73 L321.76,705.76 L321.8,705.8 L321.85,705.83 L321.89,705.87 L321.94,705.9 L322.02,705.97 L322.1,706.04 L322.17,706.11 L322.24,706.18 L322.31,706.25 L322.38,706.32 L322.45,706.4 L322.51,706.48 L322.58,706.56 C323.29,707.42,323.64,708.42,323.64,709.58 C323.64,710.85,323.27,711.81,322.39,712.83 C321.98,713.3,321.73,713.52,321.21,713.84 L321.09,713.68 C321.89,713.05,322.15,712.71,322.43,711.96 C322.67,711.3,322.78,710.54,322.78,709.55 C322.78,708.52,322.65,707.69,322.38,707.09 C322.1,706.46,321.81,706.1,321.09,705.53 Z " /><path
         id="path3515"
         fill="black"
         stroke-width="0"
         d="M326.14,708.21 L326.2,708.25 L326.26,708.28 L326.32,708.31 L326.38,708.35 L326.43,708.38 L326.48,708.41 L326.53,708.44 L326.58,708.48 L326.62,708.51 L326.66,708.54 L326.7,708.57 L326.74,708.61 L326.77,708.64 L326.8,708.67 L326.84,708.7 L326.86,708.74 L326.89,708.77 L326.92,708.81 L326.94,708.84 L326.96,708.87 L326.98,708.91 L326.99,708.95 L327.01,708.98 L327.02,709.02 L327.03,709.06 L327.04,709.1 L327.05,709.13 L327.06,709.17 L327.07,709.22 L327.07,709.26 L327.07,709.3 L327.07,709.34 C327.07,709.91,326.57,710.33,325.87,710.33 L325.82,710.14 C326.29,710.14,326.59,709.83,326.59,709.35 C326.59,708.96,326.4,708.64,326,708.38 C325.96,708.36,325.96,708.36,325.94,708.34 H325.94 C325.32,708.74,325.07,709.06,325.07,709.45 C325.07,709.85,325.38,710.14,325.82,710.14 L325.87,710.33 C325.11,710.33,324.55,709.87,324.55,709.23 C324.55,708.78,324.68,708.58,325.41,707.94 C324.66,707.37,324.51,707.15,324.51,706.68 C324.51,706.01,325.06,705.53,325.85,705.53 L325.92,705.73 C325.39,705.73,325.04,706.13,325.04,706.74 C325.04,707.18,325.19,707.47,325.6,707.8 L326.01,707.49 C326.52,707.13,326.69,706.88,326.69,706.49 C326.69,706.04,326.38,705.73,325.92,705.73 L325.85,705.53 C326.68,705.53,327.22,705.99,327.22,706.71 C327.22,707.24,326.98,707.59,326.14,708.21 Z " /></g>  </g>
</svg>
