<?xml version="1.0" encoding="UTF-8" standalone="no"?>
<!-- Created with Inkscape (http://www.inkscape.org/) -->

<svg
   xmlns:ns0="http://www.iki.fi/pav/software/textext/"
   xmlns:dc="http://purl.org/dc/elements/1.1/"
   xmlns:cc="http://creativecommons.org/ns#"
   xmlns:rdf="http://www.w3.org/1999/02/22-rdf-syntax-ns#"
   xmlns:svg="http://www.w3.org/2000/svg"
   xmlns="http://www.w3.org/2000/svg"
   xmlns:sodipodi="http://sodipodi.sourceforge.net/DTD/sodipodi-0.dtd"
   xmlns:inkscape="http://www.inkscape.org/namespaces/inkscape"
   width="496.06299"
   height="354.33069"
   id="svg2"
   version="1.1"
   inkscape:version="0.48.4 r9939"
   sodipodi:docname="div46.svg">
  <sodipodi:namedview
     id="base"
     pagecolor="#ffffff"
     bordercolor="#666666"
     borderopacity="1.0"
     inkscape:pageopacity="0.0"
     inkscape:pageshadow="2"
     inkscape:zoom="1.6848668"
     inkscape:cx="248.03149"
     inkscape:cy="177.16534"
     inkscape:document-units="cm"
     inkscape:current-layer="layer1"
     showgrid="false"
     units="cm"
     inkscape:object-nodes="true"
     inkscape:window-width="1366"
     inkscape:window-height="744"
     inkscape:window-x="0"
     inkscape:window-y="24"
     inkscape:window-maximized="1">
    <inkscape:grid
       type="xygrid"
       id="grid2985"
       empspacing="5"
       visible="true"
       enabled="true"
       snapvisiblegridlinesonly="true" />
  </sodipodi:namedview>
  <defs
     id="defs4">
    <marker
       inkscape:stockid="Arrow1Mstart"
       orient="auto"
       refY="0"
       refX="0"
       id="Arrow1Mstart"
       style="overflow:visible">
      <path
         inkscape:connector-curvature="0"
         id="path3775"
         d="M 0,0 5,-5 -12.5,0 5,5 0,0 z"
         style="fill-rule:evenodd;stroke:#000000;stroke-width:1pt"
         transform="matrix(0.4,0,0,0.4,4,0)" />
    </marker>
    <marker
       inkscape:stockid="Arrow1Mend"
       orient="auto"
       refY="0"
       refX="0"
       id="Arrow1Mend"
       style="overflow:visible">
      <path
         inkscape:connector-curvature="0"
         id="path3778"
         d="M 0,0 5,-5 -12.5,0 5,5 0,0 z"
         style="fill-rule:evenodd;stroke:#000000;stroke-width:1pt"
         transform="matrix(-0.4,0,0,-0.4,-4,0)" />
    </marker>
    <marker
       style="overflow:visible"
       id="Arrow1Mstart-7"
       refX="0"
       refY="0"
       orient="auto"
       inkscape:stockid="Arrow1Mstart">
      <path
         transform="matrix(0.4,0,0,0.4,4,0)"
         style="fill-rule:evenodd;stroke:#000000;stroke-width:1pt"
         d="M 0,0 5,-5 -12.5,0 5,5 0,0 z"
         id="path3775-8"
         inkscape:connector-curvature="0" />
    </marker>
    <marker
       style="overflow:visible"
       id="Arrow1Mend-3"
       refX="0"
       refY="0"
       orient="auto"
       inkscape:stockid="Arrow1Mend">
      <path
         transform="matrix(-0.4,0,0,-0.4,-4,0)"
         style="fill-rule:evenodd;stroke:#000000;stroke-width:1pt"
         d="M 0,0 5,-5 -12.5,0 5,5 0,0 z"
         id="path3778-2"
         inkscape:connector-curvature="0" />
    </marker>
    <marker
       style="overflow:visible"
       id="Arrow1Mend-8"
       refX="0"
       refY="0"
       orient="auto"
       inkscape:stockid="Arrow1Mend">
      <path
         transform="matrix(-0.4,0,0,-0.4,-4,0)"
         style="fill-rule:evenodd;stroke:#000000;stroke-width:1pt"
         d="M 0,0 5,-5 -12.5,0 5,5 0,0 z"
         id="path3778-3"
         inkscape:connector-curvature="0" />
    </marker>
  </defs>
  <metadata
     id="metadata7">
    <rdf:RDF>
      <cc:Work
         rdf:about="">
        <dc:format>image/svg+xml</dc:format>
        <dc:type
           rdf:resource="http://purl.org/dc/dcmitype/StillImage" />
        <dc:title></dc:title>
      </cc:Work>
    </rdf:RDF>
  </metadata>
  <g
     inkscape:label="Layer 1"
     inkscape:groupmode="layer"
     id="layer1"
     transform="translate(0,-698.03016)">
    <text
       sodipodi:linespacing="155%"
       id="text15575"
       y="795.36725"
       x="47.264973"
       style="font-size:12px;font-style:normal;font-variant:normal;font-weight:normal;font-stretch:normal;text-align:end;line-height:154.99999523%;letter-spacing:0px;word-spacing:0px;text-anchor:end;fill:#000000;fill-opacity:1;stroke:none;font-family:LMRoman12;-inkscape-font-specification:Sans"
       xml:space="preserve"><tspan
         y="795.36725"
         x="47.264973"
         id="tspan15577"
         sodipodi:role="line">1</tspan><tspan
         id="tspan15579"
         y="813.96722"
         x="47.264973"
         sodipodi:role="line">7</tspan><tspan
         id="tspan15581"
         y="832.56726"
         x="47.264973"
         sodipodi:role="line">1</tspan><tspan
         style="text-align:end;line-height:154.99999523%;letter-spacing:0px;text-anchor:end"
         id="tspan15583"
         y="851.16724"
         x="47.264973"
         sodipodi:role="line">9</tspan></text>
    <text
       transform="translate(0,698.03016)"
       sodipodi:linespacing="150%"
       id="text15585"
       y="143.63155"
       x="99.414391"
       style="font-size:12px;font-style:normal;font-variant:normal;font-weight:normal;font-stretch:normal;text-align:start;line-height:150%;letter-spacing:0px;word-spacing:0px;text-anchor:start;fill:#000000;fill-opacity:1;stroke:none;font-family:LMRoman12;-inkscape-font-specification:Sans"
       xml:space="preserve"><tspan
         y="143.63155"
         x="99.414391"
         id="tspan15587"
         sodipodi:role="line" /></text>
    <path
       inkscape:connector-curvature="0"
       id="path15599"
       d="m 15.889791,837.90379 455.066199,0"
       style="fill:none;stroke:#000000;stroke-width:0.79999995;stroke-linecap:square;stroke-linejoin:round;stroke-miterlimit:4;stroke-opacity:1;stroke-dasharray:none;stroke-dashoffset:0" />
    <path
       sodipodi:nodetypes="ccc"
       inkscape:connector-curvature="0"
       id="path15601"
       d="m 48.664041,785.96735 c 3.20969,-2.13092 8.98978,-6.66331 13.650931,-6.25417 29.192784,-1.79967 -1.346287,92.07012 40.359278,91.90187"
       style="fill:none;stroke:#000000;stroke-width:0.80000001;stroke-linecap:square;stroke-linejoin:round;stroke-miterlimit:4;stroke-opacity:1;stroke-dasharray:none;stroke-dashoffset:0;marker-start:url(#Arrow1Mstart-7)" />
    <g
       style="font-style:normal;font-variant:normal;font-weight:normal;font-stretch:normal;letter-spacing:normal;word-spacing:normal;text-anchor:start;fill:none;stroke:#000000;stroke-width:1;stroke-linecap:butt;stroke-linejoin:miter;stroke-miterlimit:10.43299961;stroke-opacity:1;stroke-dasharray:none;stroke-dashoffset:0"
       ns0:preamble="/home/sriranga/Desktop/Prism_BasicElectronics/preamble.tex"
       ns0:text="$C=1$ "
       word-spacing="normal"
       letter-spacing="normal"
       font-size-adjust="none"
       font-stretch="normal"
       font-weight="normal"
       font-variant="normal"
       font-style="normal"
       stroke-miterlimit="10.433"
       xml:space="preserve"
       transform="matrix(1.2,0,0,-1.2,-61.496103,1724.2633)"
       id="content"><path
         id="path15900"
         d="m 229.67,711.74 0.37,1.98 h -0.21 c -0.08,-0.16 -0.18,-0.22 -0.38,-0.22 -0.08,0 -0.2,0.02 -0.41,0.07 -0.44,0.11 -0.84,0.17 -1.16,0.17 -2.12,0 -4.04,-2 -4.04,-4.2 0,-1.52 1.07,-2.59 2.6,-2.59 1.02,0 1.82,0.43 2.71,1.48 l -0.17,0.14 c -0.89,-0.88 -1.47,-1.18 -2.28,-1.18 -1.11,0 -1.75,0.76 -1.75,2.04 0,1.18 0.48,2.38 1.26,3.19 0.47,0.48 1.1,0.76 1.76,0.76 0.91,0 1.42,-0.53 1.52,-1.61 z"
         inkscape:connector-curvature="0"
         style="fill:#000000;stroke-width:0" /><polygon
         id="polygon15902"
         points="233.68,710.4 238.77,710.4 238.77,710.96 233.68,710.96 "
         style="fill:#000000;stroke-width:0" /><polygon
         id="polygon15904"
         points="233.68,708.39 238.77,708.39 238.77,708.94 233.68,708.94 "
         style="fill:#000000;stroke-width:0" /><path
         id="path15906"
         d="m 245.06,713.84 -1.79,-0.9 v -0.14 c 0.12,0.05 0.23,0.09 0.27,0.11 0.18,0.07 0.35,0.11 0.45,0.11 0.21,0 0.3,-0.15 0.3,-0.47 v -4.5 c 0,-0.33 -0.08,-0.56 -0.24,-0.65 -0.15,-0.09 -0.29,-0.12 -0.71,-0.13 v -0.15 h 2.75 v 0.15 c -0.79,0.01 -0.95,0.11 -0.95,0.59 v 5.96 z"
         inkscape:connector-curvature="0"
         style="fill:#000000;stroke-width:0" /></g>    <path
       style="fill:none;stroke:#000000;stroke-width:0.80000001;stroke-linecap:square;stroke-linejoin:round;stroke-miterlimit:4;stroke-opacity:1;stroke-dasharray:none;stroke-dashoffset:0"
       d="m 22.553712,864.51217 15.728247,-9.4963"
       id="path15936"
       inkscape:connector-curvature="0" />
    <path
       inkscape:connector-curvature="0"
       id="path15940"
       d="M 62.912987,864.51217 47.18474,855.01587"
       style="fill:none;stroke:#000000;stroke-width:0.80000001;stroke-linecap:square;stroke-linejoin:round;stroke-miterlimit:4;stroke-opacity:1;stroke-dasharray:none;stroke-dashoffset:0" />
    <text
       xml:space="preserve"
       style="font-size:12px;font-style:normal;font-variant:normal;font-weight:normal;font-stretch:normal;text-align:end;line-height:154.99999523%;letter-spacing:0px;word-spacing:0px;text-anchor:end;fill:#000000;fill-opacity:1;stroke:none;font-family:LMRoman12;-inkscape-font-specification:Sans"
       x="146.38258"
       y="795.36725"
       id="text16029"
       sodipodi:linespacing="155%"><tspan
         sodipodi:role="line"
         id="tspan16031"
         x="146.38258"
         y="795.36725">1</tspan><tspan
         sodipodi:role="line"
         x="146.38258"
         y="813.96722"
         id="tspan16033">A</tspan><tspan
         sodipodi:role="line"
         x="146.38258"
         y="832.56726"
         id="tspan16035">5</tspan><tspan
         sodipodi:role="line"
         x="146.38258"
         y="851.16724"
         id="tspan16037"
         style="text-align:end;line-height:154.99999523%;letter-spacing:0px;text-anchor:end">16</tspan></text>
    <g
       id="g16041"
       transform="matrix(1.2,0,0,-1.2,-161.80076,1724.2633)"
       xml:space="preserve"
       stroke-miterlimit="10.433"
       font-style="normal"
       font-variant="normal"
       font-weight="normal"
       font-stretch="normal"
       font-size-adjust="none"
       letter-spacing="normal"
       word-spacing="normal"
       ns0:text="$C=1$ "
       ns0:preamble="/home/sriranga/Desktop/Prism_BasicElectronics/preamble.tex"
       style="font-style:normal;font-variant:normal;font-weight:normal;font-stretch:normal;letter-spacing:normal;word-spacing:normal;text-anchor:start;fill:none;stroke:#000000;stroke-width:1;stroke-linecap:butt;stroke-linejoin:miter;stroke-miterlimit:10.43299961;stroke-opacity:1;stroke-dasharray:none;stroke-dashoffset:0"><path
         style="fill:#000000;stroke-width:0"
         inkscape:connector-curvature="0"
         d="m 229.67,711.74 0.37,1.98 h -0.21 c -0.08,-0.16 -0.18,-0.22 -0.38,-0.22 -0.08,0 -0.2,0.02 -0.41,0.07 -0.44,0.11 -0.84,0.17 -1.16,0.17 -2.12,0 -4.04,-2 -4.04,-4.2 0,-1.52 1.07,-2.59 2.6,-2.59 1.02,0 1.82,0.43 2.71,1.48 l -0.17,0.14 c -0.89,-0.88 -1.47,-1.18 -2.28,-1.18 -1.11,0 -1.75,0.76 -1.75,2.04 0,1.18 0.48,2.38 1.26,3.19 0.47,0.48 1.1,0.76 1.76,0.76 0.91,0 1.42,-0.53 1.52,-1.61 z"
         id="path16043" /><polygon
         style="fill:#000000;stroke-width:0"
         points="233.68,710.96 233.68,710.4 238.77,710.4 238.77,710.96 "
         id="polygon16045" /><polygon
         style="fill:#000000;stroke-width:0"
         points="233.68,708.94 233.68,708.39 238.77,708.39 238.77,708.94 "
         id="polygon16047" /><path
         style="fill:#000000;stroke-width:0"
         inkscape:connector-curvature="0"
         d="m 245.06,713.84 -1.79,-0.9 v -0.14 c 0.12,0.05 0.23,0.09 0.27,0.11 0.18,0.07 0.35,0.11 0.45,0.11 0.21,0 0.3,-0.15 0.3,-0.47 v -4.5 c 0,-0.33 -0.08,-0.56 -0.24,-0.65 -0.15,-0.09 -0.29,-0.12 -0.71,-0.13 v -0.15 h 2.75 v 0.15 c -0.79,0.01 -0.95,0.11 -0.95,0.59 v 5.96 z"
         id="path16049" /></g>    <path
       inkscape:connector-curvature="0"
       id="path16051"
       d="m 121.67135,864.51217 15.72825,-9.4963"
       style="fill:none;stroke:#000000;stroke-width:0.80000001;stroke-linecap:square;stroke-linejoin:round;stroke-miterlimit:4;stroke-opacity:1;stroke-dasharray:none;stroke-dashoffset:0" />
    <path
       style="fill:none;stroke:#000000;stroke-width:0.80000001;stroke-linecap:square;stroke-linejoin:round;stroke-miterlimit:4;stroke-opacity:1;stroke-dasharray:none;stroke-dashoffset:0"
       d="m 162.03063,864.51217 -15.72825,-9.4963"
       id="path16053"
       inkscape:connector-curvature="0" />
    <text
       sodipodi:linespacing="155%"
       id="text16065"
       y="795.36725"
       x="247.8743"
       style="font-size:12px;font-style:normal;font-variant:normal;font-weight:normal;font-stretch:normal;text-align:end;line-height:154.99999523%;letter-spacing:0px;word-spacing:0px;text-anchor:end;fill:#000000;fill-opacity:1;stroke:none;font-family:LMRoman12;-inkscape-font-specification:Sans"
       xml:space="preserve"><tspan
         y="795.36725"
         x="247.8743"
         id="tspan16067"
         sodipodi:role="line">0</tspan><tspan
         id="tspan16069"
         y="813.96722"
         x="247.8743"
         sodipodi:role="line">B</tspan><tspan
         id="tspan16071"
         y="832.56726"
         x="247.8743"
         sodipodi:role="line">C</tspan><tspan
         style="text-align:end;line-height:154.99999523%;letter-spacing:0px;text-anchor:end"
         id="tspan16073"
         y="851.16724"
         x="247.8743"
         sodipodi:role="line">23</tspan></text>
    <path
       style="fill:none;stroke:#000000;stroke-width:0.80000001;stroke-linecap:square;stroke-linejoin:round;stroke-miterlimit:4;stroke-opacity:1;stroke-dasharray:none;stroke-dashoffset:0"
       d="m 223.16306,864.51217 15.72825,-9.4963"
       id="path16087"
       inkscape:connector-curvature="0" />
    <path
       inkscape:connector-curvature="0"
       id="path16089"
       d="m 263.52234,864.51217 -15.72825,-9.4963"
       style="fill:none;stroke:#000000;stroke-width:0.80000001;stroke-linecap:square;stroke-linejoin:round;stroke-miterlimit:4;stroke-opacity:1;stroke-dasharray:none;stroke-dashoffset:0" />
    <text
       xml:space="preserve"
       style="font-size:12px;font-style:normal;font-variant:normal;font-weight:normal;font-stretch:normal;text-align:end;line-height:154.99999523%;letter-spacing:0px;word-spacing:0px;text-anchor:end;fill:#000000;fill-opacity:1;stroke:none;font-family:LMRoman12;-inkscape-font-specification:Sans"
       x="345.21143"
       y="795.36725"
       id="text16101"
       sodipodi:linespacing="155%"><tspan
         sodipodi:role="line"
         id="tspan16103"
         x="345.21143"
         y="795.36725">0</tspan><tspan
         sodipodi:role="line"
         x="345.21143"
         y="813.96722"
         id="tspan16105">6</tspan><tspan
         sodipodi:role="line"
         x="345.21143"
         y="832.56726"
         id="tspan16107">7</tspan><tspan
         sodipodi:role="line"
         x="345.21143"
         y="851.16724"
         id="tspan16109"
         style="text-align:end;line-height:154.99999523%;letter-spacing:0px;text-anchor:end">13</tspan></text>
    <path
       inkscape:connector-curvature="0"
       id="path16123"
       d="m 320.50013,864.51217 15.72825,-9.4963"
       style="fill:none;stroke:#000000;stroke-width:0.80000001;stroke-linecap:square;stroke-linejoin:round;stroke-miterlimit:4;stroke-opacity:1;stroke-dasharray:none;stroke-dashoffset:0" />
    <path
       style="fill:none;stroke:#000000;stroke-width:0.80000001;stroke-linecap:square;stroke-linejoin:round;stroke-miterlimit:4;stroke-opacity:1;stroke-dasharray:none;stroke-dashoffset:0"
       d="m 360.85941,864.51217 -15.72825,-9.4963"
       id="path16125"
       inkscape:connector-curvature="0" />
    <text
       sodipodi:linespacing="155%"
       id="text16137"
       y="795.36725"
       x="446.10959"
       style="font-size:12px;font-style:normal;font-variant:normal;font-weight:normal;font-stretch:normal;text-align:end;line-height:154.99999523%;letter-spacing:0px;word-spacing:0px;text-anchor:end;fill:#000000;fill-opacity:1;stroke:none;font-family:LMRoman12;-inkscape-font-specification:Sans"
       xml:space="preserve"><tspan
         y="795.36725"
         x="446.10959"
         id="tspan16139"
         sodipodi:role="line" /><tspan
         id="tspan16141"
         y="813.96722"
         x="446.10959"
         sodipodi:role="line">7</tspan><tspan
         id="tspan16143"
         y="832.56726"
         x="446.10959"
         sodipodi:role="line">1</tspan><tspan
         style="text-align:end;line-height:154.99999523%;letter-spacing:0px;text-anchor:end"
         id="tspan16145"
         y="851.16724"
         x="446.10959"
         sodipodi:role="line">8</tspan></text>
    <path
       style="fill:none;stroke:#000000;stroke-width:0.80000001;stroke-linecap:square;stroke-linejoin:round;stroke-miterlimit:4;stroke-opacity:1;stroke-dasharray:none;stroke-dashoffset:0"
       d="m 421.39831,864.51217 15.72825,-9.4963"
       id="path16159"
       inkscape:connector-curvature="0" />
    <path
       inkscape:connector-curvature="0"
       id="path16161"
       d="m 461.75759,864.51217 -15.72825,-9.4963"
       style="fill:none;stroke:#000000;stroke-width:0.80000001;stroke-linecap:square;stroke-linejoin:round;stroke-miterlimit:4;stroke-opacity:1;stroke-dasharray:none;stroke-dashoffset:0" />
    <path
       style="fill:none;stroke:#000000;stroke-width:0.80000001;stroke-linecap:square;stroke-linejoin:round;stroke-miterlimit:4;stroke-opacity:1;stroke-dasharray:none;stroke-dashoffset:0;marker-start:url(#Arrow1Mstart-7)"
       d="m 150.22687,785.96735 c 3.20969,-2.13092 8.98978,-6.66331 13.65093,-6.25417 29.19279,-1.79967 -1.34628,92.07012 40.35928,91.90187"
       id="path16173"
       inkscape:connector-curvature="0"
       sodipodi:nodetypes="ccc" />
    <path
       sodipodi:nodetypes="ccc"
       inkscape:connector-curvature="0"
       id="path16175"
       d="m 249.27162,785.96735 c 3.20969,-2.13092 8.98978,-6.66331 13.65093,-6.25417 29.19279,-1.79967 -1.34628,92.07012 40.35928,91.90187"
       style="fill:none;stroke:#000000;stroke-width:0.80000001;stroke-linecap:square;stroke-linejoin:round;stroke-miterlimit:4;stroke-opacity:1;stroke-dasharray:none;stroke-dashoffset:0;marker-start:url(#Arrow1Mstart-7)" />
    <path
       style="fill:none;stroke:#000000;stroke-width:0.80000001;stroke-linecap:square;stroke-linejoin:round;stroke-miterlimit:4;stroke-opacity:1;stroke-dasharray:none;stroke-dashoffset:0;marker-start:url(#Arrow1Mstart-7)"
       d="m 348.31637,785.96735 c 3.20969,-2.13092 8.98978,-6.66331 13.65093,-6.25417 29.19279,-1.79967 -1.34628,92.07012 40.35928,91.90187"
       id="path16177"
       inkscape:connector-curvature="0"
       sodipodi:nodetypes="ccc" />
    <g
       style="font-style:normal;font-variant:normal;font-weight:normal;font-stretch:normal;letter-spacing:normal;word-spacing:normal;text-anchor:start;fill:none;stroke:#000000;stroke-width:1;stroke-linecap:butt;stroke-linejoin:miter;stroke-miterlimit:10.43299961;stroke-opacity:1;stroke-dasharray:none;stroke-dashoffset:0"
       ns0:preamble="/home/sriranga/Desktop/Prism_BasicElectronics/preamble.tex"
       ns0:text="$C=0$ "
       word-spacing="normal"
       letter-spacing="normal"
       font-size-adjust="none"
       font-stretch="normal"
       font-weight="normal"
       font-variant="normal"
       font-style="normal"
       stroke-miterlimit="10.433"
       xml:space="preserve"
       transform="matrix(1.2,0,0,-1.2,-262.10544,1724.2633)"
       id="g16720"><path
         style="fill:#000000;stroke-width:0"
         inkscape:connector-curvature="0"
         id="path16722"
         d="m 229.67,711.74 0.37,1.98 h -0.21 c -0.08,-0.16 -0.18,-0.22 -0.38,-0.22 -0.08,0 -0.2,0.02 -0.41,0.07 -0.44,0.11 -0.84,0.17 -1.16,0.17 -2.12,0 -4.04,-2 -4.04,-4.2 0,-1.52 1.07,-2.59 2.6,-2.59 1.02,0 1.82,0.43 2.71,1.48 l -0.17,0.14 c -0.89,-0.88 -1.47,-1.18 -2.28,-1.18 -1.11,0 -1.75,0.76 -1.75,2.04 0,1.18 0.48,2.38 1.26,3.19 0.47,0.48 1.1,0.76 1.76,0.76 0.91,0 1.42,-0.53 1.52,-1.61 z" /><polygon
         style="fill:#000000;stroke-width:0"
         id="polygon16724"
         points="233.68,710.4 238.77,710.4 238.77,710.96 233.68,710.96 " /><polygon
         style="fill:#000000;stroke-width:0"
         id="polygon16726"
         points="233.68,708.39 238.77,708.39 238.77,708.94 233.68,708.94 " /><path
         style="fill:#000000;stroke-width:0"
         inkscape:connector-curvature="0"
         id="path16728"
         d="m 244.69,713.84 -0.05,0 -0.05,0 -0.05,0 -0.05,-0.01 -0.04,0 -0.05,-0.01 -0.05,0 -0.04,-0.01 -0.05,-0.01 -0.04,-0.01 -0.05,-0.01 -0.04,-0.01 -0.04,-0.01 -0.05,-0.02 -0.04,-0.01 -0.04,-0.02 -0.04,-0.01 -0.04,-0.02 -0.04,-0.02 -0.04,-0.02 -0.04,-0.02 -0.04,-0.02 -0.03,-0.03 -0.04,-0.02 -0.04,-0.02 -0.04,-0.03 -0.03,-0.03 -0.04,-0.02 -0.03,-0.03 -0.04,-0.03 -0.03,-0.03 -0.04,-0.04 c -0.58,-0.55 -0.95,-1.7 -0.95,-2.86 0,-1.08 0.32,-2.24 0.79,-2.8 0.37,-0.44 0.88,-0.67 1.45,-0.67 v 0.25 c -0.85,0 -1.29,1.07 -1.29,3.13 0,2.11 0.45,3.21 1.3,3.21 h 0 c 0.84,0 1.29,-1.12 1.29,-3.2 0,-2.07 -0.44,-3.14 -1.3,-3.14 v -0.25 c 0.51,0 0.94,0.17 1.3,0.51 0.57,0.55 0.95,1.7 0.95,2.9 0,2.04 -0.9,3.44 -2.21,3.44 z" /></g>    <g
       style="font-style:normal;font-variant:normal;font-weight:normal;font-stretch:normal;letter-spacing:normal;word-spacing:normal;text-anchor:start;fill:none;stroke:#000000;stroke-width:1;stroke-linecap:butt;stroke-linejoin:miter;stroke-miterlimit:10.43299961;stroke-opacity:1;stroke-dasharray:none;stroke-dashoffset:0"
       ns0:preamble="/home/sriranga/Desktop/Prism_BasicElectronics/preamble.tex"
       ns0:text="$S=0$ "
       word-spacing="normal"
       letter-spacing="normal"
       font-size-adjust="none"
       font-stretch="normal"
       font-weight="normal"
       font-variant="normal"
       font-style="normal"
       stroke-miterlimit="10.433"
       xml:space="preserve"
       transform="matrix(1.2,0,0,-1.2,-120.55121,1724.2633)"
       id="g17158"><path
         id="path17160"
         d="m 228.09,711.77 0.4,1.98 h -0.23 c -0.14,-0.21 -0.23,-0.26 -0.45,-0.26 -0.12,0 -0.23,0.03 -0.46,0.11 -0.22,0.09 -0.53,0.14 -0.84,0.14 -1.04,0 -1.77,-0.69 -1.77,-1.66 0,-0.53 0.14,-0.82 0.74,-1.46 0.09,-0.09 0.22,-0.23 0.39,-0.42 0.18,-0.18 0.32,-0.33 0.39,-0.41 0.47,-0.49 0.59,-0.75 0.59,-1.18 0,-0.74 -0.55,-1.32 -1.28,-1.32 -0.83,0 -1.45,0.71 -1.45,1.65 0,0.08 0.01,0.16 0.02,0.23 l -0.2,0.02 -0.34,-2.21 h 0.18 c 0.07,0.22 0.18,0.32 0.38,0.32 0.11,0 0.26,-0.04 0.52,-0.13 0.45,-0.16 0.72,-0.22 1.03,-0.22 1.14,0 2.01,0.86 2.01,1.98 0,0.65 -0.23,1.04 -1.12,1.94 -0.9,0.9 -0.99,1.04 -0.99,1.53 0,0.63 0.42,1.01 1.1,1.01 0.36,0 0.67,-0.13 0.88,-0.36 0.22,-0.25 0.3,-0.59 0.32,-1.25 z"
         inkscape:connector-curvature="0"
         style="fill:#000000;stroke-width:0" /><polygon
         id="polygon17162"
         points="233.37,710.4 238.47,710.4 238.47,710.96 233.37,710.96 "
         style="fill:#000000;stroke-width:0" /><polygon
         id="polygon17164"
         points="233.37,708.39 238.47,708.39 238.47,708.94 233.37,708.94 "
         style="fill:#000000;stroke-width:0" /><path
         id="path17166"
         d="m 244.38,713.84 -0.05,0 -0.05,0 -0.05,0 -0.04,-0.01 -0.05,0 -0.05,-0.01 -0.05,0 -0.04,-0.01 -0.05,-0.01 -0.04,-0.01 -0.05,-0.01 -0.04,-0.01 -0.04,-0.01 -0.05,-0.02 -0.04,-0.01 -0.04,-0.02 -0.04,-0.01 -0.04,-0.02 -0.04,-0.02 -0.04,-0.02 -0.04,-0.02 -0.04,-0.02 -0.03,-0.03 -0.04,-0.02 -0.04,-0.02 -0.04,-0.03 -0.03,-0.03 -0.04,-0.02 -0.03,-0.03 -0.04,-0.03 -0.03,-0.03 -0.04,-0.04 c -0.57,-0.55 -0.95,-1.7 -0.95,-2.86 0,-1.08 0.33,-2.24 0.79,-2.8 0.37,-0.44 0.88,-0.67 1.46,-0.67 v 0.25 c -0.86,0 -1.3,1.07 -1.3,3.13 0,2.11 0.45,3.21 1.3,3.21 h 0 c 0.84,0 1.29,-1.12 1.29,-3.2 0,-2.07 -0.44,-3.14 -1.29,-3.14 v -0.25 c 0.5,0 0.93,0.17 1.29,0.51 0.58,0.55 0.95,1.7 0.95,2.9 0,2.04 -0.9,3.44 -2.21,3.44 z"
         inkscape:connector-curvature="0"
         style="fill:#000000;stroke-width:0" /></g>    <text
       sodipodi:linespacing="150%"
       id="text17493"
       y="831.42419"
       x="16.761787"
       style="font-size:12px;font-style:normal;font-variant:normal;font-weight:normal;font-stretch:normal;text-align:start;line-height:150%;letter-spacing:0px;word-spacing:0px;text-anchor:start;fill:#000000;fill-opacity:1;stroke:none;font-family:LMRoman12;-inkscape-font-specification:Sans"
       xml:space="preserve"><tspan
         y="831.42419"
         x="16.761787"
         id="tspan17495"
         sodipodi:role="line">+</tspan></text>
    <path
       id="path17973"
       d="m 294.54337,809.39415 0,-0.036 0,-0.036 0,-0.036 -0.012,-0.024 -0.012,-0.036 0,-0.036 -0.012,-0.024 -0.012,-0.036 -0.012,-0.024 -0.024,-0.036 -0.012,-0.024 -0.012,-0.036 -0.024,-0.024 -0.024,-0.024 -0.024,-0.024 -0.012,-0.024 -0.024,-0.024 -0.024,-0.024 -0.024,-0.012 -0.036,-0.024 -0.024,-0.012 -0.024,-0.024 -0.036,-0.012 -0.024,-0.012 -0.036,-0.012 -0.024,-0.012 -0.036,-0.012 -0.024,-0.012 -0.036,0 -0.036,0 -0.036,-0.012 -0.024,0 c -0.36,0 -0.66,0.3 -0.66,0.684 0,0.456 0.408,0.648 0.66,0.648 0.24,0 0.66,-0.204 0.66,-0.648 z"
       inkscape:connector-curvature="0"
       style="font-style:normal;font-variant:normal;font-weight:normal;font-stretch:normal;letter-spacing:normal;word-spacing:normal;text-anchor:start;fill:#000000;stroke:#000000;stroke-width:0;stroke-linecap:butt;stroke-linejoin:miter;stroke-miterlimit:10.43299961;stroke-opacity:1;stroke-dasharray:none;stroke-dashoffset:0" />
    <path
       id="path17975"
       d="m 294.54337,819.73093 0,-0.024 0,-0.036 0,-0.036 -0.012,-0.036 -0.012,-0.036 0,-0.024 -0.012,-0.036 -0.012,-0.024 -0.012,-0.036 -0.024,-0.024 -0.012,-0.036 -0.012,-0.024 -0.024,-0.024 -0.024,-0.024 -0.024,-0.024 -0.012,-0.024 -0.024,-0.024 -0.024,-0.024 -0.024,-0.024 -0.036,-0.012 -0.024,-0.024 -0.024,-0.012 -0.036,-0.024 -0.024,-0.012 -0.036,-0.012 -0.024,-0.012 -0.036,0 -0.024,-0.012 -0.036,-0.012 -0.036,0 -0.036,0 -0.024,0 c -0.36,0 -0.66,0.3 -0.66,0.672 0,0.456 0.408,0.648 0.66,0.648 0.24,0 0.66,-0.204 0.66,-0.648 z"
       inkscape:connector-curvature="0"
       style="font-style:normal;font-variant:normal;font-weight:normal;font-stretch:normal;letter-spacing:normal;word-spacing:normal;text-anchor:start;fill:#000000;stroke:#000000;stroke-width:0;stroke-linecap:butt;stroke-linejoin:miter;stroke-miterlimit:10.43299961;stroke-opacity:1;stroke-dasharray:none;stroke-dashoffset:0" />
    <path
       id="path17977"
       d="m 294.54337,829.5551 0,-0.036 0,-0.036 0,-0.036 -0.012,-0.024 -0.012,-0.036 0,-0.036 -0.012,-0.024 -0.012,-0.036 -0.012,-0.024 -0.024,-0.036 -0.012,-0.024 -0.012,-0.036 -0.024,-0.024 -0.024,-0.024 -0.024,-0.024 -0.012,-0.024 -0.024,-0.024 -0.024,-0.024 -0.024,-0.012 -0.036,-0.024 -0.024,-0.012 -0.024,-0.024 -0.036,-0.012 -0.024,-0.012 -0.036,-0.012 -0.024,-0.012 -0.036,-0.012 -0.024,-0.012 -0.036,0 -0.036,0 -0.036,-0.012 -0.024,0 c -0.36,0 -0.66,0.3 -0.66,0.684 0,0.456 0.408,0.636 0.66,0.636 0.24,0 0.66,-0.192 0.66,-0.636 z"
       inkscape:connector-curvature="0"
       style="font-style:normal;font-variant:normal;font-weight:normal;font-stretch:normal;letter-spacing:normal;word-spacing:normal;text-anchor:start;fill:#000000;stroke:#000000;stroke-width:0;stroke-linecap:butt;stroke-linejoin:miter;stroke-miterlimit:10.43299961;stroke-opacity:1;stroke-dasharray:none;stroke-dashoffset:0" />
    <g
       style="font-style:normal;font-variant:normal;font-weight:normal;font-stretch:normal;letter-spacing:normal;word-spacing:normal;text-anchor:start;fill:none;stroke:#000000;stroke-width:1;stroke-linecap:butt;stroke-linejoin:miter;stroke-miterlimit:10.43299961;stroke-opacity:1;stroke-dasharray:none;stroke-dashoffset:0"
       ns0:preamble="/home/sriranga/Desktop/Prism_BasicElectronics/preamble.tex"
       ns0:text="$S=9$ "
       text-anchor="start"
       word-spacing="normal"
       letter-spacing="normal"
       font-size-adjust="none"
       font-stretch="normal"
       font-weight="normal"
       font-variant="normal"
       font-style="normal"
       fill-opacity="1"
       fill-rule="evenodd"
       fill="none"
       stroke-opacity="1"
       stroke-dashoffset="0"
       stroke-dasharray="none"
       stroke-miterlimit="10.433"
       stroke-linejoin="miter"
       stroke-linecap="butt"
       stroke="black"
       xml:space="preserve"
       transform="matrix(1.2,0,0,-1.2,-219.07532,1724.2633)"
       id="g18416"><path
         id="path18418"
         fill="black"
         stroke-width="0"
         d="M228.09,711.77 L228.49,713.75 H228.26 C228.12,713.54,228.03,713.49,227.81,713.49 C227.69,713.49,227.58,713.52,227.35,713.6 C227.13,713.69,226.82,713.74,226.51,713.74 C225.47,713.74,224.74,713.05,224.74,712.08 C224.74,711.55,224.88,711.26,225.48,710.62 C225.57,710.53,225.7,710.39,225.87,710.2 C226.05,710.02,226.19,709.87,226.26,709.79 C226.73,709.3,226.85,709.04,226.85,708.61 C226.85,707.87,226.3,707.29,225.57,707.29 C224.74,707.29,224.12,708,224.12,708.94 C224.12,709.02,224.13,709.1,224.14,709.17 L223.94,709.19 L223.6,706.98 H223.78 C223.85,707.2,223.96,707.3,224.16,707.3 C224.27,707.3,224.42,707.26,224.68,707.17 C225.13,707.01,225.4,706.95,225.71,706.95 C226.85,706.95,227.72,707.81,227.72,708.93 C227.72,709.58,227.49,709.97,226.6,710.87 C225.7,711.77,225.61,711.91,225.61,712.4 C225.61,713.03,226.03,713.41,226.71,713.41 C227.07,713.41,227.38,713.28,227.59,713.05 C227.81,712.8,227.89,712.46,227.91,711.8 Z " /><polygon
         id="polygon18420"
         fill="black"
         stroke-width="0"
         points="238.47,710.4 238.47,710.96 233.37,710.96 233.37,710.4 " /><polygon
         id="polygon18422"
         fill="black"
         stroke-width="0"
         points="238.47,708.39 238.47,708.94 233.37,708.94 233.37,708.39 " /><path
         id="path18424"
         fill="black"
         stroke-width="0"
         d="M242.45,706.91 L242.55,706.92 L242.65,706.93 L242.74,706.94 L242.84,706.96 L242.93,706.97 L243.02,706.99 L243.1,707 L243.19,707.02 L243.27,707.03 L243.34,707.05 L243.42,707.07 L243.5,707.09 L243.57,707.11 L243.64,707.13 L243.78,707.17 L243.91,707.22 L244.04,707.28 L244.17,707.33 L244.29,707.4 L244.41,707.47 L244.53,707.54 L244.66,707.62 L244.72,707.67 L244.78,707.71 C245.82,708.47,246.43,709.7,246.43,711.04 C246.43,712.68,245.51,713.84,244.23,713.84 C243.04,713.84,242.16,712.84,242.16,711.5 C242.16,710.28,242.87,709.48,243.95,709.48 C244.49,709.48,244.91,709.64,245.44,710.05 L245.31,710.27 C245.03,710.04,244.66,709.91,244.3,709.91 C243.55,709.91,243.07,710.65,243.07,711.83 C243.07,712.4,243.23,713,243.44,713.25 C243.61,713.45,243.86,713.56,244.15,713.56 C245.01,713.56,245.46,712.71,245.46,711.04 V710.65 C245.46,710.45,245.42,710.36,245.31,710.27 L245.44,710.05 C245.03,708.43,243.93,707.36,242.41,707.1 Z " /></g>    <g
       id="g18689"
       transform="matrix(1.2,0,0,-1.2,-18.465984,1724.2633)"
       xml:space="preserve"
       stroke="black"
       stroke-linecap="butt"
       stroke-linejoin="miter"
       stroke-miterlimit="10.433"
       stroke-dasharray="none"
       stroke-dashoffset="0"
       stroke-opacity="1"
       fill="none"
       fill-rule="evenodd"
       fill-opacity="1"
       font-style="normal"
       font-variant="normal"
       font-weight="normal"
       font-stretch="normal"
       font-size-adjust="none"
       letter-spacing="normal"
       word-spacing="normal"
       text-anchor="start"
       ns0:text="$S=7$ "
       ns0:preamble="/home/sriranga/Desktop/Prism_BasicElectronics/preamble.tex"
       style="font-style:normal;font-variant:normal;font-weight:normal;font-stretch:normal;letter-spacing:normal;word-spacing:normal;text-anchor:start;fill:none;stroke:#000000;stroke-width:1;stroke-linecap:butt;stroke-linejoin:miter;stroke-miterlimit:10.43299961;stroke-opacity:1;stroke-dasharray:none;stroke-dashoffset:0"><path
         d="M228.09,711.77 L228.49,713.75 H228.26 C228.12,713.54,228.03,713.49,227.81,713.49 C227.69,713.49,227.58,713.52,227.35,713.6 C227.13,713.69,226.82,713.74,226.51,713.74 C225.47,713.74,224.74,713.05,224.74,712.08 C224.74,711.55,224.88,711.26,225.48,710.62 C225.57,710.53,225.7,710.39,225.87,710.2 C226.05,710.02,226.19,709.87,226.26,709.79 C226.73,709.3,226.85,709.04,226.85,708.61 C226.85,707.87,226.3,707.29,225.57,707.29 C224.74,707.29,224.12,708,224.12,708.94 C224.12,709.02,224.13,709.1,224.14,709.17 L223.94,709.19 L223.6,706.98 H223.78 C223.85,707.2,223.96,707.3,224.16,707.3 C224.27,707.3,224.42,707.26,224.68,707.17 C225.13,707.01,225.4,706.95,225.71,706.95 C226.85,706.95,227.72,707.81,227.72,708.93 C227.72,709.58,227.49,709.97,226.6,710.87 C225.7,711.77,225.61,711.91,225.61,712.4 C225.61,713.03,226.03,713.41,226.71,713.41 C227.07,713.41,227.38,713.28,227.59,713.05 C227.81,712.8,227.89,712.46,227.91,711.8 Z "
         stroke-width="0"
         fill="black"
         id="path18691" /><polygon
         points="238.47,710.4 238.47,710.96 233.37,710.96 233.37,710.4 "
         stroke-width="0"
         fill="black"
         id="polygon18693" /><polygon
         points="238.47,708.39 238.47,708.94 233.37,708.94 233.37,708.39 "
         stroke-width="0"
         fill="black"
         id="polygon18695" /><path
         d="M246.32,713.7 H242.64 L242.06,712.24 L242.23,712.16 C242.65,712.84,242.83,712.97,243.38,712.97 H245.54 L243.57,707.05 H244.22 L246.32,713.54 Z "
         stroke-width="0"
         fill="black"
         id="path18697" /></g>    <g
       id="g18832"
       transform="matrix(1.2,0,0,-1.2,38.808562,1724.2633)"
       xml:space="preserve"
       stroke-miterlimit="10.433"
       font-style="normal"
       font-variant="normal"
       font-weight="normal"
       font-stretch="normal"
       font-size-adjust="none"
       letter-spacing="normal"
       word-spacing="normal"
       ns0:text="$C=0$ "
       ns0:preamble="/home/sriranga/Desktop/Prism_BasicElectronics/preamble.tex"
       style="font-style:normal;font-variant:normal;font-weight:normal;font-stretch:normal;letter-spacing:normal;word-spacing:normal;text-anchor:start;fill:none;stroke:#000000;stroke-width:1;stroke-linecap:butt;stroke-linejoin:miter;stroke-miterlimit:10.43299961;stroke-opacity:1;stroke-dasharray:none;stroke-dashoffset:0"><path
         d="m 229.67,711.74 0.37,1.98 h -0.21 c -0.08,-0.16 -0.18,-0.22 -0.38,-0.22 -0.08,0 -0.2,0.02 -0.41,0.07 -0.44,0.11 -0.84,0.17 -1.16,0.17 -2.12,0 -4.04,-2 -4.04,-4.2 0,-1.52 1.07,-2.59 2.6,-2.59 1.02,0 1.82,0.43 2.71,1.48 l -0.17,0.14 c -0.89,-0.88 -1.47,-1.18 -2.28,-1.18 -1.11,0 -1.75,0.76 -1.75,2.04 0,1.18 0.48,2.38 1.26,3.19 0.47,0.48 1.1,0.76 1.76,0.76 0.91,0 1.42,-0.53 1.52,-1.61 z"
         id="path18834"
         inkscape:connector-curvature="0"
         style="fill:#000000;stroke-width:0" /><polygon
         points="233.68,710.96 233.68,710.4 238.77,710.4 238.77,710.96 "
         id="polygon18836"
         style="fill:#000000;stroke-width:0" /><polygon
         points="233.68,708.94 233.68,708.39 238.77,708.39 238.77,708.94 "
         id="polygon18838"
         style="fill:#000000;stroke-width:0" /><path
         d="m 244.69,713.84 -0.05,0 -0.05,0 -0.05,0 -0.05,-0.01 -0.04,0 -0.05,-0.01 -0.05,0 -0.04,-0.01 -0.05,-0.01 -0.04,-0.01 -0.05,-0.01 -0.04,-0.01 -0.04,-0.01 -0.05,-0.02 -0.04,-0.01 -0.04,-0.02 -0.04,-0.01 -0.04,-0.02 -0.04,-0.02 -0.04,-0.02 -0.04,-0.02 -0.04,-0.02 -0.03,-0.03 -0.04,-0.02 -0.04,-0.02 -0.04,-0.03 -0.03,-0.03 -0.04,-0.02 -0.03,-0.03 -0.04,-0.03 -0.03,-0.03 -0.04,-0.04 c -0.58,-0.55 -0.95,-1.7 -0.95,-2.86 0,-1.08 0.32,-2.24 0.79,-2.8 0.37,-0.44 0.88,-0.67 1.45,-0.67 v 0.25 c -0.85,0 -1.29,1.07 -1.29,3.13 0,2.11 0.45,3.21 1.3,3.21 h 0 c 0.84,0 1.29,-1.12 1.29,-3.2 0,-2.07 -0.44,-3.14 -1.3,-3.14 v -0.25 c 0.51,0 0.94,0.17 1.3,0.51 0.57,0.55 0.95,1.7 0.95,2.9 0,2.04 -0.9,3.44 -2.21,3.44 z"
         id="path18840"
         inkscape:connector-curvature="0"
         style="fill:#000000;stroke-width:0" /></g>    <g
       style="font-style:normal;font-variant:normal;font-weight:normal;font-stretch:normal;letter-spacing:normal;word-spacing:normal;text-anchor:start;fill:none;stroke:#000000;stroke-width:1;stroke-linecap:butt;stroke-linejoin:miter;stroke-miterlimit:10.43299961;stroke-opacity:1;stroke-dasharray:none;stroke-dashoffset:0"
       ns0:preamble="/home/sriranga/Desktop/Prism_BasicElectronics/preamble.tex"
       ns0:text="$S=D$ "
       text-anchor="start"
       word-spacing="normal"
       letter-spacing="normal"
       font-size-adjust="none"
       font-stretch="normal"
       font-weight="normal"
       font-variant="normal"
       font-style="normal"
       fill-opacity="1"
       fill-rule="evenodd"
       fill="none"
       stroke-opacity="1"
       stroke-dashoffset="0"
       stroke-dasharray="none"
       stroke-miterlimit="10.433"
       stroke-linejoin="miter"
       stroke-linecap="butt"
       stroke="black"
       xml:space="preserve"
       transform="matrix(1.2,0,0,-1.2,84.212767,1724.2633)"
       id="g18972"><path
         id="path18974"
         fill="black"
         stroke-width="0"
         d="M228.09,711.77 L228.49,713.75 H228.26 C228.12,713.54,228.03,713.49,227.81,713.49 C227.69,713.49,227.58,713.52,227.35,713.6 C227.13,713.69,226.82,713.74,226.51,713.74 C225.47,713.74,224.74,713.05,224.74,712.08 C224.74,711.55,224.88,711.26,225.48,710.62 C225.57,710.53,225.7,710.39,225.87,710.2 C226.05,710.02,226.19,709.87,226.26,709.79 C226.73,709.3,226.85,709.04,226.85,708.61 C226.85,707.87,226.3,707.29,225.57,707.29 C224.74,707.29,224.12,708,224.12,708.94 C224.12,709.02,224.13,709.1,224.14,709.17 L223.94,709.19 L223.6,706.98 H223.78 C223.85,707.2,223.96,707.3,224.16,707.3 C224.27,707.3,224.42,707.26,224.68,707.17 C225.13,707.01,225.4,706.95,225.71,706.95 C226.85,706.95,227.72,707.81,227.72,708.93 C227.72,709.58,227.49,709.97,226.6,710.87 C225.7,711.77,225.61,711.91,225.61,712.4 C225.61,713.03,226.03,713.41,226.71,713.41 C227.07,713.41,227.38,713.28,227.59,713.05 C227.81,712.8,227.89,712.46,227.91,711.8 Z " /><polygon
         id="polygon18976"
         fill="black"
         stroke-width="0"
         points="238.47,710.4 238.47,710.96 233.37,710.96 233.37,710.4 " /><polygon
         id="polygon18978"
         fill="black"
         stroke-width="0"
         points="238.47,708.39 238.47,708.94 233.37,708.94 233.37,708.39 " /><path
         id="path18980"
         fill="black"
         stroke-width="0"
         d="M243.4,713.45 L243.43,713.45 L243.46,713.45 L243.48,713.44 L243.51,713.44 L243.54,713.44 L243.56,713.44 L243.61,713.43 L243.66,713.42 L243.7,713.42 L243.74,713.41 L243.78,713.4 L243.82,713.39 L243.85,713.39 L243.88,713.38 L243.91,713.37 L243.94,713.36 L243.97,713.35 L243.99,713.34 L244.01,713.33 L244.03,713.32 L244.05,713.3 L244.07,713.29 L244.09,713.28 L244.1,713.26 L244.11,713.25 L244.12,713.23 L244.13,713.21 L244.14,713.2 L244.15,713.18 L244.15,713.16 L244.16,713.14 L244.16,713.12 L244.16,713.09 L244.17,713.07 L244.17,713.05 C244.17,712.9,244.13,712.66,244.06,712.41 L242.83,708.02 C242.65,707.44,242.59,707.38,242.03,707.28 V707.12 H244.54 L244.45,707.42 C243.99,707.42,243.8,707.53,243.8,707.79 C243.8,707.92,243.85,708.14,244.02,708.73 L245.22,713.03 C245.28,713.24,245.43,713.31,245.83,713.31 C246.4,713.31,246.89,713.18,247.21,712.95 C247.7,712.59,247.97,711.96,247.97,711.18 C247.97,710.1,247.55,708.99,246.87,708.32 C246.29,707.72,245.48,707.42,244.45,707.42 L244.54,707.12 C245.71,707.12,246.77,707.43,247.54,707.99 C248.5,708.69,249.07,709.79,249.07,710.94 C249.07,712.57,247.94,713.61,246.17,713.61 H243.4 Z " /></g>    <g
       style="font-style:normal;font-variant:normal;font-weight:normal;font-stretch:normal;letter-spacing:normal;word-spacing:normal;text-anchor:start;fill:none;stroke:#000000;stroke-width:1;stroke-linecap:butt;stroke-linejoin:miter;stroke-miterlimit:10.43299961;stroke-opacity:1;stroke-dasharray:none;stroke-dashoffset:0"
       ns0:preamble="/home/sriranga/Desktop/Prism_BasicElectronics/preamble.tex"
       ns0:text="$C=0$ "
       word-spacing="normal"
       letter-spacing="normal"
       font-size-adjust="none"
       font-stretch="normal"
       font-weight="normal"
       font-variant="normal"
       font-style="normal"
       stroke-miterlimit="10.433"
       xml:space="preserve"
       transform="matrix(1.2,0,0,-1.2,137.92619,1724.2633)"
       id="g19115"><path
         style="fill:#000000;stroke-width:0"
         inkscape:connector-curvature="0"
         id="path19117"
         d="m 229.67,711.74 0.37,1.98 h -0.21 c -0.08,-0.16 -0.18,-0.22 -0.38,-0.22 -0.08,0 -0.2,0.02 -0.41,0.07 -0.44,0.11 -0.84,0.17 -1.16,0.17 -2.12,0 -4.04,-2 -4.04,-4.2 0,-1.52 1.07,-2.59 2.6,-2.59 1.02,0 1.82,0.43 2.71,1.48 l -0.17,0.14 c -0.89,-0.88 -1.47,-1.18 -2.28,-1.18 -1.11,0 -1.75,0.76 -1.75,2.04 0,1.18 0.48,2.38 1.26,3.19 0.47,0.48 1.1,0.76 1.76,0.76 0.91,0 1.42,-0.53 1.52,-1.61 z" /><polygon
         style="fill:#000000;stroke-width:0"
         id="polygon19119"
         points="238.77,710.96 233.68,710.96 233.68,710.4 238.77,710.4 " /><polygon
         style="fill:#000000;stroke-width:0"
         id="polygon19121"
         points="238.77,708.94 233.68,708.94 233.68,708.39 238.77,708.39 " /><path
         style="fill:#000000;stroke-width:0"
         inkscape:connector-curvature="0"
         id="path19123"
         d="m 244.69,713.84 -0.05,0 -0.05,0 -0.05,0 -0.05,-0.01 -0.04,0 -0.05,-0.01 -0.05,0 -0.04,-0.01 -0.05,-0.01 -0.04,-0.01 -0.05,-0.01 -0.04,-0.01 -0.04,-0.01 -0.05,-0.02 -0.04,-0.01 -0.04,-0.02 -0.04,-0.01 -0.04,-0.02 -0.04,-0.02 -0.04,-0.02 -0.04,-0.02 -0.04,-0.02 -0.03,-0.03 -0.04,-0.02 -0.04,-0.02 -0.04,-0.03 -0.03,-0.03 -0.04,-0.02 -0.03,-0.03 -0.04,-0.03 -0.03,-0.03 -0.04,-0.04 c -0.58,-0.55 -0.95,-1.7 -0.95,-2.86 0,-1.08 0.32,-2.24 0.79,-2.8 0.37,-0.44 0.88,-0.67 1.45,-0.67 v 0.25 c -0.85,0 -1.29,1.07 -1.29,3.13 0,2.11 0.45,3.21 1.3,3.21 h 0 c 0.84,0 1.29,-1.12 1.29,-3.2 0,-2.07 -0.44,-3.14 -1.3,-3.14 v -0.25 c 0.51,0 0.94,0.17 1.3,0.51 0.57,0.55 0.95,1.7 0.95,2.9 0,2.04 -0.9,3.44 -2.21,3.44 z" /></g>    <g
       id="g19255"
       transform="matrix(1.2,0,0,-1.2,179.76928,1724.2633)"
       xml:space="preserve"
       stroke="black"
       stroke-linecap="butt"
       stroke-linejoin="miter"
       stroke-miterlimit="10.433"
       stroke-dasharray="none"
       stroke-dashoffset="0"
       stroke-opacity="1"
       fill="none"
       fill-rule="evenodd"
       fill-opacity="1"
       font-style="normal"
       font-variant="normal"
       font-weight="normal"
       font-stretch="normal"
       font-size-adjust="none"
       letter-spacing="normal"
       word-spacing="normal"
       text-anchor="start"
       ns0:text="$S=8$ "
       ns0:preamble="/home/sriranga/Desktop/Prism_BasicElectronics/preamble.tex"
       style="font-style:normal;font-variant:normal;font-weight:normal;font-stretch:normal;letter-spacing:normal;word-spacing:normal;text-anchor:start;fill:none;stroke:#000000;stroke-width:1;stroke-linecap:butt;stroke-linejoin:miter;stroke-miterlimit:10.43299961;stroke-opacity:1;stroke-dasharray:none;stroke-dashoffset:0"><path
         d="M228.09,711.77 L228.49,713.75 H228.26 C228.12,713.54,228.03,713.49,227.81,713.49 C227.69,713.49,227.58,713.52,227.35,713.6 C227.13,713.69,226.82,713.74,226.51,713.74 C225.47,713.74,224.74,713.05,224.74,712.08 C224.74,711.55,224.88,711.26,225.48,710.62 C225.57,710.53,225.7,710.39,225.87,710.2 C226.05,710.02,226.19,709.87,226.26,709.79 C226.73,709.3,226.85,709.04,226.85,708.61 C226.85,707.87,226.3,707.29,225.57,707.29 C224.74,707.29,224.12,708,224.12,708.94 C224.12,709.02,224.13,709.1,224.14,709.17 L223.94,709.19 L223.6,706.98 H223.78 C223.85,707.2,223.96,707.3,224.16,707.3 C224.27,707.3,224.42,707.26,224.68,707.17 C225.13,707.01,225.4,706.95,225.71,706.95 C226.85,706.95,227.72,707.81,227.72,708.93 C227.72,709.58,227.49,709.97,226.6,710.87 C225.7,711.77,225.61,711.91,225.61,712.4 C225.61,713.03,226.03,713.41,226.71,713.41 C227.07,713.41,227.38,713.28,227.59,713.05 C227.81,712.8,227.89,712.46,227.91,711.8 Z "
         stroke-width="0"
         fill="black"
         id="path19257" /><polygon
         points="238.47,710.4 238.47,710.96 233.37,710.96 233.37,710.4 "
         stroke-width="0"
         fill="black"
         id="polygon19259" /><polygon
         points="238.47,708.39 238.47,708.94 233.37,708.94 233.37,708.39 "
         stroke-width="0"
         fill="black"
         id="polygon19261" /><path
         d="M244.74,710.81 L244.83,710.86 L244.92,710.91 L245,710.96 L245.08,711 L245.16,711.05 L245.23,711.1 L245.3,711.14 L245.37,711.19 L245.43,711.24 L245.49,711.28 L245.54,711.33 L245.6,711.38 L245.65,711.42 L245.69,711.47 L245.74,711.52 L245.78,711.56 L245.82,711.61 L245.85,711.66 L245.88,711.71 L245.91,711.76 L245.94,711.81 L245.97,711.86 L245.99,711.91 L246.01,711.97 L246.02,712.02 L246.04,712.07 L246.05,712.13 L246.06,712.19 L246.07,712.25 L246.07,712.31 L246.08,712.37 L246.08,712.43 C246.08,713.24,245.36,713.84,244.37,713.84 L244.29,713.56 C244.96,713.56,245.39,713.12,245.39,712.44 C245.39,711.87,245.11,711.43,244.54,711.05 C244.49,711.02,244.49,711.02,244.46,710.99 H244.46 C243.57,711.57,243.21,712.02,243.21,712.58 C243.21,713.16,243.66,713.56,244.29,713.56 L244.37,713.84 C243.28,713.84,242.48,713.17,242.48,712.27 C242.48,711.62,242.66,711.34,243.71,710.42 C242.63,709.61,242.41,709.3,242.41,708.62 C242.41,707.66,243.2,706.99,244.32,706.99 L244.43,707.26 C243.68,707.26,243.17,707.84,243.17,708.7 C243.17,709.34,243.39,709.76,243.97,710.22 L244.56,709.79 C245.29,709.27,245.53,708.91,245.53,708.36 C245.53,707.71,245.08,707.26,244.43,707.26 L244.32,706.99 C245.52,706.99,246.29,707.64,246.29,708.66 C246.29,709.43,245.95,709.92,244.74,710.81 Z "
         stroke-width="0"
         fill="black"
         id="path19263" /></g>    <g
       style="font-style:normal;font-variant:normal;font-weight:normal;font-stretch:normal;letter-spacing:normal;word-spacing:normal;text-anchor:start;fill:none;stroke:#000000;stroke-width:1;stroke-linecap:butt;stroke-linejoin:miter;stroke-miterlimit:10.43299961;stroke-opacity:1;stroke-dasharray:none;stroke-dashoffset:0"
       ns0:preamble="/home/sriranga/Desktop/Prism_BasicElectronics/preamble.tex"
       ns0:text="$\\therefore~$ Answer ~ $= (907.D8)_8$"
       text-anchor="start"
       word-spacing="normal"
       letter-spacing="normal"
       font-size-adjust="none"
       font-stretch="normal"
       font-weight="normal"
       font-variant="normal"
       font-style="normal"
       fill-opacity="1"
       fill-rule="evenodd"
       fill="none"
       stroke-opacity="1"
       stroke-dashoffset="0"
       stroke-dasharray="none"
       stroke-miterlimit="10.433"
       stroke-linejoin="miter"
       stroke-linecap="butt"
       stroke="black"
       xml:space="preserve"
       transform="matrix(1.2,0,0,-1.2,-248.75126,1752.1586)"
       id="g19511"><path
         id="path19513"
         fill="black"
         stroke-width="0"
         d="M227.27,711.21 L227.27,711.23 L227.27,711.26 L227.27,711.29 L227.26,711.31 L227.26,711.34 L227.25,711.36 L227.24,711.39 L227.23,711.41 L227.22,711.43 L227.21,711.46 L227.2,711.48 L227.18,711.5 L227.17,711.52 L227.15,711.54 L227.13,711.56 L227.12,711.58 L227.1,711.6 L227.08,711.61 L227.06,711.63 L227.04,711.64 L227.02,711.66 L227,711.67 L226.97,711.68 L226.95,711.69 L226.93,711.7 L226.9,711.71 L226.88,711.72 L226.85,711.72 L226.82,711.73 L226.8,711.73 L226.77,711.73 L226.74,711.73 C226.46,711.73,226.22,711.5,226.22,711.21 C226.22,710.92,226.46,710.68,226.74,710.68 C227.02,710.68,227.27,710.91,227.27,711.21 Z " /><path
         id="path19515"
         fill="black"
         stroke-width="0"
         d="M229.76,706.91 L229.76,706.93 L229.76,706.96 L229.75,706.99 L229.75,707.01 L229.74,707.04 L229.74,707.06 L229.73,707.09 L229.72,707.11 L229.71,707.13 L229.7,707.16 L229.68,707.18 L229.67,707.2 L229.65,707.22 L229.64,707.24 L229.62,707.26 L229.6,707.28 L229.59,707.3 L229.57,707.31 L229.55,707.33 L229.53,707.34 L229.5,707.36 L229.48,707.37 L229.46,707.38 L229.44,707.39 L229.41,707.4 L229.39,707.41 L229.36,707.42 L229.34,707.42 L229.31,707.43 L229.29,707.43 L229.26,707.43 L229.23,707.43 C228.94,707.43,228.71,707.19,228.71,706.91 C228.71,706.62,228.94,706.38,229.23,706.38 C229.52,706.38,229.76,706.62,229.76,706.91 Z " /><path
         id="path19517"
         fill="black"
         stroke-width="0"
         d="M224.79,706.91 L224.78,706.93 L224.78,706.96 L224.78,706.99 L224.77,707.01 L224.77,707.04 L224.76,707.06 L224.75,707.09 L224.74,707.11 L224.73,707.13 L224.72,707.16 L224.71,707.18 L224.69,707.2 L224.68,707.22 L224.66,707.24 L224.65,707.26 L224.63,707.28 L224.61,707.3 L224.59,707.31 L224.57,707.33 L224.55,707.34 L224.53,707.36 L224.51,707.37 L224.49,707.38 L224.46,707.39 L224.44,707.4 L224.41,707.41 L224.39,707.42 L224.36,707.42 L224.34,707.43 L224.31,707.43 L224.28,707.43 L224.26,707.43 C223.97,707.43,223.73,707.19,223.73,706.91 C223.73,706.62,223.97,706.38,224.26,706.38 C224.55,706.38,224.79,706.62,224.79,706.91 Z " /><path
         id="path19519"
         fill="black"
         stroke-width="0"
         d="M244.85,707.31 L244.81,707.32 L244.77,707.32 L244.73,707.32 L244.69,707.33 L244.66,707.34 L244.63,707.34 L244.6,707.35 L244.57,707.36 L244.54,707.37 L244.51,707.38 L244.48,707.39 L244.46,707.41 L244.43,707.42 L244.41,707.44 L244.39,707.46 L244.36,707.48 L244.34,707.51 L244.32,707.53 L244.29,707.56 L244.27,707.59 L244.25,707.62 L244.22,707.66 L244.2,707.7 L244.18,707.74 L244.15,707.78 L244.13,707.83 L244.1,707.88 L244.07,707.93 L244.04,707.99 L244.01,708.05 L244,708.08 L243.98,708.11 L243.97,708.14 L243.95,708.18 L241.47,713.82 H241.27 L239.21,708.94 C238.57,707.49,238.45,707.33,237.97,707.31 V707.12 H239.94 V707.31 C239.46,707.31,239.27,707.44,239.27,707.72 C239.27,707.84,239.29,707.98,239.35,708.11 L239.8,709.27 H242.41 L242.27,709.68 H239.97 L241.12,712.41 L242.27,709.68 L242.41,709.27 L242.82,708.32 C242.94,708.05,243.01,707.79,243.01,707.65 C243.01,707.4,242.84,707.32,242.31,707.31 V707.12 H244.85 Z " /><path
         id="path19521"
         fill="black"
         stroke-width="0"
         d="M245.18,711.08 L245.18,711.08 L245.19,711.08 L245.19,711.09 L245.2,711.09 L245.21,711.09 L245.21,711.09 L245.22,711.1 L245.23,711.1 L245.23,711.1 L245.24,711.1 L245.26,711.1 L245.27,711.11 L245.29,711.11 L245.31,711.11 L245.33,711.11 L245.34,711.11 L245.36,711.12 L245.38,711.12 L245.4,711.12 L245.42,711.12 L245.44,711.12 C245.72,711.12,245.81,710.97,245.81,710.48 V708.02 C245.81,707.45,245.7,707.31,245.2,707.27 V707.12 H247.3 V707.27 C246.8,707.31,246.65,707.43,246.65,707.79 V710.58 C247.12,711.03,247.34,711.15,247.67,711.15 C248.16,711.15,248.4,710.84,248.4,710.18 V708.11 C248.4,707.48,248.27,707.31,247.77,707.27 V707.12 H249.84 V707.27 C249.35,707.32,249.23,707.44,249.23,707.93 V710.2 C249.23,711.14,248.8,711.7,248.06,711.7 C247.6,711.7,247.29,711.53,246.62,710.89 V711.67 L246.55,711.7 C246.06,711.52,245.72,711.41,245.18,711.25 Z " /><path
         id="path19523"
         fill="black"
         stroke-width="0"
         d="M253.13,710.24 L253.09,711.59 H252.98 L252.96,711.58 C252.87,711.51,252.86,711.5,252.82,711.5 C252.76,711.5,252.66,711.52,252.55,711.57 C252.34,711.65,252.12,711.68,251.86,711.68 C251.07,711.68,250.51,711.18,250.51,710.46 C250.51,709.91,250.82,709.51,251.67,709.03 L252.25,708.7 C252.59,708.51,252.76,708.27,252.76,707.96 C252.76,707.52,252.45,707.24,251.94,707.24 C251.6,707.24,251.29,707.37,251.1,707.59 C250.89,707.84,250.8,708.07,250.67,708.64 H250.51 V707.09 H250.64 C250.71,707.18,250.75,707.2,250.87,707.2 C250.96,707.2,251.1,707.18,251.33,707.12 C251.61,707.07,251.88,707.03,252.06,707.03 C252.82,707.03,253.46,707.6,253.46,708.3 C253.46,708.79,253.22,709.12,252.62,709.48 L251.55,710.11 C251.27,710.27,251.12,710.52,251.12,710.79 C251.12,711.19,251.43,711.47,251.89,711.47 C252.46,711.47,252.75,711.13,252.98,710.24 Z " /><path
         id="path19525"
         fill="black"
         stroke-width="0"
         d="M259.55,711.59 V711.45 C259.89,711.38,259.99,711.31,259.99,711.14 C259.99,710.99,259.93,710.75,259.82,710.48 L258.93,708.28 L258.09,710.5 C257.92,710.96,257.92,710.96,257.92,711.09 C257.92,711.31,258.03,711.38,258.5,711.45 V711.59 H256.48 V711.45 C256.85,711.41,256.97,711.3,257.17,710.76 C257.24,710.57,257.3,710.38,257.36,710.2 L256.46,708.23 L255.48,710.82 C255.43,710.92,255.41,711.02,255.41,711.12 C255.41,711.33,255.53,711.41,255.87,711.45 V711.59 H254.08 V711.45 C254.31,711.43,254.39,711.33,254.61,710.82 L255.95,707.42 C256.07,707.12,256.15,706.99,256.21,706.99 C256.26,706.99,256.34,707.11,256.46,707.37 L257.57,709.76 L258.48,707.41 C258.62,707.05,258.66,706.99,258.72,706.99 C258.79,706.99,258.84,707.08,259,707.47 L260.37,710.91 C260.55,711.33,260.58,711.38,260.78,711.45 V711.59 Z " /><path
         id="path19527"
         fill="black"
         stroke-width="0"
         d="M265.12,708.75 L265.08,708.68 L265.04,708.62 L264.99,708.55 L264.95,708.49 L264.9,708.43 L264.86,708.38 L264.82,708.32 L264.77,708.27 L264.73,708.22 L264.68,708.18 L264.64,708.13 L264.6,708.09 L264.55,708.05 L264.51,708.02 L264.46,707.98 L264.41,707.95 L264.37,707.92 L264.32,707.89 L264.27,707.87 L264.22,707.84 L264.18,707.82 L264.13,707.8 L264.08,707.78 L264.03,707.77 L263.97,707.75 L263.92,707.74 L263.87,707.73 L263.81,707.72 L263.76,707.72 L263.7,707.71 L263.64,707.71 L263.58,707.71 C263.02,707.71,262.59,708,262.3,708.57 C262.12,708.94,262.05,709.27,262.03,709.88 L262.05,710.2 C262.16,710.97,262.5,711.34,263.11,711.34 C263.71,711.34,263.95,711.06,264.08,710.2 H262.05 L262.03,709.88 H265.1 C265.02,710.52,264.92,710.81,264.67,711.13 C264.37,711.49,263.91,711.7,263.39,711.7 C262.9,711.7,262.43,711.52,262.05,711.18 C261.58,710.77,261.31,710.07,261.31,709.25 C261.31,707.88,262.03,707.03,263.17,707.03 C264.12,707.03,264.87,707.61,265.28,708.68 Z " /><path
         id="path19529"
         fill="black"
         stroke-width="0"
         d="M265.56,711 L265.57,711 L265.58,711 L265.6,711.01 L265.61,711.01 L265.63,711.01 L265.66,711.02 L265.68,711.02 L265.7,711.02 L265.72,711.03 L265.74,711.03 L265.76,711.03 L265.78,711.03 L265.8,711.04 L265.82,711.04 L265.84,711.04 L265.86,711.04 L265.89,711.04 L265.91,711.04 C266.16,711.04,266.24,710.88,266.24,710.44 V707.96 C266.24,707.46,266.18,707.39,265.54,707.27 V707.12 H267.93 V707.27 C267.25,707.3,267.08,707.45,267.08,708.02 V710.25 C267.08,710.57,267.51,711.07,267.78,711.07 C267.84,711.07,267.93,711.02,268.04,710.92 C268.2,710.78,268.3,710.72,268.43,710.72 C268.67,710.72,268.82,710.89,268.82,711.17 C268.82,711.5,268.61,711.7,268.27,711.7 C267.86,711.7,267.57,711.47,267.08,710.76 V711.67 L267.03,711.7 C266.5,711.48,266.15,711.35,265.56,711.16 Z " /><polygon
         id="polygon19531"
         fill="black"
         stroke-width="0"
         points="281.99,710.4 281.99,710.96 276.89,710.96 276.89,710.4 " /><polygon
         id="polygon19533"
         fill="black"
         stroke-width="0"
         points="281.99,708.39 281.99,708.94 276.89,708.94 276.89,708.39 " /><path
         id="path19535"
         fill="black"
         stroke-width="0"
         d="M288.32,713.84 L288.25,713.8 L288.18,713.75 L288.12,713.71 L288.06,713.67 L288,713.63 L287.95,713.59 L287.89,713.55 L287.84,713.52 L287.79,713.48 L287.74,713.44 L287.69,713.41 L287.65,713.37 L287.6,713.34 L287.56,713.3 L287.48,713.24 L287.4,713.17 L287.33,713.1 L287.25,713.03 L287.18,712.96 L287.12,712.89 L287.05,712.81 L286.98,712.73 L286.91,712.65 C286.21,711.78,285.86,710.79,285.86,709.63 C285.86,708.37,286.23,707.39,287.1,706.38 C287.51,705.9,287.77,705.68,288.29,705.37 L288.41,705.53 C287.61,706.15,287.33,706.5,287.06,707.24 C286.83,707.91,286.71,708.66,286.71,709.66 C286.71,710.7,286.85,711.52,287.11,712.13 C287.39,712.75,287.69,713.1,288.41,713.68 Z " /><path
         id="path19537"
         fill="black"
         stroke-width="0"
         d="M289.29,706.91 L289.39,706.92 L289.49,706.93 L289.59,706.94 L289.68,706.96 L289.77,706.97 L289.86,706.99 L289.94,707 L290.03,707.02 L290.11,707.03 L290.19,707.05 L290.26,707.07 L290.34,707.09 L290.41,707.11 L290.48,707.13 L290.62,707.17 L290.75,707.22 L290.88,707.28 L291.01,707.33 L291.13,707.4 L291.25,707.47 L291.38,707.54 L291.5,707.62 L291.56,707.67 L291.62,707.71 C292.66,708.47,293.27,709.7,293.27,711.04 C293.27,712.68,292.35,713.84,291.07,713.84 C289.88,713.84,289,712.84,289,711.5 C289,710.28,289.71,709.48,290.79,709.48 C291.34,709.48,291.75,709.64,292.28,710.05 L292.15,710.27 C291.87,710.04,291.51,709.91,291.15,709.91 C290.39,709.91,289.91,710.65,289.91,711.83 C289.91,712.4,290.07,713,290.28,713.25 C290.45,713.45,290.7,713.56,290.99,713.56 C291.85,713.56,292.3,712.71,292.3,711.04 V710.65 C292.3,710.45,292.26,710.36,292.15,710.27 L292.28,710.05 C291.87,708.43,290.77,707.36,289.26,707.1 Z " /><path
         id="path19539"
         fill="black"
         stroke-width="0"
         d="M296.21,713.84 L296.16,713.84 L296.11,713.84 L296.06,713.84 L296.01,713.83 L295.96,713.83 L295.91,713.82 L295.87,713.82 L295.82,713.81 L295.78,713.8 L295.73,713.79 L295.69,713.78 L295.64,713.77 L295.6,713.76 L295.56,713.74 L295.52,713.73 L295.47,713.71 L295.43,713.7 L295.39,713.68 L295.35,713.66 L295.31,713.64 L295.28,713.62 L295.24,713.6 L295.2,713.57 L295.16,713.55 L295.12,713.53 L295.09,713.5 L295.05,713.47 L295.02,713.45 L294.98,713.42 L294.94,713.39 L294.91,713.36 L294.88,713.32 C294.3,712.77,293.92,711.62,293.92,710.46 C293.92,709.38,294.25,708.22,294.72,707.66 C295.08,707.22,295.59,706.99,296.17,706.99 V707.24 C295.31,707.24,294.88,708.31,294.88,710.37 C294.88,712.48,295.32,713.58,296.18,713.58 H296.18 C297.01,713.58,297.46,712.46,297.46,710.38 C297.46,708.31,297.02,707.24,296.17,707.24 V706.99 C296.68,706.99,297.1,707.16,297.46,707.5 C298.04,708.05,298.42,709.2,298.42,710.4 C298.42,712.44,297.51,713.84,296.21,713.84 Z " /><path
         id="path19541"
         fill="black"
         stroke-width="0"
         d="M303.13,713.7 H299.45 L298.86,712.24 L299.03,712.16 C299.46,712.84,299.64,712.97,300.18,712.97 H302.34 L300.37,707.05 H301.02 L303.13,713.54 Z " /><path
         id="path19543"
         fill="black"
         stroke-width="0"
         d="M305.44,707.55 L305.44,707.58 L305.44,707.61 L305.44,707.64 L305.43,707.66 L305.43,707.69 L305.42,707.72 L305.41,707.74 L305.4,707.77 L305.39,707.8 L305.37,707.82 L305.36,707.84 L305.35,707.87 L305.33,707.89 L305.31,707.91 L305.3,707.93 L305.28,707.95 L305.26,707.97 L305.24,707.99 L305.22,708 L305.19,708.02 L305.17,708.03 L305.15,708.05 L305.12,708.06 L305.1,708.07 L305.07,708.08 L305.05,708.09 L305.02,708.1 L305,708.11 L304.97,708.11 L304.94,708.12 L304.91,708.12 L304.89,708.12 C304.59,708.12,304.34,707.87,304.34,707.55 C304.34,707.17,304.68,707.02,304.89,707.02 C305.1,707.02,305.44,707.18,305.44,707.55 Z " /><path
         id="path19545"
         fill="black"
         stroke-width="0"
         d="M307.68,713.45 L307.7,713.45 L307.73,713.45 L307.76,713.44 L307.79,713.44 L307.81,713.44 L307.84,713.44 L307.89,713.43 L307.93,713.42 L307.98,713.42 L308.02,713.41 L308.06,713.4 L308.09,713.39 L308.13,713.39 L308.16,713.38 L308.19,713.37 L308.22,713.36 L308.24,713.35 L308.27,713.34 L308.29,713.33 L308.31,713.32 L308.33,713.3 L308.35,713.29 L308.36,713.28 L308.38,713.26 L308.39,713.25 L308.4,713.23 L308.41,713.21 L308.42,713.2 L308.42,713.18 L308.43,713.16 L308.43,713.14 L308.44,713.12 L308.44,713.09 L308.44,713.07 L308.44,713.05 C308.44,712.9,308.4,712.66,308.33,712.41 L307.11,708.02 C306.93,707.44,306.86,707.38,306.3,707.28 V707.12 H308.82 L308.72,707.42 C308.26,707.42,308.07,707.53,308.07,707.79 C308.07,707.92,308.12,708.14,308.29,708.73 L309.5,713.03 C309.56,713.24,309.71,713.31,310.1,713.31 C310.67,713.31,311.17,713.18,311.49,712.95 C311.97,712.59,312.24,711.96,312.24,711.18 C312.24,710.1,311.83,708.99,311.15,708.32 C310.56,707.72,309.76,707.42,308.72,707.42 L308.82,707.12 C309.98,707.12,311.05,707.43,311.82,707.99 C312.78,708.69,313.35,709.79,313.35,710.94 C313.35,712.57,312.21,713.61,310.44,713.61 H307.68 Z " /><path
         id="path19547"
         fill="black"
         stroke-width="0"
         d="M316.46,710.81 L316.55,710.86 L316.64,710.91 L316.72,710.96 L316.8,711 L316.88,711.05 L316.95,711.1 L317.02,711.14 L317.08,711.19 L317.15,711.24 L317.21,711.28 L317.26,711.33 L317.32,711.38 L317.37,711.42 L317.41,711.47 L317.46,711.52 L317.5,711.56 L317.53,711.61 L317.57,711.66 L317.6,711.71 L317.63,711.76 L317.66,711.81 L317.68,711.86 L317.7,711.91 L317.72,711.97 L317.74,712.02 L317.76,712.07 L317.77,712.13 L317.78,712.19 L317.78,712.25 L317.79,712.31 L317.79,712.37 L317.79,712.43 C317.79,713.24,317.08,713.84,316.08,713.84 L316,713.56 C316.68,713.56,317.11,713.12,317.11,712.44 C317.11,711.87,316.83,711.43,316.26,711.05 C316.21,711.02,316.21,711.02,316.17,710.99 H316.17 C315.29,711.57,314.93,712.02,314.93,712.58 C314.93,713.16,315.38,713.56,316,713.56 L316.08,713.84 C315,713.84,314.19,713.17,314.19,712.27 C314.19,711.62,314.38,711.34,315.43,710.42 C314.35,709.61,314.13,709.3,314.13,708.62 C314.13,707.66,314.92,706.99,316.04,706.99 L316.15,707.26 C315.4,707.26,314.89,707.84,314.89,708.7 C314.89,709.34,315.11,709.76,315.68,710.22 L316.28,709.79 C317.01,709.27,317.25,708.91,317.25,708.36 C317.25,707.71,316.8,707.26,316.15,707.26 L316.04,706.99 C317.24,706.99,318,707.64,318,708.66 C318,709.43,317.67,709.92,316.46,710.81 Z " /><path
         id="path19549"
         fill="black"
         stroke-width="0"
         d="M318.93,705.37 L319,705.41 L319.07,705.45 L319.13,705.5 L319.19,705.54 L319.25,705.58 L319.31,705.61 L319.36,705.65 L319.41,705.69 L319.46,705.73 L319.51,705.76 L319.56,705.8 L319.61,705.83 L319.65,705.87 L319.69,705.9 L319.77,705.97 L319.85,706.04 L319.93,706.11 L320,706.18 L320.07,706.25 L320.14,706.32 L320.2,706.4 L320.27,706.48 L320.34,706.56 C321.05,707.42,321.39,708.42,321.39,709.58 C321.39,710.85,321.02,711.81,320.15,712.83 C319.74,713.3,319.48,713.52,318.96,713.84 L318.85,713.68 C319.64,713.05,319.91,712.71,320.19,711.96 C320.43,711.3,320.54,710.54,320.54,709.55 C320.54,708.52,320.41,707.69,320.14,707.09 C319.86,706.46,319.56,706.1,318.85,705.53 Z " /><path
         id="path19551"
         fill="black"
         stroke-width="0"
         d="M323.89,708.21 L323.96,708.25 L324.02,708.28 L324.08,708.31 L324.13,708.35 L324.19,708.38 L324.24,708.41 L324.29,708.44 L324.33,708.48 L324.38,708.51 L324.42,708.54 L324.46,708.57 L324.49,708.61 L324.53,708.64 L324.56,708.67 L324.59,708.7 L324.62,708.74 L324.65,708.77 L324.67,708.81 L324.69,708.84 L324.71,708.87 L324.73,708.91 L324.75,708.95 L324.77,708.98 L324.78,709.02 L324.79,709.06 L324.8,709.1 L324.81,709.13 L324.82,709.17 L324.82,709.22 L324.83,709.26 L324.83,709.3 L324.83,709.34 C324.83,709.91,324.33,710.33,323.63,710.33 L323.57,710.14 C324.05,710.14,324.35,709.83,324.35,709.35 C324.35,708.96,324.15,708.64,323.76,708.38 C323.72,708.36,323.72,708.36,323.69,708.34 H323.69 C323.07,708.74,322.82,709.06,322.82,709.45 C322.82,709.85,323.14,710.14,323.57,710.14 L323.63,710.33 C322.87,710.33,322.31,709.87,322.31,709.23 C322.31,708.78,322.44,708.58,323.17,707.94 C322.42,707.37,322.27,707.15,322.27,706.68 C322.27,706.01,322.82,705.53,323.6,705.53 L323.68,705.73 C323.15,705.73,322.79,706.13,322.79,706.74 C322.79,707.18,322.95,707.47,323.35,707.8 L323.77,707.49 C324.28,707.13,324.45,706.88,324.45,706.49 C324.45,706.04,324.13,705.73,323.68,705.73 L323.6,705.53 C324.44,705.53,324.97,705.99,324.97,706.71 C324.97,707.24,324.74,707.59,323.89,708.21 Z " /></g>  </g>
</svg>
