<?xml version="1.0" encoding="UTF-8" standalone="no"?>
<!-- Created with Inkscape (http://www.inkscape.org/) -->

<svg
   xmlns:ns0="http://www.iki.fi/pav/software/textext/"
   xmlns:dc="http://purl.org/dc/elements/1.1/"
   xmlns:cc="http://creativecommons.org/ns#"
   xmlns:rdf="http://www.w3.org/1999/02/22-rdf-syntax-ns#"
   xmlns:svg="http://www.w3.org/2000/svg"
   xmlns="http://www.w3.org/2000/svg"
   xmlns:sodipodi="http://sodipodi.sourceforge.net/DTD/sodipodi-0.dtd"
   xmlns:inkscape="http://www.inkscape.org/namespaces/inkscape"
   width="496.06299"
   height="354.33069"
   id="svg2"
   version="1.1"
   inkscape:version="0.48.4 r9939"
   sodipodi:docname="div45.eps">
  <sodipodi:namedview
     id="base"
     pagecolor="#ffffff"
     bordercolor="#666666"
     borderopacity="1.0"
     inkscape:pageopacity="0.0"
     inkscape:pageshadow="2"
     inkscape:zoom="1.6848668"
     inkscape:cx="148.38209"
     inkscape:cy="173.61087"
     inkscape:document-units="cm"
     inkscape:current-layer="layer1"
     showgrid="false"
     units="cm"
     inkscape:object-nodes="true"
     inkscape:window-width="1366"
     inkscape:window-height="744"
     inkscape:window-x="0"
     inkscape:window-y="24"
     inkscape:window-maximized="1">
    <inkscape:grid
       snapvisiblegridlinesonly="true"
       enabled="true"
       visible="true"
       empspacing="5"
       id="grid2985"
       type="xygrid" />
  </sodipodi:namedview>
  <defs
     id="defs4">
    <marker
       style="overflow:visible"
       id="Arrow1Mstart"
       refX="0"
       refY="0"
       orient="auto"
       inkscape:stockid="Arrow1Mstart">
      <path
         transform="matrix(0.4,0,0,0.4,4,0)"
         style="fill-rule:evenodd;stroke:#000000;stroke-width:1pt"
         d="M 0,0 5,-5 -12.5,0 5,5 0,0 z"
         id="path3775"
         inkscape:connector-curvature="0" />
    </marker>
    <marker
       style="overflow:visible"
       id="Arrow1Mend"
       refX="0"
       refY="0"
       orient="auto"
       inkscape:stockid="Arrow1Mend">
      <path
         transform="matrix(-0.4,0,0,-0.4,-4,0)"
         style="fill-rule:evenodd;stroke:#000000;stroke-width:1pt"
         d="M 0,0 5,-5 -12.5,0 5,5 0,0 z"
         id="path3778"
         inkscape:connector-curvature="0" />
    </marker>
    <marker
       inkscape:stockid="Arrow1Mstart"
       orient="auto"
       refY="0"
       refX="0"
       id="Arrow1Mstart-7"
       style="overflow:visible">
      <path
         inkscape:connector-curvature="0"
         id="path3775-8"
         d="M 0,0 5,-5 -12.5,0 5,5 0,0 z"
         style="fill-rule:evenodd;stroke:#000000;stroke-width:1pt"
         transform="matrix(0.4,0,0,0.4,4,0)" />
    </marker>
  </defs>
  <metadata
     id="metadata7">
    <rdf:RDF>
      <cc:Work
         rdf:about="">
        <dc:format>image/svg+xml</dc:format>
        <dc:type
           rdf:resource="http://purl.org/dc/dcmitype/StillImage" />
        <dc:title></dc:title>
      </cc:Work>
    </rdf:RDF>
  </metadata>
  <g
     transform="translate(0,-698.03016)"
     id="layer1"
     inkscape:groupmode="layer"
     inkscape:label="Layer 1">
    <text
       xml:space="preserve"
       style="font-size:12px;font-style:normal;font-variant:normal;font-weight:normal;font-stretch:normal;text-align:start;line-height:100%;letter-spacing:0px;word-spacing:0px;text-anchor:start;fill:#000000;fill-opacity:1;stroke:none;font-family:LMRoman12;-inkscape-font-specification:Sans"
       x="61.700558"
       y="754.07056"
       id="text5818"
       sodipodi:linespacing="100%"><tspan
         sodipodi:role="line"
         id="tspan5820"
         x="61.700558"
         y="754.07056" /></text>
    <flowRoot
       style="font-size:12px;font-style:normal;font-variant:normal;font-weight:normal;font-stretch:normal;text-align:start;line-height:100%;letter-spacing:0px;word-spacing:0px;text-anchor:start;fill:#000000;fill-opacity:1;stroke:none;font-family:LMRoman12;-inkscape-font-specification:Sans"
       id="flowRoot6377"
       xml:space="preserve"><flowRegion
         id="flowRegion6379"><rect
           y="87.141403"
           x="219.34796"
           height="40.319103"
           width="27.681772"
           id="rect6381" /></flowRegion><flowPara
         id="flowPara6383" /></flowRoot>    <text
       sodipodi:linespacing="50%"
       id="text6385"
       y="753.27734"
       x="275.91507"
       style="font-size:12px;font-style:normal;font-variant:normal;font-weight:normal;font-stretch:normal;text-align:start;line-height:50%;letter-spacing:0px;word-spacing:0px;text-anchor:start;fill:#000000;fill-opacity:1;stroke:none;font-family:LMRoman12;-inkscape-font-specification:Sans"
       xml:space="preserve"><tspan
         y="753.27734"
         x="275.91507"
         id="tspan6387"
         sodipodi:role="line" /></text>
    <text
       sodipodi:linespacing="100%"
       id="text3884"
       y="892.41718"
       x="348.65417"
       style="font-size:12px;font-style:normal;font-variant:normal;font-weight:normal;font-stretch:normal;text-align:start;line-height:100%;letter-spacing:0px;word-spacing:0px;text-anchor:start;fill:#000000;fill-opacity:1;stroke:none;font-family:LMRoman12;-inkscape-font-specification:Sans"
       xml:space="preserve"><tspan
         id="tspan3890"
         y="892.41718"
         x="348.65417"
         sodipodi:role="line" /></text>
    <text
       sodipodi:linespacing="150%"
       id="text3887"
       y="948.92749"
       x="216.96629"
       style="font-size:12px;font-style:normal;font-variant:normal;font-weight:normal;font-stretch:normal;text-align:start;line-height:150%;letter-spacing:0px;word-spacing:0px;text-anchor:start;fill:#000000;fill-opacity:1;stroke:none;font-family:LMRoman12;-inkscape-font-specification:Sans"
       xml:space="preserve"><tspan
         y="948.92749"
         x="216.96629"
         id="tspan3889"
         sodipodi:role="line" /></text>
    <text
       sodipodi:linespacing="150%"
       id="text7389"
       y="759.11084"
       x="173"
       style="font-size:12px;font-style:normal;font-variant:normal;font-weight:normal;font-stretch:normal;text-align:start;line-height:150%;letter-spacing:0px;word-spacing:0px;text-anchor:start;fill:#000000;fill-opacity:1;stroke:none;font-family:LMRoman12;-inkscape-font-specification:Sans"
       xml:space="preserve"><tspan
         y="759.11084"
         x="173"
         id="tspan7391"
         sodipodi:role="line" /></text>
    <text
       sodipodi:linespacing="150%"
       id="text11589"
       y="799.88568"
       x="262.90411"
       style="font-size:12px;font-style:normal;font-variant:normal;font-weight:normal;font-stretch:normal;text-align:start;line-height:150%;letter-spacing:0px;word-spacing:0px;text-anchor:start;fill:#000000;fill-opacity:1;stroke:none;font-family:LMRoman12;-inkscape-font-specification:Sans"
       xml:space="preserve"><tspan
         y="799.88568"
         x="262.90411"
         sodipodi:role="line"
         id="tspan9770"><tspan
           dx="0 0 0"
           id="tspan3456">1  0 1 0 0 0 0</tspan></tspan></text>
    <text
       xml:space="preserve"
       style="font-size:12px;font-style:normal;font-variant:normal;font-weight:normal;font-stretch:normal;text-align:start;line-height:150%;letter-spacing:0px;word-spacing:0px;text-anchor:start;fill:#000000;fill-opacity:1;stroke:none;font-family:LMRoman12;-inkscape-font-specification:Sans"
       x="253.59845"
       y="821.77625"
       id="text12764"
       sodipodi:linespacing="150%"><tspan
         dx="0 0 0 1.4775442"
         sodipodi:role="line"
         id="tspan12766"
         x="253.59845"
         y="821.77625">   0 0 0 0 1 0 0</tspan><tspan
         sodipodi:role="line"
         x="253.59845"
         y="839.77625"
         id="tspan12770">+ 1 0 1 0 0 0 0</tspan></text>
    <text
       transform="translate(0,698.03016)"
       sodipodi:linespacing="150%"
       id="text12776"
       y="185.47461"
       x="347.50522"
       style="font-size:12px;font-style:normal;font-variant:normal;font-weight:normal;font-stretch:normal;text-align:start;line-height:150%;letter-spacing:0px;word-spacing:0px;text-anchor:start;fill:#000000;fill-opacity:1;stroke:none;font-family:LMRoman12;-inkscape-font-specification:Sans"
       xml:space="preserve"><tspan
         y="185.47461"
         x="347.50522"
         id="tspan12778"
         sodipodi:role="line" /></text>
    <path
       inkscape:connector-curvature="0"
       id="path12780"
       d="m 252.47651,845.97937 84.18504,0"
       style="fill:none;stroke:#000000;stroke-width:0.80000001;stroke-linecap:square;stroke-linejoin:round;stroke-miterlimit:4;stroke-opacity:1;stroke-dasharray:none;stroke-dashoffset:0" />
    <text
       xml:space="preserve"
       style="font-size:12px;font-style:normal;font-variant:normal;font-weight:normal;font-stretch:normal;text-align:start;line-height:150%;letter-spacing:0px;word-spacing:0px;text-anchor:start;fill:#000000;fill-opacity:1;stroke:none;font-family:LMRoman12;-inkscape-font-specification:Sans"
       x="266.31137"
       y="857.66522"
       id="text12782"
       sodipodi:linespacing="150%"><tspan
         sodipodi:role="line"
         x="266.31137"
         y="857.66522"
         id="tspan12786">1 0 1 0 1 0 0 </tspan><tspan
         sodipodi:role="line"
         x="266.31137"
         y="875.66522"
         id="tspan12788" /></text>
    <text
       xml:space="preserve"
       style="font-size:12px;font-style:normal;font-variant:normal;font-weight:normal;font-stretch:normal;text-align:start;line-height:150%;letter-spacing:0px;word-spacing:0px;text-anchor:start;fill:#000000;fill-opacity:1;stroke:none;font-family:LMRoman12;-inkscape-font-specification:Sans"
       x="142.63788"
       y="877.72192"
       id="text12981"
       sodipodi:linespacing="150%"><tspan
         sodipodi:role="line"
         id="tspan12983"
         x="142.63788"
         y="877.72192">No carry 2'nd complement</tspan></text>
    <path
       sodipodi:nodetypes="cc"
       inkscape:connector-curvature="0"
       id="path14827"
       d="m 299.32408,863.7116 0,19.64167"
       style="fill:none;stroke:#000000;stroke-width:0.80000001;stroke-linecap:square;stroke-linejoin:round;stroke-miterlimit:4;stroke-opacity:1;stroke-dasharray:none;stroke-dashoffset:0;marker-start:none;marker-end:url(#Arrow1Mend)" />
    <text
       sodipodi:linespacing="150%"
       id="text3772"
       y="897.10529"
       x="266.31137"
       style="font-size:12px;font-style:normal;font-variant:normal;font-weight:normal;font-stretch:normal;text-align:start;line-height:150%;letter-spacing:0px;word-spacing:0px;text-anchor:start;fill:#000000;fill-opacity:1;stroke:none;font-family:LMRoman12;-inkscape-font-specification:Sans"
       xml:space="preserve"><tspan
         id="tspan3774"
         y="897.10529"
         x="266.31137"
         sodipodi:role="line">0 1 0 1 1 0 0 </tspan><tspan
         id="tspan3776"
         y="915.10529"
         x="266.31137"
         sodipodi:role="line" /></text>
    <g
       style="font-style:normal;font-variant:normal;font-weight:normal;font-stretch:normal;letter-spacing:normal;word-spacing:normal;text-anchor:start;fill:none;stroke:#000000;stroke-width:1;stroke-linecap:butt;stroke-linejoin:miter;stroke-miterlimit:10.43299961;stroke-opacity:1;stroke-dasharray:none;stroke-dashoffset:0"
       ns0:preamble="/home/sriranga/Desktop/Prism_BasicElectronics/preamble.tex"
       ns0:text="\\begin{align*}\n\\text{2\'nd complement representation of} -110000 &amp; =\n\\end{align*}"
       word-spacing="normal"
       letter-spacing="normal"
       font-size-adjust="none"
       font-stretch="normal"
       font-weight="normal"
       font-variant="normal"
       font-style="normal"
       stroke-miterlimit="10.433"
       xml:space="preserve"
       transform="matrix(1.2,0,0,-1.2,-345.94996,1646.1017)"
       id="g14788"><path
         id="path14790"
         d="m 305.27,708.49 -0.13,0.05 c -0.37,-0.57 -0.49,-0.66 -0.94,-0.66 h -2.38 l 1.67,1.75 c 0.89,0.92 1.28,1.68 1.28,2.45 0,1 -0.81,1.76 -1.85,1.76 -0.54,0 -1.06,-0.22 -1.43,-0.62 -0.32,-0.33 -0.47,-0.65 -0.63,-1.36 l 0.2,-0.05 c 0.4,0.98 0.76,1.29 1.45,1.29 0.83,0 1.4,-0.56 1.4,-1.39 0,-0.78 -0.46,-1.7 -1.29,-2.59 l -1.77,-1.88 v -0.12 h 3.88 z"
         inkscape:connector-curvature="0"
         style="fill:#000000;stroke-width:0" /><path
         id="path14792"
         d="m 306.58,711.43 0.06,0.03 0.07,0.03 0.05,0.04 0.06,0.03 0.06,0.04 0.05,0.04 0.06,0.04 0.05,0.04 0.05,0.04 0.05,0.05 0.04,0.04 0.05,0.05 0.04,0.04 0.04,0.05 0.04,0.05 0.04,0.05 0.04,0.05 0.03,0.05 0.03,0.05 0.03,0.06 0.03,0.05 0.02,0.05 0.03,0.06 0.02,0.05 0.02,0.06 0.01,0.05 0.02,0.06 0.01,0.05 0.01,0.06 0,0.05 0.01,0.06 0,0.06 c 0,0.49 -0.35,0.88 -0.8,0.88 -0.35,0 -0.59,-0.23 -0.59,-0.57 0,-0.31 0.23,-0.5 0.59,-0.5 0.06,0 0.13,0.01 0.19,0.02 0.07,0.02 0.07,0.02 0.08,0.02 0.08,0 0.14,-0.06 0.14,-0.14 0,-0.33 -0.28,-0.69 -0.82,-1.06 z"
         inkscape:connector-curvature="0"
         style="fill:#000000;stroke-width:0" /><path
         id="path14794"
         d="m 309.01,711.08 0,0 0.01,0 0,0.01 0.01,0 0.01,0 0,0 0.01,0.01 0.01,0 0,0 0.01,0 0.02,0 0.01,0.01 0.02,0 0.02,0 0.02,0 0.01,0 0.02,0.01 0.02,0 0.02,0 0.02,0 0.02,0 c 0.28,0 0.37,-0.15 0.37,-0.64 v -2.46 c 0,-0.57 -0.11,-0.71 -0.62,-0.75 v -0.15 h 2.11 v 0.15 c -0.5,0.04 -0.65,0.16 -0.65,0.52 v 2.79 c 0.47,0.45 0.69,0.57 1.02,0.57 0.49,0 0.73,-0.31 0.73,-0.97 v -2.07 c 0,-0.63 -0.13,-0.8 -0.63,-0.84 v -0.15 h 2.07 v 0.15 c -0.49,0.05 -0.61,0.17 -0.61,0.66 v 2.27 c 0,0.94 -0.43,1.5 -1.17,1.5 -0.46,0 -0.77,-0.17 -1.44,-0.81 v 0.78 l -0.07,0.03 c -0.49,-0.18 -0.83,-0.29 -1.37,-0.45 z"
         inkscape:connector-curvature="0"
         style="fill:#000000;stroke-width:0" /><path
         id="path14796"
         d="m 317.25,707.03 1.46,0.51 v 0.16 c -0.18,-0.01 -0.2,-0.01 -0.23,-0.01 -0.36,0 -0.43,0.11 -0.43,0.57 v 5.63 l -0.05,0.02 c -0.48,-0.17 -0.83,-0.27 -1.47,-0.44 v -0.16 c 0.08,0.01 0.14,0.01 0.22,0.01 0.37,0 0.46,-0.1 0.46,-0.5 v -1.55 c -0.38,0.32 -0.65,0.43 -1.04,0.43 -1.15,0 -2.07,-1.13 -2.07,-2.54 0,-1.27 0.74,-2.13 1.84,-2.13 0.55,0 0.93,0.19 1.27,0.66 l -0.17,0.15 c -0.18,-0.2 -0.43,-0.3 -0.72,-0.3 -0.82,0 -1.37,0.8 -1.37,2.02 0,1.12 0.49,1.86 1.25,1.86 0.52,0 1.01,-0.47 1.01,-1 v -2.28 c 0,-0.07 -0.07,-0.19 -0.17,-0.3 l 0.17,-0.15 v -0.64 z"
         inkscape:connector-curvature="0"
         style="fill:#000000;stroke-width:0" /><path
         id="path14798"
         d="m 325.26,708.67 -0.05,-0.06 -0.04,-0.06 -0.04,-0.06 -0.05,-0.05 -0.04,-0.06 -0.04,-0.05 -0.04,-0.05 -0.04,-0.04 -0.04,-0.05 -0.04,-0.04 -0.04,-0.04 -0.05,-0.04 -0.04,-0.03 -0.04,-0.03 -0.04,-0.03 -0.04,-0.03 -0.04,-0.03 -0.04,-0.02 -0.04,-0.03 -0.05,-0.02 -0.04,-0.02 -0.04,-0.01 -0.05,-0.02 -0.04,-0.01 -0.05,-0.01 -0.04,-0.01 -0.05,-0.01 -0.05,-0.01 -0.05,0 -0.05,-0.01 -0.05,0 -0.05,0 c -0.91,0 -1.55,0.8 -1.55,1.94 0,1.02 0.55,1.73 1.36,1.73 0.35,0 0.48,-0.11 0.58,-0.48 l 0.06,-0.22 c 0.08,-0.28 0.26,-0.46 0.47,-0.46 0.26,0 0.48,0.19 0.48,0.42 0,0.56 -0.7,1.03 -1.53,1.03 -0.49,0 -1,-0.2 -1.41,-0.56 -0.49,-0.44 -0.77,-1.11 -0.77,-1.9 0,-1.29 0.78,-2.21 1.89,-2.21 0.45,0 0.84,0.15 1.2,0.46 0.27,0.24 0.46,0.51 0.76,1.1 z"
         inkscape:connector-curvature="0"
         style="fill:#000000;stroke-width:0" /><path
         id="path14800"
         d="m 328.21,711.7 -0.12,-0.01 -0.12,-0.01 -0.11,-0.01 -0.12,-0.02 -0.11,-0.02 -0.1,-0.03 -0.11,-0.04 -0.1,-0.04 -0.1,-0.04 -0.09,-0.05 -0.1,-0.05 -0.08,-0.06 -0.09,-0.06 -0.08,-0.07 -0.08,-0.07 -0.07,-0.07 -0.08,-0.08 -0.06,-0.08 -0.07,-0.09 -0.05,-0.09 -0.06,-0.1 -0.05,-0.09 -0.05,-0.1 -0.04,-0.11 -0.03,-0.11 -0.04,-0.11 -0.02,-0.11 -0.03,-0.12 -0.02,-0.12 -0.01,-0.12 -0.01,-0.12 0,-0.13 c 0,-1.34 0.93,-2.34 2.18,-2.34 l 0.12,0.27 c -0.39,0 -0.76,0.24 -0.97,0.64 -0.27,0.52 -0.43,1.21 -0.43,1.92 0,0.94 0.46,1.56 1.17,1.56 h 0 c 0.84,0 1.42,-0.96 1.42,-2.32 0,-1.12 -0.45,-1.8 -1.19,-1.8 l -0.12,-0.27 c 1.25,0 2.21,1.05 2.21,2.42 0,1.3 -0.92,2.25 -2.19,2.25 z"
         inkscape:connector-curvature="0"
         style="fill:#000000;stroke-width:0" /><path
         id="path14802"
         d="m 330.89,711.08 0.01,0 0.02,0 0.01,0.01 0.01,0 0.01,0 0.01,0 0.02,0.01 0.02,0 0.02,0 0.02,0.01 0.02,0 0.02,0 0.02,0 0.01,0 0.02,0.01 0.02,0 0.02,0 0.02,0 0.02,0 c 0.26,0 0.35,-0.16 0.35,-0.64 v -2.51 c 0,-0.54 -0.14,-0.69 -0.7,-0.7 v -0.15 h 2.21 v 0.15 c -0.53,0.02 -0.68,0.13 -0.68,0.52 v 2.8 c 0,0.02 0.09,0.12 0.15,0.19 0.25,0.23 0.68,0.4 1.03,0.4 0.44,0 0.66,-0.35 0.66,-1.04 v -2.16 c 0,-0.56 -0.11,-0.67 -0.68,-0.71 v -0.15 h 2.23 v 0.15 c -0.57,0.01 -0.72,0.18 -0.72,0.8 v 2.5 c 0.3,0.43 0.63,0.61 1.09,0.61 0.56,0 0.74,-0.27 0.74,-1.09 v -2.1 c 0,-0.57 -0.08,-0.65 -0.66,-0.72 v -0.15 h 2.18 v 0.15 l -0.25,0.02 c -0.3,0.02 -0.43,0.2 -0.43,0.59 v 2.05 c 0,1.17 -0.39,1.77 -1.16,1.77 -0.57,0 -1.08,-0.26 -1.62,-0.84 -0.18,0.57 -0.52,0.84 -1.05,0.84 -0.44,0 -0.72,-0.15 -1.54,-0.77 v 0.74 l -0.07,0.03 c -0.51,-0.19 -0.85,-0.3 -1.4,-0.45 z"
         inkscape:connector-curvature="0"
         style="fill:#000000;stroke-width:0" /><path
         id="path14804"
         d="m 338.54,711.03 0.02,0 0.02,0 0.01,0 0.02,0 0.01,0.01 0.02,0 0.01,0 0.02,0 0.03,0 0.01,0 0.02,0 0.01,0 0.02,0 0.02,0 0.01,0 c 0.34,0 0.41,-0.1 0.41,-0.57 v -4.65 c 0,-0.51 -0.11,-0.62 -0.7,-0.68 v -0.17 h 2.41 v 0.18 c -0.74,0.01 -0.87,0.12 -0.87,0.74 v 1.56 c 0.35,-0.33 0.58,-0.42 1,-0.42 l 0.03,0.31 c -0.47,0 -1.03,0.36 -1.03,0.66 v 2.44 c 0,0.3 0.55,0.66 1.01,0.66 0.74,0 1.22,-0.76 1.22,-1.91 0,-1.1 -0.48,-1.85 -1.2,-1.85 l -0.03,-0.31 c 1.17,0 2.09,1.11 2.09,2.55 0,1.23 -0.7,2.12 -1.66,2.12 -0.56,0 -1,-0.25 -1.43,-0.79 v 0.76 l -0.06,0.03 c -0.54,-0.21 -0.89,-0.34 -1.44,-0.51 z"
         inkscape:connector-curvature="0"
         style="fill:#000000;stroke-width:0" /><path
         id="path14806"
         d="m 343.62,713.31 h 0.06 c 0.11,0.01 0.23,0.02 0.31,0.02 0.32,0 0.42,-0.13 0.42,-0.6 v -4.74 c 0,-0.54 -0.14,-0.67 -0.77,-0.72 v -0.15 h 2.35 v 0.15 c -0.62,0.04 -0.74,0.14 -0.74,0.69 v 5.93 l -0.04,0.02 c -0.52,-0.17 -0.9,-0.27 -1.59,-0.44 z"
         inkscape:connector-curvature="0"
         style="fill:#000000;stroke-width:0" /><path
         id="path14808"
         d="m 350.27,708.75 -0.05,-0.07 -0.04,-0.06 -0.05,-0.07 -0.04,-0.06 -0.05,-0.06 -0.04,-0.05 -0.04,-0.06 -0.05,-0.05 -0.04,-0.05 -0.05,-0.04 -0.04,-0.05 -0.05,-0.04 -0.04,-0.04 -0.05,-0.03 -0.04,-0.04 -0.05,-0.03 -0.04,-0.03 -0.05,-0.03 -0.05,-0.02 -0.05,-0.03 -0.04,-0.02 -0.05,-0.02 -0.05,-0.02 -0.05,-0.01 -0.06,-0.02 -0.05,-0.01 -0.05,-0.01 -0.06,-0.01 -0.05,0 -0.06,-0.01 -0.06,0 -0.06,0 c -0.57,0 -0.99,0.29 -1.28,0.86 -0.18,0.37 -0.25,0.7 -0.27,1.31 l 0.02,0.32 c 0.11,0.77 0.45,1.14 1.05,1.14 0.61,0 0.85,-0.28 0.98,-1.14 h -2.03 l -0.02,-0.32 h 3.06 c -0.08,0.64 -0.17,0.93 -0.42,1.25 -0.3,0.36 -0.76,0.57 -1.28,0.57 -0.49,0 -0.96,-0.18 -1.34,-0.52 -0.47,-0.41 -0.74,-1.11 -0.74,-1.93 0,-1.37 0.72,-2.22 1.87,-2.22 0.94,0 1.69,0.58 2.1,1.65 z"
         inkscape:connector-curvature="0"
         style="fill:#000000;stroke-width:0" /><path
         id="path14810"
         d="m 350.82,711.08 0.01,0 0.01,0 0.01,0.01 0.01,0 0.02,0 0.01,0 0.02,0.01 0.02,0 0.02,0 0.02,0.01 0.01,0 0.02,0 0.02,0 0.02,0 0.02,0.01 0.02,0 0.02,0 0.02,0 0.02,0 c 0.25,0 0.34,-0.16 0.34,-0.64 v -2.51 c 0,-0.54 -0.13,-0.69 -0.69,-0.7 v -0.15 H 353 v 0.15 c -0.53,0.02 -0.68,0.13 -0.68,0.52 v 2.8 c 0,0.02 0.08,0.12 0.15,0.19 0.25,0.23 0.68,0.4 1.02,0.4 0.44,0 0.66,-0.35 0.66,-1.04 v -2.16 c 0,-0.56 -0.11,-0.67 -0.68,-0.71 v -0.15 h 2.23 v 0.15 c -0.56,0.01 -0.71,0.18 -0.71,0.8 v 2.5 c 0.3,0.43 0.62,0.61 1.08,0.61 0.57,0 0.75,-0.27 0.75,-1.09 v -2.1 c 0,-0.57 -0.08,-0.65 -0.66,-0.72 v -0.15 h 2.18 v 0.15 l -0.26,0.02 c -0.3,0.02 -0.43,0.2 -0.43,0.59 v 2.05 c 0,1.17 -0.38,1.77 -1.15,1.77 -0.58,0 -1.09,-0.26 -1.62,-0.84 -0.18,0.57 -0.52,0.84 -1.06,0.84 -0.43,0 -0.71,-0.15 -1.54,-0.77 v 0.74 l -0.07,0.03 c -0.51,-0.19 -0.85,-0.3 -1.39,-0.45 z"
         inkscape:connector-curvature="0"
         style="fill:#000000;stroke-width:0" /><path
         id="path14812"
         d="m 362.44,708.75 -0.05,-0.07 -0.04,-0.06 -0.04,-0.07 -0.05,-0.06 -0.04,-0.06 -0.05,-0.05 -0.04,-0.06 -0.04,-0.05 -0.05,-0.05 -0.04,-0.04 -0.05,-0.05 -0.04,-0.04 -0.05,-0.04 -0.04,-0.03 -0.05,-0.04 -0.04,-0.03 -0.05,-0.03 -0.05,-0.03 -0.04,-0.02 -0.05,-0.03 -0.05,-0.02 -0.05,-0.02 -0.05,-0.02 -0.05,-0.01 -0.05,-0.02 -0.06,-0.01 -0.05,-0.01 -0.05,-0.01 -0.06,0 -0.06,-0.01 -0.05,0 -0.06,0 c -0.57,0 -1,0.29 -1.29,0.86 -0.18,0.37 -0.25,0.7 -0.26,1.31 l 0.01,0.32 c 0.11,0.77 0.45,1.14 1.06,1.14 0.61,0 0.85,-0.28 0.97,-1.14 h -2.03 l -0.01,-0.32 h 3.06 c -0.08,0.64 -0.18,0.93 -0.43,1.25 -0.3,0.36 -0.75,0.57 -1.27,0.57 -0.5,0 -0.97,-0.18 -1.35,-0.52 -0.46,-0.41 -0.73,-1.11 -0.73,-1.93 0,-1.37 0.72,-2.22 1.86,-2.22 0.94,0 1.69,0.58 2.11,1.65 z"
         inkscape:connector-curvature="0"
         style="fill:#000000;stroke-width:0" /><path
         id="path14814"
         d="m 362.96,711.08 0.01,0 0,0 0.01,0.01 0.01,0 0,0 0.01,0 0.01,0.01 0,0 0.01,0 0.01,0 0.01,0 0.02,0.01 0.02,0 0.02,0 0.01,0 0.02,0 0.02,0.01 0.02,0 0.02,0 0.02,0 0.02,0 c 0.28,0 0.37,-0.15 0.37,-0.64 v -2.46 c 0,-0.57 -0.11,-0.71 -0.62,-0.75 v -0.15 h 2.11 v 0.15 c -0.51,0.04 -0.66,0.16 -0.66,0.52 v 2.79 c 0.48,0.45 0.7,0.57 1.03,0.57 0.49,0 0.73,-0.31 0.73,-0.97 v -2.07 c 0,-0.63 -0.13,-0.8 -0.63,-0.84 v -0.15 h 2.07 v 0.15 c -0.49,0.05 -0.61,0.17 -0.61,0.66 v 2.27 c 0,0.94 -0.44,1.5 -1.17,1.5 -0.46,0 -0.77,-0.17 -1.45,-0.81 v 0.78 l -0.07,0.03 c -0.48,-0.18 -0.82,-0.29 -1.37,-0.45 z"
         inkscape:connector-curvature="0"
         style="fill:#000000;stroke-width:0" /><path
         id="path14816"
         d="m 370.32,711.59 h -1 v 1.16 c 0,0.1 -0.01,0.13 -0.07,0.13 -0.07,-0.09 -0.13,-0.18 -0.2,-0.28 -0.38,-0.55 -0.81,-1.02 -0.97,-1.06 -0.11,-0.07 -0.17,-0.14 -0.17,-0.19 0,-0.03 0.01,-0.05 0.04,-0.07 h 0.53 v -2.99 c 0,-0.84 0.3,-1.26 0.89,-1.26 0.48,0 0.86,0.23 1.19,0.75 l -0.13,0.11 c -0.21,-0.25 -0.38,-0.35 -0.6,-0.35 -0.36,0 -0.51,0.27 -0.51,0.9 v 2.84 h 1 z"
         inkscape:connector-curvature="0"
         style="fill:#000000;stroke-width:0" /><path
         id="path14818"
         d="m 373.11,711 0.02,0 0.01,0 0.01,0.01 0.01,0 0.03,0 0.02,0.01 0.02,0 0.02,0 0.03,0.01 0.02,0 0.02,0 0.02,0 0.02,0.01 0.02,0 0.02,0 0.02,0 0.02,0 0.02,0 c 0.25,0 0.34,-0.16 0.34,-0.6 v -2.48 c 0,-0.5 -0.07,-0.57 -0.71,-0.69 v -0.15 h 2.39 v 0.15 c -0.67,0.03 -0.84,0.18 -0.84,0.75 v 2.23 c 0,0.32 0.42,0.82 0.69,0.82 0.06,0 0.15,-0.05 0.26,-0.15 0.16,-0.14 0.27,-0.2 0.4,-0.2 0.24,0 0.39,0.17 0.39,0.45 0,0.33 -0.21,0.53 -0.55,0.53 -0.42,0 -0.71,-0.23 -1.19,-0.94 v 0.91 l -0.05,0.03 c -0.53,-0.22 -0.89,-0.35 -1.48,-0.54 z"
         inkscape:connector-curvature="0"
         style="fill:#000000;stroke-width:0" /><path
         id="path14820"
         d="m 380.42,708.75 -0.04,-0.07 -0.05,-0.06 -0.04,-0.07 -0.05,-0.06 -0.04,-0.06 -0.04,-0.05 -0.05,-0.06 -0.04,-0.05 -0.05,-0.05 -0.04,-0.04 -0.04,-0.05 -0.05,-0.04 -0.04,-0.04 -0.05,-0.03 -0.04,-0.04 -0.05,-0.03 -0.05,-0.03 -0.04,-0.03 -0.05,-0.02 -0.05,-0.03 -0.05,-0.02 -0.05,-0.02 -0.05,-0.02 -0.05,-0.01 -0.05,-0.02 -0.05,-0.01 -0.06,-0.01 -0.05,-0.01 -0.06,0 -0.05,-0.01 -0.06,0 -0.06,0 c -0.57,0 -1,0.29 -1.28,0.86 -0.18,0.37 -0.25,0.7 -0.27,1.31 l 0.02,0.32 c 0.11,0.77 0.45,1.14 1.05,1.14 0.61,0 0.85,-0.28 0.98,-1.14 h -2.03 l -0.02,-0.32 h 3.06 c -0.08,0.64 -0.18,0.93 -0.43,1.25 -0.29,0.36 -0.75,0.57 -1.27,0.57 -0.5,0 -0.96,-0.18 -1.34,-0.52 -0.47,-0.41 -0.74,-1.11 -0.74,-1.93 0,-1.37 0.72,-2.22 1.86,-2.22 0.95,0 1.69,0.58 2.11,1.65 z"
         inkscape:connector-curvature="0"
         style="fill:#000000;stroke-width:0" /><path
         id="path14822"
         d="m 380.88,711.03 0.01,0 0.02,0 0.01,0 0.02,0 0.01,0.01 0.02,0 0.01,0 0.02,0 0.03,0 0.01,0 0.02,0 0.02,0 0.01,0 0.02,0 0.01,0 c 0.34,0 0.41,-0.1 0.41,-0.57 v -4.65 c 0,-0.51 -0.11,-0.62 -0.7,-0.68 v -0.17 h 2.41 v 0.18 c -0.74,0.01 -0.87,0.12 -0.87,0.74 v 1.56 c 0.35,-0.33 0.58,-0.42 1,-0.42 l 0.03,0.31 c -0.47,0 -1.03,0.36 -1.03,0.66 v 2.44 c 0,0.3 0.55,0.66 1.01,0.66 0.74,0 1.23,-0.76 1.23,-1.91 0,-1.1 -0.49,-1.85 -1.21,-1.85 l -0.03,-0.31 c 1.18,0 2.09,1.11 2.09,2.55 0,1.23 -0.69,2.12 -1.66,2.12 -0.56,0 -1,-0.25 -1.43,-0.79 v 0.76 l -0.06,0.03 c -0.54,-0.21 -0.89,-0.34 -1.43,-0.51 z"
         inkscape:connector-curvature="0"
         style="fill:#000000;stroke-width:0" /><path
         id="path14824"
         d="m 385.84,711 0.01,0 0.01,0 0.01,0.01 0.02,0 0.02,0 0.02,0.01 0.02,0 0.03,0 0.02,0.01 0.02,0 0.02,0 0.02,0 0.02,0.01 0.02,0 0.02,0 0.02,0 0.02,0 0.02,0 c 0.25,0 0.34,-0.16 0.34,-0.6 v -2.48 c 0,-0.5 -0.07,-0.57 -0.7,-0.69 v -0.15 h 2.38 v 0.15 c -0.67,0.03 -0.84,0.18 -0.84,0.75 v 2.23 c 0,0.32 0.43,0.82 0.69,0.82 0.06,0 0.15,-0.05 0.26,-0.15 0.16,-0.14 0.27,-0.2 0.4,-0.2 0.24,0 0.39,0.17 0.39,0.45 0,0.33 -0.21,0.53 -0.55,0.53 -0.41,0 -0.7,-0.23 -1.19,-0.94 v 0.91 l -0.05,0.03 c -0.53,-0.22 -0.89,-0.35 -1.47,-0.54 z"
         inkscape:connector-curvature="0"
         style="fill:#000000;stroke-width:0" /><path
         id="path14826"
         d="m 393.14,708.75 -0.04,-0.07 -0.05,-0.06 -0.04,-0.07 -0.04,-0.06 -0.05,-0.06 -0.04,-0.05 -0.05,-0.06 -0.04,-0.05 -0.04,-0.05 -0.05,-0.04 -0.04,-0.05 -0.05,-0.04 -0.04,-0.04 -0.05,-0.03 -0.04,-0.04 -0.05,-0.03 -0.04,-0.03 -0.05,-0.03 -0.05,-0.02 -0.05,-0.03 -0.05,-0.02 -0.04,-0.02 -0.05,-0.02 -0.06,-0.01 -0.05,-0.02 -0.05,-0.01 -0.05,-0.01 -0.06,-0.01 -0.05,0 -0.06,-0.01 -0.06,0 -0.06,0 c -0.57,0 -0.99,0.29 -1.28,0.86 -0.18,0.37 -0.25,0.7 -0.27,1.31 l 0.02,0.32 c 0.11,0.77 0.45,1.14 1.05,1.14 0.61,0 0.85,-0.28 0.98,-1.14 h -2.03 l -0.02,-0.32 h 3.06 c -0.08,0.64 -0.18,0.93 -0.42,1.25 -0.3,0.36 -0.76,0.57 -1.28,0.57 -0.49,0 -0.96,-0.18 -1.34,-0.52 -0.47,-0.41 -0.74,-1.11 -0.74,-1.93 0,-1.37 0.72,-2.22 1.86,-2.22 0.95,0 1.7,0.58 2.11,1.65 z"
         inkscape:connector-curvature="0"
         style="fill:#000000;stroke-width:0" /><path
         id="path14828"
         d="m 396.64,710.24 -0.04,1.35 h -0.11 l -0.02,-0.01 c -0.09,-0.07 -0.1,-0.08 -0.14,-0.08 -0.06,0 -0.16,0.02 -0.26,0.07 -0.22,0.08 -0.44,0.11 -0.7,0.11 -0.79,0 -1.35,-0.5 -1.35,-1.22 0,-0.55 0.31,-0.95 1.16,-1.43 l 0.58,-0.33 c 0.35,-0.19 0.51,-0.43 0.51,-0.74 0,-0.44 -0.32,-0.72 -0.82,-0.72 -0.34,0 -0.65,0.13 -0.84,0.35 -0.21,0.25 -0.3,0.48 -0.43,1.05 h -0.16 v -1.55 h 0.13 c 0.07,0.09 0.11,0.11 0.23,0.11 0.09,0 0.23,-0.02 0.46,-0.08 0.28,-0.05 0.55,-0.09 0.73,-0.09 0.76,0 1.4,0.57 1.4,1.27 0,0.49 -0.24,0.82 -0.84,1.18 l -1.07,0.63 c -0.28,0.16 -0.43,0.41 -0.43,0.68 0,0.4 0.31,0.68 0.77,0.68 0.56,0 0.86,-0.34 1.09,-1.23 z"
         inkscape:connector-curvature="0"
         style="fill:#000000;stroke-width:0" /><path
         id="path14830"
         d="m 401.44,708.75 -0.04,-0.07 -0.05,-0.06 -0.04,-0.07 -0.04,-0.06 -0.05,-0.06 -0.04,-0.05 -0.05,-0.06 -0.04,-0.05 -0.04,-0.05 -0.05,-0.04 -0.04,-0.05 -0.05,-0.04 -0.04,-0.04 -0.05,-0.03 -0.04,-0.04 -0.05,-0.03 -0.05,-0.03 -0.04,-0.03 -0.05,-0.02 -0.05,-0.03 -0.05,-0.02 -0.05,-0.02 -0.05,-0.02 -0.05,-0.01 -0.05,-0.02 -0.05,-0.01 -0.06,-0.01 -0.05,-0.01 -0.06,0 -0.05,-0.01 -0.06,0 -0.06,0 c -0.57,0 -0.99,0.29 -1.28,0.86 -0.18,0.37 -0.25,0.7 -0.27,1.31 l 0.02,0.32 c 0.11,0.77 0.45,1.14 1.05,1.14 0.61,0 0.85,-0.28 0.98,-1.14 h -2.03 l -0.02,-0.32 h 3.06 c -0.08,0.64 -0.18,0.93 -0.43,1.25 -0.29,0.36 -0.75,0.57 -1.27,0.57 -0.5,0 -0.96,-0.18 -1.34,-0.52 -0.47,-0.41 -0.74,-1.11 -0.74,-1.93 0,-1.37 0.72,-2.22 1.86,-2.22 0.95,0 1.69,0.58 2.11,1.65 z"
         inkscape:connector-curvature="0"
         style="fill:#000000;stroke-width:0" /><path
         id="path14832"
         d="m 401.97,711.08 0,0 0.01,0 0,0.01 0.01,0 0.01,0 0,0 0.01,0.01 0.01,0 0.01,0 0,0 0.02,0 0.01,0.01 0.02,0 0.02,0 0.02,0 0.02,0 0.01,0.01 0.02,0 0.02,0 0.02,0 0.02,0 c 0.28,0 0.37,-0.15 0.37,-0.64 v -2.46 c 0,-0.57 -0.11,-0.71 -0.61,-0.75 v -0.15 h 2.11 v 0.15 c -0.51,0.04 -0.66,0.16 -0.66,0.52 v 2.79 c 0.48,0.45 0.7,0.57 1.02,0.57 0.49,0 0.73,-0.31 0.73,-0.97 v -2.07 c 0,-0.63 -0.13,-0.8 -0.63,-0.84 v -0.15 h 2.07 v 0.15 c -0.49,0.05 -0.61,0.17 -0.61,0.66 v 2.27 c 0,0.94 -0.43,1.5 -1.17,1.5 -0.46,0 -0.77,-0.17 -1.44,-0.81 v 0.78 l -0.07,0.03 c -0.49,-0.18 -0.83,-0.29 -1.37,-0.45 z"
         inkscape:connector-curvature="0"
         style="fill:#000000;stroke-width:0" /><path
         id="path14834"
         d="m 409.33,711.59 h -1.01 v 1.16 c 0,0.1 -0.01,0.13 -0.07,0.13 -0.07,-0.09 -0.13,-0.18 -0.2,-0.28 -0.38,-0.55 -0.8,-1.02 -0.96,-1.06 -0.11,-0.07 -0.17,-0.14 -0.17,-0.19 0,-0.03 0.01,-0.05 0.04,-0.07 h 0.52 v -2.99 c 0,-0.84 0.3,-1.26 0.89,-1.26 0.49,0 0.86,0.23 1.19,0.75 l -0.13,0.11 c -0.2,-0.25 -0.37,-0.35 -0.59,-0.35 -0.37,0 -0.52,0.27 -0.52,0.9 v 2.84 h 1.01 z"
         inkscape:connector-curvature="0"
         style="fill:#000000;stroke-width:0" /><path
         id="path14836"
         d="m 413.95,707.78 -0.01,-0.01 -0.02,-0.01 -0.01,-0.02 -0.02,-0.01 -0.01,-0.01 -0.02,-0.01 -0.01,-0.01 -0.01,-0.01 -0.02,-0.01 -0.01,0 -0.01,-0.01 -0.02,-0.01 -0.01,-0.01 -0.01,0 -0.02,-0.01 -0.01,-0.01 -0.01,0 -0.02,-0.01 -0.01,0 -0.01,0 -0.02,-0.01 -0.01,0 -0.01,-0.01 -0.02,0 -0.02,0 -0.03,-0.01 -0.03,0 -0.02,0 c -0.23,0 -0.3,0.14 -0.3,0.58 v 1.93 c 0,0.52 -0.05,0.81 -0.2,1.05 -0.22,0.36 -0.65,0.55 -1.23,0.55 -0.94,0 -1.68,-0.49 -1.68,-1.12 0,-0.23 0.2,-0.42 0.43,-0.42 0.24,0 0.45,0.19 0.45,0.41 0,0.04 -0.01,0.09 -0.02,0.16 -0.02,0.09 -0.03,0.17 -0.03,0.24 0,0.27 0.32,0.49 0.72,0.49 0.48,0 0.75,-0.29 0.75,-0.83 v -0.6 -0.24 -1.44 c 0,-0.31 -0.05,-0.4 -0.26,-0.52 -0.23,-0.14 -0.51,-0.23 -0.72,-0.23 -0.35,0 -0.63,0.34 -0.63,0.77 v 0.04 c 0,0.58 0.41,0.94 1.61,1.38 v 0.24 c -1.53,-0.62 -1.7,-0.7 -2.13,-1.08 -0.21,-0.2 -0.35,-0.53 -0.35,-0.86 0,-0.63 0.43,-1.06 1.04,-1.06 0.44,0 0.85,0.2 1.45,0.72 0.05,-0.52 0.23,-0.72 0.64,-0.72 0.34,0 0.55,0.12 0.89,0.49 z"
         inkscape:connector-curvature="0"
         style="fill:#000000;stroke-width:0" /><path
         id="path14838"
         d="m 416.52,711.59 h -1.01 v 1.16 c 0,0.1 -0.01,0.13 -0.07,0.13 -0.07,-0.09 -0.13,-0.18 -0.2,-0.28 -0.37,-0.55 -0.8,-1.02 -0.96,-1.06 -0.11,-0.07 -0.17,-0.14 -0.17,-0.19 0,-0.03 0.01,-0.05 0.04,-0.07 h 0.53 v -2.99 c 0,-0.84 0.3,-1.26 0.88,-1.26 0.49,0 0.87,0.23 1.2,0.75 l -0.13,0.11 c -0.21,-0.25 -0.38,-0.35 -0.6,-0.35 -0.37,0 -0.52,0.27 -0.52,0.9 v 2.84 h 1.01 z"
         inkscape:connector-curvature="0"
         style="fill:#000000;stroke-width:0" /><path
         id="path14840"
         d="m 418.49,711.7 -1.54,-0.55 V 711 l 0.08,0.01 c 0.12,0.02 0.25,0.03 0.34,0.03 0.24,0 0.33,-0.16 0.33,-0.6 v -2.3 c 0,-0.72 -0.1,-0.83 -0.79,-0.87 v -0.15 h 2.36 v 0.15 c -0.66,0.05 -0.74,0.15 -0.74,0.87 v 3.52 z"
         inkscape:connector-curvature="0"
         style="fill:#000000;stroke-width:0" /><path
         id="path14842"
         d="m 418.02,713.91 -0.02,0 -0.03,0 -0.02,-0.01 -0.02,0 -0.03,-0.01 -0.02,0 -0.02,-0.01 -0.03,-0.01 -0.02,-0.01 -0.02,-0.01 -0.02,-0.01 -0.02,-0.02 -0.02,-0.01 -0.02,-0.02 -0.02,-0.01 -0.02,-0.02 -0.01,-0.02 -0.02,-0.02 -0.01,-0.01 -0.02,-0.02 -0.01,-0.02 -0.01,-0.03 -0.01,-0.02 -0.01,-0.02 -0.01,-0.02 -0.01,-0.03 -0.01,-0.02 0,-0.03 -0.01,-0.02 0,-0.03 0,-0.02 0,-0.03 c 0,-0.28 0.21,-0.5 0.49,-0.5 0.29,0 0.52,0.21 0.52,0.5 0,0.28 -0.23,0.51 -0.52,0.51 z"
         inkscape:connector-curvature="0"
         style="fill:#000000;stroke-width:0" /><path
         id="path14844"
         d="m 422.01,711.7 -0.12,-0.01 -0.12,-0.01 -0.12,-0.01 -0.11,-0.02 -0.11,-0.02 -0.11,-0.03 -0.1,-0.04 -0.1,-0.04 -0.1,-0.04 -0.1,-0.05 -0.09,-0.05 -0.09,-0.06 -0.08,-0.06 -0.08,-0.07 -0.08,-0.07 -0.08,-0.07 -0.07,-0.08 -0.06,-0.08 -0.07,-0.09 -0.06,-0.09 -0.05,-0.1 -0.05,-0.09 -0.05,-0.1 -0.04,-0.11 -0.04,-0.11 -0.03,-0.11 -0.03,-0.11 -0.02,-0.12 -0.02,-0.12 -0.01,-0.12 -0.01,-0.12 0,-0.13 c 0,-1.34 0.92,-2.34 2.18,-2.34 l 0.12,0.27 c -0.39,0 -0.76,0.24 -0.97,0.64 -0.28,0.52 -0.44,1.21 -0.44,1.92 0,0.94 0.47,1.56 1.18,1.56 h 0 c 0.83,0 1.42,-0.96 1.42,-2.32 0,-1.12 -0.45,-1.8 -1.19,-1.8 l -0.12,-0.27 c 1.25,0 2.21,1.05 2.21,2.42 0,1.3 -0.92,2.25 -2.19,2.25 z"
         inkscape:connector-curvature="0"
         style="fill:#000000;stroke-width:0" /><path
         id="path14846"
         d="m 424.66,711.08 0.01,0 0,0 0.01,0.01 0,0 0.01,0 0.01,0 0,0.01 0.01,0 0.01,0 0.01,0 0.01,0 0.02,0.01 0.02,0 0.01,0 0.02,0 0.02,0 0.02,0.01 0.02,0 0.02,0 0.02,0 0.02,0 c 0.28,0 0.37,-0.15 0.37,-0.64 v -2.46 c 0,-0.57 -0.11,-0.71 -0.62,-0.75 v -0.15 h 2.11 v 0.15 c -0.51,0.04 -0.66,0.16 -0.66,0.52 v 2.79 c 0.48,0.45 0.7,0.57 1.03,0.57 0.48,0 0.72,-0.31 0.72,-0.97 v -2.07 c 0,-0.63 -0.12,-0.8 -0.62,-0.84 v -0.15 h 2.07 v 0.15 c -0.49,0.05 -0.61,0.17 -0.61,0.66 v 2.27 c 0,0.94 -0.44,1.5 -1.17,1.5 -0.46,0 -0.77,-0.17 -1.45,-0.81 v 0.78 l -0.07,0.03 c -0.48,-0.18 -0.82,-0.29 -1.37,-0.45 z"
         inkscape:connector-curvature="0"
         style="fill:#000000;stroke-width:0" /><path
         id="path14848"
         d="m 434.46,711.7 -0.12,-0.01 -0.12,-0.01 -0.11,-0.01 -0.12,-0.02 -0.11,-0.02 -0.1,-0.03 -0.11,-0.04 -0.1,-0.04 -0.1,-0.04 -0.09,-0.05 -0.09,-0.05 -0.09,-0.06 -0.09,-0.06 -0.08,-0.07 -0.08,-0.07 -0.07,-0.07 -0.07,-0.08 -0.07,-0.08 -0.06,-0.09 -0.06,-0.09 -0.06,-0.1 -0.05,-0.09 -0.04,-0.1 -0.05,-0.11 -0.03,-0.11 -0.04,-0.11 -0.02,-0.11 -0.03,-0.12 -0.01,-0.12 -0.02,-0.12 -0.01,-0.12 0,-0.13 c 0,-1.34 0.93,-2.34 2.18,-2.34 l 0.12,0.27 c -0.39,0 -0.76,0.24 -0.96,0.64 -0.28,0.52 -0.44,1.21 -0.44,1.92 0,0.94 0.46,1.56 1.17,1.56 h 0 c 0.84,0 1.42,-0.96 1.42,-2.32 0,-1.12 -0.44,-1.8 -1.19,-1.8 l -0.12,-0.27 c 1.25,0 2.21,1.05 2.21,2.42 0,1.3 -0.92,2.25 -2.19,2.25 z"
         inkscape:connector-curvature="0"
         style="fill:#000000;stroke-width:0" /><path
         id="path14850"
         d="m 440.03,711.59 h -1.23 v 1.16 c 0,0.57 0.19,0.88 0.57,0.88 0.21,0 0.35,-0.1 0.53,-0.39 0.16,-0.25 0.28,-0.35 0.45,-0.35 0.23,0 0.42,0.18 0.42,0.4 0,0.36 -0.44,0.62 -1.04,0.62 -0.62,0 -1.14,-0.27 -1.4,-0.73 -0.26,-0.43 -0.34,-0.79 -0.35,-1.59 h -0.82 v -0.31 h 0.82 v -3.12 c 0,-0.73 -0.11,-0.85 -0.83,-0.89 v -0.15 h 2.59 v 0.15 c -0.82,0.03 -0.92,0.14 -0.92,0.89 v 3.12 h 1.21 z"
         inkscape:connector-curvature="0"
         style="fill:#000000;stroke-width:0" /><polygon
         id="polygon14852"
         points="443.1,709.4 448.2,709.4 448.2,709.96 443.1,709.96 "
         style="fill:#000000;stroke-width:0" /><path
         id="path14854"
         d="m 453.93,713.84 -1.79,-0.9 v -0.14 c 0.12,0.05 0.23,0.09 0.27,0.11 0.18,0.07 0.35,0.11 0.45,0.11 0.21,0 0.3,-0.15 0.3,-0.47 v -4.5 c 0,-0.33 -0.08,-0.56 -0.24,-0.65 -0.15,-0.09 -0.29,-0.12 -0.71,-0.13 v -0.15 h 2.75 v 0.15 c -0.79,0.01 -0.95,0.11 -0.95,0.59 v 5.96 z"
         inkscape:connector-curvature="0"
         style="fill:#000000;stroke-width:0" /><path
         id="path14856"
         d="m 458.91,713.84 -1.79,-0.9 v -0.14 c 0.12,0.05 0.23,0.09 0.27,0.11 0.18,0.07 0.35,0.11 0.45,0.11 0.21,0 0.3,-0.15 0.3,-0.47 v -4.5 c 0,-0.33 -0.08,-0.56 -0.24,-0.65 -0.15,-0.09 -0.29,-0.12 -0.71,-0.13 v -0.15 h 2.75 v 0.15 c -0.79,0.01 -0.95,0.11 -0.95,0.59 v 5.96 z"
         inkscape:connector-curvature="0"
         style="fill:#000000;stroke-width:0" /><path
         id="path14858"
         d="m 463.53,713.84 -0.05,0 -0.05,0 -0.05,0 -0.05,-0.01 -0.05,0 -0.05,-0.01 -0.04,0 -0.05,-0.01 -0.05,-0.01 -0.04,-0.01 -0.05,-0.01 -0.04,-0.01 -0.04,-0.01 -0.04,-0.02 -0.05,-0.01 -0.04,-0.02 -0.04,-0.01 -0.04,-0.02 -0.04,-0.02 -0.04,-0.02 -0.04,-0.02 -0.03,-0.02 -0.04,-0.03 -0.04,-0.02 -0.04,-0.02 -0.03,-0.03 -0.04,-0.03 -0.04,-0.02 -0.03,-0.03 -0.04,-0.03 -0.03,-0.03 -0.04,-0.04 c -0.57,-0.55 -0.95,-1.7 -0.95,-2.86 0,-1.08 0.33,-2.24 0.79,-2.8 0.37,-0.44 0.88,-0.67 1.46,-0.67 v 0.25 c -0.86,0 -1.3,1.07 -1.3,3.13 0,2.11 0.45,3.21 1.31,3.21 h 0 c 0.83,0 1.28,-1.12 1.28,-3.2 0,-2.07 -0.44,-3.14 -1.29,-3.14 v -0.25 c 0.5,0 0.93,0.17 1.29,0.51 0.58,0.55 0.95,1.7 0.95,2.9 0,2.04 -0.9,3.44 -2.2,3.44 z"
         inkscape:connector-curvature="0"
         style="fill:#000000;stroke-width:0" /><path
         id="path14860"
         d="m 468.51,713.84 -0.05,0 -0.05,0 -0.05,0 -0.05,-0.01 -0.05,0 -0.05,-0.01 -0.04,0 -0.05,-0.01 -0.04,-0.01 -0.05,-0.01 -0.04,-0.01 -0.05,-0.01 -0.04,-0.01 -0.04,-0.02 -0.04,-0.01 -0.05,-0.02 -0.04,-0.01 -0.04,-0.02 -0.04,-0.02 -0.04,-0.02 -0.03,-0.02 -0.04,-0.02 -0.04,-0.03 -0.04,-0.02 -0.04,-0.02 -0.03,-0.03 -0.04,-0.03 -0.03,-0.02 -0.04,-0.03 -0.04,-0.03 -0.03,-0.03 -0.04,-0.04 c -0.57,-0.55 -0.95,-1.7 -0.95,-2.86 0,-1.08 0.33,-2.24 0.8,-2.8 0.36,-0.44 0.87,-0.67 1.45,-0.67 v 0.25 c -0.86,0 -1.3,1.07 -1.3,3.13 0,2.11 0.45,3.21 1.31,3.21 h 0 c 0.83,0 1.28,-1.12 1.28,-3.2 0,-2.07 -0.44,-3.14 -1.29,-3.14 v -0.25 c 0.51,0 0.93,0.17 1.29,0.51 0.58,0.55 0.96,1.7 0.96,2.9 0,2.04 -0.91,3.44 -2.21,3.44 z"
         inkscape:connector-curvature="0"
         style="fill:#000000;stroke-width:0" /><path
         id="path14862"
         d="m 473.49,713.84 -0.05,0 -0.05,0 -0.05,0 -0.05,-0.01 -0.05,0 -0.05,-0.01 -0.04,0 -0.05,-0.01 -0.04,-0.01 -0.05,-0.01 -0.04,-0.01 -0.05,-0.01 -0.04,-0.01 -0.04,-0.02 -0.04,-0.01 -0.04,-0.02 -0.05,-0.01 -0.04,-0.02 -0.04,-0.02 -0.03,-0.02 -0.04,-0.02 -0.04,-0.02 -0.04,-0.03 -0.04,-0.02 -0.03,-0.02 -0.04,-0.03 -0.04,-0.03 -0.03,-0.02 -0.04,-0.03 -0.03,-0.03 -0.04,-0.03 -0.03,-0.04 c -0.58,-0.55 -0.96,-1.7 -0.96,-2.86 0,-1.08 0.33,-2.24 0.8,-2.8 0.36,-0.44 0.87,-0.67 1.45,-0.67 v 0.25 c -0.86,0 -1.29,1.07 -1.29,3.13 0,2.11 0.44,3.21 1.3,3.21 h 0 c 0.84,0 1.28,-1.12 1.28,-3.2 0,-2.07 -0.44,-3.14 -1.29,-3.14 v -0.25 c 0.51,0 0.94,0.17 1.29,0.51 0.58,0.55 0.96,1.7 0.96,2.9 0,2.04 -0.91,3.44 -2.21,3.44 z"
         inkscape:connector-curvature="0"
         style="fill:#000000;stroke-width:0" /><path
         id="path14864"
         d="m 478.47,713.84 -0.05,0 -0.05,0 -0.05,0 -0.05,-0.01 -0.05,0 -0.04,-0.01 -0.05,0 -0.05,-0.01 -0.04,-0.01 -0.05,-0.01 -0.04,-0.01 -0.04,-0.01 -0.05,-0.01 -0.04,-0.02 -0.04,-0.01 -0.04,-0.02 -0.04,-0.01 -0.04,-0.02 -0.04,-0.02 -0.04,-0.02 -0.04,-0.02 -0.04,-0.02 -0.04,-0.03 -0.04,-0.02 -0.03,-0.02 -0.04,-0.03 -0.04,-0.03 -0.03,-0.02 -0.04,-0.03 -0.03,-0.03 -0.04,-0.03 -0.03,-0.04 c -0.58,-0.55 -0.96,-1.7 -0.96,-2.86 0,-1.08 0.33,-2.24 0.8,-2.8 0.37,-0.44 0.87,-0.67 1.45,-0.67 v 0.25 c -0.85,0 -1.29,1.07 -1.29,3.13 0,2.11 0.44,3.21 1.3,3.21 h 0 c 0.84,0 1.28,-1.12 1.28,-3.2 0,-2.07 -0.43,-3.14 -1.29,-3.14 v -0.25 c 0.51,0 0.94,0.17 1.29,0.51 0.58,0.55 0.96,1.7 0.96,2.9 0,2.04 -0.91,3.44 -2.21,3.44 z"
         inkscape:connector-curvature="0"
         style="fill:#000000;stroke-width:0" /><polygon
         id="polygon14866"
         points="484.31,710.4 489.4,710.4 489.4,710.96 484.31,710.96 "
         style="fill:#000000;stroke-width:0" /><polygon
         id="polygon14868"
         points="484.31,708.39 489.4,708.39 489.4,708.94 484.31,708.94 "
         style="fill:#000000;stroke-width:0" /></g>    <g
       id="content"
       transform="matrix(1.2,0,0,-1.2,-303.06738,1670.4042)"
       xml:space="preserve"
       stroke="black"
       stroke-linecap="butt"
       stroke-linejoin="miter"
       stroke-miterlimit="10.433"
       stroke-dasharray="none"
       stroke-dashoffset="0"
       stroke-opacity="1"
       fill="none"
       fill-rule="evenodd"
       fill-opacity="1"
       font-style="normal"
       font-variant="normal"
       font-weight="normal"
       font-stretch="normal"
       font-size-adjust="none"
       letter-spacing="normal"
       word-spacing="normal"
       text-anchor="start"
       ns0:text="\\begin{align*}\nM&amp; = 100\\\\\nN&amp; = -110000\n\\end{align*}"
       ns0:preamble="/home/sriranga/Desktop/Prism_BasicElectronics/preamble.tex"
       style="font-style:normal;font-variant:normal;font-weight:normal;font-stretch:normal;letter-spacing:normal;word-spacing:normal;text-anchor:start;fill:none;stroke:#000000;stroke-width:1;stroke-linecap:butt;stroke-linejoin:miter;stroke-miterlimit:10.43299961;stroke-opacity:1;stroke-dasharray:none;stroke-dashoffset:0"><path
         d="M375.83,713.61 H374.17 L370.82,708.71 L370.27,713.61 H368.47 V713.45 C368.97,713.42,369.21,713.31,369.21,713.09 C369.21,713.01,369.17,712.86,369.11,712.68 C369.09,712.64,369.06,712.53,369.02,712.38 C369.01,712.35,369,712.31,368.99,712.27 L367.94,708.58 C367.63,707.54,367.48,707.34,366.96,707.28 V707.12 H368.93 V707.28 C368.42,707.32,368.23,707.44,368.23,707.72 C368.23,707.82,368.27,708.08,368.32,708.25 L369.49,712.55 L370.1,707.12 H370.27 L374.02,712.7 L372.73,708.03 C372.57,707.5,372.37,707.35,371.73,707.28 V707.12 H374.44 V707.28 C373.77,707.34,373.68,707.4,373.68,707.71 C373.68,707.88,373.7,708.01,373.79,708.32 L375.01,712.72 C375.19,713.31,375.24,713.36,375.83,713.45 Z "
         stroke-width="0"
         fill="black"
         id="path15110" /><polygon
         points="384.32,710.4 384.32,710.96 379.22,710.96 379.22,710.4 "
         stroke-width="0"
         fill="black"
         id="polygon15112" /><polygon
         points="384.32,708.39 384.32,708.94 379.22,708.94 379.22,708.39 "
         stroke-width="0"
         fill="black"
         id="polygon15114" /><path
         d="M390.6,713.84 L388.81,712.94 V712.8 C388.93,712.85,389.04,712.89,389.08,712.91 C389.26,712.98,389.43,713.02,389.53,713.02 C389.74,713.02,389.83,712.87,389.83,712.55 V708.05 C389.83,707.72,389.75,707.49,389.59,707.4 C389.44,707.31,389.3,707.28,388.88,707.27 V707.12 H391.63 V707.27 C390.84,707.28,390.68,707.38,390.68,707.86 V713.82 Z "
         stroke-width="0"
         fill="black"
         id="path15116" /><path
         d="M395.22,713.84 L395.17,713.84 L395.12,713.84 L395.07,713.84 L395.02,713.83 L394.97,713.83 L394.92,713.82 L394.88,713.82 L394.83,713.81 L394.78,713.8 L394.74,713.79 L394.7,713.78 L394.65,713.77 L394.61,713.76 L394.57,713.74 L394.52,713.73 L394.48,713.71 L394.44,713.7 L394.4,713.68 L394.36,713.66 L394.32,713.64 L394.28,713.62 L394.25,713.6 L394.21,713.57 L394.17,713.55 L394.13,713.53 L394.1,713.5 L394.06,713.47 L394.02,713.45 L393.99,713.42 L393.95,713.39 L393.92,713.36 L393.88,713.32 C393.31,712.77,392.93,711.62,392.93,710.46 C392.93,709.38,393.26,708.22,393.73,707.66 C394.09,707.22,394.6,706.99,395.18,706.99 V707.24 C394.32,707.24,393.88,708.31,393.88,710.37 C393.88,712.48,394.33,713.58,395.19,713.58 H395.19 C396.02,713.58,396.47,712.46,396.47,710.38 C396.47,708.31,396.03,707.24,395.18,707.24 V706.99 C395.68,706.99,396.11,707.16,396.47,707.5 C397.05,708.05,397.43,709.2,397.43,710.4 C397.43,712.44,396.52,713.84,395.22,713.84 Z "
         stroke-width="0"
         fill="black"
         id="path15118" /><path
         d="M400.2,713.84 L400.15,713.84 L400.1,713.84 L400.05,713.84 L400,713.83 L399.95,713.83 L399.9,713.82 L399.86,713.82 L399.81,713.81 L399.77,713.8 L399.72,713.79 L399.68,713.78 L399.63,713.77 L399.59,713.76 L399.55,713.74 L399.51,713.73 L399.46,713.71 L399.42,713.7 L399.38,713.68 L399.34,713.66 L399.3,713.64 L399.27,713.62 L399.23,713.6 L399.19,713.57 L399.15,713.55 L399.11,713.53 L399.08,713.5 L399.04,713.47 L399.01,713.45 L398.97,713.42 L398.93,713.39 L398.9,713.36 L398.86,713.32 C398.29,712.77,397.91,711.62,397.91,710.46 C397.91,709.38,398.24,708.22,398.71,707.66 C399.07,707.22,399.58,706.99,400.16,706.99 V707.24 C399.3,707.24,398.86,708.31,398.86,710.37 C398.86,712.48,399.31,713.58,400.17,713.58 H400.17 C401,713.58,401.45,712.46,401.45,710.38 C401.45,708.31,401.01,707.24,400.16,707.24 V706.99 C400.67,706.99,401.09,707.16,401.45,707.5 C402.03,708.05,402.41,709.2,402.41,710.4 C402.41,712.44,401.5,713.84,400.2,713.84 Z "
         stroke-width="0"
         fill="black"
         id="path15120" /><path
         d="M375.83,698.67 H373.85 V698.51 C374.42,698.46,374.55,698.36,374.55,698 C374.55,697.88,374.52,697.76,374.45,697.57 C374.45,697.53,374.43,697.5,374.43,697.49 L373.42,693.71 L371.35,698.67 H369.75 V698.51 C370.22,698.47,370.43,698.34,370.61,697.95 L369.42,693.81 C369.04,692.54,368.96,692.42,368.4,692.34 V692.18 H370.37 V692.34 C369.86,692.38,369.67,692.49,369.67,692.77 C369.67,692.9,369.7,693.09,369.76,693.3 L370.89,697.5 L373.18,692.03 H373.36 L374.79,697.03 C375.16,698.31,375.2,698.37,375.83,698.51 Z "
         stroke-width="0"
         fill="black"
         id="path15122" /><polygon
         points="384.32,695.46 384.32,696.02 379.22,696.02 379.22,695.46 "
         stroke-width="0"
         fill="black"
         id="polygon15124" /><polygon
         points="384.32,693.44 384.32,694 379.22,694 379.22,693.44 "
         stroke-width="0"
         fill="black"
         id="polygon15126" /><polygon
         points="393.42,694.46 393.42,695.01 388.33,695.01 388.33,694.46 "
         stroke-width="0"
         fill="black"
         id="polygon15128" /><path
         d="M396.94,698.9 L395.15,697.99 V697.85 C395.27,697.9,395.38,697.94,395.42,697.96 C395.6,698.03,395.77,698.07,395.87,698.07 C396.08,698.07,396.16,697.92,396.16,697.6 V693.1 C396.16,692.78,396.08,692.55,395.92,692.46 C395.78,692.37,395.64,692.34,395.22,692.33 V692.18 H397.96 V692.33 C397.18,692.34,397.02,692.44,397.02,692.92 V698.88 Z "
         stroke-width="0"
         fill="black"
         id="path15130" /><path
         d="M401.92,698.9 L400.13,697.99 V697.85 C400.25,697.9,400.36,697.94,400.4,697.96 C400.58,698.03,400.75,698.07,400.85,698.07 C401.06,698.07,401.14,697.92,401.14,697.6 V693.1 C401.14,692.78,401.07,692.55,400.91,692.46 C400.76,692.37,400.62,692.34,400.2,692.33 V692.18 H402.95 V692.33 C402.16,692.34,402,692.44,402,692.92 V698.88 Z "
         stroke-width="0"
         fill="black"
         id="path15132" /><path
         d="M406.54,698.9 L406.48,698.9 L406.43,698.89 L406.38,698.89 L406.34,698.89 L406.29,698.88 L406.24,698.88 L406.19,698.87 L406.15,698.86 L406.1,698.86 L406.06,698.85 L406.01,698.84 L405.97,698.82 L405.93,698.81 L405.88,698.8 L405.84,698.78 L405.8,698.77 L405.76,698.75 L405.72,698.73 L405.68,698.72 L405.64,698.7 L405.6,698.68 L405.56,698.65 L405.53,698.63 L405.49,698.61 L405.45,698.58 L405.41,698.56 L405.38,698.53 L405.34,698.5 L405.31,698.47 L405.27,698.44 L405.24,698.41 L405.2,698.38 C404.62,697.82,404.25,696.68,404.25,695.52 C404.25,694.44,404.58,693.27,405.04,692.72 C405.41,692.28,405.92,692.04,406.49,692.04 V692.3 C405.64,692.3,405.2,693.36,405.2,695.43 C405.2,697.53,405.65,698.64,406.51,698.64 H406.51 C407.34,698.64,407.79,697.52,407.79,695.44 C407.79,693.36,407.35,692.3,406.49,692.3 V692.04 C407,692.04,407.43,692.21,407.79,692.56 C408.36,693.1,408.74,694.26,408.74,695.46 C408.74,697.5,407.84,698.9,406.54,698.9 Z "
         stroke-width="0"
         fill="black"
         id="path15134" /><path
         d="M411.52,698.9 L411.47,698.9 L411.41,698.89 L411.37,698.89 L411.32,698.89 L411.27,698.88 L411.22,698.88 L411.17,698.87 L411.13,698.86 L411.08,698.86 L411.04,698.85 L410.99,698.84 L410.95,698.82 L410.91,698.81 L410.87,698.8 L410.82,698.78 L410.78,698.77 L410.74,698.75 L410.7,698.73 L410.66,698.72 L410.62,698.7 L410.58,698.68 L410.55,698.65 L410.51,698.63 L410.47,698.61 L410.43,698.58 L410.4,698.56 L410.36,698.53 L410.32,698.5 L410.29,698.47 L410.25,698.44 L410.22,698.41 L410.18,698.38 C409.61,697.82,409.23,696.68,409.23,695.52 C409.23,694.44,409.56,693.27,410.02,692.72 C410.39,692.28,410.9,692.04,411.48,692.04 V692.3 C410.62,692.3,410.18,693.36,410.18,695.43 C410.18,697.53,410.63,698.64,411.49,698.64 H411.49 C412.32,698.64,412.77,697.52,412.77,695.44 C412.77,693.36,412.33,692.3,411.48,692.3 V692.04 C411.98,692.04,412.41,692.21,412.77,692.56 C413.35,693.1,413.73,694.26,413.73,695.46 C413.73,697.5,412.82,698.9,411.52,698.9 Z "
         stroke-width="0"
         fill="black"
         id="path15136" /><path
         d="M416.5,698.9 L416.45,698.9 L416.4,698.89 L416.35,698.89 L416.3,698.89 L416.25,698.88 L416.2,698.88 L416.16,698.87 L416.11,698.86 L416.06,698.86 L416.02,698.85 L415.98,698.84 L415.93,698.82 L415.89,698.81 L415.85,698.8 L415.8,698.78 L415.76,698.77 L415.72,698.75 L415.68,698.73 L415.64,698.72 L415.6,698.7 L415.56,698.68 L415.53,698.65 L415.49,698.63 L415.45,698.61 L415.41,698.58 L415.38,698.56 L415.34,698.53 L415.3,698.5 L415.27,698.47 L415.23,698.44 L415.2,698.41 L415.16,698.38 C414.59,697.82,414.21,696.68,414.21,695.52 C414.21,694.44,414.54,693.27,415.01,692.72 C415.37,692.28,415.88,692.04,416.46,692.04 V692.3 C415.6,692.3,415.16,693.36,415.16,695.43 C415.16,697.53,415.61,698.64,416.47,698.64 H416.47 C417.3,698.64,417.75,697.52,417.75,695.44 C417.75,693.36,417.31,692.3,416.46,692.3 V692.04 C416.96,692.04,417.39,692.21,417.75,692.56 C418.33,693.1,418.71,694.26,418.71,695.46 C418.71,697.5,417.8,698.9,416.5,698.9 Z "
         stroke-width="0"
         fill="black"
         id="path15138" /><path
         d="M421.48,698.9 L421.43,698.9 L421.38,698.89 L421.33,698.89 L421.28,698.89 L421.23,698.88 L421.18,698.88 L421.14,698.87 L421.09,698.86 L421.05,698.86 L421,698.85 L420.96,698.84 L420.91,698.82 L420.87,698.81 L420.83,698.8 L420.79,698.78 L420.74,698.77 L420.7,698.75 L420.66,698.73 L420.62,698.72 L420.58,698.7 L420.55,698.68 L420.51,698.65 L420.47,698.63 L420.43,698.61 L420.39,698.58 L420.36,698.56 L420.32,698.53 L420.29,698.5 L420.25,698.47 L420.21,698.44 L420.18,698.41 L420.14,698.38 C419.57,697.82,419.19,696.68,419.19,695.52 C419.19,694.44,419.52,693.27,419.99,692.72 C420.35,692.28,420.86,692.04,421.44,692.04 V692.3 C420.58,692.3,420.14,693.36,420.14,695.43 C420.14,697.53,420.59,698.64,421.45,698.64 H421.45 C422.28,698.64,422.73,697.52,422.73,695.44 C422.73,693.36,422.29,692.3,421.44,692.3 V692.04 C421.95,692.04,422.37,692.21,422.73,692.56 C423.31,693.1,423.69,694.26,423.69,695.46 C423.69,697.5,422.78,698.9,421.48,698.9 Z "
         stroke-width="0"
         fill="black"
         id="path15140" /></g>    <g
       style="font-style:normal;font-variant:normal;font-weight:normal;font-stretch:normal;letter-spacing:normal;word-spacing:normal;text-anchor:start;fill:none;stroke:#000000;stroke-width:1;stroke-linecap:butt;stroke-linejoin:miter;stroke-miterlimit:10.43299961;stroke-opacity:1;stroke-dasharray:none;stroke-dashoffset:0"
       ns0:preamble="/home/sriranga/Desktop/Prism_BasicElectronics/preamble.tex"
       ns0:text="$\\therefore $~ Answer~ $= (0101100)_2$ "
       word-spacing="normal"
       letter-spacing="normal"
       font-size-adjust="none"
       font-stretch="normal"
       font-weight="normal"
       font-variant="normal"
       font-style="normal"
       stroke-miterlimit="10.433"
       xml:space="preserve"
       transform="matrix(1.2,0,0,-1.2,-66.940154,1768.2639)"
       id="g15371"><path
         id="path15373"
         d="m 227.27,711.21 0,0.02 0,0.03 0,0.03 -0.01,0.02 0,0.03 -0.01,0.02 -0.01,0.03 -0.01,0.02 -0.01,0.02 -0.01,0.03 -0.01,0.02 -0.02,0.02 -0.01,0.02 -0.02,0.02 -0.02,0.02 -0.01,0.02 -0.02,0.02 -0.02,0.01 -0.02,0.02 -0.02,0.01 -0.02,0.02 -0.02,0.01 -0.03,0.01 -0.02,0.01 -0.02,0.01 -0.03,0.01 -0.02,0.01 -0.03,0 -0.03,0.01 -0.02,0 -0.03,0 -0.03,0 c -0.28,0 -0.52,-0.23 -0.52,-0.52 0,-0.29 0.24,-0.53 0.52,-0.53 0.28,0 0.53,0.23 0.53,0.53 z"
         inkscape:connector-curvature="0"
         style="fill:#000000;stroke-width:0" /><path
         id="path15375"
         d="m 229.76,706.91 0,0.02 0,0.03 -0.01,0.03 0,0.02 -0.01,0.03 0,0.02 -0.01,0.03 -0.01,0.02 -0.01,0.02 -0.01,0.03 -0.02,0.02 -0.01,0.02 -0.02,0.02 -0.01,0.02 -0.02,0.02 -0.02,0.02 -0.01,0.02 -0.02,0.01 -0.02,0.02 -0.02,0.01 -0.03,0.02 -0.02,0.01 -0.02,0.01 -0.02,0.01 -0.03,0.01 -0.02,0.01 -0.03,0.01 -0.02,0 -0.03,0.01 -0.02,0 -0.03,0 -0.03,0 c -0.29,0 -0.52,-0.24 -0.52,-0.52 0,-0.29 0.23,-0.53 0.52,-0.53 0.29,0 0.53,0.24 0.53,0.53 z"
         inkscape:connector-curvature="0"
         style="fill:#000000;stroke-width:0" /><path
         id="path15377"
         d="m 224.79,706.91 -0.01,0.02 0,0.03 0,0.03 -0.01,0.02 0,0.03 -0.01,0.02 -0.01,0.03 -0.01,0.02 -0.01,0.02 -0.01,0.03 -0.01,0.02 -0.02,0.02 -0.01,0.02 -0.02,0.02 -0.01,0.02 -0.02,0.02 -0.02,0.02 -0.02,0.01 -0.02,0.02 -0.02,0.01 -0.02,0.02 -0.02,0.01 -0.02,0.01 -0.03,0.01 -0.02,0.01 -0.03,0.01 -0.02,0.01 -0.03,0 -0.02,0.01 -0.03,0 -0.03,0 -0.02,0 c -0.29,0 -0.53,-0.24 -0.53,-0.52 0,-0.29 0.24,-0.53 0.53,-0.53 0.29,0 0.53,0.24 0.53,0.53 z"
         inkscape:connector-curvature="0"
         style="fill:#000000;stroke-width:0" /><path
         id="path15379"
         d="m 242.08,707.31 -0.04,0.01 -0.04,0 -0.04,0 -0.03,0.01 -0.04,0.01 -0.03,0 -0.03,0.01 -0.03,0.01 -0.03,0.01 -0.03,0.01 -0.02,0.01 -0.03,0.02 -0.02,0.01 -0.03,0.02 -0.02,0.02 -0.03,0.02 -0.02,0.03 -0.02,0.02 -0.03,0.03 -0.02,0.03 -0.02,0.03 -0.02,0.04 -0.03,0.04 -0.02,0.04 -0.03,0.04 -0.02,0.05 -0.03,0.05 -0.03,0.05 -0.02,0.06 -0.03,0.06 -0.02,0.03 -0.01,0.03 -0.02,0.03 -0.02,0.04 -2.47,5.64 h -0.2 l -2.07,-4.88 c -0.64,-1.45 -0.76,-1.61 -1.24,-1.63 v -0.19 h 1.97 v 0.19 c -0.47,0 -0.67,0.13 -0.67,0.41 0,0.12 0.03,0.26 0.08,0.39 l 0.46,1.16 h 2.6 l -0.14,0.41 h -2.3 l 1.15,2.73 1.15,-2.73 0.14,-0.41 0.41,-0.95 c 0.12,-0.27 0.19,-0.53 0.19,-0.67 0,-0.25 -0.17,-0.33 -0.7,-0.34 v -0.19 h 2.54 z"
         inkscape:connector-curvature="0"
         style="fill:#000000;stroke-width:0" /><path
         id="path15381"
         d="m 242.41,711.08 0,0 0.01,0 0,0.01 0.01,0 0.01,0 0,0 0.01,0.01 0.01,0 0.01,0 0,0 0.02,0 0.02,0.01 0.01,0 0.02,0 0.02,0 0.02,0 0.02,0.01 0.02,0 0.02,0 0.02,0 0.02,0 c 0.27,0 0.36,-0.15 0.36,-0.64 v -2.46 c 0,-0.57 -0.11,-0.71 -0.61,-0.75 v -0.15 h 2.11 v 0.15 c -0.51,0.04 -0.66,0.16 -0.66,0.52 v 2.79 c 0.48,0.45 0.7,0.57 1.02,0.57 0.49,0 0.73,-0.31 0.73,-0.97 v -2.07 c 0,-0.63 -0.13,-0.8 -0.63,-0.84 v -0.15 h 2.07 v 0.15 c -0.48,0.05 -0.6,0.17 -0.6,0.66 v 2.27 c 0,0.94 -0.44,1.5 -1.18,1.5 -0.45,0 -0.76,-0.17 -1.44,-0.81 v 0.78 l -0.07,0.03 c -0.49,-0.18 -0.83,-0.29 -1.37,-0.45 z"
         inkscape:connector-curvature="0"
         style="fill:#000000;stroke-width:0" /><path
         id="path15383"
         d="m 250.36,710.24 -0.04,1.35 h -0.11 l -0.02,-0.01 c -0.09,-0.07 -0.09,-0.08 -0.14,-0.08 -0.06,0 -0.15,0.02 -0.26,0.07 -0.22,0.08 -0.44,0.11 -0.7,0.11 -0.79,0 -1.35,-0.5 -1.35,-1.22 0,-0.55 0.31,-0.95 1.16,-1.43 l 0.58,-0.33 c 0.35,-0.19 0.51,-0.43 0.51,-0.74 0,-0.44 -0.31,-0.72 -0.82,-0.72 -0.34,0 -0.65,0.13 -0.84,0.35 -0.21,0.25 -0.29,0.48 -0.42,1.05 h -0.16 v -1.55 h 0.13 c 0.07,0.09 0.11,0.11 0.22,0.11 0.09,0 0.23,-0.02 0.46,-0.08 0.28,-0.05 0.55,-0.09 0.73,-0.09 0.76,0 1.4,0.57 1.4,1.27 0,0.49 -0.24,0.82 -0.83,1.18 l -1.08,0.63 c -0.28,0.16 -0.43,0.41 -0.43,0.68 0,0.4 0.31,0.68 0.77,0.68 0.57,0 0.87,-0.34 1.09,-1.23 z"
         inkscape:connector-curvature="0"
         style="fill:#000000;stroke-width:0" /><path
         id="path15385"
         d="m 256.79,711.59 v -0.14 c 0.33,-0.07 0.43,-0.14 0.43,-0.31 0,-0.15 -0.06,-0.39 -0.17,-0.66 l -0.89,-2.2 -0.84,2.22 c -0.17,0.46 -0.17,0.46 -0.17,0.59 0,0.22 0.11,0.29 0.58,0.36 v 0.14 h -2.02 v -0.14 c 0.37,-0.04 0.49,-0.15 0.69,-0.69 0.07,-0.19 0.14,-0.38 0.2,-0.56 l -0.91,-1.97 -0.98,2.59 c -0.04,0.1 -0.06,0.2 -0.06,0.3 0,0.21 0.12,0.29 0.45,0.33 v 0.14 h -1.79 v -0.14 c 0.23,-0.02 0.31,-0.12 0.53,-0.63 l 1.34,-3.4 c 0.12,-0.3 0.2,-0.43 0.26,-0.43 0.05,0 0.13,0.12 0.25,0.38 l 1.12,2.39 0.9,-2.35 c 0.14,-0.36 0.18,-0.42 0.24,-0.42 0.07,0 0.12,0.09 0.28,0.48 l 1.37,3.44 c 0.18,0.42 0.21,0.47 0.41,0.54 v 0.14 z"
         inkscape:connector-curvature="0"
         style="fill:#000000;stroke-width:0" /><path
         id="path15387"
         d="m 262.36,708.75 -0.05,-0.07 -0.04,-0.06 -0.05,-0.07 -0.04,-0.06 -0.04,-0.06 -0.05,-0.05 -0.04,-0.06 -0.05,-0.05 -0.04,-0.05 -0.04,-0.04 -0.05,-0.05 -0.04,-0.04 -0.05,-0.04 -0.04,-0.03 -0.05,-0.04 -0.04,-0.03 -0.05,-0.03 -0.05,-0.03 -0.05,-0.02 -0.04,-0.03 -0.05,-0.02 -0.05,-0.02 -0.05,-0.02 -0.05,-0.01 -0.05,-0.02 -0.06,-0.01 -0.05,-0.01 -0.06,-0.01 -0.05,0 -0.06,-0.01 -0.06,0 -0.05,0 c -0.57,0 -1,0.29 -1.29,0.86 -0.18,0.37 -0.25,0.7 -0.27,1.31 l 0.02,0.32 c 0.11,0.77 0.45,1.14 1.06,1.14 0.6,0 0.84,-0.28 0.97,-1.14 h -2.03 l -0.02,-0.32 h 3.07 c -0.08,0.64 -0.18,0.93 -0.43,1.25 -0.3,0.36 -0.76,0.57 -1.27,0.57 -0.5,0 -0.97,-0.18 -1.35,-0.52 -0.46,-0.41 -0.73,-1.11 -0.73,-1.93 0,-1.37 0.71,-2.22 1.86,-2.22 0.94,0 1.69,0.58 2.11,1.65 z"
         inkscape:connector-curvature="0"
         style="fill:#000000;stroke-width:0" /><path
         id="path15389"
         d="m 262.79,711 0.01,0 0.02,0 0.01,0.01 0.01,0 0.02,0 0.03,0.01 0.02,0 0.02,0 0.02,0.01 0.02,0 0.02,0 0.02,0 0.02,0.01 0.02,0 0.02,0 0.03,0 0.02,0 0.02,0 c 0.25,0 0.34,-0.16 0.34,-0.6 v -2.48 c 0,-0.5 -0.07,-0.57 -0.71,-0.69 v -0.15 h 2.39 v 0.15 c -0.68,0.03 -0.85,0.18 -0.85,0.75 v 2.23 c 0,0.32 0.43,0.82 0.7,0.82 0.06,0 0.15,-0.05 0.26,-0.15 0.16,-0.14 0.27,-0.2 0.4,-0.2 0.23,0 0.38,0.17 0.38,0.45 0,0.33 -0.2,0.53 -0.54,0.53 -0.42,0 -0.71,-0.23 -1.2,-0.94 v 0.91 l -0.05,0.03 c -0.52,-0.22 -0.88,-0.35 -1.47,-0.54 z"
         inkscape:connector-curvature="0"
         style="fill:#000000;stroke-width:0" /><polygon
         id="polygon15391"
         points="271.64,710.4 276.73,710.4 276.73,710.96 271.64,710.96 "
         style="fill:#000000;stroke-width:0" /><polygon
         id="polygon15393"
         points="271.64,708.39 276.73,708.39 276.73,708.94 271.64,708.94 "
         style="fill:#000000;stroke-width:0" /><path
         id="path15395"
         d="m 283.06,713.84 -0.07,-0.04 -0.06,-0.05 -0.07,-0.04 -0.06,-0.04 -0.06,-0.04 -0.05,-0.04 -0.06,-0.04 -0.05,-0.03 -0.05,-0.04 -0.05,-0.04 -0.05,-0.03 -0.04,-0.04 -0.05,-0.03 -0.04,-0.04 -0.08,-0.06 -0.08,-0.07 -0.07,-0.07 -0.07,-0.07 -0.07,-0.07 -0.07,-0.07 -0.07,-0.08 -0.07,-0.08 -0.06,-0.08 c -0.71,-0.87 -1.06,-1.86 -1.06,-3.02 0,-1.26 0.37,-2.24 1.25,-3.25 0.4,-0.48 0.66,-0.7 1.18,-1.01 l 0.12,0.16 c -0.8,0.62 -1.08,0.97 -1.35,1.71 -0.23,0.67 -0.34,1.42 -0.34,2.42 0,1.04 0.13,1.86 0.4,2.47 0.27,0.62 0.57,0.97 1.29,1.55 z"
         inkscape:connector-curvature="0"
         style="fill:#000000;stroke-width:0" /><path
         id="path15397"
         d="m 285.97,713.84 -0.05,0 -0.05,0 -0.05,0 -0.05,-0.01 -0.05,0 -0.05,-0.01 -0.04,0 -0.05,-0.01 -0.04,-0.01 -0.05,-0.01 -0.04,-0.01 -0.05,-0.01 -0.04,-0.01 -0.04,-0.02 -0.04,-0.01 -0.05,-0.02 -0.04,-0.01 -0.04,-0.02 -0.04,-0.02 -0.04,-0.02 -0.03,-0.02 -0.04,-0.02 -0.04,-0.03 -0.04,-0.02 -0.04,-0.02 -0.03,-0.03 -0.04,-0.03 -0.03,-0.02 -0.04,-0.03 -0.04,-0.03 -0.03,-0.03 -0.03,-0.04 c -0.58,-0.55 -0.96,-1.7 -0.96,-2.86 0,-1.08 0.33,-2.24 0.8,-2.8 0.36,-0.44 0.87,-0.67 1.45,-0.67 v 0.25 c -0.86,0 -1.29,1.07 -1.29,3.13 0,2.11 0.44,3.21 1.3,3.21 h 0 c 0.83,0 1.28,-1.12 1.28,-3.2 0,-2.07 -0.44,-3.14 -1.29,-3.14 v -0.25 c 0.51,0 0.93,0.17 1.29,0.51 0.58,0.55 0.96,1.7 0.96,2.9 0,2.04 -0.91,3.44 -2.21,3.44 z"
         inkscape:connector-curvature="0"
         style="fill:#000000;stroke-width:0" /><path
         id="path15399"
         d="m 291.32,713.84 -1.79,-0.9 v -0.14 c 0.12,0.05 0.23,0.09 0.27,0.11 0.18,0.07 0.34,0.11 0.44,0.11 0.21,0 0.3,-0.15 0.3,-0.47 v -4.5 c 0,-0.33 -0.08,-0.56 -0.24,-0.65 -0.15,-0.09 -0.28,-0.12 -0.7,-0.13 v -0.15 h 2.74 v 0.15 c -0.78,0.01 -0.94,0.11 -0.94,0.59 v 5.96 z"
         inkscape:connector-curvature="0"
         style="fill:#000000;stroke-width:0" /><path
         id="path15401"
         d="m 295.93,713.84 -0.05,0 -0.05,0 -0.05,0 -0.05,-0.01 -0.05,0 -0.04,-0.01 -0.05,0 -0.05,-0.01 -0.04,-0.01 -0.05,-0.01 -0.04,-0.01 -0.04,-0.01 -0.05,-0.01 -0.04,-0.02 -0.04,-0.01 -0.04,-0.02 -0.04,-0.01 -0.04,-0.02 -0.04,-0.02 -0.04,-0.02 -0.04,-0.02 -0.04,-0.02 -0.04,-0.03 -0.04,-0.02 -0.03,-0.02 -0.04,-0.03 -0.04,-0.03 -0.03,-0.02 -0.04,-0.03 -0.03,-0.03 -0.04,-0.03 -0.03,-0.04 c -0.58,-0.55 -0.96,-1.7 -0.96,-2.86 0,-1.08 0.33,-2.24 0.8,-2.8 0.37,-0.44 0.87,-0.67 1.45,-0.67 v 0.25 c -0.85,0 -1.29,1.07 -1.29,3.13 0,2.11 0.45,3.21 1.3,3.21 h 0 c 0.84,0 1.28,-1.12 1.28,-3.2 0,-2.07 -0.43,-3.14 -1.29,-3.14 v -0.25 c 0.51,0 0.94,0.17 1.29,0.51 0.58,0.55 0.96,1.7 0.96,2.9 0,2.04 -0.91,3.44 -2.21,3.44 z"
         inkscape:connector-curvature="0"
         style="fill:#000000;stroke-width:0" /><path
         id="path15403"
         d="m 301.28,713.84 -1.79,-0.9 v -0.14 c 0.12,0.05 0.23,0.09 0.27,0.11 0.18,0.07 0.35,0.11 0.45,0.11 0.21,0 0.3,-0.15 0.3,-0.47 v -4.5 c 0,-0.33 -0.09,-0.56 -0.24,-0.65 -0.15,-0.09 -0.29,-0.12 -0.71,-0.13 v -0.15 h 2.74 v 0.15 c -0.78,0.01 -0.94,0.11 -0.94,0.59 v 5.96 z"
         inkscape:connector-curvature="0"
         style="fill:#000000;stroke-width:0" /><path
         id="path15405"
         d="m 306.26,713.84 -1.79,-0.9 v -0.14 c 0.12,0.05 0.23,0.09 0.27,0.11 0.18,0.07 0.35,0.11 0.45,0.11 0.21,0 0.3,-0.15 0.3,-0.47 v -4.5 c 0,-0.33 -0.08,-0.56 -0.24,-0.65 -0.15,-0.09 -0.29,-0.12 -0.71,-0.13 v -0.15 h 2.75 v 0.15 c -0.79,0.01 -0.95,0.11 -0.95,0.59 v 5.96 z"
         inkscape:connector-curvature="0"
         style="fill:#000000;stroke-width:0" /><path
         id="path15407"
         d="m 310.88,713.84 -0.06,0 -0.05,0 -0.05,0 -0.04,-0.01 -0.05,0 -0.05,-0.01 -0.05,0 -0.04,-0.01 -0.05,-0.01 -0.04,-0.01 -0.05,-0.01 -0.04,-0.01 -0.04,-0.01 -0.05,-0.02 -0.04,-0.01 -0.04,-0.02 -0.04,-0.01 -0.04,-0.02 -0.04,-0.02 -0.04,-0.02 -0.04,-0.02 -0.04,-0.02 -0.03,-0.03 -0.04,-0.02 -0.04,-0.02 -0.04,-0.03 -0.03,-0.03 -0.04,-0.02 -0.03,-0.03 -0.04,-0.03 -0.03,-0.03 -0.04,-0.04 c -0.58,-0.55 -0.95,-1.7 -0.95,-2.86 0,-1.08 0.33,-2.24 0.79,-2.8 0.37,-0.44 0.88,-0.67 1.45,-0.67 v 0.25 c -0.85,0 -1.29,1.07 -1.29,3.13 0,2.11 0.45,3.21 1.31,3.21 h 0 c 0.83,0 1.28,-1.12 1.28,-3.2 0,-2.07 -0.44,-3.14 -1.3,-3.14 v -0.25 c 0.51,0 0.94,0.17 1.3,0.51 0.58,0.55 0.95,1.7 0.95,2.9 0,2.04 -0.9,3.44 -2.2,3.44 z"
         inkscape:connector-curvature="0"
         style="fill:#000000;stroke-width:0" /><path
         id="path15409"
         d="m 315.86,713.84 -0.05,0 -0.06,0 -0.04,0 -0.05,-0.01 -0.05,0 -0.05,-0.01 -0.05,0 -0.04,-0.01 -0.05,-0.01 -0.04,-0.01 -0.05,-0.01 -0.04,-0.01 -0.04,-0.01 -0.04,-0.02 -0.05,-0.01 -0.04,-0.02 -0.04,-0.01 -0.04,-0.02 -0.04,-0.02 -0.04,-0.02 -0.04,-0.02 -0.03,-0.02 -0.04,-0.03 -0.04,-0.02 -0.04,-0.02 -0.03,-0.03 -0.04,-0.03 -0.04,-0.02 -0.03,-0.03 -0.04,-0.03 -0.03,-0.03 -0.04,-0.04 c -0.57,-0.55 -0.95,-1.7 -0.95,-2.86 0,-1.08 0.33,-2.24 0.79,-2.8 0.37,-0.44 0.88,-0.67 1.46,-0.67 v 0.25 c -0.86,0 -1.3,1.07 -1.3,3.13 0,2.11 0.45,3.21 1.31,3.21 h 0 c 0.83,0 1.28,-1.12 1.28,-3.2 0,-2.07 -0.44,-3.14 -1.29,-3.14 v -0.25 c 0.5,0 0.93,0.17 1.29,0.51 0.58,0.55 0.96,1.7 0.96,2.9 0,2.04 -0.91,3.44 -2.21,3.44 z"
         inkscape:connector-curvature="0"
         style="fill:#000000;stroke-width:0" /><path
         id="path15411"
         d="m 318.69,705.37 0.07,0.04 0.06,0.04 0.06,0.05 0.07,0.04 0.05,0.04 0.06,0.03 0.05,0.04 0.06,0.04 0.05,0.04 0.05,0.03 0.04,0.04 0.05,0.03 0.04,0.04 0.05,0.03 0.08,0.07 0.08,0.07 0.07,0.07 0.07,0.07 0.07,0.07 0.07,0.07 0.07,0.08 0.06,0.08 0.07,0.08 c 0.71,0.86 1.06,1.86 1.06,3.02 0,1.27 -0.37,2.23 -1.25,3.25 -0.41,0.47 -0.66,0.69 -1.18,1.01 l -0.12,-0.16 c 0.79,-0.63 1.06,-0.97 1.34,-1.72 0.24,-0.66 0.35,-1.42 0.35,-2.41 0,-1.03 -0.13,-1.86 -0.4,-2.46 -0.28,-0.63 -0.57,-0.99 -1.29,-1.56 z"
         inkscape:connector-curvature="0"
         style="fill:#000000;stroke-width:0" /><path
         id="path15413"
         d="m 324.94,706.58 -0.09,0.04 c -0.26,-0.4 -0.35,-0.46 -0.67,-0.46 h -1.66 l 1.17,1.22 c 0.62,0.65 0.89,1.18 0.89,1.72 0,0.7 -0.56,1.23 -1.29,1.23 -0.38,0 -0.74,-0.15 -1,-0.43 -0.22,-0.24 -0.33,-0.46 -0.45,-0.95 l 0.15,-0.04 c 0.28,0.68 0.53,0.91 1.01,0.91 0.58,0 0.98,-0.4 0.98,-0.98 0,-0.55 -0.32,-1.19 -0.9,-1.81 l -1.24,-1.32 v -0.08 h 2.71 z"
         inkscape:connector-curvature="0"
         style="fill:#000000;stroke-width:0" /></g>  </g>
</svg>
