<?xml version="1.0" encoding="UTF-8" standalone="no"?>
<!-- Created with Inkscape (http://www.inkscape.org/) -->

<svg
   xmlns:ns0="http://www.iki.fi/pav/software/textext/"
   xmlns:dc="http://purl.org/dc/elements/1.1/"
   xmlns:cc="http://creativecommons.org/ns#"
   xmlns:rdf="http://www.w3.org/1999/02/22-rdf-syntax-ns#"
   xmlns:svg="http://www.w3.org/2000/svg"
   xmlns="http://www.w3.org/2000/svg"
   xmlns:sodipodi="http://sodipodi.sourceforge.net/DTD/sodipodi-0.dtd"
   xmlns:inkscape="http://www.inkscape.org/namespaces/inkscape"
   width="496.06299"
   height="354.33069"
   id="svg2"
   version="1.1"
   inkscape:version="0.48.4 r9939"
   sodipodi:docname="div50.svg">
  <sodipodi:namedview
     id="base"
     pagecolor="#ffffff"
     bordercolor="#666666"
     borderopacity="1.0"
     inkscape:pageopacity="0.0"
     inkscape:pageshadow="2"
     inkscape:zoom="2.3827614"
     inkscape:cx="240.32589"
     inkscape:cy="202.34665"
     inkscape:document-units="cm"
     inkscape:current-layer="layer1"
     showgrid="false"
     units="cm"
     inkscape:object-nodes="true"
     inkscape:window-width="1366"
     inkscape:window-height="744"
     inkscape:window-x="0"
     inkscape:window-y="24"
     inkscape:window-maximized="1">
    <inkscape:grid
       snapvisiblegridlinesonly="true"
       enabled="true"
       visible="true"
       empspacing="5"
       id="grid2985"
       type="xygrid" />
  </sodipodi:namedview>
  <defs
     id="defs4">
    <marker
       style="overflow:visible"
       id="Arrow1Mstart"
       refX="0"
       refY="0"
       orient="auto"
       inkscape:stockid="Arrow1Mstart">
      <path
         transform="matrix(0.4,0,0,0.4,4,0)"
         style="fill-rule:evenodd;stroke:#000000;stroke-width:1pt"
         d="M 0,0 5,-5 -12.5,0 5,5 0,0 z"
         id="path3775"
         inkscape:connector-curvature="0" />
    </marker>
    <marker
       style="overflow:visible"
       id="Arrow1Mend"
       refX="0"
       refY="0"
       orient="auto"
       inkscape:stockid="Arrow1Mend">
      <path
         transform="matrix(-0.4,0,0,-0.4,-4,0)"
         style="fill-rule:evenodd;stroke:#000000;stroke-width:1pt"
         d="M 0,0 5,-5 -12.5,0 5,5 0,0 z"
         id="path3778"
         inkscape:connector-curvature="0" />
    </marker>
    <marker
       inkscape:stockid="Arrow1Mstart"
       orient="auto"
       refY="0"
       refX="0"
       id="Arrow1Mstart-7"
       style="overflow:visible">
      <path
         inkscape:connector-curvature="0"
         id="path3775-8"
         d="M 0,0 5,-5 -12.5,0 5,5 0,0 z"
         style="fill-rule:evenodd;stroke:#000000;stroke-width:1pt"
         transform="matrix(0.4,0,0,0.4,4,0)" />
    </marker>
  </defs>
  <metadata
     id="metadata7">
    <rdf:RDF>
      <cc:Work
         rdf:about="">
        <dc:format>image/svg+xml</dc:format>
        <dc:type
           rdf:resource="http://purl.org/dc/dcmitype/StillImage" />
        <dc:title></dc:title>
      </cc:Work>
    </rdf:RDF>
  </metadata>
  <g
     transform="translate(0,-698.03016)"
     id="layer1"
     inkscape:groupmode="layer"
     inkscape:label="Layer 1">
    <text
       xml:space="preserve"
       style="font-size:12px;font-style:normal;font-variant:normal;font-weight:normal;font-stretch:normal;text-align:start;line-height:100%;letter-spacing:0px;word-spacing:0px;text-anchor:start;fill:#000000;fill-opacity:1;stroke:none;font-family:LMRoman12;-inkscape-font-specification:Sans"
       x="61.700558"
       y="754.07056"
       id="text5818"
       sodipodi:linespacing="100%"><tspan
         sodipodi:role="line"
         id="tspan5820"
         x="61.700558"
         y="754.07056" /></text>
    <flowRoot
       style="font-size:12px;font-style:normal;font-variant:normal;font-weight:normal;font-stretch:normal;text-align:start;line-height:100%;letter-spacing:0px;word-spacing:0px;text-anchor:start;fill:#000000;fill-opacity:1;stroke:none;font-family:LMRoman12;-inkscape-font-specification:Sans"
       id="flowRoot6377"
       xml:space="preserve"><flowRegion
         id="flowRegion6379"><rect
           y="87.141403"
           x="219.34796"
           height="40.319103"
           width="27.681772"
           id="rect6381" /></flowRegion><flowPara
         id="flowPara6383" /></flowRoot>    <text
       sodipodi:linespacing="50%"
       id="text6385"
       y="753.27734"
       x="275.91507"
       style="font-size:12px;font-style:normal;font-variant:normal;font-weight:normal;font-stretch:normal;text-align:start;line-height:50%;letter-spacing:0px;word-spacing:0px;text-anchor:start;fill:#000000;fill-opacity:1;stroke:none;font-family:LMRoman12;-inkscape-font-specification:Sans"
       xml:space="preserve"><tspan
         y="753.27734"
         x="275.91507"
         id="tspan6387"
         sodipodi:role="line" /></text>
    <text
       sodipodi:linespacing="100%"
       id="text3884"
       y="892.41718"
       x="348.65417"
       style="font-size:12px;font-style:normal;font-variant:normal;font-weight:normal;font-stretch:normal;text-align:start;line-height:100%;letter-spacing:0px;word-spacing:0px;text-anchor:start;fill:#000000;fill-opacity:1;stroke:none;font-family:LMRoman12;-inkscape-font-specification:Sans"
       xml:space="preserve"><tspan
         id="tspan3890"
         y="892.41718"
         x="348.65417"
         sodipodi:role="line" /></text>
    <text
       sodipodi:linespacing="150%"
       id="text3887"
       y="948.92749"
       x="216.96629"
       style="font-size:12px;font-style:normal;font-variant:normal;font-weight:normal;font-stretch:normal;text-align:start;line-height:150%;letter-spacing:0px;word-spacing:0px;text-anchor:start;fill:#000000;fill-opacity:1;stroke:none;font-family:LMRoman12;-inkscape-font-specification:Sans"
       xml:space="preserve"><tspan
         y="948.92749"
         x="216.96629"
         id="tspan3889"
         sodipodi:role="line" /></text>
    <text
       sodipodi:linespacing="150%"
       id="text7389"
       y="759.11084"
       x="173"
       style="font-size:12px;font-style:normal;font-variant:normal;font-weight:normal;font-stretch:normal;text-align:start;line-height:150%;letter-spacing:0px;word-spacing:0px;text-anchor:start;fill:#000000;fill-opacity:1;stroke:none;font-family:LMRoman12;-inkscape-font-specification:Sans"
       xml:space="preserve"><tspan
         y="759.11084"
         x="173"
         id="tspan7391"
         sodipodi:role="line" /></text>
    <text
       xml:space="preserve"
       style="font-size:12px;font-style:normal;font-variant:normal;font-weight:normal;font-stretch:normal;text-align:start;line-height:150%;letter-spacing:0px;word-spacing:0px;text-anchor:start;fill:#000000;fill-opacity:1;stroke:none;font-family:LMRoman12;-inkscape-font-specification:Sans"
       x="262.98758"
       y="833.35034"
       id="text12764"
       sodipodi:linespacing="150%"><tspan
         dx="0 0 0"
         sodipodi:role="line"
         id="tspan12766"
         x="262.98758"
         y="833.35034">   1 B 7 6</tspan><tspan
         sodipodi:role="line"
         x="262.98758"
         y="851.35034"
         id="tspan12770">+ F F B 5</tspan></text>
    <text
       transform="translate(0,698.03016)"
       sodipodi:linespacing="150%"
       id="text12776"
       y="185.47461"
       x="347.50522"
       style="font-size:12px;font-style:normal;font-variant:normal;font-weight:normal;font-stretch:normal;text-align:start;line-height:150%;letter-spacing:0px;word-spacing:0px;text-anchor:start;fill:#000000;fill-opacity:1;stroke:none;font-family:LMRoman12;-inkscape-font-specification:Sans"
       xml:space="preserve"><tspan
         y="185.47461"
         x="347.50522"
         id="tspan12778"
         sodipodi:role="line" /></text>
    <path
       inkscape:connector-curvature="0"
       id="path12780"
       d="m 256.41662,857.55347 64.52565,0"
       style="fill:none;stroke:#000000;stroke-width:0.80000001;stroke-linecap:square;stroke-linejoin:round;stroke-miterlimit:4;stroke-opacity:1;stroke-dasharray:none;stroke-dashoffset:0"
       sodipodi:nodetypes="cc" />
    <text
       xml:space="preserve"
       style="font-size:12px;font-style:normal;font-variant:normal;font-weight:normal;font-stretch:normal;text-align:start;line-height:150%;letter-spacing:0px;word-spacing:0px;text-anchor:start;fill:#000000;fill-opacity:1;stroke:none;font-family:LMRoman12;-inkscape-font-specification:Sans"
       x="265.73859"
       y="869.23932"
       id="text12782"
       sodipodi:linespacing="150%"><tspan
         sodipodi:role="line"
         x="265.73859"
         y="869.23932"
         id="tspan12786"
         dx="0 0 0 0 0 0">1 1 B 2 B</tspan><tspan
         sodipodi:role="line"
         x="265.73859"
         y="887.23932"
         id="tspan12788" /></text>
    <text
       xml:space="preserve"
       style="font-size:12px;font-style:normal;font-variant:normal;font-weight:normal;font-stretch:normal;text-align:start;line-height:150%;letter-spacing:0px;word-spacing:0px;text-anchor:start;fill:#000000;fill-opacity:1;stroke:none;font-family:LMRoman12;-inkscape-font-specification:Sans"
       x="208.35962"
       y="870.6402"
       id="text12981"
       sodipodi:linespacing="150%"><tspan
         sodipodi:role="line"
         id="tspan12983"
         x="208.35962"
         y="870.6402">end carry</tspan></text>
    <path
       sodipodi:nodetypes="cccc"
       inkscape:connector-curvature="0"
       id="path14827"
       d="m 268.83028,872.09289 0.0117,5.4557 c 0,3.26621 2.0336,4.43228 4.5037,4.43228 l 34.84421,0"
       style="fill:none;stroke:#000000;stroke-width:0.80000001;stroke-linecap:square;stroke-linejoin:round;stroke-miterlimit:4;stroke-opacity:1;stroke-dasharray:none;stroke-dashoffset:0;marker-start:none;marker-end:url(#Arrow1Mend)" />
    <path
       transform="matrix(1.2187317,0,0,1.2187317,-58.765953,643.32629)"
       d="m 272.8109,182.19679 c 0,2.98466 -1.85538,5.40421 -4.14412,5.40421 -2.28874,0 -4.14413,-2.41955 -4.14413,-5.40421 0,-2.98466 1.85539,-5.40421 4.14413,-5.40421 2.28874,0 4.14412,2.41955 4.14412,5.40421 z"
       sodipodi:ry="5.4042087"
       sodipodi:rx="4.144124"
       sodipodi:cy="182.19679"
       sodipodi:cx="268.66678"
       id="path3764"
       style="fill:none;stroke:#000000;stroke-width:0.49231508;stroke-linecap:square;stroke-linejoin:round;stroke-miterlimit:4;stroke-opacity:1;stroke-dasharray:none;stroke-dashoffset:0"
       sodipodi:type="arc" />
    <text
       sodipodi:linespacing="150%"
       id="text3766"
       y="885.1521"
       x="306.15714"
       style="font-size:12px;font-style:normal;font-variant:normal;font-weight:normal;font-stretch:normal;text-align:start;line-height:150%;letter-spacing:0px;word-spacing:0px;text-anchor:start;fill:#000000;fill-opacity:1;stroke:none;font-family:LMRoman12;-inkscape-font-specification:Sans"
       xml:space="preserve"><tspan
         y="885.1521"
         x="306.15714"
         id="tspan3768"
         sodipodi:role="line"
         dx="3.0426891">1</tspan></text>
    <path
       style="fill:none;stroke:#000000;stroke-width:0.80000001;stroke-linecap:square;stroke-linejoin:round;stroke-miterlimit:4;stroke-opacity:1;stroke-dasharray:none;stroke-dashoffset:0"
       d="m 256.41662,888.37452 64.52565,0"
       id="path3770"
       inkscape:connector-curvature="0"
       sodipodi:nodetypes="cc" />
    <text
       sodipodi:linespacing="150%"
       id="text3772"
       y="900.06036"
       x="275.53546"
       style="font-size:12px;font-style:normal;font-variant:normal;font-weight:normal;font-stretch:normal;text-align:start;line-height:150%;letter-spacing:0px;word-spacing:0px;text-anchor:start;fill:#000000;fill-opacity:1;stroke:none;font-family:LMRoman12;-inkscape-font-specification:Sans"
       xml:space="preserve"><tspan
         id="tspan3774"
         y="900.06036"
         x="275.53546"
         sodipodi:role="line">1 B 2 C</tspan><tspan
         id="tspan3776"
         y="918.06036"
         x="275.53546"
         sodipodi:role="line" /></text>
    <text
       sodipodi:linespacing="150%"
       id="text3383"
       y="833.43433"
       x="122.24146"
       style="font-size:12px;font-style:normal;font-variant:normal;font-weight:normal;font-stretch:normal;text-align:start;line-height:150%;letter-spacing:0px;word-spacing:0px;text-anchor:start;fill:#000000;fill-opacity:1;stroke:none;font-family:LMRoman12;-inkscape-font-specification:Sans"
       xml:space="preserve"><tspan
         y="833.43433"
         x="122.24146"
         id="tspan3385"
         sodipodi:role="line">Now</tspan></text>
    <g
       style="font-style:normal;font-variant:normal;font-weight:normal;font-stretch:normal;letter-spacing:normal;word-spacing:normal;text-anchor:start;fill:none;stroke:#000000;stroke-width:1;stroke-linecap:butt;stroke-linejoin:miter;stroke-miterlimit:10.43299961;stroke-opacity:1;stroke-dasharray:none;stroke-dashoffset:0"
       ns0:preamble="/home/sriranga/Desktop/Prism_BasicElectronics/preamble.tex"
       ns0:text="$\\therefore $~ Answer~ $= (1B2C)_{16}$ "
       word-spacing="normal"
       letter-spacing="normal"
       font-size-adjust="none"
       font-stretch="normal"
       font-weight="normal"
       font-variant="normal"
       font-style="normal"
       stroke-miterlimit="10.433"
       xml:space="preserve"
       transform="matrix(1.2,0,0,-1.2,-64.073124,1768.7564)"
       id="content"><path
         id="path3866"
         d="m 227.27,711.21 0,0.02 0,0.03 0,0.03 -0.01,0.02 0,0.03 -0.01,0.02 -0.01,0.03 -0.01,0.02 -0.01,0.02 -0.01,0.03 -0.01,0.02 -0.02,0.02 -0.01,0.02 -0.02,0.02 -0.02,0.02 -0.01,0.02 -0.02,0.02 -0.02,0.01 -0.02,0.02 -0.02,0.01 -0.02,0.02 -0.02,0.01 -0.03,0.01 -0.02,0.01 -0.02,0.01 -0.03,0.01 -0.02,0.01 -0.03,0 -0.03,0.01 -0.02,0 -0.03,0 -0.03,0 c -0.28,0 -0.52,-0.23 -0.52,-0.52 0,-0.29 0.24,-0.53 0.52,-0.53 0.28,0 0.53,0.23 0.53,0.53 z"
         inkscape:connector-curvature="0"
         style="fill:#000000;stroke-width:0" /><path
         id="path3868"
         d="m 229.76,706.91 0,0.02 0,0.03 -0.01,0.03 0,0.02 -0.01,0.03 0,0.02 -0.01,0.03 -0.01,0.02 -0.01,0.02 -0.01,0.03 -0.02,0.02 -0.01,0.02 -0.02,0.02 -0.01,0.02 -0.02,0.02 -0.02,0.02 -0.01,0.02 -0.02,0.01 -0.02,0.02 -0.02,0.01 -0.03,0.02 -0.02,0.01 -0.02,0.01 -0.02,0.01 -0.03,0.01 -0.02,0.01 -0.03,0.01 -0.02,0 -0.03,0.01 -0.02,0 -0.03,0 -0.03,0 c -0.29,0 -0.52,-0.24 -0.52,-0.52 0,-0.29 0.23,-0.53 0.52,-0.53 0.29,0 0.53,0.24 0.53,0.53 z"
         inkscape:connector-curvature="0"
         style="fill:#000000;stroke-width:0" /><path
         id="path3870"
         d="m 224.79,706.91 -0.01,0.02 0,0.03 0,0.03 -0.01,0.02 0,0.03 -0.01,0.02 -0.01,0.03 -0.01,0.02 -0.01,0.02 -0.01,0.03 -0.01,0.02 -0.02,0.02 -0.01,0.02 -0.02,0.02 -0.01,0.02 -0.02,0.02 -0.02,0.02 -0.02,0.01 -0.02,0.02 -0.02,0.01 -0.02,0.02 -0.02,0.01 -0.02,0.01 -0.03,0.01 -0.02,0.01 -0.03,0.01 -0.02,0.01 -0.03,0 -0.02,0.01 -0.03,0 -0.03,0 -0.02,0 c -0.29,0 -0.53,-0.24 -0.53,-0.52 0,-0.29 0.24,-0.53 0.53,-0.53 0.29,0 0.53,0.24 0.53,0.53 z"
         inkscape:connector-curvature="0"
         style="fill:#000000;stroke-width:0" /><path
         id="path3872"
         d="m 242.08,707.31 -0.04,0.01 -0.04,0 -0.04,0 -0.03,0.01 -0.04,0.01 -0.03,0 -0.03,0.01 -0.03,0.01 -0.03,0.01 -0.03,0.01 -0.02,0.01 -0.03,0.02 -0.02,0.01 -0.03,0.02 -0.02,0.02 -0.03,0.02 -0.02,0.03 -0.02,0.02 -0.03,0.03 -0.02,0.03 -0.02,0.03 -0.02,0.04 -0.03,0.04 -0.02,0.04 -0.03,0.04 -0.02,0.05 -0.03,0.05 -0.03,0.05 -0.02,0.06 -0.03,0.06 -0.02,0.03 -0.01,0.03 -0.02,0.03 -0.02,0.04 -2.47,5.64 h -0.2 l -2.07,-4.88 c -0.64,-1.45 -0.76,-1.61 -1.24,-1.63 v -0.19 h 1.97 v 0.19 c -0.47,0 -0.67,0.13 -0.67,0.41 0,0.12 0.03,0.26 0.08,0.39 l 0.46,1.16 h 2.6 l -0.14,0.41 h -2.3 l 1.15,2.73 1.15,-2.73 0.14,-0.41 0.41,-0.95 c 0.12,-0.27 0.19,-0.53 0.19,-0.67 0,-0.25 -0.17,-0.33 -0.7,-0.34 v -0.19 h 2.54 z"
         inkscape:connector-curvature="0"
         style="fill:#000000;stroke-width:0" /><path
         id="path3874"
         d="m 242.41,711.08 0,0 0.01,0 0,0.01 0.01,0 0.01,0 0,0 0.01,0.01 0.01,0 0.01,0 0,0 0.02,0 0.02,0.01 0.01,0 0.02,0 0.02,0 0.02,0 0.02,0.01 0.02,0 0.02,0 0.02,0 0.02,0 c 0.27,0 0.36,-0.15 0.36,-0.64 v -2.46 c 0,-0.57 -0.11,-0.71 -0.61,-0.75 v -0.15 h 2.11 v 0.15 c -0.51,0.04 -0.66,0.16 -0.66,0.52 v 2.79 c 0.48,0.45 0.7,0.57 1.02,0.57 0.49,0 0.73,-0.31 0.73,-0.97 v -2.07 c 0,-0.63 -0.13,-0.8 -0.63,-0.84 v -0.15 h 2.07 v 0.15 c -0.48,0.05 -0.6,0.17 -0.6,0.66 v 2.27 c 0,0.94 -0.44,1.5 -1.18,1.5 -0.45,0 -0.76,-0.17 -1.44,-0.81 v 0.78 l -0.07,0.03 c -0.49,-0.18 -0.83,-0.29 -1.37,-0.45 z"
         inkscape:connector-curvature="0"
         style="fill:#000000;stroke-width:0" /><path
         id="path3876"
         d="m 250.36,710.24 -0.04,1.35 h -0.11 l -0.02,-0.01 c -0.09,-0.07 -0.09,-0.08 -0.14,-0.08 -0.06,0 -0.15,0.02 -0.26,0.07 -0.22,0.08 -0.44,0.11 -0.7,0.11 -0.79,0 -1.35,-0.5 -1.35,-1.22 0,-0.55 0.31,-0.95 1.16,-1.43 l 0.58,-0.33 c 0.35,-0.19 0.51,-0.43 0.51,-0.74 0,-0.44 -0.31,-0.72 -0.82,-0.72 -0.34,0 -0.65,0.13 -0.84,0.35 -0.21,0.25 -0.29,0.48 -0.42,1.05 h -0.16 v -1.55 h 0.13 c 0.07,0.09 0.11,0.11 0.22,0.11 0.09,0 0.23,-0.02 0.46,-0.08 0.28,-0.05 0.55,-0.09 0.73,-0.09 0.76,0 1.4,0.57 1.4,1.27 0,0.49 -0.24,0.82 -0.83,1.18 l -1.08,0.63 c -0.28,0.16 -0.43,0.41 -0.43,0.68 0,0.4 0.31,0.68 0.77,0.68 0.57,0 0.87,-0.34 1.09,-1.23 z"
         inkscape:connector-curvature="0"
         style="fill:#000000;stroke-width:0" /><path
         id="path3878"
         d="m 256.79,711.59 v -0.14 c 0.33,-0.07 0.43,-0.14 0.43,-0.31 0,-0.15 -0.06,-0.39 -0.17,-0.66 l -0.89,-2.2 -0.84,2.22 c -0.17,0.46 -0.17,0.46 -0.17,0.59 0,0.22 0.11,0.29 0.58,0.36 v 0.14 h -2.02 v -0.14 c 0.37,-0.04 0.49,-0.15 0.69,-0.69 0.07,-0.19 0.14,-0.38 0.2,-0.56 l -0.91,-1.97 -0.98,2.59 c -0.04,0.1 -0.06,0.2 -0.06,0.3 0,0.21 0.12,0.29 0.45,0.33 v 0.14 h -1.79 v -0.14 c 0.23,-0.02 0.31,-0.12 0.53,-0.63 l 1.34,-3.4 c 0.12,-0.3 0.2,-0.43 0.26,-0.43 0.05,0 0.13,0.12 0.25,0.38 l 1.12,2.39 0.9,-2.35 c 0.14,-0.36 0.18,-0.42 0.24,-0.42 0.07,0 0.12,0.09 0.28,0.48 l 1.37,3.44 c 0.18,0.42 0.21,0.47 0.41,0.54 v 0.14 z"
         inkscape:connector-curvature="0"
         style="fill:#000000;stroke-width:0" /><path
         id="path3880"
         d="m 262.36,708.75 -0.05,-0.07 -0.04,-0.06 -0.05,-0.07 -0.04,-0.06 -0.04,-0.06 -0.05,-0.05 -0.04,-0.06 -0.05,-0.05 -0.04,-0.05 -0.04,-0.04 -0.05,-0.05 -0.04,-0.04 -0.05,-0.04 -0.04,-0.03 -0.05,-0.04 -0.04,-0.03 -0.05,-0.03 -0.05,-0.03 -0.05,-0.02 -0.04,-0.03 -0.05,-0.02 -0.05,-0.02 -0.05,-0.02 -0.05,-0.01 -0.05,-0.02 -0.06,-0.01 -0.05,-0.01 -0.06,-0.01 -0.05,0 -0.06,-0.01 -0.06,0 -0.05,0 c -0.57,0 -1,0.29 -1.29,0.86 -0.18,0.37 -0.25,0.7 -0.27,1.31 l 0.02,0.32 c 0.11,0.77 0.45,1.14 1.06,1.14 0.6,0 0.84,-0.28 0.97,-1.14 h -2.03 l -0.02,-0.32 h 3.07 c -0.08,0.64 -0.18,0.93 -0.43,1.25 -0.3,0.36 -0.76,0.57 -1.27,0.57 -0.5,0 -0.97,-0.18 -1.35,-0.52 -0.46,-0.41 -0.73,-1.11 -0.73,-1.93 0,-1.37 0.71,-2.22 1.86,-2.22 0.94,0 1.69,0.58 2.11,1.65 z"
         inkscape:connector-curvature="0"
         style="fill:#000000;stroke-width:0" /><path
         id="path3882"
         d="m 262.79,711 0.01,0 0.02,0 0.01,0.01 0.01,0 0.02,0 0.03,0.01 0.02,0 0.02,0 0.02,0.01 0.02,0 0.02,0 0.02,0 0.02,0.01 0.02,0 0.02,0 0.03,0 0.02,0 0.02,0 c 0.25,0 0.34,-0.16 0.34,-0.6 v -2.48 c 0,-0.5 -0.07,-0.57 -0.71,-0.69 v -0.15 h 2.39 v 0.15 c -0.68,0.03 -0.85,0.18 -0.85,0.75 v 2.23 c 0,0.32 0.43,0.82 0.7,0.82 0.06,0 0.15,-0.05 0.26,-0.15 0.16,-0.14 0.27,-0.2 0.4,-0.2 0.23,0 0.38,0.17 0.38,0.45 0,0.33 -0.2,0.53 -0.54,0.53 -0.42,0 -0.71,-0.23 -1.2,-0.94 v 0.91 l -0.05,0.03 c -0.52,-0.22 -0.88,-0.35 -1.47,-0.54 z"
         inkscape:connector-curvature="0"
         style="fill:#000000;stroke-width:0" /><polygon
         id="polygon3884"
         points="271.64,710.4 276.73,710.4 276.73,710.96 271.64,710.96 "
         style="fill:#000000;stroke-width:0" /><polygon
         id="polygon3886"
         points="271.64,708.39 276.73,708.39 276.73,708.94 271.64,708.94 "
         style="fill:#000000;stroke-width:0" /><path
         id="path3888"
         d="m 283.06,713.84 -0.07,-0.04 -0.06,-0.05 -0.07,-0.04 -0.06,-0.04 -0.06,-0.04 -0.05,-0.04 -0.06,-0.04 -0.05,-0.03 -0.05,-0.04 -0.05,-0.04 -0.05,-0.03 -0.04,-0.04 -0.05,-0.03 -0.04,-0.04 -0.08,-0.06 -0.08,-0.07 -0.07,-0.07 -0.07,-0.07 -0.07,-0.07 -0.07,-0.07 -0.07,-0.08 -0.07,-0.08 -0.06,-0.08 c -0.71,-0.87 -1.06,-1.86 -1.06,-3.02 0,-1.26 0.37,-2.24 1.25,-3.25 0.4,-0.48 0.66,-0.7 1.18,-1.01 l 0.12,0.16 c -0.8,0.62 -1.08,0.97 -1.35,1.71 -0.23,0.67 -0.34,1.42 -0.34,2.42 0,1.04 0.13,1.86 0.4,2.47 0.27,0.62 0.57,0.97 1.29,1.55 z"
         inkscape:connector-curvature="0"
         style="fill:#000000;stroke-width:0" /><path
         id="path3890"
         d="m 286.34,713.84 -1.79,-0.9 v -0.14 c 0.12,0.05 0.22,0.09 0.27,0.11 0.17,0.07 0.34,0.11 0.44,0.11 0.21,0 0.3,-0.15 0.3,-0.47 v -4.5 c 0,-0.33 -0.08,-0.56 -0.24,-0.65 -0.15,-0.09 -0.29,-0.12 -0.7,-0.13 v -0.15 h 2.74 v 0.15 c -0.78,0.01 -0.94,0.11 -0.94,0.59 v 5.96 z"
         inkscape:connector-curvature="0"
         style="fill:#000000;stroke-width:0" /><path
         id="path3892"
         d="m 288.69,707.12 h 2.81 c 1.56,0 2.63,0.82 2.63,1.99 0,0.37 -0.12,0.72 -0.33,0.94 -0.2,0.22 -0.4,0.34 -0.92,0.56 0.71,0.17 1,0.29 1.31,0.57 0.28,0.24 0.43,0.57 0.43,0.97 0,0.94 -0.7,1.46 -1.99,1.46 l -0.18,-0.3 c 0.8,0 1.17,-0.33 1.17,-1.07 0,-0.57 -0.24,-1 -0.67,-1.24 -0.34,-0.2 -0.82,-0.27 -1.71,-0.27 l -0.1,-0.32 c 0.65,0 1.06,-0.04 1.26,-0.12 0.41,-0.17 0.66,-0.6 0.66,-1.14 0,-1.07 -0.74,-1.73 -1.95,-1.73 -0.42,0 -0.64,0.15 -0.64,0.42 0,0.12 0.12,0.6 0.35,1.39 0.13,0.45 0.19,0.68 0.32,1.18 h 0 l 0.1,0.32 0.65,2.31 c 0.06,0.21 0.17,0.27 0.56,0.27 l 0.18,0.3 h -2.57 v -0.16 c 0.62,-0.05 0.77,-0.13 0.77,-0.4 0,-0.15 -0.04,-0.4 -0.11,-0.64 l -1.22,-4.39 c -0.18,-0.58 -0.25,-0.64 -0.81,-0.74 z"
         inkscape:connector-curvature="0"
         style="fill:#000000;stroke-width:0" /><path
         id="path3894"
         d="m 299.48,708.49 -0.12,0.05 c -0.37,-0.57 -0.5,-0.66 -0.95,-0.66 h -2.38 l 1.67,1.75 c 0.89,0.92 1.28,1.68 1.28,2.45 0,1 -0.81,1.76 -1.84,1.76 -0.55,0 -1.07,-0.22 -1.44,-0.62 -0.31,-0.33 -0.46,-0.65 -0.63,-1.36 l 0.21,-0.05 c 0.39,0.98 0.75,1.29 1.44,1.29 0.83,0 1.4,-0.56 1.4,-1.39 0,-0.78 -0.46,-1.7 -1.29,-2.59 l -1.77,-1.88 v -0.12 h 3.88 z"
         inkscape:connector-curvature="0"
         style="fill:#000000;stroke-width:0" /><path
         id="path3896"
         d="m 305.98,711.74 0.37,1.98 h -0.21 c -0.08,-0.16 -0.18,-0.22 -0.38,-0.22 -0.08,0 -0.2,0.02 -0.41,0.07 -0.45,0.11 -0.84,0.17 -1.16,0.17 -2.12,0 -4.04,-2 -4.04,-4.2 0,-1.52 1.07,-2.59 2.59,-2.59 1.03,0 1.83,0.43 2.72,1.48 l -0.17,0.14 c -0.89,-0.88 -1.47,-1.18 -2.29,-1.18 -1.1,0 -1.74,0.76 -1.74,2.04 0,1.18 0.48,2.38 1.26,3.19 0.47,0.48 1.1,0.76 1.76,0.76 0.91,0 1.42,-0.53 1.52,-1.61 z"
         inkscape:connector-curvature="0"
         style="fill:#000000;stroke-width:0" /><path
         id="path3898"
         d="m 306.98,705.37 0.07,0.04 0.07,0.04 0.06,0.05 0.06,0.04 0.06,0.04 0.05,0.03 0.06,0.04 0.05,0.04 0.05,0.04 0.05,0.03 0.05,0.04 0.04,0.03 0.05,0.04 0.04,0.03 0.08,0.07 0.08,0.07 0.07,0.07 0.08,0.07 0.07,0.07 0.06,0.07 0.07,0.08 0.07,0.08 0.07,0.08 c 0.7,0.86 1.05,1.86 1.05,3.02 0,1.27 -0.37,2.23 -1.24,3.25 -0.41,0.47 -0.67,0.69 -1.19,1.01 l -0.12,-0.16 c 0.8,-0.63 1.07,-0.97 1.35,-1.72 0.24,-0.66 0.34,-1.42 0.34,-2.41 0,-1.03 -0.12,-1.86 -0.39,-2.46 -0.28,-0.63 -0.58,-0.99 -1.3,-1.56 z"
         inkscape:connector-curvature="0"
         style="fill:#000000;stroke-width:0" /><path
         id="path3900"
         d="m 311.95,710.33 -1.25,-0.63 v -0.1 c 0.08,0.04 0.16,0.06 0.18,0.08 0.13,0.05 0.25,0.08 0.32,0.08 0.14,0 0.2,-0.11 0.2,-0.33 v -3.15 c 0,-0.23 -0.05,-0.39 -0.16,-0.45 -0.11,-0.07 -0.2,-0.09 -0.5,-0.1 v -0.1 h 1.93 v 0.1 c -0.55,0.01 -0.67,0.08 -0.67,0.42 v 4.17 z"
         inkscape:connector-curvature="0"
         style="fill:#000000;stroke-width:0" /><path
         id="path3902"
         d="m 316.52,710.39 -0.08,-0.01 -0.07,-0.01 -0.07,0 -0.07,-0.01 -0.06,-0.01 -0.06,-0.01 -0.07,-0.01 -0.06,-0.01 -0.05,-0.01 -0.06,-0.01 -0.06,-0.01 -0.05,-0.02 -0.05,-0.01 -0.05,-0.01 -0.11,-0.03 -0.09,-0.04 -0.1,-0.04 -0.09,-0.04 -0.09,-0.04 -0.09,-0.05 -0.09,-0.06 -0.1,-0.06 -0.04,-0.03 -0.05,-0.03 c -0.75,-0.53 -1.16,-1.33 -1.16,-2.26 0,-0.6 0.18,-1.22 0.48,-1.56 0.27,-0.31 0.64,-0.48 1.08,-0.48 0.86,0 1.46,0.66 1.46,1.62 0,0.89 -0.51,1.46 -1.31,1.46 -0.31,0 -0.45,-0.05 -0.89,-0.32 l 0.02,-0.18 c 0.15,0.11 0.36,0.18 0.6,0.18 h 0 c 0.6,0 0.95,-0.5 0.95,-1.37 0,-0.77 -0.27,-1.19 -0.76,-1.19 -0.61,0 -0.99,0.65 -0.99,1.73 0,0.35 0.06,0.55 0.2,0.65 l -0.02,0.18 c 0.19,1.05 0.97,1.8 2.06,1.99 z"
         inkscape:connector-curvature="0"
         style="fill:#000000;stroke-width:0" /></g>  </g>
</svg>
