<?xml version="1.0" encoding="UTF-8" standalone="no"?>
<!-- Created with Inkscape (http://www.inkscape.org/) -->

<svg
   xmlns:ns0="http://www.iki.fi/pav/software/textext/"
   xmlns:dc="http://purl.org/dc/elements/1.1/"
   xmlns:cc="http://creativecommons.org/ns#"
   xmlns:rdf="http://www.w3.org/1999/02/22-rdf-syntax-ns#"
   xmlns:svg="http://www.w3.org/2000/svg"
   xmlns="http://www.w3.org/2000/svg"
   xmlns:sodipodi="http://sodipodi.sourceforge.net/DTD/sodipodi-0.dtd"
   xmlns:inkscape="http://www.inkscape.org/namespaces/inkscape"
   width="496.06299"
   height="354.33069"
   id="svg2"
   version="1.1"
   inkscape:version="0.48.4 r9939"
   sodipodi:docname="div53.svg">
  <sodipodi:namedview
     id="base"
     pagecolor="#ffffff"
     bordercolor="#666666"
     borderopacity="1.0"
     inkscape:pageopacity="0.0"
     inkscape:pageshadow="2"
     inkscape:zoom="2.3827614"
     inkscape:cx="181.80997"
     inkscape:cy="224.78144"
     inkscape:document-units="cm"
     inkscape:current-layer="layer1"
     showgrid="false"
     units="cm"
     inkscape:object-nodes="true"
     inkscape:window-width="1366"
     inkscape:window-height="744"
     inkscape:window-x="0"
     inkscape:window-y="24"
     inkscape:window-maximized="1">
    <inkscape:grid
       type="xygrid"
       id="grid2985"
       empspacing="5"
       visible="true"
       enabled="true"
       snapvisiblegridlinesonly="true" />
  </sodipodi:namedview>
  <defs
     id="defs4">
    <marker
       inkscape:stockid="Arrow1Mstart"
       orient="auto"
       refY="0"
       refX="0"
       id="Arrow1Mstart"
       style="overflow:visible">
      <path
         inkscape:connector-curvature="0"
         id="path3775"
         d="M 0,0 5,-5 -12.5,0 5,5 0,0 z"
         style="fill-rule:evenodd;stroke:#000000;stroke-width:1pt"
         transform="matrix(0.4,0,0,0.4,4,0)" />
    </marker>
    <marker
       inkscape:stockid="Arrow1Mend"
       orient="auto"
       refY="0"
       refX="0"
       id="Arrow1Mend"
       style="overflow:visible">
      <path
         inkscape:connector-curvature="0"
         id="path3778"
         d="M 0,0 5,-5 -12.5,0 5,5 0,0 z"
         style="fill-rule:evenodd;stroke:#000000;stroke-width:1pt"
         transform="matrix(-0.4,0,0,-0.4,-4,0)" />
    </marker>
    <marker
       style="overflow:visible"
       id="Arrow1Mstart-7"
       refX="0"
       refY="0"
       orient="auto"
       inkscape:stockid="Arrow1Mstart">
      <path
         transform="matrix(0.4,0,0,0.4,4,0)"
         style="fill-rule:evenodd;stroke:#000000;stroke-width:1pt"
         d="M 0,0 5,-5 -12.5,0 5,5 0,0 z"
         id="path3775-8"
         inkscape:connector-curvature="0" />
    </marker>
  </defs>
  <metadata
     id="metadata7">
    <rdf:RDF>
      <cc:Work
         rdf:about="">
        <dc:format>image/svg+xml</dc:format>
        <dc:type
           rdf:resource="http://purl.org/dc/dcmitype/StillImage" />
        <dc:title></dc:title>
      </cc:Work>
    </rdf:RDF>
  </metadata>
  <g
     inkscape:label="Layer 1"
     inkscape:groupmode="layer"
     id="layer1"
     transform="translate(0,-698.03016)">
    <text
       sodipodi:linespacing="100%"
       id="text5818"
       y="754.07056"
       x="61.700558"
       style="font-size:12px;font-style:normal;font-variant:normal;font-weight:normal;font-stretch:normal;text-align:start;line-height:100%;letter-spacing:0px;word-spacing:0px;text-anchor:start;fill:#000000;fill-opacity:1;stroke:none;font-family:LMRoman12;-inkscape-font-specification:Sans"
       xml:space="preserve"><tspan
         y="754.07056"
         x="61.700558"
         id="tspan5820"
         sodipodi:role="line" /></text>
    <flowRoot
       xml:space="preserve"
       id="flowRoot6377"
       style="font-size:12px;font-style:normal;font-variant:normal;font-weight:normal;font-stretch:normal;text-align:start;line-height:100%;letter-spacing:0px;word-spacing:0px;text-anchor:start;fill:#000000;fill-opacity:1;stroke:none;font-family:LMRoman12;-inkscape-font-specification:Sans"><flowRegion
         id="flowRegion6379"><rect
           id="rect6381"
           width="27.681772"
           height="40.319103"
           x="219.34796"
           y="87.141403" /></flowRegion><flowPara
         id="flowPara6383" /></flowRoot>    <text
       xml:space="preserve"
       style="font-size:12px;font-style:normal;font-variant:normal;font-weight:normal;font-stretch:normal;text-align:start;line-height:50%;letter-spacing:0px;word-spacing:0px;text-anchor:start;fill:#000000;fill-opacity:1;stroke:none;font-family:LMRoman12;-inkscape-font-specification:Sans"
       x="275.91507"
       y="753.27734"
       id="text6385"
       sodipodi:linespacing="50%"><tspan
         sodipodi:role="line"
         id="tspan6387"
         x="275.91507"
         y="753.27734" /></text>
    <text
       xml:space="preserve"
       style="font-size:12px;font-style:normal;font-variant:normal;font-weight:normal;font-stretch:normal;text-align:start;line-height:100%;letter-spacing:0px;word-spacing:0px;text-anchor:start;fill:#000000;fill-opacity:1;stroke:none;font-family:LMRoman12;-inkscape-font-specification:Sans"
       x="348.65417"
       y="892.41718"
       id="text3884"
       sodipodi:linespacing="100%"><tspan
         sodipodi:role="line"
         x="348.65417"
         y="892.41718"
         id="tspan3890" /></text>
    <text
       xml:space="preserve"
       style="font-size:12px;font-style:normal;font-variant:normal;font-weight:normal;font-stretch:normal;text-align:start;line-height:150%;letter-spacing:0px;word-spacing:0px;text-anchor:start;fill:#000000;fill-opacity:1;stroke:none;font-family:LMRoman12;-inkscape-font-specification:Sans"
       x="216.96629"
       y="948.92749"
       id="text3887"
       sodipodi:linespacing="150%"><tspan
         sodipodi:role="line"
         id="tspan3889"
         x="216.96629"
         y="948.92749" /></text>
    <text
       xml:space="preserve"
       style="font-size:12px;font-style:normal;font-variant:normal;font-weight:normal;font-stretch:normal;text-align:start;line-height:150%;letter-spacing:0px;word-spacing:0px;text-anchor:start;fill:#000000;fill-opacity:1;stroke:none;font-family:LMRoman12;-inkscape-font-specification:Sans"
       x="173"
       y="759.11084"
       id="text7389"
       sodipodi:linespacing="150%"><tspan
         sodipodi:role="line"
         id="tspan7391"
         x="173"
         y="759.11084" /></text>
    <text
       sodipodi:linespacing="150%"
       id="text12764"
       y="833.35034"
       x="263.40726"
       style="font-size:12px;font-style:normal;font-variant:normal;font-weight:normal;font-stretch:normal;text-align:start;line-height:150%;letter-spacing:0px;word-spacing:0px;text-anchor:start;fill:#000000;fill-opacity:1;stroke:none;font-family:LMRoman12;-inkscape-font-specification:Sans"
       xml:space="preserve"><tspan
         y="833.35034"
         x="263.40726"
         id="tspan12766"
         sodipodi:role="line"
         dx="0 0 0">   8 4 3 7</tspan><tspan
         id="tspan12770"
         y="851.35034"
         x="263.40726"
         sodipodi:role="line">+ 9 9 6 0</tspan></text>
    <text
       xml:space="preserve"
       style="font-size:12px;font-style:normal;font-variant:normal;font-weight:normal;font-stretch:normal;text-align:start;line-height:150%;letter-spacing:0px;word-spacing:0px;text-anchor:start;fill:#000000;fill-opacity:1;stroke:none;font-family:LMRoman12;-inkscape-font-specification:Sans"
       x="347.50522"
       y="185.47461"
       id="text12776"
       sodipodi:linespacing="150%"
       transform="translate(0,698.03016)"><tspan
         sodipodi:role="line"
         id="tspan12778"
         x="347.50522"
         y="185.47461" /></text>
    <path
       sodipodi:nodetypes="cc"
       style="fill:none;stroke:#000000;stroke-width:0.80000001;stroke-linecap:square;stroke-linejoin:round;stroke-miterlimit:4;stroke-opacity:1;stroke-dasharray:none;stroke-dashoffset:0"
       d="m 256.41662,857.55347 59.59439,0"
       id="path12780"
       inkscape:connector-curvature="0" />
    <text
       sodipodi:linespacing="150%"
       id="text12782"
       y="869.23932"
       x="266.82178"
       style="font-size:12px;font-style:normal;font-variant:normal;font-weight:normal;font-stretch:normal;text-align:start;line-height:150%;letter-spacing:0px;word-spacing:0px;text-anchor:start;fill:#000000;fill-opacity:1;stroke:none;font-family:LMRoman12;-inkscape-font-specification:Sans"
       xml:space="preserve"><tspan
         id="tspan12788"
         y="869.23932"
         x="266.82178"
         sodipodi:role="line"><tspan
           dx="0 0 0 0 0 0"
           id="tspan4233">1 8 3 9 7</tspan></tspan></text>
    <text
       sodipodi:linespacing="150%"
       id="text12981"
       y="870.6402"
       x="208.35962"
       style="font-size:12px;font-style:normal;font-variant:normal;font-weight:normal;font-stretch:normal;text-align:start;line-height:150%;letter-spacing:0px;word-spacing:0px;text-anchor:start;fill:#000000;fill-opacity:1;stroke:none;font-family:LMRoman12;-inkscape-font-specification:Sans"
       xml:space="preserve"><tspan
         y="870.6402"
         x="208.35962"
         id="tspan12983"
         sodipodi:role="line">end carry</tspan></text>
    <path
       style="fill:none;stroke:#000000;stroke-width:0.80000001;stroke-linecap:square;stroke-linejoin:round;stroke-miterlimit:4;stroke-opacity:1;stroke-dasharray:none;stroke-dashoffset:0;marker-start:none;marker-end:url(#Arrow1Mend)"
       d="m 268.83028,872.09289 0.0117,5.4557 c 0,3.26621 2.0336,4.43228 4.5037,4.43228 l 29.79847,0"
       id="path14827"
       inkscape:connector-curvature="0"
       sodipodi:nodetypes="cccc" />
    <path
       sodipodi:type="arc"
       style="fill:none;stroke:#000000;stroke-width:0.49231508;stroke-linecap:square;stroke-linejoin:round;stroke-miterlimit:4;stroke-opacity:1;stroke-dasharray:none;stroke-dashoffset:0"
       id="path3764"
       sodipodi:cx="268.66678"
       sodipodi:cy="182.19679"
       sodipodi:rx="4.144124"
       sodipodi:ry="5.4042087"
       d="m 272.8109,182.19679 c 0,2.98466 -1.85538,5.40421 -4.14412,5.40421 -2.28874,0 -4.14413,-2.41955 -4.14413,-5.40421 0,-2.98466 1.85539,-5.40421 4.14413,-5.40421 2.28874,0 4.14412,2.41955 4.14412,5.40421 z"
       transform="matrix(1.2187317,0,0,1.2187317,-58.765953,643.32629)" />
    <text
       xml:space="preserve"
       style="font-size:12px;font-style:normal;font-variant:normal;font-weight:normal;font-stretch:normal;text-align:start;line-height:150%;letter-spacing:0px;word-spacing:0px;text-anchor:start;fill:#000000;fill-opacity:1;stroke:none;font-family:LMRoman12;-inkscape-font-specification:Sans"
       x="302.44791"
       y="885.1521"
       id="text3766"
       sodipodi:linespacing="150%"><tspan
         dx="3.0426891"
         sodipodi:role="line"
         id="tspan3768"
         x="302.44791"
         y="885.1521">1</tspan></text>
    <path
       sodipodi:nodetypes="cc"
       inkscape:connector-curvature="0"
       id="path3770"
       d="m 256.41662,888.37452 59.59439,0"
       style="fill:none;stroke:#000000;stroke-width:0.80000001;stroke-linecap:square;stroke-linejoin:round;stroke-miterlimit:4;stroke-opacity:1;stroke-dasharray:none;stroke-dashoffset:0" />
    <text
       xml:space="preserve"
       style="font-size:12px;font-style:normal;font-variant:normal;font-weight:normal;font-stretch:normal;text-align:start;line-height:150%;letter-spacing:0px;word-spacing:0px;text-anchor:start;fill:#000000;fill-opacity:1;stroke:none;font-family:LMRoman12;-inkscape-font-specification:Sans"
       x="122.24146"
       y="833.43433"
       id="text3383"
       sodipodi:linespacing="150%"><tspan
         sodipodi:role="line"
         id="tspan3385"
         x="122.24146"
         y="833.43433">Now</tspan></text>
    <text
       xml:space="preserve"
       style="font-size:12px;font-style:normal;font-variant:normal;font-weight:normal;font-stretch:normal;text-align:start;line-height:150%;letter-spacing:0px;word-spacing:0px;text-anchor:start;fill:#000000;fill-opacity:1;stroke:none;font-family:LMRoman12;-inkscape-font-specification:Sans"
       x="268.69452"
       y="901.58612"
       id="text4007"
       sodipodi:linespacing="150%"><tspan
         sodipodi:role="line"
         x="268.69452"
         y="901.58612"
         id="tspan4011"><tspan
           dx="0 0"
           id="tspan4235">  8 3 9 8</tspan></tspan></text>
    <g
       style="font-style:normal;font-variant:normal;font-weight:normal;font-stretch:normal;letter-spacing:normal;word-spacing:normal;text-anchor:start;fill:none;stroke:#000000;stroke-width:1;stroke-linecap:butt;stroke-linejoin:miter;stroke-miterlimit:10.43299961;stroke-opacity:1;stroke-dasharray:none;stroke-dashoffset:0"
       ns0:preamble="/home/sriranga/Desktop/Prism_BasicElectronics/preamble.tex"
       ns0:text="$\\therefore $~ Answer~ $= (8398)_{10}$ "
       text-anchor="start"
       word-spacing="normal"
       letter-spacing="normal"
       font-size-adjust="none"
       font-stretch="normal"
       font-weight="normal"
       font-variant="normal"
       font-style="normal"
       fill-opacity="1"
       fill-rule="evenodd"
       fill="none"
       stroke-opacity="1"
       stroke-dashoffset="0"
       stroke-dasharray="none"
       stroke-miterlimit="10.433"
       stroke-linejoin="miter"
       stroke-linecap="butt"
       stroke="black"
       xml:space="preserve"
       transform="matrix(1.2,0,0,-1.2,-74.477174,1768.7564)"
       id="content"><path
         id="path4471"
         fill="black"
         stroke-width="0"
         d="M227.27,711.21 L227.27,711.23 L227.27,711.26 L227.27,711.29 L227.26,711.31 L227.26,711.34 L227.25,711.36 L227.24,711.39 L227.23,711.41 L227.22,711.43 L227.21,711.46 L227.2,711.48 L227.18,711.5 L227.17,711.52 L227.15,711.54 L227.13,711.56 L227.12,711.58 L227.1,711.6 L227.08,711.61 L227.06,711.63 L227.04,711.64 L227.02,711.66 L227,711.67 L226.97,711.68 L226.95,711.69 L226.93,711.7 L226.9,711.71 L226.88,711.72 L226.85,711.72 L226.82,711.73 L226.8,711.73 L226.77,711.73 L226.74,711.73 C226.46,711.73,226.22,711.5,226.22,711.21 C226.22,710.92,226.46,710.68,226.74,710.68 C227.02,710.68,227.27,710.91,227.27,711.21 Z " /><path
         id="path4473"
         fill="black"
         stroke-width="0"
         d="M229.76,706.91 L229.76,706.93 L229.76,706.96 L229.75,706.99 L229.75,707.01 L229.74,707.04 L229.74,707.06 L229.73,707.09 L229.72,707.11 L229.71,707.13 L229.7,707.16 L229.68,707.18 L229.67,707.2 L229.65,707.22 L229.64,707.24 L229.62,707.26 L229.6,707.28 L229.59,707.3 L229.57,707.31 L229.55,707.33 L229.53,707.34 L229.5,707.36 L229.48,707.37 L229.46,707.38 L229.44,707.39 L229.41,707.4 L229.39,707.41 L229.36,707.42 L229.34,707.42 L229.31,707.43 L229.29,707.43 L229.26,707.43 L229.23,707.43 C228.94,707.43,228.71,707.19,228.71,706.91 C228.71,706.62,228.94,706.38,229.23,706.38 C229.52,706.38,229.76,706.62,229.76,706.91 Z " /><path
         id="path4475"
         fill="black"
         stroke-width="0"
         d="M224.79,706.91 L224.78,706.93 L224.78,706.96 L224.78,706.99 L224.77,707.01 L224.77,707.04 L224.76,707.06 L224.75,707.09 L224.74,707.11 L224.73,707.13 L224.72,707.16 L224.71,707.18 L224.69,707.2 L224.68,707.22 L224.66,707.24 L224.65,707.26 L224.63,707.28 L224.61,707.3 L224.59,707.31 L224.57,707.33 L224.55,707.34 L224.53,707.36 L224.51,707.37 L224.49,707.38 L224.46,707.39 L224.44,707.4 L224.41,707.41 L224.39,707.42 L224.36,707.42 L224.34,707.43 L224.31,707.43 L224.28,707.43 L224.26,707.43 C223.97,707.43,223.73,707.19,223.73,706.91 C223.73,706.62,223.97,706.38,224.26,706.38 C224.55,706.38,224.79,706.62,224.79,706.91 Z " /><path
         id="path4477"
         fill="black"
         stroke-width="0"
         d="M242.08,707.31 L242.04,707.32 L242,707.32 L241.96,707.32 L241.93,707.33 L241.89,707.34 L241.86,707.34 L241.83,707.35 L241.8,707.36 L241.77,707.37 L241.74,707.38 L241.72,707.39 L241.69,707.41 L241.67,707.42 L241.64,707.44 L241.62,707.46 L241.59,707.48 L241.57,707.51 L241.55,707.53 L241.52,707.56 L241.5,707.59 L241.48,707.62 L241.46,707.66 L241.43,707.7 L241.41,707.74 L241.38,707.78 L241.36,707.83 L241.33,707.88 L241.3,707.93 L241.28,707.99 L241.25,708.05 L241.23,708.08 L241.22,708.11 L241.2,708.14 L241.18,708.18 L238.71,713.82 H238.51 L236.44,708.94 C235.8,707.49,235.68,707.33,235.2,707.31 V707.12 H237.17 V707.31 C236.7,707.31,236.5,707.44,236.5,707.72 C236.5,707.84,236.53,707.98,236.58,708.11 L237.04,709.27 H239.64 L239.5,709.68 H237.2 L238.35,712.41 L239.5,709.68 L239.64,709.27 L240.05,708.32 C240.17,708.05,240.24,707.79,240.24,707.65 C240.24,707.4,240.07,707.32,239.54,707.31 V707.12 H242.08 Z " /><path
         id="path4479"
         fill="black"
         stroke-width="0"
         d="M242.41,711.08 L242.41,711.08 L242.42,711.08 L242.42,711.09 L242.43,711.09 L242.44,711.09 L242.44,711.09 L242.45,711.1 L242.46,711.1 L242.47,711.1 L242.47,711.1 L242.49,711.1 L242.51,711.11 L242.52,711.11 L242.54,711.11 L242.56,711.11 L242.58,711.11 L242.6,711.12 L242.62,711.12 L242.64,711.12 L242.66,711.12 L242.68,711.12 C242.95,711.12,243.04,710.97,243.04,710.48 V708.02 C243.04,707.45,242.93,707.31,242.43,707.27 V707.12 H244.54 V707.27 C244.03,707.31,243.88,707.43,243.88,707.79 V710.58 C244.36,711.03,244.58,711.15,244.9,711.15 C245.39,711.15,245.63,710.84,245.63,710.18 V708.11 C245.63,707.48,245.5,707.31,245,707.27 V707.12 H247.07 V707.27 C246.59,707.32,246.47,707.44,246.47,707.93 V710.2 C246.47,711.14,246.03,711.7,245.29,711.7 C244.84,711.7,244.53,711.53,243.85,710.89 V711.67 L243.78,711.7 C243.29,711.52,242.95,711.41,242.41,711.25 Z " /><path
         id="path4481"
         fill="black"
         stroke-width="0"
         d="M250.36,710.24 L250.32,711.59 H250.21 L250.19,711.58 C250.1,711.51,250.1,711.5,250.05,711.5 C249.99,711.5,249.9,711.52,249.79,711.57 C249.57,711.65,249.35,711.68,249.09,711.68 C248.3,711.68,247.74,711.18,247.74,710.46 C247.74,709.91,248.05,709.51,248.9,709.03 L249.48,708.7 C249.83,708.51,249.99,708.27,249.99,707.96 C249.99,707.52,249.68,707.24,249.17,707.24 C248.83,707.24,248.52,707.37,248.33,707.59 C248.12,707.84,248.04,708.07,247.91,708.64 H247.75 V707.09 H247.88 C247.95,707.18,247.99,707.2,248.1,707.2 C248.19,707.2,248.33,707.18,248.56,707.12 C248.84,707.07,249.11,707.03,249.29,707.03 C250.05,707.03,250.69,707.6,250.69,708.3 C250.69,708.79,250.45,709.12,249.86,709.48 L248.78,710.11 C248.5,710.27,248.35,710.52,248.35,710.79 C248.35,711.19,248.66,711.47,249.12,711.47 C249.69,711.47,249.99,711.13,250.21,710.24 Z " /><path
         id="path4483"
         fill="black"
         stroke-width="0"
         d="M256.79,711.59 V711.45 C257.12,711.38,257.22,711.31,257.22,711.14 C257.22,710.99,257.16,710.75,257.05,710.48 L256.16,708.28 L255.32,710.5 C255.15,710.96,255.15,710.96,255.15,711.09 C255.15,711.31,255.26,711.38,255.73,711.45 V711.59 H253.71 V711.45 C254.08,711.41,254.2,711.3,254.4,710.76 C254.47,710.57,254.54,710.38,254.6,710.2 L253.69,708.23 L252.71,710.82 C252.67,710.92,252.65,711.02,252.65,711.12 C252.65,711.33,252.77,711.41,253.1,711.45 V711.59 H251.31 V711.45 C251.54,711.43,251.62,711.33,251.84,710.82 L253.18,707.42 C253.3,707.12,253.38,706.99,253.44,706.99 C253.49,706.99,253.57,707.11,253.69,707.37 L254.81,709.76 L255.71,707.41 C255.85,707.05,255.89,706.99,255.95,706.99 C256.02,706.99,256.07,707.08,256.23,707.47 L257.6,710.91 C257.78,711.33,257.81,711.38,258.01,711.45 V711.59 Z " /><path
         id="path4485"
         fill="black"
         stroke-width="0"
         d="M262.36,708.75 L262.31,708.68 L262.27,708.62 L262.22,708.55 L262.18,708.49 L262.14,708.43 L262.09,708.38 L262.05,708.32 L262,708.27 L261.96,708.22 L261.92,708.18 L261.87,708.13 L261.83,708.09 L261.78,708.05 L261.74,708.02 L261.69,707.98 L261.65,707.95 L261.6,707.92 L261.55,707.89 L261.5,707.87 L261.46,707.84 L261.41,707.82 L261.36,707.8 L261.31,707.78 L261.26,707.77 L261.21,707.75 L261.15,707.74 L261.1,707.73 L261.04,707.72 L260.99,707.72 L260.93,707.71 L260.87,707.71 L260.82,707.71 C260.25,707.71,259.82,708,259.53,708.57 C259.35,708.94,259.28,709.27,259.26,709.88 L259.28,710.2 C259.39,710.97,259.73,711.34,260.34,711.34 C260.94,711.34,261.18,711.06,261.31,710.2 H259.28 L259.26,709.88 H262.33 C262.25,710.52,262.15,710.81,261.9,711.13 C261.6,711.49,261.14,711.7,260.63,711.7 C260.13,711.7,259.66,711.52,259.28,711.18 C258.82,710.77,258.55,710.07,258.55,709.25 C258.55,707.88,259.26,707.03,260.41,707.03 C261.35,707.03,262.1,707.61,262.52,708.68 Z " /><path
         id="path4487"
         fill="black"
         stroke-width="0"
         d="M262.79,711 L262.8,711 L262.82,711 L262.83,711.01 L262.84,711.01 L262.86,711.01 L262.89,711.02 L262.91,711.02 L262.93,711.02 L262.95,711.03 L262.97,711.03 L262.99,711.03 L263.01,711.03 L263.03,711.04 L263.05,711.04 L263.07,711.04 L263.1,711.04 L263.12,711.04 L263.14,711.04 C263.39,711.04,263.48,710.88,263.48,710.44 V707.96 C263.48,707.46,263.41,707.39,262.77,707.27 V707.12 H265.16 V707.27 C264.48,707.3,264.31,707.45,264.31,708.02 V710.25 C264.31,710.57,264.74,711.07,265.01,711.07 C265.07,711.07,265.16,711.02,265.27,710.92 C265.43,710.78,265.54,710.72,265.67,710.72 C265.9,710.72,266.05,710.89,266.05,711.17 C266.05,711.5,265.85,711.7,265.51,711.7 C265.09,711.7,264.8,711.47,264.31,710.76 V711.67 L264.26,711.7 C263.74,711.48,263.38,711.35,262.79,711.16 Z " /><polygon
         id="polygon4489"
         fill="black"
         stroke-width="0"
         points="276.73,710.4 276.73,710.96 271.64,710.96 271.64,710.4 " /><polygon
         id="polygon4491"
         fill="black"
         stroke-width="0"
         points="276.73,708.39 276.73,708.94 271.64,708.94 271.64,708.39 " /><path
         id="path4493"
         fill="black"
         stroke-width="0"
         d="M283.06,713.84 L282.99,713.8 L282.93,713.75 L282.86,713.71 L282.8,713.67 L282.74,713.63 L282.69,713.59 L282.63,713.55 L282.58,713.52 L282.53,713.48 L282.48,713.44 L282.43,713.41 L282.39,713.37 L282.34,713.34 L282.3,713.3 L282.22,713.24 L282.14,713.17 L282.07,713.1 L282,713.03 L281.93,712.96 L281.86,712.89 L281.79,712.81 L281.72,712.73 L281.66,712.65 C280.95,711.78,280.6,710.79,280.6,709.63 C280.6,708.37,280.97,707.39,281.85,706.38 C282.25,705.9,282.51,705.68,283.03,705.37 L283.15,705.53 C282.35,706.15,282.07,706.5,281.8,707.24 C281.57,707.91,281.46,708.66,281.46,709.66 C281.46,710.7,281.59,711.52,281.86,712.13 C282.13,712.75,282.43,713.1,283.15,713.68 Z " /><path
         id="path4495"
         fill="black"
         stroke-width="0"
         d="M286.33,710.81 L286.42,710.86 L286.5,710.91 L286.59,710.96 L286.67,711 L286.74,711.05 L286.82,711.1 L286.88,711.14 L286.95,711.19 L287.01,711.24 L287.07,711.28 L287.13,711.33 L287.18,711.38 L287.23,711.42 L287.28,711.47 L287.32,711.52 L287.36,711.56 L287.4,711.61 L287.44,711.66 L287.47,711.71 L287.5,711.76 L287.52,711.81 L287.55,711.86 L287.57,711.91 L287.59,711.97 L287.61,712.02 L287.62,712.07 L287.63,712.13 L287.64,712.19 L287.65,712.25 L287.66,712.31 L287.66,712.37 L287.66,712.43 C287.66,713.24,286.94,713.84,285.95,713.84 L285.87,713.56 C286.55,713.56,286.97,713.12,286.97,712.44 C286.97,711.87,286.7,711.43,286.13,711.05 C286.08,711.02,286.08,711.02,286.04,710.99 H286.04 C285.15,711.57,284.8,712.02,284.8,712.58 C284.8,713.16,285.24,713.56,285.87,713.56 L285.95,713.84 C284.86,713.84,284.06,713.17,284.06,712.27 C284.06,711.62,284.25,711.34,285.29,710.42 C284.22,709.61,284,709.3,284,708.62 C284,707.66,284.79,706.99,285.91,706.99 L286.02,707.26 C285.26,707.26,284.76,707.84,284.76,708.7 C284.76,709.34,284.97,709.76,285.55,710.22 L286.15,709.79 C286.87,709.27,287.11,708.91,287.11,708.36 C287.11,707.71,286.67,707.26,286.02,707.26 L285.91,706.99 C287.1,706.99,287.87,707.64,287.87,708.66 C287.87,709.43,287.53,709.92,286.33,710.81 Z " /><path
         id="path4497"
         fill="black"
         stroke-width="0"
         d="M289.95,710.4 L290,710.4 L290.05,710.4 L290.1,710.4 L290.15,710.4 L290.2,710.4 L290.24,710.4 L290.28,710.4 L290.32,710.4 L290.36,710.4 L290.4,710.4 L290.44,710.39 L290.47,710.39 L290.51,710.39 L290.54,710.39 L290.57,710.38 L290.6,710.38 L290.63,710.38 L290.66,710.38 L290.69,710.37 L290.72,710.37 L290.74,710.36 L290.77,710.36 L290.82,710.35 L290.86,710.34 L290.91,710.32 L290.96,710.31 L291,710.29 C291.62,710.08,292.01,709.51,292.01,708.82 C292.01,707.99,291.44,707.34,290.7,707.34 C290.43,707.34,290.23,707.41,289.86,707.65 C289.57,707.83,289.4,707.9,289.23,707.9 C289,707.9,288.85,707.76,288.85,707.55 C288.85,707.2,289.28,706.99,289.98,706.99 C290.74,706.99,291.53,707.24,291.99,707.65 C292.46,708.06,292.72,708.64,292.72,709.3 C292.72,709.81,292.56,710.27,292.27,710.58 C292.07,710.8,291.89,710.92,291.45,711.11 C292.13,711.58,292.38,711.94,292.38,712.48 C292.38,713.28,291.75,713.84,290.83,713.84 C290.33,713.84,289.89,713.67,289.54,713.35 C289.24,713.09,289.09,712.83,288.87,712.23 L289.02,712.19 C289.43,712.92,289.88,713.24,290.5,713.24 C291.15,713.24,291.6,712.81,291.6,712.18 C291.6,711.82,291.45,711.47,291.2,711.22 C290.9,710.92,290.62,710.77,289.95,710.53 Z " /><path
         id="path4499"
         fill="black"
         stroke-width="0"
         d="M293.99,706.91 L294.09,706.92 L294.19,706.93 L294.29,706.94 L294.38,706.96 L294.47,706.97 L294.56,706.99 L294.65,707 L294.73,707.02 L294.81,707.03 L294.89,707.05 L294.97,707.07 L295.04,707.09 L295.11,707.11 L295.19,707.13 L295.32,707.17 L295.46,707.22 L295.59,707.28 L295.71,707.33 L295.84,707.4 L295.96,707.47 L296.08,707.54 L296.2,707.62 L296.27,707.67 L296.33,707.71 C297.36,708.47,297.97,709.7,297.97,711.04 C297.97,712.68,297.05,713.84,295.77,713.84 C294.59,713.84,293.7,712.84,293.7,711.5 C293.7,710.28,294.42,709.48,295.49,709.48 C296.04,709.48,296.46,709.64,296.99,710.05 L296.86,710.27 C296.58,710.04,296.21,709.91,295.85,709.91 C295.1,709.91,294.62,710.65,294.62,711.83 C294.62,712.4,294.78,713,294.99,713.25 C295.15,713.45,295.4,713.56,295.69,713.56 C296.56,713.56,297.01,712.71,297.01,711.04 V710.65 C297.01,710.45,296.97,710.36,296.86,710.27 L296.99,710.05 C296.58,708.43,295.47,707.36,293.96,707.1 Z " /><path
         id="path4501"
         fill="black"
         stroke-width="0"
         d="M301.27,710.81 L301.36,710.86 L301.45,710.91 L301.53,710.96 L301.61,711 L301.69,711.05 L301.76,711.1 L301.83,711.14 L301.89,711.19 L301.96,711.24 L302.02,711.28 L302.07,711.33 L302.13,711.38 L302.18,711.42 L302.22,711.47 L302.27,711.52 L302.31,711.56 L302.34,711.61 L302.38,711.66 L302.41,711.71 L302.44,711.76 L302.47,711.81 L302.49,711.86 L302.51,711.91 L302.53,711.97 L302.55,712.02 L302.57,712.07 L302.58,712.13 L302.59,712.19 L302.59,712.25 L302.6,712.31 L302.6,712.37 L302.6,712.43 C302.6,713.24,301.89,713.84,300.89,713.84 L300.81,713.56 C301.49,713.56,301.92,713.12,301.92,712.44 C301.92,711.87,301.64,711.43,301.07,711.05 C301.02,711.02,301.02,711.02,300.98,710.99 H300.98 C300.1,711.57,299.74,712.02,299.74,712.58 C299.74,713.16,300.19,713.56,300.81,713.56 L300.89,713.84 C299.81,713.84,299,713.17,299,712.27 C299,711.62,299.19,711.34,300.24,710.42 C299.16,709.61,298.94,709.3,298.94,708.62 C298.94,707.66,299.73,706.99,300.85,706.99 L300.96,707.26 C300.21,707.26,299.7,707.84,299.7,708.7 C299.7,709.34,299.92,709.76,300.49,710.22 L301.09,709.79 C301.82,709.27,302.06,708.91,302.06,708.36 C302.06,707.71,301.61,707.26,300.96,707.26 L300.85,706.99 C302.05,706.99,302.81,707.64,302.81,708.66 C302.81,709.43,302.48,709.92,301.27,710.81 Z " /><path
         id="path4503"
         fill="black"
         stroke-width="0"
         d="M303.74,705.37 L303.81,705.41 L303.88,705.45 L303.94,705.5 L304,705.54 L304.06,705.58 L304.12,705.61 L304.17,705.65 L304.22,705.69 L304.27,705.73 L304.32,705.76 L304.37,705.8 L304.42,705.83 L304.46,705.87 L304.5,705.9 L304.58,705.97 L304.66,706.04 L304.74,706.11 L304.81,706.18 L304.88,706.25 L304.94,706.32 L305.01,706.4 L305.08,706.48 L305.15,706.56 C305.85,707.42,306.2,708.42,306.2,709.58 C306.2,710.85,305.83,711.81,304.96,712.83 C304.55,713.3,304.29,713.52,303.77,713.84 L303.65,713.68 C304.45,713.05,304.72,712.71,305,711.96 C305.24,711.3,305.35,710.54,305.35,709.55 C305.35,708.52,305.22,707.69,304.95,707.09 C304.67,706.46,304.37,706.1,303.65,705.53 Z " /><path
         id="path4505"
         fill="black"
         stroke-width="0"
         d="M308.71,710.33 L307.46,709.7 V709.6 C307.54,709.64,307.62,709.66,307.64,709.68 C307.77,709.73,307.89,709.76,307.96,709.76 C308.11,709.76,308.17,709.65,308.17,709.43 V706.28 C308.17,706.05,308.11,705.89,308,705.83 C307.9,705.76,307.8,705.74,307.51,705.73 V705.63 H309.43 V705.73 C308.88,705.74,308.77,705.81,308.77,706.15 V710.32 Z " /><path
         id="path4507"
         fill="black"
         stroke-width="0"
         d="M311.94,710.33 L311.9,710.33 L311.87,710.33 L311.83,710.33 L311.8,710.33 L311.77,710.32 L311.73,710.32 L311.7,710.31 L311.67,710.31 L311.64,710.3 L311.61,710.3 L311.57,710.29 L311.54,710.28 L311.51,710.27 L311.48,710.26 L311.46,710.25 L311.43,710.24 L311.4,710.23 L311.37,710.22 L311.34,710.21 L311.31,710.19 L311.29,710.18 L311.26,710.16 L311.23,710.15 L311.21,710.13 L311.18,710.11 L311.16,710.09 L311.13,710.07 L311.11,710.06 L311.08,710.04 L311.06,710.01 L311.03,709.99 L311.01,709.97 C310.6,709.58,310.34,708.78,310.34,707.97 C310.34,707.21,310.57,706.4,310.89,706.01 C311.15,705.7,311.51,705.53,311.91,705.53 V705.71 C311.31,705.71,311.01,706.46,311.01,707.91 C311.01,709.38,311.32,710.15,311.92,710.15 H311.92 C312.5,710.15,312.82,709.36,312.82,707.91 C312.82,706.46,312.51,705.71,311.91,705.71 V705.53 C312.27,705.53,312.57,705.65,312.82,705.9 C313.22,706.28,313.49,707.08,313.49,707.93 C313.49,709.35,312.85,710.33,311.94,710.33 Z " /></g>  </g>
</svg>
