<?xml version="1.0" encoding="UTF-8" standalone="no"?>
<!-- Created with Inkscape (http://www.inkscape.org/) -->

<svg
   xmlns:ns0="http://www.iki.fi/pav/software/textext/"
   xmlns:dc="http://purl.org/dc/elements/1.1/"
   xmlns:cc="http://creativecommons.org/ns#"
   xmlns:rdf="http://www.w3.org/1999/02/22-rdf-syntax-ns#"
   xmlns:svg="http://www.w3.org/2000/svg"
   xmlns="http://www.w3.org/2000/svg"
   xmlns:sodipodi="http://sodipodi.sourceforge.net/DTD/sodipodi-0.dtd"
   xmlns:inkscape="http://www.inkscape.org/namespaces/inkscape"
   sodipodi:docname="div56.eps"
   inkscape:version="0.48.4 r9939"
   version="1.1"
   id="svg2"
   height="354.33069"
   width="496.06299">
  <sodipodi:namedview
     id="base"
     pagecolor="#ffffff"
     bordercolor="#666666"
     borderopacity="1.0"
     inkscape:pageopacity="0.0"
     inkscape:pageshadow="2"
     inkscape:zoom="3.0292246"
     inkscape:cx="210.19814"
     inkscape:cy="235.87831"
     inkscape:document-units="cm"
     inkscape:current-layer="layer1"
     showgrid="false"
     units="cm"
     inkscape:object-nodes="true"
     inkscape:window-width="1366"
     inkscape:window-height="744"
     inkscape:window-x="0"
     inkscape:window-y="24"
     inkscape:window-maximized="1">
    <inkscape:grid
       snapvisiblegridlinesonly="true"
       enabled="true"
       visible="true"
       empspacing="5"
       id="grid2985"
       type="xygrid" />
  </sodipodi:namedview>
  <defs
     id="defs4">
    <marker
       style="overflow:visible"
       id="Arrow1Mstart"
       refX="0"
       refY="0"
       orient="auto"
       inkscape:stockid="Arrow1Mstart">
      <path
         transform="matrix(0.4,0,0,0.4,4,0)"
         style="fill-rule:evenodd;stroke:#000000;stroke-width:1pt"
         d="M 0,0 5,-5 -12.5,0 5,5 0,0 z"
         id="path3775"
         inkscape:connector-curvature="0" />
    </marker>
    <marker
       style="overflow:visible"
       id="Arrow1Mend"
       refX="0"
       refY="0"
       orient="auto"
       inkscape:stockid="Arrow1Mend">
      <path
         transform="matrix(-0.4,0,0,-0.4,-4,0)"
         style="fill-rule:evenodd;stroke:#000000;stroke-width:1pt"
         d="M 0,0 5,-5 -12.5,0 5,5 0,0 z"
         id="path3778"
         inkscape:connector-curvature="0" />
    </marker>
    <marker
       style="overflow:visible"
       id="Arrow1Mstart-2"
       refX="0"
       refY="0"
       orient="auto"
       inkscape:stockid="Arrow1Mstart">
      <path
         transform="matrix(0.4,0,0,0.4,4,0)"
         style="fill-rule:evenodd;stroke:#000000;stroke-width:1pt"
         d="M 0,0 5,-5 -12.5,0 5,5 0,0 z"
         id="path3775-8"
         inkscape:connector-curvature="0" />
    </marker>
    <marker
       style="overflow:visible"
       id="Arrow1Mstart-5"
       refX="0"
       refY="0"
       orient="auto"
       inkscape:stockid="Arrow1Mstart">
      <path
         transform="matrix(0.4,0,0,0.4,4,0)"
         style="fill-rule:evenodd;stroke:#000000;stroke-width:1pt"
         d="M 0,0 5,-5 -12.5,0 5,5 0,0 z"
         id="path3775-5"
         inkscape:connector-curvature="0" />
    </marker>
    <marker
       inkscape:stockid="Arrow1Mstart"
       orient="auto"
       refY="0"
       refX="0"
       id="Arrow1Mstart-8"
       style="overflow:visible">
      <path
         inkscape:connector-curvature="0"
         id="path3775-6"
         d="M 0,0 5,-5 -12.5,0 5,5 0,0 z"
         style="fill-rule:evenodd;stroke:#000000;stroke-width:1pt"
         transform="matrix(0.4,0,0,0.4,4,0)" />
    </marker>
  </defs>
  <metadata
     id="metadata7">
    <rdf:RDF>
      <cc:Work
         rdf:about="">
        <dc:format>image/svg+xml</dc:format>
        <dc:type
           rdf:resource="http://purl.org/dc/dcmitype/StillImage" />
        <dc:title></dc:title>
      </cc:Work>
    </rdf:RDF>
  </metadata>
  <g
     transform="translate(0,-698.03016)"
     id="layer1"
     inkscape:groupmode="layer"
     inkscape:label="Layer 1">
    <text
       xml:space="preserve"
       style="font-size:12px;font-style:normal;font-variant:normal;font-weight:normal;font-stretch:normal;text-align:start;line-height:100%;letter-spacing:0px;word-spacing:0px;text-anchor:start;fill:#000000;fill-opacity:1;stroke:none;font-family:LMRoman12;-inkscape-font-specification:Sans"
       x="61.700558"
       y="56.040417"
       id="text5818"
       sodipodi:linespacing="100%"
       transform="translate(0,698.03016)"><tspan
         sodipodi:role="line"
         id="tspan5820"
         x="61.700558"
         y="56.040417" /></text>
    <flowRoot
       style="fill:black;stroke:none;stroke-opacity:1;stroke-width:1px;stroke-linejoin:miter;stroke-linecap:butt;fill-opacity:1;font-family:LMRoman12;font-style:normal;font-weight:normal;font-size:12px;line-height:100%;letter-spacing:0px;word-spacing:0px;-inkscape-font-specification:Sans;font-stretch:normal;font-variant:normal;text-anchor:start;text-align:start"
       id="flowRoot6377"
       xml:space="preserve"><flowRegion
         id="flowRegion6379"><rect
           y="87.141403"
           x="219.34796"
           height="40.319103"
           width="27.681772"
           id="rect6381" /></flowRegion><flowPara
         id="flowPara6383" /></flowRoot>    <text
       transform="translate(0,698.03016)"
       sodipodi:linespacing="50%"
       id="text6385"
       y="55.247185"
       x="275.91507"
       style="font-size:12px;font-style:normal;font-variant:normal;font-weight:normal;font-stretch:normal;text-align:start;line-height:50%;letter-spacing:0px;word-spacing:0px;text-anchor:start;fill:#000000;fill-opacity:1;stroke:none;font-family:LMRoman12;-inkscape-font-specification:Sans"
       xml:space="preserve"><tspan
         id="tspan6387"
         sodipodi:role="line" /></text>
    <text
       transform="translate(0,698.03016)"
       sodipodi:linespacing="100%"
       id="text3884"
       y="194.38702"
       x="348.65417"
       style="font-size:12px;font-style:normal;font-variant:normal;font-weight:normal;font-stretch:normal;text-align:start;line-height:100%;letter-spacing:0px;word-spacing:0px;text-anchor:start;fill:#000000;fill-opacity:1;stroke:none;font-family:LMRoman12;-inkscape-font-specification:Sans"
       xml:space="preserve"><tspan
         id="tspan3890"
         y="194.38702"
         x="348.65417"
         sodipodi:role="line" /></text>
    <text
       transform="translate(0,698.03016)"
       sodipodi:linespacing="150%"
       id="text3887"
       y="250.89732"
       x="216.96629"
       style="font-size:12px;font-style:normal;font-variant:normal;font-weight:normal;font-stretch:normal;text-align:start;line-height:150%;letter-spacing:0px;word-spacing:0px;text-anchor:start;fill:#000000;fill-opacity:1;stroke:none;font-family:LMRoman12;-inkscape-font-specification:Sans"
       xml:space="preserve"><tspan
         y="250.89732"
         x="216.96629"
         id="tspan3889"
         sodipodi:role="line" /></text>
    <path
       sodipodi:nodetypes="ccc"
       inkscape:connector-curvature="0"
       id="path7259"
       d="m 125,731.13798 0,11.22287 40,0"
       style="fill:none;stroke:#000000;stroke-width:1;stroke-linecap:square;stroke-linejoin:round;stroke-miterlimit:4;stroke-opacity:1;stroke-dasharray:none;stroke-dashoffset:0" />
    <text
       sodipodi:linespacing="150%"
       id="text7261"
       y="739.03259"
       x="134.86615"
       style="font-size:12px;font-style:normal;font-variant:normal;font-weight:normal;font-stretch:normal;text-align:start;line-height:150%;letter-spacing:0px;word-spacing:0px;text-anchor:start;fill:#000000;fill-opacity:1;stroke:none;font-family:LMRoman12;-inkscape-font-specification:Sans"
       xml:space="preserve"><tspan
         y="739.03259"
         x="134.86615"
         id="tspan7263"
         sodipodi:role="line">438</tspan></text>
    <text
       xml:space="preserve"
       style="font-size:12px;font-style:normal;font-variant:normal;font-weight:normal;font-stretch:normal;text-align:start;line-height:150%;letter-spacing:0px;word-spacing:0px;text-anchor:start;fill:#000000;fill-opacity:1;stroke:none;font-family:LMRoman12;-inkscape-font-specification:Sans"
       x="134.86615"
       y="754.70447"
       id="text7271"
       sodipodi:linespacing="150%"><tspan
         sodipodi:role="line"
         id="tspan7273"
         x="134.86615"
         y="754.70447">219</tspan></text>
    <text
       sodipodi:linespacing="150%"
       id="text7279"
       y="770.54987"
       x="134.86615"
       style="font-size:12px;font-style:normal;font-variant:normal;font-weight:normal;font-stretch:normal;text-align:start;line-height:150%;letter-spacing:0px;word-spacing:0px;text-anchor:start;fill:#000000;fill-opacity:1;stroke:none;font-family:LMRoman12;-inkscape-font-specification:Sans"
       xml:space="preserve"><tspan
         y="770.54987"
         x="134.86615"
         id="tspan7281"
         sodipodi:role="line">109</tspan></text>
    <text
       xml:space="preserve"
       style="font-size:12px;font-style:normal;font-variant:normal;font-weight:normal;font-stretch:normal;text-align:start;line-height:150%;letter-spacing:0px;word-spacing:0px;text-anchor:start;fill:#000000;fill-opacity:1;stroke:none;font-family:LMRoman12;-inkscape-font-specification:Sans"
       x="140.58096"
       y="785.35657"
       id="text7287"
       sodipodi:linespacing="150%"><tspan
         sodipodi:role="line"
         id="tspan7289"
         x="140.58096"
         y="785.35657">54</tspan></text>
    <text
       sodipodi:linespacing="150%"
       id="text7341"
       y="740.36084"
       x="104.69036"
       style="font-size:12px;font-style:normal;font-variant:normal;font-weight:normal;font-stretch:normal;text-align:start;line-height:150%;letter-spacing:0px;word-spacing:0px;text-anchor:start;fill:#000000;fill-opacity:1;stroke:none;font-family:LMRoman12;-inkscape-font-specification:Sans"
       xml:space="preserve"><tspan
         id="tspan7349"
         y="740.36084"
         x="104.69036"
         sodipodi:role="line" /></text>
    <text
       xml:space="preserve"
       style="font-size:12px;font-style:normal;font-variant:normal;font-weight:normal;font-stretch:normal;text-align:start;line-height:150%;letter-spacing:0px;word-spacing:0px;text-anchor:start;fill:#000000;fill-opacity:1;stroke:none;font-family:LMRoman12;-inkscape-font-specification:Sans"
       x="110.69036"
       y="754.76447"
       id="text7357"
       sodipodi:linespacing="150%"><tspan
         sodipodi:role="line"
         x="110.69036"
         y="754.76447"
         id="tspan7359">2</tspan></text>
    <text
       sodipodi:linespacing="150%"
       id="text7361"
       y="770.67584"
       x="110.69036"
       style="font-size:12px;font-style:normal;font-variant:normal;font-weight:normal;font-stretch:normal;text-align:start;line-height:150%;letter-spacing:0px;word-spacing:0px;text-anchor:start;fill:#000000;fill-opacity:1;stroke:none;font-family:LMRoman12;-inkscape-font-specification:Sans"
       xml:space="preserve"><tspan
         id="tspan7363"
         y="770.67584"
         x="110.69036"
         sodipodi:role="line">2</tspan></text>
    <text
       xml:space="preserve"
       style="font-size:12px;font-style:normal;font-variant:normal;font-weight:normal;font-stretch:normal;text-align:start;line-height:150%;letter-spacing:0px;word-spacing:0px;text-anchor:start;fill:#000000;fill-opacity:1;stroke:none;font-family:LMRoman12;-inkscape-font-specification:Sans"
       x="110.69036"
       y="785.42255"
       id="text7365"
       sodipodi:linespacing="150%"><tspan
         sodipodi:role="line"
         x="110.69036"
         y="785.42255"
         id="tspan7367">2</tspan></text>
    <text
       transform="translate(0,698.03016)"
       sodipodi:linespacing="150%"
       id="text7389"
       y="61.080688"
       x="173"
       style="font-size:12px;font-style:normal;font-variant:normal;font-weight:normal;font-stretch:normal;text-align:start;line-height:150%;letter-spacing:0px;word-spacing:0px;text-anchor:start;fill:#000000;fill-opacity:1;stroke:none;font-family:LMRoman12;-inkscape-font-specification:Sans"
       xml:space="preserve"><tspan
         y="61.080688"
         x="173"
         id="tspan7391"
         sodipodi:role="line" /></text>
    <path
       inkscape:connector-curvature="0"
       id="path7393"
       d="m 171.5,750.77447 8.5,0"
       style="fill:none;stroke:#000000;stroke-width:0.60000002;stroke-linecap:square;stroke-linejoin:round;stroke-miterlimit:4;stroke-opacity:1;stroke-dasharray:none;stroke-dashoffset:0;marker-mid:none" />
    <path
       style="fill:none;stroke:#000000;stroke-width:0.60000002;stroke-linecap:square;stroke-linejoin:round;stroke-miterlimit:4;stroke-opacity:1;stroke-dasharray:none;stroke-dashoffset:0;marker-mid:none"
       d="m 171.5,766.68587 8.5,0"
       id="path7763"
       inkscape:connector-curvature="0" />
    <path
       style="fill:none;stroke:#000000;stroke-width:0.60000002;stroke-linecap:square;stroke-linejoin:round;stroke-miterlimit:4;stroke-opacity:1;stroke-dasharray:none;stroke-dashoffset:0;marker-mid:none"
       d="m 171.5,781.43257 8.5,0"
       id="path7765"
       inkscape:connector-curvature="0" />
    <text
       sodipodi:linespacing="150%"
       id="text7777"
       y="754.76447"
       x="191.51814"
       style="font-size:12px;font-style:normal;font-variant:normal;font-weight:normal;font-stretch:normal;text-align:start;line-height:150%;letter-spacing:0px;word-spacing:0px;text-anchor:start;fill:#000000;fill-opacity:1;stroke:none;font-family:LMRoman12;-inkscape-font-specification:Sans"
       xml:space="preserve"><tspan
         id="tspan7779"
         y="754.76447"
         x="191.51814"
         sodipodi:role="line">1</tspan></text>
    <text
       xml:space="preserve"
       style="font-size:12px;font-style:normal;font-variant:normal;font-weight:normal;font-stretch:normal;text-align:start;line-height:150%;letter-spacing:0px;word-spacing:0px;text-anchor:start;fill:#000000;fill-opacity:1;stroke:none;font-family:LMRoman12;-inkscape-font-specification:Sans"
       x="191.06215"
       y="770.54987"
       id="text7781"
       sodipodi:linespacing="150%"><tspan
         sodipodi:role="line"
         x="191.06215"
         y="770.54987"
         id="tspan7783">0</tspan></text>
    <text
       sodipodi:linespacing="150%"
       id="text7785"
       y="785.29657"
       x="191.06215"
       style="font-size:12px;font-style:normal;font-variant:normal;font-weight:normal;font-stretch:normal;text-align:start;line-height:150%;letter-spacing:0px;word-spacing:0px;text-anchor:start;fill:#000000;fill-opacity:1;stroke:none;font-family:LMRoman12;-inkscape-font-specification:Sans"
       xml:space="preserve"><tspan
         id="tspan7787"
         y="785.29657"
         x="191.06215"
         sodipodi:role="line">0</tspan></text>
    <text
       sodipodi:linespacing="150%"
       id="text7815"
       y="739.27783"
       x="180"
       style="font-size:12px;font-style:normal;font-variant:normal;font-weight:normal;font-stretch:normal;text-align:start;line-height:150%;letter-spacing:0px;word-spacing:0px;text-anchor:start;fill:#000000;fill-opacity:1;stroke:none;font-family:LMRoman12;-inkscape-font-specification:Sans"
       xml:space="preserve"><tspan
         y="739.27783"
         x="180"
         id="tspan7817"
         sodipodi:role="line">Remainder</tspan></text>
    <path
       style="fill:none;stroke:#000000;stroke-width:1;stroke-linecap:square;stroke-linejoin:round;stroke-miterlimit:4;stroke-opacity:1;stroke-dasharray:none;stroke-dashoffset:0"
       d="m 125,746.13798 0,11.22287 40,0"
       id="path9265"
       inkscape:connector-curvature="0"
       sodipodi:nodetypes="ccc" />
    <path
       sodipodi:nodetypes="ccc"
       inkscape:connector-curvature="0"
       id="path9267"
       d="m 125,761.13798 0,11.22287 40,0"
       style="fill:none;stroke:#000000;stroke-width:1;stroke-linecap:square;stroke-linejoin:round;stroke-miterlimit:4;stroke-opacity:1;stroke-dasharray:none;stroke-dashoffset:0" />
    <path
       style="fill:none;stroke:#000000;stroke-width:1;stroke-linecap:square;stroke-linejoin:round;stroke-miterlimit:4;stroke-opacity:1;stroke-dasharray:none;stroke-dashoffset:0"
       d="m 125,776.13798 0,11.22287 40,0"
       id="path9269"
       inkscape:connector-curvature="0"
       sodipodi:nodetypes="ccc" />
    <path
       inkscape:connector-curvature="0"
       id="path11174"
       d="m 171.5,795.78132 8.5,0"
       style="fill:none;stroke:#000000;stroke-width:0.60000002;stroke-linecap:square;stroke-linejoin:round;stroke-miterlimit:4;stroke-opacity:1;stroke-dasharray:none;stroke-dashoffset:0;marker-mid:none" />
    <text
       xml:space="preserve"
       style="font-size:12px;font-style:normal;font-variant:normal;font-weight:normal;font-stretch:normal;text-align:start;line-height:150%;letter-spacing:0px;word-spacing:0px;text-anchor:start;fill:#000000;fill-opacity:1;stroke:none;font-family:LMRoman12;-inkscape-font-specification:Sans"
       x="191.51814"
       y="799.77136"
       id="text11176"
       sodipodi:linespacing="150%"><tspan
         sodipodi:role="line"
         x="191.51814"
         y="799.77136"
         id="tspan11178">1</tspan></text>
    <text
       xml:space="preserve"
       style="font-size:12px;font-style:normal;font-variant:normal;font-weight:normal;font-stretch:normal;text-align:start;line-height:150%;letter-spacing:0px;word-spacing:0px;text-anchor:start;fill:#000000;fill-opacity:1;stroke:none;font-family:LMRoman12;-inkscape-font-specification:Sans"
       x="108.82086"
       y="800.18604"
       id="text11623"
       sodipodi:linespacing="150%"><tspan
         sodipodi:role="line"
         id="tspan11625"
         x="108.82086"
         y="800.18604" /></text>
    <path
       inkscape:connector-curvature="0"
       id="path4924"
       d="m 214.61774,746.23421 0,132.88051"
       style="fill:none;stroke:#000000;stroke-width:0.99999994;stroke-linecap:square;stroke-linejoin:round;stroke-miterlimit:4;stroke-opacity:1;stroke-dasharray:none;stroke-dashoffset:0;marker-start:url(#Arrow1Mstart);marker-end:none" />
    <text
       xml:space="preserve"
       style="font-size:12px;font-style:normal;font-variant:normal;font-weight:normal;font-stretch:normal;text-align:start;line-height:150%;letter-spacing:0px;word-spacing:0px;text-anchor:start;fill:#000000;fill-opacity:1;stroke:none;font-family:LMRoman12;-inkscape-font-specification:Sans"
       x="140.42496"
       y="799.77136"
       id="text13324"
       sodipodi:linespacing="150%"><tspan
         sodipodi:role="line"
         id="tspan13326"
         x="140.42496"
         y="799.77136">27</tspan></text>
    <text
       xml:space="preserve"
       style="font-size:12px;font-style:normal;font-variant:normal;font-weight:normal;font-stretch:normal;text-align:start;line-height:150%;letter-spacing:0px;word-spacing:0px;text-anchor:start;fill:#000000;fill-opacity:1;stroke:none;font-family:LMRoman12;-inkscape-font-specification:Sans"
       x="140.74896"
       y="814.65662"
       id="text17674"
       sodipodi:linespacing="150%"><tspan
         sodipodi:role="line"
         id="tspan17676"
         x="140.74896"
         y="814.65662">13</tspan></text>
    <text
       xml:space="preserve"
       style="font-size:12px;font-style:normal;font-variant:normal;font-weight:normal;font-stretch:normal;text-align:start;line-height:150%;letter-spacing:0px;word-spacing:0px;text-anchor:start;fill:#000000;fill-opacity:1;stroke:none;font-family:LMRoman12;-inkscape-font-specification:Sans"
       x="146.63177"
       y="830.5332"
       id="text17678"
       sodipodi:linespacing="150%"><tspan
         sodipodi:role="line"
         id="tspan17680"
         x="146.63177"
         y="830.5332">6</tspan></text>
    <text
       xml:space="preserve"
       style="font-size:12px;font-style:normal;font-variant:normal;font-weight:normal;font-stretch:normal;text-align:start;line-height:150%;letter-spacing:0px;word-spacing:0px;text-anchor:start;fill:#000000;fill-opacity:1;stroke:none;font-family:LMRoman12;-inkscape-font-specification:Sans"
       x="146.63177"
       y="845.28601"
       id="text17682"
       sodipodi:linespacing="150%"><tspan
         sodipodi:role="line"
         id="tspan17684"
         x="146.63177"
         y="845.28601">3</tspan></text>
    <text
       xml:space="preserve"
       style="font-size:12px;font-style:normal;font-variant:normal;font-weight:normal;font-stretch:normal;text-align:start;line-height:150%;letter-spacing:0px;word-spacing:0px;text-anchor:start;fill:#000000;fill-opacity:1;stroke:none;font-family:LMRoman12;-inkscape-font-specification:Sans"
       x="147.08777"
       y="860.35754"
       id="text17686"
       sodipodi:linespacing="150%"><tspan
         sodipodi:role="line"
         id="tspan17688"
         x="147.08777"
         y="860.35754">1</tspan></text>
    <text
       xml:space="preserve"
       style="font-size:12px;font-style:normal;font-variant:normal;font-weight:normal;font-stretch:normal;text-align:start;line-height:150%;letter-spacing:0px;word-spacing:0px;text-anchor:start;fill:#000000;fill-opacity:1;stroke:none;font-family:LMRoman12;-inkscape-font-specification:Sans"
       x="146.63177"
       y="875.64062"
       id="text17690"
       sodipodi:linespacing="150%"><tspan
         sodipodi:role="line"
         id="tspan17692"
         x="146.63177"
         y="875.64062">0</tspan></text>
    <path
       style="fill:none;stroke:#000000;stroke-width:1;stroke-linecap:square;stroke-linejoin:round;stroke-miterlimit:4;stroke-opacity:1;stroke-dasharray:none;stroke-dashoffset:0"
       d="m 125,791.13798 0,11.22287 40,0"
       id="path17694"
       inkscape:connector-curvature="0"
       sodipodi:nodetypes="ccc" />
    <path
       sodipodi:nodetypes="ccc"
       inkscape:connector-curvature="0"
       id="path17696"
       d="m 125,806.13798 0,11.22287 40,0"
       style="fill:none;stroke:#000000;stroke-width:1;stroke-linecap:square;stroke-linejoin:round;stroke-miterlimit:4;stroke-opacity:1;stroke-dasharray:none;stroke-dashoffset:0" />
    <path
       style="fill:none;stroke:#000000;stroke-width:1;stroke-linecap:square;stroke-linejoin:round;stroke-miterlimit:4;stroke-opacity:1;stroke-dasharray:none;stroke-dashoffset:0"
       d="m 125,821.13798 0,11.22287 40,0"
       id="path17698"
       inkscape:connector-curvature="0"
       sodipodi:nodetypes="ccc" />
    <path
       sodipodi:nodetypes="ccc"
       inkscape:connector-curvature="0"
       id="path17700"
       d="m 125,836.13798 0,11.22287 40,0"
       style="fill:none;stroke:#000000;stroke-width:1;stroke-linecap:square;stroke-linejoin:round;stroke-miterlimit:4;stroke-opacity:1;stroke-dasharray:none;stroke-dashoffset:0" />
    <path
       sodipodi:nodetypes="ccc"
       inkscape:connector-curvature="0"
       id="path17702"
       d="m 125,851.13798 0,11.22287 40,0"
       style="fill:none;stroke:#000000;stroke-width:1;stroke-linecap:square;stroke-linejoin:round;stroke-miterlimit:4;stroke-opacity:1;stroke-dasharray:none;stroke-dashoffset:0" />
    <text
       xml:space="preserve"
       style="font-size:12px;font-style:normal;font-variant:normal;font-weight:normal;font-stretch:normal;text-align:start;line-height:150%;letter-spacing:0px;word-spacing:0px;text-anchor:start;fill:#000000;fill-opacity:1;stroke:none;font-family:LMRoman12;-inkscape-font-specification:Sans"
       x="110.69036"
       y="799.77136"
       id="text17706"
       sodipodi:linespacing="150%"><tspan
         sodipodi:role="line"
         x="110.69036"
         y="799.77136"
         id="tspan17708">2</tspan></text>
    <text
       sodipodi:linespacing="150%"
       id="text17710"
       y="814.78259"
       x="110.61836"
       style="font-size:12px;font-style:normal;font-variant:normal;font-weight:normal;font-stretch:normal;text-align:start;line-height:150%;letter-spacing:0px;word-spacing:0px;text-anchor:start;fill:#000000;fill-opacity:1;stroke:none;font-family:LMRoman12;-inkscape-font-specification:Sans"
       xml:space="preserve"><tspan
         id="tspan17712"
         y="814.78259"
         x="110.61836"
         sodipodi:role="line">2</tspan></text>
    <text
       xml:space="preserve"
       style="font-size:12px;font-style:normal;font-variant:normal;font-weight:normal;font-stretch:normal;text-align:start;line-height:150%;letter-spacing:0px;word-spacing:0px;text-anchor:start;fill:#000000;fill-opacity:1;stroke:none;font-family:LMRoman12;-inkscape-font-specification:Sans"
       x="110.69036"
       y="829.56604"
       id="text17714"
       sodipodi:linespacing="150%"><tspan
         sodipodi:role="line"
         x="110.69036"
         y="829.56604"
         id="tspan17716">2</tspan></text>
    <text
       sodipodi:linespacing="150%"
       id="text17718"
       y="845.28601"
       x="110.69036"
       style="font-size:12px;font-style:normal;font-variant:normal;font-weight:normal;font-stretch:normal;text-align:start;line-height:150%;letter-spacing:0px;word-spacing:0px;text-anchor:start;fill:#000000;fill-opacity:1;stroke:none;font-family:LMRoman12;-inkscape-font-specification:Sans"
       xml:space="preserve"><tspan
         id="tspan17720"
         y="845.28601"
         x="110.69036"
         sodipodi:role="line">2</tspan></text>
    <text
       sodipodi:linespacing="150%"
       id="text17722"
       y="860.35754"
       x="110.69036"
       style="font-size:12px;font-style:normal;font-variant:normal;font-weight:normal;font-stretch:normal;text-align:start;line-height:150%;letter-spacing:0px;word-spacing:0px;text-anchor:start;fill:#000000;fill-opacity:1;stroke:none;font-family:LMRoman12;-inkscape-font-specification:Sans"
       xml:space="preserve"><tspan
         id="tspan17724"
         y="860.35754"
         x="110.69036"
         sodipodi:role="line">2</tspan></text>
    <text
       xml:space="preserve"
       style="font-size:12px;font-style:normal;font-variant:normal;font-weight:normal;font-stretch:normal;text-align:start;line-height:150%;letter-spacing:0px;word-spacing:0px;text-anchor:start;fill:#000000;fill-opacity:1;stroke:none;font-family:LMRoman12;-inkscape-font-specification:Sans"
       x="191.51814"
       y="814.78259"
       id="text17738"
       sodipodi:linespacing="150%"><tspan
         sodipodi:role="line"
         x="191.51814"
         y="814.78259"
         id="tspan17740">1</tspan></text>
    <text
       sodipodi:linespacing="150%"
       id="text17742"
       y="830.53918"
       x="191.06215"
       style="font-size:12px;font-style:normal;font-variant:normal;font-weight:normal;font-stretch:normal;text-align:start;line-height:150%;letter-spacing:0px;word-spacing:0px;text-anchor:start;fill:#000000;fill-opacity:1;stroke:none;font-family:LMRoman12;-inkscape-font-specification:Sans"
       xml:space="preserve"><tspan
         id="tspan17744"
         y="830.53918"
         x="191.06215"
         sodipodi:role="line">0</tspan></text>
    <text
       xml:space="preserve"
       style="font-size:12px;font-style:normal;font-variant:normal;font-weight:normal;font-stretch:normal;text-align:start;line-height:150%;letter-spacing:0px;word-spacing:0px;text-anchor:start;fill:#000000;fill-opacity:1;stroke:none;font-family:LMRoman12;-inkscape-font-specification:Sans"
       x="191.51814"
       y="845.28601"
       id="text17746"
       sodipodi:linespacing="150%"><tspan
         sodipodi:role="line"
         x="191.51814"
         y="845.28601"
         id="tspan17748">1</tspan></text>
    <text
       sodipodi:linespacing="150%"
       id="text17750"
       y="860.23157"
       x="191.06215"
       style="font-size:12px;font-style:normal;font-variant:normal;font-weight:normal;font-stretch:normal;text-align:start;line-height:150%;letter-spacing:0px;word-spacing:0px;text-anchor:start;fill:#000000;fill-opacity:1;stroke:none;font-family:LMRoman12;-inkscape-font-specification:Sans"
       xml:space="preserve"><tspan
         id="tspan17752"
         y="860.23157"
         x="191.06215"
         sodipodi:role="line">0</tspan></text>
    <text
       sodipodi:linespacing="150%"
       id="text17754"
       y="875.7666"
       x="191.51814"
       style="font-size:12px;font-style:normal;font-variant:normal;font-weight:normal;font-stretch:normal;text-align:start;line-height:150%;letter-spacing:0px;word-spacing:0px;text-anchor:start;fill:#000000;fill-opacity:1;stroke:none;font-family:LMRoman12;-inkscape-font-specification:Sans"
       xml:space="preserve"><tspan
         id="tspan17756"
         y="875.7666"
         x="191.51814"
         sodipodi:role="line">1</tspan></text>
    <path
       style="fill:none;stroke:#000000;stroke-width:0.60000002;stroke-linecap:square;stroke-linejoin:round;stroke-miterlimit:4;stroke-opacity:1;stroke-dasharray:none;stroke-dashoffset:0;marker-mid:none"
       d="m 171.5,810.79262 8.5,0"
       id="path17762"
       inkscape:connector-curvature="0" />
    <path
       inkscape:connector-curvature="0"
       id="path17764"
       d="m 171.5,826.6752 8.5,0"
       style="fill:none;stroke:#000000;stroke-width:0.60000002;stroke-linecap:square;stroke-linejoin:round;stroke-miterlimit:4;stroke-opacity:1;stroke-dasharray:none;stroke-dashoffset:0;marker-mid:none" />
    <path
       inkscape:connector-curvature="0"
       id="path17766"
       d="m 171.5,841.29602 8.5,0"
       style="fill:none;stroke:#000000;stroke-width:0.60000002;stroke-linecap:square;stroke-linejoin:round;stroke-miterlimit:4;stroke-opacity:1;stroke-dasharray:none;stroke-dashoffset:0;marker-mid:none" />
    <path
       style="fill:none;stroke:#000000;stroke-width:0.60000002;stroke-linecap:square;stroke-linejoin:round;stroke-miterlimit:4;stroke-opacity:1;stroke-dasharray:none;stroke-dashoffset:0;marker-mid:none"
       d="m 171.5,856.36754 8.5,0"
       id="path17768"
       inkscape:connector-curvature="0" />
    <path
       inkscape:connector-curvature="0"
       id="path17770"
       d="m 171.5,871.77662 8.5,0"
       style="fill:none;stroke:#000000;stroke-width:0.60000002;stroke-linecap:square;stroke-linejoin:round;stroke-miterlimit:4;stroke-opacity:1;stroke-dasharray:none;stroke-dashoffset:0;marker-mid:none" />
    <text
       sodipodi:linespacing="150%"
       id="text3703"
       y="740.44305"
       x="110.69036"
       style="font-size:12px;font-style:normal;font-variant:normal;font-weight:normal;font-stretch:normal;text-align:start;line-height:150%;letter-spacing:0px;word-spacing:0px;text-anchor:start;fill:#000000;fill-opacity:1;stroke:none;font-family:LMRoman12;-inkscape-font-specification:Sans"
       xml:space="preserve"><tspan
         id="tspan3705"
         y="740.44305"
         x="110.69036"
         sodipodi:role="line">2</tspan></text>
    <g
       style="font-style:normal;font-variant:normal;font-weight:normal;font-stretch:normal;letter-spacing:normal;word-spacing:normal;text-anchor:start;fill:none;stroke:#000000;stroke-width:1;stroke-linecap:butt;stroke-linejoin:miter;stroke-miterlimit:10.43299961;stroke-opacity:1;stroke-dasharray:none;stroke-dashoffset:0"
       ns0:preamble="/home/sriranga/Desktop/Prism_BasicElectronics/preamble.tex"
       ns0:text="$\\therefore~ (438)_{10}= (1~1~0~1~1~0~1~1~0)_{2}$"
       text-anchor="start"
       word-spacing="normal"
       letter-spacing="normal"
       font-size-adjust="none"
       font-stretch="normal"
       font-weight="normal"
       font-variant="normal"
       font-style="normal"
       fill-opacity="1"
       fill-rule="evenodd"
       fill="none"
       stroke-opacity="1"
       stroke-dashoffset="0"
       stroke-dasharray="none"
       stroke-miterlimit="10.433"
       stroke-linejoin="miter"
       stroke-linecap="butt"
       stroke="black"
       xml:space="preserve"
       transform="matrix(1.2,0,0,-1.2,-21.138363,1660.4588)"
       id="content"><path
         id="path3225"
         fill="black"
         stroke-width="0"
         d="M227.27,711.21 L227.27,711.23 L227.27,711.26 L227.27,711.29 L227.26,711.31 L227.26,711.34 L227.25,711.36 L227.24,711.39 L227.23,711.41 L227.22,711.43 L227.21,711.46 L227.2,711.48 L227.18,711.5 L227.17,711.52 L227.15,711.54 L227.13,711.56 L227.12,711.58 L227.1,711.6 L227.08,711.61 L227.06,711.63 L227.04,711.64 L227.02,711.66 L227,711.67 L226.97,711.68 L226.95,711.69 L226.93,711.7 L226.9,711.71 L226.88,711.72 L226.85,711.72 L226.82,711.73 L226.8,711.73 L226.77,711.73 L226.74,711.73 C226.46,711.73,226.22,711.5,226.22,711.21 C226.22,710.92,226.46,710.68,226.74,710.68 C227.02,710.68,227.27,710.91,227.27,711.21 Z " /><path
         id="path3227"
         fill="black"
         stroke-width="0"
         d="M229.76,706.91 L229.76,706.93 L229.76,706.96 L229.75,706.99 L229.75,707.01 L229.74,707.04 L229.74,707.06 L229.73,707.09 L229.72,707.11 L229.71,707.13 L229.7,707.16 L229.68,707.18 L229.67,707.2 L229.65,707.22 L229.64,707.24 L229.62,707.26 L229.6,707.28 L229.59,707.3 L229.57,707.31 L229.55,707.33 L229.53,707.34 L229.5,707.36 L229.48,707.37 L229.46,707.38 L229.44,707.39 L229.41,707.4 L229.39,707.41 L229.36,707.42 L229.34,707.42 L229.31,707.43 L229.29,707.43 L229.26,707.43 L229.23,707.43 C228.94,707.43,228.71,707.19,228.71,706.91 C228.71,706.62,228.94,706.38,229.23,706.38 C229.52,706.38,229.76,706.62,229.76,706.91 Z " /><path
         id="path3229"
         fill="black"
         stroke-width="0"
         d="M224.79,706.91 L224.78,706.93 L224.78,706.96 L224.78,706.99 L224.77,707.01 L224.77,707.04 L224.76,707.06 L224.75,707.09 L224.74,707.11 L224.73,707.13 L224.72,707.16 L224.71,707.18 L224.69,707.2 L224.68,707.22 L224.66,707.24 L224.65,707.26 L224.63,707.28 L224.61,707.3 L224.59,707.31 L224.57,707.33 L224.55,707.34 L224.53,707.36 L224.51,707.37 L224.49,707.38 L224.46,707.39 L224.44,707.4 L224.41,707.41 L224.39,707.42 L224.36,707.42 L224.34,707.43 L224.31,707.43 L224.28,707.43 L224.26,707.43 C223.97,707.43,223.73,707.19,223.73,706.91 C223.73,706.62,223.97,706.38,224.26,706.38 C224.55,706.38,224.79,706.62,224.79,706.91 Z " /><path
         id="path3231"
         fill="black"
         stroke-width="0"
         d="M238.27,713.84 L238.2,713.8 L238.13,713.75 L238.07,713.71 L238.01,713.67 L237.95,713.63 L237.9,713.59 L237.84,713.55 L237.79,713.52 L237.74,713.48 L237.69,713.44 L237.64,713.41 L237.6,713.37 L237.55,713.34 L237.51,713.3 L237.43,713.24 L237.35,713.17 L237.28,713.1 L237.2,713.03 L237.13,712.96 L237.07,712.89 L237,712.81 L236.93,712.73 L236.86,712.65 C236.16,711.78,235.81,710.79,235.81,709.63 C235.81,708.37,236.18,707.39,237.05,706.38 C237.46,705.9,237.72,705.68,238.24,705.37 L238.36,705.53 C237.56,706.15,237.28,706.5,237.01,707.24 C236.77,707.91,236.66,708.66,236.66,709.66 C236.66,710.7,236.79,711.52,237.06,712.13 C237.34,712.75,237.64,713.1,238.36,713.68 Z " /><polygon
         id="polygon3233"
         fill="black"
         stroke-width="0"
         points="243.35,709.42 242.33,709.42 242.33,713.84 241.89,713.84 238.77,709.42 239.17,709.42 241.55,712.83 241.55,709.42 239.17,709.42 238.77,709.42 238.77,708.78 241.57,708.78 241.57,707.12 242.33,707.12 242.33,708.78 243.35,708.78 " /><path
         id="path3235"
         fill="black"
         stroke-width="0"
         d="M245.15,710.4 L245.21,710.4 L245.26,710.4 L245.31,710.4 L245.36,710.4 L245.4,710.4 L245.45,710.4 L245.49,710.4 L245.53,710.4 L245.57,710.4 L245.61,710.4 L245.65,710.39 L245.68,710.39 L245.72,710.39 L245.75,710.39 L245.78,710.38 L245.81,710.38 L245.84,710.38 L245.87,710.38 L245.9,710.37 L245.92,710.37 L245.95,710.36 L245.98,710.36 L246.02,710.35 L246.07,710.34 L246.12,710.32 L246.16,710.31 L246.21,710.29 C246.82,710.08,247.21,709.51,247.21,708.82 C247.21,707.99,246.65,707.34,245.91,707.34 C245.64,707.34,245.44,707.41,245.07,707.65 C244.77,707.83,244.61,707.9,244.44,707.9 C244.21,707.9,244.06,707.76,244.06,707.55 C244.06,707.2,244.49,706.99,245.18,706.99 C245.95,706.99,246.74,707.24,247.2,707.65 C247.67,708.06,247.93,708.64,247.93,709.3 C247.93,709.81,247.77,710.27,247.48,710.58 C247.28,710.8,247.09,710.92,246.65,711.11 C247.34,711.58,247.59,711.94,247.59,712.48 C247.59,713.28,246.95,713.84,246.04,713.84 C245.54,713.84,245.1,713.67,244.74,713.35 C244.45,713.09,244.3,712.83,244.08,712.23 L244.23,712.19 C244.64,712.92,245.08,713.24,245.71,713.24 C246.36,713.24,246.8,712.81,246.8,712.18 C246.8,711.82,246.65,711.47,246.41,711.22 C246.11,710.92,245.83,710.77,245.15,710.53 Z " /><path
         id="path3237"
         fill="black"
         stroke-width="0"
         d="M251.5,710.81 L251.59,710.86 L251.67,710.91 L251.76,710.96 L251.84,711 L251.91,711.05 L251.99,711.1 L252.06,711.14 L252.12,711.19 L252.18,711.24 L252.24,711.28 L252.3,711.33 L252.35,711.38 L252.4,711.42 L252.45,711.47 L252.49,711.52 L252.53,711.56 L252.57,711.61 L252.61,711.66 L252.64,711.71 L252.67,711.76 L252.7,711.81 L252.72,711.86 L252.74,711.91 L252.76,711.97 L252.78,712.02 L252.79,712.07 L252.8,712.13 L252.81,712.19 L252.82,712.25 L252.83,712.31 L252.83,712.37 L252.83,712.43 C252.83,713.24,252.11,713.84,251.12,713.84 L251.04,713.56 C251.72,713.56,252.14,713.12,252.14,712.44 C252.14,711.87,251.87,711.43,251.3,711.05 C251.25,711.02,251.25,711.02,251.21,710.99 H251.21 C250.32,711.57,249.96,712.02,249.96,712.58 C249.96,713.16,250.41,713.56,251.04,713.56 L251.12,713.84 C250.04,713.84,249.23,713.17,249.23,712.27 C249.23,711.62,249.42,711.34,250.46,710.42 C249.39,709.61,249.17,709.3,249.17,708.62 C249.17,707.66,249.96,706.99,251.08,706.99 L251.19,707.26 C250.43,707.26,249.93,707.84,249.93,708.7 C249.93,709.34,250.14,709.76,250.72,710.22 L251.32,709.79 C252.04,709.27,252.28,708.91,252.28,708.36 C252.28,707.71,251.84,707.26,251.19,707.26 L251.08,706.99 C252.27,706.99,253.04,707.64,253.04,708.66 C253.04,709.43,252.7,709.92,251.5,710.81 Z " /><path
         id="path3239"
         fill="black"
         stroke-width="0"
         d="M253.97,705.37 L254.04,705.41 L254.1,705.45 L254.17,705.5 L254.23,705.54 L254.29,705.58 L254.34,705.61 L254.4,705.65 L254.45,705.69 L254.5,705.73 L254.55,705.76 L254.6,705.8 L254.64,705.83 L254.69,705.87 L254.73,705.9 L254.81,705.97 L254.89,706.04 L254.96,706.11 L255.03,706.18 L255.1,706.25 L255.17,706.32 L255.24,706.4 L255.31,706.48 L255.37,706.56 C256.08,707.42,256.43,708.42,256.43,709.58 C256.43,710.85,256.06,711.81,255.18,712.83 C254.78,713.3,254.52,713.52,254,713.84 L253.88,713.68 C254.68,713.05,254.95,712.71,255.23,711.96 C255.46,711.3,255.57,710.54,255.57,709.55 C255.57,708.52,255.44,707.69,255.18,707.09 C254.9,706.46,254.6,706.1,253.88,705.53 Z " /><path
         id="path3241"
         fill="black"
         stroke-width="0"
         d="M258.94,710.33 L257.68,709.7 V709.6 C257.77,709.64,257.84,709.66,257.87,709.68 C258,709.73,258.12,709.76,258.19,709.76 C258.33,709.76,258.39,709.65,258.39,709.43 V706.28 C258.39,706.05,258.34,705.89,258.23,705.83 C258.12,705.76,258.02,705.74,257.73,705.73 V705.63 H259.65 V705.73 C259.11,705.74,258.99,705.81,258.99,706.15 V710.32 Z " /><path
         id="path3243"
         fill="black"
         stroke-width="0"
         d="M262.17,710.33 L262.13,710.33 L262.1,710.33 L262.06,710.33 L262.03,710.33 L261.99,710.32 L261.96,710.32 L261.93,710.31 L261.9,710.31 L261.86,710.3 L261.83,710.3 L261.8,710.29 L261.77,710.28 L261.74,710.27 L261.71,710.26 L261.68,710.25 L261.65,710.24 L261.62,710.23 L261.6,710.22 L261.57,710.21 L261.54,710.19 L261.51,710.18 L261.49,710.16 L261.46,710.15 L261.43,710.13 L261.41,710.11 L261.38,710.09 L261.36,710.07 L261.33,710.06 L261.31,710.04 L261.28,710.01 L261.26,709.99 L261.23,709.97 C260.83,709.58,260.57,708.78,260.57,707.97 C260.57,707.21,260.8,706.4,261.12,706.01 C261.38,705.7,261.73,705.53,262.14,705.53 V705.71 C261.54,705.71,261.23,706.46,261.23,707.91 C261.23,709.38,261.55,710.15,262.15,710.15 H262.15 C262.73,710.15,263.04,709.36,263.04,707.91 C263.04,706.46,262.74,705.71,262.14,705.71 V705.53 C262.49,705.53,262.79,705.65,263.04,705.9 C263.45,706.28,263.71,707.08,263.71,707.93 C263.71,709.35,263.08,710.33,262.17,710.33 Z " /><polygon
         id="polygon3245"
         fill="black"
         stroke-width="0"
         points="272.86,710.4 272.86,710.96 267.77,710.96 267.77,710.4 " /><polygon
         id="polygon3247"
         fill="black"
         stroke-width="0"
         points="272.86,708.39 272.86,708.94 267.77,708.94 267.77,708.39 " /><path
         id="path3249"
         fill="black"
         stroke-width="0"
         d="M279.19,713.84 L279.12,713.8 L279.06,713.75 L278.99,713.71 L278.93,713.67 L278.87,713.63 L278.82,713.59 L278.76,713.55 L278.71,713.52 L278.66,713.48 L278.61,713.44 L278.56,713.41 L278.52,713.37 L278.47,713.34 L278.43,713.3 L278.35,713.24 L278.27,713.17 L278.2,713.1 L278.13,713.03 L278.06,712.96 L277.99,712.89 L277.92,712.81 L277.85,712.73 L277.79,712.65 C277.08,711.78,276.73,710.79,276.73,709.63 C276.73,708.37,277.1,707.39,277.98,706.38 C278.38,705.9,278.64,705.68,279.16,705.37 L279.28,705.53 C278.48,706.15,278.2,706.5,277.93,707.24 C277.7,707.91,277.59,708.66,277.59,709.66 C277.59,710.7,277.72,711.52,277.98,712.13 C278.26,712.75,278.56,713.1,279.28,713.68 Z " /><path
         id="path3251"
         fill="black"
         stroke-width="0"
         d="M282.47,713.84 L280.68,712.94 V712.8 C280.8,712.85,280.9,712.89,280.94,712.91 C281.12,712.98,281.29,713.02,281.39,713.02 C281.6,713.02,281.69,712.87,281.69,712.55 V708.05 C281.69,707.72,281.61,707.49,281.45,707.4 C281.3,707.31,281.16,707.28,280.75,707.27 V707.12 H283.49 V707.27 C282.7,707.28,282.55,707.38,282.55,707.86 V713.82 Z " /><path
         id="path3253"
         fill="black"
         stroke-width="0"
         d="M289.94,713.84 L288.15,712.94 V712.8 C288.27,712.85,288.38,712.89,288.42,712.91 C288.6,712.98,288.77,713.02,288.86,713.02 C289.07,713.02,289.16,712.87,289.16,712.55 V708.05 C289.16,707.72,289.08,707.49,288.92,707.4 C288.77,707.31,288.64,707.28,288.22,707.27 V707.12 H290.96 V707.27 C290.18,707.28,290.02,707.38,290.02,707.86 V713.82 Z " /><path
         id="path3255"
         fill="black"
         stroke-width="0"
         d="M297.04,713.84 L296.99,713.84 L296.94,713.84 L296.89,713.84 L296.84,713.83 L296.8,713.83 L296.75,713.82 L296.7,713.82 L296.66,713.81 L296.61,713.8 L296.56,713.79 L296.52,713.78 L296.48,713.77 L296.43,713.76 L296.39,713.74 L296.35,713.73 L296.31,713.71 L296.27,713.7 L296.23,713.68 L296.19,713.66 L296.15,713.64 L296.11,713.62 L296.07,713.6 L296.03,713.57 L296,713.55 L295.96,713.53 L295.92,713.5 L295.89,713.47 L295.85,713.45 L295.81,713.42 L295.78,713.39 L295.74,713.36 L295.71,713.32 C295.13,712.77,294.75,711.62,294.75,710.46 C294.75,709.38,295.08,708.22,295.55,707.66 C295.92,707.22,296.43,706.99,297,706.99 V707.24 C296.15,707.24,295.71,708.31,295.71,710.37 C295.71,712.48,296.16,713.58,297.01,713.58 H297.01 C297.85,713.58,298.3,712.46,298.3,710.38 C298.3,708.31,297.86,707.24,297,707.24 V706.99 C297.51,706.99,297.94,707.16,298.3,707.5 C298.87,708.05,299.25,709.2,299.25,710.4 C299.25,712.44,298.35,713.84,297.04,713.84 Z " /><path
         id="path3257"
         fill="black"
         stroke-width="0"
         d="M304.88,713.84 L303.09,712.94 V712.8 C303.21,712.85,303.32,712.89,303.36,712.91 C303.54,712.98,303.71,713.02,303.81,713.02 C304.02,713.02,304.11,712.87,304.11,712.55 V708.05 C304.11,707.72,304.03,707.49,303.87,707.4 C303.72,707.31,303.58,707.28,303.16,707.27 V707.12 H305.91 V707.27 C305.12,707.28,304.96,707.38,304.96,707.86 V713.82 Z " /><path
         id="path3259"
         fill="black"
         stroke-width="0"
         d="M312.36,713.84 L310.56,712.94 V712.8 C310.68,712.85,310.79,712.89,310.83,712.91 C311.01,712.98,311.18,713.02,311.28,713.02 C311.49,713.02,311.58,712.87,311.58,712.55 V708.05 C311.58,707.72,311.5,707.49,311.34,707.4 C311.19,707.31,311.05,707.28,310.63,707.27 V707.12 H313.38 V707.27 C312.59,707.28,312.43,707.38,312.43,707.86 V713.82 Z " /><path
         id="path3261"
         fill="black"
         stroke-width="0"
         d="M319.46,713.84 L319.41,713.84 L319.36,713.84 L319.31,713.84 L319.26,713.83 L319.21,713.83 L319.16,713.82 L319.12,713.82 L319.07,713.81 L319.03,713.8 L318.98,713.79 L318.94,713.78 L318.89,713.77 L318.85,713.76 L318.81,713.74 L318.77,713.73 L318.72,713.71 L318.68,713.7 L318.64,713.68 L318.6,713.66 L318.56,713.64 L318.53,713.62 L318.49,713.6 L318.45,713.57 L318.41,713.55 L318.37,713.53 L318.34,713.5 L318.3,713.47 L318.27,713.45 L318.23,713.42 L318.19,713.39 L318.16,713.36 L318.12,713.32 C317.55,712.77,317.17,711.62,317.17,710.46 C317.17,709.38,317.5,708.22,317.97,707.66 C318.33,707.22,318.84,706.99,319.42,706.99 V707.24 C318.56,707.24,318.12,708.31,318.12,710.37 C318.12,712.48,318.57,713.58,319.43,713.58 H319.43 C320.26,713.58,320.71,712.46,320.71,710.38 C320.71,708.31,320.27,707.24,319.42,707.24 V706.99 C319.93,706.99,320.35,707.16,320.71,707.5 C321.29,708.05,321.67,709.2,321.67,710.4 C321.67,712.44,320.76,713.84,319.46,713.84 Z " /><path
         id="path3263"
         fill="black"
         stroke-width="0"
         d="M327.3,713.84 L325.51,712.94 V712.8 C325.63,712.85,325.74,712.89,325.78,712.91 C325.95,712.98,326.12,713.02,326.22,713.02 C326.43,713.02,326.52,712.87,326.52,712.55 V708.05 C326.52,707.72,326.44,707.49,326.28,707.4 C326.13,707.31,325.99,707.28,325.58,707.27 V707.12 H328.32 V707.27 C327.54,707.28,327.38,707.38,327.38,707.86 V713.82 Z " /><path
         id="path3265"
         fill="black"
         stroke-width="0"
         d="M334.77,713.84 L332.98,712.94 V712.8 C333.1,712.85,333.21,712.89,333.25,712.91 C333.43,712.98,333.6,713.02,333.7,713.02 C333.9,713.02,333.99,712.87,333.99,712.55 V708.05 C333.99,707.72,333.92,707.49,333.76,707.4 C333.61,707.31,333.47,707.28,333.05,707.27 V707.12 H335.8 V707.27 C335.01,707.28,334.85,707.38,334.85,707.86 V713.82 Z " /><path
         id="path3267"
         fill="black"
         stroke-width="0"
         d="M341.87,713.84 L341.82,713.84 L341.77,713.84 L341.72,713.84 L341.67,713.83 L341.63,713.83 L341.58,713.82 L341.53,713.82 L341.49,713.81 L341.44,713.8 L341.4,713.79 L341.35,713.78 L341.31,713.77 L341.27,713.76 L341.22,713.74 L341.18,713.73 L341.14,713.71 L341.1,713.7 L341.06,713.68 L341.02,713.66 L340.98,713.64 L340.94,713.62 L340.9,713.6 L340.87,713.57 L340.83,713.55 L340.79,713.53 L340.75,713.5 L340.72,713.47 L340.68,713.45 L340.65,713.42 L340.61,713.39 L340.58,713.36 L340.54,713.32 C339.96,712.77,339.59,711.62,339.59,710.46 C339.59,709.38,339.91,708.22,340.38,707.66 C340.75,707.22,341.26,706.99,341.83,706.99 V707.24 C340.98,707.24,340.54,708.31,340.54,710.37 C340.54,712.48,340.99,713.58,341.84,713.58 H341.84 C342.68,713.58,343.13,712.46,343.13,710.38 C343.13,708.31,342.69,707.24,341.83,707.24 V706.99 C342.34,706.99,342.77,707.16,343.13,707.5 C343.7,708.05,344.08,709.2,344.08,710.4 C344.08,712.44,343.18,713.84,341.87,713.84 Z " /><path
         id="path3269"
         fill="black"
         stroke-width="0"
         d="M344.71,705.37 L344.77,705.41 L344.84,705.45 L344.9,705.5 L344.96,705.54 L345.02,705.58 L345.08,705.61 L345.13,705.65 L345.18,705.69 L345.23,705.73 L345.28,705.76 L345.33,705.8 L345.38,705.83 L345.42,705.87 L345.46,705.9 L345.55,705.97 L345.62,706.04 L345.7,706.11 L345.77,706.18 L345.84,706.25 L345.91,706.32 L345.97,706.4 L346.04,706.48 L346.11,706.56 C346.82,707.42,347.16,708.42,347.16,709.58 C347.16,710.85,346.8,711.81,345.92,712.83 C345.51,713.3,345.25,713.52,344.74,713.84 L344.62,713.68 C345.41,713.05,345.68,712.71,345.96,711.96 C346.2,711.3,346.31,710.54,346.31,709.55 C346.31,708.52,346.18,707.69,345.91,707.09 C345.63,706.46,345.33,706.1,344.62,705.53 Z " /><path
         id="path3271"
         fill="black"
         stroke-width="0"
         d="M350.95,706.58 L350.86,706.62 C350.61,706.22,350.52,706.16,350.2,706.16 H348.54 L349.71,707.38 C350.33,708.03,350.6,708.56,350.6,709.1 C350.6,709.8,350.04,710.33,349.31,710.33 C348.93,710.33,348.57,710.18,348.31,709.9 C348.08,709.66,347.98,709.44,347.86,708.95 L348.01,708.91 C348.29,709.59,348.54,709.82,349.02,709.82 C349.6,709.82,350,709.42,350,708.84 C350,708.29,349.68,707.65,349.1,707.03 L347.86,705.71 V705.63 H350.57 Z " /></g>  </g>
</svg>
