<?xml version="1.0" encoding="UTF-8" standalone="no"?>
<!-- Created with Inkscape (http://www.inkscape.org/) -->

<svg
   xmlns:ns0="http://www.iki.fi/pav/software/textext/"
   xmlns:dc="http://purl.org/dc/elements/1.1/"
   xmlns:cc="http://creativecommons.org/ns#"
   xmlns:rdf="http://www.w3.org/1999/02/22-rdf-syntax-ns#"
   xmlns:svg="http://www.w3.org/2000/svg"
   xmlns="http://www.w3.org/2000/svg"
   xmlns:sodipodi="http://sodipodi.sourceforge.net/DTD/sodipodi-0.dtd"
   xmlns:inkscape="http://www.inkscape.org/namespaces/inkscape"
   width="496.06299"
   height="354.33069"
   id="svg2"
   version="1.1"
   inkscape:version="0.48.4 r9939"
   sodipodi:docname="div50.eps">
  <sodipodi:namedview
     id="base"
     pagecolor="#ffffff"
     bordercolor="#666666"
     borderopacity="1.0"
     inkscape:pageopacity="0.0"
     inkscape:pageshadow="2"
     inkscape:zoom="2.3827614"
     inkscape:cx="223.74222"
     inkscape:cy="160.42941"
     inkscape:document-units="cm"
     inkscape:current-layer="layer1"
     showgrid="false"
     units="cm"
     inkscape:object-nodes="true"
     inkscape:window-width="1366"
     inkscape:window-height="744"
     inkscape:window-x="0"
     inkscape:window-y="24"
     inkscape:window-maximized="1">
    <inkscape:grid
       type="xygrid"
       id="grid2985"
       empspacing="5"
       visible="true"
       enabled="true"
       snapvisiblegridlinesonly="true" />
  </sodipodi:namedview>
  <defs
     id="defs4">
    <marker
       inkscape:stockid="Arrow1Mstart"
       orient="auto"
       refY="0"
       refX="0"
       id="Arrow1Mstart"
       style="overflow:visible">
      <path
         inkscape:connector-curvature="0"
         id="path3775"
         d="M 0,0 5,-5 -12.5,0 5,5 0,0 z"
         style="fill-rule:evenodd;stroke:#000000;stroke-width:1pt"
         transform="matrix(0.4,0,0,0.4,4,0)" />
    </marker>
    <marker
       inkscape:stockid="Arrow1Mend"
       orient="auto"
       refY="0"
       refX="0"
       id="Arrow1Mend"
       style="overflow:visible">
      <path
         inkscape:connector-curvature="0"
         id="path3778"
         d="M 0,0 5,-5 -12.5,0 5,5 0,0 z"
         style="fill-rule:evenodd;stroke:#000000;stroke-width:1pt"
         transform="matrix(-0.4,0,0,-0.4,-4,0)" />
    </marker>
    <marker
       style="overflow:visible"
       id="Arrow1Mstart-7"
       refX="0"
       refY="0"
       orient="auto"
       inkscape:stockid="Arrow1Mstart">
      <path
         transform="matrix(0.4,0,0,0.4,4,0)"
         style="fill-rule:evenodd;stroke:#000000;stroke-width:1pt"
         d="M 0,0 5,-5 -12.5,0 5,5 0,0 z"
         id="path3775-8"
         inkscape:connector-curvature="0" />
    </marker>
  </defs>
  <metadata
     id="metadata7">
    <rdf:RDF>
      <cc:Work
         rdf:about="">
        <dc:format>image/svg+xml</dc:format>
        <dc:type
           rdf:resource="http://purl.org/dc/dcmitype/StillImage" />
        <dc:title></dc:title>
      </cc:Work>
    </rdf:RDF>
  </metadata>
  <g
     inkscape:label="Layer 1"
     inkscape:groupmode="layer"
     id="layer1"
     transform="translate(0,-698.03016)">
    <text
       sodipodi:linespacing="100%"
       id="text5818"
       y="754.07056"
       x="61.700558"
       style="font-size:12px;font-style:normal;font-variant:normal;font-weight:normal;font-stretch:normal;text-align:start;line-height:100%;letter-spacing:0px;word-spacing:0px;text-anchor:start;fill:#000000;fill-opacity:1;stroke:none;font-family:LMRoman12;-inkscape-font-specification:Sans"
       xml:space="preserve"><tspan
         y="754.07056"
         x="61.700558"
         id="tspan5820"
         sodipodi:role="line" /></text>
    <flowRoot
       xml:space="preserve"
       id="flowRoot6377"
       style="font-size:12px;font-style:normal;font-variant:normal;font-weight:normal;font-stretch:normal;text-align:start;line-height:100%;letter-spacing:0px;word-spacing:0px;text-anchor:start;fill:#000000;fill-opacity:1;stroke:none;font-family:LMRoman12;-inkscape-font-specification:Sans"><flowRegion
         id="flowRegion6379"><rect
           id="rect6381"
           width="27.681772"
           height="40.319103"
           x="219.34796"
           y="87.141403" /></flowRegion><flowPara
         id="flowPara6383" /></flowRoot>    <text
       xml:space="preserve"
       style="font-size:12px;font-style:normal;font-variant:normal;font-weight:normal;font-stretch:normal;text-align:start;line-height:50%;letter-spacing:0px;word-spacing:0px;text-anchor:start;fill:#000000;fill-opacity:1;stroke:none;font-family:LMRoman12;-inkscape-font-specification:Sans"
       x="275.91507"
       y="753.27734"
       id="text6385"
       sodipodi:linespacing="50%"><tspan
         sodipodi:role="line"
         id="tspan6387"
         x="275.91507"
         y="753.27734" /></text>
    <text
       xml:space="preserve"
       style="font-size:12px;font-style:normal;font-variant:normal;font-weight:normal;font-stretch:normal;text-align:start;line-height:100%;letter-spacing:0px;word-spacing:0px;text-anchor:start;fill:#000000;fill-opacity:1;stroke:none;font-family:LMRoman12;-inkscape-font-specification:Sans"
       x="348.65417"
       y="892.41718"
       id="text3884"
       sodipodi:linespacing="100%"><tspan
         sodipodi:role="line"
         x="348.65417"
         y="892.41718"
         id="tspan3890" /></text>
    <text
       xml:space="preserve"
       style="font-size:12px;font-style:normal;font-variant:normal;font-weight:normal;font-stretch:normal;text-align:start;line-height:150%;letter-spacing:0px;word-spacing:0px;text-anchor:start;fill:#000000;fill-opacity:1;stroke:none;font-family:LMRoman12;-inkscape-font-specification:Sans"
       x="216.96629"
       y="948.92749"
       id="text3887"
       sodipodi:linespacing="150%"><tspan
         sodipodi:role="line"
         id="tspan3889"
         x="216.96629"
         y="948.92749" /></text>
    <text
       xml:space="preserve"
       style="font-size:12px;font-style:normal;font-variant:normal;font-weight:normal;font-stretch:normal;text-align:start;line-height:150%;letter-spacing:0px;word-spacing:0px;text-anchor:start;fill:#000000;fill-opacity:1;stroke:none;font-family:LMRoman12;-inkscape-font-specification:Sans"
       x="173"
       y="759.11084"
       id="text7389"
       sodipodi:linespacing="150%"><tspan
         sodipodi:role="line"
         id="tspan7391"
         x="173"
         y="759.11084" /></text>
    <text
       sodipodi:linespacing="150%"
       id="text12764"
       y="833.35034"
       x="262.98758"
       style="font-size:12px;font-style:normal;font-variant:normal;font-weight:normal;font-stretch:normal;text-align:start;line-height:150%;letter-spacing:0px;word-spacing:0px;text-anchor:start;fill:#000000;fill-opacity:1;stroke:none;font-family:LMRoman12;-inkscape-font-specification:Sans"
       xml:space="preserve"><tspan
         y="833.35034"
         x="262.98758"
         id="tspan12766"
         sodipodi:role="line"
         dx="0 0 0">   B 4 7 . A B</tspan><tspan
         id="tspan12770"
         y="851.35034"
         x="262.98758"
         sodipodi:role="line">+ 5 9 7 .  3 B</tspan></text>
    <text
       xml:space="preserve"
       style="font-size:12px;font-style:normal;font-variant:normal;font-weight:normal;font-stretch:normal;text-align:start;line-height:150%;letter-spacing:0px;word-spacing:0px;text-anchor:start;fill:#000000;fill-opacity:1;stroke:none;font-family:LMRoman12;-inkscape-font-specification:Sans"
       x="347.50522"
       y="185.47461"
       id="text12776"
       sodipodi:linespacing="150%"
       transform="translate(0,698.03016)"><tspan
         sodipodi:role="line"
         id="tspan12778"
         x="347.50522"
         y="185.47461" /></text>
    <path
       sodipodi:nodetypes="cc"
       style="fill:none;stroke:#000000;stroke-width:0.80000001;stroke-linecap:square;stroke-linejoin:round;stroke-miterlimit:4;stroke-opacity:1;stroke-dasharray:none;stroke-dashoffset:0"
       d="m 256.41662,857.55347 80.68337,0"
       id="path12780"
       inkscape:connector-curvature="0" />
    <text
       sodipodi:linespacing="150%"
       id="text12782"
       y="869.23932"
       x="265.73859"
       style="font-size:12px;font-style:normal;font-variant:normal;font-weight:normal;font-stretch:normal;text-align:start;line-height:150%;letter-spacing:0px;word-spacing:0px;text-anchor:start;fill:#000000;fill-opacity:1;stroke:none;font-family:LMRoman12;-inkscape-font-specification:Sans"
       xml:space="preserve"><tspan
         dx="0 0 0 0 0 0 0 0 0 0 2.0773156"
         id="tspan12786"
         y="869.23932"
         x="265.73859"
         sodipodi:role="line">1 1 0 B . E 6</tspan><tspan
         id="tspan12788"
         y="887.23932"
         x="265.73859"
         sodipodi:role="line" /></text>
    <text
       sodipodi:linespacing="150%"
       id="text12981"
       y="870.6402"
       x="208.35962"
       style="font-size:12px;font-style:normal;font-variant:normal;font-weight:normal;font-stretch:normal;text-align:start;line-height:150%;letter-spacing:0px;word-spacing:0px;text-anchor:start;fill:#000000;fill-opacity:1;stroke:none;font-family:LMRoman12;-inkscape-font-specification:Sans"
       xml:space="preserve"><tspan
         y="870.6402"
         x="208.35962"
         id="tspan12983"
         sodipodi:role="line">end carry</tspan></text>
    <path
       style="fill:none;stroke:#000000;stroke-width:0.80000001;stroke-linecap:square;stroke-linejoin:round;stroke-miterlimit:4;stroke-opacity:1;stroke-dasharray:none;stroke-dashoffset:0;marker-start:none;marker-end:url(#Arrow1Mend)"
       d="m 268.83028,872.09289 0.0117,5.4557 c 0,3.26621 2.0336,4.43228 4.5037,4.43228 l 47.85432,0"
       id="path14827"
       inkscape:connector-curvature="0"
       sodipodi:nodetypes="cccc" />
    <path
       sodipodi:type="arc"
       style="fill:none;stroke:#000000;stroke-width:0.49231508;stroke-linecap:square;stroke-linejoin:round;stroke-miterlimit:4;stroke-opacity:1;stroke-dasharray:none;stroke-dashoffset:0"
       id="path3764"
       sodipodi:cx="268.66678"
       sodipodi:cy="182.19679"
       sodipodi:rx="4.144124"
       sodipodi:ry="5.4042087"
       d="m 272.8109,182.19679 c 0,2.98466 -1.85538,5.40421 -4.14412,5.40421 -2.28874,0 -4.14413,-2.41955 -4.14413,-5.40421 0,-2.98466 1.85539,-5.40421 4.14413,-5.40421 2.28874,0 4.14412,2.41955 4.14412,5.40421 z"
       transform="matrix(1.2187317,0,0,1.2187317,-58.765953,643.32629)" />
    <text
       xml:space="preserve"
       style="font-size:12px;font-style:normal;font-variant:normal;font-weight:normal;font-stretch:normal;text-align:start;line-height:150%;letter-spacing:0px;word-spacing:0px;text-anchor:start;fill:#000000;fill-opacity:1;stroke:none;font-family:LMRoman12;-inkscape-font-specification:Sans"
       x="325.88214"
       y="885.1521"
       id="text3766"
       sodipodi:linespacing="150%"><tspan
         dx="3.0426891"
         sodipodi:role="line"
         id="tspan3768"
         x="325.88214"
         y="885.1521">1</tspan></text>
    <path
       sodipodi:nodetypes="cc"
       inkscape:connector-curvature="0"
       id="path3770"
       d="m 256.41662,888.37452 80.68337,0"
       style="fill:none;stroke:#000000;stroke-width:0.80000001;stroke-linecap:square;stroke-linejoin:round;stroke-miterlimit:4;stroke-opacity:1;stroke-dasharray:none;stroke-dashoffset:0" />
    <text
       xml:space="preserve"
       style="font-size:12px;font-style:normal;font-variant:normal;font-weight:normal;font-stretch:normal;text-align:start;line-height:150%;letter-spacing:0px;word-spacing:0px;text-anchor:start;fill:#000000;fill-opacity:1;stroke:none;font-family:LMRoman12;-inkscape-font-specification:Sans"
       x="275.53546"
       y="900.06036"
       id="text3772"
       sodipodi:linespacing="150%"><tspan
         dx="0 0 0 0 0 0 0 0 2.6230075"
         sodipodi:role="line"
         x="275.53546"
         y="900.06036"
         id="tspan3774">1 0 B . E 7 </tspan><tspan
         sodipodi:role="line"
         x="275.53546"
         y="918.06036"
         id="tspan3776" /></text>
    <text
       xml:space="preserve"
       style="font-size:12px;font-style:normal;font-variant:normal;font-weight:normal;font-stretch:normal;text-align:start;line-height:150%;letter-spacing:0px;word-spacing:0px;text-anchor:start;fill:#000000;fill-opacity:1;stroke:none;font-family:LMRoman12;-inkscape-font-specification:Sans"
       x="122.24146"
       y="833.43433"
       id="text3383"
       sodipodi:linespacing="150%"><tspan
         sodipodi:role="line"
         id="tspan3385"
         x="122.24146"
         y="833.43433">Now</tspan></text>
    <g
       style="font-style:normal;font-variant:normal;font-weight:normal;font-stretch:normal;letter-spacing:normal;word-spacing:normal;text-anchor:start;fill:none;stroke:#000000;stroke-width:1;stroke-linecap:butt;stroke-linejoin:miter;stroke-miterlimit:10.43299961;stroke-opacity:1;stroke-dasharray:none;stroke-dashoffset:0"
       ns0:preamble="/home/sriranga/Desktop/Prism_BasicElectronics/preamble.tex"
       ns0:text="$\\therefore $~ Answer~ $= (10B.E7)_{16}$ "
       text-anchor="start"
       word-spacing="normal"
       letter-spacing="normal"
       font-size-adjust="none"
       font-stretch="normal"
       font-weight="normal"
       font-variant="normal"
       font-style="normal"
       fill-opacity="1"
       fill-rule="evenodd"
       fill="none"
       stroke-opacity="1"
       stroke-dashoffset="0"
       stroke-dasharray="none"
       stroke-miterlimit="10.433"
       stroke-linejoin="miter"
       stroke-linecap="butt"
       stroke="black"
       xml:space="preserve"
       transform="matrix(1.2,0,0,-1.2,-57.358226,1768.7564)"
       id="content"><path
         id="path3671"
         fill="black"
         stroke-width="0"
         d="M227.27,711.21 L227.27,711.23 L227.27,711.26 L227.27,711.29 L227.26,711.31 L227.26,711.34 L227.25,711.36 L227.24,711.39 L227.23,711.41 L227.22,711.43 L227.21,711.46 L227.2,711.48 L227.18,711.5 L227.17,711.52 L227.15,711.54 L227.13,711.56 L227.12,711.58 L227.1,711.6 L227.08,711.61 L227.06,711.63 L227.04,711.64 L227.02,711.66 L227,711.67 L226.97,711.68 L226.95,711.69 L226.93,711.7 L226.9,711.71 L226.88,711.72 L226.85,711.72 L226.82,711.73 L226.8,711.73 L226.77,711.73 L226.74,711.73 C226.46,711.73,226.22,711.5,226.22,711.21 C226.22,710.92,226.46,710.68,226.74,710.68 C227.02,710.68,227.27,710.91,227.27,711.21 Z " /><path
         id="path3673"
         fill="black"
         stroke-width="0"
         d="M229.76,706.91 L229.76,706.93 L229.76,706.96 L229.75,706.99 L229.75,707.01 L229.74,707.04 L229.74,707.06 L229.73,707.09 L229.72,707.11 L229.71,707.13 L229.7,707.16 L229.68,707.18 L229.67,707.2 L229.65,707.22 L229.64,707.24 L229.62,707.26 L229.6,707.28 L229.59,707.3 L229.57,707.31 L229.55,707.33 L229.53,707.34 L229.5,707.36 L229.48,707.37 L229.46,707.38 L229.44,707.39 L229.41,707.4 L229.39,707.41 L229.36,707.42 L229.34,707.42 L229.31,707.43 L229.29,707.43 L229.26,707.43 L229.23,707.43 C228.94,707.43,228.71,707.19,228.71,706.91 C228.71,706.62,228.94,706.38,229.23,706.38 C229.52,706.38,229.76,706.62,229.76,706.91 Z " /><path
         id="path3675"
         fill="black"
         stroke-width="0"
         d="M224.79,706.91 L224.78,706.93 L224.78,706.96 L224.78,706.99 L224.77,707.01 L224.77,707.04 L224.76,707.06 L224.75,707.09 L224.74,707.11 L224.73,707.13 L224.72,707.16 L224.71,707.18 L224.69,707.2 L224.68,707.22 L224.66,707.24 L224.65,707.26 L224.63,707.28 L224.61,707.3 L224.59,707.31 L224.57,707.33 L224.55,707.34 L224.53,707.36 L224.51,707.37 L224.49,707.38 L224.46,707.39 L224.44,707.4 L224.41,707.41 L224.39,707.42 L224.36,707.42 L224.34,707.43 L224.31,707.43 L224.28,707.43 L224.26,707.43 C223.97,707.43,223.73,707.19,223.73,706.91 C223.73,706.62,223.97,706.38,224.26,706.38 C224.55,706.38,224.79,706.62,224.79,706.91 Z " /><path
         id="path3677"
         fill="black"
         stroke-width="0"
         d="M242.08,707.31 L242.04,707.32 L242,707.32 L241.96,707.32 L241.93,707.33 L241.89,707.34 L241.86,707.34 L241.83,707.35 L241.8,707.36 L241.77,707.37 L241.74,707.38 L241.72,707.39 L241.69,707.41 L241.67,707.42 L241.64,707.44 L241.62,707.46 L241.59,707.48 L241.57,707.51 L241.55,707.53 L241.52,707.56 L241.5,707.59 L241.48,707.62 L241.46,707.66 L241.43,707.7 L241.41,707.74 L241.38,707.78 L241.36,707.83 L241.33,707.88 L241.3,707.93 L241.28,707.99 L241.25,708.05 L241.23,708.08 L241.22,708.11 L241.2,708.14 L241.18,708.18 L238.71,713.82 H238.51 L236.44,708.94 C235.8,707.49,235.68,707.33,235.2,707.31 V707.12 H237.17 V707.31 C236.7,707.31,236.5,707.44,236.5,707.72 C236.5,707.84,236.53,707.98,236.58,708.11 L237.04,709.27 H239.64 L239.5,709.68 H237.2 L238.35,712.41 L239.5,709.68 L239.64,709.27 L240.05,708.32 C240.17,708.05,240.24,707.79,240.24,707.65 C240.24,707.4,240.07,707.32,239.54,707.31 V707.12 H242.08 Z " /><path
         id="path3679"
         fill="black"
         stroke-width="0"
         d="M242.41,711.08 L242.41,711.08 L242.42,711.08 L242.42,711.09 L242.43,711.09 L242.44,711.09 L242.44,711.09 L242.45,711.1 L242.46,711.1 L242.47,711.1 L242.47,711.1 L242.49,711.1 L242.51,711.11 L242.52,711.11 L242.54,711.11 L242.56,711.11 L242.58,711.11 L242.6,711.12 L242.62,711.12 L242.64,711.12 L242.66,711.12 L242.68,711.12 C242.95,711.12,243.04,710.97,243.04,710.48 V708.02 C243.04,707.45,242.93,707.31,242.43,707.27 V707.12 H244.54 V707.27 C244.03,707.31,243.88,707.43,243.88,707.79 V710.58 C244.36,711.03,244.58,711.15,244.9,711.15 C245.39,711.15,245.63,710.84,245.63,710.18 V708.11 C245.63,707.48,245.5,707.31,245,707.27 V707.12 H247.07 V707.27 C246.59,707.32,246.47,707.44,246.47,707.93 V710.2 C246.47,711.14,246.03,711.7,245.29,711.7 C244.84,711.7,244.53,711.53,243.85,710.89 V711.67 L243.78,711.7 C243.29,711.52,242.95,711.41,242.41,711.25 Z " /><path
         id="path3681"
         fill="black"
         stroke-width="0"
         d="M250.36,710.24 L250.32,711.59 H250.21 L250.19,711.58 C250.1,711.51,250.1,711.5,250.05,711.5 C249.99,711.5,249.9,711.52,249.79,711.57 C249.57,711.65,249.35,711.68,249.09,711.68 C248.3,711.68,247.74,711.18,247.74,710.46 C247.74,709.91,248.05,709.51,248.9,709.03 L249.48,708.7 C249.83,708.51,249.99,708.27,249.99,707.96 C249.99,707.52,249.68,707.24,249.17,707.24 C248.83,707.24,248.52,707.37,248.33,707.59 C248.12,707.84,248.04,708.07,247.91,708.64 H247.75 V707.09 H247.88 C247.95,707.18,247.99,707.2,248.1,707.2 C248.19,707.2,248.33,707.18,248.56,707.12 C248.84,707.07,249.11,707.03,249.29,707.03 C250.05,707.03,250.69,707.6,250.69,708.3 C250.69,708.79,250.45,709.12,249.86,709.48 L248.78,710.11 C248.5,710.27,248.35,710.52,248.35,710.79 C248.35,711.19,248.66,711.47,249.12,711.47 C249.69,711.47,249.99,711.13,250.21,710.24 Z " /><path
         id="path3683"
         fill="black"
         stroke-width="0"
         d="M256.79,711.59 V711.45 C257.12,711.38,257.22,711.31,257.22,711.14 C257.22,710.99,257.16,710.75,257.05,710.48 L256.16,708.28 L255.32,710.5 C255.15,710.96,255.15,710.96,255.15,711.09 C255.15,711.31,255.26,711.38,255.73,711.45 V711.59 H253.71 V711.45 C254.08,711.41,254.2,711.3,254.4,710.76 C254.47,710.57,254.54,710.38,254.6,710.2 L253.69,708.23 L252.71,710.82 C252.67,710.92,252.65,711.02,252.65,711.12 C252.65,711.33,252.77,711.41,253.1,711.45 V711.59 H251.31 V711.45 C251.54,711.43,251.62,711.33,251.84,710.82 L253.18,707.42 C253.3,707.12,253.38,706.99,253.44,706.99 C253.49,706.99,253.57,707.11,253.69,707.37 L254.81,709.76 L255.71,707.41 C255.85,707.05,255.89,706.99,255.95,706.99 C256.02,706.99,256.07,707.08,256.23,707.47 L257.6,710.91 C257.78,711.33,257.81,711.38,258.01,711.45 V711.59 Z " /><path
         id="path3685"
         fill="black"
         stroke-width="0"
         d="M262.36,708.75 L262.31,708.68 L262.27,708.62 L262.22,708.55 L262.18,708.49 L262.14,708.43 L262.09,708.38 L262.05,708.32 L262,708.27 L261.96,708.22 L261.92,708.18 L261.87,708.13 L261.83,708.09 L261.78,708.05 L261.74,708.02 L261.69,707.98 L261.65,707.95 L261.6,707.92 L261.55,707.89 L261.5,707.87 L261.46,707.84 L261.41,707.82 L261.36,707.8 L261.31,707.78 L261.26,707.77 L261.21,707.75 L261.15,707.74 L261.1,707.73 L261.04,707.72 L260.99,707.72 L260.93,707.71 L260.87,707.71 L260.82,707.71 C260.25,707.71,259.82,708,259.53,708.57 C259.35,708.94,259.28,709.27,259.26,709.88 L259.28,710.2 C259.39,710.97,259.73,711.34,260.34,711.34 C260.94,711.34,261.18,711.06,261.31,710.2 H259.28 L259.26,709.88 H262.33 C262.25,710.52,262.15,710.81,261.9,711.13 C261.6,711.49,261.14,711.7,260.63,711.7 C260.13,711.7,259.66,711.52,259.28,711.18 C258.82,710.77,258.55,710.07,258.55,709.25 C258.55,707.88,259.26,707.03,260.41,707.03 C261.35,707.03,262.1,707.61,262.52,708.68 Z " /><path
         id="path3687"
         fill="black"
         stroke-width="0"
         d="M262.79,711 L262.8,711 L262.82,711 L262.83,711.01 L262.84,711.01 L262.86,711.01 L262.89,711.02 L262.91,711.02 L262.93,711.02 L262.95,711.03 L262.97,711.03 L262.99,711.03 L263.01,711.03 L263.03,711.04 L263.05,711.04 L263.07,711.04 L263.1,711.04 L263.12,711.04 L263.14,711.04 C263.39,711.04,263.48,710.88,263.48,710.44 V707.96 C263.48,707.46,263.41,707.39,262.77,707.27 V707.12 H265.16 V707.27 C264.48,707.3,264.31,707.45,264.31,708.02 V710.25 C264.31,710.57,264.74,711.07,265.01,711.07 C265.07,711.07,265.16,711.02,265.27,710.92 C265.43,710.78,265.54,710.72,265.67,710.72 C265.9,710.72,266.05,710.89,266.05,711.17 C266.05,711.5,265.85,711.7,265.51,711.7 C265.09,711.7,264.8,711.47,264.31,710.76 V711.67 L264.26,711.7 C263.74,711.48,263.38,711.35,262.79,711.16 Z " /><polygon
         id="polygon3689"
         fill="black"
         stroke-width="0"
         points="276.73,710.4 276.73,710.96 271.64,710.96 271.64,710.4 " /><polygon
         id="polygon3691"
         fill="black"
         stroke-width="0"
         points="276.73,708.39 276.73,708.94 271.64,708.94 271.64,708.39 " /><path
         id="path3693"
         fill="black"
         stroke-width="0"
         d="M283.06,713.84 L282.99,713.8 L282.93,713.75 L282.86,713.71 L282.8,713.67 L282.74,713.63 L282.69,713.59 L282.63,713.55 L282.58,713.52 L282.53,713.48 L282.48,713.44 L282.43,713.41 L282.39,713.37 L282.34,713.34 L282.3,713.3 L282.22,713.24 L282.14,713.17 L282.07,713.1 L282,713.03 L281.93,712.96 L281.86,712.89 L281.79,712.81 L281.72,712.73 L281.66,712.65 C280.95,711.78,280.6,710.79,280.6,709.63 C280.6,708.37,280.97,707.39,281.85,706.38 C282.25,705.9,282.51,705.68,283.03,705.37 L283.15,705.53 C282.35,706.15,282.07,706.5,281.8,707.24 C281.57,707.91,281.46,708.66,281.46,709.66 C281.46,710.7,281.59,711.52,281.86,712.13 C282.13,712.75,282.43,713.1,283.15,713.68 Z " /><path
         id="path3695"
         fill="black"
         stroke-width="0"
         d="M286.34,713.84 L284.55,712.94 V712.8 C284.67,712.85,284.77,712.89,284.82,712.91 C284.99,712.98,285.16,713.02,285.26,713.02 C285.47,713.02,285.56,712.87,285.56,712.55 V708.05 C285.56,707.72,285.48,707.49,285.32,707.4 C285.17,707.31,285.03,707.28,284.62,707.27 V707.12 H287.36 V707.27 C286.58,707.28,286.42,707.38,286.42,707.86 V713.82 Z " /><path
         id="path3697"
         fill="black"
         stroke-width="0"
         d="M290.95,713.84 L290.9,713.84 L290.85,713.84 L290.8,713.84 L290.75,713.83 L290.7,713.83 L290.66,713.82 L290.61,713.82 L290.56,713.81 L290.52,713.8 L290.47,713.79 L290.43,713.78 L290.38,713.77 L290.34,713.76 L290.3,713.74 L290.26,713.73 L290.22,713.71 L290.18,713.7 L290.14,713.68 L290.1,713.66 L290.06,713.64 L290.02,713.62 L289.98,713.6 L289.94,713.57 L289.9,713.55 L289.87,713.53 L289.83,713.5 L289.79,713.47 L289.76,713.45 L289.72,713.42 L289.69,713.39 L289.65,713.36 L289.62,713.32 C289.04,712.77,288.66,711.62,288.66,710.46 C288.66,709.38,288.99,708.22,289.46,707.66 C289.83,707.22,290.33,706.99,290.91,706.99 V707.24 C290.05,707.24,289.62,708.31,289.62,710.37 C289.62,712.48,290.06,713.58,290.92,713.58 H290.92 C291.76,713.58,292.2,712.46,292.2,710.38 C292.2,708.31,291.77,707.24,290.91,707.24 V706.99 C291.42,706.99,291.85,707.16,292.2,707.5 C292.78,708.05,293.16,709.2,293.16,710.4 C293.16,712.44,292.25,713.84,290.95,713.84 Z " /><path
         id="path3699"
         fill="black"
         stroke-width="0"
         d="M293.67,707.12 H296.48 C298.04,707.12,299.12,707.94,299.12,709.11 C299.12,709.48,299,709.83,298.78,710.05 C298.58,710.27,298.38,710.39,297.86,710.61 C298.57,710.78,298.86,710.9,299.17,711.18 C299.45,711.42,299.6,711.75,299.6,712.15 C299.6,713.09,298.9,713.61,297.61,713.61 L297.43,713.31 C298.23,713.31,298.6,712.98,298.6,712.24 C298.6,711.67,298.36,711.24,297.93,711 C297.59,710.8,297.12,710.73,296.22,710.73 L296.12,710.41 C296.77,710.41,297.18,710.37,297.38,710.29 C297.79,710.12,298.04,709.69,298.04,709.15 C298.04,708.08,297.3,707.42,296.09,707.42 C295.67,707.42,295.45,707.57,295.45,707.84 C295.45,707.96,295.57,708.44,295.8,709.23 C295.93,709.68,295.99,709.91,296.12,710.41 H296.12 L296.22,710.73 L296.87,713.04 C296.93,713.25,297.05,713.31,297.43,713.31 L297.61,713.61 H295.05 V713.45 C295.66,713.4,295.81,713.32,295.81,713.05 C295.81,712.9,295.77,712.65,295.7,712.41 L294.48,708.02 C294.3,707.44,294.23,707.38,293.67,707.28 Z " /><path
         id="path3701"
         fill="black"
         stroke-width="0"
         d="M301.54,707.55 L301.54,707.58 L301.54,707.61 L301.53,707.64 L301.53,707.66 L301.52,707.69 L301.52,707.72 L301.51,707.74 L301.5,707.77 L301.48,707.8 L301.47,707.82 L301.46,707.84 L301.44,707.87 L301.43,707.89 L301.41,707.91 L301.39,707.93 L301.37,707.95 L301.35,707.97 L301.33,707.99 L301.31,708 L301.29,708.02 L301.27,708.03 L301.25,708.05 L301.22,708.06 L301.2,708.07 L301.17,708.08 L301.15,708.09 L301.12,708.1 L301.09,708.11 L301.07,708.11 L301.04,708.12 L301.01,708.12 L300.98,708.12 C300.68,708.12,300.44,707.87,300.44,707.55 C300.44,707.17,300.77,707.02,300.98,707.02 C301.19,707.02,301.54,707.18,301.54,707.55 Z " /><path
         id="path3703"
         fill="black"
         stroke-width="0"
         d="M308.79,713.61 H303.84 V713.45 C304.46,713.39,304.61,713.31,304.61,713.05 C304.61,712.94,304.55,712.59,304.5,712.41 L303.28,708.02 C303.11,707.45,303.03,707.38,302.47,707.28 V707.12 H307.51 L308.13,708.73 L307.97,708.81 C307.5,708.18,307.25,707.92,306.82,707.72 C306.45,707.55,305.77,707.45,305.03,707.45 C304.47,707.45,304.23,707.55,304.23,707.79 C304.23,707.9,304.34,708.37,304.59,709.24 C304.72,709.68,304.81,710.01,304.91,710.38 C305.26,710.36,305.56,710.35,305.68,710.35 C306.07,710.36,306.35,710.3,306.46,710.2 C306.51,710.16,306.53,710.07,306.53,709.9 C306.53,709.73,306.51,709.6,306.46,709.38 L306.66,709.33 L307.33,711.64 L307.16,711.67 C306.78,710.83,306.69,710.77,305.78,710.73 C305.66,710.73,305.35,710.72,305,710.71 L305.65,713.03 C305.71,713.24,305.82,713.28,306.38,713.28 C307.94,713.28,308.29,713.16,308.29,712.56 C308.29,712.43,308.28,712.28,308.27,712.11 L308.48,712.09 Z " /><path
         id="path3705"
         fill="black"
         stroke-width="0"
         d="M313.51,713.7 H309.83 L309.24,712.24 L309.41,712.16 C309.84,712.84,310.02,712.97,310.57,712.97 H312.73 L310.76,707.05 H311.4 L313.51,713.54 Z " /><path
         id="path3707"
         fill="black"
         stroke-width="0"
         d="M314.4,705.37 L314.47,705.41 L314.54,705.45 L314.6,705.5 L314.66,705.54 L314.72,705.58 L314.78,705.61 L314.83,705.65 L314.88,705.69 L314.93,705.73 L314.98,705.76 L315.03,705.8 L315.07,705.83 L315.12,705.87 L315.16,705.9 L315.24,705.97 L315.32,706.04 L315.4,706.11 L315.47,706.18 L315.54,706.25 L315.6,706.32 L315.67,706.4 L315.74,706.48 L315.81,706.56 C316.51,707.42,316.86,708.42,316.86,709.58 C316.86,710.85,316.49,711.81,315.62,712.83 C315.21,713.3,314.95,713.52,314.43,713.84 L314.32,713.68 C315.11,713.05,315.38,712.71,315.66,711.96 C315.9,711.3,316.01,710.54,316.01,709.55 C316.01,708.52,315.88,707.69,315.61,707.09 C315.33,706.46,315.03,706.1,314.32,705.53 Z " /><path
         id="path3709"
         fill="black"
         stroke-width="0"
         d="M319.37,710.33 L318.12,709.7 V709.6 C318.2,709.64,318.28,709.66,318.3,709.68 C318.43,709.73,318.55,709.76,318.62,709.76 C318.77,709.76,318.83,709.65,318.83,709.43 V706.28 C318.83,706.05,318.77,705.89,318.66,705.83 C318.56,705.76,318.46,705.74,318.17,705.73 V705.63 H320.09 V705.73 C319.54,705.74,319.43,705.81,319.43,706.15 V710.32 Z " /><path
         id="path3711"
         fill="black"
         stroke-width="0"
         d="M323.94,710.39 L323.86,710.38 L323.79,710.37 L323.72,710.37 L323.66,710.36 L323.59,710.35 L323.53,710.34 L323.47,710.33 L323.41,710.32 L323.35,710.31 L323.29,710.3 L323.24,710.29 L323.18,710.27 L323.13,710.26 L323.08,710.25 L322.98,710.22 L322.88,710.18 L322.78,710.14 L322.69,710.1 L322.6,710.06 L322.51,710.01 L322.42,709.95 L322.33,709.89 L322.28,709.86 L322.23,709.83 C321.48,709.3,321.07,708.5,321.07,707.57 C321.07,706.97,321.26,706.35,321.55,706.01 C321.82,705.7,322.2,705.53,322.63,705.53 C323.49,705.53,324.09,706.19,324.09,707.15 C324.09,708.04,323.58,708.61,322.78,708.61 C322.47,708.61,322.33,708.56,321.89,708.29 L321.91,708.11 C322.06,708.22,322.27,708.29,322.52,708.29 H322.52 C323.11,708.29,323.46,707.79,323.46,706.92 C323.46,706.15,323.19,705.73,322.7,705.73 C322.09,705.73,321.71,706.38,321.71,707.46 C321.71,707.81,321.77,708.01,321.91,708.11 L321.89,708.29 C322.08,709.34,322.86,710.09,323.95,710.28 Z " /></g>  </g>
</svg>
