<?xml version="1.0" encoding="UTF-8" standalone="no"?>
<!-- Created with Inkscape (http://www.inkscape.org/) -->

<svg
   xmlns:ns0="http://www.iki.fi/pav/software/textext/"
   xmlns:dc="http://purl.org/dc/elements/1.1/"
   xmlns:cc="http://creativecommons.org/ns#"
   xmlns:rdf="http://www.w3.org/1999/02/22-rdf-syntax-ns#"
   xmlns:svg="http://www.w3.org/2000/svg"
   xmlns="http://www.w3.org/2000/svg"
   xmlns:sodipodi="http://sodipodi.sourceforge.net/DTD/sodipodi-0.dtd"
   xmlns:inkscape="http://www.inkscape.org/namespaces/inkscape"
   width="496.06299"
   height="354.33069"
   id="svg2"
   version="1.1"
   inkscape:version="0.48.4 r9939"
   sodipodi:docname="div2.svg">
  <sodipodi:namedview
     id="base"
     pagecolor="#ffffff"
     bordercolor="#666666"
     borderopacity="1.0"
     inkscape:pageopacity="0.0"
     inkscape:pageshadow="2"
     inkscape:zoom="2.0303961"
     inkscape:cx="311.66791"
     inkscape:cy="187.46932"
     inkscape:document-units="cm"
     inkscape:current-layer="layer1"
     showgrid="false"
     units="cm"
     inkscape:object-nodes="true"
     inkscape:window-width="1366"
     inkscape:window-height="744"
     inkscape:window-x="0"
     inkscape:window-y="24"
     inkscape:window-maximized="1">
    <inkscape:grid
       type="xygrid"
       id="grid2985"
       empspacing="5"
       visible="true"
       enabled="true"
       snapvisiblegridlinesonly="true" />
  </sodipodi:namedview>
  <defs
     id="defs4">
    <marker
       inkscape:stockid="Arrow1Mstart"
       orient="auto"
       refY="0"
       refX="0"
       id="Arrow1Mstart"
       style="overflow:visible">
      <path
         inkscape:connector-curvature="0"
         id="path3775"
         d="M 0,0 5,-5 -12.5,0 5,5 0,0 z"
         style="fill-rule:evenodd;stroke:#000000;stroke-width:1pt"
         transform="matrix(0.4,0,0,0.4,4,0)" />
    </marker>
    <marker
       inkscape:stockid="Arrow1Mend"
       orient="auto"
       refY="0"
       refX="0"
       id="Arrow1Mend"
       style="overflow:visible">
      <path
         inkscape:connector-curvature="0"
         id="path3778"
         d="M 0,0 5,-5 -12.5,0 5,5 0,0 z"
         style="fill-rule:evenodd;stroke:#000000;stroke-width:1pt"
         transform="matrix(-0.4,0,0,-0.4,-4,0)" />
    </marker>
  </defs>
  <metadata
     id="metadata7">
    <rdf:RDF>
      <cc:Work
         rdf:about="">
        <dc:format>image/svg+xml</dc:format>
        <dc:type
           rdf:resource="http://purl.org/dc/dcmitype/StillImage" />
        <dc:title></dc:title>
      </cc:Work>
    </rdf:RDF>
  </metadata>
  <g
     inkscape:label="Layer 1"
     inkscape:groupmode="layer"
     id="layer1"
     transform="translate(0,-698.03016)">
    <text
       transform="translate(0,698.03016)"
       sodipodi:linespacing="100%"
       id="text5818"
       y="56.040417"
       x="61.700558"
       style="font-size:12px;font-style:normal;font-variant:normal;font-weight:normal;font-stretch:normal;text-align:start;line-height:100%;letter-spacing:0px;word-spacing:0px;text-anchor:start;fill:#000000;fill-opacity:1;stroke:none;font-family:LMRoman12;-inkscape-font-specification:Sans"
       xml:space="preserve"><tspan
         y="56.040417"
         x="61.700558"
         id="tspan5820"
         sodipodi:role="line" /></text>
    <flowRoot
       xml:space="preserve"
       id="flowRoot6377"
       style="fill:black;stroke:none;stroke-opacity:1;stroke-width:1px;stroke-linejoin:miter;stroke-linecap:butt;fill-opacity:1;font-family:LMRoman12;font-style:normal;font-weight:normal;font-size:12px;line-height:100%;letter-spacing:0px;word-spacing:0px;-inkscape-font-specification:Sans;font-stretch:normal;font-variant:normal;text-anchor:start;text-align:start"><flowRegion
         id="flowRegion6379"><rect
           id="rect6381"
           width="27.681772"
           height="40.319103"
           x="219.34796"
           y="87.141403" /></flowRegion><flowPara
         id="flowPara6383" /></flowRoot>    <text
       xml:space="preserve"
       style="font-size:12px;font-style:normal;font-variant:normal;font-weight:normal;font-stretch:normal;text-align:start;line-height:50%;letter-spacing:0px;word-spacing:0px;text-anchor:start;fill:#000000;fill-opacity:1;stroke:none;font-family:LMRoman12;-inkscape-font-specification:Sans"
       x="275.91507"
       y="55.247185"
       id="text6385"
       sodipodi:linespacing="50%"
       transform="translate(0,698.03016)"><tspan
         sodipodi:role="line"
         id="tspan6387" /></text>
    <text
       xml:space="preserve"
       style="font-size:12px;font-style:normal;font-variant:normal;font-weight:normal;font-stretch:normal;text-align:start;line-height:100%;letter-spacing:0px;word-spacing:0px;text-anchor:start;fill:#000000;fill-opacity:1;stroke:none;font-family:LMRoman12;-inkscape-font-specification:Sans"
       x="348.65417"
       y="194.38702"
       id="text3884"
       sodipodi:linespacing="100%"
       transform="translate(0,698.03016)"><tspan
         sodipodi:role="line"
         x="348.65417"
         y="194.38702"
         id="tspan3890" /></text>
    <text
       xml:space="preserve"
       style="font-size:12px;font-style:normal;font-variant:normal;font-weight:normal;font-stretch:normal;text-align:start;line-height:150%;letter-spacing:0px;word-spacing:0px;text-anchor:start;fill:#000000;fill-opacity:1;stroke:none;font-family:LMRoman12;-inkscape-font-specification:Sans"
       x="216.96629"
       y="250.89732"
       id="text3887"
       sodipodi:linespacing="150%"
       transform="translate(0,698.03016)"><tspan
         sodipodi:role="line"
         id="tspan3889"
         x="216.96629"
         y="250.89732" /></text>
    <path
       style="fill:none;stroke:#000000;stroke-width:1;stroke-linecap:square;stroke-linejoin:round;stroke-miterlimit:4;stroke-opacity:1;stroke-dasharray:none;stroke-dashoffset:0;marker-start:url(#Arrow1Mstart);marker-end:none"
       d="m 269.67283,842.48793 0,-41.76935"
       id="path4924"
       inkscape:connector-curvature="0" />
    <text
       xml:space="preserve"
       style="font-size:12px;font-style:normal;font-variant:normal;font-weight:normal;font-stretch:normal;text-align:start;line-height:150%;letter-spacing:0px;word-spacing:0px;text-anchor:start;fill:#000000;fill-opacity:1;stroke:none;font-family:LMRoman12;-inkscape-font-specification:Sans"
       x="173"
       y="61.080688"
       id="text7389"
       sodipodi:linespacing="150%"
       transform="translate(0,698.03016)"><tspan
         sodipodi:role="line"
         id="tspan7391"
         x="173"
         y="61.080688" /></text>
    <g
       ns0:preamble="/home/sriranga/Desktop/Prism_BasicElectronics/preamble.tex"
       ns0:text="$0.75 \\times 2 =\\quad 1.50$"
       word-spacing="normal"
       letter-spacing="normal"
       font-size-adjust="none"
       font-stretch="normal"
       font-weight="normal"
       font-variant="normal"
       font-style="normal"
       stroke-miterlimit="10.433"
       xml:space="preserve"
       transform="matrix(1.2,0,0,-1.2,-57.818792,1675.1404)"
       id="g8284"
       style="font-style:normal;font-variant:normal;font-weight:normal;font-stretch:normal;letter-spacing:normal;word-spacing:normal;text-anchor:start;fill:none;stroke:#000000;stroke-width:1;stroke-linecap:butt;stroke-linejoin:miter;stroke-miterlimit:10.43299961;stroke-opacity:1;stroke-dasharray:none;stroke-dashoffset:0"><path
         id="path8286"
         d="m 225.96,713.84 -0.05,0 -0.05,0 -0.05,0 -0.05,-0.01 -0.05,0 -0.05,-0.01 -0.04,0 -0.05,-0.01 -0.04,-0.01 -0.05,-0.01 -0.04,-0.01 -0.05,-0.01 -0.04,-0.01 -0.04,-0.02 -0.04,-0.01 -0.04,-0.02 -0.05,-0.01 -0.04,-0.02 -0.04,-0.02 -0.03,-0.02 -0.04,-0.02 -0.04,-0.02 -0.04,-0.03 -0.04,-0.02 -0.03,-0.02 -0.04,-0.03 -0.04,-0.03 -0.03,-0.02 -0.04,-0.03 -0.03,-0.03 -0.04,-0.03 -0.03,-0.04 c -0.58,-0.55 -0.96,-1.7 -0.96,-2.86 0,-1.08 0.33,-2.24 0.8,-2.8 0.37,-0.44 0.87,-0.67 1.45,-0.67 v 0.25 c -0.86,0 -1.29,1.07 -1.29,3.13 0,2.11 0.44,3.21 1.3,3.21 h 0 c 0.83,0 1.28,-1.12 1.28,-3.2 0,-2.07 -0.44,-3.14 -1.29,-3.14 v -0.25 c 0.51,0 0.93,0.17 1.29,0.51 0.58,0.55 0.96,1.7 0.96,2.9 0,2.04 -0.91,3.44 -2.21,3.44 z"
         inkscape:connector-curvature="0"
         style="fill:#000000;stroke-width:0" /><path
         id="path8288"
         d="m 230.21,707.55 0,0.03 0,0.03 0,0.03 -0.01,0.02 0,0.03 -0.01,0.03 -0.01,0.02 -0.01,0.03 -0.01,0.03 -0.02,0.02 -0.01,0.02 -0.01,0.03 -0.02,0.02 -0.02,0.02 -0.01,0.02 -0.02,0.02 -0.02,0.02 -0.02,0.02 -0.02,0.01 -0.03,0.02 -0.02,0.01 -0.02,0.02 -0.03,0.01 -0.02,0.01 -0.03,0.01 -0.02,0.01 -0.03,0.01 -0.02,0.01 -0.03,0 -0.03,0.01 -0.03,0 -0.02,0 c -0.3,0 -0.55,-0.25 -0.55,-0.57 0,-0.38 0.34,-0.53 0.55,-0.53 0.21,0 0.55,0.16 0.55,0.53 z"
         inkscape:connector-curvature="0"
         style="fill:#000000;stroke-width:0" /><path
         id="path8290"
         d="m 235.37,713.7 h -3.68 l -0.59,-1.46 0.17,-0.08 c 0.43,0.68 0.61,0.81 1.16,0.81 h 2.16 l -1.97,-5.92 h 0.64 l 2.11,6.49 z"
         inkscape:connector-curvature="0"
         style="fill:#000000;stroke-width:0" /><path
         id="path8292"
         d="m 237.69,712.92 h 1.95 c 0.15,0 0.2,0.02 0.23,0.09 l 0.37,0.88 -0.09,0.07 C 240,713.75 239.9,713.7 239.7,713.7 h -2.08 l -1.09,-2.35 c -0.01,-0.02 -0.01,-0.03 -0.01,-0.05 0,-0.05 0.04,-0.08 0.12,-0.08 0.32,0 0.72,-0.07 1.13,-0.2 1.14,-0.37 1.67,-0.98 1.67,-1.97 0,-0.95 -0.61,-1.7 -1.39,-1.7 -0.2,0 -0.36,0.07 -0.66,0.29 -0.32,0.23 -0.55,0.33 -0.76,0.33 -0.29,0 -0.43,-0.12 -0.43,-0.37 0,-0.38 0.47,-0.61 1.22,-0.61 0.83,0 1.55,0.26 2.05,0.77 0.46,0.45 0.66,1.01 0.66,1.77 0,0.71 -0.18,1.17 -0.68,1.67 -0.44,0.44 -1.01,0.66 -2.18,0.87 z"
         inkscape:connector-curvature="0"
         style="fill:#000000;stroke-width:0" /><polygon
         id="polygon8294"
         points="248.85,707.47 246.63,709.68 248.85,711.89 248.45,712.29 246.24,710.08 244.04,712.29 243.64,711.89 245.85,709.68 243.64,707.47 244.04,707.08 246.24,709.29 248.45,707.08 "
         style="fill:#000000;stroke-width:0" /><path
         id="path8296"
         d="m 256.36,708.49 -0.13,0.05 c -0.37,-0.57 -0.5,-0.66 -0.95,-0.66 h -2.38 l 1.68,1.75 c 0.88,0.92 1.27,1.68 1.27,2.45 0,1 -0.81,1.76 -1.84,1.76 -0.55,0 -1.07,-0.22 -1.43,-0.62 -0.32,-0.33 -0.47,-0.65 -0.64,-1.36 l 0.21,-0.05 c 0.4,0.98 0.75,1.29 1.44,1.29 0.84,0 1.4,-0.56 1.4,-1.39 0,-0.78 -0.45,-1.7 -1.29,-2.59 l -1.77,-1.88 v -0.12 h 3.88 z"
         inkscape:connector-curvature="0"
         style="fill:#000000;stroke-width:0" /><polygon
         id="polygon8298"
         points="265.09,710.4 265.09,710.96 260,710.96 260,710.4 "
         style="fill:#000000;stroke-width:0" /><polygon
         id="polygon8300"
         points="265.09,708.39 265.09,708.94 260,708.94 260,708.39 "
         style="fill:#000000;stroke-width:0" /><path
         id="path8302"
         d="m 281.34,713.84 -1.79,-0.9 v -0.14 c 0.12,0.05 0.23,0.09 0.27,0.11 0.18,0.07 0.35,0.11 0.45,0.11 0.21,0 0.3,-0.15 0.3,-0.47 v -4.5 c 0,-0.33 -0.08,-0.56 -0.24,-0.65 -0.15,-0.09 -0.29,-0.12 -0.71,-0.13 v -0.15 h 2.75 v 0.15 c -0.79,0.01 -0.95,0.11 -0.95,0.59 v 5.96 z"
         inkscape:connector-curvature="0"
         style="fill:#000000;stroke-width:0" /><path
         id="path8304"
         d="m 285.23,707.55 0,0.03 0,0.03 -0.01,0.03 0,0.02 -0.01,0.03 -0.01,0.03 -0.01,0.02 -0.01,0.03 -0.01,0.03 -0.01,0.02 -0.01,0.02 -0.02,0.03 -0.02,0.02 -0.01,0.02 -0.02,0.02 -0.02,0.02 -0.02,0.02 -0.02,0.02 -0.02,0.01 -0.02,0.02 -0.02,0.01 -0.03,0.02 -0.02,0.01 -0.03,0.01 -0.02,0.01 -0.03,0.01 -0.02,0.01 -0.03,0.01 -0.03,0 -0.02,0.01 -0.03,0 -0.03,0 c -0.3,0 -0.55,-0.25 -0.55,-0.57 0,-0.38 0.34,-0.53 0.55,-0.53 0.21,0 0.56,0.16 0.56,0.53 z"
         inkscape:connector-curvature="0"
         style="fill:#000000;stroke-width:0" /><path
         id="path8306"
         d="m 287.72,712.92 h 1.95 c 0.16,0 0.2,0.02 0.23,0.09 l 0.38,0.88 -0.09,0.07 c -0.15,-0.21 -0.25,-0.26 -0.46,-0.26 h -2.08 l -1.08,-2.35 c -0.02,-0.02 -0.02,-0.03 -0.02,-0.05 0,-0.05 0.04,-0.08 0.12,-0.08 0.32,0 0.72,-0.07 1.13,-0.2 1.14,-0.37 1.67,-0.98 1.67,-1.97 0,-0.95 -0.61,-1.7 -1.38,-1.7 -0.2,0 -0.37,0.07 -0.67,0.29 -0.32,0.23 -0.55,0.33 -0.76,0.33 -0.28,0 -0.42,-0.12 -0.42,-0.37 0,-0.38 0.46,-0.61 1.21,-0.61 0.84,0 1.55,0.26 2.05,0.77 0.46,0.45 0.67,1.01 0.67,1.77 0,0.71 -0.19,1.17 -0.69,1.67 -0.44,0.44 -1,0.66 -2.18,0.87 z"
         inkscape:connector-curvature="0"
         style="fill:#000000;stroke-width:0" /><path
         id="path8308"
         d="m 293.43,713.84 -0.05,0 -0.06,0 -0.04,0 -0.05,-0.01 -0.05,0 -0.05,-0.01 -0.05,0 -0.04,-0.01 -0.05,-0.01 -0.04,-0.01 -0.05,-0.01 -0.04,-0.01 -0.04,-0.01 -0.04,-0.02 -0.05,-0.01 -0.04,-0.02 -0.04,-0.01 -0.04,-0.02 -0.04,-0.02 -0.04,-0.02 -0.04,-0.02 -0.03,-0.02 -0.04,-0.03 -0.04,-0.02 -0.04,-0.02 -0.03,-0.03 -0.04,-0.03 -0.04,-0.02 -0.03,-0.03 -0.04,-0.03 -0.03,-0.03 -0.04,-0.04 c -0.57,-0.55 -0.95,-1.7 -0.95,-2.86 0,-1.08 0.33,-2.24 0.79,-2.8 0.37,-0.44 0.88,-0.67 1.46,-0.67 v 0.25 c -0.86,0 -1.3,1.07 -1.3,3.13 0,2.11 0.45,3.21 1.31,3.21 h 0 c 0.83,0 1.28,-1.12 1.28,-3.2 0,-2.07 -0.44,-3.14 -1.29,-3.14 v -0.25 c 0.5,0 0.93,0.17 1.29,0.51 0.58,0.55 0.96,1.7 0.96,2.9 0,2.04 -0.91,3.44 -2.21,3.44 z"
         inkscape:connector-curvature="0"
         style="fill:#000000;stroke-width:0" /></g>    <g
       id="g8630"
       transform="matrix(1.2,0,0,-1.2,-57.818792,1692.3875)"
       xml:space="preserve"
       stroke-miterlimit="10.433"
       font-style="normal"
       font-variant="normal"
       font-weight="normal"
       font-stretch="normal"
       font-size-adjust="none"
       letter-spacing="normal"
       word-spacing="normal"
       ns0:text="$0.50 \\times 2 =\\quad 1.00$"
       ns0:preamble="/home/sriranga/Desktop/Prism_BasicElectronics/preamble.tex"
       style="font-style:normal;font-variant:normal;font-weight:normal;font-stretch:normal;letter-spacing:normal;word-spacing:normal;text-anchor:start;fill:none;stroke:#000000;stroke-width:1;stroke-linecap:butt;stroke-linejoin:miter;stroke-miterlimit:10.43299961;stroke-opacity:1;stroke-dasharray:none;stroke-dashoffset:0"><path
         d="m 225.96,713.84 -0.05,0 -0.05,0 -0.05,0 -0.05,-0.01 -0.05,0 -0.05,-0.01 -0.04,0 -0.05,-0.01 -0.04,-0.01 -0.05,-0.01 -0.04,-0.01 -0.05,-0.01 -0.04,-0.01 -0.04,-0.02 -0.04,-0.01 -0.04,-0.02 -0.05,-0.01 -0.04,-0.02 -0.04,-0.02 -0.03,-0.02 -0.04,-0.02 -0.04,-0.02 -0.04,-0.03 -0.04,-0.02 -0.03,-0.02 -0.04,-0.03 -0.04,-0.03 -0.03,-0.02 -0.04,-0.03 -0.03,-0.03 -0.04,-0.03 -0.03,-0.04 c -0.58,-0.55 -0.96,-1.7 -0.96,-2.86 0,-1.08 0.33,-2.24 0.8,-2.8 0.37,-0.44 0.87,-0.67 1.45,-0.67 v 0.25 c -0.86,0 -1.29,1.07 -1.29,3.13 0,2.11 0.44,3.21 1.3,3.21 h 0 c 0.83,0 1.28,-1.12 1.28,-3.2 0,-2.07 -0.44,-3.14 -1.29,-3.14 v -0.25 c 0.51,0 0.93,0.17 1.29,0.51 0.58,0.55 0.96,1.7 0.96,2.9 0,2.04 -0.91,3.44 -2.21,3.44 z"
         id="path8632"
         inkscape:connector-curvature="0"
         style="fill:#000000;stroke-width:0" /><path
         d="m 230.21,707.55 0,0.03 0,0.03 0,0.03 -0.01,0.02 0,0.03 -0.01,0.03 -0.01,0.02 -0.01,0.03 -0.01,0.03 -0.02,0.02 -0.01,0.02 -0.01,0.03 -0.02,0.02 -0.02,0.02 -0.01,0.02 -0.02,0.02 -0.02,0.02 -0.02,0.02 -0.02,0.01 -0.03,0.02 -0.02,0.01 -0.02,0.02 -0.03,0.01 -0.02,0.01 -0.03,0.01 -0.02,0.01 -0.03,0.01 -0.02,0.01 -0.03,0 -0.03,0.01 -0.03,0 -0.02,0 c -0.3,0 -0.55,-0.25 -0.55,-0.57 0,-0.38 0.34,-0.53 0.55,-0.53 0.21,0 0.55,0.16 0.55,0.53 z"
         id="path8634"
         inkscape:connector-curvature="0"
         style="fill:#000000;stroke-width:0" /><path
         d="m 232.71,712.92 h 1.94 c 0.16,0 0.2,0.02 0.23,0.09 l 0.38,0.88 -0.09,0.07 c -0.15,-0.21 -0.25,-0.26 -0.46,-0.26 h -2.08 l -1.08,-2.35 c -0.01,-0.02 -0.01,-0.03 -0.01,-0.05 0,-0.05 0.04,-0.08 0.12,-0.08 0.32,0 0.72,-0.07 1.12,-0.2 1.15,-0.37 1.68,-0.98 1.68,-1.97 0,-0.95 -0.61,-1.7 -1.39,-1.7 -0.2,0 -0.36,0.07 -0.66,0.29 -0.32,0.23 -0.55,0.33 -0.76,0.33 -0.29,0 -0.43,-0.12 -0.43,-0.37 0,-0.38 0.47,-0.61 1.22,-0.61 0.83,0 1.55,0.26 2.05,0.77 0.45,0.45 0.66,1.01 0.66,1.77 0,0.71 -0.19,1.17 -0.68,1.67 -0.44,0.44 -1.01,0.66 -2.18,0.87 z"
         id="path8636"
         inkscape:connector-curvature="0"
         style="fill:#000000;stroke-width:0" /><path
         d="m 238.41,713.84 -0.05,0 -0.05,0 -0.05,0 -0.05,-0.01 -0.05,0 -0.04,-0.01 -0.05,0 -0.05,-0.01 -0.04,-0.01 -0.05,-0.01 -0.04,-0.01 -0.04,-0.01 -0.05,-0.01 -0.04,-0.02 -0.04,-0.01 -0.04,-0.02 -0.04,-0.01 -0.04,-0.02 -0.04,-0.02 -0.04,-0.02 -0.04,-0.02 -0.04,-0.02 -0.04,-0.03 -0.03,-0.02 -0.04,-0.02 -0.04,-0.03 -0.03,-0.03 -0.04,-0.02 -0.04,-0.03 -0.03,-0.03 -0.04,-0.03 -0.03,-0.04 c -0.58,-0.55 -0.96,-1.7 -0.96,-2.86 0,-1.08 0.33,-2.24 0.8,-2.8 0.37,-0.44 0.88,-0.67 1.45,-0.67 v 0.25 c -0.85,0 -1.29,1.07 -1.29,3.13 0,2.11 0.45,3.21 1.3,3.21 h 0 c 0.84,0 1.29,-1.12 1.29,-3.2 0,-2.07 -0.44,-3.14 -1.3,-3.14 v -0.25 c 0.51,0 0.94,0.17 1.3,0.51 0.57,0.55 0.95,1.7 0.95,2.9 0,2.04 -0.9,3.44 -2.21,3.44 z"
         id="path8638"
         inkscape:connector-curvature="0"
         style="fill:#000000;stroke-width:0" /><polygon
         points="243.64,711.89 245.85,709.68 243.64,707.47 244.04,707.08 246.24,709.29 248.45,707.08 248.85,707.47 246.63,709.68 248.85,711.89 248.45,712.29 246.24,710.08 244.04,712.29 "
         id="polygon8640"
         style="fill:#000000;stroke-width:0" /><path
         d="m 256.36,708.49 -0.13,0.05 c -0.37,-0.57 -0.5,-0.66 -0.95,-0.66 h -2.38 l 1.68,1.75 c 0.88,0.92 1.27,1.68 1.27,2.45 0,1 -0.81,1.76 -1.84,1.76 -0.55,0 -1.07,-0.22 -1.43,-0.62 -0.32,-0.33 -0.47,-0.65 -0.64,-1.36 l 0.21,-0.05 c 0.4,0.98 0.75,1.29 1.44,1.29 0.84,0 1.4,-0.56 1.4,-1.39 0,-0.78 -0.45,-1.7 -1.29,-2.59 l -1.77,-1.88 v -0.12 h 3.88 z"
         id="path8642"
         inkscape:connector-curvature="0"
         style="fill:#000000;stroke-width:0" /><polygon
         points="260,710.96 260,710.4 265.09,710.4 265.09,710.96 "
         id="polygon8644"
         style="fill:#000000;stroke-width:0" /><polygon
         points="260,708.94 260,708.39 265.09,708.39 265.09,708.94 "
         id="polygon8646"
         style="fill:#000000;stroke-width:0" /><path
         d="m 281.34,713.84 -1.79,-0.9 v -0.14 c 0.12,0.05 0.23,0.09 0.27,0.11 0.18,0.07 0.35,0.11 0.45,0.11 0.21,0 0.3,-0.15 0.3,-0.47 v -4.5 c 0,-0.33 -0.08,-0.56 -0.24,-0.65 -0.15,-0.09 -0.29,-0.12 -0.71,-0.13 v -0.15 h 2.75 v 0.15 c -0.79,0.01 -0.95,0.11 -0.95,0.59 v 5.96 z"
         id="path8648"
         inkscape:connector-curvature="0"
         style="fill:#000000;stroke-width:0" /><path
         d="m 285.23,707.55 0,0.03 0,0.03 -0.01,0.03 0,0.02 -0.01,0.03 -0.01,0.03 -0.01,0.02 -0.01,0.03 -0.01,0.03 -0.01,0.02 -0.01,0.02 -0.02,0.03 -0.02,0.02 -0.01,0.02 -0.02,0.02 -0.02,0.02 -0.02,0.02 -0.02,0.02 -0.02,0.01 -0.02,0.02 -0.02,0.01 -0.03,0.02 -0.02,0.01 -0.03,0.01 -0.02,0.01 -0.03,0.01 -0.02,0.01 -0.03,0.01 -0.03,0 -0.02,0.01 -0.03,0 -0.03,0 c -0.3,0 -0.55,-0.25 -0.55,-0.57 0,-0.38 0.34,-0.53 0.55,-0.53 0.21,0 0.56,0.16 0.56,0.53 z"
         id="path8650"
         inkscape:connector-curvature="0"
         style="fill:#000000;stroke-width:0" /><path
         d="m 288.45,713.84 -0.06,0 -0.05,0 -0.05,0 -0.04,-0.01 -0.05,0 -0.05,-0.01 -0.05,0 -0.04,-0.01 -0.05,-0.01 -0.04,-0.01 -0.05,-0.01 -0.04,-0.01 -0.04,-0.01 -0.05,-0.02 -0.04,-0.01 -0.04,-0.02 -0.04,-0.01 -0.04,-0.02 -0.04,-0.02 -0.04,-0.02 -0.04,-0.02 -0.04,-0.02 -0.03,-0.03 -0.04,-0.02 -0.04,-0.02 -0.04,-0.03 -0.03,-0.03 -0.04,-0.02 -0.03,-0.03 -0.04,-0.03 -0.03,-0.03 -0.04,-0.04 c -0.57,-0.55 -0.95,-1.7 -0.95,-2.86 0,-1.08 0.32,-2.24 0.79,-2.8 0.37,-0.44 0.88,-0.67 1.45,-0.67 v 0.25 c -0.85,0 -1.29,1.07 -1.29,3.13 0,2.11 0.45,3.21 1.31,3.21 h 0 c 0.83,0 1.28,-1.12 1.28,-3.2 0,-2.07 -0.44,-3.14 -1.3,-3.14 v -0.25 c 0.51,0 0.94,0.17 1.3,0.51 0.58,0.55 0.95,1.7 0.95,2.9 0,2.04 -0.9,3.44 -2.2,3.44 z"
         id="path8652"
         inkscape:connector-curvature="0"
         style="fill:#000000;stroke-width:0" /><path
         d="m 293.43,713.84 -0.05,0 -0.06,0 -0.04,0 -0.05,-0.01 -0.05,0 -0.05,-0.01 -0.05,0 -0.04,-0.01 -0.05,-0.01 -0.04,-0.01 -0.05,-0.01 -0.04,-0.01 -0.04,-0.01 -0.04,-0.02 -0.05,-0.01 -0.04,-0.02 -0.04,-0.01 -0.04,-0.02 -0.04,-0.02 -0.04,-0.02 -0.04,-0.02 -0.03,-0.02 -0.04,-0.03 -0.04,-0.02 -0.04,-0.02 -0.03,-0.03 -0.04,-0.03 -0.04,-0.02 -0.03,-0.03 -0.04,-0.03 -0.03,-0.03 -0.04,-0.04 c -0.57,-0.55 -0.95,-1.7 -0.95,-2.86 0,-1.08 0.33,-2.24 0.79,-2.8 0.37,-0.44 0.88,-0.67 1.46,-0.67 v 0.25 c -0.86,0 -1.3,1.07 -1.3,3.13 0,2.11 0.45,3.21 1.31,3.21 h 0 c 0.83,0 1.28,-1.12 1.28,-3.2 0,-2.07 -0.44,-3.14 -1.29,-3.14 v -0.25 c 0.5,0 0.93,0.17 1.29,0.51 0.58,0.55 0.96,1.7 0.96,2.9 0,2.04 -0.91,3.44 -2.21,3.44 z"
         id="path8654"
         inkscape:connector-curvature="0"
         style="fill:#000000;stroke-width:0" /></g>    <g
       id="content"
       transform="matrix(1.2,0,0,-1.2,-63.338792,1657.6736)"
       xml:space="preserve"
       stroke-miterlimit="10.433"
       font-style="normal"
       font-variant="normal"
       font-weight="normal"
       font-stretch="normal"
       font-size-adjust="none"
       letter-spacing="normal"
       word-spacing="normal"
       ns0:text="$0.875 \\times 2 =\\quad 1.75$"
       ns0:preamble="/home/sriranga/Desktop/Prism_BasicElectronics/preamble.tex"
       style="font-style:normal;font-variant:normal;font-weight:normal;font-stretch:normal;letter-spacing:normal;word-spacing:normal;text-anchor:start;fill:none;stroke:#000000;stroke-width:1;stroke-linecap:butt;stroke-linejoin:miter;stroke-miterlimit:10.43299961;stroke-opacity:1;stroke-dasharray:none;stroke-dashoffset:0"><path
         style="fill:#000000;stroke-width:0"
         inkscape:connector-curvature="0"
         d="m 225.96,713.84 -0.05,0 -0.05,0 -0.05,0 -0.05,-0.01 -0.05,0 -0.05,-0.01 -0.04,0 -0.05,-0.01 -0.04,-0.01 -0.05,-0.01 -0.04,-0.01 -0.05,-0.01 -0.04,-0.01 -0.04,-0.02 -0.04,-0.01 -0.04,-0.02 -0.05,-0.01 -0.04,-0.02 -0.04,-0.02 -0.03,-0.02 -0.04,-0.02 -0.04,-0.02 -0.04,-0.03 -0.04,-0.02 -0.03,-0.02 -0.04,-0.03 -0.04,-0.03 -0.03,-0.02 -0.04,-0.03 -0.03,-0.03 -0.04,-0.03 -0.03,-0.04 c -0.58,-0.55 -0.96,-1.7 -0.96,-2.86 0,-1.08 0.33,-2.24 0.8,-2.8 0.37,-0.44 0.87,-0.67 1.45,-0.67 v 0.25 c -0.86,0 -1.29,1.07 -1.29,3.13 0,2.11 0.44,3.21 1.3,3.21 h 0 c 0.83,0 1.28,-1.12 1.28,-3.2 0,-2.07 -0.44,-3.14 -1.29,-3.14 v -0.25 c 0.51,0 0.93,0.17 1.29,0.51 0.58,0.55 0.96,1.7 0.96,2.9 0,2.04 -0.91,3.44 -2.21,3.44 z"
         id="path3150" /><path
         style="fill:#000000;stroke-width:0"
         inkscape:connector-curvature="0"
         d="m 230.21,707.55 0,0.03 0,0.03 0,0.03 -0.01,0.02 0,0.03 -0.01,0.03 -0.01,0.02 -0.01,0.03 -0.01,0.03 -0.02,0.02 -0.01,0.02 -0.01,0.03 -0.02,0.02 -0.02,0.02 -0.01,0.02 -0.02,0.02 -0.02,0.02 -0.02,0.02 -0.02,0.01 -0.03,0.02 -0.02,0.01 -0.02,0.02 -0.03,0.01 -0.02,0.01 -0.03,0.01 -0.02,0.01 -0.03,0.01 -0.02,0.01 -0.03,0 -0.03,0.01 -0.03,0 -0.02,0 c -0.3,0 -0.55,-0.25 -0.55,-0.57 0,-0.38 0.34,-0.53 0.55,-0.53 0.21,0 0.55,0.16 0.55,0.53 z"
         id="path3152" /><path
         style="fill:#000000;stroke-width:0"
         inkscape:connector-curvature="0"
         d="m 233.79,710.81 0.09,0.05 0.09,0.05 0.08,0.05 0.08,0.04 0.08,0.05 0.07,0.05 0.07,0.04 0.06,0.05 0.07,0.05 0.05,0.04 0.06,0.05 0.05,0.05 0.05,0.04 0.05,0.05 0.04,0.05 0.05,0.04 0.03,0.05 0.04,0.05 0.03,0.05 0.03,0.05 0.03,0.05 0.02,0.05 0.02,0.05 0.02,0.06 0.02,0.05 0.01,0.05 0.02,0.06 0.01,0.06 0,0.06 0.01,0.06 0,0.06 0,0.06 c 0,0.81 -0.71,1.41 -1.71,1.41 l -0.08,-0.28 c 0.68,0 1.11,-0.44 1.11,-1.12 0,-0.57 -0.28,-1.01 -0.85,-1.39 -0.05,-0.03 -0.05,-0.03 -0.09,-0.06 h 0 c -0.88,0.58 -1.24,1.03 -1.24,1.59 0,0.58 0.45,0.98 1.07,0.98 l 0.08,0.28 c -1.08,0 -1.89,-0.67 -1.89,-1.57 0,-0.65 0.19,-0.93 1.24,-1.85 -1.08,-0.81 -1.3,-1.12 -1.3,-1.8 0,-0.96 0.79,-1.63 1.91,-1.63 l 0.11,0.27 c -0.75,0 -1.26,0.58 -1.26,1.44 0,0.64 0.22,1.06 0.79,1.52 l 0.6,-0.43 c 0.73,-0.52 0.96,-0.88 0.96,-1.43 0,-0.65 -0.44,-1.1 -1.09,-1.1 l -0.11,-0.27 c 1.2,0 1.96,0.65 1.96,1.67 0,0.77 -0.34,1.26 -1.54,2.15 z"
         id="path3154" /><path
         style="fill:#000000;stroke-width:0"
         inkscape:connector-curvature="0"
         d="m 240.35,713.7 h -3.68 l -0.59,-1.46 0.17,-0.08 c 0.43,0.68 0.61,0.81 1.16,0.81 h 2.16 l -1.97,-5.92 h 0.64 l 2.11,6.49 z"
         id="path3156" /><path
         style="fill:#000000;stroke-width:0"
         inkscape:connector-curvature="0"
         d="m 242.67,712.92 h 1.95 c 0.16,0 0.2,0.02 0.23,0.09 l 0.37,0.88 -0.09,0.07 c -0.14,-0.21 -0.24,-0.26 -0.45,-0.26 h -2.08 l -1.09,-2.35 c -0.01,-0.02 -0.01,-0.03 -0.01,-0.05 0,-0.05 0.04,-0.08 0.12,-0.08 0.32,0 0.72,-0.07 1.13,-0.2 1.14,-0.37 1.67,-0.98 1.67,-1.97 0,-0.95 -0.61,-1.7 -1.38,-1.7 -0.2,0 -0.37,0.07 -0.67,0.29 -0.32,0.23 -0.55,0.33 -0.76,0.33 -0.29,0 -0.43,-0.12 -0.43,-0.37 0,-0.38 0.47,-0.61 1.22,-0.61 0.83,0 1.55,0.26 2.05,0.77 0.46,0.45 0.67,1.01 0.67,1.77 0,0.71 -0.19,1.17 -0.69,1.67 -0.44,0.44 -1.01,0.66 -2.18,0.87 z"
         id="path3158" /><polygon
         style="fill:#000000;stroke-width:0"
         points="248.62,711.89 250.83,709.68 248.62,707.47 249.02,707.08 251.23,709.29 253.43,707.08 253.83,707.47 251.61,709.68 253.83,711.89 253.43,712.29 251.23,710.08 249.02,712.29 "
         id="polygon3160" /><path
         style="fill:#000000;stroke-width:0"
         inkscape:connector-curvature="0"
         d="m 261.34,708.49 -0.13,0.05 c -0.37,-0.57 -0.5,-0.66 -0.95,-0.66 h -2.37 l 1.67,1.75 c 0.88,0.92 1.27,1.68 1.27,2.45 0,1 -0.81,1.76 -1.84,1.76 -0.55,0 -1.07,-0.22 -1.43,-0.62 -0.32,-0.33 -0.47,-0.65 -0.64,-1.36 l 0.21,-0.05 c 0.4,0.98 0.76,1.29 1.44,1.29 0.84,0 1.41,-0.56 1.41,-1.39 0,-0.78 -0.46,-1.7 -1.3,-2.59 l -1.77,-1.88 v -0.12 h 3.88 z"
         id="path3162" /><polygon
         style="fill:#000000;stroke-width:0"
         points="264.98,710.96 264.98,710.4 270.07,710.4 270.07,710.96 "
         id="polygon3164" /><polygon
         style="fill:#000000;stroke-width:0"
         points="264.98,708.94 264.98,708.39 270.07,708.39 270.07,708.94 "
         id="polygon3166" /><path
         style="fill:#000000;stroke-width:0"
         inkscape:connector-curvature="0"
         d="m 286.32,713.84 -1.79,-0.9 v -0.14 c 0.12,0.05 0.23,0.09 0.27,0.11 0.18,0.07 0.35,0.11 0.45,0.11 0.21,0 0.3,-0.15 0.3,-0.47 v -4.5 c 0,-0.33 -0.08,-0.56 -0.24,-0.65 -0.15,-0.09 -0.29,-0.12 -0.71,-0.13 v -0.15 h 2.75 v 0.15 c -0.79,0.01 -0.95,0.11 -0.95,0.59 v 5.96 z"
         id="path3168" /><path
         style="fill:#000000;stroke-width:0"
         inkscape:connector-curvature="0"
         d="m 290.21,707.55 0,0.03 0,0.03 -0.01,0.03 0,0.02 -0.01,0.03 -0.01,0.03 -0.01,0.02 -0.01,0.03 -0.01,0.03 -0.01,0.02 -0.01,0.02 -0.02,0.03 -0.01,0.02 -0.02,0.02 -0.02,0.02 -0.02,0.02 -0.02,0.02 -0.02,0.02 -0.02,0.01 -0.02,0.02 -0.02,0.01 -0.03,0.02 -0.02,0.01 -0.03,0.01 -0.02,0.01 -0.03,0.01 -0.02,0.01 -0.03,0.01 -0.03,0 -0.02,0.01 -0.03,0 -0.03,0 c -0.3,0 -0.55,-0.25 -0.55,-0.57 0,-0.38 0.34,-0.53 0.55,-0.53 0.21,0 0.56,0.16 0.56,0.53 z"
         id="path3170" /><path
         style="fill:#000000;stroke-width:0"
         inkscape:connector-curvature="0"
         d="m 295.37,713.7 h -3.69 l -0.58,-1.46 0.17,-0.08 c 0.43,0.68 0.6,0.81 1.15,0.81 h 2.16 l -1.97,-5.92 h 0.65 l 2.11,6.49 z"
         id="path3172" /><path
         style="fill:#000000;stroke-width:0"
         inkscape:connector-curvature="0"
         d="m 297.68,712.92 h 1.95 c 0.16,0 0.2,0.02 0.23,0.09 l 0.38,0.88 -0.09,0.07 c -0.15,-0.21 -0.25,-0.26 -0.46,-0.26 h -2.08 l -1.08,-2.35 c -0.01,-0.02 -0.01,-0.03 -0.01,-0.05 0,-0.05 0.04,-0.08 0.12,-0.08 0.31,0 0.71,-0.07 1.12,-0.2 1.14,-0.37 1.67,-0.98 1.67,-1.97 0,-0.95 -0.6,-1.7 -1.38,-1.7 -0.2,0 -0.37,0.07 -0.67,0.29 -0.32,0.23 -0.55,0.33 -0.75,0.33 -0.29,0 -0.43,-0.12 -0.43,-0.37 0,-0.38 0.47,-0.61 1.21,-0.61 0.84,0 1.55,0.26 2.05,0.77 0.46,0.45 0.67,1.01 0.67,1.77 0,0.71 -0.19,1.17 -0.69,1.67 -0.44,0.44 -1,0.66 -2.18,0.87 z"
         id="path3174" /></g>    <g
       style="font-style:normal;font-variant:normal;font-weight:normal;font-stretch:normal;letter-spacing:normal;word-spacing:normal;text-anchor:start;fill:none;stroke:#000000;stroke-width:1;stroke-linecap:butt;stroke-linejoin:miter;stroke-miterlimit:10.43299961;stroke-opacity:1;stroke-dasharray:none;stroke-dashoffset:0"
       ns0:preamble="/home/sriranga/Desktop/Prism_BasicElectronics/preamble.tex"
       ns0:text="$\\therefore ~ (0.875)_{10} =(0.111)_2$"
       text-anchor="start"
       word-spacing="normal"
       letter-spacing="normal"
       font-size-adjust="none"
       font-stretch="normal"
       font-weight="normal"
       font-variant="normal"
       font-style="normal"
       fill-opacity="1"
       fill-rule="evenodd"
       fill="none"
       stroke-opacity="1"
       stroke-dashoffset="0"
       stroke-dasharray="none"
       stroke-miterlimit="10.433"
       stroke-linejoin="miter"
       stroke-linecap="butt"
       stroke="black"
       xml:space="preserve"
       transform="matrix(1.2,0,0,-1.2,61.824502,1674.6203)"
       id="g3326"><path
         id="path3328"
         fill="black"
         stroke-width="0"
         d="M227.27,711.21 L227.27,711.23 L227.27,711.26 L227.27,711.29 L227.26,711.31 L227.26,711.34 L227.25,711.36 L227.24,711.39 L227.23,711.41 L227.22,711.43 L227.21,711.46 L227.2,711.48 L227.18,711.5 L227.17,711.52 L227.15,711.54 L227.13,711.56 L227.12,711.58 L227.1,711.6 L227.08,711.61 L227.06,711.63 L227.04,711.64 L227.02,711.66 L227,711.67 L226.97,711.68 L226.95,711.69 L226.93,711.7 L226.9,711.71 L226.88,711.72 L226.85,711.72 L226.82,711.73 L226.8,711.73 L226.77,711.73 L226.74,711.73 C226.46,711.73,226.22,711.5,226.22,711.21 C226.22,710.92,226.46,710.68,226.74,710.68 C227.02,710.68,227.27,710.91,227.27,711.21 Z " /><path
         id="path3330"
         fill="black"
         stroke-width="0"
         d="M229.76,706.91 L229.76,706.93 L229.76,706.96 L229.75,706.99 L229.75,707.01 L229.74,707.04 L229.74,707.06 L229.73,707.09 L229.72,707.11 L229.71,707.13 L229.7,707.16 L229.68,707.18 L229.67,707.2 L229.65,707.22 L229.64,707.24 L229.62,707.26 L229.6,707.28 L229.59,707.3 L229.57,707.31 L229.55,707.33 L229.53,707.34 L229.5,707.36 L229.48,707.37 L229.46,707.38 L229.44,707.39 L229.41,707.4 L229.39,707.41 L229.36,707.42 L229.34,707.42 L229.31,707.43 L229.29,707.43 L229.26,707.43 L229.23,707.43 C228.94,707.43,228.71,707.19,228.71,706.91 C228.71,706.62,228.94,706.38,229.23,706.38 C229.52,706.38,229.76,706.62,229.76,706.91 Z " /><path
         id="path3332"
         fill="black"
         stroke-width="0"
         d="M224.79,706.91 L224.78,706.93 L224.78,706.96 L224.78,706.99 L224.77,707.01 L224.77,707.04 L224.76,707.06 L224.75,707.09 L224.74,707.11 L224.73,707.13 L224.72,707.16 L224.71,707.18 L224.69,707.2 L224.68,707.22 L224.66,707.24 L224.65,707.26 L224.63,707.28 L224.61,707.3 L224.59,707.31 L224.57,707.33 L224.55,707.34 L224.53,707.36 L224.51,707.37 L224.49,707.38 L224.46,707.39 L224.44,707.4 L224.41,707.41 L224.39,707.42 L224.36,707.42 L224.34,707.43 L224.31,707.43 L224.28,707.43 L224.26,707.43 C223.97,707.43,223.73,707.19,223.73,706.91 C223.73,706.62,223.97,706.38,224.26,706.38 C224.55,706.38,224.79,706.62,224.79,706.91 Z " /><path
         id="path3334"
         fill="black"
         stroke-width="0"
         d="M238.27,713.84 L238.2,713.8 L238.13,713.75 L238.07,713.71 L238.01,713.67 L237.95,713.63 L237.9,713.59 L237.84,713.55 L237.79,713.52 L237.74,713.48 L237.69,713.44 L237.64,713.41 L237.6,713.37 L237.55,713.34 L237.51,713.3 L237.43,713.24 L237.35,713.17 L237.28,713.1 L237.2,713.03 L237.13,712.96 L237.07,712.89 L237,712.81 L236.93,712.73 L236.86,712.65 C236.16,711.78,235.81,710.79,235.81,709.63 C235.81,708.37,236.18,707.39,237.05,706.38 C237.46,705.9,237.72,705.68,238.24,705.37 L238.36,705.53 C237.56,706.15,237.28,706.5,237.01,707.24 C236.77,707.91,236.66,708.66,236.66,709.66 C236.66,710.7,236.79,711.52,237.06,712.13 C237.34,712.75,237.64,713.1,238.36,713.68 Z " /><path
         id="path3336"
         fill="black"
         stroke-width="0"
         d="M241.18,713.84 L241.13,713.84 L241.08,713.84 L241.03,713.84 L240.98,713.83 L240.93,713.83 L240.88,713.82 L240.84,713.82 L240.79,713.81 L240.74,713.8 L240.7,713.79 L240.65,713.78 L240.61,713.77 L240.57,713.76 L240.53,713.74 L240.48,713.73 L240.44,713.71 L240.4,713.7 L240.36,713.68 L240.32,713.66 L240.28,713.64 L240.24,713.62 L240.21,713.6 L240.17,713.57 L240.13,713.55 L240.09,713.53 L240.06,713.5 L240.02,713.47 L239.98,713.45 L239.95,713.42 L239.91,713.39 L239.88,713.36 L239.84,713.32 C239.27,712.77,238.89,711.62,238.89,710.46 C238.89,709.38,239.22,708.22,239.68,707.66 C240.05,707.22,240.56,706.99,241.14,706.99 V707.24 C240.28,707.24,239.84,708.31,239.84,710.37 C239.84,712.48,240.29,713.58,241.15,713.58 H241.15 C241.98,713.58,242.43,712.46,242.43,710.38 C242.43,708.31,241.99,707.24,241.14,707.24 V706.99 C241.64,706.99,242.07,707.16,242.43,707.5 C243.01,708.05,243.38,709.2,243.38,710.4 C243.38,712.44,242.48,713.84,241.18,713.84 Z " /><path
         id="path3338"
         fill="black"
         stroke-width="0"
         d="M245.43,707.55 L245.43,707.58 L245.43,707.61 L245.43,707.64 L245.42,707.66 L245.41,707.69 L245.41,707.72 L245.4,707.74 L245.39,707.77 L245.38,707.8 L245.36,707.82 L245.35,707.84 L245.33,707.87 L245.32,707.89 L245.3,707.91 L245.28,707.93 L245.27,707.95 L245.25,707.97 L245.23,707.99 L245.2,708 L245.18,708.02 L245.16,708.03 L245.14,708.05 L245.11,708.06 L245.09,708.07 L245.06,708.08 L245.04,708.09 L245.01,708.1 L244.98,708.11 L244.96,708.11 L244.93,708.12 L244.9,708.12 L244.88,708.12 C244.58,708.12,244.33,707.87,244.33,707.55 C244.33,707.17,244.67,707.02,244.88,707.02 C245.08,707.02,245.43,707.18,245.43,707.55 Z " /><path
         id="path3340"
         fill="black"
         stroke-width="0"
         d="M249.01,710.81 L249.1,710.86 L249.18,710.91 L249.27,710.96 L249.35,711 L249.42,711.05 L249.49,711.1 L249.56,711.14 L249.63,711.19 L249.69,711.24 L249.75,711.28 L249.81,711.33 L249.86,711.38 L249.91,711.42 L249.96,711.47 L250,711.52 L250.04,711.56 L250.08,711.61 L250.12,711.66 L250.15,711.71 L250.18,711.76 L250.2,711.81 L250.23,711.86 L250.25,711.91 L250.27,711.97 L250.29,712.02 L250.3,712.07 L250.31,712.13 L250.32,712.19 L250.33,712.25 L250.34,712.31 L250.34,712.37 L250.34,712.43 C250.34,713.24,249.62,713.84,248.63,713.84 L248.55,713.56 C249.23,713.56,249.65,713.12,249.65,712.44 C249.65,711.87,249.37,711.43,248.81,711.05 C248.76,711.02,248.76,711.02,248.72,710.99 H248.72 C247.83,711.57,247.47,712.02,247.47,712.58 C247.47,713.16,247.92,713.56,248.55,713.56 L248.63,713.84 C247.54,713.84,246.74,713.17,246.74,712.27 C246.74,711.62,246.93,711.34,247.97,710.42 C246.9,709.61,246.68,709.3,246.68,708.62 C246.68,707.66,247.46,706.99,248.59,706.99 L248.7,707.26 C247.94,707.26,247.43,707.84,247.43,708.7 C247.43,709.34,247.65,709.76,248.23,710.22 L248.83,709.79 C249.55,709.27,249.79,708.91,249.79,708.36 C249.79,707.71,249.35,707.26,248.7,707.26 L248.59,706.99 C249.78,706.99,250.55,707.64,250.55,708.66 C250.55,709.43,250.21,709.92,249.01,710.81 Z " /><path
         id="path3342"
         fill="black"
         stroke-width="0"
         d="M255.57,713.7 H251.89 L251.3,712.24 L251.47,712.16 C251.9,712.84,252.08,712.97,252.62,712.97 H254.78 L252.81,707.05 H253.46 L255.57,713.54 Z " /><path
         id="path3344"
         fill="black"
         stroke-width="0"
         d="M257.88,712.92 H259.83 C259.99,712.92,260.03,712.94,260.06,713.01 L260.44,713.89 L260.35,713.96 C260.2,713.75,260.1,713.7,259.89,713.7 H257.82 L256.73,711.35 C256.72,711.33,256.72,711.32,256.72,711.3 C256.72,711.25,256.76,711.22,256.84,711.22 C257.16,711.22,257.56,711.15,257.96,711.02 C259.11,710.65,259.64,710.04,259.64,709.05 C259.64,708.1,259.03,707.35,258.25,707.35 C258.05,707.35,257.88,707.42,257.59,707.64 C257.27,707.87,257.04,707.97,256.83,707.97 C256.54,707.97,256.4,707.85,256.4,707.6 C256.4,707.22,256.87,706.99,257.62,706.99 C258.45,706.99,259.17,707.25,259.67,707.76 C260.12,708.21,260.33,708.77,260.33,709.53 C260.33,710.24,260.14,710.7,259.64,711.2 C259.21,711.64,258.64,711.86,257.47,712.07 Z " /><path
         id="path3346"
         fill="black"
         stroke-width="0"
         d="M261.44,705.37 L261.51,705.41 L261.58,705.45 L261.64,705.5 L261.7,705.54 L261.76,705.58 L261.81,705.61 L261.87,705.65 L261.92,705.69 L261.97,705.73 L262.02,705.76 L262.07,705.8 L262.11,705.83 L262.16,705.87 L262.2,705.9 L262.28,705.97 L262.36,706.04 L262.43,706.11 L262.51,706.18 L262.58,706.25 L262.64,706.32 L262.71,706.4 L262.78,706.48 L262.85,706.56 C263.55,707.42,263.9,708.42,263.9,709.58 C263.9,710.85,263.53,711.81,262.66,712.83 C262.25,713.3,261.99,713.52,261.47,713.84 L261.35,713.68 C262.15,713.05,262.42,712.71,262.7,711.96 C262.93,711.3,263.05,710.54,263.05,709.55 C263.05,708.52,262.92,707.69,262.65,707.09 C262.37,706.46,262.07,706.1,261.35,705.53 Z " /><path
         id="path3348"
         fill="black"
         stroke-width="0"
         d="M266.41,710.33 L265.16,709.7 V709.6 C265.24,709.64,265.32,709.66,265.34,709.68 C265.47,709.73,265.59,709.76,265.66,709.76 C265.8,709.76,265.87,709.65,265.87,709.43 V706.28 C265.87,706.05,265.81,705.89,265.7,705.83 C265.6,705.76,265.5,705.74,265.2,705.73 V705.63 H267.13 V705.73 C266.58,705.74,266.46,705.81,266.46,706.15 V710.32 Z " /><path
         id="path3350"
         fill="black"
         stroke-width="0"
         d="M269.64,710.33 L269.6,710.33 L269.57,710.33 L269.53,710.33 L269.5,710.33 L269.47,710.32 L269.43,710.32 L269.4,710.31 L269.37,710.31 L269.34,710.3 L269.3,710.3 L269.27,710.29 L269.24,710.28 L269.21,710.27 L269.18,710.26 L269.15,710.25 L269.13,710.24 L269.1,710.23 L269.07,710.22 L269.04,710.21 L269.01,710.19 L268.99,710.18 L268.96,710.16 L268.93,710.15 L268.91,710.13 L268.88,710.11 L268.85,710.09 L268.83,710.07 L268.8,710.06 L268.78,710.04 L268.75,710.01 L268.73,709.99 L268.71,709.97 C268.3,709.58,268.04,708.78,268.04,707.97 C268.04,707.21,268.27,706.4,268.59,706.01 C268.85,705.7,269.21,705.53,269.61,705.53 V705.71 C269.01,705.71,268.71,706.46,268.71,707.91 C268.71,709.38,269.02,710.15,269.62,710.15 H269.62 C270.2,710.15,270.52,709.36,270.52,707.91 C270.52,706.46,270.21,705.71,269.61,705.71 V705.53 C269.97,705.53,270.27,705.65,270.52,705.9 C270.92,706.28,271.18,707.08,271.18,707.93 C271.18,709.35,270.55,710.33,269.64,710.33 Z " /><polygon
         id="polygon3352"
         fill="black"
         stroke-width="0"
         points="280.33,710.4 280.33,710.96 275.24,710.96 275.24,710.4 " /><polygon
         id="polygon3354"
         fill="black"
         stroke-width="0"
         points="280.33,708.39 280.33,708.94 275.24,708.94 275.24,708.39 " /><path
         id="path3356"
         fill="black"
         stroke-width="0"
         d="M286.66,713.84 L286.59,713.8 L286.53,713.75 L286.47,713.71 L286.4,713.67 L286.35,713.63 L286.29,713.59 L286.24,713.55 L286.18,713.52 L286.13,713.48 L286.08,713.44 L286.04,713.41 L285.99,713.37 L285.95,713.34 L285.9,713.3 L285.82,713.24 L285.74,713.17 L285.67,713.1 L285.6,713.03 L285.53,712.96 L285.46,712.89 L285.39,712.81 L285.33,712.73 L285.26,712.65 C284.55,711.78,284.2,710.79,284.2,709.63 C284.2,708.37,284.57,707.39,285.45,706.38 C285.86,705.9,286.11,705.68,286.63,705.37 L286.75,705.53 C285.95,706.15,285.68,706.5,285.41,707.24 C285.17,707.91,285.06,708.66,285.06,709.66 C285.06,710.7,285.19,711.52,285.46,712.13 C285.74,712.75,286.03,713.1,286.75,713.68 Z " /><path
         id="path3358"
         fill="black"
         stroke-width="0"
         d="M289.57,713.84 L289.52,713.84 L289.47,713.84 L289.42,713.84 L289.37,713.83 L289.32,713.83 L289.28,713.82 L289.23,713.82 L289.18,713.81 L289.14,713.8 L289.09,713.79 L289.05,713.78 L289.01,713.77 L288.96,713.76 L288.92,713.74 L288.88,713.73 L288.84,713.71 L288.8,713.7 L288.76,713.68 L288.72,713.66 L288.68,713.64 L288.64,713.62 L288.6,713.6 L288.56,713.57 L288.52,713.55 L288.49,713.53 L288.45,713.5 L288.41,713.47 L288.38,713.45 L288.34,713.42 L288.31,713.39 L288.27,713.36 L288.24,713.32 C287.66,712.77,287.28,711.62,287.28,710.46 C287.28,709.38,287.61,708.22,288.08,707.66 C288.45,707.22,288.95,706.99,289.53,706.99 V707.24 C288.67,707.24,288.24,708.31,288.24,710.37 C288.24,712.48,288.68,713.58,289.54,713.58 H289.54 C290.38,713.58,290.82,712.46,290.82,710.38 C290.82,708.31,290.39,707.24,289.53,707.24 V706.99 C290.04,706.99,290.47,707.16,290.82,707.5 C291.4,708.05,291.78,709.2,291.78,710.4 C291.78,712.44,290.87,713.84,289.57,713.84 Z " /><path
         id="path3360"
         fill="black"
         stroke-width="0"
         d="M293.83,707.55 L293.83,707.58 L293.82,707.61 L293.82,707.64 L293.81,707.66 L293.81,707.69 L293.8,707.72 L293.79,707.74 L293.78,707.77 L293.77,707.8 L293.76,707.82 L293.74,707.84 L293.73,707.87 L293.71,707.89 L293.7,707.91 L293.68,707.93 L293.66,707.95 L293.64,707.97 L293.62,707.99 L293.6,708 L293.58,708.02 L293.55,708.03 L293.53,708.05 L293.51,708.06 L293.48,708.07 L293.46,708.08 L293.43,708.09 L293.4,708.1 L293.38,708.11 L293.35,708.11 L293.32,708.12 L293.3,708.12 L293.27,708.12 C292.97,708.12,292.72,707.87,292.72,707.55 C292.72,707.17,293.06,707.02,293.27,707.02 C293.48,707.02,293.83,707.18,293.83,707.55 Z " /><path
         id="path3362"
         fill="black"
         stroke-width="0"
         d="M297.41,713.84 L295.62,712.94 V712.8 C295.74,712.85,295.85,712.89,295.89,712.91 C296.07,712.98,296.24,713.02,296.34,713.02 C296.55,713.02,296.63,712.87,296.63,712.55 V708.05 C296.63,707.72,296.55,707.49,296.39,707.4 C296.25,707.31,296.11,707.28,295.69,707.27 V707.12 H298.43 V707.27 C297.65,707.28,297.49,707.38,297.49,707.86 V713.82 Z " /><path
         id="path3364"
         fill="black"
         stroke-width="0"
         d="M302.39,713.84 L300.6,712.94 V712.8 C300.72,712.85,300.83,712.89,300.87,712.91 C301.05,712.98,301.22,713.02,301.32,713.02 C301.53,713.02,301.62,712.87,301.62,712.55 V708.05 C301.62,707.72,301.54,707.49,301.38,707.4 C301.23,707.31,301.09,707.28,300.67,707.27 V707.12 H303.42 V707.27 C302.63,707.28,302.47,707.38,302.47,707.86 V713.82 Z " /><path
         id="path3366"
         fill="black"
         stroke-width="0"
         d="M307.37,713.84 L305.58,712.94 V712.8 C305.7,712.85,305.81,712.89,305.85,712.91 C306.03,712.98,306.2,713.02,306.3,713.02 C306.51,713.02,306.6,712.87,306.6,712.55 V708.05 C306.6,707.72,306.52,707.49,306.36,707.4 C306.21,707.31,306.07,707.28,305.65,707.27 V707.12 H308.4 V707.27 C307.61,707.28,307.45,707.38,307.45,707.86 V713.82 Z " /><path
         id="path3368"
         fill="black"
         stroke-width="0"
         d="M309.84,705.37 L309.9,705.41 L309.97,705.45 L310.03,705.5 L310.09,705.54 L310.15,705.58 L310.21,705.61 L310.26,705.65 L310.31,705.69 L310.37,705.73 L310.41,705.76 L310.46,705.8 L310.51,705.83 L310.55,705.87 L310.59,705.9 L310.68,705.97 L310.75,706.04 L310.83,706.11 L310.9,706.18 L310.97,706.25 L311.04,706.32 L311.1,706.4 L311.17,706.48 L311.24,706.56 C311.95,707.42,312.29,708.42,312.29,709.58 C312.29,710.85,311.93,711.81,311.05,712.83 C310.64,713.3,310.38,713.52,309.87,713.84 L309.75,713.68 C310.54,713.05,310.81,712.71,311.09,711.96 C311.33,711.3,311.44,710.54,311.44,709.55 C311.44,708.52,311.31,707.69,311.04,707.09 C310.76,706.46,310.46,706.1,309.75,705.53 Z " /><path
         id="path3370"
         fill="black"
         stroke-width="0"
         d="M316.08,706.58 L315.99,706.62 C315.74,706.22,315.65,706.16,315.33,706.16 H313.67 L314.84,707.38 C315.46,708.03,315.73,708.56,315.73,709.1 C315.73,709.8,315.17,710.33,314.44,710.33 C314.06,710.33,313.7,710.18,313.44,709.9 C313.22,709.66,313.11,709.44,312.99,708.95 L313.14,708.91 C313.42,709.59,313.67,709.82,314.15,709.82 C314.73,709.82,315.13,709.42,315.13,708.84 C315.13,708.29,314.81,707.65,314.23,707.03 L312.99,705.71 V705.63 H315.7 Z " /></g>  </g>
</svg>
