<?xml version="1.0" encoding="UTF-8" standalone="no"?>
<!-- Created with Inkscape (http://www.inkscape.org/) -->

<svg
   xmlns:ns0="http://www.iki.fi/pav/software/textext/"
   xmlns:dc="http://purl.org/dc/elements/1.1/"
   xmlns:cc="http://creativecommons.org/ns#"
   xmlns:rdf="http://www.w3.org/1999/02/22-rdf-syntax-ns#"
   xmlns:svg="http://www.w3.org/2000/svg"
   xmlns="http://www.w3.org/2000/svg"
   xmlns:sodipodi="http://sodipodi.sourceforge.net/DTD/sodipodi-0.dtd"
   xmlns:inkscape="http://www.inkscape.org/namespaces/inkscape"
   width="496.06299"
   height="354.33069"
   id="svg2"
   version="1.1"
   inkscape:version="0.48.4 r9939"
   sodipodi:docname="div9.svg">
  <sodipodi:namedview
     id="base"
     pagecolor="#ffffff"
     bordercolor="#666666"
     borderopacity="1.0"
     inkscape:pageopacity="0.0"
     inkscape:pageshadow="2"
     inkscape:zoom="1.6848668"
     inkscape:cx="248.03149"
     inkscape:cy="177.16534"
     inkscape:document-units="cm"
     inkscape:current-layer="layer1"
     showgrid="false"
     units="cm"
     inkscape:object-nodes="true"
     inkscape:window-width="1024"
     inkscape:window-height="744"
     inkscape:window-x="0"
     inkscape:window-y="24"
     inkscape:window-maximized="1">
    <inkscape:grid
       type="xygrid"
       id="grid2985"
       empspacing="5"
       visible="true"
       enabled="true"
       snapvisiblegridlinesonly="true" />
  </sodipodi:namedview>
  <defs
     id="defs4">
    <marker
       inkscape:stockid="Arrow1Mstart"
       orient="auto"
       refY="0"
       refX="0"
       id="Arrow1Mstart"
       style="overflow:visible">
      <path
         inkscape:connector-curvature="0"
         id="path3775"
         d="M 0,0 5,-5 -12.5,0 5,5 0,0 z"
         style="fill-rule:evenodd;stroke:#000000;stroke-width:1pt"
         transform="matrix(0.4,0,0,0.4,4,0)" />
    </marker>
    <marker
       inkscape:stockid="Arrow1Mend"
       orient="auto"
       refY="0"
       refX="0"
       id="Arrow1Mend"
       style="overflow:visible">
      <path
         inkscape:connector-curvature="0"
         id="path3778"
         d="M 0,0 5,-5 -12.5,0 5,5 0,0 z"
         style="fill-rule:evenodd;stroke:#000000;stroke-width:1pt"
         transform="matrix(-0.4,0,0,-0.4,-4,0)" />
    </marker>
    <marker
       inkscape:stockid="Arrow1Mstart"
       orient="auto"
       refY="0"
       refX="0"
       id="Arrow1Mstart-6"
       style="overflow:visible">
      <path
         inkscape:connector-curvature="0"
         id="path3775-2"
         d="M 0,0 5,-5 -12.5,0 5,5 0,0 z"
         style="fill-rule:evenodd;stroke:#000000;stroke-width:1pt"
         transform="matrix(0.4,0,0,0.4,4,0)" />
    </marker>
  </defs>
  <metadata
     id="metadata7">
    <rdf:RDF>
      <cc:Work
         rdf:about="">
        <dc:format>image/svg+xml</dc:format>
        <dc:type
           rdf:resource="http://purl.org/dc/dcmitype/StillImage" />
        <dc:title />
      </cc:Work>
    </rdf:RDF>
  </metadata>
  <g
     inkscape:label="Layer 1"
     inkscape:groupmode="layer"
     id="layer1"
     transform="translate(0,-698.03016)">
    <text
       transform="translate(0,698.03016)"
       sodipodi:linespacing="100%"
       id="text5818"
       y="56.040417"
       x="61.700558"
       style="font-size:12px;font-style:normal;font-variant:normal;font-weight:normal;font-stretch:normal;text-align:start;line-height:100%;letter-spacing:0px;word-spacing:0px;text-anchor:start;fill:#000000;fill-opacity:1;stroke:none;font-family:LMRoman12;-inkscape-font-specification:Sans"
       xml:space="preserve"><tspan
         y="56.040417"
         x="61.700558"
         id="tspan5820"
         sodipodi:role="line" /></text>
    <flowRoot
       xml:space="preserve"
       id="flowRoot6377"
       style="fill:black;stroke:none;stroke-opacity:1;stroke-width:1px;stroke-linejoin:miter;stroke-linecap:butt;fill-opacity:1;font-family:LMRoman12;font-style:normal;font-weight:normal;font-size:12px;line-height:100%;letter-spacing:0px;word-spacing:0px;-inkscape-font-specification:Sans;font-stretch:normal;font-variant:normal;text-anchor:start;text-align:start"><flowRegion
         id="flowRegion6379"><rect
           id="rect6381"
           width="27.681772"
           height="40.319103"
           x="219.34796"
           y="87.141403" /></flowRegion><flowPara
         id="flowPara6383" /></flowRoot>    <text
       xml:space="preserve"
       style="font-size:12px;font-style:normal;font-variant:normal;font-weight:normal;font-stretch:normal;text-align:start;line-height:50%;letter-spacing:0px;word-spacing:0px;text-anchor:start;fill:#000000;fill-opacity:1;stroke:none;font-family:LMRoman12;-inkscape-font-specification:Sans"
       x="275.91507"
       y="55.247185"
       id="text6385"
       sodipodi:linespacing="50%"
       transform="translate(0,698.03016)"><tspan
         sodipodi:role="line"
         id="tspan6387" /></text>
    <text
       xml:space="preserve"
       style="font-size:12px;font-style:normal;font-variant:normal;font-weight:normal;font-stretch:normal;text-align:start;line-height:100%;letter-spacing:0px;word-spacing:0px;text-anchor:start;fill:#000000;fill-opacity:1;stroke:none;font-family:LMRoman12;-inkscape-font-specification:Sans"
       x="348.65417"
       y="194.38702"
       id="text3884"
       sodipodi:linespacing="100%"
       transform="translate(0,698.03016)"><tspan
         sodipodi:role="line"
         x="348.65417"
         y="194.38702"
         id="tspan3890" /></text>
    <text
       xml:space="preserve"
       style="font-size:12px;font-style:normal;font-variant:normal;font-weight:normal;font-stretch:normal;text-align:start;line-height:150%;letter-spacing:0px;word-spacing:0px;text-anchor:start;fill:#000000;fill-opacity:1;stroke:none;font-family:LMRoman12;-inkscape-font-specification:Sans"
       x="216.96629"
       y="250.89732"
       id="text3887"
       sodipodi:linespacing="150%"
       transform="translate(0,698.03016)"><tspan
         sodipodi:role="line"
         id="tspan3889"
         x="216.96629"
         y="250.89732" /></text>
    <path
       style="fill:none;stroke:#000000;stroke-width:1;stroke-linecap:square;stroke-linejoin:round;stroke-miterlimit:4;stroke-opacity:1;stroke-dasharray:none;stroke-dashoffset:0"
       d="m 130,731.13798 0,11.22287 29.50797,0"
       id="path7259"
       inkscape:connector-curvature="0"
       sodipodi:nodetypes="ccc" />
    <text
       xml:space="preserve"
       style="font-size:12px;font-style:normal;font-variant:normal;font-weight:normal;font-stretch:normal;text-align:start;line-height:150%;letter-spacing:0px;word-spacing:0px;text-anchor:start;fill:#000000;fill-opacity:1;stroke:none;font-family:LMRoman12;-inkscape-font-specification:Sans"
       x="133.36095"
       y="739.5755"
       id="text7261"
       sodipodi:linespacing="150%"><tspan
         sodipodi:role="line"
         id="tspan7263"
         x="133.36095"
         y="739.5755">1010</tspan></text>
    <text
       sodipodi:linespacing="150%"
       id="text7271"
       y="754.70447"
       x="139.33975"
       style="font-size:12px;font-style:normal;font-variant:normal;font-weight:normal;font-stretch:normal;text-align:start;line-height:150%;letter-spacing:0px;word-spacing:0px;text-anchor:start;fill:#000000;fill-opacity:1;stroke:none;font-family:LMRoman12;-inkscape-font-specification:Sans"
       xml:space="preserve"><tspan
         y="754.70447"
         x="139.33975"
         id="tspan7273"
         sodipodi:role="line">505</tspan></text>
    <text
       xml:space="preserve"
       style="font-size:12px;font-style:normal;font-variant:normal;font-weight:normal;font-stretch:normal;text-align:start;line-height:150%;letter-spacing:0px;word-spacing:0px;text-anchor:start;fill:#000000;fill-opacity:1;stroke:none;font-family:LMRoman12;-inkscape-font-specification:Sans"
       x="139.33975"
       y="770.54987"
       id="text7279"
       sodipodi:linespacing="150%"><tspan
         sodipodi:role="line"
         id="tspan7281"
         x="139.33975"
         y="770.54987">252</tspan></text>
    <text
       sodipodi:linespacing="150%"
       id="text7287"
       y="785.35657"
       x="139.24376"
       style="font-size:12px;font-style:normal;font-variant:normal;font-weight:normal;font-stretch:normal;text-align:start;line-height:150%;letter-spacing:0px;word-spacing:0px;text-anchor:start;fill:#000000;fill-opacity:1;stroke:none;font-family:LMRoman12;-inkscape-font-specification:Sans"
       xml:space="preserve"><tspan
         y="785.35657"
         x="139.24376"
         id="tspan7289"
         sodipodi:role="line">126</tspan></text>
    <text
       xml:space="preserve"
       style="font-size:12px;font-style:normal;font-variant:normal;font-weight:normal;font-stretch:normal;text-align:start;line-height:150%;letter-spacing:0px;word-spacing:0px;text-anchor:start;fill:#000000;fill-opacity:1;stroke:none;font-family:LMRoman12;-inkscape-font-specification:Sans"
       x="145.12657"
       y="800.90515"
       id="text7295"
       sodipodi:linespacing="150%"><tspan
         sodipodi:role="line"
         id="tspan7297"
         x="145.12657"
         y="800.90515">63</tspan></text>
    <text
       sodipodi:linespacing="150%"
       id="text7303"
       y="815.86023"
       x="145.58257"
       style="font-size:12px;font-style:normal;font-variant:normal;font-weight:normal;font-stretch:normal;text-align:start;line-height:150%;letter-spacing:0px;word-spacing:0px;text-anchor:start;fill:#000000;fill-opacity:1;stroke:none;font-family:LMRoman12;-inkscape-font-specification:Sans"
       xml:space="preserve"><tspan
         y="815.86023"
         x="145.58257"
         id="tspan7305"
         sodipodi:role="line">31</tspan></text>
    <text
       xml:space="preserve"
       style="font-size:12px;font-style:normal;font-variant:normal;font-weight:normal;font-stretch:normal;text-align:start;line-height:150%;letter-spacing:0px;word-spacing:0px;text-anchor:start;fill:#000000;fill-opacity:1;stroke:none;font-family:LMRoman12;-inkscape-font-specification:Sans"
       x="145.22256"
       y="830.66693"
       id="text7311"
       sodipodi:linespacing="150%"><tspan
         sodipodi:role="line"
         x="145.22256"
         y="830.66693"
         id="tspan7333">15</tspan></text>
    <text
       sodipodi:linespacing="150%"
       id="text7319"
       y="845.32526"
       x="150.68538"
       style="font-size:12px;font-style:normal;font-variant:normal;font-weight:normal;font-stretch:normal;text-align:start;line-height:150%;letter-spacing:0px;word-spacing:0px;text-anchor:start;fill:#000000;fill-opacity:1;stroke:none;font-family:LMRoman12;-inkscape-font-specification:Sans"
       xml:space="preserve"><tspan
         y="845.32526"
         x="150.68538"
         id="tspan7321"
         sodipodi:role="line">7</tspan></text>
    <text
       xml:space="preserve"
       style="font-size:12px;font-style:normal;font-variant:normal;font-weight:normal;font-stretch:normal;text-align:start;line-height:150%;letter-spacing:0px;word-spacing:0px;text-anchor:start;fill:#000000;fill-opacity:1;stroke:none;font-family:LMRoman12;-inkscape-font-specification:Sans"
       x="151.00938"
       y="860.57709"
       id="text7327"
       sodipodi:linespacing="150%"><tspan
         sodipodi:role="line"
         id="tspan7329"
         x="151.00938"
         y="860.57709">3</tspan></text>
    <text
       sodipodi:linespacing="150%"
       id="text7337"
       y="874.62756"
       x="151.46538"
       style="font-size:12px;font-style:normal;font-variant:normal;font-weight:normal;font-stretch:normal;text-align:start;line-height:150%;letter-spacing:0px;word-spacing:0px;text-anchor:start;fill:#000000;fill-opacity:1;stroke:none;font-family:LMRoman12;-inkscape-font-specification:Sans"
       xml:space="preserve"><tspan
         y="874.62756"
         x="151.46538"
         id="tspan7339"
         sodipodi:role="line">1</tspan></text>
    <text
       xml:space="preserve"
       style="font-size:12px;font-style:normal;font-variant:normal;font-weight:normal;font-stretch:normal;text-align:start;line-height:150%;letter-spacing:0px;word-spacing:0px;text-anchor:start;fill:#000000;fill-opacity:1;stroke:none;font-family:LMRoman12;-inkscape-font-specification:Sans"
       x="116.5"
       y="42.330688"
       id="text7341"
       sodipodi:linespacing="150%"
       transform="translate(0,698.03016)"><tspan
         sodipodi:role="line"
         x="116.5"
         y="42.330688"
         id="tspan7349">2</tspan></text>
    <text
       sodipodi:linespacing="150%"
       id="text7357"
       y="753.45624"
       x="116.5"
       style="font-size:12px;font-style:normal;font-variant:normal;font-weight:normal;font-stretch:normal;text-align:start;line-height:150%;letter-spacing:0px;word-spacing:0px;text-anchor:start;fill:#000000;fill-opacity:1;stroke:none;font-family:LMRoman12;-inkscape-font-specification:Sans"
       xml:space="preserve"><tspan
         id="tspan7359"
         y="753.45624"
         x="116.5"
         sodipodi:role="line">2</tspan></text>
    <text
       xml:space="preserve"
       style="font-size:12px;font-style:normal;font-variant:normal;font-weight:normal;font-stretch:normal;text-align:start;line-height:150%;letter-spacing:0px;word-spacing:0px;text-anchor:start;fill:#000000;fill-opacity:1;stroke:none;font-family:LMRoman12;-inkscape-font-specification:Sans"
       x="116.5"
       y="769.55164"
       id="text7361"
       sodipodi:linespacing="150%"><tspan
         sodipodi:role="line"
         x="116.5"
         y="769.55164"
         id="tspan7363">2</tspan></text>
    <text
       sodipodi:linespacing="150%"
       id="text7365"
       y="784.48334"
       x="116.5"
       style="font-size:12px;font-style:normal;font-variant:normal;font-weight:normal;font-stretch:normal;text-align:start;line-height:150%;letter-spacing:0px;word-spacing:0px;text-anchor:start;fill:#000000;fill-opacity:1;stroke:none;font-family:LMRoman12;-inkscape-font-specification:Sans"
       xml:space="preserve"><tspan
         id="tspan7367"
         y="784.48334"
         x="116.5"
         sodipodi:role="line">2</tspan></text>
    <text
       xml:space="preserve"
       style="font-size:12px;font-style:normal;font-variant:normal;font-weight:normal;font-stretch:normal;text-align:start;line-height:150%;letter-spacing:0px;word-spacing:0px;text-anchor:start;fill:#000000;fill-opacity:1;stroke:none;font-family:LMRoman12;-inkscape-font-specification:Sans"
       x="116.5"
       y="799.90692"
       id="text7369"
       sodipodi:linespacing="150%"><tspan
         sodipodi:role="line"
         x="116.5"
         y="799.90692"
         id="tspan7371">2</tspan></text>
    <text
       sodipodi:linespacing="150%"
       id="text7373"
       y="815.612"
       x="116.5"
       style="font-size:12px;font-style:normal;font-variant:normal;font-weight:normal;font-stretch:normal;text-align:start;line-height:150%;letter-spacing:0px;word-spacing:0px;text-anchor:start;fill:#000000;fill-opacity:1;stroke:none;font-family:LMRoman12;-inkscape-font-specification:Sans"
       xml:space="preserve"><tspan
         id="tspan7375"
         y="815.612"
         x="116.5"
         sodipodi:role="line">2</tspan></text>
    <text
       xml:space="preserve"
       style="font-size:12px;font-style:normal;font-variant:normal;font-weight:normal;font-stretch:normal;text-align:start;line-height:150%;letter-spacing:0px;word-spacing:0px;text-anchor:start;fill:#000000;fill-opacity:1;stroke:none;font-family:LMRoman12;-inkscape-font-specification:Sans"
       x="116.5"
       y="829.5437"
       id="text7377"
       sodipodi:linespacing="150%"><tspan
         sodipodi:role="line"
         x="116.5"
         y="829.5437"
         id="tspan7379">2</tspan></text>
    <text
       sodipodi:linespacing="150%"
       id="text7381"
       y="845.20203"
       x="116.5"
       style="font-size:12px;font-style:normal;font-variant:normal;font-weight:normal;font-stretch:normal;text-align:start;line-height:150%;letter-spacing:0px;word-spacing:0px;text-anchor:start;fill:#000000;fill-opacity:1;stroke:none;font-family:LMRoman12;-inkscape-font-specification:Sans"
       xml:space="preserve"><tspan
         id="tspan7383"
         y="845.20203"
         x="116.5"
         sodipodi:role="line">2</tspan></text>
    <text
       xml:space="preserve"
       style="font-size:12px;font-style:normal;font-variant:normal;font-weight:normal;font-stretch:normal;text-align:start;line-height:150%;letter-spacing:0px;word-spacing:0px;text-anchor:start;fill:#000000;fill-opacity:1;stroke:none;font-family:LMRoman12;-inkscape-font-specification:Sans"
       x="116.5"
       y="859.57886"
       id="text7385"
       sodipodi:linespacing="150%"><tspan
         sodipodi:role="line"
         x="116.5"
         y="859.57886"
         id="tspan7387">2</tspan></text>
    <text
       xml:space="preserve"
       style="font-size:12px;font-style:normal;font-variant:normal;font-weight:normal;font-stretch:normal;text-align:start;line-height:150%;letter-spacing:0px;word-spacing:0px;text-anchor:start;fill:#000000;fill-opacity:1;stroke:none;font-family:LMRoman12;-inkscape-font-specification:Sans"
       x="173"
       y="61.080688"
       id="text7389"
       sodipodi:linespacing="150%"
       transform="translate(0,698.03016)"><tspan
         sodipodi:role="line"
         id="tspan7391"
         x="173"
         y="61.080688" /></text>
    <path
       style="fill:none;stroke:#000000;stroke-width:0.60000002;stroke-linecap:square;stroke-linejoin:round;stroke-miterlimit:4;stroke-opacity:1;stroke-dasharray:none;stroke-dashoffset:0;marker-mid:none"
       d="m 167.5,750.95622 8.5,0"
       id="path7393"
       inkscape:connector-curvature="0" />
    <path
       inkscape:connector-curvature="0"
       id="path7763"
       d="m 167.5,766.42659 8.5,0"
       style="fill:none;stroke:#000000;stroke-width:0.60000002;stroke-linecap:square;stroke-linejoin:round;stroke-miterlimit:4;stroke-opacity:1;stroke-dasharray:none;stroke-dashoffset:0;marker-mid:none" />
    <path
       inkscape:connector-curvature="0"
       id="path7765"
       d="m 167.5,781.3583 8.5,0"
       style="fill:none;stroke:#000000;stroke-width:0.60000002;stroke-linecap:square;stroke-linejoin:round;stroke-miterlimit:4;stroke-opacity:1;stroke-dasharray:none;stroke-dashoffset:0;marker-mid:none" />
    <path
       style="fill:none;stroke:#000000;stroke-width:0.60000002;stroke-linecap:square;stroke-linejoin:round;stroke-miterlimit:4;stroke-opacity:1;stroke-dasharray:none;stroke-dashoffset:0;marker-mid:none"
       d="m 167.5,796.53191 8.5,0"
       id="path7767"
       inkscape:connector-curvature="0" />
    <path
       style="fill:none;stroke:#000000;stroke-width:0.60000002;stroke-linecap:square;stroke-linejoin:round;stroke-miterlimit:4;stroke-opacity:1;stroke-dasharray:none;stroke-dashoffset:0;marker-mid:none"
       d="m 167.5,811.737 8.5,0"
       id="path7769"
       inkscape:connector-curvature="0" />
    <path
       inkscape:connector-curvature="0"
       id="path7771"
       d="m 167.5,826.16871 8.5,0"
       style="fill:none;stroke:#000000;stroke-width:0.60000002;stroke-linecap:square;stroke-linejoin:round;stroke-miterlimit:4;stroke-opacity:1;stroke-dasharray:none;stroke-dashoffset:0;marker-mid:none" />
    <path
       inkscape:connector-curvature="0"
       id="path7773"
       d="m 167.5,840.82704 8.5,0"
       style="fill:none;stroke:#000000;stroke-width:0.60000002;stroke-linecap:square;stroke-linejoin:round;stroke-miterlimit:4;stroke-opacity:1;stroke-dasharray:none;stroke-dashoffset:0;marker-mid:none" />
    <path
       style="fill:none;stroke:#000000;stroke-width:0.60000002;stroke-linecap:square;stroke-linejoin:round;stroke-miterlimit:4;stroke-opacity:1;stroke-dasharray:none;stroke-dashoffset:0;marker-mid:none"
       d="m 167.5,855.70389 8.5,0"
       id="path7775"
       inkscape:connector-curvature="0" />
    <text
       xml:space="preserve"
       style="font-size:12px;font-style:normal;font-variant:normal;font-weight:normal;font-stretch:normal;text-align:start;line-height:150%;letter-spacing:0px;word-spacing:0px;text-anchor:start;fill:#000000;fill-opacity:1;stroke:none;font-family:LMRoman12;-inkscape-font-specification:Sans"
       x="188.62489"
       y="753.45624"
       id="text7777"
       sodipodi:linespacing="150%"><tspan
         sodipodi:role="line"
         x="188.62489"
         y="753.45624"
         id="tspan7779">1</tspan></text>
    <text
       sodipodi:linespacing="150%"
       id="text7781"
       y="769.55164"
       x="188.62489"
       style="font-size:12px;font-style:normal;font-variant:normal;font-weight:normal;font-stretch:normal;text-align:start;line-height:150%;letter-spacing:0px;word-spacing:0px;text-anchor:start;fill:#000000;fill-opacity:1;stroke:none;font-family:LMRoman12;-inkscape-font-specification:Sans"
       xml:space="preserve"><tspan
         id="tspan7783"
         y="769.55164"
         x="188.62489"
         sodipodi:role="line">0</tspan></text>
    <text
       xml:space="preserve"
       style="font-size:12px;font-style:normal;font-variant:normal;font-weight:normal;font-stretch:normal;text-align:start;line-height:150%;letter-spacing:0px;word-spacing:0px;text-anchor:start;fill:#000000;fill-opacity:1;stroke:none;font-family:LMRoman12;-inkscape-font-specification:Sans"
       x="188.62489"
       y="784.48334"
       id="text7785"
       sodipodi:linespacing="150%"><tspan
         sodipodi:role="line"
         x="188.62489"
         y="784.48334"
         id="tspan7787">0</tspan></text>
    <text
       sodipodi:linespacing="150%"
       id="text7789"
       y="799.90692"
       x="188.62489"
       style="font-size:12px;font-style:normal;font-variant:normal;font-weight:normal;font-stretch:normal;text-align:start;line-height:150%;letter-spacing:0px;word-spacing:0px;text-anchor:start;fill:#000000;fill-opacity:1;stroke:none;font-family:LMRoman12;-inkscape-font-specification:Sans"
       xml:space="preserve"><tspan
         id="tspan7791"
         y="799.90692"
         x="188.62489"
         sodipodi:role="line">1</tspan></text>
    <text
       xml:space="preserve"
       style="font-size:12px;font-style:normal;font-variant:normal;font-weight:normal;font-stretch:normal;text-align:start;line-height:150%;letter-spacing:0px;word-spacing:0px;text-anchor:start;fill:#000000;fill-opacity:1;stroke:none;font-family:LMRoman12;-inkscape-font-specification:Sans"
       x="188.62489"
       y="815.612"
       id="text7793"
       sodipodi:linespacing="150%"><tspan
         sodipodi:role="line"
         x="188.62489"
         y="815.612"
         id="tspan7795">1</tspan></text>
    <text
       sodipodi:linespacing="150%"
       id="text7797"
       y="829.5437"
       x="188.62489"
       style="font-size:12px;font-style:normal;font-variant:normal;font-weight:normal;font-stretch:normal;text-align:start;line-height:150%;letter-spacing:0px;word-spacing:0px;text-anchor:start;fill:#000000;fill-opacity:1;stroke:none;font-family:LMRoman12;-inkscape-font-specification:Sans"
       xml:space="preserve"><tspan
         id="tspan7799"
         y="829.5437"
         x="188.62489"
         sodipodi:role="line">1</tspan></text>
    <text
       xml:space="preserve"
       style="font-size:12px;font-style:normal;font-variant:normal;font-weight:normal;font-stretch:normal;text-align:start;line-height:150%;letter-spacing:0px;word-spacing:0px;text-anchor:start;fill:#000000;fill-opacity:1;stroke:none;font-family:LMRoman12;-inkscape-font-specification:Sans"
       x="188.62489"
       y="845.20203"
       id="text7801"
       sodipodi:linespacing="150%"><tspan
         sodipodi:role="line"
         x="188.62489"
         y="845.20203"
         id="tspan7803">0</tspan></text>
    <text
       sodipodi:linespacing="150%"
       id="text7805"
       y="859.57886"
       x="188.62489"
       style="font-size:12px;font-style:normal;font-variant:normal;font-weight:normal;font-stretch:normal;text-align:start;line-height:150%;letter-spacing:0px;word-spacing:0px;text-anchor:start;fill:#000000;fill-opacity:1;stroke:none;font-family:LMRoman12;-inkscape-font-specification:Sans"
       xml:space="preserve"><tspan
         id="tspan7807"
         y="859.57886"
         x="188.62489"
         sodipodi:role="line">0</tspan></text>
    <text
       xml:space="preserve"
       style="font-size:12px;font-style:normal;font-variant:normal;font-weight:normal;font-stretch:normal;text-align:start;line-height:150%;letter-spacing:0px;word-spacing:0px;text-anchor:start;fill:#000000;fill-opacity:1;stroke:none;font-family:LMRoman12;-inkscape-font-specification:Sans"
       x="188.62489"
       y="873.9682"
       id="text7809"
       sodipodi:linespacing="150%"><tspan
         sodipodi:role="line"
         x="188.62489"
         y="873.9682"
         id="tspan7811">0</tspan></text>
    <text
       xml:space="preserve"
       style="font-size:12px;font-style:normal;font-variant:normal;font-weight:normal;font-stretch:normal;text-align:start;line-height:150%;letter-spacing:0px;word-spacing:0px;text-anchor:start;fill:#000000;fill-opacity:1;stroke:none;font-family:LMRoman12;-inkscape-font-specification:Sans"
       x="173.07074"
       y="739.27783"
       id="text7815"
       sodipodi:linespacing="150%"><tspan
         sodipodi:role="line"
         id="tspan7817"
         x="173.07074"
         y="739.27783">Remainder</tspan></text>
    <path
       sodipodi:nodetypes="ccc"
       inkscape:connector-curvature="0"
       id="path9265"
       d="m 130,746.13798 0,11.22287 29.50797,0"
       style="fill:none;stroke:#000000;stroke-width:1;stroke-linecap:square;stroke-linejoin:round;stroke-miterlimit:4;stroke-opacity:1;stroke-dasharray:none;stroke-dashoffset:0" />
    <path
       style="fill:none;stroke:#000000;stroke-width:1;stroke-linecap:square;stroke-linejoin:round;stroke-miterlimit:4;stroke-opacity:1;stroke-dasharray:none;stroke-dashoffset:0"
       d="m 130,761.13798 0,11.22287 29.50797,0"
       id="path9267"
       inkscape:connector-curvature="0"
       sodipodi:nodetypes="ccc" />
    <path
       sodipodi:nodetypes="ccc"
       inkscape:connector-curvature="0"
       id="path9269"
       d="m 130,776.13798 0,11.22287 29.50797,0"
       style="fill:none;stroke:#000000;stroke-width:1;stroke-linecap:square;stroke-linejoin:round;stroke-miterlimit:4;stroke-opacity:1;stroke-dasharray:none;stroke-dashoffset:0" />
    <path
       style="fill:none;stroke:#000000;stroke-width:1;stroke-linecap:square;stroke-linejoin:round;stroke-miterlimit:4;stroke-opacity:1;stroke-dasharray:none;stroke-dashoffset:0"
       d="m 130,791.13798 0,11.22287 29.50797,0"
       id="path9271"
       inkscape:connector-curvature="0"
       sodipodi:nodetypes="ccc" />
    <path
       sodipodi:nodetypes="ccc"
       inkscape:connector-curvature="0"
       id="path9273"
       d="m 130,806.13798 0,11.22287 29.50797,0"
       style="fill:none;stroke:#000000;stroke-width:1;stroke-linecap:square;stroke-linejoin:round;stroke-miterlimit:4;stroke-opacity:1;stroke-dasharray:none;stroke-dashoffset:0" />
    <path
       style="fill:none;stroke:#000000;stroke-width:1;stroke-linecap:square;stroke-linejoin:round;stroke-miterlimit:4;stroke-opacity:1;stroke-dasharray:none;stroke-dashoffset:0"
       d="m 130,821.13798 0,11.22287 29.50797,0"
       id="path9275"
       inkscape:connector-curvature="0"
       sodipodi:nodetypes="ccc" />
    <path
       sodipodi:nodetypes="ccc"
       inkscape:connector-curvature="0"
       id="path9277"
       d="m 130,836.13798 0,11.22287 29.50797,0"
       style="fill:none;stroke:#000000;stroke-width:1;stroke-linecap:square;stroke-linejoin:round;stroke-miterlimit:4;stroke-opacity:1;stroke-dasharray:none;stroke-dashoffset:0" />
    <path
       style="fill:none;stroke:#000000;stroke-width:1;stroke-linecap:square;stroke-linejoin:round;stroke-miterlimit:4;stroke-opacity:1;stroke-dasharray:none;stroke-dashoffset:0"
       d="m 130,851.13798 0,11.22287 29.50797,0"
       id="path9279"
       inkscape:connector-curvature="0"
       sodipodi:nodetypes="ccc" />
    <path
       sodipodi:nodetypes="ccc"
       inkscape:connector-curvature="0"
       id="path9281"
       d="m 130,866.13798 0,11.22287 29.50797,0"
       style="fill:none;stroke:#000000;stroke-width:1;stroke-linecap:square;stroke-linejoin:round;stroke-miterlimit:4;stroke-opacity:1;stroke-dasharray:none;stroke-dashoffset:0" />
    <text
       sodipodi:linespacing="150%"
       id="text9295"
       y="874.12006"
       x="116.5"
       style="font-size:12px;font-style:normal;font-variant:normal;font-weight:normal;font-stretch:normal;text-align:start;line-height:150%;letter-spacing:0px;word-spacing:0px;text-anchor:start;fill:#000000;fill-opacity:1;stroke:none;font-family:LMRoman12;-inkscape-font-specification:Sans"
       xml:space="preserve"><tspan
         id="tspan9297"
         y="874.12006"
         x="116.5"
         sodipodi:role="line">2</tspan></text>
    <path
       inkscape:connector-curvature="0"
       id="path9299"
       d="m 167.5,870.2451 8.5,0"
       style="fill:none;stroke:#000000;stroke-width:0.60000002;stroke-linecap:square;stroke-linejoin:round;stroke-miterlimit:4;stroke-opacity:1;stroke-dasharray:none;stroke-dashoffset:0;marker-mid:none" />
    <text
       sodipodi:linespacing="150%"
       id="text9750"
       y="892.47107"
       x="149.56671"
       style="font-size:12px;font-style:normal;font-variant:normal;font-weight:normal;font-stretch:normal;text-align:start;line-height:150%;letter-spacing:0px;word-spacing:0px;text-anchor:start;fill:#000000;fill-opacity:1;stroke:none;font-family:LMRoman12;-inkscape-font-specification:Sans"
       xml:space="preserve"><tspan
         y="892.47107"
         x="149.56671"
         id="tspan9752"
         sodipodi:role="line">0</tspan></text>
    <text
       xml:space="preserve"
       style="font-size:12px;font-style:normal;font-variant:normal;font-weight:normal;font-stretch:normal;text-align:start;line-height:150%;letter-spacing:0px;word-spacing:0px;text-anchor:start;fill:#000000;fill-opacity:1;stroke:none;font-family:LMRoman12;-inkscape-font-specification:Sans"
       x="188.62489"
       y="891.83081"
       id="text9760"
       sodipodi:linespacing="150%"><tspan
         sodipodi:role="line"
         x="188.62489"
         y="891.83081"
         id="tspan9762">1</tspan></text>
    <path
       style="fill:none;stroke:#000000;stroke-width:0.60000002;stroke-linecap:square;stroke-linejoin:round;stroke-miterlimit:4;stroke-opacity:1;stroke-dasharray:none;stroke-dashoffset:0;marker-mid:none"
       d="m 167.5,889.42574 8.5,0"
       id="path9764"
       inkscape:connector-curvature="0" />
    <g
       style="font-style:normal;font-variant:normal;font-weight:normal;font-stretch:normal;letter-spacing:normal;word-spacing:normal;text-anchor:start;fill:none;stroke:#000000;stroke-width:1;stroke-linecap:butt;stroke-linejoin:miter;stroke-miterlimit:10.43299961;stroke-opacity:1;stroke-dasharray:none;stroke-dashoffset:0"
       ns0:preamble="/home/sriranga/Desktop/Prism_BasicElectronics/preamble.tex"
       ns0:text="$(1010)_{10}= (1~1~1~1~1~1~0~0~1~0)_2$"
       text-anchor="start"
       word-spacing="normal"
       letter-spacing="normal"
       font-size-adjust="none"
       font-stretch="normal"
       font-weight="normal"
       font-variant="normal"
       font-style="normal"
       fill-opacity="1"
       fill-rule="evenodd"
       fill="none"
       stroke-opacity="1"
       stroke-dashoffset="0"
       stroke-dasharray="none"
       stroke-miterlimit="10.433"
       stroke-linejoin="miter"
       stroke-linecap="butt"
       stroke="black"
       xml:space="preserve"
       transform="matrix(1.2,0,0,-1.2,-33.833828,1643.7254)"
       id="g10694"><path
         id="path10696"
         fill="black"
         stroke-width="0"
         d="M226.37,713.84 L226.3,713.8 L226.23,713.75 L226.17,713.71 L226.11,713.67 L226.05,713.63 L226,713.59 L225.94,713.55 L225.89,713.52 L225.84,713.48 L225.79,713.44 L225.74,713.41 L225.7,713.37 L225.65,713.34 L225.61,713.3 L225.53,713.24 L225.45,713.17 L225.38,713.1 L225.3,713.03 L225.23,712.96 L225.17,712.89 L225.1,712.81 L225.03,712.73 L224.96,712.65 C224.26,711.78,223.91,710.79,223.91,709.63 C223.91,708.37,224.28,707.39,225.15,706.38 C225.56,705.9,225.82,705.68,226.34,705.37 L226.46,705.53 C225.66,706.15,225.38,706.5,225.11,707.24 C224.88,707.91,224.76,708.66,224.76,709.66 C224.76,710.7,224.9,711.52,225.16,712.13 C225.44,712.75,225.74,713.1,226.46,713.68 Z " /><path
         id="path10698"
         fill="black"
         stroke-width="0"
         d="M229.65,713.84 L227.85,712.94 V712.8 C227.97,712.85,228.08,712.89,228.12,712.91 C228.3,712.98,228.47,713.02,228.57,713.02 C228.78,713.02,228.87,712.87,228.87,712.55 V708.05 C228.87,707.72,228.79,707.49,228.63,707.4 C228.48,707.31,228.34,707.28,227.92,707.27 V707.12 H230.67 V707.27 C229.88,707.28,229.72,707.38,229.72,707.86 V713.82 Z " /><path
         id="path10700"
         fill="black"
         stroke-width="0"
         d="M234.26,713.84 L234.21,713.84 L234.16,713.84 L234.11,713.84 L234.06,713.83 L234.01,713.83 L233.96,713.82 L233.92,713.82 L233.87,713.81 L233.83,713.8 L233.78,713.79 L233.74,713.78 L233.69,713.77 L233.65,713.76 L233.61,713.74 L233.57,713.73 L233.52,713.71 L233.48,713.7 L233.44,713.68 L233.4,713.66 L233.36,713.64 L233.33,713.62 L233.29,713.6 L233.25,713.57 L233.21,713.55 L233.17,713.53 L233.14,713.5 L233.1,713.47 L233.07,713.45 L233.03,713.42 L232.99,713.39 L232.96,713.36 L232.93,713.32 C232.35,712.77,231.97,711.62,231.97,710.46 C231.97,709.38,232.3,708.22,232.77,707.66 C233.13,707.22,233.64,706.99,234.22,706.99 V707.24 C233.36,707.24,232.93,708.31,232.93,710.37 C232.93,712.48,233.37,713.58,234.23,713.58 H234.23 C235.06,713.58,235.51,712.46,235.51,710.38 C235.51,708.31,235.07,707.24,234.22,707.24 V706.99 C234.73,706.99,235.15,707.16,235.51,707.5 C236.09,708.05,236.47,709.2,236.47,710.4 C236.47,712.44,235.56,713.84,234.26,713.84 Z " /><path
         id="path10702"
         fill="black"
         stroke-width="0"
         d="M239.61,713.84 L237.82,712.94 V712.8 C237.94,712.85,238.04,712.89,238.09,712.91 C238.26,712.98,238.43,713.02,238.53,713.02 C238.74,713.02,238.83,712.87,238.83,712.55 V708.05 C238.83,707.72,238.75,707.49,238.59,707.4 C238.44,707.31,238.3,707.28,237.89,707.27 V707.12 H240.63 V707.27 C239.85,707.28,239.69,707.38,239.69,707.86 V713.82 Z " /><path
         id="path10704"
         fill="black"
         stroke-width="0"
         d="M244.22,713.84 L244.17,713.84 L244.12,713.84 L244.07,713.84 L244.02,713.83 L243.97,713.83 L243.93,713.82 L243.88,713.82 L243.83,713.81 L243.79,713.8 L243.74,713.79 L243.7,713.78 L243.66,713.77 L243.61,713.76 L243.57,713.74 L243.53,713.73 L243.49,713.71 L243.45,713.7 L243.41,713.68 L243.37,713.66 L243.33,713.64 L243.29,713.62 L243.25,713.6 L243.21,713.57 L243.17,713.55 L243.14,713.53 L243.1,713.5 L243.06,713.47 L243.03,713.45 L242.99,713.42 L242.96,713.39 L242.92,713.36 L242.89,713.32 C242.31,712.77,241.93,711.62,241.93,710.46 C241.93,709.38,242.26,708.22,242.73,707.66 C243.1,707.22,243.6,706.99,244.18,706.99 V707.24 C243.32,707.24,242.89,708.31,242.89,710.37 C242.89,712.48,243.34,713.58,244.19,713.58 H244.19 C245.03,713.58,245.47,712.46,245.47,710.38 C245.47,708.31,245.04,707.24,244.18,707.24 V706.99 C244.69,706.99,245.12,707.16,245.47,707.5 C246.05,708.05,246.43,709.2,246.43,710.4 C246.43,712.44,245.52,713.84,244.22,713.84 Z " /><path
         id="path10706"
         fill="black"
         stroke-width="0"
         d="M247.05,705.37 L247.12,705.41 L247.19,705.45 L247.25,705.5 L247.31,705.54 L247.37,705.58 L247.42,705.61 L247.48,705.65 L247.53,705.69 L247.58,705.73 L247.63,705.76 L247.68,705.8 L247.72,705.83 L247.77,705.87 L247.81,705.9 L247.89,705.97 L247.97,706.04 L248.04,706.11 L248.12,706.18 L248.18,706.25 L248.25,706.32 L248.32,706.4 L248.39,706.48 L248.46,706.56 C249.16,707.42,249.51,708.42,249.51,709.58 C249.51,710.85,249.14,711.81,248.27,712.83 C247.86,713.3,247.6,713.52,247.08,713.84 L246.96,713.68 C247.76,713.05,248.03,712.71,248.31,711.96 C248.54,711.3,248.65,710.54,248.65,709.55 C248.65,708.52,248.52,707.69,248.26,707.09 C247.98,706.46,247.68,706.1,246.96,705.53 Z " /><path
         id="path10708"
         fill="black"
         stroke-width="0"
         d="M252.02,710.33 L250.77,709.7 V709.6 C250.85,709.64,250.93,709.66,250.95,709.68 C251.08,709.73,251.2,709.76,251.27,709.76 C251.41,709.76,251.48,709.65,251.48,709.43 V706.28 C251.48,706.05,251.42,705.89,251.31,705.83 C251.21,705.76,251.11,705.74,250.82,705.73 V705.63 H252.74 V705.73 C252.19,705.74,252.07,705.81,252.07,706.15 V710.32 Z " /><path
         id="path10710"
         fill="black"
         stroke-width="0"
         d="M255.25,710.33 L255.21,710.33 L255.18,710.33 L255.14,710.33 L255.11,710.33 L255.08,710.32 L255.04,710.32 L255.01,710.31 L254.98,710.31 L254.95,710.3 L254.91,710.3 L254.88,710.29 L254.85,710.28 L254.82,710.27 L254.79,710.26 L254.76,710.25 L254.74,710.24 L254.71,710.23 L254.68,710.22 L254.65,710.21 L254.62,710.19 L254.6,710.18 L254.57,710.16 L254.54,710.15 L254.52,710.13 L254.49,710.11 L254.46,710.09 L254.44,710.07 L254.41,710.06 L254.39,710.04 L254.36,710.01 L254.34,709.99 L254.32,709.97 C253.91,709.58,253.65,708.78,253.65,707.97 C253.65,707.21,253.88,706.4,254.2,706.01 C254.46,705.7,254.82,705.53,255.22,705.53 V705.71 C254.62,705.71,254.32,706.46,254.32,707.91 C254.32,709.38,254.63,710.15,255.23,710.15 H255.23 C255.81,710.15,256.13,709.36,256.13,707.91 C256.13,706.46,255.82,705.71,255.22,705.71 V705.53 C255.58,705.53,255.88,705.65,256.13,705.9 C256.53,706.28,256.8,707.08,256.8,707.93 C256.8,709.35,256.16,710.33,255.25,710.33 Z " /><polygon
         id="polygon10712"
         fill="black"
         stroke-width="0"
         points="265.94,710.4 265.94,710.96 260.85,710.96 260.85,710.4 " /><polygon
         id="polygon10714"
         fill="black"
         stroke-width="0"
         points="265.94,708.39 265.94,708.94 260.85,708.94 260.85,708.39 " /><path
         id="path10716"
         fill="black"
         stroke-width="0"
         d="M272.27,713.84 L272.2,713.8 L272.14,713.75 L272.07,713.71 L272.01,713.67 L271.96,713.63 L271.9,713.59 L271.84,713.55 L271.79,713.52 L271.74,713.48 L271.69,713.44 L271.65,713.41 L271.6,713.37 L271.56,713.34 L271.51,713.3 L271.43,713.24 L271.35,713.17 L271.28,713.1 L271.21,713.03 L271.14,712.96 L271.07,712.89 L271,712.81 L270.94,712.73 L270.87,712.65 C270.16,711.78,269.81,710.79,269.81,709.63 C269.81,708.37,270.18,707.39,271.06,706.38 C271.46,705.9,271.72,705.68,272.24,705.37 L272.36,705.53 C271.56,706.15,271.29,706.5,271.02,707.24 C270.78,707.91,270.67,708.66,270.67,709.66 C270.67,710.7,270.8,711.52,271.07,712.13 C271.35,712.75,271.64,713.1,272.36,713.68 Z " /><path
         id="path10718"
         fill="black"
         stroke-width="0"
         d="M275.55,713.84 L273.76,712.94 V712.8 C273.88,712.85,273.99,712.89,274.03,712.91 C274.2,712.98,274.37,713.02,274.47,713.02 C274.68,713.02,274.77,712.87,274.77,712.55 V708.05 C274.77,707.72,274.69,707.49,274.53,707.4 C274.38,707.31,274.24,707.28,273.83,707.27 V707.12 H276.57 V707.27 C275.79,707.28,275.63,707.38,275.63,707.86 V713.82 Z " /><path
         id="path10720"
         fill="black"
         stroke-width="0"
         d="M283.02,713.84 L281.23,712.94 V712.8 C281.35,712.85,281.46,712.89,281.5,712.91 C281.68,712.98,281.85,713.02,281.95,713.02 C282.15,713.02,282.24,712.87,282.24,712.55 V708.05 C282.24,707.72,282.16,707.49,282.01,707.4 C281.86,707.31,281.72,707.28,281.3,707.27 V707.12 H284.05 V707.27 C283.26,707.28,283.1,707.38,283.1,707.86 V713.82 Z " /><path
         id="path10722"
         fill="black"
         stroke-width="0"
         d="M290.49,713.84 L288.7,712.94 V712.8 C288.82,712.85,288.93,712.89,288.97,712.91 C289.15,712.98,289.32,713.02,289.42,713.02 C289.63,713.02,289.72,712.87,289.72,712.55 V708.05 C289.72,707.72,289.64,707.49,289.48,707.4 C289.33,707.31,289.19,707.28,288.77,707.27 V707.12 H291.52 V707.27 C290.73,707.28,290.57,707.38,290.57,707.86 V713.82 Z " /><path
         id="path10724"
         fill="black"
         stroke-width="0"
         d="M297.96,713.84 L296.17,712.94 V712.8 C296.29,712.85,296.4,712.89,296.44,712.91 C296.62,712.98,296.79,713.02,296.89,713.02 C297.1,713.02,297.19,712.87,297.19,712.55 V708.05 C297.19,707.72,297.11,707.49,296.95,707.4 C296.8,707.31,296.66,707.28,296.24,707.27 V707.12 H298.99 V707.27 C298.2,707.28,298.04,707.38,298.04,707.86 V713.82 Z " /><path
         id="path10726"
         fill="black"
         stroke-width="0"
         d="M305.44,713.84 L303.64,712.94 V712.8 C303.76,712.85,303.87,712.89,303.91,712.91 C304.09,712.98,304.26,713.02,304.36,713.02 C304.57,713.02,304.66,712.87,304.66,712.55 V708.05 C304.66,707.72,304.58,707.49,304.42,707.4 C304.27,707.31,304.13,707.28,303.71,707.27 V707.12 H306.46 V707.27 C305.67,707.28,305.52,707.38,305.52,707.86 V713.82 Z " /><path
         id="path10728"
         fill="black"
         stroke-width="0"
         d="M312.91,713.84 L311.12,712.94 V712.8 C311.24,712.85,311.35,712.89,311.39,712.91 C311.56,712.98,311.73,713.02,311.83,713.02 C312.04,713.02,312.13,712.87,312.13,712.55 V708.05 C312.13,707.72,312.05,707.49,311.89,707.4 C311.74,707.31,311.6,707.28,311.19,707.27 V707.12 H313.93 V707.27 C313.15,707.28,312.99,707.38,312.99,707.86 V713.82 Z " /><path
         id="path10730"
         fill="black"
         stroke-width="0"
         d="M320.01,713.84 L319.96,713.84 L319.91,713.84 L319.86,713.84 L319.81,713.83 L319.76,713.83 L319.72,713.82 L319.67,713.82 L319.62,713.81 L319.58,713.8 L319.53,713.79 L319.49,713.78 L319.45,713.77 L319.4,713.76 L319.36,713.74 L319.32,713.73 L319.28,713.71 L319.24,713.7 L319.2,713.68 L319.16,713.66 L319.12,713.64 L319.08,713.62 L319.04,713.6 L319,713.57 L318.96,713.55 L318.93,713.53 L318.89,713.5 L318.85,713.47 L318.82,713.45 L318.78,713.42 L318.75,713.39 L318.71,713.36 L318.68,713.32 C318.1,712.77,317.72,711.62,317.72,710.46 C317.72,709.38,318.05,708.22,318.52,707.66 C318.89,707.22,319.39,706.99,319.97,706.99 V707.24 C319.12,707.24,318.68,708.31,318.68,710.37 C318.68,712.48,319.13,713.58,319.98,713.58 H319.98 C320.82,713.58,321.27,712.46,321.27,710.38 C321.27,708.31,320.83,707.24,319.97,707.24 V706.99 C320.48,706.99,320.91,707.16,321.27,707.5 C321.84,708.05,322.22,709.2,322.22,710.4 C322.22,712.44,321.32,713.84,320.01,713.84 Z " /><path
         id="path10732"
         fill="black"
         stroke-width="0"
         d="M327.48,713.84 L327.43,713.84 L327.38,713.84 L327.33,713.84 L327.28,713.83 L327.24,713.83 L327.19,713.82 L327.14,713.82 L327.1,713.81 L327.05,713.8 L327.01,713.79 L326.96,713.78 L326.92,713.77 L326.87,713.76 L326.83,713.74 L326.79,713.73 L326.75,713.71 L326.71,713.7 L326.67,713.68 L326.63,713.66 L326.59,713.64 L326.55,713.62 L326.51,713.6 L326.47,713.57 L326.44,713.55 L326.4,713.53 L326.36,713.5 L326.33,713.47 L326.29,713.45 L326.25,713.42 L326.22,713.39 L326.18,713.36 L326.15,713.32 C325.57,712.77,325.2,711.62,325.2,710.46 C325.2,709.38,325.52,708.22,325.99,707.66 C326.36,707.22,326.87,706.99,327.44,706.99 V707.24 C326.59,707.24,326.15,708.31,326.15,710.37 C326.15,712.48,326.6,713.58,327.45,713.58 H327.45 C328.29,713.58,328.74,712.46,328.74,710.38 C328.74,708.31,328.3,707.24,327.44,707.24 V706.99 C327.95,706.99,328.38,707.16,328.74,707.5 C329.31,708.05,329.69,709.2,329.69,710.4 C329.69,712.44,328.79,713.84,327.48,713.84 Z " /><path
         id="path10734"
         fill="black"
         stroke-width="0"
         d="M335.32,713.84 L333.53,712.94 V712.8 C333.65,712.85,333.76,712.89,333.8,712.91 C333.98,712.98,334.15,713.02,334.25,713.02 C334.46,713.02,334.55,712.87,334.55,712.55 V708.05 C334.55,707.72,334.47,707.49,334.31,707.4 C334.16,707.31,334.02,707.28,333.6,707.27 V707.12 H336.35 V707.27 C335.56,707.28,335.4,707.38,335.4,707.86 V713.82 Z " /><path
         id="path10736"
         fill="black"
         stroke-width="0"
         d="M342.43,713.84 L342.38,713.84 L342.33,713.84 L342.28,713.84 L342.23,713.83 L342.18,713.83 L342.13,713.82 L342.09,713.82 L342.04,713.81 L341.99,713.8 L341.95,713.79 L341.91,713.78 L341.86,713.77 L341.82,713.76 L341.78,713.74 L341.73,713.73 L341.69,713.71 L341.65,713.7 L341.61,713.68 L341.57,713.66 L341.53,713.64 L341.49,713.62 L341.46,713.6 L341.42,713.57 L341.38,713.55 L341.34,713.53 L341.31,713.5 L341.27,713.47 L341.23,713.45 L341.2,713.42 L341.16,713.39 L341.13,713.36 L341.09,713.32 C340.52,712.77,340.14,711.62,340.14,710.46 C340.14,709.38,340.47,708.22,340.93,707.66 C341.3,707.22,341.81,706.99,342.39,706.99 V707.24 C341.53,707.24,341.09,708.31,341.09,710.37 C341.09,712.48,341.54,713.58,342.4,713.58 H342.4 C343.23,713.58,343.68,712.46,343.68,710.38 C343.68,708.31,343.24,707.24,342.39,707.24 V706.99 C342.89,706.99,343.32,707.16,343.68,707.5 C344.26,708.05,344.64,709.2,344.64,710.4 C344.64,712.44,343.73,713.84,342.43,713.84 Z " /><path
         id="path10738"
         fill="black"
         stroke-width="0"
         d="M345.26,705.37 L345.33,705.41 L345.39,705.45 L345.46,705.5 L345.52,705.54 L345.57,705.58 L345.63,705.61 L345.68,705.65 L345.74,705.69 L345.79,705.73 L345.84,705.76 L345.88,705.8 L345.93,705.83 L345.97,705.87 L346.02,705.9 L346.1,705.97 L346.18,706.04 L346.25,706.11 L346.32,706.18 L346.39,706.25 L346.46,706.32 L346.53,706.4 L346.59,706.48 L346.66,706.56 C347.37,707.42,347.72,708.42,347.72,709.58 C347.72,710.85,347.35,711.81,346.47,712.83 C346.07,713.3,345.81,713.52,345.29,713.84 L345.17,713.68 C345.97,713.05,346.23,712.71,346.51,711.96 C346.75,711.3,346.86,710.54,346.86,709.55 C346.86,708.52,346.73,707.69,346.46,707.09 C346.18,706.46,345.89,706.1,345.17,705.53 Z " /><path
         id="path10740"
         fill="black"
         stroke-width="0"
         d="M351.51,706.58 L351.42,706.62 C351.16,706.22,351.07,706.16,350.76,706.16 H349.09 L350.26,707.38 C350.88,708.03,351.15,708.56,351.15,709.1 C351.15,709.8,350.59,710.33,349.86,710.33 C349.48,710.33,349.12,710.18,348.86,709.9 C348.64,709.66,348.53,709.44,348.42,708.95 L348.56,708.91 C348.84,709.59,349.09,709.82,349.57,709.82 C350.16,709.82,350.55,709.42,350.55,708.84 C350.55,708.29,350.23,707.65,349.65,707.03 L348.41,705.71 V705.63 H351.12 Z " /></g>  </g>
</svg>
