<?xml version="1.0" encoding="UTF-8" standalone="no"?>
<!-- Created with Inkscape (http://www.inkscape.org/) -->

<svg
   xmlns:ns0="http://www.iki.fi/pav/software/textext/"
   xmlns:dc="http://purl.org/dc/elements/1.1/"
   xmlns:cc="http://creativecommons.org/ns#"
   xmlns:rdf="http://www.w3.org/1999/02/22-rdf-syntax-ns#"
   xmlns:svg="http://www.w3.org/2000/svg"
   xmlns="http://www.w3.org/2000/svg"
   xmlns:xlink="http://www.w3.org/1999/xlink"
   xmlns:sodipodi="http://sodipodi.sourceforge.net/DTD/sodipodi-0.dtd"
   xmlns:inkscape="http://www.inkscape.org/namespaces/inkscape"
   width="496.06299"
   height="354.33069"
   id="svg2"
   version="1.1"
   inkscape:version="0.48.4 r9939"
   sodipodi:docname="fig2.svg">
  <sodipodi:namedview
     id="base"
     pagecolor="#ffffff"
     bordercolor="#666666"
     borderopacity="1.0"
     inkscape:pageopacity="0.0"
     inkscape:pageshadow="2"
     inkscape:zoom="1.0475935"
     inkscape:cx="158.97586"
     inkscape:cy="31.919536"
     inkscape:document-units="cm"
     inkscape:current-layer="layer1"
     showgrid="false"
     units="cm"
     inkscape:object-nodes="true"
     inkscape:window-width="1024"
     inkscape:window-height="744"
     inkscape:window-x="0"
     inkscape:window-y="24"
     inkscape:window-maximized="1">
    <inkscape:grid
       type="xygrid"
       id="grid2985"
       empspacing="5"
       visible="true"
       enabled="true"
       snapvisiblegridlinesonly="true" />
  </sodipodi:namedview>
  <defs
     id="defs4">
    <marker
       inkscape:stockid="Arrow1Mstart"
       orient="auto"
       refY="0"
       refX="0"
       id="Arrow1Mstart"
       style="overflow:visible">
      <path
         inkscape:connector-curvature="0"
         id="path3775"
         d="M 0,0 5,-5 -12.5,0 5,5 0,0 z"
         style="fill-rule:evenodd;stroke:#000000;stroke-width:1pt"
         transform="matrix(0.4,0,0,0.4,4,0)" />
    </marker>
    <marker
       inkscape:stockid="Arrow1Mend"
       orient="auto"
       refY="0"
       refX="0"
       id="Arrow1Mend"
       style="overflow:visible">
      <path
         inkscape:connector-curvature="0"
         id="path3778"
         d="M 0,0 5,-5 -12.5,0 5,5 0,0 z"
         style="fill-rule:evenodd;stroke:#000000;stroke-width:1pt"
         transform="matrix(-0.4,0,0,-0.4,-4,0)" />
    </marker>
  </defs>
  <metadata
     id="metadata7">
    <rdf:RDF>
      <cc:Work
         rdf:about="">
        <dc:format>image/svg+xml</dc:format>
        <dc:type
           rdf:resource="http://purl.org/dc/dcmitype/StillImage" />
        <dc:title />
      </cc:Work>
    </rdf:RDF>
  </metadata>
  <g
     inkscape:label="Layer 1"
     inkscape:groupmode="layer"
     id="layer1"
     transform="translate(0,-698.03016)">
    <path
       sodipodi:nodetypes="ccccc"
       inkscape:connector-curvature="0"
       id="rect5801"
       d="m 335,927.36085 20,0 c 26.66667,-2e-5 26.66667,39.99998 0,39.99998 l -20,0 z"
       style="fill:none;stroke:#000000;stroke-width:1.20000005;stroke-linecap:round;stroke-linejoin:round;stroke-miterlimit:4;stroke-opacity:1;stroke-dasharray:none;stroke-dashoffset:0" />
    <text
       transform="translate(0,698.03016)"
       sodipodi:linespacing="100%"
       id="text5818"
       y="56.040417"
       x="61.700558"
       style="font-size:12px;font-style:normal;font-variant:normal;font-weight:normal;font-stretch:normal;text-align:start;line-height:100%;letter-spacing:0px;word-spacing:0px;text-anchor:start;fill:#000000;fill-opacity:1;stroke:none;font-family:LMRoman12;-inkscape-font-specification:Sans"
       xml:space="preserve"><tspan
         y="56.040417"
         x="61.700558"
         id="tspan5820"
         sodipodi:role="line" /></text>
    <flowRoot
       xml:space="preserve"
       id="flowRoot6377"
       style="fill:black;stroke:none;stroke-opacity:1;stroke-width:1px;stroke-linejoin:miter;stroke-linecap:butt;fill-opacity:1;font-family:LMRoman12;font-style:normal;font-weight:normal;font-size:12px;line-height:100%;letter-spacing:0px;word-spacing:0px;-inkscape-font-specification:Sans;font-stretch:normal;font-variant:normal;text-anchor:start;text-align:start"><flowRegion
         id="flowRegion6379"><rect
           id="rect6381"
           width="27.681772"
           height="40.319103"
           x="219.34796"
           y="87.141403" /></flowRegion><flowPara
         id="flowPara6383" /></flowRoot>    <text
       xml:space="preserve"
       style="font-size:12px;font-style:normal;font-variant:normal;font-weight:normal;font-stretch:normal;text-align:start;line-height:50%;letter-spacing:0px;word-spacing:0px;text-anchor:start;fill:#000000;fill-opacity:1;stroke:none;font-family:LMRoman12;-inkscape-font-specification:Sans"
       x="275.91507"
       y="55.247185"
       id="text6385"
       sodipodi:linespacing="50%"
       transform="translate(0,698.03016)"><tspan
         sodipodi:role="line"
         id="tspan6387" /></text>
    <text
       xml:space="preserve"
       style="font-size:12px;font-style:normal;font-variant:normal;font-weight:normal;font-stretch:normal;text-align:start;line-height:100%;letter-spacing:0px;word-spacing:0px;text-anchor:start;fill:#000000;fill-opacity:1;stroke:none;font-family:LMRoman12;-inkscape-font-specification:Sans"
       x="348.65417"
       y="194.38702"
       id="text3884"
       sodipodi:linespacing="100%"
       transform="translate(0,698.03016)"><tspan
         sodipodi:role="line"
         x="348.65417"
         y="194.38702"
         id="tspan3890" /></text>
    <text
       xml:space="preserve"
       style="font-size:12px;font-style:normal;font-variant:normal;font-weight:normal;font-stretch:normal;text-align:start;line-height:150%;letter-spacing:0px;word-spacing:0px;text-anchor:start;fill:#000000;fill-opacity:1;stroke:none;font-family:LMRoman12;-inkscape-font-specification:Sans"
       x="216.96629"
       y="250.89732"
       id="text3887"
       sodipodi:linespacing="150%"
       transform="translate(0,698.03016)"><tspan
         sodipodi:role="line"
         id="tspan3889"
         x="216.96629"
         y="250.89732" /></text>
    <path
       transform="matrix(1.8641214,0,0,1.8641214,118.07156,799.50561)"
       d="m 142.10235,79.330688 c 0,1.161094 -0.94126,2.102346 -2.10235,2.102346 -1.16109,0 -2.10235,-0.941252 -2.10235,-2.102346 0,-1.161093 0.94126,-2.102345 2.10235,-2.102345 1.16109,0 2.10235,0.941252 2.10235,2.102345 z"
       sodipodi:ry="2.1023455"
       sodipodi:rx="2.1023455"
       sodipodi:cy="79.330688"
       sodipodi:cx="140"
       id="path3025"
       style="fill:#ffffff;stroke:#000000;stroke-width:0.4291566;stroke-linecap:square;stroke-linejoin:round;stroke-miterlimit:4;stroke-opacity:1;stroke-dasharray:none;stroke-dashoffset:0"
       sodipodi:type="arc" />
    <path
       sodipodi:nodetypes="cc"
       inkscape:connector-curvature="0"
       id="path4239"
       d="m 275,947.36083 40,0"
       style="fill:none;stroke:#000000;stroke-width:0.99212599;stroke-linecap:square;stroke-linejoin:round;stroke-miterlimit:4;stroke-opacity:1;stroke-dasharray:none;stroke-dashoffset:0" />
    <path
       style="fill:none;stroke:#000000;stroke-width:0.99212593;stroke-linecap:square;stroke-linejoin:round;stroke-miterlimit:4;stroke-opacity:1;stroke-dasharray:none;stroke-dashoffset:0"
       d="m 383.13634,947.38764 30.81291,0"
       id="path4243"
       inkscape:connector-curvature="0"
       sodipodi:nodetypes="cc" />
    <g
       id="g4263"
       transform="matrix(1.2,0,0,-1.2,-81.4356,1788.5595)"
       xml:space="preserve"
       stroke-miterlimit="10.433"
       font-style="normal"
       font-variant="normal"
       font-weight="normal"
       font-stretch="normal"
       font-size-adjust="none"
       letter-spacing="normal"
       word-spacing="normal"
       ns0:text="$A$"
       ns0:preamble="/home/sriranga/Desktop/Prism_BasicElectronics/preamble.tex"
       style="font-style:normal;font-variant:normal;font-weight:normal;font-stretch:normal;letter-spacing:normal;word-spacing:normal;text-anchor:start;fill:none;stroke:#000000;stroke-width:1;stroke-linecap:butt;stroke-linejoin:miter;stroke-miterlimit:10.43299961;stroke-opacity:1;stroke-dasharray:none;stroke-dashoffset:0"><path
         style="fill:#000000;stroke-width:0"
         inkscape:connector-curvature="0"
         d="m 229.29,707.28 -0.05,0.01 -0.05,0 -0.04,0.01 -0.05,0.01 -0.04,0 -0.04,0.01 -0.03,0.01 -0.04,0.01 -0.03,0.01 -0.03,0.01 -0.03,0.01 -0.02,0.02 -0.03,0.01 -0.02,0.02 -0.02,0.02 -0.02,0.02 -0.02,0.02 -0.02,0.03 -0.01,0.02 -0.02,0.03 -0.01,0.03 -0.02,0.04 -0.01,0.04 -0.01,0.04 -0.01,0.04 -0.01,0.04 -0.02,0.05 -0.01,0.06 0,0.02 -0.01,0.03 0,0.03 -0.01,0.03 -0.01,0.03 0,0.03 -0.01,0.03 0,0.04 -0.94,5.62 h -0.26 l -2.88,-4.97 c -0.79,-1.32 -0.89,-1.43 -1.29,-1.51 v -0.16 h 1.86 v 0.16 c -0.5,0.05 -0.58,0.1 -0.58,0.35 0,0.19 0.03,0.28 0.2,0.62 l 0.56,1.12 h 2.19 l -0.05,0.36 h -1.93 l 1.49,2.58 0.44,-2.58 0.05,-0.36 0.2,-1.3 c 0.01,-0.09 0.02,-0.18 0.02,-0.26 0,-0.38 -0.14,-0.47 -0.77,-0.53 v -0.16 h 2.44 z"
         id="path4265" /></g>    <rect
       y="937.36084"
       x="315"
       height="20"
       width="20"
       id="rect5645"
       style="fill:#ffffff;fill-opacity:1;stroke:#000000;stroke-width:0.99212599;stroke-linecap:square;stroke-linejoin:round;stroke-miterlimit:4;stroke-opacity:1;stroke-dasharray:none;stroke-dashoffset:0" />
    <path
       style="fill:none;stroke:#000000;stroke-width:1.20000005;stroke-linecap:round;stroke-linejoin:round;stroke-miterlimit:4;stroke-opacity:1;stroke-dasharray:none;stroke-dashoffset:0"
       d="m 230,927.36085 20,0 c 26.66667,-2e-5 26.66667,39.99998 0,39.99998 l -20,0 z"
       id="path5936"
       inkscape:connector-curvature="0"
       sodipodi:nodetypes="ccccc" />
    <path
       sodipodi:type="arc"
       style="fill:#ffffff;stroke:#000000;stroke-width:0.4291566;stroke-linecap:square;stroke-linejoin:round;stroke-miterlimit:4;stroke-opacity:1;stroke-dasharray:none;stroke-dashoffset:0"
       id="path5938"
       sodipodi:cx="140"
       sodipodi:cy="79.330688"
       sodipodi:rx="2.1023455"
       sodipodi:ry="2.1023455"
       d="m 142.10235,79.330688 c 0,1.161094 -0.94126,2.102346 -2.10235,2.102346 -1.16109,0 -2.10235,-0.941252 -2.10235,-2.102346 0,-1.161093 0.94126,-2.102345 2.10235,-2.102345 1.16109,0 2.10235,0.941252 2.10235,2.102345 z"
       transform="matrix(1.8641214,0,0,1.8641214,13.07156,799.50561)" />
    <path
       sodipodi:nodetypes="cc"
       inkscape:connector-curvature="0"
       id="path5940"
       d="m 199.18709,937.36085 30.81291,0"
       style="fill:none;stroke:#000000;stroke-width:0.99212593;stroke-linecap:square;stroke-linejoin:round;stroke-miterlimit:4;stroke-opacity:1;stroke-dasharray:none;stroke-dashoffset:0" />
    <path
       style="fill:none;stroke:#000000;stroke-width:0.99212593;stroke-linecap:square;stroke-linejoin:round;stroke-miterlimit:4;stroke-opacity:1;stroke-dasharray:none;stroke-dashoffset:0"
       d="m 199.18709,957.36085 30.81291,0"
       id="path5942"
       inkscape:connector-curvature="0"
       sodipodi:nodetypes="cc" />
    <g
       id="content"
       transform="matrix(1.2,0,0,-1.2,-81.4356,1807.6509)"
       xml:space="preserve"
       stroke-miterlimit="10.433"
       font-style="normal"
       font-variant="normal"
       font-weight="normal"
       font-stretch="normal"
       font-size-adjust="none"
       letter-spacing="normal"
       word-spacing="normal"
       ns0:text="$B$"
       ns0:preamble="/home/sriranga/Desktop/Prism_BasicElectronics/preamble.tex"
       style="font-style:normal;font-variant:normal;font-weight:normal;font-stretch:normal;letter-spacing:normal;word-spacing:normal;text-anchor:start;fill:none;stroke:#000000;stroke-width:1;stroke-linecap:butt;stroke-linejoin:miter;stroke-miterlimit:10.43299961;stroke-opacity:1;stroke-dasharray:none;stroke-dashoffset:0"><path
         style="fill:#000000;stroke-width:0"
         inkscape:connector-curvature="0"
         d="m 223.7,707.12 h 2.81 c 1.56,0 2.63,0.82 2.63,1.99 0,0.37 -0.12,0.72 -0.34,0.94 -0.19,0.22 -0.39,0.34 -0.91,0.56 0.71,0.17 0.99,0.29 1.31,0.57 0.28,0.24 0.43,0.57 0.43,0.97 0,0.94 -0.7,1.46 -1.99,1.46 l -0.18,-0.3 c 0.8,0 1.17,-0.33 1.17,-1.07 0,-0.57 -0.24,-1 -0.67,-1.24 -0.34,-0.2 -0.82,-0.27 -1.71,-0.27 l -0.1,-0.32 c 0.65,0 1.06,-0.04 1.26,-0.12 0.41,-0.17 0.66,-0.6 0.66,-1.14 0,-1.07 -0.74,-1.73 -1.95,-1.73 -0.42,0 -0.64,0.15 -0.64,0.42 0,0.12 0.12,0.6 0.35,1.39 0.13,0.45 0.19,0.68 0.32,1.18 h 0 l 0.1,0.32 0.65,2.31 c 0.06,0.21 0.17,0.27 0.56,0.27 l 0.18,0.3 h -2.57 v -0.16 c 0.62,-0.05 0.77,-0.13 0.77,-0.4 0,-0.15 -0.04,-0.4 -0.11,-0.64 l -1.22,-4.39 c -0.18,-0.58 -0.25,-0.64 -0.81,-0.74 z"
         id="path5991" /></g>    <g
       style="font-style:normal;font-variant:normal;font-weight:normal;font-stretch:normal;letter-spacing:normal;word-spacing:normal;text-anchor:start;fill:none;stroke:#000000;stroke-width:1;stroke-linecap:butt;stroke-linejoin:miter;stroke-miterlimit:10.43299961;stroke-opacity:1;stroke-dasharray:none;stroke-dashoffset:0"
       ns0:preamble="/home/sriranga/Desktop/Prism_BasicElectronics/preamble.tex"
       ns0:text="$\\overline{AB}$"
       word-spacing="normal"
       letter-spacing="normal"
       font-size-adjust="none"
       font-stretch="normal"
       font-weight="normal"
       font-variant="normal"
       font-style="normal"
       stroke-miterlimit="10.433"
       xml:space="preserve"
       transform="matrix(1.2,0,0,-1.2,18.77245,1792.0769)"
       id="g6100"><line
         id="line6102"
         y2="715.59003"
         x2="236.10001"
         y1="715.59003"
         x1="223.42999"
         style="stroke-width:0.55800003" /><path
         id="path6104"
         d="m 229.29,707.28 -0.05,0.01 -0.05,0 -0.04,0.01 -0.05,0.01 -0.04,0 -0.04,0.01 -0.03,0.01 -0.04,0.01 -0.03,0.01 -0.03,0.01 -0.03,0.01 -0.02,0.02 -0.03,0.01 -0.02,0.02 -0.02,0.02 -0.02,0.02 -0.02,0.02 -0.02,0.03 -0.01,0.02 -0.02,0.03 -0.01,0.03 -0.02,0.04 -0.01,0.04 -0.01,0.04 -0.01,0.04 -0.01,0.04 -0.02,0.05 -0.01,0.06 0,0.02 -0.01,0.03 0,0.03 -0.01,0.03 -0.01,0.03 0,0.03 -0.01,0.03 0,0.04 -0.94,5.62 h -0.26 l -2.88,-4.97 c -0.79,-1.32 -0.89,-1.43 -1.29,-1.51 v -0.16 h 1.86 v 0.16 c -0.5,0.05 -0.58,0.1 -0.58,0.35 0,0.19 0.03,0.28 0.2,0.62 l 0.56,1.12 h 2.19 l -0.05,0.36 h -1.93 l 1.49,2.58 0.44,-2.58 0.05,-0.36 0.2,-1.3 c 0.01,-0.09 0.02,-0.18 0.02,-0.26 0,-0.38 -0.14,-0.47 -0.77,-0.53 v -0.16 h 2.44 z"
         inkscape:connector-curvature="0"
         style="fill:#000000;stroke-width:0" /><path
         id="path6106"
         d="m 230.04,707.12 h 2.8 c 1.56,0 2.64,0.82 2.64,1.99 0,0.37 -0.12,0.72 -0.34,0.94 -0.2,0.22 -0.4,0.34 -0.91,0.56 0.7,0.17 0.99,0.29 1.31,0.57 0.28,0.24 0.43,0.57 0.43,0.97 0,0.94 -0.71,1.46 -1.99,1.46 l -0.18,-0.3 c 0.79,0 1.16,-0.33 1.16,-1.07 0,-0.57 -0.24,-1 -0.66,-1.24 -0.34,-0.2 -0.82,-0.27 -1.72,-0.27 l -0.09,-0.32 c 0.64,0 1.06,-0.04 1.26,-0.12 0.41,-0.17 0.65,-0.6 0.65,-1.14 0,-1.07 -0.73,-1.73 -1.94,-1.73 -0.42,0 -0.64,0.15 -0.64,0.42 0,0.12 0.12,0.6 0.35,1.39 0.13,0.45 0.18,0.68 0.32,1.18 h 0 l 0.09,0.32 0.65,2.31 c 0.06,0.21 0.18,0.27 0.57,0.27 l 0.18,0.3 h -2.57 v -0.16 c 0.62,-0.05 0.77,-0.13 0.77,-0.4 0,-0.15 -0.04,-0.4 -0.11,-0.64 l -1.23,-4.39 c -0.18,-0.58 -0.25,-0.64 -0.8,-0.74 z"
         inkscape:connector-curvature="0"
         style="fill:#000000;stroke-width:0" /></g>    <g
       id="g6193"
       transform="matrix(1.2,0,0,-1.2,151.0907,1796.1064)"
       xml:space="preserve"
       stroke-miterlimit="10.433"
       font-style="normal"
       font-variant="normal"
       font-weight="normal"
       font-stretch="normal"
       font-size-adjust="none"
       letter-spacing="normal"
       word-spacing="normal"
       ns0:text="$f=\\overline{\\overline{A B}}=AB$"
       ns0:preamble="/home/sriranga/Desktop/Prism_BasicElectronics/preamble.tex"
       style="font-style:normal;font-variant:normal;font-weight:normal;font-stretch:normal;letter-spacing:normal;word-spacing:normal;text-anchor:start;fill:none;stroke:#000000;stroke-width:1;stroke-linecap:butt;stroke-linejoin:miter;stroke-miterlimit:10.43299961;stroke-opacity:1;stroke-dasharray:none;stroke-dashoffset:0"><path
         style="fill:#000000;stroke-width:0"
         inkscape:connector-curvature="0"
         d="m 225.27,708.93 h 0.9 l -0.88,-4.17 c -0.22,-1.06 -0.54,-1.61 -0.96,-1.61 -0.12,0 -0.2,0.07 -0.2,0.16 0,0.03 0.01,0.06 0.04,0.11 0.04,0.06 0.05,0.1 0.05,0.16 0,0.21 -0.18,0.38 -0.39,0.38 -0.21,0 -0.37,-0.18 -0.37,-0.41 0,-0.34 0.35,-0.61 0.79,-0.61 0.88,0 1.58,0.98 1.99,2.81 l 0.72,3.18 h 1.08 l 0.06,0.32 h -1.08 c 0.29,1.56 0.66,2.27 1.22,2.27 0.13,0 0.22,-0.05 0.22,-0.12 0,-0.03 -0.01,-0.05 -0.04,-0.1 -0.04,-0.09 -0.06,-0.14 -0.06,-0.21 0,-0.24 0.15,-0.4 0.37,-0.4 0.23,0 0.42,0.18 0.42,0.4 0,0.37 -0.37,0.64 -0.86,0.64 -0.49,0 -0.88,-0.21 -1.24,-0.68 -0.29,-0.39 -0.49,-0.85 -0.79,-1.8 h -0.92 z"
         id="path6195" /><polygon
         style="fill:#000000;stroke-width:0"
         points="232.54,708.28 237.63,708.28 237.63,708.83 232.54,708.83 "
         id="polygon6197" /><polygon
         style="fill:#000000;stroke-width:0"
         points="232.54,706.26 237.63,706.26 237.63,706.82 232.54,706.82 "
         id="polygon6199" /><line
         style="stroke-width:0.55800003"
         x1="241.02"
         y1="716.25"
         x2="253.69"
         y2="716.25"
         id="line6201" /><line
         style="stroke-width:0.55800003"
         x1="241.02"
         y1="713.46002"
         x2="253.69"
         y2="713.46002"
         id="line6203" /><path
         style="fill:#000000;stroke-width:0"
         inkscape:connector-curvature="0"
         d="m 246.88,705.16 -0.05,0 -0.05,0.01 -0.04,0 -0.05,0.01 -0.04,0 -0.04,0.01 -0.03,0.01 -0.04,0.01 -0.03,0.01 -0.03,0.01 -0.03,0.01 -0.02,0.02 -0.03,0.01 -0.02,0.02 -0.02,0.02 -0.02,0.02 -0.02,0.02 -0.02,0.03 -0.01,0.03 -0.02,0.03 -0.01,0.03 -0.02,0.03 -0.01,0.04 -0.01,0.04 -0.01,0.04 -0.01,0.05 -0.02,0.05 -0.01,0.05 0,0.03 -0.01,0.02 0,0.03 -0.01,0.03 -0.01,0.03 0,0.03 -0.01,0.04 0,0.03 -0.94,5.62 h -0.26 l -2.88,-4.96 c -0.79,-1.32 -0.89,-1.43 -1.29,-1.51 V 705 h 1.86 v 0.16 c -0.5,0.05 -0.58,0.1 -0.58,0.35 0,0.18 0.03,0.27 0.2,0.61 l 0.56,1.12 h 2.19 l -0.05,0.36 h -1.93 l 1.49,2.58 0.44,-2.58 0.05,-0.36 0.2,-1.3 c 0.01,-0.09 0.02,-0.18 0.02,-0.26 0,-0.37 -0.14,-0.46 -0.78,-0.52 V 705 h 2.45 z"
         id="path6205" /><path
         style="fill:#000000;stroke-width:0"
         inkscape:connector-curvature="0"
         d="m 247.63,705 h 2.8 c 1.56,0 2.64,0.81 2.64,1.98 0,0.37 -0.12,0.72 -0.34,0.94 -0.2,0.23 -0.4,0.35 -0.91,0.56 0.7,0.17 0.99,0.29 1.31,0.57 0.28,0.24 0.43,0.58 0.43,0.97 0,0.95 -0.71,1.46 -1.99,1.46 l -0.18,-0.29 c 0.79,0 1.16,-0.34 1.16,-1.08 0,-0.56 -0.24,-1 -0.67,-1.24 -0.33,-0.2 -0.81,-0.27 -1.71,-0.27 l -0.1,-0.31 c 0.65,0 1.07,-0.04 1.27,-0.12 0.41,-0.17 0.65,-0.61 0.65,-1.15 0,-1.07 -0.73,-1.72 -1.95,-1.72 -0.41,0 -0.63,0.15 -0.63,0.41 0,0.12 0.12,0.6 0.35,1.39 0.13,0.45 0.19,0.68 0.31,1.19 h 0 l 0.1,0.31 0.65,2.31 c 0.06,0.22 0.18,0.28 0.57,0.28 l 0.18,0.29 H 249 v -0.15 c 0.62,-0.05 0.77,-0.13 0.77,-0.41 0,-0.15 -0.04,-0.4 -0.11,-0.64 l -1.23,-4.39 c -0.18,-0.57 -0.25,-0.63 -0.8,-0.73 z"
         id="path6207" /><polygon
         style="fill:#000000;stroke-width:0"
         points="257.08,708.28 262.17,708.28 262.17,708.83 257.08,708.83 "
         id="polygon6209" /><polygon
         style="fill:#000000;stroke-width:0"
         points="257.08,706.26 262.17,706.26 262.17,706.82 257.08,706.82 "
         id="polygon6211" /><path
         style="fill:#000000;stroke-width:0"
         inkscape:connector-curvature="0"
         d="m 271.42,705.16 -0.05,0 -0.05,0.01 -0.04,0 -0.04,0.01 -0.05,0 -0.03,0.01 -0.04,0.01 -0.03,0.01 -0.04,0.01 -0.03,0.01 -0.02,0.01 -0.03,0.02 -0.02,0.01 -0.03,0.02 -0.02,0.02 -0.02,0.02 -0.02,0.02 -0.01,0.03 -0.02,0.03 -0.01,0.03 -0.02,0.03 -0.01,0.03 -0.02,0.04 -0.01,0.04 -0.01,0.04 -0.01,0.05 -0.01,0.05 -0.01,0.05 -0.01,0.03 -0.01,0.02 0,0.03 -0.01,0.03 0,0.03 -0.01,0.03 0,0.04 -0.01,0.03 -0.94,5.62 h -0.25 l -2.89,-4.96 c -0.79,-1.32 -0.89,-1.43 -1.28,-1.51 V 705 h 1.86 v 0.16 c -0.51,0.05 -0.59,0.1 -0.59,0.35 0,0.18 0.03,0.27 0.2,0.61 l 0.57,1.12 h 2.19 l -0.06,0.36 h -1.93 l 1.5,2.58 0.43,-2.58 0.06,-0.36 0.19,-1.3 c 0.01,-0.09 0.02,-0.18 0.02,-0.26 0,-0.37 -0.14,-0.46 -0.77,-0.52 V 705 h 2.44 z"
         id="path6213" /><path
         style="fill:#000000;stroke-width:0"
         inkscape:connector-curvature="0"
         d="m 272.17,705 h 2.81 c 1.56,0 2.63,0.81 2.63,1.98 0,0.37 -0.12,0.72 -0.34,0.94 -0.19,0.23 -0.39,0.35 -0.91,0.56 0.71,0.17 0.99,0.29 1.31,0.57 0.28,0.24 0.43,0.58 0.43,0.97 0,0.95 -0.71,1.46 -1.99,1.46 l -0.18,-0.29 c 0.8,0 1.17,-0.34 1.17,-1.08 0,-0.56 -0.24,-1 -0.67,-1.24 -0.34,-0.2 -0.82,-0.27 -1.71,-0.27 l -0.1,-0.31 c 0.64,0 1.06,-0.04 1.26,-0.12 0.41,-0.17 0.66,-0.61 0.66,-1.15 0,-1.07 -0.74,-1.72 -1.95,-1.72 -0.42,0 -0.64,0.15 -0.64,0.41 0,0.12 0.12,0.6 0.35,1.39 0.13,0.45 0.19,0.68 0.32,1.19 h 0 l 0.1,0.31 0.64,2.31 c 0.06,0.22 0.18,0.28 0.57,0.28 l 0.18,0.29 h -2.57 v -0.15 c 0.62,-0.05 0.77,-0.13 0.77,-0.41 0,-0.15 -0.04,-0.4 -0.11,-0.64 l -1.22,-4.39 c -0.18,-0.57 -0.25,-0.63 -0.81,-0.73 z"
         id="path6215" /></g>    <g
       id="g3079"
       ns0:preamble="/home/sriranga/Desktop/Prism-Basic-Electronics/package.tex"
       ns0:text="$f=AB=\\overline{\\overline{AA}}$"
       transform="matrix(1.1404514,0,0,1.1404514,-165.97804,791.99187)">
      <defs
         id="defs3081">
        <g
           id="g3083">
          <symbol
             id="textext-f2f5a6d8-0"
             overflow="visible"
             style="overflow:visible">
            <path
               id="path3086"
               d=""
               style="stroke:none"
               inkscape:connector-curvature="0" />
          </symbol>
          <symbol
             id="textext-f2f5a6d8-1"
             overflow="visible"
             style="overflow:visible">
            <path
               id="path3089"
               d="m 0.34375,-3.953125 0.90625,0 -0.875,4.1875 c -0.21875,1.078125 -0.546875,1.625 -0.96875,1.625 -0.125,0 -0.203125,-0.078125 -0.203125,-0.171875 0,-0.015625 0.015625,-0.046875 0.046875,-0.109375 0.03125,-0.046875 0.046875,-0.09375 0.046875,-0.15625 0,-0.203125 -0.1875,-0.375 -0.390625,-0.375 -0.21875,0 -0.375,0.171875 -0.375,0.40625 0,0.34375 0.359375,0.609375 0.796875,0.609375 0.875,0 1.578125,-0.984375 1.984375,-2.8125 l 0.71875,-3.203125 1.09375,0 0.0625,-0.3125 -1.078125,0 c 0.28125,-1.5625 0.65625,-2.28125 1.203125,-2.28125 0.140625,0 0.21875,0.0625 0.21875,0.125 0,0.03125 0,0.046875 -0.03125,0.109375 -0.046875,0.078125 -0.0625,0.125 -0.0625,0.203125 0,0.234375 0.15625,0.390625 0.375,0.390625 0.21875,0 0.421875,-0.171875 0.421875,-0.390625 0,-0.375 -0.375,-0.65625 -0.859375,-0.65625 -0.5,0 -0.875,0.21875 -1.234375,0.6875 -0.3125,0.390625 -0.5,0.859375 -0.8125,1.8125 l -0.90625,0 z m 0,0"
               style="stroke:none"
               inkscape:connector-curvature="0" />
          </symbol>
          <symbol
             id="textext-f2f5a6d8-2"
             overflow="visible"
             style="overflow:visible">
            <path
               id="path3092"
               d="M 5.625,-0.15625 C 5.046875,-0.203125 5,-0.296875 4.859375,-1.015625 l -0.9375,-5.640625 -0.25,0 -2.890625,4.984375 c -0.796875,1.328125 -0.890625,1.4375 -1.296875,1.515625 l 0,0.15625 1.875,0 0,-0.15625 c -0.515625,-0.046875 -0.59375,-0.109375 -0.59375,-0.359375 0,-0.1875 0.03125,-0.265625 0.203125,-0.609375 l 0.5625,-1.125 2.203125,0 0.1875,1.296875 c 0.015625,0.09375 0.03125,0.1875 0.03125,0.265625 0,0.375 -0.140625,0.46875 -0.78125,0.53125 L 3.171875,0 5.625,0 z m -3.875,-2.453125 1.484375,-2.59375 0.4375,2.59375 z m 0,0"
               style="stroke:none"
               inkscape:connector-curvature="0" />
          </symbol>
          <symbol
             id="textext-f2f5a6d8-3"
             overflow="visible"
             style="overflow:visible">
            <path
               id="path3095"
               d="m -0.078125,0 2.8125,0 C 4.296875,0 5.375,-0.8125 5.375,-2 5.375,-2.359375 5.25,-2.71875 5.03125,-2.9375 4.828125,-3.15625 4.640625,-3.28125 4.109375,-3.5 c 0.71875,-0.171875 1,-0.28125 1.328125,-0.5625 0.28125,-0.25 0.421875,-0.578125 0.421875,-0.984375 0,-0.9375 -0.703125,-1.46875 -1.984375,-1.46875 l -2.578125,0 0,0.171875 c 0.609375,0.046875 0.765625,0.125 0.765625,0.40625 0,0.140625 -0.03125,0.390625 -0.109375,0.640625 l -1.21875,4.40625 c -0.1875,0.578125 -0.25,0.625 -0.8125,0.734375 z M 2.375,-3.296875 c 0.640625,0 1.0625,0.03125 1.265625,0.109375 0.40625,0.171875 0.65625,0.609375 0.65625,1.15625 0,1.078125 -0.734375,1.734375 -1.953125,1.734375 -0.421875,0 -0.640625,-0.15625 -0.640625,-0.421875 0,-0.125 0.125,-0.59375 0.34375,-1.390625 C 2.1875,-2.5625 2.25,-2.796875 2.375,-3.296875 z M 3.125,-5.9375 c 0.0625,-0.21875 0.171875,-0.265625 0.5625,-0.265625 0.796875,0 1.171875,0.328125 1.171875,1.0625 0,0.578125 -0.25,1.015625 -0.671875,1.25 C 3.84375,-3.6875 3.375,-3.625 2.46875,-3.625 z m 0,0"
               style="stroke:none"
               inkscape:connector-curvature="0" />
          </symbol>
          <symbol
             id="textext-f2f5a6d8-4"
             overflow="visible"
             style="overflow:visible">
            <path
               id="path3098"
               d=""
               style="stroke:none"
               inkscape:connector-curvature="0" />
          </symbol>
          <symbol
             id="textext-f2f5a6d8-5"
             overflow="visible"
             style="overflow:visible">
            <path
               id="path3101"
               d="m 5.71875,-3.296875 0,-0.546875 -5.09375,0 0,0.546875 z m 0,2.03125 0,-0.5625 -5.09375,0 0,0.5625 z m 0,0"
               style="stroke:none"
               inkscape:connector-curvature="0" />
          </symbol>
        </g>
      </defs>
      <g
         id="textext-f2f5a6d8-6">
        <g
           id="g3104"
           style="fill:#000000;fill-opacity:1">
          <use
             id="use3106"
             y="136.892"
             x="224.92599"
             xlink:href="#textext-f2f5a6d8-1"
             width="496.06299"
             height="354.33069" />
        </g>
        <g
           id="g3108"
           style="fill:#000000;fill-opacity:1">
          <use
             id="use3110"
             y="136.892"
             x="231.918"
             xlink:href="#textext-f2f5a6d8-5"
             width="496.06299"
             height="354.33069" />
        </g>
        <g
           id="g3112"
           style="fill:#000000;fill-opacity:1">
          <use
             id="use3114"
             y="136.892"
             x="241.271"
             xlink:href="#textext-f2f5a6d8-2"
             width="496.06299"
             height="354.33069" />
        </g>
        <g
           id="g3116"
           style="fill:#000000;fill-opacity:1">
          <use
             id="use3118"
             y="136.892"
             x="247.70683"
             xlink:href="#textext-f2f5a6d8-3"
             width="496.06299"
             height="354.33069" />
        </g>
        <g
           id="g3120"
           style="fill:#000000;fill-opacity:1">
          <use
             id="use3122"
             y="136.892"
             x="256.461"
             xlink:href="#textext-f2f5a6d8-5"
             width="496.06299"
             height="354.33069" />
        </g>
        <path
           id="path3124"
           transform="matrix(1,0,0,-1,265.565,125.639)"
           d="m 0.00140625,-0.001625 12.67187475,0"
           style="fill:none;stroke:#000000;stroke-width:0.55800003;stroke-linecap:butt;stroke-linejoin:miter;stroke-miterlimit:10;stroke-opacity:1"
           inkscape:connector-curvature="0" />
        <path
           id="path3126"
           transform="matrix(1,0,0,-1,265.565,128.429)"
           d="m 0.00140625,-6.875e-4 12.67187475,0"
           style="fill:none;stroke:#000000;stroke-width:0.55800003;stroke-linecap:butt;stroke-linejoin:miter;stroke-miterlimit:10;stroke-opacity:1"
           inkscape:connector-curvature="0" />
        <g
           id="g3128"
           style="fill:#000000;fill-opacity:1">
          <use
             id="use3130"
             y="136.892"
             x="265.814"
             xlink:href="#textext-f2f5a6d8-2"
             width="496.06299"
             height="354.33069" />
        </g>
        <g
           id="g3132"
           style="fill:#000000;fill-opacity:1">
          <use
             id="use3134"
             y="136.892"
             x="272.15021"
             xlink:href="#textext-f2f5a6d8-2"
             width="496.06299"
             height="354.33069" />
        </g>
      </g>
    </g>
  </g>
</svg>
