<?xml version="1.0" encoding="UTF-8" standalone="no"?>
<!-- Created with Inkscape (http://www.inkscape.org/) -->

<svg
   xmlns:ns0="http://www.iki.fi/pav/software/textext/"
   xmlns:dc="http://purl.org/dc/elements/1.1/"
   xmlns:cc="http://creativecommons.org/ns#"
   xmlns:rdf="http://www.w3.org/1999/02/22-rdf-syntax-ns#"
   xmlns:svg="http://www.w3.org/2000/svg"
   xmlns="http://www.w3.org/2000/svg"
   xmlns:sodipodi="http://sodipodi.sourceforge.net/DTD/sodipodi-0.dtd"
   xmlns:inkscape="http://www.inkscape.org/namespaces/inkscape"
   width="496.06299"
   height="354.33069"
   id="svg2"
   version="1.1"
   inkscape:version="0.48.4 r9939"
   sodipodi:docname="fig5.8.eps">
  <sodipodi:namedview
     id="base"
     pagecolor="#ffffff"
     bordercolor="#666666"
     borderopacity="1.0"
     inkscape:pageopacity="0.0"
     inkscape:pageshadow="2"
     inkscape:zoom="1.4036193"
     inkscape:cx="146.94614"
     inkscape:cy="203.48953"
     inkscape:document-units="cm"
     inkscape:current-layer="layer1"
     showgrid="false"
     units="cm"
     inkscape:object-nodes="true"
     inkscape:window-width="1366"
     inkscape:window-height="744"
     inkscape:window-x="0"
     inkscape:window-y="24"
     inkscape:window-maximized="1">
    <inkscape:grid
       type="xygrid"
       id="grid2985"
       empspacing="5"
       visible="true"
       enabled="true"
       snapvisiblegridlinesonly="true" />
  </sodipodi:namedview>
  <defs
     id="defs4">
    <marker
       inkscape:stockid="Arrow1Mstart"
       orient="auto"
       refY="0"
       refX="0"
       id="Arrow1Mstart"
       style="overflow:visible">
      <path
         inkscape:connector-curvature="0"
         id="path3775"
         d="M 0,0 5,-5 -12.5,0 5,5 0,0 z"
         style="fill-rule:evenodd;stroke:#000000;stroke-width:1pt"
         transform="matrix(0.4,0,0,0.4,4,0)" />
    </marker>
    <marker
       inkscape:stockid="Arrow1Mend"
       orient="auto"
       refY="0"
       refX="0"
       id="Arrow1Mend"
       style="overflow:visible">
      <path
         inkscape:connector-curvature="0"
         id="path3778"
         d="M 0,0 5,-5 -12.5,0 5,5 0,0 z"
         style="fill-rule:evenodd;stroke:#000000;stroke-width:1pt"
         transform="matrix(-0.4,0,0,-0.4,-4,0)" />
    </marker>
    <marker
       style="overflow:visible"
       id="Arrow1Mstart-7"
       refX="0"
       refY="0"
       orient="auto"
       inkscape:stockid="Arrow1Mstart">
      <path
         transform="matrix(0.4,0,0,0.4,4,0)"
         style="fill-rule:evenodd;stroke:#000000;stroke-width:1pt"
         d="M 0,0 5,-5 -12.5,0 5,5 0,0 z"
         id="path3775-8"
         inkscape:connector-curvature="0" />
    </marker>
  </defs>
  <metadata
     id="metadata7">
    <rdf:RDF>
      <cc:Work
         rdf:about="">
        <dc:format>image/svg+xml</dc:format>
        <dc:type
           rdf:resource="http://purl.org/dc/dcmitype/StillImage" />
        <dc:title></dc:title>
      </cc:Work>
    </rdf:RDF>
  </metadata>
  <g
     inkscape:label="Layer 1"
     inkscape:groupmode="layer"
     id="layer1"
     transform="translate(0,-698.03016)">
    <path
       style="fill:none;stroke:#000000;stroke-width:1.20000005;stroke-linecap:square;stroke-linejoin:round;stroke-miterlimit:4;stroke-opacity:1;stroke-dasharray:none;stroke-dashoffset:0"
       d="m 130,194.33069 210,0"
       id="path6111"
       inkscape:connector-curvature="0"
       transform="translate(0,698.03016)" />
    <path
       sodipodi:type="arc"
       style="fill:#ffffff;stroke:#000000;stroke-width:1.64918959;stroke-linecap:square;stroke-linejoin:round;stroke-miterlimit:4;stroke-opacity:1;stroke-dasharray:none;stroke-dashoffset:0"
       id="path6113"
       sodipodi:cx="280"
       sodipodi:cy="194.33069"
       sodipodi:rx="6.4735827"
       sodipodi:ry="6.4735827"
       d="m 286.47358,194.33069 c 0,3.57526 -2.89832,6.47358 -6.47358,6.47358 -3.57526,0 -6.47358,-2.89832 -6.47358,-6.47358 0,-3.57526 2.89832,-6.47358 6.47358,-6.47358 3.57526,0 6.47358,2.89832 6.47358,6.47358 z"
       transform="matrix(0.72763016,0,0,0.72763016,51.263555,750.95998)" />
    <path
       style="fill:#ffffff;fill-opacity:1;stroke:#000000;stroke-width:1.20000005;stroke-linecap:square;stroke-linejoin:round;stroke-miterlimit:4;stroke-opacity:1;stroke-dasharray:none;stroke-dashoffset:0"
       d="m 215,872.36085 0,40 35,-20 z"
       id="path6115"
       inkscape:connector-curvature="0"
       sodipodi:nodetypes="cccc" />
    <path
       sodipodi:type="arc"
       id="path6117"
       style="fill:#000000;stroke:none"
       sodipodi:cx="340"
       sodipodi:cy="892.36084"
       sodipodi:rx="2.1500001"
       sodipodi:ry="2.1500001"
       d="m 342.15,892.36084 c 0,1.18741 -0.96259,2.15 -2.15,2.15 -1.18741,0 -2.15,-0.96259 -2.15,-2.15 0,-1.18741 0.96259,-2.15 2.15,-2.15 1.18741,0 2.15,0.96259 2.15,2.15 z" />
    <path
       sodipodi:type="arc"
       id="path6119"
       style="fill:#000000;stroke:none"
       sodipodi:cx="130"
       sodipodi:cy="892.36084"
       sodipodi:rx="2.1500001"
       sodipodi:ry="2.1500001"
       d="m 132.15,892.36084 c 0,1.18741 -0.96259,2.15 -2.15,2.15 -1.18741,0 -2.15,-0.96259 -2.15,-2.15 0,-1.18741 0.96259,-2.15 2.15,-2.15 1.18741,0 2.15,0.96259 2.15,2.15 z" />
    <g
       id="g6164"
       transform="matrix(1.2,0,0,-1.2,-151.70418,1744.3277)"
       xml:space="preserve"
       stroke-miterlimit="10.433"
       font-style="normal"
       font-variant="normal"
       font-weight="normal"
       font-stretch="normal"
       font-size-adjust="none"
       letter-spacing="normal"
       word-spacing="normal"
       ns0:text="$A$"
       ns0:preamble="/home/sriranga/Desktop/Prism_BasicElectronics/preamble.tex"
       style="font-style:normal;font-variant:normal;font-weight:normal;font-stretch:normal;letter-spacing:normal;word-spacing:normal;text-anchor:start;fill:none;stroke:#000000;stroke-width:1;stroke-linecap:butt;stroke-linejoin:miter;stroke-miterlimit:10.43299961;stroke-opacity:1;stroke-dasharray:none;stroke-dashoffset:0"><path
         style="fill:#000000;stroke-width:0"
         inkscape:connector-curvature="0"
         d="m 229.29,707.28 -0.05,0.01 -0.05,0 -0.04,0.01 -0.05,0.01 -0.04,0 -0.04,0.01 -0.03,0.01 -0.04,0.01 -0.03,0.01 -0.03,0.01 -0.03,0.01 -0.02,0.02 -0.03,0.01 -0.02,0.02 -0.02,0.02 -0.02,0.02 -0.02,0.02 -0.02,0.03 -0.01,0.02 -0.02,0.03 -0.01,0.03 -0.02,0.04 -0.01,0.04 -0.01,0.04 -0.01,0.04 -0.01,0.04 -0.02,0.05 -0.01,0.06 0,0.02 -0.01,0.03 0,0.03 -0.01,0.03 -0.01,0.03 0,0.03 -0.01,0.03 0,0.04 -0.94,5.62 h -0.26 l -2.88,-4.97 c -0.79,-1.32 -0.89,-1.43 -1.29,-1.51 v -0.16 h 1.86 v 0.16 c -0.5,0.05 -0.58,0.1 -0.58,0.35 0,0.19 0.03,0.28 0.2,0.62 l 0.56,1.12 h 2.19 l -0.05,0.36 h -1.93 l 1.49,2.58 0.44,-2.58 0.05,-0.36 0.2,-1.3 c 0.01,-0.09 0.02,-0.18 0.02,-0.26 0,-0.38 -0.14,-0.47 -0.77,-0.53 v -0.16 h 2.44 z"
         id="path6166" /></g>    <g
       style="font-style:normal;font-variant:normal;font-weight:normal;font-stretch:normal;letter-spacing:normal;word-spacing:normal;text-anchor:start;fill:none;stroke:#000000;stroke-width:1;stroke-linecap:butt;stroke-linejoin:miter;stroke-miterlimit:10.43299961;stroke-opacity:1;stroke-dasharray:none;stroke-dashoffset:0"
       ns0:preamble="/home/sriranga/Desktop/Prism_BasicElectronics/preamble.tex"
       ns0:text="$Y= \\overline{A}$"
       text-anchor="start"
       word-spacing="normal"
       letter-spacing="normal"
       font-size-adjust="none"
       font-stretch="normal"
       font-weight="normal"
       font-variant="normal"
       font-style="normal"
       fill-opacity="1"
       fill-rule="evenodd"
       fill="none"
       stroke-opacity="1"
       stroke-dashoffset="0"
       stroke-dasharray="none"
       stroke-miterlimit="10.433"
       stroke-linejoin="miter"
       stroke-linecap="butt"
       stroke="black"
       xml:space="preserve"
       transform="matrix(1.2,0,0,-1.2,76.505406,1744.3277)"
       id="g6260"><path
         id="path6262"
         fill="black"
         stroke-width="0"
         d="M224.34,713.45 L224.36,713.45 L224.39,713.45 L224.44,713.44 L224.48,713.43 L224.52,713.42 L224.56,713.42 L224.6,713.41 L224.63,713.4 L224.67,713.39 L224.7,713.38 L224.73,713.38 L224.75,713.37 L224.78,713.35 L224.8,713.34 L224.82,713.33 L224.84,713.32 L224.86,713.3 L224.88,713.28 L224.9,713.27 L224.91,713.25 L224.93,713.22 L224.94,713.2 L224.96,713.18 L224.97,713.15 L224.98,713.12 L225,713.09 L225.01,713.05 L225.02,713.02 L225.03,712.98 L225.05,712.94 L225.06,712.89 L225.07,712.87 L225.08,712.85 L225.09,712.82 L225.09,712.8 L225.86,710.12 L225.25,708.02 C225.08,707.48,224.87,707.32,224.21,707.28 V707.12 H227.08 V707.28 C226.92,707.29,226.79,707.3,226.73,707.31 C226.34,707.33,226.2,707.43,226.2,707.68 C226.2,707.89,226.27,708.19,226.51,708.96 C226.54,709.05,226.56,709.12,226.57,709.16 L226.85,710.16 L229.03,712.85 C229.35,713.24,229.43,713.31,229.73,713.45 V713.61 H227.85 V713.45 C227.97,713.44,228.08,713.43,228.12,713.42 C228.41,713.39,228.54,713.31,228.54,713.15 C228.54,712.88,228.08,712.23,227.04,711.03 C226.87,710.83,226.82,710.75,226.66,710.57 C226.55,711.01,226.52,711.14,226.36,711.66 C226.11,712.52,226,712.95,226,713.09 C226,713.33,226.12,713.39,226.71,713.45 V713.61 H224.34 Z " /><polygon
         id="polygon6264"
         fill="black"
         stroke-width="0"
         points="238.22,710.4 238.22,710.96 233.12,710.96 233.12,710.4 " /><polygon
         id="polygon6266"
         fill="black"
         stroke-width="0"
         points="238.22,708.39 238.22,708.94 233.12,708.94 233.12,708.39 " /><line
         id="line6268"
         stroke-width="0.558"
         y2="715.59"
         x2="247.95"
         y1="715.59"
         x1="241.61" /><path
         id="path6270"
         fill="black"
         stroke-width="0"
         d="M247.47,707.28 L247.42,707.29 L247.37,707.29 L247.32,707.3 L247.28,707.31 L247.24,707.31 L247.2,707.32 L247.16,707.33 L247.13,707.34 L247.1,707.35 L247.07,707.36 L247.04,707.37 L247.01,707.39 L246.99,707.4 L246.97,707.42 L246.95,707.44 L246.93,707.46 L246.91,707.48 L246.89,707.51 L246.88,707.53 L246.86,707.56 L246.85,707.59 L246.83,707.63 L246.82,707.67 L246.81,707.71 L246.79,707.75 L246.78,707.79 L246.77,707.84 L246.76,707.9 L246.75,707.92 L246.75,707.95 L246.74,707.98 L246.74,708.01 L246.73,708.04 L246.72,708.07 L246.72,708.1 L246.71,708.14 L245.78,713.76 H245.52 L242.63,708.79 C241.85,707.47,241.75,707.36,241.35,707.28 V707.12 H243.21 V707.28 C242.7,707.33,242.62,707.38,242.62,707.63 C242.62,707.82,242.65,707.91,242.82,708.25 L243.39,709.37 H245.58 L245.53,709.73 H243.6 L245.09,712.31 L245.53,709.73 L245.58,709.37 L245.78,708.07 C245.79,707.98,245.8,707.89,245.8,707.81 C245.8,707.43,245.66,707.34,245.02,707.28 V707.12 H247.47 Z " /></g>  </g>
</svg>
