<?xml version="1.0" encoding="UTF-8" standalone="no"?>
<!-- Created with Inkscape (http://www.inkscape.org/) -->

<svg
   xmlns:ns0="http://www.iki.fi/pav/software/textext/"
   xmlns:dc="http://purl.org/dc/elements/1.1/"
   xmlns:cc="http://creativecommons.org/ns#"
   xmlns:rdf="http://www.w3.org/1999/02/22-rdf-syntax-ns#"
   xmlns:svg="http://www.w3.org/2000/svg"
   xmlns="http://www.w3.org/2000/svg"
   xmlns:sodipodi="http://sodipodi.sourceforge.net/DTD/sodipodi-0.dtd"
   xmlns:inkscape="http://www.inkscape.org/namespaces/inkscape"
   width="496.06299"
   height="354.33069"
   id="svg2"
   version="1.1"
   inkscape:version="0.48.4 r9939"
   sodipodi:docname="div55.svg">
  <sodipodi:namedview
     id="base"
     pagecolor="#ffffff"
     bordercolor="#666666"
     borderopacity="1.0"
     inkscape:pageopacity="0.0"
     inkscape:pageshadow="2"
     inkscape:zoom="1.4036193"
     inkscape:cx="216.13467"
     inkscape:cy="189.63762"
     inkscape:document-units="cm"
     inkscape:current-layer="layer1"
     showgrid="false"
     units="cm"
     inkscape:object-nodes="true"
     inkscape:window-width="1366"
     inkscape:window-height="744"
     inkscape:window-x="0"
     inkscape:window-y="24"
     inkscape:window-maximized="1">
    <inkscape:grid
       type="xygrid"
       id="grid2985"
       empspacing="5"
       visible="true"
       enabled="true"
       snapvisiblegridlinesonly="true" />
  </sodipodi:namedview>
  <defs
     id="defs4">
    <marker
       inkscape:stockid="Arrow1Mstart"
       orient="auto"
       refY="0"
       refX="0"
       id="Arrow1Mstart"
       style="overflow:visible">
      <path
         inkscape:connector-curvature="0"
         id="path3775"
         d="M 0,0 5,-5 -12.5,0 5,5 0,0 z"
         style="fill-rule:evenodd;stroke:#000000;stroke-width:1pt"
         transform="matrix(0.4,0,0,0.4,4,0)" />
    </marker>
    <marker
       inkscape:stockid="Arrow1Mend"
       orient="auto"
       refY="0"
       refX="0"
       id="Arrow1Mend"
       style="overflow:visible">
      <path
         inkscape:connector-curvature="0"
         id="path3778"
         d="M 0,0 5,-5 -12.5,0 5,5 0,0 z"
         style="fill-rule:evenodd;stroke:#000000;stroke-width:1pt"
         transform="matrix(-0.4,0,0,-0.4,-4,0)" />
    </marker>
    <marker
       style="overflow:visible"
       id="Arrow1Mstart-7"
       refX="0"
       refY="0"
       orient="auto"
       inkscape:stockid="Arrow1Mstart">
      <path
         transform="matrix(0.4,0,0,0.4,4,0)"
         style="fill-rule:evenodd;stroke:#000000;stroke-width:1pt"
         d="M 0,0 5,-5 -12.5,0 5,5 0,0 z"
         id="path3775-8"
         inkscape:connector-curvature="0" />
    </marker>
  </defs>
  <metadata
     id="metadata7">
    <rdf:RDF>
      <cc:Work
         rdf:about="">
        <dc:format>image/svg+xml</dc:format>
        <dc:type
           rdf:resource="http://purl.org/dc/dcmitype/StillImage" />
        <dc:title></dc:title>
      </cc:Work>
    </rdf:RDF>
  </metadata>
  <g
     inkscape:label="Layer 1"
     inkscape:groupmode="layer"
     id="layer1"
     transform="translate(0,-698.03016)">
    <path
       style="fill:none;stroke:#000000;stroke-width:1.20000005;stroke-linecap:square;stroke-linejoin:round;stroke-miterlimit:4;stroke-opacity:1;stroke-dasharray:none;stroke-dashoffset:0"
       d="m 100,198.21587 0,-43.88518 37.14953,0"
       id="path4989"
       inkscape:connector-curvature="0"
       transform="translate(0,698.03016)"
       sodipodi:nodetypes="ccc" />
    <text
       xml:space="preserve"
       style="font-size:12px;font-style:normal;font-variant:normal;font-weight:normal;font-stretch:normal;text-align:start;line-height:150%;letter-spacing:0px;word-spacing:0px;text-anchor:start;fill:#000000;fill-opacity:1;stroke:none;font-family:LMRoman12;-inkscape-font-specification:Sans"
       x="90.808372"
       y="847.36084"
       id="text5777"
       sodipodi:linespacing="150%"><tspan
         sodipodi:role="line"
         id="tspan5779"
         x="90.808372"
         y="847.36084"
         dx="0 0 0 2.203326">   0  1</tspan><tspan
         sodipodi:role="line"
         x="90.808372"
         y="865.36084"
         id="tspan5781">0  0  0</tspan><tspan
         sodipodi:role="line"
         x="90.808372"
         y="883.36084"
         id="tspan5783">1  0  1</tspan></text>
    <path
       style="fill:none;stroke:#000000;stroke-width:1.20000005;stroke-linecap:square;stroke-linejoin:round;stroke-miterlimit:4;stroke-opacity:1;stroke-dasharray:none;stroke-dashoffset:0"
       d="m 100,154.33069 -20,-25"
       id="path5785"
       inkscape:connector-curvature="0"
       transform="translate(0,698.03016)" />
    <g
       style="font-style:normal;font-variant:normal;font-weight:normal;font-stretch:normal;letter-spacing:normal;word-spacing:normal;text-anchor:start;fill:none;stroke:#000000;stroke-width:1;stroke-linecap:butt;stroke-linejoin:miter;stroke-miterlimit:10.43299961;stroke-opacity:1;stroke-dasharray:none;stroke-dashoffset:0"
       id="content"
       transform="matrix(1.2,0,0,-1.2,-197.18131,1669.211)"
       xml:space="preserve"
       stroke-miterlimit="10.433"
       font-style="normal"
       font-variant="normal"
       font-weight="normal"
       font-stretch="normal"
       font-size-adjust="none"
       letter-spacing="normal"
       word-spacing="normal"
       ns0:text="$x \\cdot y$"
       ns0:preamble="/home/sriranga/Desktop/Prism_BasicElectronics/preamble.tex"><path
         style="fill:#000000;stroke-width:0"
         inkscape:connector-curvature="0"
         d="m 227.93,708.23 -0.01,-0.02 -0.02,-0.01 -0.01,-0.02 -0.02,-0.02 -0.01,-0.01 -0.01,-0.02 -0.01,-0.01 -0.02,-0.02 -0.01,-0.01 -0.01,-0.02 -0.01,-0.01 -0.02,-0.02 -0.01,-0.01 0,-0.01 -0.01,-0.01 -0.01,-0.01 0,-0.01 -0.01,-0.01 -0.01,-0.01 -0.01,-0.01 c -0.23,-0.3 -0.35,-0.4 -0.46,-0.4 -0.15,0 -0.24,0.13 -0.3,0.41 -0.02,0.08 -0.04,0.14 -0.05,0.17 -0.24,1 -0.35,1.46 -0.35,1.61 0.43,0.76 0.79,1.2 0.97,1.2 0.06,0 0.14,-0.03 0.24,-0.08 0.12,-0.07 0.19,-0.09 0.27,-0.09 0.21,0 0.35,0.15 0.35,0.36 0,0.21 -0.17,0.37 -0.41,0.37 -0.44,0 -0.82,-0.36 -1.5,-1.42 l -0.11,0.54 c -0.14,0.68 -0.25,0.88 -0.52,0.88 -0.22,0 -0.56,-0.09 -1.16,-0.29 l -0.11,-0.04 0.04,-0.15 c 0.38,0.09 0.46,0.11 0.55,0.11 0.25,0 0.31,-0.09 0.45,-0.69 l 0.29,-1.22 -0.82,-1.16 c -0.2,-0.3 -0.39,-0.48 -0.5,-0.48 -0.06,0 -0.16,0.03 -0.26,0.09 -0.13,0.07 -0.24,0.1 -0.32,0.1 -0.19,0 -0.34,-0.15 -0.34,-0.35 0,-0.26 0.2,-0.41 0.5,-0.41 0.31,0 0.43,0.08 0.92,0.69 0.27,0.32 0.48,0.59 0.9,1.16 l 0.3,-1.19 c 0.13,-0.51 0.26,-0.66 0.57,-0.66 0.38,0 0.64,0.23 1.22,1.13 z"
         id="path5806" /><path
         style="fill:#000000;stroke-width:0"
         inkscape:connector-curvature="0"
         d="m 232.4,709.68 0,0.03 0,0.03 -0.01,0.02 0,0.03 -0.01,0.03 -0.01,0.02 -0.01,0.03 -0.01,0.03 -0.01,0.02 -0.01,0.03 -0.01,0.02 -0.02,0.02 -0.02,0.02 -0.01,0.03 -0.02,0.02 -0.02,0.02 -0.02,0.02 -0.02,0.01 -0.02,0.02 -0.02,0.02 -0.02,0.01 -0.03,0.01 -0.02,0.02 -0.03,0.01 -0.02,0.01 -0.03,0.01 -0.02,0.01 -0.03,0 -0.03,0.01 -0.02,0 -0.03,0 -0.03,0 c -0.3,0 -0.55,-0.24 -0.55,-0.56 0,-0.38 0.34,-0.54 0.55,-0.54 0.21,0 0.56,0.17 0.56,0.54 z"
         id="path5808" /><path
         style="fill:#000000;stroke-width:0"
         inkscape:connector-curvature="0"
         d="m 235.45,711.1 0.01,0 0.01,0 0.02,0.01 0.01,0 0.01,0 0.01,0 0.01,0.01 0.01,0 0.02,0 0.02,0 0.02,0.01 0.01,0 0.02,0 0.02,0 0.02,0 0.01,0.01 0.02,0 0.02,0 0.02,0 0.01,0 0.01,0 c 0.57,0 0.72,-0.25 1.17,-1.96 0.17,-0.64 0.41,-1.81 0.41,-1.98 0,-0.15 -0.06,-0.31 -0.21,-0.49 -0.31,-0.41 -0.51,-0.67 -0.61,-0.79 -0.21,-0.22 -0.33,-0.3 -0.46,-0.3 -0.06,0 -0.13,0.04 -0.24,0.11 -0.15,0.12 -0.26,0.17 -0.37,0.17 -0.22,0 -0.39,-0.17 -0.39,-0.38 0,-0.25 0.22,-0.44 0.51,-0.44 0.64,0 1.94,1.49 3.02,3.46 0.67,1.22 0.95,1.93 0.95,2.42 0,0.3 -0.25,0.55 -0.55,0.55 -0.23,0 -0.39,-0.15 -0.39,-0.37 0,-0.15 0.08,-0.26 0.28,-0.39 0.19,-0.11 0.26,-0.2 0.26,-0.34 0,-0.39 -0.37,-1.17 -1.21,-2.57 l -0.2,1.15 c -0.15,0.88 -0.71,2.52 -0.86,2.52 h -0.04 c -0.01,-0.01 -0.05,-0.01 -0.09,-0.01 -0.09,-0.01 -0.44,-0.07 -0.97,-0.17 -0.05,-0.01 -0.18,-0.04 -0.32,-0.06 z"
         id="path5810" /></g>    <g
       style="font-style:normal;font-variant:normal;font-weight:normal;font-stretch:normal;letter-spacing:normal;word-spacing:normal;text-anchor:start;fill:none;stroke:#000000;stroke-width:1;stroke-linecap:butt;stroke-linejoin:miter;stroke-miterlimit:10.43299961;stroke-opacity:1;stroke-dasharray:none;stroke-dashoffset:0"
       ns0:preamble="/home/sriranga/Desktop/Prism_BasicElectronics/preamble.tex"
       ns0:text="$y$"
       text-anchor="start"
       word-spacing="normal"
       letter-spacing="normal"
       font-size-adjust="none"
       font-stretch="normal"
       font-weight="normal"
       font-variant="normal"
       font-style="normal"
       fill-opacity="1"
       fill-rule="evenodd"
       fill="none"
       stroke-opacity="1"
       stroke-dashoffset="0"
       stroke-dasharray="none"
       stroke-miterlimit="10.433"
       stroke-linejoin="miter"
       stroke-linecap="butt"
       stroke="black"
       xml:space="preserve"
       transform="matrix(1.2,0,0,-1.2,-154.07845,1680.6101)"
       id="g5862"><path
         id="path5864"
         fill="black"
         stroke-width="0"
         d="M223.58,711.1 L223.59,711.1 L223.6,711.1 L223.62,711.11 L223.63,711.11 L223.64,711.11 L223.65,711.11 L223.66,711.12 L223.67,711.12 L223.69,711.12 L223.71,711.12 L223.73,711.13 L223.74,711.13 L223.76,711.13 L223.78,711.13 L223.8,711.13 L223.81,711.14 L223.83,711.14 L223.85,711.14 L223.87,711.14 L223.88,711.14 L223.89,711.14 C224.46,711.14,224.61,710.89,225.06,709.18 C225.23,708.54,225.47,707.37,225.47,707.2 C225.47,707.05,225.41,706.89,225.26,706.71 C224.95,706.3,224.76,706.04,224.65,705.92 C224.44,705.7,224.32,705.62,224.19,705.62 C224.13,705.62,224.06,705.66,223.95,705.73 C223.8,705.85,223.69,705.9,223.58,705.9 C223.36,705.9,223.19,705.73,223.19,705.52 C223.19,705.27,223.41,705.08,223.7,705.08 C224.34,705.08,225.64,706.57,226.71,708.54 C227.39,709.76,227.67,710.47,227.67,710.96 C227.67,711.26,227.42,711.51,227.12,711.51 C226.89,711.51,226.74,711.36,226.74,711.14 C226.74,710.99,226.82,710.88,227.01,710.75 C227.2,710.64,227.27,710.55,227.27,710.41 C227.27,710.02,226.9,709.24,226.06,707.84 L225.86,708.99 C225.71,709.87,225.15,711.51,225,711.51 H224.96 C224.95,711.5,224.91,711.5,224.88,711.5 C224.79,711.49,224.43,711.43,223.9,711.33 C223.85,711.32,223.72,711.29,223.58,711.27 Z " /></g>    <g
       id="g5916"
       transform="matrix(1.2,0,0,-1.2,-191.10583,1720.6601)"
       xml:space="preserve"
       stroke-miterlimit="10.433"
       font-style="normal"
       font-variant="normal"
       font-weight="normal"
       font-stretch="normal"
       font-size-adjust="none"
       letter-spacing="normal"
       word-spacing="normal"
       ns0:text="$x$"
       ns0:preamble="/home/sriranga/Desktop/Prism_BasicElectronics/preamble.tex"
       style="font-style:normal;font-variant:normal;font-weight:normal;font-stretch:normal;letter-spacing:normal;word-spacing:normal;text-anchor:start;fill:none;stroke:#000000;stroke-width:1;stroke-linecap:butt;stroke-linejoin:miter;stroke-miterlimit:10.43299961;stroke-opacity:1;stroke-dasharray:none;stroke-dashoffset:0"><path
         style="fill:#000000;stroke-width:0"
         inkscape:connector-curvature="0"
         d="m 227.93,708.23 -0.01,-0.02 -0.02,-0.01 -0.01,-0.02 -0.02,-0.02 -0.01,-0.01 -0.01,-0.02 -0.01,-0.01 -0.02,-0.02 -0.01,-0.01 -0.01,-0.02 -0.01,-0.01 -0.02,-0.02 -0.01,-0.01 0,-0.01 -0.01,-0.01 -0.01,-0.01 0,-0.01 -0.01,-0.01 -0.01,-0.01 -0.01,-0.01 c -0.23,-0.3 -0.35,-0.4 -0.46,-0.4 -0.15,0 -0.24,0.13 -0.3,0.41 -0.02,0.08 -0.04,0.14 -0.05,0.17 -0.24,1 -0.35,1.46 -0.35,1.61 0.43,0.76 0.79,1.2 0.97,1.2 0.06,0 0.14,-0.03 0.24,-0.08 0.12,-0.07 0.19,-0.09 0.27,-0.09 0.21,0 0.35,0.15 0.35,0.36 0,0.21 -0.17,0.37 -0.41,0.37 -0.44,0 -0.82,-0.36 -1.5,-1.42 l -0.11,0.54 c -0.14,0.68 -0.25,0.88 -0.52,0.88 -0.22,0 -0.56,-0.09 -1.16,-0.29 l -0.11,-0.04 0.04,-0.15 c 0.38,0.09 0.46,0.11 0.55,0.11 0.25,0 0.31,-0.09 0.45,-0.69 l 0.29,-1.22 -0.82,-1.16 c -0.2,-0.3 -0.39,-0.48 -0.5,-0.48 -0.06,0 -0.16,0.03 -0.26,0.09 -0.13,0.07 -0.24,0.1 -0.32,0.1 -0.19,0 -0.34,-0.15 -0.34,-0.35 0,-0.26 0.2,-0.41 0.5,-0.41 0.31,0 0.43,0.08 0.92,0.69 0.27,0.32 0.48,0.59 0.9,1.16 l 0.3,-1.19 c 0.13,-0.51 0.26,-0.66 0.57,-0.66 0.38,0 0.64,0.23 1.22,1.13 z"
         id="path5918" /></g>    <path
       sodipodi:nodetypes="ccc"
       inkscape:connector-curvature="0"
       id="path5944"
       d="m 260,896.24603 0,-43.88518 37.14953,0"
       style="fill:none;stroke:#000000;stroke-width:1.20000005;stroke-linecap:square;stroke-linejoin:round;stroke-miterlimit:4;stroke-opacity:1;stroke-dasharray:none;stroke-dashoffset:0" />
    <text
       sodipodi:linespacing="150%"
       id="text5946"
       y="847.36084"
       x="250.80838"
       style="font-size:12px;font-style:normal;font-variant:normal;font-weight:normal;font-stretch:normal;text-align:start;line-height:150%;letter-spacing:0px;word-spacing:0px;text-anchor:start;fill:#000000;fill-opacity:1;stroke:none;font-family:LMRoman12;-inkscape-font-specification:Sans"
       xml:space="preserve"><tspan
         dx="0 0 0 2.203326"
         y="847.36084"
         x="250.80838"
         id="tspan5948"
         sodipodi:role="line">   0  1</tspan><tspan
         id="tspan5950"
         y="865.36084"
         x="250.80838"
         sodipodi:role="line">0  0  1</tspan><tspan
         id="tspan5952"
         y="883.36084"
         x="250.80838"
         sodipodi:role="line">1  1  1</tspan></text>
    <path
       inkscape:connector-curvature="0"
       id="path5954"
       d="m 260,852.36085 -20,-25"
       style="fill:none;stroke:#000000;stroke-width:1.20000005;stroke-linecap:square;stroke-linejoin:round;stroke-miterlimit:4;stroke-opacity:1;stroke-dasharray:none;stroke-dashoffset:0" />
    <g
       id="g5964"
       transform="matrix(1.2,0,0,-1.2,5.92155,1680.6101)"
       xml:space="preserve"
       stroke-miterlimit="10.433"
       font-style="normal"
       font-variant="normal"
       font-weight="normal"
       font-stretch="normal"
       font-size-adjust="none"
       letter-spacing="normal"
       word-spacing="normal"
       ns0:text="$y$"
       ns0:preamble="/home/sriranga/Desktop/Prism_BasicElectronics/preamble.tex"
       style="font-style:normal;font-variant:normal;font-weight:normal;font-stretch:normal;letter-spacing:normal;word-spacing:normal;text-anchor:start;fill:none;stroke:#000000;stroke-width:1;stroke-linecap:butt;stroke-linejoin:miter;stroke-miterlimit:10.43299961;stroke-opacity:1;stroke-dasharray:none;stroke-dashoffset:0"><path
         style="fill:#000000;stroke-width:0"
         inkscape:connector-curvature="0"
         d="m 223.58,711.1 0.01,0 0.01,0 0.02,0.01 0.01,0 0.01,0 0.01,0 0.01,0.01 0.01,0 0.02,0 0.02,0 0.02,0.01 0.01,0 0.02,0 0.02,0 0.02,0 0.01,0.01 0.02,0 0.02,0 0.02,0 0.01,0 0.01,0 c 0.57,0 0.72,-0.25 1.17,-1.96 0.17,-0.64 0.41,-1.81 0.41,-1.98 0,-0.15 -0.06,-0.31 -0.21,-0.49 -0.31,-0.41 -0.5,-0.67 -0.61,-0.79 -0.21,-0.22 -0.33,-0.3 -0.46,-0.3 -0.06,0 -0.13,0.04 -0.24,0.11 -0.15,0.12 -0.26,0.17 -0.37,0.17 -0.22,0 -0.39,-0.17 -0.39,-0.38 0,-0.25 0.22,-0.44 0.51,-0.44 0.64,0 1.94,1.49 3.01,3.46 0.68,1.22 0.96,1.93 0.96,2.42 0,0.3 -0.25,0.55 -0.55,0.55 -0.23,0 -0.38,-0.15 -0.38,-0.37 0,-0.15 0.08,-0.26 0.27,-0.39 0.19,-0.11 0.26,-0.2 0.26,-0.34 0,-0.39 -0.37,-1.17 -1.21,-2.57 l -0.2,1.15 c -0.15,0.88 -0.71,2.52 -0.86,2.52 h -0.04 c -0.01,-0.01 -0.05,-0.01 -0.08,-0.01 -0.09,-0.01 -0.45,-0.07 -0.98,-0.17 -0.05,-0.01 -0.18,-0.04 -0.32,-0.06 z"
         id="path5966" /></g>    <g
       style="font-style:normal;font-variant:normal;font-weight:normal;font-stretch:normal;letter-spacing:normal;word-spacing:normal;text-anchor:start;fill:none;stroke:#000000;stroke-width:1;stroke-linecap:butt;stroke-linejoin:miter;stroke-miterlimit:10.43299961;stroke-opacity:1;stroke-dasharray:none;stroke-dashoffset:0"
       ns0:preamble="/home/sriranga/Desktop/Prism_BasicElectronics/preamble.tex"
       ns0:text="$x$"
       word-spacing="normal"
       letter-spacing="normal"
       font-size-adjust="none"
       font-stretch="normal"
       font-weight="normal"
       font-variant="normal"
       font-style="normal"
       stroke-miterlimit="10.433"
       xml:space="preserve"
       transform="matrix(1.2,0,0,-1.2,-31.10583,1720.6601)"
       id="g5968"><path
         id="path5970"
         d="m 227.93,708.23 -0.01,-0.02 -0.02,-0.01 -0.01,-0.02 -0.02,-0.02 -0.01,-0.01 -0.01,-0.02 -0.01,-0.01 -0.02,-0.02 -0.01,-0.01 -0.01,-0.02 -0.01,-0.01 -0.02,-0.02 -0.01,-0.01 0,-0.01 -0.01,-0.01 -0.01,-0.01 0,-0.01 -0.01,-0.01 -0.01,-0.01 -0.01,-0.01 c -0.23,-0.3 -0.35,-0.4 -0.46,-0.4 -0.15,0 -0.24,0.13 -0.3,0.41 -0.02,0.08 -0.04,0.14 -0.05,0.17 -0.24,1 -0.35,1.46 -0.35,1.61 0.43,0.76 0.79,1.2 0.97,1.2 0.06,0 0.14,-0.03 0.24,-0.08 0.12,-0.07 0.19,-0.09 0.27,-0.09 0.21,0 0.35,0.15 0.35,0.36 0,0.21 -0.17,0.37 -0.41,0.37 -0.44,0 -0.82,-0.36 -1.5,-1.42 l -0.11,0.54 c -0.14,0.68 -0.25,0.88 -0.52,0.88 -0.22,0 -0.56,-0.09 -1.16,-0.29 l -0.11,-0.04 0.04,-0.15 c 0.38,0.09 0.46,0.11 0.55,0.11 0.25,0 0.31,-0.09 0.45,-0.69 l 0.29,-1.22 -0.82,-1.16 c -0.2,-0.3 -0.39,-0.48 -0.5,-0.48 -0.06,0 -0.16,0.03 -0.26,0.09 -0.13,0.07 -0.24,0.1 -0.32,0.1 -0.19,0 -0.34,-0.15 -0.34,-0.35 0,-0.26 0.2,-0.41 0.5,-0.41 0.31,0 0.43,0.08 0.92,0.69 0.27,0.32 0.48,0.59 0.9,1.16 l 0.3,-1.19 c 0.13,-0.51 0.26,-0.66 0.57,-0.66 0.38,0 0.64,0.23 1.22,1.13 z"
         inkscape:connector-curvature="0"
         style="fill:#000000;stroke-width:0" /></g>    <g
       style="font-style:normal;font-variant:normal;font-weight:normal;font-stretch:normal;letter-spacing:normal;word-spacing:normal;text-anchor:start;fill:none;stroke:#000000;stroke-width:1;stroke-linecap:butt;stroke-linejoin:miter;stroke-miterlimit:10.43299961;stroke-opacity:1;stroke-dasharray:none;stroke-dashoffset:0"
       ns0:preamble="/home/sriranga/Desktop/Prism_BasicElectronics/preamble.tex"
       ns0:text="$x + y$"
       word-spacing="normal"
       letter-spacing="normal"
       font-size-adjust="none"
       font-stretch="normal"
       font-weight="normal"
       font-variant="normal"
       font-style="normal"
       stroke-miterlimit="10.433"
       xml:space="preserve"
       transform="matrix(1.2,0,0,-1.2,-40.031086,1669.5672)"
       id="g6008"><path
         id="path6010"
         d="m 227.93,708.23 -0.01,-0.02 -0.02,-0.01 -0.01,-0.02 -0.02,-0.02 -0.01,-0.01 -0.01,-0.02 -0.01,-0.01 -0.02,-0.02 -0.01,-0.01 -0.01,-0.02 -0.01,-0.01 -0.02,-0.02 -0.01,-0.01 0,-0.01 -0.01,-0.01 -0.01,-0.01 0,-0.01 -0.01,-0.01 -0.01,-0.01 -0.01,-0.01 c -0.23,-0.3 -0.35,-0.4 -0.46,-0.4 -0.15,0 -0.24,0.13 -0.3,0.41 -0.02,0.08 -0.04,0.14 -0.05,0.17 -0.24,1 -0.35,1.46 -0.35,1.61 0.43,0.76 0.79,1.2 0.97,1.2 0.06,0 0.14,-0.03 0.24,-0.08 0.12,-0.07 0.19,-0.09 0.27,-0.09 0.21,0 0.35,0.15 0.35,0.36 0,0.21 -0.17,0.37 -0.41,0.37 -0.44,0 -0.82,-0.36 -1.5,-1.42 l -0.11,0.54 c -0.14,0.68 -0.25,0.88 -0.52,0.88 -0.22,0 -0.56,-0.09 -1.16,-0.29 l -0.11,-0.04 0.04,-0.15 c 0.38,0.09 0.46,0.11 0.55,0.11 0.25,0 0.31,-0.09 0.45,-0.69 l 0.29,-1.22 -0.82,-1.16 c -0.2,-0.3 -0.39,-0.48 -0.5,-0.48 -0.06,0 -0.16,0.03 -0.26,0.09 -0.13,0.07 -0.24,0.1 -0.32,0.1 -0.19,0 -0.34,-0.15 -0.34,-0.35 0,-0.26 0.2,-0.41 0.5,-0.41 0.31,0 0.43,0.08 0.92,0.69 0.27,0.32 0.48,0.59 0.9,1.16 l 0.3,-1.19 c 0.13,-0.51 0.26,-0.66 0.57,-0.66 0.38,0 0.64,0.23 1.22,1.13 z"
         inkscape:connector-curvature="0"
         style="fill:#000000;stroke-width:0" /><polygon
         id="polygon6012"
         points="231.21,709.96 231.21,709.4 233.48,709.4 233.48,707.12 234.04,707.12 234.04,709.4 236.31,709.4 236.31,709.96 234.04,709.96 234.04,712.2 233.48,712.2 233.48,709.96 "
         style="fill:#000000;stroke-width:0" /><path
         id="path6014"
         d="m 239.3,711.1 0.01,0 0.01,0 0.01,0.01 0.01,0 0.01,0 0.01,0 0.01,0.01 0.01,0 0.02,0 0.02,0 0.02,0.01 0.02,0 0.02,0 0.01,0 0.02,0 0.02,0.01 0.02,0 0.02,0 0.02,0 0.01,0 0.01,0 c 0.56,0 0.71,-0.25 1.17,-1.96 0.17,-0.64 0.41,-1.81 0.41,-1.98 0,-0.15 -0.06,-0.31 -0.21,-0.49 -0.31,-0.41 -0.51,-0.67 -0.62,-0.79 -0.21,-0.22 -0.33,-0.3 -0.46,-0.3 -0.06,0 -0.13,0.04 -0.24,0.11 -0.14,0.12 -0.25,0.17 -0.36,0.17 -0.22,0 -0.39,-0.17 -0.39,-0.38 0,-0.25 0.22,-0.44 0.51,-0.44 0.63,0 1.94,1.49 3.01,3.46 0.68,1.22 0.96,1.93 0.96,2.42 0,0.3 -0.25,0.55 -0.55,0.55 -0.23,0 -0.39,-0.15 -0.39,-0.37 0,-0.15 0.08,-0.26 0.28,-0.39 0.19,-0.11 0.26,-0.2 0.26,-0.34 0,-0.39 -0.37,-1.17 -1.22,-2.57 l -0.19,1.15 c -0.15,0.88 -0.71,2.52 -0.86,2.52 h -0.04 c -0.01,-0.01 -0.05,-0.01 -0.09,-0.01 -0.09,-0.01 -0.45,-0.07 -0.97,-0.17 -0.05,-0.01 -0.18,-0.04 -0.32,-0.06 z"
         inkscape:connector-curvature="0"
         style="fill:#000000;stroke-width:0" /></g>  </g>
</svg>
