<?xml version="1.0" encoding="UTF-8" standalone="no"?>
<!-- Created with Inkscape (http://www.inkscape.org/) -->

<svg
   xmlns:ns0="http://www.iki.fi/pav/software/textext/"
   xmlns:dc="http://purl.org/dc/elements/1.1/"
   xmlns:cc="http://creativecommons.org/ns#"
   xmlns:rdf="http://www.w3.org/1999/02/22-rdf-syntax-ns#"
   xmlns:svg="http://www.w3.org/2000/svg"
   xmlns="http://www.w3.org/2000/svg"
   xmlns:sodipodi="http://sodipodi.sourceforge.net/DTD/sodipodi-0.dtd"
   xmlns:inkscape="http://www.inkscape.org/namespaces/inkscape"
   width="496.06299"
   height="354.33069"
   id="svg2"
   version="1.1"
   inkscape:version="0.48.4 r9939"
   sodipodi:docname="figP5.72.svg">
  <sodipodi:namedview
     id="base"
     pagecolor="#ffffff"
     bordercolor="#666666"
     borderopacity="1.0"
     inkscape:pageopacity="0.0"
     inkscape:pageshadow="2"
     inkscape:zoom="1.6848668"
     inkscape:cx="170.44222"
     inkscape:cy="158.62911"
     inkscape:document-units="cm"
     inkscape:current-layer="layer1"
     showgrid="false"
     units="cm"
     inkscape:object-nodes="true"
     inkscape:window-width="1366"
     inkscape:window-height="744"
     inkscape:window-x="0"
     inkscape:window-y="24"
     inkscape:window-maximized="1">
    <inkscape:grid
       snapvisiblegridlinesonly="true"
       enabled="true"
       visible="true"
       empspacing="5"
       id="grid2985"
       type="xygrid" />
  </sodipodi:namedview>
  <defs
     id="defs4">
    <marker
       style="overflow:visible"
       id="Arrow1Mstart"
       refX="0"
       refY="0"
       orient="auto"
       inkscape:stockid="Arrow1Mstart">
      <path
         transform="matrix(0.4,0,0,0.4,4,0)"
         style="fill-rule:evenodd;stroke:#000000;stroke-width:1pt"
         d="M 0,0 5,-5 -12.5,0 5,5 0,0 z"
         id="path3775"
         inkscape:connector-curvature="0" />
    </marker>
    <marker
       style="overflow:visible"
       id="Arrow1Mend"
       refX="0"
       refY="0"
       orient="auto"
       inkscape:stockid="Arrow1Mend">
      <path
         transform="matrix(-0.4,0,0,-0.4,-4,0)"
         style="fill-rule:evenodd;stroke:#000000;stroke-width:1pt"
         d="M 0,0 5,-5 -12.5,0 5,5 0,0 z"
         id="path3778"
         inkscape:connector-curvature="0" />
    </marker>
    <marker
       inkscape:stockid="Arrow1Mstart"
       orient="auto"
       refY="0"
       refX="0"
       id="Arrow1Mstart-7"
       style="overflow:visible">
      <path
         inkscape:connector-curvature="0"
         id="path3775-8"
         d="M 0,0 5,-5 -12.5,0 5,5 0,0 z"
         style="fill-rule:evenodd;stroke:#000000;stroke-width:1pt"
         transform="matrix(0.4,0,0,0.4,4,0)" />
    </marker>
    <marker
       inkscape:stockid="Arrow1Mend"
       orient="auto"
       refY="0"
       refX="0"
       id="Arrow1Mend-5"
       style="overflow:visible">
      <path
         inkscape:connector-curvature="0"
         id="path3778-9"
         d="M 0,0 5,-5 -12.5,0 5,5 0,0 z"
         style="fill-rule:evenodd;stroke:#000000;stroke-width:1pt"
         transform="matrix(-0.4,0,0,-0.4,-4,0)" />
    </marker>
    <marker
       inkscape:stockid="Arrow1Mstart"
       orient="auto"
       refY="0"
       refX="0"
       id="Arrow1Mstart-2"
       style="overflow:visible">
      <path
         inkscape:connector-curvature="0"
         id="path3775-1"
         d="M 0,0 5,-5 -12.5,0 5,5 0,0 z"
         style="fill-rule:evenodd;stroke:#000000;stroke-width:1pt"
         transform="matrix(0.4,0,0,0.4,4,0)" />
    </marker>
    <marker
       style="overflow:visible"
       id="Arrow1Mstart-7-5"
       refX="0"
       refY="0"
       orient="auto"
       inkscape:stockid="Arrow1Mstart">
      <path
         transform="matrix(0.4,0,0,0.4,4,0)"
         style="fill-rule:evenodd;stroke:#000000;stroke-width:1pt"
         d="M 0,0 5,-5 -12.5,0 5,5 0,0 z"
         id="path3775-8-6"
         inkscape:connector-curvature="0" />
    </marker>
    <marker
       inkscape:stockid="Arrow1Mend"
       orient="auto"
       refY="0"
       refX="0"
       id="Arrow1Mend-51"
       style="overflow:visible">
      <path
         inkscape:connector-curvature="0"
         id="path3778-4"
         d="M 0,0 5,-5 -12.5,0 5,5 0,0 z"
         style="fill-rule:evenodd;stroke:#000000;stroke-width:1pt"
         transform="matrix(-0.4,0,0,-0.4,-4,0)" />
    </marker>
    <marker
       inkscape:stockid="Arrow1Mstart"
       orient="auto"
       refY="0"
       refX="0"
       id="Arrow1Mstart-4"
       style="overflow:visible">
      <path
         inkscape:connector-curvature="0"
         id="path3775-6"
         d="M 0,0 5,-5 -12.5,0 5,5 0,0 z"
         style="fill-rule:evenodd;stroke:#000000;stroke-width:1pt"
         transform="matrix(0.4,0,0,0.4,4,0)" />
    </marker>
  </defs>
  <metadata
     id="metadata7">
    <rdf:RDF>
      <cc:Work
         rdf:about="">
        <dc:format>image/svg+xml</dc:format>
        <dc:type
           rdf:resource="http://purl.org/dc/dcmitype/StillImage" />
        <dc:title></dc:title>
      </cc:Work>
    </rdf:RDF>
  </metadata>
  <g
     transform="translate(0,-698.03016)"
     id="layer1"
     inkscape:groupmode="layer"
     inkscape:label="Layer 1">
    <text
       xml:space="preserve"
       style="font-size:12px;font-style:normal;font-variant:normal;font-weight:normal;font-stretch:normal;text-align:start;line-height:100%;letter-spacing:0px;word-spacing:0px;text-anchor:start;fill:#000000;fill-opacity:1;stroke:none;font-family:LMRoman12;-inkscape-font-specification:Sans"
       x="104.74892"
       y="653.59326"
       id="text5818"
       sodipodi:linespacing="100%"><tspan
         sodipodi:role="line"
         id="tspan5820"
         x="104.74892"
         y="653.59326" /></text>
    <flowRoot
       transform="translate(43.048363,-100.4773)"
       style="font-size:12px;font-style:normal;font-variant:normal;font-weight:normal;font-stretch:normal;text-align:start;line-height:100%;letter-spacing:0px;word-spacing:0px;text-anchor:start;fill:#000000;fill-opacity:1;stroke:none;font-family:LMRoman12;-inkscape-font-specification:Sans"
       id="flowRoot6377"
       xml:space="preserve"><flowRegion
         id="flowRegion6379"><rect
           y="87.141403"
           x="219.34796"
           height="40.319103"
           width="27.681772"
           id="rect6381" /></flowRegion><flowPara
         id="flowPara6383" /></flowRoot>    <text
       sodipodi:linespacing="50%"
       id="text6385"
       y="652.80005"
       x="318.96344"
       style="font-size:12px;font-style:normal;font-variant:normal;font-weight:normal;font-stretch:normal;text-align:start;line-height:50%;letter-spacing:0px;word-spacing:0px;text-anchor:start;fill:#000000;fill-opacity:1;stroke:none;font-family:LMRoman12;-inkscape-font-specification:Sans"
       xml:space="preserve"><tspan
         id="tspan6387"
         sodipodi:role="line"
         x="318.96344"
         y="652.80005" /></text>
    <text
       sodipodi:linespacing="100%"
       id="text3884"
       y="791.93988"
       x="391.70255"
       style="font-size:12px;font-style:normal;font-variant:normal;font-weight:normal;font-stretch:normal;text-align:start;line-height:100%;letter-spacing:0px;word-spacing:0px;text-anchor:start;fill:#000000;fill-opacity:1;stroke:none;font-family:LMRoman12;-inkscape-font-specification:Sans"
       xml:space="preserve"><tspan
         id="tspan3890"
         y="791.93988"
         x="391.70255"
         sodipodi:role="line" /></text>
    <text
       sodipodi:linespacing="150%"
       id="text3887"
       y="848.4502"
       x="260.01465"
       style="font-size:12px;font-style:normal;font-variant:normal;font-weight:normal;font-stretch:normal;text-align:start;line-height:150%;letter-spacing:0px;word-spacing:0px;text-anchor:start;fill:#000000;fill-opacity:1;stroke:none;font-family:LMRoman12;-inkscape-font-specification:Sans"
       xml:space="preserve"><tspan
         y="848.4502"
         x="260.01465"
         id="tspan3889"
         sodipodi:role="line" /></text>
    <path
       transform="translate(0,700.75809)"
       sodipodi:ry="0"
       sodipodi:rx="0"
       sodipodi:cy="119.33069"
       sodipodi:cx="160"
       id="path8419"
       style="fill:#ffffff;fill-opacity:1;stroke:#000000;stroke-width:0.80000001;stroke-linecap:square;stroke-linejoin:round;stroke-miterlimit:4;stroke-opacity:1;stroke-dasharray:none;stroke-dashoffset:0"
       sodipodi:type="arc" />
    <path
       transform="translate(0,700.75809)"
       sodipodi:ry="0"
       sodipodi:rx="0"
       sodipodi:cy="119.33069"
       sodipodi:cx="160"
       id="path8421"
       style="fill:#ffffff;fill-opacity:1;stroke:#000000;stroke-width:0.80000001;stroke-linecap:square;stroke-linejoin:round;stroke-miterlimit:4;stroke-opacity:1;stroke-dasharray:none;stroke-dashoffset:0"
       sodipodi:type="arc" />
    <path
       sodipodi:type="arc"
       style="fill:#ffffff;fill-opacity:1;stroke:#000000;stroke-width:0.80000001;stroke-linecap:square;stroke-linejoin:round;stroke-miterlimit:4;stroke-opacity:1;stroke-dasharray:none;stroke-dashoffset:0"
       id="path8425"
       sodipodi:cx="160"
       sodipodi:cy="119.33069"
       sodipodi:rx="0"
       sodipodi:ry="0"
       transform="translate(0,700.75809)" />
    <path
       sodipodi:type="arc"
       style="fill:#ffffff;fill-opacity:1;stroke:#000000;stroke-width:0.80000001;stroke-linecap:square;stroke-linejoin:round;stroke-miterlimit:4;stroke-opacity:1;stroke-dasharray:none;stroke-dashoffset:0"
       id="path8415-2"
       sodipodi:cx="160"
       sodipodi:cy="119.33069"
       sodipodi:rx="0"
       sodipodi:ry="0"
       transform="translate(0,701.38761)" />
    <path
       transform="translate(0,701.38761)"
       sodipodi:ry="0"
       sodipodi:rx="0"
       sodipodi:cy="119.33069"
       sodipodi:cx="160"
       id="path8480"
       style="fill:#ffffff;fill-opacity:1;stroke:#000000;stroke-width:0.80000001;stroke-linecap:square;stroke-linejoin:round;stroke-miterlimit:4;stroke-opacity:1;stroke-dasharray:none;stroke-dashoffset:0"
       sodipodi:type="arc" />
    <g
       style="font-style:normal;font-variant:normal;font-weight:normal;font-stretch:normal;letter-spacing:normal;word-spacing:normal;text-anchor:start;fill:none;stroke:#000000;stroke-width:1;stroke-linecap:butt;stroke-linejoin:miter;stroke-miterlimit:10.43299961;stroke-opacity:1;stroke-dasharray:none;stroke-dashoffset:0"
       ns0:preamble="/home/sriranga/Desktop/Prism_BasicElectronics/preamble.tex"
       ns0:text="$A$"
       word-spacing="normal"
       letter-spacing="normal"
       font-size-adjust="none"
       font-stretch="normal"
       font-weight="normal"
       font-variant="normal"
       font-style="normal"
       stroke-miterlimit="10.433"
       xml:space="preserve"
       transform="matrix(1.2,0,0,-1.2,-213.30095,1664.1939)"
       id="g10442"><path
         id="path10444"
         d="m 229.29,707.28 -0.05,0.01 -0.05,0 -0.04,0.01 -0.05,0.01 -0.04,0 -0.04,0.01 -0.03,0.01 -0.04,0.01 -0.03,0.01 -0.03,0.01 -0.03,0.01 -0.02,0.02 -0.03,0.01 -0.02,0.02 -0.02,0.02 -0.02,0.02 -0.02,0.02 -0.02,0.03 -0.01,0.02 -0.02,0.03 -0.01,0.03 -0.02,0.04 -0.01,0.04 -0.01,0.04 -0.01,0.04 -0.01,0.04 -0.02,0.05 -0.01,0.06 0,0.02 -0.01,0.03 0,0.03 -0.01,0.03 -0.01,0.03 0,0.03 -0.01,0.03 0,0.04 -0.94,5.62 h -0.26 l -2.88,-4.97 c -0.79,-1.32 -0.89,-1.43 -1.29,-1.51 v -0.16 h 1.86 v 0.16 c -0.5,0.05 -0.58,0.1 -0.58,0.35 0,0.19 0.03,0.28 0.2,0.62 l 0.56,1.12 h 2.19 l -0.05,0.36 h -1.93 l 1.49,2.58 0.44,-2.58 0.05,-0.36 0.2,-1.3 c 0.01,-0.09 0.02,-0.18 0.02,-0.26 0,-0.38 -0.14,-0.47 -0.77,-0.53 v -0.16 h 2.44 z"
         inkscape:connector-curvature="0"
         style="fill:#000000;stroke-width:0" /></g>    <g
       id="g10638"
       transform="matrix(1.2,0,0,-1.2,-214.56,1723.7227)"
       xml:space="preserve"
       stroke-miterlimit="10.433"
       font-style="normal"
       font-variant="normal"
       font-weight="normal"
       font-stretch="normal"
       font-size-adjust="none"
       letter-spacing="normal"
       word-spacing="normal"
       ns0:text="$B$"
       ns0:preamble="/home/sriranga/Desktop/Prism_BasicElectronics/preamble.tex"
       style="font-style:normal;font-variant:normal;font-weight:normal;font-stretch:normal;letter-spacing:normal;word-spacing:normal;text-anchor:start;fill:none;stroke:#000000;stroke-width:1;stroke-linecap:butt;stroke-linejoin:miter;stroke-miterlimit:10.43299961;stroke-opacity:1;stroke-dasharray:none;stroke-dashoffset:0"><path
         style="fill:#000000;stroke-width:0"
         inkscape:connector-curvature="0"
         d="m 223.7,707.12 h 2.81 c 1.56,0 2.63,0.82 2.63,1.99 0,0.37 -0.12,0.72 -0.34,0.94 -0.19,0.22 -0.39,0.34 -0.91,0.56 0.71,0.17 0.99,0.29 1.31,0.57 0.28,0.24 0.43,0.57 0.43,0.97 0,0.94 -0.7,1.46 -1.99,1.46 l -0.18,-0.3 c 0.8,0 1.17,-0.33 1.17,-1.07 0,-0.57 -0.24,-1 -0.67,-1.24 -0.34,-0.2 -0.82,-0.27 -1.71,-0.27 l -0.1,-0.32 c 0.65,0 1.06,-0.04 1.26,-0.12 0.41,-0.17 0.66,-0.6 0.66,-1.14 0,-1.07 -0.74,-1.73 -1.95,-1.73 -0.42,0 -0.64,0.15 -0.64,0.42 0,0.12 0.12,0.6 0.35,1.39 0.13,0.45 0.19,0.68 0.32,1.18 h 0 l 0.1,0.32 0.65,2.31 c 0.06,0.21 0.17,0.27 0.56,0.27 l 0.18,0.3 h -2.57 v -0.16 c 0.62,-0.05 0.77,-0.13 0.77,-0.4 0,-0.15 -0.04,-0.4 -0.11,-0.64 l -1.22,-4.39 c -0.18,-0.58 -0.25,-0.64 -0.81,-0.74 z"
         id="path10640" /></g>    <rect
       style="fill:#ffffff;fill-opacity:1;stroke:#000000;stroke-width:1.20000005;stroke-linecap:round;stroke-linejoin:round;stroke-miterlimit:4;stroke-opacity:1;stroke-dasharray:none;stroke-dashoffset:0"
       id="rect3854"
       width="100"
       height="100"
       x="140"
       y="792.36084" />
    <path
       style="fill:#ffffff;fill-opacity:1;stroke:#000000;stroke-width:1.20000005;stroke-linecap:round;stroke-linejoin:round;stroke-miterlimit:4;stroke-opacity:1;stroke-dasharray:none;stroke-dashoffset:0;marker-end:url(#Arrow1Mend-51)"
       d="m 240,812.36085 75,0"
       id="path4672"
       inkscape:connector-curvature="0" />
    <path
       inkscape:connector-curvature="0"
       id="path4870"
       d="m 240,872.36085 75,0"
       style="fill:#ffffff;fill-opacity:1;stroke:#000000;stroke-width:1.20000005;stroke-linecap:round;stroke-linejoin:round;stroke-miterlimit:4;stroke-opacity:1;stroke-dasharray:none;stroke-dashoffset:0;marker-end:url(#Arrow1Mend-51)" />
    <path
       inkscape:connector-curvature="0"
       id="path4872"
       d="m 70,812.36085 67.92823,0"
       style="fill:#ffffff;fill-opacity:1;stroke:#000000;stroke-width:1.20000005;stroke-linecap:round;stroke-linejoin:round;stroke-miterlimit:4;stroke-opacity:1;stroke-dasharray:none;stroke-dashoffset:0;marker-end:url(#Arrow1Mend-51)" />
    <path
       style="fill:#ffffff;fill-opacity:1;stroke:#000000;stroke-width:1.20000005;stroke-linecap:round;stroke-linejoin:round;stroke-miterlimit:4;stroke-opacity:1;stroke-dasharray:none;stroke-dashoffset:0;marker-end:url(#Arrow1Mend-51)"
       d="m 70,872.36085 67.92823,0"
       id="path4874"
       inkscape:connector-curvature="0" />
    <path
       transform="translate(30.8526,0)"
       sodipodi:type="arc"
       id="path4876"
       style="fill:#000000;stroke:none"
       sodipodi:cx="40"
       sodipodi:cy="812.36084"
       sodipodi:rx="2"
       sodipodi:ry="2"
       d="m 42,812.36084 c 0,1.10457 -0.895431,2 -2,2 -1.104569,0 -2,-0.89543 -2,-2 0,-1.10457 0.895431,-2 2,-2 1.104569,0 2,0.89543 2,2 z" />
    <path
       transform="translate(30.8526,0)"
       sodipodi:type="arc"
       id="path4878"
       style="fill:#000000;stroke:none"
       sodipodi:cx="40"
       sodipodi:cy="872.36084"
       sodipodi:rx="2"
       sodipodi:ry="2"
       d="m 42,872.36084 c 0,1.10457 -0.895431,2 -2,2 -1.104569,0 -2,-0.89543 -2,-2 0,-1.10457 0.895431,-2 2,-2 1.104569,0 2,0.89543 2,2 z" />
    <text
       xml:space="preserve"
       style="font-size:12px;font-style:normal;font-variant:normal;font-weight:normal;font-stretch:normal;text-align:start;line-height:150%;letter-spacing:0px;word-spacing:0px;text-anchor:start;fill:#000000;fill-opacity:1;stroke:none;font-family:LMRoman12;-inkscape-font-specification:Sans"
       x="181.13576"
       y="846.64484"
       id="text4880"
       sodipodi:linespacing="150%"><tspan
         sodipodi:role="line"
         id="tspan4882"
         x="181.13576"
         y="846.64484">HA</tspan></text>
    <g
       id="content"
       transform="matrix(1.2,0,0,-1.2,50.274228,1664.6136)"
       xml:space="preserve"
       stroke-miterlimit="10.433"
       font-style="normal"
       font-variant="normal"
       font-weight="normal"
       font-stretch="normal"
       font-size-adjust="none"
       letter-spacing="normal"
       word-spacing="normal"
       ns0:text="$S$ (Sum)"
       ns0:preamble="/home/sriranga/Desktop/Prism_BasicElectronics/preamble.tex"
       style="font-style:normal;font-variant:normal;font-weight:normal;font-stretch:normal;letter-spacing:normal;word-spacing:normal;text-anchor:start;fill:none;stroke:#000000;stroke-width:1;stroke-linecap:butt;stroke-linejoin:miter;stroke-miterlimit:10.43299961;stroke-opacity:1;stroke-dasharray:none;stroke-dashoffset:0"><path
         style="fill:#000000;stroke-width:0"
         inkscape:connector-curvature="0"
         d="m 228.09,711.77 0.4,1.98 h -0.23 c -0.14,-0.21 -0.23,-0.26 -0.45,-0.26 -0.12,0 -0.23,0.03 -0.46,0.11 -0.22,0.09 -0.53,0.14 -0.84,0.14 -1.04,0 -1.77,-0.69 -1.77,-1.66 0,-0.53 0.14,-0.82 0.74,-1.46 0.09,-0.09 0.22,-0.23 0.39,-0.42 0.18,-0.18 0.32,-0.33 0.39,-0.41 0.47,-0.49 0.59,-0.75 0.59,-1.18 0,-0.74 -0.55,-1.32 -1.28,-1.32 -0.83,0 -1.45,0.71 -1.45,1.65 0,0.08 0.01,0.16 0.02,0.23 l -0.2,0.02 -0.34,-2.21 h 0.18 c 0.07,0.22 0.18,0.32 0.38,0.32 0.11,0 0.26,-0.04 0.52,-0.13 0.45,-0.16 0.72,-0.22 1.03,-0.22 1.14,0 2.01,0.86 2.01,1.98 0,0.65 -0.23,1.04 -1.12,1.94 -0.9,0.9 -0.99,1.04 -0.99,1.53 0,0.63 0.42,1.01 1.1,1.01 0.36,0 0.67,-0.13 0.88,-0.36 0.22,-0.25 0.3,-0.59 0.32,-1.25 z"
         id="path4941" /><path
         style="fill:#000000;stroke-width:0"
         inkscape:connector-curvature="0"
         d="m 235.41,713.84 -0.06,-0.04 -0.07,-0.05 -0.06,-0.04 -0.06,-0.04 -0.06,-0.04 -0.06,-0.04 -0.05,-0.04 -0.05,-0.03 -0.06,-0.04 -0.04,-0.04 -0.05,-0.03 -0.05,-0.04 -0.04,-0.03 -0.04,-0.04 -0.09,-0.06 -0.07,-0.07 -0.08,-0.07 -0.07,-0.07 -0.07,-0.07 -0.07,-0.07 -0.06,-0.08 -0.07,-0.08 -0.07,-0.08 c -0.71,-0.87 -1.05,-1.86 -1.05,-3.02 0,-1.26 0.36,-2.24 1.24,-3.25 0.41,-0.48 0.67,-0.7 1.18,-1.01 l 0.12,0.16 c -0.79,0.62 -1.07,0.97 -1.34,1.71 -0.24,0.67 -0.35,1.42 -0.35,2.42 0,1.04 0.13,1.86 0.4,2.47 0.28,0.62 0.58,0.97 1.29,1.55 z"
         id="path4943" /><path
         style="fill:#000000;stroke-width:0"
         inkscape:connector-curvature="0"
         d="m 240.24,713.84 h -0.21 c -0.04,-0.23 -0.15,-0.34 -0.31,-0.34 -0.1,0 -0.27,0.04 -0.44,0.12 -0.37,0.14 -0.74,0.22 -1.06,0.22 -0.43,0 -0.86,-0.17 -1.19,-0.46 -0.35,-0.3 -0.53,-0.72 -0.53,-1.24 0,-0.79 0.44,-1.35 1.55,-1.94 0.72,-0.37 1.24,-0.78 1.49,-1.16 0.09,-0.13 0.14,-0.34 0.14,-0.57 0,-0.67 -0.5,-1.13 -1.23,-1.13 -0.88,0 -1.51,0.55 -2.01,1.76 h -0.23 l 0.3,-2.1 h 0.22 c 0.01,0.18 0.13,0.32 0.28,0.32 0.11,0 0.28,-0.04 0.47,-0.11 0.37,-0.14 0.77,-0.22 1.17,-0.22 1.14,0 2.03,0.78 2.03,1.8 0,0.82 -0.55,1.46 -1.86,2.17 -1.05,0.58 -1.46,1.01 -1.46,1.55 0,0.54 0.41,0.92 1.03,0.92 0.45,0 0.87,-0.19 1.22,-0.54 0.3,-0.32 0.44,-0.58 0.6,-1.17 h 0.25 z"
         id="path4945" /><path
         style="fill:#000000;stroke-width:0"
         inkscape:connector-curvature="0"
         d="m 246.1,707.62 h -0.05 c -0.46,0 -0.57,0.11 -0.57,0.57 v 3.4 h -1.57 v -0.16 c 0.62,-0.03 0.74,-0.13 0.74,-0.63 v -2.33 c 0,-0.28 -0.05,-0.42 -0.19,-0.53 -0.27,-0.22 -0.58,-0.34 -0.88,-0.34 -0.38,0 -0.7,0.34 -0.7,0.76 v 3.23 h -1.46 v -0.13 c 0.48,-0.03 0.62,-0.18 0.62,-0.64 v -2.5 c 0,-0.79 0.48,-1.29 1.2,-1.29 0.37,0 0.76,0.15 1.03,0.42 l 0.43,0.43 v -0.83 l 0.04,-0.01 c 0.5,0.19 0.85,0.3 1.36,0.44 z"
         id="path4947" /><path
         style="fill:#000000;stroke-width:0"
         inkscape:connector-curvature="0"
         d="m 246.51,711.08 0.01,0 0.01,0 0.01,0.01 0.01,0 0.01,0 0.01,0 0.02,0.01 0.02,0 0.02,0 0.02,0.01 0.02,0 0.02,0 0.02,0 0.02,0 0.02,0.01 0.01,0 0.02,0 0.02,0 0.02,0 c 0.26,0 0.35,-0.16 0.35,-0.64 v -2.51 c 0,-0.54 -0.14,-0.69 -0.69,-0.7 v -0.15 h 2.2 v 0.15 c -0.52,0.02 -0.67,0.13 -0.67,0.52 v 2.8 c 0,0.02 0.08,0.12 0.15,0.19 0.24,0.23 0.67,0.4 1.02,0.4 0.44,0 0.66,-0.35 0.66,-1.04 v -2.16 c 0,-0.56 -0.11,-0.67 -0.68,-0.71 v -0.15 h 2.23 v 0.15 c -0.57,0.01 -0.72,0.18 -0.72,0.8 v 2.5 c 0.3,0.43 0.63,0.61 1.09,0.61 0.56,0 0.74,-0.27 0.74,-1.09 v -2.1 c 0,-0.57 -0.07,-0.65 -0.65,-0.72 v -0.15 h 2.18 v 0.15 l -0.26,0.02 c -0.3,0.02 -0.43,0.2 -0.43,0.59 v 2.05 c 0,1.17 -0.39,1.77 -1.15,1.77 -0.58,0 -1.09,-0.26 -1.63,-0.84 -0.18,0.57 -0.51,0.84 -1.05,0.84 -0.44,0 -0.72,-0.15 -1.54,-0.77 v 0.74 l -0.07,0.03 c -0.51,-0.19 -0.85,-0.3 -1.39,-0.45 z"
         id="path4949" /><path
         style="fill:#000000;stroke-width:0"
         inkscape:connector-curvature="0"
         d="m 254.45,705.37 0.06,0.04 0.07,0.04 0.06,0.05 0.06,0.04 0.06,0.04 0.06,0.03 0.05,0.04 0.05,0.04 0.05,0.04 0.05,0.03 0.05,0.04 0.05,0.03 0.04,0.04 0.04,0.03 0.08,0.07 0.08,0.07 0.08,0.07 0.07,0.07 0.07,0.07 0.06,0.07 0.07,0.08 0.07,0.08 0.07,0.08 c 0.7,0.86 1.05,1.86 1.05,3.02 0,1.27 -0.37,2.23 -1.24,3.25 -0.41,0.47 -0.67,0.69 -1.18,1.01 l -0.13,-0.16 c 0.8,-0.63 1.07,-0.97 1.35,-1.72 0.24,-0.66 0.35,-1.42 0.35,-2.41 0,-1.03 -0.13,-1.86 -0.4,-2.46 -0.28,-0.63 -0.58,-0.99 -1.3,-1.56 z"
         id="path4951" /></g>    <g
       style="font-style:normal;font-variant:normal;font-weight:normal;font-stretch:normal;letter-spacing:normal;word-spacing:normal;text-anchor:start;fill:none;stroke:#000000;stroke-width:1;stroke-linecap:butt;stroke-linejoin:miter;stroke-miterlimit:10.43299961;stroke-opacity:1;stroke-dasharray:none;stroke-dashoffset:0"
       ns0:preamble="/home/sriranga/Desktop/Prism_BasicElectronics/preamble.tex"
       ns0:text="$C$ (Carry)"
       text-anchor="start"
       word-spacing="normal"
       letter-spacing="normal"
       font-size-adjust="none"
       font-stretch="normal"
       font-weight="normal"
       font-variant="normal"
       font-style="normal"
       fill-opacity="1"
       fill-rule="evenodd"
       fill="none"
       stroke-opacity="1"
       stroke-dashoffset="0"
       stroke-dasharray="none"
       stroke-miterlimit="10.433"
       stroke-linejoin="miter"
       stroke-linecap="butt"
       stroke="black"
       xml:space="preserve"
       transform="matrix(1.2,0,0,-1.2,50.274228,1724.559)"
       id="g5083"><path
         id="path5085"
         fill="black"
         stroke-width="0"
         d="M229.67,711.74 L230.04,713.72 H229.83 C229.75,713.56,229.65,713.5,229.45,713.5 C229.37,713.5,229.25,713.52,229.04,713.57 C228.6,713.68,228.2,713.74,227.88,713.74 C225.76,713.74,223.84,711.74,223.84,709.54 C223.84,708.02,224.91,706.95,226.44,706.95 C227.46,706.95,228.26,707.38,229.15,708.43 L228.98,708.57 C228.09,707.69,227.51,707.39,226.7,707.39 C225.59,707.39,224.95,708.15,224.95,709.43 C224.95,710.61,225.43,711.81,226.21,712.62 C226.68,713.1,227.31,713.38,227.97,713.38 C228.88,713.38,229.39,712.85,229.49,711.77 Z " /><path
         id="path5087"
         fill="black"
         stroke-width="0"
         d="M235.72,713.84 L235.65,713.8 L235.59,713.75 L235.53,713.71 L235.47,713.67 L235.41,713.63 L235.35,713.59 L235.3,713.55 L235.24,713.52 L235.19,713.48 L235.14,713.44 L235.1,713.41 L235.05,713.37 L235.01,713.34 L234.96,713.3 L234.88,713.24 L234.8,713.17 L234.73,713.1 L234.66,713.03 L234.59,712.96 L234.52,712.89 L234.45,712.81 L234.39,712.73 L234.32,712.65 C233.61,711.78,233.26,710.79,233.26,709.63 C233.26,708.37,233.63,707.39,234.51,706.38 C234.92,705.9,235.18,705.68,235.69,705.37 L235.81,705.53 C235.02,706.15,234.74,706.5,234.47,707.24 C234.23,707.91,234.12,708.66,234.12,709.66 C234.12,710.7,234.25,711.52,234.52,712.13 C234.8,712.75,235.1,713.1,235.81,713.68 Z " /><path
         id="path5089"
         fill="black"
         stroke-width="0"
         d="M242.27,711.59 L242.18,713.84 H241.98 C241.91,713.63,241.76,713.51,241.56,713.51 C241.47,713.51,241.32,713.54,241.17,713.6 C240.68,713.76,240.18,713.84,239.72,713.84 C238.9,713.84,238.07,713.53,237.46,712.99 C236.76,712.37,236.38,711.45,236.38,710.35 C236.38,709.43,236.68,708.58,237.19,708.01 C237.79,707.36,238.7,706.99,239.69,706.99 C240.81,706.99,241.8,707.44,242.4,708.25 L242.22,708.43 C241.49,707.72,240.83,707.42,240.01,707.42 C239.38,707.42,238.82,707.62,238.39,708 C237.85,708.49,237.54,709.38,237.54,710.48 C237.54,712.28,238.46,713.44,239.9,713.44 C240.47,713.44,240.99,713.23,241.39,712.84 C241.71,712.52,241.85,712.24,242.04,711.59 Z " /><path
         id="path5091"
         fill="black"
         stroke-width="0"
         d="M247.15,707.78 L247.13,707.77 L247.12,707.76 L247.1,707.74 L247.09,707.73 L247.07,707.72 L247.06,707.71 L247.04,707.7 L247.03,707.69 L247.01,707.68 L247,707.68 L246.99,707.67 L246.97,707.66 L246.96,707.65 L246.95,707.65 L246.93,707.64 L246.92,707.63 L246.91,707.63 L246.89,707.62 L246.88,707.62 L246.87,707.62 L246.86,707.61 L246.84,707.61 L246.83,707.6 L246.82,707.6 L246.79,707.6 L246.76,707.59 L246.74,707.59 L246.71,707.59 C246.48,707.59,246.41,707.73,246.41,708.17 V710.1 C246.41,710.62,246.36,710.91,246.21,711.15 C245.99,711.51,245.57,711.7,244.98,711.7 C244.04,711.7,243.31,711.21,243.31,710.58 C243.31,710.35,243.51,710.16,243.74,710.16 C243.97,710.16,244.18,710.35,244.18,710.57 C244.18,710.61,244.17,710.66,244.16,710.73 C244.14,710.82,244.13,710.9,244.13,710.97 C244.13,711.24,244.45,711.46,244.85,711.46 C245.34,711.46,245.6,711.17,245.6,710.63 V710.03 V709.79 V708.35 C245.6,708.04,245.55,707.95,245.35,707.83 C245.11,707.69,244.83,707.6,244.62,707.6 C244.27,707.6,243.99,707.94,243.99,708.37 V708.41 C243.99,708.99,244.4,709.35,245.6,709.79 V710.03 C244.07,709.41,243.9,709.33,243.48,708.95 C243.26,708.75,243.12,708.42,243.12,708.09 C243.12,707.46,243.55,707.03,244.16,707.03 C244.6,707.03,245.01,707.23,245.62,707.75 C245.66,707.23,245.84,707.03,246.25,707.03 C246.59,707.03,246.8,707.15,247.15,707.52 Z " /><path
         id="path5093"
         fill="black"
         stroke-width="0"
         d="M247.24,711 L247.26,711 L247.27,711 L247.28,711.01 L247.29,711.01 L247.32,711.01 L247.34,711.02 L247.36,711.02 L247.38,711.02 L247.4,711.03 L247.42,711.03 L247.44,711.03 L247.46,711.03 L247.49,711.04 L247.51,711.04 L247.53,711.04 L247.55,711.04 L247.57,711.04 L247.59,711.04 C247.84,711.04,247.93,710.88,247.93,710.44 V707.96 C247.93,707.46,247.86,707.39,247.22,707.27 V707.12 H249.61 V707.27 C248.93,707.3,248.76,707.45,248.76,708.02 V710.25 C248.76,710.57,249.19,711.07,249.46,711.07 C249.52,711.07,249.61,711.02,249.72,710.92 C249.88,710.78,249.99,710.72,250.12,710.72 C250.36,710.72,250.51,710.89,250.51,711.17 C250.51,711.5,250.3,711.7,249.96,711.7 C249.54,711.7,249.25,711.47,248.76,710.76 V711.67 L248.71,711.7 C248.19,711.48,247.83,711.35,247.24,711.16 Z " /><path
         id="path5095"
         fill="black"
         stroke-width="0"
         d="M250.56,711 L250.57,711 L250.59,711 L250.6,711.01 L250.61,711.01 L250.63,711.01 L250.66,711.02 L250.68,711.02 L250.7,711.02 L250.72,711.03 L250.74,711.03 L250.76,711.03 L250.78,711.03 L250.8,711.04 L250.82,711.04 L250.84,711.04 L250.86,711.04 L250.89,711.04 L250.91,711.04 C251.16,711.04,251.25,710.88,251.25,710.44 V707.96 C251.25,707.46,251.18,707.39,250.54,707.27 V707.12 H252.93 V707.27 C252.25,707.3,252.08,707.45,252.08,708.02 V710.25 C252.08,710.57,252.51,711.07,252.78,711.07 C252.84,711.07,252.93,711.02,253.04,710.92 C253.2,710.78,253.31,710.72,253.43,710.72 C253.67,710.72,253.82,710.89,253.82,711.17 C253.82,711.5,253.62,711.7,253.28,711.7 C252.86,711.7,252.57,711.47,252.08,710.76 V711.67 L252.03,711.7 C251.51,711.48,251.15,711.35,250.56,711.16 Z " /><path
         id="path5097"
         fill="black"
         stroke-width="0"
         d="M258.53,711.59 H257.19 V711.45 C257.51,711.45,257.67,711.36,257.67,711.2 C257.67,711.16,257.66,711.1,257.63,711.03 L256.66,708.29 L255.52,710.8 C255.46,710.94,255.42,711.07,255.42,711.18 C255.42,711.36,255.57,711.43,256,711.45 V711.59 H253.95 V711.46 C254.21,711.42,254.38,711.31,254.46,711.14 L255.59,708.69 L255.62,708.61 L255.77,708.32 C256.05,707.82,256.21,707.46,256.21,707.31 C256.21,707.16,255.98,706.54,255.81,706.24 C255.67,705.98,255.45,705.79,255.31,705.79 C255.25,705.79,255.16,705.81,255.06,705.86 C254.87,705.93,254.7,705.97,254.53,705.97 C254.3,705.97,254.11,705.77,254.11,705.54 C254.11,705.21,254.43,704.96,254.84,704.96 C255.51,704.96,255.99,705.52,256.52,706.95 L258.06,711 C258.19,711.32,258.3,711.42,258.53,711.45 Z " /><path
         id="path5099"
         fill="black"
         stroke-width="0"
         d="M259.17,705.37 L259.23,705.41 L259.3,705.45 L259.36,705.5 L259.42,705.54 L259.48,705.58 L259.54,705.61 L259.59,705.65 L259.65,705.69 L259.7,705.73 L259.74,705.76 L259.79,705.8 L259.84,705.83 L259.88,705.87 L259.92,705.9 L260.01,705.97 L260.08,706.04 L260.16,706.11 L260.23,706.18 L260.3,706.25 L260.37,706.32 L260.43,706.4 L260.5,706.48 L260.57,706.56 C261.28,707.42,261.62,708.42,261.62,709.58 C261.62,710.85,261.26,711.81,260.38,712.83 C259.97,713.3,259.71,713.52,259.2,713.84 L259.08,713.68 C259.87,713.05,260.14,712.71,260.42,711.96 C260.66,711.3,260.77,710.54,260.77,709.55 C260.77,708.52,260.64,707.69,260.37,707.09 C260.09,706.46,259.79,706.1,259.08,705.53 Z " /></g>  </g>
</svg>
