<?xml version="1.0" encoding="UTF-8" standalone="no"?>
<!-- Created with Inkscape (http://www.inkscape.org/) -->

<svg
   xmlns:ns0="http://www.iki.fi/pav/software/textext/"
   xmlns:dc="http://purl.org/dc/elements/1.1/"
   xmlns:cc="http://creativecommons.org/ns#"
   xmlns:rdf="http://www.w3.org/1999/02/22-rdf-syntax-ns#"
   xmlns:svg="http://www.w3.org/2000/svg"
   xmlns="http://www.w3.org/2000/svg"
   xmlns:sodipodi="http://sodipodi.sourceforge.net/DTD/sodipodi-0.dtd"
   xmlns:inkscape="http://www.inkscape.org/namespaces/inkscape"
   width="496.06299"
   height="354.33069"
   id="svg2"
   version="1.1"
   inkscape:version="0.48.4 r9939"
   sodipodi:docname="figP5.69b.svg">
  <sodipodi:namedview
     id="base"
     pagecolor="#ffffff"
     bordercolor="#666666"
     borderopacity="1.0"
     inkscape:pageopacity="0.0"
     inkscape:pageshadow="2"
     inkscape:zoom="1.1913807"
     inkscape:cx="109.33597"
     inkscape:cy="130.88283"
     inkscape:document-units="cm"
     inkscape:current-layer="layer1"
     showgrid="false"
     units="cm"
     inkscape:object-nodes="true"
     inkscape:window-width="1366"
     inkscape:window-height="744"
     inkscape:window-x="0"
     inkscape:window-y="24"
     inkscape:window-maximized="1">
    <inkscape:grid
       type="xygrid"
       id="grid2985"
       empspacing="5"
       visible="true"
       enabled="true"
       snapvisiblegridlinesonly="true" />
  </sodipodi:namedview>
  <defs
     id="defs4">
    <marker
       inkscape:stockid="Arrow1Mstart"
       orient="auto"
       refY="0"
       refX="0"
       id="Arrow1Mstart"
       style="overflow:visible">
      <path
         inkscape:connector-curvature="0"
         id="path3775"
         d="M 0,0 5,-5 -12.5,0 5,5 0,0 z"
         style="fill-rule:evenodd;stroke:#000000;stroke-width:1pt"
         transform="matrix(0.4,0,0,0.4,4,0)" />
    </marker>
    <marker
       inkscape:stockid="Arrow1Mend"
       orient="auto"
       refY="0"
       refX="0"
       id="Arrow1Mend"
       style="overflow:visible">
      <path
         inkscape:connector-curvature="0"
         id="path3778"
         d="M 0,0 5,-5 -12.5,0 5,5 0,0 z"
         style="fill-rule:evenodd;stroke:#000000;stroke-width:1pt"
         transform="matrix(-0.4,0,0,-0.4,-4,0)" />
    </marker>
    <marker
       style="overflow:visible"
       id="Arrow1Mstart-7"
       refX="0"
       refY="0"
       orient="auto"
       inkscape:stockid="Arrow1Mstart">
      <path
         transform="matrix(0.4,0,0,0.4,4,0)"
         style="fill-rule:evenodd;stroke:#000000;stroke-width:1pt"
         d="M 0,0 5,-5 -12.5,0 5,5 0,0 z"
         id="path3775-8"
         inkscape:connector-curvature="0" />
    </marker>
    <marker
       style="overflow:visible"
       id="Arrow1Mend-5"
       refX="0"
       refY="0"
       orient="auto"
       inkscape:stockid="Arrow1Mend">
      <path
         transform="matrix(-0.4,0,0,-0.4,-4,0)"
         style="fill-rule:evenodd;stroke:#000000;stroke-width:1pt"
         d="M 0,0 5,-5 -12.5,0 5,5 0,0 z"
         id="path3778-9"
         inkscape:connector-curvature="0" />
    </marker>
    <marker
       style="overflow:visible"
       id="Arrow1Mstart-2"
       refX="0"
       refY="0"
       orient="auto"
       inkscape:stockid="Arrow1Mstart">
      <path
         transform="matrix(0.4,0,0,0.4,4,0)"
         style="fill-rule:evenodd;stroke:#000000;stroke-width:1pt"
         d="M 0,0 5,-5 -12.5,0 5,5 0,0 z"
         id="path3775-1"
         inkscape:connector-curvature="0" />
    </marker>
    <marker
       inkscape:stockid="Arrow1Mstart"
       orient="auto"
       refY="0"
       refX="0"
       id="Arrow1Mstart-7-5"
       style="overflow:visible">
      <path
         inkscape:connector-curvature="0"
         id="path3775-8-6"
         d="M 0,0 5,-5 -12.5,0 5,5 0,0 z"
         style="fill-rule:evenodd;stroke:#000000;stroke-width:1pt"
         transform="matrix(0.4,0,0,0.4,4,0)" />
    </marker>
    <marker
       style="overflow:visible"
       id="Arrow1Mend-51"
       refX="0"
       refY="0"
       orient="auto"
       inkscape:stockid="Arrow1Mend">
      <path
         transform="matrix(-0.4,0,0,-0.4,-4,0)"
         style="fill-rule:evenodd;stroke:#000000;stroke-width:1pt"
         d="M 0,0 5,-5 -12.5,0 5,5 0,0 z"
         id="path3778-4"
         inkscape:connector-curvature="0" />
    </marker>
    <marker
       style="overflow:visible"
       id="Arrow1Mstart-4"
       refX="0"
       refY="0"
       orient="auto"
       inkscape:stockid="Arrow1Mstart">
      <path
         transform="matrix(0.4,0,0,0.4,4,0)"
         style="fill-rule:evenodd;stroke:#000000;stroke-width:1pt"
         d="M 0,0 5,-5 -12.5,0 5,5 0,0 z"
         id="path3775-6"
         inkscape:connector-curvature="0" />
    </marker>
  </defs>
  <metadata
     id="metadata7">
    <rdf:RDF>
      <cc:Work
         rdf:about="">
        <dc:format>image/svg+xml</dc:format>
        <dc:type
           rdf:resource="http://purl.org/dc/dcmitype/StillImage" />
        <dc:title></dc:title>
      </cc:Work>
    </rdf:RDF>
  </metadata>
  <g
     inkscape:label="Layer 1"
     inkscape:groupmode="layer"
     id="layer1"
     transform="translate(0,-698.03016)">
    <path
       sodipodi:nodetypes="cc"
       inkscape:connector-curvature="0"
       id="path5953"
       d="m 80,887.36085 125,0"
       style="fill:none;stroke:#000000;stroke-width:1.20000005;stroke-linecap:square;stroke-linejoin:round;stroke-miterlimit:4;stroke-opacity:1;stroke-dasharray:none;stroke-dashoffset:0" />
    <path
       style="fill:none;stroke:#000000;stroke-width:1.20000005;stroke-linecap:square;stroke-linejoin:round;stroke-miterlimit:4;stroke-opacity:1;stroke-dasharray:none;stroke-dashoffset:0"
       d="m 80,917.36085 125,0"
       id="path3153"
       inkscape:connector-curvature="0"
       sodipodi:nodetypes="cc" />
    <text
       sodipodi:linespacing="100%"
       id="text5818"
       y="653.59326"
       x="104.74892"
       style="font-size:12px;font-style:normal;font-variant:normal;font-weight:normal;font-stretch:normal;text-align:start;line-height:100%;letter-spacing:0px;word-spacing:0px;text-anchor:start;fill:#000000;fill-opacity:1;stroke:none;font-family:LMRoman12;-inkscape-font-specification:Sans"
       xml:space="preserve"><tspan
         y="653.59326"
         x="104.74892"
         id="tspan5820"
         sodipodi:role="line" /></text>
    <flowRoot
       xml:space="preserve"
       id="flowRoot6377"
       style="font-size:12px;font-style:normal;font-variant:normal;font-weight:normal;font-stretch:normal;text-align:start;line-height:100%;letter-spacing:0px;word-spacing:0px;text-anchor:start;fill:#000000;fill-opacity:1;stroke:none;font-family:LMRoman12;-inkscape-font-specification:Sans"
       transform="translate(43.048363,-100.4773)"><flowRegion
         id="flowRegion6379"><rect
           id="rect6381"
           width="27.681772"
           height="40.319103"
           x="219.34796"
           y="87.141403" /></flowRegion><flowPara
         id="flowPara6383" /></flowRoot>    <text
       xml:space="preserve"
       style="font-size:12px;font-style:normal;font-variant:normal;font-weight:normal;font-stretch:normal;text-align:start;line-height:50%;letter-spacing:0px;word-spacing:0px;text-anchor:start;fill:#000000;fill-opacity:1;stroke:none;font-family:LMRoman12;-inkscape-font-specification:Sans"
       x="318.96344"
       y="652.80005"
       id="text6385"
       sodipodi:linespacing="50%"><tspan
         y="652.80005"
         x="318.96344"
         sodipodi:role="line"
         id="tspan6387" /></text>
    <text
       xml:space="preserve"
       style="font-size:12px;font-style:normal;font-variant:normal;font-weight:normal;font-stretch:normal;text-align:start;line-height:100%;letter-spacing:0px;word-spacing:0px;text-anchor:start;fill:#000000;fill-opacity:1;stroke:none;font-family:LMRoman12;-inkscape-font-specification:Sans"
       x="391.70255"
       y="791.93988"
       id="text3884"
       sodipodi:linespacing="100%"><tspan
         sodipodi:role="line"
         x="391.70255"
         y="791.93988"
         id="tspan3890" /></text>
    <text
       xml:space="preserve"
       style="font-size:12px;font-style:normal;font-variant:normal;font-weight:normal;font-stretch:normal;text-align:start;line-height:150%;letter-spacing:0px;word-spacing:0px;text-anchor:start;fill:#000000;fill-opacity:1;stroke:none;font-family:LMRoman12;-inkscape-font-specification:Sans"
       x="260.01465"
       y="848.4502"
       id="text3887"
       sodipodi:linespacing="150%"><tspan
         sodipodi:role="line"
         id="tspan3889"
         x="260.01465"
         y="848.4502" /></text>
    <path
       sodipodi:nodetypes="cc"
       inkscape:connector-curvature="0"
       id="path4239-3"
       d="m 375.93519,852.36085 35,0"
       style="fill:none;stroke:#000000;stroke-width:1.20000005;stroke-linecap:square;stroke-linejoin:round;stroke-miterlimit:4;stroke-opacity:1;stroke-dasharray:none;stroke-dashoffset:0" />
    <path
       sodipodi:nodetypes="cccc"
       style="fill:none;stroke:#000000;stroke-width:1.20000005;stroke-linecap:square;stroke-linejoin:round;stroke-miterlimit:4;stroke-opacity:1;stroke-dasharray:none;stroke-dashoffset:0"
       d="m 245,902.36085 55,0 0,-35 48,0"
       id="path8405"
       inkscape:connector-curvature="0" />
    <path
       sodipodi:type="arc"
       style="fill:#ffffff;fill-opacity:1;stroke:#000000;stroke-width:0.80000001;stroke-linecap:square;stroke-linejoin:round;stroke-miterlimit:4;stroke-opacity:1;stroke-dasharray:none;stroke-dashoffset:0"
       id="path8419"
       sodipodi:cx="160"
       sodipodi:cy="119.33069"
       sodipodi:rx="0"
       sodipodi:ry="0"
       transform="translate(0,700.75809)" />
    <path
       sodipodi:type="arc"
       style="fill:#ffffff;fill-opacity:1;stroke:#000000;stroke-width:0.80000001;stroke-linecap:square;stroke-linejoin:round;stroke-miterlimit:4;stroke-opacity:1;stroke-dasharray:none;stroke-dashoffset:0"
       id="path8421"
       sodipodi:cx="160"
       sodipodi:cy="119.33069"
       sodipodi:rx="0"
       sodipodi:ry="0"
       transform="translate(0,700.75809)" />
    <path
       transform="translate(0,700.75809)"
       sodipodi:ry="0"
       sodipodi:rx="0"
       sodipodi:cy="119.33069"
       sodipodi:cx="160"
       id="path8425"
       style="fill:#ffffff;fill-opacity:1;stroke:#000000;stroke-width:0.80000001;stroke-linecap:square;stroke-linejoin:round;stroke-miterlimit:4;stroke-opacity:1;stroke-dasharray:none;stroke-dashoffset:0"
       sodipodi:type="arc" />
    <path
       transform="translate(0,701.38761)"
       sodipodi:ry="0"
       sodipodi:rx="0"
       sodipodi:cy="119.33069"
       sodipodi:cx="160"
       id="path8415-2"
       style="fill:#ffffff;fill-opacity:1;stroke:#000000;stroke-width:0.80000001;stroke-linecap:square;stroke-linejoin:round;stroke-miterlimit:4;stroke-opacity:1;stroke-dasharray:none;stroke-dashoffset:0"
       sodipodi:type="arc" />
    <path
       sodipodi:type="arc"
       style="fill:#ffffff;fill-opacity:1;stroke:#000000;stroke-width:0.80000001;stroke-linecap:square;stroke-linejoin:round;stroke-miterlimit:4;stroke-opacity:1;stroke-dasharray:none;stroke-dashoffset:0"
       id="path8480"
       sodipodi:cx="160"
       sodipodi:cy="119.33069"
       sodipodi:rx="0"
       sodipodi:ry="0"
       transform="translate(0,701.38761)" />
    <path
       transform="translate(10.93519,0)"
       d="m 402.15,852.36084 c 0,1.18741 -0.96259,2.15 -2.15,2.15 -1.18741,0 -2.15,-0.96259 -2.15,-2.15 0,-1.18741 0.96259,-2.15 2.15,-2.15 1.18741,0 2.15,0.96259 2.15,2.15 z"
       sodipodi:ry="2.1500001"
       sodipodi:rx="2.1500001"
       sodipodi:cy="852.36084"
       sodipodi:cx="400"
       style="fill:#000000;stroke:none"
       id="path8535"
       sodipodi:type="arc" />
    <path
       style="fill:#ffffff;stroke:#000000;stroke-width:1.20000005;stroke-linecap:round;stroke-linejoin:round;stroke-miterlimit:4;stroke-opacity:1;stroke-dasharray:none;stroke-dashoffset:0"
       d="m 335,832.36087 30,0 c 26.66667,-2e-5 26.66667,39.99998 0,39.99998 l -30,0 z"
       id="path3075"
       inkscape:connector-curvature="0"
       sodipodi:nodetypes="ccccc" />
    <g
       transform="matrix(0,-1,1,0,-670.50846,1007.3428)"
       id="g3127">
      <g
         transform="translate(-40.018087,-0.20984056)"
         id="g3129">
        <path
           inkscape:transform-center-y="2.5"
           transform="translate(60,698.03016)"
           d="m 100,119.33069 -8.660254,-15 17.320504,0 z"
           inkscape:randomized="0"
           inkscape:rounded="0"
           inkscape:flatsided="true"
           sodipodi:arg2="2.6179939"
           sodipodi:arg1="1.5707963"
           sodipodi:r2="5"
           sodipodi:r1="10"
           sodipodi:cy="109.33069"
           sodipodi:cx="100"
           sodipodi:sides="3"
           id="path3131"
           style="fill:#ffffff;stroke:#000000;stroke-width:1.20000005;stroke-linecap:square;stroke-linejoin:round;stroke-miterlimit:4;stroke-opacity:1;stroke-dasharray:none;stroke-dashoffset:0"
           sodipodi:type="star" />
        <path
           sodipodi:type="star"
           style="fill:#ffffff;stroke:#000000;stroke-width:1.20000005;stroke-linecap:square;stroke-linejoin:round;stroke-miterlimit:4;stroke-opacity:1;stroke-dasharray:none;stroke-dashoffset:0"
           id="path3133"
           sodipodi:sides="3"
           sodipodi:cx="100"
           sodipodi:cy="109.33069"
           sodipodi:r1="10"
           sodipodi:r2="5"
           sodipodi:arg1="1.5707963"
           sodipodi:arg2="2.6179939"
           inkscape:flatsided="true"
           inkscape:rounded="0"
           inkscape:randomized="0"
           d="m 100,119.33069 -8.660254,-15 17.320504,0 z"
           transform="translate(60,698.03016)"
           inkscape:transform-center-y="2.5" />
        <path
           inkscape:transform-center-y="2.5"
           transform="translate(60,698.03016)"
           d="m 100,119.33069 -8.660254,-15 17.320504,0 z"
           inkscape:randomized="0"
           inkscape:rounded="0"
           inkscape:flatsided="true"
           sodipodi:arg2="2.6179939"
           sodipodi:arg1="1.5707963"
           sodipodi:r2="5"
           sodipodi:r1="10"
           sodipodi:cy="109.33069"
           sodipodi:cx="100"
           sodipodi:sides="3"
           id="path3135"
           style="fill:#ffffff;stroke:#000000;stroke-width:1.20000005;stroke-linecap:square;stroke-linejoin:round;stroke-miterlimit:4;stroke-opacity:1;stroke-dasharray:none;stroke-dashoffset:0"
           sodipodi:type="star" />
        <path
           transform="translate(0,701.38761)"
           sodipodi:ry="0"
           sodipodi:rx="0"
           sodipodi:cy="119.33069"
           sodipodi:cx="160"
           id="path3137"
           style="fill:#ffffff;fill-opacity:1;stroke:#000000;stroke-width:0.80000001;stroke-linecap:square;stroke-linejoin:round;stroke-miterlimit:4;stroke-opacity:1;stroke-dasharray:none;stroke-dashoffset:0"
           sodipodi:type="arc" />
      </g>
      <path
         sodipodi:type="arc"
         style="fill:#ffffff;fill-opacity:1;stroke:#000000;stroke-width:0.80000001;stroke-linecap:square;stroke-linejoin:round;stroke-miterlimit:4;stroke-opacity:1;stroke-dasharray:none;stroke-dashoffset:0"
         id="path3139"
         sodipodi:cx="160"
         sodipodi:cy="119.33069"
         sodipodi:rx="2.9163368"
         sodipodi:ry="2.9163368"
         d="m 162.91634,119.33069 c 0,1.61065 -1.30569,2.91634 -2.91634,2.91634 -1.61065,0 -2.91634,-1.30569 -2.91634,-2.91634 0,-1.61065 1.30569,-2.91634 2.91634,-2.91634 1.61065,0 2.91634,1.30569 2.91634,2.91634 z"
         transform="translate(-40.018087,700.54825)" />
    </g>
    <path
       sodipodi:nodetypes="cc"
       inkscape:connector-curvature="0"
       id="path3145"
       d="m 79.999995,837.36085 254.999995,0"
       style="fill:none;stroke:#000000;stroke-width:1.20000005;stroke-linecap:square;stroke-linejoin:round;stroke-miterlimit:4;stroke-opacity:1;stroke-dasharray:none;stroke-dashoffset:0" />
    <g
       style="font-style:normal;font-variant:normal;font-weight:normal;font-stretch:normal;letter-spacing:normal;word-spacing:normal;text-anchor:start;fill:none;stroke:#000000;stroke-width:1;stroke-linecap:butt;stroke-linejoin:miter;stroke-miterlimit:10.43299961;stroke-opacity:1;stroke-dasharray:none;stroke-dashoffset:0"
       ns0:preamble="/home/sriranga/Desktop/Prism_BasicElectronics/preamble.tex"
       ns0:text="$B$"
       word-spacing="normal"
       letter-spacing="normal"
       font-size-adjust="none"
       font-stretch="normal"
       font-weight="normal"
       font-variant="normal"
       font-style="normal"
       stroke-miterlimit="10.433"
       xml:space="preserve"
       transform="matrix(1.2,0,0,-1.2,-202.70706,1688.4002)"
       id="g10638"><path
         id="path10640"
         d="m 223.7,707.12 h 2.81 c 1.56,0 2.63,0.82 2.63,1.99 0,0.37 -0.12,0.72 -0.34,0.94 -0.19,0.22 -0.39,0.34 -0.91,0.56 0.71,0.17 0.99,0.29 1.31,0.57 0.28,0.24 0.43,0.57 0.43,0.97 0,0.94 -0.7,1.46 -1.99,1.46 l -0.18,-0.3 c 0.8,0 1.17,-0.33 1.17,-1.07 0,-0.57 -0.24,-1 -0.67,-1.24 -0.34,-0.2 -0.82,-0.27 -1.71,-0.27 l -0.1,-0.32 c 0.65,0 1.06,-0.04 1.26,-0.12 0.41,-0.17 0.66,-0.6 0.66,-1.14 0,-1.07 -0.74,-1.73 -1.95,-1.73 -0.42,0 -0.64,0.15 -0.64,0.42 0,0.12 0.12,0.6 0.35,1.39 0.13,0.45 0.19,0.68 0.32,1.18 h 0 l 0.1,0.32 0.65,2.31 c 0.06,0.21 0.17,0.27 0.56,0.27 l 0.18,0.3 h -2.57 v -0.16 c 0.62,-0.05 0.77,-0.13 0.77,-0.4 0,-0.15 -0.04,-0.4 -0.11,-0.64 l -1.22,-4.39 c -0.18,-0.58 -0.25,-0.64 -0.81,-0.74 z"
         inkscape:connector-curvature="0"
         style="fill:#000000;stroke-width:0" /></g>    <g
       id="g5939"
       transform="matrix(0,-1,1,0,-670.50846,1037.3428)">
      <g
         id="g5941"
         transform="translate(-40.018087,-0.20984056)">
        <path
           sodipodi:type="star"
           style="fill:#ffffff;stroke:#000000;stroke-width:1.20000005;stroke-linecap:square;stroke-linejoin:round;stroke-miterlimit:4;stroke-opacity:1;stroke-dasharray:none;stroke-dashoffset:0"
           id="path5943"
           sodipodi:sides="3"
           sodipodi:cx="100"
           sodipodi:cy="109.33069"
           sodipodi:r1="10"
           sodipodi:r2="5"
           sodipodi:arg1="1.5707963"
           sodipodi:arg2="2.6179939"
           inkscape:flatsided="true"
           inkscape:rounded="0"
           inkscape:randomized="0"
           d="m 100,119.33069 -8.660254,-15 17.320504,0 z"
           transform="translate(60,698.03016)"
           inkscape:transform-center-y="2.5" />
        <path
           inkscape:transform-center-y="2.5"
           transform="translate(60,698.03016)"
           d="m 100,119.33069 -8.660254,-15 17.320504,0 z"
           inkscape:randomized="0"
           inkscape:rounded="0"
           inkscape:flatsided="true"
           sodipodi:arg2="2.6179939"
           sodipodi:arg1="1.5707963"
           sodipodi:r2="5"
           sodipodi:r1="10"
           sodipodi:cy="109.33069"
           sodipodi:cx="100"
           sodipodi:sides="3"
           id="path5945"
           style="fill:#ffffff;stroke:#000000;stroke-width:1.20000005;stroke-linecap:square;stroke-linejoin:round;stroke-miterlimit:4;stroke-opacity:1;stroke-dasharray:none;stroke-dashoffset:0"
           sodipodi:type="star" />
        <path
           sodipodi:type="star"
           style="fill:#ffffff;stroke:#000000;stroke-width:1.20000005;stroke-linecap:square;stroke-linejoin:round;stroke-miterlimit:4;stroke-opacity:1;stroke-dasharray:none;stroke-dashoffset:0"
           id="path5947"
           sodipodi:sides="3"
           sodipodi:cx="100"
           sodipodi:cy="109.33069"
           sodipodi:r1="10"
           sodipodi:r2="5"
           sodipodi:arg1="1.5707963"
           sodipodi:arg2="2.6179939"
           inkscape:flatsided="true"
           inkscape:rounded="0"
           inkscape:randomized="0"
           d="m 100,119.33069 -8.660254,-15 17.320504,0 z"
           transform="translate(60,698.03016)"
           inkscape:transform-center-y="2.5" />
        <path
           sodipodi:type="arc"
           style="fill:#ffffff;fill-opacity:1;stroke:#000000;stroke-width:0.80000001;stroke-linecap:square;stroke-linejoin:round;stroke-miterlimit:4;stroke-opacity:1;stroke-dasharray:none;stroke-dashoffset:0"
           id="path5949"
           sodipodi:cx="160"
           sodipodi:cy="119.33069"
           sodipodi:rx="0"
           sodipodi:ry="0"
           transform="translate(0,701.38761)" />
      </g>
      <path
         transform="translate(-40.018087,700.54825)"
         d="m 162.91634,119.33069 c 0,1.61065 -1.30569,2.91634 -2.91634,2.91634 -1.61065,0 -2.91634,-1.30569 -2.91634,-2.91634 0,-1.61065 1.30569,-2.91634 2.91634,-2.91634 1.61065,0 2.91634,1.30569 2.91634,2.91634 z"
         sodipodi:ry="2.9163368"
         sodipodi:rx="2.9163368"
         sodipodi:cy="119.33069"
         sodipodi:cx="160"
         id="path5951"
         style="fill:#ffffff;fill-opacity:1;stroke:#000000;stroke-width:0.80000001;stroke-linecap:square;stroke-linejoin:round;stroke-miterlimit:4;stroke-opacity:1;stroke-dasharray:none;stroke-dashoffset:0"
         sodipodi:type="arc" />
    </g>
    <path
       d="m 82.15,837.36084 c 0,1.18741 -0.962588,2.15 -2.15,2.15 -1.187412,0 -2.15,-0.96259 -2.15,-2.15 0,-1.18741 0.962588,-2.15 2.15,-2.15 1.187412,0 2.15,0.96259 2.15,2.15 z"
       sodipodi:ry="2.1500001"
       sodipodi:rx="2.1500001"
       sodipodi:cy="837.36084"
       sodipodi:cx="80"
       style="fill:#000000;stroke:none"
       id="path5955"
       sodipodi:type="arc" />
    <path
       d="m 82.15,887.36084 c 0,1.18741 -0.962588,2.15 -2.15,2.15 -1.187412,0 -2.15,-0.96259 -2.15,-2.15 0,-1.18741 0.962588,-2.15 2.15,-2.15 1.187412,0 2.15,0.96259 2.15,2.15 z"
       sodipodi:ry="2.1500001"
       sodipodi:rx="2.1500001"
       sodipodi:cy="887.36084"
       sodipodi:cx="80"
       style="fill:#000000;stroke:none"
       id="path5957"
       sodipodi:type="arc" />
    <path
       d="m 82.15,917.36084 c 0,1.18741 -0.962588,2.15 -2.15,2.15 -1.187412,0 -2.15,-0.96259 -2.15,-2.15 0,-1.18741 0.962588,-2.15 2.15,-2.15 1.187412,0 2.15,0.96259 2.15,2.15 z"
       sodipodi:ry="2.1500001"
       sodipodi:rx="2.1500001"
       sodipodi:cy="917.36084"
       sodipodi:cx="80"
       style="fill:#000000;stroke:none"
       id="path5959"
       sodipodi:type="arc" />
    <g
       style="font-style:normal;font-variant:normal;font-weight:normal;font-stretch:normal;letter-spacing:normal;word-spacing:normal;text-anchor:start;fill:none;stroke:#000000;stroke-width:1;stroke-linecap:butt;stroke-linejoin:miter;stroke-miterlimit:10.43299961;stroke-opacity:1;stroke-dasharray:none;stroke-dashoffset:0"
       ns0:preamble="/home/sriranga/Desktop/Prism_BasicElectronics/preamble.tex"
       ns0:text="$\\overline{C}$"
       word-spacing="normal"
       letter-spacing="normal"
       font-size-adjust="none"
       font-stretch="normal"
       font-weight="normal"
       font-variant="normal"
       font-style="normal"
       stroke-miterlimit="10.433"
       xml:space="preserve"
       transform="matrix(1.2,0,0,-1.2,-202.41239,1739.6013)"
       id="g6063"><line
         id="line6065"
         y2="715.59003"
         x2="230.3"
         y1="715.59003"
         x1="223.42999"
         style="stroke-width:0.55800003" /><path
         id="path6067"
         d="m 229.67,711.74 0.37,1.98 h -0.21 c -0.08,-0.16 -0.18,-0.22 -0.38,-0.22 -0.08,0 -0.2,0.02 -0.41,0.07 -0.44,0.11 -0.84,0.17 -1.16,0.17 -2.12,0 -4.04,-2 -4.04,-4.2 0,-1.52 1.07,-2.59 2.6,-2.59 1.02,0 1.82,0.43 2.71,1.48 l -0.17,0.14 c -0.89,-0.88 -1.47,-1.18 -2.28,-1.18 -1.11,0 -1.75,0.76 -1.75,2.04 0,1.18 0.48,2.38 1.26,3.19 0.47,0.48 1.1,0.76 1.76,0.76 0.91,0 1.42,-0.53 1.52,-1.61 z"
         inkscape:connector-curvature="0"
         style="fill:#000000;stroke-width:0" /></g>    <g
       id="g6283"
       transform="matrix(1.2,0,0,-1.2,-202.41239,1770.6577)"
       xml:space="preserve"
       stroke="black"
       stroke-linecap="butt"
       stroke-linejoin="miter"
       stroke-miterlimit="10.433"
       stroke-dasharray="none"
       stroke-dashoffset="0"
       stroke-opacity="1"
       fill="none"
       fill-rule="evenodd"
       fill-opacity="1"
       font-style="normal"
       font-variant="normal"
       font-weight="normal"
       font-stretch="normal"
       font-size-adjust="none"
       letter-spacing="normal"
       word-spacing="normal"
       text-anchor="start"
       ns0:text="$\\overline{D}$"
       ns0:preamble="/home/sriranga/Desktop/Prism_BasicElectronics/preamble.tex"
       style="font-style:normal;font-variant:normal;font-weight:normal;font-stretch:normal;letter-spacing:normal;word-spacing:normal;text-anchor:start;fill:none;stroke:#000000;stroke-width:1;stroke-linecap:butt;stroke-linejoin:miter;stroke-miterlimit:10.43299961;stroke-opacity:1;stroke-dasharray:none;stroke-dashoffset:0"><line
         x1="223.43"
         y1="715.59"
         x2="230.87"
         y2="715.59"
         stroke-width="0.558"
         id="line6285" /><path
         d="M224.97,713.45 L225,713.45 L225.03,713.45 L225.06,713.44 L225.08,713.44 L225.11,713.44 L225.14,713.44 L225.18,713.43 L225.23,713.42 L225.27,713.42 L225.32,713.41 L225.35,713.4 L225.39,713.39 L225.43,713.39 L225.46,713.38 L225.49,713.37 L225.52,713.36 L225.54,713.35 L225.57,713.34 L225.59,713.33 L225.61,713.32 L225.63,713.3 L225.64,713.29 L225.66,713.28 L225.67,713.26 L225.69,713.25 L225.7,713.23 L225.71,713.21 L225.72,713.2 L225.72,713.18 L225.73,713.16 L225.73,713.14 L225.74,713.12 L225.74,713.09 L225.74,713.07 L225.74,713.05 C225.74,712.9,225.7,712.66,225.63,712.41 L224.41,708.02 C224.23,707.44,224.16,707.38,223.6,707.28 V707.12 H226.12 L226.02,707.42 C225.56,707.42,225.37,707.53,225.37,707.79 C225.37,707.92,225.42,708.14,225.59,708.73 L226.79,713.03 C226.85,713.24,227,713.31,227.4,713.31 C227.97,713.31,228.47,713.18,228.79,712.95 C229.27,712.59,229.54,711.96,229.54,711.18 C229.54,710.1,229.12,708.99,228.45,708.32 C227.86,707.72,227.05,707.42,226.02,707.42 L226.12,707.12 C227.28,707.12,228.35,707.43,229.11,707.99 C230.08,708.69,230.65,709.79,230.65,710.94 C230.65,712.57,229.51,713.61,227.74,713.61 H224.97 Z "
         stroke-width="0"
         fill="black"
         id="path6287" /></g>    <g
       style="font-style:normal;font-variant:normal;font-weight:normal;font-stretch:normal;letter-spacing:normal;word-spacing:normal;text-anchor:start;fill:none;stroke:#000000;stroke-width:1;stroke-linecap:butt;stroke-linejoin:miter;stroke-miterlimit:10.43299961;stroke-opacity:1;stroke-dasharray:none;stroke-dashoffset:0"
       ns0:preamble="/home/sriranga/Desktop/Prism_BasicElectronics/preamble.tex"
       ns0:text="$Y$"
       word-spacing="normal"
       letter-spacing="normal"
       font-size-adjust="none"
       font-stretch="normal"
       font-weight="normal"
       font-variant="normal"
       font-style="normal"
       stroke-miterlimit="10.433"
       xml:space="preserve"
       transform="matrix(1.2,0,0,-1.2,147.4079,1705.2556)"
       id="g6478"><path
         id="path6480"
         d="m 224.34,713.45 0.02,0 0.03,0 0.05,-0.01 0.04,-0.01 0.04,-0.01 0.04,0 0.04,-0.01 0.03,-0.01 0.04,-0.01 0.03,-0.01 0.03,0 0.02,-0.01 0.03,-0.02 0.02,-0.01 0.02,-0.01 0.02,-0.01 0.02,-0.02 0.02,-0.02 0.02,-0.01 0.01,-0.02 0.02,-0.03 0.01,-0.02 0.02,-0.02 0.01,-0.03 0.01,-0.03 0.02,-0.03 0.01,-0.04 0.01,-0.03 0.01,-0.04 0.02,-0.04 0.01,-0.05 0.01,-0.02 0.01,-0.02 0.01,-0.03 0,-0.02 0.77,-2.68 -0.61,-2.1 c -0.17,-0.54 -0.38,-0.7 -1.04,-0.74 v -0.16 h 2.87 v 0.16 c -0.16,0.01 -0.29,0.02 -0.35,0.03 -0.39,0.02 -0.53,0.12 -0.53,0.37 0,0.21 0.07,0.51 0.31,1.28 0.03,0.09 0.05,0.16 0.06,0.2 l 0.28,1 2.18,2.69 c 0.32,0.39 0.4,0.46 0.7,0.6 v 0.16 h -1.88 v -0.16 c 0.12,-0.01 0.23,-0.02 0.27,-0.03 0.29,-0.03 0.42,-0.11 0.42,-0.27 0,-0.27 -0.46,-0.92 -1.5,-2.12 -0.17,-0.2 -0.22,-0.28 -0.38,-0.46 -0.11,0.44 -0.14,0.57 -0.3,1.09 -0.25,0.86 -0.36,1.29 -0.36,1.43 0,0.24 0.12,0.3 0.71,0.36 v 0.16 h -2.37 z"
         inkscape:connector-curvature="0"
         style="fill:#000000;stroke-width:0" /></g>    <path
       sodipodi:nodetypes="cccc"
       inkscape:connector-curvature="0"
       id="path6565"
       d="m 199.06481,877.36087 c 25.4676,0 42.44598,8.33333 50.93519,24.99998 -8.48921,16.66667 -25.46759,24.99999 -50.93519,24.99999 8.4892,-16.66665 8.4892,-33.33331 0,-49.99997 z"
       style="fill:#ffffff;stroke:#000000;stroke-width:1.20000005;stroke-linecap:butt;stroke-linejoin:round;stroke-miterlimit:4;stroke-opacity:1;stroke-dasharray:none;stroke-dashoffset:0" />
  </g>
</svg>
