<?xml version="1.0" encoding="UTF-8" standalone="no"?>
<!-- Created with Inkscape (http://www.inkscape.org/) -->

<svg
   xmlns:ns0="http://www.iki.fi/pav/software/textext/"
   xmlns:dc="http://purl.org/dc/elements/1.1/"
   xmlns:cc="http://creativecommons.org/ns#"
   xmlns:rdf="http://www.w3.org/1999/02/22-rdf-syntax-ns#"
   xmlns:svg="http://www.w3.org/2000/svg"
   xmlns="http://www.w3.org/2000/svg"
   xmlns:sodipodi="http://sodipodi.sourceforge.net/DTD/sodipodi-0.dtd"
   xmlns:inkscape="http://www.inkscape.org/namespaces/inkscape"
   sodipodi:docname="figP5.48.2.eps"
   inkscape:version="0.48.4 r9939"
   version="1.1"
   id="svg2"
   height="354.33069"
   width="496.06299">
  <sodipodi:namedview
     id="base"
     pagecolor="#ffffff"
     bordercolor="#666666"
     borderopacity="1.0"
     inkscape:pageopacity="0.0"
     inkscape:pageshadow="2"
     inkscape:zoom="1.6848668"
     inkscape:cx="248.03149"
     inkscape:cy="177.16534"
     inkscape:document-units="cm"
     inkscape:current-layer="layer1"
     showgrid="false"
     units="cm"
     inkscape:object-nodes="true"
     inkscape:window-width="1366"
     inkscape:window-height="744"
     inkscape:window-x="0"
     inkscape:window-y="24"
     inkscape:window-maximized="1">
    <inkscape:grid
       snapvisiblegridlinesonly="true"
       enabled="true"
       visible="true"
       empspacing="5"
       id="grid2985"
       type="xygrid" />
  </sodipodi:namedview>
  <defs
     id="defs4">
    <inkscape:path-effect
       border_marks="both"
       mark_dir="left"
       offset="-2"
       shift="0"
       major_mark_steps="5"
       minor_mark_length="7"
       mark_length="14"
       mark_distance="18.3"
       unit="px"
       is_visible="true"
       id="path-effect7977"
       effect="ruler" />
    <marker
       style="overflow:visible"
       id="Arrow1Mstart"
       refX="0"
       refY="0"
       orient="auto"
       inkscape:stockid="Arrow1Mstart">
      <path
         transform="matrix(0.4,0,0,0.4,4,0)"
         style="fill-rule:evenodd;stroke:#000000;stroke-width:1pt"
         d="M 0,0 5,-5 -12.5,0 5,5 0,0 z"
         id="path3775"
         inkscape:connector-curvature="0" />
    </marker>
    <marker
       style="overflow:visible"
       id="Arrow1Mend"
       refX="0"
       refY="0"
       orient="auto"
       inkscape:stockid="Arrow1Mend">
      <path
         transform="matrix(-0.4,0,0,-0.4,-4,0)"
         style="fill-rule:evenodd;stroke:#000000;stroke-width:1pt"
         d="M 0,0 5,-5 -12.5,0 5,5 0,0 z"
         id="path3778"
         inkscape:connector-curvature="0" />
    </marker>
    <marker
       style="overflow:visible"
       id="Arrow1Mstart-2"
       refX="0"
       refY="0"
       orient="auto"
       inkscape:stockid="Arrow1Mstart">
      <path
         transform="matrix(0.4,0,0,0.4,4,0)"
         style="fill-rule:evenodd;stroke:#000000;stroke-width:1pt"
         d="M 0,0 5,-5 -12.5,0 5,5 0,0 z"
         id="path3775-8"
         inkscape:connector-curvature="0" />
    </marker>
    <marker
       style="overflow:visible"
       id="Arrow1Mstart-5"
       refX="0"
       refY="0"
       orient="auto"
       inkscape:stockid="Arrow1Mstart">
      <path
         transform="matrix(0.4,0,0,0.4,4,0)"
         style="fill-rule:evenodd;stroke:#000000;stroke-width:1pt"
         d="M 0,0 5,-5 -12.5,0 5,5 0,0 z"
         id="path3775-5"
         inkscape:connector-curvature="0" />
    </marker>
    <marker
       inkscape:stockid="Arrow1Mstart"
       orient="auto"
       refY="0"
       refX="0"
       id="Arrow1Mstart-8"
       style="overflow:visible">
      <path
         inkscape:connector-curvature="0"
         id="path3775-6"
         d="M 0,0 5,-5 -12.5,0 5,5 0,0 z"
         style="fill-rule:evenodd;stroke:#000000;stroke-width:1pt"
         transform="matrix(0.4,0,0,0.4,4,0)" />
    </marker>
  </defs>
  <metadata
     id="metadata7">
    <rdf:RDF>
      <cc:Work
         rdf:about="">
        <dc:format>image/svg+xml</dc:format>
        <dc:type
           rdf:resource="http://purl.org/dc/dcmitype/StillImage" />
        <dc:title></dc:title>
      </cc:Work>
    </rdf:RDF>
  </metadata>
  <g
     transform="translate(0,-698.03016)"
     id="layer1"
     inkscape:groupmode="layer"
     inkscape:label="Layer 1">
    <path
       sodipodi:nodetypes="ccccccc"
       inkscape:connector-curvature="0"
       id="path6454"
       d="m 115,917.36085 -10,5 -35,0 0,89.99995 275,0 0,-89.99995 -27.94053,0"
       style="fill:none;stroke:#000000;stroke-width:1.20000005;stroke-linecap:round;stroke-linejoin:round;stroke-miterlimit:4;stroke-opacity:1;stroke-dasharray:none;stroke-dashoffset:0" />
    <path
       sodipodi:nodetypes="ccc"
       inkscape:connector-curvature="0"
       id="path6456"
       d="m 185,922.36086 40,0 10,-5"
       style="fill:none;stroke:#000000;stroke-width:1.20000005;stroke-linecap:square;stroke-linejoin:round;stroke-miterlimit:4;stroke-opacity:1;stroke-dasharray:none;stroke-dashoffset:0" />
    <path
       sodipodi:type="arc"
       style="fill:#ffffff;stroke:#000000;stroke-width:1.58402598;stroke-linecap:round;stroke-linejoin:round;stroke-miterlimit:4;stroke-opacity:1;stroke-dasharray:none;stroke-dashoffset:0"
       id="path7476"
       sodipodi:cx="184.58434"
       sodipodi:cy="63.506504"
       sodipodi:rx="10.386578"
       sodipodi:ry="10.386578"
       d="m 194.97091,63.506504 c 0,5.736348 -4.65023,10.386578 -10.38657,10.386578 -5.73635,0 -10.38658,-4.65023 -10.38658,-10.386578 0,-5.736348 4.65023,-10.386578 10.38658,-10.386578 5.73634,0 10.38657,4.65023 10.38657,10.386578 z"
       transform="matrix(0.75756337,0,0,0.75756337,-69.834331,917.11914)" />
    <g
       ns0:preamble="/home/sriranga/Desktop/Prism_BasicElectronics/preamble.tex"
       ns0:text="$\\sim$"
       word-spacing="normal"
       letter-spacing="normal"
       font-size-adjust="none"
       font-stretch="normal"
       font-weight="normal"
       font-variant="normal"
       font-style="normal"
       stroke-miterlimit="10.433"
       xml:space="preserve"
       transform="matrix(1.2,0,0,-1.2,-201.92,1816.8393)"
       id="content"
       style="font-style:normal;font-variant:normal;font-weight:normal;font-stretch:normal;letter-spacing:normal;word-spacing:normal;text-anchor:start;fill:none;stroke:#000000;stroke-width:1;stroke-linecap:butt;stroke-linejoin:miter;stroke-miterlimit:10.43299961;stroke-opacity:1;stroke-dasharray:none;stroke-dashoffset:0"><path
         id="path7506"
         d="m 229.21,710.37 -0.2,0.09 c -0.16,-0.57 -0.47,-1.07 -1.13,-1.07 -0.78,0 -1.43,1.08 -2.33,1.08 -0.86,0 -1.33,-0.51 -1.56,-1.31 l 0.2,-0.08 c 0.23,0.51 0.58,0.88 1.17,0.88 0.78,0 1.35,-1.08 2.32,-1.08 0.95,0 1.39,0.61 1.53,1.49 z"
         inkscape:connector-curvature="0"
         style="fill:#000000;stroke-width:0" /></g>    <text
       xml:space="preserve"
       style="font-size:12px;font-style:normal;font-variant:normal;font-weight:normal;font-stretch:normal;text-align:start;line-height:150%;letter-spacing:0px;word-spacing:0px;text-anchor:start;fill:#000000;fill-opacity:1;stroke:none;font-family:LMRoman12;-inkscape-font-specification:Sans"
       x="22.937767"
       y="957.43298"
       id="text7535"
       sodipodi:linespacing="150%"><tspan
         sodipodi:role="line"
         id="tspan7537"
         x="22.937767"
         y="957.43298">voltage</tspan><tspan
         sodipodi:role="line"
         x="22.937767"
         y="975.43298"
         id="tspan7539">source</tspan></text>
    <path
       style="fill:none;stroke:#000000;stroke-width:1.20000005;stroke-linecap:round;stroke-linejoin:round;stroke-miterlimit:4;stroke-opacity:1;stroke-dasharray:none;stroke-dashoffset:0"
       d="m 210,892.36088 -10,5.5 -45,0 0,49.5 20,0 10,-5.5"
       id="path7569"
       inkscape:connector-curvature="0"
       sodipodi:nodetypes="cccccc" />
    <path
       sodipodi:nodetypes="cccc"
       style="fill:none;stroke:#000000;stroke-width:1.20000005;stroke-linecap:round;stroke-linejoin:round;stroke-miterlimit:4;stroke-opacity:1;stroke-dasharray:none;stroke-dashoffset:0"
       d="m 210,897.36087 50,0 0,50 -25,0"
       id="path7571"
       inkscape:connector-curvature="0" />
    <path
       sodipodi:type="arc"
       id="path7575"
       style="fill:#000000;stroke:none"
       sodipodi:cx="360"
       sodipodi:cy="797.36084"
       sodipodi:rx="2"
       sodipodi:ry="2"
       d="m 362,797.36084 c 0,1.10457 -0.89543,2 -2,2 -1.10457,0 -2,-0.89543 -2,-2 0,-1.10457 0.89543,-2 2,-2 1.10457,0 2,0.89543 2,2 z"
       transform="translate(-125,150.00001)" />
    <path
       style="fill:none;stroke:#000000;stroke-width:0.80000001;stroke-linecap:round;stroke-linejoin:round;stroke-miterlimit:4;stroke-opacity:1;stroke-dasharray:none;stroke-dashoffset:0;marker-end:url(#Arrow1Mend)"
       d="m 174.2872,939.99031 c 4.72795,2.40828 6.49148,7.35109 5.47466,10.86831 -0.43033,1.48852 -1.44236,3.29102 -2.26411,4.83523"
       id="path7555"
       inkscape:connector-curvature="0"
       sodipodi:nodetypes="csc" />
    <path
       sodipodi:nodetypes="csc"
       inkscape:connector-curvature="0"
       id="path7577"
       d="m 174.70688,914.67515 c 4.72795,2.40828 6.49148,7.35109 5.47466,10.86831 -0.43033,1.48852 -1.44236,3.29102 -2.26411,4.83523"
       style="fill:none;stroke:#000000;stroke-width:0.80000001;stroke-linecap:round;stroke-linejoin:round;stroke-miterlimit:4;stroke-opacity:1;stroke-dasharray:none;stroke-dashoffset:0;marker-end:url(#Arrow1Mend)" />
    <path
       transform="matrix(1.0707829,0,0,1.0602609,108.54905,837.40424)"
       d="m 203.30919,63.506504 a 18.724857,13.27945 0 1 1 -37.44971,0 18.724857,13.27945 0 1 1 37.44971,0 z"
       sodipodi:ry="13.27945"
       sodipodi:rx="18.724857"
       sodipodi:cy="63.506504"
       sodipodi:cx="184.58434"
       id="path7589"
       style="fill:none;stroke:#000000;stroke-width:1.12622249;stroke-linecap:round;stroke-linejoin:round;stroke-miterlimit:4;stroke-opacity:1;stroke-dasharray:none;stroke-dashoffset:0"
       sodipodi:type="arc" />
    <path
       style="fill:none;stroke:#000000;stroke-width:1.20000005;stroke-linecap:square;stroke-linejoin:round;stroke-miterlimit:4;stroke-opacity:1;stroke-dasharray:none;stroke-dashoffset:0"
       d="m 185,947.36086 40,0 10,-5"
       id="path8187"
       inkscape:connector-curvature="0"
       sodipodi:nodetypes="ccc" />
    <path
       transform="translate(50,25.000009)"
       sodipodi:type="arc"
       id="path8189"
       style="fill:#000000;stroke:none"
       sodipodi:cx="135"
       sodipodi:cy="897.36084"
       sodipodi:rx="2"
       sodipodi:ry="2"
       d="m 137,897.36084 c 0,1.10457 -0.89543,2 -2,2 -1.10457,0 -2,-0.89543 -2,-2 0,-1.10457 0.89543,-2 2,-2 1.10457,0 2,0.89543 2,2 z" />
    <path
       sodipodi:type="arc"
       id="path8191"
       style="fill:#000000;stroke:none"
       sodipodi:cx="135"
       sodipodi:cy="942.36084"
       sodipodi:rx="2"
       sodipodi:ry="2"
       d="m 137,942.36084 c 0,1.10457 -0.89543,2 -2,2 -1.10457,0 -2,-0.89543 -2,-2 0,-1.10457 0.89543,-2 2,-2 1.10457,0 2,0.89543 2,2 z"
       transform="translate(50,5.0000086)" />
    <path
       style="fill:none;stroke:#000000;stroke-width:0.80000001;stroke-linecap:round;stroke-linejoin:round;stroke-miterlimit:4;stroke-opacity:1;stroke-dasharray:none;stroke-dashoffset:0;marker-end:url(#Arrow1Mend)"
       d="m 224.8837,914.12415 c 4.72795,2.40828 6.49148,7.35109 5.47466,10.86831 -0.43033,1.48852 -1.44236,3.29102 -2.26411,4.83523"
       id="path8193"
       inkscape:connector-curvature="0"
       sodipodi:nodetypes="csc" />
    <path
       sodipodi:nodetypes="csc"
       inkscape:connector-curvature="0"
       id="path8195"
       d="m 224.22925,939.99031 c 4.72795,2.40828 6.49148,7.35109 5.47466,10.86831 -0.43033,1.48852 -1.44236,3.29102 -2.26411,4.83523"
       style="fill:none;stroke:#000000;stroke-width:0.80000001;stroke-linecap:round;stroke-linejoin:round;stroke-miterlimit:4;stroke-opacity:1;stroke-dasharray:none;stroke-dashoffset:0;marker-end:url(#Arrow1Mend)" />
    <path
       style="fill:none;stroke:#000000;stroke-width:1.20000005;stroke-linecap:square;stroke-linejoin:round;stroke-miterlimit:4;stroke-opacity:1;stroke-dasharray:none;stroke-dashoffset:0"
       d="m 115,922.36086 60,0 10,-5"
       id="path8780"
       inkscape:connector-curvature="0"
       sodipodi:nodetypes="ccc" />
    <path
       d="m 137,897.36084 c 0,1.10457 -0.89543,2 -2,2 -1.10457,0 -2,-0.89543 -2,-2 0,-1.10457 0.89543,-2 2,-2 1.10457,0 2,0.89543 2,2 z"
       sodipodi:ry="2"
       sodipodi:rx="2"
       sodipodi:cy="897.36084"
       sodipodi:cx="135"
       style="fill:#000000;stroke:none"
       id="path8782"
       sodipodi:type="arc"
       transform="translate(-20,25.000009)" />
    <path
       sodipodi:nodetypes="cc"
       inkscape:connector-curvature="0"
       id="path7276"
       d="m 235,922.36085 60.13469,0"
       style="fill:none;stroke:#000000;stroke-width:1.20000005;stroke-linecap:round;stroke-linejoin:round;stroke-miterlimit:4;stroke-opacity:1;stroke-dasharray:none;stroke-dashoffset:0" />
    <path
       d="m 212,897.36084 c 0,1.10457 -0.89543,2 -2,2 -1.10457,0 -2,-0.89543 -2,-2 0,-1.10457 0.89543,-2 2,-2 1.10457,0 2,0.89543 2,2 z"
       sodipodi:ry="2"
       sodipodi:rx="2"
       sodipodi:cy="897.36084"
       sodipodi:cx="210"
       style="fill:#000000;stroke:none"
       id="path8784"
       sodipodi:type="arc" />
    <path
       d="m 237,922.36084 c 0,1.10457 -0.89543,2 -2,2 -1.10457,0 -2,-0.89543 -2,-2 0,-1.10457 0.89543,-2 2,-2 1.10457,0 2,0.89543 2,2 z"
       sodipodi:ry="2"
       sodipodi:rx="2"
       sodipodi:cy="922.36084"
       sodipodi:cx="235"
       style="fill:#000000;stroke:none"
       id="path8786"
       sodipodi:type="arc" />
    <path
       sodipodi:nodetypes="csc"
       inkscape:connector-curvature="0"
       id="path8788"
       d="m 198.83855,889.41874 c 4.72795,2.40828 6.49148,7.35109 5.47466,10.86831 -0.43033,1.48852 -1.44236,3.29102 -2.26411,4.83523"
       style="fill:none;stroke:#000000;stroke-width:0.80000001;stroke-linecap:round;stroke-linejoin:round;stroke-miterlimit:4;stroke-opacity:1;stroke-dasharray:none;stroke-dashoffset:0;marker-end:url(#Arrow1Mend)" />
    <path
       style="fill:none;stroke:#000000;stroke-width:0.80000001;stroke-linecap:round;stroke-linejoin:round;stroke-miterlimit:4;stroke-opacity:1;stroke-dasharray:none;stroke-dashoffset:0;marker-end:url(#Arrow1Mend)"
       d="m 104.56922,914.08246 c 4.72795,2.40828 6.49148,7.35109 5.47466,10.86831 -0.43033,1.48852 -1.44236,3.29102 -2.26411,4.83523"
       id="path8790"
       inkscape:connector-curvature="0"
       sodipodi:nodetypes="csc" />
    <g
       style="font-style:normal;font-variant:normal;font-weight:normal;font-stretch:normal;letter-spacing:normal;word-spacing:normal;text-anchor:start;fill:none;stroke:#000000;stroke-width:1;stroke-linecap:butt;stroke-linejoin:miter;stroke-miterlimit:10.43299961;stroke-opacity:1;stroke-dasharray:none;stroke-dashoffset:0"
       ns0:preamble="/home/sriranga/Desktop/Prism_BasicElectronics/preamble.tex"
       ns0:text="$m$"
       text-anchor="start"
       word-spacing="normal"
       letter-spacing="normal"
       font-size-adjust="none"
       font-stretch="normal"
       font-weight="normal"
       font-variant="normal"
       font-style="normal"
       fill-opacity="1"
       fill-rule="evenodd"
       fill="none"
       stroke-opacity="1"
       stroke-dashoffset="0"
       stroke-dasharray="none"
       stroke-miterlimit="10.433"
       stroke-linejoin="miter"
       stroke-linecap="butt"
       stroke="black"
       xml:space="preserve"
       transform="matrix(1.2,0,0,-1.2,-161.3236,1760.3681)"
       id="g8845"><path
         id="path8847"
         fill="black"
         stroke-width="0"
         d="M230.29,708.29 L230.27,708.26 L230.25,708.24 L230.23,708.22 L230.22,708.2 L230.21,708.19 L230.2,708.18 L230.19,708.17 L230.19,708.16 L230.18,708.15 L230.17,708.15 L230.16,708.14 L230.16,708.13 L230.15,708.12 L230.14,708.11 L230.14,708.1 L230.13,708.1 L230.13,708.09 L230.12,708.08 L230.11,708.08 L230.11,708.07 L230.1,708.06 L230.1,708.06 L230.1,708.05 L230.09,708.05 L230.09,708.04 L230.08,708.04 L230.08,708.03 L230.08,708.03 C229.8,707.67,229.59,707.5,229.44,707.5 C229.36,707.5,229.31,707.56,229.31,707.66 C229.31,707.71,229.35,707.87,229.41,708.11 L230.09,710.6 C230.1,710.64,230.12,710.82,230.12,710.88 C230.12,711.24,229.87,711.51,229.53,711.51 C229.34,711.51,229.14,711.44,228.9,711.29 C228.42,710.97,228.01,710.49,227.32,709.4 C227.57,710.16,227.72,710.72,227.72,710.91 C227.72,711.26,227.49,711.51,227.15,711.51 C226.55,711.51,225.85,710.85,224.93,709.41 L225.51,711.49 L225.48,711.51 C224.92,711.39,224.71,711.35,223.89,711.2 V711.04 H224.14 C224.4,711.04,224.53,710.97,224.53,710.82 C224.53,710.71,224.3,709.81,223.94,708.55 C223.71,707.73,223.68,707.63,223.55,707.12 H224.3 C224.77,708.7,224.92,709.07,225.26,709.59 C225.82,710.43,226.42,710.99,226.76,710.99 C226.88,710.99,226.95,710.9,226.95,710.74 C226.95,710.65,226.64,709.45,226.01,707.12 H226.76 C227.15,708.67,227.35,709.17,227.86,709.88 C228.35,710.55,228.84,710.99,229.13,710.99 C229.24,710.99,229.33,710.89,229.33,710.78 C229.33,710.73,229.31,710.61,229.26,710.43 L228.68,708.15 C228.6,707.78,228.56,707.59,228.56,707.49 C228.56,707.19,228.7,707.04,228.95,707.04 C229.42,707.04,229.86,707.36,230.39,708.1 L230.44,708.17 Z " /></g>    <g
       id="g8955"
       transform="matrix(1.2,0,0,-1.2,-65.634591,1734.8013)"
       xml:space="preserve"
       stroke="black"
       stroke-linecap="butt"
       stroke-linejoin="miter"
       stroke-miterlimit="10.433"
       stroke-dasharray="none"
       stroke-dashoffset="0"
       stroke-opacity="1"
       fill="none"
       fill-rule="evenodd"
       fill-opacity="1"
       font-style="normal"
       font-variant="normal"
       font-weight="normal"
       font-stretch="normal"
       font-size-adjust="none"
       letter-spacing="normal"
       word-spacing="normal"
       text-anchor="start"
       ns0:text="$x$"
       ns0:preamble="/home/sriranga/Desktop/Prism_BasicElectronics/preamble.tex"
       style="font-style:normal;font-variant:normal;font-weight:normal;font-stretch:normal;letter-spacing:normal;word-spacing:normal;text-anchor:start;fill:none;stroke:#000000;stroke-width:1;stroke-linecap:butt;stroke-linejoin:miter;stroke-miterlimit:10.43299961;stroke-opacity:1;stroke-dasharray:none;stroke-dashoffset:0"><path
         d="M227.93,708.23 L227.92,708.21 L227.9,708.2 L227.89,708.18 L227.87,708.16 L227.86,708.15 L227.85,708.13 L227.84,708.12 L227.82,708.1 L227.81,708.09 L227.8,708.07 L227.79,708.06 L227.77,708.04 L227.76,708.03 L227.76,708.02 L227.75,708.01 L227.74,708 L227.74,707.99 L227.73,707.98 L227.72,707.97 L227.71,707.96 C227.48,707.66,227.36,707.56,227.25,707.56 C227.1,707.56,227.01,707.69,226.95,707.97 C226.93,708.05,226.91,708.11,226.9,708.14 C226.66,709.14,226.55,709.6,226.55,709.75 C226.98,710.51,227.34,710.95,227.52,710.95 C227.58,710.95,227.66,710.92,227.76,710.87 C227.88,710.8,227.95,710.78,228.03,710.78 C228.24,710.78,228.38,710.93,228.38,711.14 C228.38,711.35,228.21,711.51,227.97,711.51 C227.53,711.51,227.15,711.15,226.47,710.09 L226.36,710.63 C226.22,711.31,226.11,711.51,225.84,711.51 C225.62,711.51,225.28,711.42,224.68,711.22 L224.57,711.18 L224.61,711.03 C224.99,711.12,225.07,711.14,225.16,711.14 C225.41,711.14,225.47,711.05,225.61,710.45 L225.9,709.23 L225.08,708.07 C224.88,707.77,224.69,707.59,224.58,707.59 C224.52,707.59,224.42,707.62,224.32,707.68 C224.19,707.75,224.08,707.78,224,707.78 C223.81,707.78,223.66,707.63,223.66,707.43 C223.66,707.17,223.86,707.02,224.16,707.02 C224.47,707.02,224.59,707.1,225.08,707.71 C225.35,708.03,225.56,708.3,225.98,708.87 L226.28,707.68 C226.41,707.17,226.54,707.02,226.85,707.02 C227.23,707.02,227.49,707.25,228.07,708.15 Z "
         stroke-width="0"
         fill="black"
         id="path8957" /></g>    <g
       style="font-style:normal;font-variant:normal;font-weight:normal;font-stretch:normal;letter-spacing:normal;word-spacing:normal;text-anchor:start;fill:none;stroke:#000000;stroke-width:1;stroke-linecap:butt;stroke-linejoin:miter;stroke-miterlimit:10.43299961;stroke-opacity:1;stroke-dasharray:none;stroke-dashoffset:0"
       ns0:preamble="/home/sriranga/Desktop/Prism_BasicElectronics/preamble.tex"
       ns0:text="$f$"
       word-spacing="normal"
       letter-spacing="normal"
       font-size-adjust="none"
       font-stretch="normal"
       font-weight="normal"
       font-variant="normal"
       font-style="normal"
       stroke-miterlimit="10.433"
       xml:space="preserve"
       transform="matrix(1.2,0,0,-1.2,36.28757,1735.1219)"
       id="g9065"><path
         id="path9067"
         d="m 225.27,711.06 h 0.9 l -0.88,-4.17 c -0.22,-1.07 -0.54,-1.61 -0.96,-1.61 -0.12,0 -0.2,0.07 -0.2,0.16 0,0.03 0.01,0.06 0.04,0.11 0.04,0.05 0.05,0.1 0.05,0.15 0,0.21 -0.18,0.38 -0.39,0.38 -0.21,0 -0.37,-0.18 -0.37,-0.41 0,-0.33 0.35,-0.6 0.79,-0.6 0.88,0 1.58,0.98 1.99,2.81 l 0.72,3.18 h 1.08 l 0.06,0.32 h -1.08 c 0.29,1.56 0.66,2.26 1.22,2.26 0.13,0 0.22,-0.05 0.22,-0.12 0,-0.03 -0.01,-0.05 -0.04,-0.1 -0.04,-0.09 -0.06,-0.14 -0.06,-0.21 0,-0.23 0.15,-0.39 0.37,-0.39 0.23,0 0.42,0.18 0.42,0.39 0,0.37 -0.37,0.65 -0.86,0.65 -0.49,0 -0.88,-0.22 -1.24,-0.69 -0.29,-0.38 -0.49,-0.84 -0.79,-1.79 h -0.92 z"
         inkscape:connector-curvature="0"
         style="fill:#000000;stroke-width:0" /></g>    <g
       id="g9198"
       transform="matrix(1.2,0,0,-1.2,-87.650564,1761.1677)"
       xml:space="preserve"
       stroke-miterlimit="10.433"
       font-style="normal"
       font-variant="normal"
       font-weight="normal"
       font-stretch="normal"
       font-size-adjust="none"
       letter-spacing="normal"
       word-spacing="normal"
       ns0:text="$y$"
       ns0:preamble="/home/sriranga/Desktop/Prism_BasicElectronics/preamble.tex"
       style="font-style:normal;font-variant:normal;font-weight:normal;font-stretch:normal;letter-spacing:normal;word-spacing:normal;text-anchor:start;fill:none;stroke:#000000;stroke-width:1;stroke-linecap:butt;stroke-linejoin:miter;stroke-miterlimit:10.43299961;stroke-opacity:1;stroke-dasharray:none;stroke-dashoffset:0"><path
         style="fill:#000000;stroke-width:0"
         inkscape:connector-curvature="0"
         d="m 223.58,711.1 0.01,0 0.01,0 0.02,0.01 0.01,0 0.01,0 0.01,0 0.01,0.01 0.01,0 0.02,0 0.02,0 0.02,0.01 0.01,0 0.02,0 0.02,0 0.02,0 0.01,0.01 0.02,0 0.02,0 0.02,0 0.01,0 0.01,0 c 0.57,0 0.72,-0.25 1.17,-1.96 0.17,-0.64 0.41,-1.81 0.41,-1.98 0,-0.15 -0.06,-0.31 -0.21,-0.49 -0.31,-0.41 -0.5,-0.67 -0.61,-0.79 -0.21,-0.22 -0.33,-0.3 -0.46,-0.3 -0.06,0 -0.13,0.04 -0.24,0.11 -0.15,0.12 -0.26,0.17 -0.37,0.17 -0.22,0 -0.39,-0.17 -0.39,-0.38 0,-0.25 0.22,-0.44 0.51,-0.44 0.64,0 1.94,1.49 3.01,3.46 0.68,1.22 0.96,1.93 0.96,2.42 0,0.3 -0.25,0.55 -0.55,0.55 -0.23,0 -0.38,-0.15 -0.38,-0.37 0,-0.15 0.08,-0.26 0.27,-0.39 0.19,-0.11 0.26,-0.2 0.26,-0.34 0,-0.39 -0.37,-1.17 -1.21,-2.57 l -0.2,1.15 c -0.15,0.88 -0.71,2.52 -0.86,2.52 h -0.04 c -0.01,-0.01 -0.05,-0.01 -0.08,-0.01 -0.09,-0.01 -0.45,-0.07 -0.98,-0.17 -0.05,-0.01 -0.18,-0.04 -0.32,-0.06 z"
         id="path9200" /></g>    <g
       style="font-style:normal;font-variant:normal;font-weight:normal;font-stretch:normal;letter-spacing:normal;word-spacing:normal;text-anchor:start;fill:none;stroke:#000000;stroke-width:1;stroke-linecap:butt;stroke-linejoin:miter;stroke-miterlimit:10.43299961;stroke-opacity:1;stroke-dasharray:none;stroke-dashoffset:0"
       ns0:preamble="/home/sriranga/Desktop/Prism_BasicElectronics/preamble.tex"
       ns0:text="$z$"
       text-anchor="start"
       word-spacing="normal"
       letter-spacing="normal"
       font-size-adjust="none"
       font-stretch="normal"
       font-weight="normal"
       font-variant="normal"
       font-style="normal"
       fill-opacity="1"
       fill-rule="evenodd"
       fill="none"
       stroke-opacity="1"
       stroke-dashoffset="0"
       stroke-dasharray="none"
       stroke-miterlimit="10.433"
       stroke-linejoin="miter"
       stroke-linecap="butt"
       stroke="black"
       xml:space="preserve"
       transform="matrix(1.2,0,0,-1.2,-37.327806,1761.1677)"
       id="g9318"><path
         id="path9320"
         fill="black"
         stroke-width="0"
         d="M224.24,710.2 L224.26,710.24 L224.28,710.28 L224.3,710.32 L224.31,710.36 L224.33,710.4 L224.35,710.43 L224.37,710.47 L224.39,710.5 L224.4,710.52 L224.42,710.55 L224.44,710.58 L224.46,710.6 L224.48,710.62 L224.5,710.64 L224.52,710.66 L224.54,710.67 L224.57,710.69 L224.59,710.7 L224.61,710.72 L224.64,710.73 L224.66,710.74 L224.69,710.74 L224.72,710.75 L224.75,710.76 L224.78,710.76 L224.81,710.77 L224.85,710.77 L224.88,710.78 L224.92,710.78 L224.96,710.78 L225,710.78 L225.04,710.78 H226.5 L223.41,707.09 L223.5,707 C223.66,707.12,223.79,707.17,223.96,707.17 C224.2,707.17,224.53,707.05,224.99,706.76 C225.49,706.45,225.83,706.32,226.11,706.32 C226.61,706.32,227.04,706.68,227.04,707.08 C227.04,707.28,226.9,707.43,226.7,707.43 C226.5,707.43,226.36,707.3,226.36,707.12 C226.36,707.04,226.39,706.94,226.45,706.83 C226.48,706.77,226.5,706.71,226.5,706.68 C226.5,706.59,226.39,706.53,226.23,706.53 C225.98,706.53,225.86,706.61,225.53,707.03 C225.09,707.59,224.9,707.72,224.33,707.85 L227.21,711.27 V711.38 H224.39 L224.08,710.23 Z " /></g>    <g
       id="g9436"
       transform="matrix(1.2,0,0,-1.2,-90.978584,1811.8068)"
       xml:space="preserve"
       stroke-miterlimit="10.433"
       font-style="normal"
       font-variant="normal"
       font-weight="normal"
       font-stretch="normal"
       font-size-adjust="none"
       letter-spacing="normal"
       word-spacing="normal"
       ns0:text="$p$"
       ns0:preamble="/home/sriranga/Desktop/Prism_BasicElectronics/preamble.tex"
       style="font-style:normal;font-variant:normal;font-weight:normal;font-stretch:normal;letter-spacing:normal;word-spacing:normal;text-anchor:start;fill:none;stroke:#000000;stroke-width:1;stroke-linecap:butt;stroke-linejoin:miter;stroke-miterlimit:10.43299961;stroke-opacity:1;stroke-dasharray:none;stroke-dashoffset:0"><path
         d="m 224.74,711.14 h 0.22 c 0,0 0.03,0 0.03,0.01 0.13,0.06 0.39,-0.13 0.39,-0.28 0,-0.09 -0.36,-1.5 -0.7,-2.81 -0.27,-0.99 -0.51,-1.94 -0.58,-2.23 -0.11,-0.45 -0.24,-0.57 -0.67,-0.58 v -0.16 h 2.04 v 0.15 c -0.46,0 -0.63,0.09 -0.63,0.3 0,0.13 0.17,0.91 0.36,1.64 0.25,-0.13 0.43,-0.16 0.66,-0.16 l -0.04,0.18 c -0.28,0 -0.48,0.15 -0.48,0.37 0,0.34 0.36,1.64 0.65,2.38 0.27,0.67 0.85,1.16 1.34,1.13 h 0 c 0.43,-0.02 0.62,-0.28 0.62,-0.86 0,-0.65 -0.29,-1.51 -0.72,-2.12 -0.41,-0.59 -0.89,-0.9 -1.41,-0.9 l 0.04,-0.18 c 1.45,0 2.99,1.66 2.99,3.24 0,0.78 -0.44,1.25 -1.15,1.25 -0.65,0 -1.12,-0.32 -1.7,-1.13 l 0.29,1 0.03,0.09 c 0,0 -0.01,0.01 -0.02,0.03 l -0.02,0.01 c 0,0.01 -0.01,0.01 -0.01,0.01 l -0.02,-0.01 -1.53,-0.22 z"
         id="path9438"
         inkscape:connector-curvature="0"
         style="fill:#000000;stroke-width:0" /></g>    <g
       style="font-style:normal;font-variant:normal;font-weight:normal;font-stretch:normal;letter-spacing:normal;word-spacing:normal;text-anchor:start;fill:none;stroke:#000000;stroke-width:1;stroke-linecap:butt;stroke-linejoin:miter;stroke-miterlimit:10.43299961;stroke-opacity:1;stroke-dasharray:none;stroke-dashoffset:0"
       ns0:preamble="/home/sriranga/Desktop/Prism_BasicElectronics/preamble.tex"
       ns0:text="$q$"
       text-anchor="start"
       word-spacing="normal"
       letter-spacing="normal"
       font-size-adjust="none"
       font-stretch="normal"
       font-weight="normal"
       font-variant="normal"
       font-style="normal"
       fill-opacity="1"
       fill-rule="evenodd"
       fill="none"
       stroke-opacity="1"
       stroke-dashoffset="0"
       stroke-dasharray="none"
       stroke-miterlimit="10.433"
       stroke-linejoin="miter"
       stroke-linecap="butt"
       stroke="black"
       xml:space="preserve"
       transform="matrix(1.2,0,0,-1.2,-38.287292,1811.8716)"
       id="g9554"><path
         id="path9556"
         fill="black"
         stroke-width="0"
         d="M227.32,705.23 H227.15 C226.79,705.23,226.58,705.33,226.59,705.52 C226.59,705.55,226.6,705.59,226.61,705.62 L228.24,711.36 H227.51 L227.36,710.89 C227.2,711.35,227,711.51,226.6,711.51 L226.63,711.29 C226.95,711.29,227.21,711.02,227.21,710.68 C227.21,709.86,226.54,708.45,225.86,707.88 C225.6,707.66,225.33,707.54,225.09,707.54 C224.76,707.54,224.54,707.84,224.54,708.31 C224.54,709.04,225.05,710.15,225.7,710.8 C226.01,711.11,226.34,711.29,226.63,711.29 H226.63 L226.6,711.51 C225.28,711.51,223.68,709.68,223.68,708.17 C223.68,707.46,224.07,707.02,224.7,707.02 C225.4,707.02,225.86,707.38,226.74,708.65 L225.86,705.73 C225.73,705.34,225.57,705.26,224.92,705.21 V705.05 H227.32 Z " /></g>    <path
       style="fill:none;stroke:#000000;stroke-width:1.20000005;stroke-linecap:round;stroke-linejoin:round;stroke-miterlimit:4;stroke-opacity:1;stroke-dasharray:none;stroke-dashoffset:0"
       d="m 301.90508,912.14765 c -5,-6.38327 -1.099,-15.31986 4,-15.31986 5,0 9,8.93659 4,15.31986"
       id="path9627"
       inkscape:connector-curvature="0"
       sodipodi:nodetypes="csc" />
    <g
       id="g9633"
       transform="matrix(1,0,0,1.2766551,-48.09492,-248.79252)">
      <path
         style="fill:none;stroke:#000000;stroke-width:1.06204879;stroke-linecap:round;stroke-linejoin:round;stroke-miterlimit:4;stroke-opacity:1;stroke-dasharray:none;stroke-dashoffset:0"
         d="m 365,917.36085 c -1.42929,-10.55985 3.69777,-6.74478 3.2385,-14.23511"
         id="path9615"
         inkscape:connector-curvature="0"
         sodipodi:nodetypes="cc" />
      <path
         style="fill:none;stroke:#000000;stroke-width:1.06204879;stroke-linecap:round;stroke-linejoin:round;stroke-miterlimit:4;stroke-opacity:1;stroke-dasharray:none;stroke-dashoffset:0"
         d="m 358,909.36085 c -5,-5 -1.099,-12 4,-12 5,0 9,7 4,12"
         id="path9629"
         inkscape:connector-curvature="0"
         sodipodi:nodetypes="csc" />
    </g>
    <g
       id="g9637"
       transform="matrix(-1,0,0,1.2766551,660,-248.79252)">
      <path
         sodipodi:nodetypes="cc"
         inkscape:connector-curvature="0"
         id="path9639"
         d="m 365,917.36085 c -1.42929,-10.55985 3.69777,-6.74478 3.2385,-14.23511"
         style="fill:none;stroke:#000000;stroke-width:1.06204879;stroke-linecap:round;stroke-linejoin:round;stroke-miterlimit:4;stroke-opacity:1;stroke-dasharray:none;stroke-dashoffset:0" />
      <path
         sodipodi:nodetypes="csc"
         inkscape:connector-curvature="0"
         id="path9641"
         d="m 358,909.36085 c -5,-5 -1.099,-12 4,-12 5,0 9,7 4,12"
         style="fill:none;stroke:#000000;stroke-width:1.06204879;stroke-linecap:round;stroke-linejoin:round;stroke-miterlimit:4;stroke-opacity:1;stroke-dasharray:none;stroke-dashoffset:0" />
    </g>
  </g>
</svg>
