<?xml version="1.0" encoding="UTF-8" standalone="no"?>
<!-- Created with Inkscape (http://www.inkscape.org/) -->

<svg
   xmlns:ns0="http://www.iki.fi/pav/software/textext/"
   xmlns:dc="http://purl.org/dc/elements/1.1/"
   xmlns:cc="http://creativecommons.org/ns#"
   xmlns:rdf="http://www.w3.org/1999/02/22-rdf-syntax-ns#"
   xmlns:svg="http://www.w3.org/2000/svg"
   xmlns="http://www.w3.org/2000/svg"
   xmlns:sodipodi="http://sodipodi.sourceforge.net/DTD/sodipodi-0.dtd"
   xmlns:inkscape="http://www.inkscape.org/namespaces/inkscape"
   width="496.06299"
   height="354.33069"
   id="svg2"
   version="1.1"
   inkscape:version="0.48.4 r9939"
   sodipodi:docname="figP5.69b.eps">
  <sodipodi:namedview
     id="base"
     pagecolor="#ffffff"
     bordercolor="#666666"
     borderopacity="1.0"
     inkscape:pageopacity="0.0"
     inkscape:pageshadow="2"
     inkscape:zoom="1.1913807"
     inkscape:cx="267.02763"
     inkscape:cy="148.58672"
     inkscape:document-units="cm"
     inkscape:current-layer="layer1"
     showgrid="false"
     units="cm"
     inkscape:object-nodes="true"
     inkscape:window-width="1366"
     inkscape:window-height="744"
     inkscape:window-x="0"
     inkscape:window-y="24"
     inkscape:window-maximized="1">
    <inkscape:grid
       snapvisiblegridlinesonly="true"
       enabled="true"
       visible="true"
       empspacing="5"
       id="grid2985"
       type="xygrid" />
  </sodipodi:namedview>
  <defs
     id="defs4">
    <marker
       style="overflow:visible"
       id="Arrow1Mstart"
       refX="0"
       refY="0"
       orient="auto"
       inkscape:stockid="Arrow1Mstart">
      <path
         transform="matrix(0.4,0,0,0.4,4,0)"
         style="fill-rule:evenodd;stroke:#000000;stroke-width:1pt"
         d="M 0,0 5,-5 -12.5,0 5,5 0,0 z"
         id="path3775"
         inkscape:connector-curvature="0" />
    </marker>
    <marker
       style="overflow:visible"
       id="Arrow1Mend"
       refX="0"
       refY="0"
       orient="auto"
       inkscape:stockid="Arrow1Mend">
      <path
         transform="matrix(-0.4,0,0,-0.4,-4,0)"
         style="fill-rule:evenodd;stroke:#000000;stroke-width:1pt"
         d="M 0,0 5,-5 -12.5,0 5,5 0,0 z"
         id="path3778"
         inkscape:connector-curvature="0" />
    </marker>
    <marker
       inkscape:stockid="Arrow1Mstart"
       orient="auto"
       refY="0"
       refX="0"
       id="Arrow1Mstart-7"
       style="overflow:visible">
      <path
         inkscape:connector-curvature="0"
         id="path3775-8"
         d="M 0,0 5,-5 -12.5,0 5,5 0,0 z"
         style="fill-rule:evenodd;stroke:#000000;stroke-width:1pt"
         transform="matrix(0.4,0,0,0.4,4,0)" />
    </marker>
    <marker
       inkscape:stockid="Arrow1Mend"
       orient="auto"
       refY="0"
       refX="0"
       id="Arrow1Mend-5"
       style="overflow:visible">
      <path
         inkscape:connector-curvature="0"
         id="path3778-9"
         d="M 0,0 5,-5 -12.5,0 5,5 0,0 z"
         style="fill-rule:evenodd;stroke:#000000;stroke-width:1pt"
         transform="matrix(-0.4,0,0,-0.4,-4,0)" />
    </marker>
    <marker
       inkscape:stockid="Arrow1Mstart"
       orient="auto"
       refY="0"
       refX="0"
       id="Arrow1Mstart-2"
       style="overflow:visible">
      <path
         inkscape:connector-curvature="0"
         id="path3775-1"
         d="M 0,0 5,-5 -12.5,0 5,5 0,0 z"
         style="fill-rule:evenodd;stroke:#000000;stroke-width:1pt"
         transform="matrix(0.4,0,0,0.4,4,0)" />
    </marker>
    <marker
       style="overflow:visible"
       id="Arrow1Mstart-7-5"
       refX="0"
       refY="0"
       orient="auto"
       inkscape:stockid="Arrow1Mstart">
      <path
         transform="matrix(0.4,0,0,0.4,4,0)"
         style="fill-rule:evenodd;stroke:#000000;stroke-width:1pt"
         d="M 0,0 5,-5 -12.5,0 5,5 0,0 z"
         id="path3775-8-6"
         inkscape:connector-curvature="0" />
    </marker>
    <marker
       inkscape:stockid="Arrow1Mend"
       orient="auto"
       refY="0"
       refX="0"
       id="Arrow1Mend-51"
       style="overflow:visible">
      <path
         inkscape:connector-curvature="0"
         id="path3778-4"
         d="M 0,0 5,-5 -12.5,0 5,5 0,0 z"
         style="fill-rule:evenodd;stroke:#000000;stroke-width:1pt"
         transform="matrix(-0.4,0,0,-0.4,-4,0)" />
    </marker>
    <marker
       inkscape:stockid="Arrow1Mstart"
       orient="auto"
       refY="0"
       refX="0"
       id="Arrow1Mstart-4"
       style="overflow:visible">
      <path
         inkscape:connector-curvature="0"
         id="path3775-6"
         d="M 0,0 5,-5 -12.5,0 5,5 0,0 z"
         style="fill-rule:evenodd;stroke:#000000;stroke-width:1pt"
         transform="matrix(0.4,0,0,0.4,4,0)" />
    </marker>
  </defs>
  <metadata
     id="metadata7">
    <rdf:RDF>
      <cc:Work
         rdf:about="">
        <dc:format>image/svg+xml</dc:format>
        <dc:type
           rdf:resource="http://purl.org/dc/dcmitype/StillImage" />
        <dc:title></dc:title>
      </cc:Work>
    </rdf:RDF>
  </metadata>
  <g
     transform="translate(0,-698.03016)"
     id="layer1"
     inkscape:groupmode="layer"
     inkscape:label="Layer 1">
    <path
       sodipodi:nodetypes="cccccc"
       inkscape:connector-curvature="0"
       id="path3151"
       d="m 40,892.36085 14.915392,0 c 0.08461,-5 10.084608,-5 10.084608,0 l 10,0 c 0,-5 10,-5 10,0 l 120,0"
       style="fill:none;stroke:#000000;stroke-width:1.20000005;stroke-linecap:square;stroke-linejoin:round;stroke-miterlimit:4;stroke-opacity:1;stroke-dasharray:none;stroke-dashoffset:0" />
    <path
       sodipodi:nodetypes="cc"
       inkscape:connector-curvature="0"
       id="path3153"
       d="m 80,912.36085 125,0"
       style="fill:none;stroke:#000000;stroke-width:1.20000005;stroke-linecap:square;stroke-linejoin:round;stroke-miterlimit:4;stroke-opacity:1;stroke-dasharray:none;stroke-dashoffset:0" />
    <text
       xml:space="preserve"
       style="font-size:12px;font-style:normal;font-variant:normal;font-weight:normal;font-stretch:normal;text-align:start;line-height:100%;letter-spacing:0px;word-spacing:0px;text-anchor:start;fill:#000000;fill-opacity:1;stroke:none;font-family:LMRoman12;-inkscape-font-specification:Sans"
       x="104.74892"
       y="653.59326"
       id="text5818"
       sodipodi:linespacing="100%"><tspan
         sodipodi:role="line"
         id="tspan5820"
         x="104.74892"
         y="653.59326" /></text>
    <flowRoot
       transform="translate(43.048363,-100.4773)"
       style="font-size:12px;font-style:normal;font-variant:normal;font-weight:normal;font-stretch:normal;text-align:start;line-height:100%;letter-spacing:0px;word-spacing:0px;text-anchor:start;fill:#000000;fill-opacity:1;stroke:none;font-family:LMRoman12;-inkscape-font-specification:Sans"
       id="flowRoot6377"
       xml:space="preserve"><flowRegion
         id="flowRegion6379"><rect
           y="87.141403"
           x="219.34796"
           height="40.319103"
           width="27.681772"
           id="rect6381" /></flowRegion><flowPara
         id="flowPara6383" /></flowRoot>    <text
       sodipodi:linespacing="50%"
       id="text6385"
       y="652.80005"
       x="318.96344"
       style="font-size:12px;font-style:normal;font-variant:normal;font-weight:normal;font-stretch:normal;text-align:start;line-height:50%;letter-spacing:0px;word-spacing:0px;text-anchor:start;fill:#000000;fill-opacity:1;stroke:none;font-family:LMRoman12;-inkscape-font-specification:Sans"
       xml:space="preserve"><tspan
         id="tspan6387"
         sodipodi:role="line"
         x="318.96344"
         y="652.80005" /></text>
    <text
       sodipodi:linespacing="100%"
       id="text3884"
       y="791.93988"
       x="391.70255"
       style="font-size:12px;font-style:normal;font-variant:normal;font-weight:normal;font-stretch:normal;text-align:start;line-height:100%;letter-spacing:0px;word-spacing:0px;text-anchor:start;fill:#000000;fill-opacity:1;stroke:none;font-family:LMRoman12;-inkscape-font-specification:Sans"
       xml:space="preserve"><tspan
         id="tspan3890"
         y="791.93988"
         x="391.70255"
         sodipodi:role="line" /></text>
    <text
       sodipodi:linespacing="150%"
       id="text3887"
       y="848.4502"
       x="260.01465"
       style="font-size:12px;font-style:normal;font-variant:normal;font-weight:normal;font-stretch:normal;text-align:start;line-height:150%;letter-spacing:0px;word-spacing:0px;text-anchor:start;fill:#000000;fill-opacity:1;stroke:none;font-family:LMRoman12;-inkscape-font-specification:Sans"
       xml:space="preserve"><tspan
         y="848.4502"
         x="260.01465"
         id="tspan3889"
         sodipodi:role="line" /></text>
    <path
       style="fill:none;stroke:#000000;stroke-width:1.20000005;stroke-linecap:square;stroke-linejoin:round;stroke-miterlimit:4;stroke-opacity:1;stroke-dasharray:none;stroke-dashoffset:0"
       d="m 375.93519,852.36085 35,0"
       id="path4239-3"
       inkscape:connector-curvature="0"
       sodipodi:nodetypes="cc" />
    <path
       sodipodi:nodetypes="cccccc"
       inkscape:connector-curvature="0"
       id="path8399"
       d="m 40,792.36085 14.915392,0 c 0.08461,-5 10.084608,-5 10.084608,0 l 10,0 c 0,-5 10,-5 10,0 l 120,0"
       style="fill:none;stroke:#000000;stroke-width:1.20000005;stroke-linecap:square;stroke-linejoin:round;stroke-miterlimit:4;stroke-opacity:1;stroke-dasharray:none;stroke-dashoffset:0" />
    <path
       style="fill:none;stroke:#000000;stroke-width:1.20000005;stroke-linecap:square;stroke-linejoin:round;stroke-miterlimit:4;stroke-opacity:1;stroke-dasharray:none;stroke-dashoffset:0"
       d="m 245,104.33069 55,0 0,35 48,0"
       id="path8403"
       inkscape:connector-curvature="0"
       transform="translate(0,698.03016)"
       sodipodi:nodetypes="cccc" />
    <path
       inkscape:connector-curvature="0"
       id="path8405"
       d="m 245,902.36085 55,0 0,-35 48,0"
       style="fill:none;stroke:#000000;stroke-width:1.20000005;stroke-linecap:square;stroke-linejoin:round;stroke-miterlimit:4;stroke-opacity:1;stroke-dasharray:none;stroke-dashoffset:0"
       sodipodi:nodetypes="cccc" />
    <path
       transform="translate(0,700.75809)"
       sodipodi:ry="0"
       sodipodi:rx="0"
       sodipodi:cy="119.33069"
       sodipodi:cx="160"
       id="path8419"
       style="fill:#ffffff;fill-opacity:1;stroke:#000000;stroke-width:0.80000001;stroke-linecap:square;stroke-linejoin:round;stroke-miterlimit:4;stroke-opacity:1;stroke-dasharray:none;stroke-dashoffset:0"
       sodipodi:type="arc" />
    <path
       transform="translate(0,700.75809)"
       sodipodi:ry="0"
       sodipodi:rx="0"
       sodipodi:cy="119.33069"
       sodipodi:cx="160"
       id="path8421"
       style="fill:#ffffff;fill-opacity:1;stroke:#000000;stroke-width:0.80000001;stroke-linecap:square;stroke-linejoin:round;stroke-miterlimit:4;stroke-opacity:1;stroke-dasharray:none;stroke-dashoffset:0"
       sodipodi:type="arc" />
    <path
       sodipodi:type="arc"
       style="fill:#ffffff;fill-opacity:1;stroke:#000000;stroke-width:0.80000001;stroke-linecap:square;stroke-linejoin:round;stroke-miterlimit:4;stroke-opacity:1;stroke-dasharray:none;stroke-dashoffset:0"
       id="path8425"
       sodipodi:cx="160"
       sodipodi:cy="119.33069"
       sodipodi:rx="0"
       sodipodi:ry="0"
       transform="translate(0,700.75809)" />
    <path
       sodipodi:type="arc"
       style="fill:#ffffff;fill-opacity:1;stroke:#000000;stroke-width:0.80000001;stroke-linecap:square;stroke-linejoin:round;stroke-miterlimit:4;stroke-opacity:1;stroke-dasharray:none;stroke-dashoffset:0"
       id="path8415-2"
       sodipodi:cx="160"
       sodipodi:cy="119.33069"
       sodipodi:rx="0"
       sodipodi:ry="0"
       transform="translate(0,701.38761)" />
    <path
       transform="translate(0,701.38761)"
       sodipodi:ry="0"
       sodipodi:rx="0"
       sodipodi:cy="119.33069"
       sodipodi:cx="160"
       id="path8480"
       style="fill:#ffffff;fill-opacity:1;stroke:#000000;stroke-width:0.80000001;stroke-linecap:square;stroke-linejoin:round;stroke-miterlimit:4;stroke-opacity:1;stroke-dasharray:none;stroke-dashoffset:0"
       sodipodi:type="arc" />
    <path
       sodipodi:type="arc"
       id="path8535"
       style="fill:#000000;stroke:none"
       sodipodi:cx="400"
       sodipodi:cy="852.36084"
       sodipodi:rx="2.1500001"
       sodipodi:ry="2.1500001"
       d="m 402.15,852.36084 c 0,1.18741 -0.96259,2.15 -2.15,2.15 -1.18741,0 -2.15,-0.96259 -2.15,-2.15 0,-1.18741 0.96259,-2.15 2.15,-2.15 1.18741,0 2.15,0.96259 2.15,2.15 z"
       transform="translate(10.93519,0)" />
    <path
       sodipodi:nodetypes="ccccc"
       inkscape:connector-curvature="0"
       id="path3075"
       d="m 195,882.36085 30,0 c 26.66667,-2e-5 26.66667,39.99998 0,39.99998 l -30,0 z"
       style="fill:#ffffff;stroke:#000000;stroke-width:1.20000005;stroke-linecap:round;stroke-linejoin:round;stroke-miterlimit:4;stroke-opacity:1;stroke-dasharray:none;stroke-dashoffset:0" />
    <path
       sodipodi:nodetypes="cccc"
       inkscape:connector-curvature="0"
       id="path3077"
       d="m 60,812.36085 15,0 c 0,-5 10,-5 10.08192,0 l 119.91808,0"
       style="fill:none;stroke:#000000;stroke-width:1.20000005;stroke-linecap:square;stroke-linejoin:round;stroke-miterlimit:4;stroke-opacity:1;stroke-dasharray:none;stroke-dashoffset:0" />
    <path
       style="fill:#ffffff;stroke:#000000;stroke-width:1.20000005;stroke-linecap:round;stroke-linejoin:round;stroke-miterlimit:4;stroke-opacity:1;stroke-dasharray:none;stroke-dashoffset:0"
       d="m 195,782.36087 30,0 c 26.66667,-2e-5 26.66667,39.99998 0,39.99998 l -30,0 z"
       id="path3073"
       inkscape:connector-curvature="0"
       sodipodi:nodetypes="ccccc" />
    <g
       transform="matrix(0,-1,1,0,-682.15101,932.34276)"
       id="g3113">
      <g
         transform="translate(-40.018087,-0.20984056)"
         id="g3115">
        <path
           inkscape:transform-center-y="2.5"
           transform="translate(60,698.03016)"
           d="m 100,119.33069 -8.660254,-15 17.320504,0 z"
           inkscape:randomized="0"
           inkscape:rounded="0"
           inkscape:flatsided="true"
           sodipodi:arg2="2.6179939"
           sodipodi:arg1="1.5707963"
           sodipodi:r2="5"
           sodipodi:r1="10"
           sodipodi:cy="109.33069"
           sodipodi:cx="100"
           sodipodi:sides="3"
           id="path3117"
           style="fill:#ffffff;stroke:#000000;stroke-width:1.20000005;stroke-linecap:square;stroke-linejoin:round;stroke-miterlimit:4;stroke-opacity:1;stroke-dasharray:none;stroke-dashoffset:0"
           sodipodi:type="star" />
        <path
           sodipodi:type="star"
           style="fill:#ffffff;stroke:#000000;stroke-width:1.20000005;stroke-linecap:square;stroke-linejoin:round;stroke-miterlimit:4;stroke-opacity:1;stroke-dasharray:none;stroke-dashoffset:0"
           id="path3119"
           sodipodi:sides="3"
           sodipodi:cx="100"
           sodipodi:cy="109.33069"
           sodipodi:r1="10"
           sodipodi:r2="5"
           sodipodi:arg1="1.5707963"
           sodipodi:arg2="2.6179939"
           inkscape:flatsided="true"
           inkscape:rounded="0"
           inkscape:randomized="0"
           d="m 100,119.33069 -8.660254,-15 17.320504,0 z"
           transform="translate(60,698.03016)"
           inkscape:transform-center-y="2.5" />
        <path
           inkscape:transform-center-y="2.5"
           transform="translate(60,698.03016)"
           d="m 100,119.33069 -8.660254,-15 17.320504,0 z"
           inkscape:randomized="0"
           inkscape:rounded="0"
           inkscape:flatsided="true"
           sodipodi:arg2="2.6179939"
           sodipodi:arg1="1.5707963"
           sodipodi:r2="5"
           sodipodi:r1="10"
           sodipodi:cy="109.33069"
           sodipodi:cx="100"
           sodipodi:sides="3"
           id="path3121"
           style="fill:#ffffff;stroke:#000000;stroke-width:1.20000005;stroke-linecap:square;stroke-linejoin:round;stroke-miterlimit:4;stroke-opacity:1;stroke-dasharray:none;stroke-dashoffset:0"
           sodipodi:type="star" />
        <path
           transform="translate(0,701.38761)"
           sodipodi:ry="0"
           sodipodi:rx="0"
           sodipodi:cy="119.33069"
           sodipodi:cx="160"
           id="path3123"
           style="fill:#ffffff;fill-opacity:1;stroke:#000000;stroke-width:0.80000001;stroke-linecap:square;stroke-linejoin:round;stroke-miterlimit:4;stroke-opacity:1;stroke-dasharray:none;stroke-dashoffset:0"
           sodipodi:type="arc" />
      </g>
      <path
         sodipodi:type="arc"
         style="fill:#ffffff;fill-opacity:1;stroke:#000000;stroke-width:0.80000001;stroke-linecap:square;stroke-linejoin:round;stroke-miterlimit:4;stroke-opacity:1;stroke-dasharray:none;stroke-dashoffset:0"
         id="path3125"
         sodipodi:cx="160"
         sodipodi:cy="119.33069"
         sodipodi:rx="2.9163368"
         sodipodi:ry="2.9163368"
         d="m 162.91634,119.33069 c 0,1.61065 -1.30569,2.91634 -2.91634,2.91634 -1.61065,0 -2.91634,-1.30569 -2.91634,-2.91634 0,-1.61065 1.30569,-2.91634 2.91634,-2.91634 1.61065,0 2.91634,1.30569 2.91634,2.91634 z"
         transform="translate(-40.018087,700.54825)" />
    </g>
    <g
       id="g3127"
       transform="matrix(0,-1,1,0,-682.15101,1012.3428)">
      <g
         id="g3129"
         transform="translate(-40.018087,-0.20984056)">
        <path
           sodipodi:type="star"
           style="fill:#ffffff;stroke:#000000;stroke-width:1.20000005;stroke-linecap:square;stroke-linejoin:round;stroke-miterlimit:4;stroke-opacity:1;stroke-dasharray:none;stroke-dashoffset:0"
           id="path3131"
           sodipodi:sides="3"
           sodipodi:cx="100"
           sodipodi:cy="109.33069"
           sodipodi:r1="10"
           sodipodi:r2="5"
           sodipodi:arg1="1.5707963"
           sodipodi:arg2="2.6179939"
           inkscape:flatsided="true"
           inkscape:rounded="0"
           inkscape:randomized="0"
           d="m 100,119.33069 -8.660254,-15 17.320504,0 z"
           transform="translate(60,698.03016)"
           inkscape:transform-center-y="2.5" />
        <path
           inkscape:transform-center-y="2.5"
           transform="translate(60,698.03016)"
           d="m 100,119.33069 -8.660254,-15 17.320504,0 z"
           inkscape:randomized="0"
           inkscape:rounded="0"
           inkscape:flatsided="true"
           sodipodi:arg2="2.6179939"
           sodipodi:arg1="1.5707963"
           sodipodi:r2="5"
           sodipodi:r1="10"
           sodipodi:cy="109.33069"
           sodipodi:cx="100"
           sodipodi:sides="3"
           id="path3133"
           style="fill:#ffffff;stroke:#000000;stroke-width:1.20000005;stroke-linecap:square;stroke-linejoin:round;stroke-miterlimit:4;stroke-opacity:1;stroke-dasharray:none;stroke-dashoffset:0"
           sodipodi:type="star" />
        <path
           sodipodi:type="star"
           style="fill:#ffffff;stroke:#000000;stroke-width:1.20000005;stroke-linecap:square;stroke-linejoin:round;stroke-miterlimit:4;stroke-opacity:1;stroke-dasharray:none;stroke-dashoffset:0"
           id="path3135"
           sodipodi:sides="3"
           sodipodi:cx="100"
           sodipodi:cy="109.33069"
           sodipodi:r1="10"
           sodipodi:r2="5"
           sodipodi:arg1="1.5707963"
           sodipodi:arg2="2.6179939"
           inkscape:flatsided="true"
           inkscape:rounded="0"
           inkscape:randomized="0"
           d="m 100,119.33069 -8.660254,-15 17.320504,0 z"
           transform="translate(60,698.03016)"
           inkscape:transform-center-y="2.5" />
        <path
           sodipodi:type="arc"
           style="fill:#ffffff;fill-opacity:1;stroke:#000000;stroke-width:0.80000001;stroke-linecap:square;stroke-linejoin:round;stroke-miterlimit:4;stroke-opacity:1;stroke-dasharray:none;stroke-dashoffset:0"
           id="path3137"
           sodipodi:cx="160"
           sodipodi:cy="119.33069"
           sodipodi:rx="0"
           sodipodi:ry="0"
           transform="translate(0,701.38761)" />
      </g>
      <path
         transform="translate(-40.018087,700.54825)"
         d="m 162.91634,119.33069 c 0,1.61065 -1.30569,2.91634 -2.91634,2.91634 -1.61065,0 -2.91634,-1.30569 -2.91634,-2.91634 0,-1.61065 1.30569,-2.91634 2.91634,-2.91634 1.61065,0 2.91634,1.30569 2.91634,2.91634 z"
         sodipodi:ry="2.9163368"
         sodipodi:rx="2.9163368"
         sodipodi:cy="119.33069"
         sodipodi:cx="160"
         id="path3139"
         style="fill:#ffffff;fill-opacity:1;stroke:#000000;stroke-width:0.80000001;stroke-linecap:square;stroke-linejoin:round;stroke-miterlimit:4;stroke-opacity:1;stroke-dasharray:none;stroke-dashoffset:0"
         sodipodi:type="arc" />
    </g>
    <path
       style="fill:none;stroke:#000000;stroke-width:1.20000005;stroke-linecap:square;stroke-linejoin:round;stroke-miterlimit:4;stroke-opacity:1;stroke-dasharray:none;stroke-dashoffset:0"
       d="m 40,767.36084 0,165.00001"
       id="path3141"
       inkscape:connector-curvature="0"
       sodipodi:nodetypes="cc" />
    <path
       sodipodi:nodetypes="cc"
       inkscape:connector-curvature="0"
       id="path3143"
       d="m 60,767.36084 0,165.00001"
       style="fill:none;stroke:#000000;stroke-width:1.20000005;stroke-linecap:square;stroke-linejoin:round;stroke-miterlimit:4;stroke-opacity:1;stroke-dasharray:none;stroke-dashoffset:0" />
    <path
       style="fill:none;stroke:#000000;stroke-width:1.20000005;stroke-linecap:square;stroke-linejoin:round;stroke-miterlimit:4;stroke-opacity:1;stroke-dasharray:none;stroke-dashoffset:0"
       d="m 80,767.36084 0,165.00001"
       id="path3145"
       inkscape:connector-curvature="0"
       sodipodi:nodetypes="cc" />
    <g
       style="font-style:normal;font-variant:normal;font-weight:normal;font-stretch:normal;letter-spacing:normal;word-spacing:normal;text-anchor:start;fill:none;stroke:#000000;stroke-width:1;stroke-linecap:butt;stroke-linejoin:miter;stroke-miterlimit:10.43299961;stroke-opacity:1;stroke-dasharray:none;stroke-dashoffset:0"
       ns0:preamble="/home/sriranga/Desktop/Prism_BasicElectronics/preamble.tex"
       ns0:text="$A$"
       word-spacing="normal"
       letter-spacing="normal"
       font-size-adjust="none"
       font-stretch="normal"
       font-weight="normal"
       font-variant="normal"
       font-style="normal"
       stroke-miterlimit="10.433"
       xml:space="preserve"
       transform="matrix(1.2,0,0,-1.2,-231.04753,1609.3227)"
       id="g10442"><path
         style="fill:#000000;stroke-width:0"
         inkscape:connector-curvature="0"
         id="path10444"
         d="m 229.29,707.28 -0.05,0.01 -0.05,0 -0.04,0.01 -0.05,0.01 -0.04,0 -0.04,0.01 -0.03,0.01 -0.04,0.01 -0.03,0.01 -0.03,0.01 -0.03,0.01 -0.02,0.02 -0.03,0.01 -0.02,0.02 -0.02,0.02 -0.02,0.02 -0.02,0.02 -0.02,0.03 -0.01,0.02 -0.02,0.03 -0.01,0.03 -0.02,0.04 -0.01,0.04 -0.01,0.04 -0.01,0.04 -0.01,0.04 -0.02,0.05 -0.01,0.06 0,0.02 -0.01,0.03 0,0.03 -0.01,0.03 -0.01,0.03 0,0.03 -0.01,0.03 0,0.04 -0.94,5.62 h -0.26 l -2.88,-4.97 c -0.79,-1.32 -0.89,-1.43 -1.29,-1.51 v -0.16 h 1.86 v 0.16 c -0.5,0.05 -0.58,0.1 -0.58,0.35 0,0.19 0.03,0.28 0.2,0.62 l 0.56,1.12 h 2.19 l -0.05,0.36 h -1.93 l 1.49,2.58 0.44,-2.58 0.05,-0.36 0.2,-1.3 c 0.01,-0.09 0.02,-0.18 0.02,-0.26 0,-0.38 -0.14,-0.47 -0.77,-0.53 v -0.16 h 2.44 z" /></g>    <g
       id="g10638"
       transform="matrix(1.2,0,0,-1.2,-211.10068,1609.5001)"
       xml:space="preserve"
       stroke-miterlimit="10.433"
       font-style="normal"
       font-variant="normal"
       font-weight="normal"
       font-stretch="normal"
       font-size-adjust="none"
       letter-spacing="normal"
       word-spacing="normal"
       ns0:text="$B$"
       ns0:preamble="/home/sriranga/Desktop/Prism_BasicElectronics/preamble.tex"
       style="font-style:normal;font-variant:normal;font-weight:normal;font-stretch:normal;letter-spacing:normal;word-spacing:normal;text-anchor:start;fill:none;stroke:#000000;stroke-width:1;stroke-linecap:butt;stroke-linejoin:miter;stroke-miterlimit:10.43299961;stroke-opacity:1;stroke-dasharray:none;stroke-dashoffset:0"><path
         style="fill:#000000;stroke-width:0"
         inkscape:connector-curvature="0"
         d="m 223.7,707.12 h 2.81 c 1.56,0 2.63,0.82 2.63,1.99 0,0.37 -0.12,0.72 -0.34,0.94 -0.19,0.22 -0.39,0.34 -0.91,0.56 0.71,0.17 0.99,0.29 1.31,0.57 0.28,0.24 0.43,0.57 0.43,0.97 0,0.94 -0.7,1.46 -1.99,1.46 l -0.18,-0.3 c 0.8,0 1.17,-0.33 1.17,-1.07 0,-0.57 -0.24,-1 -0.67,-1.24 -0.34,-0.2 -0.82,-0.27 -1.71,-0.27 l -0.1,-0.32 c 0.65,0 1.06,-0.04 1.26,-0.12 0.41,-0.17 0.66,-0.6 0.66,-1.14 0,-1.07 -0.74,-1.73 -1.95,-1.73 -0.42,0 -0.64,0.15 -0.64,0.42 0,0.12 0.12,0.6 0.35,1.39 0.13,0.45 0.19,0.68 0.32,1.18 h 0 l 0.1,0.32 0.65,2.31 c 0.06,0.21 0.17,0.27 0.56,0.27 l 0.18,0.3 h -2.57 v -0.16 c 0.62,-0.05 0.77,-0.13 0.77,-0.4 0,-0.15 -0.04,-0.4 -0.11,-0.64 l -1.22,-4.39 c -0.18,-0.58 -0.25,-0.64 -0.81,-0.74 z"
         id="path10640" /></g>    <path
       d="m 42.15,732.3609 c 0,1.18741 -0.962588,2.15 -2.15,2.15 -1.187412,0 -2.15,-0.96259 -2.15,-2.15 0,-1.18741 0.962588,-2.15 2.15,-2.15 1.187412,0 2.15,0.96259 2.15,2.15 z"
       sodipodi:ry="2.1500001"
       sodipodi:rx="2.1500001"
       sodipodi:cy="732.3609"
       sodipodi:cx="40"
       style="fill:#000000;stroke:none"
       id="path3168"
       sodipodi:type="arc"
       transform="translate(0,34.999958)" />
    <path
       d="m 62.15,732.3609 c 0,1.18741 -0.962588,2.15 -2.15,2.15 -1.187412,0 -2.15,-0.96259 -2.15,-2.15 0,-1.18741 0.962588,-2.15 2.15,-2.15 1.187412,0 2.15,0.96259 2.15,2.15 z"
       sodipodi:ry="2.1500001"
       sodipodi:rx="2.1500001"
       sodipodi:cy="732.3609"
       sodipodi:cx="60"
       style="fill:#000000;stroke:none"
       id="path3170"
       sodipodi:type="arc"
       transform="translate(0,34.999958)" />
    <path
       d="m 82.15,732.3609 c 0,1.18741 -0.962588,2.15 -2.15,2.15 -1.187412,0 -2.15,-0.96259 -2.15,-2.15 0,-1.18741 0.962588,-2.15 2.15,-2.15 1.187412,0 2.15,0.96259 2.15,2.15 z"
       sodipodi:ry="2.1500001"
       sodipodi:rx="2.1500001"
       sodipodi:cy="732.3609"
       sodipodi:cx="80"
       style="fill:#000000;stroke:none"
       id="path3172"
       sodipodi:type="arc"
       transform="translate(0,34.999958)" />
    <g
       style="font-style:normal;font-variant:normal;font-weight:normal;font-stretch:normal;letter-spacing:normal;word-spacing:normal;text-anchor:start;fill:none;stroke:#000000;stroke-width:1;stroke-linecap:butt;stroke-linejoin:miter;stroke-miterlimit:10.43299961;stroke-opacity:1;stroke-dasharray:none;stroke-dashoffset:0"
       ns0:preamble="/home/sriranga/Desktop/Prism_BasicElectronics/preamble.tex"
       ns0:text="$C$"
       word-spacing="normal"
       letter-spacing="normal"
       font-size-adjust="none"
       font-stretch="normal"
       font-weight="normal"
       font-variant="normal"
       font-style="normal"
       stroke-miterlimit="10.433"
       xml:space="preserve"
       transform="matrix(1.2,0,0,-1.2,-190.66132,1609.5001)"
       id="g3295"><path
         id="path3297"
         d="m 229.67,711.74 0.37,1.98 h -0.21 c -0.08,-0.16 -0.18,-0.22 -0.38,-0.22 -0.08,0 -0.2,0.02 -0.41,0.07 -0.44,0.11 -0.84,0.17 -1.16,0.17 -2.12,0 -4.04,-2 -4.04,-4.2 0,-1.52 1.07,-2.59 2.6,-2.59 1.02,0 1.82,0.43 2.71,1.48 l -0.17,0.14 c -0.89,-0.88 -1.47,-1.18 -2.28,-1.18 -1.11,0 -1.75,0.76 -1.75,2.04 0,1.18 0.48,2.38 1.26,3.19 0.47,0.48 1.1,0.76 1.76,0.76 0.91,0 1.42,-0.53 1.52,-1.61 z"
         inkscape:connector-curvature="0"
         style="fill:#000000;stroke-width:0" /></g>    <g
       id="g4566"
       transform="matrix(1.2,0,0,-1.2,-5.1670524,1647.065)"
       xml:space="preserve"
       stroke-miterlimit="10.433"
       font-style="normal"
       font-variant="normal"
       font-weight="normal"
       font-stretch="normal"
       font-size-adjust="none"
       letter-spacing="normal"
       word-spacing="normal"
       ns0:text="$A\\overline{B}$"
       ns0:preamble="/home/sriranga/Desktop/Prism_BasicElectronics/preamble.tex"
       style="font-style:normal;font-variant:normal;font-weight:normal;font-stretch:normal;letter-spacing:normal;word-spacing:normal;text-anchor:start;fill:none;stroke:#000000;stroke-width:1;stroke-linecap:butt;stroke-linejoin:miter;stroke-miterlimit:10.43299961;stroke-opacity:1;stroke-dasharray:none;stroke-dashoffset:0"><path
         d="m 229.29,707.28 -0.05,0.01 -0.05,0 -0.04,0.01 -0.05,0.01 -0.04,0 -0.04,0.01 -0.03,0.01 -0.04,0.01 -0.03,0.01 -0.03,0.01 -0.03,0.01 -0.02,0.02 -0.03,0.01 -0.02,0.02 -0.02,0.02 -0.02,0.02 -0.02,0.02 -0.02,0.03 -0.01,0.02 -0.02,0.03 -0.01,0.03 -0.02,0.04 -0.01,0.04 -0.01,0.04 -0.01,0.04 -0.01,0.04 -0.02,0.05 -0.01,0.06 0,0.02 -0.01,0.03 0,0.03 -0.01,0.03 -0.01,0.03 0,0.03 -0.01,0.03 0,0.04 -0.94,5.62 h -0.26 l -2.88,-4.97 c -0.79,-1.32 -0.89,-1.43 -1.29,-1.51 v -0.16 h 1.86 v 0.16 c -0.5,0.05 -0.58,0.1 -0.58,0.35 0,0.19 0.03,0.28 0.2,0.62 l 0.56,1.12 h 2.19 l -0.05,0.36 h -1.93 l 1.49,2.58 0.44,-2.58 0.05,-0.36 0.2,-1.3 c 0.01,-0.09 0.02,-0.18 0.02,-0.26 0,-0.38 -0.14,-0.47 -0.77,-0.53 v -0.16 h 2.44 z"
         id="path4568"
         inkscape:connector-curvature="0"
         style="fill:#000000;stroke-width:0" /><line
         x1="229.77"
         y1="715.59003"
         x2="236.10001"
         y2="715.59003"
         id="line4570"
         style="stroke-width:0.55800003" /><path
         d="m 230.04,707.12 h 2.8 c 1.56,0 2.64,0.82 2.64,1.99 0,0.37 -0.12,0.72 -0.34,0.94 -0.2,0.22 -0.4,0.34 -0.91,0.56 0.7,0.17 0.99,0.29 1.31,0.57 0.28,0.24 0.43,0.57 0.43,0.97 0,0.94 -0.71,1.46 -1.99,1.46 l -0.18,-0.3 c 0.79,0 1.16,-0.33 1.16,-1.07 0,-0.57 -0.24,-1 -0.66,-1.24 -0.34,-0.2 -0.82,-0.27 -1.72,-0.27 l -0.09,-0.32 c 0.64,0 1.06,-0.04 1.26,-0.12 0.41,-0.17 0.65,-0.6 0.65,-1.14 0,-1.07 -0.73,-1.73 -1.94,-1.73 -0.42,0 -0.64,0.15 -0.64,0.42 0,0.12 0.12,0.6 0.35,1.39 0.13,0.45 0.19,0.68 0.32,1.18 h 0 l 0.09,0.32 0.65,2.31 c 0.06,0.21 0.18,0.27 0.57,0.27 l 0.18,0.3 h -2.57 v -0.16 c 0.62,-0.05 0.77,-0.13 0.77,-0.4 0,-0.15 -0.04,-0.4 -0.11,-0.64 l -1.23,-4.39 c -0.18,-0.58 -0.24,-0.64 -0.8,-0.74 z"
         id="path4572"
         inkscape:connector-curvature="0"
         style="fill:#000000;stroke-width:0" /></g>    <path
       sodipodi:nodetypes="cccc"
       inkscape:connector-curvature="0"
       id="path7857"
       d="m 330,827.36087 c 22.9676,0 38.27932,8.33333 45.93519,24.99998 -7.65587,16.66667 -22.96759,24.99999 -45.93519,24.99999 7.65587,-16.66665 7.65587,-33.33331 0,-49.99997 z"
       style="fill:#ffffff;stroke:#000000;stroke-width:1.20000005000000010;stroke-linecap:butt;stroke-linejoin:round;stroke-miterlimit:4;stroke-opacity:1;stroke-dasharray:none;stroke-dashoffset:0" />
    <g
       style="font-style:normal;font-variant:normal;font-weight:normal;font-stretch:normal;letter-spacing:normal;word-spacing:normal;text-anchor:start;fill:none;stroke:#000000;stroke-width:1;stroke-linecap:butt;stroke-linejoin:miter;stroke-miterlimit:10.43299961;stroke-opacity:1;stroke-dasharray:none;stroke-dashoffset:0"
       ns0:preamble="/home/sriranga/Desktop/Prism_BasicElectronics/preamble.tex"
       ns0:text="$\\overline{A}  C$"
       word-spacing="normal"
       letter-spacing="normal"
       font-size-adjust="none"
       font-stretch="normal"
       font-weight="normal"
       font-variant="normal"
       font-style="normal"
       stroke-miterlimit="10.433"
       xml:space="preserve"
       transform="matrix(1.2,0,0,-1.2,-5.1562451,1747.1495)"
       id="g5374"><line
         id="line5376"
         y2="715.59003"
         x2="229.77"
         y1="715.59003"
         x1="223.42999"
         style="stroke-width:0.55800003" /><path
         id="path5378"
         d="m 229.29,707.28 -0.05,0.01 -0.05,0 -0.04,0.01 -0.05,0.01 -0.04,0 -0.04,0.01 -0.03,0.01 -0.04,0.01 -0.03,0.01 -0.03,0.01 -0.03,0.01 -0.02,0.02 -0.03,0.01 -0.02,0.02 -0.02,0.02 -0.02,0.02 -0.02,0.02 -0.02,0.03 -0.01,0.02 -0.02,0.03 -0.01,0.03 -0.02,0.04 -0.01,0.04 -0.01,0.04 -0.01,0.04 -0.01,0.04 -0.02,0.05 -0.01,0.06 0,0.02 -0.01,0.03 0,0.03 -0.01,0.03 -0.01,0.03 0,0.03 -0.01,0.03 0,0.04 -0.94,5.62 h -0.26 l -2.88,-4.97 c -0.79,-1.32 -0.89,-1.43 -1.29,-1.51 v -0.16 h 1.86 v 0.16 c -0.5,0.05 -0.58,0.1 -0.58,0.35 0,0.19 0.03,0.28 0.2,0.62 l 0.56,1.12 h 2.19 l -0.05,0.36 h -1.93 l 1.49,2.58 0.44,-2.58 0.05,-0.36 0.2,-1.3 c 0.01,-0.09 0.02,-0.18 0.02,-0.26 0,-0.38 -0.14,-0.47 -0.77,-0.53 v -0.16 h 2.44 z"
         inkscape:connector-curvature="0"
         style="fill:#000000;stroke-width:0" /><path
         id="path5380"
         d="m 236.01,711.74 0.36,1.98 h -0.21 c -0.07,-0.16 -0.17,-0.22 -0.37,-0.22 -0.08,0 -0.2,0.02 -0.41,0.07 -0.45,0.11 -0.85,0.17 -1.17,0.17 -2.11,0 -4.03,-2 -4.03,-4.2 0,-1.52 1.07,-2.59 2.59,-2.59 1.03,0 1.82,0.43 2.72,1.48 l -0.17,0.14 c -0.9,-0.88 -1.47,-1.18 -2.29,-1.18 -1.1,0 -1.74,0.76 -1.74,2.04 0,1.18 0.48,2.38 1.25,3.19 0.48,0.48 1.11,0.76 1.76,0.76 0.92,0 1.43,-0.53 1.53,-1.61 z"
         inkscape:connector-curvature="0"
         style="fill:#000000;stroke-width:0" /></g>    <g
       style="font-style:normal;font-variant:normal;font-weight:normal;font-stretch:normal;letter-spacing:normal;word-spacing:normal;text-anchor:start;fill:none;stroke:#000000;stroke-width:1;stroke-linecap:butt;stroke-linejoin:miter;stroke-miterlimit:10.43299961;stroke-opacity:1;stroke-dasharray:none;stroke-dashoffset:0"
       ns0:preamble="/home/sriranga/Desktop/Prism_BasicElectronics/preamble.tex"
       ns0:text="$Y= A\\overline{B}+\\overline{A}C$"
       word-spacing="normal"
       letter-spacing="normal"
       font-size-adjust="none"
       font-stretch="normal"
       font-weight="normal"
       font-variant="normal"
       font-style="normal"
       stroke-miterlimit="10.433"
       xml:space="preserve"
       transform="matrix(1.2,0,0,-1.2,148.35165,1706.0523)"
       id="content"><path
         id="path5774"
         d="m 224.34,713.45 0.02,0 0.03,0 0.05,-0.01 0.04,-0.01 0.04,-0.01 0.04,0 0.04,-0.01 0.03,-0.01 0.04,-0.01 0.03,-0.01 0.03,0 0.02,-0.01 0.03,-0.02 0.02,-0.01 0.02,-0.01 0.02,-0.01 0.02,-0.02 0.02,-0.02 0.02,-0.01 0.01,-0.02 0.02,-0.03 0.01,-0.02 0.02,-0.02 0.01,-0.03 0.01,-0.03 0.02,-0.03 0.01,-0.04 0.01,-0.03 0.01,-0.04 0.02,-0.04 0.01,-0.05 0.01,-0.02 0.01,-0.02 0.01,-0.03 0,-0.02 0.77,-2.68 -0.61,-2.1 c -0.17,-0.54 -0.38,-0.7 -1.04,-0.74 v -0.16 h 2.87 v 0.16 c -0.16,0.01 -0.29,0.02 -0.35,0.03 -0.39,0.02 -0.53,0.12 -0.53,0.37 0,0.21 0.07,0.51 0.31,1.28 0.03,0.09 0.05,0.16 0.06,0.2 l 0.28,1 2.18,2.69 c 0.32,0.39 0.4,0.46 0.7,0.6 v 0.16 h -1.88 v -0.16 c 0.12,-0.01 0.23,-0.02 0.27,-0.03 0.29,-0.03 0.42,-0.11 0.42,-0.27 0,-0.27 -0.46,-0.92 -1.5,-2.12 -0.17,-0.2 -0.22,-0.28 -0.38,-0.46 -0.11,0.44 -0.14,0.57 -0.3,1.09 -0.25,0.86 -0.36,1.29 -0.36,1.43 0,0.24 0.12,0.3 0.71,0.36 v 0.16 h -2.37 z"
         inkscape:connector-curvature="0"
         style="fill:#000000;stroke-width:0" /><polygon
         id="polygon5776"
         points="233.12,710.4 238.22,710.4 238.22,710.96 233.12,710.96 "
         style="fill:#000000;stroke-width:0" /><polygon
         id="polygon5778"
         points="233.12,708.39 238.22,708.39 238.22,708.94 233.12,708.94 "
         style="fill:#000000;stroke-width:0" /><path
         id="path5780"
         d="m 247.47,707.28 -0.05,0.01 -0.05,0 -0.05,0.01 -0.04,0.01 -0.04,0 -0.04,0.01 -0.04,0.01 -0.03,0.01 -0.03,0.01 -0.03,0.01 -0.03,0.01 -0.03,0.02 -0.02,0.01 -0.02,0.02 -0.02,0.02 -0.02,0.02 -0.02,0.02 -0.02,0.03 -0.01,0.02 -0.02,0.03 -0.01,0.03 -0.02,0.04 -0.01,0.04 -0.01,0.04 -0.02,0.04 -0.01,0.04 -0.01,0.05 -0.01,0.06 -0.01,0.02 0,0.03 -0.01,0.03 0,0.03 -0.01,0.03 -0.01,0.03 0,0.03 -0.01,0.04 -0.93,5.62 h -0.26 l -2.89,-4.97 c -0.78,-1.32 -0.88,-1.43 -1.28,-1.51 v -0.16 h 1.86 v 0.16 c -0.51,0.05 -0.59,0.1 -0.59,0.35 0,0.19 0.03,0.28 0.2,0.62 l 0.57,1.12 h 2.19 l -0.05,0.36 h -1.93 l 1.49,2.58 0.44,-2.58 0.05,-0.36 0.2,-1.3 c 0.01,-0.09 0.02,-0.18 0.02,-0.26 0,-0.38 -0.14,-0.47 -0.78,-0.53 v -0.16 h 2.45 z"
         inkscape:connector-curvature="0"
         style="fill:#000000;stroke-width:0" /><line
         id="line5782"
         y2="715.59003"
         x2="254.28"
         y1="715.59003"
         x1="247.95"
         style="stroke-width:0.55800003" /><path
         id="path5784"
         d="m 248.21,707.12 h 2.81 c 1.56,0 2.64,0.82 2.64,1.99 0,0.37 -0.12,0.72 -0.34,0.94 -0.2,0.22 -0.4,0.34 -0.92,0.56 0.71,0.17 1,0.29 1.32,0.57 0.27,0.24 0.42,0.57 0.42,0.97 0,0.94 -0.7,1.46 -1.99,1.46 l -0.17,-0.3 c 0.79,0 1.16,-0.33 1.16,-1.07 0,-0.57 -0.24,-1 -0.67,-1.24 -0.34,-0.2 -0.81,-0.27 -1.71,-0.27 l -0.1,-0.32 c 0.65,0 1.07,-0.04 1.27,-0.12 0.4,-0.17 0.65,-0.6 0.65,-1.14 0,-1.07 -0.73,-1.73 -1.95,-1.73 -0.42,0 -0.64,0.15 -0.64,0.42 0,0.12 0.13,0.6 0.35,1.39 0.13,0.45 0.19,0.68 0.32,1.18 h 0 l 0.1,0.32 0.65,2.31 c 0.06,0.21 0.18,0.27 0.57,0.27 l 0.17,0.3 h -2.56 v -0.16 c 0.61,-0.05 0.76,-0.13 0.76,-0.4 0,-0.15 -0.04,-0.4 -0.11,-0.64 l -1.22,-4.39 c -0.18,-0.58 -0.25,-0.64 -0.81,-0.74 z"
         inkscape:connector-curvature="0"
         style="fill:#000000;stroke-width:0" /><polygon
         id="polygon5786"
         points="259.94,712.2 259.38,712.2 259.38,709.96 257.11,709.96 257.11,709.4 259.38,709.4 259.38,707.12 259.94,707.12 259.94,709.4 262.21,709.4 262.21,709.96 259.94,709.96 "
         style="fill:#000000;stroke-width:0" /><line
         id="line5788"
         y2="715.59003"
         x2="271.38"
         y1="715.59003"
         x1="265.04999"
         style="stroke-width:0.55800003" /><path
         id="path5790"
         d="m 270.91,707.28 -0.06,0.01 -0.04,0 -0.05,0.01 -0.04,0.01 -0.04,0 -0.04,0.01 -0.04,0.01 -0.03,0.01 -0.03,0.01 -0.03,0.01 -0.03,0.01 -0.03,0.02 -0.02,0.01 -0.02,0.02 -0.03,0.02 -0.02,0.02 -0.01,0.02 -0.02,0.03 -0.02,0.02 -0.01,0.03 -0.02,0.03 -0.01,0.04 -0.01,0.04 -0.02,0.04 -0.01,0.04 -0.01,0.04 -0.01,0.05 -0.01,0.06 -0.01,0.02 0,0.03 -0.01,0.03 -0.01,0.03 0,0.03 -0.01,0.03 0,0.03 -0.01,0.04 -0.94,5.62 h -0.25 l -2.89,-4.97 c -0.78,-1.32 -0.88,-1.43 -1.28,-1.51 v -0.16 h 1.86 v 0.16 c -0.51,0.05 -0.59,0.1 -0.59,0.35 0,0.19 0.03,0.28 0.2,0.62 l 0.57,1.12 h 2.19 l -0.05,0.36 h -1.93 l 1.49,2.58 0.44,-2.58 0.05,-0.36 0.19,-1.3 c 0.02,-0.09 0.02,-0.18 0.02,-0.26 0,-0.38 -0.13,-0.47 -0.77,-0.53 v -0.16 h 2.45 z"
         inkscape:connector-curvature="0"
         style="fill:#000000;stroke-width:0" /><path
         id="path5792"
         d="m 277.62,711.74 0.37,1.98 h -0.21 c -0.08,-0.16 -0.18,-0.22 -0.38,-0.22 -0.08,0 -0.2,0.02 -0.41,0.07 -0.44,0.11 -0.84,0.17 -1.16,0.17 -2.12,0 -4.04,-2 -4.04,-4.2 0,-1.52 1.07,-2.59 2.6,-2.59 1.02,0 1.82,0.43 2.71,1.48 l -0.17,0.14 c -0.89,-0.88 -1.47,-1.18 -2.29,-1.18 -1.1,0 -1.74,0.76 -1.74,2.04 0,1.18 0.48,2.38 1.26,3.19 0.48,0.48 1.1,0.76 1.76,0.76 0.91,0 1.42,-0.53 1.52,-1.61 z"
         inkscape:connector-curvature="0"
         style="fill:#000000;stroke-width:0" /></g>  </g>
</svg>
