<?xml version="1.0" encoding="UTF-8" standalone="no"?>
<!-- Created with Inkscape (http://www.inkscape.org/) -->

<svg
   xmlns:ns0="http://www.iki.fi/pav/software/textext/"
   xmlns:dc="http://purl.org/dc/elements/1.1/"
   xmlns:cc="http://creativecommons.org/ns#"
   xmlns:rdf="http://www.w3.org/1999/02/22-rdf-syntax-ns#"
   xmlns:svg="http://www.w3.org/2000/svg"
   xmlns="http://www.w3.org/2000/svg"
   xmlns:sodipodi="http://sodipodi.sourceforge.net/DTD/sodipodi-0.dtd"
   xmlns:inkscape="http://www.inkscape.org/namespaces/inkscape"
   sodipodi:docname="figS6.svg"
   inkscape:version="0.48.4 r9939"
   version="1.1"
   id="svg2"
   height="354.33069"
   width="496.06299">
  <sodipodi:namedview
     id="base"
     pagecolor="#ffffff"
     bordercolor="#666666"
     borderopacity="1.0"
     inkscape:pageopacity="0.0"
     inkscape:pageshadow="2"
     inkscape:zoom="1.1913807"
     inkscape:cx="173.37168"
     inkscape:cy="123.88226"
     inkscape:document-units="cm"
     inkscape:current-layer="layer1"
     showgrid="false"
     units="cm"
     inkscape:object-nodes="true"
     inkscape:window-width="1366"
     inkscape:window-height="744"
     inkscape:window-x="0"
     inkscape:window-y="24"
     inkscape:window-maximized="1">
    <inkscape:grid
       snapvisiblegridlinesonly="true"
       enabled="true"
       visible="true"
       empspacing="5"
       id="grid2985"
       type="xygrid" />
  </sodipodi:namedview>
  <defs
     id="defs4">
    <marker
       style="overflow:visible"
       id="Arrow1Mstart"
       refX="0"
       refY="0"
       orient="auto"
       inkscape:stockid="Arrow1Mstart">
      <path
         transform="matrix(0.4,0,0,0.4,4,0)"
         style="fill-rule:evenodd;stroke:#000000;stroke-width:1pt"
         d="M 0,0 5,-5 -12.5,0 5,5 0,0 z"
         id="path3775"
         inkscape:connector-curvature="0" />
    </marker>
    <marker
       style="overflow:visible"
       id="Arrow1Mend"
       refX="0"
       refY="0"
       orient="auto"
       inkscape:stockid="Arrow1Mend">
      <path
         transform="matrix(-0.4,0,0,-0.4,-4,0)"
         style="fill-rule:evenodd;stroke:#000000;stroke-width:1pt"
         d="M 0,0 5,-5 -12.5,0 5,5 0,0 z"
         id="path3778"
         inkscape:connector-curvature="0" />
    </marker>
  </defs>
  <metadata
     id="metadata7">
    <rdf:RDF>
      <cc:Work
         rdf:about="">
        <dc:format>image/svg+xml</dc:format>
        <dc:type
           rdf:resource="http://purl.org/dc/dcmitype/StillImage" />
        <dc:title></dc:title>
      </cc:Work>
    </rdf:RDF>
  </metadata>
  <g
     transform="translate(0,-698.03016)"
     id="layer1"
     inkscape:groupmode="layer"
     inkscape:label="Layer 1">
    <path
       style="fill:none;stroke:#000000;stroke-width:1.20000005;stroke-linecap:round;stroke-linejoin:round;stroke-miterlimit:4;stroke-opacity:1;stroke-dasharray:none;stroke-dashoffset:0"
       d="m 90.000004,932.36085 19.999996,0 c 26.66667,-2e-5 26.66667,39.99998 0,39.99998 l -19.999996,0 z"
       id="rect5801"
       inkscape:connector-curvature="0"
       sodipodi:nodetypes="ccccc" />
    <text
       xml:space="preserve"
       style="font-size:12px;font-style:normal;font-variant:normal;font-weight:normal;font-stretch:normal;text-align:start;line-height:100%;letter-spacing:0px;word-spacing:0px;text-anchor:start;fill:#000000;fill-opacity:1;stroke:none;font-family:LMRoman12;-inkscape-font-specification:Sans"
       x="61.700558"
       y="56.040417"
       id="text5818"
       sodipodi:linespacing="100%"
       transform="translate(0,698.03016)"><tspan
         sodipodi:role="line"
         id="tspan5820"
         x="61.700558"
         y="56.040417" /></text>
    <flowRoot
       style="fill:black;stroke:none;stroke-opacity:1;stroke-width:1px;stroke-linejoin:miter;stroke-linecap:butt;fill-opacity:1;font-family:LMRoman12;font-style:normal;font-weight:normal;font-size:12px;line-height:100%;letter-spacing:0px;word-spacing:0px;-inkscape-font-specification:Sans;font-stretch:normal;font-variant:normal;text-anchor:start;text-align:start"
       id="flowRoot6377"
       xml:space="preserve"><flowRegion
         id="flowRegion6379"><rect
           y="87.141403"
           x="219.34796"
           height="40.319103"
           width="27.681772"
           id="rect6381" /></flowRegion><flowPara
         id="flowPara6383" /></flowRoot>    <text
       transform="translate(0,698.03016)"
       sodipodi:linespacing="50%"
       id="text6385"
       y="55.247185"
       x="275.91507"
       style="font-size:12px;font-style:normal;font-variant:normal;font-weight:normal;font-stretch:normal;text-align:start;line-height:50%;letter-spacing:0px;word-spacing:0px;text-anchor:start;fill:#000000;fill-opacity:1;stroke:none;font-family:LMRoman12;-inkscape-font-specification:Sans"
       xml:space="preserve"><tspan
         id="tspan6387"
         sodipodi:role="line" /></text>
    <text
       transform="translate(0,698.03016)"
       sodipodi:linespacing="100%"
       id="text3884"
       y="194.38702"
       x="348.65417"
       style="font-size:12px;font-style:normal;font-variant:normal;font-weight:normal;font-stretch:normal;text-align:start;line-height:100%;letter-spacing:0px;word-spacing:0px;text-anchor:start;fill:#000000;fill-opacity:1;stroke:none;font-family:LMRoman12;-inkscape-font-specification:Sans"
       xml:space="preserve"><tspan
         id="tspan3890"
         y="194.38702"
         x="348.65417"
         sodipodi:role="line" /></text>
    <text
       transform="translate(0,698.03016)"
       sodipodi:linespacing="150%"
       id="text3887"
       y="250.89732"
       x="216.96629"
       style="font-size:12px;font-style:normal;font-variant:normal;font-weight:normal;font-stretch:normal;text-align:start;line-height:150%;letter-spacing:0px;word-spacing:0px;text-anchor:start;fill:#000000;fill-opacity:1;stroke:none;font-family:LMRoman12;-inkscape-font-specification:Sans"
       xml:space="preserve"><tspan
         y="250.89732"
         x="216.96629"
         id="tspan3889"
         sodipodi:role="line" /></text>
    <path
       style="fill:none;stroke:#000000;stroke-width:0.99212593;stroke-linecap:square;stroke-linejoin:round;stroke-miterlimit:4;stroke-opacity:1;stroke-dasharray:none;stroke-dashoffset:0"
       d="m 135,952.36082 40.81291,0 0,-45 34.18709,0"
       id="path3516"
       inkscape:connector-curvature="0"
       sodipodi:nodetypes="cccc" />
    <path
       sodipodi:type="arc"
       style="fill:#ffffff;stroke:#000000;stroke-width:0.4291566;stroke-linecap:square;stroke-linejoin:round;stroke-miterlimit:4;stroke-opacity:1;stroke-dasharray:none;stroke-dashoffset:0"
       id="path3025"
       sodipodi:cx="140"
       sodipodi:cy="79.330688"
       sodipodi:rx="2.1023455"
       sodipodi:ry="2.1023455"
       d="m 142.10235,79.330688 c 0,1.161094 -0.94126,2.102346 -2.10235,2.102346 -1.16109,0 -2.10235,-0.941252 -2.10235,-2.102346 0,-1.161093 0.94126,-2.102345 2.10235,-2.102345 1.16109,0 2.10235,0.941252 2.10235,2.102345 z"
       transform="matrix(1.8641214,0,0,1.8641214,-126.92844,804.50561)" />
    <path
       style="fill:none;stroke:#000000;stroke-width:0.99212599;stroke-linecap:square;stroke-linejoin:round;stroke-miterlimit:4;stroke-opacity:1;stroke-dasharray:none;stroke-dashoffset:0"
       d="m 45.000004,952.36083 25.00001,0"
       id="path4239"
       inkscape:connector-curvature="0"
       sodipodi:nodetypes="cc" />
    <rect
       style="fill:#ffffff;fill-opacity:1;stroke:#000000;stroke-width:0.99212599;stroke-linecap:square;stroke-linejoin:round;stroke-miterlimit:4;stroke-opacity:1;stroke-dasharray:none;stroke-dashoffset:0"
       id="rect5645"
       width="20"
       height="20"
       x="70"
       y="942.36084" />
    <path
       sodipodi:nodetypes="ccccc"
       inkscape:connector-curvature="0"
       id="path3026"
       d="m 90.000004,872.36084 19.999996,0 c 26.66667,-2e-5 26.66667,39.99998 0,39.99998 l -19.999996,0 z"
       style="fill:none;stroke:#000000;stroke-width:1.20000005;stroke-linecap:round;stroke-linejoin:round;stroke-miterlimit:4;stroke-opacity:1;stroke-dasharray:none;stroke-dashoffset:0" />
    <path
       transform="matrix(1.8641214,0,0,1.8641214,-126.92844,744.5056)"
       d="m 142.10235,79.330688 c 0,1.161094 -0.94126,2.102346 -2.10235,2.102346 -1.16109,0 -2.10235,-0.941252 -2.10235,-2.102346 0,-1.161093 0.94126,-2.102345 2.10235,-2.102345 1.16109,0 2.10235,0.941252 2.10235,2.102345 z"
       sodipodi:ry="2.1023455"
       sodipodi:rx="2.1023455"
       sodipodi:cy="79.330688"
       sodipodi:cx="140"
       id="path3028"
       style="fill:#ffffff;stroke:#000000;stroke-width:0.4291566;stroke-linecap:square;stroke-linejoin:round;stroke-miterlimit:4;stroke-opacity:1;stroke-dasharray:none;stroke-dashoffset:0"
       sodipodi:type="arc" />
    <path
       sodipodi:nodetypes="cc"
       inkscape:connector-curvature="0"
       id="path3030"
       d="m 45.000004,842.36082 45,0"
       style="fill:none;stroke:#000000;stroke-width:0.99212599;stroke-linecap:square;stroke-linejoin:round;stroke-miterlimit:4;stroke-opacity:1;stroke-dasharray:none;stroke-dashoffset:0" />
    <path
       style="fill:none;stroke:#000000;stroke-width:0.99212587;stroke-linecap:square;stroke-linejoin:round;stroke-miterlimit:4;stroke-opacity:1;stroke-dasharray:none;stroke-dashoffset:0"
       d="m 138.13633,892.38763 71.86366,0"
       id="path3032"
       inkscape:connector-curvature="0"
       sodipodi:nodetypes="cc" />
    <path
       style="fill:none;stroke:#000000;stroke-width:1.20000005;stroke-linecap:round;stroke-linejoin:round;stroke-miterlimit:4;stroke-opacity:1;stroke-dasharray:none;stroke-dashoffset:0"
       d="m 90.000004,812.36084 19.999996,0 c 26.66667,-2e-5 26.66667,39.99998 0,39.99998 l -19.999996,0 z"
       id="path3036"
       inkscape:connector-curvature="0"
       sodipodi:nodetypes="ccccc" />
    <path
       sodipodi:nodetypes="cccc"
       inkscape:connector-curvature="0"
       id="path3059"
       d="m 135,832.36082 40.81291,0 0,45 34.18709,0"
       style="fill:none;stroke:#000000;stroke-width:0.99212593;stroke-linecap:square;stroke-linejoin:round;stroke-miterlimit:4;stroke-opacity:1;stroke-dasharray:none;stroke-dashoffset:0" />
    <path
       sodipodi:type="arc"
       style="fill:#ffffff;stroke:#000000;stroke-width:0.4291566;stroke-linecap:square;stroke-linejoin:round;stroke-miterlimit:4;stroke-opacity:1;stroke-dasharray:none;stroke-dashoffset:0"
       id="path3038"
       sodipodi:cx="140"
       sodipodi:cy="79.330688"
       sodipodi:rx="2.1023455"
       sodipodi:ry="2.1023455"
       d="m 142.10235,79.330688 c 0,1.161094 -0.94126,2.102346 -2.10235,2.102346 -1.16109,0 -2.10235,-0.941252 -2.10235,-2.102346 0,-1.161093 0.94126,-2.102345 2.10235,-2.102345 1.16109,0 2.10235,0.941252 2.10235,2.102345 z"
       transform="matrix(1.8641214,0,0,1.8641214,-126.92844,684.5056)" />
    <path
       style="fill:none;stroke:#000000;stroke-width:0.99212599;stroke-linecap:square;stroke-linejoin:round;stroke-miterlimit:4;stroke-opacity:1;stroke-dasharray:none;stroke-dashoffset:0"
       d="m 45.000004,822.36082 45,0"
       id="path3040"
       inkscape:connector-curvature="0"
       sodipodi:nodetypes="cc" />
    <path
       style="fill:none;stroke:#000000;stroke-width:1.20000005;stroke-linecap:round;stroke-linejoin:round;stroke-miterlimit:4;stroke-opacity:1;stroke-dasharray:none;stroke-dashoffset:0"
       d="m 210,872.36084 20,0 c 26.66667,-2e-5 26.66667,39.99998 0,39.99998 l -20,0 z"
       id="path3046"
       inkscape:connector-curvature="0"
       sodipodi:nodetypes="ccccc" />
    <path
       sodipodi:type="arc"
       style="fill:#ffffff;stroke:#000000;stroke-width:0.4291566;stroke-linecap:square;stroke-linejoin:round;stroke-miterlimit:4;stroke-opacity:1;stroke-dasharray:none;stroke-dashoffset:0"
       id="path3048"
       sodipodi:cx="140"
       sodipodi:cy="79.330688"
       sodipodi:rx="2.1023455"
       sodipodi:ry="2.1023455"
       d="m 142.10235,79.330688 c 0,1.161094 -0.94126,2.102346 -2.10235,2.102346 -1.16109,0 -2.10235,-0.941252 -2.10235,-2.102346 0,-1.161093 0.94126,-2.102345 2.10235,-2.102345 1.16109,0 2.10235,0.941252 2.10235,2.102345 z"
       transform="matrix(1.8641214,0,0,1.8641214,-6.9284363,744.5056)" />
    <path
       sodipodi:nodetypes="cc"
       inkscape:connector-curvature="0"
       id="path3050"
       d="m 258.13634,892.38763 30.81291,0"
       style="fill:none;stroke:#000000;stroke-width:0.99212593;stroke-linecap:square;stroke-linejoin:round;stroke-miterlimit:4;stroke-opacity:1;stroke-dasharray:none;stroke-dashoffset:0" />
    <path
       style="fill:none;stroke:#000000;stroke-width:0.99212599;stroke-linecap:square;stroke-linejoin:round;stroke-miterlimit:4;stroke-opacity:1;stroke-dasharray:none;stroke-dashoffset:0"
       d="m 45.000004,902.36082 45,0"
       id="path3061"
       inkscape:connector-curvature="0"
       sodipodi:nodetypes="cc" />
    <path
       sodipodi:nodetypes="cc"
       inkscape:connector-curvature="0"
       id="path3063"
       d="m 45.000004,882.36082 45,0"
       style="fill:none;stroke:#000000;stroke-width:0.99212599;stroke-linecap:square;stroke-linejoin:round;stroke-miterlimit:4;stroke-opacity:1;stroke-dasharray:none;stroke-dashoffset:0" />
    <g
       style="font-style:normal;font-variant:normal;font-weight:normal;font-stretch:normal;letter-spacing:normal;word-spacing:normal;text-anchor:start;fill:none;stroke:#000000;stroke-width:1;stroke-linecap:butt;stroke-linejoin:miter;stroke-miterlimit:10.43299961;stroke-opacity:1;stroke-dasharray:none;stroke-dashoffset:0"
       ns0:preamble="/home/sriranga/Desktop/Prism_BasicElectronics/preamble.tex"
       ns0:text="$F$"
       word-spacing="normal"
       letter-spacing="normal"
       font-size-adjust="none"
       font-stretch="normal"
       font-weight="normal"
       font-variant="normal"
       font-style="normal"
       stroke-miterlimit="10.433"
       xml:space="preserve"
       transform="matrix(1.2,0,0,-1.2,116.15927,1744.6769)"
       id="g3955"><path
         id="path3957"
         d="m 230.1,713.61 h -4.96 v -0.16 c 0.65,-0.06 0.77,-0.12 0.77,-0.4 0,-0.15 -0.04,-0.4 -0.11,-0.64 l -1.22,-4.39 c -0.18,-0.6 -0.25,-0.66 -0.82,-0.74 v -0.16 h 2.51 v 0.16 c -0.58,0.03 -0.76,0.14 -0.76,0.44 0,0.08 0.03,0.23 0.09,0.45 l 0.62,2.21 c 0.37,-0.02 0.58,-0.03 0.8,-0.03 0.39,0 0.46,-0.01 0.55,-0.05 0.15,-0.08 0.22,-0.21 0.22,-0.4 0,-0.16 -0.02,-0.28 -0.08,-0.59 l 0.17,-0.05 0.76,2.33 -0.18,0.05 c -0.45,-0.9 -0.48,-0.91 -2.15,-0.93 l 0.65,2.32 c 0.06,0.19 0.2,0.25 0.61,0.25 1.67,0 2.03,-0.12 2.03,-0.74 0,-0.06 0,-0.11 -0.01,-0.24 -0.01,-0.06 -0.01,-0.07 -0.02,-0.19 l 0.21,-0.02 z"
         inkscape:connector-curvature="0"
         style="fill:#000000;stroke-width:0" /></g>    <path
       sodipodi:nodetypes="ccccc"
       inkscape:connector-curvature="0"
       id="path4689"
       d="m 305,872.36086 20,0 c 26.66667,-2e-5 26.66667,39.99998 0,39.99998 l -20,0 z"
       style="fill:none;stroke:#000000;stroke-width:1.20000005;stroke-linecap:round;stroke-linejoin:round;stroke-miterlimit:4;stroke-opacity:1;stroke-dasharray:none;stroke-dashoffset:0" />
    <path
       style="fill:none;stroke:#000000;stroke-width:0.99212593;stroke-linecap:square;stroke-linejoin:round;stroke-miterlimit:4;stroke-opacity:1;stroke-dasharray:none;stroke-dashoffset:0"
       d="m 350,892.38763 30.81291,0"
       id="path4695"
       inkscape:connector-curvature="0"
       sodipodi:nodetypes="cc" />
    <path
       transform="matrix(1.8641214,0,0,1.8641214,88.07156,744.50562)"
       d="m 142.10235,79.330688 c 0,1.161094 -0.94126,2.102346 -2.10235,2.102346 -1.16109,0 -2.10235,-0.941252 -2.10235,-2.102346 0,-1.161093 0.94126,-2.102345 2.10235,-2.102345 1.16109,0 2.10235,0.941252 2.10235,2.102345 z"
       sodipodi:ry="2.1023455"
       sodipodi:rx="2.1023455"
       sodipodi:cy="79.330688"
       sodipodi:cx="140"
       id="path4691"
       style="fill:#ffffff;stroke:#000000;stroke-width:0.4291566;stroke-linecap:square;stroke-linejoin:round;stroke-miterlimit:4;stroke-opacity:1;stroke-dasharray:none;stroke-dashoffset:0"
       sodipodi:type="arc" />
    <rect
       y="882.36084"
       x="285"
       height="20"
       width="20"
       id="rect4693"
       style="fill:#ffffff;fill-opacity:1;stroke:#000000;stroke-width:0.99212599;stroke-linecap:square;stroke-linejoin:round;stroke-miterlimit:4;stroke-opacity:1;stroke-dasharray:none;stroke-dashoffset:0" />
    <g
       style="font-style:normal;font-variant:normal;font-weight:normal;font-stretch:normal;letter-spacing:normal;word-spacing:normal;text-anchor:start;fill:none;stroke:#000000;stroke-width:1;stroke-linecap:butt;stroke-linejoin:miter;stroke-miterlimit:10.43299961;stroke-opacity:1;stroke-dasharray:none;stroke-dashoffset:0"
       ns0:preamble="/home/sriranga/Desktop/Prism_BasicElectronics/preamble.tex"
       ns0:text="$x\'$"
       word-spacing="normal"
       letter-spacing="normal"
       font-size-adjust="none"
       font-stretch="normal"
       font-weight="normal"
       font-variant="normal"
       font-style="normal"
       stroke-miterlimit="10.433"
       xml:space="preserve"
       transform="matrix(1.2,0,0,-1.2,-235.6826,1673.6801)"
       id="content-8"><path
         id="path4120"
         d="m 227.93,708.23 -0.01,-0.02 -0.02,-0.01 -0.01,-0.02 -0.02,-0.02 -0.01,-0.01 -0.01,-0.02 -0.01,-0.01 -0.02,-0.02 -0.01,-0.01 -0.01,-0.02 -0.01,-0.01 -0.02,-0.02 -0.01,-0.01 0,-0.01 -0.01,-0.01 -0.01,-0.01 0,-0.01 -0.01,-0.01 -0.01,-0.01 -0.01,-0.01 c -0.23,-0.3 -0.35,-0.4 -0.46,-0.4 -0.15,0 -0.24,0.13 -0.3,0.41 -0.02,0.08 -0.04,0.14 -0.05,0.17 -0.24,1 -0.35,1.46 -0.35,1.61 0.43,0.76 0.79,1.2 0.97,1.2 0.06,0 0.14,-0.03 0.24,-0.08 0.12,-0.07 0.19,-0.09 0.27,-0.09 0.21,0 0.35,0.15 0.35,0.36 0,0.21 -0.17,0.37 -0.41,0.37 -0.44,0 -0.82,-0.36 -1.5,-1.42 l -0.11,0.54 c -0.14,0.68 -0.25,0.88 -0.52,0.88 -0.22,0 -0.56,-0.09 -1.16,-0.29 l -0.11,-0.04 0.04,-0.15 c 0.38,0.09 0.46,0.11 0.55,0.11 0.25,0 0.31,-0.09 0.45,-0.69 l 0.29,-1.22 -0.82,-1.16 c -0.2,-0.3 -0.39,-0.48 -0.5,-0.48 -0.06,0 -0.16,0.03 -0.26,0.09 -0.13,0.07 -0.24,0.1 -0.32,0.1 -0.19,0 -0.34,-0.15 -0.34,-0.35 0,-0.26 0.2,-0.41 0.5,-0.41 0.31,0 0.43,0.08 0.92,0.69 0.27,0.32 0.48,0.59 0.9,1.16 l 0.3,-1.19 c 0.13,-0.51 0.26,-0.66 0.57,-0.66 0.38,0 0.64,0.23 1.22,1.13 z"
         inkscape:connector-curvature="0"
         style="fill:#000000;stroke-width:0" /><path
         id="path4122"
         d="m 230.45,713.6 0,0.02 0,0.02 0,0.03 -0.01,0.02 -0.01,0.02 0,0.02 -0.01,0.02 -0.01,0.02 -0.01,0.01 -0.01,0.02 -0.02,0.02 -0.01,0.02 -0.01,0.01 -0.02,0.02 -0.01,0.01 -0.02,0.02 -0.02,0.01 -0.02,0.01 -0.01,0.01 -0.02,0.01 -0.02,0.01 -0.02,0.01 -0.02,0.01 -0.02,0.01 -0.02,0.01 -0.02,0 -0.03,0.01 -0.02,0 -0.02,0.01 -0.02,0 -0.02,0 -0.02,0 c -0.26,0 -0.38,-0.25 -0.45,-0.46 l -0.73,-2.11 c -0.02,-0.05 -0.07,-0.18 -0.07,-0.24 0,-0.06 0.04,-0.15 0.11,-0.15 0.11,0 0.23,0.15 0.28,0.23 l 1.14,1.8 c 0.09,0.14 0.19,0.34 0.19,0.52 z"
         inkscape:connector-curvature="0"
         style="fill:#000000;stroke-width:0" /></g>    <g
       id="g4226"
       transform="matrix(1.2,0,0,-1.2,-236.57288,1753.5084)"
       xml:space="preserve"
       stroke-miterlimit="10.433"
       font-style="normal"
       font-variant="normal"
       font-weight="normal"
       font-stretch="normal"
       font-size-adjust="none"
       letter-spacing="normal"
       word-spacing="normal"
       ns0:text="$y\'$"
       ns0:preamble="/home/sriranga/Desktop/Prism_BasicElectronics/preamble.tex"
       style="font-style:normal;font-variant:normal;font-weight:normal;font-stretch:normal;letter-spacing:normal;word-spacing:normal;text-anchor:start;fill:none;stroke:#000000;stroke-width:1;stroke-linecap:butt;stroke-linejoin:miter;stroke-miterlimit:10.43299961;stroke-opacity:1;stroke-dasharray:none;stroke-dashoffset:0"><path
         style="fill:#000000;stroke-width:0"
         inkscape:connector-curvature="0"
         d="m 223.58,711.1 0.01,0 0.01,0 0.02,0.01 0.01,0 0.01,0 0.01,0 0.01,0.01 0.01,0 0.02,0 0.02,0 0.02,0.01 0.01,0 0.02,0 0.02,0 0.02,0 0.01,0.01 0.02,0 0.02,0 0.02,0 0.01,0 0.01,0 c 0.57,0 0.72,-0.25 1.17,-1.96 0.17,-0.64 0.41,-1.81 0.41,-1.98 0,-0.15 -0.06,-0.31 -0.21,-0.49 -0.31,-0.41 -0.5,-0.67 -0.61,-0.79 -0.21,-0.22 -0.33,-0.3 -0.46,-0.3 -0.06,0 -0.13,0.04 -0.24,0.11 -0.15,0.12 -0.26,0.17 -0.37,0.17 -0.22,0 -0.39,-0.17 -0.39,-0.38 0,-0.25 0.22,-0.44 0.51,-0.44 0.64,0 1.94,1.49 3.01,3.46 0.68,1.22 0.96,1.93 0.96,2.42 0,0.3 -0.25,0.55 -0.55,0.55 -0.23,0 -0.38,-0.15 -0.38,-0.37 0,-0.15 0.08,-0.26 0.27,-0.39 0.19,-0.11 0.26,-0.2 0.26,-0.34 0,-0.39 -0.37,-1.17 -1.21,-2.57 l -0.2,1.15 c -0.15,0.88 -0.71,2.52 -0.86,2.52 h -0.04 c -0.01,-0.01 -0.05,-0.01 -0.08,-0.01 -0.09,-0.01 -0.45,-0.07 -0.98,-0.17 -0.05,-0.01 -0.18,-0.04 -0.32,-0.06 z"
         id="path4228" /><path
         style="fill:#000000;stroke-width:0"
         inkscape:connector-curvature="0"
         d="m 229.92,713.6 0,0.02 0,0.02 0,0.03 -0.01,0.02 0,0.02 -0.01,0.02 -0.01,0.02 -0.01,0.02 -0.01,0.01 -0.01,0.02 -0.01,0.02 -0.02,0.02 -0.01,0.01 -0.02,0.02 -0.01,0.01 -0.02,0.02 -0.02,0.01 -0.01,0.01 -0.02,0.01 -0.02,0.01 -0.02,0.01 -0.02,0.01 -0.02,0.01 -0.02,0.01 -0.02,0.01 -0.02,0 -0.02,0.01 -0.02,0 -0.03,0.01 -0.02,0 -0.02,0 -0.02,0 c -0.26,0 -0.38,-0.25 -0.45,-0.46 l -0.73,-2.11 c -0.02,-0.05 -0.07,-0.18 -0.07,-0.24 0,-0.06 0.05,-0.15 0.12,-0.15 0.1,0 0.22,0.15 0.27,0.23 l 1.14,1.8 c 0.1,0.14 0.19,0.34 0.19,0.52 z"
         id="path4230" /></g>    <g
       id="g4457"
       transform="matrix(1.2,0,0,-1.2,-235.38584,1733.6255)"
       xml:space="preserve"
       stroke-miterlimit="10.433"
       font-style="normal"
       font-variant="normal"
       font-weight="normal"
       font-stretch="normal"
       font-size-adjust="none"
       letter-spacing="normal"
       word-spacing="normal"
       ns0:text="$x$"
       ns0:preamble="/home/sriranga/Desktop/Prism_BasicElectronics/preamble.tex"
       style="font-style:normal;font-variant:normal;font-weight:normal;font-stretch:normal;letter-spacing:normal;word-spacing:normal;text-anchor:start;fill:none;stroke:#000000;stroke-width:1;stroke-linecap:butt;stroke-linejoin:miter;stroke-miterlimit:10.43299961;stroke-opacity:1;stroke-dasharray:none;stroke-dashoffset:0"><path
         style="fill:#000000;stroke-width:0"
         inkscape:connector-curvature="0"
         d="m 227.93,708.23 -0.01,-0.02 -0.02,-0.01 -0.01,-0.02 -0.02,-0.02 -0.01,-0.01 -0.01,-0.02 -0.01,-0.01 -0.02,-0.02 -0.01,-0.01 -0.01,-0.02 -0.01,-0.01 -0.02,-0.02 -0.01,-0.01 0,-0.01 -0.01,-0.01 -0.01,-0.01 0,-0.01 -0.01,-0.01 -0.01,-0.01 -0.01,-0.01 c -0.23,-0.3 -0.35,-0.4 -0.46,-0.4 -0.15,0 -0.24,0.13 -0.3,0.41 -0.02,0.08 -0.04,0.14 -0.05,0.17 -0.24,1 -0.35,1.46 -0.35,1.61 0.43,0.76 0.79,1.2 0.97,1.2 0.06,0 0.14,-0.03 0.24,-0.08 0.12,-0.07 0.19,-0.09 0.27,-0.09 0.21,0 0.35,0.15 0.35,0.36 0,0.21 -0.17,0.37 -0.41,0.37 -0.44,0 -0.82,-0.36 -1.5,-1.42 l -0.11,0.54 c -0.14,0.68 -0.25,0.88 -0.52,0.88 -0.22,0 -0.56,-0.09 -1.16,-0.29 l -0.11,-0.04 0.04,-0.15 c 0.38,0.09 0.46,0.11 0.55,0.11 0.25,0 0.31,-0.09 0.45,-0.69 l 0.29,-1.22 -0.82,-1.16 c -0.2,-0.3 -0.39,-0.48 -0.5,-0.48 -0.06,0 -0.16,0.03 -0.26,0.09 -0.13,0.07 -0.24,0.1 -0.32,0.1 -0.19,0 -0.34,-0.15 -0.34,-0.35 0,-0.26 0.2,-0.41 0.5,-0.41 0.31,0 0.43,0.08 0.92,0.69 0.27,0.32 0.48,0.59 0.9,1.16 l 0.3,-1.19 c 0.13,-0.51 0.26,-0.66 0.57,-0.66 0.38,0 0.64,0.23 1.22,1.13 z"
         id="path4459" /></g>    <g
       style="font-style:normal;font-variant:normal;font-weight:normal;font-stretch:normal;letter-spacing:normal;word-spacing:normal;text-anchor:start;fill:none;stroke:#000000;stroke-width:1;stroke-linecap:butt;stroke-linejoin:miter;stroke-miterlimit:10.43299961;stroke-opacity:1;stroke-dasharray:none;stroke-dashoffset:0"
       ns0:preamble="/home/sriranga/Desktop/Prism_BasicElectronics/preamble.tex"
       ns0:text="$y$"
       word-spacing="normal"
       letter-spacing="normal"
       font-size-adjust="none"
       font-stretch="normal"
       font-weight="normal"
       font-variant="normal"
       font-style="normal"
       stroke-miterlimit="10.433"
       xml:space="preserve"
       transform="matrix(1.2,0,0,-1.2,-234.1988,1692.0792)"
       id="g4568"><path
         style="fill:#000000;stroke-width:0"
         inkscape:connector-curvature="0"
         id="path4570"
         d="m 223.58,711.1 0.01,0 0.01,0 0.02,0.01 0.01,0 0.01,0 0.01,0 0.01,0.01 0.01,0 0.02,0 0.02,0 0.02,0.01 0.01,0 0.02,0 0.02,0 0.02,0 0.01,0.01 0.02,0 0.02,0 0.02,0 0.01,0 0.01,0 c 0.57,0 0.72,-0.25 1.17,-1.96 0.17,-0.64 0.41,-1.81 0.41,-1.98 0,-0.15 -0.06,-0.31 -0.21,-0.49 -0.31,-0.41 -0.5,-0.67 -0.61,-0.79 -0.21,-0.22 -0.33,-0.3 -0.46,-0.3 -0.06,0 -0.13,0.04 -0.24,0.11 -0.15,0.12 -0.26,0.17 -0.37,0.17 -0.22,0 -0.39,-0.17 -0.39,-0.38 0,-0.25 0.22,-0.44 0.51,-0.44 0.64,0 1.94,1.49 3.01,3.46 0.68,1.22 0.96,1.93 0.96,2.42 0,0.3 -0.25,0.55 -0.55,0.55 -0.23,0 -0.38,-0.15 -0.38,-0.37 0,-0.15 0.08,-0.26 0.27,-0.39 0.19,-0.11 0.26,-0.2 0.26,-0.34 0,-0.39 -0.37,-1.17 -1.21,-2.57 l -0.2,1.15 c -0.15,0.88 -0.71,2.52 -0.86,2.52 h -0.04 c -0.01,-0.01 -0.05,-0.01 -0.08,-0.01 -0.09,-0.01 -0.45,-0.07 -0.98,-0.17 -0.05,-0.01 -0.18,-0.04 -0.32,-0.06 z" /></g>    <g
       id="content"
       transform="matrix(1.2,0,0,-1.2,-231.82473,1803.6606)"
       xml:space="preserve"
       stroke-miterlimit="10.433"
       font-style="normal"
       font-variant="normal"
       font-weight="normal"
       font-stretch="normal"
       font-size-adjust="none"
       letter-spacing="normal"
       word-spacing="normal"
       ns0:text="$z$"
       ns0:preamble="/home/sriranga/Desktop/Prism_BasicElectronics/preamble.tex"
       style="font-style:normal;font-variant:normal;font-weight:normal;font-stretch:normal;letter-spacing:normal;word-spacing:normal;text-anchor:start;fill:none;stroke:#000000;stroke-width:1;stroke-linecap:butt;stroke-linejoin:miter;stroke-miterlimit:10.43299961;stroke-opacity:1;stroke-dasharray:none;stroke-dashoffset:0"><path
         style="fill:#000000;stroke-width:0"
         inkscape:connector-curvature="0"
         d="m 224.24,710.2 0.02,0.04 0.02,0.04 0.02,0.04 0.01,0.04 0.02,0.04 0.02,0.03 0.02,0.04 0.02,0.03 0.01,0.02 0.02,0.03 0.02,0.03 0.02,0.02 0.02,0.02 0.02,0.02 0.02,0.02 0.02,0.01 0.03,0.02 0.02,0.01 0.02,0.02 0.03,0.01 0.02,0.01 0.03,0 0.03,0.01 0.03,0.01 0.03,0 0.03,0.01 0.04,0 0.03,0.01 0.04,0 0.04,0 0.04,0 0.04,0 h 1.46 l -3.09,-3.69 0.09,-0.09 c 0.16,0.12 0.29,0.17 0.46,0.17 0.24,0 0.57,-0.12 1.03,-0.41 0.5,-0.31 0.84,-0.44 1.12,-0.44 0.5,0 0.93,0.36 0.93,0.76 0,0.2 -0.14,0.35 -0.34,0.35 -0.2,0 -0.34,-0.13 -0.34,-0.31 0,-0.08 0.03,-0.18 0.09,-0.29 0.03,-0.06 0.05,-0.12 0.05,-0.15 0,-0.09 -0.11,-0.15 -0.27,-0.15 -0.25,0 -0.37,0.08 -0.7,0.5 -0.44,0.56 -0.63,0.69 -1.2,0.82 l 2.88,3.42 v 0.11 h -2.82 l -0.31,-1.15 z"
         id="path4805" /></g>    <g
       style="font-style:normal;font-variant:normal;font-weight:normal;font-stretch:normal;letter-spacing:normal;word-spacing:normal;text-anchor:start;fill:none;stroke:#000000;stroke-width:1;stroke-linecap:butt;stroke-linejoin:miter;stroke-miterlimit:10.43299961;stroke-opacity:1;stroke-dasharray:none;stroke-dashoffset:0"
       ns0:preamble="/home/sriranga/Desktop/Prism_BasicElectronics/preamble.tex"
       ns0:text="$\\overline{F}$"
       word-spacing="normal"
       letter-spacing="normal"
       font-size-adjust="none"
       font-stretch="normal"
       font-weight="normal"
       font-variant="normal"
       font-style="normal"
       stroke-miterlimit="10.433"
       xml:space="preserve"
       transform="matrix(1.2,0,0,-1.2,-0.25718789,1738.0151)"
       id="g4946"><line
         id="line4948"
         y2="715.59003"
         x2="230.36"
         y1="715.59003"
         x1="223.42999"
         style="stroke-width:0.55800003" /><path
         id="path4950"
         d="m 230.1,713.61 h -4.96 v -0.16 c 0.65,-0.06 0.77,-0.12 0.77,-0.4 0,-0.15 -0.04,-0.4 -0.11,-0.64 l -1.22,-4.39 c -0.18,-0.6 -0.25,-0.66 -0.82,-0.74 v -0.16 h 2.51 v 0.16 c -0.58,0.03 -0.76,0.14 -0.76,0.44 0,0.08 0.03,0.23 0.09,0.45 l 0.62,2.21 c 0.37,-0.02 0.58,-0.03 0.8,-0.03 0.39,0 0.46,-0.01 0.55,-0.05 0.15,-0.08 0.22,-0.21 0.22,-0.4 0,-0.16 -0.02,-0.28 -0.08,-0.59 l 0.17,-0.05 0.76,2.33 -0.18,0.05 c -0.45,-0.9 -0.48,-0.91 -2.15,-0.93 l 0.65,2.32 c 0.06,0.19 0.2,0.25 0.61,0.25 1.67,0 2.03,-0.12 2.03,-0.74 0,-0.06 0,-0.11 -0.01,-0.24 -0.01,-0.06 -0.01,-0.07 -0.02,-0.19 l 0.21,-0.02 z"
         inkscape:connector-curvature="0"
         style="fill:#000000;stroke-width:0" /></g>  </g>
</svg>
