<?xml version="1.0" encoding="UTF-8" standalone="no"?>
<!-- Created with Inkscape (http://www.inkscape.org/) -->

<svg
   xmlns:ns0="http://www.iki.fi/pav/software/textext/"
   xmlns:dc="http://purl.org/dc/elements/1.1/"
   xmlns:cc="http://creativecommons.org/ns#"
   xmlns:rdf="http://www.w3.org/1999/02/22-rdf-syntax-ns#"
   xmlns:svg="http://www.w3.org/2000/svg"
   xmlns="http://www.w3.org/2000/svg"
   xmlns:sodipodi="http://sodipodi.sourceforge.net/DTD/sodipodi-0.dtd"
   xmlns:inkscape="http://www.inkscape.org/namespaces/inkscape"
   width="496.06299"
   height="354.33069"
   id="svg2"
   version="1.1"
   inkscape:version="0.48.4 r9939"
   sodipodi:docname="figS12.svg">
  <sodipodi:namedview
     id="base"
     pagecolor="#ffffff"
     bordercolor="#666666"
     borderopacity="1.0"
     inkscape:pageopacity="0.0"
     inkscape:pageshadow="2"
     inkscape:zoom="1.8514294"
     inkscape:cx="104.76485"
     inkscape:cy="144.57281"
     inkscape:document-units="cm"
     inkscape:current-layer="layer1"
     showgrid="false"
     units="cm"
     inkscape:object-nodes="true"
     inkscape:window-width="1366"
     inkscape:window-height="744"
     inkscape:window-x="0"
     inkscape:window-y="24"
     inkscape:window-maximized="1">
    <inkscape:grid
       type="xygrid"
       id="grid2985"
       empspacing="5"
       visible="true"
       enabled="true"
       snapvisiblegridlinesonly="true" />
  </sodipodi:namedview>
  <defs
     id="defs4">
    <marker
       inkscape:stockid="Arrow1Mstart"
       orient="auto"
       refY="0"
       refX="0"
       id="Arrow1Mstart"
       style="overflow:visible">
      <path
         inkscape:connector-curvature="0"
         id="path3775"
         d="M 0,0 5,-5 -12.5,0 5,5 0,0 z"
         style="fill-rule:evenodd;stroke:#000000;stroke-width:1pt"
         transform="matrix(0.4,0,0,0.4,4,0)" />
    </marker>
    <marker
       inkscape:stockid="Arrow1Mend"
       orient="auto"
       refY="0"
       refX="0"
       id="Arrow1Mend"
       style="overflow:visible">
      <path
         inkscape:connector-curvature="0"
         id="path3778"
         d="M 0,0 5,-5 -12.5,0 5,5 0,0 z"
         style="fill-rule:evenodd;stroke:#000000;stroke-width:1pt"
         transform="matrix(-0.4,0,0,-0.4,-4,0)" />
    </marker>
  </defs>
  <metadata
     id="metadata7">
    <rdf:RDF>
      <cc:Work
         rdf:about="">
        <dc:format>image/svg+xml</dc:format>
        <dc:type
           rdf:resource="http://purl.org/dc/dcmitype/StillImage" />
        <dc:title></dc:title>
      </cc:Work>
    </rdf:RDF>
  </metadata>
  <g
     inkscape:label="Layer 1"
     inkscape:groupmode="layer"
     id="layer1"
     transform="translate(0,-698.03016)">
    <text
       transform="translate(0,698.03016)"
       sodipodi:linespacing="100%"
       id="text5818"
       y="56.040417"
       x="61.700558"
       style="font-size:12px;font-style:normal;font-variant:normal;font-weight:normal;font-stretch:normal;text-align:start;line-height:100%;letter-spacing:0px;word-spacing:0px;text-anchor:start;fill:#000000;fill-opacity:1;stroke:none;font-family:LMRoman12;-inkscape-font-specification:Sans"
       xml:space="preserve"><tspan
         y="56.040417"
         x="61.700558"
         id="tspan5820"
         sodipodi:role="line" /></text>
    <flowRoot
       xml:space="preserve"
       id="flowRoot6377"
       style="fill:black;stroke:none;stroke-opacity:1;stroke-width:1px;stroke-linejoin:miter;stroke-linecap:butt;fill-opacity:1;font-family:LMRoman12;font-style:normal;font-weight:normal;font-size:12px;line-height:100%;letter-spacing:0px;word-spacing:0px;-inkscape-font-specification:Sans;font-stretch:normal;font-variant:normal;text-anchor:start;text-align:start"><flowRegion
         id="flowRegion6379"><rect
           id="rect6381"
           width="27.681772"
           height="40.319103"
           x="219.34796"
           y="87.141403" /></flowRegion><flowPara
         id="flowPara6383" /></flowRoot>    <text
       xml:space="preserve"
       style="font-size:12px;font-style:normal;font-variant:normal;font-weight:normal;font-stretch:normal;text-align:start;line-height:50%;letter-spacing:0px;word-spacing:0px;text-anchor:start;fill:#000000;fill-opacity:1;stroke:none;font-family:LMRoman12;-inkscape-font-specification:Sans"
       x="275.91507"
       y="55.247185"
       id="text6385"
       sodipodi:linespacing="50%"
       transform="translate(0,698.03016)"><tspan
         sodipodi:role="line"
         id="tspan6387" /></text>
    <text
       xml:space="preserve"
       style="font-size:12px;font-style:normal;font-variant:normal;font-weight:normal;font-stretch:normal;text-align:start;line-height:100%;letter-spacing:0px;word-spacing:0px;text-anchor:start;fill:#000000;fill-opacity:1;stroke:none;font-family:LMRoman12;-inkscape-font-specification:Sans"
       x="348.65417"
       y="194.38702"
       id="text3884"
       sodipodi:linespacing="100%"
       transform="translate(0,698.03016)"><tspan
         sodipodi:role="line"
         x="348.65417"
         y="194.38702"
         id="tspan3890" /></text>
    <text
       xml:space="preserve"
       style="font-size:12px;font-style:normal;font-variant:normal;font-weight:normal;font-stretch:normal;text-align:start;line-height:150%;letter-spacing:0px;word-spacing:0px;text-anchor:start;fill:#000000;fill-opacity:1;stroke:none;font-family:LMRoman12;-inkscape-font-specification:Sans"
       x="216.96629"
       y="250.89732"
       id="text3887"
       sodipodi:linespacing="150%"
       transform="translate(0,698.03016)"><tspan
         sodipodi:role="line"
         id="tspan3889"
         x="216.96629"
         y="250.89732" /></text>
    <path
       sodipodi:nodetypes="cccc"
       inkscape:connector-curvature="0"
       id="path3516"
       d="m 134.18709,952.36082 40.81291,0 0,-19.99997 38.68594,0"
       style="fill:none;stroke:#000000;stroke-width:0.99212593;stroke-linecap:square;stroke-linejoin:round;stroke-miterlimit:4;stroke-opacity:1;stroke-dasharray:none;stroke-dashoffset:0" />
    <path
       style="fill:none;stroke:#000000;stroke-width:0.99212593;stroke-linecap:square;stroke-linejoin:round;stroke-miterlimit:4;stroke-opacity:1;stroke-dasharray:none;stroke-dashoffset:0"
       d="m 258.13634,922.36084 30.81291,0"
       id="path3050"
       inkscape:connector-curvature="0"
       sodipodi:nodetypes="cc" />
    <path
       style="fill:none;stroke:#000000;stroke-width:0.99212599;stroke-linecap:square;stroke-linejoin:round;stroke-miterlimit:4;stroke-opacity:1;stroke-dasharray:none;stroke-dashoffset:0"
       d="m 50,902.36085 43.636036,0"
       id="path5751"
       inkscape:connector-curvature="0"
       sodipodi:nodetypes="cc" />
    <path
       sodipodi:nodetypes="cc"
       inkscape:connector-curvature="0"
       id="path5753"
       d="m 50,882.36085 43.636036,0"
       style="fill:none;stroke:#000000;stroke-width:0.99212599;stroke-linecap:square;stroke-linejoin:round;stroke-miterlimit:4;stroke-opacity:1;stroke-dasharray:none;stroke-dashoffset:0" />
    <path
       style="fill:none;stroke:#000000;stroke-width:1.20000005;stroke-linecap:butt;stroke-linejoin:round;stroke-miterlimit:4;stroke-opacity:1;stroke-dasharray:none;stroke-dashoffset:0"
       d="m 90.129529,872.38764 c 20.000001,0 33.333331,6.66666 40.000001,19.99999 -6.66667,13.33334 -20,20 -40.000001,20 6.66667,-13.33333 6.66667,-26.66666 0,-39.99999 z"
       id="path6295"
       inkscape:connector-curvature="0"
       sodipodi:nodetypes="cccc" />
    <path
       sodipodi:nodetypes="cccc"
       inkscape:connector-curvature="0"
       id="path6301"
       d="m 90.129528,932.38765 c 20.000002,0 33.333332,6.66666 40.000002,19.99999 -6.66667,13.33334 -20,20 -40.000002,20 6.66667,-13.33333 6.66667,-26.66666 0,-39.99999 z"
       style="fill:none;stroke:#000000;stroke-width:1.20000005;stroke-linecap:butt;stroke-linejoin:round;stroke-miterlimit:4;stroke-opacity:1;stroke-dasharray:none;stroke-dashoffset:0" />
    <path
       sodipodi:nodetypes="cccc"
       inkscape:connector-curvature="0"
       id="path6303"
       d="m 210.12953,902.36085 c 20,0 33.33333,6.66666 40,19.99999 -6.66667,13.33334 -20,20 -40,20 6.66667,-13.33333 6.66667,-26.66666 0,-39.99999 z"
       style="fill:none;stroke:#000000;stroke-width:1.20000005;stroke-linecap:butt;stroke-linejoin:round;stroke-miterlimit:4;stroke-opacity:1;stroke-dasharray:none;stroke-dashoffset:0" />
    <path
       transform="matrix(1.8641214,0,0,1.8641214,-6.9284363,774.47881)"
       d="m 142.10235,79.330688 c 0,1.161094 -0.94126,2.102346 -2.10235,2.102346 -1.16109,0 -2.10235,-0.941252 -2.10235,-2.102346 0,-1.161093 0.94126,-2.102345 2.10235,-2.102345 1.16109,0 2.10235,0.941252 2.10235,2.102345 z"
       sodipodi:ry="2.1023455"
       sodipodi:rx="2.1023455"
       sodipodi:cy="79.330688"
       sodipodi:cx="140"
       id="path3048"
       style="fill:#ffffff;stroke:#000000;stroke-width:0.4291566;stroke-linecap:square;stroke-linejoin:round;stroke-miterlimit:4;stroke-opacity:1;stroke-dasharray:none;stroke-dashoffset:0"
       sodipodi:type="arc" />
    <path
       transform="matrix(1.8641214,0,0,1.8641214,-126.92844,804.50561)"
       d="m 142.10235,79.330688 c 0,1.161094 -0.94126,2.102346 -2.10235,2.102346 -1.16109,0 -2.10235,-0.941252 -2.10235,-2.102346 0,-1.161093 0.94126,-2.102345 2.10235,-2.102345 1.16109,0 2.10235,0.941252 2.10235,2.102345 z"
       sodipodi:ry="2.1023455"
       sodipodi:rx="2.1023455"
       sodipodi:cy="79.330688"
       sodipodi:cx="140"
       id="path3025"
       style="fill:#ffffff;stroke:#000000;stroke-width:0.4291566;stroke-linecap:square;stroke-linejoin:round;stroke-miterlimit:4;stroke-opacity:1;stroke-dasharray:none;stroke-dashoffset:0"
       sodipodi:type="arc" />
    <path
       style="fill:none;stroke:#000000;stroke-width:0.99212593;stroke-linecap:square;stroke-linejoin:round;stroke-miterlimit:4;stroke-opacity:1;stroke-dasharray:none;stroke-dashoffset:0"
       d="m 134.18709,892.36085 40.81291,0 0,19.99997 38.68594,0"
       id="path8273"
       inkscape:connector-curvature="0"
       sodipodi:nodetypes="cccc" />
    <path
       sodipodi:type="arc"
       style="fill:#ffffff;stroke:#000000;stroke-width:0.4291566;stroke-linecap:square;stroke-linejoin:round;stroke-miterlimit:4;stroke-opacity:1;stroke-dasharray:none;stroke-dashoffset:0"
       id="path3028"
       sodipodi:cx="140"
       sodipodi:cy="79.330688"
       sodipodi:rx="2.1023455"
       sodipodi:ry="2.1023455"
       d="m 142.10235,79.330688 c 0,1.161094 -0.94126,2.102346 -2.10235,2.102346 -1.16109,0 -2.10235,-0.941252 -2.10235,-2.102346 0,-1.161093 0.94126,-2.102345 2.10235,-2.102345 1.16109,0 2.10235,0.941252 2.10235,2.102345 z"
       transform="matrix(1.8641214,0,0,1.8641214,-126.92844,744.5056)" />
    <path
       sodipodi:nodetypes="cc"
       inkscape:connector-curvature="0"
       id="path8275"
       d="m 50,962.36085 43.636036,0"
       style="fill:none;stroke:#000000;stroke-width:0.99212599;stroke-linecap:square;stroke-linejoin:round;stroke-miterlimit:4;stroke-opacity:1;stroke-dasharray:none;stroke-dashoffset:0" />
    <path
       style="fill:none;stroke:#000000;stroke-width:0.99212599;stroke-linecap:square;stroke-linejoin:round;stroke-miterlimit:4;stroke-opacity:1;stroke-dasharray:none;stroke-dashoffset:0"
       d="m 50,942.36085 43.636036,0"
       id="path8277"
       inkscape:connector-curvature="0"
       sodipodi:nodetypes="cc" />
    <g
       id="g8444"
       transform="matrix(1.2,0,0,-1.2,-230.08016,1732.7824)"
       xml:space="preserve"
       stroke-miterlimit="10.433"
       font-style="normal"
       font-variant="normal"
       font-weight="normal"
       font-stretch="normal"
       font-size-adjust="none"
       letter-spacing="normal"
       word-spacing="normal"
       ns0:text="$z\'$"
       ns0:preamble="/home/sriranga/Desktop/Prism_BasicElectronics/preamble.tex"
       style="font-style:normal;font-variant:normal;font-weight:normal;font-stretch:normal;letter-spacing:normal;word-spacing:normal;text-anchor:start;fill:none;stroke:#000000;stroke-width:1;stroke-linecap:butt;stroke-linejoin:miter;stroke-miterlimit:10.43299961;stroke-opacity:1;stroke-dasharray:none;stroke-dashoffset:0"><path
         style="fill:#000000;stroke-width:0"
         inkscape:connector-curvature="0"
         d="m 224.24,710.2 0.02,0.04 0.02,0.04 0.02,0.04 0.01,0.04 0.02,0.04 0.02,0.03 0.02,0.04 0.02,0.03 0.01,0.02 0.02,0.03 0.02,0.03 0.02,0.02 0.02,0.02 0.02,0.02 0.02,0.02 0.02,0.01 0.03,0.02 0.02,0.01 0.02,0.02 0.03,0.01 0.02,0.01 0.03,0 0.03,0.01 0.03,0.01 0.03,0 0.03,0.01 0.04,0 0.03,0.01 0.04,0 0.04,0 0.04,0 0.04,0 h 1.46 l -3.09,-3.69 0.09,-0.09 c 0.16,0.12 0.29,0.17 0.46,0.17 0.24,0 0.57,-0.12 1.03,-0.41 0.5,-0.31 0.84,-0.44 1.12,-0.44 0.5,0 0.93,0.36 0.93,0.76 0,0.2 -0.14,0.35 -0.34,0.35 -0.2,0 -0.34,-0.13 -0.34,-0.31 0,-0.08 0.03,-0.18 0.09,-0.29 0.03,-0.06 0.05,-0.12 0.05,-0.15 0,-0.09 -0.11,-0.15 -0.27,-0.15 -0.25,0 -0.37,0.08 -0.7,0.5 -0.44,0.56 -0.63,0.69 -1.2,0.82 l 2.88,3.42 v 0.11 h -2.82 l -0.31,-1.15 z"
         id="path8446" /><path
         style="fill:#000000;stroke-width:0"
         inkscape:connector-curvature="0"
         d="m 229.38,713.6 0,0.02 -0.01,0.02 0,0.03 -0.01,0.02 0,0.02 -0.01,0.02 -0.01,0.02 -0.01,0.02 -0.01,0.01 -0.01,0.02 -0.01,0.02 -0.01,0.02 -0.02,0.01 -0.01,0.02 -0.02,0.01 -0.02,0.02 -0.01,0.01 -0.02,0.01 -0.02,0.01 -0.02,0.01 -0.02,0.01 -0.02,0.01 -0.02,0.01 -0.02,0.01 -0.02,0.01 -0.02,0 -0.02,0.01 -0.02,0 -0.02,0.01 -0.02,0 -0.03,0 -0.02,0 c -0.25,0 -0.38,-0.25 -0.45,-0.46 l -0.72,-2.11 c -0.02,-0.05 -0.07,-0.18 -0.07,-0.24 0,-0.06 0.04,-0.15 0.11,-0.15 0.1,0 0.22,0.15 0.27,0.23 l 1.14,1.8 c 0.1,0.14 0.2,0.34 0.2,0.52 z"
         id="path8448" /></g>    <g
       style="font-style:normal;font-variant:normal;font-weight:normal;font-stretch:normal;letter-spacing:normal;word-spacing:normal;text-anchor:start;fill:none;stroke:#000000;stroke-width:1;stroke-linecap:butt;stroke-linejoin:miter;stroke-miterlimit:10.43299961;stroke-opacity:1;stroke-dasharray:none;stroke-dashoffset:0"
       ns0:preamble="/home/sriranga/Desktop/Prism_BasicElectronics/preamble.tex"
       ns0:text="$z\'$"
       word-spacing="normal"
       letter-spacing="normal"
       font-size-adjust="none"
       font-stretch="normal"
       font-weight="normal"
       font-variant="normal"
       font-style="normal"
       stroke-miterlimit="10.433"
       xml:space="preserve"
       transform="matrix(1.2,0,0,-1.2,-230.08016,1792.3627)"
       id="g8505"><path
         id="path8507"
         d="m 224.24,710.2 0.02,0.04 0.02,0.04 0.02,0.04 0.01,0.04 0.02,0.04 0.02,0.03 0.02,0.04 0.02,0.03 0.01,0.02 0.02,0.03 0.02,0.03 0.02,0.02 0.02,0.02 0.02,0.02 0.02,0.02 0.02,0.01 0.03,0.02 0.02,0.01 0.02,0.02 0.03,0.01 0.02,0.01 0.03,0 0.03,0.01 0.03,0.01 0.03,0 0.03,0.01 0.04,0 0.03,0.01 0.04,0 0.04,0 0.04,0 0.04,0 h 1.46 l -3.09,-3.69 0.09,-0.09 c 0.16,0.12 0.29,0.17 0.46,0.17 0.24,0 0.57,-0.12 1.03,-0.41 0.5,-0.31 0.84,-0.44 1.12,-0.44 0.5,0 0.93,0.36 0.93,0.76 0,0.2 -0.14,0.35 -0.34,0.35 -0.2,0 -0.34,-0.13 -0.34,-0.31 0,-0.08 0.03,-0.18 0.09,-0.29 0.03,-0.06 0.05,-0.12 0.05,-0.15 0,-0.09 -0.11,-0.15 -0.27,-0.15 -0.25,0 -0.37,0.08 -0.7,0.5 -0.44,0.56 -0.63,0.69 -1.2,0.82 l 2.88,3.42 v 0.11 h -2.82 l -0.31,-1.15 z"
         inkscape:connector-curvature="0"
         style="fill:#000000;stroke-width:0" /><path
         id="path8509"
         d="m 229.38,713.6 0,0.02 -0.01,0.02 0,0.03 -0.01,0.02 0,0.02 -0.01,0.02 -0.01,0.02 -0.01,0.02 -0.01,0.01 -0.01,0.02 -0.01,0.02 -0.01,0.02 -0.02,0.01 -0.01,0.02 -0.02,0.01 -0.02,0.02 -0.01,0.01 -0.02,0.01 -0.02,0.01 -0.02,0.01 -0.02,0.01 -0.02,0.01 -0.02,0.01 -0.02,0.01 -0.02,0.01 -0.02,0 -0.02,0.01 -0.02,0 -0.02,0.01 -0.02,0 -0.03,0 -0.02,0 c -0.25,0 -0.38,-0.25 -0.45,-0.46 l -0.72,-2.11 c -0.02,-0.05 -0.07,-0.18 -0.07,-0.24 0,-0.06 0.04,-0.15 0.11,-0.15 0.1,0 0.22,0.15 0.27,0.23 l 1.14,1.8 c 0.1,0.14 0.2,0.34 0.2,0.52 z"
         inkscape:connector-curvature="0"
         style="fill:#000000;stroke-width:0" /></g>    <g
       style="font-style:normal;font-variant:normal;font-weight:normal;font-stretch:normal;letter-spacing:normal;word-spacing:normal;text-anchor:start;fill:none;stroke:#000000;stroke-width:1;stroke-linecap:butt;stroke-linejoin:miter;stroke-miterlimit:10.43299961;stroke-opacity:1;stroke-dasharray:none;stroke-dashoffset:0"
       ns0:preamble="/home/sriranga/Desktop/Prism_BasicElectronics/preamble.tex"
       ns0:text="$x$"
       text-anchor="start"
       word-spacing="normal"
       letter-spacing="normal"
       font-size-adjust="none"
       font-stretch="normal"
       font-weight="normal"
       font-variant="normal"
       font-style="normal"
       fill-opacity="1"
       fill-rule="evenodd"
       fill="none"
       stroke-opacity="1"
       stroke-dashoffset="0"
       stroke-dasharray="none"
       stroke-miterlimit="10.433"
       stroke-linejoin="miter"
       stroke-linecap="butt"
       stroke="black"
       xml:space="preserve"
       transform="matrix(1.2,0,0,-1.2,-230.08016,1753.0244)"
       id="g8577"><path
         id="path8579"
         fill="black"
         stroke-width="0"
         d="M227.93,708.23 L227.92,708.21 L227.9,708.2 L227.89,708.18 L227.87,708.16 L227.86,708.15 L227.85,708.13 L227.84,708.12 L227.82,708.1 L227.81,708.09 L227.8,708.07 L227.79,708.06 L227.77,708.04 L227.76,708.03 L227.76,708.02 L227.75,708.01 L227.74,708 L227.74,707.99 L227.73,707.98 L227.72,707.97 L227.71,707.96 C227.48,707.66,227.36,707.56,227.25,707.56 C227.1,707.56,227.01,707.69,226.95,707.97 C226.93,708.05,226.91,708.11,226.9,708.14 C226.66,709.14,226.55,709.6,226.55,709.75 C226.98,710.51,227.34,710.95,227.52,710.95 C227.58,710.95,227.66,710.92,227.76,710.87 C227.88,710.8,227.95,710.78,228.03,710.78 C228.24,710.78,228.38,710.93,228.38,711.14 C228.38,711.35,228.21,711.51,227.97,711.51 C227.53,711.51,227.15,711.15,226.47,710.09 L226.36,710.63 C226.22,711.31,226.11,711.51,225.84,711.51 C225.62,711.51,225.28,711.42,224.68,711.22 L224.57,711.18 L224.61,711.03 C224.99,711.12,225.07,711.14,225.16,711.14 C225.41,711.14,225.47,711.05,225.61,710.45 L225.9,709.23 L225.08,708.07 C224.88,707.77,224.69,707.59,224.58,707.59 C224.52,707.59,224.42,707.62,224.32,707.68 C224.19,707.75,224.08,707.78,224,707.78 C223.81,707.78,223.66,707.63,223.66,707.43 C223.66,707.17,223.86,707.02,224.16,707.02 C224.47,707.02,224.59,707.1,225.08,707.71 C225.35,708.03,225.56,708.3,225.98,708.87 L226.28,707.68 C226.41,707.17,226.54,707.02,226.85,707.02 C227.23,707.02,227.49,707.25,228.07,708.15 Z " /></g>    <g
       id="g8707"
       transform="matrix(1.2,0,0,-1.2,-230.08016,1813.5182)"
       xml:space="preserve"
       stroke="black"
       stroke-linecap="butt"
       stroke-linejoin="miter"
       stroke-miterlimit="10.433"
       stroke-dasharray="none"
       stroke-dashoffset="0"
       stroke-opacity="1"
       fill="none"
       fill-rule="evenodd"
       fill-opacity="1"
       font-style="normal"
       font-variant="normal"
       font-weight="normal"
       font-stretch="normal"
       font-size-adjust="none"
       letter-spacing="normal"
       word-spacing="normal"
       text-anchor="start"
       ns0:text="$y$"
       ns0:preamble="/home/sriranga/Desktop/Prism_BasicElectronics/preamble.tex"
       style="font-style:normal;font-variant:normal;font-weight:normal;font-stretch:normal;letter-spacing:normal;word-spacing:normal;text-anchor:start;fill:none;stroke:#000000;stroke-width:1;stroke-linecap:butt;stroke-linejoin:miter;stroke-miterlimit:10.43299961;stroke-opacity:1;stroke-dasharray:none;stroke-dashoffset:0"><path
         d="M223.58,711.1 L223.59,711.1 L223.6,711.1 L223.62,711.11 L223.63,711.11 L223.64,711.11 L223.65,711.11 L223.66,711.12 L223.67,711.12 L223.69,711.12 L223.71,711.12 L223.73,711.13 L223.74,711.13 L223.76,711.13 L223.78,711.13 L223.8,711.13 L223.81,711.14 L223.83,711.14 L223.85,711.14 L223.87,711.14 L223.88,711.14 L223.89,711.14 C224.46,711.14,224.61,710.89,225.06,709.18 C225.23,708.54,225.47,707.37,225.47,707.2 C225.47,707.05,225.41,706.89,225.26,706.71 C224.95,706.3,224.76,706.04,224.65,705.92 C224.44,705.7,224.32,705.62,224.19,705.62 C224.13,705.62,224.06,705.66,223.95,705.73 C223.8,705.85,223.69,705.9,223.58,705.9 C223.36,705.9,223.19,705.73,223.19,705.52 C223.19,705.27,223.41,705.08,223.7,705.08 C224.34,705.08,225.64,706.57,226.71,708.54 C227.39,709.76,227.67,710.47,227.67,710.96 C227.67,711.26,227.42,711.51,227.12,711.51 C226.89,711.51,226.74,711.36,226.74,711.14 C226.74,710.99,226.82,710.88,227.01,710.75 C227.2,710.64,227.27,710.55,227.27,710.41 C227.27,710.02,226.9,709.24,226.06,707.84 L225.86,708.99 C225.71,709.87,225.15,711.51,225,711.51 H224.96 C224.95,711.5,224.91,711.5,224.88,711.5 C224.79,711.49,224.43,711.43,223.9,711.33 C223.85,711.32,223.72,711.29,223.58,711.27 Z "
         stroke-width="0"
         fill="black"
         id="path8709" /></g>    <g
       style="font-style:normal;font-variant:normal;font-weight:normal;font-stretch:normal;letter-spacing:normal;word-spacing:normal;text-anchor:start;fill:none;stroke:#000000;stroke-width:1;stroke-linecap:butt;stroke-linejoin:miter;stroke-miterlimit:10.43299961;stroke-opacity:1;stroke-dasharray:none;stroke-dashoffset:0"
       ns0:preamble="/home/sriranga/Desktop/Prism_BasicElectronics/preamble.tex"
       ns0:text="$f$"
       text-anchor="start"
       word-spacing="normal"
       letter-spacing="normal"
       font-size-adjust="none"
       font-stretch="normal"
       font-weight="normal"
       font-variant="normal"
       font-style="normal"
       fill-opacity="1"
       fill-rule="evenodd"
       fill="none"
       stroke-opacity="1"
       stroke-dashoffset="0"
       stroke-dasharray="none"
       stroke-miterlimit="10.433"
       stroke-linejoin="miter"
       stroke-linecap="butt"
       stroke="black"
       xml:space="preserve"
       transform="matrix(1.2,0,0,-1.2,24.448583,1774.7515)"
       id="content"><path
         id="path8819"
         fill="black"
         stroke-width="0"
         d="M225.27,711.06 H226.17 L225.29,706.89 C225.07,705.82,224.75,705.28,224.33,705.28 C224.21,705.28,224.13,705.35,224.13,705.44 C224.13,705.47,224.14,705.5,224.17,705.55 C224.21,705.6,224.22,705.65,224.22,705.7 C224.22,705.91,224.04,706.08,223.83,706.08 C223.62,706.08,223.46,705.9,223.46,705.67 C223.46,705.34,223.81,705.07,224.25,705.07 C225.13,705.07,225.83,706.05,226.24,707.88 L226.96,711.06 H228.04 L228.1,711.38 H227.02 C227.31,712.94,227.68,713.64,228.24,713.64 C228.37,713.64,228.46,713.59,228.46,713.52 C228.46,713.49,228.45,713.47,228.42,713.42 C228.38,713.33,228.36,713.28,228.36,713.21 C228.36,712.98,228.51,712.82,228.73,712.82 C228.96,712.82,229.15,713,229.15,713.21 C229.15,713.58,228.78,713.86,228.29,713.86 C227.8,713.86,227.41,713.64,227.05,713.17 C226.76,712.79,226.56,712.33,226.26,711.38 H225.34 Z " /></g>  </g>
</svg>
