<?xml version="1.0" encoding="UTF-8" standalone="no"?>
<!-- Created with Inkscape (http://www.inkscape.org/) -->

<svg
   xmlns:ns0="http://www.iki.fi/pav/software/textext/"
   xmlns:dc="http://purl.org/dc/elements/1.1/"
   xmlns:cc="http://creativecommons.org/ns#"
   xmlns:rdf="http://www.w3.org/1999/02/22-rdf-syntax-ns#"
   xmlns:svg="http://www.w3.org/2000/svg"
   xmlns="http://www.w3.org/2000/svg"
   xmlns:sodipodi="http://sodipodi.sourceforge.net/DTD/sodipodi-0.dtd"
   xmlns:inkscape="http://www.inkscape.org/namespaces/inkscape"
   width="496.06299"
   height="354.33069"
   id="svg2"
   version="1.1"
   inkscape:version="0.48.4 r9939"
   sodipodi:docname="figS8.eps">
  <sodipodi:namedview
     id="base"
     pagecolor="#ffffff"
     bordercolor="#666666"
     borderopacity="1.0"
     inkscape:pageopacity="0.0"
     inkscape:pageshadow="2"
     inkscape:zoom="1.6848668"
     inkscape:cx="248.03149"
     inkscape:cy="177.16534"
     inkscape:document-units="cm"
     inkscape:current-layer="layer1"
     showgrid="false"
     units="cm"
     inkscape:object-nodes="true"
     inkscape:window-width="1366"
     inkscape:window-height="744"
     inkscape:window-x="0"
     inkscape:window-y="24"
     inkscape:window-maximized="1">
    <inkscape:grid
       type="xygrid"
       id="grid2985"
       empspacing="5"
       visible="true"
       enabled="true"
       snapvisiblegridlinesonly="true" />
  </sodipodi:namedview>
  <defs
     id="defs4">
    <marker
       inkscape:stockid="Arrow1Mstart"
       orient="auto"
       refY="0"
       refX="0"
       id="Arrow1Mstart"
       style="overflow:visible">
      <path
         inkscape:connector-curvature="0"
         id="path3775"
         d="M 0,0 5,-5 -12.5,0 5,5 0,0 z"
         style="fill-rule:evenodd;stroke:#000000;stroke-width:1pt"
         transform="matrix(0.4,0,0,0.4,4,0)" />
    </marker>
    <marker
       inkscape:stockid="Arrow1Mend"
       orient="auto"
       refY="0"
       refX="0"
       id="Arrow1Mend"
       style="overflow:visible">
      <path
         inkscape:connector-curvature="0"
         id="path3778"
         d="M 0,0 5,-5 -12.5,0 5,5 0,0 z"
         style="fill-rule:evenodd;stroke:#000000;stroke-width:1pt"
         transform="matrix(-0.4,0,0,-0.4,-4,0)" />
    </marker>
  </defs>
  <metadata
     id="metadata7">
    <rdf:RDF>
      <cc:Work
         rdf:about="">
        <dc:format>image/svg+xml</dc:format>
        <dc:type
           rdf:resource="http://purl.org/dc/dcmitype/StillImage" />
        <dc:title></dc:title>
      </cc:Work>
    </rdf:RDF>
  </metadata>
  <g
     inkscape:label="Layer 1"
     inkscape:groupmode="layer"
     id="layer1"
     transform="translate(0,-698.03016)">
    <text
       transform="translate(0,698.03016)"
       sodipodi:linespacing="100%"
       id="text5818"
       y="56.040417"
       x="61.700558"
       style="font-size:12px;font-style:normal;font-variant:normal;font-weight:normal;font-stretch:normal;text-align:start;line-height:100%;letter-spacing:0px;word-spacing:0px;text-anchor:start;fill:#000000;fill-opacity:1;stroke:none;font-family:LMRoman12;-inkscape-font-specification:Sans"
       xml:space="preserve"><tspan
         y="56.040417"
         x="61.700558"
         id="tspan5820"
         sodipodi:role="line" /></text>
    <flowRoot
       xml:space="preserve"
       id="flowRoot6377"
       style="fill:black;stroke:none;stroke-opacity:1;stroke-width:1px;stroke-linejoin:miter;stroke-linecap:butt;fill-opacity:1;font-family:LMRoman12;font-style:normal;font-weight:normal;font-size:12px;line-height:100%;letter-spacing:0px;word-spacing:0px;-inkscape-font-specification:Sans;font-stretch:normal;font-variant:normal;text-anchor:start;text-align:start"><flowRegion
         id="flowRegion6379"><rect
           id="rect6381"
           width="27.681772"
           height="40.319103"
           x="219.34796"
           y="87.141403" /></flowRegion><flowPara
         id="flowPara6383" /></flowRoot>    <text
       xml:space="preserve"
       style="font-size:12px;font-style:normal;font-variant:normal;font-weight:normal;font-stretch:normal;text-align:start;line-height:50%;letter-spacing:0px;word-spacing:0px;text-anchor:start;fill:#000000;fill-opacity:1;stroke:none;font-family:LMRoman12;-inkscape-font-specification:Sans"
       x="275.91507"
       y="55.247185"
       id="text6385"
       sodipodi:linespacing="50%"
       transform="translate(0,698.03016)"><tspan
         sodipodi:role="line"
         id="tspan6387" /></text>
    <text
       xml:space="preserve"
       style="font-size:12px;font-style:normal;font-variant:normal;font-weight:normal;font-stretch:normal;text-align:start;line-height:100%;letter-spacing:0px;word-spacing:0px;text-anchor:start;fill:#000000;fill-opacity:1;stroke:none;font-family:LMRoman12;-inkscape-font-specification:Sans"
       x="348.65417"
       y="194.38702"
       id="text3884"
       sodipodi:linespacing="100%"
       transform="translate(0,698.03016)"><tspan
         sodipodi:role="line"
         x="348.65417"
         y="194.38702"
         id="tspan3890" /></text>
    <text
       xml:space="preserve"
       style="font-size:12px;font-style:normal;font-variant:normal;font-weight:normal;font-stretch:normal;text-align:start;line-height:150%;letter-spacing:0px;word-spacing:0px;text-anchor:start;fill:#000000;fill-opacity:1;stroke:none;font-family:LMRoman12;-inkscape-font-specification:Sans"
       x="216.96629"
       y="250.89732"
       id="text3887"
       sodipodi:linespacing="150%"
       transform="translate(0,698.03016)"><tspan
         sodipodi:role="line"
         id="tspan3889"
         x="216.96629"
         y="250.89732" /></text>
    <path
       sodipodi:nodetypes="ccccc"
       inkscape:connector-curvature="0"
       id="path5196"
       d="m 125,777.36087 20,0 c 26.66667,-2e-5 26.66667,39.99998 0,39.99998 l -20,0 z"
       style="fill:none;stroke:#000000;stroke-width:1.20000005;stroke-linecap:round;stroke-linejoin:round;stroke-miterlimit:4;stroke-opacity:1;stroke-dasharray:none;stroke-dashoffset:0" />
    <path
       sodipodi:nodetypes="cc"
       inkscape:connector-curvature="0"
       id="path3518"
       d="m 90,787.36085 35,0"
       style="fill:none;stroke:#000000;stroke-width:0.99212599;stroke-linecap:square;stroke-linejoin:round;stroke-miterlimit:4;stroke-opacity:1;stroke-dasharray:none;stroke-dashoffset:0" />
    <path
       sodipodi:nodetypes="cc"
       inkscape:connector-curvature="0"
       id="path4005"
       d="m 170,797.36085 145,0"
       style="fill:none;stroke:#000000;stroke-width:0.99212599;stroke-linecap:square;stroke-linejoin:round;stroke-miterlimit:4;stroke-opacity:1;stroke-dasharray:none;stroke-dashoffset:0" />
    <path
       style="fill:none;stroke:#000000;stroke-width:0.99212599;stroke-linecap:square;stroke-linejoin:round;stroke-miterlimit:4;stroke-opacity:1;stroke-dasharray:none;stroke-dashoffset:0"
       d="m 88.08286,852.36085 36.91714,0"
       id="path3506"
       inkscape:connector-curvature="0"
       sodipodi:nodetypes="cc" />
    <path
       sodipodi:nodetypes="cccc"
       inkscape:connector-curvature="0"
       id="path3516"
       d="m 90,912.36085 85,0 0,-30 30,0"
       style="fill:none;stroke:#000000;stroke-width:0.99212593;stroke-linecap:square;stroke-linejoin:round;stroke-miterlimit:4;stroke-opacity:1;stroke-dasharray:none;stroke-dashoffset:0" />
    <path
       style="fill:none;stroke:#000000;stroke-width:0.99212599;stroke-linecap:square;stroke-linejoin:round;stroke-miterlimit:4;stroke-opacity:1;stroke-dasharray:none;stroke-dashoffset:0"
       d="m 90,807.36085 34.8988,0"
       id="path3988"
       inkscape:connector-curvature="0"
       sodipodi:nodetypes="cc" />
    <path
       style="fill:none;stroke:#000000;stroke-width:1.20000005;stroke-linecap:round;stroke-linejoin:round;stroke-miterlimit:4;stroke-opacity:1;stroke-dasharray:none;stroke-dashoffset:0"
       d="m 125,842.36085 20,0 c 26.66667,-2e-5 26.66667,39.99998 0,39.99998 l -20,0 z"
       id="path3036"
       inkscape:connector-curvature="0"
       sodipodi:nodetypes="ccccc" />
    <path
       sodipodi:nodetypes="cc"
       inkscape:connector-curvature="0"
       id="path3997"
       d="m 88.08286,872.36085 36.91714,0"
       style="fill:none;stroke:#000000;stroke-width:0.99212599;stroke-linecap:square;stroke-linejoin:round;stroke-miterlimit:4;stroke-opacity:1;stroke-dasharray:none;stroke-dashoffset:0" />
    <path
       style="fill:none;stroke:#000000;stroke-width:0.99212599;stroke-linecap:square;stroke-linejoin:round;stroke-miterlimit:4;stroke-opacity:1;stroke-dasharray:none;stroke-dashoffset:0"
       d="m 165,862.36085 39.43959,0"
       id="path3999"
       inkscape:connector-curvature="0"
       sodipodi:nodetypes="cc" />
    <path
       style="fill:none;stroke:#000000;stroke-width:0.99212593;stroke-linecap:square;stroke-linejoin:round;stroke-miterlimit:4;stroke-opacity:1;stroke-dasharray:none;stroke-dashoffset:0"
       d="m 315,817.36085 -15,0 0,55 -54.26556,0"
       id="path4003"
       inkscape:connector-curvature="0"
       sodipodi:nodetypes="cccc" />
    <path
       sodipodi:nodetypes="ccccc"
       inkscape:connector-curvature="0"
       id="path4007"
       d="m 315,787.36085 20,0 c 26.66667,-2e-5 26.66667,39.99998 0,39.99998 l -20,0 z"
       style="fill:none;stroke:#000000;stroke-width:1.20000005;stroke-linecap:round;stroke-linejoin:round;stroke-miterlimit:4;stroke-opacity:1;stroke-dasharray:none;stroke-dashoffset:0" />
    <path
       sodipodi:nodetypes="cc"
       inkscape:connector-curvature="0"
       id="path4009"
       d="m 355,807.36085 39.43959,0"
       style="fill:none;stroke:#000000;stroke-width:0.99212599;stroke-linecap:square;stroke-linejoin:round;stroke-miterlimit:4;stroke-opacity:1;stroke-dasharray:none;stroke-dashoffset:0" />
    <g
       style="font-style:normal;font-variant:normal;font-weight:normal;font-stretch:normal;letter-spacing:normal;word-spacing:normal;text-anchor:start;fill:none;stroke:#000000;stroke-width:1;stroke-linecap:butt;stroke-linejoin:miter;stroke-miterlimit:10.43299961;stroke-opacity:1;stroke-dasharray:none;stroke-dashoffset:0"
       ns0:preamble="/home/sriranga/Desktop/Prism_BasicElectronics/preamble.tex"
       ns0:text="$F$"
       word-spacing="normal"
       letter-spacing="normal"
       font-size-adjust="none"
       font-stretch="normal"
       font-weight="normal"
       font-variant="normal"
       font-style="normal"
       stroke-miterlimit="10.433"
       xml:space="preserve"
       transform="matrix(1.2,0,0,-1.2,208.57165,1659.7279)"
       id="g3955"><path
         id="path3957"
         d="m 230.1,713.61 h -4.96 v -0.16 c 0.65,-0.06 0.77,-0.12 0.77,-0.4 0,-0.15 -0.04,-0.4 -0.11,-0.64 l -1.22,-4.39 c -0.18,-0.6 -0.25,-0.66 -0.82,-0.74 v -0.16 h 2.51 v 0.16 c -0.58,0.03 -0.76,0.14 -0.76,0.44 0,0.08 0.03,0.23 0.09,0.45 l 0.62,2.21 c 0.37,-0.02 0.58,-0.03 0.8,-0.03 0.39,0 0.46,-0.01 0.55,-0.05 0.15,-0.08 0.22,-0.21 0.22,-0.4 0,-0.16 -0.02,-0.28 -0.08,-0.59 l 0.17,-0.05 0.76,2.33 -0.18,0.05 c -0.45,-0.9 -0.48,-0.91 -2.15,-0.93 l 0.65,2.32 c 0.06,0.19 0.2,0.25 0.61,0.25 1.67,0 2.03,-0.12 2.03,-0.74 0,-0.06 0,-0.11 -0.01,-0.24 -0.01,-0.06 -0.01,-0.07 -0.02,-0.19 l 0.21,-0.02 z"
         inkscape:connector-curvature="0"
         style="fill:#000000;stroke-width:0" /></g>    <g
       id="g4094"
       transform="matrix(1.2,0,0,-1.2,-192.30652,1703.6621)"
       xml:space="preserve"
       stroke="black"
       stroke-linecap="butt"
       stroke-linejoin="miter"
       stroke-miterlimit="10.433"
       stroke-dasharray="none"
       stroke-dashoffset="0"
       stroke-opacity="1"
       fill="none"
       fill-rule="evenodd"
       fill-opacity="1"
       font-style="normal"
       font-variant="normal"
       font-weight="normal"
       font-stretch="normal"
       font-size-adjust="none"
       letter-spacing="normal"
       word-spacing="normal"
       text-anchor="start"
       ns0:text="$C$"
       ns0:preamble="/home/sriranga/Desktop/Prism_BasicElectronics/preamble.tex"
       style="font-style:normal;font-variant:normal;font-weight:normal;font-stretch:normal;letter-spacing:normal;word-spacing:normal;text-anchor:start;fill:none;stroke:#000000;stroke-width:1;stroke-linecap:butt;stroke-linejoin:miter;stroke-miterlimit:10.43299961;stroke-opacity:1;stroke-dasharray:none;stroke-dashoffset:0"><path
         d="M229.67,711.74 L230.04,713.72 H229.83 C229.75,713.56,229.65,713.5,229.45,713.5 C229.37,713.5,229.25,713.52,229.04,713.57 C228.6,713.68,228.2,713.74,227.88,713.74 C225.76,713.74,223.84,711.74,223.84,709.54 C223.84,708.02,224.91,706.95,226.44,706.95 C227.46,706.95,228.26,707.38,229.15,708.43 L228.98,708.57 C228.09,707.69,227.51,707.39,226.7,707.39 C225.59,707.39,224.95,708.15,224.95,709.43 C224.95,710.61,225.43,711.81,226.21,712.62 C226.68,713.1,227.31,713.38,227.97,713.38 C228.88,713.38,229.39,712.85,229.49,711.77 Z "
         stroke-width="0"
         fill="black"
         id="path4096" /></g>    <g
       style="font-style:normal;font-variant:normal;font-weight:normal;font-stretch:normal;letter-spacing:normal;word-spacing:normal;text-anchor:start;fill:none;stroke:#000000;stroke-width:1;stroke-linecap:butt;stroke-linejoin:miter;stroke-miterlimit:10.43299961;stroke-opacity:1;stroke-dasharray:none;stroke-dashoffset:0"
       ns0:preamble="/home/sriranga/Desktop/Prism_BasicElectronics/preamble.tex"
       ns0:text="$D$"
       text-anchor="start"
       word-spacing="normal"
       letter-spacing="normal"
       font-size-adjust="none"
       font-stretch="normal"
       font-weight="normal"
       font-variant="normal"
       font-style="normal"
       fill-opacity="1"
       fill-rule="evenodd"
       fill="none"
       stroke-opacity="1"
       stroke-dashoffset="0"
       stroke-dasharray="none"
       stroke-miterlimit="10.433"
       stroke-linejoin="miter"
       stroke-linecap="butt"
       stroke="black"
       xml:space="preserve"
       transform="matrix(1.2,0,0,-1.2,-192.30652,1724.0166)"
       id="g4240"><path
         id="path4242"
         fill="black"
         stroke-width="0"
         d="M224.97,713.45 L225,713.45 L225.03,713.45 L225.06,713.44 L225.08,713.44 L225.11,713.44 L225.14,713.44 L225.18,713.43 L225.23,713.42 L225.27,713.42 L225.32,713.41 L225.35,713.4 L225.39,713.39 L225.43,713.39 L225.46,713.38 L225.49,713.37 L225.52,713.36 L225.54,713.35 L225.57,713.34 L225.59,713.33 L225.61,713.32 L225.63,713.3 L225.64,713.29 L225.66,713.28 L225.67,713.26 L225.69,713.25 L225.7,713.23 L225.71,713.21 L225.72,713.2 L225.72,713.18 L225.73,713.16 L225.73,713.14 L225.74,713.12 L225.74,713.09 L225.74,713.07 L225.74,713.05 C225.74,712.9,225.7,712.66,225.63,712.41 L224.41,708.02 C224.23,707.44,224.16,707.38,223.6,707.28 V707.12 H226.12 L226.02,707.42 C225.56,707.42,225.37,707.53,225.37,707.79 C225.37,707.92,225.42,708.14,225.59,708.73 L226.79,713.03 C226.85,713.24,227,713.31,227.4,713.31 C227.97,713.31,228.47,713.18,228.79,712.95 C229.27,712.59,229.54,711.96,229.54,711.18 C229.54,710.1,229.12,708.99,228.45,708.32 C227.86,707.72,227.05,707.42,226.02,707.42 L226.12,707.12 C227.28,707.12,228.35,707.43,229.11,707.99 C230.08,708.69,230.65,709.79,230.65,710.94 C230.65,712.57,229.51,713.61,227.74,713.61 H224.97 Z " /></g>    <g
       id="g4390"
       transform="matrix(1.2,0,0,-1.2,-192.30652,1763.6765)"
       xml:space="preserve"
       stroke="black"
       stroke-linecap="butt"
       stroke-linejoin="miter"
       stroke-miterlimit="10.433"
       stroke-dasharray="none"
       stroke-dashoffset="0"
       stroke-opacity="1"
       fill="none"
       fill-rule="evenodd"
       fill-opacity="1"
       font-style="normal"
       font-variant="normal"
       font-weight="normal"
       font-stretch="normal"
       font-size-adjust="none"
       letter-spacing="normal"
       word-spacing="normal"
       text-anchor="start"
       ns0:text="$E$"
       ns0:preamble="/home/sriranga/Desktop/Prism_BasicElectronics/preamble.tex"
       style="font-style:normal;font-variant:normal;font-weight:normal;font-stretch:normal;letter-spacing:normal;word-spacing:normal;text-anchor:start;fill:none;stroke:#000000;stroke-width:1;stroke-linecap:butt;stroke-linejoin:miter;stroke-miterlimit:10.43299961;stroke-opacity:1;stroke-dasharray:none;stroke-dashoffset:0"><path
         d="M229.99,713.61 H225.04 V713.45 C225.66,713.39,225.81,713.31,225.81,713.05 C225.81,712.94,225.75,712.59,225.7,712.41 L224.48,708.02 C224.31,707.45,224.23,707.38,223.67,707.28 V707.12 H228.71 L229.33,708.73 L229.17,708.81 C228.71,708.18,228.45,707.92,228.02,707.72 C227.65,707.55,226.97,707.45,226.23,707.45 C225.67,707.45,225.43,707.55,225.43,707.79 C225.43,707.9,225.54,708.37,225.79,709.24 C225.92,709.68,226.01,710.01,226.11,710.38 C226.46,710.36,226.76,710.35,226.88,710.35 C227.27,710.36,227.55,710.3,227.66,710.2 C227.71,710.16,227.73,710.07,227.73,709.9 C227.73,709.73,227.71,709.6,227.66,709.38 L227.86,709.33 L228.54,711.64 L228.36,711.67 C227.98,710.83,227.89,710.77,226.98,710.73 C226.87,710.73,226.55,710.72,226.2,710.71 L226.85,713.03 C226.91,713.24,227.02,713.28,227.58,713.28 C229.14,713.28,229.49,713.16,229.49,712.56 C229.49,712.43,229.48,712.28,229.47,712.11 L229.68,712.09 Z "
         stroke-width="0"
         fill="black"
         id="path4392" /></g>    <path
       sodipodi:nodetypes="ccccc"
       inkscape:connector-curvature="0"
       id="path5183"
       d="m 205,852.36087 20,0 c 26.66667,-2e-5 26.66667,39.99998 0,39.99998 l -20,0 z"
       style="fill:none;stroke:#000000;stroke-width:1.20000005;stroke-linecap:round;stroke-linejoin:round;stroke-miterlimit:4;stroke-opacity:1;stroke-dasharray:none;stroke-dashoffset:0" />
    <path
       sodipodi:type="arc"
       style="fill:#ffffff;stroke:#000000;stroke-width:0.4291566;stroke-linecap:square;stroke-linejoin:round;stroke-miterlimit:4;stroke-opacity:1;stroke-dasharray:none;stroke-dashoffset:0"
       id="path3028"
       sodipodi:cx="140"
       sodipodi:cy="79.330688"
       sodipodi:rx="2.1023455"
       sodipodi:ry="2.1023455"
       d="m 142.10235,79.330688 c 0,1.161094 -0.94126,2.102346 -2.10235,2.102346 -1.16109,0 -2.10235,-0.941252 -2.10235,-2.102346 0,-1.161093 0.94126,-2.102345 2.10235,-2.102345 1.16109,0 2.10235,0.941252 2.10235,2.102345 z"
       transform="matrix(1.8641214,0,0,1.8641214,-92.057969,714.47881)" />
    <path
       transform="matrix(1.8641214,0,0,1.8641214,-12.057969,724.47881)"
       d="m 142.10235,79.330688 c 0,1.161094 -0.94126,2.102346 -2.10235,2.102346 -1.16109,0 -2.10235,-0.941252 -2.10235,-2.102346 0,-1.161093 0.94126,-2.102345 2.10235,-2.102345 1.16109,0 2.10235,0.941252 2.10235,2.102345 z"
       sodipodi:ry="2.1023455"
       sodipodi:rx="2.1023455"
       sodipodi:cy="79.330688"
       sodipodi:cx="140"
       id="path5192"
       style="fill:#ffffff;stroke:#000000;stroke-width:0.4291566;stroke-linecap:square;stroke-linejoin:round;stroke-miterlimit:4;stroke-opacity:1;stroke-dasharray:none;stroke-dashoffset:0"
       sodipodi:type="arc" />
    <path
       sodipodi:type="arc"
       style="fill:#ffffff;stroke:#000000;stroke-width:0.4291566;stroke-linecap:square;stroke-linejoin:round;stroke-miterlimit:4;stroke-opacity:1;stroke-dasharray:none;stroke-dashoffset:0"
       id="path5194"
       sodipodi:cx="140"
       sodipodi:cy="79.330688"
       sodipodi:rx="2.1023455"
       sodipodi:ry="2.1023455"
       d="m 142.10235,79.330688 c 0,1.161094 -0.94126,2.102346 -2.10235,2.102346 -1.16109,0 -2.10235,-0.941252 -2.10235,-2.102346 0,-1.161093 0.94126,-2.102345 2.10235,-2.102345 1.16109,0 2.10235,0.941252 2.10235,2.102345 z"
       transform="matrix(1.8641214,0,0,1.8641214,-92.057969,649.47881)" />
    <path
       sodipodi:type="arc"
       style="fill:#ffffff;stroke:#000000;stroke-width:0.4291566;stroke-linecap:square;stroke-linejoin:round;stroke-miterlimit:4;stroke-opacity:1;stroke-dasharray:none;stroke-dashoffset:0"
       id="path5198"
       sodipodi:cx="140"
       sodipodi:cy="79.330688"
       sodipodi:rx="2.1023455"
       sodipodi:ry="2.1023455"
       d="m 142.10235,79.330688 c 0,1.161094 -0.94126,2.102346 -2.10235,2.102346 -1.16109,0 -2.10235,-0.941252 -2.10235,-2.102346 0,-1.161093 0.94126,-2.102345 2.10235,-2.102345 1.16109,0 2.10235,0.941252 2.10235,2.102345 z"
       transform="matrix(1.8641214,0,0,1.8641214,97.942031,659.47881)" />
    <rect
       y="797.36084"
       x="390"
       height="20"
       width="15"
       id="rect5200"
       style="fill:#ffffff;fill-opacity:1;stroke:#000000;stroke-width:0.99212599;stroke-linecap:square;stroke-linejoin:round;stroke-miterlimit:4;stroke-opacity:1;stroke-dasharray:none;stroke-dashoffset:0" />
    <path
       style="fill:none;stroke:#000000;stroke-width:1.20000005;stroke-linecap:round;stroke-linejoin:round;stroke-miterlimit:4;stroke-opacity:1;stroke-dasharray:none;stroke-dashoffset:0"
       d="m 405,787.36085 20,0 c 26.66667,-2e-5 26.66667,39.99998 0,39.99998 l -20,0 z"
       id="path5202"
       inkscape:connector-curvature="0"
       sodipodi:nodetypes="ccccc" />
    <path
       style="fill:none;stroke:#000000;stroke-width:0.99212599;stroke-linecap:square;stroke-linejoin:round;stroke-miterlimit:4;stroke-opacity:1;stroke-dasharray:none;stroke-dashoffset:0"
       d="m 445,807.36085 30,0"
       id="path5204"
       inkscape:connector-curvature="0"
       sodipodi:nodetypes="cc" />
    <path
       transform="matrix(1.8641214,0,0,1.8641214,187.94203,659.47881)"
       d="m 142.10235,79.330688 c 0,1.161094 -0.94126,2.102346 -2.10235,2.102346 -1.16109,0 -2.10235,-0.941252 -2.10235,-2.102346 0,-1.161093 0.94126,-2.102345 2.10235,-2.102345 1.16109,0 2.10235,0.941252 2.10235,2.102345 z"
       sodipodi:ry="2.1023455"
       sodipodi:rx="2.1023455"
       sodipodi:cy="79.330688"
       sodipodi:cx="140"
       id="path5206"
       style="fill:#ffffff;stroke:#000000;stroke-width:0.4291566;stroke-linecap:square;stroke-linejoin:round;stroke-miterlimit:4;stroke-opacity:1;stroke-dasharray:none;stroke-dashoffset:0"
       sodipodi:type="arc" />
    <g
       style="font-style:normal;font-variant:normal;font-weight:normal;font-stretch:normal;letter-spacing:normal;word-spacing:normal;text-anchor:start;fill:none;stroke:#000000;stroke-width:1;stroke-linecap:butt;stroke-linejoin:miter;stroke-miterlimit:10.43299961;stroke-opacity:1;stroke-dasharray:none;stroke-dashoffset:0"
       ns0:preamble="/home/sriranga/Desktop/Prism_BasicElectronics/preamble.tex"
       ns0:text="$\\overline{A}$"
       word-spacing="normal"
       letter-spacing="normal"
       font-size-adjust="none"
       font-stretch="normal"
       font-weight="normal"
       font-variant="normal"
       font-style="normal"
       stroke-miterlimit="10.433"
       xml:space="preserve"
       transform="matrix(1.2,0,0,-1.2,-190.90553,1639.6471)"
       id="content"><line
         id="line5277"
         y2="715.59003"
         x2="229.77"
         y1="715.59003"
         x1="223.42999"
         style="stroke-width:0.55800003" /><path
         id="path5279"
         d="m 229.29,707.28 -0.05,0.01 -0.05,0 -0.04,0.01 -0.05,0.01 -0.04,0 -0.04,0.01 -0.03,0.01 -0.04,0.01 -0.03,0.01 -0.03,0.01 -0.03,0.01 -0.02,0.02 -0.03,0.01 -0.02,0.02 -0.02,0.02 -0.02,0.02 -0.02,0.02 -0.02,0.03 -0.01,0.02 -0.02,0.03 -0.01,0.03 -0.02,0.04 -0.01,0.04 -0.01,0.04 -0.01,0.04 -0.01,0.04 -0.02,0.05 -0.01,0.06 0,0.02 -0.01,0.03 0,0.03 -0.01,0.03 -0.01,0.03 0,0.03 -0.01,0.03 0,0.04 -0.94,5.62 h -0.26 l -2.88,-4.97 c -0.79,-1.32 -0.89,-1.43 -1.29,-1.51 v -0.16 h 1.86 v 0.16 c -0.5,0.05 -0.58,0.1 -0.58,0.35 0,0.19 0.03,0.28 0.2,0.62 l 0.56,1.12 h 2.19 l -0.05,0.36 h -1.93 l 1.49,2.58 0.44,-2.58 0.05,-0.36 0.2,-1.3 c 0.01,-0.09 0.02,-0.18 0.02,-0.26 0,-0.38 -0.14,-0.47 -0.77,-0.53 v -0.16 h 2.44 z"
         inkscape:connector-curvature="0"
         style="fill:#000000;stroke-width:0" /></g>    <g
       id="g5415"
       transform="matrix(1.2,0,0,-1.2,-190.41795,1658.6543)"
       xml:space="preserve"
       stroke="black"
       stroke-linecap="butt"
       stroke-linejoin="miter"
       stroke-miterlimit="10.433"
       stroke-dasharray="none"
       stroke-dashoffset="0"
       stroke-opacity="1"
       fill="none"
       fill-rule="evenodd"
       fill-opacity="1"
       font-style="normal"
       font-variant="normal"
       font-weight="normal"
       font-stretch="normal"
       font-size-adjust="none"
       letter-spacing="normal"
       word-spacing="normal"
       text-anchor="start"
       ns0:text="$B$"
       ns0:preamble="/home/sriranga/Desktop/Prism_BasicElectronics/preamble.tex"
       style="font-style:normal;font-variant:normal;font-weight:normal;font-stretch:normal;letter-spacing:normal;word-spacing:normal;text-anchor:start;fill:none;stroke:#000000;stroke-width:1;stroke-linecap:butt;stroke-linejoin:miter;stroke-miterlimit:10.43299961;stroke-opacity:1;stroke-dasharray:none;stroke-dashoffset:0"><path
         d="M223.7,707.12 H226.51 C228.07,707.12,229.14,707.94,229.14,709.11 C229.14,709.48,229.02,709.83,228.8,710.05 C228.61,710.27,228.41,710.39,227.89,710.61 C228.6,710.78,228.88,710.9,229.2,711.18 C229.48,711.42,229.63,711.75,229.63,712.15 C229.63,713.09,228.93,713.61,227.64,713.61 L227.46,713.31 C228.26,713.31,228.63,712.98,228.63,712.24 C228.63,711.67,228.39,711.24,227.96,711 C227.62,710.8,227.14,710.73,226.25,710.73 L226.15,710.41 C226.8,710.41,227.21,710.37,227.41,710.29 C227.82,710.12,228.07,709.69,228.07,709.15 C228.07,708.08,227.33,707.42,226.12,707.42 C225.7,707.42,225.48,707.57,225.48,707.84 C225.48,707.96,225.6,708.44,225.83,709.23 C225.96,709.68,226.02,709.91,226.15,710.41 H226.15 L226.25,710.73 L226.9,713.04 C226.96,713.25,227.07,713.31,227.46,713.31 L227.64,713.61 H225.07 V713.45 C225.69,713.4,225.84,713.32,225.84,713.05 C225.84,712.9,225.8,712.65,225.73,712.41 L224.51,708.02 C224.33,707.44,224.26,707.38,223.7,707.28 Z "
         stroke-width="0"
         fill="black"
         id="path5417" /></g>    <g
       id="g5691"
       transform="matrix(1.2,0,0,-1.2,-60.857858,1640.6362)"
       xml:space="preserve"
       stroke="black"
       stroke-linecap="butt"
       stroke-linejoin="miter"
       stroke-miterlimit="10.433"
       stroke-dasharray="none"
       stroke-dashoffset="0"
       stroke-opacity="1"
       fill="none"
       fill-rule="evenodd"
       fill-opacity="1"
       font-style="normal"
       font-variant="normal"
       font-weight="normal"
       font-stretch="normal"
       font-size-adjust="none"
       letter-spacing="normal"
       word-spacing="normal"
       text-anchor="start"
       ns0:text="$\\overline{\\overline{A}B}$"
       ns0:preamble="/home/sriranga/Desktop/Prism_BasicElectronics/preamble.tex"
       style="font-style:normal;font-variant:normal;font-weight:normal;font-stretch:normal;letter-spacing:normal;word-spacing:normal;text-anchor:start;fill:none;stroke:#000000;stroke-width:1;stroke-linecap:butt;stroke-linejoin:miter;stroke-miterlimit:10.43299961;stroke-opacity:1;stroke-dasharray:none;stroke-dashoffset:0"><line
         x1="223.43"
         y1="716.25"
         x2="236.1"
         y2="716.25"
         stroke-width="0.558"
         id="line5693" /><line
         x1="223.43"
         y1="713.46"
         x2="229.77"
         y2="713.46"
         stroke-width="0.558"
         id="line5695" /><path
         d="M229.29,705.16 L229.24,705.16 L229.19,705.17 L229.15,705.17 L229.1,705.18 L229.06,705.18 L229.02,705.19 L228.99,705.2 L228.95,705.21 L228.92,705.22 L228.89,705.23 L228.86,705.24 L228.84,705.26 L228.81,705.27 L228.79,705.29 L228.77,705.31 L228.75,705.33 L228.73,705.35 L228.71,705.38 L228.7,705.41 L228.68,705.44 L228.67,705.47 L228.65,705.5 L228.64,705.54 L228.63,705.58 L228.62,705.62 L228.61,705.67 L228.59,705.72 L228.58,705.77 L228.58,705.8 L228.57,705.82 L228.57,705.85 L228.56,705.88 L228.55,705.91 L228.55,705.94 L228.54,705.98 L228.54,706.01 L227.6,711.63 H227.34 L224.46,706.67 C223.67,705.35,223.57,705.24,223.17,705.16 V705 H225.03 V705.16 C224.53,705.21,224.45,705.26,224.45,705.51 C224.45,705.69,224.48,705.78,224.65,706.12 L225.21,707.24 H227.4 L227.35,707.6 H225.42 L226.91,710.18 L227.35,707.6 L227.4,707.24 L227.6,705.94 C227.61,705.85,227.62,705.76,227.62,705.68 C227.62,705.31,227.48,705.22,226.85,705.16 V705 H229.29 Z "
         stroke-width="0"
         fill="black"
         id="path5697" /><path
         d="M230.04,705 H232.84 C234.4,705,235.48,705.81,235.48,706.98 C235.48,707.35,235.36,707.7,235.14,707.92 C234.94,708.15,234.74,708.27,234.23,708.48 C234.93,708.65,235.22,708.77,235.54,709.05 C235.82,709.29,235.97,709.63,235.97,710.02 C235.97,710.97,235.26,711.48,233.98,711.48 L233.8,711.19 C234.59,711.19,234.96,710.85,234.96,710.11 C234.96,709.55,234.72,709.11,234.3,708.87 C233.96,708.67,233.48,708.6,232.58,708.6 L232.49,708.29 C233.13,708.29,233.55,708.25,233.75,708.17 C234.16,708,234.4,707.56,234.4,707.02 C234.4,705.95,233.67,705.3,232.46,705.3 C232.04,705.3,231.82,705.45,231.82,705.71 C231.82,705.83,231.94,706.31,232.17,707.1 C232.3,707.55,232.35,707.78,232.49,708.29 H232.49 L232.58,708.6 L233.23,710.91 C233.29,711.13,233.41,711.19,233.8,711.19 L233.98,711.48 H231.41 V711.33 C232.03,711.28,232.18,711.2,232.18,710.92 C232.18,710.77,232.14,710.52,232.07,710.28 L230.84,705.89 C230.66,705.32,230.59,705.26,230.04,705.16 Z "
         stroke-width="0"
         fill="black"
         id="path5699" /></g>    <g
       style="font-style:normal;font-variant:normal;font-weight:normal;font-stretch:normal;letter-spacing:normal;word-spacing:normal;text-anchor:start;fill:none;stroke:#000000;stroke-width:1;stroke-linecap:butt;stroke-linejoin:miter;stroke-miterlimit:10.43299961;stroke-opacity:1;stroke-dasharray:none;stroke-dashoffset:0"
       ns0:preamble="/home/sriranga/Desktop/Prism_BasicElectronics/preamble.tex"
       ns0:text="$\\overline{CD}$"
       word-spacing="normal"
       letter-spacing="normal"
       font-size-adjust="none"
       font-stretch="normal"
       font-weight="normal"
       font-variant="normal"
       font-style="normal"
       stroke-miterlimit="10.433"
       xml:space="preserve"
       transform="matrix(1.2,0,0,-1.2,-88.79569,1707.3807)"
       id="g5834"><line
         id="line5836"
         y2="715.59003"
         x2="237.74001"
         y1="715.59003"
         x1="223.42999"
         style="stroke-width:0.55800003" /><path
         id="path5838"
         d="m 229.67,711.74 0.37,1.98 h -0.21 c -0.08,-0.16 -0.18,-0.22 -0.38,-0.22 -0.08,0 -0.2,0.02 -0.41,0.07 -0.44,0.11 -0.84,0.17 -1.16,0.17 -2.12,0 -4.04,-2 -4.04,-4.2 0,-1.52 1.07,-2.59 2.6,-2.59 1.02,0 1.82,0.43 2.71,1.48 l -0.17,0.14 c -0.89,-0.88 -1.47,-1.18 -2.28,-1.18 -1.11,0 -1.75,0.76 -1.75,2.04 0,1.18 0.48,2.38 1.26,3.19 0.47,0.48 1.1,0.76 1.76,0.76 0.91,0 1.42,-0.53 1.52,-1.61 z"
         inkscape:connector-curvature="0"
         style="fill:#000000;stroke-width:0" /><path
         id="path5840"
         d="m 231.84,713.45 0.03,0 0.03,0 0.02,-0.01 0.03,0 0.03,0 0.02,0 0.05,-0.01 0.05,-0.01 0.04,0 0.04,-0.01 0.04,-0.01 0.04,-0.01 0.03,0 0.03,-0.01 0.03,-0.01 0.03,-0.01 0.03,-0.01 0.02,-0.01 0.02,-0.01 0.02,-0.01 0.02,-0.02 0.02,-0.01 0.02,-0.01 0.01,-0.02 0.01,-0.01 0.01,-0.02 0.01,-0.02 0.01,-0.01 0.01,-0.02 0,-0.02 0.01,-0.02 0,-0.02 0,-0.03 0,-0.02 0,-0.02 c 0,-0.15 -0.03,-0.39 -0.11,-0.64 l -1.22,-4.39 c -0.18,-0.58 -0.25,-0.64 -0.8,-0.74 v -0.16 h 2.51 l -0.1,0.3 c -0.45,0 -0.64,0.11 -0.64,0.37 0,0.13 0.05,0.35 0.22,0.94 l 1.2,4.3 c 0.06,0.21 0.21,0.28 0.61,0.28 0.56,0 1.06,-0.13 1.38,-0.36 0.49,-0.36 0.75,-0.99 0.75,-1.77 0,-1.08 -0.41,-2.19 -1.09,-2.86 -0.59,-0.6 -1.39,-0.9 -2.43,-0.9 l 0.1,-0.3 c 1.17,0 2.23,0.31 3,0.87 0.96,0.7 1.53,1.8 1.53,2.95 0,1.63 -1.13,2.67 -2.91,2.67 h -2.76 z"
         inkscape:connector-curvature="0"
         style="fill:#000000;stroke-width:0" /></g>    <g
       id="g5975"
       transform="matrix(1.2,0,0,-1.2,-9.5609386,1714.948)"
       xml:space="preserve"
       stroke-miterlimit="10.433"
       font-style="normal"
       font-variant="normal"
       font-weight="normal"
       font-stretch="normal"
       font-size-adjust="none"
       letter-spacing="normal"
       word-spacing="normal"
       ns0:text="$\\overline{\\overline{CD}\\cdot \\overline{E}}$"
       ns0:preamble="/home/sriranga/Desktop/Prism_BasicElectronics/preamble.tex"
       style="font-style:normal;font-variant:normal;font-weight:normal;font-stretch:normal;letter-spacing:normal;word-spacing:normal;text-anchor:start;fill:none;stroke:#000000;stroke-width:1;stroke-linecap:butt;stroke-linejoin:miter;stroke-miterlimit:10.43299961;stroke-opacity:1;stroke-dasharray:none;stroke-dashoffset:0"><line
         style="stroke-width:0.55800003"
         x1="223.42999"
         y1="716.25"
         x2="251.47"
         y2="716.25"
         id="line5977" /><line
         style="stroke-width:0.55800003"
         x1="223.42999"
         y1="713.46002"
         x2="237.74001"
         y2="713.46002"
         id="line5979" /><path
         style="fill:#000000;stroke-width:0"
         inkscape:connector-curvature="0"
         d="m 229.67,709.62 0.37,1.97 h -0.21 c -0.08,-0.16 -0.18,-0.21 -0.38,-0.21 -0.08,0 -0.2,0.02 -0.41,0.07 -0.44,0.1 -0.84,0.16 -1.16,0.16 -2.12,0 -4.04,-1.99 -4.04,-4.2 0,-1.52 1.07,-2.59 2.6,-2.59 1.02,0 1.82,0.44 2.71,1.48 l -0.17,0.14 c -0.89,-0.88 -1.47,-1.17 -2.28,-1.17 -1.11,0 -1.75,0.75 -1.75,2.03 0,1.18 0.48,2.39 1.26,3.19 0.47,0.49 1.1,0.77 1.76,0.77 0.91,0 1.42,-0.54 1.52,-1.61 z"
         id="path5981" /><path
         style="fill:#000000;stroke-width:0"
         inkscape:connector-curvature="0"
         d="m 231.84,711.33 0.03,-0.01 0.03,0 0.02,0 0.03,-0.01 0.03,0 0.02,0 0.05,-0.01 0.05,0 0.04,-0.01 0.04,-0.01 0.04,-0.01 0.04,0 0.03,-0.01 0.03,-0.01 0.03,-0.01 0.03,-0.01 0.03,-0.01 0.02,-0.01 0.02,-0.01 0.02,-0.01 0.02,-0.01 0.02,-0.02 0.02,-0.01 0.01,-0.01 0.01,-0.02 0.01,-0.02 0.01,-0.01 0.01,-0.02 0.01,-0.02 0,-0.02 0.01,-0.02 0,-0.02 0,-0.02 0,-0.03 0,-0.02 c 0,-0.15 -0.03,-0.39 -0.11,-0.64 l -1.22,-4.39 c -0.18,-0.57 -0.25,-0.63 -0.8,-0.73 V 705 h 2.51 l -0.1,0.3 c -0.45,0 -0.64,0.11 -0.64,0.36 0,0.13 0.05,0.35 0.22,0.95 l 1.2,4.29 c 0.06,0.22 0.21,0.29 0.61,0.29 0.56,0 1.06,-0.13 1.38,-0.37 0.49,-0.36 0.75,-0.98 0.75,-1.77 0,-1.07 -0.41,-2.18 -1.09,-2.86 -0.59,-0.6 -1.39,-0.89 -2.43,-0.89 l 0.1,-0.3 c 1.17,0 2.23,0.31 3,0.86 0.96,0.71 1.53,1.8 1.53,2.95 0,1.63 -1.13,2.67 -2.91,2.67 h -2.76 z"
         id="path5983" /><path
         style="fill:#000000;stroke-width:0"
         inkscape:connector-curvature="0"
         d="m 241.75,707.55 0,0.03 0,0.03 0,0.03 -0.01,0.02 -0.01,0.03 0,0.03 -0.01,0.02 -0.01,0.03 -0.01,0.02 -0.02,0.03 -0.01,0.02 -0.01,0.03 -0.02,0.02 -0.02,0.02 -0.02,0.02 -0.01,0.02 -0.02,0.02 -0.02,0.02 -0.02,0.01 -0.03,0.02 -0.02,0.01 -0.02,0.02 -0.03,0.01 -0.02,0.01 -0.03,0.01 -0.02,0.01 -0.03,0.01 -0.02,0.01 -0.03,0 -0.03,0 -0.03,0.01 -0.02,0 c -0.3,0 -0.55,-0.25 -0.55,-0.57 0,-0.38 0.34,-0.53 0.55,-0.53 0.2,0 0.55,0.16 0.55,0.53 z"
         id="path5985" /><line
         style="stroke-width:0.55800003"
         x1="244.66"
         y1="713.46002"
         x2="251.47"
         y2="713.46002"
         id="line5987" /><path
         style="fill:#000000;stroke-width:0"
         inkscape:connector-curvature="0"
         d="m 251.21,711.48 h -4.94 v -0.15 c 0.62,-0.06 0.77,-0.14 0.77,-0.41 0,-0.11 -0.06,-0.46 -0.11,-0.64 l -1.23,-4.39 c -0.17,-0.56 -0.25,-0.63 -0.8,-0.73 V 705 h 5.04 l 0.62,1.61 -0.16,0.08 c -0.47,-0.64 -0.73,-0.9 -1.16,-1.1 -0.36,-0.17 -1.04,-0.26 -1.79,-0.26 -0.55,0 -0.79,0.09 -0.79,0.33 0,0.11 0.11,0.58 0.35,1.45 0.14,0.44 0.22,0.77 0.32,1.15 0.35,-0.02 0.66,-0.03 0.78,-0.03 0.39,0.01 0.67,-0.05 0.78,-0.15 0.04,-0.05 0.07,-0.14 0.07,-0.31 0,-0.17 -0.03,-0.3 -0.07,-0.52 l 0.2,-0.05 0.67,2.31 -0.18,0.04 c -0.38,-0.85 -0.46,-0.91 -1.37,-0.95 -0.12,0 -0.44,-0.01 -0.79,-0.02 l 0.66,2.32 c 0.06,0.22 0.17,0.26 0.73,0.26 1.56,0 1.91,-0.13 1.91,-0.73 0,-0.13 -0.01,-0.28 -0.02,-0.45 l 0.2,-0.01 z"
         id="path5989" /></g>    <g
       style="font-style:normal;font-variant:normal;font-weight:normal;font-stretch:normal;letter-spacing:normal;word-spacing:normal;text-anchor:start;fill:none;stroke:#000000;stroke-width:1;stroke-linecap:butt;stroke-linejoin:miter;stroke-miterlimit:10.43299961;stroke-opacity:1;stroke-dasharray:none;stroke-dashoffset:0"
       ns0:preamble="/home/sriranga/Desktop/Prism_BasicElectronics/preamble.tex"
       ns0:text="$\\overline{F}$"
       word-spacing="normal"
       letter-spacing="normal"
       font-size-adjust="none"
       font-stretch="normal"
       font-weight="normal"
       font-variant="normal"
       font-style="normal"
       stroke-miterlimit="10.433"
       xml:space="preserve"
       transform="matrix(1.2,0,0,-1.2,102.55648,1652.9166)"
       id="g6162"><line
         id="line6164"
         y2="715.59003"
         x2="230.36"
         y1="715.59003"
         x1="223.42999"
         style="stroke-width:0.55800003" /><path
         id="path6166"
         d="m 230.1,713.61 h -4.96 v -0.16 c 0.65,-0.06 0.77,-0.12 0.77,-0.4 0,-0.15 -0.04,-0.4 -0.11,-0.64 l -1.22,-4.39 c -0.18,-0.6 -0.25,-0.66 -0.82,-0.74 v -0.16 h 2.51 v 0.16 c -0.58,0.03 -0.76,0.14 -0.76,0.44 0,0.08 0.03,0.23 0.09,0.45 l 0.62,2.21 c 0.37,-0.02 0.58,-0.03 0.8,-0.03 0.39,0 0.46,-0.01 0.55,-0.05 0.15,-0.08 0.22,-0.21 0.22,-0.4 0,-0.16 -0.02,-0.28 -0.08,-0.59 l 0.17,-0.05 0.76,2.33 -0.18,0.05 c -0.45,-0.9 -0.48,-0.91 -2.15,-0.93 l 0.65,2.32 c 0.06,0.19 0.2,0.25 0.61,0.25 1.67,0 2.03,-0.12 2.03,-0.74 0,-0.06 0,-0.11 -0.01,-0.24 -0.01,-0.06 -0.01,-0.07 -0.02,-0.19 l 0.21,-0.02 z"
         inkscape:connector-curvature="0"
         style="fill:#000000;stroke-width:0" /></g>  </g>
</svg>
