<?xml version="1.0" encoding="UTF-8" standalone="no"?>
<!-- Created with Inkscape (http://www.inkscape.org/) -->

<svg
   xmlns:ns0="http://www.iki.fi/pav/software/textext/"
   xmlns:dc="http://purl.org/dc/elements/1.1/"
   xmlns:cc="http://creativecommons.org/ns#"
   xmlns:rdf="http://www.w3.org/1999/02/22-rdf-syntax-ns#"
   xmlns:svg="http://www.w3.org/2000/svg"
   xmlns="http://www.w3.org/2000/svg"
   xmlns:sodipodi="http://sodipodi.sourceforge.net/DTD/sodipodi-0.dtd"
   xmlns:inkscape="http://www.inkscape.org/namespaces/inkscape"
   width="496.06299"
   height="354.33069"
   id="svg2"
   version="1.1"
   inkscape:version="0.48.4 r9939"
   sodipodi:docname="fig7.svg">
  <sodipodi:namedview
     id="base"
     pagecolor="#ffffff"
     bordercolor="#666666"
     borderopacity="1.0"
     inkscape:pageopacity="0.0"
     inkscape:pageshadow="2"
     inkscape:zoom="2.3827614"
     inkscape:cx="258.20423"
     inkscape:cy="153.50691"
     inkscape:document-units="cm"
     inkscape:current-layer="layer1"
     showgrid="false"
     units="cm"
     inkscape:object-nodes="true"
     inkscape:window-width="1366"
     inkscape:window-height="744"
     inkscape:window-x="0"
     inkscape:window-y="24"
     inkscape:window-maximized="1">
    <inkscape:grid
       type="xygrid"
       id="grid2985"
       empspacing="5"
       visible="true"
       enabled="true"
       snapvisiblegridlinesonly="true" />
  </sodipodi:namedview>
  <defs
     id="defs4">
    <marker
       inkscape:stockid="Arrow1Mstart"
       orient="auto"
       refY="0"
       refX="0"
       id="Arrow1Mstart"
       style="overflow:visible">
      <path
         inkscape:connector-curvature="0"
         id="path3775"
         d="M 0,0 5,-5 -12.5,0 5,5 0,0 z"
         style="fill-rule:evenodd;stroke:#000000;stroke-width:1pt"
         transform="matrix(0.4,0,0,0.4,4,0)" />
    </marker>
    <marker
       inkscape:stockid="Arrow1Mend"
       orient="auto"
       refY="0"
       refX="0"
       id="Arrow1Mend"
       style="overflow:visible">
      <path
         inkscape:connector-curvature="0"
         id="path3778"
         d="M 0,0 5,-5 -12.5,0 5,5 0,0 z"
         style="fill-rule:evenodd;stroke:#000000;stroke-width:1pt"
         transform="matrix(-0.4,0,0,-0.4,-4,0)" />
    </marker>
  </defs>
  <metadata
     id="metadata7">
    <rdf:RDF>
      <cc:Work
         rdf:about="">
        <dc:format>image/svg+xml</dc:format>
        <dc:type
           rdf:resource="http://purl.org/dc/dcmitype/StillImage" />
        <dc:title></dc:title>
      </cc:Work>
    </rdf:RDF>
  </metadata>
  <g
     inkscape:label="Layer 1"
     inkscape:groupmode="layer"
     id="layer1"
     transform="translate(0,-698.03016)">
    <path
       sodipodi:nodetypes="ccccc"
       inkscape:connector-curvature="0"
       id="rect5801"
       d="m 215,932.36088 20,0 c 26.66667,-2e-5 26.66667,39.99998 0,39.99998 l -20,0 z"
       style="fill:none;stroke:#000000;stroke-width:1.20000005;stroke-linecap:round;stroke-linejoin:round;stroke-miterlimit:4;stroke-opacity:1;stroke-dasharray:none;stroke-dashoffset:0" />
    <text
       transform="translate(0,698.03016)"
       sodipodi:linespacing="100%"
       id="text5818"
       y="56.040417"
       x="61.700558"
       style="font-size:12px;font-style:normal;font-variant:normal;font-weight:normal;font-stretch:normal;text-align:start;line-height:100%;letter-spacing:0px;word-spacing:0px;text-anchor:start;fill:#000000;fill-opacity:1;stroke:none;font-family:LMRoman12;-inkscape-font-specification:Sans"
       xml:space="preserve"><tspan
         y="56.040417"
         x="61.700558"
         id="tspan5820"
         sodipodi:role="line" /></text>
    <flowRoot
       xml:space="preserve"
       id="flowRoot6377"
       style="fill:black;stroke:none;stroke-opacity:1;stroke-width:1px;stroke-linejoin:miter;stroke-linecap:butt;fill-opacity:1;font-family:LMRoman12;font-style:normal;font-weight:normal;font-size:12px;line-height:100%;letter-spacing:0px;word-spacing:0px;-inkscape-font-specification:Sans;font-stretch:normal;font-variant:normal;text-anchor:start;text-align:start"><flowRegion
         id="flowRegion6379"><rect
           id="rect6381"
           width="27.681772"
           height="40.319103"
           x="219.34796"
           y="87.141403" /></flowRegion><flowPara
         id="flowPara6383" /></flowRoot>    <text
       xml:space="preserve"
       style="font-size:12px;font-style:normal;font-variant:normal;font-weight:normal;font-stretch:normal;text-align:start;line-height:50%;letter-spacing:0px;word-spacing:0px;text-anchor:start;fill:#000000;fill-opacity:1;stroke:none;font-family:LMRoman12;-inkscape-font-specification:Sans"
       x="275.91507"
       y="55.247185"
       id="text6385"
       sodipodi:linespacing="50%"
       transform="translate(0,698.03016)"><tspan
         sodipodi:role="line"
         id="tspan6387" /></text>
    <text
       xml:space="preserve"
       style="font-size:12px;font-style:normal;font-variant:normal;font-weight:normal;font-stretch:normal;text-align:start;line-height:100%;letter-spacing:0px;word-spacing:0px;text-anchor:start;fill:#000000;fill-opacity:1;stroke:none;font-family:LMRoman12;-inkscape-font-specification:Sans"
       x="348.65417"
       y="194.38702"
       id="text3884"
       sodipodi:linespacing="100%"
       transform="translate(0,698.03016)"><tspan
         sodipodi:role="line"
         x="348.65417"
         y="194.38702"
         id="tspan3890" /></text>
    <text
       xml:space="preserve"
       style="font-size:12px;font-style:normal;font-variant:normal;font-weight:normal;font-stretch:normal;text-align:start;line-height:150%;letter-spacing:0px;word-spacing:0px;text-anchor:start;fill:#000000;fill-opacity:1;stroke:none;font-family:LMRoman12;-inkscape-font-specification:Sans"
       x="216.96629"
       y="250.89732"
       id="text3887"
       sodipodi:linespacing="150%"
       transform="translate(0,698.03016)"><tspan
         sodipodi:role="line"
         id="tspan3889"
         x="216.96629"
         y="250.89732" /></text>
    <path
       sodipodi:nodetypes="cccc"
       inkscape:connector-curvature="0"
       id="path3516"
       d="m 260,952.36085 40.81291,0 0,-25 34.18709,0"
       style="fill:none;stroke:#000000;stroke-width:0.99212593;stroke-linecap:square;stroke-linejoin:round;stroke-miterlimit:4;stroke-opacity:1;stroke-dasharray:none;stroke-dashoffset:0" />
    <path
       transform="matrix(1.8641214,0,0,1.8641214,-1.92844,804.50564)"
       d="m 142.10235,79.330688 c 0,1.161094 -0.94126,2.102346 -2.10235,2.102346 -1.16109,0 -2.10235,-0.941252 -2.10235,-2.102346 0,-1.161093 0.94126,-2.102345 2.10235,-2.102345 1.16109,0 2.10235,0.941252 2.10235,2.102345 z"
       sodipodi:ry="2.1023455"
       sodipodi:rx="2.1023455"
       sodipodi:cy="79.330688"
       sodipodi:cx="140"
       id="path3025"
       style="fill:#ffffff;stroke:#000000;stroke-width:0.4291566;stroke-linecap:square;stroke-linejoin:round;stroke-miterlimit:4;stroke-opacity:1;stroke-dasharray:none;stroke-dashoffset:0"
       sodipodi:type="arc" />
    <path
       style="fill:none;stroke:#000000;stroke-width:0.99212599;stroke-linecap:square;stroke-linejoin:round;stroke-miterlimit:4;stroke-opacity:1;stroke-dasharray:none;stroke-dashoffset:0"
       d="m 170,897.36085 45,0"
       id="path3030"
       inkscape:connector-curvature="0"
       sodipodi:nodetypes="cc" />
    <path
       sodipodi:nodetypes="ccccc"
       inkscape:connector-curvature="0"
       id="path3036"
       d="m 215,862.36087 20,0 c 26.66667,-2e-5 26.66667,39.99998 0,39.99998 l -20,0 z"
       style="fill:none;stroke:#000000;stroke-width:1.20000005;stroke-linecap:round;stroke-linejoin:round;stroke-miterlimit:4;stroke-opacity:1;stroke-dasharray:none;stroke-dashoffset:0" />
    <path
       style="fill:none;stroke:#000000;stroke-width:0.99212593;stroke-linecap:square;stroke-linejoin:round;stroke-miterlimit:4;stroke-opacity:1;stroke-dasharray:none;stroke-dashoffset:0"
       d="m 260,882.36085 40.81291,0 0,25 34.18709,0"
       id="path4067"
       inkscape:connector-curvature="0"
       sodipodi:nodetypes="cccc" />
    <path
       transform="matrix(1.8641214,0,0,1.8641214,-1.92844,734.50563)"
       d="m 142.10235,79.330688 c 0,1.161094 -0.94126,2.102346 -2.10235,2.102346 -1.16109,0 -2.10235,-0.941252 -2.10235,-2.102346 0,-1.161093 0.94126,-2.102345 2.10235,-2.102345 1.16109,0 2.10235,0.941252 2.10235,2.102345 z"
       sodipodi:ry="2.1023455"
       sodipodi:rx="2.1023455"
       sodipodi:cy="79.330688"
       sodipodi:cx="140"
       id="path3038"
       style="fill:#ffffff;stroke:#000000;stroke-width:0.4291566;stroke-linecap:square;stroke-linejoin:round;stroke-miterlimit:4;stroke-opacity:1;stroke-dasharray:none;stroke-dashoffset:0"
       sodipodi:type="arc" />
    <path
       sodipodi:nodetypes="cc"
       inkscape:connector-curvature="0"
       id="path3040"
       d="m 170,867.36085 45,0"
       style="fill:none;stroke:#000000;stroke-width:0.99212599;stroke-linecap:square;stroke-linejoin:round;stroke-miterlimit:4;stroke-opacity:1;stroke-dasharray:none;stroke-dashoffset:0" />
    <path
       sodipodi:nodetypes="ccccc"
       inkscape:connector-curvature="0"
       id="path3046"
       d="m 335,897.36085 20,0 c 26.66667,-2e-5 26.66667,39.99998 0,39.99998 l -20,0 z"
       style="fill:none;stroke:#000000;stroke-width:1.20000005;stroke-linecap:round;stroke-linejoin:round;stroke-miterlimit:4;stroke-opacity:1;stroke-dasharray:none;stroke-dashoffset:0" />
    <path
       transform="matrix(1.8641214,0,0,1.8641214,118.07156,769.50561)"
       d="m 142.10235,79.330688 c 0,1.161094 -0.94126,2.102346 -2.10235,2.102346 -1.16109,0 -2.10235,-0.941252 -2.10235,-2.102346 0,-1.161093 0.94126,-2.102345 2.10235,-2.102345 1.16109,0 2.10235,0.941252 2.10235,2.102345 z"
       sodipodi:ry="2.1023455"
       sodipodi:rx="2.1023455"
       sodipodi:cy="79.330688"
       sodipodi:cx="140"
       id="path3048"
       style="fill:#ffffff;stroke:#000000;stroke-width:0.4291566;stroke-linecap:square;stroke-linejoin:round;stroke-miterlimit:4;stroke-opacity:1;stroke-dasharray:none;stroke-dashoffset:0"
       sodipodi:type="arc" />
    <path
       style="fill:none;stroke:#000000;stroke-width:0.99212593;stroke-linecap:square;stroke-linejoin:round;stroke-miterlimit:4;stroke-opacity:1;stroke-dasharray:none;stroke-dashoffset:0"
       d="m 383.13634,917.38764 30.81291,0"
       id="path3050"
       inkscape:connector-curvature="0"
       sodipodi:nodetypes="cc" />
    <path
       sodipodi:nodetypes="cc"
       inkscape:connector-curvature="0"
       id="path3061"
       d="m 170,967.36085 45,0"
       style="fill:none;stroke:#000000;stroke-width:0.99212599;stroke-linecap:square;stroke-linejoin:round;stroke-miterlimit:4;stroke-opacity:1;stroke-dasharray:none;stroke-dashoffset:0" />
    <path
       style="fill:none;stroke:#000000;stroke-width:0.99212599;stroke-linecap:square;stroke-linejoin:round;stroke-miterlimit:4;stroke-opacity:1;stroke-dasharray:none;stroke-dashoffset:0"
       d="m 170,937.36085 45,0"
       id="path3063"
       inkscape:connector-curvature="0"
       sodipodi:nodetypes="cc" />
    <g
       id="g3955"
       transform="matrix(1.2,0,0,-1.2,148.89795,1769.9096)"
       xml:space="preserve"
       stroke-miterlimit="10.433"
       font-style="normal"
       font-variant="normal"
       font-weight="normal"
       font-stretch="normal"
       font-size-adjust="none"
       letter-spacing="normal"
       word-spacing="normal"
       ns0:text="$F$"
       ns0:preamble="/home/sriranga/Desktop/Prism_BasicElectronics/preamble.tex"
       style="font-style:normal;font-variant:normal;font-weight:normal;font-stretch:normal;letter-spacing:normal;word-spacing:normal;text-anchor:start;fill:none;stroke:#000000;stroke-width:1;stroke-linecap:butt;stroke-linejoin:miter;stroke-miterlimit:10.43299961;stroke-opacity:1;stroke-dasharray:none;stroke-dashoffset:0"><path
         style="fill:#000000;stroke-width:0"
         inkscape:connector-curvature="0"
         d="m 230.1,713.61 h -4.96 v -0.16 c 0.65,-0.06 0.77,-0.12 0.77,-0.4 0,-0.15 -0.04,-0.4 -0.11,-0.64 l -1.22,-4.39 c -0.18,-0.6 -0.25,-0.66 -0.82,-0.74 v -0.16 h 2.51 v 0.16 c -0.58,0.03 -0.76,0.14 -0.76,0.44 0,0.08 0.03,0.23 0.09,0.45 l 0.62,2.21 c 0.37,-0.02 0.58,-0.03 0.8,-0.03 0.39,0 0.46,-0.01 0.55,-0.05 0.15,-0.08 0.22,-0.21 0.22,-0.4 0,-0.16 -0.02,-0.28 -0.08,-0.59 l 0.17,-0.05 0.76,2.33 -0.18,0.05 c -0.45,-0.9 -0.48,-0.91 -2.15,-0.93 l 0.65,2.32 c 0.06,0.19 0.2,0.25 0.61,0.25 1.67,0 2.03,-0.12 2.03,-0.74 0,-0.06 0,-0.11 -0.01,-0.24 -0.01,-0.06 -0.01,-0.07 -0.02,-0.19 l 0.21,-0.02 z"
         id="path3957" /></g>    <path
       style="fill:none;stroke:#000000;stroke-width:0.99212599;stroke-linecap:square;stroke-linejoin:round;stroke-miterlimit:4;stroke-opacity:1;stroke-dasharray:none;stroke-dashoffset:0"
       d="m 170,882.36085 45,0"
       id="path4069"
       inkscape:connector-curvature="0"
       sodipodi:nodetypes="cc" />
    <path
       style="fill:none;stroke:#000000;stroke-width:0.99212599;stroke-linecap:square;stroke-linejoin:round;stroke-miterlimit:4;stroke-opacity:1;stroke-dasharray:none;stroke-dashoffset:0"
       d="m 170,952.36085 45,0"
       id="path4071"
       inkscape:connector-curvature="0"
       sodipodi:nodetypes="cc" />
    <g
       style="font-style:normal;font-variant:normal;font-weight:normal;font-stretch:normal;letter-spacing:normal;word-spacing:normal;text-anchor:start;fill:none;stroke:#000000;stroke-width:1;stroke-linecap:butt;stroke-linejoin:miter;stroke-miterlimit:10.43299961;stroke-opacity:1;stroke-dasharray:none;stroke-dashoffset:0"
       ns0:preamble="/home/sriranga/Desktop/Prism_BasicElectronics/preamble.tex"
       ns0:text="$x\'$"
       word-spacing="normal"
       letter-spacing="normal"
       font-size-adjust="none"
       font-stretch="normal"
       font-weight="normal"
       font-variant="normal"
       font-style="normal"
       stroke-miterlimit="10.433"
       xml:space="preserve"
       transform="matrix(1.2,0,0,-1.2,-111.17826,1718.5673)"
       id="content"><path
         id="path4120"
         d="m 227.93,708.23 -0.01,-0.02 -0.02,-0.01 -0.01,-0.02 -0.02,-0.02 -0.01,-0.01 -0.01,-0.02 -0.01,-0.01 -0.02,-0.02 -0.01,-0.01 -0.01,-0.02 -0.01,-0.01 -0.02,-0.02 -0.01,-0.01 0,-0.01 -0.01,-0.01 -0.01,-0.01 0,-0.01 -0.01,-0.01 -0.01,-0.01 -0.01,-0.01 c -0.23,-0.3 -0.35,-0.4 -0.46,-0.4 -0.15,0 -0.24,0.13 -0.3,0.41 -0.02,0.08 -0.04,0.14 -0.05,0.17 -0.24,1 -0.35,1.46 -0.35,1.61 0.43,0.76 0.79,1.2 0.97,1.2 0.06,0 0.14,-0.03 0.24,-0.08 0.12,-0.07 0.19,-0.09 0.27,-0.09 0.21,0 0.35,0.15 0.35,0.36 0,0.21 -0.17,0.37 -0.41,0.37 -0.44,0 -0.82,-0.36 -1.5,-1.42 l -0.11,0.54 c -0.14,0.68 -0.25,0.88 -0.52,0.88 -0.22,0 -0.56,-0.09 -1.16,-0.29 l -0.11,-0.04 0.04,-0.15 c 0.38,0.09 0.46,0.11 0.55,0.11 0.25,0 0.31,-0.09 0.45,-0.69 l 0.29,-1.22 -0.82,-1.16 c -0.2,-0.3 -0.39,-0.48 -0.5,-0.48 -0.06,0 -0.16,0.03 -0.26,0.09 -0.13,0.07 -0.24,0.1 -0.32,0.1 -0.19,0 -0.34,-0.15 -0.34,-0.35 0,-0.26 0.2,-0.41 0.5,-0.41 0.31,0 0.43,0.08 0.92,0.69 0.27,0.32 0.48,0.59 0.9,1.16 l 0.3,-1.19 c 0.13,-0.51 0.26,-0.66 0.57,-0.66 0.38,0 0.64,0.23 1.22,1.13 z"
         inkscape:connector-curvature="0"
         style="fill:#000000;stroke-width:0" /><path
         id="path4122"
         d="m 230.45,713.6 0,0.02 0,0.02 0,0.03 -0.01,0.02 -0.01,0.02 0,0.02 -0.01,0.02 -0.01,0.02 -0.01,0.01 -0.01,0.02 -0.02,0.02 -0.01,0.02 -0.01,0.01 -0.02,0.02 -0.01,0.01 -0.02,0.02 -0.02,0.01 -0.02,0.01 -0.01,0.01 -0.02,0.01 -0.02,0.01 -0.02,0.01 -0.02,0.01 -0.02,0.01 -0.02,0.01 -0.02,0 -0.03,0.01 -0.02,0 -0.02,0.01 -0.02,0 -0.02,0 -0.02,0 c -0.26,0 -0.38,-0.25 -0.45,-0.46 l -0.73,-2.11 c -0.02,-0.05 -0.07,-0.18 -0.07,-0.24 0,-0.06 0.04,-0.15 0.11,-0.15 0.11,0 0.23,0.15 0.28,0.23 l 1.14,1.8 c 0.09,0.14 0.19,0.34 0.19,0.52 z"
         inkscape:connector-curvature="0"
         style="fill:#000000;stroke-width:0" /></g>    <g
       id="g4226"
       transform="matrix(1.2,0,0,-1.2,-111.17826,1733.9988)"
       xml:space="preserve"
       stroke="black"
       stroke-linecap="butt"
       stroke-linejoin="miter"
       stroke-miterlimit="10.433"
       stroke-dasharray="none"
       stroke-dashoffset="0"
       stroke-opacity="1"
       fill="none"
       fill-rule="evenodd"
       fill-opacity="1"
       font-style="normal"
       font-variant="normal"
       font-weight="normal"
       font-stretch="normal"
       font-size-adjust="none"
       letter-spacing="normal"
       word-spacing="normal"
       text-anchor="start"
       ns0:text="$y\'$"
       ns0:preamble="/home/sriranga/Desktop/Prism_BasicElectronics/preamble.tex"
       style="font-style:normal;font-variant:normal;font-weight:normal;font-stretch:normal;letter-spacing:normal;word-spacing:normal;text-anchor:start;fill:none;stroke:#000000;stroke-width:1;stroke-linecap:butt;stroke-linejoin:miter;stroke-miterlimit:10.43299961;stroke-opacity:1;stroke-dasharray:none;stroke-dashoffset:0"><path
         d="M223.58,711.1 L223.59,711.1 L223.6,711.1 L223.62,711.11 L223.63,711.11 L223.64,711.11 L223.65,711.11 L223.66,711.12 L223.67,711.12 L223.69,711.12 L223.71,711.12 L223.73,711.13 L223.74,711.13 L223.76,711.13 L223.78,711.13 L223.8,711.13 L223.81,711.14 L223.83,711.14 L223.85,711.14 L223.87,711.14 L223.88,711.14 L223.89,711.14 C224.46,711.14,224.61,710.89,225.06,709.18 C225.23,708.54,225.47,707.37,225.47,707.2 C225.47,707.05,225.41,706.89,225.26,706.71 C224.95,706.3,224.76,706.04,224.65,705.92 C224.44,705.7,224.32,705.62,224.19,705.62 C224.13,705.62,224.06,705.66,223.95,705.73 C223.8,705.85,223.69,705.9,223.58,705.9 C223.36,705.9,223.19,705.73,223.19,705.52 C223.19,705.27,223.41,705.08,223.7,705.08 C224.34,705.08,225.64,706.57,226.71,708.54 C227.39,709.76,227.67,710.47,227.67,710.96 C227.67,711.26,227.42,711.51,227.12,711.51 C226.89,711.51,226.74,711.36,226.74,711.14 C226.74,710.99,226.82,710.88,227.01,710.75 C227.2,710.64,227.27,710.55,227.27,710.41 C227.27,710.02,226.9,709.24,226.06,707.84 L225.86,708.99 C225.71,709.87,225.15,711.51,225,711.51 H224.96 C224.95,711.5,224.91,711.5,224.88,711.5 C224.79,711.49,224.43,711.43,223.9,711.33 C223.85,711.32,223.72,711.29,223.58,711.27 Z "
         stroke-width="0"
         fill="black"
         id="path4228" /><path
         d="M229.92,713.6 L229.92,713.62 L229.92,713.64 L229.92,713.67 L229.91,713.69 L229.91,713.71 L229.9,713.73 L229.89,713.75 L229.88,713.77 L229.87,713.78 L229.86,713.8 L229.85,713.82 L229.83,713.84 L229.82,713.85 L229.8,713.87 L229.79,713.88 L229.77,713.9 L229.75,713.91 L229.74,713.92 L229.72,713.93 L229.7,713.94 L229.68,713.95 L229.66,713.96 L229.64,713.97 L229.62,713.98 L229.6,713.99 L229.58,713.99 L229.56,714 L229.54,714 L229.51,714.01 L229.49,714.01 L229.47,714.01 L229.45,714.01 C229.19,714.01,229.07,713.76,229,713.55 L228.27,711.44 C228.25,711.39,228.2,711.26,228.2,711.2 C228.2,711.14,228.25,711.05,228.32,711.05 C228.42,711.05,228.54,711.2,228.59,711.28 L229.73,713.08 C229.83,713.22,229.92,713.42,229.92,713.6 Z "
         stroke-width="0"
         fill="black"
         id="path4230" /></g>    <g
       style="font-style:normal;font-variant:normal;font-weight:normal;font-stretch:normal;letter-spacing:normal;word-spacing:normal;text-anchor:start;fill:none;stroke:#000000;stroke-width:1;stroke-linecap:butt;stroke-linejoin:miter;stroke-miterlimit:10.43299961;stroke-opacity:1;stroke-dasharray:none;stroke-dashoffset:0"
       ns0:preamble="/home/sriranga/Desktop/Prism_BasicElectronics/preamble.tex"
       ns0:text="$z\'$"
       text-anchor="start"
       word-spacing="normal"
       letter-spacing="normal"
       font-size-adjust="none"
       font-stretch="normal"
       font-weight="normal"
       font-variant="normal"
       font-style="normal"
       fill-opacity="1"
       fill-rule="evenodd"
       fill="none"
       stroke-opacity="1"
       stroke-dashoffset="0"
       stroke-dasharray="none"
       stroke-miterlimit="10.433"
       stroke-linejoin="miter"
       stroke-linecap="butt"
       stroke="black"
       xml:space="preserve"
       transform="matrix(1.2,0,0,-1.2,-111.17826,1748.2432)"
       id="g4333"><path
         id="path4335"
         fill="black"
         stroke-width="0"
         d="M224.24,710.2 L224.26,710.24 L224.28,710.28 L224.3,710.32 L224.31,710.36 L224.33,710.4 L224.35,710.43 L224.37,710.47 L224.39,710.5 L224.4,710.52 L224.42,710.55 L224.44,710.58 L224.46,710.6 L224.48,710.62 L224.5,710.64 L224.52,710.66 L224.54,710.67 L224.57,710.69 L224.59,710.7 L224.61,710.72 L224.64,710.73 L224.66,710.74 L224.69,710.74 L224.72,710.75 L224.75,710.76 L224.78,710.76 L224.81,710.77 L224.85,710.77 L224.88,710.78 L224.92,710.78 L224.96,710.78 L225,710.78 L225.04,710.78 H226.5 L223.41,707.09 L223.5,707 C223.66,707.12,223.79,707.17,223.96,707.17 C224.2,707.17,224.53,707.05,224.99,706.76 C225.49,706.45,225.83,706.32,226.11,706.32 C226.61,706.32,227.04,706.68,227.04,707.08 C227.04,707.28,226.9,707.43,226.7,707.43 C226.5,707.43,226.36,707.3,226.36,707.12 C226.36,707.04,226.39,706.94,226.45,706.83 C226.48,706.77,226.5,706.71,226.5,706.68 C226.5,706.59,226.39,706.53,226.23,706.53 C225.98,706.53,225.86,706.61,225.53,707.03 C225.09,707.59,224.9,707.72,224.33,707.85 L227.21,711.27 V711.38 H224.39 L224.08,710.23 Z " /><path
         id="path4337"
         fill="black"
         stroke-width="0"
         d="M229.38,713.6 L229.38,713.62 L229.37,713.64 L229.37,713.67 L229.36,713.69 L229.36,713.71 L229.35,713.73 L229.34,713.75 L229.33,713.77 L229.32,713.78 L229.31,713.8 L229.3,713.82 L229.29,713.84 L229.27,713.85 L229.26,713.87 L229.24,713.88 L229.22,713.9 L229.21,713.91 L229.19,713.92 L229.17,713.93 L229.15,713.94 L229.13,713.95 L229.11,713.96 L229.09,713.97 L229.07,713.98 L229.05,713.99 L229.03,713.99 L229.01,714 L228.99,714 L228.97,714.01 L228.95,714.01 L228.92,714.01 L228.9,714.01 C228.65,714.01,228.52,713.76,228.45,713.55 L227.73,711.44 C227.71,711.39,227.66,711.26,227.66,711.2 C227.66,711.14,227.7,711.05,227.77,711.05 C227.87,711.05,227.99,711.2,228.04,711.28 L229.18,713.08 C229.28,713.22,229.38,713.42,229.38,713.6 Z " /></g>    <g
       id="g4385"
       transform="matrix(1.2,0,0,-1.2,-111.17826,1818.2784)"
       xml:space="preserve"
       stroke-miterlimit="10.433"
       font-style="normal"
       font-variant="normal"
       font-weight="normal"
       font-stretch="normal"
       font-size-adjust="none"
       letter-spacing="normal"
       word-spacing="normal"
       ns0:text="$z\'$"
       ns0:preamble="/home/sriranga/Desktop/Prism_BasicElectronics/preamble.tex"
       style="font-style:normal;font-variant:normal;font-weight:normal;font-stretch:normal;letter-spacing:normal;word-spacing:normal;text-anchor:start;fill:none;stroke:#000000;stroke-width:1;stroke-linecap:butt;stroke-linejoin:miter;stroke-miterlimit:10.43299961;stroke-opacity:1;stroke-dasharray:none;stroke-dashoffset:0"><path
         d="m 224.24,710.2 0.02,0.04 0.02,0.04 0.02,0.04 0.01,0.04 0.02,0.04 0.02,0.03 0.02,0.04 0.02,0.03 0.01,0.02 0.02,0.03 0.02,0.03 0.02,0.02 0.02,0.02 0.02,0.02 0.02,0.02 0.02,0.01 0.03,0.02 0.02,0.01 0.02,0.02 0.03,0.01 0.02,0.01 0.03,0 0.03,0.01 0.03,0.01 0.03,0 0.03,0.01 0.04,0 0.03,0.01 0.04,0 0.04,0 0.04,0 0.04,0 h 1.46 l -3.09,-3.69 0.09,-0.09 c 0.16,0.12 0.29,0.17 0.46,0.17 0.24,0 0.57,-0.12 1.03,-0.41 0.5,-0.31 0.84,-0.44 1.12,-0.44 0.5,0 0.93,0.36 0.93,0.76 0,0.2 -0.14,0.35 -0.34,0.35 -0.2,0 -0.34,-0.13 -0.34,-0.31 0,-0.08 0.03,-0.18 0.09,-0.29 0.03,-0.06 0.05,-0.12 0.05,-0.15 0,-0.09 -0.11,-0.15 -0.27,-0.15 -0.25,0 -0.37,0.08 -0.7,0.5 -0.44,0.56 -0.63,0.69 -1.2,0.82 l 2.88,3.42 v 0.11 h -2.82 l -0.31,-1.15 z"
         id="path4387"
         inkscape:connector-curvature="0"
         style="fill:#000000;stroke-width:0" /><path
         d="m 229.38,713.6 0,0.02 -0.01,0.02 0,0.03 -0.01,0.02 0,0.02 -0.01,0.02 -0.01,0.02 -0.01,0.02 -0.01,0.01 -0.01,0.02 -0.01,0.02 -0.01,0.02 -0.02,0.01 -0.01,0.02 -0.02,0.01 -0.02,0.02 -0.01,0.01 -0.02,0.01 -0.02,0.01 -0.02,0.01 -0.02,0.01 -0.02,0.01 -0.02,0.01 -0.02,0.01 -0.02,0.01 -0.02,0 -0.02,0.01 -0.02,0 -0.02,0.01 -0.02,0 -0.03,0 -0.02,0 c -0.25,0 -0.38,-0.25 -0.45,-0.46 l -0.72,-2.11 c -0.02,-0.05 -0.07,-0.18 -0.07,-0.24 0,-0.06 0.04,-0.15 0.11,-0.15 0.1,0 0.22,0.15 0.27,0.23 l 1.14,1.8 c 0.1,0.14 0.2,0.34 0.2,0.52 z"
         id="path4389"
         inkscape:connector-curvature="0"
         style="fill:#000000;stroke-width:0" /></g>    <g
       id="g4457"
       transform="matrix(1.2,0,0,-1.2,-111.17826,1788.3058)"
       xml:space="preserve"
       stroke="black"
       stroke-linecap="butt"
       stroke-linejoin="miter"
       stroke-miterlimit="10.433"
       stroke-dasharray="none"
       stroke-dashoffset="0"
       stroke-opacity="1"
       fill="none"
       fill-rule="evenodd"
       fill-opacity="1"
       font-style="normal"
       font-variant="normal"
       font-weight="normal"
       font-stretch="normal"
       font-size-adjust="none"
       letter-spacing="normal"
       word-spacing="normal"
       text-anchor="start"
       ns0:text="$x$"
       ns0:preamble="/home/sriranga/Desktop/Prism_BasicElectronics/preamble.tex"
       style="font-style:normal;font-variant:normal;font-weight:normal;font-stretch:normal;letter-spacing:normal;word-spacing:normal;text-anchor:start;fill:none;stroke:#000000;stroke-width:1;stroke-linecap:butt;stroke-linejoin:miter;stroke-miterlimit:10.43299961;stroke-opacity:1;stroke-dasharray:none;stroke-dashoffset:0"><path
         d="M227.93,708.23 L227.92,708.21 L227.9,708.2 L227.89,708.18 L227.87,708.16 L227.86,708.15 L227.85,708.13 L227.84,708.12 L227.82,708.1 L227.81,708.09 L227.8,708.07 L227.79,708.06 L227.77,708.04 L227.76,708.03 L227.76,708.02 L227.75,708.01 L227.74,708 L227.74,707.99 L227.73,707.98 L227.72,707.97 L227.71,707.96 C227.48,707.66,227.36,707.56,227.25,707.56 C227.1,707.56,227.01,707.69,226.95,707.97 C226.93,708.05,226.91,708.11,226.9,708.14 C226.66,709.14,226.55,709.6,226.55,709.75 C226.98,710.51,227.34,710.95,227.52,710.95 C227.58,710.95,227.66,710.92,227.76,710.87 C227.88,710.8,227.95,710.78,228.03,710.78 C228.24,710.78,228.38,710.93,228.38,711.14 C228.38,711.35,228.21,711.51,227.97,711.51 C227.53,711.51,227.15,711.15,226.47,710.09 L226.36,710.63 C226.22,711.31,226.11,711.51,225.84,711.51 C225.62,711.51,225.28,711.42,224.68,711.22 L224.57,711.18 L224.61,711.03 C224.99,711.12,225.07,711.14,225.16,711.14 C225.41,711.14,225.47,711.05,225.61,710.45 L225.9,709.23 L225.08,708.07 C224.88,707.77,224.69,707.59,224.58,707.59 C224.52,707.59,224.42,707.62,224.32,707.68 C224.19,707.75,224.08,707.78,224,707.78 C223.81,707.78,223.66,707.63,223.66,707.43 C223.66,707.17,223.86,707.02,224.16,707.02 C224.47,707.02,224.59,707.1,225.08,707.71 C225.35,708.03,225.56,708.3,225.98,708.87 L226.28,707.68 C226.41,707.17,226.54,707.02,226.85,707.02 C227.23,707.02,227.49,707.25,228.07,708.15 Z "
         stroke-width="0"
         fill="black"
         id="path4459" /></g>    <g
       style="font-style:normal;font-variant:normal;font-weight:normal;font-stretch:normal;letter-spacing:normal;word-spacing:normal;text-anchor:start;fill:none;stroke:#000000;stroke-width:1;stroke-linecap:butt;stroke-linejoin:miter;stroke-miterlimit:10.43299961;stroke-opacity:1;stroke-dasharray:none;stroke-dashoffset:0"
       ns0:preamble="/home/sriranga/Desktop/Prism_BasicElectronics/preamble.tex"
       ns0:text="$y$"
       text-anchor="start"
       word-spacing="normal"
       letter-spacing="normal"
       font-size-adjust="none"
       font-stretch="normal"
       font-weight="normal"
       font-variant="normal"
       font-style="normal"
       fill-opacity="1"
       fill-rule="evenodd"
       fill="none"
       stroke-opacity="1"
       stroke-dashoffset="0"
       stroke-dasharray="none"
       stroke-miterlimit="10.433"
       stroke-linejoin="miter"
       stroke-linecap="butt"
       stroke="black"
       xml:space="preserve"
       transform="matrix(1.2,0,0,-1.2,-111.17826,1803.7373)"
       id="g4568"><path
         id="path4570"
         fill="black"
         stroke-width="0"
         d="M223.58,711.1 L223.59,711.1 L223.6,711.1 L223.62,711.11 L223.63,711.11 L223.64,711.11 L223.65,711.11 L223.66,711.12 L223.67,711.12 L223.69,711.12 L223.71,711.12 L223.73,711.13 L223.74,711.13 L223.76,711.13 L223.78,711.13 L223.8,711.13 L223.81,711.14 L223.83,711.14 L223.85,711.14 L223.87,711.14 L223.88,711.14 L223.89,711.14 C224.46,711.14,224.61,710.89,225.06,709.18 C225.23,708.54,225.47,707.37,225.47,707.2 C225.47,707.05,225.41,706.89,225.26,706.71 C224.95,706.3,224.76,706.04,224.65,705.92 C224.44,705.7,224.32,705.62,224.19,705.62 C224.13,705.62,224.06,705.66,223.95,705.73 C223.8,705.85,223.69,705.9,223.58,705.9 C223.36,705.9,223.19,705.73,223.19,705.52 C223.19,705.27,223.41,705.08,223.7,705.08 C224.34,705.08,225.64,706.57,226.71,708.54 C227.39,709.76,227.67,710.47,227.67,710.96 C227.67,711.26,227.42,711.51,227.12,711.51 C226.89,711.51,226.74,711.36,226.74,711.14 C226.74,710.99,226.82,710.88,227.01,710.75 C227.2,710.64,227.27,710.55,227.27,710.41 C227.27,710.02,226.9,709.24,226.06,707.84 L225.86,708.99 C225.71,709.87,225.15,711.51,225,711.51 H224.96 C224.95,711.5,224.91,711.5,224.88,711.5 C224.79,711.49,224.43,711.43,223.9,711.33 C223.85,711.32,223.72,711.29,223.58,711.27 Z " /></g>  </g>
</svg>
