<?xml version="1.0" encoding="UTF-8" standalone="no"?>
<!-- Created with Inkscape (http://www.inkscape.org/) -->

<svg
   xmlns:ns0="http://www.iki.fi/pav/software/textext/"
   xmlns:dc="http://purl.org/dc/elements/1.1/"
   xmlns:cc="http://creativecommons.org/ns#"
   xmlns:rdf="http://www.w3.org/1999/02/22-rdf-syntax-ns#"
   xmlns:svg="http://www.w3.org/2000/svg"
   xmlns="http://www.w3.org/2000/svg"
   xmlns:sodipodi="http://sodipodi.sourceforge.net/DTD/sodipodi-0.dtd"
   xmlns:inkscape="http://www.inkscape.org/namespaces/inkscape"
   width="496.06299"
   height="354.33069"
   id="svg2"
   version="1.1"
   inkscape:version="0.48.4 r9939"
   sodipodi:docname="figP3a.svg">
  <sodipodi:namedview
     id="base"
     pagecolor="#ffffff"
     bordercolor="#666666"
     borderopacity="1.0"
     inkscape:pageopacity="0.0"
     inkscape:pageshadow="2"
     inkscape:zoom="1.6848668"
     inkscape:cx="248.03149"
     inkscape:cy="177.16534"
     inkscape:document-units="cm"
     inkscape:current-layer="layer1"
     showgrid="false"
     units="cm"
     inkscape:object-nodes="true"
     inkscape:window-width="1366"
     inkscape:window-height="744"
     inkscape:window-x="0"
     inkscape:window-y="24"
     inkscape:window-maximized="1">
    <inkscape:grid
       type="xygrid"
       id="grid2985"
       empspacing="5"
       visible="true"
       enabled="true"
       snapvisiblegridlinesonly="true" />
  </sodipodi:namedview>
  <defs
     id="defs4">
    <marker
       inkscape:stockid="Arrow1Mstart"
       orient="auto"
       refY="0"
       refX="0"
       id="Arrow1Mstart"
       style="overflow:visible">
      <path
         inkscape:connector-curvature="0"
         id="path3775"
         d="M 0,0 5,-5 -12.5,0 5,5 0,0 z"
         style="fill-rule:evenodd;stroke:#000000;stroke-width:1pt"
         transform="matrix(0.4,0,0,0.4,4,0)" />
    </marker>
    <marker
       inkscape:stockid="Arrow1Mend"
       orient="auto"
       refY="0"
       refX="0"
       id="Arrow1Mend"
       style="overflow:visible">
      <path
         inkscape:connector-curvature="0"
         id="path3778"
         d="M 0,0 5,-5 -12.5,0 5,5 0,0 z"
         style="fill-rule:evenodd;stroke:#000000;stroke-width:1pt"
         transform="matrix(-0.4,0,0,-0.4,-4,0)" />
    </marker>
  </defs>
  <metadata
     id="metadata7">
    <rdf:RDF>
      <cc:Work
         rdf:about="">
        <dc:format>image/svg+xml</dc:format>
        <dc:type
           rdf:resource="http://purl.org/dc/dcmitype/StillImage" />
        <dc:title></dc:title>
      </cc:Work>
    </rdf:RDF>
  </metadata>
  <g
     inkscape:label="Layer 1"
     inkscape:groupmode="layer"
     id="layer1"
     transform="translate(0,-698.03016)">
    <path
       sodipodi:nodetypes="ccccc"
       inkscape:connector-curvature="0"
       id="rect5801"
       d="m 250,777.36085 20,0 c 26.66667,-2e-5 26.66667,39.99998 0,39.99998 l -20,0 z"
       style="fill:none;stroke:#000000;stroke-width:1.20000005;stroke-linecap:round;stroke-linejoin:round;stroke-miterlimit:4;stroke-opacity:1;stroke-dasharray:none;stroke-dashoffset:0" />
    <text
       transform="translate(0,698.03016)"
       sodipodi:linespacing="100%"
       id="text5818"
       y="56.040417"
       x="61.700558"
       style="font-size:12px;font-style:normal;font-variant:normal;font-weight:normal;font-stretch:normal;text-align:start;line-height:100%;letter-spacing:0px;word-spacing:0px;text-anchor:start;fill:#000000;fill-opacity:1;stroke:none;font-family:LMRoman12;-inkscape-font-specification:Sans"
       xml:space="preserve"><tspan
         y="56.040417"
         x="61.700558"
         id="tspan5820"
         sodipodi:role="line" /></text>
    <path
       inkscape:connector-curvature="0"
       id="path5824"
       d="m 205,857.36085 25,0 0,-50 20,0"
       style="fill:none;stroke:#000000;stroke-width:0.99212599;stroke-linecap:square;stroke-linejoin:round;stroke-miterlimit:4;stroke-opacity:1;stroke-dasharray:none;stroke-dashoffset:0"
       sodipodi:nodetypes="cccc" />
    <flowRoot
       xml:space="preserve"
       id="flowRoot6377"
       style="fill:black;stroke:none;stroke-opacity:1;stroke-width:1px;stroke-linejoin:miter;stroke-linecap:butt;fill-opacity:1;font-family:LMRoman12;font-style:normal;font-weight:normal;font-size:12px;line-height:100%;letter-spacing:0px;word-spacing:0px;-inkscape-font-specification:Sans;font-stretch:normal;font-variant:normal;text-anchor:start;text-align:start"><flowRegion
         id="flowRegion6379"><rect
           id="rect6381"
           width="27.681772"
           height="40.319103"
           x="219.34796"
           y="87.141403" /></flowRegion><flowPara
         id="flowPara6383" /></flowRoot>    <text
       xml:space="preserve"
       style="font-size:12px;font-style:normal;font-variant:normal;font-weight:normal;font-stretch:normal;text-align:start;line-height:50%;letter-spacing:0px;word-spacing:0px;text-anchor:start;fill:#000000;fill-opacity:1;stroke:none;font-family:LMRoman12;-inkscape-font-specification:Sans"
       x="275.91507"
       y="55.247185"
       id="text6385"
       sodipodi:linespacing="50%"
       transform="translate(0,698.03016)"><tspan
         sodipodi:role="line"
         id="tspan6387" /></text>
    <text
       xml:space="preserve"
       style="font-size:12px;font-style:normal;font-variant:normal;font-weight:normal;font-stretch:normal;text-align:start;line-height:100%;letter-spacing:0px;word-spacing:0px;text-anchor:start;fill:#000000;fill-opacity:1;stroke:none;font-family:LMRoman12;-inkscape-font-specification:Sans"
       x="348.65417"
       y="194.38702"
       id="text3884"
       sodipodi:linespacing="100%"
       transform="translate(0,698.03016)"><tspan
         sodipodi:role="line"
         x="348.65417"
         y="194.38702"
         id="tspan3890" /></text>
    <path
       sodipodi:nodetypes="cccc"
       inkscape:connector-curvature="0"
       id="path3875"
       d="m 165,767.36086 c 20,0 33.33333,6.66666 40,19.99999 -6.66667,13.33334 -20,20 -40,20 6.66667,-13.33333 6.66667,-26.66666 0,-39.99999 z"
       style="fill:none;stroke:#000000;stroke-width:1.20000005;stroke-linecap:butt;stroke-linejoin:round;stroke-miterlimit:4;stroke-opacity:1;stroke-dasharray:none;stroke-dashoffset:0" />
    <path
       style="fill:none;stroke:#000000;stroke-width:0.99212599;stroke-linecap:square;stroke-linejoin:round;stroke-miterlimit:4;stroke-opacity:1;stroke-dasharray:none;stroke-dashoffset:0"
       d="m 206,787.36085 44,0"
       id="path3093"
       inkscape:connector-curvature="0"
       sodipodi:nodetypes="cc" />
    <path
       sodipodi:nodetypes="cc"
       inkscape:connector-curvature="0"
       id="path3879"
       d="m 140,777.36085 28.70324,0"
       style="fill:none;stroke:#000000;stroke-width:0.99212599;stroke-linecap:square;stroke-linejoin:round;stroke-miterlimit:4;stroke-opacity:1;stroke-dasharray:none;stroke-dashoffset:0" />
    <path
       style="fill:none;stroke:#000000;stroke-width:0.99212593;stroke-linecap:square;stroke-linejoin:round;stroke-miterlimit:4;stroke-opacity:1;stroke-dasharray:none;stroke-dashoffset:0"
       d="m 105,777.36085 0,20 63.70324,0"
       id="path3881"
       inkscape:connector-curvature="0"
       sodipodi:nodetypes="ccc" />
    <path
       sodipodi:nodetypes="cc"
       inkscape:connector-curvature="0"
       id="path3883"
       d="m 90,857.36085 29,0"
       style="fill:none;stroke:#000000;stroke-width:0.99212599;stroke-linecap:square;stroke-linejoin:round;stroke-miterlimit:4;stroke-opacity:1;stroke-dasharray:none;stroke-dashoffset:0" />
    <path
       sodipodi:nodetypes="cc"
       inkscape:connector-curvature="0"
       id="path3885"
       d="m 289.99999,797.36085 61.21108,0"
       style="fill:none;stroke:#000000;stroke-width:0.99212605;stroke-linecap:square;stroke-linejoin:round;stroke-miterlimit:4;stroke-opacity:1;stroke-dasharray:none;stroke-dashoffset:0" />
    <text
       xml:space="preserve"
       style="font-size:12px;font-style:normal;font-variant:normal;font-weight:normal;font-stretch:normal;text-align:start;line-height:150%;letter-spacing:0px;word-spacing:0px;text-anchor:start;fill:#000000;fill-opacity:1;stroke:none;font-family:LMRoman12;-inkscape-font-specification:Sans"
       x="216.96629"
       y="250.89732"
       id="text3887"
       sodipodi:linespacing="150%"
       transform="translate(0,698.03016)"><tspan
         sodipodi:role="line"
         id="tspan3889"
         x="216.96629"
         y="250.89732" /></text>
    <path
       style="fill:none;stroke:#000000;stroke-width:1.20000005;stroke-linecap:round;stroke-linejoin:round;stroke-miterlimit:4;stroke-opacity:1;stroke-dasharray:none;stroke-dashoffset:0"
       d="m 165,837.36085 20,0 c 26.66667,-2e-5 26.66667,39.99998 0,39.99998 l -20,0 z"
       id="path3023"
       inkscape:connector-curvature="0"
       sodipodi:nodetypes="ccccc" />
    <path
       transform="translate(0,698.03016)"
       d="m 142.10235,79.330688 c 0,1.161094 -0.94126,2.102346 -2.10235,2.102346 -1.16109,0 -2.10235,-0.941252 -2.10235,-2.102346 0,-1.161093 0.94126,-2.102345 2.10235,-2.102345 1.16109,0 2.10235,0.941252 2.10235,2.102345 z"
       sodipodi:ry="2.1023455"
       sodipodi:rx="2.1023455"
       sodipodi:cy="79.330688"
       sodipodi:cx="140"
       id="path3025"
       style="fill:#ffffff;stroke:#000000;stroke-width:0.80000001;stroke-linecap:square;stroke-linejoin:round;stroke-miterlimit:4;stroke-opacity:1;stroke-dasharray:none;stroke-dashoffset:0"
       sodipodi:type="arc" />
    <path
       inkscape:transform-center-x="-2.25"
       transform="translate(-1,703.03016)"
       d="m 139,74.330688 -13.5,7.794229 0,-15.588457 z"
       inkscape:randomized="0"
       inkscape:rounded="0"
       inkscape:flatsided="true"
       sodipodi:arg2="1.0471976"
       sodipodi:arg1="0"
       sodipodi:r2="4.5"
       sodipodi:r1="9"
       sodipodi:cy="74.330688"
       sodipodi:cx="130"
       sodipodi:sides="3"
       id="path3807"
       style="fill:#ffffff;fill-opacity:1;stroke:#000000;stroke-width:0.80000001;stroke-linecap:square;stroke-linejoin:round;stroke-miterlimit:4;stroke-opacity:1;stroke-dasharray:none;stroke-dashoffset:0"
       sodipodi:type="star" />
    <path
       style="fill:none;stroke:#000000;stroke-width:0.99212599;stroke-linecap:square;stroke-linejoin:round;stroke-miterlimit:4;stroke-opacity:1;stroke-dasharray:none;stroke-dashoffset:0"
       d="m 84.999998,777.36085 38.703242,0"
       id="path3809"
       inkscape:connector-curvature="0"
       sodipodi:nodetypes="cc" />
    <rect
       y="847.36084"
       x="120"
       height="20"
       width="45"
       id="rect3811"
       style="fill:#ffffff;fill-opacity:1;stroke:#000000;stroke-width:0.80000001;stroke-linecap:square;stroke-linejoin:round;stroke-miterlimit:4;stroke-opacity:1;stroke-dasharray:none;stroke-dashoffset:0" />
    <path
       sodipodi:type="arc"
       style="fill:#ffffff;stroke:#000000;stroke-width:0.80000001;stroke-linecap:square;stroke-linejoin:round;stroke-miterlimit:4;stroke-opacity:1;stroke-dasharray:none;stroke-dashoffset:0"
       id="path3813"
       sodipodi:cx="140"
       sodipodi:cy="79.330688"
       sodipodi:rx="2.1023455"
       sodipodi:ry="2.1023455"
       d="m 142.10235,79.330688 c 0,1.161094 -0.94126,2.102346 -2.10235,2.102346 -1.16109,0 -2.10235,-0.941252 -2.10235,-2.102346 0,-1.161093 0.94126,-2.102345 2.10235,-2.102345 1.16109,0 2.10235,0.941252 2.10235,2.102345 z"
       transform="translate(226.943,718.03016)" />
    <path
       sodipodi:type="star"
       style="fill:#ffffff;fill-opacity:1;stroke:#000000;stroke-width:0.80000001;stroke-linecap:square;stroke-linejoin:round;stroke-miterlimit:4;stroke-opacity:1;stroke-dasharray:none;stroke-dashoffset:0"
       id="path3815"
       sodipodi:sides="3"
       sodipodi:cx="130"
       sodipodi:cy="74.330688"
       sodipodi:r1="9"
       sodipodi:r2="4.5"
       sodipodi:arg1="0"
       sodipodi:arg2="1.0471976"
       inkscape:flatsided="true"
       inkscape:rounded="0"
       inkscape:randomized="0"
       d="m 139,74.330688 -13.5,7.794229 0,-15.588457 z"
       transform="translate(225.943,723.03016)"
       inkscape:transform-center-x="-2.25" />
    <path
       style="fill:none;stroke:#000000;stroke-width:0.99212605;stroke-linecap:square;stroke-linejoin:round;stroke-miterlimit:4;stroke-opacity:1;stroke-dasharray:none;stroke-dashoffset:0"
       d="m 369.76428,797.36085 17.58991,0"
       id="path3817"
       inkscape:connector-curvature="0"
       sodipodi:nodetypes="cc" />
    <g
       style="font-style:normal;font-variant:normal;font-weight:normal;font-stretch:normal;letter-spacing:normal;word-spacing:normal;text-anchor:start;fill:none;stroke:#000000;stroke-width:1;stroke-linecap:butt;stroke-linejoin:miter;stroke-miterlimit:10.43299961;stroke-opacity:1;stroke-dasharray:none;stroke-dashoffset:0"
       ns0:preamble="/home/sriranga/Desktop/Prism_BasicElectronics/preamble.tex"
       ns0:text="$A$"
       word-spacing="normal"
       letter-spacing="normal"
       font-size-adjust="none"
       font-stretch="normal"
       font-weight="normal"
       font-variant="normal"
       font-style="normal"
       stroke-miterlimit="10.433"
       xml:space="preserve"
       transform="matrix(1.2,0,0,-1.2,-194.16907,1629.6772)"
       id="g3871"><path
         id="path3873"
         d="m 229.29,707.28 -0.05,0.01 -0.05,0 -0.04,0.01 -0.05,0.01 -0.04,0 -0.04,0.01 -0.03,0.01 -0.04,0.01 -0.03,0.01 -0.03,0.01 -0.03,0.01 -0.02,0.02 -0.03,0.01 -0.02,0.02 -0.02,0.02 -0.02,0.02 -0.02,0.02 -0.02,0.03 -0.01,0.02 -0.02,0.03 -0.01,0.03 -0.02,0.04 -0.01,0.04 -0.01,0.04 -0.01,0.04 -0.01,0.04 -0.02,0.05 -0.01,0.06 0,0.02 -0.01,0.03 0,0.03 -0.01,0.03 -0.01,0.03 0,0.03 -0.01,0.03 0,0.04 -0.94,5.62 h -0.26 l -2.88,-4.97 c -0.79,-1.32 -0.89,-1.43 -1.29,-1.51 v -0.16 h 1.86 v 0.16 c -0.5,0.05 -0.58,0.1 -0.58,0.35 0,0.19 0.03,0.28 0.2,0.62 l 0.56,1.12 h 2.19 l -0.05,0.36 h -1.93 l 1.49,2.58 0.44,-2.58 0.05,-0.36 0.2,-1.3 c 0.01,-0.09 0.02,-0.18 0.02,-0.26 0,-0.38 -0.14,-0.47 -0.77,-0.53 v -0.16 h 2.44 z"
         inkscape:connector-curvature="0"
         style="fill:#000000;stroke-width:0" /></g>    <g
       id="g3985"
       transform="matrix(1.2,0,0,-1.2,-190.01333,1708.912)"
       xml:space="preserve"
       stroke-miterlimit="10.433"
       font-style="normal"
       font-variant="normal"
       font-weight="normal"
       font-stretch="normal"
       font-size-adjust="none"
       letter-spacing="normal"
       word-spacing="normal"
       ns0:text="$B$"
       ns0:preamble="/home/sriranga/Desktop/Prism_BasicElectronics/preamble.tex"
       style="font-style:normal;font-variant:normal;font-weight:normal;font-stretch:normal;letter-spacing:normal;word-spacing:normal;text-anchor:start;fill:none;stroke:#000000;stroke-width:1;stroke-linecap:butt;stroke-linejoin:miter;stroke-miterlimit:10.43299961;stroke-opacity:1;stroke-dasharray:none;stroke-dashoffset:0"><path
         d="m 223.7,707.12 h 2.81 c 1.56,0 2.63,0.82 2.63,1.99 0,0.37 -0.12,0.72 -0.34,0.94 -0.19,0.22 -0.39,0.34 -0.91,0.56 0.71,0.17 0.99,0.29 1.31,0.57 0.28,0.24 0.43,0.57 0.43,0.97 0,0.94 -0.7,1.46 -1.99,1.46 l -0.18,-0.3 c 0.8,0 1.17,-0.33 1.17,-1.07 0,-0.57 -0.24,-1 -0.67,-1.24 -0.34,-0.2 -0.82,-0.27 -1.71,-0.27 l -0.1,-0.32 c 0.65,0 1.06,-0.04 1.26,-0.12 0.41,-0.17 0.66,-0.6 0.66,-1.14 0,-1.07 -0.74,-1.73 -1.95,-1.73 -0.42,0 -0.64,0.15 -0.64,0.42 0,0.12 0.12,0.6 0.35,1.39 0.13,0.45 0.19,0.68 0.32,1.18 h 0 l 0.1,0.32 0.65,2.31 c 0.06,0.21 0.17,0.27 0.56,0.27 l 0.18,0.3 h -2.57 v -0.16 c 0.62,-0.05 0.77,-0.13 0.77,-0.4 0,-0.15 -0.04,-0.4 -0.11,-0.64 l -1.22,-4.39 c -0.18,-0.58 -0.25,-0.64 -0.81,-0.74 z"
         id="path3987"
         inkscape:connector-curvature="0"
         style="fill:#000000;stroke-width:0" /></g>    <g
       id="content"
       transform="matrix(1.2,0,0,-1.2,-120.26588,1623.0603)"
       xml:space="preserve"
       stroke="black"
       stroke-linecap="butt"
       stroke-linejoin="miter"
       stroke-miterlimit="10.433"
       stroke-dasharray="none"
       stroke-dashoffset="0"
       stroke-opacity="1"
       fill="none"
       fill-rule="evenodd"
       fill-opacity="1"
       font-style="normal"
       font-variant="normal"
       font-weight="normal"
       font-stretch="normal"
       font-size-adjust="none"
       letter-spacing="normal"
       word-spacing="normal"
       text-anchor="start"
       ns0:text="$A\'$"
       ns0:preamble="/home/sriranga/Desktop/Prism_BasicElectronics/preamble.tex"
       style="font-style:normal;font-variant:normal;font-weight:normal;font-stretch:normal;letter-spacing:normal;word-spacing:normal;text-anchor:start;fill:none;stroke:#000000;stroke-width:1;stroke-linecap:butt;stroke-linejoin:miter;stroke-miterlimit:10.43299961;stroke-opacity:1;stroke-dasharray:none;stroke-dashoffset:0"><path
         d="M229.29,707.28 L229.24,707.29 L229.19,707.29 L229.15,707.3 L229.1,707.31 L229.06,707.31 L229.02,707.32 L228.99,707.33 L228.95,707.34 L228.92,707.35 L228.89,707.36 L228.86,707.37 L228.84,707.39 L228.81,707.4 L228.79,707.42 L228.77,707.44 L228.75,707.46 L228.73,707.48 L228.71,707.51 L228.7,707.53 L228.68,707.56 L228.67,707.59 L228.65,707.63 L228.64,707.67 L228.63,707.71 L228.62,707.75 L228.61,707.79 L228.59,707.84 L228.58,707.9 L228.58,707.92 L228.57,707.95 L228.57,707.98 L228.56,708.01 L228.55,708.04 L228.55,708.07 L228.54,708.1 L228.54,708.14 L227.6,713.76 H227.34 L224.46,708.79 C223.67,707.47,223.57,707.36,223.17,707.28 V707.12 H225.03 V707.28 C224.53,707.33,224.45,707.38,224.45,707.63 C224.45,707.82,224.48,707.91,224.65,708.25 L225.21,709.37 H227.4 L227.35,709.73 H225.42 L226.91,712.31 L227.35,709.73 L227.4,709.37 L227.6,708.07 C227.61,707.98,227.62,707.89,227.62,707.81 C227.62,707.43,227.48,707.34,226.85,707.28 V707.12 H229.29 Z "
         stroke-width="0"
         fill="black"
         id="path3072" /><path
         d="M231.84,713.6 L231.84,713.62 L231.83,713.64 L231.83,713.67 L231.82,713.69 L231.82,713.71 L231.81,713.73 L231.8,713.75 L231.79,713.77 L231.78,713.78 L231.77,713.8 L231.76,713.82 L231.75,713.84 L231.73,713.85 L231.72,713.87 L231.7,713.88 L231.68,713.9 L231.67,713.91 L231.65,713.92 L231.63,713.93 L231.61,713.94 L231.59,713.95 L231.57,713.96 L231.55,713.97 L231.53,713.98 L231.51,713.99 L231.49,713.99 L231.47,714 L231.45,714 L231.43,714.01 L231.41,714.01 L231.38,714.01 L231.36,714.01 C231.1,714.01,230.98,713.76,230.91,713.55 L230.19,711.44 C230.16,711.39,230.12,711.26,230.12,711.2 C230.12,711.14,230.16,711.05,230.23,711.05 C230.33,711.05,230.45,711.2,230.5,711.28 L231.64,713.08 C231.74,713.22,231.84,713.42,231.84,713.6 Z "
         stroke-width="0"
         fill="black"
         id="path3074" /></g>    <g
       style="font-style:normal;font-variant:normal;font-weight:normal;font-stretch:normal;letter-spacing:normal;word-spacing:normal;text-anchor:start;fill:none;stroke:#000000;stroke-width:1;stroke-linecap:butt;stroke-linejoin:miter;stroke-miterlimit:10.43299961;stroke-opacity:1;stroke-dasharray:none;stroke-dashoffset:0"
       ns0:preamble="/home/sriranga/Desktop/Prism_BasicElectronics/preamble.tex"
       ns0:text="$A\'+A$"
       word-spacing="normal"
       letter-spacing="normal"
       font-size-adjust="none"
       font-stretch="normal"
       font-weight="normal"
       font-variant="normal"
       font-style="normal"
       stroke-miterlimit="10.433"
       xml:space="preserve"
       transform="matrix(1.2,0,0,-1.2,-57.578987,1632.8116)"
       id="g3176"><path
         id="path3178"
         d="m 229.29,707.28 -0.05,0.01 -0.05,0 -0.04,0.01 -0.05,0.01 -0.04,0 -0.04,0.01 -0.03,0.01 -0.04,0.01 -0.03,0.01 -0.03,0.01 -0.03,0.01 -0.02,0.02 -0.03,0.01 -0.02,0.02 -0.02,0.02 -0.02,0.02 -0.02,0.02 -0.02,0.03 -0.01,0.02 -0.02,0.03 -0.01,0.03 -0.02,0.04 -0.01,0.04 -0.01,0.04 -0.01,0.04 -0.01,0.04 -0.02,0.05 -0.01,0.06 0,0.02 -0.01,0.03 0,0.03 -0.01,0.03 -0.01,0.03 0,0.03 -0.01,0.03 0,0.04 -0.94,5.62 h -0.26 l -2.88,-4.97 c -0.79,-1.32 -0.89,-1.43 -1.29,-1.51 v -0.16 h 1.86 v 0.16 c -0.5,0.05 -0.58,0.1 -0.58,0.35 0,0.19 0.03,0.28 0.2,0.62 l 0.56,1.12 h 2.19 l -0.05,0.36 h -1.93 l 1.49,2.58 0.44,-2.58 0.05,-0.36 0.2,-1.3 c 0.01,-0.09 0.02,-0.18 0.02,-0.26 0,-0.38 -0.14,-0.47 -0.77,-0.53 v -0.16 h 2.44 z"
         inkscape:connector-curvature="0"
         style="fill:#000000;stroke-width:0" /><path
         id="path3180"
         d="m 231.84,713.6 0,0.02 -0.01,0.02 0,0.03 -0.01,0.02 0,0.02 -0.01,0.02 -0.01,0.02 -0.01,0.02 -0.01,0.01 -0.01,0.02 -0.01,0.02 -0.01,0.02 -0.02,0.01 -0.01,0.02 -0.02,0.01 -0.02,0.02 -0.01,0.01 -0.02,0.01 -0.02,0.01 -0.02,0.01 -0.02,0.01 -0.02,0.01 -0.02,0.01 -0.02,0.01 -0.02,0.01 -0.02,0 -0.02,0.01 -0.02,0 -0.02,0.01 -0.02,0 -0.03,0 -0.02,0 c -0.26,0 -0.38,-0.25 -0.45,-0.46 l -0.72,-2.11 c -0.03,-0.05 -0.07,-0.18 -0.07,-0.24 0,-0.06 0.04,-0.15 0.11,-0.15 0.1,0 0.22,0.15 0.27,0.23 l 1.14,1.8 c 0.1,0.14 0.2,0.34 0.2,0.52 z"
         inkscape:connector-curvature="0"
         style="fill:#000000;stroke-width:0" /><polygon
         id="polygon3182"
         points="238.34,712.2 237.79,712.2 237.79,709.96 235.52,709.96 235.52,709.4 237.79,709.4 237.79,707.12 238.34,707.12 238.34,709.4 240.61,709.4 240.61,709.96 238.34,709.96 "
         style="fill:#000000;stroke-width:0" /><path
         id="path3184"
         d="m 249.31,707.28 -0.05,0.01 -0.05,0 -0.05,0.01 -0.04,0.01 -0.04,0 -0.04,0.01 -0.04,0.01 -0.03,0.01 -0.03,0.01 -0.03,0.01 -0.03,0.01 -0.02,0.02 -0.03,0.01 -0.02,0.02 -0.02,0.02 -0.02,0.02 -0.02,0.02 -0.02,0.03 -0.01,0.02 -0.02,0.03 -0.01,0.03 -0.02,0.04 -0.01,0.04 -0.01,0.04 -0.01,0.04 -0.02,0.04 -0.01,0.05 -0.01,0.06 -0.01,0.02 0,0.03 -0.01,0.03 0,0.03 -0.01,0.03 0,0.03 -0.01,0.03 -0.01,0.04 -0.93,5.62 h -0.26 l -2.88,-4.97 c -0.79,-1.32 -0.89,-1.43 -1.29,-1.51 v -0.16 h 1.86 v 0.16 c -0.51,0.05 -0.59,0.1 -0.59,0.35 0,0.19 0.03,0.28 0.2,0.62 l 0.57,1.12 h 2.19 l -0.05,0.36 h -1.93 l 1.49,2.58 0.44,-2.58 0.05,-0.36 0.2,-1.3 c 0.01,-0.09 0.02,-0.18 0.02,-0.26 0,-0.38 -0.14,-0.47 -0.78,-0.53 v -0.16 h 2.45 z"
         inkscape:connector-curvature="0"
         style="fill:#000000;stroke-width:0" /></g>    <g
       id="g3300"
       transform="matrix(1.2,0,0,-1.2,28.789621,1641.5182)"
       xml:space="preserve"
       stroke-miterlimit="10.433"
       font-style="normal"
       font-variant="normal"
       font-weight="normal"
       font-stretch="normal"
       font-size-adjust="none"
       letter-spacing="normal"
       word-spacing="normal"
       ns0:text="$(A\'+A)B$"
       ns0:preamble="/home/sriranga/Desktop/Prism_BasicElectronics/preamble.tex"
       style="font-style:normal;font-variant:normal;font-weight:normal;font-stretch:normal;letter-spacing:normal;word-spacing:normal;text-anchor:start;fill:none;stroke:#000000;stroke-width:1;stroke-linecap:butt;stroke-linejoin:miter;stroke-miterlimit:10.43299961;stroke-opacity:1;stroke-dasharray:none;stroke-dashoffset:0"><path
         style="fill:#000000;stroke-width:0"
         inkscape:connector-curvature="0"
         d="m 226.37,713.84 -0.07,-0.04 -0.07,-0.05 -0.06,-0.04 -0.06,-0.04 -0.06,-0.04 -0.05,-0.04 -0.06,-0.04 -0.05,-0.03 -0.05,-0.04 -0.05,-0.04 -0.05,-0.03 -0.04,-0.04 -0.05,-0.03 -0.04,-0.04 -0.08,-0.06 -0.08,-0.07 -0.07,-0.07 -0.08,-0.07 -0.07,-0.07 -0.06,-0.07 -0.07,-0.08 -0.07,-0.08 -0.07,-0.08 c -0.7,-0.87 -1.05,-1.86 -1.05,-3.02 0,-1.26 0.37,-2.24 1.24,-3.25 0.41,-0.48 0.67,-0.7 1.19,-1.01 l 0.12,0.16 c -0.8,0.62 -1.08,0.97 -1.35,1.71 -0.23,0.67 -0.35,1.42 -0.35,2.42 0,1.04 0.14,1.86 0.4,2.47 0.28,0.62 0.58,0.97 1.3,1.55 z"
         id="path3302" /><path
         style="fill:#000000;stroke-width:0"
         inkscape:connector-curvature="0"
         d="m 232.61,707.28 -0.05,0.01 -0.05,0 -0.05,0.01 -0.04,0.01 -0.04,0 -0.04,0.01 -0.04,0.01 -0.03,0.01 -0.03,0.01 -0.03,0.01 -0.03,0.01 -0.02,0.02 -0.03,0.01 -0.02,0.02 -0.02,0.02 -0.02,0.02 -0.02,0.02 -0.02,0.03 -0.01,0.02 -0.02,0.03 -0.01,0.03 -0.02,0.04 -0.01,0.04 -0.01,0.04 -0.01,0.04 -0.02,0.04 -0.01,0.05 -0.01,0.06 -0.01,0.02 0,0.03 -0.01,0.03 0,0.03 -0.01,0.03 0,0.03 -0.01,0.03 -0.01,0.04 -0.93,5.62 h -0.26 l -2.89,-4.97 c -0.78,-1.32 -0.88,-1.43 -1.28,-1.51 v -0.16 h 1.86 v 0.16 c -0.5,0.05 -0.59,0.1 -0.59,0.35 0,0.19 0.03,0.28 0.2,0.62 l 0.57,1.12 h 2.19 l -0.05,0.36 h -1.93 l 1.49,2.58 0.44,-2.58 0.05,-0.36 0.2,-1.3 c 0.01,-0.09 0.02,-0.18 0.02,-0.26 0,-0.38 -0.14,-0.47 -0.78,-0.53 v -0.16 h 2.45 z"
         id="path3304" /><path
         style="fill:#000000;stroke-width:0"
         inkscape:connector-curvature="0"
         d="m 235.15,713.6 0,0.02 0,0.02 0,0.03 -0.01,0.02 0,0.02 -0.01,0.02 -0.01,0.02 -0.01,0.02 -0.01,0.01 -0.01,0.02 -0.01,0.02 -0.02,0.02 -0.01,0.01 -0.02,0.02 -0.01,0.01 -0.02,0.02 -0.02,0.01 -0.01,0.01 -0.02,0.01 -0.02,0.01 -0.02,0.01 -0.02,0.01 -0.02,0.01 -0.02,0.01 -0.02,0.01 -0.02,0 -0.02,0.01 -0.02,0 -0.03,0.01 -0.02,0 -0.02,0 -0.02,0 c -0.26,0 -0.38,-0.25 -0.45,-0.46 l -0.73,-2.11 c -0.02,-0.05 -0.07,-0.18 -0.07,-0.24 0,-0.06 0.05,-0.15 0.12,-0.15 0.1,0 0.22,0.15 0.27,0.23 l 1.14,1.8 c 0.1,0.14 0.19,0.34 0.19,0.52 z"
         id="path3306" /><polygon
         style="fill:#000000;stroke-width:0"
         points="238.84,709.96 238.84,709.4 241.1,709.4 241.1,707.12 241.66,707.12 241.66,709.4 243.93,709.4 243.93,709.96 241.66,709.96 241.66,712.2 241.1,712.2 241.1,709.96 "
         id="polygon3308" /><path
         style="fill:#000000;stroke-width:0"
         inkscape:connector-curvature="0"
         d="m 252.63,707.28 -0.05,0.01 -0.05,0 -0.05,0.01 -0.04,0.01 -0.04,0 -0.04,0.01 -0.04,0.01 -0.03,0.01 -0.03,0.01 -0.03,0.01 -0.03,0.01 -0.03,0.02 -0.02,0.01 -0.02,0.02 -0.02,0.02 -0.02,0.02 -0.02,0.02 -0.02,0.03 -0.02,0.02 -0.01,0.03 -0.02,0.03 -0.01,0.04 -0.01,0.04 -0.01,0.04 -0.02,0.04 -0.01,0.04 -0.01,0.05 -0.01,0.06 -0.01,0.02 0,0.03 -0.01,0.03 0,0.03 -0.01,0.03 -0.01,0.03 0,0.03 -0.01,0.04 -0.93,5.62 h -0.26 l -2.89,-4.97 c -0.78,-1.32 -0.88,-1.43 -1.28,-1.51 v -0.16 h 1.86 v 0.16 c -0.51,0.05 -0.59,0.1 -0.59,0.35 0,0.19 0.03,0.28 0.2,0.62 l 0.57,1.12 h 2.19 l -0.05,0.36 h -1.93 l 1.49,2.58 0.44,-2.58 0.05,-0.36 0.2,-1.3 c 0.01,-0.09 0.02,-0.18 0.02,-0.26 0,-0.38 -0.14,-0.47 -0.78,-0.53 v -0.16 h 2.45 z"
         id="path3310" /><path
         style="fill:#000000;stroke-width:0"
         inkscape:connector-curvature="0"
         d="m 253.48,705.37 0.07,0.04 0.06,0.04 0.07,0.05 0.06,0.04 0.06,0.04 0.05,0.03 0.06,0.04 0.05,0.04 0.05,0.04 0.05,0.03 0.05,0.04 0.04,0.03 0.05,0.04 0.04,0.03 0.08,0.07 0.08,0.07 0.07,0.07 0.07,0.07 0.07,0.07 0.07,0.07 0.07,0.08 0.07,0.08 0.06,0.08 c 0.71,0.86 1.06,1.86 1.06,3.02 0,1.27 -0.37,2.23 -1.24,3.25 -0.41,0.47 -0.67,0.69 -1.19,1.01 l -0.12,-0.16 c 0.8,-0.63 1.07,-0.97 1.35,-1.72 0.23,-0.66 0.34,-1.42 0.34,-2.41 0,-1.03 -0.12,-1.86 -0.39,-2.46 -0.28,-0.63 -0.58,-0.99 -1.3,-1.56 z"
         id="path3312" /><path
         style="fill:#000000;stroke-width:0"
         inkscape:connector-curvature="0"
         d="m 256.69,707.12 h 2.81 c 1.56,0 2.63,0.82 2.63,1.99 0,0.37 -0.12,0.72 -0.34,0.94 -0.19,0.22 -0.39,0.34 -0.91,0.56 0.7,0.17 0.99,0.29 1.31,0.57 0.28,0.24 0.43,0.57 0.43,0.97 0,0.94 -0.71,1.46 -1.99,1.46 l -0.18,-0.3 c 0.8,0 1.16,-0.33 1.16,-1.07 0,-0.57 -0.23,-1 -0.66,-1.24 -0.34,-0.2 -0.82,-0.27 -1.71,-0.27 l -0.1,-0.32 c 0.65,0 1.06,-0.04 1.26,-0.12 0.41,-0.17 0.66,-0.6 0.66,-1.14 0,-1.07 -0.74,-1.73 -1.95,-1.73 -0.42,0 -0.64,0.15 -0.64,0.42 0,0.12 0.12,0.6 0.35,1.39 0.13,0.45 0.19,0.68 0.32,1.18 h 0 l 0.1,0.32 0.64,2.31 c 0.06,0.21 0.18,0.27 0.57,0.27 l 0.18,0.3 h -2.57 v -0.16 c 0.62,-0.05 0.77,-0.13 0.77,-0.4 0,-0.15 -0.04,-0.4 -0.11,-0.64 l -1.22,-4.39 c -0.18,-0.58 -0.25,-0.64 -0.81,-0.74 z"
         id="path3314" /></g>    <g
       style="font-style:normal;font-variant:normal;font-weight:normal;font-stretch:normal;letter-spacing:normal;word-spacing:normal;text-anchor:start;fill:none;stroke:#000000;stroke-width:1;stroke-linecap:butt;stroke-linejoin:miter;stroke-miterlimit:10.43299961;stroke-opacity:1;stroke-dasharray:none;stroke-dashoffset:0"
       ns0:preamble="/home/sriranga/Desktop/Prism_BasicElectronics/preamble.tex"
       ns0:text="$Y_1= \\overline{(A\'+A)B}$"
       word-spacing="normal"
       letter-spacing="normal"
       font-size-adjust="none"
       font-stretch="normal"
       font-weight="normal"
       font-variant="normal"
       font-style="normal"
       stroke-miterlimit="10.433"
       xml:space="preserve"
       transform="matrix(1.2,0,0,-1.2,122.56134,1649.289)"
       id="g3433"><path
         id="path3435"
         d="m 224.34,713.45 0.02,0 0.03,0 0.05,-0.01 0.04,-0.01 0.04,-0.01 0.04,0 0.04,-0.01 0.03,-0.01 0.04,-0.01 0.03,-0.01 0.03,0 0.02,-0.01 0.03,-0.02 0.02,-0.01 0.02,-0.01 0.02,-0.01 0.02,-0.02 0.02,-0.02 0.02,-0.01 0.01,-0.02 0.02,-0.03 0.01,-0.02 0.02,-0.02 0.01,-0.03 0.01,-0.03 0.02,-0.03 0.01,-0.04 0.01,-0.03 0.01,-0.04 0.02,-0.04 0.01,-0.05 0.01,-0.02 0.01,-0.02 0.01,-0.03 0,-0.02 0.77,-2.68 -0.61,-2.1 c -0.17,-0.54 -0.38,-0.7 -1.04,-0.74 v -0.16 h 2.87 v 0.16 c -0.16,0.01 -0.29,0.02 -0.35,0.03 -0.39,0.02 -0.53,0.12 -0.53,0.37 0,0.21 0.07,0.51 0.31,1.28 0.03,0.09 0.05,0.16 0.06,0.2 l 0.28,1 2.18,2.69 c 0.32,0.39 0.4,0.46 0.7,0.6 v 0.16 h -1.88 v -0.16 c 0.12,-0.01 0.23,-0.02 0.27,-0.03 0.29,-0.03 0.42,-0.11 0.42,-0.27 0,-0.27 -0.46,-0.92 -1.5,-2.12 -0.17,-0.2 -0.22,-0.28 -0.38,-0.46 -0.11,0.44 -0.14,0.57 -0.3,1.09 -0.25,0.86 -0.36,1.29 -0.36,1.43 0,0.24 0.12,0.3 0.71,0.36 v 0.16 h -2.37 z"
         inkscape:connector-curvature="0"
         style="fill:#000000;stroke-width:0" /><path
         id="path3437"
         d="m 231,710.33 -1.26,-0.63 v -0.1 c 0.09,0.04 0.16,0.06 0.19,0.08 0.13,0.05 0.25,0.08 0.32,0.08 0.14,0 0.2,-0.11 0.2,-0.33 v -3.15 c 0,-0.23 -0.05,-0.39 -0.16,-0.45 -0.11,-0.07 -0.2,-0.09 -0.5,-0.1 v -0.1 h 1.92 v 0.1 c -0.55,0.01 -0.66,0.08 -0.66,0.42 v 4.17 z"
         inkscape:connector-curvature="0"
         style="fill:#000000;stroke-width:0" /><polygon
         id="polygon3439"
         points="236.34,710.4 241.43,710.4 241.43,710.96 236.34,710.96 "
         style="fill:#000000;stroke-width:0" /><polygon
         id="polygon3441"
         points="236.34,708.39 241.43,708.39 241.43,708.94 236.34,708.94 "
         style="fill:#000000;stroke-width:0" /><line
         id="line3443"
         y2="715.73999"
         x2="284.14999"
         y1="715.73999"
         x1="244.83"
         style="stroke-width:0.55800003" /><path
         id="path3445"
         d="m 247.76,713.84 -0.07,-0.04 -0.06,-0.05 -0.06,-0.04 -0.06,-0.04 -0.06,-0.04 -0.06,-0.04 -0.05,-0.04 -0.06,-0.03 -0.05,-0.04 -0.05,-0.04 -0.04,-0.03 -0.05,-0.04 -0.04,-0.03 -0.05,-0.04 -0.08,-0.06 -0.08,-0.07 -0.07,-0.07 -0.07,-0.07 -0.07,-0.07 -0.07,-0.07 -0.07,-0.08 -0.06,-0.08 -0.07,-0.08 c -0.71,-0.87 -1.06,-1.86 -1.06,-3.02 0,-1.26 0.37,-2.24 1.25,-3.25 0.41,-0.48 0.66,-0.7 1.18,-1.01 l 0.12,0.16 c -0.79,0.62 -1.07,0.97 -1.34,1.71 -0.24,0.67 -0.35,1.42 -0.35,2.42 0,1.04 0.13,1.86 0.4,2.47 0.28,0.62 0.57,0.97 1.29,1.55 z"
         inkscape:connector-curvature="0"
         style="fill:#000000;stroke-width:0" /><path
         id="path3447"
         d="m 254.01,707.28 -0.06,0.01 -0.05,0 -0.04,0.01 -0.04,0.01 -0.05,0 -0.03,0.01 -0.04,0.01 -0.03,0.01 -0.04,0.01 -0.03,0.01 -0.02,0.01 -0.03,0.02 -0.02,0.01 -0.03,0.02 -0.02,0.02 -0.02,0.02 -0.02,0.02 -0.01,0.03 -0.02,0.02 -0.01,0.03 -0.02,0.03 -0.01,0.04 -0.02,0.04 -0.01,0.04 -0.01,0.04 -0.01,0.04 -0.01,0.05 -0.01,0.06 -0.01,0.02 -0.01,0.03 0,0.03 -0.01,0.03 0,0.03 -0.01,0.03 0,0.03 -0.01,0.04 -0.94,5.62 h -0.26 l -2.88,-4.97 c -0.79,-1.32 -0.88,-1.43 -1.28,-1.51 v -0.16 h 1.86 v 0.16 c -0.51,0.05 -0.59,0.1 -0.59,0.35 0,0.19 0.03,0.28 0.2,0.62 l 0.57,1.12 h 2.19 l -0.05,0.36 h -1.94 l 1.5,2.58 0.44,-2.58 0.05,-0.36 0.19,-1.3 c 0.01,-0.09 0.02,-0.18 0.02,-0.26 0,-0.38 -0.13,-0.47 -0.77,-0.53 v -0.16 h 2.45 z"
         inkscape:connector-curvature="0"
         style="fill:#000000;stroke-width:0" /><path
         id="path3449"
         d="m 256.55,712.86 0,0.02 0,0.03 -0.01,0.02 0,0.02 -0.01,0.02 -0.01,0.02 0,0.02 -0.01,0.02 -0.01,0.02 -0.02,0.01 -0.01,0.02 -0.01,0.02 -0.02,0.01 -0.01,0.02 -0.02,0.01 -0.01,0.02 -0.02,0.01 -0.02,0.01 -0.02,0.02 -0.02,0.01 -0.02,0.01 -0.02,0.01 -0.02,0 -0.02,0.01 -0.02,0.01 -0.02,0 -0.02,0.01 -0.02,0 -0.02,0.01 -0.02,0 -0.02,0 -0.02,0 c -0.26,0 -0.39,-0.25 -0.46,-0.46 l -0.72,-2.1 c -0.02,-0.06 -0.07,-0.18 -0.07,-0.25 0,-0.06 0.04,-0.14 0.11,-0.14 0.1,0 0.22,0.14 0.27,0.22 l 1.14,1.8 c 0.1,0.15 0.2,0.34 0.2,0.52 z"
         inkscape:connector-curvature="0"
         style="fill:#000000;stroke-width:0" /><polygon
         id="polygon3451"
         points="263.05,712.2 262.5,712.2 262.5,709.96 260.23,709.96 260.23,709.4 262.5,709.4 262.5,707.12 263.05,707.12 263.05,709.4 265.32,709.4 265.32,709.96 263.05,709.96 "
         style="fill:#000000;stroke-width:0" /><path
         id="path3453"
         d="m 274.02,707.28 -0.05,0.01 -0.05,0 -0.04,0.01 -0.05,0.01 -0.04,0 -0.04,0.01 -0.03,0.01 -0.04,0.01 -0.03,0.01 -0.03,0.01 -0.03,0.01 -0.02,0.02 -0.03,0.01 -0.02,0.02 -0.02,0.02 -0.02,0.02 -0.02,0.02 -0.01,0.03 -0.02,0.02 -0.02,0.03 -0.01,0.03 -0.01,0.04 -0.02,0.04 -0.01,0.04 -0.01,0.04 -0.01,0.04 -0.02,0.05 -0.01,0.06 0,0.02 -0.01,0.03 0,0.03 -0.01,0.03 -0.01,0.03 0,0.03 -0.01,0.03 0,0.04 -0.94,5.62 h -0.26 l -2.88,-4.97 c -0.79,-1.32 -0.89,-1.43 -1.29,-1.51 v -0.16 h 1.87 v 0.16 c -0.51,0.05 -0.59,0.1 -0.59,0.35 0,0.19 0.03,0.28 0.2,0.62 l 0.56,1.12 h 2.19 l -0.05,0.36 h -1.93 l 1.49,2.58 0.44,-2.58 0.05,-0.36 0.2,-1.3 c 0.01,-0.09 0.02,-0.18 0.02,-0.26 0,-0.38 -0.14,-0.47 -0.77,-0.53 v -0.16 h 2.44 z"
         inkscape:connector-curvature="0"
         style="fill:#000000;stroke-width:0" /><path
         id="path3455"
         d="m 274.88,705.37 0.06,0.04 0.07,0.04 0.06,0.05 0.06,0.04 0.06,0.04 0.06,0.03 0.05,0.04 0.05,0.04 0.06,0.04 0.04,0.03 0.05,0.04 0.05,0.03 0.04,0.04 0.04,0.03 0.09,0.07 0.07,0.07 0.08,0.07 0.07,0.07 0.07,0.07 0.07,0.07 0.06,0.08 0.07,0.08 0.07,0.08 c 0.71,0.86 1.05,1.86 1.05,3.02 0,1.27 -0.36,2.23 -1.24,3.25 -0.41,0.47 -0.67,0.69 -1.18,1.01 l -0.12,-0.16 c 0.79,-0.63 1.06,-0.97 1.34,-1.72 0.24,-0.66 0.35,-1.42 0.35,-2.41 0,-1.03 -0.13,-1.86 -0.4,-2.46 -0.28,-0.63 -0.58,-0.99 -1.29,-1.56 z"
         inkscape:connector-curvature="0"
         style="fill:#000000;stroke-width:0" /><path
         id="path3457"
         d="m 278.09,707.12 h 2.8 c 1.56,0 2.64,0.82 2.64,1.99 0,0.37 -0.12,0.72 -0.34,0.94 -0.2,0.22 -0.4,0.34 -0.92,0.56 0.71,0.17 1,0.29 1.32,0.57 0.28,0.24 0.43,0.57 0.43,0.97 0,0.94 -0.71,1.46 -1.99,1.46 l -0.18,-0.3 c 0.79,0 1.16,-0.33 1.16,-1.07 0,-0.57 -0.24,-1 -0.66,-1.24 -0.34,-0.2 -0.82,-0.27 -1.72,-0.27 l -0.1,-0.32 c 0.65,0 1.07,-0.04 1.27,-0.12 0.4,-0.17 0.65,-0.6 0.65,-1.14 0,-1.07 -0.73,-1.73 -1.95,-1.73 -0.41,0 -0.63,0.15 -0.63,0.42 0,0.12 0.12,0.6 0.35,1.39 0.13,0.45 0.18,0.68 0.31,1.18 h 0 l 0.1,0.32 0.65,2.31 c 0.06,0.21 0.18,0.27 0.57,0.27 l 0.18,0.3 h -2.57 v -0.16 c 0.62,-0.05 0.77,-0.13 0.77,-0.4 0,-0.15 -0.04,-0.4 -0.11,-0.64 l -1.23,-4.39 c -0.18,-0.58 -0.25,-0.64 -0.8,-0.74 z"
         inkscape:connector-curvature="0"
         style="fill:#000000;stroke-width:0" /></g>    <g
       style="font-style:normal;font-variant:normal;font-weight:normal;font-stretch:normal;letter-spacing:normal;word-spacing:normal;text-anchor:start;fill:none;stroke:#000000;stroke-width:1;stroke-linecap:butt;stroke-linejoin:miter;stroke-miterlimit:10.43299961;stroke-opacity:1;stroke-dasharray:none;stroke-dashoffset:0"
       ns0:preamble="/home/sriranga/Desktop/Prism_BasicElectronics/preamble.tex"
       ns0:text="$B$"
       word-spacing="normal"
       letter-spacing="normal"
       font-size-adjust="none"
       font-stretch="normal"
       font-weight="normal"
       font-variant="normal"
       font-style="normal"
       stroke-miterlimit="10.433"
       xml:space="preserve"
       transform="matrix(1.2,0,0,-1.2,-55.715369,1702.8266)"
       id="g3528"><path
         style="fill:#000000;stroke-width:0"
         inkscape:connector-curvature="0"
         id="path3530"
         d="m 223.7,707.12 h 2.81 c 1.56,0 2.63,0.82 2.63,1.99 0,0.37 -0.12,0.72 -0.34,0.94 -0.19,0.22 -0.39,0.34 -0.91,0.56 0.71,0.17 0.99,0.29 1.31,0.57 0.28,0.24 0.43,0.57 0.43,0.97 0,0.94 -0.7,1.46 -1.99,1.46 l -0.18,-0.3 c 0.8,0 1.17,-0.33 1.17,-1.07 0,-0.57 -0.24,-1 -0.67,-1.24 -0.34,-0.2 -0.82,-0.27 -1.71,-0.27 l -0.1,-0.32 c 0.65,0 1.06,-0.04 1.26,-0.12 0.41,-0.17 0.66,-0.6 0.66,-1.14 0,-1.07 -0.74,-1.73 -1.95,-1.73 -0.42,0 -0.64,0.15 -0.64,0.42 0,0.12 0.12,0.6 0.35,1.39 0.13,0.45 0.19,0.68 0.32,1.18 h 0 l 0.1,0.32 0.65,2.31 c 0.06,0.21 0.17,0.27 0.56,0.27 l 0.18,0.3 h -2.57 v -0.16 c 0.62,-0.05 0.77,-0.13 0.77,-0.4 0,-0.15 -0.04,-0.4 -0.11,-0.64 l -1.22,-4.39 c -0.18,-0.58 -0.25,-0.64 -0.81,-0.74 z" /></g>  </g>
</svg>
