<?xml version="1.0" encoding="UTF-8" standalone="no"?>
<!-- Created with Inkscape (http://www.inkscape.org/) -->

<svg
   xmlns:ns0="http://www.iki.fi/pav/software/textext/"
   xmlns:dc="http://purl.org/dc/elements/1.1/"
   xmlns:cc="http://creativecommons.org/ns#"
   xmlns:rdf="http://www.w3.org/1999/02/22-rdf-syntax-ns#"
   xmlns:svg="http://www.w3.org/2000/svg"
   xmlns="http://www.w3.org/2000/svg"
   xmlns:sodipodi="http://sodipodi.sourceforge.net/DTD/sodipodi-0.dtd"
   xmlns:inkscape="http://www.inkscape.org/namespaces/inkscape"
   width="425.19684"
   height="354.33069"
   id="svg128541"
   version="1.1"
   inkscape:version="0.48.4 r9939"
   sodipodi:docname="figP4.29.eps">
  <sodipodi:namedview
     id="base"
     pagecolor="#ffffff"
     bordercolor="#666666"
     borderopacity="1.0"
     inkscape:pageopacity="0.0"
     inkscape:pageshadow="2"
     inkscape:zoom="2.247516"
     inkscape:cx="216.20425"
     inkscape:cy="211.59828"
     inkscape:document-units="cm"
     inkscape:current-layer="layer1"
     showgrid="false"
     units="cm"
     inkscape:object-nodes="true"
     inkscape:window-width="1366"
     inkscape:window-height="744"
     inkscape:window-x="0"
     inkscape:window-y="24"
     inkscape:window-maximized="1">
    <inkscape:grid
       snapvisiblegridlinesonly="true"
       enabled="true"
       visible="true"
       empspacing="5"
       id="grid128617"
       type="xygrid" />
  </sodipodi:namedview>
  <defs
     id="defs128543" />
  <metadata
     id="metadata128546">
    <rdf:RDF>
      <cc:Work
         rdf:about="">
        <dc:format>image/svg+xml</dc:format>
        <dc:type
           rdf:resource="http://purl.org/dc/dcmitype/StillImage" />
        <dc:title></dc:title>
      </cc:Work>
    </rdf:RDF>
  </metadata>
  <g
     transform="translate(0,-698.03017)"
     id="layer1"
     inkscape:groupmode="layer"
     inkscape:label="Layer 1">
    <path
       sodipodi:nodetypes="cccccccccc"
       id="path24199"
       d="m 115,822.36086 -18.206741,0 -2.37089,5 -3.97603,-10 -3.97604,10 -3.97602,-10 -3.97602,10 -3.97603,-10 -2.47397,5 -27.06826,0"
       style="fill:none;stroke:#000000;stroke-width:1.20000005;stroke-linecap:butt;stroke-linejoin:round;stroke-miterlimit:4;stroke-opacity:1;stroke-dasharray:none"
       inkscape:connector-curvature="0" />
    <path
       style="fill:none;stroke:#000000;stroke-width:1.20000017;stroke-linecap:butt;stroke-linejoin:round;stroke-miterlimit:4;stroke-opacity:1;stroke-dasharray:none;stroke-dashoffset:0"
       d="m 390,852.36086 -50,0"
       id="path3773"
       inkscape:connector-curvature="0" />
    <path
       sodipodi:nodetypes="cccc"
       inkscape:connector-curvature="0"
       id="path3757"
       d="m 305,822.36086 55,30 -55,30 z"
       style="fill:#ffffff;stroke:#000000;stroke-width:1.20000017;stroke-linecap:round;stroke-linejoin:round;stroke-miterlimit:4;stroke-opacity:1;stroke-dasharray:none;stroke-dashoffset:0" />
    <g
       style="font-style:normal;font-variant:normal;font-weight:normal;font-stretch:normal;letter-spacing:normal;word-spacing:normal;text-anchor:start;fill:none;stroke:#000000;stroke-width:1;stroke-linecap:butt;stroke-linejoin:miter;stroke-miterlimit:10.43299961;stroke-opacity:1;stroke-dasharray:none;stroke-dashoffset:0"
       ns0:preamble="/home/sriranga/Desktop/Prism_BasicElectronics/preamble.tex"
       ns0:text="$+$"
       word-spacing="normal"
       letter-spacing="normal"
       font-size-adjust="none"
       font-stretch="normal"
       font-weight="normal"
       font-variant="normal"
       font-style="normal"
       stroke-miterlimit="10.433"
       xml:space="preserve"
       transform="matrix(1.2,0,0,-1.2,40.713287,1719.0963)"
       id="g4099"><polygon
         id="polygon4101"
         points="226.87,712.2 226.32,712.2 226.32,709.96 224.05,709.96 224.05,709.4 226.32,709.4 226.32,707.12 226.87,707.12 226.87,709.4 229.14,709.4 229.14,709.96 226.87,709.96 "
         style="fill:#000000;stroke-width:0" /></g>    <g
       id="g4173"
       transform="matrix(1.2,0,0,-1.2,41.185327,1688.9422)"
       xml:space="preserve"
       stroke-miterlimit="10.433"
       font-style="normal"
       font-variant="normal"
       font-weight="normal"
       font-stretch="normal"
       font-size-adjust="none"
       letter-spacing="normal"
       word-spacing="normal"
       ns0:text="$-$"
       ns0:preamble="/home/sriranga/Desktop/Prism_BasicElectronics/preamble.tex"
       style="font-style:normal;font-variant:normal;font-weight:normal;font-stretch:normal;letter-spacing:normal;word-spacing:normal;text-anchor:start;fill:none;stroke:#000000;stroke-width:1;stroke-linecap:butt;stroke-linejoin:miter;stroke-miterlimit:10.43299961;stroke-opacity:1;stroke-dasharray:none;stroke-dashoffset:0"><polygon
         style="fill:#000000;stroke-width:0"
         points="229.14,709.4 229.14,709.96 224.05,709.96 224.05,709.4 "
         id="polygon4175" /></g>    <path
       id="path23950-8"
       d="m 280.57763,880.93106 0,16 -7,0 14,0"
       style="fill:none;stroke:#000000;stroke-width:1.20000005;stroke-linecap:butt;stroke-linejoin:miter;stroke-miterlimit:4;stroke-opacity:1;stroke-dasharray:none"
       sodipodi:nodetypes="cccc"
       inkscape:connector-curvature="0" />
    <path
       id="path23952-2"
       d="m 275.73874,899.92386 9.67778,0"
       style="fill:none;stroke:#000000;stroke-width:0.69999999;stroke-linecap:butt;stroke-linejoin:miter;stroke-miterlimit:4;stroke-opacity:1;stroke-dasharray:none"
       sodipodi:nodetypes="cc"
       inkscape:connector-curvature="0" />
    <path
       id="path23954-9"
       d="m 278.73086,904.93106 3.69354,0"
       style="fill:none;stroke:#000000;stroke-width:0.69999999;stroke-linecap:butt;stroke-linejoin:miter;stroke-miterlimit:4;stroke-opacity:1;stroke-dasharray:none"
       sodipodi:nodetypes="cc"
       inkscape:connector-curvature="0" />
    <path
       inkscape:connector-curvature="0"
       sodipodi:nodetypes="cc"
       style="fill:none;stroke:#000000;stroke-width:0.69999999;stroke-linecap:butt;stroke-linejoin:miter;stroke-miterlimit:4;stroke-opacity:1;stroke-dasharray:none"
       d="m 277.05345,902.31606 7.04836,0"
       id="path24491-0" />
    <path
       sodipodi:nodetypes="ccc"
       style="fill:none;stroke:#000000;stroke-width:1.20000005;stroke-linecap:round;stroke-linejoin:round;stroke-miterlimit:4;stroke-opacity:1;stroke-dasharray:none;stroke-dashoffset:0"
       d="m 305.57763,867.36086 -25,0 0,15"
       id="path33367"
       inkscape:connector-curvature="0" />
    <path
       inkscape:connector-curvature="0"
       style="fill:none;stroke:#000000;stroke-width:1.20000005;stroke-linecap:butt;stroke-linejoin:round;stroke-miterlimit:4;stroke-opacity:1;stroke-dasharray:none"
       d="m 280,807.36086 35,0 2.37089,-5 3.97602,10 3.97604,-10 3.97603,10 3.97602,-10 3.97602,10 2.47398,-5 21.72602,0"
       id="path33369"
       sodipodi:nodetypes="cccccccccc" />
    <path
       sodipodi:nodetypes="ccc"
       style="fill:none;stroke:#000000;stroke-width:1.20000005;stroke-linecap:round;stroke-linejoin:round;stroke-miterlimit:4;stroke-opacity:1;stroke-dasharray:none;stroke-dashoffset:0"
       d="m 375,852.36086 0,-45 -30,0"
       id="path33371"
       inkscape:connector-curvature="0" />
    <path
       inkscape:connector-curvature="0"
       id="path4873"
       d="m 305,807.36086 -25,0 0,50"
       style="fill:none;stroke:#000000;stroke-width:1.20000005;stroke-linecap:round;stroke-linejoin:round;stroke-miterlimit:4;stroke-opacity:1;stroke-dasharray:none;stroke-dashoffset:0"
       sodipodi:nodetypes="ccc" />
    <path
       inkscape:connector-curvature="0"
       style="fill:none;stroke:#000000;stroke-width:1.20000005;stroke-linecap:butt;stroke-linejoin:round;stroke-miterlimit:4;stroke-opacity:1;stroke-dasharray:none"
       d="m 305,837.36086 -46.08237,0 -2.29979,5 -3.85679,-10 -3.85681,10 -3.85678,-10 -3.85679,10 -3.8568,-10 -2.39978,5 -24.51704,0"
       id="path31016"
       sodipodi:nodetypes="cccccccccc" />
    <g
       id="g78019"
       transform="matrix(1.2,0,0,-1.2,125.73577,1704.6826)"
       xml:space="preserve"
       stroke-miterlimit="10.433"
       font-style="normal"
       font-variant="normal"
       font-weight="normal"
       font-stretch="normal"
       font-size-adjust="none"
       letter-spacing="normal"
       word-spacing="normal"
       ns0:text="$V_0$"
       ns0:preamble="/home/sriranga/Desktop/Prism_BasicElectronics/preamble.tex"
       style="font-style:normal;font-variant:normal;font-weight:normal;font-stretch:normal;letter-spacing:normal;word-spacing:normal;text-anchor:start;fill:none;stroke:#000000;stroke-width:1;stroke-linecap:butt;stroke-linejoin:miter;stroke-miterlimit:10.43299961;stroke-opacity:1;stroke-dasharray:none;stroke-dashoffset:0"><path
         style="fill:#000000;stroke-width:0"
         inkscape:connector-curvature="0"
         d="m 230.28,713.61 h -1.85 v -0.16 c 0.44,-0.05 0.62,-0.15 0.62,-0.34 0,-0.18 -0.19,-0.61 -0.51,-1.18 l -2.05,-3.53 -0.66,4.4 c -0.01,0.05 -0.01,0.09 -0.01,0.15 0,0.33 0.14,0.43 0.77,0.5 v 0.16 h -2.4 v -0.16 c 0.55,-0.07 0.57,-0.1 0.78,-1.34 l 0.85,-5.16 h 0.19 l 3.71,6.1 c 0.17,0.27 0.33,0.39 0.56,0.4 z"
         id="path78021" /><path
         style="fill:#000000;stroke-width:0"
         inkscape:connector-curvature="0"
         d="m 231.29,710.33 -0.04,0 -0.03,0 -0.04,0 -0.03,0 -0.04,-0.01 -0.03,0 -0.03,-0.01 -0.03,0 -0.04,-0.01 -0.03,0 -0.03,-0.01 -0.03,-0.01 -0.03,-0.01 -0.03,-0.01 -0.03,-0.01 -0.03,-0.01 -0.02,-0.01 -0.03,-0.01 -0.03,-0.01 -0.03,-0.02 -0.03,-0.01 -0.02,-0.02 -0.03,-0.01 -0.02,-0.02 -0.03,-0.02 -0.03,-0.02 -0.02,-0.02 -0.03,-0.01 -0.02,-0.02 -0.03,-0.03 -0.02,-0.02 -0.03,-0.02 c -0.4,-0.39 -0.66,-1.19 -0.66,-2 0,-0.76 0.23,-1.57 0.55,-1.96 0.26,-0.31 0.62,-0.48 1.02,-0.48 v 0.18 c -0.6,0 -0.91,0.75 -0.91,2.2 0,1.47 0.32,2.24 0.92,2.24 h 0 c 0.58,0 0.89,-0.79 0.89,-2.24 0,-1.45 -0.3,-2.2 -0.9,-2.2 v -0.18 c 0.36,0 0.65,0.12 0.9,0.37 0.41,0.38 0.67,1.18 0.67,2.03 0,1.42 -0.63,2.4 -1.54,2.4 z"
         id="path78023" /></g>    <path
       sodipodi:nodetypes="cccccccccc"
       id="path83654"
       d="m 280,857.36086 -20,0 -2.29979,5.41705 -3.85679,-10 -3.85681,10 -3.85678,-10 -3.85679,10 -3.8568,-10 -2.39978,5 -21.01646,0"
       style="fill:none;stroke:#000000;stroke-width:1.20000005;stroke-linecap:butt;stroke-linejoin:round;stroke-miterlimit:4;stroke-opacity:1;stroke-dasharray:none"
       inkscape:connector-curvature="0" />
    <path
       inkscape:connector-curvature="0"
       id="path83656"
       d="m 225,837.36086 -50,0"
       style="fill:none;stroke:#000000;stroke-width:1.20000017;stroke-linecap:butt;stroke-linejoin:round;stroke-miterlimit:4;stroke-opacity:1;stroke-dasharray:none;stroke-dashoffset:0" />
    <path
       style="fill:#ffffff;stroke:#000000;stroke-width:1.20000017;stroke-linecap:round;stroke-linejoin:round;stroke-miterlimit:4;stroke-opacity:1;stroke-dasharray:none;stroke-dashoffset:0"
       d="m 140,807.36086 55,30 -55,30 z"
       id="path83658"
       inkscape:connector-curvature="0"
       sodipodi:nodetypes="cccc" />
    <g
       id="g83660"
       transform="matrix(1.2,0,0,-1.2,-124.28671,1704.0963)"
       xml:space="preserve"
       stroke-miterlimit="10.433"
       font-style="normal"
       font-variant="normal"
       font-weight="normal"
       font-stretch="normal"
       font-size-adjust="none"
       letter-spacing="normal"
       word-spacing="normal"
       ns0:text="$+$"
       ns0:preamble="/home/sriranga/Desktop/Prism_BasicElectronics/preamble.tex"
       style="font-style:normal;font-variant:normal;font-weight:normal;font-stretch:normal;letter-spacing:normal;word-spacing:normal;text-anchor:start;fill:none;stroke:#000000;stroke-width:1;stroke-linecap:butt;stroke-linejoin:miter;stroke-miterlimit:10.43299961;stroke-opacity:1;stroke-dasharray:none;stroke-dashoffset:0"><polygon
         style="fill:#000000;stroke-width:0"
         points="224.05,709.96 224.05,709.4 226.32,709.4 226.32,707.12 226.87,707.12 226.87,709.4 229.14,709.4 229.14,709.96 226.87,709.96 226.87,712.2 226.32,712.2 226.32,709.96 "
         id="polygon83662" /></g>    <g
       style="font-style:normal;font-variant:normal;font-weight:normal;font-stretch:normal;letter-spacing:normal;word-spacing:normal;text-anchor:start;fill:none;stroke:#000000;stroke-width:1;stroke-linecap:butt;stroke-linejoin:miter;stroke-miterlimit:10.43299961;stroke-opacity:1;stroke-dasharray:none;stroke-dashoffset:0"
       ns0:preamble="/home/sriranga/Desktop/Prism_BasicElectronics/preamble.tex"
       ns0:text="$-$"
       word-spacing="normal"
       letter-spacing="normal"
       font-size-adjust="none"
       font-stretch="normal"
       font-weight="normal"
       font-variant="normal"
       font-style="normal"
       stroke-miterlimit="10.433"
       xml:space="preserve"
       transform="matrix(1.2,0,0,-1.2,-123.81467,1673.9422)"
       id="g83664"><polygon
         id="polygon83666"
         points="224.05,709.4 229.14,709.4 229.14,709.96 224.05,709.96 "
         style="fill:#000000;stroke-width:0" /></g>    <path
       sodipodi:nodetypes="cccccccccc"
       id="path83668"
       d="m 120,792.36086 35,0 2.37089,-5 3.97602,10 3.97604,-10 3.97603,10 3.97602,-10 3.97602,10 2.47398,-5 21.72602,0"
       style="fill:none;stroke:#000000;stroke-width:1.20000005;stroke-linecap:butt;stroke-linejoin:round;stroke-miterlimit:4;stroke-opacity:1;stroke-dasharray:none"
       inkscape:connector-curvature="0" />
    <path
       inkscape:connector-curvature="0"
       id="path83670"
       d="m 215,837.36086 0,-45 -30,0"
       style="fill:none;stroke:#000000;stroke-width:1.20000005;stroke-linecap:round;stroke-linejoin:round;stroke-miterlimit:4;stroke-opacity:1;stroke-dasharray:none;stroke-dashoffset:0"
       sodipodi:nodetypes="ccc" />
    <path
       sodipodi:nodetypes="cccc"
       style="fill:none;stroke:#000000;stroke-width:1.20000005;stroke-linecap:round;stroke-linejoin:round;stroke-miterlimit:4;stroke-opacity:1;stroke-dasharray:none;stroke-dashoffset:0"
       d="m 140,822.36086 -25,0 0,-30 5,0"
       id="path83672"
       inkscape:connector-curvature="0" />
    <path
       inkscape:connector-curvature="0"
       sodipodi:nodetypes="cccc"
       style="fill:none;stroke:#000000;stroke-width:1.20000005;stroke-linecap:butt;stroke-linejoin:miter;stroke-miterlimit:4;stroke-opacity:1;stroke-dasharray:none"
       d="m 115,865.93106 0,16 -7,0 14,0"
       id="path83674" />
    <path
       inkscape:connector-curvature="0"
       sodipodi:nodetypes="cc"
       style="fill:none;stroke:#000000;stroke-width:0.69999999;stroke-linecap:butt;stroke-linejoin:miter;stroke-miterlimit:4;stroke-opacity:1;stroke-dasharray:none"
       d="m 110.16111,884.92386 9.67778,0"
       id="path83676" />
    <path
       inkscape:connector-curvature="0"
       sodipodi:nodetypes="cc"
       style="fill:none;stroke:#000000;stroke-width:0.69999999;stroke-linecap:butt;stroke-linejoin:miter;stroke-miterlimit:4;stroke-opacity:1;stroke-dasharray:none"
       d="m 113.15323,889.93106 3.69354,0"
       id="path83678" />
    <path
       id="path83680"
       d="m 111.47582,887.31606 7.04836,0"
       style="fill:none;stroke:#000000;stroke-width:0.69999999;stroke-linecap:butt;stroke-linejoin:miter;stroke-miterlimit:4;stroke-opacity:1;stroke-dasharray:none"
       sodipodi:nodetypes="cc"
       inkscape:connector-curvature="0" />
    <path
       inkscape:connector-curvature="0"
       id="path83682"
       d="m 140,852.36086 -25,0 0,15"
       style="fill:none;stroke:#000000;stroke-width:1.20000005;stroke-linecap:round;stroke-linejoin:round;stroke-miterlimit:4;stroke-opacity:1;stroke-dasharray:none;stroke-dashoffset:0"
       sodipodi:nodetypes="ccc" />
    <path
       d="m 52.15,108.46457 c 0,1.18741 -0.962588,2.15 -2.15,2.15 -1.187412,0 -2.15,-0.96259 -2.15,-2.15 0,-1.18741 0.962588,-2.15 2.15,-2.15 1.187412,0 2.15,0.96259 2.15,2.15 z"
       sodipodi:ry="2.1500001"
       sodipodi:rx="2.1500001"
       sodipodi:cy="108.46457"
       sodipodi:cx="50"
       style="fill:#000000;stroke:none"
       id="path83684"
       sodipodi:type="arc"
       transform="translate(-5.0000013,713.89629)" />
    <path
       d="m 222.15,143.88162 c 0,1.18741 -0.96259,2.15 -2.15,2.15 -1.18741,0 -2.15,-0.96259 -2.15,-2.15 0,-1.18741 0.96259,-2.15 2.15,-2.15 1.18741,0 2.15,0.96259 2.15,2.15 z"
       sodipodi:ry="2.1500001"
       sodipodi:rx="2.1500001"
       sodipodi:cy="143.88162"
       sodipodi:cx="220"
       style="fill:#000000;stroke:none"
       id="path83686"
       sodipodi:type="arc"
       transform="translate(-5.0000013,713.89629)" />
    <path
       d="m 397.15,138.46457 c 0,1.18741 -0.96259,2.15 -2.15,2.15 -1.18741,0 -2.15,-0.96259 -2.15,-2.15 0,-1.18741 0.96259,-2.15 2.15,-2.15 1.18741,0 2.15,0.96259 2.15,2.15 z"
       sodipodi:ry="2.1500001"
       sodipodi:rx="2.1500001"
       sodipodi:cy="138.46457"
       sodipodi:cx="395"
       style="fill:#000000;stroke:none"
       id="path83690"
       sodipodi:type="arc"
       transform="translate(-5.0000013,713.89629)" />
    <g
       style="font-style:normal;font-variant:normal;font-weight:normal;font-stretch:normal;letter-spacing:normal;word-spacing:normal;text-anchor:start;fill:none;stroke:#000000;stroke-width:1;stroke-linecap:butt;stroke-linejoin:miter;stroke-miterlimit:10.43299961;stroke-opacity:1;stroke-dasharray:none;stroke-dashoffset:0"
       ns0:preamble="/home/sriranga/Desktop/Prism_BasicElectronics/preamble.tex"
       ns0:text="$V_1$"
       word-spacing="normal"
       letter-spacing="normal"
       font-size-adjust="none"
       font-stretch="normal"
       font-weight="normal"
       font-variant="normal"
       font-style="normal"
       stroke-miterlimit="10.433"
       xml:space="preserve"
       transform="matrix(1.2,0,0,-1.2,-241.75127,1674.948)"
       id="g89299"><path
         id="path89301"
         d="m 230.28,713.61 h -1.85 v -0.16 c 0.44,-0.05 0.62,-0.15 0.62,-0.34 0,-0.18 -0.19,-0.61 -0.51,-1.18 l -2.05,-3.53 -0.66,4.4 c -0.01,0.05 -0.01,0.09 -0.01,0.15 0,0.33 0.14,0.43 0.77,0.5 v 0.16 h -2.4 v -0.16 c 0.55,-0.07 0.57,-0.1 0.78,-1.34 l 0.85,-5.16 h 0.19 l 3.71,6.1 c 0.17,0.27 0.33,0.39 0.56,0.4 z"
         inkscape:connector-curvature="0"
         style="fill:#000000;stroke-width:0" /><path
         id="path89303"
         d="m 231.55,710.33 -1.26,-0.63 v -0.1 c 0.09,0.04 0.16,0.06 0.19,0.08 0.12,0.05 0.24,0.08 0.31,0.08 0.15,0 0.21,-0.11 0.21,-0.33 v -3.15 c 0,-0.23 -0.05,-0.39 -0.16,-0.45 -0.11,-0.07 -0.21,-0.09 -0.5,-0.1 v -0.1 h 1.92 v 0.1 c -0.55,0.01 -0.66,0.08 -0.66,0.42 v 4.17 z"
         inkscape:connector-curvature="0"
         style="fill:#000000;stroke-width:0" /></g>    <g
       id="content"
       transform="matrix(1.2,0,0,-1.2,-113.81504,1632.9361)"
       xml:space="preserve"
       stroke-miterlimit="10.433"
       font-style="normal"
       font-variant="normal"
       font-weight="normal"
       font-stretch="normal"
       font-size-adjust="none"
       letter-spacing="normal"
       word-spacing="normal"
       ns0:text="$10\\, k \\Omega$"
       ns0:preamble="/home/sriranga/Desktop/Prism_BasicElectronics/preamble.tex"
       style="font-style:normal;font-variant:normal;font-weight:normal;font-stretch:normal;letter-spacing:normal;word-spacing:normal;text-anchor:start;fill:none;stroke:#000000;stroke-width:1;stroke-linecap:butt;stroke-linejoin:miter;stroke-miterlimit:10.43299961;stroke-opacity:1;stroke-dasharray:none;stroke-dashoffset:0"><path
         style="fill:#000000;stroke-width:0"
         inkscape:connector-curvature="0"
         d="m 226.33,713.84 -1.79,-0.9 v -0.14 c 0.12,0.05 0.22,0.09 0.26,0.11 0.18,0.07 0.35,0.11 0.45,0.11 0.21,0 0.3,-0.15 0.3,-0.47 v -4.5 c 0,-0.33 -0.08,-0.56 -0.24,-0.65 -0.15,-0.09 -0.29,-0.12 -0.7,-0.13 v -0.15 h 2.74 v 0.15 c -0.78,0.01 -0.94,0.11 -0.94,0.59 v 5.96 z"
         id="path100516" /><path
         style="fill:#000000;stroke-width:0"
         inkscape:connector-curvature="0"
         d="m 230.94,713.84 -0.05,0 -0.05,0 -0.05,0 -0.05,-0.01 -0.05,0 -0.04,-0.01 -0.05,0 -0.05,-0.01 -0.04,-0.01 -0.05,-0.01 -0.04,-0.01 -0.05,-0.01 -0.04,-0.01 -0.04,-0.02 -0.04,-0.01 -0.04,-0.02 -0.04,-0.01 -0.04,-0.02 -0.04,-0.02 -0.04,-0.02 -0.04,-0.02 -0.04,-0.02 -0.04,-0.03 -0.04,-0.02 -0.03,-0.02 -0.04,-0.03 -0.04,-0.03 -0.03,-0.02 -0.04,-0.03 -0.03,-0.03 -0.04,-0.03 -0.03,-0.04 c -0.58,-0.55 -0.96,-1.7 -0.96,-2.86 0,-1.08 0.33,-2.24 0.8,-2.8 0.37,-0.44 0.87,-0.67 1.45,-0.67 v 0.25 c -0.86,0 -1.29,1.07 -1.29,3.13 0,2.11 0.44,3.21 1.3,3.21 h 0 c 0.84,0 1.28,-1.12 1.28,-3.2 0,-2.07 -0.43,-3.14 -1.29,-3.14 v -0.25 c 0.51,0 0.94,0.17 1.29,0.51 0.58,0.55 0.96,1.7 0.96,2.9 0,2.04 -0.91,3.44 -2.21,3.44 z"
         id="path100518" /><path
         style="fill:#000000;stroke-width:0"
         inkscape:connector-curvature="0"
         d="m 239.17,708.21 -0.15,-0.26 c -0.17,-0.31 -0.29,-0.42 -0.44,-0.42 -0.21,0 -0.42,0.33 -0.81,1.28 -0.05,0.13 -0.2,0.49 -0.37,0.88 1.47,1.3 1.77,1.5 2.24,1.53 v 0.16 h -1.82 v -0.16 h 0.16 c 0.25,0 0.39,-0.07 0.39,-0.18 0,-0.2 -0.5,-0.69 -1.42,-1.39 -0.14,-0.11 -0.26,-0.21 -0.43,-0.33 l 1.19,4.54 -0.05,0.05 c -0.59,-0.13 -0.96,-0.2 -1.55,-0.27 v -0.16 c 0.48,0.01 0.67,-0.06 0.68,-0.25 -0.02,-0.16 -0.09,-0.43 -0.22,-0.89 -0.04,-0.14 -0.07,-0.25 -0.09,-0.33 l -0.02,-0.09 -1.27,-4.8 h 0.75 l 0.48,1.79 0.42,0.32 c 0.15,-0.44 0.41,-1.04 0.59,-1.4 0.32,-0.63 0.5,-0.81 0.79,-0.81 0.4,0 0.66,0.24 1.1,1.08 z"
         id="path100520" /><path
         style="fill:#000000;stroke-width:0"
         inkscape:connector-curvature="0"
         d="m 246.75,707.12 v 1.53 h -0.18 c -0.02,-0.51 -0.31,-0.62 -0.76,-0.62 h -1.36 l 0.05,0.33 c 1.27,0.36 2.02,1.35 2.02,2.67 0,1.8 -1.45,2.82 -3.14,2.82 -1.68,0 -3.2,-1.07 -3.2,-2.86 0,-1.21 0.8,-2.4 2.05,-2.63 l 0.01,-0.33 h -1.33 c -0.48,0 -0.76,0.1 -0.79,0.62 h -0.18 v -1.53 h 2.72 l -0.1,1.47 c -1.02,0.37 -1.24,1.4 -1.24,2.38 0,1.22 0.66,2.53 2.04,2.53 1.43,0 2.05,-1.36 2.05,-2.6 0,-0.95 -0.23,-1.99 -1.26,-2.31 l -0.12,-1.47 z"
         id="path100522" /></g>    <g
       style="font-style:normal;font-variant:normal;font-weight:normal;font-stretch:normal;letter-spacing:normal;word-spacing:normal;text-anchor:start;fill:none;stroke:#000000;stroke-width:1;stroke-linecap:butt;stroke-linejoin:miter;stroke-miterlimit:10.43299961;stroke-opacity:1;stroke-dasharray:none;stroke-dashoffset:0"
       ns0:preamble="/home/sriranga/Desktop/Prism_BasicElectronics/preamble.tex"
       ns0:text="$V_2$"
       word-spacing="normal"
       letter-spacing="normal"
       font-size-adjust="none"
       font-stretch="normal"
       font-weight="normal"
       font-variant="normal"
       font-style="normal"
       stroke-miterlimit="10.433"
       xml:space="preserve"
       transform="matrix(1.2,0,0,-1.2,-68.484225,1709.0634)"
       id="g111718"><path
         id="path111720"
         d="m 230.28,713.61 h -1.85 v -0.16 c 0.44,-0.05 0.62,-0.15 0.62,-0.34 0,-0.18 -0.19,-0.61 -0.51,-1.18 l -2.05,-3.53 -0.66,4.4 c -0.01,0.05 -0.01,0.09 -0.01,0.15 0,0.33 0.14,0.43 0.77,0.5 v 0.16 h -2.4 v -0.16 c 0.55,-0.07 0.57,-0.1 0.78,-1.34 l 0.85,-5.16 h 0.19 l 3.71,6.1 c 0.17,0.27 0.33,0.39 0.56,0.4 z"
         inkscape:connector-curvature="0"
         style="fill:#000000;stroke-width:0" /><path
         id="path111722"
         d="m 232.83,706.58 -0.09,0.04 c -0.26,-0.4 -0.35,-0.46 -0.67,-0.46 h -1.66 l 1.17,1.22 c 0.62,0.65 0.89,1.18 0.89,1.72 0,0.7 -0.56,1.23 -1.29,1.23 -0.38,0 -0.74,-0.15 -1,-0.43 -0.22,-0.24 -0.33,-0.46 -0.44,-0.95 l 0.14,-0.04 c 0.28,0.68 0.53,0.91 1.01,0.91 0.59,0 0.98,-0.4 0.98,-0.98 0,-0.55 -0.32,-1.19 -0.9,-1.81 l -1.24,-1.32 v -0.08 h 2.71 z"
         inkscape:connector-curvature="0"
         style="fill:#000000;stroke-width:0" /></g>    <g
       style="font-style:normal;font-variant:normal;font-weight:normal;font-stretch:normal;letter-spacing:normal;word-spacing:normal;text-anchor:start;fill:none;stroke:#000000;stroke-width:1;stroke-linecap:butt;stroke-linejoin:miter;stroke-miterlimit:10.43299961;stroke-opacity:1;stroke-dasharray:none;stroke-dashoffset:0"
       ns0:preamble="/home/sriranga/Desktop/Prism_BasicElectronics/preamble.tex"
       ns0:text="$V_0$"
       word-spacing="normal"
       letter-spacing="normal"
       font-size-adjust="none"
       font-stretch="normal"
       font-weight="normal"
       font-variant="normal"
       font-style="normal"
       stroke-miterlimit="10.433"
       xml:space="preserve"
       transform="matrix(1.2,0,0,-1.2,-52.79468,1683.0785)"
       id="g117311"><path
         id="path117313"
         d="m 230.28,713.61 h -1.85 v -0.16 c 0.44,-0.05 0.62,-0.15 0.62,-0.34 0,-0.18 -0.19,-0.61 -0.51,-1.18 l -2.05,-3.53 -0.66,4.4 c -0.01,0.05 -0.01,0.09 -0.01,0.15 0,0.33 0.14,0.43 0.77,0.5 v 0.16 h -2.4 v -0.16 c 0.55,-0.07 0.57,-0.1 0.78,-1.34 l 0.85,-5.16 h 0.19 l 3.71,6.1 c 0.17,0.27 0.33,0.39 0.56,0.4 z"
         inkscape:connector-curvature="0"
         style="fill:#000000;stroke-width:0" /><path
         id="path117315"
         d="m 231.29,710.33 -0.04,0 -0.03,0 -0.04,0 -0.03,0 -0.04,-0.01 -0.03,0 -0.03,-0.01 -0.03,0 -0.04,-0.01 -0.03,0 -0.03,-0.01 -0.03,-0.01 -0.03,-0.01 -0.03,-0.01 -0.03,-0.01 -0.03,-0.01 -0.02,-0.01 -0.03,-0.01 -0.03,-0.01 -0.03,-0.02 -0.03,-0.01 -0.02,-0.02 -0.03,-0.01 -0.02,-0.02 -0.03,-0.02 -0.03,-0.02 -0.02,-0.02 -0.03,-0.01 -0.02,-0.02 -0.03,-0.03 -0.02,-0.02 -0.03,-0.02 c -0.4,-0.39 -0.66,-1.19 -0.66,-2 0,-0.76 0.23,-1.57 0.55,-1.96 0.26,-0.31 0.62,-0.48 1.02,-0.48 v 0.18 c -0.6,0 -0.91,0.75 -0.91,2.2 0,1.47 0.32,2.24 0.92,2.24 h 0 c 0.58,0 0.89,-0.79 0.89,-2.24 0,-1.45 -0.3,-2.2 -0.9,-2.2 v -0.18 c 0.36,0 0.65,0.12 0.9,0.37 0.41,0.38 0.67,1.18 0.67,2.03 0,1.42 -0.63,2.4 -1.54,2.4 z"
         inkscape:connector-curvature="0"
         style="fill:#000000;stroke-width:0" /></g>    <g
       id="g122939"
       transform="matrix(1.2,0,0,-1.2,-33.747963,1677.5431)"
       xml:space="preserve"
       stroke-miterlimit="10.433"
       font-style="normal"
       font-variant="normal"
       font-weight="normal"
       font-stretch="normal"
       font-size-adjust="none"
       letter-spacing="normal"
       word-spacing="normal"
       ns0:text="$5\\, k \\Omega$"
       ns0:preamble="/home/sriranga/Desktop/Prism_BasicElectronics/preamble.tex"
       style="font-style:normal;font-variant:normal;font-weight:normal;font-stretch:normal;letter-spacing:normal;word-spacing:normal;text-anchor:start;fill:none;stroke:#000000;stroke-width:1;stroke-linecap:butt;stroke-linejoin:miter;stroke-miterlimit:10.43299961;stroke-opacity:1;stroke-dasharray:none;stroke-dashoffset:0"><path
         d="m 225.23,712.92 h 1.95 c 0.16,0 0.2,0.02 0.23,0.09 l 0.38,0.88 -0.09,0.07 c -0.15,-0.21 -0.25,-0.26 -0.46,-0.26 h -2.08 l -1.08,-2.35 c -0.01,-0.02 -0.01,-0.03 -0.01,-0.05 0,-0.05 0.04,-0.08 0.12,-0.08 0.32,0 0.71,-0.07 1.12,-0.2 1.15,-0.37 1.67,-0.98 1.67,-1.97 0,-0.95 -0.6,-1.7 -1.38,-1.7 -0.2,0 -0.37,0.07 -0.67,0.29 -0.31,0.23 -0.54,0.33 -0.75,0.33 -0.29,0 -0.43,-0.12 -0.43,-0.37 0,-0.38 0.47,-0.61 1.21,-0.61 0.84,0 1.56,0.26 2.05,0.77 0.46,0.45 0.67,1.01 0.67,1.77 0,0.71 -0.19,1.17 -0.69,1.67 -0.43,0.44 -1,0.66 -2.17,0.87 z"
         id="path122941"
         inkscape:connector-curvature="0"
         style="fill:#000000;stroke-width:0" /><path
         d="m 234.19,708.21 -0.15,-0.26 c -0.17,-0.31 -0.3,-0.42 -0.44,-0.42 -0.21,0 -0.42,0.33 -0.81,1.28 -0.05,0.13 -0.2,0.49 -0.37,0.88 1.46,1.3 1.77,1.5 2.24,1.53 v 0.16 h -1.82 v -0.16 H 233 c 0.25,0 0.39,-0.07 0.39,-0.18 0,-0.2 -0.5,-0.69 -1.43,-1.39 -0.14,-0.11 -0.25,-0.21 -0.42,-0.33 l 1.19,4.54 -0.05,0.05 c -0.59,-0.13 -0.96,-0.2 -1.55,-0.27 v -0.16 c 0.48,0.01 0.66,-0.06 0.67,-0.25 -0.01,-0.16 -0.08,-0.43 -0.21,-0.89 -0.04,-0.14 -0.07,-0.25 -0.09,-0.33 l -0.02,-0.09 -1.27,-4.8 h 0.75 l 0.48,1.79 0.41,0.32 c 0.16,-0.44 0.42,-1.04 0.6,-1.4 0.32,-0.63 0.5,-0.81 0.79,-0.81 0.4,0 0.66,0.24 1.1,1.08 z"
         id="path122943"
         inkscape:connector-curvature="0"
         style="fill:#000000;stroke-width:0" /><path
         d="m 241.77,707.12 v 1.53 h -0.18 c -0.02,-0.51 -0.31,-0.62 -0.76,-0.62 h -1.36 l 0.05,0.33 c 1.27,0.36 2.02,1.35 2.02,2.67 0,1.8 -1.45,2.82 -3.14,2.82 -1.68,0 -3.2,-1.07 -3.2,-2.86 0,-1.21 0.8,-2.4 2.04,-2.63 l 0.01,-0.33 h -1.32 c -0.48,0 -0.76,0.1 -0.8,0.62 h -0.17 v -1.53 h 2.72 l -0.1,1.47 c -1.02,0.37 -1.24,1.4 -1.24,2.38 0,1.22 0.65,2.53 2.04,2.53 1.43,0 2.05,-1.36 2.05,-2.6 0,-0.95 -0.23,-1.99 -1.26,-2.31 l -0.13,-1.47 z"
         id="path122945"
         inkscape:connector-curvature="0"
         style="fill:#000000;stroke-width:0" /></g>    <g
       style="font-style:normal;font-variant:normal;font-weight:normal;font-stretch:normal;letter-spacing:normal;word-spacing:normal;text-anchor:start;fill:none;stroke:#000000;stroke-width:1;stroke-linecap:butt;stroke-linejoin:miter;stroke-miterlimit:10.43299961;stroke-opacity:1;stroke-dasharray:none;stroke-dashoffset:0"
       ns0:preamble="/home/sriranga/Desktop/Prism_BasicElectronics/preamble.tex"
       ns0:text="$2\\, k \\Omega$"
       text-anchor="start"
       word-spacing="normal"
       letter-spacing="normal"
       font-size-adjust="none"
       font-stretch="normal"
       font-weight="normal"
       font-variant="normal"
       font-style="normal"
       fill-opacity="1"
       fill-rule="evenodd"
       fill="none"
       stroke-opacity="1"
       stroke-dashoffset="0"
       stroke-dasharray="none"
       stroke-miterlimit="10.433"
       stroke-linejoin="miter"
       stroke-linecap="butt"
       stroke="black"
       xml:space="preserve"
       transform="matrix(1.2,0,0,-1.2,-33.747963,1720.5732)"
       id="g128812"><path
         id="path128814"
         fill="black"
         stroke-width="0"
         d="M228.16,708.49 L228.03,708.54 C227.66,707.97,227.53,707.88,227.08,707.88 H224.71 L226.38,709.63 C227.26,710.55,227.65,711.31,227.65,712.08 C227.65,713.08,226.85,713.84,225.81,713.84 C225.26,713.84,224.74,713.62,224.38,713.22 C224.06,712.89,223.91,712.57,223.74,711.86 L223.95,711.81 C224.35,712.79,224.71,713.1,225.39,713.1 C226.23,713.1,226.79,712.54,226.79,711.71 C226.79,710.93,226.34,710.01,225.5,709.12 L223.73,707.24 V707.12 H227.61 Z " /><path
         id="path128816"
         fill="black"
         stroke-width="0"
         d="M234.19,708.21 L234.04,707.95 C233.87,707.64,233.74,707.53,233.6,707.53 C233.39,707.53,233.18,707.86,232.79,708.81 C232.74,708.94,232.59,709.3,232.42,709.69 C233.88,710.99,234.19,711.19,234.66,711.22 V711.38 H232.84 V711.22 H233 C233.25,711.22,233.39,711.15,233.39,711.04 C233.39,710.84,232.89,710.35,231.96,709.65 C231.82,709.54,231.71,709.44,231.54,709.32 L232.73,713.86 L232.68,713.91 C232.09,713.78,231.72,713.71,231.13,713.64 V713.48 C231.61,713.49,231.79,713.42,231.8,713.23 C231.79,713.07,231.72,712.8,231.59,712.34 C231.55,712.2,231.52,712.09,231.5,712.01 L231.48,711.92 L230.21,707.12 H230.96 L231.44,708.91 L231.85,709.23 C232.01,708.79,232.27,708.19,232.45,707.83 C232.77,707.2,232.95,707.02,233.24,707.02 C233.64,707.02,233.9,707.26,234.34,708.1 Z " /><path
         id="path128818"
         fill="black"
         stroke-width="0"
         d="M241.77,707.12 V708.65 H241.59 C241.57,708.14,241.28,708.03,240.83,708.03 H239.47 L239.52,708.36 C240.79,708.72,241.54,709.71,241.54,711.03 C241.54,712.83,240.09,713.85,238.4,713.85 C236.72,713.85,235.2,712.78,235.2,710.99 C235.2,709.78,236,708.59,237.24,708.36 L237.25,708.03 H235.93 C235.45,708.03,235.17,708.13,235.13,708.65 H234.96 V707.12 H237.68 L237.58,708.59 C236.56,708.96,236.34,709.99,236.34,710.97 C236.34,712.19,236.99,713.5,238.38,713.5 C239.81,713.5,240.43,712.14,240.43,710.9 C240.43,709.95,240.2,708.91,239.17,708.59 L239.04,707.12 Z " /></g>    <g
       style="font-style:normal;font-variant:normal;font-weight:normal;font-stretch:normal;letter-spacing:normal;word-spacing:normal;text-anchor:start;fill:none;stroke:#000000;stroke-width:1;stroke-linecap:butt;stroke-linejoin:miter;stroke-miterlimit:10.43299961;stroke-opacity:1;stroke-dasharray:none;stroke-dashoffset:0"
       ns0:preamble="/home/sriranga/Desktop/Prism_BasicElectronics/preamble.tex"
       ns0:text="$10\\, k \\Omega$"
       word-spacing="normal"
       letter-spacing="normal"
       font-size-adjust="none"
       font-stretch="normal"
       font-weight="normal"
       font-variant="normal"
       font-style="normal"
       stroke-miterlimit="10.433"
       xml:space="preserve"
       transform="matrix(1.2,0,0,-1.2,44.357705,1646.8838)"
       id="g128886"><path
         id="path128888"
         d="m 226.33,713.84 -1.79,-0.9 v -0.14 c 0.12,0.05 0.22,0.09 0.26,0.11 0.18,0.07 0.35,0.11 0.45,0.11 0.21,0 0.3,-0.15 0.3,-0.47 v -4.5 c 0,-0.33 -0.08,-0.56 -0.24,-0.65 -0.15,-0.09 -0.29,-0.12 -0.7,-0.13 v -0.15 h 2.74 v 0.15 c -0.78,0.01 -0.94,0.11 -0.94,0.59 v 5.96 z"
         inkscape:connector-curvature="0"
         style="fill:#000000;stroke-width:0" /><path
         id="path128890"
         d="m 230.94,713.84 -0.05,0 -0.05,0 -0.05,0 -0.05,-0.01 -0.05,0 -0.04,-0.01 -0.05,0 -0.05,-0.01 -0.04,-0.01 -0.05,-0.01 -0.04,-0.01 -0.05,-0.01 -0.04,-0.01 -0.04,-0.02 -0.04,-0.01 -0.04,-0.02 -0.04,-0.01 -0.04,-0.02 -0.04,-0.02 -0.04,-0.02 -0.04,-0.02 -0.04,-0.02 -0.04,-0.03 -0.04,-0.02 -0.03,-0.02 -0.04,-0.03 -0.04,-0.03 -0.03,-0.02 -0.04,-0.03 -0.03,-0.03 -0.04,-0.03 -0.03,-0.04 c -0.58,-0.55 -0.96,-1.7 -0.96,-2.86 0,-1.08 0.33,-2.24 0.8,-2.8 0.37,-0.44 0.87,-0.67 1.45,-0.67 v 0.25 c -0.86,0 -1.29,1.07 -1.29,3.13 0,2.11 0.44,3.21 1.3,3.21 h 0 c 0.84,0 1.28,-1.12 1.28,-3.2 0,-2.07 -0.43,-3.14 -1.29,-3.14 v -0.25 c 0.51,0 0.94,0.17 1.29,0.51 0.58,0.55 0.96,1.7 0.96,2.9 0,2.04 -0.91,3.44 -2.21,3.44 z"
         inkscape:connector-curvature="0"
         style="fill:#000000;stroke-width:0" /><path
         id="path128892"
         d="m 239.17,708.21 -0.15,-0.26 c -0.17,-0.31 -0.29,-0.42 -0.44,-0.42 -0.21,0 -0.42,0.33 -0.81,1.28 -0.05,0.13 -0.2,0.49 -0.37,0.88 1.47,1.3 1.77,1.5 2.24,1.53 v 0.16 h -1.82 v -0.16 h 0.16 c 0.25,0 0.39,-0.07 0.39,-0.18 0,-0.2 -0.5,-0.69 -1.42,-1.39 -0.14,-0.11 -0.26,-0.21 -0.43,-0.33 l 1.19,4.54 -0.05,0.05 c -0.59,-0.13 -0.96,-0.2 -1.55,-0.27 v -0.16 c 0.48,0.01 0.67,-0.06 0.68,-0.25 -0.02,-0.16 -0.09,-0.43 -0.22,-0.89 -0.04,-0.14 -0.07,-0.25 -0.09,-0.33 l -0.02,-0.09 -1.27,-4.8 h 0.75 l 0.48,1.79 0.42,0.32 c 0.15,-0.44 0.41,-1.04 0.59,-1.4 0.32,-0.63 0.5,-0.81 0.79,-0.81 0.4,0 0.66,0.24 1.1,1.08 z"
         inkscape:connector-curvature="0"
         style="fill:#000000;stroke-width:0" /><path
         id="path128894"
         d="m 246.75,707.12 v 1.53 h -0.18 c -0.02,-0.51 -0.31,-0.62 -0.76,-0.62 h -1.36 l 0.05,0.33 c 1.27,0.36 2.02,1.35 2.02,2.67 0,1.8 -1.45,2.82 -3.14,2.82 -1.68,0 -3.2,-1.07 -3.2,-2.86 0,-1.21 0.8,-2.4 2.05,-2.63 l 0.01,-0.33 h -1.33 c -0.48,0 -0.76,0.1 -0.79,0.62 h -0.18 v -1.53 h 2.72 l -0.1,1.47 c -1.02,0.37 -1.24,1.4 -1.24,2.38 0,1.22 0.66,2.53 2.04,2.53 1.43,0 2.05,-1.36 2.05,-2.6 0,-0.95 -0.23,-1.99 -1.26,-2.31 l -0.12,-1.47 z"
         inkscape:connector-curvature="0"
         style="fill:#000000;stroke-width:0" /></g>    <g
       style="font-style:normal;font-variant:normal;font-weight:normal;font-stretch:normal;letter-spacing:normal;word-spacing:normal;text-anchor:start;fill:none;stroke:#000000;stroke-width:1;stroke-linecap:butt;stroke-linejoin:miter;stroke-miterlimit:10.43299961;stroke-opacity:1;stroke-dasharray:none;stroke-dashoffset:0"
       ns0:preamble="/home/sriranga/Desktop/Prism_BasicElectronics/preamble.tex"
       ns0:text="$5\\, k \\Omega$"
       word-spacing="normal"
       letter-spacing="normal"
       font-size-adjust="none"
       font-stretch="normal"
       font-weight="normal"
       font-variant="normal"
       font-style="normal"
       stroke-miterlimit="10.433"
       xml:space="preserve"
       transform="matrix(1.2,0,0,-1.2,-194.48583,1662.8543)"
       id="g128896"><path
         style="fill:#000000;stroke-width:0"
         inkscape:connector-curvature="0"
         id="path128898"
         d="m 225.23,712.92 h 1.95 c 0.16,0 0.2,0.02 0.23,0.09 l 0.38,0.88 -0.09,0.07 c -0.15,-0.21 -0.25,-0.26 -0.46,-0.26 h -2.08 l -1.08,-2.35 c -0.01,-0.02 -0.01,-0.03 -0.01,-0.05 0,-0.05 0.04,-0.08 0.12,-0.08 0.32,0 0.71,-0.07 1.12,-0.2 1.15,-0.37 1.67,-0.98 1.67,-1.97 0,-0.95 -0.6,-1.7 -1.38,-1.7 -0.2,0 -0.37,0.07 -0.67,0.29 -0.31,0.23 -0.54,0.33 -0.75,0.33 -0.29,0 -0.43,-0.12 -0.43,-0.37 0,-0.38 0.47,-0.61 1.21,-0.61 0.84,0 1.56,0.26 2.05,0.77 0.46,0.45 0.67,1.01 0.67,1.77 0,0.71 -0.19,1.17 -0.69,1.67 -0.43,0.44 -1,0.66 -2.17,0.87 z" /><path
         style="fill:#000000;stroke-width:0"
         inkscape:connector-curvature="0"
         id="path128900"
         d="m 234.19,708.21 -0.15,-0.26 c -0.17,-0.31 -0.3,-0.42 -0.44,-0.42 -0.21,0 -0.42,0.33 -0.81,1.28 -0.05,0.13 -0.2,0.49 -0.37,0.88 1.46,1.3 1.77,1.5 2.24,1.53 v 0.16 h -1.82 v -0.16 H 233 c 0.25,0 0.39,-0.07 0.39,-0.18 0,-0.2 -0.5,-0.69 -1.43,-1.39 -0.14,-0.11 -0.25,-0.21 -0.42,-0.33 l 1.19,4.54 -0.05,0.05 c -0.59,-0.13 -0.96,-0.2 -1.55,-0.27 v -0.16 c 0.48,0.01 0.66,-0.06 0.67,-0.25 -0.01,-0.16 -0.08,-0.43 -0.21,-0.89 -0.04,-0.14 -0.07,-0.25 -0.09,-0.33 l -0.02,-0.09 -1.27,-4.8 h 0.75 l 0.48,1.79 0.41,0.32 c 0.16,-0.44 0.42,-1.04 0.6,-1.4 0.32,-0.63 0.5,-0.81 0.79,-0.81 0.4,0 0.66,0.24 1.1,1.08 z" /><path
         style="fill:#000000;stroke-width:0"
         inkscape:connector-curvature="0"
         id="path128902"
         d="m 241.77,707.12 v 1.53 h -0.18 c -0.02,-0.51 -0.31,-0.62 -0.76,-0.62 h -1.36 l 0.05,0.33 c 1.27,0.36 2.02,1.35 2.02,2.67 0,1.8 -1.45,2.82 -3.14,2.82 -1.68,0 -3.2,-1.07 -3.2,-2.86 0,-1.21 0.8,-2.4 2.04,-2.63 l 0.01,-0.33 h -1.32 c -0.48,0 -0.76,0.1 -0.8,0.62 h -0.17 v -1.53 h 2.72 l -0.1,1.47 c -1.02,0.37 -1.24,1.4 -1.24,2.38 0,1.22 0.65,2.53 2.04,2.53 1.43,0 2.05,-1.36 2.05,-2.6 0,-0.95 -0.23,-1.99 -1.26,-2.31 l -0.13,-1.47 z" /></g>    <path
       sodipodi:type="arc"
       id="path128904"
       style="fill:#000000;stroke:none"
       sodipodi:cx="279.99246"
       sodipodi:cy="837.50708"
       sodipodi:rx="2.1500001"
       sodipodi:ry="2.1500001"
       d="m 282.14246,837.50708 a 2.1500001,2.1500001 0 1 1 -4.3,0 2.1500001,2.1500001 0 1 1 4.3,0 z"
       transform="translate(0,-0.14837969)" />
  </g>
</svg>
