<?xml version="1.0" encoding="UTF-8" standalone="no"?>
<!-- Created with Inkscape (http://www.inkscape.org/) -->

<svg
   xmlns:ns0="http://www.iki.fi/pav/software/textext/"
   xmlns:dc="http://purl.org/dc/elements/1.1/"
   xmlns:cc="http://creativecommons.org/ns#"
   xmlns:rdf="http://www.w3.org/1999/02/22-rdf-syntax-ns#"
   xmlns:svg="http://www.w3.org/2000/svg"
   xmlns="http://www.w3.org/2000/svg"
   xmlns:xlink="http://www.w3.org/1999/xlink"
   xmlns:sodipodi="http://sodipodi.sourceforge.net/DTD/sodipodi-0.dtd"
   xmlns:inkscape="http://www.inkscape.org/namespaces/inkscape"
   id="svg2"
   version="1.1"
   inkscape:version="0.48.4 r9939"
   width="496.06299"
   height="283.46457"
   xml:space="preserve"
   sodipodi:docname="fig3.22.svg"><sodipodi:namedview
     pagecolor="#ffffff"
     bordercolor="#666666"
     borderopacity="1"
     objecttolerance="10"
     gridtolerance="10"
     guidetolerance="10"
     inkscape:pageopacity="0"
     inkscape:pageshadow="2"
     inkscape:window-width="1024"
     inkscape:window-height="744"
     id="namedview4"
     showgrid="false"
     units="cm"
     inkscape:zoom="1.0924539"
     inkscape:cx="131.58857"
     inkscape:cy="160.12012"
     inkscape:window-x="0"
     inkscape:window-y="24"
     inkscape:window-maximized="1"
     inkscape:current-layer="g10"
     showguides="true"
     inkscape:guide-bbox="true" /><metadata
     id="metadata8"><rdf:RDF><cc:Work
         rdf:about=""><dc:format>image/svg+xml</dc:format><dc:type
           rdf:resource="http://purl.org/dc/dcmitype/StillImage" /><dc:title></dc:title></cc:Work></rdf:RDF></metadata><defs
     id="defs6"><marker
       style="overflow:visible"
       id="DotM"
       refX="0.0"
       refY="0.0"
       orient="auto"
       inkscape:stockid="DotM"><path
         transform="scale(0.4) translate(7.4, 1)"
         style="fill-rule:evenodd;stroke:#000000;stroke-width:1.0pt"
         d="M -2.5,-1.0 C -2.5,1.7600000 -4.7400000,4.0 -7.5,4.0 C -10.260000,4.0 -12.5,1.7600000 -12.5,-1.0 C -12.5,-3.7600000 -10.260000,-6.0 -7.5,-6.0 C -4.7400000,-6.0 -2.5,-3.7600000 -2.5,-1.0 z "
         id="path3914" /></marker><marker
       style="overflow:visible"
       id="Arrow1Mstart"
       refX="0.0"
       refY="0.0"
       orient="auto"
       inkscape:stockid="Arrow1Mstart"><path
         transform="scale(0.4) translate(10,0)"
         style="fill-rule:evenodd;stroke:#000000;stroke-width:1.0pt"
         d="M 0.0,0.0 L 5.0,-5.0 L -12.5,0.0 L 5.0,5.0 L 0.0,0.0 z "
         id="path4293" /></marker><marker
       inkscape:stockid="TriangleOutM"
       orient="auto"
       refY="0.0"
       refX="0.0"
       id="TriangleOutM"
       style="overflow:visible"><path
         id="path4020"
         d="M 5.77,0.0 L -2.88,5.0 L -2.88,-5.0 L 5.77,0.0 z "
         style="fill-rule:evenodd;stroke:#000000;stroke-width:1.0pt"
         transform="scale(0.4)" /></marker><marker
       inkscape:stockid="Arrow2Mend"
       orient="auto"
       refY="0.0"
       refX="0.0"
       id="Arrow2Mend"
       style="overflow:visible;"><path
         id="path3902"
         style="fill-rule:evenodd;stroke-width:0.62500000;stroke-linejoin:round;"
         d="M 8.7185878,4.0337352 L -2.2072895,0.016013256 L 8.7185884,-4.0017078 C 6.9730900,-1.6296469 6.9831476,1.6157441 8.7185878,4.0337352 z "
         transform="scale(0.6) rotate(180) translate(0,0)" /></marker><marker
       inkscape:stockid="Arrow1Mend"
       orient="auto"
       refY="0.0"
       refX="0.0"
       id="Arrow1Mend"
       style="overflow:visible;"><path
         id="path3884"
         d="M 0.0,0.0 L 5.0,-5.0 L -12.5,0.0 L 5.0,5.0 L 0.0,0.0 z "
         style="fill-rule:evenodd;stroke:#000000;stroke-width:1.0pt;"
         transform="scale(0.4) rotate(180) translate(10,0)" /></marker></defs><g
     id="g10"
     inkscape:groupmode="layer"
     inkscape:label="ink_ext_XXXXXX"
     transform="matrix(1.25,0,0,-1.25,0,283.46433)"><path
       style="fill:none;stroke:#000000;stroke-width:1.05;stroke-linecap:butt;stroke-linejoin:miter;stroke-miterlimit:4;stroke-opacity:1;stroke-dasharray:none"
       d="m 49.116335,88.498466 24.519985,0"
       id="path3769"
       inkscape:connector-curvature="0" /><path
       style="fill:none;stroke:#000000;stroke-width:1.05;stroke-linecap:butt;stroke-linejoin:miter;stroke-miterlimit:4;stroke-opacity:1;stroke-dasharray:none"
       d="m 55.768504,82.335598 11.334709,0"
       id="path3771"
       inkscape:connector-curvature="0" /><path
       sodipodi:nodetypes="cc"
       style="fill:none;stroke:#000000;stroke-width:1.05;stroke-linecap:butt;stroke-linejoin:miter;stroke-miterlimit:4;stroke-opacity:1;stroke-dasharray:none"
       d="m 61.049188,82.246007 0,-44.501399"
       id="path3777"
       inkscape:connector-curvature="0" /><path
       style="fill:none;stroke:#000000;stroke-width:1.05;stroke-linecap:butt;stroke-linejoin:miter;stroke-miterlimit:4;stroke-opacity:1;stroke-dasharray:none"
       d="m 54.919193,45.551681 12.259993,0"
       id="path3779"
       inkscape:connector-curvature="0" /><path
       style="fill:none;stroke:#000000;stroke-width:1.04999995;stroke-linecap:butt;stroke-linejoin:miter;stroke-miterlimit:4;stroke-opacity:1;stroke-dasharray:none"
       d="m 56.926018,43.536465 7.980561,0"
       id="path3783"
       inkscape:connector-curvature="0" /><path
       style="fill:none;stroke:#000000;stroke-width:1.04999995;stroke-linecap:butt;stroke-linejoin:miter;stroke-miterlimit:4;stroke-opacity:1;stroke-dasharray:none"
       d="m 58.051602,41.840227 5.840845,0"
       id="path3785"
       inkscape:connector-curvature="0" /><path
       style="fill:none;stroke:#000000;stroke-width:1.04999995;stroke-linecap:butt;stroke-linejoin:miter;stroke-miterlimit:4;stroke-opacity:1;stroke-dasharray:none"
       d="m 58.894932,40.243371 4.279431,0"
       id="path3787"
       inkscape:connector-curvature="0" /><path
       sodipodi:nodetypes="ccscsccc"
       style="fill:none;stroke:#000000;stroke-width:1.05;stroke-linecap:butt;stroke-linejoin:miter;stroke-miterlimit:4;stroke-opacity:1;stroke-dasharray:none"
       d="m 61.438749,88.881619 0,32.651681 c 7.412022,0 23.351123,0.0197 23.351123,0.0197 0.240433,0.0962 3.434875,6.30626 3.434875,6.30626 0,0 4.893285,-10.6927 4.911112,-10.72288 0.01779,-0.0301 5.229873,10.08645 5.229873,10.08645 l 2.453668,-5.63553 c 0,0 45.05837,0.0613 44.96151,0.0613"
       id="path3851"
       inkscape:connector-curvature="0" /><path
       style="fill:none;stroke:#000000;stroke-width:1.05;stroke-linecap:butt;stroke-linejoin:miter;stroke-miterlimit:4;stroke-opacity:1;stroke-dasharray:none"
       d="m 146.30072,141.46403 0,-37.7843"
       id="path3855"
       inkscape:connector-curvature="0" /><path
       style="fill:none;stroke:#000000;stroke-width:1.04999995;stroke-linecap:butt;stroke-linejoin:miter;stroke-miterlimit:4;stroke-opacity:1;stroke-dasharray:none"
       d="m 146.68669,126.25218 21.7546,15.539 0,27.06564 -4.00368,1.08557 7.31752,2.95176 -7.15769,2.3893 6.85138,2.61707 -7.06263,2.49957 4.0551,1.84041 0,22.82378"
       id="path3857"
       inkscape:connector-curvature="0"
       sodipodi:nodetypes="cccccccccc" /><path
       style="fill:none;stroke:#000000;stroke-width:1.05;stroke-linecap:butt;stroke-linejoin:miter;stroke-miterlimit:4;stroke-opacity:1;stroke-dasharray:none;marker-end:url(#Arrow1Mend)"
       d="M 146.31749,114.36236 167.59897,99.210875"
       id="path3869"
       inkscape:connector-curvature="0" /><path
       sodipodi:nodetypes="cccccccc"
       style="fill:none;stroke:#000000;stroke-width:1.05;stroke-linecap:butt;stroke-linejoin:miter;stroke-miterlimit:4;stroke-opacity:1;stroke-dasharray:none"
       d="m 168.06163,100.02049 0.43281,-18.044981 -3.95939,-3.814662 7.47171,-3.011051 -6.85664,-3.459497 7.12195,-2.779795 -3.38941,-3.120901 0.68256,-28.456997"
       id="path4315"
       inkscape:connector-curvature="0" /><text
       xml:space="preserve"
       style="font-size:14px;font-style:normal;font-variant:normal;font-weight:normal;font-stretch:normal;line-height:125%;letter-spacing:0px;word-spacing:0px;fill:#000000;fill-opacity:1;stroke:none;font-family:Nimbus Roman No9 L;-inkscape-font-specification:Nimbus Roman No9 L"
       x="74.373848"
       y="153.71082"
       id="text4887"
       sodipodi:linespacing="125%"
       transform="matrix(0.8,0,0,-0.8,0,226.77146)"><tspan
         sodipodi:role="line"
         id="tspan4889" /></text>
<path
       sodipodi:nodetypes="cc"
       inkscape:connector-curvature="0"
       id="path3123"
       d="m 169.15533,140.73293 c 4.3013,-4.41482 7.83944,-9.12719 9.79303,-14.30792"
       style="fill:none;stroke:#000000;stroke-width:1.05;stroke-linecap:butt;stroke-linejoin:miter;stroke-miterlimit:4;stroke-opacity:1;stroke-dasharray:none;marker-start:url(#Arrow1Mstart);marker-end:none" /><path
       style="fill:none;stroke:#000000;stroke-width:1.05;stroke-linecap:butt;stroke-linejoin:miter;stroke-miterlimit:4;stroke-opacity:1;stroke-dasharray:none;marker-start:url(#Arrow1Mstart);marker-end:none"
       d="m 169.48247,100.8579 c 4.3052,4.41881 7.84584,9.1357 9.79834,14.32196"
       id="path4733"
       inkscape:connector-curvature="0"
       sodipodi:nodetypes="cc" /><text
       transform="scale(1,-1)"
       sodipodi:linespacing="125%"
       id="text4745"
       y="-118.33057"
       x="171.42488"
       style="font-size:10.39999962px;font-style:normal;font-variant:normal;font-weight:normal;font-stretch:normal;line-height:125%;letter-spacing:0px;word-spacing:0px;fill:#000000;fill-opacity:1;stroke:none;font-family:Nimbus Roman No9 L;-inkscape-font-specification:Nimbus Roman No9 L"
       xml:space="preserve"><tspan
         y="-118.33057"
         x="171.42488"
         id="tspan4747"
         sodipodi:role="line">V<tspan
   dy="1.5534352 0 1.5534351"
   dx="0.51781172"
   id="tspan4749"
   style="font-size:8.80000019px">CC<tspan
   dx="0.51781172"
   id="tspan4300"
   style="font-size:7.19999981px">Q</tspan></tspan></tspan></text>
<text
       transform="scale(1,-1)"
       sodipodi:linespacing="125%"
       id="text4769"
       y="-134.11304"
       x="83.367683"
       style="font-size:10.39999962px;font-style:normal;font-variant:normal;font-weight:normal;font-stretch:normal;line-height:125%;letter-spacing:0px;word-spacing:0px;fill:#000000;fill-opacity:1;stroke:none;font-family:Nimbus Roman No9 L;-inkscape-font-specification:Nimbus Roman No9 L"
       xml:space="preserve"><tspan
         y="-134.11304"
         x="83.367683"
         id="tspan4771"
         sodipodi:role="line">R<tspan
   dy="2.5890586"
   dx="0.51781172"
   id="tspan4773"
   style="font-size:8px">TH</tspan></tspan></text>
<text
       transform="scale(1,-1)"
       sodipodi:linespacing="125%"
       id="text4775"
       y="-79.789375"
       x="31.586506"
       style="font-size:10.39999962px;font-style:normal;font-variant:normal;font-weight:normal;font-stretch:normal;line-height:125%;letter-spacing:0px;word-spacing:0px;fill:#000000;fill-opacity:1;stroke:none;font-family:Nimbus Roman No9 L;-inkscape-font-specification:Nimbus Roman No9 L"
       xml:space="preserve"><tspan
         y="-79.789375"
         x="31.586506"
         id="tspan4777"
         sodipodi:role="line">V<tspan
   dy="2.0712469"
   dx="0.51781172"
   id="tspan4779"
   style="font-size:8px">TH</tspan></tspan></text>
<path
       inkscape:connector-curvature="0"
       id="path4781"
       d="m 112.59059,113.3227 21.96888,0"
       style="fill:none;stroke:#000000;stroke-width:1.04999995;stroke-linecap:butt;stroke-linejoin:miter;stroke-miterlimit:4;stroke-opacity:1;stroke-dasharray:none;marker-end:url(#Arrow1Mend)" /><text
       transform="scale(1,-1)"
       sodipodi:linespacing="125%"
       id="text4971"
       y="-100.69055"
       x="117.53357"
       style="font-size:10.39999962px;font-style:normal;font-variant:normal;font-weight:normal;font-stretch:normal;line-height:125%;letter-spacing:0px;word-spacing:0px;fill:#000000;fill-opacity:1;stroke:none;font-family:Nimbus Roman No9 L;-inkscape-font-specification:Nimbus Roman No9 L"
       xml:space="preserve"><tspan
         y="-100.69055"
         x="117.53357"
         id="tspan4973"
         sodipodi:role="line">I<tspan
   dy="1.8307407"
   dx="0.73229635"
   id="tspan4975"
   style="font-size:8px">B<tspan
   dy="1.0984445"
   dx="0.36614817"
   id="tspan4326"
   style="font-size:7.19999981px">Q</tspan></tspan></tspan></text>
<path
       sodipodi:nodetypes="cc"
       inkscape:connector-curvature="0"
       id="path4991"
       d="m 174.70407,167.15657 0,-16.27296"
       style="fill:none;stroke:#000000;stroke-width:1.04999995;stroke-linecap:butt;stroke-linejoin:miter;stroke-miterlimit:4;stroke-opacity:1;stroke-dasharray:none;marker-end:url(#Arrow1Mend)" /><text
       transform="scale(1,-1)"
       sodipodi:linespacing="125%"
       id="text4993"
       y="-157.36545"
       x="178.43219"
       style="font-size:10.39999962px;font-style:normal;font-variant:normal;font-weight:normal;font-stretch:normal;line-height:125%;letter-spacing:0px;word-spacing:0px;fill:#000000;fill-opacity:1;stroke:none;font-family:Nimbus Roman No9 L;-inkscape-font-specification:Nimbus Roman No9 L"
       xml:space="preserve"><tspan
         y="-157.36545"
         x="178.43219"
         id="tspan4995"
         sodipodi:role="line">I<tspan
   dy="1.8307407"
   dx="0.36614817"
   id="tspan4997"
   style="font-size:8px">C<tspan
   dy="1.5534352"
   dx="0.51781172"
   id="tspan4302"
   style="font-size:7.19999981px">Q</tspan></tspan></tspan></text>
<path
       transform="matrix(0.8,0,0,-0.8,60.501382,248.22361)"
       d="m 138.22094,53.020061 c 0,1.895795 -1.53685,3.43264 -3.43264,3.43264 -1.89579,0 -3.43264,-1.536845 -3.43264,-3.43264 0,-1.895794 1.53685,-3.432639 3.43264,-3.432639 1.89579,0 3.43264,1.536845 3.43264,3.432639 z"
       sodipodi:ry="3.4326391"
       sodipodi:rx="3.4326391"
       sodipodi:cy="53.020061"
       sodipodi:cx="134.7883"
       id="path5005"
       style="fill:#000000;stroke:#000000;stroke-width:1.3125;stroke-miterlimit:4;stroke-opacity:1;stroke-dasharray:none;stroke-dashoffset:0"
       sodipodi:type="arc" /><text
       transform="scale(1,-1)"
       sodipodi:linespacing="125%"
       id="text5007"
       y="-132.22687"
       x="163.26843"
       style="font-size:10.39999962px;font-style:normal;font-variant:normal;font-weight:normal;font-stretch:normal;line-height:125%;letter-spacing:0px;word-spacing:0px;fill:#000000;fill-opacity:1;stroke:none;font-family:Nimbus Roman No9 L;-inkscape-font-specification:Nimbus Roman No9 L"
       xml:space="preserve"><tspan
         y="-132.22687"
         x="163.26843"
         id="tspan5009"
         sodipodi:role="line">+</tspan></text>
<path
       inkscape:connector-curvature="0"
       id="path5011"
       d="m 164.18381,106.48834 6.04144,0"
       style="fill:none;stroke:#000000;stroke-width:0.80000001px;stroke-linecap:butt;stroke-linejoin:miter;stroke-opacity:1" /><text
       transform="scale(1,-1)"
       sodipodi:linespacing="125%"
       id="text5019"
       y="-204.30287"
       x="174.26628"
       style="font-size:10.39999962px;font-style:normal;font-variant:normal;font-weight:normal;font-stretch:normal;line-height:125%;letter-spacing:0px;word-spacing:0px;fill:#000000;fill-opacity:1;stroke:none;font-family:Nimbus Roman No9 L;-inkscape-font-specification:Nimbus Roman No9 L"
       xml:space="preserve"><tspan
         y="-204.30287"
         x="174.26628"
         id="tspan5021"
         sodipodi:role="line">V<tspan
   dx="-1.1697113e-08 0 1.0984445"
   dy="1.4645926"
   id="tspan5023"
   style="font-size:8px">CC<tspan
   dy="-1.0984445"
   id="tspan4308"
   style="font-size:10.39999962px">=16V</tspan></tspan></tspan></text>
<path
       inkscape:connector-curvature="0"
       id="path5025"
       d="m 162.98689,45.551681 12.26,0"
       style="fill:none;stroke:#000000;stroke-width:1.04999995;stroke-linecap:butt;stroke-linejoin:miter;stroke-miterlimit:4;stroke-opacity:1;stroke-dasharray:none" /><path
       inkscape:connector-curvature="0"
       id="path5027"
       d="m 164.99372,43.536465 7.98056,0"
       style="fill:none;stroke:#000000;stroke-width:1.04999995;stroke-linecap:butt;stroke-linejoin:miter;stroke-miterlimit:4;stroke-opacity:1;stroke-dasharray:none" /><path
       inkscape:connector-curvature="0"
       id="path5029"
       d="m 166.1193,41.840227 5.84085,0"
       style="fill:none;stroke:#000000;stroke-width:1.04999995;stroke-linecap:butt;stroke-linejoin:miter;stroke-miterlimit:4;stroke-opacity:1;stroke-dasharray:none" /><path
       inkscape:connector-curvature="0"
       id="path5031"
       d="m 166.96263,40.243371 4.27943,0"
       style="fill:none;stroke:#000000;stroke-width:1.04999995;stroke-linecap:butt;stroke-linejoin:miter;stroke-miterlimit:4;stroke-opacity:1;stroke-dasharray:none" /><path
       style="fill:none;stroke:#000000;stroke-width:1.0496;stroke-linecap:butt;stroke-linejoin:miter;stroke-miterlimit:4;stroke-opacity:1;stroke-dasharray:none;marker-end:url(#DotM)"
       d="m 168.76289,147.14695 21.96889,0"
       id="path3052"
       inkscape:connector-curvature="0" /><path
       inkscape:connector-curvature="0"
       id="path4298"
       d="m 168.76289,94.34695 21.96889,0"
       style="fill:none;stroke:#000000;stroke-width:1.04960001;stroke-linecap:butt;stroke-linejoin:miter;stroke-miterlimit:4;stroke-opacity:1;stroke-dasharray:none;marker-end:url(#DotM)" /><text
       transform="scale(1,-1)"
       sodipodi:linespacing="125%"
       id="text4304"
       y="-171.65439"
       x="175.02037"
       style="font-size:10.39999962px;font-style:normal;font-variant:normal;font-weight:normal;font-stretch:normal;line-height:125%;letter-spacing:0px;word-spacing:0px;fill:#000000;fill-opacity:1;stroke:none;font-family:Nimbus Roman No9 L;-inkscape-font-specification:Nimbus Roman No9 L"
       xml:space="preserve"><tspan
         y="-171.65439"
         x="175.02037"
         id="tspan4306"
         sodipodi:role="line">3.9k</tspan></text>
<text
       transform="scale(1,-1)"
       sodipodi:linespacing="125%"
       id="text4310"
       y="-143.16374"
       x="195.15698"
       style="font-size:10.39999962px;font-style:normal;font-variant:normal;font-weight:normal;font-stretch:normal;line-height:125%;letter-spacing:0px;word-spacing:0px;fill:#000000;fill-opacity:1;stroke:none;font-family:Nimbus Roman No9 L;-inkscape-font-specification:Nimbus Roman No9 L"
       xml:space="preserve"><tspan
         y="-143.16374"
         x="195.15698"
         id="tspan4312"
         sodipodi:role="line">V<tspan
   dy="1.8307407"
   dx="-1.1697102e-08"
   id="tspan4314"
   style="font-size:8px">E</tspan></tspan></text>
<text
       xml:space="preserve"
       style="font-size:10.39999962px;font-style:normal;font-variant:normal;font-weight:normal;font-stretch:normal;line-height:125%;letter-spacing:0px;word-spacing:0px;fill:#000000;fill-opacity:1;stroke:none;font-family:Nimbus Roman No9 L;-inkscape-font-specification:Nimbus Roman No9 L"
       x="195.15698"
       y="-91.597549"
       id="text4316"
       sodipodi:linespacing="125%"
       transform="scale(1,-1)"><tspan
         sodipodi:role="line"
         id="tspan4318"
         x="195.15698"
         y="-91.597549">V<tspan
   style="font-size:8px"
   id="tspan4320"
   dx="-1.1697102e-08"
   dy="1.8307407">E</tspan></tspan></text>
<text
       transform="scale(1,-1)"
       sodipodi:linespacing="125%"
       id="text4322"
       y="-68.103363"
       x="176.84956"
       style="font-size:10.39999962px;font-style:normal;font-variant:normal;font-weight:normal;font-stretch:normal;line-height:125%;letter-spacing:0px;word-spacing:0px;fill:#000000;fill-opacity:1;stroke:none;font-family:Nimbus Roman No9 L;-inkscape-font-specification:Nimbus Roman No9 L"
       xml:space="preserve"><tspan
         y="-68.103363"
         x="176.84956"
         id="tspan4324"
         sodipodi:role="line">0.68k</tspan></text>
<text
       transform="scale(1,-1)"
       sodipodi:linespacing="125%"
       id="text4328"
       y="-105.08434"
       x="80.186447"
       style="font-size:10.39999962px;font-style:normal;font-variant:normal;font-weight:normal;font-stretch:normal;line-height:125%;letter-spacing:0px;word-spacing:0px;fill:#000000;fill-opacity:1;stroke:none;font-family:Nimbus Roman No9 L;-inkscape-font-specification:Nimbus Roman No9 L"
       xml:space="preserve"><tspan
         y="-105.08434"
         x="80.186447"
         id="tspan4330"
         sodipodi:role="line">7.94k</tspan></text>
<text
       transform="scale(1,-1)"
       sodipodi:linespacing="125%"
       id="text4332"
       y="-65.309593"
       x="29.658007"
       style="font-size:10.39999962px;font-style:normal;font-variant:normal;font-weight:normal;font-stretch:normal;line-height:125%;letter-spacing:0px;word-spacing:0px;fill:#000000;fill-opacity:1;stroke:none;font-family:Nimbus Roman No9 L;-inkscape-font-specification:Nimbus Roman No9 L"
       xml:space="preserve"><tspan
         y="-65.309593"
         x="29.658007"
         id="tspan4334"
         sodipodi:role="line">2.05V</tspan></text>
<g
       id="g4415"
       ns0:preamble="/home/sriranga/Desktop/Prism-Basic-Electronics/package.tex"
       ns0:text="$\\beta=80$"
       transform="matrix(1.1457594,0,0,-1.1457594,-41.213659,273.08527)"><defs
         id="defs4417"><g
           id="g4419"><symbol
             id="textext-62e86083-0"
             overflow="visible"
             style="overflow:visible"><path
               id="path4422"
               d=""
               style="stroke:none"
               inkscape:connector-curvature="0" /></symbol><symbol
             id="textext-62e86083-1"
             overflow="visible"
             style="overflow:visible"><path
               id="path4425"
               d="m 5.03125,-5.390625 c 0,-0.78125 -0.640625,-1.140625 -1.46875,-1.140625 -1.046875,0 -2.078125,0.703125 -2.359375,1.71875 L -0.3125,0.75 C -0.484375,1.375 -0.875,1.9375 -0.96875,2.0625 l 0.890625,0 c 0.015625,0 0.171875,-0.078125 0.5,-1.328125 L 0.75,-0.546875 l 0.015625,0 c 0,0.015625 0.328125,0.71875 1.34375,0.71875 1.484375,0 2.5,-1.125 2.5,-2.265625 0,-1.25 -1.125,-1.4375 -1.140625,-1.4375 l 0,-0.03125 c 0.015625,0 1.5625,-0.359375 1.5625,-1.828125 z M 4.25,-5.40625 c 0,0.46875 -0.265625,1.59375 -1.0625,1.59375 -0.203125,0 -0.359375,-0.046875 -0.53125,-0.046875 -0.265625,0 -0.453125,0.234375 -0.453125,0.40625 0,0.109375 0.078125,0.203125 0.265625,0.203125 0.265625,0 0.34375,-0.046875 0.578125,-0.046875 0.484375,0 0.71875,0.53125 0.71875,1.09375 0,1 -0.609375,1.90625 -1.671875,1.90625 -0.671875,0 -1.109375,-0.34375 -1.109375,-0.921875 0,-0.109375 0.015625,-0.25 0.046875,-0.390625 L 1.9375,-4.8125 C 2.109375,-5.453125 2.578125,-6.25 3.46875,-6.25 4.03125,-6.25 4.25,-5.859375 4.25,-5.40625 z m 0,0"
               style="stroke:none"
               inkscape:connector-curvature="0" /></symbol><symbol
             id="textext-62e86083-2"
             overflow="visible"
             style="overflow:visible"><path
               id="path4428"
               d=""
               style="stroke:none"
               inkscape:connector-curvature="0" /></symbol><symbol
             id="textext-62e86083-3"
             overflow="visible"
             style="overflow:visible"><path
               id="path4431"
               d="m 5.71875,-3.296875 0,-0.546875 -5.09375,0 0,0.546875 z m 0,2.03125 0,-0.5625 -5.09375,0 0,0.5625 z m 0,0"
               style="stroke:none"
               inkscape:connector-curvature="0" /></symbol><symbol
             id="textext-62e86083-4"
             overflow="visible"
             style="overflow:visible"><path
               id="path4434"
               d=""
               style="stroke:none"
               inkscape:connector-curvature="0" /></symbol><symbol
             id="textext-62e86083-5"
             overflow="visible"
             style="overflow:visible"><path
               id="path4437"
               d="m 2.890625,-3.703125 c 0.984375,-0.53125 1.34375,-0.9375 1.34375,-1.625 0,-0.8125 -0.71875,-1.40625 -1.71875,-1.40625 -1.09375,0 -1.890625,0.65625 -1.890625,1.578125 0,0.640625 0.1875,0.921875 1.234375,1.84375 C 0.78125,-2.5 0.5625,-2.1875 0.5625,-1.5 c 0,0.96875 0.78125,1.640625 1.90625,1.640625 1.203125,0 1.96875,-0.65625 1.96875,-1.6875 0,-0.765625 -0.34375,-1.25 -1.546875,-2.15625 z m -0.171875,1.03125 c 0.71875,0.515625 0.953125,0.875 0.953125,1.4375 0,0.640625 -0.4375,1.09375 -1.09375,1.09375 -0.75,0 -1.265625,-0.578125 -1.265625,-1.4375 0,-0.640625 0.21875,-1.0625 0.796875,-1.53125 z M 2.609375,-3.875 c -0.890625,-0.578125 -1.25,-1.046875 -1.25,-1.59375 0,-0.578125 0.4375,-0.984375 1.078125,-0.984375 0.671875,0 1.09375,0.4375 1.09375,1.125 0,0.5625 -0.265625,1.015625 -0.84375,1.390625 -0.046875,0.03125 -0.046875,0.03125 -0.078125,0.0625 z m 0,0"
               style="stroke:none"
               inkscape:connector-curvature="0" /></symbol><symbol
             id="textext-62e86083-6"
             overflow="visible"
             style="overflow:visible"><path
               id="path4440"
               d="m 2.53125,-6.734375 c -0.546875,0 -0.96875,0.171875 -1.328125,0.515625 -0.578125,0.5625 -0.96875,1.703125 -0.96875,2.875 0,1.078125 0.328125,2.25 0.796875,2.8125 0.375,0.4375 0.875,0.671875 1.46875,0.671875 0.5,0 0.921875,-0.171875 1.28125,-0.515625 C 4.359375,-0.921875 4.75,-2.078125 4.75,-3.296875 c 0,-2.03125 -0.90625,-3.4375 -2.21875,-3.4375 z m -0.03125,0.25 c 0.84375,0 1.28125,1.125 1.28125,3.21875 0,2.078125 -0.4375,3.140625 -1.28125,3.140625 -0.859375,0 -1.296875,-1.0625 -1.296875,-3.140625 0,-2.109375 0.4375,-3.21875 1.296875,-3.21875 z m 0,0"
               style="stroke:none"
               inkscape:connector-curvature="0" /></symbol></g></defs><g
         id="textext-62e86083-7"><g
           id="g4443"
           style="fill:#000000;fill-opacity:1"><use
             id="use4445"
             y="134.765"
             x="223.43201"
             xlink:href="#textext-62e86083-1"
             width="496.06299"
             height="283.46457" /></g><g
           id="g4447"
           style="fill:#000000;fill-opacity:1"><use
             id="use4449"
             y="134.765"
             x="231.25999"
             xlink:href="#textext-62e86083-3"
             width="496.06299"
             height="283.46457" /></g><g
           id="g4451"
           style="fill:#000000;fill-opacity:1"><use
             id="use4453"
             y="134.765"
             x="240.364"
             xlink:href="#textext-62e86083-5"
             width="496.06299"
             height="283.46457" /><use
             id="use4455"
             y="134.765"
             x="245.34531"
             xlink:href="#textext-62e86083-6"
             width="496.06299"
             height="283.46457" /></g></g></g></g></svg>