<?xml version="1.0" encoding="UTF-8" standalone="no"?>
<!-- Created with Inkscape (http://www.inkscape.org/) -->

<svg
   xmlns:ns0="http://www.iki.fi/pav/software/textext/"
   xmlns:dc="http://purl.org/dc/elements/1.1/"
   xmlns:cc="http://creativecommons.org/ns#"
   xmlns:rdf="http://www.w3.org/1999/02/22-rdf-syntax-ns#"
   xmlns:svg="http://www.w3.org/2000/svg"
   xmlns="http://www.w3.org/2000/svg"
   xmlns:xlink="http://www.w3.org/1999/xlink"
   xmlns:sodipodi="http://sodipodi.sourceforge.net/DTD/sodipodi-0.dtd"
   xmlns:inkscape="http://www.inkscape.org/namespaces/inkscape"
   id="svg2"
   version="1.1"
   inkscape:version="0.48.4 r9939"
   width="496.06299"
   height="354.33069"
   xml:space="preserve"
   sodipodi:docname="fig3.9.svg"><sodipodi:namedview
     pagecolor="#ffffff"
     bordercolor="#666666"
     borderopacity="1"
     objecttolerance="10"
     gridtolerance="10"
     guidetolerance="10"
     inkscape:pageopacity="0"
     inkscape:pageshadow="2"
     inkscape:window-width="1024"
     inkscape:window-height="744"
     id="namedview4"
     showgrid="false"
     units="cm"
     inkscape:zoom="1.0164199"
     inkscape:cx="187.49333"
     inkscape:cy="170.06992"
     inkscape:window-x="0"
     inkscape:window-y="24"
     inkscape:window-maximized="1"
     inkscape:current-layer="g10"
     showguides="true"
     inkscape:guide-bbox="true" /><metadata
     id="metadata8"><rdf:RDF><cc:Work
         rdf:about=""><dc:format>image/svg+xml</dc:format><dc:type
           rdf:resource="http://purl.org/dc/dcmitype/StillImage" /><dc:title /></cc:Work></rdf:RDF></metadata><defs
     id="defs6"><marker
       style="overflow:visible"
       id="Arrow1Mend"
       refX="0"
       refY="0"
       orient="auto"
       inkscape:stockid="Arrow1Mend"><path
         inkscape:connector-curvature="0"
         transform="matrix(-0.4,0,0,-0.4,-4,0)"
         style="fill-rule:evenodd;stroke:#000000;stroke-width:1pt"
         d="M 0,0 5,-5 -12.5,0 5,5 0,0 z"
         id="path3778" /></marker></defs><g
     transform="matrix(1.25,0,0,-1.25,0,354.32986)"
     inkscape:label="ink_ext_XXXXXX"
     inkscape:groupmode="layer"
     id="g10"><path
       sodipodi:nodetypes="cc"
       inkscape:connector-curvature="0"
       id="path2993"
       d="m 74.247863,36.598386 281.379757,0"
       style="fill:none;stroke:#000000;stroke-width:1.04999995;stroke-linecap:butt;stroke-linejoin:miter;stroke-miterlimit:4;stroke-opacity:1;stroke-dasharray:none;marker-end:url(#Arrow1Mend)" /><path
       inkscape:connector-curvature="0"
       id="path3763"
       d="m 85.660468,24.792242 0,216.839508"
       style="fill:none;stroke:#000000;stroke-width:1.04999995;stroke-linecap:butt;stroke-linejoin:miter;stroke-miterlimit:4;stroke-opacity:1;stroke-dasharray:none;marker-end:url(#Arrow1Mend)" /><path
       sodipodi:nodetypes="cccscc"
       inkscape:connector-curvature="0"
       id="path4391"
       d="M 318.48269,53.427848 92.933848,49.980787 c -5.372393,-1.57688 -7.346953,-11.394197 -7.22692,-12.971077 -1.039294,0.742172 5.298738,28.097718 7.463566,36.963081 1.296491,5.309362 8.278906,7.484735 14.905376,8.766864 l 211.40217,19.910415"
       style="fill:none;stroke:#000000;stroke-width:1.04999995;stroke-linecap:butt;stroke-linejoin:miter;stroke-miterlimit:4;stroke-opacity:1;stroke-dasharray:none" /><path
       sodipodi:nodetypes="cccc"
       inkscape:connector-curvature="0"
       id="path4393"
       d="m 85.857238,36.401618 11.702815,61.761608 c 1.189494,1.247902 9.595227,11.727224 16.435147,13.797714 l 204.48749,34.13199"
       style="fill:none;stroke:#000000;stroke-width:1.04999995;stroke-linecap:butt;stroke-linejoin:miter;stroke-miterlimit:4;stroke-opacity:1;stroke-dasharray:none" /><path
       sodipodi:nodetypes="ccccccc"
       inkscape:connector-curvature="0"
       id="path4397"
       d="M 317.06088,189.60082 125.44807,143.32703 c -5.25157,-1.87166 -19.25564,-5.72857 -20.03909,-8.82904 L 85.26693,36.20485 111.98399,168.1788 c 9.79594,24.08001 14.29479,19.65096 22.77887,23.59392 l 180.10227,45.31563"
       style="fill:none;stroke:#000000;stroke-width:1.04999995;stroke-linecap:butt;stroke-linejoin:miter;stroke-miterlimit:4;stroke-opacity:1;stroke-dasharray:none" /><text
       transform="scale(1,-1)"
       sodipodi:linespacing="125%"
       id="text4959"
       y="-247.92836"
       x="73.067215"
       style="font-size:11.19999981px;font-style:normal;font-variant:normal;font-weight:normal;font-stretch:normal;line-height:125%;letter-spacing:0px;word-spacing:0px;fill:#000000;fill-opacity:1;stroke:none;font-family:Nimbus Roman No9 L;-inkscape-font-specification:Nimbus Roman No9 L"
       xml:space="preserve"><tspan
         dx="0 0.19676907 -0.19676907"
         dy="0 2.1644597 -2.1644597"
         y="-247.92836"
         x="73.067215"
         id="tspan4961"
         sodipodi:role="line">Ic(mA)</tspan></text>
<text
       transform="scale(1,-1)"
       sodipodi:linespacing="125%"
       id="text4979"
       y="-26.75993"
       x="77.986435"
       style="font-size:11.19999981px;font-style:normal;font-variant:normal;font-weight:normal;font-stretch:normal;line-height:125%;letter-spacing:0px;word-spacing:0px;fill:#000000;fill-opacity:1;stroke:none;font-family:Nimbus Roman No9 L;-inkscape-font-specification:Nimbus Roman No9 L"
       xml:space="preserve"><tspan
         y="-26.75993"
         x="77.986435"
         id="tspan4981"
         sodipodi:role="line">0</tspan></text>
<text
       xml:space="preserve"
       style="font-size:11.19999981px;font-style:normal;font-variant:normal;font-weight:normal;font-stretch:normal;line-height:125%;letter-spacing:0px;word-spacing:0px;fill:#000000;fill-opacity:1;stroke:none;font-family:Nimbus Roman No9 L;-inkscape-font-specification:Nimbus Roman No9 L"
       x="269.62717"
       y="-24.17778"
       id="text4989"
       sodipodi:linespacing="125%"
       transform="scale(1,-1)"><tspan
         sodipodi:role="line"
         id="tspan4991"
         x="269.62717"
         y="-24.17778"
         dy="0 0 0"
         dx="0 0 0">V<tspan
   style="font-size:8.80000019px"
   id="tspan4993"
   dy="2.5044608"
   dx="-0.27827349">CE(max)</tspan></tspan><tspan
         id="tspan3180"
         sodipodi:role="line"
         x="269.62717"
         y="-10.17778"
         dy="0 0 0 0 0 0 0 0 0 0 0 0"
         dx="0 0 0 1.5741526 0 0 0 0 0 0 0 0">  =V<tspan
   dx="1.9689546e-09"
   dy="2.3612289"
   id="tspan3182"
   style="font-size:8px">CC<tspan
   dx="1.9676907"
   dy="-1.9676907"
   id="tspan3184"
   style="font-size:11.19999981px">=16</tspan></tspan></tspan></text>
<g
       transform="matrix(0.99760115,0.06922389,-0.06922389,0.99760115,2.3967303,-39.846869)"
       id="g5430"><text
         xml:space="preserve"
         style="font-size:11.19999981px;font-style:normal;font-variant:normal;font-weight:normal;font-stretch:normal;line-height:125%;letter-spacing:0px;word-spacing:0px;fill:#000000;fill-opacity:1;stroke:none;font-family:Nimbus Roman No9 L;-inkscape-font-specification:Nimbus Roman No9 L"
         x="343.84436"
         y="-163.49683"
         id="text5301"
         sodipodi:linespacing="125%"
         transform="scale(1,-1)"><tspan
           sodipodi:role="line"
           id="tspan5303"
           x="343.84436"
           y="-163.49683"
           dx="-13.217976 0 -0.13913675 0 0 0 0 0 0 0 0.83482045"
           dy="0.27827349 0 -2.6435976">I<tspan
   style="font-size:8.80000019px"
   id="tspan5305"
   dy="2.6435976"
   dx="0.13913675">B</tspan>=32.55  A</tspan></text>
<g
         transform="matrix(1,0,0,-1,149.14967,300.01139)"
         ns0:text="$\\mu$"
         ns0:preamble="/home/sriranga/Desktop/Prism-Basic-Electronics/package.tex"
         id="g5307"><defs
           id="defs5309"><g
             id="g5311"><symbol
               style="overflow:visible"
               overflow="visible"
               id="symbol5313"><path
                 inkscape:connector-curvature="0"
                 style="stroke:none"
                 d=""
                 id="path5315" /></symbol><symbol
               style="overflow:visible"
               overflow="visible"
               id="symbol5317"><path
                 inkscape:connector-curvature="0"
                 style="stroke:none"
                 d="m 4.9375,-0.765625 c 0,-0.0625 -0.015625,-0.09375 -0.046875,-0.09375 C 4.75,-0.859375 4.75,-0.265625 4.21875,-0.265625 4.0625,-0.265625 4,-0.40625 4,-0.59375 c 0,-0.25 0.109375,-0.625 0.203125,-1.03125 L 4.90625,-4.390625 4.03125,-4.25 l -0.796875,3 C 3.21875,-1.203125 2.625,-0.375 2.03125,-0.375 c -0.578125,0 -0.75,-0.515625 -0.75,-0.90625 0,-0.109375 0.015625,-0.21875 0.03125,-0.3125 l 0.71875,-2.796875 -0.75,0.125 L 0.203125,0 c -0.21875,0.8125 -0.609375,1.890625 -0.6875,2.0625 l 0.875,0 0.640625,-2.484375 c 0,0 0.046875,0.53125 0.765625,0.53125 0.796875,0 1.28125,-0.78125 1.390625,-0.90625 -0.015625,0.078125 -0.03125,0.15625 -0.03125,0.21875 0,0.65625 0.609375,0.6875 0.78125,0.6875 l 0.03125,0 c 0.6875,0 0.96875,-0.640625 0.96875,-0.875 z m 0,0"
                 id="path5319" /></symbol></g></defs><g
           id="g5321"><g
             style="fill:#000000;fill-opacity:1"
             id="g5323"><g
               transform="translate(223.43201,134.765)"
               id="use5325"><path
                 inkscape:connector-curvature="0"
                 style="stroke:none"
                 d="m 4.9375,-0.765625 c 0,-0.0625 -0.015625,-0.09375 -0.046875,-0.09375 C 4.75,-0.859375 4.75,-0.265625 4.21875,-0.265625 4.0625,-0.265625 4,-0.40625 4,-0.59375 c 0,-0.25 0.109375,-0.625 0.203125,-1.03125 L 4.90625,-4.390625 4.03125,-4.25 l -0.796875,3 C 3.21875,-1.203125 2.625,-0.375 2.03125,-0.375 c -0.578125,0 -0.75,-0.515625 -0.75,-0.90625 0,-0.109375 0.015625,-0.21875 0.03125,-0.3125 l 0.71875,-2.796875 -0.75,0.125 L 0.203125,0 c -0.21875,0.8125 -0.609375,1.890625 -0.6875,2.0625 l 0.875,0 0.640625,-2.484375 c 0,0 0.046875,0.53125 0.765625,0.53125 0.796875,0 1.28125,-0.78125 1.390625,-0.90625 -0.015625,0.078125 -0.03125,0.15625 -0.03125,0.21875 0,0.65625 0.609375,0.6875 0.78125,0.6875 l 0.03125,0 c 0.6875,0 0.96875,-0.640625 0.96875,-0.875 z m 0,0"
                 id="path3183" /></g></g></g></g></g><g
       inkscape:transform-center-y="3.8716412"
       inkscape:transform-center-x="-6.6411182"
       transform="matrix(0.99988882,-0.01491167,0.01491167,0.99988882,-26.127376,-60.644665)"
       id="g5460"><text
         xml:space="preserve"
         style="font-size:11.19999981px;font-style:normal;font-variant:normal;font-weight:normal;font-stretch:normal;line-height:125%;letter-spacing:0px;word-spacing:0px;fill:#000000;fill-opacity:1;stroke:none;font-family:Nimbus Roman No9 L;-inkscape-font-specification:Nimbus Roman No9 L"
         x="343.591"
         y="-117.02309"
         id="text5353"
         sodipodi:linespacing="125%"
         transform="scale(1,-1)"><tspan
           sodipodi:role="line"
           id="tspan5355"
           x="343.591"
           y="-117.02309"
           dx="5.0089235 0 -0.13913675 0 0"
           dy="0 0 -2.6435976">I<tspan
   style="font-size:8.80000019px"
   id="tspan5357"
   dy="2.6435976"
   dx="0.41741022">B</tspan>=0 </tspan></text>
</g><path
       style="fill:none;stroke:#000000;stroke-width:1.07074142;stroke-linecap:butt;stroke-linejoin:miter;stroke-miterlimit:4;stroke-opacity:1;stroke-dasharray:4.28296534, 4.28296534;stroke-dashoffset:0"
       d="m 86.159709,126.64201 114.662121,0.19676 c 0,0 -0.67157,-43.742959 -0.22742,-89.540806"
       id="path3138"
       inkscape:connector-curvature="0"
       sodipodi:nodetypes="ccc" /><path
       sodipodi:nodetypes="cc"
       inkscape:connector-curvature="0"
       id="path3142"
       d="M 85.499558,216.63344 317.03034,36.757296"
       style="fill:none;stroke:#000000;stroke-width:0.80000001px;stroke-linecap:butt;stroke-linejoin:miter;stroke-opacity:1" /><path
       sodipodi:type="arc"
       style="fill:#000000;stroke:#000000;stroke-width:1.25;stroke-miterlimit:4;stroke-opacity:1;stroke-dasharray:none;stroke-dashoffset:0"
       id="path3146"
       sodipodi:cx="226.09721"
       sodipodi:cy="206.49789"
       sodipodi:rx="3.8262606"
       sodipodi:ry="3.8262606"
       d="m 229.92347,206.49789 c 0,2.11319 -1.71307,3.82626 -3.82626,3.82626 -2.11318,0 -3.82626,-1.71307 -3.82626,-3.82626 0,-2.11318 1.71308,-3.82626 3.82626,-3.82626 2.11319,0 3.82626,1.71308 3.82626,3.82626 z"
       transform="matrix(0.8,0,0,-0.8,19.893707,291.87817)" /><text
       xml:space="preserve"
       style="font-size:11.19999981px;font-style:normal;font-variant:normal;font-weight:normal;font-stretch:normal;line-height:125%;letter-spacing:0px;word-spacing:0px;fill:#000000;fill-opacity:1;stroke:none;font-family:Nimbus Roman No9 L;-inkscape-font-specification:Nimbus Roman No9 L"
       x="203.02727"
       y="-132.80592"
       id="text3152"
       sodipodi:linespacing="125%"
       transform="scale(1,-1)"><tspan
         sodipodi:role="line"
         id="tspan3154"
         x="203.02727"
         y="-132.80592"
         style="font-size:10.39999962px">Q<tspan
   id="tspan3158"
   style="font-size:8px" /></tspan></text>
<path
       sodipodi:nodetypes="cccc"
       inkscape:connector-curvature="0"
       id="path3198"
       d="m 268.32014,74.705407 5.64256,2.342167 -2.56066,-3.121436 12.23424,5.009657"
       style="fill:none;stroke:#000000;stroke-width:0.80000001px;stroke-linecap:butt;stroke-linejoin:miter;stroke-opacity:1;marker-end:url(#Arrow1Mend)" /><text
       transform="scale(1,-1)"
       sodipodi:linespacing="125%"
       id="text4156"
       y="-78.669113"
       x="286.5415"
       style="font-size:10.39999962px;font-style:normal;font-variant:normal;font-weight:normal;font-stretch:normal;line-height:125%;letter-spacing:0px;word-spacing:0px;fill:#000000;fill-opacity:1;stroke:none;font-family:Nimbus Roman No9 L;-inkscape-font-specification:Nimbus Roman No9 L"
       xml:space="preserve"><tspan
         y="-78.669113"
         x="286.5415"
         id="tspan4158"
         sodipodi:role="line">dc load line</tspan></text>
<text
       transform="scale(1,-1)"
       sodipodi:linespacing="125%"
       id="text4352"
       y="-33.392162"
       x="359.31888"
       style="font-size:10.39999962px;font-style:normal;font-variant:normal;font-weight:normal;font-stretch:normal;line-height:125%;letter-spacing:0px;word-spacing:0px;fill:#000000;fill-opacity:1;stroke:none;font-family:Nimbus Roman No9 L;-inkscape-font-specification:Nimbus Roman No9 L"
       xml:space="preserve"><tspan
         y="-33.392162"
         x="359.31888"
         id="tspan4354"
         sodipodi:role="line">V<tspan
   dx="0.55654699"
   dy="2.7827349"
   id="tspan4356"
   style="font-size:8px">CE<tspan
   dy="-3.1483049"
   id="tspan3193"
   style="font-size:10.39999962px">(V)</tspan></tspan></tspan></text>
<text
       transform="scale(1,-1)"
       sodipodi:linespacing="125%"
       id="text3195"
       y="-24.17778"
       x="156.02673"
       style="font-size:11.19999981px;font-style:normal;font-variant:normal;font-weight:normal;font-stretch:normal;line-height:125%;letter-spacing:0px;word-spacing:0px;fill:#000000;fill-opacity:1;stroke:none;font-family:Nimbus Roman No9 L;-inkscape-font-specification:Nimbus Roman No9 L"
       xml:space="preserve"><tspan
         dx="0 0 0 0 0 0 0"
         dy="0 0 0 0 0 0 0"
         y="-24.17778"
         x="156.02673"
         sodipodi:role="line"
         id="tspan3201"><tspan
           id="tspan3207"
           dy="0 0 0"
           dx="0 0 0">V<tspan
   dx="-0.27827349"
   dy="2.5044608"
   id="tspan3199"
   style="font-size:8.80000019px">CE<tspan
   dx="0.83482045"
   dy="1.6696409"
   id="tspan3210"
   style="font-size:7.19999981px">Q</tspan></tspan></tspan></tspan></text>
<text
       transform="scale(1,-1)"
       sodipodi:linespacing="125%"
       id="text3212"
       y="-23.652596"
       x="180.80814"
       style="font-size:10.39999962px;font-style:normal;font-variant:normal;font-weight:normal;font-stretch:normal;line-height:125%;letter-spacing:0px;word-spacing:0px;fill:#000000;fill-opacity:1;stroke:none;font-family:Nimbus Roman No9 L;-inkscape-font-specification:Nimbus Roman No9 L"
       xml:space="preserve"><tspan
         dx="1.3913674 0.55654699"
         y="-23.652596"
         x="180.80814"
         id="tspan3214"
         sodipodi:role="line">=8.09V</tspan></text>
<g
       id="g3277"
       transform="matrix(1.0539272,0,0,-1.0539272,-233.71697,334.06507)"
       ns0:preamble="/home/sriranga/Desktop/Prism-Basic-Electronics/package.tex"
       ns0:text="$\\text{I}_{\\text{C}_{\\max}}=\\frac{\\text{V}_{\\text{CC}}}{\\text{R}_{\\text{C}}}=12$"><defs
         id="defs3279"><g
           id="g3281"><symbol
             id="textext-60426430-0"
             overflow="visible"><path
               id="path3284"
               d=""
               style="stroke:none;" /></symbol><symbol
             id="textext-60426430-1"
             overflow="visible"><path
               id="path3287"
               d="M 1.140625 -1.09375 C 1.140625 -0.34375 1.015625 -0.21875 0.171875 -0.1875 L 0.171875 0 L 3.140625 0 L 3.140625 -0.1875 C 2.328125 -0.21875 2.15625 -0.359375 2.15625 -1.09375 L 2.15625 -5.515625 C 2.15625 -6.234375 2.296875 -6.375 3.140625 -6.40625 L 3.140625 -6.59375 L 0.171875 -6.59375 L 0.171875 -6.40625 C 1.03125 -6.359375 1.140625 -6.25 1.140625 -5.515625 Z M 1.140625 -1.09375 "
               style="stroke:none;" /></symbol><symbol
             id="textext-60426430-2"
             overflow="visible"><path
               id="path3290"
               d="M 2.90625 -6.734375 L 1.109375 -5.828125 L 1.109375 -5.6875 C 1.21875 -5.734375 1.328125 -5.78125 1.375 -5.796875 C 1.5625 -5.875 1.71875 -5.90625 1.828125 -5.90625 C 2.03125 -5.90625 2.125 -5.765625 2.125 -5.4375 L 2.125 -0.921875 C 2.125 -0.59375 2.046875 -0.375 1.890625 -0.28125 C 1.734375 -0.1875 1.59375 -0.15625 1.171875 -0.15625 L 1.171875 0 L 3.921875 0 L 3.921875 -0.15625 C 3.140625 -0.15625 2.984375 -0.265625 2.984375 -0.734375 L 2.984375 -6.71875 Z M 2.90625 -6.734375 "
               style="stroke:none;" /></symbol><symbol
             id="textext-60426430-3"
             overflow="visible"><path
               id="path3293"
               d="M 4.734375 -1.359375 L 4.609375 -1.421875 C 4.234375 -0.84375 4.109375 -0.75 3.65625 -0.75 L 1.28125 -0.75 L 2.953125 -2.515625 C 3.84375 -3.4375 4.234375 -4.203125 4.234375 -4.96875 C 4.234375 -5.96875 3.421875 -6.734375 2.375 -6.734375 C 1.828125 -6.734375 1.3125 -6.515625 0.953125 -6.125 C 0.625 -5.78125 0.484375 -5.46875 0.3125 -4.75 L 0.515625 -4.703125 C 0.921875 -5.6875 1.28125 -6 1.96875 -6 C 2.796875 -6 3.375 -5.4375 3.375 -4.59375 C 3.375 -3.8125 2.90625 -2.890625 2.078125 -2 L 0.296875 -0.125 L 0.296875 0 L 4.1875 0 Z M 4.734375 -1.359375 "
               style="stroke:none;" /></symbol><symbol
             id="textext-60426430-4"
             overflow="visible"><path
               id="path3296"
               d=""
               style="stroke:none;" /></symbol><symbol
             id="textext-60426430-5"
             overflow="visible"><path
               id="path3299"
               d="M 4.328125 -3.140625 L 4.265625 -4.703125 L 4.109375 -4.703125 C 4.0625 -4.5625 3.953125 -4.484375 3.8125 -4.484375 C 3.75 -4.484375 3.65625 -4.5 3.546875 -4.546875 C 3.203125 -4.65625 2.859375 -4.703125 2.53125 -4.703125 C 1.953125 -4.703125 1.375 -4.5 0.953125 -4.109375 C 0.453125 -3.671875 0.1875 -3.03125 0.1875 -2.265625 C 0.1875 -1.609375 0.40625 -1.015625 0.765625 -0.625 C 1.171875 -0.171875 1.8125 0.09375 2.515625 0.09375 C 3.296875 0.09375 3.984375 -0.21875 4.40625 -0.78125 L 4.28125 -0.90625 C 3.765625 -0.421875 3.3125 -0.203125 2.734375 -0.203125 C 2.296875 -0.203125 1.90625 -0.34375 1.609375 -0.609375 C 1.21875 -0.953125 1 -1.578125 1 -2.359375 C 1 -3.609375 1.65625 -4.4375 2.65625 -4.4375 C 3.0625 -4.4375 3.421875 -4.28125 3.703125 -4 C 3.921875 -3.78125 4.03125 -3.59375 4.15625 -3.140625 Z M 4.328125 -3.140625 "
               style="stroke:none;" /></symbol><symbol
             id="textext-60426430-6"
             overflow="visible"><path
               id="path3302"
               d="M 4.859375 -4.609375 L 3.421875 -4.609375 L 3.421875 -4.484375 C 3.8125 -4.453125 3.9375 -4.390625 3.9375 -4.1875 C 3.9375 -4.078125 3.890625 -3.890625 3.8125 -3.671875 L 2.78125 -1.125 L 1.734375 -3.484375 C 1.5 -3.984375 1.4375 -4.140625 1.4375 -4.25 C 1.4375 -4.390625 1.546875 -4.453125 1.765625 -4.46875 C 1.796875 -4.46875 1.875 -4.46875 1.96875 -4.484375 L 1.96875 -4.609375 L 0.109375 -4.609375 L 0.109375 -4.484375 C 0.453125 -4.46875 0.546875 -4.375 0.84375 -3.75 L 2.5625 0.078125 L 2.671875 0.078125 L 4.21875 -3.828125 C 4.453125 -4.390625 4.515625 -4.453125 4.859375 -4.484375 Z M 4.859375 -4.609375 "
               style="stroke:none;" /></symbol><symbol
             id="textext-60426430-7"
             overflow="visible"><path
               id="path3305"
               d="M 4.59375 -0.125 C 4.328125 -0.15625 4.1875 -0.21875 3.984375 -0.453125 L 2.546875 -2.21875 C 3.015625 -2.3125 3.21875 -2.390625 3.453125 -2.578125 C 3.671875 -2.765625 3.8125 -3.0625 3.8125 -3.390625 C 3.8125 -3.6875 3.71875 -3.9375 3.546875 -4.140625 C 3.28125 -4.4375 2.703125 -4.609375 2.046875 -4.609375 L 0.125 -4.609375 L 0.125 -4.484375 C 0.640625 -4.421875 0.703125 -4.34375 0.703125 -3.859375 L 0.703125 -0.84375 C 0.703125 -0.265625 0.640625 -0.171875 0.125 -0.125 L 0.125 0 L 2.046875 0 L 2.046875 -0.125 C 1.515625 -0.171875 1.421875 -0.265625 1.421875 -0.765625 L 1.421875 -2.125 L 1.8125 -2.140625 L 3.46875 0 L 4.59375 0 Z M 1.421875 -4.109375 C 1.421875 -4.296875 1.5 -4.359375 1.78125 -4.359375 C 2.640625 -4.359375 3.046875 -4.0625 3.046875 -3.40625 C 3.046875 -3.046875 2.90625 -2.765625 2.65625 -2.625 C 2.328125 -2.453125 2.09375 -2.40625 1.421875 -2.390625 Z M 1.421875 -4.109375 "
               style="stroke:none;" /></symbol><symbol
             id="textext-60426430-8"
             overflow="visible"><path
               id="path3308"
               d=""
               style="stroke:none;" /></symbol><symbol
             id="textext-60426430-9"
             overflow="visible"><path
               id="path3311"
               d="M 0.09375 -1.984375 C 0.15625 -2 0.203125 -2 0.25 -2 C 0.390625 -2 0.421875 -1.921875 0.421875 -1.6875 L 0.421875 -0.421875 C 0.421875 -0.15625 0.359375 -0.078125 0.078125 -0.078125 L 0.078125 0 L 1.1875 0 L 1.1875 -0.078125 C 0.921875 -0.078125 0.84375 -0.140625 0.84375 -0.328125 L 0.84375 -1.734375 C 0.84375 -1.75 0.890625 -1.796875 0.921875 -1.828125 C 1.046875 -1.953125 1.265625 -2.03125 1.4375 -2.03125 C 1.65625 -2.03125 1.765625 -1.859375 1.765625 -1.515625 L 1.765625 -0.421875 C 1.765625 -0.15625 1.703125 -0.09375 1.421875 -0.078125 L 1.421875 0 L 2.546875 0 L 2.546875 -0.078125 C 2.265625 -0.078125 2.1875 -0.171875 2.1875 -0.46875 L 2.1875 -1.734375 C 2.328125 -1.9375 2.5 -2.03125 2.71875 -2.03125 C 3.015625 -2.03125 3.09375 -1.90625 3.09375 -1.484375 L 3.09375 -0.4375 C 3.09375 -0.15625 3.0625 -0.109375 2.765625 -0.078125 L 2.765625 0 L 3.859375 0 L 3.859375 -0.078125 L 3.734375 -0.078125 C 3.578125 -0.09375 3.515625 -0.1875 3.515625 -0.375 L 3.515625 -1.40625 C 3.515625 -2 3.328125 -2.296875 2.9375 -2.296875 C 2.65625 -2.296875 2.390625 -2.15625 2.125 -1.875 C 2.03125 -2.15625 1.875 -2.296875 1.59375 -2.296875 C 1.375 -2.296875 1.234375 -2.21875 0.828125 -1.90625 L 0.828125 -2.28125 L 0.796875 -2.296875 C 0.53125 -2.203125 0.375 -2.140625 0.09375 -2.0625 Z M 0.09375 -1.984375 "
               style="stroke:none;" /></symbol><symbol
             id="textext-60426430-10"
             overflow="visible"><path
               id="path3314"
               d="M 2.203125 -0.328125 C 2.125 -0.265625 2.0625 -0.234375 1.984375 -0.234375 C 1.875 -0.234375 1.828125 -0.296875 1.828125 -0.515625 L 1.828125 -1.5 C 1.828125 -1.75 1.8125 -1.90625 1.734375 -2.015625 C 1.625 -2.203125 1.40625 -2.296875 1.109375 -2.296875 C 0.640625 -2.296875 0.28125 -2.046875 0.28125 -1.734375 C 0.28125 -1.625 0.375 -1.515625 0.5 -1.515625 C 0.609375 -1.515625 0.71875 -1.625 0.71875 -1.734375 C 0.71875 -1.75 0.71875 -1.78125 0.703125 -1.8125 C 0.703125 -1.859375 0.6875 -1.890625 0.6875 -1.921875 C 0.6875 -2.0625 0.859375 -2.171875 1.046875 -2.171875 C 1.296875 -2.171875 1.4375 -2.03125 1.4375 -1.765625 L 1.4375 -1.453125 C 0.65625 -1.140625 0.578125 -1.109375 0.359375 -0.921875 C 0.25 -0.8125 0.1875 -0.640625 0.1875 -0.484375 C 0.1875 -0.171875 0.40625 0.046875 0.703125 0.046875 C 0.921875 0.046875 1.125 -0.0625 1.4375 -0.3125 C 1.453125 -0.0625 1.546875 0.046875 1.75 0.046875 C 1.921875 0.046875 2.03125 -0.015625 2.203125 -0.203125 Z M 1.4375 -0.609375 C 1.4375 -0.453125 1.40625 -0.40625 1.296875 -0.359375 C 1.1875 -0.28125 1.046875 -0.234375 0.9375 -0.234375 C 0.765625 -0.234375 0.625 -0.40625 0.625 -0.625 L 0.625 -0.640625 C 0.625 -0.9375 0.828125 -1.109375 1.4375 -1.328125 Z M 1.4375 -0.609375 "
               style="stroke:none;" /></symbol><symbol
             id="textext-60426430-11"
             overflow="visible"><path
               id="path3317"
               d="M 1.390625 0 L 2.390625 0 L 2.390625 -0.078125 C 2.234375 -0.078125 2.140625 -0.15625 1.984375 -0.375 L 1.34375 -1.34375 L 1.75 -1.953125 C 1.84375 -2.078125 2 -2.15625 2.15625 -2.171875 L 2.15625 -2.25 L 1.375 -2.25 L 1.375 -2.171875 C 1.515625 -2.15625 1.5625 -2.125 1.5625 -2.0625 C 1.5625 -2 1.515625 -1.890625 1.390625 -1.734375 C 1.359375 -1.703125 1.296875 -1.609375 1.234375 -1.515625 L 1.171875 -1.609375 C 1.03125 -1.828125 0.9375 -2 0.9375 -2.0625 C 0.9375 -2.125 1 -2.15625 1.15625 -2.171875 L 1.15625 -2.25 L 0.125 -2.25 L 0.125 -2.171875 L 0.171875 -2.171875 C 0.3125 -2.171875 0.390625 -2.109375 0.546875 -1.875 L 1.015625 -1.15625 L 0.453125 -0.328125 C 0.296875 -0.125 0.25 -0.09375 0.078125 -0.078125 L 0.078125 0 L 0.8125 0 L 0.8125 -0.078125 C 0.671875 -0.078125 0.609375 -0.09375 0.609375 -0.171875 C 0.609375 -0.1875 0.640625 -0.265625 0.703125 -0.375 L 1.09375 -0.984375 L 1.5625 -0.28125 C 1.578125 -0.25 1.578125 -0.21875 1.578125 -0.1875 C 1.578125 -0.109375 1.546875 -0.078125 1.390625 -0.078125 Z M 1.390625 0 "
               style="stroke:none;" /></symbol><symbol
             id="textext-60426430-12"
             overflow="visible"><path
               id="path3320"
               d="M 3.09375 -2.25 L 3.046875 -3.375 L 2.9375 -3.375 C 2.90625 -3.265625 2.828125 -3.203125 2.734375 -3.203125 C 2.6875 -3.203125 2.609375 -3.21875 2.53125 -3.25 C 2.296875 -3.328125 2.046875 -3.375 1.8125 -3.375 C 1.40625 -3.375 0.984375 -3.21875 0.671875 -2.9375 C 0.328125 -2.625 0.140625 -2.171875 0.140625 -1.625 C 0.140625 -1.15625 0.296875 -0.734375 0.546875 -0.4375 C 0.84375 -0.125 1.296875 0.0625 1.796875 0.0625 C 2.359375 0.0625 2.84375 -0.15625 3.15625 -0.5625 L 3.0625 -0.65625 C 2.703125 -0.296875 2.375 -0.15625 1.953125 -0.15625 C 1.640625 -0.15625 1.359375 -0.25 1.140625 -0.4375 C 0.875 -0.6875 0.71875 -1.125 0.71875 -1.6875 C 0.71875 -2.59375 1.1875 -3.171875 1.90625 -3.171875 C 2.1875 -3.171875 2.453125 -3.0625 2.640625 -2.859375 C 2.8125 -2.703125 2.875 -2.5625 2.96875 -2.25 Z M 3.09375 -2.25 "
               style="stroke:none;" /></symbol><symbol
             id="textext-60426430-13"
             overflow="visible"><path
               id="path3323"
               d=""
               style="stroke:none;" /></symbol><symbol
             id="textext-60426430-14"
             overflow="visible"><path
               id="path3326"
               d="M 5.71875 -3.296875 L 5.71875 -3.84375 L 0.625 -3.84375 L 0.625 -3.296875 Z M 5.71875 -1.265625 L 5.71875 -1.828125 L 0.625 -1.828125 L 0.625 -1.265625 Z M 5.71875 -1.265625 "
               style="stroke:none;" /></symbol></g></defs><g
         id="textext-60426430-15"><g
           id="g3329"
           style="fill:#000000;fill-opacity:1"
           transform="matrix(1.0462395,0,0,1.0462395,-6.6053205,-26.29376)"><use
             id="use3331"
             y="134.765"
             x="223.43201"
             xlink:href="#textext-60426430-1"
             width="496.06299"
             height="354.33069" /></g><g
           id="g3333"
           style="fill:#000000;fill-opacity:1"
           transform="matrix(1.0462395,0,0,1.0462395,-6.6053205,-26.29376)"><use
             id="use3335"
             y="136.259"
             x="226.75"
             xlink:href="#textext-60426430-5"
             width="496.06299"
             height="354.33069" /></g><g
           id="g3337"
           style="fill:#000000;fill-opacity:1"
           transform="matrix(1.0462395,0,0,1.0462395,-6.6053205,-26.29376)"><use
             id="use3339"
             y="137.30499"
             x="231.401"
             xlink:href="#textext-60426430-9"
             width="496.06299"
             height="354.33069" /><use
             id="use3341"
             y="137.30499"
             x="235.27644"
             xlink:href="#textext-60426430-10"
             width="496.06299"
             height="354.33069" /><use
             id="use3343"
             y="137.30499"
             x="237.48814"
             xlink:href="#textext-60426430-11"
             width="496.06299"
             height="354.33069" /></g><g
           id="g3345"
           style="fill:#000000;fill-opacity:1"
           transform="matrix(1.0462395,0,0,1.0462395,-8.5586584,-26.29376)"><use
             id="use3347"
             y="134.765"
             x="243.743"
             xlink:href="#textext-60426430-14"
             width="496.06299"
             height="354.33069" /></g><g
           id="g3349"
           style="fill:#000000;fill-opacity:1"
           transform="matrix(1.0462395,0,0,1.0462395,-8.5586584,-26.29376)"><use
             id="use3351"
             y="130.254"
             x="254.04201"
             xlink:href="#textext-60426430-6"
             width="496.06299"
             height="354.33069" /></g><g
           id="g3353"
           style="fill:#000000;fill-opacity:1"
           transform="matrix(1.0462395,0,0,1.0462395,-8.5586584,-26.29376)"><use
             id="use3355"
             y="131.3"
             x="259.077"
             xlink:href="#textext-60426430-12"
             width="496.06299"
             height="354.33069" /><use
             id="use3357"
             y="131.3"
             x="262.39954"
             xlink:href="#textext-60426430-12"
             width="496.06299"
             height="354.33069" /></g><path
           id="path3359"
           d="m 257.23115,112.02238 12.73878,0"
           style="fill:none;stroke:#000000;stroke-width:0.58380169;stroke-linecap:butt;stroke-linejoin:miter;stroke-miterlimit:10;stroke-opacity:1"
           inkscape:connector-curvature="0" /><g
           id="g3361"
           style="fill:#000000;fill-opacity:1"
           transform="matrix(1.0462395,0,0,1.0462395,-8.5586584,-26.29376)"><use
             id="use3363"
             y="138.202"
             x="255.895"
             xlink:href="#textext-60426430-7"
             width="496.06299"
             height="354.33069" /></g><g
           id="g3365"
           style="fill:#000000;fill-opacity:1"
           transform="matrix(1.0462395,0,0,1.0462395,-8.5586584,-26.29376)"><use
             id="use3367"
             y="139.248"
             x="260.54599"
             xlink:href="#textext-60426430-12"
             width="496.06299"
             height="354.33069" /></g><g
           id="g3369"
           style="fill:#000000;fill-opacity:1"
           transform="matrix(1.0462395,0,0,1.0462395,-9.7306617,-26.29376)"><use
             id="use3371"
             y="134.765"
             x="270.18301"
             xlink:href="#textext-60426430-14"
             width="496.06299"
             height="354.33069" /></g><text
           xml:space="preserve"
           style="font-size:10.32413864px;font-style:normal;font-variant:normal;font-weight:normal;font-stretch:normal;line-height:125%;letter-spacing:0px;word-spacing:0px;fill:#000000;fill-opacity:1;stroke:none;font-family:Nimbus Roman No9 L;-inkscape-font-specification:Nimbus Roman No9 L"
           x="281.66302"
           y="114.68941"
           id="text3497"
           sodipodi:linespacing="125%"><tspan
             sodipodi:role="line"
             id="tspan3499"
             x="281.66302"
             y="114.68941">5.93</tspan></text>
<text
           xml:space="preserve"
           style="font-size:9.86785412px;font-style:normal;font-variant:normal;font-weight:normal;font-stretch:normal;line-height:125%;letter-spacing:0px;word-spacing:0px;fill:#000000;fill-opacity:1;stroke:none;font-family:Nimbus Roman No9 L;-inkscape-font-specification:Nimbus Roman No9 L"
           x="260.77319"
           y="202.338"
           id="text3501"
           sodipodi:linespacing="125%"><tspan
             sodipodi:role="line"
             id="tspan3503"
             x="260.77319"
             y="202.338"
             dx="0 0 0 1.1202049"
             dy="0 0 0 -1.8670083">I<tspan
   style="font-size:7.59065723px"
   id="tspan3505"
   dx="0.74680328"
   dy="1.8670083">CQ</tspan>=2.93</tspan></text>
</g></g></g></svg>