<?xml version="1.0" encoding="UTF-8" standalone="no"?>
<!-- Created with Inkscape (http://www.inkscape.org/) -->

<svg
   xmlns:ns0="http://www.iki.fi/pav/software/textext/"
   xmlns:dc="http://purl.org/dc/elements/1.1/"
   xmlns:cc="http://creativecommons.org/ns#"
   xmlns:rdf="http://www.w3.org/1999/02/22-rdf-syntax-ns#"
   xmlns:svg="http://www.w3.org/2000/svg"
   xmlns="http://www.w3.org/2000/svg"
   xmlns:xlink="http://www.w3.org/1999/xlink"
   xmlns:sodipodi="http://sodipodi.sourceforge.net/DTD/sodipodi-0.dtd"
   xmlns:inkscape="http://www.inkscape.org/namespaces/inkscape"
   id="svg2"
   version="1.1"
   inkscape:version="0.48.4 r9939"
   width="354.33069"
   height="283.46457"
   xml:space="preserve"
   sodipodi:docname="fig3.6.eps"><sodipodi:namedview
     pagecolor="#ffffff"
     bordercolor="#666666"
     borderopacity="1"
     objecttolerance="10"
     gridtolerance="10"
     guidetolerance="10"
     inkscape:pageopacity="0"
     inkscape:pageshadow="2"
     inkscape:window-width="1024"
     inkscape:window-height="744"
     id="namedview4"
     showgrid="false"
     units="cm"
     inkscape:zoom="0.77248155"
     inkscape:cx="44.590785"
     inkscape:cy="274.53562"
     inkscape:window-x="0"
     inkscape:window-y="24"
     inkscape:window-maximized="1"
     inkscape:current-layer="g10" /><metadata
     id="metadata8"><rdf:RDF><cc:Work
         rdf:about=""><dc:format>image/svg+xml</dc:format><dc:type
           rdf:resource="http://purl.org/dc/dcmitype/StillImage" /><dc:title></dc:title></cc:Work></rdf:RDF></metadata><defs
     id="defs6"><marker
       inkscape:stockid="DotM"
       orient="auto"
       refY="0.0"
       refX="0.0"
       id="DotM"
       style="overflow:visible"><path
         id="path3904"
         d="M -2.5,-1.0 C -2.5,1.7600000 -4.7400000,4.0 -7.5,4.0 C -10.260000,4.0 -12.5,1.7600000 -12.5,-1.0 C -12.5,-3.7600000 -10.260000,-6.0 -7.5,-6.0 C -4.7400000,-6.0 -2.5,-3.7600000 -2.5,-1.0 z "
         style="fill-rule:evenodd;stroke:#000000;stroke-width:1.0pt"
         transform="scale(0.4) translate(7.4, 1)" /></marker><marker
       inkscape:stockid="Arrow1Mend"
       orient="auto"
       refY="0.0"
       refX="0.0"
       id="Arrow1Mend"
       style="overflow:visible;"><path
         id="path3806"
         d="M 0.0,0.0 L 5.0,-5.0 L -12.5,0.0 L 5.0,5.0 L 0.0,0.0 z "
         style="fill-rule:evenodd;stroke:#000000;stroke-width:1.0pt;"
         transform="scale(0.4) rotate(180) translate(10,0)" /></marker></defs><g
     id="g10"
     inkscape:groupmode="layer"
     inkscape:label="ink_ext_XXXXXX"
     transform="matrix(1.25,0,0,-1.25,0,283.46395)"><path
       sodipodi:nodetypes="cc"
       inkscape:connector-curvature="0"
       id="path4284"
       d="m 73.402609,105.30154 46.594131,0"
       style="fill:none;stroke:#000000;stroke-width:1.04999995;stroke-linecap:butt;stroke-linejoin:miter;stroke-miterlimit:4;stroke-opacity:1;stroke-dasharray:none;marker-end:none" /><path
       style="fill:none;stroke:#000000;stroke-width:1.0292722;stroke-linecap:butt;stroke-linejoin:miter;stroke-miterlimit:4;stroke-opacity:1;stroke-dasharray:none"
       d="m 73.580913,105.07367 -0.703507,36.0739 -8.266214,2.92986 13.894275,3.93699 -13.982215,4.02856 8.333521,2.28414 0,40.83973 66.502097,0 -0.17587,-19.77655 -8.8876,-3.48128 14.24909,-4.29322 -15.16586,-3.3749 9.82241,-3.1306 0.26381,-31.49906 -19.8349,-11.22463"
       id="path4472"
       inkscape:connector-curvature="0"
       sodipodi:nodetypes="ccccccccccccccc" /><path
       style="fill:none;stroke:#000000;stroke-width:1.04999995;stroke-linecap:butt;stroke-linejoin:miter;stroke-miterlimit:4;stroke-opacity:1;stroke-dasharray:none;marker-end:none"
       d="m 119.74289,82.122677 0,46.650633"
       id="path4474"
       inkscape:connector-curvature="0"
       sodipodi:nodetypes="cc" /><path
       style="fill:none;stroke:#000000;stroke-width:1.3125;stroke-linecap:butt;stroke-linejoin:miter;stroke-opacity:1;marker-end:url(#Arrow1Mend);stroke-miterlimit:4;stroke-dasharray:none"
       d="m 149.89191,165.38178 c 8.2027,4.73583 14.77848,9.94386 23.57644,15.02337"
       id="path4476"
       inkscape:connector-curvature="0"
       transform="matrix(0.8,0,0,-0.8,0,226.77116)"
       sodipodi:nodetypes="cc" /><text
       xml:space="preserve"
       style="font-size:13px;font-style:normal;font-variant:normal;font-weight:normal;font-stretch:normal;line-height:125%;letter-spacing:0px;word-spacing:0px;fill:#000000;fill-opacity:1;stroke:none;font-family:Nimbus Roman No9 L;-inkscape-font-specification:Nimbus Roman No9 L"
       x="187.53651"
       y="127.73717"
       id="text4866"
       sodipodi:linespacing="125%"
       transform="matrix(0.8,0,0,-0.8,0,226.77116)"><tspan
         sodipodi:role="line"
         id="tspan4868"
         x="187.53651"
         y="127.73717" /><tspan
         sodipodi:role="line"
         id="tspan4870"
         x="187.53651"
         y="143.98717" /></text>
<path
       style="fill:none;stroke:#000000;stroke-width:1.04999995;stroke-linecap:butt;stroke-linejoin:miter;stroke-miterlimit:4;stroke-opacity:1;stroke-dasharray:none;marker-end:url(#DotM)"
       d="m 139.22248,194.41185 0,18.36772"
       id="path4878"
       inkscape:connector-curvature="0"
       sodipodi:nodetypes="cc" /><path
       sodipodi:nodetypes="cc"
       inkscape:connector-curvature="0"
       id="path4896"
       d="m 139.46071,36.821122 0,45.552188"
       style="fill:none;stroke:#000000;stroke-width:1.04999995;stroke-linecap:butt;stroke-linejoin:miter;stroke-miterlimit:4;stroke-opacity:1;stroke-dasharray:none;marker-end:none" /><path
       style="fill:none;stroke:#000000;stroke-width:1.04999995;stroke-linecap:butt;stroke-linejoin:miter;stroke-miterlimit:4;stroke-opacity:1;stroke-dasharray:none"
       d="m 128.3127,50.249544 22.15196,0"
       id="path4898"
       inkscape:connector-curvature="0" /><path
       style="fill:none;stroke:#000000;stroke-width:1.04999995;stroke-linecap:butt;stroke-linejoin:miter;stroke-miterlimit:4;stroke-opacity:1;stroke-dasharray:none"
       d="m 130.81885,47.567356 17.16802,0"
       id="path4902"
       inkscape:connector-curvature="0"
       sodipodi:nodetypes="cc" /><path
       inkscape:connector-curvature="0"
       id="path4904"
       d="m 132.63121,44.367356 13.73752,0"
       style="fill:none;stroke:#000000;stroke-width:1.04999995;stroke-linecap:butt;stroke-linejoin:miter;stroke-miterlimit:4;stroke-opacity:1;stroke-dasharray:none"
       sodipodi:nodetypes="cc" /><path
       style="fill:none;stroke:#000000;stroke-width:1.04999995;stroke-linecap:butt;stroke-linejoin:miter;stroke-miterlimit:4;stroke-opacity:1;stroke-dasharray:none"
       d="m 134.24936,41.167356 10.5012,0"
       id="path4906"
       inkscape:connector-curvature="0"
       sodipodi:nodetypes="cc" /><path
       inkscape:connector-curvature="0"
       id="path4908"
       d="m 135.47915,38.790638 7.91214,0"
       style="fill:none;stroke:#000000;stroke-width:1.04999995;stroke-linecap:butt;stroke-linejoin:miter;stroke-miterlimit:4;stroke-opacity:1;stroke-dasharray:none"
       sodipodi:nodetypes="cc" /><path
       inkscape:connector-curvature="0"
       id="path5098"
       d="m 79.35351,99.678279 20.453568,0.092"
       style="fill:none;stroke:#000000;stroke-width:1;stroke-linecap:butt;stroke-linejoin:miter;stroke-miterlimit:4;stroke-opacity:1;stroke-dasharray:none;marker-end:url(#Arrow1Mend)"
       sodipodi:nodetypes="cc" /><text
       xml:space="preserve"
       style="font-size:10.39999962px;font-style:normal;font-variant:normal;font-weight:normal;font-stretch:normal;line-height:125%;letter-spacing:0px;word-spacing:0px;fill:#000000;fill-opacity:1;stroke:none;font-family:Nimbus Roman No9 L;-inkscape-font-specification:Nimbus Roman No9 L"
       x="113.91858"
       y="-163.88692"
       id="text5100"
       sodipodi:linespacing="125%"
       transform="scale(1,-1)"><tspan
         sodipodi:role="line"
         id="tspan5102"
         x="113.91858"
         y="-163.88692">R<tspan
   style="font-size:8px"
   id="tspan5104"
   dy="2.5890586"
   dx="3.6730374e-09">C</tspan></tspan></text>
<text
       xml:space="preserve"
       style="font-size:10.39999962px;font-style:normal;font-variant:normal;font-weight:normal;font-stretch:normal;line-height:125%;letter-spacing:0px;word-spacing:0px;fill:#000000;fill-opacity:1;stroke:none;font-family:Nimbus Roman No9 L;-inkscape-font-specification:Nimbus Roman No9 L"
       x="145.37645"
       y="-208.93462"
       id="text5106"
       sodipodi:linespacing="125%"
       transform="scale(1,-1)"><tspan
         sodipodi:role="line"
         id="tspan5108"
         x="145.37645"
         y="-208.93462">V<tspan
   style="font-size:8px"
   id="tspan5110"
   dy="2.0138147">CC<tspan
   style="font-size:10.39999962px"
   id="tspan3134"
   dy="-1.830741"
   dx="0.36614817">=12V</tspan></tspan></tspan></text>
<text
       xml:space="preserve"
       style="font-size:10.39999962px;font-style:normal;font-variant:normal;font-weight:normal;font-stretch:normal;line-height:125%;letter-spacing:0px;word-spacing:0px;fill:#000000;fill-opacity:1;stroke:none;font-family:Nimbus Roman No9 L;-inkscape-font-specification:Nimbus Roman No9 L"
       x="46.317757"
       y="-145.72649"
       id="text5118"
       sodipodi:linespacing="125%"
       transform="scale(1,-1)"><tspan
         sodipodi:role="line"
         id="tspan5120"
         x="46.317757"
         y="-145.72649">R<tspan
   style="font-size:8px"
   id="tspan5122"
   dy="1.6476667"
   dx="-0.18307409">B</tspan></tspan></text>
<path
       sodipodi:nodetypes="cc"
       inkscape:connector-curvature="0"
       id="path3163"
       d="m 140.07172,135.61426 20.69788,0"
       style="fill:none;stroke:#000000;stroke-width:1.04999995;stroke-linecap:butt;stroke-linejoin:miter;stroke-miterlimit:4;stroke-opacity:1;stroke-dasharray:none;marker-end:url(#DotM)" /><text
       xml:space="preserve"
       style="font-size:10.39999962px;font-style:normal;font-variant:normal;font-weight:normal;font-stretch:normal;line-height:125%;letter-spacing:0px;word-spacing:0px;fill:#000000;fill-opacity:1;stroke:none;font-family:Nimbus Roman No9 L;-inkscape-font-specification:Nimbus Roman No9 L"
       x="165.03751"
       y="-132.54514"
       id="text3165"
       sodipodi:linespacing="125%"
       transform="scale(1,-1)"><tspan
         sodipodi:role="line"
         id="tspan3167"
         x="165.03751"
         y="-132.54514">5.8V</tspan></text>
<g
       transform="matrix(1.1311767,0,0,-1.1311767,-104.60853,264.07765)"
       ns0:text="$\\beta=80$"
       ns0:preamble="/home/sriranga/Desktop/Prism-Basic-Electronics/package.tex"
       id="g3206"><defs
         id="defs3208"><g
           id="g3210"><symbol
             style="overflow:visible"
             overflow="visible"
             id="textext-62e86083-0"><path
               inkscape:connector-curvature="0"
               style="stroke:none"
               d=""
               id="path3213" /></symbol><symbol
             style="overflow:visible"
             overflow="visible"
             id="textext-62e86083-1"><path
               inkscape:connector-curvature="0"
               style="stroke:none"
               d="m 5.03125,-5.390625 c 0,-0.78125 -0.640625,-1.140625 -1.46875,-1.140625 -1.046875,0 -2.078125,0.703125 -2.359375,1.71875 L -0.3125,0.75 C -0.484375,1.375 -0.875,1.9375 -0.96875,2.0625 l 0.890625,0 c 0.015625,0 0.171875,-0.078125 0.5,-1.328125 L 0.75,-0.546875 l 0.015625,0 c 0,0.015625 0.328125,0.71875 1.34375,0.71875 1.484375,0 2.5,-1.125 2.5,-2.265625 0,-1.25 -1.125,-1.4375 -1.140625,-1.4375 l 0,-0.03125 c 0.015625,0 1.5625,-0.359375 1.5625,-1.828125 z M 4.25,-5.40625 c 0,0.46875 -0.265625,1.59375 -1.0625,1.59375 -0.203125,0 -0.359375,-0.046875 -0.53125,-0.046875 -0.265625,0 -0.453125,0.234375 -0.453125,0.40625 0,0.109375 0.078125,0.203125 0.265625,0.203125 0.265625,0 0.34375,-0.046875 0.578125,-0.046875 0.484375,0 0.71875,0.53125 0.71875,1.09375 0,1 -0.609375,1.90625 -1.671875,1.90625 -0.671875,0 -1.109375,-0.34375 -1.109375,-0.921875 0,-0.109375 0.015625,-0.25 0.046875,-0.390625 L 1.9375,-4.8125 C 2.109375,-5.453125 2.578125,-6.25 3.46875,-6.25 4.03125,-6.25 4.25,-5.859375 4.25,-5.40625 z m 0,0"
               id="path3216" /></symbol><symbol
             style="overflow:visible"
             overflow="visible"
             id="textext-62e86083-2"><path
               inkscape:connector-curvature="0"
               style="stroke:none"
               d=""
               id="path3219" /></symbol><symbol
             style="overflow:visible"
             overflow="visible"
             id="textext-62e86083-3"><path
               inkscape:connector-curvature="0"
               style="stroke:none"
               d="m 5.71875,-3.296875 0,-0.546875 -5.09375,0 0,0.546875 z m 0,2.03125 0,-0.5625 -5.09375,0 0,0.5625 z m 0,0"
               id="path3222" /></symbol><symbol
             style="overflow:visible"
             overflow="visible"
             id="textext-62e86083-4"><path
               inkscape:connector-curvature="0"
               style="stroke:none"
               d=""
               id="path3225" /></symbol><symbol
             style="overflow:visible"
             overflow="visible"
             id="textext-62e86083-5"><path
               inkscape:connector-curvature="0"
               style="stroke:none"
               d="m 2.890625,-3.703125 c 0.984375,-0.53125 1.34375,-0.9375 1.34375,-1.625 0,-0.8125 -0.71875,-1.40625 -1.71875,-1.40625 -1.09375,0 -1.890625,0.65625 -1.890625,1.578125 0,0.640625 0.1875,0.921875 1.234375,1.84375 C 0.78125,-2.5 0.5625,-2.1875 0.5625,-1.5 c 0,0.96875 0.78125,1.640625 1.90625,1.640625 1.203125,0 1.96875,-0.65625 1.96875,-1.6875 0,-0.765625 -0.34375,-1.25 -1.546875,-2.15625 z m -0.171875,1.03125 c 0.71875,0.515625 0.953125,0.875 0.953125,1.4375 0,0.640625 -0.4375,1.09375 -1.09375,1.09375 -0.75,0 -1.265625,-0.578125 -1.265625,-1.4375 0,-0.640625 0.21875,-1.0625 0.796875,-1.53125 z M 2.609375,-3.875 c -0.890625,-0.578125 -1.25,-1.046875 -1.25,-1.59375 0,-0.578125 0.4375,-0.984375 1.078125,-0.984375 0.671875,0 1.09375,0.4375 1.09375,1.125 0,0.5625 -0.265625,1.015625 -0.84375,1.390625 -0.046875,0.03125 -0.046875,0.03125 -0.078125,0.0625 z m 0,0"
               id="path3228" /></symbol><symbol
             style="overflow:visible"
             overflow="visible"
             id="textext-62e86083-6"><path
               inkscape:connector-curvature="0"
               style="stroke:none"
               d="m 2.53125,-6.734375 c -0.546875,0 -0.96875,0.171875 -1.328125,0.515625 -0.578125,0.5625 -0.96875,1.703125 -0.96875,2.875 0,1.078125 0.328125,2.25 0.796875,2.8125 0.375,0.4375 0.875,0.671875 1.46875,0.671875 0.5,0 0.921875,-0.171875 1.28125,-0.515625 C 4.359375,-0.921875 4.75,-2.078125 4.75,-3.296875 c 0,-2.03125 -0.90625,-3.4375 -2.21875,-3.4375 z m -0.03125,0.25 c 0.84375,0 1.28125,1.125 1.28125,3.21875 0,2.078125 -0.4375,3.140625 -1.28125,3.140625 -0.859375,0 -1.296875,-1.0625 -1.296875,-3.140625 0,-2.109375 0.4375,-3.21875 1.296875,-3.21875 z m 0,0"
               id="path3231" /></symbol></g></defs><g
         id="textext-62e86083-7"><g
           style="fill:#000000;fill-opacity:1"
           id="g3234"><use
             height="283.46457"
             width="354.33069"
             xlink:href="#textext-62e86083-1"
             x="223.43201"
             y="134.765"
             id="use3236" /></g><g
           style="fill:#000000;fill-opacity:1"
           id="g3238"><use
             height="283.46457"
             width="354.33069"
             xlink:href="#textext-62e86083-3"
             x="231.25999"
             y="134.765"
             id="use3240" /></g><g
           style="fill:#000000;fill-opacity:1"
           id="g3242"><use
             height="283.46457"
             width="354.33069"
             xlink:href="#textext-62e86083-5"
             x="240.364"
             y="134.765"
             id="use3244" /><use
             height="283.46457"
             width="354.33069"
             xlink:href="#textext-62e86083-6"
             x="245.34531"
             y="134.765"
             id="use3246" /></g></g></g><g
       id="g3420"
       ns0:preamble="/home/sriranga/Desktop/Prism-Basic-Electronics/package.tex"
       ns0:text="$\\text{I}_{\\text{B}}=40\\mu\\text{A}$"
       transform="matrix(1.0792127,0,0,-1.0792127,-174.55695,231.79428)"><defs
         id="defs3422"><g
           id="g3424"><symbol
             id="textext-909f84de-0"
             overflow="visible"
             style="overflow:visible"><path
               id="path3427"
               d=""
               style="stroke:none"
               inkscape:connector-curvature="0" /></symbol><symbol
             id="textext-909f84de-1"
             overflow="visible"
             style="overflow:visible"><path
               id="path3430"
               d="m 1.140625,-1.09375 c 0,0.75 -0.125,0.875 -0.96875,0.90625 l 0,0.1875 2.96875,0 0,-0.1875 C 2.328125,-0.21875 2.15625,-0.359375 2.15625,-1.09375 l 0,-4.421875 c 0,-0.71875 0.140625,-0.859375 0.984375,-0.890625 l 0,-0.1875 -2.96875,0 0,0.1875 c 0.859375,0.046875 0.96875,0.15625 0.96875,0.890625 z m 0,0"
               style="stroke:none"
               inkscape:connector-curvature="0" /></symbol><symbol
             id="textext-909f84de-2"
             overflow="visible"
             style="overflow:visible"><path
               id="path3433"
               d="m 4.703125,-2.296875 -1.015625,0 0,-4.4375 -0.4375,0 -3.125,4.4375 0,0.625 2.796875,0 0,1.671875 0.765625,0 0,-1.671875 1.015625,0 z m -1.796875,0 -2.390625,0 2.390625,-3.421875 z m 0,0"
               style="stroke:none"
               inkscape:connector-curvature="0" /></symbol><symbol
             id="textext-909f84de-3"
             overflow="visible"
             style="overflow:visible"><path
               id="path3436"
               d="m 2.53125,-6.734375 c -0.546875,0 -0.96875,0.171875 -1.328125,0.515625 -0.578125,0.5625 -0.96875,1.703125 -0.96875,2.875 0,1.078125 0.328125,2.25 0.796875,2.8125 0.375,0.4375 0.875,0.671875 1.46875,0.671875 0.5,0 0.921875,-0.171875 1.28125,-0.515625 C 4.359375,-0.921875 4.75,-2.078125 4.75,-3.296875 c 0,-2.03125 -0.90625,-3.4375 -2.21875,-3.4375 z m -0.03125,0.25 c 0.84375,0 1.28125,1.125 1.28125,3.21875 0,2.078125 -0.4375,3.140625 -1.28125,3.140625 -0.859375,0 -1.296875,-1.0625 -1.296875,-3.140625 0,-2.109375 0.4375,-3.21875 1.296875,-3.21875 z m 0,0"
               style="stroke:none"
               inkscape:connector-curvature="0" /></symbol><symbol
             id="textext-909f84de-4"
             overflow="visible"
             style="overflow:visible"><path
               id="path3439"
               d="m 7.03125,-0.1875 c -0.4375,-0.03125 -0.546875,-0.125 -0.890625,-0.875 l -2.484375,-5.65625 -0.203125,0 -2.0625,4.890625 C 0.75,-0.375 0.625,-0.203125 0.15625,-0.1875 l 0,0.1875 1.96875,0 0,-0.1875 c -0.484375,0 -0.671875,-0.125 -0.671875,-0.40625 0,-0.125 0.015625,-0.265625 0.078125,-0.390625 l 0.453125,-1.171875 2.609375,0 L 5,-1.203125 c 0.125,0.28125 0.1875,0.53125 0.1875,0.671875 0,0.25 -0.15625,0.328125 -0.6875,0.34375 L 4.5,0 7.03125,0 z m -4.875,-2.375 1.140625,-2.734375 1.15625,2.734375 z m 0,0"
               style="stroke:none"
               inkscape:connector-curvature="0" /></symbol><symbol
             id="textext-909f84de-5"
             overflow="visible"
             style="overflow:visible"><path
               id="path3442"
               d=""
               style="stroke:none"
               inkscape:connector-curvature="0" /></symbol><symbol
             id="textext-909f84de-6"
             overflow="visible"
             style="overflow:visible"><path
               id="path3445"
               d="m 0.125,-4.609375 0,0.125 c 0.578125,0.03125 0.65625,0.109375 0.65625,0.625 l 0,3.09375 C 0.78125,-0.25 0.703125,-0.15625 0.125,-0.125 L 0.125,0 2.453125,0 C 2.984375,0 3.484375,-0.140625 3.75,-0.390625 4,-0.609375 4.125,-0.921875 4.125,-1.25 4.125,-1.5625 4,-1.84375 3.796875,-2.046875 c -0.21875,-0.1875 -0.40625,-0.265625 -0.859375,-0.375 0.359375,-0.09375 0.515625,-0.15625 0.671875,-0.3125 0.1875,-0.15625 0.28125,-0.40625 0.28125,-0.6875 0,-0.78125 -0.609375,-1.1875 -1.828125,-1.1875 z m 1.375,2.34375 c 0.671875,0 1,0.03125 1.25,0.140625 0.390625,0.15625 0.578125,0.4375 0.578125,0.875 0,0.375 -0.140625,0.65625 -0.421875,0.8125 -0.21875,0.125 -0.515625,0.171875 -0.96875,0.171875 -0.34375,0 -0.4375,-0.0625 -0.4375,-0.28125 z m 0,-0.28125 0,-1.59375 c 0,-0.15625 0.046875,-0.21875 0.15625,-0.21875 l 0.296875,0 c 0.8125,0 1.234375,0.34375 1.234375,0.953125 0,0.546875 -0.375,0.859375 -1.03125,0.859375 z m 0,0"
               style="stroke:none"
               inkscape:connector-curvature="0" /></symbol><symbol
             id="textext-909f84de-7"
             overflow="visible"
             style="overflow:visible"><path
               id="path3448"
               d=""
               style="stroke:none"
               inkscape:connector-curvature="0" /></symbol><symbol
             id="textext-909f84de-8"
             overflow="visible"
             style="overflow:visible"><path
               id="path3451"
               d="m 5.71875,-3.296875 0,-0.546875 -5.09375,0 0,0.546875 z m 0,2.03125 0,-0.5625 -5.09375,0 0,0.5625 z m 0,0"
               style="stroke:none"
               inkscape:connector-curvature="0" /></symbol><symbol
             id="textext-909f84de-9"
             overflow="visible"
             style="overflow:visible"><path
               id="path3454"
               d=""
               style="stroke:none"
               inkscape:connector-curvature="0" /></symbol><symbol
             id="textext-909f84de-10"
             overflow="visible"
             style="overflow:visible"><path
               id="path3457"
               d="m 4.9375,-0.765625 c 0,-0.0625 -0.015625,-0.09375 -0.046875,-0.09375 C 4.75,-0.859375 4.75,-0.265625 4.21875,-0.265625 4.0625,-0.265625 4,-0.40625 4,-0.59375 c 0,-0.25 0.109375,-0.625 0.203125,-1.03125 L 4.90625,-4.390625 4.03125,-4.25 l -0.796875,3 C 3.21875,-1.203125 2.625,-0.375 2.03125,-0.375 c -0.578125,0 -0.75,-0.515625 -0.75,-0.90625 0,-0.109375 0.015625,-0.21875 0.03125,-0.3125 l 0.71875,-2.796875 -0.75,0.125 L 0.203125,0 c -0.21875,0.8125 -0.609375,1.890625 -0.6875,2.0625 l 0.875,0 0.640625,-2.484375 c 0,0 0.046875,0.53125 0.765625,0.53125 0.796875,0 1.28125,-0.78125 1.390625,-0.90625 -0.015625,0.078125 -0.03125,0.15625 -0.03125,0.21875 0,0.65625 0.609375,0.6875 0.78125,0.6875 l 0.03125,0 c 0.6875,0 0.96875,-0.640625 0.96875,-0.875 z m 0,0"
               style="stroke:none"
               inkscape:connector-curvature="0" /></symbol></g></defs><g
         id="textext-909f84de-11"><g
           id="g3460"
           style="fill:#000000;fill-opacity:1"><use
             id="use3462"
             y="134.765"
             x="223.43201"
             xlink:href="#textext-909f84de-1"
             width="354.33069"
             height="283.46457" /></g><g
           id="g3464"
           style="fill:#000000;fill-opacity:1"><use
             id="use3466"
             y="136.259"
             x="226.75"
             xlink:href="#textext-909f84de-6"
             width="354.33069"
             height="283.46457" /></g><g
           id="g3468"
           style="fill:#000000;fill-opacity:1"><use
             id="use3470"
             y="134.765"
             x="234.66701"
             xlink:href="#textext-909f84de-8"
             width="354.33069"
             height="283.46457" /></g><g
           id="g3472"
           style="fill:#000000;fill-opacity:1"><use
             id="use3474"
             y="134.765"
             x="243.77"
             xlink:href="#textext-909f84de-2"
             width="354.33069"
             height="283.46457" /><use
             id="use3476"
             y="134.765"
             x="248.7513"
             xlink:href="#textext-909f84de-3"
             width="354.33069"
             height="283.46457" /></g><g
           id="g3478"
           style="fill:#000000;fill-opacity:1"><use
             id="use3480"
             y="134.765"
             x="253.733"
             xlink:href="#textext-909f84de-10"
             width="354.33069"
             height="283.46457" /></g><g
           id="g3482"
           style="fill:#000000;fill-opacity:1"><use
             id="use3484"
             y="134.765"
             x="259.06299"
             xlink:href="#textext-909f84de-4"
             width="354.33069"
             height="283.46457" /></g></g></g></g></svg>