<?xml version="1.0" encoding="UTF-8" standalone="no"?>
<!-- Created with Inkscape (http://www.inkscape.org/) -->

<svg
   xmlns:ns0="http://www.iki.fi/pav/software/textext/"
   xmlns:dc="http://purl.org/dc/elements/1.1/"
   xmlns:cc="http://creativecommons.org/ns#"
   xmlns:rdf="http://www.w3.org/1999/02/22-rdf-syntax-ns#"
   xmlns:svg="http://www.w3.org/2000/svg"
   xmlns="http://www.w3.org/2000/svg"
   xmlns:xlink="http://www.w3.org/1999/xlink"
   xmlns:sodipodi="http://sodipodi.sourceforge.net/DTD/sodipodi-0.dtd"
   xmlns:inkscape="http://www.inkscape.org/namespaces/inkscape"
   id="svg2"
   version="1.1"
   inkscape:version="0.48.4 r9939"
   width="354.33069"
   height="283.46457"
   xml:space="preserve"
   sodipodi:docname="fig3.15.eps"><sodipodi:namedview
     pagecolor="#ffffff"
     bordercolor="#666666"
     borderopacity="1"
     objecttolerance="10"
     gridtolerance="10"
     guidetolerance="10"
     inkscape:pageopacity="0"
     inkscape:pageshadow="2"
     inkscape:window-width="1024"
     inkscape:window-height="744"
     id="namedview4"
     showgrid="false"
     units="cm"
     inkscape:zoom="1.5449631"
     inkscape:cx="188.07854"
     inkscape:cy="105.96175"
     inkscape:window-x="0"
     inkscape:window-y="24"
     inkscape:window-maximized="1"
     inkscape:current-layer="g10" /><metadata
     id="metadata8"><rdf:RDF><cc:Work
         rdf:about=""><dc:format>image/svg+xml</dc:format><dc:type
           rdf:resource="http://purl.org/dc/dcmitype/StillImage" /><dc:title></dc:title></cc:Work></rdf:RDF></metadata><defs
     id="defs6"><marker
       style="overflow:visible"
       id="DotM"
       refX="0.0"
       refY="0.0"
       orient="auto"
       inkscape:stockid="DotM"><path
         transform="scale(0.4) translate(7.4, 1)"
         style="fill-rule:evenodd;stroke:#000000;stroke-width:1.0pt"
         d="M -2.5,-1.0 C -2.5,1.7600000 -4.7400000,4.0 -7.5,4.0 C -10.260000,4.0 -12.5,1.7600000 -12.5,-1.0 C -12.5,-3.7600000 -10.260000,-6.0 -7.5,-6.0 C -4.7400000,-6.0 -2.5,-3.7600000 -2.5,-1.0 z "
         id="path3904" /></marker><marker
       style="overflow:visible;"
       id="Arrow1Mend"
       refX="0.0"
       refY="0.0"
       orient="auto"
       inkscape:stockid="Arrow1Mend"><path
         transform="scale(0.4) rotate(180) translate(10,0)"
         style="fill-rule:evenodd;stroke:#000000;stroke-width:1.0pt;"
         d="M 0.0,0.0 L 5.0,-5.0 L -12.5,0.0 L 5.0,5.0 L 0.0,0.0 z "
         id="path3806" /></marker></defs><g
     transform="matrix(1.25,0,0,-1.25,0,283.46395)"
     inkscape:label="ink_ext_XXXXXX"
     inkscape:groupmode="layer"
     id="g10"><path
       style="fill:none;stroke:#000000;stroke-width:1.04999995;stroke-linecap:butt;stroke-linejoin:miter;stroke-miterlimit:4;stroke-opacity:1;stroke-dasharray:none;marker-end:none"
       d="m 103.14578,105.30154 69.65096,0"
       id="path4284"
       inkscape:connector-curvature="0"
       sodipodi:nodetypes="cc" /><path
       sodipodi:nodetypes="cc"
       inkscape:connector-curvature="0"
       id="path4474"
       d="m 172.54289,82.122677 0,46.650633"
       style="fill:none;stroke:#000000;stroke-width:1.04999995;stroke-linecap:butt;stroke-linejoin:miter;stroke-miterlimit:4;stroke-opacity:1;stroke-dasharray:none;marker-end:none" /><path
       sodipodi:nodetypes="cc"
       inkscape:connector-curvature="0"
       id="path4476"
       d="m 172.71353,94.465736 c 6.34977,-3.666048 12.06835,-7.6858 19.57314,-12.018696"
       style="fill:none;stroke:#000000;stroke-width:1.04999995;stroke-linecap:butt;stroke-linejoin:miter;stroke-miterlimit:4;stroke-opacity:1;stroke-dasharray:none;marker-end:url(#Arrow1Mend)" /><path
       sodipodi:nodetypes="ccccccccc"
       inkscape:connector-curvature="0"
       id="path4484"
       d="m 103.14951,104.90634 0.0759,43.61686 22.08502,0 3.10687,6.08429 2.97742,-9.06171 3.88359,8.28499 2.58906,-9.19116 2.4596,3.88359 51.91444,0"
       style="fill:none;stroke:#000000;stroke-width:1.00667298;stroke-linecap:butt;stroke-linejoin:miter;stroke-miterlimit:4;stroke-opacity:1;stroke-dasharray:none;marker-end:none" /><text
       transform="matrix(0.8,0,0,-0.8,0,226.77116)"
       sodipodi:linespacing="125%"
       id="text4866"
       y="127.73717"
       x="187.53651"
       style="font-size:13px;font-style:normal;font-variant:normal;font-weight:normal;font-stretch:normal;line-height:125%;letter-spacing:0px;word-spacing:0px;fill:#000000;fill-opacity:1;stroke:none;font-family:Nimbus Roman No9 L;-inkscape-font-specification:Nimbus Roman No9 L"
       xml:space="preserve"><tspan
         y="127.73717"
         x="187.53651"
         id="tspan4868"
         sodipodi:role="line" /><tspan
         y="143.98717"
         x="187.53651"
         id="tspan4870"
         sodipodi:role="line" /></text>
<path
       sodipodi:nodetypes="ccccccccc"
       inkscape:connector-curvature="0"
       id="path4878"
       d="m 172.84417,116.07335 19.40585,13.54261 0,38.41345 5.04866,3.88358 -9.70897,2.97742 8.93226,3.75413 -9.83843,4.27194 5.56648,3.62469 0,24.50609"
       style="fill:none;stroke:#000000;stroke-width:1.04999995;stroke-linecap:butt;stroke-linejoin:miter;stroke-miterlimit:4;stroke-opacity:1;stroke-dasharray:none;marker-end:url(#DotM)" /><path
       style="fill:none;stroke:#000000;stroke-width:1.04999995;stroke-linecap:butt;stroke-linejoin:miter;stroke-miterlimit:4;stroke-opacity:1;stroke-dasharray:none;marker-end:none"
       d="m 192.26071,19.336967 -0.12945,27.384803 2.97741,3.10687 -7.76717,2.847965 8.02608,3.365776 -8.54389,2.977417 5.43702,3.754135 0,19.718588"
       id="path4896"
       inkscape:connector-curvature="0"
       sodipodi:nodetypes="cccccccc" /><path
       inkscape:connector-curvature="0"
       id="path4898"
       d="m 181.1127,34.06647 22.15196,0"
       style="fill:none;stroke:#000000;stroke-width:1.04999995;stroke-linecap:butt;stroke-linejoin:miter;stroke-miterlimit:4;stroke-opacity:1;stroke-dasharray:none" /><path
       sodipodi:nodetypes="cc"
       inkscape:connector-curvature="0"
       id="path4902"
       d="m 183.61885,31.384282 17.16802,0"
       style="fill:none;stroke:#000000;stroke-width:1.04999995;stroke-linecap:butt;stroke-linejoin:miter;stroke-miterlimit:4;stroke-opacity:1;stroke-dasharray:none" /><path
       sodipodi:nodetypes="cc"
       style="fill:none;stroke:#000000;stroke-width:1.04999995;stroke-linecap:butt;stroke-linejoin:miter;stroke-miterlimit:4;stroke-opacity:1;stroke-dasharray:none"
       d="m 185.43121,28.572641 13.73752,0"
       id="path4904"
       inkscape:connector-curvature="0" /><path
       sodipodi:nodetypes="cc"
       inkscape:connector-curvature="0"
       id="path4906"
       d="m 187.04936,26.019906 10.5012,0"
       style="fill:none;stroke:#000000;stroke-width:1.04999995;stroke-linecap:butt;stroke-linejoin:miter;stroke-miterlimit:4;stroke-opacity:1;stroke-dasharray:none" /><path
       sodipodi:nodetypes="cc"
       style="fill:none;stroke:#000000;stroke-width:1.04999995;stroke-linecap:butt;stroke-linejoin:miter;stroke-miterlimit:4;stroke-opacity:1;stroke-dasharray:none"
       d="m 188.27915,23.643188 7.91214,0"
       id="path4908"
       inkscape:connector-curvature="0" /><path
       sodipodi:nodetypes="ccc"
       style="fill:none;stroke:#000000;stroke-width:1;stroke-linecap:butt;stroke-linejoin:miter;stroke-miterlimit:4;stroke-opacity:1;stroke-dasharray:none;marker-end:url(#Arrow1Mend)"
       d="m 110.09146,122.32581 0,-11.8411 20.10785,-0.24179"
       id="path5098"
       inkscape:connector-curvature="0" /><text
       transform="scale(1,-1)"
       sodipodi:linespacing="125%"
       id="text5106"
       y="-210.85321"
       x="195.48962"
       style="font-size:10.39999962px;font-style:normal;font-variant:normal;font-weight:normal;font-stretch:normal;line-height:125%;letter-spacing:0px;word-spacing:0px;fill:#000000;fill-opacity:1;stroke:none;font-family:Nimbus Roman No9 L;-inkscape-font-specification:Nimbus Roman No9 L"
       xml:space="preserve"><tspan
         y="-210.85321"
         x="195.48962"
         id="tspan5108"
         sodipodi:role="line">V<tspan
   dy="2.0138147 0 -2.1968889"
   id="tspan5110"
   style="font-size:8px">CC <tspan
   id="tspan5078"
   style="font-size:10.39999962px">= 16V</tspan></tspan></tspan></text>
<text
       transform="scale(1,-1)"
       sodipodi:linespacing="125%"
       id="text5112"
       y="-115.42391"
       x="112.81143"
       style="font-size:10.39999962px;font-style:normal;font-variant:normal;font-weight:normal;font-stretch:normal;line-height:125%;letter-spacing:0px;word-spacing:0px;fill:#000000;fill-opacity:1;stroke:none;font-family:Nimbus Roman No9 L;-inkscape-font-specification:Nimbus Roman No9 L"
       xml:space="preserve"><tspan
         y="-115.42391"
         x="112.81143"
         id="tspan5114"
         sodipodi:role="line">I<tspan
   dx="0.18307409"
   dy="1.6476667"
   id="tspan5116"
   style="font-size:8px">B</tspan></tspan></text>
<text
       transform="scale(1,-1)"
       sodipodi:linespacing="125%"
       id="text5118"
       y="-173.82457"
       x="169.73456"
       style="font-size:10.39999962px;font-style:normal;font-variant:normal;font-weight:normal;font-stretch:normal;line-height:125%;letter-spacing:0px;word-spacing:0px;fill:#000000;fill-opacity:1;stroke:none;font-family:Nimbus Roman No9 L;-inkscape-font-specification:Nimbus Roman No9 L"
       xml:space="preserve"><tspan
         y="-173.82457"
         x="169.73456"
         id="tspan5120"
         sodipodi:role="line">R<tspan
   style="font-size:8px"
   id="tspan4379"
   dy="2.1968889"
   dx="0.36614817">C</tspan></tspan></text>
<text
       xml:space="preserve"
       style="font-size:10.39999962px;font-style:normal;font-variant:normal;font-weight:normal;font-stretch:normal;line-height:125%;letter-spacing:0px;word-spacing:0px;fill:#000000;fill-opacity:1;stroke:none;font-family:Nimbus Roman No9 L;-inkscape-font-specification:Nimbus Roman No9 L"
       x="121.83951"
       y="-161.00938"
       id="text4381"
       sodipodi:linespacing="125%"
       transform="scale(1,-1)"><tspan
         sodipodi:role="line"
         id="tspan4383"
         x="121.83951"
         y="-161.00938">R<tspan
   style="font-size:8px"
   id="tspan4387"
   dy="1.8307407"
   dx="0.36614817">B</tspan></tspan></text>
<path
       sodipodi:nodetypes="cc"
       style="fill:none;stroke:#000000;stroke-width:1;stroke-linecap:butt;stroke-linejoin:miter;stroke-miterlimit:4;stroke-opacity:1;stroke-dasharray:none;marker-end:url(#Arrow1Mend)"
       d="M 201.41049,159.15154 201.1687,139.04369"
       id="path4389"
       inkscape:connector-curvature="0" /><text
       transform="scale(1,-1)"
       sodipodi:linespacing="125%"
       id="text4399"
       y="-143.81331"
       x="206.28441"
       style="font-size:10.39999962px;font-style:normal;font-variant:normal;font-weight:normal;font-stretch:normal;line-height:125%;letter-spacing:0px;word-spacing:0px;fill:#000000;fill-opacity:1;stroke:none;font-family:Nimbus Roman No9 L;-inkscape-font-specification:Nimbus Roman No9 L"
       xml:space="preserve"><tspan
         dy="0 0"
         dx="0 0"
         y="-143.81331"
         x="206.28441"
         id="tspan4401"
         sodipodi:role="line">I<tspan
   dy="2.1968889"
   dx="0.73229635"
   id="tspan4403"
   style="font-size:8px">C</tspan></tspan></text>
<text
       transform="scale(1,-1)"
       sodipodi:linespacing="125%"
       id="text4407"
       y="-56.713947"
       x="166.95668"
       style="font-size:10.39999962px;font-style:normal;font-variant:normal;font-weight:normal;font-stretch:normal;line-height:125%;letter-spacing:0px;word-spacing:0px;fill:#000000;fill-opacity:1;stroke:none;font-family:Nimbus Roman No9 L;-inkscape-font-specification:Nimbus Roman No9 L"
       xml:space="preserve"><tspan
         y="-56.713947"
         x="166.95668"
         id="tspan4409"
         sodipodi:role="line">R<tspan
   style="font-size:8px"
   id="tspan4913"
   dx="0.18307409"
   dy="2.1968889">E</tspan></tspan></text>
<path
       sodipodi:type="arc"
       style="fill:#000000;stroke:#000000;stroke-width:1.31200004;stroke-miterlimit:4;stroke-opacity:1;stroke-dasharray:none;stroke-dashoffset:0"
       id="path4555"
       sodipodi:cx="303.10202"
       sodipodi:cy="103.02217"
       sodipodi:rx="2.63169"
       sodipodi:ry="2.63169"
       d="m 305.73371,103.02217 c 0,1.45344 -1.17825,2.63169 -2.63169,2.63169 -1.45344,0 -2.63169,-1.17825 -2.63169,-2.63169 0,-1.45344 1.17825,-2.63169 2.63169,-2.63169 1.45344,0 2.63169,1.17825 2.63169,2.63169 z"
       transform="matrix(0.8,0,0,-0.8,-50.345374,230.79879)" /><path
       style="fill:none;stroke:#000000;stroke-width:1.05;stroke-linecap:butt;stroke-linejoin:miter;stroke-opacity:1;marker-end:url(#Arrow1Mend);stroke-miterlimit:4;stroke-dasharray:none"
       d="m 207.7393,111.6114 c -0.40028,5.11112 -7.78772,12.559 -13.4631,15.27544"
       id="path4559"
       inkscape:connector-curvature="0"
       sodipodi:nodetypes="cc" /><path
       sodipodi:nodetypes="cc"
       inkscape:connector-curvature="0"
       id="path4745"
       d="M 207.5086,100.01529 C 207.10832,94.904174 199.72088,87.456299 194.0455,84.739859"
       style="fill:none;stroke:#000000;stroke-width:1.05;stroke-linecap:butt;stroke-linejoin:miter;stroke-opacity:1;marker-end:url(#Arrow1Mend);stroke-miterlimit:4;stroke-dasharray:none" /><text
       xml:space="preserve"
       style="font-size:10.39999962px;font-style:normal;font-variant:normal;font-weight:normal;font-stretch:normal;line-height:125%;letter-spacing:0px;word-spacing:0px;fill:#000000;fill-opacity:1;stroke:none;font-family:Nimbus Roman No9 L;-inkscape-font-specification:Nimbus Roman No9 L"
       x="199.73384"
       y="-103.43636"
       id="text4747"
       sodipodi:linespacing="125%"
       transform="scale(1,-1)"><tspan
         sodipodi:role="line"
         id="tspan4749"
         x="199.73384"
         y="-103.43636">V<tspan
   style="font-size:8px"
   id="tspan4751"
   dy="1.6476667"
   dx="0.18307409">CE</tspan></tspan></text>
<text
       xml:space="preserve"
       style="font-size:10.39999962px;font-style:normal;font-variant:normal;font-weight:normal;font-stretch:normal;line-height:125%;letter-spacing:0px;word-spacing:0px;fill:#000000;fill-opacity:1;stroke:none;font-family:Nimbus Roman No9 L;-inkscape-font-specification:Nimbus Roman No9 L"
       x="193.50929"
       y="-128.51752"
       id="text4765"
       sodipodi:linespacing="125%"
       transform="scale(1,-1)"><tspan
         sodipodi:role="line"
         id="tspan4767"
         x="193.50929"
         y="-128.51752">+</tspan></text>
<path
       style="fill:none;stroke:#000000;stroke-width:0.80000001px;stroke-linecap:butt;stroke-linejoin:miter;stroke-opacity:1"
       d="m 195.52313,82.38284 5.12607,0"
       id="path4769"
       inkscape:connector-curvature="0" /><g
       transform="matrix(1,0,0,-1,-62.977486,178.59717)"
       ns0:text="$510\\Omega$"
       ns0:preamble="/home/sriranga/Desktop/Prism-Basic-Electronics/package.tex"
       id="g4968"><defs
         id="defs4970"><g
           id="g4972"><symbol
             style="overflow:visible"
             overflow="visible"
             id="textext-77c2516f-0"><path
               inkscape:connector-curvature="0"
               style="stroke:none"
               d=""
               id="path4975" /></symbol><symbol
             style="overflow:visible"
             overflow="visible"
             id="textext-77c2516f-1"><path
               inkscape:connector-curvature="0"
               style="stroke:none"
               d="m 1.796875,-5.8125 1.96875,0 c 0.15625,0 0.1875,-0.015625 0.21875,-0.09375 l 0.375,-0.875 L 4.28125,-6.859375 C 4.125,-6.65625 4.03125,-6.59375 3.8125,-6.59375 l -2.078125,0 -1.09375,2.359375 c 0,0.015625 0,0.03125 0,0.046875 0,0.046875 0.03125,0.078125 0.109375,0.078125 0.328125,0 0.71875,0.078125 1.140625,0.203125 1.140625,0.375 1.671875,0.984375 1.671875,1.96875 0,0.953125 -0.609375,1.703125 -1.390625,1.703125 -0.203125,0 -0.375,-0.0625 -0.671875,-0.28125 C 1.1875,-0.75 0.953125,-0.84375 0.75,-0.84375 c -0.296875,0 -0.4375,0.109375 -0.4375,0.359375 0,0.390625 0.46875,0.625 1.21875,0.625 0.84375,0 1.5625,-0.265625 2.0625,-0.78125 C 4.046875,-1.09375 4.25,-1.65625 4.25,-2.40625 c 0,-0.71875 -0.1875,-1.1875 -0.6875,-1.6875 -0.4375,-0.4375 -1,-0.65625 -2.171875,-0.875 z m 0,0"
               id="path4978" /></symbol><symbol
             style="overflow:visible"
             overflow="visible"
             id="textext-77c2516f-2"><path
               inkscape:connector-curvature="0"
               style="stroke:none"
               d="m 2.90625,-6.734375 -1.796875,0.90625 0,0.140625 C 1.21875,-5.734375 1.328125,-5.78125 1.375,-5.796875 1.5625,-5.875 1.71875,-5.90625 1.828125,-5.90625 2.03125,-5.90625 2.125,-5.765625 2.125,-5.4375 l 0,4.515625 c 0,0.328125 -0.078125,0.546875 -0.234375,0.640625 -0.15625,0.09375 -0.296875,0.125 -0.71875,0.125 l 0,0.15625 2.75,0 0,-0.15625 c -0.78125,0 -0.9375,-0.109375 -0.9375,-0.578125 l 0,-5.984375 z m 0,0"
               id="path4981" /></symbol><symbol
             style="overflow:visible"
             overflow="visible"
             id="textext-77c2516f-3"><path
               inkscape:connector-curvature="0"
               style="stroke:none"
               d="m 2.53125,-6.734375 c -0.546875,0 -0.96875,0.171875 -1.328125,0.515625 -0.578125,0.5625 -0.96875,1.703125 -0.96875,2.875 0,1.078125 0.328125,2.25 0.796875,2.8125 0.375,0.4375 0.875,0.671875 1.46875,0.671875 0.5,0 0.921875,-0.171875 1.28125,-0.515625 C 4.359375,-0.921875 4.75,-2.078125 4.75,-3.296875 c 0,-2.03125 -0.90625,-3.4375 -2.21875,-3.4375 z m -0.03125,0.25 c 0.84375,0 1.28125,1.125 1.28125,3.21875 0,2.078125 -0.4375,3.140625 -1.28125,3.140625 -0.859375,0 -1.296875,-1.0625 -1.296875,-3.140625 0,-2.109375 0.4375,-3.21875 1.296875,-3.21875 z m 0,0"
               id="path4984" /></symbol><symbol
             style="overflow:visible"
             overflow="visible"
             id="textext-77c2516f-4"><path
               inkscape:connector-curvature="0"
               style="stroke:none"
               d=""
               id="path4987" /></symbol><symbol
             style="overflow:visible"
             overflow="visible"
             id="textext-77c2516f-5"><path
               inkscape:connector-curvature="0"
               style="stroke:none"
               d="m 7.125,0 0,-1.53125 -0.1875,0 c -0.015625,0.515625 -0.3125,0.625 -0.765625,0.625 l -1.359375,0 0.046875,-0.328125 c 1.265625,-0.375 2.03125,-1.359375 2.03125,-2.6875 C 6.890625,-5.71875 5.4375,-6.75 3.734375,-6.75 c -1.6875,0 -3.203125,1.078125 -3.203125,2.875 0,1.21875 0.796875,2.40625 2.046875,2.640625 l 0.015625,0.328125 -1.328125,0 c -0.484375,0 -0.75,-0.09375 -0.796875,-0.625 l -0.171875,0 0,1.53125 2.71875,0 -0.09375,-1.46875 c -1.03125,-0.375 -1.25,-1.40625 -1.25,-2.390625 0,-1.21875 0.65625,-2.546875 2.046875,-2.546875 1.4375,0 2.046875,1.375 2.046875,2.625 0,0.953125 -0.21875,1.984375 -1.25,2.3125 L 4.390625,0 z m 0,0"
               id="path4990" /></symbol></g></defs><g
         id="textext-77c2516f-6"><g
           style="fill:#000000;fill-opacity:1"
           id="g4993"><use
             height="283.46457"
             width="354.33069"
             xlink:href="#textext-77c2516f-1"
             x="223.43201"
             y="134.765"
             id="use4995" /><use
             height="283.46457"
             width="354.33069"
             xlink:href="#textext-77c2516f-2"
             x="228.4133"
             y="134.765"
             id="use4997" /><use
             height="283.46457"
             width="354.33069"
             xlink:href="#textext-77c2516f-3"
             x="233.39461"
             y="134.765"
             id="use4999" /></g><g
           style="fill:#000000;fill-opacity:1"
           id="g5001"><use
             height="283.46457"
             width="354.33069"
             xlink:href="#textext-77c2516f-5"
             x="238.37601"
             y="134.765"
             id="use5003" /></g></g></g><text
       transform="scale(1,-1)"
       sodipodi:linespacing="125%"
       id="text5080"
       y="-173.55374"
       x="201.3815"
       style="font-size:10.39999962px;font-style:normal;font-variant:normal;font-weight:normal;font-stretch:normal;line-height:125%;letter-spacing:0px;word-spacing:0px;fill:#000000;fill-opacity:1;stroke:none;font-family:Nimbus Roman No9 L;-inkscape-font-specification:Nimbus Roman No9 L"
       xml:space="preserve"><tspan
         y="-173.55374"
         x="201.3815"
         id="tspan5082"
         sodipodi:role="line">3.6k</tspan></text>
<text
       transform="scale(1,-1)"
       sodipodi:linespacing="125%"
       id="text5084"
       y="-154.88019"
       x="138.40401"
       style="font-size:10.39999962px;font-style:normal;font-variant:normal;font-weight:normal;font-stretch:normal;line-height:125%;letter-spacing:0px;word-spacing:0px;fill:#000000;fill-opacity:1;stroke:none;font-family:Nimbus Roman No9 L;-inkscape-font-specification:Nimbus Roman No9 L"
       xml:space="preserve"><tspan
         y="-154.88019"
         x="138.40401"
         id="tspan5086"
         sodipodi:role="line">470k</tspan></text>
<g
       id="g5167"
       ns0:preamble="/home/sriranga/Desktop/Prism-Basic-Electronics/package.tex"
       ns0:text="$\\beta=120$"
       transform="matrix(1,0,0,-1,-3.2953336,248.38145)"><defs
         id="defs5169"><g
           id="g5171"><symbol
             id="textext-d9df033d-0"
             overflow="visible"
             style="overflow:visible"><path
               id="path5174"
               d=""
               style="stroke:none"
               inkscape:connector-curvature="0" /></symbol><symbol
             id="textext-d9df033d-1"
             overflow="visible"
             style="overflow:visible"><path
               id="path5177"
               d="m 5.03125,-5.390625 c 0,-0.78125 -0.640625,-1.140625 -1.46875,-1.140625 -1.046875,0 -2.078125,0.703125 -2.359375,1.71875 L -0.3125,0.75 C -0.484375,1.375 -0.875,1.9375 -0.96875,2.0625 l 0.890625,0 c 0.015625,0 0.171875,-0.078125 0.5,-1.328125 L 0.75,-0.546875 l 0.015625,0 c 0,0.015625 0.328125,0.71875 1.34375,0.71875 1.484375,0 2.5,-1.125 2.5,-2.265625 0,-1.25 -1.125,-1.4375 -1.140625,-1.4375 l 0,-0.03125 c 0.015625,0 1.5625,-0.359375 1.5625,-1.828125 z M 4.25,-5.40625 c 0,0.46875 -0.265625,1.59375 -1.0625,1.59375 -0.203125,0 -0.359375,-0.046875 -0.53125,-0.046875 -0.265625,0 -0.453125,0.234375 -0.453125,0.40625 0,0.109375 0.078125,0.203125 0.265625,0.203125 0.265625,0 0.34375,-0.046875 0.578125,-0.046875 0.484375,0 0.71875,0.53125 0.71875,1.09375 0,1 -0.609375,1.90625 -1.671875,1.90625 -0.671875,0 -1.109375,-0.34375 -1.109375,-0.921875 0,-0.109375 0.015625,-0.25 0.046875,-0.390625 L 1.9375,-4.8125 C 2.109375,-5.453125 2.578125,-6.25 3.46875,-6.25 4.03125,-6.25 4.25,-5.859375 4.25,-5.40625 z m 0,0"
               style="stroke:none"
               inkscape:connector-curvature="0" /></symbol><symbol
             id="textext-d9df033d-2"
             overflow="visible"
             style="overflow:visible"><path
               id="path5180"
               d=""
               style="stroke:none"
               inkscape:connector-curvature="0" /></symbol><symbol
             id="textext-d9df033d-3"
             overflow="visible"
             style="overflow:visible"><path
               id="path5183"
               d="m 5.71875,-3.296875 0,-0.546875 -5.09375,0 0,0.546875 z m 0,2.03125 0,-0.5625 -5.09375,0 0,0.5625 z m 0,0"
               style="stroke:none"
               inkscape:connector-curvature="0" /></symbol><symbol
             id="textext-d9df033d-4"
             overflow="visible"
             style="overflow:visible"><path
               id="path5186"
               d=""
               style="stroke:none"
               inkscape:connector-curvature="0" /></symbol><symbol
             id="textext-d9df033d-5"
             overflow="visible"
             style="overflow:visible"><path
               id="path5189"
               d="m 2.90625,-6.734375 -1.796875,0.90625 0,0.140625 C 1.21875,-5.734375 1.328125,-5.78125 1.375,-5.796875 1.5625,-5.875 1.71875,-5.90625 1.828125,-5.90625 2.03125,-5.90625 2.125,-5.765625 2.125,-5.4375 l 0,4.515625 c 0,0.328125 -0.078125,0.546875 -0.234375,0.640625 -0.15625,0.09375 -0.296875,0.125 -0.71875,0.125 l 0,0.15625 2.75,0 0,-0.15625 c -0.78125,0 -0.9375,-0.109375 -0.9375,-0.578125 l 0,-5.984375 z m 0,0"
               style="stroke:none"
               inkscape:connector-curvature="0" /></symbol><symbol
             id="textext-d9df033d-6"
             overflow="visible"
             style="overflow:visible"><path
               id="path5192"
               d="m 4.734375,-1.359375 -0.125,-0.0625 C 4.234375,-0.84375 4.109375,-0.75 3.65625,-0.75 l -2.375,0 1.671875,-1.765625 c 0.890625,-0.921875 1.28125,-1.6875 1.28125,-2.453125 0,-1 -0.8125,-1.765625 -1.859375,-1.765625 -0.546875,0 -1.0625,0.21875 -1.421875,0.609375 C 0.625,-5.78125 0.484375,-5.46875 0.3125,-4.75 l 0.203125,0.046875 C 0.921875,-5.6875 1.28125,-6 1.96875,-6 2.796875,-6 3.375,-5.4375 3.375,-4.59375 3.375,-3.8125 2.90625,-2.890625 2.078125,-2 l -1.78125,1.875 0,0.125 3.890625,0 z m 0,0"
               style="stroke:none"
               inkscape:connector-curvature="0" /></symbol><symbol
             id="textext-d9df033d-7"
             overflow="visible"
             style="overflow:visible"><path
               id="path5195"
               d="m 2.53125,-6.734375 c -0.546875,0 -0.96875,0.171875 -1.328125,0.515625 -0.578125,0.5625 -0.96875,1.703125 -0.96875,2.875 0,1.078125 0.328125,2.25 0.796875,2.8125 0.375,0.4375 0.875,0.671875 1.46875,0.671875 0.5,0 0.921875,-0.171875 1.28125,-0.515625 C 4.359375,-0.921875 4.75,-2.078125 4.75,-3.296875 c 0,-2.03125 -0.90625,-3.4375 -2.21875,-3.4375 z m -0.03125,0.25 c 0.84375,0 1.28125,1.125 1.28125,3.21875 0,2.078125 -0.4375,3.140625 -1.28125,3.140625 -0.859375,0 -1.296875,-1.0625 -1.296875,-3.140625 0,-2.109375 0.4375,-3.21875 1.296875,-3.21875 z m 0,0"
               style="stroke:none"
               inkscape:connector-curvature="0" /></symbol></g></defs><g
         id="textext-d9df033d-8"><g
           id="g5198"
           style="fill:#000000;fill-opacity:1"><use
             id="use5200"
             y="134.765"
             x="223.43201"
             xlink:href="#textext-d9df033d-1"
             width="354.33069"
             height="283.46457" /></g><g
           id="g5202"
           style="fill:#000000;fill-opacity:1"><use
             id="use5204"
             y="134.765"
             x="231.25999"
             xlink:href="#textext-d9df033d-3"
             width="354.33069"
             height="283.46457" /></g><g
           id="g5206"
           style="fill:#000000;fill-opacity:1"><use
             id="use5208"
             y="134.765"
             x="240.364"
             xlink:href="#textext-d9df033d-5"
             width="354.33069"
             height="283.46457" /><use
             id="use5210"
             y="134.765"
             x="245.34531"
             xlink:href="#textext-d9df033d-6"
             width="354.33069"
             height="283.46457" /><use
             id="use5212"
             y="134.765"
             x="250.3266"
             xlink:href="#textext-d9df033d-7"
             width="354.33069"
             height="283.46457" /></g></g></g></g></svg>