<?xml version="1.0" encoding="UTF-8" standalone="no"?>
<!-- Created with Inkscape (http://www.inkscape.org/) -->

<svg
   xmlns:ns0="http://www.iki.fi/pav/software/textext/"
   xmlns:dc="http://purl.org/dc/elements/1.1/"
   xmlns:cc="http://creativecommons.org/ns#"
   xmlns:rdf="http://www.w3.org/1999/02/22-rdf-syntax-ns#"
   xmlns:svg="http://www.w3.org/2000/svg"
   xmlns="http://www.w3.org/2000/svg"
   xmlns:xlink="http://www.w3.org/1999/xlink"
   xmlns:sodipodi="http://sodipodi.sourceforge.net/DTD/sodipodi-0.dtd"
   xmlns:inkscape="http://www.inkscape.org/namespaces/inkscape"
   id="svg2"
   version="1.1"
   inkscape:version="0.48.4 r9939"
   width="354.33069"
   height="283.46457"
   xml:space="preserve"
   sodipodi:docname="fig3.5.svg"><sodipodi:namedview
     pagecolor="#ffffff"
     bordercolor="#666666"
     borderopacity="1"
     objecttolerance="10"
     gridtolerance="10"
     guidetolerance="10"
     inkscape:pageopacity="0"
     inkscape:pageshadow="2"
     inkscape:window-width="1024"
     inkscape:window-height="744"
     id="namedview4"
     showgrid="false"
     units="cm"
     inkscape:zoom="1.5449631"
     inkscape:cx="224.64885"
     inkscape:cy="135.58895"
     inkscape:window-x="0"
     inkscape:window-y="24"
     inkscape:window-maximized="1"
     inkscape:current-layer="g10" /><metadata
     id="metadata8"><rdf:RDF><cc:Work
         rdf:about=""><dc:format>image/svg+xml</dc:format><dc:type
           rdf:resource="http://purl.org/dc/dcmitype/StillImage" /><dc:title></dc:title></cc:Work></rdf:RDF></metadata><defs
     id="defs6"><marker
       style="overflow:visible"
       id="DotM"
       refX="0.0"
       refY="0.0"
       orient="auto"
       inkscape:stockid="DotM"><path
         transform="scale(0.4) translate(7.4, 1)"
         style="fill-rule:evenodd;stroke:#000000;stroke-width:1.0pt"
         d="M -2.5,-1.0 C -2.5,1.7600000 -4.7400000,4.0 -7.5,4.0 C -10.260000,4.0 -12.5,1.7600000 -12.5,-1.0 C -12.5,-3.7600000 -10.260000,-6.0 -7.5,-6.0 C -4.7400000,-6.0 -2.5,-3.7600000 -2.5,-1.0 z "
         id="path3904" /></marker><marker
       style="overflow:visible;"
       id="Arrow1Mend"
       refX="0.0"
       refY="0.0"
       orient="auto"
       inkscape:stockid="Arrow1Mend"><path
         transform="scale(0.4) rotate(180) translate(10,0)"
         style="fill-rule:evenodd;stroke:#000000;stroke-width:1.0pt;"
         d="M 0.0,0.0 L 5.0,-5.0 L -12.5,0.0 L 5.0,5.0 L 0.0,0.0 z "
         id="path3806" /></marker></defs><g
     transform="matrix(1.25,0,0,-1.25,0,283.46395)"
     inkscape:label="ink_ext_XXXXXX"
     inkscape:groupmode="layer"
     id="g10"><path
       sodipodi:nodetypes="cc"
       inkscape:connector-curvature="0"
       id="path3060"
       d="m 69.162231,105.30154 -19.547392,0"
       style="fill:none;stroke:#000000;stroke-width:1.04999995;stroke-linecap:butt;stroke-linejoin:miter;stroke-miterlimit:4;stroke-opacity:1;stroke-dasharray:none;marker-end:url(#DotM)" /><path
       sodipodi:nodetypes="cc"
       inkscape:connector-curvature="0"
       id="path4282"
       d="m 67.107826,111.90363 c 2.773098,-3.35797 2.916082,-8.1273 0,-12.81583"
       style="fill:none;stroke:#000000;stroke-width:1.04999995;stroke-linecap:butt;stroke-linejoin:miter;stroke-miterlimit:4;stroke-opacity:1;stroke-dasharray:none" /><path
       style="fill:none;stroke:#000000;stroke-width:1.04999995;stroke-linecap:butt;stroke-linejoin:miter;stroke-miterlimit:4;stroke-opacity:1;stroke-dasharray:none;marker-end:none"
       d="m 75.442857,105.30154 97.353883,0"
       id="path4284"
       inkscape:connector-curvature="0"
       sodipodi:nodetypes="cc" /><path
       sodipodi:nodetypes="cc"
       inkscape:connector-curvature="0"
       id="path4470"
       d="m 75.47242,98.5155 0,14.36928"
       style="fill:none;stroke:#000000;stroke-width:1.04999995;stroke-linecap:butt;stroke-linejoin:miter;stroke-miterlimit:4;stroke-opacity:1;stroke-dasharray:none;marker-end:none" /><path
       sodipodi:nodetypes="cc"
       inkscape:connector-curvature="0"
       id="path4474"
       d="m 172.54289,82.122677 0,46.650633"
       style="fill:none;stroke:#000000;stroke-width:1.04999995;stroke-linecap:butt;stroke-linejoin:miter;stroke-miterlimit:4;stroke-opacity:1;stroke-dasharray:none;marker-end:none" /><path
       sodipodi:nodetypes="cc"
       inkscape:connector-curvature="0"
       id="path4476"
       d="m 172.71353,94.465736 c 6.34977,-3.666048 12.06835,-7.6858 19.57314,-12.018696"
       style="fill:none;stroke:#000000;stroke-width:1.04999995;stroke-linecap:butt;stroke-linejoin:miter;stroke-miterlimit:4;stroke-opacity:1;stroke-dasharray:none;marker-end:url(#Arrow1Mend)" /><path
       style="fill:none;stroke:#000000;stroke-width:1.04999995;stroke-linecap:butt;stroke-linejoin:miter;stroke-miterlimit:4;stroke-opacity:1;stroke-dasharray:none;marker-end:url(#DotM)"
       d="m 236.39413,148.40619 19.54739,0"
       id="path4478"
       inkscape:connector-curvature="0"
       sodipodi:nodetypes="cc" /><path
       style="fill:none;stroke:#000000;stroke-width:1.04999995;stroke-linecap:butt;stroke-linejoin:miter;stroke-miterlimit:4;stroke-opacity:1;stroke-dasharray:none"
       d="m 238.44853,155.00828 c -2.77309,-3.35797 -2.91608,-8.1273 0,-12.81583"
       id="path4480"
       inkscape:connector-curvature="0"
       sodipodi:nodetypes="cc" /><path
       style="fill:none;stroke:#000000;stroke-width:1.04999995;stroke-linecap:butt;stroke-linejoin:miter;stroke-miterlimit:4;stroke-opacity:1;stroke-dasharray:none;marker-end:none"
       d="m 230.08394,141.62015 0,14.36928"
       id="path4482"
       inkscape:connector-curvature="0"
       sodipodi:nodetypes="cc" /><path
       sodipodi:nodetypes="ccccccccc"
       inkscape:connector-curvature="0"
       id="path4484"
       d="m 103.14951,106.00669 0.0759,42.51651 22.08502,0 3.10687,6.08429 2.97742,-9.06171 3.88359,8.28499 2.58906,-9.19116 2.4596,3.88359 89.81078,0"
       style="fill:none;stroke:#000000;stroke-width:1.00667298;stroke-linecap:butt;stroke-linejoin:miter;stroke-miterlimit:4;stroke-opacity:1;stroke-dasharray:none;marker-end:none" /><text
       transform="matrix(0.8,0,0,-0.8,0,226.77116)"
       sodipodi:linespacing="125%"
       id="text4866"
       y="127.73717"
       x="187.53651"
       style="font-size:13px;font-style:normal;font-variant:normal;font-weight:normal;font-stretch:normal;line-height:125%;letter-spacing:0px;word-spacing:0px;fill:#000000;fill-opacity:1;stroke:none;font-family:Nimbus Roman No9 L;-inkscape-font-specification:Nimbus Roman No9 L"
       xml:space="preserve"><tspan
         y="127.73717"
         x="187.53651"
         id="tspan4868"
         sodipodi:role="line" /><tspan
         y="143.98717"
         x="187.53651"
         id="tspan4870"
         sodipodi:role="line" /></text>
<path
       sodipodi:nodetypes="ccccccccc"
       inkscape:connector-curvature="0"
       id="path4878"
       d="m 172.84417,116.07335 19.40585,13.54261 0,38.41345 5.04866,3.88358 -9.70897,2.97742 8.93226,3.75413 -9.83843,4.27194 5.56648,3.62469 0,24.50609"
       style="fill:none;stroke:#000000;stroke-width:1.04999995;stroke-linecap:butt;stroke-linejoin:miter;stroke-miterlimit:4;stroke-opacity:1;stroke-dasharray:none;marker-end:url(#DotM)" /><path
       style="fill:none;stroke:#000000;stroke-width:1.04999995;stroke-linecap:butt;stroke-linejoin:miter;stroke-miterlimit:4;stroke-opacity:1;stroke-dasharray:none;marker-end:none"
       d="m 192.26071,24.136967 -0.12945,27.384803 2.97741,3.10687 -7.76717,2.847965 8.02608,3.365776 -8.54389,2.977417 5.43702,3.754135 0,14.799377"
       id="path4896"
       inkscape:connector-curvature="0"
       sodipodi:nodetypes="cccccccc" /><path
       inkscape:connector-curvature="0"
       id="path4898"
       d="m 181.1127,38.86647 22.15196,0"
       style="fill:none;stroke:#000000;stroke-width:1.04999995;stroke-linecap:butt;stroke-linejoin:miter;stroke-miterlimit:4;stroke-opacity:1;stroke-dasharray:none" /><path
       sodipodi:nodetypes="cc"
       inkscape:connector-curvature="0"
       id="path4902"
       d="m 183.61885,36.184282 17.16802,0"
       style="fill:none;stroke:#000000;stroke-width:1.04999995;stroke-linecap:butt;stroke-linejoin:miter;stroke-miterlimit:4;stroke-opacity:1;stroke-dasharray:none" /><path
       sodipodi:nodetypes="cc"
       style="fill:none;stroke:#000000;stroke-width:1.04999995;stroke-linecap:butt;stroke-linejoin:miter;stroke-miterlimit:4;stroke-opacity:1;stroke-dasharray:none"
       d="m 185.43121,32.984282 13.73752,0"
       id="path4904"
       inkscape:connector-curvature="0" /><path
       sodipodi:nodetypes="cc"
       inkscape:connector-curvature="0"
       id="path4906"
       d="m 187.04936,29.784282 10.5012,0"
       style="fill:none;stroke:#000000;stroke-width:1.04999995;stroke-linecap:butt;stroke-linejoin:miter;stroke-miterlimit:4;stroke-opacity:1;stroke-dasharray:none" /><path
       sodipodi:nodetypes="cc"
       style="fill:none;stroke:#000000;stroke-width:1.04999995;stroke-linecap:butt;stroke-linejoin:miter;stroke-miterlimit:4;stroke-opacity:1;stroke-dasharray:none"
       d="m 188.27915,27.407564 7.91214,0"
       id="path4908"
       inkscape:connector-curvature="0" /><path
       sodipodi:nodetypes="ccc"
       style="fill:none;stroke:#000000;stroke-width:1;stroke-linecap:butt;stroke-linejoin:miter;stroke-miterlimit:4;stroke-opacity:1;stroke-dasharray:none;marker-end:url(#Arrow1Mend)"
       d="m 110.09146,118.11511 0,-7.6304 20.10785,-0.24179"
       id="path5098"
       inkscape:connector-curvature="0" /><text
       transform="scale(1,-1)"
       sodipodi:linespacing="125%"
       id="text5106"
       y="-218.90848"
       x="180.8437"
       style="font-size:10.39999962px;font-style:normal;font-variant:normal;font-weight:normal;font-stretch:normal;line-height:125%;letter-spacing:0px;word-spacing:0px;fill:#000000;fill-opacity:1;stroke:none;font-family:Nimbus Roman No9 L;-inkscape-font-specification:Nimbus Roman No9 L"
       xml:space="preserve"><tspan
         y="-218.90848"
         x="180.8437"
         id="tspan5108"
         sodipodi:role="line">V<tspan
   dy="2.0138147"
   id="tspan5110"
   style="font-size:8px">CC<tspan
   id="tspan3865"
   style="font-size:10.39999962px" /></tspan></tspan></text>
<text
       transform="scale(1,-1)"
       sodipodi:linespacing="125%"
       id="text5112"
       y="-115.42391"
       x="112.81143"
       style="font-size:10.39999962px;font-style:normal;font-variant:normal;font-weight:normal;font-stretch:normal;line-height:125%;letter-spacing:0px;word-spacing:0px;fill:#000000;fill-opacity:1;stroke:none;font-family:Nimbus Roman No9 L;-inkscape-font-specification:Nimbus Roman No9 L"
       xml:space="preserve"><tspan
         y="-115.42391"
         x="112.81143"
         id="tspan5114"
         sodipodi:role="line">I<tspan
   dx="0.18307409"
   dy="1.6476667"
   id="tspan5116"
   style="font-size:8px">B</tspan></tspan></text>
<text
       transform="scale(1,-1)"
       sodipodi:linespacing="125%"
       id="text5118"
       y="-173.82457"
       x="169.73456"
       style="font-size:10.39999962px;font-style:normal;font-variant:normal;font-weight:normal;font-stretch:normal;line-height:125%;letter-spacing:0px;word-spacing:0px;fill:#000000;fill-opacity:1;stroke:none;font-family:Nimbus Roman No9 L;-inkscape-font-specification:Nimbus Roman No9 L"
       xml:space="preserve"><tspan
         y="-173.82457"
         x="169.73456"
         id="tspan5120"
         sodipodi:role="line">R<tspan
   style="font-size:8px"
   id="tspan4379"
   dy="2.1968889"
   dx="0.36614817">C</tspan></tspan></text>
<text
       xml:space="preserve"
       style="font-size:10.39999962px;font-style:normal;font-variant:normal;font-weight:normal;font-stretch:normal;line-height:125%;letter-spacing:0px;word-spacing:0px;fill:#000000;fill-opacity:1;stroke:none;font-family:Nimbus Roman No9 L;-inkscape-font-specification:Nimbus Roman No9 L"
       x="235.85915"
       y="-158.24809"
       id="text5293"
       sodipodi:linespacing="125%"
       transform="scale(1,-1)"><tspan
         sodipodi:role="line"
         id="tspan5295"
         x="235.85915"
         y="-158.24809">C<tspan
   style="font-size:8.80000019px"
   id="tspan4029"
   dy="2.5630372">1</tspan></tspan></text>
<path
       sodipodi:type="arc"
       style="fill:#000000;stroke:#000000;stroke-width:1.31200004;stroke-miterlimit:4;stroke-opacity:1;stroke-dasharray:none;stroke-dashoffset:0"
       id="path4025"
       sodipodi:cx="322.98505"
       sodipodi:cy="128.76833"
       sodipodi:rx="2.5890586"
       sodipodi:ry="2.5890586"
       d="m 325.57411,128.76833 c 0,1.42989 -1.15917,2.58905 -2.58906,2.58905 -1.4299,0 -2.58906,-1.15916 -2.58906,-2.58905 0,-1.4299 1.15916,-2.58906 2.58906,-2.58906 1.42989,0 2.58906,1.15916 2.58906,2.58906 z"
       transform="matrix(0.8,0,0,-0.8,-66.279899,251.62613)" /><path
       inkscape:connector-curvature="0"
       id="path4027"
       d="m 204.19667,185.38091 -0.24179,-20.10785"
       style="fill:none;stroke:#000000;stroke-width:1;stroke-linecap:butt;stroke-linejoin:miter;stroke-miterlimit:4;stroke-opacity:1;stroke-dasharray:none;marker-end:url(#Arrow1Mend)"
       sodipodi:nodetypes="cc" /><g
       ns0:text="$\\upsilon_{0}$"
       ns0:preamble="/home/sriranga/Desktop/Prism-Basic-Electronics/package.tex"
       transform="matrix(1,0,0,-1,37.869688,281.3265)"
       id="g4080"><defs
         id="defs4082"><g
           id="g4084"><symbol
             style="overflow:visible"
             overflow="visible"
             id="textext-d1ae6dc8-0"><path
               inkscape:connector-curvature="0"
               style="stroke:none"
               d=""
               id="path4087" /></symbol><symbol
             style="overflow:visible"
             overflow="visible"
             id="textext-d1ae6dc8-1"><path
               inkscape:connector-curvature="0"
               style="stroke:none"
               d="m 5.03125,-3.9375 c 0,-0.296875 0,-0.453125 -0.09375,-0.453125 -0.109375,0 -0.890625,0.65625 -1,0.765625 0.015625,0 0.171875,0.09375 0.171875,0.75 0,1.015625 -0.65625,2.609375 -1.90625,2.609375 -0.484375,0 -0.765625,-0.265625 -0.765625,-0.640625 0,-1 0.75,-1.640625 0.75,-2.75 0,-0.453125 -0.1875,-0.734375 -0.765625,-0.734375 -0.671875,0 -1.109375,0.6875 -1.15625,0.796875 l 0.0625,0.0625 C 0.390625,-3.609375 0.65625,-3.890625 1,-3.890625 c 0.203125,0 0.359375,0.078125 0.359375,0.375 0,0.84375 -0.71875,1.375 -0.71875,2.59375 0,0.53125 0.40625,1.03125 1.203125,1.03125 2.40625,0 3.1875,-3.171875 3.1875,-4.046875 z m 0,0"
               id="path4090" /></symbol><symbol
             style="overflow:visible"
             overflow="visible"
             id="textext-d1ae6dc8-2"><path
               inkscape:connector-curvature="0"
               style="stroke:none"
               d=""
               id="path4093" /></symbol><symbol
             style="overflow:visible"
             overflow="visible"
             id="textext-d1ae6dc8-3"><path
               inkscape:connector-curvature="0"
               style="stroke:none"
               d="m 1.765625,-4.703125 c -0.375,0 -0.671875,0.109375 -0.921875,0.359375 -0.40625,0.390625 -0.671875,1.1875 -0.671875,2 0,0.765625 0.21875,1.578125 0.546875,1.96875 0.265625,0.3125 0.625,0.46875 1.015625,0.46875 0.359375,0 0.65625,-0.109375 0.90625,-0.359375 0.40625,-0.375 0.671875,-1.1875 0.671875,-2.03125 0,-1.4375 -0.625,-2.40625 -1.546875,-2.40625 z M 1.75,-4.53125 c 0.578125,0 0.890625,0.78125 0.890625,2.25 0,1.453125 -0.296875,2.203125 -0.90625,2.203125 -0.59375,0 -0.890625,-0.75 -0.890625,-2.203125 0,-1.46875 0.3125,-2.25 0.90625,-2.25 z m 0,0"
               id="path4096" /></symbol></g></defs><g
         id="textext-d1ae6dc8-4"><g
           style="fill:#000000;fill-opacity:1"
           id="g4099"><use
             height="283.46457"
             width="354.33069"
             xlink:href="#textext-d1ae6dc8-1"
             x="223.43201"
             y="134.765"
             id="use4101" /></g><g
           style="fill:#000000;fill-opacity:1"
           id="g4103"><use
             height="283.46457"
             width="354.33069"
             xlink:href="#textext-d1ae6dc8-3"
             x="228.662"
             y="136.259"
             id="use4105" /></g></g></g><g
       id="g4267"
       transform="matrix(1,0,0,-1,-187.74255,238.51754)"
       ns0:preamble="/home/sriranga/Desktop/Prism-Basic-Electronics/package.tex"
       ns0:text="$\\upsilon_{i}$"><defs
         id="defs4269"><g
           id="g4271"><symbol
             id="textext-4da0d759-0"
             overflow="visible"
             style="overflow:visible"><path
               id="path4274"
               d=""
               style="stroke:none"
               inkscape:connector-curvature="0" /></symbol><symbol
             id="textext-4da0d759-1"
             overflow="visible"
             style="overflow:visible"><path
               id="path4277"
               d="m 5.03125,-3.9375 c 0,-0.296875 0,-0.453125 -0.09375,-0.453125 -0.109375,0 -0.890625,0.65625 -1,0.765625 0.015625,0 0.171875,0.09375 0.171875,0.75 0,1.015625 -0.65625,2.609375 -1.90625,2.609375 -0.484375,0 -0.765625,-0.265625 -0.765625,-0.640625 0,-1 0.75,-1.640625 0.75,-2.75 0,-0.453125 -0.1875,-0.734375 -0.765625,-0.734375 -0.671875,0 -1.109375,0.6875 -1.15625,0.796875 l 0.0625,0.0625 C 0.390625,-3.609375 0.65625,-3.890625 1,-3.890625 c 0.203125,0 0.359375,0.078125 0.359375,0.375 0,0.84375 -0.71875,1.375 -0.71875,2.59375 0,0.53125 0.40625,1.03125 1.203125,1.03125 2.40625,0 3.1875,-3.171875 3.1875,-4.046875 z m 0,0"
               style="stroke:none"
               inkscape:connector-curvature="0" /></symbol><symbol
             id="textext-4da0d759-2"
             overflow="visible"
             style="overflow:visible"><path
               id="path4280"
               d=""
               style="stroke:none"
               inkscape:connector-curvature="0" /></symbol><symbol
             id="textext-4da0d759-3"
             overflow="visible"
             style="overflow:visible"><path
               id="path4283"
               d="M 1.546875,-0.796875 C 1.375,-0.578125 1.328125,-0.515625 1.265625,-0.4375 1.140625,-0.328125 1.03125,-0.25 0.96875,-0.25 c -0.046875,0 -0.109375,-0.0625 -0.109375,-0.109375 0,-0.0625 0.03125,-0.171875 0.078125,-0.296875 0,-0.03125 0.015625,-0.078125 0.03125,-0.125 l 0,-0.03125 0.625,-2.25 L 1.5625,-3.078125 C 0.859375,-2.9375 0.71875,-2.921875 0.453125,-2.90625 l 0,0.125 c 0.375,0 0.4375,0.015625 0.4375,0.15625 0,0.0625 -0.015625,0.171875 -0.0625,0.3125 L 0.5,-1.078125 c -0.109375,0.40625 -0.15625,0.625 -0.15625,0.75 0,0.265625 0.109375,0.40625 0.3125,0.40625 0.328125,0 0.578125,-0.203125 0.984375,-0.796875 z M 1.484375,-4.5625 c -0.1875,0 -0.328125,0.171875 -0.328125,0.375 0,0.21875 0.140625,0.375 0.34375,0.375 0.171875,0 0.34375,-0.171875 0.34375,-0.359375 C 1.84375,-4.375 1.671875,-4.5625 1.484375,-4.5625 z m 0,0"
               style="stroke:none"
               inkscape:connector-curvature="0" /></symbol></g></defs><g
         id="textext-4da0d759-4"><g
           id="g4286"
           style="fill:#000000;fill-opacity:1"><use
             id="use4288"
             y="134.765"
             x="223.43201"
             xlink:href="#textext-4da0d759-1"
             width="354.33069"
             height="283.46457" /></g><g
           id="g4290"
           style="fill:#000000;fill-opacity:1"><use
             id="use4292"
             y="136.259"
             x="228.662"
             xlink:href="#textext-4da0d759-3"
             width="354.33069"
             height="283.46457" /></g></g></g><text
       transform="scale(1,-1)"
       sodipodi:linespacing="125%"
       id="text4373"
       y="-117.49519"
       x="65.966393"
       style="font-size:10.39999962px;font-style:normal;font-variant:normal;font-weight:normal;font-stretch:normal;line-height:125%;letter-spacing:0px;word-spacing:0px;fill:#000000;fill-opacity:1;stroke:none;font-family:Nimbus Roman No9 L;-inkscape-font-specification:Nimbus Roman No9 L"
       xml:space="preserve"><tspan
         y="-117.49519"
         x="65.966393"
         id="tspan4375"
         sodipodi:role="line">C<tspan
   dy="2.5630372"
   id="tspan4377"
   style="font-size:8.80000019px">1</tspan></tspan></text>
<text
       xml:space="preserve"
       style="font-size:10.39999962px;font-style:normal;font-variant:normal;font-weight:normal;font-stretch:normal;line-height:125%;letter-spacing:0px;word-spacing:0px;fill:#000000;fill-opacity:1;stroke:none;font-family:Nimbus Roman No9 L;-inkscape-font-specification:Nimbus Roman No9 L"
       x="126.09788"
       y="-135.01286"
       id="text4381"
       sodipodi:linespacing="125%"
       transform="scale(1,-1)"><tspan
         sodipodi:role="line"
         id="tspan4383"
         x="126.09788"
         y="-135.01286">R<tspan
   style="font-size:8px"
   id="tspan4387"
   dy="1.8307407"
   dx="0.36614817">B</tspan></tspan></text>
<path
       sodipodi:nodetypes="cc"
       style="fill:none;stroke:#000000;stroke-width:1;stroke-linecap:butt;stroke-linejoin:miter;stroke-miterlimit:4;stroke-opacity:1;stroke-dasharray:none;marker-end:url(#Arrow1Mend)"
       d="m 204.19667,140.58091 -0.24179,-20.10785"
       id="path4389"
       inkscape:connector-curvature="0" /><text
       xml:space="preserve"
       style="font-size:10.39999962px;font-style:normal;font-variant:normal;font-weight:normal;font-stretch:normal;line-height:125%;letter-spacing:0px;word-spacing:0px;fill:#000000;fill-opacity:1;stroke:none;font-family:Nimbus Roman No9 L;-inkscape-font-specification:Nimbus Roman No9 L"
       x="209.43675"
       y="-175.38448"
       id="text4391"
       sodipodi:linespacing="125%"
       transform="scale(1,-1)"><tspan
         sodipodi:role="line"
         id="tspan4393"
         x="209.43675"
         y="-175.38448"
         dx="0 0 1.0984446 1.0984445"
         dy="0 0 -2.1968889">I<tspan
   style="font-size:8px"
   id="tspan4397"
   dx="0.73229635"
   dy="2.1968889">C</tspan>+I<tspan
   style="font-size:8px"
   id="tspan4395"
   dy="1.8307407"
   dx="0.73229635">B</tspan></tspan></text>
<text
       transform="scale(1,-1)"
       sodipodi:linespacing="125%"
       id="text4399"
       y="-127.3843"
       x="209.43675"
       style="font-size:10.39999962px;font-style:normal;font-variant:normal;font-weight:normal;font-stretch:normal;line-height:125%;letter-spacing:0px;word-spacing:0px;fill:#000000;fill-opacity:1;stroke:none;font-family:Nimbus Roman No9 L;-inkscape-font-specification:Nimbus Roman No9 L"
       xml:space="preserve"><tspan
         dy="0 0"
         dx="0 0"
         y="-127.3843"
         x="209.43675"
         id="tspan4401"
         sodipodi:role="line">I<tspan
   dy="2.1968889"
   dx="0.73229635"
   id="tspan4403"
   style="font-size:8px">C</tspan></tspan></text>
<text
       transform="scale(1,-1)"
       sodipodi:linespacing="125%"
       id="text4407"
       y="-57.596329"
       x="169.64536"
       style="font-size:10.39999962px;font-style:normal;font-variant:normal;font-weight:normal;font-stretch:normal;line-height:125%;letter-spacing:0px;word-spacing:0px;fill:#000000;fill-opacity:1;stroke:none;font-family:Nimbus Roman No9 L;-inkscape-font-specification:Nimbus Roman No9 L"
       xml:space="preserve"><tspan
         y="-57.596329"
         x="169.64536"
         id="tspan4409"
         sodipodi:role="line">R<tspan
   dx="0.36614817"
   dy="1.8307407"
   id="tspan4411"
   style="font-size:8px">B</tspan></tspan></text>
<text
       xml:space="preserve"
       style="font-size:10.39999962px;font-style:normal;font-variant:normal;font-weight:normal;font-stretch:normal;line-height:125%;letter-spacing:0px;word-spacing:0px;fill:#000000;fill-opacity:1;stroke:none;font-family:Nimbus Roman No9 L;-inkscape-font-specification:Nimbus Roman No9 L"
       x="206.63614"
       y="-57.779404"
       id="text4413"
       sodipodi:linespacing="125%"
       transform="scale(1,-1)"><tspan
         sodipodi:role="line"
         id="tspan4415"
         x="206.63614"
         y="-57.779404">I<tspan
   style="font-size:8px"
   id="tspan4419"
   dy="2.0138149"
   dx="0.18307409">E</tspan></tspan></text>
<path
       inkscape:connector-curvature="0"
       id="path4421"
       d="M 203.14588,67.251724 202.90409,50.622282"
       style="fill:none;stroke:#000000;stroke-width:1;stroke-linecap:butt;stroke-linejoin:miter;stroke-miterlimit:4;stroke-opacity:1;stroke-dasharray:none;marker-end:url(#Arrow1Mend)"
       sodipodi:nodetypes="cc" /></g></svg>