<?xml version="1.0" encoding="UTF-8" standalone="no"?>
<!-- Created with Inkscape (http://www.inkscape.org/) -->

<svg
   xmlns:ns0="http://www.iki.fi/pav/software/textext/"
   xmlns:dc="http://purl.org/dc/elements/1.1/"
   xmlns:cc="http://creativecommons.org/ns#"
   xmlns:rdf="http://www.w3.org/1999/02/22-rdf-syntax-ns#"
   xmlns:svg="http://www.w3.org/2000/svg"
   xmlns="http://www.w3.org/2000/svg"
   xmlns:xlink="http://www.w3.org/1999/xlink"
   xmlns:sodipodi="http://sodipodi.sourceforge.net/DTD/sodipodi-0.dtd"
   xmlns:inkscape="http://www.inkscape.org/namespaces/inkscape"
   id="svg2"
   version="1.1"
   inkscape:version="0.48.4 r9939"
   width="354.33069"
   height="283.46457"
   xml:space="preserve"
   sodipodi:docname="fig10.svg"><sodipodi:namedview
     pagecolor="#ffffff"
     bordercolor="#666666"
     borderopacity="1"
     objecttolerance="10"
     gridtolerance="10"
     guidetolerance="10"
     inkscape:pageopacity="0"
     inkscape:pageshadow="2"
     inkscape:window-width="1024"
     inkscape:window-height="744"
     id="namedview4"
     showgrid="false"
     units="cm"
     inkscape:zoom="1.0924539"
     inkscape:cx="109.52542"
     inkscape:cy="106.9023"
     inkscape:window-x="0"
     inkscape:window-y="24"
     inkscape:window-maximized="1"
     inkscape:current-layer="g10" /><metadata
     id="metadata8"><rdf:RDF><cc:Work
         rdf:about=""><dc:format>image/svg+xml</dc:format><dc:type
           rdf:resource="http://purl.org/dc/dcmitype/StillImage" /><dc:title></dc:title></cc:Work></rdf:RDF></metadata><defs
     id="defs6"><marker
       inkscape:stockid="DotM"
       orient="auto"
       refY="0.0"
       refX="0.0"
       id="DotM"
       style="overflow:visible"><path
         id="path3904"
         d="M -2.5,-1.0 C -2.5,1.7600000 -4.7400000,4.0 -7.5,4.0 C -10.260000,4.0 -12.5,1.7600000 -12.5,-1.0 C -12.5,-3.7600000 -10.260000,-6.0 -7.5,-6.0 C -4.7400000,-6.0 -2.5,-3.7600000 -2.5,-1.0 z "
         style="fill-rule:evenodd;stroke:#000000;stroke-width:1.0pt"
         transform="scale(0.4) translate(7.4, 1)" /></marker><marker
       inkscape:stockid="Arrow1Mend"
       orient="auto"
       refY="0.0"
       refX="0.0"
       id="Arrow1Mend"
       style="overflow:visible;"><path
         id="path3806"
         d="M 0.0,0.0 L 5.0,-5.0 L -12.5,0.0 L 5.0,5.0 L 0.0,0.0 z "
         style="fill-rule:evenodd;stroke:#000000;stroke-width:1.0pt;"
         transform="scale(0.4) rotate(180) translate(10,0)" /></marker></defs><g
     id="g10"
     inkscape:groupmode="layer"
     inkscape:label="ink_ext_XXXXXX"
     transform="matrix(1.25,0,0,-1.25,0,283.46395)"><path
       style="fill:none;stroke:#000000;stroke-width:1.04999995;stroke-linecap:butt;stroke-linejoin:miter;stroke-miterlimit:4;stroke-opacity:1;stroke-dasharray:none;marker-end:url(#DotM)"
       d="m 45.162231,105.30154 -19.547392,0"
       id="path3060"
       inkscape:connector-curvature="0"
       sodipodi:nodetypes="cc" /><path
       style="fill:none;stroke:#000000;stroke-width:1.04999995;stroke-linecap:butt;stroke-linejoin:miter;stroke-miterlimit:4;stroke-opacity:1;stroke-dasharray:none"
       d="m 43.107826,111.90363 c 2.773098,-3.35797 2.916082,-8.1273 0,-12.81583"
       id="path4282"
       inkscape:connector-curvature="0"
       sodipodi:nodetypes="cc" /><path
       sodipodi:nodetypes="cc"
       inkscape:connector-curvature="0"
       id="path4284"
       d="m 51.019339,105.30154 68.977401,0"
       style="fill:none;stroke:#000000;stroke-width:1.04999995;stroke-linecap:butt;stroke-linejoin:miter;stroke-miterlimit:4;stroke-opacity:1;stroke-dasharray:none;marker-end:none" /><path
       style="fill:none;stroke:#000000;stroke-width:1.04999995;stroke-linecap:butt;stroke-linejoin:miter;stroke-miterlimit:4;stroke-opacity:1;stroke-dasharray:none;marker-end:none"
       d="m 51.472425,98.5155 0,14.36928"
       id="path4470"
       inkscape:connector-curvature="0"
       sodipodi:nodetypes="cc" /><path
       style="fill:none;stroke:#000000;stroke-width:1.3125;stroke-linecap:butt;stroke-linejoin:miter;stroke-miterlimit:4;stroke-opacity:1;stroke-dasharray:none"
       d="m 88.333248,152.10891 -0.91537,-45.082 -10.755602,-3.66148 18.078566,-4.920113 -18.192989,-5.034536 10.843178,-2.85452 0,-51.037916 86.529349,0 -0.22884,24.715002 -11.56412,4.3506 18.54024,5.365285 -19.73309,4.217651 12.78044,3.912356 0.34326,39.364761 -24.03961,13.21867"
       id="path4472"
       inkscape:connector-curvature="0"
       transform="matrix(0.8,0,0,-0.8,0,226.77116)"
       sodipodi:nodetypes="ccccccccccccccc" /><path
       style="fill:none;stroke:#000000;stroke-width:1.04999995;stroke-linecap:butt;stroke-linejoin:miter;stroke-miterlimit:4;stroke-opacity:1;stroke-dasharray:none;marker-end:none"
       d="m 119.74289,82.122677 0,46.650633"
       id="path4474"
       inkscape:connector-curvature="0"
       sodipodi:nodetypes="cc" /><path
       style="fill:none;stroke:#000000;stroke-width:1px;stroke-linecap:butt;stroke-linejoin:miter;stroke-opacity:1;marker-end:url(#Arrow1Mend)"
       d="m 149.89191,165.38178 c 9.28836,2.58946 17.75547,7.85121 24.46643,15.02337"
       id="path4476"
       inkscape:connector-curvature="0"
       transform="matrix(0.8,0,0,-0.8,0,226.77116)"
       sodipodi:nodetypes="cc" /><path
       sodipodi:nodetypes="cc"
       inkscape:connector-curvature="0"
       id="path4478"
       d="m 169.32953,135.60619 19.54739,0"
       style="fill:none;stroke:#000000;stroke-width:1.04999995;stroke-linecap:butt;stroke-linejoin:miter;stroke-miterlimit:4;stroke-opacity:1;stroke-dasharray:none;marker-end:url(#DotM)" /><path
       sodipodi:nodetypes="cc"
       inkscape:connector-curvature="0"
       id="path4480"
       d="m 171.38393,142.20828 c -2.77309,-3.35797 -2.91608,-8.1273 0,-12.81583"
       style="fill:none;stroke:#000000;stroke-width:1.04999995;stroke-linecap:butt;stroke-linejoin:miter;stroke-miterlimit:4;stroke-opacity:1;stroke-dasharray:none" /><path
       sodipodi:nodetypes="cc"
       inkscape:connector-curvature="0"
       id="path4482"
       d="m 163.01934,128.82015 0,14.36928"
       style="fill:none;stroke:#000000;stroke-width:1.04999995;stroke-linecap:butt;stroke-linejoin:miter;stroke-miterlimit:4;stroke-opacity:1;stroke-dasharray:none;marker-end:none" /><path
       style="fill:none;stroke:#000000;stroke-width:1.04999995;stroke-linecap:butt;stroke-linejoin:miter;stroke-miterlimit:4;stroke-opacity:1;stroke-dasharray:none;marker-end:none"
       d="m 138.99421,135.70154 24.05724,0"
       id="path4484"
       inkscape:connector-curvature="0"
       sodipodi:nodetypes="cc" /><path
       style="fill:none;stroke:#000000;stroke-width:1.05;stroke-linecap:butt;stroke-linejoin:miter;stroke-opacity:1;marker-end:url(#Arrow1Mend);stroke-miterlimit:4;stroke-dasharray:none"
       d="m 149.61274,113.48378 c -1.16151,7.06173 -6.12664,11.39874 -8.72954,14.13584"
       id="path4670"
       inkscape:connector-curvature="0"
       sodipodi:nodetypes="cc" /><path
       style="fill:none;stroke:#000000;stroke-width:1.05;stroke-linecap:butt;stroke-linejoin:miter;stroke-opacity:1;marker-end:url(#Arrow1Mend);stroke-miterlimit:4;stroke-dasharray:none"
       d="m 150.57714,100.32666 c -1.04269,-7.285982 -6.13866,-11.728908 -8.78778,-14.51461"
       id="path4858"
       inkscape:connector-curvature="0"
       sodipodi:nodetypes="cc" /><text
       xml:space="preserve"
       style="font-size:10.39999962px;font-style:normal;font-variant:normal;font-weight:normal;font-stretch:normal;line-height:125%;letter-spacing:0px;word-spacing:0px;fill:#000000;fill-opacity:1;stroke:none;font-family:Nimbus Roman No9 L;-inkscape-font-specification:Nimbus Roman No9 L"
       x="147.19157"
       y="-103.2533"
       id="text4860"
       sodipodi:linespacing="125%"
       transform="scale(1,-1)"><tspan
         sodipodi:role="line"
         id="tspan4862"
         x="147.19157"
         y="-103.2533">V<tspan
   style="font-size:8px"
   id="tspan4864"
   dy="2.2884259">CE</tspan></tspan></text>
<text
       xml:space="preserve"
       style="font-size:13px;font-style:normal;font-variant:normal;font-weight:normal;font-stretch:normal;line-height:125%;letter-spacing:0px;word-spacing:0px;fill:#000000;fill-opacity:1;stroke:none;font-family:Nimbus Roman No9 L;-inkscape-font-specification:Nimbus Roman No9 L"
       x="187.53651"
       y="127.73717"
       id="text4866"
       sodipodi:linespacing="125%"
       transform="matrix(0.8,0,0,-0.8,0,226.77116)"><tspan
         sodipodi:role="line"
         id="tspan4868"
         x="187.53651"
         y="127.73717" /><tspan
         sodipodi:role="line"
         id="tspan4870"
         x="187.53651"
         y="143.98717" /></text>
<text
       xml:space="preserve"
       style="font-size:10.39999962px;font-style:normal;font-variant:normal;font-weight:normal;font-stretch:normal;line-height:125%;letter-spacing:0px;word-spacing:0px;fill:#000000;fill-opacity:1;stroke:none;font-family:Nimbus Roman No9 L;-inkscape-font-specification:Nimbus Roman No9 L"
       x="141.72537"
       y="-127.83997"
       id="text4872"
       sodipodi:linespacing="125%"
       transform="scale(1,-1)"><tspan
         sodipodi:role="line"
         id="tspan4874"
         x="141.72537"
         y="-127.83997">+</tspan></text>
<path
       style="fill:none;stroke:#000000;stroke-width:0.80000001px;stroke-linecap:butt;stroke-linejoin:miter;stroke-opacity:1"
       d="m 143.75869,84.221672 6.31606,0"
       id="path4876"
       inkscape:connector-curvature="0" /><path
       style="fill:none;stroke:#000000;stroke-width:1.04999995;stroke-linecap:butt;stroke-linejoin:miter;stroke-miterlimit:4;stroke-opacity:1;stroke-dasharray:none;marker-end:url(#DotM)"
       d="m 86.999331,195.70638 0,15.51976"
       id="path4878"
       inkscape:connector-curvature="0"
       sodipodi:nodetypes="cc" /><path
       sodipodi:nodetypes="cc"
       inkscape:connector-curvature="0"
       id="path4880"
       d="m 91.637374,84.463357 c -5.526103,5.821907 -6.140057,15.551193 -6.507027,18.637253"
       style="fill:none;stroke:#000000;stroke-width:1.04999995;stroke-linecap:butt;stroke-linejoin:miter;stroke-miterlimit:4;stroke-opacity:1;stroke-dasharray:none;marker-end:url(#Arrow1Mend)" /><path
       style="fill:none;stroke:#000000;stroke-width:1.04999995;stroke-linecap:butt;stroke-linejoin:miter;stroke-miterlimit:4;stroke-opacity:1;stroke-dasharray:none;marker-end:url(#Arrow1Mend)"
       d="m 109.017,74.405401 c 12.65766,-3.340545 24.32169,4.552837 26.70366,5.481676"
       id="path4882"
       inkscape:connector-curvature="0"
       sodipodi:nodetypes="cc" /><text
       transform="scale(1,-1)"
       sodipodi:linespacing="125%"
       id="text4884"
       y="-76.423134"
       x="90.381485"
       style="font-size:10.39999962px;font-style:normal;font-variant:normal;font-weight:normal;font-stretch:normal;line-height:125%;letter-spacing:0px;word-spacing:0px;fill:#000000;fill-opacity:1;stroke:none;font-family:Nimbus Roman No9 L;-inkscape-font-specification:Nimbus Roman No9 L"
       xml:space="preserve"><tspan
         y="-76.423134"
         x="90.381485"
         id="tspan4886"
         sodipodi:role="line">V<tspan
   style="font-size:8px"
   id="tspan5096"
   dy="3.3657763">BE</tspan></tspan></text>
<text
       transform="scale(1,-1)"
       sodipodi:linespacing="125%"
       id="text4890"
       y="-98.767975"
       x="87.812752"
       style="font-size:10.39999962px;font-style:normal;font-variant:normal;font-weight:normal;font-stretch:normal;line-height:125%;letter-spacing:0px;word-spacing:0px;fill:#000000;fill-opacity:1;stroke:none;font-family:Nimbus Roman No9 L;-inkscape-font-specification:Nimbus Roman No9 L"
       xml:space="preserve"><tspan
         y="-98.767975"
         x="87.812752"
         id="tspan4892"
         sodipodi:role="line">+</tspan></text>
<path
       inkscape:connector-curvature="0"
       id="path4894"
       d="m 130.63634,73.239463 6.31606,0"
       style="fill:none;stroke:#000000;stroke-width:0.80000001px;stroke-linecap:butt;stroke-linejoin:miter;stroke-opacity:1" /><path
       sodipodi:nodetypes="cc"
       inkscape:connector-curvature="0"
       id="path4896"
       d="m 139.46071,33.525788 0,48.847522"
       style="fill:none;stroke:#000000;stroke-width:1.04999995;stroke-linecap:butt;stroke-linejoin:miter;stroke-miterlimit:4;stroke-opacity:1;stroke-dasharray:none;marker-end:none" /><path
       style="fill:none;stroke:#000000;stroke-width:1.05;stroke-linecap:butt;stroke-linejoin:miter;stroke-opacity:1;stroke-miterlimit:4;stroke-dasharray:none"
       d="m 128.3127,47.049544 22.15196,0"
       id="path4898"
       inkscape:connector-curvature="0" /><path
       style="fill:none;stroke:#000000;stroke-width:1.05;stroke-linecap:butt;stroke-linejoin:miter;stroke-opacity:1;stroke-miterlimit:4;stroke-dasharray:none"
       d="m 130.81885,44.367356 17.16802,0"
       id="path4902"
       inkscape:connector-curvature="0"
       sodipodi:nodetypes="cc" /><path
       inkscape:connector-curvature="0"
       id="path4904"
       d="m 132.63121,41.167356 13.73752,0"
       style="fill:none;stroke:#000000;stroke-width:1.05;stroke-linecap:butt;stroke-linejoin:miter;stroke-opacity:1;stroke-miterlimit:4;stroke-dasharray:none"
       sodipodi:nodetypes="cc" /><path
       style="fill:none;stroke:#000000;stroke-width:1.05;stroke-linecap:butt;stroke-linejoin:miter;stroke-opacity:1;stroke-miterlimit:4;stroke-dasharray:none"
       d="m 134.24936,37.967356 10.5012,0"
       id="path4906"
       inkscape:connector-curvature="0"
       sodipodi:nodetypes="cc" /><path
       inkscape:connector-curvature="0"
       id="path4908"
       d="m 135.47915,35.590638 7.91214,0"
       style="fill:none;stroke:#000000;stroke-width:1.05;stroke-linecap:butt;stroke-linejoin:miter;stroke-opacity:1;stroke-miterlimit:4;stroke-dasharray:none"
       sodipodi:nodetypes="cc" /><path
       style="fill:none;stroke:#000000;stroke-width:1;stroke-linecap:butt;stroke-linejoin:miter;stroke-miterlimit:4;stroke-opacity:1;stroke-dasharray:none;marker-end:url(#Arrow1Mend)"
       d="m 151.68935,178.18071 0,-17.94126"
       id="path4910"
       inkscape:connector-curvature="0" /><path
       inkscape:connector-curvature="0"
       id="path5098"
       d="m 82.88935,154.18071 0,-17.94126"
       style="fill:none;stroke:#000000;stroke-width:1;stroke-linecap:butt;stroke-linejoin:miter;stroke-miterlimit:4;stroke-opacity:1;stroke-dasharray:none;marker-end:url(#Arrow1Mend)" /><text
       xml:space="preserve"
       style="font-size:10.39999962px;font-style:normal;font-variant:normal;font-weight:normal;font-stretch:normal;line-height:125%;letter-spacing:0px;word-spacing:0px;fill:#000000;fill-opacity:1;stroke:none;font-family:Nimbus Roman No9 L;-inkscape-font-specification:Nimbus Roman No9 L"
       x="113.91858"
       y="-163.88692"
       id="text5100"
       sodipodi:linespacing="125%"
       transform="scale(1,-1)"><tspan
         sodipodi:role="line"
         id="tspan5102"
         x="113.91858"
         y="-163.88692">R<tspan
   style="font-size:8px"
   id="tspan5104"
   dy="2.5890586"
   dx="3.6730374e-09">C</tspan></tspan></text>
<text
       xml:space="preserve"
       style="font-size:10.39999962px;font-style:normal;font-variant:normal;font-weight:normal;font-stretch:normal;line-height:125%;letter-spacing:0px;word-spacing:0px;fill:#000000;fill-opacity:1;stroke:none;font-family:Nimbus Roman No9 L;-inkscape-font-specification:Nimbus Roman No9 L"
       x="91.720116"
       y="-207.42245"
       id="text5106"
       sodipodi:linespacing="125%"
       transform="scale(1,-1)"><tspan
         sodipodi:role="line"
         id="tspan5108"
         x="91.720116"
         y="-207.42245">V<tspan
   style="font-size:8px"
   id="tspan5110"
   dy="2.0138147">CC</tspan></tspan></text>
<text
       xml:space="preserve"
       style="font-size:10.39999962px;font-style:normal;font-variant:normal;font-weight:normal;font-stretch:normal;line-height:125%;letter-spacing:0px;word-spacing:0px;fill:#000000;fill-opacity:1;stroke:none;font-family:Nimbus Roman No9 L;-inkscape-font-specification:Nimbus Roman No9 L"
       x="87.143265"
       y="-144.26189"
       id="text5112"
       sodipodi:linespacing="125%"
       transform="scale(1,-1)"><tspan
         sodipodi:role="line"
         id="tspan5114"
         x="87.143265"
         y="-144.26189">I<tspan
   style="font-size:8px"
   id="tspan5116"
   dy="1.6476667"
   dx="0.18307409">B</tspan></tspan></text>
<text
       xml:space="preserve"
       style="font-size:10.39999962px;font-style:normal;font-variant:normal;font-weight:normal;font-stretch:normal;line-height:125%;letter-spacing:0px;word-spacing:0px;fill:#000000;fill-opacity:1;stroke:none;font-family:Nimbus Roman No9 L;-inkscape-font-specification:Nimbus Roman No9 L"
       x="44.120857"
       y="-145.72649"
       id="text5118"
       sodipodi:linespacing="125%"
       transform="scale(1,-1)"><tspan
         sodipodi:role="line"
         id="tspan5120"
         x="44.120857"
         y="-145.72649">R<tspan
   style="font-size:8px"
   id="tspan5122"
   dy="1.6476667"
   dx="-0.18307409">B</tspan></tspan></text>
<text
       xml:space="preserve"
       style="font-size:10.39999962px;font-style:normal;font-variant:normal;font-weight:normal;font-stretch:normal;line-height:125%;letter-spacing:0px;word-spacing:0px;fill:#000000;fill-opacity:1;stroke:none;font-family:Nimbus Roman No9 L;-inkscape-font-specification:Nimbus Roman No9 L"
       x="38.059162"
       y="-115.98933"
       id="text5124"
       sodipodi:linespacing="125%"
       transform="scale(1,-1)"><tspan
         sodipodi:role="line"
         id="tspan5126"
         x="38.059162"
         y="-115.98933"
         dy="0 2.977417"
         dx="0 1.768214e-09">C1</tspan></text>
<g
       transform="matrix(1.2749811,0,0,-1.2749811,-273.55652,275.03985)"
       ns0:text="$\\upsilon_{\\text{i}}$"
       ns0:preamble="/home/sriranga/Desktop/Prism-Basic-Electronics/package.tex"
       id="g5190"><defs
         id="defs5192"><g
           id="g5194"><symbol
             style="overflow:visible"
             overflow="visible"
             id="textext-de47928f-0"><path
               inkscape:connector-curvature="0"
               style="stroke:none"
               d=""
               id="path5197" /></symbol><symbol
             style="overflow:visible"
             overflow="visible"
             id="textext-de47928f-1"><path
               inkscape:connector-curvature="0"
               style="stroke:none"
               d="m 5.03125,-3.9375 c 0,-0.296875 0,-0.453125 -0.09375,-0.453125 -0.109375,0 -0.890625,0.65625 -1,0.765625 0.015625,0 0.171875,0.09375 0.171875,0.75 0,1.015625 -0.65625,2.609375 -1.90625,2.609375 -0.484375,0 -0.765625,-0.265625 -0.765625,-0.640625 0,-1 0.75,-1.640625 0.75,-2.75 0,-0.453125 -0.1875,-0.734375 -0.765625,-0.734375 -0.671875,0 -1.109375,0.6875 -1.15625,0.796875 l 0.0625,0.0625 C 0.390625,-3.609375 0.65625,-3.890625 1,-3.890625 c 0.203125,0 0.359375,0.078125 0.359375,0.375 0,0.84375 -0.71875,1.375 -0.71875,2.59375 0,0.53125 0.40625,1.03125 1.203125,1.03125 2.40625,0 3.1875,-3.171875 3.1875,-4.046875 z m 0,0"
               id="path5200" /></symbol><symbol
             style="overflow:visible"
             overflow="visible"
             id="textext-de47928f-2"><path
               inkscape:connector-curvature="0"
               style="stroke:none"
               d=""
               id="path5203" /></symbol><symbol
             style="overflow:visible"
             overflow="visible"
             id="textext-de47928f-3"><path
               inkscape:connector-curvature="0"
               style="stroke:none"
               d="m 1.21875,-3.203125 -1.078125,0.375 0,0.109375 0.046875,0 C 0.28125,-2.734375 0.375,-2.75 0.4375,-2.75 c 0.15625,0 0.21875,0.109375 0.21875,0.421875 l 0,1.625 c 0,0.5 -0.0625,0.578125 -0.546875,0.59375 l 0,0.109375 1.65625,0 0,-0.109375 C 1.296875,-0.140625 1.25,-0.203125 1.25,-0.703125 l 0,-2.484375 z m -0.328125,-1.5625 c -0.1875,0 -0.34375,0.171875 -0.34375,0.359375 0,0.203125 0.15625,0.359375 0.34375,0.359375 0.203125,0 0.359375,-0.15625 0.359375,-0.359375 0,-0.1875 -0.15625,-0.359375 -0.359375,-0.359375 z m 0,0"
               id="path5206" /></symbol></g></defs><g
         id="textext-de47928f-4"><g
           style="fill:#000000;fill-opacity:1"
           id="g5209"><use
             height="283.46457"
             width="354.33069"
             xlink:href="#textext-de47928f-1"
             x="223.43201"
             y="134.765"
             id="use5211" /></g><g
           style="fill:#000000;fill-opacity:1"
           id="g5213"><use
             height="283.46457"
             width="354.33069"
             xlink:href="#textext-de47928f-3"
             x="228.662"
             y="136.259"
             id="use5215" /></g></g></g><text
       transform="scale(1,-1)"
       sodipodi:linespacing="125%"
       id="text5293"
       y="-147.008"
       x="165.86513"
       style="font-size:10.39999962px;font-style:normal;font-variant:normal;font-weight:normal;font-stretch:normal;line-height:125%;letter-spacing:0px;word-spacing:0px;fill:#000000;fill-opacity:1;stroke:none;font-family:Nimbus Roman No9 L;-inkscape-font-specification:Nimbus Roman No9 L"
       xml:space="preserve"><tspan
         y="-147.008"
         x="165.86513"
         id="tspan5295"
         sodipodi:role="line">C<tspan
   dx="0.36614817"
   dy="1.6476667"
   id="tspan5297"
   style="font-size:8.80000019px">2</tspan></tspan></text>
<g
       id="g5412"
       transform="matrix(1.2749811,0,0,-1.2749811,-90.116283,305.54067)"
       ns0:preamble="/home/sriranga/Desktop/Prism-Basic-Electronics/package.tex"
       ns0:text="$\\upsilon_{\\text{0}}$"><defs
         id="defs5414"><g
           id="g5416"><symbol
             id="textext-3180f84b-0"
             overflow="visible"><path
               id="path5419"
               d=""
               style="stroke:none;" /></symbol><symbol
             id="textext-3180f84b-1"
             overflow="visible"><path
               id="path5422"
               d="M 5.03125 -3.9375 C 5.03125 -4.234375 5.03125 -4.390625 4.9375 -4.390625 C 4.828125 -4.390625 4.046875 -3.734375 3.9375 -3.625 C 3.953125 -3.625 4.109375 -3.53125 4.109375 -2.875 C 4.109375 -1.859375 3.453125 -0.265625 2.203125 -0.265625 C 1.71875 -0.265625 1.4375 -0.53125 1.4375 -0.90625 C 1.4375 -1.90625 2.1875 -2.546875 2.1875 -3.65625 C 2.1875 -4.109375 2 -4.390625 1.421875 -4.390625 C 0.75 -4.390625 0.3125 -3.703125 0.265625 -3.59375 L 0.328125 -3.53125 C 0.390625 -3.609375 0.65625 -3.890625 1 -3.890625 C 1.203125 -3.890625 1.359375 -3.8125 1.359375 -3.515625 C 1.359375 -2.671875 0.640625 -2.140625 0.640625 -0.921875 C 0.640625 -0.390625 1.046875 0.109375 1.84375 0.109375 C 4.25 0.109375 5.03125 -3.0625 5.03125 -3.9375 Z M 5.03125 -3.9375 "
               style="stroke:none;" /></symbol><symbol
             id="textext-3180f84b-2"
             overflow="visible"><path
               id="path5425"
               d=""
               style="stroke:none;" /></symbol><symbol
             id="textext-3180f84b-3"
             overflow="visible"><path
               id="path5428"
               d="M 1.765625 -4.703125 C 1.390625 -4.703125 1.09375 -4.59375 0.84375 -4.34375 C 0.4375 -3.953125 0.171875 -3.15625 0.171875 -2.34375 C 0.171875 -1.578125 0.390625 -0.765625 0.71875 -0.375 C 0.984375 -0.0625 1.34375 0.09375 1.734375 0.09375 C 2.09375 0.09375 2.390625 -0.015625 2.640625 -0.265625 C 3.046875 -0.640625 3.3125 -1.453125 3.3125 -2.296875 C 3.3125 -3.734375 2.6875 -4.703125 1.765625 -4.703125 Z M 1.75 -4.53125 C 2.328125 -4.53125 2.640625 -3.75 2.640625 -2.28125 C 2.640625 -0.828125 2.34375 -0.078125 1.734375 -0.078125 C 1.140625 -0.078125 0.84375 -0.828125 0.84375 -2.28125 C 0.84375 -3.75 1.15625 -4.53125 1.75 -4.53125 Z M 1.75 -4.53125 "
               style="stroke:none;" /></symbol></g></defs><g
         id="textext-3180f84b-4"><g
           id="g5431"
           style="fill:rgb(0%,0%,0%);fill-opacity:1;"><use
             id="use5433"
             y="134.765"
             x="223.432"
             xlink:href="#textext-3180f84b-1" /></g><g
           id="g5435"
           style="fill:rgb(0%,0%,0%);fill-opacity:1;"><use
             id="use5437"
             y="136.259"
             x="228.662"
             xlink:href="#textext-3180f84b-3" /></g></g></g><text
       xml:space="preserve"
       style="font-size:10.39999962px;font-style:normal;font-variant:normal;font-weight:normal;font-stretch:normal;line-height:125%;letter-spacing:0px;word-spacing:0px;fill:#000000;fill-opacity:1;stroke:none;font-family:Nimbus Roman No9 L;-inkscape-font-specification:Nimbus Roman No9 L"
       x="155.24683"
       y="-169.15996"
       id="text5534"
       sodipodi:linespacing="125%"
       transform="scale(1,-1)"><tspan
         sodipodi:role="line"
         id="tspan5536"
         x="155.24683"
         y="-169.15996">I<tspan
   style="font-size:8px"
   id="tspan5538"
   dy="1.4645927"
   dx="0.36614817">C</tspan></tspan></text>
</g></svg>