<?xml version="1.0" encoding="UTF-8" standalone="no"?>
<!-- Created with Inkscape (http://www.inkscape.org/) -->

<svg
   xmlns:ns0="http://www.iki.fi/pav/software/textext/"
   xmlns:dc="http://purl.org/dc/elements/1.1/"
   xmlns:cc="http://creativecommons.org/ns#"
   xmlns:rdf="http://www.w3.org/1999/02/22-rdf-syntax-ns#"
   xmlns:svg="http://www.w3.org/2000/svg"
   xmlns="http://www.w3.org/2000/svg"
   xmlns:xlink="http://www.w3.org/1999/xlink"
   xmlns:sodipodi="http://sodipodi.sourceforge.net/DTD/sodipodi-0.dtd"
   xmlns:inkscape="http://www.inkscape.org/namespaces/inkscape"
   id="svg2"
   version="1.1"
   inkscape:version="0.48.4 r9939"
   width="354.33069"
   height="283.46457"
   xml:space="preserve"
   sodipodi:docname="fig3.16.eps"><sodipodi:namedview
     pagecolor="#ffffff"
     bordercolor="#666666"
     borderopacity="1"
     objecttolerance="10"
     gridtolerance="10"
     guidetolerance="10"
     inkscape:pageopacity="0"
     inkscape:pageshadow="2"
     inkscape:window-width="1024"
     inkscape:window-height="744"
     id="namedview4"
     showgrid="false"
     units="cm"
     inkscape:zoom="1.5449631"
     inkscape:cx="201.49596"
     inkscape:cy="146.53024"
     inkscape:window-x="0"
     inkscape:window-y="24"
     inkscape:window-maximized="1"
     inkscape:current-layer="g10" /><metadata
     id="metadata8"><rdf:RDF><cc:Work
         rdf:about=""><dc:format>image/svg+xml</dc:format><dc:type
           rdf:resource="http://purl.org/dc/dcmitype/StillImage" /><dc:title></dc:title></cc:Work></rdf:RDF></metadata><defs
     id="defs6"><marker
       style="overflow:visible"
       id="DotM"
       refX="0.0"
       refY="0.0"
       orient="auto"
       inkscape:stockid="DotM"><path
         transform="scale(0.4) translate(7.4, 1)"
         style="fill-rule:evenodd;stroke:#000000;stroke-width:1.0pt"
         d="M -2.5,-1.0 C -2.5,1.7600000 -4.7400000,4.0 -7.5,4.0 C -10.260000,4.0 -12.5,1.7600000 -12.5,-1.0 C -12.5,-3.7600000 -10.260000,-6.0 -7.5,-6.0 C -4.7400000,-6.0 -2.5,-3.7600000 -2.5,-1.0 z "
         id="path3904" /></marker><marker
       style="overflow:visible;"
       id="Arrow1Mend"
       refX="0.0"
       refY="0.0"
       orient="auto"
       inkscape:stockid="Arrow1Mend"><path
         transform="scale(0.4) rotate(180) translate(10,0)"
         style="fill-rule:evenodd;stroke:#000000;stroke-width:1.0pt;"
         d="M 0.0,0.0 L 5.0,-5.0 L -12.5,0.0 L 5.0,5.0 L 0.0,0.0 z "
         id="path3806" /></marker></defs><g
     transform="matrix(1.25,0,0,-1.25,0,283.46395)"
     inkscape:label="ink_ext_XXXXXX"
     inkscape:groupmode="layer"
     id="g10"><path
       style="fill:none;stroke:#000000;stroke-width:1.04999995;stroke-linecap:butt;stroke-linejoin:miter;stroke-miterlimit:4;stroke-opacity:1;stroke-dasharray:none;marker-end:none"
       d="m 80.078445,105.30154 92.718295,0"
       id="path4284"
       inkscape:connector-curvature="0"
       sodipodi:nodetypes="cc" /><path
       sodipodi:nodetypes="cc"
       inkscape:connector-curvature="0"
       id="path4474"
       d="m 172.54289,82.122677 0,46.650633"
       style="fill:none;stroke:#000000;stroke-width:1.04999995;stroke-linecap:butt;stroke-linejoin:miter;stroke-miterlimit:4;stroke-opacity:1;stroke-dasharray:none;marker-end:none" /><path
       sodipodi:nodetypes="cc"
       inkscape:connector-curvature="0"
       id="path4476"
       d="m 172.71353,94.465736 c 6.34977,-3.666048 12.06835,-7.6858 19.57314,-12.018696"
       style="fill:none;stroke:#000000;stroke-width:1.04999995;stroke-linecap:butt;stroke-linejoin:miter;stroke-miterlimit:4;stroke-opacity:1;stroke-dasharray:none;marker-end:url(#Arrow1Mend)" /><path
       sodipodi:nodetypes="cccccccccccccc"
       inkscape:connector-curvature="0"
       id="path4484"
       d="m 80.142598,104.96676 0.09545,43.51081 23.760192,-0.12945 4.94269,6.58731 3.74429,-8.52187 5.0133,7.74704 3.2559,-8.78046 3.74036,3.22688 20.16346,-0.0387 2.97716,6.07684 4.14198,-9.71542 4.40089,9.57256 2.71924,-5.96129 33.08348,-0.0635"
       style="fill:none;stroke:#000000;stroke-width:1.12751961;stroke-linecap:butt;stroke-linejoin:miter;stroke-miterlimit:4;stroke-opacity:1;stroke-dasharray:none;marker-end:none" /><text
       transform="matrix(0.8,0,0,-0.8,0,226.77116)"
       sodipodi:linespacing="125%"
       id="text4866"
       y="127.73717"
       x="187.53651"
       style="font-size:13px;font-style:normal;font-variant:normal;font-weight:normal;font-stretch:normal;line-height:125%;letter-spacing:0px;word-spacing:0px;fill:#000000;fill-opacity:1;stroke:none;font-family:Nimbus Roman No9 L;-inkscape-font-specification:Nimbus Roman No9 L"
       xml:space="preserve"><tspan
         y="127.73717"
         x="187.53651"
         id="tspan4868"
         sodipodi:role="line" /><tspan
         y="143.98717"
         x="187.53651"
         id="tspan4870"
         sodipodi:role="line" /></text>
<path
       sodipodi:nodetypes="ccccccccc"
       inkscape:connector-curvature="0"
       id="path4878"
       d="m 172.84417,116.07335 19.40585,13.54261 0,38.41345 5.04866,3.88358 -9.70897,2.97742 8.93226,3.75413 -9.83843,4.27194 5.56648,3.62469 0,24.50609"
       style="fill:none;stroke:#000000;stroke-width:1.04999995;stroke-linecap:butt;stroke-linejoin:miter;stroke-miterlimit:4;stroke-opacity:1;stroke-dasharray:none;marker-end:url(#DotM)" /><path
       style="fill:none;stroke:#000000;stroke-width:1.04999995;stroke-linecap:butt;stroke-linejoin:miter;stroke-miterlimit:4;stroke-opacity:1;stroke-dasharray:none;marker-end:none"
       d="m 192.26071,19.336967 -0.12945,27.384803 2.97741,3.10687 -7.76717,2.847965 8.02608,3.365776 -8.54389,2.977417 5.43702,3.754135 0,19.718588"
       id="path4896"
       inkscape:connector-curvature="0"
       sodipodi:nodetypes="cccccccc" /><path
       inkscape:connector-curvature="0"
       id="path4898"
       d="m 181.1127,34.06647 22.15196,0"
       style="fill:none;stroke:#000000;stroke-width:1.04999995;stroke-linecap:butt;stroke-linejoin:miter;stroke-miterlimit:4;stroke-opacity:1;stroke-dasharray:none" /><path
       sodipodi:nodetypes="cc"
       inkscape:connector-curvature="0"
       id="path4902"
       d="m 183.61885,31.384282 17.16802,0"
       style="fill:none;stroke:#000000;stroke-width:1.04999995;stroke-linecap:butt;stroke-linejoin:miter;stroke-miterlimit:4;stroke-opacity:1;stroke-dasharray:none" /><path
       sodipodi:nodetypes="cc"
       style="fill:none;stroke:#000000;stroke-width:1.04999995;stroke-linecap:butt;stroke-linejoin:miter;stroke-miterlimit:4;stroke-opacity:1;stroke-dasharray:none"
       d="m 185.43121,28.572641 13.73752,0"
       id="path4904"
       inkscape:connector-curvature="0" /><path
       sodipodi:nodetypes="cc"
       inkscape:connector-curvature="0"
       id="path4906"
       d="m 187.04936,26.019906 10.5012,0"
       style="fill:none;stroke:#000000;stroke-width:1.04999995;stroke-linecap:butt;stroke-linejoin:miter;stroke-miterlimit:4;stroke-opacity:1;stroke-dasharray:none" /><path
       sodipodi:nodetypes="cc"
       style="fill:none;stroke:#000000;stroke-width:1.04999995;stroke-linecap:butt;stroke-linejoin:miter;stroke-miterlimit:4;stroke-opacity:1;stroke-dasharray:none"
       d="m 188.27915,23.643188 7.91214,0"
       id="path4908"
       inkscape:connector-curvature="0" /><path
       sodipodi:type="arc"
       style="fill:#000000;stroke:#000000;stroke-width:1.31200004;stroke-miterlimit:4;stroke-opacity:1;stroke-dasharray:none;stroke-dashoffset:0"
       id="path4555"
       sodipodi:cx="303.10202"
       sodipodi:cy="103.02217"
       sodipodi:rx="2.63169"
       sodipodi:ry="2.63169"
       d="m 305.73371,103.02217 c 0,1.45344 -1.17825,2.63169 -2.63169,2.63169 -1.45344,0 -2.63169,-1.17825 -2.63169,-2.63169 0,-1.45344 1.17825,-2.63169 2.63169,-2.63169 1.45344,0 2.63169,1.17825 2.63169,2.63169 z"
       transform="matrix(0.8,0,0,-0.8,-50.345374,230.79879)" /><text
       transform="scale(1,-1)"
       sodipodi:linespacing="125%"
       id="text5080"
       y="-173.91989"
       x="201.47034"
       style="font-size:10.39999962px;font-style:normal;font-variant:normal;font-weight:normal;font-stretch:normal;line-height:125%;letter-spacing:0px;word-spacing:0px;fill:#000000;fill-opacity:1;stroke:none;font-family:Nimbus Roman No9 L;-inkscape-font-specification:Nimbus Roman No9 L"
       xml:space="preserve"><tspan
         y="-173.91989"
         x="201.47034"
         id="tspan5082"
         sodipodi:role="line">4.7k</tspan></text>
<g
       ns0:text="$\\beta=180$"
       ns0:preamble="/home/sriranga/Desktop/Prism-Basic-Electronics/package.tex"
       transform="matrix(1,0,0,-1,-14.16938,239.06084)"
       id="g5498"><defs
         id="defs5500"><g
           id="g5502"><symbol
             overflow="visible"
             id="textext-a1fa832d-0"><path
               style="stroke:none;"
               d=""
               id="path5505" /></symbol><symbol
             overflow="visible"
             id="textext-a1fa832d-1"><path
               style="stroke:none;"
               d="M 5.03125 -5.390625 C 5.03125 -6.171875 4.390625 -6.53125 3.5625 -6.53125 C 2.515625 -6.53125 1.484375 -5.828125 1.203125 -4.8125 L -0.3125 0.75 C -0.484375 1.375 -0.875 1.9375 -0.96875 2.0625 L -0.078125 2.0625 C -0.0625 2.0625 0.09375 1.984375 0.421875 0.734375 L 0.75 -0.546875 L 0.765625 -0.546875 C 0.765625 -0.53125 1.09375 0.171875 2.109375 0.171875 C 3.59375 0.171875 4.609375 -0.953125 4.609375 -2.09375 C 4.609375 -3.34375 3.484375 -3.53125 3.46875 -3.53125 L 3.46875 -3.5625 C 3.484375 -3.5625 5.03125 -3.921875 5.03125 -5.390625 Z M 4.25 -5.40625 C 4.25 -4.9375 3.984375 -3.8125 3.1875 -3.8125 C 2.984375 -3.8125 2.828125 -3.859375 2.65625 -3.859375 C 2.390625 -3.859375 2.203125 -3.625 2.203125 -3.453125 C 2.203125 -3.34375 2.28125 -3.25 2.46875 -3.25 C 2.734375 -3.25 2.8125 -3.296875 3.046875 -3.296875 C 3.53125 -3.296875 3.765625 -2.765625 3.765625 -2.203125 C 3.765625 -1.203125 3.15625 -0.296875 2.09375 -0.296875 C 1.421875 -0.296875 0.984375 -0.640625 0.984375 -1.21875 C 0.984375 -1.328125 1 -1.46875 1.03125 -1.609375 L 1.9375 -4.8125 C 2.109375 -5.453125 2.578125 -6.25 3.46875 -6.25 C 4.03125 -6.25 4.25 -5.859375 4.25 -5.40625 Z M 4.25 -5.40625 "
               id="path5508" /></symbol><symbol
             overflow="visible"
             id="textext-a1fa832d-2"><path
               style="stroke:none;"
               d=""
               id="path5511" /></symbol><symbol
             overflow="visible"
             id="textext-a1fa832d-3"><path
               style="stroke:none;"
               d="M 5.71875 -3.296875 L 5.71875 -3.84375 L 0.625 -3.84375 L 0.625 -3.296875 Z M 5.71875 -1.265625 L 5.71875 -1.828125 L 0.625 -1.828125 L 0.625 -1.265625 Z M 5.71875 -1.265625 "
               id="path5514" /></symbol><symbol
             overflow="visible"
             id="textext-a1fa832d-4"><path
               style="stroke:none;"
               d=""
               id="path5517" /></symbol><symbol
             overflow="visible"
             id="textext-a1fa832d-5"><path
               style="stroke:none;"
               d="M 2.90625 -6.734375 L 1.109375 -5.828125 L 1.109375 -5.6875 C 1.21875 -5.734375 1.328125 -5.78125 1.375 -5.796875 C 1.5625 -5.875 1.71875 -5.90625 1.828125 -5.90625 C 2.03125 -5.90625 2.125 -5.765625 2.125 -5.4375 L 2.125 -0.921875 C 2.125 -0.59375 2.046875 -0.375 1.890625 -0.28125 C 1.734375 -0.1875 1.59375 -0.15625 1.171875 -0.15625 L 1.171875 0 L 3.921875 0 L 3.921875 -0.15625 C 3.140625 -0.15625 2.984375 -0.265625 2.984375 -0.734375 L 2.984375 -6.71875 Z M 2.90625 -6.734375 "
               id="path5520" /></symbol><symbol
             overflow="visible"
             id="textext-a1fa832d-6"><path
               style="stroke:none;"
               d="M 2.890625 -3.703125 C 3.875 -4.234375 4.234375 -4.640625 4.234375 -5.328125 C 4.234375 -6.140625 3.515625 -6.734375 2.515625 -6.734375 C 1.421875 -6.734375 0.625 -6.078125 0.625 -5.15625 C 0.625 -4.515625 0.8125 -4.234375 1.859375 -3.3125 C 0.78125 -2.5 0.5625 -2.1875 0.5625 -1.5 C 0.5625 -0.53125 1.34375 0.140625 2.46875 0.140625 C 3.671875 0.140625 4.4375 -0.515625 4.4375 -1.546875 C 4.4375 -2.3125 4.09375 -2.796875 2.890625 -3.703125 Z M 2.71875 -2.671875 C 3.4375 -2.15625 3.671875 -1.796875 3.671875 -1.234375 C 3.671875 -0.59375 3.234375 -0.140625 2.578125 -0.140625 C 1.828125 -0.140625 1.3125 -0.71875 1.3125 -1.578125 C 1.3125 -2.21875 1.53125 -2.640625 2.109375 -3.109375 Z M 2.609375 -3.875 C 1.71875 -4.453125 1.359375 -4.921875 1.359375 -5.46875 C 1.359375 -6.046875 1.796875 -6.453125 2.4375 -6.453125 C 3.109375 -6.453125 3.53125 -6.015625 3.53125 -5.328125 C 3.53125 -4.765625 3.265625 -4.3125 2.6875 -3.9375 C 2.640625 -3.90625 2.640625 -3.90625 2.609375 -3.875 Z M 2.609375 -3.875 "
               id="path5523" /></symbol><symbol
             overflow="visible"
             id="textext-a1fa832d-7"><path
               style="stroke:none;"
               d="M 2.53125 -6.734375 C 1.984375 -6.734375 1.5625 -6.5625 1.203125 -6.21875 C 0.625 -5.65625 0.234375 -4.515625 0.234375 -3.34375 C 0.234375 -2.265625 0.5625 -1.09375 1.03125 -0.53125 C 1.40625 -0.09375 1.90625 0.140625 2.5 0.140625 C 3 0.140625 3.421875 -0.03125 3.78125 -0.375 C 4.359375 -0.921875 4.75 -2.078125 4.75 -3.296875 C 4.75 -5.328125 3.84375 -6.734375 2.53125 -6.734375 Z M 2.5 -6.484375 C 3.34375 -6.484375 3.78125 -5.359375 3.78125 -3.265625 C 3.78125 -1.1875 3.34375 -0.125 2.5 -0.125 C 1.640625 -0.125 1.203125 -1.1875 1.203125 -3.265625 C 1.203125 -5.375 1.640625 -6.484375 2.5 -6.484375 Z M 2.5 -6.484375 "
               id="path5526" /></symbol></g></defs><g
         id="textext-a1fa832d-8"><g
           style="fill:rgb(0%,0%,0%);fill-opacity:1;"
           id="g5529"><use
             xlink:href="#textext-a1fa832d-1"
             x="223.432"
             y="134.765"
             id="use5531" /></g><g
           style="fill:rgb(0%,0%,0%);fill-opacity:1;"
           id="g5533"><use
             xlink:href="#textext-a1fa832d-3"
             x="231.26"
             y="134.765"
             id="use5535" /></g><g
           style="fill:rgb(0%,0%,0%);fill-opacity:1;"
           id="g5537"><use
             xlink:href="#textext-a1fa832d-5"
             x="240.364"
             y="134.765"
             id="use5539" /><use
             xlink:href="#textext-a1fa832d-6"
             x="245.3453"
             y="134.765"
             id="use5541" /><use
             xlink:href="#textext-a1fa832d-7"
             x="250.3266"
             y="134.765"
             id="use5543" /></g></g></g><g
       id="g5737"
       ns0:preamble="/home/sriranga/Desktop/Prism-Basic-Electronics/package.tex"
       ns0:text="$\\Omega$"
       transform="matrix(1,0,0,-1,-1.6476668,308.18237)"><defs
         id="defs5739"><g
           id="g5741"><symbol
             id="textext-646f8e2b-0"
             overflow="visible"
             style="overflow:visible"><path
               id="path5744"
               d=""
               style="stroke:none"
               inkscape:connector-curvature="0" /></symbol><symbol
             id="textext-646f8e2b-1"
             overflow="visible"
             style="overflow:visible"><path
               id="path5747"
               d="m 7.125,0 0,-1.53125 -0.1875,0 c -0.015625,0.515625 -0.3125,0.625 -0.765625,0.625 l -1.359375,0 0.046875,-0.328125 c 1.265625,-0.375 2.03125,-1.359375 2.03125,-2.6875 C 6.890625,-5.71875 5.4375,-6.75 3.734375,-6.75 c -1.6875,0 -3.203125,1.078125 -3.203125,2.875 0,1.21875 0.796875,2.40625 2.046875,2.640625 l 0.015625,0.328125 -1.328125,0 c -0.484375,0 -0.75,-0.09375 -0.796875,-0.625 l -0.171875,0 0,1.53125 2.71875,0 -0.09375,-1.46875 c -1.03125,-0.375 -1.25,-1.40625 -1.25,-2.390625 0,-1.21875 0.65625,-2.546875 2.046875,-2.546875 1.4375,0 2.046875,1.375 2.046875,2.625 0,0.953125 -0.21875,1.984375 -1.25,2.3125 L 4.390625,0 z m 0,0"
               style="stroke:none"
               inkscape:connector-curvature="0" /></symbol></g></defs><g
         id="textext-646f8e2b-2"><g
           id="g5750"
           style="fill:#000000;fill-opacity:1"><use
             id="use5752"
             y="134.765"
             x="223.43201"
             xlink:href="#textext-646f8e2b-1"
             width="354.33069"
             height="283.46457" /></g></g></g><text
       xml:space="preserve"
       style="font-size:10.39999962px;font-style:normal;font-variant:normal;font-weight:normal;font-stretch:normal;line-height:125%;letter-spacing:0px;word-spacing:0px;fill:#000000;fill-opacity:1;stroke:none;font-family:Nimbus Roman No9 L;-inkscape-font-specification:Nimbus Roman No9 L"
       x="101.4911"
       y="-159.48552"
       id="text5857"
       sodipodi:linespacing="125%"
       transform="scale(1,-1)"><tspan
         sodipodi:role="line"
         id="tspan5859"
         x="101.4911"
         y="-159.48552">150k</tspan></text>
<text
       xml:space="preserve"
       style="font-size:10.39999962px;font-style:normal;font-variant:normal;font-weight:normal;font-stretch:normal;line-height:125%;letter-spacing:0px;word-spacing:0px;fill:#000000;fill-opacity:1;stroke:none;font-family:Nimbus Roman No9 L;-inkscape-font-specification:Nimbus Roman No9 L"
       x="138.77016"
       y="-159.64011"
       id="text5861"
       sodipodi:linespacing="125%"
       transform="scale(1,-1)"><tspan
         sodipodi:role="line"
         id="tspan5863"
         x="138.77016"
         y="-159.64011">1M</tspan></text>
<g
       transform="matrix(1,0,0,-1,-69.385079,294.28392)"
       ns0:text="$\\Omega$"
       ns0:preamble="/home/sriranga/Desktop/Prism-Basic-Electronics/package.tex"
       id="g5865"><defs
         id="defs5867"><g
           id="g5869"><symbol
             style="overflow:visible"
             overflow="visible"
             id="symbol5871"><path
               inkscape:connector-curvature="0"
               style="stroke:none"
               d=""
               id="path5873" /></symbol><symbol
             style="overflow:visible"
             overflow="visible"
             id="symbol5875"><path
               inkscape:connector-curvature="0"
               style="stroke:none"
               d="m 7.125,0 0,-1.53125 -0.1875,0 c -0.015625,0.515625 -0.3125,0.625 -0.765625,0.625 l -1.359375,0 0.046875,-0.328125 c 1.265625,-0.375 2.03125,-1.359375 2.03125,-2.6875 C 6.890625,-5.71875 5.4375,-6.75 3.734375,-6.75 c -1.6875,0 -3.203125,1.078125 -3.203125,2.875 0,1.21875 0.796875,2.40625 2.046875,2.640625 l 0.015625,0.328125 -1.328125,0 c -0.484375,0 -0.75,-0.09375 -0.796875,-0.625 l -0.171875,0 0,1.53125 2.71875,0 -0.09375,-1.46875 c -1.03125,-0.375 -1.25,-1.40625 -1.25,-2.390625 0,-1.21875 0.65625,-2.546875 2.046875,-2.546875 1.4375,0 2.046875,1.375 2.046875,2.625 0,0.953125 -0.21875,1.984375 -1.25,2.3125 L 4.390625,0 z m 0,0"
               id="path5877" /></symbol></g></defs><g
         id="g5879"><g
           style="fill:#000000;fill-opacity:1"
           id="g5881"><use
             height="283.46457"
             width="354.33069"
             xlink:href="#textext-646f8e2b-1"
             x="223.43201"
             y="134.765"
             id="use5883" /></g></g></g><path
       style="fill:none;stroke:#000000;stroke-width:0.80000001px;stroke-linecap:butt;stroke-linejoin:miter;stroke-opacity:1;marker-end:url(#Arrow1Mend)"
       d="m 140.84479,139.03195 23.56043,19.15903"
       id="path5885"
       inkscape:connector-curvature="0" /><text
       xml:space="preserve"
       style="font-size:10.39999962px;font-style:normal;font-variant:normal;font-weight:normal;font-stretch:normal;line-height:125%;letter-spacing:0px;word-spacing:0px;fill:#000000;fill-opacity:1;stroke:none;font-family:Nimbus Roman No9 L;-inkscape-font-specification:Nimbus Roman No9 L"
       x="196.62158"
       y="-211.63315"
       id="text6071"
       sodipodi:linespacing="125%"
       transform="scale(1,-1)"><tspan
         sodipodi:role="line"
         id="tspan6073"
         x="196.62158"
         y="-211.63315"
         dx="0 0.73229635">+12V</tspan></text>
<text
       xml:space="preserve"
       style="font-size:10.39999962px;font-style:normal;font-variant:normal;font-weight:normal;font-stretch:normal;line-height:125%;letter-spacing:0px;word-spacing:0px;fill:#000000;fill-opacity:1;stroke:none;font-family:Nimbus Roman No9 L;-inkscape-font-specification:Nimbus Roman No9 L"
       x="199.55075"
       y="-51.6264"
       id="text6091"
       sodipodi:linespacing="125%"
       transform="scale(1,-1)"><tspan
         sodipodi:role="line"
         id="tspan6093"
         x="199.55075"
         y="-51.6264">3.3k</tspan></text>
</g></svg>