<?xml version="1.0" encoding="UTF-8" standalone="no"?>
<!-- Created with Inkscape (http://www.inkscape.org/) -->

<svg
   xmlns:ns0="http://www.iki.fi/pav/software/textext/"
   xmlns:dc="http://purl.org/dc/elements/1.1/"
   xmlns:cc="http://creativecommons.org/ns#"
   xmlns:rdf="http://www.w3.org/1999/02/22-rdf-syntax-ns#"
   xmlns:svg="http://www.w3.org/2000/svg"
   xmlns="http://www.w3.org/2000/svg"
   xmlns:xlink="http://www.w3.org/1999/xlink"
   xmlns:sodipodi="http://sodipodi.sourceforge.net/DTD/sodipodi-0.dtd"
   xmlns:inkscape="http://www.inkscape.org/namespaces/inkscape"
   id="svg2"
   version="1.1"
   inkscape:version="0.48.4 r9939"
   width="496.06299"
   height="354.33069"
   xml:space="preserve"
   sodipodi:docname="fig3.2.eps"><sodipodi:namedview
     pagecolor="#ffffff"
     bordercolor="#666666"
     borderopacity="1"
     objecttolerance="10"
     gridtolerance="10"
     guidetolerance="10"
     inkscape:pageopacity="0"
     inkscape:pageshadow="2"
     inkscape:window-width="1024"
     inkscape:window-height="744"
     id="namedview4"
     showgrid="false"
     units="cm"
     inkscape:zoom="1.0164199"
     inkscape:cx="197.18312"
     inkscape:cy="141.08769"
     inkscape:window-x="0"
     inkscape:window-y="24"
     inkscape:window-maximized="1"
     inkscape:current-layer="g10"
     showguides="true"
     inkscape:guide-bbox="true" /><metadata
     id="metadata8"><rdf:RDF><cc:Work
         rdf:about=""><dc:format>image/svg+xml</dc:format><dc:type
           rdf:resource="http://purl.org/dc/dcmitype/StillImage" /><dc:title></dc:title></cc:Work></rdf:RDF></metadata><defs
     id="defs6"><marker
       inkscape:stockid="Arrow1Mend"
       orient="auto"
       refY="0"
       refX="0"
       id="Arrow1Mend"
       style="overflow:visible"><path
         id="path3778"
         d="M 0,0 5,-5 -12.5,0 5,5 0,0 z"
         style="fill-rule:evenodd;stroke:#000000;stroke-width:1pt"
         transform="matrix(-0.4,0,0,-0.4,-4,0)"
         inkscape:connector-curvature="0" /></marker></defs><g
     id="g10"
     inkscape:groupmode="layer"
     inkscape:label="ink_ext_XXXXXX"
     transform="matrix(1.25,0,0,-1.25,0,354.32986)"><path
       style="fill:none;stroke:#000000;stroke-width:1.04999995;stroke-linecap:butt;stroke-linejoin:miter;stroke-miterlimit:4;stroke-opacity:1;stroke-dasharray:none;marker-end:url(#Arrow1Mend)"
       d="m 70.908581,36.598386 281.379769,0"
       id="path2993"
       inkscape:connector-curvature="0"
       sodipodi:nodetypes="cc" /><path
       style="fill:none;stroke:#000000;stroke-width:1.04999995;stroke-linecap:butt;stroke-linejoin:miter;stroke-miterlimit:4;stroke-opacity:1;stroke-dasharray:none;marker-end:url(#Arrow1Mend)"
       d="m 82.321186,24.792242 0,216.839508"
       id="path3763"
       inkscape:connector-curvature="0" /><path
       style="fill:none;stroke:#000000;stroke-width:1.04999995;stroke-linecap:butt;stroke-linejoin:miter;stroke-miterlimit:4;stroke-opacity:1;stroke-dasharray:none"
       d="M 307.90831,57.880224 94.742625,54.015753 C 89.370232,52.438873 82.943297,37.75177 83.06333,36.17489 c 0.632368,1.050488 12.848068,42.203125 22.36895,45.729945 l 210.70649,20.745235"
       id="path4391"
       inkscape:connector-curvature="0"
       sodipodi:nodetypes="ccccc" /><path
       style="fill:none;stroke:#000000;stroke-width:1.04999995;stroke-linecap:butt;stroke-linejoin:miter;stroke-miterlimit:4;stroke-opacity:1;stroke-dasharray:none"
       d="m 82.517956,36.401618 10.128662,41.691163 c 1.189494,1.247902 11.169392,31.797669 18.009312,33.868159 l 204.48749,34.13199"
       id="path4393"
       inkscape:connector-curvature="0"
       sodipodi:nodetypes="cccc" /><path
       style="fill:none;stroke:#000000;stroke-width:1.04999995;stroke-linecap:butt;stroke-linejoin:miter;stroke-miterlimit:4;stroke-opacity:1;stroke-dasharray:none"
       d="M 313.72161,197.94902 122.1088,143.32703 c -5.25157,-1.87166 -14.53318,-9.27041 -15.31663,-12.37088 L 81.927648,36.20485 110.61241,146.92774 c 9.79594,24.08001 18.23017,26.34111 26.71425,30.28407 l 172.52956,62.65927"
       id="path4397"
       inkscape:connector-curvature="0"
       sodipodi:nodetypes="ccccccc" /><path
       style="fill:none;stroke:#000000;stroke-width:0.98037869;stroke-linecap:butt;stroke-linejoin:miter;stroke-miterlimit:4;stroke-opacity:1;stroke-dasharray:3.92151486, 3.92151486;stroke-dashoffset:0"
       d="m 82.775245,93.558268 134.785545,0 0.47499,-56.974295"
       id="path4403"
       inkscape:connector-curvature="0"
       sodipodi:nodetypes="ccc" /><text
       xml:space="preserve"
       style="font-size:11.19999981px;font-style:normal;font-variant:normal;font-weight:normal;font-stretch:normal;line-height:125%;letter-spacing:0px;word-spacing:0px;fill:#000000;fill-opacity:1;stroke:none;font-family:Nimbus Roman No9 L;-inkscape-font-specification:Nimbus Roman No9 L"
       x="69.727943"
       y="-247.92836"
       id="text4959"
       sodipodi:linespacing="125%"
       transform="scale(1,-1)"><tspan
         sodipodi:role="line"
         id="tspan4961"
         x="69.727943"
         y="-247.92836"
         dy="0 2.1644597 -2.1644597"
         dx="0 0.19676907 -0.19676907">Ic(mA)</tspan></text>
<text
       xml:space="preserve"
       style="font-size:11.19999981px;font-style:normal;font-variant:normal;font-weight:normal;font-stretch:normal;line-height:125%;letter-spacing:0px;word-spacing:0px;fill:#000000;fill-opacity:1;stroke:none;font-family:Nimbus Roman No9 L;-inkscape-font-specification:Nimbus Roman No9 L"
       x="73.045464"
       y="-91.273048"
       id="text4963"
       sodipodi:linespacing="125%"
       transform="scale(1,-1)"><tspan
         sodipodi:role="line"
         id="tspan4965"
         x="73.045464"
         y="-91.273048"
         style="font-size:9.60000038px">5</tspan></text>
<text
       xml:space="preserve"
       style="font-size:11.19999981px;font-style:normal;font-variant:normal;font-weight:normal;font-stretch:normal;line-height:125%;letter-spacing:0px;word-spacing:0px;fill:#000000;fill-opacity:1;stroke:none;font-family:Nimbus Roman No9 L;-inkscape-font-specification:Nimbus Roman No9 L"
       x="144.86261"
       y="-158.48358"
       id="text4975"
       sodipodi:linespacing="125%"
       transform="scale(1,-1)"><tspan
         sodipodi:role="line"
         id="tspan4977"
         x="144.86261"
         y="-158.48358"
         style="font-size:10.39999962px">Q<tspan
   style="font-size:8px"
   id="tspan3150"
   dy="2.3612289"
   dx="0.78707635">3</tspan></tspan></text>
<text
       xml:space="preserve"
       style="font-size:11.19999981px;font-style:normal;font-variant:normal;font-weight:normal;font-stretch:normal;line-height:125%;letter-spacing:0px;word-spacing:0px;fill:#000000;fill-opacity:1;stroke:none;font-family:Nimbus Roman No9 L;-inkscape-font-specification:Nimbus Roman No9 L"
       x="74.647163"
       y="-26.75993"
       id="text4979"
       sodipodi:linespacing="125%"
       transform="scale(1,-1)"><tspan
         sodipodi:role="line"
         id="tspan4981"
         x="74.647163"
         y="-26.75993">0</tspan></text>
<text
       transform="scale(1,-1)"
       sodipodi:linespacing="125%"
       id="text4989"
       y="-24.17778"
       x="266.28787"
       style="font-size:11.19999981px;font-style:normal;font-variant:normal;font-weight:normal;font-stretch:normal;line-height:125%;letter-spacing:0px;word-spacing:0px;fill:#000000;fill-opacity:1;stroke:none;font-family:Nimbus Roman No9 L;-inkscape-font-specification:Nimbus Roman No9 L"
       xml:space="preserve"><tspan
         dx="0 0 0"
         dy="0 0 0"
         y="-24.17778"
         x="266.28787"
         id="tspan4991"
         sodipodi:role="line">V<tspan
   dx="-0.27827349"
   dy="2.5044608"
   id="tspan4993"
   style="font-size:8.80000019px">CE(max)</tspan></tspan><tspan
         dx="0 0 0 1.5741526 0 0 0 0 0 0 0 0 0"
         dy="0 0 0 0 0 0 0 0 0 0 0 0 0"
         y="-10.17778"
         x="266.28787"
         sodipodi:role="line"
         id="tspan3180">  =V<tspan
   style="font-size:8px"
   id="tspan3182"
   dy="2.3612289"
   dx="1.9689546e-09">CC<tspan
   style="font-size:11.19999981px"
   id="tspan3184"
   dy="-1.9676907"
   dx="1.9676907">=12V</tspan></tspan></tspan></text>
<g
       id="g5385"
       transform="matrix(0.96213502,0.27257331,-0.27257331,0.96213502,53.967772,-79.765341)"><text
         xml:space="preserve"
         style="font-size:11.19999981px;font-style:normal;font-variant:normal;font-weight:normal;font-stretch:normal;line-height:125%;letter-spacing:0px;word-spacing:0px;fill:#000000;fill-opacity:1;stroke:none;font-family:Nimbus Roman No9 L;-inkscape-font-specification:Nimbus Roman No9 L"
         x="338.30405"
         y="-234.99466"
         id="text5106"
         sodipodi:linespacing="125%"
         transform="scale(1,-1)"><tspan
           sodipodi:role="line"
           id="tspan5108"
           x="338.30405"
           y="-234.99466"
           dx="0 0 -0.13913675 0 0 0 0 0 0.83482045"
           dy="0 0 -2.6435976">I<tspan
   style="font-size:8.80000019px"
   id="tspan5110"
   dy="2.6435976"
   dx="0.13913675">B</tspan>=125  A</tspan></text>
<g
         transform="matrix(1,0,0,-1,149.14967,372.01139)"
         ns0:text="$\\mu$"
         ns0:preamble="/home/sriranga/Desktop/Prism-Basic-Electronics/package.tex"
         id="g5168"><defs
           id="defs5170"><g
             id="g5172"><symbol
               style="overflow:visible"
               overflow="visible"
               id="textext-aca91b7a-0"><path
                 inkscape:connector-curvature="0"
                 style="stroke:none"
                 d=""
                 id="path5175" /></symbol><symbol
               style="overflow:visible"
               overflow="visible"
               id="textext-aca91b7a-1"><path
                 inkscape:connector-curvature="0"
                 style="stroke:none"
                 d="m 4.9375,-0.765625 c 0,-0.0625 -0.015625,-0.09375 -0.046875,-0.09375 C 4.75,-0.859375 4.75,-0.265625 4.21875,-0.265625 4.0625,-0.265625 4,-0.40625 4,-0.59375 c 0,-0.25 0.109375,-0.625 0.203125,-1.03125 L 4.90625,-4.390625 4.03125,-4.25 l -0.796875,3 C 3.21875,-1.203125 2.625,-0.375 2.03125,-0.375 c -0.578125,0 -0.75,-0.515625 -0.75,-0.90625 0,-0.109375 0.015625,-0.21875 0.03125,-0.3125 l 0.71875,-2.796875 -0.75,0.125 L 0.203125,0 c -0.21875,0.8125 -0.609375,1.890625 -0.6875,2.0625 l 0.875,0 0.640625,-2.484375 c 0,0 0.046875,0.53125 0.765625,0.53125 0.796875,0 1.28125,-0.78125 1.390625,-0.90625 -0.015625,0.078125 -0.03125,0.15625 -0.03125,0.21875 0,0.65625 0.609375,0.6875 0.78125,0.6875 l 0.03125,0 c 0.6875,0 0.96875,-0.640625 0.96875,-0.875 z m 0,0"
                 id="path5178" /></symbol></g></defs><g
           id="textext-aca91b7a-2"><g
             style="fill:#000000;fill-opacity:1"
             id="g5181"><use
               height="354.33069"
               width="425.19684"
               xlink:href="#textext-aca91b7a-1"
               x="223.43201"
               y="134.765"
               id="use5183" /></g></g></g></g><g
       id="g5400"
       transform="translate(75.237501,6.2966103)"><g
         id="g5475"
         transform="matrix(0.97273036,0.23193888,-0.23193888,0.97273036,-38.738482,-87.248257)"><text
           xml:space="preserve"
           style="font-size:11.19999981px;font-style:normal;font-variant:normal;font-weight:normal;font-stretch:normal;line-height:125%;letter-spacing:0px;word-spacing:0px;fill:#000000;fill-opacity:1;stroke:none;font-family:Nimbus Roman No9 L;-inkscape-font-specification:Nimbus Roman No9 L"
           x="343.84436"
           y="-206.69699"
           id="text5249"
           sodipodi:linespacing="125%"
           transform="scale(1,-1)"><tspan
             sodipodi:role="line"
             id="tspan5251"
             x="343.84436"
             y="-206.69699"
             dx="-5.8437443 0 -0.13913675 0 0 0 0 0 0.83482045"
             dy="0 0 -2.6435976">I<tspan
   style="font-size:8.80000019px"
   id="tspan5253"
   dy="2.6435976"
   dx="0.13913675">B</tspan>=100  A</tspan></text>
<g
           transform="matrix(1,0,0,-1,149.14967,343.21139)"
           ns0:text="$\\mu$"
           ns0:preamble="/home/sriranga/Desktop/Prism-Basic-Electronics/package.tex"
           id="g5255"><defs
             id="defs5257"><g
               id="g5259"><symbol
                 style="overflow:visible"
                 overflow="visible"
                 id="symbol5261"><path
                   inkscape:connector-curvature="0"
                   style="stroke:none"
                   d=""
                   id="path5263" /></symbol><symbol
                 style="overflow:visible"
                 overflow="visible"
                 id="symbol5265"><path
                   inkscape:connector-curvature="0"
                   style="stroke:none"
                   d="m 4.9375,-0.765625 c 0,-0.0625 -0.015625,-0.09375 -0.046875,-0.09375 C 4.75,-0.859375 4.75,-0.265625 4.21875,-0.265625 4.0625,-0.265625 4,-0.40625 4,-0.59375 c 0,-0.25 0.109375,-0.625 0.203125,-1.03125 L 4.90625,-4.390625 4.03125,-4.25 l -0.796875,3 C 3.21875,-1.203125 2.625,-0.375 2.03125,-0.375 c -0.578125,0 -0.75,-0.515625 -0.75,-0.90625 0,-0.109375 0.015625,-0.21875 0.03125,-0.3125 l 0.71875,-2.796875 -0.75,0.125 L 0.203125,0 c -0.21875,0.8125 -0.609375,1.890625 -0.6875,2.0625 l 0.875,0 0.640625,-2.484375 c 0,0 0.046875,0.53125 0.765625,0.53125 0.796875,0 1.28125,-0.78125 1.390625,-0.90625 -0.015625,0.078125 -0.03125,0.15625 -0.03125,0.21875 0,0.65625 0.609375,0.6875 0.78125,0.6875 l 0.03125,0 c 0.6875,0 0.96875,-0.640625 0.96875,-0.875 z m 0,0"
                   id="path5267" /></symbol></g></defs><g
             id="g5269"><g
               style="fill:#000000;fill-opacity:1"
               id="g5271"><use
                 height="354.33069"
                 width="425.19684"
                 xlink:href="#textext-aca91b7a-1"
                 x="223.43201"
                 y="134.765"
                 id="use5273" /></g></g></g></g></g><g
       id="g5430"
       transform="matrix(0.99760115,0.06922389,-0.06922389,0.99760115,-12.212628,-44.159963)"><text
         transform="scale(1,-1)"
         sodipodi:linespacing="125%"
         id="text5301"
         y="-163.49683"
         x="343.84436"
         style="font-size:11.19999981px;font-style:normal;font-variant:normal;font-weight:normal;font-stretch:normal;line-height:125%;letter-spacing:0px;word-spacing:0px;fill:#000000;fill-opacity:1;stroke:none;font-family:Nimbus Roman No9 L;-inkscape-font-specification:Nimbus Roman No9 L"
         xml:space="preserve"><tspan
           dy="0 0 -2.6435976"
           dx="0 0 -0.13913675 0 0 0 0 0.83482045"
           y="-163.49683"
           x="343.84436"
           id="tspan5303"
           sodipodi:role="line">I<tspan
   dx="0.13913675"
   dy="2.6435976"
   id="tspan5305"
   style="font-size:8.80000019px">B</tspan>=75  A</tspan></text>
<g
         id="g5307"
         ns0:preamble="/home/sriranga/Desktop/Prism-Basic-Electronics/package.tex"
         ns0:text="$\\mu$"
         transform="matrix(1,0,0,-1,149.14967,300.01139)"><defs
           id="defs5309"><g
             id="g5311"><symbol
               id="symbol5313"
               overflow="visible"
               style="overflow:visible"><path
                 id="path5315"
                 d=""
                 style="stroke:none"
                 inkscape:connector-curvature="0" /></symbol><symbol
               id="symbol5317"
               overflow="visible"
               style="overflow:visible"><path
                 id="path5319"
                 d="m 4.9375,-0.765625 c 0,-0.0625 -0.015625,-0.09375 -0.046875,-0.09375 C 4.75,-0.859375 4.75,-0.265625 4.21875,-0.265625 4.0625,-0.265625 4,-0.40625 4,-0.59375 c 0,-0.25 0.109375,-0.625 0.203125,-1.03125 L 4.90625,-4.390625 4.03125,-4.25 l -0.796875,3 C 3.21875,-1.203125 2.625,-0.375 2.03125,-0.375 c -0.578125,0 -0.75,-0.515625 -0.75,-0.90625 0,-0.109375 0.015625,-0.21875 0.03125,-0.3125 l 0.71875,-2.796875 -0.75,0.125 L 0.203125,0 c -0.21875,0.8125 -0.609375,1.890625 -0.6875,2.0625 l 0.875,0 0.640625,-2.484375 c 0,0 0.046875,0.53125 0.765625,0.53125 0.796875,0 1.28125,-0.78125 1.390625,-0.90625 -0.015625,0.078125 -0.03125,0.15625 -0.03125,0.21875 0,0.65625 0.609375,0.6875 0.78125,0.6875 l 0.03125,0 c 0.6875,0 0.96875,-0.640625 0.96875,-0.875 z m 0,0"
                 style="stroke:none"
                 inkscape:connector-curvature="0" /></symbol></g></defs><g
           id="g5321"><g
             id="g5323"
             style="fill:#000000;fill-opacity:1"><use
               id="use5325"
               y="134.765"
               x="223.43201"
               xlink:href="#textext-aca91b7a-1"
               width="425.19684"
               height="354.33069" /></g></g></g></g><g
       id="g5445"
       transform="matrix(0.99922865,0.03926968,-0.03926968,0.99922865,-16.923799,-56.655901)"><text
         xml:space="preserve"
         style="font-size:11.19999981px;font-style:normal;font-variant:normal;font-weight:normal;font-stretch:normal;line-height:125%;letter-spacing:0px;word-spacing:0px;fill:#000000;fill-opacity:1;stroke:none;font-family:Nimbus Roman No9 L;-inkscape-font-specification:Nimbus Roman No9 L"
         x="343.84436"
         y="-144.29675"
         id="text5327"
         sodipodi:linespacing="125%"
         transform="scale(1,-1)"><tspan
           sodipodi:role="line"
           id="tspan5329"
           x="343.84436"
           y="-144.29675"
           dx="0 0 -0.13913675 0 0 0 0 0.83482045"
           dy="0 0 -2.6435976">I<tspan
   style="font-size:8.80000019px"
   id="tspan5331"
   dy="2.6435976"
   dx="0.13913675">B</tspan>=50  A</tspan></text>
<g
         transform="matrix(1,0,0,-1,149.14967,280.81139)"
         ns0:text="$\\mu$"
         ns0:preamble="/home/sriranga/Desktop/Prism-Basic-Electronics/package.tex"
         id="g5333"><defs
           id="defs5335"><g
             id="g5337"><symbol
               style="overflow:visible"
               overflow="visible"
               id="symbol5339"><path
                 inkscape:connector-curvature="0"
                 style="stroke:none"
                 d=""
                 id="path5341" /></symbol><symbol
               style="overflow:visible"
               overflow="visible"
               id="symbol5343"><path
                 inkscape:connector-curvature="0"
                 style="stroke:none"
                 d="m 4.9375,-0.765625 c 0,-0.0625 -0.015625,-0.09375 -0.046875,-0.09375 C 4.75,-0.859375 4.75,-0.265625 4.21875,-0.265625 4.0625,-0.265625 4,-0.40625 4,-0.59375 c 0,-0.25 0.109375,-0.625 0.203125,-1.03125 L 4.90625,-4.390625 4.03125,-4.25 l -0.796875,3 C 3.21875,-1.203125 2.625,-0.375 2.03125,-0.375 c -0.578125,0 -0.75,-0.515625 -0.75,-0.90625 0,-0.109375 0.015625,-0.21875 0.03125,-0.3125 l 0.71875,-2.796875 -0.75,0.125 L 0.203125,0 c -0.21875,0.8125 -0.609375,1.890625 -0.6875,2.0625 l 0.875,0 0.640625,-2.484375 c 0,0 0.046875,0.53125 0.765625,0.53125 0.796875,0 1.28125,-0.78125 1.390625,-0.90625 -0.015625,0.078125 -0.03125,0.15625 -0.03125,0.21875 0,0.65625 0.609375,0.6875 0.78125,0.6875 l 0.03125,0 c 0.6875,0 0.96875,-0.640625 0.96875,-0.875 z m 0,0"
                 id="path5345" /></symbol></g></defs><g
           id="g5347"><g
             style="fill:#000000;fill-opacity:1"
             id="g5349"><use
               height="354.33069"
               width="425.19684"
               xlink:href="#textext-aca91b7a-1"
               x="223.43201"
               y="134.765"
               id="use5351" /></g></g></g></g><g
       id="g5460"
       transform="matrix(0.99988882,-0.01491167,0.01491167,0.99988882,-37.258316,-57.305383)"
       inkscape:transform-center-x="-6.6411182"
       inkscape:transform-center-y="3.8716412"><text
         transform="scale(1,-1)"
         sodipodi:linespacing="125%"
         id="text5353"
         y="-118.69669"
         x="343.84436"
         style="font-size:11.19999981px;font-style:normal;font-variant:normal;font-weight:normal;font-stretch:normal;line-height:125%;letter-spacing:0px;word-spacing:0px;fill:#000000;fill-opacity:1;stroke:none;font-family:Nimbus Roman No9 L;-inkscape-font-specification:Nimbus Roman No9 L"
         xml:space="preserve"><tspan
           dy="0 0 -2.6435976"
           dx="5.0089235 0 -0.13913675 0 0 0 0.83482045"
           y="-118.69669"
           x="343.84436"
           id="tspan5355"
           sodipodi:role="line">I<tspan
   dx="0.41741022"
   dy="2.6435976"
   id="tspan5357"
   style="font-size:8.80000019px">B</tspan>=0  A</tspan></text>
<g
         id="g5359"
         ns0:preamble="/home/sriranga/Desktop/Prism-Basic-Electronics/package.tex"
         ns0:text="$\\mu$"
         transform="matrix(1,0,0,-1,149.14967,255.21139)"><defs
           id="defs5361"><g
             id="g5363"><symbol
               id="symbol5365"
               overflow="visible"
               style="overflow:visible"><path
                 id="path5367"
                 d=""
                 style="stroke:none"
                 inkscape:connector-curvature="0" /></symbol><symbol
               id="symbol5369"
               overflow="visible"
               style="overflow:visible"><path
                 id="path5371"
                 d="m 4.9375,-0.765625 c 0,-0.0625 -0.015625,-0.09375 -0.046875,-0.09375 C 4.75,-0.859375 4.75,-0.265625 4.21875,-0.265625 4.0625,-0.265625 4,-0.40625 4,-0.59375 c 0,-0.25 0.109375,-0.625 0.203125,-1.03125 L 4.90625,-4.390625 4.03125,-4.25 l -0.796875,3 C 3.21875,-1.203125 2.625,-0.375 2.03125,-0.375 c -0.578125,0 -0.75,-0.515625 -0.75,-0.90625 0,-0.109375 0.015625,-0.21875 0.03125,-0.3125 l 0.71875,-2.796875 -0.75,0.125 L 0.203125,0 c -0.21875,0.8125 -0.609375,1.890625 -0.6875,2.0625 l 0.875,0 0.640625,-2.484375 c 0,0 0.046875,0.53125 0.765625,0.53125 0.796875,0 1.28125,-0.78125 1.390625,-0.90625 -0.015625,0.078125 -0.03125,0.15625 -0.03125,0.21875 0,0.65625 0.609375,0.6875 0.78125,0.6875 l 0.03125,0 c 0.6875,0 0.96875,-0.640625 0.96875,-0.875 z m 0,0"
                 style="stroke:none"
                 inkscape:connector-curvature="0" /></symbol></g></defs><g
           id="g5373"><g
             id="g5375"
             style="fill:#000000;fill-opacity:1"><use
               id="use5377"
               y="134.765"
               x="223.43201"
               xlink:href="#textext-aca91b7a-1"
               width="425.19684"
               height="354.33069" /></g></g></g></g><path
       sodipodi:nodetypes="ccc"
       inkscape:connector-curvature="0"
       id="path3138"
       d="m 82.768495,123.54563 94.665645,0 c 0,0 -0.22644,-40.446566 0.13529,-86.299598"
       style="fill:none;stroke:#000000;stroke-width:0.9668774;stroke-linecap:butt;stroke-linejoin:miter;stroke-miterlimit:4;stroke-opacity:1;stroke-dasharray:3.86750952, 3.86750952;stroke-dashoffset:0" /><path
       style="fill:none;stroke:#000000;stroke-width:0.94308949;stroke-linecap:butt;stroke-linejoin:miter;stroke-miterlimit:4;stroke-opacity:1;stroke-dasharray:3.7723581, 3.7723581;stroke-dashoffset:0"
       d="m 82.756602,149.9008 60.809948,0 c 0,0 -0.0109,-84.599022 0.18886,-113.315907"
       id="path3140"
       inkscape:connector-curvature="0"
       sodipodi:nodetypes="ccc" /><path
       style="fill:none;stroke:#000000;stroke-width:0.80000001px;stroke-linecap:butt;stroke-linejoin:miter;stroke-opacity:1"
       d="M 82.553814,195.14991 290.06778,36.987826"
       id="path3142"
       inkscape:connector-curvature="0"
       sodipodi:nodetypes="cc" /><path
       sodipodi:type="arc"
       style="fill:#000000;stroke:#000000;stroke-width:1.25;stroke-miterlimit:4;stroke-opacity:1;stroke-dasharray:none;stroke-dashoffset:0"
       id="path3144"
       sodipodi:cx="226.09721"
       sodipodi:cy="206.49789"
       sodipodi:rx="3.8262606"
       sodipodi:ry="3.8262606"
       d="m 229.92347,206.49789 c 0,2.11319 -1.71307,3.82626 -3.82626,3.82626 -2.11318,0 -3.82626,-1.71307 -3.82626,-3.82626 0,-2.11318 1.71308,-3.82626 3.82626,-3.82626 2.11319,0 3.82626,1.71308 3.82626,3.82626 z"
       transform="matrix(0.8,0,0,-0.8,36.104171,258.14101)" /><path
       transform="matrix(0.8,0,0,-0.8,-3.826189,289.09755)"
       d="m 229.92347,206.49789 c 0,2.11319 -1.71307,3.82626 -3.82626,3.82626 -2.11318,0 -3.82626,-1.71307 -3.82626,-3.82626 0,-2.11318 1.71308,-3.82626 3.82626,-3.82626 2.11319,0 3.82626,1.71308 3.82626,3.82626 z"
       sodipodi:ry="3.8262606"
       sodipodi:rx="3.8262606"
       sodipodi:cy="206.49789"
       sodipodi:cx="226.09721"
       id="path3146"
       style="fill:#000000;stroke:#000000;stroke-width:1.25;stroke-miterlimit:4;stroke-opacity:1;stroke-dasharray:none;stroke-dashoffset:0"
       sodipodi:type="arc" /><path
       sodipodi:type="arc"
       style="fill:#000000;stroke:#000000;stroke-width:1.25;stroke-miterlimit:4;stroke-opacity:1;stroke-dasharray:none;stroke-dashoffset:0"
       id="path3148"
       sodipodi:cx="226.09721"
       sodipodi:cy="206.49789"
       sodipodi:rx="3.8262606"
       sodipodi:ry="3.8262606"
       d="m 229.92347,206.49789 a 3.8262606,3.8262606 0 1 1 -7.65252,0 3.8262606,3.8262606 0 1 1 7.65252,0 z"
       transform="matrix(0.8,0,0,-0.8,-37.704462,315.18447)" /><text
       transform="scale(1,-1)"
       sodipodi:linespacing="125%"
       id="text3152"
       y="-130.4447"
       x="179.61752"
       style="font-size:11.19999981px;font-style:normal;font-variant:normal;font-weight:normal;font-stretch:normal;line-height:125%;letter-spacing:0px;word-spacing:0px;fill:#000000;fill-opacity:1;stroke:none;font-family:Nimbus Roman No9 L;-inkscape-font-specification:Nimbus Roman No9 L"
       xml:space="preserve"><tspan
         style="font-size:10.39999962px"
         y="-130.4447"
         x="179.61752"
         id="tspan3154"
         sodipodi:role="line">Q<tspan
   style="font-size:8px"
   id="tspan3158"
   dy="2.3612289"
   dx="0.78707629">2</tspan></tspan></text>
<text
       xml:space="preserve"
       style="font-size:11.19999981px;font-style:normal;font-variant:normal;font-weight:normal;font-stretch:normal;line-height:125%;letter-spacing:0px;word-spacing:0px;fill:#000000;fill-opacity:1;stroke:none;font-family:Nimbus Roman No9 L;-inkscape-font-specification:Nimbus Roman No9 L"
       x="218.01767"
       y="-100.04469"
       id="text3160"
       sodipodi:linespacing="125%"
       transform="scale(1,-1)"><tspan
         sodipodi:role="line"
         id="tspan3162"
         x="218.01767"
         y="-100.04469"
         style="font-size:10.39999962px">Q<tspan
   style="font-size:8px"
   id="tspan3166"
   dy="2.7547672"
   dx="1.9689546e-09">1</tspan></tspan></text>
<text
       xml:space="preserve"
       style="font-size:10.39999962px;font-style:normal;font-variant:normal;font-weight:normal;font-stretch:normal;line-height:125%;letter-spacing:0px;word-spacing:0px;fill:#000000;fill-opacity:1;stroke:none;font-family:Nimbus Roman No9 L;-inkscape-font-specification:Nimbus Roman No9 L"
       x="140.85713"
       y="-24.398708"
       id="text3168"
       sodipodi:linespacing="125%"
       transform="scale(1,-1)"><tspan
         sodipodi:role="line"
         id="tspan3170"
         x="140.85713"
         y="-24.398708">2</tspan></text>
<text
       xml:space="preserve"
       style="font-size:10.39999962px;font-style:normal;font-variant:normal;font-weight:normal;font-stretch:normal;line-height:125%;letter-spacing:0px;word-spacing:0px;fill:#000000;fill-opacity:1;stroke:none;font-family:Nimbus Roman No9 L;-inkscape-font-specification:Nimbus Roman No9 L"
       x="171.43794"
       y="-23.611616"
       id="text3172"
       sodipodi:linespacing="125%"
       transform="scale(1,-1)"><tspan
         sodipodi:role="line"
         id="tspan3174"
         x="171.43794"
         y="-23.611616">4.5</tspan></text>
<text
       xml:space="preserve"
       style="font-size:10.39999962px;font-style:normal;font-variant:normal;font-weight:normal;font-stretch:normal;line-height:125%;letter-spacing:0px;word-spacing:0px;fill:#000000;fill-opacity:1;stroke:none;font-family:Nimbus Roman No9 L;-inkscape-font-specification:Nimbus Roman No9 L"
       x="215.21587"
       y="-24.398714"
       id="text3176"
       sodipodi:linespacing="125%"
       transform="scale(1,-1)"><tspan
         sodipodi:role="line"
         id="tspan3178"
         x="215.21587"
         y="-24.398714">7</tspan></text>
<text
       transform="scale(1,-1)"
       sodipodi:linespacing="125%"
       id="text3186"
       y="-120.07302"
       x="65.810654"
       style="font-size:11.19999981px;font-style:normal;font-variant:normal;font-weight:normal;font-stretch:normal;line-height:125%;letter-spacing:0px;word-spacing:0px;fill:#000000;fill-opacity:1;stroke:none;font-family:Nimbus Roman No9 L;-inkscape-font-specification:Nimbus Roman No9 L"
       xml:space="preserve"><tspan
         style="font-size:9.60000038px"
         y="-120.07302"
         x="65.810654"
         id="tspan3188"
         sodipodi:role="line">7.5</tspan></text>
<text
       xml:space="preserve"
       style="font-size:11.19999981px;font-style:normal;font-variant:normal;font-weight:normal;font-stretch:normal;line-height:125%;letter-spacing:0px;word-spacing:0px;fill:#000000;fill-opacity:1;stroke:none;font-family:Nimbus Roman No9 L;-inkscape-font-specification:Nimbus Roman No9 L"
       x="65.810654"
       y="-148.10791"
       id="text3190"
       sodipodi:linespacing="125%"
       transform="scale(1,-1)"><tspan
         sodipodi:role="line"
         id="tspan3192"
         x="65.810654"
         y="-148.10791"
         style="font-size:9.60000038px"> 10</tspan></text>
<path
       style="fill:none;stroke:#000000;stroke-width:0.80000001px;stroke-linecap:butt;stroke-linejoin:miter;stroke-opacity:1;marker-end:url(#Arrow1Mend)"
       d="m 236.03369,81.068194 5.90307,1.57416 -2.95154,-2.754768 12.78999,3.345064"
       id="path3198"
       inkscape:connector-curvature="0"
       sodipodi:nodetypes="cccc" /><text
       xml:space="preserve"
       style="font-size:10.39999962px;font-style:normal;font-variant:normal;font-weight:normal;font-stretch:normal;line-height:125%;letter-spacing:0px;word-spacing:0px;fill:#000000;fill-opacity:1;stroke:none;font-family:Nimbus Roman No9 L;-inkscape-font-specification:Nimbus Roman No9 L"
       x="255.51399"
       y="-80.47789"
       id="text4156"
       sodipodi:linespacing="125%"
       transform="scale(1,-1)"><tspan
         sodipodi:role="line"
         id="tspan4158"
         x="255.51399"
         y="-80.47789">dc load line</tspan></text>
<path
       style="fill:none;stroke:#000000;stroke-width:0.80000001px;stroke-linecap:butt;stroke-linejoin:miter;stroke-opacity:1;marker-end:url(#Arrow1Mend)"
       d="m 198.20005,70.12426 0,-11.409216"
       id="path4160"
       inkscape:connector-curvature="0"
       sodipodi:nodetypes="cc" /><path
       sodipodi:nodetypes="cc"
       inkscape:connector-curvature="0"
       id="path4344"
       d="m 198.75659,22.845406 0,11.409216"
       style="fill:none;stroke:#000000;stroke-width:0.80000001px;stroke-linecap:butt;stroke-linejoin:miter;stroke-opacity:1;marker-end:url(#Arrow1Mend)" /><text
       xml:space="preserve"
       style="font-size:10.39999962px;font-style:normal;font-variant:normal;font-weight:normal;font-stretch:normal;line-height:125%;letter-spacing:0px;word-spacing:0px;fill:#000000;fill-opacity:1;stroke:none;font-family:Nimbus Roman No9 L;-inkscape-font-specification:Nimbus Roman No9 L"
       x="191.24326"
       y="-44.244831"
       id="text4346"
       sodipodi:linespacing="125%"
       transform="scale(1,-1)"><tspan
         sodipodi:role="line"
         id="tspan4348"
         x="191.24326"
         y="-44.244831">I<tspan
   style="font-size:8px"
   id="tspan4350"
   dy="1.9479145"
   dx="0.55654699">CO</tspan></tspan></text>
<text
       xml:space="preserve"
       style="font-size:10.39999962px;font-style:normal;font-variant:normal;font-weight:normal;font-stretch:normal;line-height:125%;letter-spacing:0px;word-spacing:0px;fill:#000000;fill-opacity:1;stroke:none;font-family:Nimbus Roman No9 L;-inkscape-font-specification:Nimbus Roman No9 L"
       x="355.97958"
       y="-33.392162"
       id="text4352"
       sodipodi:linespacing="125%"
       transform="scale(1,-1)"><tspan
         sodipodi:role="line"
         id="tspan4354"
         x="355.97958"
         y="-33.392162">V<tspan
   style="font-size:8px"
   id="tspan4356"
   dy="2.7827349"
   dx="0.55654699">CE</tspan></tspan></text>
<g
       id="g4907"
       transform="matrix(1.0539272,0,0,-1.0539272,-233.71697,334.06507)"
       ns0:preamble="/home/sriranga/Desktop/Prism-Basic-Electronics/package.tex"
       ns0:text="$\\text{I}_{\\text{C(max)}}=\\frac{\\text{V}_{\\text{CC}}}{\\text{R}_{\\text{C}}}=12$"><defs
         id="defs4909"><g
           id="g4911"><symbol
             id="textext-c369c1c1-0"
             overflow="visible"
             style="overflow:visible"><path
               id="path4914"
               d=""
               style="stroke:none"
               inkscape:connector-curvature="0" /></symbol><symbol
             id="textext-c369c1c1-1"
             overflow="visible"
             style="overflow:visible"><path
               id="path4917"
               d="m 1.140625,-1.09375 c 0,0.75 -0.125,0.875 -0.96875,0.90625 l 0,0.1875 2.96875,0 0,-0.1875 C 2.328125,-0.21875 2.15625,-0.359375 2.15625,-1.09375 l 0,-4.421875 c 0,-0.71875 0.140625,-0.859375 0.984375,-0.890625 l 0,-0.1875 -2.96875,0 0,0.1875 c 0.859375,0.046875 0.96875,0.15625 0.96875,0.890625 z m 0,0"
               style="stroke:none"
               inkscape:connector-curvature="0" /></symbol><symbol
             id="textext-c369c1c1-2"
             overflow="visible"
             style="overflow:visible"><path
               id="path4920"
               d="m 2.90625,-6.734375 -1.796875,0.90625 0,0.140625 C 1.21875,-5.734375 1.328125,-5.78125 1.375,-5.796875 1.5625,-5.875 1.71875,-5.90625 1.828125,-5.90625 2.03125,-5.90625 2.125,-5.765625 2.125,-5.4375 l 0,4.515625 c 0,0.328125 -0.078125,0.546875 -0.234375,0.640625 -0.15625,0.09375 -0.296875,0.125 -0.71875,0.125 l 0,0.15625 2.75,0 0,-0.15625 c -0.78125,0 -0.9375,-0.109375 -0.9375,-0.578125 l 0,-5.984375 z m 0,0"
               style="stroke:none"
               inkscape:connector-curvature="0" /></symbol><symbol
             id="textext-c369c1c1-3"
             overflow="visible"
             style="overflow:visible"><path
               id="path4923"
               d="m 4.734375,-1.359375 -0.125,-0.0625 C 4.234375,-0.84375 4.109375,-0.75 3.65625,-0.75 l -2.375,0 1.671875,-1.765625 c 0.890625,-0.921875 1.28125,-1.6875 1.28125,-2.453125 0,-1 -0.8125,-1.765625 -1.859375,-1.765625 -0.546875,0 -1.0625,0.21875 -1.421875,0.609375 C 0.625,-5.78125 0.484375,-5.46875 0.3125,-4.75 l 0.203125,0.046875 C 0.921875,-5.6875 1.28125,-6 1.96875,-6 2.796875,-6 3.375,-5.4375 3.375,-4.59375 3.375,-3.8125 2.90625,-2.890625 2.078125,-2 l -1.78125,1.875 0,0.125 3.890625,0 z m 0,0"
               style="stroke:none"
               inkscape:connector-curvature="0" /></symbol><symbol
             id="textext-c369c1c1-4"
             overflow="visible"
             style="overflow:visible"><path
               id="path4926"
               d=""
               style="stroke:none"
               inkscape:connector-curvature="0" /></symbol><symbol
             id="textext-c369c1c1-5"
             overflow="visible"
             style="overflow:visible"><path
               id="path4929"
               d="m 4.328125,-3.140625 -0.0625,-1.5625 -0.15625,0 C 4.0625,-4.5625 3.953125,-4.484375 3.8125,-4.484375 c -0.0625,0 -0.15625,-0.015625 -0.265625,-0.0625 -0.34375,-0.109375 -0.6875,-0.15625 -1.015625,-0.15625 -0.578125,0 -1.15625,0.203125 -1.578125,0.59375 -0.5,0.4375 -0.765625,1.078125 -0.765625,1.84375 0,0.65625 0.21875,1.25 0.578125,1.640625 0.40625,0.453125 1.046875,0.71875 1.75,0.71875 0.78125,0 1.46875,-0.3125 1.890625,-0.875 l -0.125,-0.125 c -0.515625,0.484375 -0.96875,0.703125 -1.546875,0.703125 -0.4375,0 -0.828125,-0.140625 -1.125,-0.40625 C 1.21875,-0.953125 1,-1.578125 1,-2.359375 c 0,-1.25 0.65625,-2.078125 1.65625,-2.078125 0.40625,0 0.765625,0.15625 1.046875,0.4375 0.21875,0.21875 0.328125,0.40625 0.453125,0.859375 z m 0,0"
               style="stroke:none"
               inkscape:connector-curvature="0" /></symbol><symbol
             id="textext-c369c1c1-6"
             overflow="visible"
             style="overflow:visible"><path
               id="path4932"
               d="M 2.0625,-4.703125 C 1.546875,-4.375 1.328125,-4.1875 1.078125,-3.875 c -0.5,0.609375 -0.75,1.296875 -0.75,2.125 0,0.875 0.265625,1.5625 0.875,2.265625 0.28125,0.34375 0.46875,0.5 0.828125,0.71875 L 2.125,1.125 C 1.5625,0.6875 1.359375,0.4375 1.171875,-0.078125 c -0.15625,-0.46875 -0.234375,-1 -0.234375,-1.703125 0,-0.734375 0.09375,-1.296875 0.28125,-1.734375 C 1.40625,-3.9375 1.609375,-4.1875 2.125,-4.59375 z m 0,0"
               style="stroke:none"
               inkscape:connector-curvature="0" /></symbol><symbol
             id="textext-c369c1c1-7"
             overflow="visible"
             style="overflow:visible"><path
               id="path4935"
               d="m 0.125,-2.78125 c 0.09375,-0.015625 0.15625,-0.015625 0.234375,-0.015625 0.171875,0 0.234375,0.109375 0.234375,0.4375 l 0,1.765625 c 0,0.375 -0.09375,0.484375 -0.484375,0.484375 l 0,0.109375 1.546875,0 0,-0.109375 C 1.296875,-0.125 1.1875,-0.1875 1.1875,-0.46875 l 0,-1.96875 c 0,-0.015625 0.046875,-0.078125 0.109375,-0.125 C 1.46875,-2.71875 1.765625,-2.84375 2,-2.84375 c 0.3125,0 0.46875,0.25 0.46875,0.734375 l 0,1.515625 C 2.46875,-0.203125 2.390625,-0.125 2,-0.109375 L 2,0 l 1.546875,0 0,-0.109375 c -0.390625,0 -0.5,-0.125 -0.5,-0.546875 l 0,-1.765625 c 0.21875,-0.296875 0.4375,-0.421875 0.765625,-0.421875 0.390625,0 0.515625,0.1875 0.515625,0.765625 l 0,1.46875 c 0,0.40625 -0.046875,0.453125 -0.453125,0.5 L 3.875,0 l 1.53125,0 0,-0.109375 L 5.21875,-0.125 c -0.203125,0 -0.296875,-0.140625 -0.296875,-0.40625 l 0,-1.4375 c 0,-0.8125 -0.28125,-1.234375 -0.8125,-1.234375 -0.40625,0 -0.75,0.171875 -1.140625,0.578125 -0.125,-0.390625 -0.359375,-0.578125 -0.734375,-0.578125 -0.296875,0 -0.5,0.09375 -1.078125,0.53125 l 0,-0.515625 -0.046875,-0.015625 C 0.75,-3.078125 0.515625,-3 0.125,-2.890625 z m 0,0"
               style="stroke:none"
               inkscape:connector-curvature="0" /></symbol><symbol
             id="textext-c369c1c1-8"
             overflow="visible"
             style="overflow:visible"><path
               id="path4938"
               d="m 3.078125,-0.453125 c -0.109375,0.09375 -0.203125,0.125 -0.296875,0.125 -0.171875,0 -0.21875,-0.09375 -0.21875,-0.40625 l 0,-1.359375 c 0,-0.359375 -0.03125,-0.5625 -0.140625,-0.734375 -0.15625,-0.25 -0.453125,-0.375 -0.859375,-0.375 -0.65625,0 -1.171875,0.34375 -1.171875,0.78125 0,0.15625 0.140625,0.296875 0.296875,0.296875 C 0.859375,-2.125 1,-2.265625 1,-2.421875 1,-2.453125 1,-2.484375 0.984375,-2.53125 0.96875,-2.59375 0.96875,-2.640625 0.96875,-2.703125 c 0,-0.1875 0.21875,-0.328125 0.5,-0.328125 C 1.8125,-3.03125 2,-2.84375 2,-2.453125 l 0,0.421875 c -1.078125,0.421875 -1.1875,0.484375 -1.484375,0.75 -0.15625,0.140625 -0.25,0.375 -0.25,0.609375 0,0.4375 0.296875,0.734375 0.71875,0.734375 0.3125,0 0.59375,-0.140625 1.015625,-0.5 0.046875,0.359375 0.171875,0.5 0.453125,0.5 0.234375,0 0.390625,-0.078125 0.625,-0.34375 z M 2,-0.859375 c 0,0.21875 -0.03125,0.28125 -0.1875,0.359375 -0.15625,0.109375 -0.359375,0.171875 -0.5,0.171875 -0.25,0 -0.4375,-0.25 -0.4375,-0.546875 l 0,-0.03125 C 0.875,-1.3125 1.15625,-1.5625 2,-1.875 z m 0,0"
               style="stroke:none"
               inkscape:connector-curvature="0" /></symbol><symbol
             id="textext-c369c1c1-9"
             overflow="visible"
             style="overflow:visible"><path
               id="path4941"
               d="m 1.9375,0 1.40625,0 0,-0.109375 c -0.21875,0 -0.359375,-0.109375 -0.578125,-0.40625 L 1.875,-1.890625 2.453125,-2.71875 c 0.125,-0.1875 0.34375,-0.3125 0.5625,-0.3125 l 0,-0.109375 -1.09375,0 0,0.109375 C 2.125,-3.015625 2.1875,-2.96875 2.1875,-2.875 c 0,0.078125 -0.078125,0.234375 -0.25,0.453125 -0.03125,0.03125 -0.125,0.15625 -0.203125,0.296875 L 1.625,-2.265625 C 1.4375,-2.546875 1.3125,-2.78125 1.3125,-2.875 c 0,-0.09375 0.09375,-0.15625 0.296875,-0.15625 l 0,-0.109375 -1.4375,0 0,0.109375 0.0625,0 c 0.203125,0 0.3125,0.09375 0.53125,0.421875 l 0.65625,1 -0.796875,1.15625 c -0.203125,0.28125 -0.28125,0.328125 -0.5,0.34375 L 0.125,0 l 1,0 0,-0.109375 c -0.1875,0 -0.28125,-0.03125 -0.28125,-0.125 0,-0.03125 0.0625,-0.140625 0.140625,-0.28125 l 0.5625,-0.859375 0.625,0.984375 c 0.03125,0.03125 0.046875,0.078125 0.046875,0.125 0,0.125 -0.046875,0.140625 -0.28125,0.15625 z m 0,0"
               style="stroke:none"
               inkscape:connector-curvature="0" /></symbol><symbol
             id="textext-c369c1c1-10"
             overflow="visible"
             style="overflow:visible"><path
               id="path4944"
               d="M 0.265625,1.234375 C 0.78125,0.90625 0.984375,0.71875 1.25,0.390625 1.734375,-0.203125 1.984375,-0.90625 1.984375,-1.71875 c 0,-0.890625 -0.25,-1.578125 -0.875,-2.28125 C 0.828125,-4.328125 0.640625,-4.484375 0.28125,-4.703125 L 0.203125,-4.59375 c 0.5625,0.4375 0.75,0.671875 0.9375,1.203125 0.171875,0.46875 0.25,1 0.25,1.6875 0,0.734375 -0.09375,1.3125 -0.28125,1.734375 -0.203125,0.4375 -0.40625,0.6875 -0.90625,1.09375 z m 0,0"
               style="stroke:none"
               inkscape:connector-curvature="0" /></symbol><symbol
             id="textext-c369c1c1-11"
             overflow="visible"
             style="overflow:visible"><path
               id="path4947"
               d="m 4.859375,-4.609375 -1.4375,0 0,0.125 C 3.8125,-4.453125 3.9375,-4.390625 3.9375,-4.1875 c 0,0.109375 -0.046875,0.296875 -0.125,0.515625 L 2.78125,-1.125 1.734375,-3.484375 C 1.5,-3.984375 1.4375,-4.140625 1.4375,-4.25 c 0,-0.140625 0.109375,-0.203125 0.328125,-0.21875 0.03125,0 0.109375,0 0.203125,-0.015625 l 0,-0.125 -1.859375,0 0,0.125 C 0.453125,-4.46875 0.546875,-4.375 0.84375,-3.75 l 1.71875,3.828125 0.109375,0 1.546875,-3.90625 c 0.234375,-0.5625 0.296875,-0.625 0.640625,-0.65625 z m 0,0"
               style="stroke:none"
               inkscape:connector-curvature="0" /></symbol><symbol
             id="textext-c369c1c1-12"
             overflow="visible"
             style="overflow:visible"><path
               id="path4950"
               d="M 4.59375,-0.125 C 4.328125,-0.15625 4.1875,-0.21875 3.984375,-0.453125 l -1.4375,-1.765625 c 0.46875,-0.09375 0.671875,-0.171875 0.90625,-0.359375 0.21875,-0.1875 0.359375,-0.484375 0.359375,-0.8125 0,-0.296875 -0.09375,-0.546875 -0.265625,-0.75 -0.265625,-0.296875 -0.84375,-0.46875 -1.5,-0.46875 l -1.921875,0 0,0.125 c 0.515625,0.0625 0.578125,0.140625 0.578125,0.625 l 0,3.015625 c 0,0.578125 -0.0625,0.671875 -0.578125,0.71875 l 0,0.125 1.921875,0 0,-0.125 c -0.53125,-0.046875 -0.625,-0.140625 -0.625,-0.640625 l 0,-1.359375 L 1.8125,-2.140625 3.46875,0 4.59375,0 z M 1.421875,-4.109375 c 0,-0.1875 0.078125,-0.25 0.359375,-0.25 0.859375,0 1.265625,0.296875 1.265625,0.953125 0,0.359375 -0.140625,0.640625 -0.390625,0.78125 -0.328125,0.171875 -0.5625,0.21875 -1.234375,0.234375 z m 0,0"
               style="stroke:none"
               inkscape:connector-curvature="0" /></symbol><symbol
             id="textext-c369c1c1-13"
             overflow="visible"
             style="overflow:visible"><path
               id="path4953"
               d=""
               style="stroke:none"
               inkscape:connector-curvature="0" /></symbol><symbol
             id="textext-c369c1c1-14"
             overflow="visible"
             style="overflow:visible"><path
               id="path4956"
               d="m 5.71875,-3.296875 0,-0.546875 -5.09375,0 0,0.546875 z m 0,2.03125 0,-0.5625 -5.09375,0 0,0.5625 z m 0,0"
               style="stroke:none"
               inkscape:connector-curvature="0" /></symbol><symbol
             id="textext-c369c1c1-15"
             overflow="visible"
             style="overflow:visible"><path
               id="path4959"
               d=""
               style="stroke:none"
               inkscape:connector-curvature="0" /></symbol><symbol
             id="textext-c369c1c1-16"
             overflow="visible"
             style="overflow:visible"><path
               id="path4962"
               d="m 3.09375,-2.25 -0.046875,-1.125 -0.109375,0 C 2.90625,-3.265625 2.828125,-3.203125 2.734375,-3.203125 2.6875,-3.203125 2.609375,-3.21875 2.53125,-3.25 2.296875,-3.328125 2.046875,-3.375 1.8125,-3.375 c -0.40625,0 -0.828125,0.15625 -1.140625,0.4375 -0.34375,0.3125 -0.53125,0.765625 -0.53125,1.3125 0,0.46875 0.15625,0.890625 0.40625,1.1875 0.296875,0.3125 0.75,0.5 1.25,0.5 0.5625,0 1.046875,-0.21875 1.359375,-0.625 L 3.0625,-0.65625 c -0.359375,0.359375 -0.6875,0.5 -1.109375,0.5 -0.3125,0 -0.59375,-0.09375 -0.8125,-0.28125 C 0.875,-0.6875 0.71875,-1.125 0.71875,-1.6875 c 0,-0.90625 0.46875,-1.484375 1.1875,-1.484375 0.28125,0 0.546875,0.109375 0.734375,0.3125 C 2.8125,-2.703125 2.875,-2.5625 2.96875,-2.25 z m 0,0"
               style="stroke:none"
               inkscape:connector-curvature="0" /></symbol></g></defs><g
         id="textext-c369c1c1-17"><g
           id="g4965"
           style="fill:#000000;fill-opacity:1"><use
             id="use4967"
             y="134.765"
             x="223.43201"
             xlink:href="#textext-c369c1c1-1"
             width="496.06299"
             height="354.33069" /></g><g
           id="g4969"
           style="fill:#000000;fill-opacity:1"><use
             id="use4971"
             y="136.259"
             x="226.75"
             xlink:href="#textext-c369c1c1-5"
             width="496.06299"
             height="354.33069" /><use
             id="use4973"
             y="136.259"
             x="231.40152"
             xlink:href="#textext-c369c1c1-6"
             width="496.06299"
             height="354.33069" /><use
             id="use4975"
             y="136.259"
             x="233.7238"
             xlink:href="#textext-c369c1c1-7"
             width="496.06299"
             height="354.33069" /><use
             id="use4977"
             y="136.259"
             x="239.14941"
             xlink:href="#textext-c369c1c1-8"
             width="496.06299"
             height="354.33069" /><use
             id="use4979"
             y="136.259"
             x="242.24579"
             xlink:href="#textext-c369c1c1-9"
             width="496.06299"
             height="354.33069" /><use
             id="use4981"
             y="136.259"
             x="245.73268"
             xlink:href="#textext-c369c1c1-10"
             width="496.06299"
             height="354.33069" /></g><g
           id="g4983"
           style="fill:#000000;fill-opacity:1"><use
             id="use4985"
             y="134.765"
             x="251.32001"
             xlink:href="#textext-c369c1c1-14"
             width="496.06299"
             height="354.33069" /></g><g
           id="g4987"
           style="fill:#000000;fill-opacity:1"><use
             id="use4989"
             y="130.254"
             x="261.61899"
             xlink:href="#textext-c369c1c1-11"
             width="496.06299"
             height="354.33069" /></g><g
           id="g4991"
           style="fill:#000000;fill-opacity:1"><use
             id="use4993"
             y="131.3"
             x="266.65399"
             xlink:href="#textext-c369c1c1-16"
             width="496.06299"
             height="354.33069" /><use
             id="use4995"
             y="131.3"
             x="269.97653"
             xlink:href="#textext-c369c1c1-16"
             width="496.06299"
             height="354.33069" /></g><path
           id="path4997"
           transform="matrix(1,0,0,-1,261.619,132.204)"
           d="m -0.0018125,8.75e-4 12.1796875,0"
           style="fill:none;stroke:#000000;stroke-width:0.55800003;stroke-linecap:butt;stroke-linejoin:miter;stroke-miterlimit:10;stroke-opacity:1"
           inkscape:connector-curvature="0" /><g
           id="g4999"
           style="fill:#000000;fill-opacity:1"><use
             id="use5001"
             y="138.202"
             x="263.47198"
             xlink:href="#textext-c369c1c1-12"
             width="496.06299"
             height="354.33069" /></g><g
           id="g5003"
           style="fill:#000000;fill-opacity:1"><use
             id="use5005"
             y="139.248"
             x="268.12399"
             xlink:href="#textext-c369c1c1-16"
             width="496.06299"
             height="354.33069" /></g><g
           id="g5007"
           style="fill:#000000;fill-opacity:1"><use
             id="use5009"
             y="134.765"
             x="277.76001"
             xlink:href="#textext-c369c1c1-14"
             width="496.06299"
             height="354.33069" /></g><g
           id="g5011"
           style="fill:#000000;fill-opacity:1"><use
             id="use5013"
             y="134.765"
             x="286.86401"
             xlink:href="#textext-c369c1c1-2"
             width="496.06299"
             height="354.33069" /><use
             id="use5015"
             y="134.765"
             x="291.84531"
             xlink:href="#textext-c369c1c1-3"
             width="496.06299"
             height="354.33069" /></g></g></g></g></svg>