<?xml version="1.0" encoding="UTF-8" standalone="no"?>
<!-- Created with Inkscape (http://www.inkscape.org/) -->

<svg
   xmlns:ns0="http://www.iki.fi/pav/software/textext/"
   xmlns:dc="http://purl.org/dc/elements/1.1/"
   xmlns:cc="http://creativecommons.org/ns#"
   xmlns:rdf="http://www.w3.org/1999/02/22-rdf-syntax-ns#"
   xmlns:svg="http://www.w3.org/2000/svg"
   xmlns="http://www.w3.org/2000/svg"
   xmlns:xlink="http://www.w3.org/1999/xlink"
   xmlns:sodipodi="http://sodipodi.sourceforge.net/DTD/sodipodi-0.dtd"
   xmlns:inkscape="http://www.inkscape.org/namespaces/inkscape"
   id="svg2"
   version="1.1"
   inkscape:version="0.48.4 r9939"
   width="354.33069"
   height="283.46457"
   xml:space="preserve"
   sodipodi:docname="fig3.12.eps"><sodipodi:namedview
     pagecolor="#ffffff"
     bordercolor="#666666"
     borderopacity="1"
     objecttolerance="10"
     gridtolerance="10"
     guidetolerance="10"
     inkscape:pageopacity="0"
     inkscape:pageshadow="2"
     inkscape:window-width="1024"
     inkscape:window-height="744"
     id="namedview4"
     showgrid="false"
     units="cm"
     inkscape:zoom="1.0924539"
     inkscape:cx="99.722718"
     inkscape:cy="153.91839"
     inkscape:window-x="0"
     inkscape:window-y="24"
     inkscape:window-maximized="1"
     inkscape:current-layer="g10" /><metadata
     id="metadata8"><rdf:RDF><cc:Work
         rdf:about=""><dc:format>image/svg+xml</dc:format><dc:type
           rdf:resource="http://purl.org/dc/dcmitype/StillImage" /><dc:title></dc:title></cc:Work></rdf:RDF></metadata><defs
     id="defs6"><marker
       inkscape:stockid="DotM"
       orient="auto"
       refY="0.0"
       refX="0.0"
       id="DotM"
       style="overflow:visible"><path
         id="path3904"
         d="M -2.5,-1.0 C -2.5,1.7600000 -4.7400000,4.0 -7.5,4.0 C -10.260000,4.0 -12.5,1.7600000 -12.5,-1.0 C -12.5,-3.7600000 -10.260000,-6.0 -7.5,-6.0 C -4.7400000,-6.0 -2.5,-3.7600000 -2.5,-1.0 z "
         style="fill-rule:evenodd;stroke:#000000;stroke-width:1.0pt"
         transform="scale(0.4) translate(7.4, 1)" /></marker><marker
       inkscape:stockid="Arrow1Mend"
       orient="auto"
       refY="0.0"
       refX="0.0"
       id="Arrow1Mend"
       style="overflow:visible;"><path
         id="path3806"
         d="M 0.0,0.0 L 5.0,-5.0 L -12.5,0.0 L 5.0,5.0 L 0.0,0.0 z "
         style="fill-rule:evenodd;stroke:#000000;stroke-width:1.0pt;"
         transform="scale(0.4) rotate(180) translate(10,0)" /></marker></defs><g
     id="g10"
     inkscape:groupmode="layer"
     inkscape:label="ink_ext_XXXXXX"
     transform="matrix(1.25,0,0,-1.25,0,283.46395)"><path
       sodipodi:nodetypes="cc"
       inkscape:connector-curvature="0"
       id="path4284"
       d="m 73.402609,105.30154 46.594131,0"
       style="fill:none;stroke:#000000;stroke-width:1.04999995;stroke-linecap:butt;stroke-linejoin:miter;stroke-miterlimit:4;stroke-opacity:1;stroke-dasharray:none;marker-end:none" /><path
       style="fill:none;stroke:#000000;stroke-width:1.0292722;stroke-linecap:butt;stroke-linejoin:miter;stroke-miterlimit:4;stroke-opacity:1;stroke-dasharray:none"
       d="m 73.580913,105.07367 -0.703507,36.0739 -8.266214,2.92986 13.894275,3.93699 -13.982215,4.02856 8.333521,2.28414 0,40.83973 66.502097,0 -0.17587,-19.77655 -8.8876,-3.48128 14.24909,-4.29322 -15.16586,-3.3749 9.82241,-3.1306 0.26381,-31.49906 -19.8349,-11.22463"
       id="path4472"
       inkscape:connector-curvature="0"
       sodipodi:nodetypes="ccccccccccccccc" /><path
       style="fill:none;stroke:#000000;stroke-width:1.04999995;stroke-linecap:butt;stroke-linejoin:miter;stroke-miterlimit:4;stroke-opacity:1;stroke-dasharray:none;marker-end:none"
       d="m 119.74289,82.122677 0,46.650633"
       id="path4474"
       inkscape:connector-curvature="0"
       sodipodi:nodetypes="cc" /><path
       style="fill:none;stroke:#000000;stroke-width:1.3125;stroke-linecap:butt;stroke-linejoin:miter;stroke-opacity:1;marker-end:url(#Arrow1Mend);stroke-miterlimit:4;stroke-dasharray:none"
       d="m 149.89191,165.38178 c 8.2027,4.73583 14.77848,9.94386 23.57644,15.02337"
       id="path4476"
       inkscape:connector-curvature="0"
       transform="matrix(0.8,0,0,-0.8,0,226.77116)"
       sodipodi:nodetypes="cc" /><path
       style="fill:none;stroke:#000000;stroke-width:1.05;stroke-linecap:butt;stroke-linejoin:miter;stroke-opacity:1;marker-end:url(#Arrow1Mend);stroke-miterlimit:4;stroke-dasharray:none"
       d="m 149.61274,113.48378 c -1.16151,7.06173 -6.12664,11.39874 -8.72954,14.13584"
       id="path4670"
       inkscape:connector-curvature="0"
       sodipodi:nodetypes="cc" /><path
       style="fill:none;stroke:#000000;stroke-width:1.05;stroke-linecap:butt;stroke-linejoin:miter;stroke-opacity:1;marker-end:url(#Arrow1Mend);stroke-miterlimit:4;stroke-dasharray:none"
       d="m 150.57714,100.32666 c -1.04269,-7.285982 -6.13866,-11.728908 -8.78778,-14.51461"
       id="path4858"
       inkscape:connector-curvature="0"
       sodipodi:nodetypes="cc" /><text
       xml:space="preserve"
       style="font-size:10.39999962px;font-style:normal;font-variant:normal;font-weight:normal;font-stretch:normal;line-height:125%;letter-spacing:0px;word-spacing:0px;fill:#000000;fill-opacity:1;stroke:none;font-family:Nimbus Roman No9 L;-inkscape-font-specification:Nimbus Roman No9 L"
       x="147.19157"
       y="-103.2533"
       id="text4860"
       sodipodi:linespacing="125%"
       transform="scale(1,-1)"><tspan
         sodipodi:role="line"
         id="tspan4862"
         x="147.19157"
         y="-103.2533">V<tspan
   style="font-size:8px"
   id="tspan4864"
   dy="2.2884259">CE</tspan></tspan></text>
<text
       xml:space="preserve"
       style="font-size:13px;font-style:normal;font-variant:normal;font-weight:normal;font-stretch:normal;line-height:125%;letter-spacing:0px;word-spacing:0px;fill:#000000;fill-opacity:1;stroke:none;font-family:Nimbus Roman No9 L;-inkscape-font-specification:Nimbus Roman No9 L"
       x="187.53651"
       y="127.73717"
       id="text4866"
       sodipodi:linespacing="125%"
       transform="matrix(0.8,0,0,-0.8,0,226.77116)"><tspan
         sodipodi:role="line"
         id="tspan4868"
         x="187.53651"
         y="127.73717" /><tspan
         sodipodi:role="line"
         id="tspan4870"
         x="187.53651"
         y="143.98717" /></text>
<text
       xml:space="preserve"
       style="font-size:10.39999962px;font-style:normal;font-variant:normal;font-weight:normal;font-stretch:normal;line-height:125%;letter-spacing:0px;word-spacing:0px;fill:#000000;fill-opacity:1;stroke:none;font-family:Nimbus Roman No9 L;-inkscape-font-specification:Nimbus Roman No9 L"
       x="141.72537"
       y="-127.83997"
       id="text4872"
       sodipodi:linespacing="125%"
       transform="scale(1,-1)"><tspan
         sodipodi:role="line"
         id="tspan4874"
         x="141.72537"
         y="-127.83997">+</tspan></text>
<path
       style="fill:none;stroke:#000000;stroke-width:0.80000001px;stroke-linecap:butt;stroke-linejoin:miter;stroke-opacity:1"
       d="m 143.75869,84.221672 6.31606,0"
       id="path4876"
       inkscape:connector-curvature="0" /><path
       style="fill:none;stroke:#000000;stroke-width:1.04999995;stroke-linecap:butt;stroke-linejoin:miter;stroke-miterlimit:4;stroke-opacity:1;stroke-dasharray:none;marker-end:url(#DotM)"
       d="m 139.3477,195.51029 0,15.51976"
       id="path4878"
       inkscape:connector-curvature="0"
       sodipodi:nodetypes="cc" /><path
       sodipodi:nodetypes="cccccccc"
       inkscape:connector-curvature="0"
       id="path4896"
       d="m 139.46071,20.440264 0,31.987677 2.00652,2.135974 -4.91921,2.265426 4.98394,2.912691 -5.63121,2.718511 3.55996,2.912691 0,17.000076"
       style="fill:none;stroke:#000000;stroke-width:1.04999995;stroke-linecap:butt;stroke-linejoin:miter;stroke-miterlimit:4;stroke-opacity:1;stroke-dasharray:none;marker-end:none" /><path
       style="fill:none;stroke:#000000;stroke-width:1.04999995;stroke-linecap:butt;stroke-linejoin:miter;stroke-miterlimit:4;stroke-opacity:1;stroke-dasharray:none"
       d="m 128.3127,35.849544 22.15196,0"
       id="path4898"
       inkscape:connector-curvature="0" /><path
       style="fill:none;stroke:#000000;stroke-width:1.04999995;stroke-linecap:butt;stroke-linejoin:miter;stroke-miterlimit:4;stroke-opacity:1;stroke-dasharray:none"
       d="m 130.81885,33.167356 17.16802,0"
       id="path4902"
       inkscape:connector-curvature="0"
       sodipodi:nodetypes="cc" /><path
       inkscape:connector-curvature="0"
       id="path4904"
       d="m 132.63121,29.967356 13.73752,0"
       style="fill:none;stroke:#000000;stroke-width:1.04999995;stroke-linecap:butt;stroke-linejoin:miter;stroke-miterlimit:4;stroke-opacity:1;stroke-dasharray:none"
       sodipodi:nodetypes="cc" /><path
       style="fill:none;stroke:#000000;stroke-width:1.04999995;stroke-linecap:butt;stroke-linejoin:miter;stroke-miterlimit:4;stroke-opacity:1;stroke-dasharray:none"
       d="m 134.24936,26.767356 10.5012,0"
       id="path4906"
       inkscape:connector-curvature="0"
       sodipodi:nodetypes="cc" /><path
       inkscape:connector-curvature="0"
       id="path4908"
       d="m 135.47915,24.390638 7.91214,0"
       style="fill:none;stroke:#000000;stroke-width:1.04999995;stroke-linecap:butt;stroke-linejoin:miter;stroke-miterlimit:4;stroke-opacity:1;stroke-dasharray:none"
       sodipodi:nodetypes="cc" /><path
       style="fill:none;stroke:#000000;stroke-width:1;stroke-linecap:butt;stroke-linejoin:miter;stroke-miterlimit:4;stroke-opacity:1;stroke-dasharray:none;marker-end:url(#Arrow1Mend)"
       d="m 150.13592,177.6629 0,-17.94126"
       id="path4910"
       inkscape:connector-curvature="0" /><text
       xml:space="preserve"
       style="font-size:10.39999962px;font-style:normal;font-variant:normal;font-weight:normal;font-stretch:normal;line-height:125%;letter-spacing:0px;word-spacing:0px;fill:#000000;fill-opacity:1;stroke:none;font-family:Nimbus Roman No9 L;-inkscape-font-specification:Nimbus Roman No9 L"
       x="113.91858"
       y="-163.88692"
       id="text5100"
       sodipodi:linespacing="125%"
       transform="scale(1,-1)"><tspan
         sodipodi:role="line"
         id="tspan5102"
         x="113.91858"
         y="-163.88692">R<tspan
   style="font-size:8px"
   id="tspan5104"
   dy="2.5890586"
   dx="3.6730374e-09">C</tspan></tspan></text>
<text
       xml:space="preserve"
       style="font-size:10.39999962px;font-style:normal;font-variant:normal;font-weight:normal;font-stretch:normal;line-height:125%;letter-spacing:0px;word-spacing:0px;fill:#000000;fill-opacity:1;stroke:none;font-family:Nimbus Roman No9 L;-inkscape-font-specification:Nimbus Roman No9 L"
       x="144.39754"
       y="-207.16669"
       id="text5106"
       sodipodi:linespacing="125%"
       transform="scale(1,-1)"><tspan
         sodipodi:role="line"
         id="tspan5108"
         x="144.39754"
         y="-207.16669">12V</tspan></text>
<text
       xml:space="preserve"
       style="font-size:10.39999962px;font-style:normal;font-variant:normal;font-weight:normal;font-stretch:normal;line-height:125%;letter-spacing:0px;word-spacing:0px;fill:#000000;fill-opacity:1;stroke:none;font-family:Nimbus Roman No9 L;-inkscape-font-specification:Nimbus Roman No9 L"
       x="49.640961"
       y="-145.18265"
       id="text5118"
       sodipodi:linespacing="125%"
       transform="scale(1,-1)"><tspan
         sodipodi:role="line"
         id="tspan5120"
         x="49.640961"
         y="-145.18265">R<tspan
   style="font-size:8px"
   id="tspan5122"
   dy="1.6476667"
   dx="-0.18307409">B</tspan></tspan></text>
<text
       xml:space="preserve"
       style="font-size:10.39999962px;font-style:normal;font-variant:normal;font-weight:normal;font-stretch:normal;line-height:125%;letter-spacing:0px;word-spacing:0px;fill:#000000;fill-opacity:1;stroke:none;font-family:Nimbus Roman No9 L;-inkscape-font-specification:Nimbus Roman No9 L"
       x="155.24684"
       y="-166.57091"
       id="text5534"
       sodipodi:linespacing="125%"
       transform="scale(1,-1)"><tspan
         sodipodi:role="line"
         id="tspan5536"
         x="155.24684"
         y="-166.57091">I<tspan
   style="font-size:8px"
   id="tspan5538"
   dy="1.4645927"
   dx="0.36614817 1.0356234 0.7767176">C<tspan
   style="font-size:10.39999962px"
   id="tspan3680"
   dy="-1.2945293">=2mA</tspan></tspan></tspan></text>
<text
       xml:space="preserve"
       style="font-size:10.39999962px;font-style:normal;font-variant:normal;font-weight:normal;font-stretch:normal;line-height:125%;letter-spacing:0px;word-spacing:0px;fill:#000000;fill-opacity:1;stroke:none;font-family:Nimbus Roman No9 L;-inkscape-font-specification:Nimbus Roman No9 L"
       x="120.46275"
       y="-55.28788"
       id="text3188"
       sodipodi:linespacing="125%"
       transform="scale(1,-1)"><tspan
         sodipodi:role="line"
         id="tspan3190"
         x="120.46275"
         y="-55.28788">R<tspan
   style="font-size:8px"
   id="tspan3192"
   dy="2.5630374"
   dx="0.36614817">E</tspan></tspan></text>
<path
       sodipodi:nodetypes="cc"
       inkscape:connector-curvature="0"
       id="path3499"
       d="m 139.60648,140.36347 28.46505,0"
       style="fill:none;stroke:#000000;stroke-width:1.04999995;stroke-linecap:butt;stroke-linejoin:miter;stroke-miterlimit:4;stroke-opacity:1;stroke-dasharray:none;marker-end:url(#DotM)" /><path
       style="fill:none;stroke:#000000;stroke-width:1.04999995;stroke-linecap:butt;stroke-linejoin:miter;stroke-miterlimit:4;stroke-opacity:1;stroke-dasharray:none;marker-end:url(#DotM)"
       d="m 139.60648,73.727846 28.46505,0"
       id="path3501"
       inkscape:connector-curvature="0"
       sodipodi:nodetypes="cc" /><g
       id="g3555"
       transform="matrix(1.158773,0,0,-1.158773,-84.772172,257.32627)"
       ns0:preamble="/home/sriranga/Desktop/Prism-Basic-Electronics/package.tex"
       ns0:text="$\\beta=80$"><defs
         id="defs3557"><g
           id="g3559"><symbol
             id="textext-1c7750c3-0"
             overflow="visible"><path
               id="path3562"
               d=""
               style="stroke:none;" /></symbol><symbol
             id="textext-1c7750c3-1"
             overflow="visible"><path
               id="path3565"
               d="M 5.03125 -5.390625 C 5.03125 -6.171875 4.390625 -6.53125 3.5625 -6.53125 C 2.515625 -6.53125 1.484375 -5.828125 1.203125 -4.8125 L -0.3125 0.75 C -0.484375 1.375 -0.875 1.9375 -0.96875 2.0625 L -0.078125 2.0625 C -0.0625 2.0625 0.09375 1.984375 0.421875 0.734375 L 0.75 -0.546875 L 0.765625 -0.546875 C 0.765625 -0.53125 1.09375 0.171875 2.109375 0.171875 C 3.59375 0.171875 4.609375 -0.953125 4.609375 -2.09375 C 4.609375 -3.34375 3.484375 -3.53125 3.46875 -3.53125 L 3.46875 -3.5625 C 3.484375 -3.5625 5.03125 -3.921875 5.03125 -5.390625 Z M 4.25 -5.40625 C 4.25 -4.9375 3.984375 -3.8125 3.1875 -3.8125 C 2.984375 -3.8125 2.828125 -3.859375 2.65625 -3.859375 C 2.390625 -3.859375 2.203125 -3.625 2.203125 -3.453125 C 2.203125 -3.34375 2.28125 -3.25 2.46875 -3.25 C 2.734375 -3.25 2.8125 -3.296875 3.046875 -3.296875 C 3.53125 -3.296875 3.765625 -2.765625 3.765625 -2.203125 C 3.765625 -1.203125 3.15625 -0.296875 2.09375 -0.296875 C 1.421875 -0.296875 0.984375 -0.640625 0.984375 -1.21875 C 0.984375 -1.328125 1 -1.46875 1.03125 -1.609375 L 1.9375 -4.8125 C 2.109375 -5.453125 2.578125 -6.25 3.46875 -6.25 C 4.03125 -6.25 4.25 -5.859375 4.25 -5.40625 Z M 4.25 -5.40625 "
               style="stroke:none;" /></symbol><symbol
             id="textext-1c7750c3-2"
             overflow="visible"><path
               id="path3568"
               d=""
               style="stroke:none;" /></symbol><symbol
             id="textext-1c7750c3-3"
             overflow="visible"><path
               id="path3571"
               d="M 5.71875 -3.296875 L 5.71875 -3.84375 L 0.625 -3.84375 L 0.625 -3.296875 Z M 5.71875 -1.265625 L 5.71875 -1.828125 L 0.625 -1.828125 L 0.625 -1.265625 Z M 5.71875 -1.265625 "
               style="stroke:none;" /></symbol><symbol
             id="textext-1c7750c3-4"
             overflow="visible"><path
               id="path3574"
               d=""
               style="stroke:none;" /></symbol><symbol
             id="textext-1c7750c3-5"
             overflow="visible"><path
               id="path3577"
               d="M 2.890625 -3.703125 C 3.875 -4.234375 4.234375 -4.640625 4.234375 -5.328125 C 4.234375 -6.140625 3.515625 -6.734375 2.515625 -6.734375 C 1.421875 -6.734375 0.625 -6.078125 0.625 -5.15625 C 0.625 -4.515625 0.8125 -4.234375 1.859375 -3.3125 C 0.78125 -2.5 0.5625 -2.1875 0.5625 -1.5 C 0.5625 -0.53125 1.34375 0.140625 2.46875 0.140625 C 3.671875 0.140625 4.4375 -0.515625 4.4375 -1.546875 C 4.4375 -2.3125 4.09375 -2.796875 2.890625 -3.703125 Z M 2.71875 -2.671875 C 3.4375 -2.15625 3.671875 -1.796875 3.671875 -1.234375 C 3.671875 -0.59375 3.234375 -0.140625 2.578125 -0.140625 C 1.828125 -0.140625 1.3125 -0.71875 1.3125 -1.578125 C 1.3125 -2.21875 1.53125 -2.640625 2.109375 -3.109375 Z M 2.609375 -3.875 C 1.71875 -4.453125 1.359375 -4.921875 1.359375 -5.46875 C 1.359375 -6.046875 1.796875 -6.453125 2.4375 -6.453125 C 3.109375 -6.453125 3.53125 -6.015625 3.53125 -5.328125 C 3.53125 -4.765625 3.265625 -4.3125 2.6875 -3.9375 C 2.640625 -3.90625 2.640625 -3.90625 2.609375 -3.875 Z M 2.609375 -3.875 "
               style="stroke:none;" /></symbol><symbol
             id="textext-1c7750c3-6"
             overflow="visible"><path
               id="path3580"
               d="M 2.53125 -6.734375 C 1.984375 -6.734375 1.5625 -6.5625 1.203125 -6.21875 C 0.625 -5.65625 0.234375 -4.515625 0.234375 -3.34375 C 0.234375 -2.265625 0.5625 -1.09375 1.03125 -0.53125 C 1.40625 -0.09375 1.90625 0.140625 2.5 0.140625 C 3 0.140625 3.421875 -0.03125 3.78125 -0.375 C 4.359375 -0.921875 4.75 -2.078125 4.75 -3.296875 C 4.75 -5.328125 3.84375 -6.734375 2.53125 -6.734375 Z M 2.5 -6.484375 C 3.34375 -6.484375 3.78125 -5.359375 3.78125 -3.265625 C 3.78125 -1.1875 3.34375 -0.125 2.5 -0.125 C 1.640625 -0.125 1.203125 -1.1875 1.203125 -3.265625 C 1.203125 -5.375 1.640625 -6.484375 2.5 -6.484375 Z M 2.5 -6.484375 "
               style="stroke:none;" /></symbol></g></defs><g
         id="textext-1c7750c3-7"><g
           id="g3583"
           style="fill:rgb(0%,0%,0%);fill-opacity:1;"><use
             id="use3585"
             y="134.765"
             x="223.432"
             xlink:href="#textext-1c7750c3-1" /></g><g
           id="g3587"
           style="fill:rgb(0%,0%,0%);fill-opacity:1;"><use
             id="use3589"
             y="134.765"
             x="231.26"
             xlink:href="#textext-1c7750c3-3" /></g><g
           id="g3591"
           style="fill:rgb(0%,0%,0%);fill-opacity:1;"><use
             id="use3593"
             y="134.765"
             x="240.364"
             xlink:href="#textext-1c7750c3-5" /><use
             id="use3595"
             y="134.765"
             x="245.3453"
             xlink:href="#textext-1c7750c3-6" /></g></g></g><text
       xml:space="preserve"
       style="font-size:10.39999962px;font-style:normal;font-variant:normal;font-weight:normal;font-stretch:normal;line-height:125%;letter-spacing:0px;word-spacing:0px;fill:#000000;fill-opacity:1;stroke:none;font-family:Nimbus Roman No9 L;-inkscape-font-specification:Nimbus Roman No9 L"
       x="174.24364"
       y="-70.421898"
       id="text3672"
       sodipodi:linespacing="125%"
       transform="scale(1,-1)"><tspan
         sodipodi:role="line"
         id="tspan3674"
         x="174.24364"
         y="-70.421898">2.4V</tspan></text>
<text
       xml:space="preserve"
       style="font-size:10.39999962px;font-style:normal;font-variant:normal;font-weight:normal;font-stretch:normal;line-height:125%;letter-spacing:0px;word-spacing:0px;fill:#000000;fill-opacity:1;stroke:none;font-family:Nimbus Roman No9 L;-inkscape-font-specification:Nimbus Roman No9 L"
       x="174.76144"
       y="-136.96071"
       id="text3676"
       sodipodi:linespacing="125%"
       transform="scale(1,-1)"><tspan
         sodipodi:role="line"
         id="tspan3678"
         x="174.76144"
         y="-136.96071">7.6V</tspan></text>
</g></svg>