<?xml version="1.0" encoding="UTF-8" standalone="no"?>
<!-- Created with Inkscape (http://www.inkscape.org/) -->

<svg
   xmlns:ns0="http://www.iki.fi/pav/software/textext/"
   xmlns:dc="http://purl.org/dc/elements/1.1/"
   xmlns:cc="http://creativecommons.org/ns#"
   xmlns:rdf="http://www.w3.org/1999/02/22-rdf-syntax-ns#"
   xmlns:svg="http://www.w3.org/2000/svg"
   xmlns="http://www.w3.org/2000/svg"
   xmlns:xlink="http://www.w3.org/1999/xlink"
   xmlns:sodipodi="http://sodipodi.sourceforge.net/DTD/sodipodi-0.dtd"
   xmlns:inkscape="http://www.inkscape.org/namespaces/inkscape"
   id="svg2"
   version="1.1"
   inkscape:version="0.48.4 r9939"
   width="354.33069"
   height="283.46457"
   xml:space="preserve"
   sodipodi:docname="fig3.19.eps"><sodipodi:namedview
     pagecolor="#ffffff"
     bordercolor="#666666"
     borderopacity="1"
     objecttolerance="10"
     gridtolerance="10"
     guidetolerance="10"
     inkscape:pageopacity="0"
     inkscape:pageshadow="2"
     inkscape:window-width="1024"
     inkscape:window-height="744"
     id="namedview4"
     showgrid="false"
     units="cm"
     inkscape:zoom="1.5449631"
     inkscape:cx="203.331"
     inkscape:cy="153.62551"
     inkscape:window-x="0"
     inkscape:window-y="24"
     inkscape:window-maximized="1"
     inkscape:current-layer="g10" /><metadata
     id="metadata8"><rdf:RDF><cc:Work
         rdf:about=""><dc:format>image/svg+xml</dc:format><dc:type
           rdf:resource="http://purl.org/dc/dcmitype/StillImage" /><dc:title></dc:title></cc:Work></rdf:RDF></metadata><defs
     id="defs6"><marker
       style="overflow:visible"
       id="DotM"
       refX="0.0"
       refY="0.0"
       orient="auto"
       inkscape:stockid="DotM"><path
         transform="scale(0.4) translate(7.4, 1)"
         style="fill-rule:evenodd;stroke:#000000;stroke-width:1.0pt"
         d="M -2.5,-1.0 C -2.5,1.7600000 -4.7400000,4.0 -7.5,4.0 C -10.260000,4.0 -12.5,1.7600000 -12.5,-1.0 C -12.5,-3.7600000 -10.260000,-6.0 -7.5,-6.0 C -4.7400000,-6.0 -2.5,-3.7600000 -2.5,-1.0 z "
         id="path3904" /></marker><marker
       style="overflow:visible;"
       id="Arrow1Mend"
       refX="0.0"
       refY="0.0"
       orient="auto"
       inkscape:stockid="Arrow1Mend"><path
         transform="scale(0.4) rotate(180) translate(10,0)"
         style="fill-rule:evenodd;stroke:#000000;stroke-width:1.0pt;"
         d="M 0.0,0.0 L 5.0,-5.0 L -12.5,0.0 L 5.0,5.0 L 0.0,0.0 z "
         id="path3806" /></marker></defs><g
     transform="matrix(1.25,0,0,-1.25,0,283.46395)"
     inkscape:label="ink_ext_XXXXXX"
     inkscape:groupmode="layer"
     id="g10"><path
       style="fill:none;stroke:#000000;stroke-width:1.05;stroke-linecap:butt;stroke-linejoin:miter;stroke-miterlimit:4;stroke-opacity:1;stroke-dasharray:none;marker-end:none"
       d="m 84.919312,106.73531 68.089018,0"
       id="path4284"
       inkscape:connector-curvature="0"
       sodipodi:nodetypes="cc" /><path
       sodipodi:nodetypes="cc"
       inkscape:connector-curvature="0"
       id="path4474"
       d="m 152.79237,87.015353 0,39.689127"
       style="fill:none;stroke:#000000;stroke-width:1.05;stroke-linecap:butt;stroke-linejoin:miter;stroke-miterlimit:4;stroke-opacity:1;stroke-dasharray:none;marker-end:none" /><path
       sodipodi:nodetypes="cc"
       inkscape:connector-curvature="0"
       id="path4476"
       d="m 152.93754,97.516504 c 5.40222,-3.118978 10.26743,-6.538879 16.65231,-10.225192"
       style="fill:none;stroke:#000000;stroke-width:1.05;stroke-linecap:butt;stroke-linejoin:miter;stroke-miterlimit:4;stroke-opacity:1;stroke-dasharray:none;marker-end:url(#Arrow1Mend)" /><path
       sodipodi:nodetypes="cccccccc"
       inkscape:connector-curvature="0"
       id="path4484"
       d="m 102.02884,107.13083 c -0.12318,22.21524 -0.14352,31.94566 -0.0772,42.20148 l -5.170006,2.53289 8.265616,3.52389 -8.144076,3.74416 5.071706,2.31346 0.0447,23.27481 67.28908,0.1118"
       style="fill:none;stroke:#000000;stroke-width:1.04999995;stroke-linecap:butt;stroke-linejoin:miter;stroke-miterlimit:4;stroke-opacity:1;stroke-dasharray:none;marker-end:none" /><text
       transform="matrix(0.8,0,0,-0.8,0,226.77116)"
       sodipodi:linespacing="125%"
       id="text4866"
       y="127.73717"
       x="187.53651"
       style="font-size:13px;font-style:normal;font-variant:normal;font-weight:normal;font-stretch:normal;line-height:125%;letter-spacing:0px;word-spacing:0px;fill:#000000;fill-opacity:1;stroke:none;font-family:Nimbus Roman No9 L;-inkscape-font-specification:Nimbus Roman No9 L"
       xml:space="preserve"><tspan
         y="127.73717"
         x="187.53651"
         id="tspan4868"
         sodipodi:role="line" /><tspan
         y="143.98717"
         x="187.53651"
         id="tspan4870"
         sodipodi:role="line" /></text>
<path
       inkscape:connector-curvature="0"
       id="path4898"
       d="m 159.96488,24.169011 18.8463,0"
       style="fill:none;stroke:#000000;stroke-width:1.05;stroke-linecap:butt;stroke-linejoin:miter;stroke-miterlimit:4;stroke-opacity:1;stroke-dasharray:none" /><path
       sodipodi:nodetypes="cc"
       inkscape:connector-curvature="0"
       id="path4902"
       d="m 162.09705,21.887077 14.60609,0"
       style="fill:none;stroke:#000000;stroke-width:1.05;stroke-linecap:butt;stroke-linejoin:miter;stroke-miterlimit:4;stroke-opacity:1;stroke-dasharray:none" /><path
       sodipodi:nodetypes="cc"
       style="fill:none;stroke:#000000;stroke-width:1.05;stroke-linecap:butt;stroke-linejoin:miter;stroke-miterlimit:4;stroke-opacity:1;stroke-dasharray:none"
       d="m 163.63895,19.495007 11.68752,0"
       id="path4904"
       inkscape:connector-curvature="0" /><path
       sodipodi:nodetypes="cc"
       inkscape:connector-curvature="0"
       id="path4906"
       d="m 165.01563,17.323207 8.93415,0"
       style="fill:none;stroke:#000000;stroke-width:1.05;stroke-linecap:butt;stroke-linejoin:miter;stroke-miterlimit:4;stroke-opacity:1;stroke-dasharray:none" /><path
       sodipodi:nodetypes="cc"
       style="fill:none;stroke:#000000;stroke-width:1.05;stroke-linecap:butt;stroke-linejoin:miter;stroke-miterlimit:4;stroke-opacity:1;stroke-dasharray:none"
       d="m 166.06191,15.301158 6.73143,0"
       id="path4908"
       inkscape:connector-curvature="0" /><path
       style="fill:none;stroke:#000000;stroke-width:1.04999995;stroke-linecap:butt;stroke-linejoin:miter;stroke-miterlimit:4;stroke-opacity:1;stroke-dasharray:none;marker-end:none"
       d="m 152.91715,114.91856 c 0,0 16.35228,10.30872 16.26515,10.63388 0,0 -0.0325,16.91731 0.0119,23.77987 l -5.17002,2.53289 8.26562,3.52389 -8.14408,3.74416 5.07171,2.31346 0.054,23.38661"
       id="path4291"
       inkscape:connector-curvature="0"
       sodipodi:nodetypes="cscccccc" /><path
       style="fill:none;stroke:#000000;stroke-width:1.05;stroke-linecap:butt;stroke-linejoin:miter;stroke-miterlimit:4;stroke-opacity:1;stroke-dasharray:none;marker-end:none"
       d="m 102.02884,106.55776 c -0.12318,-22.215237 -0.14352,-31.945661 -0.0772,-42.201481 l -5.170006,-2.532889 8.265616,-3.523886 -8.144076,-3.744161 5.071706,-2.313457 0.0369,-19.234916 67.19954,-0.100823"
       id="path4293"
       inkscape:connector-curvature="0"
       sodipodi:nodetypes="cccccccc" /><path
       sodipodi:nodetypes="ccccccc"
       inkscape:connector-curvature="0"
       id="path4295"
       d="M 169.4677,87.051834 C 169.34452,64.8366 169.32418,77.023065 169.3905,66.767245 l -5.17001,-2.532888 8.26562,-3.523887 -8.14408,-3.744161 5.07171,-2.313457 0.054,-41.229934"
       style="fill:none;stroke:#000000;stroke-width:1.05;stroke-linecap:butt;stroke-linejoin:miter;stroke-miterlimit:4;stroke-opacity:1;stroke-dasharray:none;marker-end:none" /><path
       style="fill:none;stroke:#000000;stroke-width:1.3125;stroke-linecap:butt;stroke-linejoin:miter;stroke-opacity:1;stroke-miterlimit:4;stroke-dasharray:none"
       d="m 211.65554,113.5576 39.80678,0"
       id="path4297"
       inkscape:connector-curvature="0"
       transform="matrix(0.8,0,0,-0.8,0,226.77116)" /><path
       style="fill:none;stroke:#000000;stroke-width:1.05;stroke-linecap:butt;stroke-linejoin:miter;stroke-miterlimit:4;stroke-opacity:1;stroke-dasharray:none"
       d="m 201.38618,145.61185 0,-18.98529"
       id="path4299"
       inkscape:connector-curvature="0" /><path
       inkscape:connector-curvature="0"
       id="path4301"
       d="m 207.87134,145.61185 c -3.32002,-5.41836 -4.01207,-11.55709 0,-18.98529"
       style="fill:none;stroke:#000000;stroke-width:1.05;stroke-linecap:butt;stroke-linejoin:miter;stroke-miterlimit:4;stroke-opacity:1;stroke-dasharray:none"
       sodipodi:nodetypes="cc" /><path
       inkscape:connector-curvature="0"
       id="path4303"
       d="m 205.21828,135.92508 22.69173,0"
       style="fill:none;stroke:#000000;stroke-width:1.04999994999999990;stroke-linecap:butt;stroke-linejoin:miter;stroke-miterlimit:4;stroke-opacity:1;stroke-dasharray:none;marker-end:url(#DotM)"
       sodipodi:nodetypes="cc" /><path
       inkscape:connector-curvature="0"
       id="path4489"
       d="m 108.9071,106.7366 -31.845421,0"
       style="fill:none;stroke:#000000;stroke-width:1.04999995;stroke-linecap:butt;stroke-linejoin:miter;stroke-miterlimit:4;stroke-opacity:1;stroke-dasharray:none" /><path
       inkscape:connector-curvature="0"
       id="path4491"
       d="m 76.845359,97.049842 0,18.985278"
       style="fill:none;stroke:#000000;stroke-width:1.04999995;stroke-linecap:butt;stroke-linejoin:miter;stroke-miterlimit:4;stroke-opacity:1;stroke-dasharray:none" /><path
       sodipodi:nodetypes="cc"
       style="fill:none;stroke:#000000;stroke-width:1.04999995;stroke-linecap:butt;stroke-linejoin:miter;stroke-miterlimit:4;stroke-opacity:1;stroke-dasharray:none"
       d="m 70.360199,97.049842 c 3.32002,5.418348 4.01207,11.557078 0,18.985278"
       id="path4493"
       inkscape:connector-curvature="0" /><path
       sodipodi:nodetypes="cc"
       style="fill:none;stroke:#000000;stroke-width:1.04999995;stroke-linecap:butt;stroke-linejoin:miter;stroke-miterlimit:4;stroke-opacity:1;stroke-dasharray:none;marker-end:url(#DotM)"
       d="m 73.013259,106.7366 -22.69173,0"
       id="path4495"
       inkscape:connector-curvature="0" /><path
       sodipodi:type="arc"
       style="fill:#000000;stroke:#000000;stroke-width:1.3125;stroke-miterlimit:4;stroke-opacity:1;stroke-dasharray:none;stroke-dashoffset:0"
       id="path4507"
       sodipodi:cx="66.99189"
       sodipodi:cy="143.00813"
       sodipodi:rx="2.5890586"
       sodipodi:ry="2.5890586"
       d="m 69.580949,143.00813 c 0,1.4299 -1.159161,2.58906 -2.589059,2.58906 -1.429898,0 -2.589059,-1.15916 -2.589059,-2.58906 0,-1.42989 1.159161,-2.58906 2.589059,-2.58906 1.429898,0 2.589059,1.15917 2.589059,2.58906 z"
       transform="matrix(0.8,0,0,-0.8,48.415396,221.20468)" /><path
       sodipodi:nodetypes="cc"
       style="fill:none;stroke:#000000;stroke-width:1.04999995;stroke-linecap:butt;stroke-linejoin:miter;stroke-miterlimit:4;stroke-opacity:1;stroke-dasharray:none;marker-end:url(#DotM)"
       d="m 136.94217,184.53923 0,16.65029"
       id="path4509"
       inkscape:connector-curvature="0" /><text
       xml:space="preserve"
       style="font-size:10.39999962px;font-style:normal;font-variant:normal;font-weight:normal;font-stretch:normal;line-height:125%;letter-spacing:0px;word-spacing:0px;fill:#000000;fill-opacity:1;stroke:none;font-family:Nimbus Roman No9 L;-inkscape-font-specification:Nimbus Roman No9 L"
       x="142.79779"
       y="-201.01486"
       id="text4511"
       sodipodi:linespacing="125%"
       transform="scale(1,-1)"><tspan
         sodipodi:role="line"
         id="tspan4513"
         x="142.79779"
         y="-201.01486">V<tspan
   style="font-size:8px"
   id="tspan4515"
   dy="2.1968889"
   dx="0.36614817">CC</tspan></tspan></text>
<text
       xml:space="preserve"
       style="font-size:10.39999962px;font-style:normal;font-variant:normal;font-weight:normal;font-stretch:normal;line-height:125%;letter-spacing:0px;word-spacing:0px;fill:#000000;fill-opacity:1;stroke:none;font-family:Nimbus Roman No9 L;-inkscape-font-specification:Nimbus Roman No9 L"
       x="79.820297"
       y="-154.14789"
       id="text4517"
       sodipodi:linespacing="125%"
       transform="scale(1,-1)"><tspan
         sodipodi:role="line"
         id="tspan4519"
         x="79.820297"
         y="-154.14789">R<tspan
   style="font-size:8.80000019px"
   id="tspan4521"
   dy="2.9291854"
   dx="7.1110349e-09">1</tspan></tspan></text>
<text
       xml:space="preserve"
       style="font-size:10.39999962px;font-style:normal;font-variant:normal;font-weight:normal;font-stretch:normal;line-height:125%;letter-spacing:0px;word-spacing:0px;fill:#000000;fill-opacity:1;stroke:none;font-family:Nimbus Roman No9 L;-inkscape-font-specification:Nimbus Roman No9 L"
       x="147.19156"
       y="-154.51404"
       id="text4523"
       sodipodi:linespacing="125%"
       transform="scale(1,-1)"><tspan
         sodipodi:role="line"
         id="tspan4525"
         x="147.19156"
         y="-154.51404">R<tspan
   style="font-size:8px"
   id="tspan4527"
   dy="2.1968892"
   dx="0.36614817">C</tspan></tspan></text>
<text
       xml:space="preserve"
       style="font-size:10.39999962px;font-style:normal;font-variant:normal;font-weight:normal;font-stretch:normal;line-height:125%;letter-spacing:0px;word-spacing:0px;fill:#000000;fill-opacity:1;stroke:none;font-family:Nimbus Roman No9 L;-inkscape-font-specification:Nimbus Roman No9 L"
       x="203.57838"
       y="-149.02182"
       id="text4529"
       sodipodi:linespacing="125%"
       transform="scale(1,-1)"><tspan
         sodipodi:role="line"
         id="tspan4531"
         x="203.57838"
         y="-149.02182">C<tspan
   style="font-size:8.80000019px"
   id="tspan4533"
   dy="1.4645927"
   dx="0.73229635">2</tspan></tspan></text>
<text
       transform="scale(1,-1)"
       sodipodi:linespacing="125%"
       id="text4535"
       y="-121.11983"
       x="68.103561"
       style="font-size:10.39999962px;font-style:normal;font-variant:normal;font-weight:normal;font-stretch:normal;line-height:125%;letter-spacing:0px;word-spacing:0px;fill:#000000;fill-opacity:1;stroke:none;font-family:Nimbus Roman No9 L;-inkscape-font-specification:Nimbus Roman No9 L"
       xml:space="preserve"><tspan
         y="-121.11983"
         x="68.103561"
         id="tspan4537"
         sodipodi:role="line">C<tspan
   style="font-size:8.80000019px"
   id="tspan4541"
   dx="0.73229635"
   dy="2.1968892">1</tspan></tspan></text>
<text
       transform="scale(1,-1)"
       sodipodi:linespacing="125%"
       id="text4543"
       y="-58.147842"
       x="79.820297"
       style="font-size:10.39999962px;font-style:normal;font-variant:normal;font-weight:normal;font-stretch:normal;line-height:125%;letter-spacing:0px;word-spacing:0px;fill:#000000;fill-opacity:1;stroke:none;font-family:Nimbus Roman No9 L;-inkscape-font-specification:Nimbus Roman No9 L"
       xml:space="preserve"><tspan
         y="-58.147842"
         x="79.820297"
         id="tspan4545"
         sodipodi:role="line">R<tspan
   style="font-size:8.80000019px"
   id="tspan4549"
   dy="2.1968892"
   dx="0.73229635">2</tspan></tspan></text>
<text
       xml:space="preserve"
       style="font-size:10.39999962px;font-style:normal;font-variant:normal;font-weight:normal;font-stretch:normal;line-height:125%;letter-spacing:0px;word-spacing:0px;fill:#000000;fill-opacity:1;stroke:none;font-family:Nimbus Roman No9 L;-inkscape-font-specification:Nimbus Roman No9 L"
       x="146.82542"
       y="-59.681664"
       id="text4551"
       sodipodi:linespacing="125%"
       transform="scale(1,-1)"><tspan
         sodipodi:role="line"
         id="tspan4553"
         x="146.82542"
         y="-59.681664">R<tspan
   style="font-size:8px"
   id="tspan4555"
   dy="2.1968892"
   dx="7.1110349e-09">E</tspan></tspan></text>
<g
       transform="matrix(1.3096626,0,0,-1.3674724,-58.286343,317.74837)"
       ns0:text="$\\upsilon_{0}$"
       ns0:preamble="/home/sriranga/Desktop/Prism-Basic-Electronics/package.tex"
       id="g4612"><defs
         id="defs4614"><g
           id="g4616"><symbol
             style="overflow:visible"
             overflow="visible"
             id="textext-b3a87ce0-0"><path
               inkscape:connector-curvature="0"
               style="stroke:none"
               d=""
               id="path4619" /></symbol><symbol
             style="overflow:visible"
             overflow="visible"
             id="textext-b3a87ce0-1"><path
               inkscape:connector-curvature="0"
               style="stroke:none"
               d="m 5.03125,-3.9375 c 0,-0.296875 0,-0.453125 -0.09375,-0.453125 -0.109375,0 -0.890625,0.65625 -1,0.765625 0.015625,0 0.171875,0.09375 0.171875,0.75 0,1.015625 -0.65625,2.609375 -1.90625,2.609375 -0.484375,0 -0.765625,-0.265625 -0.765625,-0.640625 0,-1 0.75,-1.640625 0.75,-2.75 0,-0.453125 -0.1875,-0.734375 -0.765625,-0.734375 -0.671875,0 -1.109375,0.6875 -1.15625,0.796875 l 0.0625,0.0625 C 0.390625,-3.609375 0.65625,-3.890625 1,-3.890625 c 0.203125,0 0.359375,0.078125 0.359375,0.375 0,0.84375 -0.71875,1.375 -0.71875,2.59375 0,0.53125 0.40625,1.03125 1.203125,1.03125 2.40625,0 3.1875,-3.171875 3.1875,-4.046875 z m 0,0"
               id="path4622" /></symbol><symbol
             style="overflow:visible"
             overflow="visible"
             id="textext-b3a87ce0-2"><path
               inkscape:connector-curvature="0"
               style="stroke:none"
               d=""
               id="path4625" /></symbol><symbol
             style="overflow:visible"
             overflow="visible"
             id="textext-b3a87ce0-3"><path
               inkscape:connector-curvature="0"
               style="stroke:none"
               d="m 1.765625,-4.703125 c -0.375,0 -0.671875,0.109375 -0.921875,0.359375 -0.40625,0.390625 -0.671875,1.1875 -0.671875,2 0,0.765625 0.21875,1.578125 0.546875,1.96875 0.265625,0.3125 0.625,0.46875 1.015625,0.46875 0.359375,0 0.65625,-0.109375 0.90625,-0.359375 0.40625,-0.375 0.671875,-1.1875 0.671875,-2.03125 0,-1.4375 -0.625,-2.40625 -1.546875,-2.40625 z M 1.75,-4.53125 c 0.578125,0 0.890625,0.78125 0.890625,2.25 0,1.453125 -0.296875,2.203125 -0.90625,2.203125 -0.59375,0 -0.890625,-0.75 -0.890625,-2.203125 0,-1.46875 0.3125,-2.25 0.90625,-2.25 z m 0,0"
               id="path4628" /></symbol></g></defs><g
         id="textext-b3a87ce0-4"><g
           style="fill:#000000;fill-opacity:1"
           id="g4631"><use
             height="283.46457"
             width="354.33069"
             xlink:href="#textext-b3a87ce0-1"
             x="223.43201"
             y="134.765"
             id="use4633" /></g><g
           style="fill:#000000;fill-opacity:1"
           id="g4635"><use
             height="283.46457"
             width="354.33069"
             xlink:href="#textext-b3a87ce0-3"
             x="228.662"
             y="136.259"
             id="use4637" /></g></g></g><g
       id="g4811"
       transform="matrix(1.3096626,0,0,-1.3674724,-258.16167,289.18119)"
       ns0:preamble="/home/sriranga/Desktop/Prism-Basic-Electronics/package.tex"
       ns0:text="$\\upsilon_{i}$"><defs
         id="defs4813"><g
           id="g4815"><symbol
             id="textext-4da0d759-0"
             overflow="visible"
             style="overflow:visible"><path
               id="path4818"
               d=""
               style="stroke:none"
               inkscape:connector-curvature="0" /></symbol><symbol
             id="textext-4da0d759-1"
             overflow="visible"
             style="overflow:visible"><path
               id="path4821"
               d="m 5.03125,-3.9375 c 0,-0.296875 0,-0.453125 -0.09375,-0.453125 -0.109375,0 -0.890625,0.65625 -1,0.765625 0.015625,0 0.171875,0.09375 0.171875,0.75 0,1.015625 -0.65625,2.609375 -1.90625,2.609375 -0.484375,0 -0.765625,-0.265625 -0.765625,-0.640625 0,-1 0.75,-1.640625 0.75,-2.75 0,-0.453125 -0.1875,-0.734375 -0.765625,-0.734375 -0.671875,0 -1.109375,0.6875 -1.15625,0.796875 l 0.0625,0.0625 C 0.390625,-3.609375 0.65625,-3.890625 1,-3.890625 c 0.203125,0 0.359375,0.078125 0.359375,0.375 0,0.84375 -0.71875,1.375 -0.71875,2.59375 0,0.53125 0.40625,1.03125 1.203125,1.03125 2.40625,0 3.1875,-3.171875 3.1875,-4.046875 z m 0,0"
               style="stroke:none"
               inkscape:connector-curvature="0" /></symbol><symbol
             id="textext-4da0d759-2"
             overflow="visible"
             style="overflow:visible"><path
               id="path4824"
               d=""
               style="stroke:none"
               inkscape:connector-curvature="0" /></symbol><symbol
             id="textext-4da0d759-3"
             overflow="visible"
             style="overflow:visible"><path
               id="path4827"
               d="M 1.546875,-0.796875 C 1.375,-0.578125 1.328125,-0.515625 1.265625,-0.4375 1.140625,-0.328125 1.03125,-0.25 0.96875,-0.25 c -0.046875,0 -0.109375,-0.0625 -0.109375,-0.109375 0,-0.0625 0.03125,-0.171875 0.078125,-0.296875 0,-0.03125 0.015625,-0.078125 0.03125,-0.125 l 0,-0.03125 0.625,-2.25 L 1.5625,-3.078125 C 0.859375,-2.9375 0.71875,-2.921875 0.453125,-2.90625 l 0,0.125 c 0.375,0 0.4375,0.015625 0.4375,0.15625 0,0.0625 -0.015625,0.171875 -0.0625,0.3125 L 0.5,-1.078125 c -0.109375,0.40625 -0.15625,0.625 -0.15625,0.75 0,0.265625 0.109375,0.40625 0.3125,0.40625 0.328125,0 0.578125,-0.203125 0.984375,-0.796875 z M 1.484375,-4.5625 c -0.1875,0 -0.328125,0.171875 -0.328125,0.375 0,0.21875 0.140625,0.375 0.34375,0.375 0.171875,0 0.34375,-0.171875 0.34375,-0.359375 C 1.84375,-4.375 1.671875,-4.5625 1.484375,-4.5625 z m 0,0"
               style="stroke:none"
               inkscape:connector-curvature="0" /></symbol></g></defs><g
         id="textext-4da0d759-4"><g
           id="g4830"
           style="fill:#000000;fill-opacity:1"><use
             id="use4832"
             y="134.765"
             x="223.43201"
             xlink:href="#textext-4da0d759-1"
             width="354.33069"
             height="283.46457" /></g><g
           id="g4834"
           style="fill:#000000;fill-opacity:1"><use
             id="use4836"
             y="136.259"
             x="228.662"
             xlink:href="#textext-4da0d759-3"
             width="354.33069"
             height="283.46457" /></g></g></g></g></svg>