<?xml version="1.0" encoding="UTF-8" standalone="no"?>
<!-- Created with Inkscape (http://www.inkscape.org/) -->

<svg
   xmlns:ns0="http://www.iki.fi/pav/software/textext/"
   xmlns:dc="http://purl.org/dc/elements/1.1/"
   xmlns:cc="http://creativecommons.org/ns#"
   xmlns:rdf="http://www.w3.org/1999/02/22-rdf-syntax-ns#"
   xmlns:svg="http://www.w3.org/2000/svg"
   xmlns="http://www.w3.org/2000/svg"
   xmlns:xlink="http://www.w3.org/1999/xlink"
   xmlns:sodipodi="http://sodipodi.sourceforge.net/DTD/sodipodi-0.dtd"
   xmlns:inkscape="http://www.inkscape.org/namespaces/inkscape"
   id="svg2"
   version="1.1"
   inkscape:version="0.48.4 r9939"
   width="496.06299"
   height="283.46457"
   xml:space="preserve"
   sodipodi:docname="fig3.1.svg"><sodipodi:namedview
     pagecolor="#ffffff"
     bordercolor="#666666"
     borderopacity="1"
     objecttolerance="10"
     gridtolerance="10"
     guidetolerance="10"
     inkscape:pageopacity="0"
     inkscape:pageshadow="2"
     inkscape:window-width="1024"
     inkscape:window-height="744"
     id="namedview4"
     showgrid="false"
     units="cm"
     inkscape:zoom="1.0924539"
     inkscape:cx="216.39843"
     inkscape:cy="92.964002"
     inkscape:window-x="0"
     inkscape:window-y="24"
     inkscape:window-maximized="1"
     inkscape:current-layer="g10" /><metadata
     id="metadata8"><rdf:RDF><cc:Work
         rdf:about=""><dc:format>image/svg+xml</dc:format><dc:type
           rdf:resource="http://purl.org/dc/dcmitype/StillImage" /><dc:title /></cc:Work></rdf:RDF></metadata><defs
     id="defs6"><marker
       style="overflow:visible"
       id="TriangleOutM"
       refX="0.0"
       refY="0.0"
       orient="auto"
       inkscape:stockid="TriangleOutM"><path
         transform="scale(0.4)"
         style="fill-rule:evenodd;stroke:#000000;stroke-width:1.0pt"
         d="M 5.77,0.0 L -2.88,5.0 L -2.88,-5.0 L 5.77,0.0 z "
         id="path4020" /></marker><marker
       style="overflow:visible;"
       id="Arrow2Mend"
       refX="0.0"
       refY="0.0"
       orient="auto"
       inkscape:stockid="Arrow2Mend"><path
         transform="scale(0.6) rotate(180) translate(0,0)"
         d="M 8.7185878,4.0337352 L -2.2072895,0.016013256 L 8.7185884,-4.0017078 C 6.9730900,-1.6296469 6.9831476,1.6157441 8.7185878,4.0337352 z "
         style="fill-rule:evenodd;stroke-width:0.62500000;stroke-linejoin:round;"
         id="path3902" /></marker><marker
       style="overflow:visible;"
       id="Arrow1Mend"
       refX="0.0"
       refY="0.0"
       orient="auto"
       inkscape:stockid="Arrow1Mend"><path
         transform="scale(0.4) rotate(180) translate(10,0)"
         style="fill-rule:evenodd;stroke:#000000;stroke-width:1.0pt;"
         d="M 0.0,0.0 L 5.0,-5.0 L -12.5,0.0 L 5.0,5.0 L 0.0,0.0 z "
         id="path3884" /></marker></defs><g
     transform="matrix(1.25,0,0,-1.25,0,283.46433)"
     inkscape:label="ink_ext_XXXXXX"
     inkscape:groupmode="layer"
     id="g10"><path
       inkscape:connector-curvature="0"
       id="path3769"
       d="m 48.985298,104.24386 19.405853,0"
       style="fill:none;stroke:#000000;stroke-width:1.04999995;stroke-linecap:butt;stroke-linejoin:miter;stroke-miterlimit:4;stroke-opacity:1;stroke-dasharray:none" /><path
       inkscape:connector-curvature="0"
       id="path3771"
       d="m 54.250024,99.366381 8.97063,0"
       style="fill:none;stroke:#000000;stroke-width:1.04999995;stroke-linecap:butt;stroke-linejoin:miter;stroke-miterlimit:4;stroke-opacity:1;stroke-dasharray:none" /><path
       inkscape:connector-curvature="0"
       id="path3777"
       d="m 58.429317,99.295476 0,-35.219744"
       style="fill:none;stroke:#000000;stroke-width:0.80000001px;stroke-linecap:butt;stroke-linejoin:miter;stroke-opacity:1"
       sodipodi:nodetypes="cc" /><path
       inkscape:connector-curvature="0"
       id="path3779"
       d="m 53.577854,70.254484 9.702927,0"
       style="fill:none;stroke:#000000;stroke-width:0.80000001px;stroke-linecap:butt;stroke-linejoin:miter;stroke-opacity:1" /><path
       inkscape:connector-curvature="0"
       id="path3781"
       d="m 54.401684,69.293348 7.551806,0"
       style="fill:none;stroke:#000000;stroke-width:0.80000001px;stroke-linecap:butt;stroke-linejoin:miter;stroke-opacity:1" /><path
       inkscape:connector-curvature="0"
       id="path3783"
       d="m 55.042444,68.1949 6.316056,0"
       style="fill:none;stroke:#000000;stroke-width:0.80000001px;stroke-linecap:butt;stroke-linejoin:miter;stroke-opacity:1" /><path
       inkscape:connector-curvature="0"
       id="path3785"
       d="m 55.912045,67.14223 4.622621,0"
       style="fill:none;stroke:#000000;stroke-width:0.80000001px;stroke-linecap:butt;stroke-linejoin:miter;stroke-opacity:1" /><path
       inkscape:connector-curvature="0"
       id="path3787"
       d="m 56.507036,66.089551 3.38687,0"
       style="fill:none;stroke:#000000;stroke-width:0.80000001px;stroke-linecap:butt;stroke-linejoin:miter;stroke-opacity:1" /><path
       sodipodi:nodetypes="cc"
       style="fill:none;stroke:#000000;stroke-width:0.80000001px;stroke-linecap:butt;stroke-linejoin:miter;stroke-opacity:1"
       d="m 56.873184,64.970115 2.608805,0"
       id="path3789"
       inkscape:connector-curvature="0" /><path
       style="fill:none;stroke:#000000;stroke-width:0.80000001px;stroke-linecap:butt;stroke-linejoin:miter;stroke-opacity:1"
       d="m 138.85122,72.066826 9.70293,0"
       id="path3791"
       inkscape:connector-curvature="0" /><path
       style="fill:none;stroke:#000000;stroke-width:0.80000001px;stroke-linecap:butt;stroke-linejoin:miter;stroke-opacity:1"
       d="m 139.67505,71.10569 7.55181,0"
       id="path3793"
       inkscape:connector-curvature="0" /><path
       style="fill:none;stroke:#000000;stroke-width:0.80000001px;stroke-linecap:butt;stroke-linejoin:miter;stroke-opacity:1"
       d="m 140.31581,70.007242 6.31606,0"
       id="path3795"
       inkscape:connector-curvature="0" /><path
       style="fill:none;stroke:#000000;stroke-width:0.80000001px;stroke-linecap:butt;stroke-linejoin:miter;stroke-opacity:1"
       d="m 141.18541,68.954572 4.62262,0"
       id="path3797"
       inkscape:connector-curvature="0" /><path
       style="fill:none;stroke:#000000;stroke-width:0.80000001px;stroke-linecap:butt;stroke-linejoin:miter;stroke-opacity:1"
       d="m 141.7804,67.901893 3.38687,0"
       id="path3799"
       inkscape:connector-curvature="0" /><path
       inkscape:connector-curvature="0"
       id="path3801"
       d="m 142.14655,66.782457 2.60881,0"
       style="fill:none;stroke:#000000;stroke-width:0.80000001px;stroke-linecap:butt;stroke-linejoin:miter;stroke-opacity:1"
       sodipodi:nodetypes="cc" /><path
       inkscape:connector-curvature="0"
       id="path3803"
       d="m 202.63887,73.149014 9.70293,0"
       style="fill:none;stroke:#000000;stroke-width:0.80000001px;stroke-linecap:butt;stroke-linejoin:miter;stroke-opacity:1" /><path
       inkscape:connector-curvature="0"
       id="path3805"
       d="m 203.4627,72.187878 7.55181,0"
       style="fill:none;stroke:#000000;stroke-width:0.80000001px;stroke-linecap:butt;stroke-linejoin:miter;stroke-opacity:1" /><path
       inkscape:connector-curvature="0"
       id="path3807"
       d="m 204.10346,71.08943 6.31606,0"
       style="fill:none;stroke:#000000;stroke-width:0.80000001px;stroke-linecap:butt;stroke-linejoin:miter;stroke-opacity:1" /><path
       inkscape:connector-curvature="0"
       id="path3809"
       d="m 204.97306,70.03676 4.62262,0"
       style="fill:none;stroke:#000000;stroke-width:0.80000001px;stroke-linecap:butt;stroke-linejoin:miter;stroke-opacity:1" /><path
       inkscape:connector-curvature="0"
       id="path3811"
       d="m 205.56805,68.984081 3.38687,0"
       style="fill:none;stroke:#000000;stroke-width:0.80000001px;stroke-linecap:butt;stroke-linejoin:miter;stroke-opacity:1" /><path
       sodipodi:nodetypes="cc"
       style="fill:none;stroke:#000000;stroke-width:0.80000001px;stroke-linecap:butt;stroke-linejoin:miter;stroke-opacity:1"
       d="m 205.9342,67.864645 2.60881,0"
       id="path3813"
       inkscape:connector-curvature="0" /><path
       inkscape:connector-curvature="0"
       id="path3851"
       d="m 58.737627,104.53686 0,21.05176 20.653673,0 2.013815,4.39377 0.823833,-8.23833 2.013815,7.78065 1.739204,-7.23143 1.739203,6.95682 1.373056,-7.04835 1.373054,3.4784 34.85945,0"
       style="fill:none;stroke:#000000;stroke-width:1.04999995;stroke-linecap:butt;stroke-linejoin:miter;stroke-miterlimit:4;stroke-opacity:1;stroke-dasharray:none"
       sodipodi:nodetypes="ccccccccccc" /><path
       inkscape:connector-curvature="0"
       id="path3855"
       d="m 125.89994,141.3624 0,-29.90363"
       style="fill:none;stroke:#000000;stroke-width:1.04999995;stroke-linecap:butt;stroke-linejoin:miter;stroke-miterlimit:4;stroke-opacity:1;stroke-dasharray:none" /><path
       sodipodi:nodetypes="cccccccccccc"
       inkscape:connector-curvature="0"
       id="path3857"
       d="m 126.20541,129.32328 17.21724,12.29803 0,14.68316 -2.58906,2.67029 5.89011,1.71048 -6.34319,2.15437 6.73155,1.88905 -6.79628,2.33016 3.10687,1.35925 0,10.9638 c 28.14451,0 38.09194,0.11838 64.1416,0.11838 l 0,-46.95479"
       style="fill:none;stroke:#000000;stroke-width:1.04999995;stroke-linecap:butt;stroke-linejoin:miter;stroke-miterlimit:4;stroke-opacity:1;stroke-dasharray:none" /><path
       inkscape:connector-curvature="0"
       id="path3859"
       d="m 197.44941,132.04199 18.62778,0"
       style="fill:none;stroke:#000000;stroke-width:1.04999995;stroke-linecap:butt;stroke-linejoin:miter;stroke-miterlimit:4;stroke-opacity:1;stroke-dasharray:none" /><path
       inkscape:connector-curvature="0"
       id="path3861"
       d="m 201.61438,128.19933 10.61829,0"
       style="fill:none;stroke:#000000;stroke-width:1.04999995;stroke-linecap:butt;stroke-linejoin:miter;stroke-miterlimit:4;stroke-opacity:1;stroke-dasharray:none"
       sodipodi:nodetypes="cc" /><path
       inkscape:connector-curvature="0"
       id="path3867"
       d="m 207.01503,128.03904 0,-61.308732"
       style="fill:none;stroke:#000000;stroke-width:1.04999995;stroke-linecap:butt;stroke-linejoin:miter;stroke-miterlimit:4;stroke-opacity:1;stroke-dasharray:none"
       sodipodi:nodetypes="cc" /><path
       inkscape:connector-curvature="0"
       id="path3869"
       d="m 125.91321,119.91333 16.84281,-11.99135"
       style="fill:none;stroke:#000000;stroke-width:1.04999995;stroke-linecap:butt;stroke-linejoin:miter;stroke-miterlimit:4;stroke-opacity:1;stroke-dasharray:none;marker-end:url(#Arrow1Mend)" /><path
       inkscape:connector-curvature="0"
       id="path4315"
       d="m 142.38988,108.56274 1.18998,-43.38856"
       style="fill:none;stroke:#000000;stroke-width:1.04999995;stroke-linecap:butt;stroke-linejoin:miter;stroke-miterlimit:4;stroke-opacity:1;stroke-dasharray:none" /><text
       transform="matrix(0.8,0,0,-0.8,0,226.77146)"
       sodipodi:linespacing="125%"
       id="text4887"
       y="153.71082"
       x="74.373848"
       style="font-size:14px;font-style:normal;font-variant:normal;font-weight:normal;font-stretch:normal;line-height:125%;letter-spacing:0px;word-spacing:0px;fill:#000000;fill-opacity:1;stroke:none;font-family:Nimbus Roman No9 L;-inkscape-font-specification:Nimbus Roman No9 L"
       xml:space="preserve"><tspan
         id="tspan4889"
         sodipodi:role="line" /></text>
<text
       xml:space="preserve"
       style="font-size:11.19999981px;font-style:normal;font-variant:normal;font-weight:normal;font-stretch:normal;line-height:125%;letter-spacing:0px;word-spacing:0px;fill:#000000;fill-opacity:1;stroke:none;font-family:Nimbus Roman No9 L;-inkscape-font-specification:Nimbus Roman No9 L"
       x="78.372131"
       y="-136.70209"
       id="text5287"
       sodipodi:linespacing="125%"
       transform="scale(1,-1)"><tspan
         sodipodi:role="line"
         id="tspan5289"
         x="78.372131"
         y="-136.70209">R<tspan
   dy="2.3301528"
   id="tspan5293"
   style="font-size:8.80000019px">B</tspan></tspan></text>
<text
       transform="scale(1,-1)"
       sodipodi:linespacing="125%"
       id="text5295"
       y="-128.88396"
       x="219.0065"
       style="font-size:11.19999981px;font-style:normal;font-variant:normal;font-weight:normal;font-stretch:normal;line-height:125%;letter-spacing:0px;word-spacing:0px;fill:#000000;fill-opacity:1;stroke:none;font-family:Nimbus Roman No9 L;-inkscape-font-specification:Nimbus Roman No9 L"
       xml:space="preserve"><tspan
         dy="0 2.1968889 0 0 -1.8307409"
         y="-128.88396"
         x="219.0065"
         id="tspan5297"
         sodipodi:role="line">Vcc = 12V</tspan></text>
<text
       transform="scale(1,-1)"
       sodipodi:linespacing="125%"
       id="text5566"
       y="-80.20089"
       x="22.324869"
       style="font-size:10.35832787px;font-style:normal;font-variant:normal;font-weight:normal;font-stretch:normal;line-height:125%;letter-spacing:0px;word-spacing:0px;fill:#000000;fill-opacity:1;stroke:none;font-family:Nimbus Roman No9 L;-inkscape-font-specification:Nimbus Roman No9 L"
       xml:space="preserve"><tspan
         y="-80.20089"
         x="22.324869"
         id="tspan5568"
         sodipodi:role="line"><tspan
           style="font-size:8.13868618px"
           id="tspan5570"
           dy="0 2.1550434"><tspan
   style="font-size:10.35832787px"
   id="tspan5572">V</tspan>BB</tspan></tspan></text>
<path
       style="fill:none;stroke:#000000;stroke-width:1.04999995;stroke-linecap:butt;stroke-linejoin:miter;stroke-miterlimit:4;stroke-opacity:1;stroke-dasharray:none;marker-end:url(#Arrow1Mend)"
       d="m 199.75113,122.11022 17.75818,19.58893"
       id="path3940"
       inkscape:connector-curvature="0" /><path
       inkscape:connector-curvature="0"
       id="path4128"
       d="m 52.033318,94.392408 17.75818,19.588932"
       style="fill:none;stroke:#000000;stroke-width:1.04999995;stroke-linecap:butt;stroke-linejoin:miter;stroke-miterlimit:4;stroke-opacity:1;stroke-dasharray:none;marker-end:url(#Arrow1Mend)" /><text
       xml:space="preserve"
       style="font-size:10.39999962px;font-style:normal;font-variant:normal;font-weight:normal;font-stretch:normal;line-height:125%;letter-spacing:0px;word-spacing:0px;fill:#000000;fill-opacity:1;stroke:none;font-family:Nimbus Roman No9 L;-inkscape-font-specification:Nimbus Roman No9 L"
       x="19.119854"
       y="-67.052589"
       id="text4130"
       sodipodi:linespacing="125%"
       transform="scale(1,-1)"><tspan
         sodipodi:role="line"
         id="tspan4132"
         x="19.119854"
         y="-67.052589">(0-3)V</tspan></text>
<text
       xml:space="preserve"
       style="font-size:9.87467957px;font-style:normal;font-variant:normal;font-weight:normal;font-stretch:normal;line-height:125%;letter-spacing:0px;word-spacing:0px;fill:#000000;fill-opacity:1;stroke:none;font-family:Nimbus Roman No9 L;-inkscape-font-specification:Nimbus Roman No9 L"
       x="70.85051"
       y="-110.32777"
       id="text4134"
       sodipodi:linespacing="125%"
       transform="scale(1,-1)"><tspan
         sodipodi:role="line"
         id="tspan4136"
         x="70.85051"
         y="-110.32777">10k</tspan></text>
<g
       transform="matrix(0.94948844,0,0,-0.94948844,-126.41109,238.15246)"
       ns0:text="$\\Omega$"
       ns0:preamble="/home/sriranga/Desktop/Prism-Basic-Electronics/package.tex"
       id="g4195"><defs
         id="defs4197"><g
           id="g4199"><symbol
             style="overflow:visible"
             overflow="visible"
             id="textext-646f8e2b-0"><path
               inkscape:connector-curvature="0"
               style="stroke:none"
               d=""
               id="path4202" /></symbol><symbol
             style="overflow:visible"
             overflow="visible"
             id="textext-646f8e2b-1"><path
               inkscape:connector-curvature="0"
               style="stroke:none"
               d="m 7.125,0 0,-1.53125 -0.1875,0 c -0.015625,0.515625 -0.3125,0.625 -0.765625,0.625 l -1.359375,0 0.046875,-0.328125 c 1.265625,-0.375 2.03125,-1.359375 2.03125,-2.6875 C 6.890625,-5.71875 5.4375,-6.75 3.734375,-6.75 c -1.6875,0 -3.203125,1.078125 -3.203125,2.875 0,1.21875 0.796875,2.40625 2.046875,2.640625 l 0.015625,0.328125 -1.328125,0 c -0.484375,0 -0.75,-0.09375 -0.796875,-0.625 l -0.171875,0 0,1.53125 2.71875,0 -0.09375,-1.46875 c -1.03125,-0.375 -1.25,-1.40625 -1.25,-2.390625 0,-1.21875 0.65625,-2.546875 2.046875,-2.546875 1.4375,0 2.046875,1.375 2.046875,2.625 0,0.953125 -0.21875,1.984375 -1.25,2.3125 L 4.390625,0 z m 0,0"
               id="path4205" /></symbol></g></defs><g
         id="textext-646f8e2b-2"><g
           style="fill:#000000;fill-opacity:1"
           id="g4208"><use
             height="283.46457"
             width="496.06299"
             xlink:href="#textext-646f8e2b-1"
             x="223.43201"
             y="134.765"
             id="use4210" /></g></g></g><text
       transform="scale(1,-1)"
       sodipodi:linespacing="125%"
       id="text4277"
       y="-108.39568"
       x="111.69656"
       style="font-size:10.39999962px;font-style:normal;font-variant:normal;font-weight:normal;font-stretch:normal;line-height:125%;letter-spacing:0px;word-spacing:0px;fill:#000000;fill-opacity:1;stroke:none;font-family:Nimbus Roman No9 L;-inkscape-font-specification:Nimbus Roman No9 L"
       xml:space="preserve"><tspan
         y="-108.39568"
         x="111.69656"
         id="tspan4279"
         sodipodi:role="line">I<tspan
   dx="7.6192945e-09"
   dy="2.0712469"
   id="tspan4281"
   style="font-size:8px">B</tspan></tspan></text>
<path
       inkscape:connector-curvature="0"
       id="path4283"
       d="m 108.37986,119.73026 12.81519,0"
       style="fill:none;stroke:#000000;stroke-width:1;stroke-linecap:butt;stroke-linejoin:miter;stroke-miterlimit:4;stroke-opacity:1;stroke-dasharray:none;marker-end:url(#Arrow1Mend)" /><text
       transform="scale(1,-1)"
       sodipodi:linespacing="125%"
       id="text4657"
       y="-160.12044"
       x="124.61182"
       style="font-size:11.19999981px;font-style:normal;font-variant:normal;font-weight:normal;font-stretch:normal;line-height:125%;letter-spacing:0px;word-spacing:0px;fill:#000000;fill-opacity:1;stroke:none;font-family:Nimbus Roman No9 L;-inkscape-font-specification:Nimbus Roman No9 L"
       xml:space="preserve"><tspan
         y="-160.12044"
         x="124.61182"
         id="tspan4659"
         sodipodi:role="line">R<tspan
   dx="0.36614817"
   dy="2.5630374"
   id="tspan4663"
   style="font-size:8px">C</tspan></tspan></text>
<g
       id="g4665"
       ns0:preamble="/home/sriranga/Desktop/Prism-Basic-Electronics/package.tex"
       ns0:text="$\\Omega$"
       transform="matrix(0.94948844,0,0,-0.94948844,-50.629387,289.4132)"><defs
         id="defs4667"><g
           id="g4669"><symbol
             id="symbol4671"
             overflow="visible"
             style="overflow:visible"><path
               id="path4673"
               d=""
               style="stroke:none"
               inkscape:connector-curvature="0" /></symbol><symbol
             id="symbol4675"
             overflow="visible"
             style="overflow:visible"><path
               id="path4677"
               d="m 7.125,0 0,-1.53125 -0.1875,0 c -0.015625,0.515625 -0.3125,0.625 -0.765625,0.625 l -1.359375,0 0.046875,-0.328125 c 1.265625,-0.375 2.03125,-1.359375 2.03125,-2.6875 C 6.890625,-5.71875 5.4375,-6.75 3.734375,-6.75 c -1.6875,0 -3.203125,1.078125 -3.203125,2.875 0,1.21875 0.796875,2.40625 2.046875,2.640625 l 0.015625,0.328125 -1.328125,0 c -0.484375,0 -0.75,-0.09375 -0.796875,-0.625 l -0.171875,0 0,1.53125 2.71875,0 -0.09375,-1.46875 c -1.03125,-0.375 -1.25,-1.40625 -1.25,-2.390625 0,-1.21875 0.65625,-2.546875 2.046875,-2.546875 1.4375,0 2.046875,1.375 2.046875,2.625 0,0.953125 -0.21875,1.984375 -1.25,2.3125 L 4.390625,0 z m 0,0"
               style="stroke:none"
               inkscape:connector-curvature="0" /></symbol></g></defs><g
         id="g4679"><g
           id="g4681"
           style="fill:#000000;fill-opacity:1"><use
             id="use4683"
             y="134.765"
             x="223.43201"
             xlink:href="#textext-646f8e2b-1"
             width="496.06299"
             height="283.46457" /></g></g></g><text
       transform="scale(1,-1)"
       sodipodi:linespacing="125%"
       id="text4685"
       y="-161.8373"
       x="150.85306"
       style="font-size:10.39999962px;font-style:normal;font-variant:normal;font-weight:normal;font-stretch:normal;line-height:125%;letter-spacing:0px;word-spacing:0px;fill:#000000;fill-opacity:1;stroke:none;font-family:Nimbus Roman No9 L;-inkscape-font-specification:Nimbus Roman No9 L"
       xml:space="preserve"><tspan
         y="-161.8373"
         x="150.85306"
         id="tspan4687"
         sodipodi:role="line">1k</tspan></text>
<path
       sodipodi:nodetypes="cc"
       style="fill:none;stroke:#000000;stroke-width:1;stroke-linecap:butt;stroke-linejoin:miter;stroke-miterlimit:4;stroke-opacity:1;stroke-dasharray:none;marker-end:url(#Arrow1Mend)"
       d="m 155.44845,156.17085 0,-16.84282"
       id="path4689"
       inkscape:connector-curvature="0" /><text
       transform="scale(1,-1)"
       sodipodi:linespacing="125%"
       id="text4691"
       y="-142.43146"
       x="159.82368"
       style="font-size:10.39999962px;font-style:normal;font-variant:normal;font-weight:normal;font-stretch:normal;line-height:125%;letter-spacing:0px;word-spacing:0px;fill:#000000;fill-opacity:1;stroke:none;font-family:Nimbus Roman No9 L;-inkscape-font-specification:Nimbus Roman No9 L"
       xml:space="preserve"><tspan
         y="-142.43146"
         x="159.82368"
         id="tspan4693"
         sodipodi:role="line">I<tspan
   dx="0.36614817"
   dy="2.0138147"
   id="tspan4695"
   style="font-size:8px">C</tspan></tspan></text>
<g
       id="g4787"
       ns0:preamble="/home/sriranga/Desktop/Prism-Basic-Electronics/package.tex"
       ns0:text="$\\beta=100$"
       transform="matrix(1,0,0,-1,-83.847933,254.60597)"><defs
         id="defs4789"><g
           id="g4791"><symbol
             id="textext-73e46c4e-0"
             overflow="visible"
             style="overflow:visible"><path
               id="path4794"
               d=""
               style="stroke:none"
               inkscape:connector-curvature="0" /></symbol><symbol
             id="textext-73e46c4e-1"
             overflow="visible"
             style="overflow:visible"><path
               id="path4797"
               d="m 5.03125,-5.390625 c 0,-0.78125 -0.640625,-1.140625 -1.46875,-1.140625 -1.046875,0 -2.078125,0.703125 -2.359375,1.71875 L -0.3125,0.75 C -0.484375,1.375 -0.875,1.9375 -0.96875,2.0625 l 0.890625,0 c 0.015625,0 0.171875,-0.078125 0.5,-1.328125 L 0.75,-0.546875 l 0.015625,0 c 0,0.015625 0.328125,0.71875 1.34375,0.71875 1.484375,0 2.5,-1.125 2.5,-2.265625 0,-1.25 -1.125,-1.4375 -1.140625,-1.4375 l 0,-0.03125 c 0.015625,0 1.5625,-0.359375 1.5625,-1.828125 z M 4.25,-5.40625 c 0,0.46875 -0.265625,1.59375 -1.0625,1.59375 -0.203125,0 -0.359375,-0.046875 -0.53125,-0.046875 -0.265625,0 -0.453125,0.234375 -0.453125,0.40625 0,0.109375 0.078125,0.203125 0.265625,0.203125 0.265625,0 0.34375,-0.046875 0.578125,-0.046875 0.484375,0 0.71875,0.53125 0.71875,1.09375 0,1 -0.609375,1.90625 -1.671875,1.90625 -0.671875,0 -1.109375,-0.34375 -1.109375,-0.921875 0,-0.109375 0.015625,-0.25 0.046875,-0.390625 L 1.9375,-4.8125 C 2.109375,-5.453125 2.578125,-6.25 3.46875,-6.25 4.03125,-6.25 4.25,-5.859375 4.25,-5.40625 z m 0,0"
               style="stroke:none"
               inkscape:connector-curvature="0" /></symbol><symbol
             id="textext-73e46c4e-2"
             overflow="visible"
             style="overflow:visible"><path
               id="path4800"
               d=""
               style="stroke:none"
               inkscape:connector-curvature="0" /></symbol><symbol
             id="textext-73e46c4e-3"
             overflow="visible"
             style="overflow:visible"><path
               id="path4803"
               d="m 5.71875,-3.296875 0,-0.546875 -5.09375,0 0,0.546875 z m 0,2.03125 0,-0.5625 -5.09375,0 0,0.5625 z m 0,0"
               style="stroke:none"
               inkscape:connector-curvature="0" /></symbol><symbol
             id="textext-73e46c4e-4"
             overflow="visible"
             style="overflow:visible"><path
               id="path4806"
               d=""
               style="stroke:none"
               inkscape:connector-curvature="0" /></symbol><symbol
             id="textext-73e46c4e-5"
             overflow="visible"
             style="overflow:visible"><path
               id="path4809"
               d="m 2.90625,-6.734375 -1.796875,0.90625 0,0.140625 C 1.21875,-5.734375 1.328125,-5.78125 1.375,-5.796875 1.5625,-5.875 1.71875,-5.90625 1.828125,-5.90625 2.03125,-5.90625 2.125,-5.765625 2.125,-5.4375 l 0,4.515625 c 0,0.328125 -0.078125,0.546875 -0.234375,0.640625 -0.15625,0.09375 -0.296875,0.125 -0.71875,0.125 l 0,0.15625 2.75,0 0,-0.15625 c -0.78125,0 -0.9375,-0.109375 -0.9375,-0.578125 l 0,-5.984375 z m 0,0"
               style="stroke:none"
               inkscape:connector-curvature="0" /></symbol><symbol
             id="textext-73e46c4e-6"
             overflow="visible"
             style="overflow:visible"><path
               id="path4812"
               d="m 2.53125,-6.734375 c -0.546875,0 -0.96875,0.171875 -1.328125,0.515625 -0.578125,0.5625 -0.96875,1.703125 -0.96875,2.875 0,1.078125 0.328125,2.25 0.796875,2.8125 0.375,0.4375 0.875,0.671875 1.46875,0.671875 0.5,0 0.921875,-0.171875 1.28125,-0.515625 C 4.359375,-0.921875 4.75,-2.078125 4.75,-3.296875 c 0,-2.03125 -0.90625,-3.4375 -2.21875,-3.4375 z m -0.03125,0.25 c 0.84375,0 1.28125,1.125 1.28125,3.21875 0,2.078125 -0.4375,3.140625 -1.28125,3.140625 -0.859375,0 -1.296875,-1.0625 -1.296875,-3.140625 0,-2.109375 0.4375,-3.21875 1.296875,-3.21875 z m 0,0"
               style="stroke:none"
               inkscape:connector-curvature="0" /></symbol></g></defs><g
         id="textext-73e46c4e-7"><g
           id="g4815"
           style="fill:#000000;fill-opacity:1"><use
             id="use4817"
             y="134.765"
             x="223.43201"
             xlink:href="#textext-73e46c4e-1"
             width="496.06299"
             height="283.46457" /></g><g
           id="g4819"
           style="fill:#000000;fill-opacity:1"><use
             id="use4821"
             y="134.765"
             x="231.25999"
             xlink:href="#textext-73e46c4e-3"
             width="496.06299"
             height="283.46457" /></g><g
           id="g4823"
           style="fill:#000000;fill-opacity:1"><use
             id="use4825"
             y="134.765"
             x="240.364"
             xlink:href="#textext-73e46c4e-5"
             width="496.06299"
             height="283.46457" /><use
             id="use4827"
             y="134.765"
             x="245.34531"
             xlink:href="#textext-73e46c4e-6"
             width="496.06299"
             height="283.46457" /><use
             id="use4829"
             y="134.765"
             x="250.3266"
             xlink:href="#textext-73e46c4e-6"
             width="496.06299"
             height="283.46457" /></g></g></g></g></svg>