<?xml version="1.0" encoding="UTF-8" standalone="no"?>
<!-- Created with Inkscape (http://www.inkscape.org/) -->

<svg
   xmlns:ns0="http://www.iki.fi/pav/software/textext/"
   xmlns:dc="http://purl.org/dc/elements/1.1/"
   xmlns:cc="http://creativecommons.org/ns#"
   xmlns:rdf="http://www.w3.org/1999/02/22-rdf-syntax-ns#"
   xmlns:svg="http://www.w3.org/2000/svg"
   xmlns="http://www.w3.org/2000/svg"
   xmlns:xlink="http://www.w3.org/1999/xlink"
   xmlns:sodipodi="http://sodipodi.sourceforge.net/DTD/sodipodi-0.dtd"
   xmlns:inkscape="http://www.inkscape.org/namespaces/inkscape"
   id="svg2"
   version="1.1"
   inkscape:version="0.48.4 r9939"
   width="354.33069"
   height="283.46457"
   xml:space="preserve"
   sodipodi:docname="15.eps"><sodipodi:namedview
     pagecolor="#ffffff"
     bordercolor="#666666"
     borderopacity="1"
     objecttolerance="10"
     gridtolerance="10"
     guidetolerance="10"
     inkscape:pageopacity="0"
     inkscape:pageshadow="2"
     inkscape:window-width="1024"
     inkscape:window-height="744"
     id="namedview4"
     showgrid="false"
     units="cm"
     inkscape:zoom="1.4812955"
     inkscape:cx="142.46752"
     inkscape:cy="152.00484"
     inkscape:window-x="0"
     inkscape:window-y="24"
     inkscape:window-maximized="1"
     inkscape:current-layer="g10" /><metadata
     id="metadata8"><rdf:RDF><cc:Work
         rdf:about=""><dc:format>image/svg+xml</dc:format><dc:type
           rdf:resource="http://purl.org/dc/dcmitype/StillImage" /><dc:title></dc:title></cc:Work></rdf:RDF></metadata><defs
     id="defs6"><marker
       inkscape:stockid="Arrow1Mend"
       orient="auto"
       refY="0.0"
       refX="0.0"
       id="Arrow1Mend"
       style="overflow:visible;"><path
         id="path3776"
         d="M 0.0,0.0 L 5.0,-5.0 L -12.5,0.0 L 5.0,5.0 L 0.0,0.0 z "
         style="fill-rule:evenodd;stroke:#000000;stroke-width:1.0pt;"
         transform="scale(0.4) rotate(180) translate(10,0)" /></marker></defs><g
     id="g10"
     inkscape:groupmode="layer"
     inkscape:label="ink_ext_XXXXXX"
     transform="matrix(1.25,0,0,-1.25,0,283.46387)"><path
       style="fill:none;stroke:#000000;stroke-width:1.3125;stroke-linecap:butt;stroke-linejoin:miter;stroke-opacity:1;marker-end:url(#Arrow1Mend);stroke-miterlimit:4;stroke-dasharray:none"
       d="m 39.154914,251.0605 252.144146,0"
       id="path2993"
       inkscape:connector-curvature="0"
       transform="matrix(0.8,0,0,-0.8,0,226.7711)" /><path
       inkscape:connector-curvature="0"
       id="path4207"
       d="m 61.926505,8.8114394 0,187.9674406"
       style="fill:none;stroke:#000000;stroke-width:1.04999995;stroke-linecap:butt;stroke-linejoin:miter;stroke-miterlimit:4;stroke-opacity:1;stroke-dasharray:none;marker-end:url(#Arrow1Mend)"
       sodipodi:nodetypes="cc" /><path
       style="fill:none;stroke:#000000;stroke-width:1px;stroke-linecap:butt;stroke-linejoin:miter;stroke-opacity:1"
       d="m 105.81953,247.85385 0,6.07576"
       id="path4209"
       inkscape:connector-curvature="0"
       transform="matrix(0.8,0,0,-0.8,0,226.7711)" /><path
       style="fill:none;stroke:#000000;stroke-width:1.3125;stroke-linecap:butt;stroke-linejoin:miter;stroke-opacity:1;stroke-miterlimit:4;stroke-dasharray:none"
       d="M 165.16552,59.106783 C 160.97644,157.16624 137.40658,227.48342 106.92797,250.52694 149.97833,228.11793 181.98701,146.73623 187.12394,62.448287"
       id="path4211"
       inkscape:connector-curvature="0"
       transform="matrix(0.8,0,0,-0.8,0,226.7711)"
       sodipodi:nodetypes="ccc" /><path
       style="fill:none;stroke:#000000;stroke-width:1.3125;stroke-linecap:butt;stroke-linejoin:miter;stroke-opacity:1;stroke-miterlimit:4;stroke-dasharray:none"
       d="m 108.36004,250.04958 c 36.26065,-1.3963 86.78517,-73.80655 101.19968,-184.737156"
       id="path4213"
       inkscape:connector-curvature="0"
       transform="matrix(0.8,0,0,-0.8,0,226.7711)"
       sodipodi:nodetypes="cc" /><text
       xml:space="preserve"
       style="font-size:11.19999981px;font-style:normal;font-variant:normal;font-weight:normal;font-stretch:normal;line-height:125%;letter-spacing:0px;word-spacing:0px;fill:#000000;fill-opacity:1;stroke:none;font-family:Nimbus Roman No9 L;-inkscape-font-specification:Nimbus Roman No9 L"
       x="53.0821"
       y="-15.656755"
       id="text4215"
       sodipodi:linespacing="125%"
       transform="scale(1,-1)"><tspan
         sodipodi:role="line"
         id="tspan4217"
         x="53.0821"
         y="-15.656755">0</tspan></text>
<text
       xml:space="preserve"
       style="font-size:11.19999981px;font-style:normal;font-variant:normal;font-weight:normal;font-stretch:normal;line-height:125%;letter-spacing:0px;word-spacing:0px;fill:#000000;fill-opacity:1;stroke:none;font-family:Nimbus Roman No9 L;-inkscape-font-specification:Nimbus Roman No9 L"
       x="235.62341"
       y="-22.912579"
       id="text4219"
       sodipodi:linespacing="125%"
       transform="scale(1,-1)"><tspan
         sodipodi:role="line"
         id="tspan4221"
         x="235.62341"
         y="-22.912579"
         dy="0 0 0 -2.6731992"
         dx="0 0 0 0.38188559">V<tspan
   style="font-size:8px"
   id="tspan4223"
   dy="2.6731992"
   dx="-0.38188559">BE</tspan>(V)</tspan></text>
<text
       xml:space="preserve"
       style="font-size:11.19999981px;font-style:normal;font-variant:normal;font-weight:normal;font-stretch:normal;line-height:125%;letter-spacing:0px;word-spacing:0px;fill:#000000;fill-opacity:1;stroke:none;font-family:Nimbus Roman No9 L;-inkscape-font-specification:Nimbus Roman No9 L"
       x="136.49129"
       y="93.157158"
       id="text4225"
       sodipodi:linespacing="125%"
       transform="matrix(0.20467852,0.97882925,0.97882925,-0.20467852,0,0)"><tspan
         sodipodi:role="line"
         id="tspan4227"
         x="136.49129"
         y="93.157158"
         dy="0 0 0 -1.6202034">V<tspan
   style="font-size:8px"
   id="tspan4229"
   dy="1.6202034">CE</tspan> = 0V</tspan></text>
<text
       transform="matrix(0.20467852,0.97882925,0.97882925,-0.20467852,0,0)"
       sodipodi:linespacing="125%"
       id="text4231"
       y="109.63692"
       x="139.93727"
       style="font-size:11.19999981px;font-style:normal;font-variant:normal;font-weight:normal;font-stretch:normal;line-height:125%;letter-spacing:0px;word-spacing:0px;fill:#000000;fill-opacity:1;stroke:none;font-family:Nimbus Roman No9 L;-inkscape-font-specification:Nimbus Roman No9 L"
       xml:space="preserve"><tspan
         dy="0 0 0 -1.6202034"
         y="109.63692"
         x="139.93727"
         id="tspan4233"
         sodipodi:role="line">V<tspan
   dy="1.6202034"
   id="tspan4235"
   style="font-size:8px">CE</tspan> = 4V</tspan></text>
<text
       xml:space="preserve"
       style="font-size:11.19999981px;font-style:normal;font-variant:normal;font-weight:normal;font-stretch:normal;line-height:125%;letter-spacing:0px;word-spacing:0px;fill:#000000;fill-opacity:1;stroke:none;font-family:Nimbus Roman No9 L;-inkscape-font-specification:Nimbus Roman No9 L"
       x="143.13394"
       y="124.92435"
       id="text4237"
       sodipodi:linespacing="125%"
       transform="matrix(0.20467852,0.97882925,0.97882925,-0.20467852,0,0)"><tspan
         sodipodi:role="line"
         id="tspan4239"
         x="143.13394"
         y="124.92435"
         dy="0 0 0 -1.6202034">V<tspan
   style="font-size:8px"
   id="tspan4241"
   dy="1.6202034">CE</tspan> = 8V</tspan></text>
<text
       xml:space="preserve"
       style="font-size:11.19999981px;font-style:normal;font-variant:normal;font-weight:normal;font-stretch:normal;line-height:125%;letter-spacing:0px;word-spacing:0px;fill:#000000;fill-opacity:1;stroke:none;font-family:Nimbus Roman No9 L;-inkscape-font-specification:Nimbus Roman No9 L"
       x="79.050316"
       y="-15.274876"
       id="text4243"
       sodipodi:linespacing="125%"
       transform="scale(1,-1)"><tspan
         sodipodi:role="line"
         id="tspan4245"
         x="79.050316"
         y="-15.274876">V</tspan></text>
<g
       transform="matrix(0.7280046,0,0,-0.7280046,-77.476372,111.89191)"
       ns0:text="$\\gamma$"
       ns0:preamble="/home/sriranga/Desktop/Prism-Basic-Electronics/package.tex"
       id="g4278"><defs
         id="defs4280"><g
           id="g4282"><symbol
             style="overflow:visible"
             overflow="visible"
             id="textext-6f28f082-0"><path
               inkscape:connector-curvature="0"
               style="stroke:none"
               d=""
               id="path4285" /></symbol><symbol
             style="overflow:visible"
             overflow="visible"
             id="textext-6f28f082-1"><path
               inkscape:connector-curvature="0"
               style="stroke:none"
               d="M 5.296875,-4.375 4.5625,-4.234375 c -0.453125,1.078125 -1,2.125 -1.6875,3.078125 0.03125,-0.984375 0.109375,-3.234375 -1.3125,-3.234375 -0.671875,0 -1.53125,0.890625 -1.53125,1.484375 0,0.03125 0.015625,0.0625 0.046875,0.0625 0.21875,0 0.203125,-0.84375 1.171875,-0.84375 1.046875,0 1.09375,2.03125 1.09375,2.765625 0,0.25 -0.015625,0.484375 -0.015625,0.734375 C 2,0.25 1.1875,1.25 1.1875,1.796875 c 0,0.1875 0.078125,0.265625 0.265625,0.265625 0.828125,0 0.984375,-1.6875 1.25,-2.265625 0.171875,-0.34375 0.59375,-0.84375 0.8125,-1.171875 0.65625,-0.9375 1.375,-1.921875 1.78125,-3 z m 0,0"
               id="path4288" /></symbol></g></defs><g
         id="textext-6f28f082-2"><g
           style="fill:#000000;fill-opacity:1"
           id="g4291"><use
             height="283.46457"
             width="354.33069"
             xlink:href="#textext-6f28f082-1"
             x="223.43201"
             y="134.765"
             id="use4293" /></g></g></g><text
       transform="scale(1,-1)"
       sodipodi:linespacing="125%"
       id="text4334"
       y="-203.29457"
       x="46.445827"
       style="font-size:11.19999981px;font-style:normal;font-variant:normal;font-weight:normal;font-stretch:normal;line-height:125%;letter-spacing:0px;word-spacing:0px;fill:#000000;fill-opacity:1;stroke:none;font-family:Nimbus Roman No9 L;-inkscape-font-specification:Nimbus Roman No9 L"
       xml:space="preserve"><tspan
         y="-203.29457"
         x="46.445827"
         id="tspan4336"
         sodipodi:role="line">I<tspan
   dy="1.8902372"
   id="tspan4338"
   style="font-size:8px">B</tspan></tspan></text>
<g
       id="g4384"
       ns0:preamble="/home/sriranga/Desktop/Prism-Basic-Electronics/package.tex"
       ns0:text="$\\mu$"
       transform="matrix(1,0,0,-1,-162.83044,339.53055)"><defs
         id="defs4386"><g
           id="g4388"><symbol
             id="textext-aca91b7a-0"
             overflow="visible"
             style="overflow:visible"><path
               id="path4391"
               d=""
               style="stroke:none"
               inkscape:connector-curvature="0" /></symbol><symbol
             id="textext-aca91b7a-1"
             overflow="visible"
             style="overflow:visible"><path
               id="path4394"
               d="m 4.9375,-0.765625 c 0,-0.0625 -0.015625,-0.09375 -0.046875,-0.09375 C 4.75,-0.859375 4.75,-0.265625 4.21875,-0.265625 4.0625,-0.265625 4,-0.40625 4,-0.59375 c 0,-0.25 0.109375,-0.625 0.203125,-1.03125 L 4.90625,-4.390625 4.03125,-4.25 l -0.796875,3 C 3.21875,-1.203125 2.625,-0.375 2.03125,-0.375 c -0.578125,0 -0.75,-0.515625 -0.75,-0.90625 0,-0.109375 0.015625,-0.21875 0.03125,-0.3125 l 0.71875,-2.796875 -0.75,0.125 L 0.203125,0 c -0.21875,0.8125 -0.609375,1.890625 -0.6875,2.0625 l 0.875,0 0.640625,-2.484375 c 0,0 0.046875,0.53125 0.765625,0.53125 0.796875,0 1.28125,-0.78125 1.390625,-0.90625 -0.015625,0.078125 -0.03125,0.15625 -0.03125,0.21875 0,0.65625 0.609375,0.6875 0.78125,0.6875 l 0.03125,0 c 0.6875,0 0.96875,-0.640625 0.96875,-0.875 z m 0,0"
               style="stroke:none"
               inkscape:connector-curvature="0" /></symbol></g></defs><g
         id="textext-aca91b7a-2"><g
           id="g4397"
           style="fill:#000000;fill-opacity:1"><use
             id="use4399"
             y="134.765"
             x="223.43201"
             xlink:href="#textext-aca91b7a-1"
             width="354.33069"
             height="283.46457" /></g></g></g><text
       xml:space="preserve"
       style="font-size:11.19999981px;font-style:normal;font-variant:normal;font-weight:normal;font-stretch:normal;line-height:125%;letter-spacing:0px;word-spacing:0px;fill:#000000;fill-opacity:1;stroke:none;font-family:Nimbus Roman No9 L;-inkscape-font-specification:Nimbus Roman No9 L"
       x="56.167053"
       y="-202.7545"
       id="text4453"
       sodipodi:linespacing="125%"
       transform="scale(1,-1)"><tspan
         sodipodi:role="line"
         id="tspan4455"
         x="56.167053"
         y="-202.7545">(  A)</tspan></text>
</g></svg>