<?xml version="1.0" encoding="UTF-8" standalone="no"?>
<!-- Created with Inkscape (http://www.inkscape.org/) -->

<svg
   xmlns:ns0="http://www.iki.fi/pav/software/textext/"
   xmlns:dc="http://purl.org/dc/elements/1.1/"
   xmlns:cc="http://creativecommons.org/ns#"
   xmlns:rdf="http://www.w3.org/1999/02/22-rdf-syntax-ns#"
   xmlns:svg="http://www.w3.org/2000/svg"
   xmlns="http://www.w3.org/2000/svg"
   xmlns:xlink="http://www.w3.org/1999/xlink"
   xmlns:sodipodi="http://sodipodi.sourceforge.net/DTD/sodipodi-0.dtd"
   xmlns:inkscape="http://www.inkscape.org/namespaces/inkscape"
   id="svg2"
   version="1.1"
   inkscape:version="0.48.4 r9939"
   width="425.19684"
   height="354.33069"
   xml:space="preserve"
   sodipodi:docname="19.eps"><sodipodi:namedview
     pagecolor="#ffffff"
     bordercolor="#666666"
     borderopacity="1"
     objecttolerance="10"
     gridtolerance="10"
     guidetolerance="10"
     inkscape:pageopacity="0"
     inkscape:pageshadow="2"
     inkscape:window-width="1024"
     inkscape:window-height="744"
     id="namedview4"
     showgrid="false"
     units="cm"
     inkscape:zoom="1.4374348"
     inkscape:cx="203.83214"
     inkscape:cy="176.57799"
     inkscape:window-x="0"
     inkscape:window-y="24"
     inkscape:window-maximized="1"
     inkscape:current-layer="g10"
     showguides="true"
     inkscape:guide-bbox="true" /><metadata
     id="metadata8"><rdf:RDF><cc:Work
         rdf:about=""><dc:format>image/svg+xml</dc:format><dc:type
           rdf:resource="http://purl.org/dc/dcmitype/StillImage" /><dc:title></dc:title></cc:Work></rdf:RDF></metadata><defs
     id="defs6"><marker
       inkscape:stockid="Arrow1Mend"
       orient="auto"
       refY="0.0"
       refX="0.0"
       id="Arrow1Mend"
       style="overflow:visible;"><path
         id="path3778"
         d="M 0.0,0.0 L 5.0,-5.0 L -12.5,0.0 L 5.0,5.0 L 0.0,0.0 z "
         style="fill-rule:evenodd;stroke:#000000;stroke-width:1.0pt;"
         transform="scale(0.4) rotate(180) translate(10,0)" /></marker></defs><g
     id="g10"
     inkscape:groupmode="layer"
     inkscape:label="ink_ext_XXXXXX"
     transform="matrix(1.25,0,0,-1.25,0,354.32986)"><path
       style="fill:none;stroke:#000000;stroke-width:1.04999995;stroke-linecap:butt;stroke-linejoin:miter;stroke-miterlimit:4;stroke-opacity:1;stroke-dasharray:none;marker-end:url(#Arrow1Mend)"
       d="m 27.708581,36.598386 259.735169,0"
       id="path2993"
       inkscape:connector-curvature="0" /><path
       style="fill:none;stroke:#000000;stroke-width:1.04999995;stroke-linecap:butt;stroke-linejoin:miter;stroke-miterlimit:4;stroke-opacity:1;stroke-dasharray:none;marker-end:url(#Arrow1Mend)"
       d="m 39.121186,24.792242 0,216.839508"
       id="path3763"
       inkscape:connector-curvature="0" /><path
       style="fill:none;stroke:#000000;stroke-width:1.04999995;stroke-linecap:butt;stroke-linejoin:miter;stroke-miterlimit:4;stroke-opacity:1;stroke-dasharray:none"
       d="M 264.15176,52.314754 45.707073,40.905538 C 40.33468,39.328658 39.743297,37.75177 39.86333,36.17489 c 1.787536,0.472904 0.126182,21.14664 9.461298,24.766344 L 267.3733,85.397114"
       id="path4391"
       inkscape:connector-curvature="0"
       sodipodi:nodetypes="ccccc" /><path
       style="fill:none;stroke:#000000;stroke-width:1.04999995;stroke-linecap:butt;stroke-linejoin:miter;stroke-miterlimit:4;stroke-opacity:1;stroke-dasharray:none"
       d="m 39.317956,36.401618 10.128662,41.691163 c 2.059336,2.117744 3.330645,3.298165 5.022556,3.762493 L 265.8214,117.70903"
       id="path4393"
       inkscape:connector-curvature="0"
       sodipodi:nodetypes="cccc" /><path
       style="fill:none;stroke:#000000;stroke-width:1.04999995;stroke-linecap:butt;stroke-linejoin:miter;stroke-miterlimit:4;stroke-opacity:1;stroke-dasharray:none"
       d="M 270.12807,153.87275 61.159322,108.22233 c -3.450458,-0.84594 -3.563946,-2.80411 -4.986747,-4.41042 L 39.514725,37.582234 59.772051,118.59345 c 1.367279,2.05924 3.088287,3.03099 5.716191,4.18978 l 205.820448,50.76643"
       id="path4395"
       inkscape:connector-curvature="0"
       sodipodi:nodetypes="ccccccc" /><path
       style="fill:none;stroke:#000000;stroke-width:1.04999995;stroke-linecap:butt;stroke-linejoin:miter;stroke-miterlimit:4;stroke-opacity:1;stroke-dasharray:none"
       d="M 270.52161,197.94902 69.030088,137.34415 c -3.16452,-2.0108 -5.489286,-4.12235 -6.272741,-7.22282 L 38.727648,36.20485 67.412408,146.92774 c 9.795944,24.08001 18.230168,26.34111 26.714252,30.28407 l 172.52956,62.65927"
       id="path4397"
       inkscape:connector-curvature="0"
       sodipodi:nodetypes="ccccccc" /><path
       style="fill:none;stroke:#000000;stroke-width:1;stroke-linecap:butt;stroke-linejoin:miter;stroke-miterlimit:4;stroke-opacity:1;stroke-dasharray:4, 4;stroke-dashoffset:0"
       d="m 16.76663,162.78933 134.96264,0"
       id="path4399"
       inkscape:connector-curvature="0" /><path
       inkscape:connector-curvature="0"
       id="path4401"
       d="m 39.585056,144.07625 112.144214,0"
       style="fill:none;stroke:#000000;stroke-width:1;stroke-linecap:butt;stroke-linejoin:miter;stroke-miterlimit:4;stroke-opacity:1;stroke-dasharray:4, 4;stroke-dashoffset:0"
       sodipodi:nodetypes="cc" /><path
       style="fill:none;stroke:#000000;stroke-width:1;stroke-linecap:butt;stroke-linejoin:miter;stroke-miterlimit:4;stroke-opacity:1;stroke-dasharray:4, 4;stroke-dashoffset:0"
       d="m 16.76663,128.2849 134.96264,0"
       id="path4403"
       inkscape:connector-curvature="0" /><path
       style="fill:none;stroke:#000000;stroke-width:0.80000001px;stroke-linecap:butt;stroke-linejoin:miter;stroke-opacity:1;marker-end:url(#Arrow1Mend)"
       d="m 16.76663,151.18624 0,11.04654"
       id="path4405"
       inkscape:connector-curvature="0"
       sodipodi:nodetypes="cc" /><path
       inkscape:connector-curvature="0"
       id="path4589"
       d="m 16.76663,139.17758 0,-9.66711"
       style="fill:none;stroke:#000000;stroke-width:0.80000001px;stroke-linecap:butt;stroke-linejoin:miter;stroke-opacity:1;marker-end:url(#Arrow1Mend)"
       sodipodi:nodetypes="cc" /><path
       sodipodi:type="arc"
       style="fill:#000000;stroke:#000000;stroke-width:1.25;stroke-miterlimit:4;stroke-opacity:1;stroke-dasharray:none;stroke-dashoffset:0"
       id="path4591"
       sodipodi:cx="228.18427"
       sodipodi:cy="156.5826"
       sodipodi:rx="2.0870512"
       sodipodi:ry="2.0870512"
       d="m 230.27132,156.5826 a 2.0870512,2.0870512 0 1 1 -4.17411,0 2.0870512,2.0870512 0 1 1 4.17411,0 z"
       transform="matrix(1.0308641,0,0,-1.0308641,-82.732446,306.1865)" /><path
       style="fill:none;stroke:#000000;stroke-width:1;stroke-linecap:butt;stroke-linejoin:miter;stroke-miterlimit:4;stroke-opacity:1;stroke-dasharray:4, 4;stroke-dashoffset:0;marker-end:none"
       d="m 152.46017,247.92837 0,-209.362296"
       id="path4593"
       inkscape:connector-curvature="0" /><text
       xml:space="preserve"
       style="font-size:11.19999981px;font-style:normal;font-variant:normal;font-weight:normal;font-stretch:normal;line-height:125%;letter-spacing:0px;word-spacing:0px;fill:#000000;fill-opacity:1;stroke:none;font-family:Nimbus Roman No9 L;-inkscape-font-specification:Nimbus Roman No9 L"
       x="26.527977"
       y="-247.92836"
       id="text4959"
       sodipodi:linespacing="125%"
       transform="scale(1,-1)"><tspan
         sodipodi:role="line"
         id="tspan4961"
         x="26.527977"
         y="-247.92836"
         dy="0 2.1644597 -2.1644597"
         dx="0 0.19676907 -0.19676907">Ic(mA)</tspan></text>
<text
       xml:space="preserve"
       style="font-size:11.19999981px;font-style:normal;font-variant:normal;font-weight:normal;font-stretch:normal;line-height:125%;letter-spacing:0px;word-spacing:0px;fill:#000000;fill-opacity:1;stroke:none;font-family:Nimbus Roman No9 L;-inkscape-font-specification:Nimbus Roman No9 L"
       x="31.793413"
       y="-165.01552"
       id="text4963"
       sodipodi:linespacing="125%"
       transform="scale(1,-1)"><tspan
         sodipodi:role="line"
         id="tspan4965"
         x="31.793413"
         y="-165.01552"
         style="font-size:9.60000038px">5</tspan></text>
<text
       xml:space="preserve"
       style="font-size:11.19999981px;font-style:normal;font-variant:normal;font-weight:normal;font-stretch:normal;line-height:125%;letter-spacing:0px;word-spacing:0px;fill:#000000;fill-opacity:1;stroke:none;font-family:Nimbus Roman No9 L;-inkscape-font-specification:Nimbus Roman No9 L"
       x="25.671398"
       y="-141.64055"
       id="text4967"
       sodipodi:linespacing="125%"
       transform="scale(1,-1)"><tspan
         sodipodi:role="line"
         id="tspan4969"
         x="25.671398"
         y="-141.64055"
         style="font-size:9.60000038px">4.2</tspan></text>
<text
       xml:space="preserve"
       style="font-size:11.19999981px;font-style:normal;font-variant:normal;font-weight:normal;font-stretch:normal;line-height:125%;letter-spacing:0px;word-spacing:0px;fill:#000000;fill-opacity:1;stroke:none;font-family:Nimbus Roman No9 L;-inkscape-font-specification:Nimbus Roman No9 L"
       x="25.601746"
       y="-119.65695"
       id="text4971"
       sodipodi:linespacing="125%"
       transform="scale(1,-1)"><tspan
         sodipodi:role="line"
         id="tspan4973"
         x="25.601746"
         y="-119.65695"
         style="font-size:9.60000038px">3.5</tspan></text>
<text
       xml:space="preserve"
       style="font-size:11.19999981px;font-style:normal;font-variant:normal;font-weight:normal;font-stretch:normal;line-height:125%;letter-spacing:0px;word-spacing:0px;fill:#000000;fill-opacity:1;stroke:none;font-family:Nimbus Roman No9 L;-inkscape-font-specification:Nimbus Roman No9 L"
       x="154.79022"
       y="-149.43221"
       id="text4975"
       sodipodi:linespacing="125%"
       transform="scale(1,-1)"><tspan
         sodipodi:role="line"
         id="tspan4977"
         x="154.79022"
         y="-149.43221">Q</tspan></text>
<text
       xml:space="preserve"
       style="font-size:11.19999981px;font-style:normal;font-variant:normal;font-weight:normal;font-stretch:normal;line-height:125%;letter-spacing:0px;word-spacing:0px;fill:#000000;fill-opacity:1;stroke:none;font-family:Nimbus Roman No9 L;-inkscape-font-specification:Nimbus Roman No9 L"
       x="31.447203"
       y="-26.75993"
       id="text4979"
       sodipodi:linespacing="125%"
       transform="scale(1,-1)"><tspan
         sodipodi:role="line"
         id="tspan4981"
         x="31.447203"
         y="-26.75993">0</tspan></text>
<text
       xml:space="preserve"
       style="font-size:11.19999981px;font-style:normal;font-variant:normal;font-weight:normal;font-stretch:normal;line-height:125%;letter-spacing:0px;word-spacing:0px;fill:#000000;fill-opacity:1;stroke:none;font-family:Nimbus Roman No9 L;-inkscape-font-specification:Nimbus Roman No9 L"
       x="132.80661"
       y="-24.765686"
       id="text4983"
       sodipodi:linespacing="125%"
       transform="scale(1,-1)"><tspan
         sodipodi:role="line"
         id="tspan4985"
         x="132.80661"
         y="-24.765686"
         dy="0 0 0 -2.5044608"
         dx="0 0 0 0.27827349">V<tspan
   style="font-size:8.80000019px"
   id="tspan4987"
   dy="2.5044608"
   dx="-0.27827349">CE</tspan>=5V</tspan></text>
<text
       transform="scale(1,-1)"
       sodipodi:linespacing="125%"
       id="text4989"
       y="-34.226986"
       x="289.75046"
       style="font-size:11.19999981px;font-style:normal;font-variant:normal;font-weight:normal;font-stretch:normal;line-height:125%;letter-spacing:0px;word-spacing:0px;fill:#000000;fill-opacity:1;stroke:none;font-family:Nimbus Roman No9 L;-inkscape-font-specification:Nimbus Roman No9 L"
       xml:space="preserve"><tspan
         dx="0 0 0 0.27827349"
         dy="0 0 0 -2.5044608"
         y="-34.226986"
         x="289.75046"
         id="tspan4991"
         sodipodi:role="line">V<tspan
   dx="-0.27827349"
   dy="2.5044608"
   id="tspan4993"
   style="font-size:8.80000019px">CE</tspan>=(V)</tspan></text>
<g
       transform="matrix(1,0,0,-1,-217.0815,276.79205)"
       ns0:text="$\\Delta$"
       ns0:preamble="/home/sriranga/Desktop/Prism-Basic-Electronics/package.tex"
       id="g5036"><defs
         id="defs5038"><g
           id="g5040"><symbol
             style="overflow:visible"
             overflow="visible"
             id="textext-d65f2acd-0"><path
               inkscape:connector-curvature="0"
               style="stroke:none"
               d=""
               id="path5043" /></symbol><symbol
             style="overflow:visible"
             overflow="visible"
             id="textext-d65f2acd-1"><path
               inkscape:connector-curvature="0"
               style="stroke:none"
               d="M 6.15625,0 3.375,-6.75 3.203125,-6.75 0.234375,0 z M 5,-0.421875 l -4.109375,0 2.140625,-4.84375 z m 0,0"
               id="path5046" /></symbol></g></defs><g
         id="textext-d65f2acd-2"><g
           style="fill:#000000;fill-opacity:1"
           id="g5049"><use
             height="354.33069"
             width="425.19684"
             xlink:href="#textext-d65f2acd-1"
             x="223.43201"
             y="134.765"
             id="use5051" /></g></g></g><text
       transform="scale(1,-1)"
       sodipodi:linespacing="125%"
       id="text5102"
       y="-141.96823"
       x="13.344435"
       style="font-size:11.19999981px;font-style:normal;font-variant:normal;font-weight:normal;font-stretch:normal;line-height:125%;letter-spacing:0px;word-spacing:0px;fill:#000000;fill-opacity:1;stroke:none;font-family:Nimbus Roman No9 L;-inkscape-font-specification:Nimbus Roman No9 L"
       xml:space="preserve"><tspan
         dy="0 1.9676907"
         y="-141.96823"
         x="13.344435"
         id="tspan5104"
         sodipodi:role="line">Ic</tspan></text>
<g
       id="g5385"
       transform="matrix(0.96213502,0.27257331,-0.27257331,0.96213502,-36.456805,-86.849028)"><text
         xml:space="preserve"
         style="font-size:11.19999981px;font-style:normal;font-variant:normal;font-weight:normal;font-stretch:normal;line-height:125%;letter-spacing:0px;word-spacing:0px;fill:#000000;fill-opacity:1;stroke:none;font-family:Nimbus Roman No9 L;-inkscape-font-specification:Nimbus Roman No9 L"
         x="343.84436"
         y="-235.4971"
         id="text5106"
         sodipodi:linespacing="125%"
         transform="scale(1,-1)"><tspan
           sodipodi:role="line"
           id="tspan5108"
           x="343.84436"
           y="-235.4971"
           dx="0 0 -0.13913675 0 0 0 0 0.83482045"
           dy="0 0 -2.6435976">I<tspan
   style="font-size:8.80000019px"
   id="tspan5110"
   dy="2.6435976"
   dx="0.13913675">B</tspan>=50  A</tspan></text>
<g
         transform="matrix(1,0,0,-1,149.14967,372.01139)"
         ns0:text="$\\mu$"
         ns0:preamble="/home/sriranga/Desktop/Prism-Basic-Electronics/package.tex"
         id="g5168"><defs
           id="defs5170"><g
             id="g5172"><symbol
               style="overflow:visible"
               overflow="visible"
               id="textext-aca91b7a-0"><path
                 inkscape:connector-curvature="0"
                 style="stroke:none"
                 d=""
                 id="path5175" /></symbol><symbol
               style="overflow:visible"
               overflow="visible"
               id="textext-aca91b7a-1"><path
                 inkscape:connector-curvature="0"
                 style="stroke:none"
                 d="m 4.9375,-0.765625 c 0,-0.0625 -0.015625,-0.09375 -0.046875,-0.09375 C 4.75,-0.859375 4.75,-0.265625 4.21875,-0.265625 4.0625,-0.265625 4,-0.40625 4,-0.59375 c 0,-0.25 0.109375,-0.625 0.203125,-1.03125 L 4.90625,-4.390625 4.03125,-4.25 l -0.796875,3 C 3.21875,-1.203125 2.625,-0.375 2.03125,-0.375 c -0.578125,0 -0.75,-0.515625 -0.75,-0.90625 0,-0.109375 0.015625,-0.21875 0.03125,-0.3125 l 0.71875,-2.796875 -0.75,0.125 L 0.203125,0 c -0.21875,0.8125 -0.609375,1.890625 -0.6875,2.0625 l 0.875,0 0.640625,-2.484375 c 0,0 0.046875,0.53125 0.765625,0.53125 0.796875,0 1.28125,-0.78125 1.390625,-0.90625 -0.015625,0.078125 -0.03125,0.15625 -0.03125,0.21875 0,0.65625 0.609375,0.6875 0.78125,0.6875 l 0.03125,0 c 0.6875,0 0.96875,-0.640625 0.96875,-0.875 z m 0,0"
                 id="path5178" /></symbol></g></defs><g
           id="textext-aca91b7a-2"><g
             style="fill:#000000;fill-opacity:1"
             id="g5181"><use
               height="354.33069"
               width="425.19684"
               xlink:href="#textext-aca91b7a-1"
               x="223.43201"
               y="134.765"
               id="use5183" /></g></g></g></g><g
       id="g5400"
       transform="translate(-14.4,0)"><g
         id="g5475"
         transform="matrix(0.9649595,0.26239887,-0.26239887,0.9649595,-29.148026,-97.415594)"><text
           xml:space="preserve"
           style="font-size:11.19999981px;font-style:normal;font-variant:normal;font-weight:normal;font-stretch:normal;line-height:125%;letter-spacing:0px;word-spacing:0px;fill:#000000;fill-opacity:1;stroke:none;font-family:Nimbus Roman No9 L;-inkscape-font-specification:Nimbus Roman No9 L"
           x="343.84436"
           y="-206.69699"
           id="text5249"
           sodipodi:linespacing="125%"
           transform="scale(1,-1)"><tspan
             sodipodi:role="line"
             id="tspan5251"
             x="343.84436"
             y="-206.69699"
             dx="0 0 -0.13913675 0 0 0 0 0.83482045"
             dy="0 0 -2.6435976">I<tspan
   style="font-size:8.80000019px"
   id="tspan5253"
   dy="2.6435976"
   dx="0.13913675">B</tspan>=40  A</tspan></text>
<g
           transform="matrix(1,0,0,-1,149.14967,343.21139)"
           ns0:text="$\\mu$"
           ns0:preamble="/home/sriranga/Desktop/Prism-Basic-Electronics/package.tex"
           id="g5255"><defs
             id="defs5257"><g
               id="g5259"><symbol
                 style="overflow:visible"
                 overflow="visible"
                 id="symbol5261"><path
                   inkscape:connector-curvature="0"
                   style="stroke:none"
                   d=""
                   id="path5263" /></symbol><symbol
                 style="overflow:visible"
                 overflow="visible"
                 id="symbol5265"><path
                   inkscape:connector-curvature="0"
                   style="stroke:none"
                   d="m 4.9375,-0.765625 c 0,-0.0625 -0.015625,-0.09375 -0.046875,-0.09375 C 4.75,-0.859375 4.75,-0.265625 4.21875,-0.265625 4.0625,-0.265625 4,-0.40625 4,-0.59375 c 0,-0.25 0.109375,-0.625 0.203125,-1.03125 L 4.90625,-4.390625 4.03125,-4.25 l -0.796875,3 C 3.21875,-1.203125 2.625,-0.375 2.03125,-0.375 c -0.578125,0 -0.75,-0.515625 -0.75,-0.90625 0,-0.109375 0.015625,-0.21875 0.03125,-0.3125 l 0.71875,-2.796875 -0.75,0.125 L 0.203125,0 c -0.21875,0.8125 -0.609375,1.890625 -0.6875,2.0625 l 0.875,0 0.640625,-2.484375 c 0,0 0.046875,0.53125 0.765625,0.53125 0.796875,0 1.28125,-0.78125 1.390625,-0.90625 -0.015625,0.078125 -0.03125,0.15625 -0.03125,0.21875 0,0.65625 0.609375,0.6875 0.78125,0.6875 l 0.03125,0 c 0.6875,0 0.96875,-0.640625 0.96875,-0.875 z m 0,0"
                   id="path5267" /></symbol></g></defs><g
             id="g5269"><g
               style="fill:#000000;fill-opacity:1"
               id="g5271"><use
                 height="354.33069"
                 width="425.19684"
                 xlink:href="#textext-aca91b7a-1"
                 x="223.43201"
                 y="134.765"
                 id="use5273" /></g></g></g></g></g><g
       id="g5415"
       transform="matrix(0.9701587,0.24247081,-0.24247081,0.9701587,-54.633811,-93.082632)"><text
         xml:space="preserve"
         style="font-size:11.19999981px;font-style:normal;font-variant:normal;font-weight:normal;font-stretch:normal;line-height:125%;letter-spacing:0px;word-spacing:0px;fill:#000000;fill-opacity:1;stroke:none;font-family:Nimbus Roman No9 L;-inkscape-font-specification:Nimbus Roman No9 L"
         x="343.84436"
         y="-184.29691"
         id="text5275"
         sodipodi:linespacing="125%"
         transform="scale(1,-1)"><tspan
           sodipodi:role="line"
           id="tspan5277"
           x="343.84436"
           y="-184.29691"
           dx="0 0 -0.13913675 0 0 0 0 0.83482045"
           dy="0 0 -2.6435976">I<tspan
   style="font-size:8.80000019px"
   id="tspan5279"
   dy="2.6435976"
   dx="0.13913675">B</tspan>=35  A</tspan></text>
<g
         transform="matrix(1,0,0,-1,149.14967,320.81139)"
         ns0:text="$\\mu$"
         ns0:preamble="/home/sriranga/Desktop/Prism-Basic-Electronics/package.tex"
         id="g5281"><defs
           id="defs5283"><g
             id="g5285"><symbol
               style="overflow:visible"
               overflow="visible"
               id="symbol5287"><path
                 inkscape:connector-curvature="0"
                 style="stroke:none"
                 d=""
                 id="path5289" /></symbol><symbol
               style="overflow:visible"
               overflow="visible"
               id="symbol5291"><path
                 inkscape:connector-curvature="0"
                 style="stroke:none"
                 d="m 4.9375,-0.765625 c 0,-0.0625 -0.015625,-0.09375 -0.046875,-0.09375 C 4.75,-0.859375 4.75,-0.265625 4.21875,-0.265625 4.0625,-0.265625 4,-0.40625 4,-0.59375 c 0,-0.25 0.109375,-0.625 0.203125,-1.03125 L 4.90625,-4.390625 4.03125,-4.25 l -0.796875,3 C 3.21875,-1.203125 2.625,-0.375 2.03125,-0.375 c -0.578125,0 -0.75,-0.515625 -0.75,-0.90625 0,-0.109375 0.015625,-0.21875 0.03125,-0.3125 l 0.71875,-2.796875 -0.75,0.125 L 0.203125,0 c -0.21875,0.8125 -0.609375,1.890625 -0.6875,2.0625 l 0.875,0 0.640625,-2.484375 c 0,0 0.046875,0.53125 0.765625,0.53125 0.796875,0 1.28125,-0.78125 1.390625,-0.90625 -0.015625,0.078125 -0.03125,0.15625 -0.03125,0.21875 0,0.65625 0.609375,0.6875 0.78125,0.6875 l 0.03125,0 c 0.6875,0 0.96875,-0.640625 0.96875,-0.875 z m 0,0"
                 id="path5293" /></symbol></g></defs><g
           id="g5295"><g
             style="fill:#000000;fill-opacity:1"
             id="g5297"><use
               height="354.33069"
               width="425.19684"
               xlink:href="#textext-aca91b7a-1"
               x="223.43201"
               y="134.765"
               id="use5299" /></g></g></g></g><g
       id="g5430"
       transform="matrix(0.97968987,0.20051875,-0.20051875,0.97968987,-70.918871,-78.413634)"><text
         transform="scale(1,-1)"
         sodipodi:linespacing="125%"
         id="text5301"
         y="-163.49683"
         x="343.84436"
         style="font-size:11.19999981px;font-style:normal;font-variant:normal;font-weight:normal;font-stretch:normal;line-height:125%;letter-spacing:0px;word-spacing:0px;fill:#000000;fill-opacity:1;stroke:none;font-family:Nimbus Roman No9 L;-inkscape-font-specification:Nimbus Roman No9 L"
         xml:space="preserve"><tspan
           dy="0 0 -2.6435976"
           dx="0 0 -0.13913675 0 0 0 0 0.83482045"
           y="-163.49683"
           x="343.84436"
           id="tspan5303"
           sodipodi:role="line">I<tspan
   dx="0.13913675"
   dy="2.6435976"
   id="tspan5305"
   style="font-size:8.80000019px">B</tspan>=30  A</tspan></text>
<g
         id="g5307"
         ns0:preamble="/home/sriranga/Desktop/Prism-Basic-Electronics/package.tex"
         ns0:text="$\\mu$"
         transform="matrix(1,0,0,-1,149.14967,300.01139)"><defs
           id="defs5309"><g
             id="g5311"><symbol
               id="symbol5313"
               overflow="visible"
               style="overflow:visible"><path
                 id="path5315"
                 d=""
                 style="stroke:none"
                 inkscape:connector-curvature="0" /></symbol><symbol
               id="symbol5317"
               overflow="visible"
               style="overflow:visible"><path
                 id="path5319"
                 d="m 4.9375,-0.765625 c 0,-0.0625 -0.015625,-0.09375 -0.046875,-0.09375 C 4.75,-0.859375 4.75,-0.265625 4.21875,-0.265625 4.0625,-0.265625 4,-0.40625 4,-0.59375 c 0,-0.25 0.109375,-0.625 0.203125,-1.03125 L 4.90625,-4.390625 4.03125,-4.25 l -0.796875,3 C 3.21875,-1.203125 2.625,-0.375 2.03125,-0.375 c -0.578125,0 -0.75,-0.515625 -0.75,-0.90625 0,-0.109375 0.015625,-0.21875 0.03125,-0.3125 l 0.71875,-2.796875 -0.75,0.125 L 0.203125,0 c -0.21875,0.8125 -0.609375,1.890625 -0.6875,2.0625 l 0.875,0 0.640625,-2.484375 c 0,0 0.046875,0.53125 0.765625,0.53125 0.796875,0 1.28125,-0.78125 1.390625,-0.90625 -0.015625,0.078125 -0.03125,0.15625 -0.03125,0.21875 0,0.65625 0.609375,0.6875 0.78125,0.6875 l 0.03125,0 c 0.6875,0 0.96875,-0.640625 0.96875,-0.875 z m 0,0"
                 style="stroke:none"
                 inkscape:connector-curvature="0" /></symbol></g></defs><g
           id="g5321"><g
             id="g5323"
             style="fill:#000000;fill-opacity:1"><use
               id="use5325"
               y="134.765"
               x="223.43201"
               xlink:href="#textext-aca91b7a-1"
               width="425.19684"
               height="354.33069" /></g></g></g></g><g
       id="g5445"
       transform="matrix(0.99365687,0.11245453,-0.11245453,0.99365687,-98.70077,-64.486164)"><text
         xml:space="preserve"
         style="font-size:11.19999981px;font-style:normal;font-variant:normal;font-weight:normal;font-stretch:normal;line-height:125%;letter-spacing:0px;word-spacing:0px;fill:#000000;fill-opacity:1;stroke:none;font-family:Nimbus Roman No9 L;-inkscape-font-specification:Nimbus Roman No9 L"
         x="343.84436"
         y="-144.29675"
         id="text5327"
         sodipodi:linespacing="125%"
         transform="scale(1,-1)"><tspan
           sodipodi:role="line"
           id="tspan5329"
           x="343.84436"
           y="-144.29675"
           dx="0 0 -0.13913675 0 0 0 0 0.83482045"
           dy="0 0 -2.6435976">I<tspan
   style="font-size:8.80000019px"
   id="tspan5331"
   dy="2.6435976"
   dx="0.13913675">B</tspan>=20  A</tspan></text>
<g
         transform="matrix(1,0,0,-1,149.14967,280.81139)"
         ns0:text="$\\mu$"
         ns0:preamble="/home/sriranga/Desktop/Prism-Basic-Electronics/package.tex"
         id="g5333"><defs
           id="defs5335"><g
             id="g5337"><symbol
               style="overflow:visible"
               overflow="visible"
               id="symbol5339"><path
                 inkscape:connector-curvature="0"
                 style="stroke:none"
                 d=""
                 id="path5341" /></symbol><symbol
               style="overflow:visible"
               overflow="visible"
               id="symbol5343"><path
                 inkscape:connector-curvature="0"
                 style="stroke:none"
                 d="m 4.9375,-0.765625 c 0,-0.0625 -0.015625,-0.09375 -0.046875,-0.09375 C 4.75,-0.859375 4.75,-0.265625 4.21875,-0.265625 4.0625,-0.265625 4,-0.40625 4,-0.59375 c 0,-0.25 0.109375,-0.625 0.203125,-1.03125 L 4.90625,-4.390625 4.03125,-4.25 l -0.796875,3 C 3.21875,-1.203125 2.625,-0.375 2.03125,-0.375 c -0.578125,0 -0.75,-0.515625 -0.75,-0.90625 0,-0.109375 0.015625,-0.21875 0.03125,-0.3125 l 0.71875,-2.796875 -0.75,0.125 L 0.203125,0 c -0.21875,0.8125 -0.609375,1.890625 -0.6875,2.0625 l 0.875,0 0.640625,-2.484375 c 0,0 0.046875,0.53125 0.765625,0.53125 0.796875,0 1.28125,-0.78125 1.390625,-0.90625 -0.015625,0.078125 -0.03125,0.15625 -0.03125,0.21875 0,0.65625 0.609375,0.6875 0.78125,0.6875 l 0.03125,0 c 0.6875,0 0.96875,-0.640625 0.96875,-0.875 z m 0,0"
                 id="path5345" /></symbol></g></defs><g
           id="g5347"><g
             style="fill:#000000;fill-opacity:1"
             id="g5349"><use
               height="354.33069"
               width="425.19684"
               xlink:href="#textext-aca91b7a-1"
               x="223.43201"
               y="134.765"
               id="use5351" /></g></g></g></g><g
       id="g5460"
       transform="matrix(0.99453301,0.10442269,-0.10442269,0.99453301,-100.10658,-67.328058)"
       inkscape:transform-center-x="-6.8869174"
       inkscape:transform-center-y="2.951536"><text
         transform="scale(1,-1)"
         sodipodi:linespacing="125%"
         id="text5353"
         y="-118.69669"
         x="343.84436"
         style="font-size:11.19999981px;font-style:normal;font-variant:normal;font-weight:normal;font-stretch:normal;line-height:125%;letter-spacing:0px;word-spacing:0px;fill:#000000;fill-opacity:1;stroke:none;font-family:Nimbus Roman No9 L;-inkscape-font-specification:Nimbus Roman No9 L"
         xml:space="preserve"><tspan
           dy="0 0 -2.6435976"
           dx="0 0 -0.13913675 0 0 0 0 0.83482045"
           y="-118.69669"
           x="343.84436"
           id="tspan5355"
           sodipodi:role="line">I<tspan
   dx="0.13913675"
   dy="2.6435976"
   id="tspan5357"
   style="font-size:8.80000019px">B</tspan>=10  A</tspan></text>
<g
         id="g5359"
         ns0:preamble="/home/sriranga/Desktop/Prism-Basic-Electronics/package.tex"
         ns0:text="$\\mu$"
         transform="matrix(1,0,0,-1,149.14967,255.21139)"><defs
           id="defs5361"><g
             id="g5363"><symbol
               id="symbol5365"
               overflow="visible"
               style="overflow:visible"><path
                 id="path5367"
                 d=""
                 style="stroke:none"
                 inkscape:connector-curvature="0" /></symbol><symbol
               id="symbol5369"
               overflow="visible"
               style="overflow:visible"><path
                 id="path5371"
                 d="m 4.9375,-0.765625 c 0,-0.0625 -0.015625,-0.09375 -0.046875,-0.09375 C 4.75,-0.859375 4.75,-0.265625 4.21875,-0.265625 4.0625,-0.265625 4,-0.40625 4,-0.59375 c 0,-0.25 0.109375,-0.625 0.203125,-1.03125 L 4.90625,-4.390625 4.03125,-4.25 l -0.796875,3 C 3.21875,-1.203125 2.625,-0.375 2.03125,-0.375 c -0.578125,0 -0.75,-0.515625 -0.75,-0.90625 0,-0.109375 0.015625,-0.21875 0.03125,-0.3125 l 0.71875,-2.796875 -0.75,0.125 L 0.203125,0 c -0.21875,0.8125 -0.609375,1.890625 -0.6875,2.0625 l 0.875,0 0.640625,-2.484375 c 0,0 0.046875,0.53125 0.765625,0.53125 0.796875,0 1.28125,-0.78125 1.390625,-0.90625 -0.015625,0.078125 -0.03125,0.15625 -0.03125,0.21875 0,0.65625 0.609375,0.6875 0.78125,0.6875 l 0.03125,0 c 0.6875,0 0.96875,-0.640625 0.96875,-0.875 z m 0,0"
                 style="stroke:none"
                 inkscape:connector-curvature="0" /></symbol></g></defs><g
           id="g5373"><g
             id="g5375"
             style="fill:#000000;fill-opacity:1"><use
               id="use5377"
               y="134.765"
               x="223.43201"
               xlink:href="#textext-aca91b7a-1"
               width="425.19684"
               height="354.33069" /></g></g></g></g><text
       transform="scale(1,-1)"
       sodipodi:linespacing="125%"
       id="text5379"
       y="-57.00042"
       x="243.25946"
       style="font-size:11.19999981px;font-style:normal;font-variant:normal;font-weight:normal;font-stretch:normal;line-height:125%;letter-spacing:0px;word-spacing:0px;fill:#000000;fill-opacity:1;stroke:none;font-family:Nimbus Roman No9 L;-inkscape-font-specification:Nimbus Roman No9 L"
       xml:space="preserve"><tspan
         dy="0 0 -2.6435976"
         dx="0 0 -0.13913675 1.1806145 0"
         y="-57.00042"
         x="243.25946"
         id="tspan5381"
         sodipodi:role="line">I<tspan
   dx="0.13913675"
   dy="2.6435976"
   id="tspan5383"
   style="font-size:8.80000019px">B</tspan>=0 </tspan></text>
</g></svg>