<?xml version="1.0" encoding="UTF-8" standalone="no"?>
<!-- Created with Inkscape (http://www.inkscape.org/) -->

<svg
   xmlns:ns0="http://www.iki.fi/pav/software/textext/"
   xmlns:dc="http://purl.org/dc/elements/1.1/"
   xmlns:cc="http://creativecommons.org/ns#"
   xmlns:rdf="http://www.w3.org/1999/02/22-rdf-syntax-ns#"
   xmlns:svg="http://www.w3.org/2000/svg"
   xmlns="http://www.w3.org/2000/svg"
   xmlns:xlink="http://www.w3.org/1999/xlink"
   xmlns:sodipodi="http://sodipodi.sourceforge.net/DTD/sodipodi-0.dtd"
   xmlns:inkscape="http://www.inkscape.org/namespaces/inkscape"
   id="svg2"
   version="1.1"
   inkscape:version="0.48.4 r9939"
   width="425.19684"
   height="354.33069"
   xml:space="preserve"
   sodipodi:docname="20.eps"><sodipodi:namedview
     pagecolor="#ffffff"
     bordercolor="#666666"
     borderopacity="1"
     objecttolerance="10"
     gridtolerance="10"
     guidetolerance="10"
     inkscape:pageopacity="0"
     inkscape:pageshadow="2"
     inkscape:window-width="1024"
     inkscape:window-height="744"
     id="namedview4"
     showgrid="false"
     units="cm"
     inkscape:zoom="1.3951374"
     inkscape:cx="246.43136"
     inkscape:cy="166.69707"
     inkscape:window-x="0"
     inkscape:window-y="24"
     inkscape:window-maximized="1"
     inkscape:current-layer="g10" /><metadata
     id="metadata8"><rdf:RDF><cc:Work
         rdf:about=""><dc:format>image/svg+xml</dc:format><dc:type
           rdf:resource="http://purl.org/dc/dcmitype/StillImage" /><dc:title></dc:title></cc:Work></rdf:RDF></metadata><defs
     id="defs6"><marker
       style="overflow:visible;"
       id="Arrow1Mend"
       refX="0.0"
       refY="0.0"
       orient="auto"
       inkscape:stockid="Arrow1Mend"><path
         transform="scale(0.4) rotate(180) translate(10,0)"
         style="fill-rule:evenodd;stroke:#000000;stroke-width:1.0pt;"
         d="M 0.0,0.0 L 5.0,-5.0 L -12.5,0.0 L 5.0,5.0 L 0.0,0.0 z "
         id="path3776" /></marker></defs><g
     transform="matrix(1.25,0,0,-1.25,0,354.33023)"
     inkscape:label="ink_ext_XXXXXX"
     inkscape:groupmode="layer"
     id="g10"><path
       transform="matrix(0.8,0,0,-0.8,0,283.46418)"
       inkscape:connector-curvature="0"
       id="path2993"
       d="m 36.696145,293.17045 330.265305,0"
       style="fill:none;stroke:#000000;stroke-width:1.31250000000000000;stroke-linecap:butt;stroke-linejoin:miter;stroke-opacity:1;stroke-miterlimit:4;stroke-dasharray:none;marker-end:url(#Arrow1Mend)" /><path
       transform="matrix(0.8,0,0,-0.8,0,283.46418)"
       inkscape:connector-curvature="0"
       id="path4207"
       d="m 63.287555,314.9754 0,-244.109139"
       style="fill:none;stroke:#000000;stroke-width:1.31250000000000000;stroke-linecap:butt;stroke-linejoin:miter;stroke-opacity:1;stroke-miterlimit:4;stroke-dasharray:none;marker-end:url(#Arrow1Mend)" /><path
       sodipodi:nodetypes="cccccc"
       transform="matrix(0.8,0,0,-0.8,0,283.46418)"
       inkscape:connector-curvature="0"
       id="path4391"
       d="m 299.9511,277.2156 -222.304184,5.85011 c -11.456896,2.70158 -9.342444,6.06422 -13.244846,9.39534 l 6.445293,-29.54147 c 1.894345,-2.01051 3.142685,-4.6693 5.868854,-4.8498 L 291.44185,221.90546"
       style="fill:none;stroke:#000000;stroke-width:1.3125;stroke-linecap:butt;stroke-linejoin:miter;stroke-miterlimit:4;stroke-opacity:1;stroke-dasharray:none" /><path
       sodipodi:nodetypes="ccccccc"
       transform="matrix(0.8,0,0,-0.8,0,283.46418)"
       inkscape:connector-curvature="0"
       id="path4393"
       d="m 289.18962,171.94192 -202.501624,41.4543 c -4.331806,1.04037 -6.206676,3.49437 -8.243337,7.17968 L 64.88304,292.63862 86.493644,180.21522 c 1.882528,-3.44352 2.890428,-7.26731 8.649365,-9.02543 L 287.18722,125.11273"
       style="fill:none;stroke:#000000;stroke-width:1.3125;stroke-linecap:butt;stroke-linejoin:miter;stroke-miterlimit:4;stroke-opacity:1;stroke-dasharray:none" /><path
       sodipodi:nodetypes="cccc"
       transform="matrix(0.8,0,0,-0.8,0,283.46418)"
       inkscape:connector-curvature="0"
       id="path4395"
       d="M 65.594062,289.24544 C 76.407426,237.30365 83.871664,179.18648 97.856388,135.7493 c 2.795212,-5.08063 7.187382,-7.14708 11.044882,-9.63467 L 287.71905,77.780028"
       style="fill:none;stroke:#000000;stroke-width:1.3125;stroke-linecap:butt;stroke-linejoin:miter;stroke-miterlimit:4;stroke-opacity:1;stroke-dasharray:none" /><path
       transform="matrix(0.8,0,0,-0.8,0,283.46418)"
       inkscape:connector-curvature="0"
       id="path4397"
       d="m 63.554026,146.36988 135.757414,0 0,145.91102"
       style="fill:none;stroke:#000000;stroke-width:1.25;stroke-linecap:butt;stroke-linejoin:miter;stroke-opacity:1;stroke-miterlimit:4;stroke-dasharray:5,5;stroke-dashoffset:0" /><path
       transform="matrix(0.8,0,0,-0.8,0,283.46418)"
       inkscape:connector-curvature="0"
       id="path4399"
       d="m 63.554026,189.99276 135.381354,0"
       style="fill:none;stroke:#000000;stroke-width:1.25;stroke-linecap:butt;stroke-linejoin:miter;stroke-opacity:1;stroke-miterlimit:4;stroke-dasharray:5,5;stroke-dashoffset:0" /><path
       transform="matrix(0.8,0,0,-0.8,0,283.46418)"
       inkscape:connector-curvature="0"
       id="path4401"
       d="m 62.801907,237.00018 136.885593,0"
       style="fill:none;stroke:#000000;stroke-width:1.25;stroke-linecap:butt;stroke-linejoin:miter;stroke-opacity:1;stroke-miterlimit:4;stroke-dasharray:5,5;stroke-dashoffset:0" /><path
       transform="matrix(0.95095433,0,0,-0.95095433,-48.817025,290.19153)"
       d="m 221.12289,167.3822 c 0,1.16827 -0.94707,2.11534 -2.11534,2.11534 -1.16826,0 -2.11533,-0.94707 -2.11533,-2.11534 0,-1.16826 0.94707,-2.11533 2.11533,-2.11533 1.16827,0 2.11534,0.94707 2.11534,2.11533 z"
       sodipodi:ry="2.1153338"
       sodipodi:rx="2.1153338"
       sodipodi:cy="167.3822"
       sodipodi:cx="219.00755"
       id="path4403"
       style="fill:#000000;stroke:#000000;stroke-width:1.25;stroke-miterlimit:4;stroke-opacity:1;stroke-dasharray:none;stroke-dashoffset:0"
       sodipodi:type="arc" /><text
       transform="scale(1,-1)"
       sodipodi:linespacing="125%"
       id="text4405"
       y="-136.43396"
       x="161.17902"
       style="font-size:11.19999981px;font-style:normal;font-variant:normal;font-weight:normal;font-stretch:normal;line-height:125%;letter-spacing:0px;word-spacing:0px;fill:#000000;fill-opacity:1;stroke:none;font-family:Nimbus Roman No9 L;-inkscape-font-specification:Nimbus Roman No9 L"
       xml:space="preserve"><tspan
         style="font-size:9.60000038px"
         y="-136.43396"
         x="161.17902"
         id="tspan4407"
         sodipodi:role="line">Q</tspan></text>
<text
       transform="scale(1,-1)"
       sodipodi:linespacing="125%"
       id="text4409"
       y="-231.87672"
       x="36.377045"
       style="font-size:10.39999962px;font-style:normal;font-variant:normal;font-weight:normal;font-stretch:normal;line-height:125%;letter-spacing:0px;word-spacing:0px;fill:#000000;fill-opacity:1;stroke:none;font-family:Nimbus Roman No9 L;-inkscape-font-specification:Nimbus Roman No9 L"
       xml:space="preserve"><tspan
         dx="0 0.21273127 -0.21273127"
         dy="0 2.1273129 -2.1273129"
         y="-231.87672"
         x="36.377045"
         id="tspan4411"
         sodipodi:role="line">Ic(mA)</tspan></text>
<text
       transform="scale(1,-1)"
       sodipodi:linespacing="125%"
       id="text4413"
       y="-162.73906"
       x="35.526123"
       style="font-size:10.39999962px;font-style:normal;font-variant:normal;font-weight:normal;font-stretch:normal;line-height:125%;letter-spacing:0px;word-spacing:0px;fill:#000000;fill-opacity:1;stroke:none;font-family:Nimbus Roman No9 L;-inkscape-font-specification:Nimbus Roman No9 L"
       xml:space="preserve"><tspan
         y="-162.73906"
         x="35.526123"
         id="tspan4415"
         sodipodi:role="line">9.5</tspan></text>
<text
       transform="scale(1,-1)"
       sodipodi:linespacing="125%"
       id="text4417"
       y="-126.14928"
       x="33.824272"
       style="font-size:10.39999962px;font-style:normal;font-variant:normal;font-weight:normal;font-stretch:normal;line-height:125%;letter-spacing:0px;word-spacing:0px;fill:#000000;fill-opacity:1;stroke:none;font-family:Nimbus Roman No9 L;-inkscape-font-specification:Nimbus Roman No9 L"
       xml:space="preserve"><tspan
         y="-126.14928"
         x="33.824272"
         id="tspan4419"
         sodipodi:role="line">6.2</tspan></text>
<text
       transform="scale(1,-1)"
       sodipodi:linespacing="125%"
       id="text4421"
       y="-90.82476"
       x="40.952404"
       style="font-size:10.39999962px;font-style:normal;font-variant:normal;font-weight:normal;font-stretch:normal;line-height:125%;letter-spacing:0px;word-spacing:0px;fill:#000000;fill-opacity:1;stroke:none;font-family:Nimbus Roman No9 L;-inkscape-font-specification:Nimbus Roman No9 L"
       xml:space="preserve"><tspan
         y="-90.82476"
         x="40.952404"
         id="tspan4423"
         sodipodi:role="line">3</tspan></text>
<text
       transform="scale(1,-1)"
       sodipodi:linespacing="125%"
       id="text4425"
       y="-38.519218"
       x="40.546932"
       style="font-size:10.39999962px;font-style:normal;font-variant:normal;font-weight:normal;font-stretch:normal;line-height:125%;letter-spacing:0px;word-spacing:0px;fill:#000000;fill-opacity:1;stroke:none;font-family:Nimbus Roman No9 L;-inkscape-font-specification:Nimbus Roman No9 L"
       xml:space="preserve"><tspan
         y="-38.519218"
         x="40.546932"
         id="tspan4427"
         sodipodi:role="line">0</tspan></text>
<text
       transform="scale(1,-1)"
       sodipodi:linespacing="125%"
       id="text4429"
       y="-38.418774"
       x="151.52629"
       style="font-size:10.39999962px;font-style:normal;font-variant:normal;font-weight:normal;font-stretch:normal;line-height:125%;letter-spacing:0px;word-spacing:0px;fill:#000000;fill-opacity:1;stroke:none;font-family:Nimbus Roman No9 L;-inkscape-font-specification:Nimbus Roman No9 L"
       xml:space="preserve"><tspan
         y="-38.418774"
         x="151.52629"
         id="tspan4431"
         sodipodi:role="line">V<tspan
   dy="1.8636158"
   id="tspan4433"
   style="font-size:8px">CE</tspan></tspan></text>
<g
       id="g4667"
       transform="matrix(0.97130338,0.23784394,-0.23784394,0.97130338,-88.705701,-94.636734)"><text
         xml:space="preserve"
         style="font-size:10.39999962px;font-style:normal;font-variant:normal;font-weight:normal;font-stretch:normal;line-height:125%;letter-spacing:0px;word-spacing:0px;fill:#000000;fill-opacity:1;stroke:none;font-family:Nimbus Roman No9 L;-inkscape-font-specification:Nimbus Roman No9 L"
         x="340.46826"
         y="-233.38165"
         id="text4435"
         sodipodi:linespacing="125%"
         transform="scale(1,-1)"><tspan
           sodipodi:role="line"
           id="tspan4437"
           x="340.46826"
           y="-233.38165"
           dx="0 0 0 0 0 0 0 0 1.0034854"
           dy="0 0 -2.1503258">I<tspan
   style="font-size:8px"
   id="tspan4439"
   dy="2.1503258">B</tspan>=100  A</tspan></text>
<g
         transform="matrix(1,0,0,-1,148.73087,370.05912)"
         ns0:text="$\\mu$"
         ns0:preamble="/home/sriranga/Desktop/Prism-Basic-Electronics/package.tex"
         id="g4478"><defs
           id="defs4480"><g
             id="g4482"><symbol
               style="overflow:visible"
               overflow="visible"
               id="textext-aca91b7a-0"><path
                 inkscape:connector-curvature="0"
                 style="stroke:none"
                 d=""
                 id="path4485" /></symbol><symbol
               style="overflow:visible"
               overflow="visible"
               id="textext-aca91b7a-1"><path
                 inkscape:connector-curvature="0"
                 style="stroke:none"
                 d="m 4.9375,-0.765625 c 0,-0.0625 -0.015625,-0.09375 -0.046875,-0.09375 C 4.75,-0.859375 4.75,-0.265625 4.21875,-0.265625 4.0625,-0.265625 4,-0.40625 4,-0.59375 c 0,-0.25 0.109375,-0.625 0.203125,-1.03125 L 4.90625,-4.390625 4.03125,-4.25 l -0.796875,3 C 3.21875,-1.203125 2.625,-0.375 2.03125,-0.375 c -0.578125,0 -0.75,-0.515625 -0.75,-0.90625 0,-0.109375 0.015625,-0.21875 0.03125,-0.3125 l 0.71875,-2.796875 -0.75,0.125 L 0.203125,0 c -0.21875,0.8125 -0.609375,1.890625 -0.6875,2.0625 l 0.875,0 0.640625,-2.484375 c 0,0 0.046875,0.53125 0.765625,0.53125 0.796875,0 1.28125,-0.78125 1.390625,-0.90625 -0.015625,0.078125 -0.03125,0.15625 -0.03125,0.21875 0,0.65625 0.609375,0.6875 0.78125,0.6875 l 0.03125,0 c 0.6875,0 0.96875,-0.640625 0.96875,-0.875 z m 0,0"
                 id="path4488" /></symbol></g></defs><g
           id="textext-aca91b7a-2"><g
             style="fill:#000000;fill-opacity:1"
             id="g4491"><use
               height="354.33069"
               width="425.19684"
               xlink:href="#textext-aca91b7a-1"
               x="223.43201"
               y="134.765"
               id="use4493" /></g></g></g></g><g
       id="g4682"
       transform="matrix(0.97834886,0.20696256,-0.20696256,0.97834886,-106.24504,-86.696034)"><text
         transform="scale(1,-1)"
         sodipodi:linespacing="125%"
         id="text4540"
         y="-198.18152"
         x="345.67374"
         style="font-size:10.39999962px;font-style:normal;font-variant:normal;font-weight:normal;font-stretch:normal;line-height:125%;letter-spacing:0px;word-spacing:0px;fill:#000000;fill-opacity:1;stroke:none;font-family:Nimbus Roman No9 L;-inkscape-font-specification:Nimbus Roman No9 L"
         xml:space="preserve"><tspan
           dy="0 0 -2.1503258"
           dx="0 0 0 0 0 0 0 1.0034854"
           y="-198.18152"
           x="345.67374"
           id="tspan4542"
           sodipodi:role="line">I<tspan
   dy="2.1503258"
   id="tspan4544"
   style="font-size:8px">B</tspan>=75  A</tspan></text>
<g
         id="g4546"
         ns0:preamble="/home/sriranga/Desktop/Prism-Basic-Electronics/package.tex"
         ns0:text="$\\mu$"
         transform="matrix(1,0,0,-1,148.73087,334.85912)"><defs
           id="defs4548"><g
             id="g4550"><symbol
               id="symbol4552"
               overflow="visible"
               style="overflow:visible"><path
                 id="path4554"
                 d=""
                 style="stroke:none"
                 inkscape:connector-curvature="0" /></symbol><symbol
               id="symbol4556"
               overflow="visible"
               style="overflow:visible"><path
                 id="path4558"
                 d="m 4.9375,-0.765625 c 0,-0.0625 -0.015625,-0.09375 -0.046875,-0.09375 C 4.75,-0.859375 4.75,-0.265625 4.21875,-0.265625 4.0625,-0.265625 4,-0.40625 4,-0.59375 c 0,-0.25 0.109375,-0.625 0.203125,-1.03125 L 4.90625,-4.390625 4.03125,-4.25 l -0.796875,3 C 3.21875,-1.203125 2.625,-0.375 2.03125,-0.375 c -0.578125,0 -0.75,-0.515625 -0.75,-0.90625 0,-0.109375 0.015625,-0.21875 0.03125,-0.3125 l 0.71875,-2.796875 -0.75,0.125 L 0.203125,0 c -0.21875,0.8125 -0.609375,1.890625 -0.6875,2.0625 l 0.875,0 0.640625,-2.484375 c 0,0 0.046875,0.53125 0.765625,0.53125 0.796875,0 1.28125,-0.78125 1.390625,-0.90625 -0.015625,0.078125 -0.03125,0.15625 -0.03125,0.21875 0,0.65625 0.609375,0.6875 0.78125,0.6875 l 0.03125,0 c 0.6875,0 0.96875,-0.640625 0.96875,-0.875 z m 0,0"
                 style="stroke:none"
                 inkscape:connector-curvature="0" /></symbol></g></defs><g
           id="g4560"><g
             id="g4562"
             style="fill:#000000;fill-opacity:1"><use
               id="use4564"
               y="134.765"
               x="223.43201"
               xlink:href="#textext-aca91b7a-1"
               width="425.19684"
               height="354.33069" /></g></g></g></g><g
       id="g4697"
       transform="matrix(0.98893916,0.14832178,-0.14832178,0.98893916,-125.24958,-63.278818)"><text
         xml:space="preserve"
         style="font-size:10.39999962px;font-style:normal;font-variant:normal;font-weight:normal;font-stretch:normal;line-height:125%;letter-spacing:0px;word-spacing:0px;fill:#000000;fill-opacity:1;stroke:none;font-family:Nimbus Roman No9 L;-inkscape-font-specification:Nimbus Roman No9 L"
         x="345.67374"
         y="-158.18137"
         id="text4566"
         sodipodi:linespacing="125%"
         transform="scale(1,-1)"><tspan
           sodipodi:role="line"
           id="tspan4568"
           x="345.67374"
           y="-158.18137"
           dx="0 0 0 0 0 0 0 1.0034854"
           dy="0 0 -2.1503258">I<tspan
   style="font-size:8px"
   id="tspan4570"
   dy="2.1503258">B</tspan>=50  A</tspan></text>
<g
         transform="matrix(1,0,0,-1,148.73087,294.85912)"
         ns0:text="$\\mu$"
         ns0:preamble="/home/sriranga/Desktop/Prism-Basic-Electronics/package.tex"
         id="g4572"><defs
           id="defs4574"><g
             id="g4576"><symbol
               style="overflow:visible"
               overflow="visible"
               id="symbol4578"><path
                 inkscape:connector-curvature="0"
                 style="stroke:none"
                 d=""
                 id="path4580" /></symbol><symbol
               style="overflow:visible"
               overflow="visible"
               id="symbol4582"><path
                 inkscape:connector-curvature="0"
                 style="stroke:none"
                 d="m 4.9375,-0.765625 c 0,-0.0625 -0.015625,-0.09375 -0.046875,-0.09375 C 4.75,-0.859375 4.75,-0.265625 4.21875,-0.265625 4.0625,-0.265625 4,-0.40625 4,-0.59375 c 0,-0.25 0.109375,-0.625 0.203125,-1.03125 L 4.90625,-4.390625 4.03125,-4.25 l -0.796875,3 C 3.21875,-1.203125 2.625,-0.375 2.03125,-0.375 c -0.578125,0 -0.75,-0.515625 -0.75,-0.90625 0,-0.109375 0.015625,-0.21875 0.03125,-0.3125 l 0.71875,-2.796875 -0.75,0.125 L 0.203125,0 c -0.21875,0.8125 -0.609375,1.890625 -0.6875,2.0625 l 0.875,0 0.640625,-2.484375 c 0,0 0.046875,0.53125 0.765625,0.53125 0.796875,0 1.28125,-0.78125 1.390625,-0.90625 -0.015625,0.078125 -0.03125,0.15625 -0.03125,0.21875 0,0.65625 0.609375,0.6875 0.78125,0.6875 l 0.03125,0 c 0.6875,0 0.96875,-0.640625 0.96875,-0.875 z m 0,0"
                 id="path4584" /></symbol></g></defs><g
           id="g4586"><g
             style="fill:#000000;fill-opacity:1"
             id="g4588"><use
               height="354.33069"
               width="425.19684"
               xlink:href="#textext-aca91b7a-1"
               x="223.43201"
               y="134.765"
               id="use4590" /></g></g></g></g><g
       id="g4712"
       transform="matrix(0.98688843,0.16140394,-0.16140394,0.98688843,-123.66985,-79.570359)"><text
         transform="scale(1,-1)"
         sodipodi:linespacing="125%"
         id="text4592"
         y="-130.98126"
         x="345.67374"
         style="font-size:10.39999962px;font-style:normal;font-variant:normal;font-weight:normal;font-stretch:normal;line-height:125%;letter-spacing:0px;word-spacing:0px;fill:#000000;fill-opacity:1;stroke:none;font-family:Nimbus Roman No9 L;-inkscape-font-specification:Nimbus Roman No9 L"
         xml:space="preserve"><tspan
           dy="0 0 -2.1503258"
           dx="0 0 0 0 0 0 0 1.0034854"
           y="-130.98126"
           x="345.67374"
           id="tspan4594"
           sodipodi:role="line">I<tspan
   dy="2.1503258"
   id="tspan4596"
   style="font-size:8px">B</tspan>=25  A</tspan></text>
<g
         id="g4598"
         ns0:preamble="/home/sriranga/Desktop/Prism-Basic-Electronics/package.tex"
         ns0:text="$\\mu$"
         transform="matrix(1,0,0,-1,148.73087,267.65912)"><defs
           id="defs4600"><g
             id="g4602"><symbol
               id="symbol4604"
               overflow="visible"
               style="overflow:visible"><path
                 id="path4606"
                 d=""
                 style="stroke:none"
                 inkscape:connector-curvature="0" /></symbol><symbol
               id="symbol4608"
               overflow="visible"
               style="overflow:visible"><path
                 id="path4610"
                 d="m 4.9375,-0.765625 c 0,-0.0625 -0.015625,-0.09375 -0.046875,-0.09375 C 4.75,-0.859375 4.75,-0.265625 4.21875,-0.265625 4.0625,-0.265625 4,-0.40625 4,-0.59375 c 0,-0.25 0.109375,-0.625 0.203125,-1.03125 L 4.90625,-4.390625 4.03125,-4.25 l -0.796875,3 C 3.21875,-1.203125 2.625,-0.375 2.03125,-0.375 c -0.578125,0 -0.75,-0.515625 -0.75,-0.90625 0,-0.109375 0.015625,-0.21875 0.03125,-0.3125 l 0.71875,-2.796875 -0.75,0.125 L 0.203125,0 c -0.21875,0.8125 -0.609375,1.890625 -0.6875,2.0625 l 0.875,0 0.640625,-2.484375 c 0,0 0.046875,0.53125 0.765625,0.53125 0.796875,0 1.28125,-0.78125 1.390625,-0.90625 -0.015625,0.078125 -0.03125,0.15625 -0.03125,0.21875 0,0.65625 0.609375,0.6875 0.78125,0.6875 l 0.03125,0 c 0.6875,0 0.96875,-0.640625 0.96875,-0.875 z m 0,0"
                 style="stroke:none"
                 inkscape:connector-curvature="0" /></symbol></g></defs><g
           id="g4612"><g
             id="g4614"
             style="fill:#000000;fill-opacity:1"><use
               id="use4616"
               y="134.765"
               x="223.43201"
               xlink:href="#textext-aca91b7a-1"
               width="425.19684"
               height="354.33069" /></g></g></g></g><g
       id="g4727"
       transform="translate(-141.63479,-36.412184)"><text
         xml:space="preserve"
         style="font-size:10.39999962px;font-style:normal;font-variant:normal;font-weight:normal;font-stretch:normal;line-height:125%;letter-spacing:0px;word-spacing:0px;fill:#000000;fill-opacity:1;stroke:none;font-family:Nimbus Roman No9 L;-inkscape-font-specification:Nimbus Roman No9 L"
         x="345.67374"
         y="-102.18127"
         id="text4641"
         sodipodi:linespacing="125%"
         transform="scale(1,-1)"><tspan
           sodipodi:role="line"
           id="tspan4643"
           x="345.67374"
           y="-102.18127"
           dx="0 0 -0.40546933 0 0 0 0 0 1.0034854"
           dy="0 0 0 0 -2.1503258">  I<tspan
   style="font-size:8px"
   id="tspan4645"
   dy="2.1503258">B</tspan>=0  A</tspan></text>
<g
         transform="matrix(1,0,0,-1,148.73087,238.85912)"
         ns0:text="$\\mu$"
         ns0:preamble="/home/sriranga/Desktop/Prism-Basic-Electronics/package.tex"
         id="g4647"><defs
           id="defs4649"><g
             id="g4651"><symbol
               style="overflow:visible"
               overflow="visible"
               id="symbol4653"><path
                 inkscape:connector-curvature="0"
                 style="stroke:none"
                 d=""
                 id="path4655" /></symbol><symbol
               style="overflow:visible"
               overflow="visible"
               id="symbol4657"><path
                 inkscape:connector-curvature="0"
                 style="stroke:none"
                 d="m 4.9375,-0.765625 c 0,-0.0625 -0.015625,-0.09375 -0.046875,-0.09375 C 4.75,-0.859375 4.75,-0.265625 4.21875,-0.265625 4.0625,-0.265625 4,-0.40625 4,-0.59375 c 0,-0.25 0.109375,-0.625 0.203125,-1.03125 L 4.90625,-4.390625 4.03125,-4.25 l -0.796875,3 C 3.21875,-1.203125 2.625,-0.375 2.03125,-0.375 c -0.578125,0 -0.75,-0.515625 -0.75,-0.90625 0,-0.109375 0.015625,-0.21875 0.03125,-0.3125 l 0.71875,-2.796875 -0.75,0.125 L 0.203125,0 c -0.21875,0.8125 -0.609375,1.890625 -0.6875,2.0625 l 0.875,0 0.640625,-2.484375 c 0,0 0.046875,0.53125 0.765625,0.53125 0.796875,0 1.28125,-0.78125 1.390625,-0.90625 -0.015625,0.078125 -0.03125,0.15625 -0.03125,0.21875 0,0.65625 0.609375,0.6875 0.78125,0.6875 l 0.03125,0 c 0.6875,0 0.96875,-0.640625 0.96875,-0.875 z m 0,0"
                 id="path4659" /></symbol></g></defs><g
           id="g4661"><g
             style="fill:#000000;fill-opacity:1"
             id="g4663"><use
               height="354.33069"
               width="425.19684"
               xlink:href="#textext-aca91b7a-1"
               x="223.43201"
               y="134.765"
               id="use4665" /></g></g></g></g><text
       xml:space="preserve"
       style="font-size:10.39999962px;font-style:normal;font-variant:normal;font-weight:normal;font-stretch:normal;line-height:125%;letter-spacing:0px;word-spacing:0px;fill:#000000;fill-opacity:1;stroke:none;font-family:Nimbus Roman No9 L;-inkscape-font-specification:Nimbus Roman No9 L"
       x="295.96298"
       y="-44.726395"
       id="text4742"
       sodipodi:linespacing="125%"
       transform="scale(1,-1)"><tspan
         sodipodi:role="line"
         id="tspan4744"
         x="295.96298"
         y="-44.726395">V<tspan
   style="font-size:8px"
   id="tspan4746"
   dy="1.8636158">CE<tspan
   style="font-size:10.39999962px"
   id="tspan4748"
   dy="-2.0069709"
   dx="0.28671011">(V)</tspan></tspan></tspan></text>
</g></svg>