<?xml version="1.0" encoding="UTF-8" standalone="no"?>
<!-- Created with Inkscape (http://www.inkscape.org/) -->

<svg
   xmlns:ns0="http://www.iki.fi/pav/software/textext/"
   xmlns:dc="http://purl.org/dc/elements/1.1/"
   xmlns:cc="http://creativecommons.org/ns#"
   xmlns:rdf="http://www.w3.org/1999/02/22-rdf-syntax-ns#"
   xmlns:svg="http://www.w3.org/2000/svg"
   xmlns="http://www.w3.org/2000/svg"
   xmlns:xlink="http://www.w3.org/1999/xlink"
   xmlns:sodipodi="http://sodipodi.sourceforge.net/DTD/sodipodi-0.dtd"
   xmlns:inkscape="http://www.inkscape.org/namespaces/inkscape"
   id="svg2"
   version="1.1"
   inkscape:version="0.48.4 r9939"
   width="283.46457"
   height="212.59842"
   xml:space="preserve"
   sodipodi:docname="fig7.svg"><sodipodi:namedview
     pagecolor="#ffffff"
     bordercolor="#666666"
     borderopacity="1"
     objecttolerance="10"
     gridtolerance="10"
     guidetolerance="10"
     inkscape:pageopacity="0"
     inkscape:pageshadow="2"
     inkscape:window-width="1024"
     inkscape:window-height="744"
     id="namedview4"
     showgrid="false"
     units="cm"
     inkscape:zoom="1.8374696"
     inkscape:cx="113.68863"
     inkscape:cy="62.95278"
     inkscape:window-x="0"
     inkscape:window-y="24"
     inkscape:window-maximized="1"
     inkscape:current-layer="g10" /><metadata
     id="metadata8"><rdf:RDF><cc:Work
         rdf:about=""><dc:format>image/svg+xml</dc:format><dc:type
           rdf:resource="http://purl.org/dc/dcmitype/StillImage" /><dc:title></dc:title></cc:Work></rdf:RDF></metadata><defs
     id="defs6"><marker
       inkscape:stockid="Arrow1Mend"
       orient="auto"
       refY="0.0"
       refX="0.0"
       id="Arrow1Mend"
       style="overflow:visible;"><path
         id="path3802"
         d="M 0.0,0.0 L 5.0,-5.0 L -12.5,0.0 L 5.0,5.0 L 0.0,0.0 z "
         style="fill-rule:evenodd;stroke:#000000;stroke-width:1.0pt;"
         transform="scale(0.4) rotate(180) translate(10,0)" /></marker></defs><g
     id="g10"
     inkscape:groupmode="layer"
     inkscape:label="ink_ext_XXXXXX"
     transform="matrix(1.25,0,0,-1.25,0,212.59819)"><path
       style="fill:none;stroke:#000000;stroke-width:1.3125;stroke-linecap:butt;stroke-linejoin:miter;stroke-opacity:1;stroke-miterlimit:4;stroke-dasharray:none"
       d="m 131.99545,19.030747 0,45.409513 -36.943332,32.325417"
       id="path3007"
       inkscape:connector-curvature="0"
       transform="matrix(0.8,0,0,-0.8,0,170.07855)" /><path
       style="fill:none;stroke:#000000;stroke-width:1.3125;stroke-linecap:butt;stroke-linejoin:miter;stroke-opacity:1;marker-end:none;stroke-miterlimit:4;stroke-dasharray:none"
       d="m 95.052118,121.39457 38.097812,25.78336 0.38483,42.33091"
       id="path3009"
       inkscape:connector-curvature="0"
       transform="matrix(0.8,0,0,-0.8,0,170.07855)" /><path
       style="fill:none;stroke:#000000;stroke-width:1.3125;stroke-linecap:butt;stroke-linejoin:miter;stroke-opacity:1;stroke-miterlimit:4;stroke-dasharray:none"
       d="m 95.052118,74.830573 0,72.732187"
       id="path3011"
       inkscape:connector-curvature="0"
       transform="matrix(0.8,0,0,-0.8,0,170.07855)" /><path
       style="fill:none;stroke:#000000;stroke-width:1.3125;stroke-linecap:butt;stroke-linejoin:miter;stroke-opacity:1;stroke-miterlimit:4;stroke-dasharray:none"
       d="m 42.715729,111.00425 51.566736,0"
       id="path3013"
       inkscape:connector-curvature="0"
       transform="matrix(0.8,0,0,-0.8,0,170.07855)" /><path
       style="fill:none;stroke:#000000;stroke-width:1.3125;stroke-linecap:butt;stroke-linejoin:miter;stroke-opacity:1;marker-end:url(#Arrow1Mend);stroke-miterlimit:4;stroke-dasharray:none"
       d="m 49.524629,102.66463 35.918962,0"
       id="path3015"
       inkscape:connector-curvature="0"
       transform="matrix(0.8,0,0,-0.8,0,170.07855)" /><path
       style="fill:none;stroke:#000000;stroke-width:1.3125;stroke-linecap:butt;stroke-linejoin:miter;stroke-opacity:1;marker-end:url(#Arrow1Mend);stroke-miterlimit:4;stroke-dasharray:none"
       d="m 141.77105,154.09405 0,25.57865"
       id="path3017"
       inkscape:connector-curvature="0"
       transform="matrix(0.8,0,0,-0.8,0,170.07855)" /><path
       style="fill:none;stroke:#000000;stroke-width:1.3175;stroke-linecap:butt;stroke-linejoin:miter;stroke-opacity:1;stroke-miterlimit:4;stroke-dasharray:none;marker-end:url(#Arrow1Mend)"
       d="m 141.49894,27.289229 0,26.122882"
       id="path3019"
       inkscape:connector-curvature="0"
       transform="matrix(0.8,0,0,-0.8,0,170.07855)" /><path
       style="fill:none;stroke:#000000;stroke-width:0.80000001px;stroke-linecap:butt;stroke-linejoin:miter;stroke-opacity:1"
       d="m 102.44083,60.302108 4.00219,-7.696528 -7.696573,-0.307856"
       id="path4779"
       inkscape:connector-curvature="0" /><text
       xml:space="preserve"
       style="font-size:11.19999981px;font-style:normal;font-variant:normal;font-weight:normal;font-stretch:normal;line-height:125%;letter-spacing:0px;word-spacing:0px;fill:#000000;fill-opacity:1;stroke:none;font-family:Nimbus Roman No9 L;-inkscape-font-specification:Nimbus Roman No9 L"
       x="123.45229"
       y="-138.22945"
       id="text4849"
       sodipodi:linespacing="125%"
       transform="scale(1,-1)"><tspan
         sodipodi:role="line"
         id="tspan4851"
         x="123.45229"
         y="-138.22945"
         dy="0 0 -1.5393056"
         dx="0 0 -0.61572224">I<tspan
   style="font-size:8.80000019px"
   id="tspan4853"
   dy="1.5393056"
   dx="0.61572224">c </tspan></tspan></text>
<text
       xml:space="preserve"
       style="font-size:11.19999981px;font-style:normal;font-variant:normal;font-weight:normal;font-stretch:normal;line-height:125%;letter-spacing:0px;word-spacing:0px;fill:#000000;fill-opacity:1;stroke:none;font-family:Nimbus Roman No9 L;-inkscape-font-specification:Nimbus Roman No9 L"
       x="50.48922"
       y="-94.513176"
       id="text4855"
       sodipodi:linespacing="125%"
       transform="scale(1,-1)"><tspan
         sodipodi:role="line"
         id="tspan4857"
         x="50.48922"
         y="-94.513176">I<tspan
   style="font-size:8.80000019px"
   id="tspan4859"
   dy="2.462889"
   dx="3.9603272e-09">B</tspan></tspan></text>
<text
       xml:space="preserve"
       style="font-size:11.19999981px;font-style:normal;font-variant:normal;font-weight:normal;font-stretch:normal;line-height:125%;letter-spacing:0px;word-spacing:0px;fill:#000000;fill-opacity:1;stroke:none;font-family:Nimbus Roman No9 L;-inkscape-font-specification:Nimbus Roman No9 L"
       x="120.68156"
       y="-34.78812"
       id="text4861"
       sodipodi:linespacing="125%"
       transform="scale(1,-1)"><tspan
         sodipodi:role="line"
         id="tspan4863"
         x="120.68156"
         y="-34.78812">I<tspan
   style="font-size:8.80000019px"
   id="tspan4865"
   dy="2.77075 0 -2.612288"
   dx="0.61572224 0 0.87076271">E = 10 mA</tspan></tspan></text>
<text
       xml:space="preserve"
       style="font-size:11.19999981px;font-style:normal;font-variant:normal;font-weight:normal;font-stretch:normal;line-height:125%;letter-spacing:0px;word-spacing:0px;fill:#000000;fill-opacity:1;stroke:none;font-family:Nimbus Roman No9 L;-inkscape-font-specification:Nimbus Roman No9 L"
       x="130.22525"
       y="-86.508789"
       id="text4867"
       sodipodi:linespacing="125%"
       transform="scale(1,-1)"><tspan
         sodipodi:role="line"
         id="tspan4869"
         x="130.22525"
         y="-86.508789">= 150</tspan></text>
<g
       id="g5090"
       ns0:preamble=""
       ns0:text="$\\beta$"
       transform="matrix(1,0,0,-1,-108.67497,220.71997)"><defs
         id="defs5092"><g
           id="g5094"><symbol
             id="textext-cd8a6cfc-0"
             overflow="visible"
             style="overflow:visible"><path
               id="path5097"
               d=""
               style="stroke:none"
               inkscape:connector-curvature="0" /></symbol><symbol
             id="textext-cd8a6cfc-1"
             overflow="visible"
             style="overflow:visible"><path
               id="path5100"
               d="m 5.734375,-5.671875 c 0,-0.75 -0.546875,-1.359375 -1.359375,-1.359375 -0.578125,0 -0.859375,0.15625 -1.203125,0.40625 C 2.625,-6.21875 2.078125,-5.25 1.890625,-4.5 L 0.296875,1.828125 C 0.296875,1.875 0.34375,1.9375 0.421875,1.9375 0.5,1.9375 0.53125,1.90625 0.53125,1.890625 L 1.234375,-0.875 c 0.1875,0.609375 0.625,0.96875 1.359375,0.96875 C 3.3125,0.09375 4.0625,-0.25 4.515625,-0.6875 5,-1.140625 5.3125,-1.78125 5.3125,-2.515625 c 0,-0.71875 -0.375,-1.25 -0.734375,-1.484375 0.578125,-0.34375 1.15625,-0.953125 1.15625,-1.671875 z M 3.9375,-4.015625 c -0.125,0.046875 -0.234375,0.0625 -0.484375,0.0625 -0.140625,0 -0.328125,0.015625 -0.4375,-0.03125 0.03125,-0.109375 0.390625,-0.078125 0.5,-0.078125 0.203125,0 0.296875,0 0.421875,0.046875 z M 5.171875,-5.90625 c 0,0.703125 -0.375,1.421875 -0.890625,1.734375 C 4,-4.28125 3.8125,-4.296875 3.515625,-4.296875 c -0.21875,0 -0.78125,-0.015625 -0.78125,0.3125 0,0.28125 0.515625,0.25 0.6875,0.25 0.375,0 0.53125,0 0.828125,-0.125 0.375,0.359375 0.421875,0.671875 0.4375,1.125 0.015625,0.578125 -0.21875,1.328125 -0.5,1.71875 C 3.796875,-0.484375 3.125,-0.125 2.5625,-0.125 c -0.765625,0 -1.140625,-0.578125 -1.140625,-1.28125 0,-0.09375 0,-0.25 0.046875,-0.4375 L 2.109375,-4.359375 C 2.328125,-5.21875 3.046875,-6.8125 4.25,-6.8125 c 0.578125,0 0.921875,0.3125 0.921875,0.90625 z m 0,0"
               style="stroke:none"
               inkscape:connector-curvature="0" /></symbol></g></defs><g
         id="textext-cd8a6cfc-2"><g
           id="g5103"
           style="fill:#000000;fill-opacity:1"><use
             id="use5105"
             y="134.765"
             x="223.43201"
             xlink:href="#textext-cd8a6cfc-1"
             width="283.46457"
             height="212.59842" /></g></g></g><text
       xml:space="preserve"
       style="font-size:11.19999981px;font-style:normal;font-variant:normal;font-weight:normal;font-stretch:normal;line-height:125%;letter-spacing:0px;word-spacing:0px;fill:#000000;fill-opacity:1;stroke:none;font-family:Nimbus Roman No9 L;-inkscape-font-specification:Nimbus Roman No9 L"
       x="120.21976"
       y="-82.506592"
       id="text5144"
       sodipodi:linespacing="125%"
       transform="scale(1,-1)"><tspan
         sodipodi:role="line"
         id="tspan5146"
         x="120.21976"
         y="-82.506592"
         style="font-size:8.80000019px">dc</tspan></text>
</g></svg>