<?xml version="1.0" encoding="UTF-8" standalone="no"?>
<!-- Created with Inkscape (http://www.inkscape.org/) -->

<svg
   xmlns:ns0="http://www.iki.fi/pav/software/textext/"
   xmlns:dc="http://purl.org/dc/elements/1.1/"
   xmlns:cc="http://creativecommons.org/ns#"
   xmlns:rdf="http://www.w3.org/1999/02/22-rdf-syntax-ns#"
   xmlns:svg="http://www.w3.org/2000/svg"
   xmlns="http://www.w3.org/2000/svg"
   xmlns:xlink="http://www.w3.org/1999/xlink"
   xmlns:sodipodi="http://sodipodi.sourceforge.net/DTD/sodipodi-0.dtd"
   xmlns:inkscape="http://www.inkscape.org/namespaces/inkscape"
   id="svg2"
   version="1.1"
   inkscape:version="0.48.4 r9939"
   width="496.06299"
   height="283.46457"
   xml:space="preserve"
   sodipodi:docname="9.eps"><sodipodi:namedview
     pagecolor="#ffffff"
     bordercolor="#666666"
     borderopacity="1"
     objecttolerance="10"
     gridtolerance="10"
     guidetolerance="10"
     inkscape:pageopacity="0"
     inkscape:pageshadow="2"
     inkscape:window-width="1024"
     inkscape:window-height="744"
     id="namedview4"
     showgrid="false"
     units="cm"
     inkscape:zoom="1.5449631"
     inkscape:cx="279.19736"
     inkscape:cy="189.81084"
     inkscape:window-x="0"
     inkscape:window-y="24"
     inkscape:window-maximized="1"
     inkscape:current-layer="g10" /><metadata
     id="metadata8"><rdf:RDF><cc:Work
         rdf:about=""><dc:format>image/svg+xml</dc:format><dc:type
           rdf:resource="http://purl.org/dc/dcmitype/StillImage" /><dc:title></dc:title></cc:Work></rdf:RDF></metadata><defs
     id="defs6"><marker
       style="overflow:visible"
       id="TriangleOutM"
       refX="0.0"
       refY="0.0"
       orient="auto"
       inkscape:stockid="TriangleOutM"><path
         transform="scale(0.4)"
         style="fill-rule:evenodd;stroke:#000000;stroke-width:1.0pt"
         d="M 5.77,0.0 L -2.88,5.0 L -2.88,-5.0 L 5.77,0.0 z "
         id="path4020" /></marker><marker
       style="overflow:visible;"
       id="Arrow2Mend"
       refX="0.0"
       refY="0.0"
       orient="auto"
       inkscape:stockid="Arrow2Mend"><path
         transform="scale(0.6) rotate(180) translate(0,0)"
         d="M 8.7185878,4.0337352 L -2.2072895,0.016013256 L 8.7185884,-4.0017078 C 6.9730900,-1.6296469 6.9831476,1.6157441 8.7185878,4.0337352 z "
         style="fill-rule:evenodd;stroke-width:0.62500000;stroke-linejoin:round;"
         id="path3902" /></marker><marker
       style="overflow:visible;"
       id="Arrow1Mend"
       refX="0.0"
       refY="0.0"
       orient="auto"
       inkscape:stockid="Arrow1Mend"><path
         transform="scale(0.4) rotate(180) translate(10,0)"
         style="fill-rule:evenodd;stroke:#000000;stroke-width:1.0pt;"
         d="M 0.0,0.0 L 5.0,-5.0 L -12.5,0.0 L 5.0,5.0 L 0.0,0.0 z "
         id="path3884" /></marker></defs><g
     transform="matrix(1.25,0,0,-1.25,0,283.46433)"
     inkscape:label="ink_ext_XXXXXX"
     inkscape:groupmode="layer"
     id="g10"><path
       transform="matrix(0.8,0,0,-0.8,0,226.77146)"
       inkscape:connector-curvature="0"
       id="path3769"
       d="m 42.907989,176.13739 24.257316,0"
       style="fill:none;stroke:#000000;stroke-width:1.3125;stroke-linecap:butt;stroke-linejoin:miter;stroke-opacity:1;stroke-miterlimit:4;stroke-dasharray:none" /><path
       transform="matrix(0.8,0,0,-0.8,0,226.77146)"
       inkscape:connector-curvature="0"
       id="path3771"
       d="m 50.459795,178.99792 11.213287,0"
       style="fill:none;stroke:#000000;stroke-width:1.3125;stroke-linecap:butt;stroke-linejoin:miter;stroke-opacity:1;stroke-miterlimit:4;stroke-dasharray:none" /><path
       transform="matrix(0.8,0,0,-0.8,0,226.77146)"
       inkscape:connector-curvature="0"
       id="path3773"
       d="m 43.251252,181.97287 24.257317,0"
       style="fill:none;stroke:#000000;stroke-width:1.3125;stroke-linecap:butt;stroke-linejoin:miter;stroke-opacity:1;stroke-miterlimit:4;stroke-dasharray:none" /><path
       transform="matrix(0.8,0,0,-0.8,0,226.77146)"
       inkscape:connector-curvature="0"
       id="path3775"
       d="m 50.91748,185.40551 10.412338,0"
       style="fill:none;stroke:#000000;stroke-width:1.3125;stroke-linecap:butt;stroke-linejoin:miter;stroke-opacity:1;stroke-miterlimit:4;stroke-dasharray:none" /><path
       transform="matrix(0.8,0,0,-0.8,0,226.77146)"
       inkscape:connector-curvature="0"
       id="path3777"
       d="m 55.723174,185.29109 0,18.07857"
       style="fill:none;stroke:#000000;stroke-width:1px;stroke-linecap:butt;stroke-linejoin:miter;stroke-opacity:1" /><path
       transform="matrix(0.8,0,0,-0.8,0,226.77146)"
       inkscape:connector-curvature="0"
       id="path3779"
       d="m 49.887688,195.64622 12.128658,0"
       style="fill:none;stroke:#000000;stroke-width:1px;stroke-linecap:butt;stroke-linejoin:miter;stroke-opacity:1" /><path
       inkscape:connector-curvature="0"
       id="path3781"
       d="m 40.73398,69.293348 7.551806,0"
       style="fill:none;stroke:#000000;stroke-width:0.80000001px;stroke-linecap:butt;stroke-linejoin:miter;stroke-opacity:1" /><path
       inkscape:connector-curvature="0"
       id="path3783"
       d="m 41.37474,68.1949 6.316056,0"
       style="fill:none;stroke:#000000;stroke-width:0.80000001px;stroke-linecap:butt;stroke-linejoin:miter;stroke-opacity:1" /><path
       inkscape:connector-curvature="0"
       id="path3785"
       d="m 42.244341,67.14223 4.622621,0"
       style="fill:none;stroke:#000000;stroke-width:0.80000001px;stroke-linecap:butt;stroke-linejoin:miter;stroke-opacity:1" /><path
       inkscape:connector-curvature="0"
       id="path3787"
       d="m 42.839332,66.089551 3.38687,0"
       style="fill:none;stroke:#000000;stroke-width:0.80000001px;stroke-linecap:butt;stroke-linejoin:miter;stroke-opacity:1" /><path
       sodipodi:nodetypes="cc"
       style="fill:none;stroke:#000000;stroke-width:0.80000001px;stroke-linecap:butt;stroke-linejoin:miter;stroke-opacity:1"
       d="m 43.20548,64.970115 2.608805,0"
       id="path3789"
       inkscape:connector-curvature="0" /><path
       style="fill:none;stroke:#000000;stroke-width:0.80000001px;stroke-linecap:butt;stroke-linejoin:miter;stroke-opacity:1"
       d="m 103.65122,72.066826 9.70293,0"
       id="path3791"
       inkscape:connector-curvature="0" /><path
       style="fill:none;stroke:#000000;stroke-width:0.80000001px;stroke-linecap:butt;stroke-linejoin:miter;stroke-opacity:1"
       d="m 104.47505,71.10569 7.55181,0"
       id="path3793"
       inkscape:connector-curvature="0" /><path
       style="fill:none;stroke:#000000;stroke-width:0.80000001px;stroke-linecap:butt;stroke-linejoin:miter;stroke-opacity:1"
       d="m 105.11581,70.007242 6.31606,0"
       id="path3795"
       inkscape:connector-curvature="0" /><path
       style="fill:none;stroke:#000000;stroke-width:0.80000001px;stroke-linecap:butt;stroke-linejoin:miter;stroke-opacity:1"
       d="m 105.98541,68.954572 4.62262,0"
       id="path3797"
       inkscape:connector-curvature="0" /><path
       style="fill:none;stroke:#000000;stroke-width:0.80000001px;stroke-linecap:butt;stroke-linejoin:miter;stroke-opacity:1"
       d="m 106.5804,67.901893 3.38687,0"
       id="path3799"
       inkscape:connector-curvature="0" /><path
       inkscape:connector-curvature="0"
       id="path3801"
       d="m 106.94655,66.782457 2.60881,0"
       style="fill:none;stroke:#000000;stroke-width:0.80000001px;stroke-linecap:butt;stroke-linejoin:miter;stroke-opacity:1"
       sodipodi:nodetypes="cc" /><path
       inkscape:connector-curvature="0"
       id="path3803"
       d="m 167.43887,73.149014 9.70293,0"
       style="fill:none;stroke:#000000;stroke-width:0.80000001px;stroke-linecap:butt;stroke-linejoin:miter;stroke-opacity:1" /><path
       inkscape:connector-curvature="0"
       id="path3805"
       d="m 168.2627,72.187878 7.55181,0"
       style="fill:none;stroke:#000000;stroke-width:0.80000001px;stroke-linecap:butt;stroke-linejoin:miter;stroke-opacity:1" /><path
       inkscape:connector-curvature="0"
       id="path3807"
       d="m 168.90346,71.08943 6.31606,0"
       style="fill:none;stroke:#000000;stroke-width:0.80000001px;stroke-linecap:butt;stroke-linejoin:miter;stroke-opacity:1" /><path
       inkscape:connector-curvature="0"
       id="path3809"
       d="m 169.77306,70.03676 4.62262,0"
       style="fill:none;stroke:#000000;stroke-width:0.80000001px;stroke-linecap:butt;stroke-linejoin:miter;stroke-opacity:1" /><path
       inkscape:connector-curvature="0"
       id="path3811"
       d="m 170.36805,68.984081 3.38687,0"
       style="fill:none;stroke:#000000;stroke-width:0.80000001px;stroke-linecap:butt;stroke-linejoin:miter;stroke-opacity:1" /><path
       sodipodi:nodetypes="cc"
       style="fill:none;stroke:#000000;stroke-width:0.80000001px;stroke-linecap:butt;stroke-linejoin:miter;stroke-opacity:1"
       d="m 170.7342,67.864645 2.60881,0"
       id="path3813"
       inkscape:connector-curvature="0" /><path
       style="fill:none;stroke:#000000;stroke-width:0.80000001px;stroke-linecap:butt;stroke-linejoin:miter;stroke-opacity:1"
       d="m 253.4251,73.332088 9.70293,0"
       id="path3815"
       inkscape:connector-curvature="0" /><path
       style="fill:none;stroke:#000000;stroke-width:0.80000001px;stroke-linecap:butt;stroke-linejoin:miter;stroke-opacity:1"
       d="m 254.24893,72.370952 7.55181,0"
       id="path3817"
       inkscape:connector-curvature="0" /><path
       style="fill:none;stroke:#000000;stroke-width:0.80000001px;stroke-linecap:butt;stroke-linejoin:miter;stroke-opacity:1"
       d="m 254.88969,71.272504 6.31606,0"
       id="path3819"
       inkscape:connector-curvature="0" /><path
       style="fill:none;stroke:#000000;stroke-width:0.80000001px;stroke-linecap:butt;stroke-linejoin:miter;stroke-opacity:1"
       d="m 255.75929,70.219834 4.62262,0"
       id="path3821"
       inkscape:connector-curvature="0" /><path
       style="fill:none;stroke:#000000;stroke-width:0.80000001px;stroke-linecap:butt;stroke-linejoin:miter;stroke-opacity:1"
       d="m 256.35428,69.167155 3.38687,0"
       id="path3823"
       inkscape:connector-curvature="0" /><path
       inkscape:connector-curvature="0"
       id="path3825"
       d="m 256.72043,68.047719 2.60881,0"
       style="fill:none;stroke:#000000;stroke-width:0.80000001px;stroke-linecap:butt;stroke-linejoin:miter;stroke-opacity:1"
       sodipodi:nodetypes="cc" /><path
       inkscape:connector-curvature="0"
       id="path3827"
       d="m 313.54045,74.613606 9.70293,0"
       style="fill:none;stroke:#000000;stroke-width:0.80000001px;stroke-linecap:butt;stroke-linejoin:miter;stroke-opacity:1" /><path
       inkscape:connector-curvature="0"
       id="path3829"
       d="m 314.36428,73.65247 7.55181,0"
       style="fill:none;stroke:#000000;stroke-width:0.80000001px;stroke-linecap:butt;stroke-linejoin:miter;stroke-opacity:1" /><path
       inkscape:connector-curvature="0"
       id="path3831"
       d="m 315.00504,72.554022 6.31606,0"
       style="fill:none;stroke:#000000;stroke-width:0.80000001px;stroke-linecap:butt;stroke-linejoin:miter;stroke-opacity:1" /><path
       inkscape:connector-curvature="0"
       id="path3833"
       d="m 315.87464,71.501352 4.62262,0"
       style="fill:none;stroke:#000000;stroke-width:0.80000001px;stroke-linecap:butt;stroke-linejoin:miter;stroke-opacity:1" /><path
       inkscape:connector-curvature="0"
       id="path3835"
       d="m 316.46963,70.448673 3.38687,0"
       style="fill:none;stroke:#000000;stroke-width:0.80000001px;stroke-linecap:butt;stroke-linejoin:miter;stroke-opacity:1" /><path
       sodipodi:nodetypes="cc"
       style="fill:none;stroke:#000000;stroke-width:0.80000001px;stroke-linecap:butt;stroke-linejoin:miter;stroke-opacity:1"
       d="m 316.83578,69.329237 2.60881,0"
       id="path3837"
       inkscape:connector-curvature="0" /><path
       style="fill:none;stroke:#000000;stroke-width:0.80000001px;stroke-linecap:butt;stroke-linejoin:miter;stroke-opacity:1"
       d="m 378.86966,74.613606 9.70293,0"
       id="path3839"
       inkscape:connector-curvature="0" /><path
       style="fill:none;stroke:#000000;stroke-width:0.80000001px;stroke-linecap:butt;stroke-linejoin:miter;stroke-opacity:1"
       d="m 379.69349,73.65247 7.55181,0"
       id="path3841"
       inkscape:connector-curvature="0" /><path
       style="fill:none;stroke:#000000;stroke-width:0.80000001px;stroke-linecap:butt;stroke-linejoin:miter;stroke-opacity:1"
       d="m 380.33425,72.554022 6.31606,0"
       id="path3843"
       inkscape:connector-curvature="0" /><path
       style="fill:none;stroke:#000000;stroke-width:0.80000001px;stroke-linecap:butt;stroke-linejoin:miter;stroke-opacity:1"
       d="m 381.20385,71.501352 4.62262,0"
       id="path3845"
       inkscape:connector-curvature="0" /><path
       style="fill:none;stroke:#000000;stroke-width:0.80000001px;stroke-linecap:butt;stroke-linejoin:miter;stroke-opacity:1"
       d="m 381.79884,70.448673 3.38687,0"
       id="path3847"
       inkscape:connector-curvature="0" /><path
       inkscape:connector-curvature="0"
       id="path3849"
       d="m 382.16499,69.329237 2.60881,0"
       style="fill:none;stroke:#000000;stroke-width:0.80000001px;stroke-linecap:butt;stroke-linejoin:miter;stroke-opacity:1"
       sodipodi:nodetypes="cc" /><path
       transform="matrix(0.8,0,0,-0.8,0,226.77146)"
       inkscape:connector-curvature="0"
       id="path3851"
       d="m 55.422034,176.26136 0,-52.52893 25.817091,0 2.517269,-5.49222 1.029791,10.29792 2.517269,-9.72582 2.174005,9.03929 2.174004,-8.69602 1.71632,8.81044 1.71632,-4.34801 18.192987,0"
       style="fill:none;stroke:#000000;stroke-width:1.3125;stroke-linecap:butt;stroke-linejoin:miter;stroke-opacity:1;stroke-miterlimit:4;stroke-dasharray:none" /><path
       transform="matrix(1.0533605,0,0,-1.0533605,-38.562869,274.34392)"
       d="m 83.985235,156.51413 c 0,3.12806 -2.535794,5.66385 -5.663854,5.66385 -3.128061,0 -5.663855,-2.53579 -5.663855,-5.66385 0,-3.12806 2.535794,-5.66385 5.663855,-5.66385 3.12806,0 5.663854,2.53579 5.663854,5.66385 z"
       sodipodi:ry="5.6638546"
       sodipodi:rx="5.6638546"
       sodipodi:cy="156.51413"
       sodipodi:cx="78.321381"
       id="path3853"
       style="fill:#ffffff;stroke:#000000;stroke-width:1.31749999999999989;stroke-miterlimit:4;stroke-opacity:1;stroke-dasharray:none;stroke-dashoffset:0"
       sodipodi:type="arc" /><path
       inkscape:connector-curvature="0"
       id="path3855"
       d="m 90.7465,141.3624 0,-29.90363"
       style="fill:none;stroke:#000000;stroke-width:1.05;stroke-linecap:butt;stroke-linejoin:miter;stroke-opacity:1;stroke-miterlimit:4;stroke-dasharray:none" /><path
       sodipodi:nodetypes="ccccccccccccc"
       transform="matrix(0.8,0,0,-0.8,0,226.77146)"
       inkscape:connector-curvature="0"
       id="path3857"
       d="m 113.75676,121.81023 21.52155,-15.37254 0,-26.376032 36.24682,0 c 0,0 1.96549,-5.61042 1.94179,-5.339933 0.16182,-0.809081 1.86089,10.032602 1.86089,10.032602 l 2.37984,-10.81967 2.10361,10.710998 1.74647,-9.896166 1.69907,9.681206 2.10361,-4.288129 30.0949,0 0,37.639954"
       style="fill:none;stroke:#000000;stroke-width:1.3125;stroke-linecap:butt;stroke-linejoin:miter;stroke-miterlimit:4;stroke-opacity:1;stroke-dasharray:none" /><path
       transform="matrix(0.8,0,0,-0.8,0,226.77146)"
       inkscape:connector-curvature="0"
       id="path3859"
       d="m 202.81176,118.41184 23.28473,0"
       style="fill:none;stroke:#000000;stroke-width:1.3125;stroke-linecap:butt;stroke-linejoin:miter;stroke-opacity:1;stroke-miterlimit:4;stroke-dasharray:none" /><path
       transform="matrix(0.8,0,0,-0.8,0,226.77146)"
       inkscape:connector-curvature="0"
       id="path3861"
       d="m 209.84867,121.21516 10.06907,0"
       style="fill:none;stroke:#000000;stroke-width:1.3125;stroke-linecap:butt;stroke-linejoin:miter;stroke-opacity:1;stroke-miterlimit:4;stroke-dasharray:none" /><path
       transform="matrix(0.8,0,0,-0.8,0,226.77146)"
       inkscape:connector-curvature="0"
       id="path3863"
       d="m 203.0406,124.93385 23.45637,0"
       style="fill:none;stroke:#000000;stroke-width:1.3125;stroke-linecap:butt;stroke-linejoin:miter;stroke-opacity:1;stroke-miterlimit:4;stroke-dasharray:none" /><path
       transform="matrix(0.8,0,0,-0.8,0,226.77146)"
       inkscape:connector-curvature="0"
       id="path3865"
       d="m 210.07751,127.73718 9.72581,0"
       style="fill:none;stroke:#000000;stroke-width:1.3125;stroke-linecap:butt;stroke-linejoin:miter;stroke-opacity:1;stroke-miterlimit:4;stroke-dasharray:none" /><path
       transform="matrix(0.8,0,0,-0.8,0,226.77146)"
       inkscape:connector-curvature="0"
       id="path3867"
       d="m 214.76879,127.62275 0,72.42869"
       style="fill:none;stroke:#000000;stroke-width:1px;stroke-linecap:butt;stroke-linejoin:miter;stroke-opacity:1" /><path
       transform="matrix(0.8,0,0,-0.8,0,226.77146)"
       inkscape:connector-curvature="0"
       id="path3869"
       d="m 113.39151,133.57266 21.05352,14.98919"
       style="fill:none;stroke:#000000;stroke-width:1.3125;stroke-linecap:butt;stroke-linejoin:miter;stroke-opacity:1;marker-end:url(#Arrow1Mend);stroke-miterlimit:4;stroke-dasharray:none" /><path
       transform="matrix(0.8,0,0,-0.8,0,226.77146)"
       inkscape:connector-curvature="0"
       id="path4315"
       d="m 133.98735,147.7609 1.48747,54.2357"
       style="fill:none;stroke:#000000;stroke-width:1.3125;stroke-linecap:butt;stroke-linejoin:miter;stroke-opacity:1;stroke-miterlimit:4;stroke-dasharray:none" /><path
       transform="matrix(0.8,0,0,-0.8,0,226.77146)"
       inkscape:connector-curvature="0"
       id="path4317"
       d="m 322.66807,200.16586 0,-78.72186 17.96415,0 c 0,0 2.63169,-4.00474 2.63169,-3.54706 0,0.45769 1.6019,7.09412 1.6019,7.09412 l 2.05958,-7.09412 2.174,7.20855 2.05959,-7.43739 1.6019,6.9797 2.28842,-3.31822 23.68521,0"
       style="fill:none;stroke:#000000;stroke-width:1.3125;stroke-linecap:butt;stroke-linejoin:miter;stroke-opacity:1;stroke-miterlimit:4;stroke-dasharray:none" /><path
       inkscape:connector-curvature="0"
       id="path4319"
       d="m 303.07915,142.88912 0,-28.65108"
       style="fill:none;stroke:#000000;stroke-width:1.05;stroke-linecap:butt;stroke-linejoin:miter;stroke-opacity:1;stroke-miterlimit:4;stroke-dasharray:none" /><path
       transform="matrix(0.8,0,0,-0.8,0,226.77146)"
       inkscape:connector-curvature="0"
       id="path4321"
       d="m 379.29707,115.98485 19.90339,-10.51805 0,-25.566958 44.98489,0 2.05773,-5.025308 2.28843,8.696019 2.46006,-8.982072 2.174,8.467176 2.00237,-7.03691 2.00237,7.494596 1.77354,-3.833114 20.59583,0 0,119.316301"
       style="fill:none;stroke:#000000;stroke-width:1.3125;stroke-linecap:butt;stroke-linejoin:miter;stroke-miterlimit:4;stroke-opacity:1;stroke-dasharray:none"
       sodipodi:nodetypes="ccccccccccccc" /><path
       transform="matrix(0.8,0,0,-0.8,0,226.77146)"
       inkscape:connector-curvature="0"
       id="path4323"
       d="m 423.31107,127.15016 0,-45.793972"
       style="fill:none;stroke:#000000;stroke-width:1.3125;stroke-linecap:butt;stroke-linejoin:miter;stroke-opacity:1;marker-end:url(#Arrow1Mend);stroke-miterlimit:4;stroke-dasharray:none"
       sodipodi:nodetypes="cc" /><path
       style="fill:none;stroke:#000000;stroke-width:1.05;stroke-linecap:butt;stroke-linejoin:miter;stroke-opacity:1;marker-end:url(#Arrow1Mend);stroke-miterlimit:4;stroke-dasharray:none"
       d="m 338.64886,113.33377 0,-37.28244"
       id="path4507"
       inkscape:connector-curvature="0" /><path
       transform="matrix(0.8,0,0,-0.8,0,226.77146)"
       inkscape:connector-curvature="0"
       id="path4509"
       d="m 378.64981,131.5192 19.41794,14.56345"
       style="fill:none;stroke:#000000;stroke-width:1.3125;stroke-linecap:butt;stroke-linejoin:miter;stroke-opacity:1;marker-end:url(#Arrow1Mend);stroke-miterlimit:4;stroke-dasharray:none" /><path
       transform="matrix(0.8,0,0,-0.8,0,226.77146)"
       inkscape:connector-curvature="0"
       id="path4693"
       d="m 397.90593,145.43539 0,52.75206"
       style="fill:none;stroke:#000000;stroke-width:1.3125;stroke-linecap:butt;stroke-linejoin:miter;stroke-opacity:1;stroke-miterlimit:4;stroke-dasharray:none" /><path
       inkscape:connector-curvature="0"
       id="path4695"
       d="m 292.82252,106.66902 0,21.7481"
       style="fill:none;stroke:#000000;stroke-width:1.05;stroke-linecap:butt;stroke-linejoin:miter;stroke-opacity:1;marker-end:url(#Arrow1Mend);stroke-miterlimit:4;stroke-dasharray:none"
       sodipodi:nodetypes="cc" /><path
       style="fill:none;stroke:#000000;stroke-width:1.05;stroke-linecap:butt;stroke-linejoin:miter;stroke-opacity:1;marker-end:url(#Arrow1Mend);stroke-miterlimit:4;stroke-dasharray:none"
       d="m 292.82252,95.546574 0,-22.13646"
       id="path4879"
       inkscape:connector-curvature="0" /><path
       sodipodi:type="arc"
       style="fill:#ffffff;stroke:#000000;stroke-width:1.3175;stroke-miterlimit:4;stroke-opacity:1;stroke-dasharray:none;stroke-dashoffset:0"
       id="path4881"
       sodipodi:cx="78.321381"
       sodipodi:cy="156.51413"
       sodipodi:rx="5.6638546"
       sodipodi:ry="5.6638546"
       d="m 83.985235,156.51413 c 0,3.12806 -2.535794,5.66385 -5.663854,5.66385 -3.128061,0 -5.663855,-2.53579 -5.663855,-5.66385 0,-3.12806 2.535794,-5.66385 5.663855,-5.66385 3.12806,0 5.663854,2.53579 5.663854,5.66385 z"
       transform="matrix(1.0533605,0,0,-1.0533605,175.70768,271.44942)" /><text
       transform="scale(1,-1)"
       sodipodi:linespacing="125%"
       id="text4883"
       y="-116.18901"
       x="35.181633"
       style="font-size:11.19999981px;font-style:normal;font-variant:normal;font-weight:normal;font-stretch:normal;line-height:125%;letter-spacing:0px;word-spacing:0px;fill:#000000;fill-opacity:1;stroke:none;font-family:Nimbus Roman No9 L;-inkscape-font-specification:Nimbus Roman No9 L"
       xml:space="preserve"><tspan
         y="-116.18901"
         x="35.181633"
         id="tspan4885"
         sodipodi:role="line">+</tspan></text>
<text
       transform="matrix(0.8,0,0,-0.8,0,226.77146)"
       sodipodi:linespacing="125%"
       id="text4887"
       y="153.71082"
       x="74.373848"
       style="font-size:14px;font-style:normal;font-variant:normal;font-weight:normal;font-stretch:normal;line-height:125%;letter-spacing:0px;word-spacing:0px;fill:#000000;fill-opacity:1;stroke:none;font-family:Nimbus Roman No9 L;-inkscape-font-specification:Nimbus Roman No9 L"
       xml:space="preserve"><tspan
         id="tspan4889"
         sodipodi:role="line" /></text>
<path
       inkscape:connector-curvature="0"
       id="path4891"
       d="m 36.538985,101.74457 4.576852,0"
       style="fill:none;stroke:#000000;stroke-width:0.80000001px;stroke-linecap:butt;stroke-linejoin:miter;stroke-opacity:1" /><path
       sodipodi:nodetypes="cc"
       inkscape:connector-curvature="0"
       id="path4893"
       d="m 41.191669,108.65428 c 1.736746,1.9962 2.870833,-1.32693 5.492222,0.59498"
       style="fill:none;stroke:#000000;stroke-width:0.80000001px;stroke-linecap:butt;stroke-linejoin:miter;stroke-opacity:1" /><path
       style="fill:none;stroke:#000000;stroke-width:0.80000001px;stroke-linecap:butt;stroke-linejoin:miter;stroke-opacity:1"
       d="m 255.4086,105.82042 c 1.73674,1.9962 2.87083,-1.32693 5.49222,0.59498"
       id="path4895"
       inkscape:connector-curvature="0"
       sodipodi:nodetypes="cc" /><path
       sodipodi:nodetypes="cc"
       transform="matrix(0.8,0,0,-0.8,0,226.77146)"
       inkscape:connector-curvature="0"
       id="path4897"
       d="m 258.25859,141.87543 16.50525,0"
       style="fill:none;stroke:#000000;stroke-width:2.25;stroke-linecap:butt;stroke-linejoin:miter;stroke-miterlimit:4;stroke-opacity:1;stroke-dasharray:none;marker-end:url(#TriangleOutM)" /><text
       transform="scale(1,-1)"
       sodipodi:linespacing="125%"
       id="text5273"
       y="-44.013813"
       x="91.652672"
       style="font-size:11.19999981px;font-style:normal;font-variant:normal;font-weight:normal;font-stretch:normal;line-height:125%;letter-spacing:0px;word-spacing:0px;fill:#000000;fill-opacity:1;stroke:none;font-family:Nimbus Roman No9 L;-inkscape-font-specification:Nimbus Roman No9 L"
       xml:space="preserve"><tspan
         y="-44.013813"
         x="91.652672"
         id="tspan5275"
         sodipodi:role="line">(a)</tspan></text>
<text
       xml:space="preserve"
       style="font-size:11.19999981px;font-style:normal;font-variant:normal;font-weight:normal;font-stretch:normal;line-height:125%;letter-spacing:0px;word-spacing:0px;fill:#000000;fill-opacity:1;stroke:none;font-family:Nimbus Roman No9 L;-inkscape-font-specification:Nimbus Roman No9 L"
       x="323.65341"
       y="-44.013813"
       id="text5277"
       sodipodi:linespacing="125%"
       transform="scale(1,-1)"><tspan
         sodipodi:role="line"
         id="tspan5279"
         x="323.65341"
         y="-44.013813">(b)</tspan></text>
<text
       transform="scale(1,-1)"
       sodipodi:linespacing="125%"
       id="text5281"
       y="-171.39548"
       x="135.14885"
       style="font-size:11.19999981px;font-style:normal;font-variant:normal;font-weight:normal;font-stretch:normal;line-height:125%;letter-spacing:0px;word-spacing:0px;fill:#000000;fill-opacity:1;stroke:none;font-family:Nimbus Roman No9 L;-inkscape-font-specification:Nimbus Roman No9 L"
       xml:space="preserve"><tspan
         y="-171.39548"
         x="135.14885"
         id="tspan5283"
         sodipodi:role="line">R<tspan
   dx="0.51781172"
   dy="1.8123411"
   id="tspan5285"
   style="font-size:8.80000019px">C</tspan></tspan></text>
<text
       xml:space="preserve"
       style="font-size:11.19999981px;font-style:normal;font-variant:normal;font-weight:normal;font-stretch:normal;line-height:125%;letter-spacing:0px;word-spacing:0px;fill:#000000;fill-opacity:1;stroke:none;font-family:Nimbus Roman No9 L;-inkscape-font-specification:Nimbus Roman No9 L"
       x="63.972145"
       y="-136.70209"
       id="text5287"
       sodipodi:linespacing="125%"
       transform="scale(1,-1)"><tspan
         sodipodi:role="line"
         id="tspan5289"
         x="63.972145"
         y="-136.70209">R<tspan
   dy="2.3301528"
   id="tspan5293"
   style="font-size:8.80000019px">B</tspan></tspan></text>
<text
       transform="scale(1,-1)"
       sodipodi:linespacing="125%"
       id="text5295"
       y="-128.88396"
       x="183.80637"
       style="font-size:11.19999981px;font-style:normal;font-variant:normal;font-weight:normal;font-stretch:normal;line-height:125%;letter-spacing:0px;word-spacing:0px;fill:#000000;fill-opacity:1;stroke:none;font-family:Nimbus Roman No9 L;-inkscape-font-specification:Nimbus Roman No9 L"
       xml:space="preserve"><tspan
         dy="0 2.1968889"
         y="-128.88396"
         x="183.80637"
         id="tspan5297"
         sodipodi:role="line">Vcc</tspan></text>
<text
       xml:space="preserve"
       style="font-size:11.19999981px;font-style:normal;font-variant:normal;font-weight:normal;font-stretch:normal;line-height:125%;letter-spacing:0px;word-spacing:0px;fill:#000000;fill-opacity:1;stroke:none;font-family:Nimbus Roman No9 L;-inkscape-font-specification:Nimbus Roman No9 L"
       x="354.78308"
       y="-170.87767"
       id="text5299"
       sodipodi:linespacing="125%"
       transform="scale(1,-1)"><tspan
         sodipodi:role="line"
         id="tspan5301"
         x="354.78308"
         y="-170.87767">R<tspan
   style="font-size:8.80000019px"
   id="tspan5303"
   dy="1.8123411"
   dx="0.51781172">C</tspan></tspan></text>
<text
       transform="scale(1,-1)"
       sodipodi:linespacing="125%"
       id="text5305"
       y="-136.18428"
       x="273.14792"
       style="font-size:11.19999981px;font-style:normal;font-variant:normal;font-weight:normal;font-stretch:normal;line-height:125%;letter-spacing:0px;word-spacing:0px;fill:#000000;fill-opacity:1;stroke:none;font-family:Nimbus Roman No9 L;-inkscape-font-specification:Nimbus Roman No9 L"
       xml:space="preserve"><tspan
         y="-136.18428"
         x="273.14792"
         id="tspan5307"
         sodipodi:role="line">R<tspan
   style="font-size:8.80000019px"
   id="tspan5309"
   dy="2.3301528">B</tspan></tspan></text>
<text
       transform="scale(1,-1)"
       sodipodi:linespacing="125%"
       id="text5311"
       y="-115.70264"
       x="331.73026"
       style="font-size:11.19999981px;font-style:normal;font-variant:normal;font-weight:normal;font-stretch:normal;line-height:125%;letter-spacing:0px;word-spacing:0px;fill:#000000;fill-opacity:1;stroke:none;font-family:Nimbus Roman No9 L;-inkscape-font-specification:Nimbus Roman No9 L"
       xml:space="preserve"><tspan
         dy="0 1.8307407"
         y="-115.70264"
         x="331.73026"
         id="tspan5313"
         sodipodi:role="line">Vc</tspan></text>
<g
       id="g5416"
       ns0:preamble="/home/sriranga/Desktop/Prism-Basic-Electronics/package.tex"
       ns0:text="$\\upsilon_{\\text{in}}$"
       transform="matrix(1.3266609,0,0,-1.3266609,-276.34762,289.99882)"><defs
         id="defs5418"><g
           id="g5420"><symbol
             id="textext-b94e3f0c-0"
             overflow="visible"
             style="overflow:visible"><path
               id="path5423"
               d=""
               style="stroke:none"
               inkscape:connector-curvature="0" /></symbol><symbol
             id="textext-b94e3f0c-1"
             overflow="visible"
             style="overflow:visible"><path
               id="path5426"
               d="m 5.03125,-3.9375 c 0,-0.296875 0,-0.453125 -0.09375,-0.453125 -0.109375,0 -0.890625,0.65625 -1,0.765625 0.015625,0 0.171875,0.09375 0.171875,0.75 0,1.015625 -0.65625,2.609375 -1.90625,2.609375 -0.484375,0 -0.765625,-0.265625 -0.765625,-0.640625 0,-1 0.75,-1.640625 0.75,-2.75 0,-0.453125 -0.1875,-0.734375 -0.765625,-0.734375 -0.671875,0 -1.109375,0.6875 -1.15625,0.796875 l 0.0625,0.0625 C 0.390625,-3.609375 0.65625,-3.890625 1,-3.890625 c 0.203125,0 0.359375,0.078125 0.359375,0.375 0,0.84375 -0.71875,1.375 -0.71875,2.59375 0,0.53125 0.40625,1.03125 1.203125,1.03125 2.40625,0 3.1875,-3.171875 3.1875,-4.046875 z m 0,0"
               style="stroke:none"
               inkscape:connector-curvature="0" /></symbol><symbol
             id="textext-b94e3f0c-2"
             overflow="visible"
             style="overflow:visible"><path
               id="path5429"
               d=""
               style="stroke:none"
               inkscape:connector-curvature="0" /></symbol><symbol
             id="textext-b94e3f0c-3"
             overflow="visible"
             style="overflow:visible"><path
               id="path5432"
               d="m 1.21875,-3.203125 -1.078125,0.375 0,0.109375 0.046875,0 C 0.28125,-2.734375 0.375,-2.75 0.4375,-2.75 c 0.15625,0 0.21875,0.109375 0.21875,0.421875 l 0,1.625 c 0,0.5 -0.0625,0.578125 -0.546875,0.59375 l 0,0.109375 1.65625,0 0,-0.109375 C 1.296875,-0.140625 1.25,-0.203125 1.25,-0.703125 l 0,-2.484375 z m -0.328125,-1.5625 c -0.1875,0 -0.34375,0.171875 -0.34375,0.359375 0,0.203125 0.15625,0.359375 0.34375,0.359375 0.203125,0 0.359375,-0.15625 0.359375,-0.359375 0,-0.1875 -0.15625,-0.359375 -0.359375,-0.359375 z m 0,0"
               style="stroke:none"
               inkscape:connector-curvature="0" /></symbol><symbol
             id="textext-b94e3f0c-4"
             overflow="visible"
             style="overflow:visible"><path
               id="path5435"
               d="m 0.109375,-2.78125 c 0.046875,-0.015625 0.109375,-0.015625 0.1875,-0.015625 0.203125,0 0.265625,0.09375 0.265625,0.4375 l 0,1.734375 c 0,0.390625 -0.078125,0.5 -0.4375,0.515625 L 0.125,0 l 1.484375,0 0,-0.109375 C 1.25,-0.125 1.140625,-0.21875 1.140625,-0.46875 l 0,-1.953125 c 0.34375,-0.3125 0.484375,-0.40625 0.71875,-0.40625 0.34375,0 0.515625,0.21875 0.515625,0.6875 l 0,1.453125 c 0,0.4375 -0.09375,0.5625 -0.4375,0.578125 L 1.9375,0 3.375,0 l 0,-0.109375 C 3.03125,-0.140625 2.953125,-0.21875 2.953125,-0.5625 l 0,-1.59375 c 0,-0.65625 -0.3125,-1.046875 -0.828125,-1.046875 -0.3125,0 -0.53125,0.109375 -1,0.5625 l 0,-0.546875 -0.046875,-0.015625 C 0.734375,-3.078125 0.5,-3 0.109375,-2.890625 z m 0,0"
               style="stroke:none"
               inkscape:connector-curvature="0" /></symbol></g></defs><g
         id="textext-b94e3f0c-5"><g
           id="g5438"
           style="fill:#000000;fill-opacity:1"><use
             id="use5440"
             y="134.765"
             x="223.43201"
             xlink:href="#textext-b94e3f0c-1"
             width="496.06299"
             height="283.46457" /></g><g
           id="g5442"
           style="fill:#000000;fill-opacity:1"><use
             id="use5444"
             y="136.259"
             x="228.662"
             xlink:href="#textext-b94e3f0c-3"
             width="496.06299"
             height="283.46457" /><use
             id="use5446"
             y="136.259"
             x="230.60072"
             xlink:href="#textext-b94e3f0c-4"
             width="496.06299"
             height="283.46457" /></g></g></g><text
       transform="scale(1,-1)"
       sodipodi:linespacing="125%"
       id="text5566"
       y="-81.975998"
       x="12.711402"
       style="font-size:11.19999981px;font-style:normal;font-variant:normal;font-weight:normal;font-stretch:normal;line-height:125%;letter-spacing:0px;word-spacing:0px;fill:#000000;fill-opacity:1;stroke:none;font-family:Nimbus Roman No9 L;-inkscape-font-specification:Nimbus Roman No9 L"
       xml:space="preserve"><tspan
         y="-81.975998"
         x="12.711402"
         id="tspan5568"
         sodipodi:role="line"><tspan
           style="font-size:8.80000019px"
           id="tspan5570"
           dy="0 2.3301528"><tspan
   style="font-size:11.19999981px"
   id="tspan5572">V</tspan>BB</tspan></tspan></text>
<g
       transform="matrix(1.3266609,0,0,-1.3266609,-61.215324,283.96497)"
       ns0:text="$\\upsilon_{\\text{in}}$"
       ns0:preamble="/home/sriranga/Desktop/Prism-Basic-Electronics/package.tex"
       id="g5574"><defs
         id="defs5576"><g
           id="g5578"><symbol
             style="overflow:visible"
             overflow="visible"
             id="symbol5580"><path
               inkscape:connector-curvature="0"
               style="stroke:none"
               d=""
               id="path5582" /></symbol><symbol
             style="overflow:visible"
             overflow="visible"
             id="symbol5584"><path
               inkscape:connector-curvature="0"
               style="stroke:none"
               d="m 5.03125,-3.9375 c 0,-0.296875 0,-0.453125 -0.09375,-0.453125 -0.109375,0 -0.890625,0.65625 -1,0.765625 0.015625,0 0.171875,0.09375 0.171875,0.75 0,1.015625 -0.65625,2.609375 -1.90625,2.609375 -0.484375,0 -0.765625,-0.265625 -0.765625,-0.640625 0,-1 0.75,-1.640625 0.75,-2.75 0,-0.453125 -0.1875,-0.734375 -0.765625,-0.734375 -0.671875,0 -1.109375,0.6875 -1.15625,0.796875 l 0.0625,0.0625 C 0.390625,-3.609375 0.65625,-3.890625 1,-3.890625 c 0.203125,0 0.359375,0.078125 0.359375,0.375 0,0.84375 -0.71875,1.375 -0.71875,2.59375 0,0.53125 0.40625,1.03125 1.203125,1.03125 2.40625,0 3.1875,-3.171875 3.1875,-4.046875 z m 0,0"
               id="path5586" /></symbol><symbol
             style="overflow:visible"
             overflow="visible"
             id="symbol5588"><path
               inkscape:connector-curvature="0"
               style="stroke:none"
               d=""
               id="path5590" /></symbol><symbol
             style="overflow:visible"
             overflow="visible"
             id="symbol5592"><path
               inkscape:connector-curvature="0"
               style="stroke:none"
               d="m 1.21875,-3.203125 -1.078125,0.375 0,0.109375 0.046875,0 C 0.28125,-2.734375 0.375,-2.75 0.4375,-2.75 c 0.15625,0 0.21875,0.109375 0.21875,0.421875 l 0,1.625 c 0,0.5 -0.0625,0.578125 -0.546875,0.59375 l 0,0.109375 1.65625,0 0,-0.109375 C 1.296875,-0.140625 1.25,-0.203125 1.25,-0.703125 l 0,-2.484375 z m -0.328125,-1.5625 c -0.1875,0 -0.34375,0.171875 -0.34375,0.359375 0,0.203125 0.15625,0.359375 0.34375,0.359375 0.203125,0 0.359375,-0.15625 0.359375,-0.359375 0,-0.1875 -0.15625,-0.359375 -0.359375,-0.359375 z m 0,0"
               id="path5594" /></symbol><symbol
             style="overflow:visible"
             overflow="visible"
             id="symbol5596"><path
               inkscape:connector-curvature="0"
               style="stroke:none"
               d="m 0.109375,-2.78125 c 0.046875,-0.015625 0.109375,-0.015625 0.1875,-0.015625 0.203125,0 0.265625,0.09375 0.265625,0.4375 l 0,1.734375 c 0,0.390625 -0.078125,0.5 -0.4375,0.515625 L 0.125,0 l 1.484375,0 0,-0.109375 C 1.25,-0.125 1.140625,-0.21875 1.140625,-0.46875 l 0,-1.953125 c 0.34375,-0.3125 0.484375,-0.40625 0.71875,-0.40625 0.34375,0 0.515625,0.21875 0.515625,0.6875 l 0,1.453125 c 0,0.4375 -0.09375,0.5625 -0.4375,0.578125 L 1.9375,0 3.375,0 l 0,-0.109375 C 3.03125,-0.140625 2.953125,-0.21875 2.953125,-0.5625 l 0,-1.59375 c 0,-0.65625 -0.3125,-1.046875 -0.828125,-1.046875 -0.3125,0 -0.53125,0.109375 -1,0.5625 l 0,-0.546875 -0.046875,-0.015625 C 0.734375,-3.078125 0.5,-3 0.109375,-2.890625 z m 0,0"
               id="path5598" /></symbol></g></defs><g
         id="g5600"><g
           style="fill:#000000;fill-opacity:1"
           id="g5602"><use
             height="283.46457"
             width="496.06299"
             xlink:href="#textext-b94e3f0c-1"
             x="223.43201"
             y="134.765"
             id="use5604" /></g><g
           style="fill:#000000;fill-opacity:1"
           id="g5606"><use
             height="283.46457"
             width="496.06299"
             xlink:href="#textext-b94e3f0c-3"
             x="228.662"
             y="136.259"
             id="use5608" /><use
             height="283.46457"
             width="496.06299"
             xlink:href="#textext-b94e3f0c-4"
             x="230.60072"
             y="136.259"
             id="use5610" /></g></g></g><text
       xml:space="preserve"
       style="font-size:11.19999981px;font-style:normal;font-variant:normal;font-weight:normal;font-stretch:normal;line-height:125%;letter-spacing:0px;word-spacing:0px;fill:#000000;fill-opacity:1;stroke:none;font-family:Nimbus Roman No9 L;-inkscape-font-specification:Nimbus Roman No9 L"
       x="285.41251"
       y="-97.76136"
       id="text5612"
       sodipodi:linespacing="125%"
       transform="scale(1,-1)"><tspan
         sodipodi:role="line"
         id="tspan5614"
         x="285.41251"
         y="-97.76136">V<tspan
   style="font-size:8.80000019px"
   id="tspan5616"
   dy="1.4645927"
   dx="0.18307409">b</tspan></tspan></text>
</g></svg>