<?xml version="1.0" encoding="UTF-8" standalone="no"?>
<!-- Created with Inkscape (http://www.inkscape.org/) -->

<svg
   xmlns:ns0="http://www.iki.fi/pav/software/textext/"
   xmlns:dc="http://purl.org/dc/elements/1.1/"
   xmlns:cc="http://creativecommons.org/ns#"
   xmlns:rdf="http://www.w3.org/1999/02/22-rdf-syntax-ns#"
   xmlns:svg="http://www.w3.org/2000/svg"
   xmlns="http://www.w3.org/2000/svg"
   xmlns:sodipodi="http://sodipodi.sourceforge.net/DTD/sodipodi-0.dtd"
   xmlns:inkscape="http://www.inkscape.org/namespaces/inkscape"
   width="496.06299"
   height="673.22833"
   id="svg2"
   version="1.1"
   inkscape:version="0.48.4 r9939"
   sodipodi:docname="fig8.2.svg">
  <sodipodi:namedview
     id="base"
     pagecolor="#ffffff"
     bordercolor="#666666"
     borderopacity="1.0"
     inkscape:pageopacity="0.0"
     inkscape:pageshadow="2"
     inkscape:zoom="0.88677195"
     inkscape:cx="248.03149"
     inkscape:cy="336.61417"
     inkscape:document-units="cm"
     inkscape:current-layer="layer1"
     showgrid="false"
     units="cm"
     inkscape:object-nodes="true"
     inkscape:window-width="1366"
     inkscape:window-height="744"
     inkscape:window-x="0"
     inkscape:window-y="24"
     inkscape:window-maximized="1"
     showguides="true"
     inkscape:guide-bbox="true">
    <inkscape:grid
       type="xygrid"
       id="grid2985"
       empspacing="5"
       visible="true"
       enabled="true"
       snapvisiblegridlinesonly="true" />
  </sodipodi:namedview>
  <defs
     id="defs4">
    <marker
       inkscape:stockid="Arrow1Send"
       orient="auto"
       refY="0.0"
       refX="0.0"
       id="Arrow1Send"
       style="overflow:visible;">
      <path
         id="path3818"
         d="M 0.0,0.0 L 5.0,-5.0 L -12.5,0.0 L 5.0,5.0 L 0.0,0.0 z "
         style="fill-rule:evenodd;stroke:#000000;stroke-width:1.0pt;"
         transform="scale(0.2) rotate(180) translate(6,0)" />
    </marker>
    <marker
       inkscape:stockid="Arrow1Sstart"
       orient="auto"
       refY="0.0"
       refX="0.0"
       id="Arrow1Sstart"
       style="overflow:visible">
      <path
         id="path3815"
         d="M 0.0,0.0 L 5.0,-5.0 L -12.5,0.0 L 5.0,5.0 L 0.0,0.0 z "
         style="fill-rule:evenodd;stroke:#000000;stroke-width:1.0pt"
         transform="scale(0.2) translate(6,0)" />
    </marker>
    <marker
       inkscape:stockid="Arrow1Mstart"
       orient="auto"
       refY="0.0"
       refX="0.0"
       id="Arrow1Mstart"
       style="overflow:visible">
      <path
         id="path3809"
         d="M 0.0,0.0 L 5.0,-5.0 L -12.5,0.0 L 5.0,5.0 L 0.0,0.0 z "
         style="fill-rule:evenodd;stroke:#000000;stroke-width:1.0pt"
         transform="scale(0.4) translate(10,0)" />
    </marker>
    <marker
       inkscape:stockid="Arrow1Mend"
       orient="auto"
       refY="0"
       refX="0"
       id="Arrow1Mend"
       style="overflow:visible">
      <path
         id="path3812"
         d="M 0,0 5,-5 -12.5,0 5,5 0,0 z"
         style="fill-rule:evenodd;stroke:#000000;stroke-width:1pt"
         transform="matrix(-0.4,0,0,-0.4,-4,0)"
         inkscape:connector-curvature="0" />
    </marker>
  </defs>
  <metadata
     id="metadata7">
    <rdf:RDF>
      <cc:Work
         rdf:about="">
        <dc:format>image/svg+xml</dc:format>
        <dc:type
           rdf:resource="http://purl.org/dc/dcmitype/StillImage" />
        <dc:title></dc:title>
      </cc:Work>
    </rdf:RDF>
  </metadata>
  <g
     inkscape:label="Layer 1"
     inkscape:groupmode="layer"
     id="layer1"
     transform="translate(0,-379.13253)">
    <path
       style="fill:none;stroke:#000000;stroke-width:1.20000005;stroke-linecap:round;stroke-linejoin:round;stroke-miterlimit:4;stroke-opacity:1;stroke-dasharray:none;stroke-dashoffset:0;marker-start:url(#Arrow1Mstart)"
       d="m 40,413.28179 0,542.94597"
       id="path4295"
       inkscape:connector-curvature="0" />
    <path
       inkscape:connector-curvature="0"
       id="path4483"
       d="m 416.35049,642.36086 -406.3504904,0"
       style="fill:none;stroke:#000000;stroke-width:1.20000005;stroke-linecap:round;stroke-linejoin:round;stroke-miterlimit:4;stroke-opacity:1;stroke-dasharray:none;stroke-dashoffset:0;marker-start:url(#Arrow1Mstart)" />
    <path
       style="fill:none;stroke:#000000;stroke-width:1.20000029;stroke-linecap:round;stroke-linejoin:round;stroke-miterlimit:4;stroke-opacity:1;stroke-dasharray:none;stroke-dashoffset:0"
       d="m 40.000004,642.36086 c 0.999996,-25 1.025328,-49.99998 2.630894,-49.99999 2.369102,-10e-6 2.369102,99.99999 4.964865,100 2.404237,10e-6 2.404237,-100.00001 4.964864,-100 2.560627,10e-6 2.439373,99.99999 4.964865,100 2.525492,10e-6 2.474508,-100.00001 4.964865,-100 2.490357,10e-6 2.509643,99.99999 4.964865,100 2.455222,10e-6 2.544778,-100.00001 4.964863,-100 2.420085,10e-6 2.579915,100.00001 4.964863,100 1.371029,-10e-6 2.411975,-42.66036 2.411221,-50"
       id="path4485"
       inkscape:connector-curvature="0"
       sodipodi:nodetypes="csszzzzzsc" />
    <path
       style="fill:none;stroke:#000000;stroke-width:1.20000005;stroke-linecap:round;stroke-linejoin:round;stroke-miterlimit:4;stroke-opacity:1;stroke-dasharray:none;stroke-dashoffset:0;marker-start:url(#Arrow1Mstart)"
       d="m 416.35049,492.36086 -406.3504904,0"
       id="path4493"
       inkscape:connector-curvature="0" />
    <path
       style="fill:none;stroke:#000000;stroke-width:1.20000017;stroke-linecap:round;stroke-linejoin:round;stroke-miterlimit:4;stroke-opacity:1;stroke-dasharray:none;stroke-dashoffset:0"
       d="m 99.999998,492.36086 c 0,0 18.750012,45 30.000002,45 11.25,0 30,-45 30,-45 m 0,0 c 0,0 18.75001,-45 30,-45 11.24999,0 30.00001,45 30.00001,45 m 0,0 c 0,0 18.75,45 29.99999,45 11.25001,0 30.00001,-45 30.00001,-45 m 0,0 c 0,0 18.74998,-45 29.99999,-45 11.25,0 30,45 30,45 m -299.999998,0 c 0,0 18.749998,-45 29.999998,-45 11.249999,0 29.999998,45 29.999998,45"
       id="path4497"
       inkscape:connector-curvature="0"
       sodipodi:nodetypes="czcczcczcczcczc" />
    <path
       style="fill:none;stroke:#000000;stroke-width:0.80000001;stroke-linecap:round;stroke-linejoin:round;stroke-miterlimit:4;stroke-opacity:1;stroke-dasharray:3.2, 3.2;stroke-dashoffset:0;marker-start:none"
       d="m 69.98164,867.36086 -29.981637,0"
       id="path4753"
       inkscape:connector-curvature="0"
       sodipodi:nodetypes="cc" />
    <path
       style="fill:none;stroke:#000000;stroke-width:0.80000001;stroke-linecap:round;stroke-linejoin:round;stroke-miterlimit:4;stroke-opacity:1;stroke-dasharray:3.2, 3.2;stroke-dashoffset:0;marker-start:none"
       d="m 35.000002,537.36086 95.000008,0"
       id="path3022"
       inkscape:connector-curvature="0" />
    <path
       style="fill:none;stroke:#000000;stroke-width:0.79999995;stroke-linecap:round;stroke-linejoin:round;stroke-miterlimit:4;stroke-opacity:1;stroke-dasharray:none;stroke-dashoffset:0;marker-start:url(#Arrow1Mstart);marker-end:url(#Arrow1Mend)"
       d="m 70,869.28928 0,41.33512"
       id="path3028"
       inkscape:connector-curvature="0" />
    <g
       id="g4616"
       transform="matrix(1.2,0,0,-1.2,156.54846,1764.6501)"
       xml:space="preserve"
       stroke-miterlimit="10.433"
       font-style="normal"
       font-variant="normal"
       font-weight="normal"
       font-stretch="normal"
       font-size-adjust="none"
       letter-spacing="normal"
       word-spacing="normal"
       ns0:text="$t$"
       ns0:preamble="/home/sriranga/Desktop/Prism_BasicElectronics/preamble.tex"
       style="font-style:normal;font-variant:normal;font-weight:normal;font-stretch:normal;letter-spacing:normal;word-spacing:normal;text-anchor:start;fill:none;stroke:#000000;stroke-width:1;stroke-linecap:butt;stroke-linejoin:miter;stroke-miterlimit:10.43299961;stroke-opacity:1;stroke-dasharray:none;stroke-dashoffset:0"><path
         style="fill:#000000;stroke-width:0"
         inkscape:connector-curvature="0"
         d="m 226.38,711.38 h -0.8 l 0.28,1.02 c 0.01,0.02 0.01,0.04 0.01,0.05 0,0.07 -0.03,0.1 -0.08,0.1 -0.06,0 -0.09,-0.01 -0.15,-0.09 -0.39,-0.51 -1,-1 -1.32,-1.09 -0.25,-0.08 -0.32,-0.14 -0.32,-0.25 0,-0.01 0,-0.03 0.01,-0.06 h 0.73 l -0.71,-2.73 c -0.02,-0.09 -0.03,-0.12 -0.06,-0.21 -0.09,-0.3 -0.17,-0.65 -0.17,-0.73 0,-0.22 0.21,-0.37 0.48,-0.37 0.46,0 0.78,0.27 1.41,1.2 l -0.13,0.07 c -0.49,-0.63 -0.65,-0.79 -0.8,-0.79 -0.09,0 -0.15,0.08 -0.15,0.2 0,0.01 0,0.02 0.01,0.05 l 0.87,3.31 h 0.84 z"
         id="path4618" /></g>    <g
       style="font-style:normal;font-variant:normal;font-weight:normal;font-stretch:normal;letter-spacing:normal;word-spacing:normal;text-anchor:start;fill:none;stroke:#000000;stroke-width:1;stroke-linecap:butt;stroke-linejoin:miter;stroke-miterlimit:10.43299961;stroke-opacity:1;stroke-dasharray:none;stroke-dashoffset:0"
       ns0:preamble="/home/sriranga/Desktop/Prism_BasicElectronics/preamble.tex"
       ns0:text="$t$"
       word-spacing="normal"
       letter-spacing="normal"
       font-size-adjust="none"
       font-stretch="normal"
       font-weight="normal"
       font-variant="normal"
       font-style="normal"
       stroke-miterlimit="10.433"
       xml:space="preserve"
       transform="matrix(1.2,0,0,-1.2,155.04756,1494.3966)"
       id="g4677"><path
         id="path4679"
         d="m 226.38,711.38 h -0.8 l 0.28,1.02 c 0.01,0.02 0.01,0.04 0.01,0.05 0,0.07 -0.03,0.1 -0.08,0.1 -0.06,0 -0.09,-0.01 -0.15,-0.09 -0.39,-0.51 -1,-1 -1.32,-1.09 -0.25,-0.08 -0.32,-0.14 -0.32,-0.25 0,-0.01 0,-0.03 0.01,-0.06 h 0.73 l -0.71,-2.73 c -0.02,-0.09 -0.03,-0.12 -0.06,-0.21 -0.09,-0.3 -0.17,-0.65 -0.17,-0.73 0,-0.22 0.21,-0.37 0.48,-0.37 0.46,0 0.78,0.27 1.41,1.2 l -0.13,0.07 c -0.49,-0.63 -0.65,-0.79 -0.8,-0.79 -0.09,0 -0.15,0.08 -0.15,0.2 0,0.01 0,0.02 0.01,0.05 l 0.87,3.31 h 0.84 z"
         inkscape:connector-curvature="0"
         style="fill:#000000;stroke-width:0" /></g>    <g
       id="g4681"
       transform="matrix(1.2,0,0,-1.2,155.54383,1343.737)"
       xml:space="preserve"
       stroke-miterlimit="10.433"
       font-style="normal"
       font-variant="normal"
       font-weight="normal"
       font-stretch="normal"
       font-size-adjust="none"
       letter-spacing="normal"
       word-spacing="normal"
       ns0:text="$t$"
       ns0:preamble="/home/sriranga/Desktop/Prism_BasicElectronics/preamble.tex"
       style="font-style:normal;font-variant:normal;font-weight:normal;font-stretch:normal;letter-spacing:normal;word-spacing:normal;text-anchor:start;fill:none;stroke:#000000;stroke-width:1;stroke-linecap:butt;stroke-linejoin:miter;stroke-miterlimit:10.43299961;stroke-opacity:1;stroke-dasharray:none;stroke-dashoffset:0"><path
         style="fill:#000000;stroke-width:0"
         inkscape:connector-curvature="0"
         d="m 226.38,711.38 h -0.8 l 0.28,1.02 c 0.01,0.02 0.01,0.04 0.01,0.05 0,0.07 -0.03,0.1 -0.08,0.1 -0.06,0 -0.09,-0.01 -0.15,-0.09 -0.39,-0.51 -1,-1 -1.32,-1.09 -0.25,-0.08 -0.32,-0.14 -0.32,-0.25 0,-0.01 0,-0.03 0.01,-0.06 h 0.73 l -0.71,-2.73 c -0.02,-0.09 -0.03,-0.12 -0.06,-0.21 -0.09,-0.3 -0.17,-0.65 -0.17,-0.73 0,-0.22 0.21,-0.37 0.48,-0.37 0.46,0 0.78,0.27 1.41,1.2 l -0.13,0.07 c -0.49,-0.63 -0.65,-0.79 -0.8,-0.79 -0.09,0 -0.15,0.08 -0.15,0.2 0,0.01 0,0.02 0.01,0.05 l 0.87,3.31 h 0.84 z"
         id="path4683" /></g>    <g
       style="font-style:normal;font-variant:normal;font-weight:normal;font-stretch:normal;letter-spacing:normal;word-spacing:normal;text-anchor:start;fill:none;stroke:#000000;stroke-width:1;stroke-linecap:butt;stroke-linejoin:miter;stroke-miterlimit:10.43299961;stroke-opacity:1;stroke-dasharray:none;stroke-dashoffset:0"
       ns0:preamble="/home/sriranga/Desktop/Prism_BasicElectronics/preamble.tex"
       ns0:text="$E_{m(t)}$"
       word-spacing="normal"
       letter-spacing="normal"
       font-size-adjust="none"
       font-stretch="normal"
       font-weight="normal"
       font-variant="normal"
       font-style="normal"
       stroke-miterlimit="10.433"
       xml:space="preserve"
       transform="matrix(1.2,0,0,-1.2,-253.65645,1261.06)"
       id="g4796"><path
         id="path4798"
         d="m 229.99,713.61 h -4.95 v -0.16 c 0.62,-0.06 0.77,-0.14 0.77,-0.4 0,-0.11 -0.06,-0.46 -0.11,-0.64 l -1.22,-4.39 c -0.17,-0.57 -0.25,-0.64 -0.81,-0.74 v -0.16 h 5.04 l 0.62,1.61 -0.16,0.08 c -0.46,-0.63 -0.72,-0.89 -1.15,-1.09 -0.37,-0.17 -1.05,-0.27 -1.79,-0.27 -0.56,0 -0.8,0.1 -0.8,0.34 0,0.11 0.11,0.58 0.36,1.45 0.13,0.44 0.22,0.77 0.32,1.14 0.35,-0.02 0.65,-0.03 0.77,-0.03 0.39,0.01 0.67,-0.05 0.78,-0.15 0.05,-0.04 0.07,-0.13 0.07,-0.3 0,-0.17 -0.02,-0.3 -0.07,-0.52 l 0.2,-0.05 0.68,2.31 -0.18,0.03 c -0.38,-0.84 -0.47,-0.9 -1.38,-0.94 -0.11,0 -0.43,-0.01 -0.78,-0.02 l 0.65,2.32 c 0.06,0.21 0.17,0.25 0.73,0.25 1.56,0 1.91,-0.12 1.91,-0.72 0,-0.13 -0.01,-0.28 -0.02,-0.45 l 0.21,-0.02 z"
         inkscape:connector-curvature="0"
         style="fill:#000000;stroke-width:0" /><path
         id="path4800"
         d="m 234.82,706.45 -0.02,-0.02 -0.01,-0.02 -0.01,-0.01 -0.01,-0.01 -0.01,-0.01 -0.01,-0.01 0,-0.01 -0.01,0 0,-0.01 -0.01,0 0,-0.01 -0.01,-0.01 0,0 -0.01,-0.01 0,0 0,-0.01 -0.01,0 0,-0.01 -0.01,0 0,-0.01 0,0 -0.01,-0.01 0,0 0,0 0,-0.01 -0.01,0 0,0 0,-0.01 c -0.2,-0.25 -0.34,-0.36 -0.45,-0.36 -0.05,0 -0.09,0.04 -0.09,0.11 0,0.03 0.03,0.14 0.07,0.31 l 0.48,1.75 c 0,0.02 0.02,0.15 0.02,0.19 0,0.25 -0.18,0.44 -0.41,0.44 -0.14,0 -0.28,-0.05 -0.44,-0.16 -0.34,-0.22 -0.63,-0.55 -1.11,-1.32 0.17,0.53 0.28,0.93 0.28,1.06 0,0.24 -0.16,0.42 -0.4,0.42 -0.42,0 -0.91,-0.46 -1.55,-1.47 l 0.4,1.45 -0.02,0.02 c -0.39,-0.09 -0.54,-0.11 -1.11,-0.22 v -0.11 h 0.17 c 0.18,0 0.27,-0.05 0.27,-0.15 0,-0.08 -0.16,-0.71 -0.41,-1.6 -0.16,-0.57 -0.18,-0.63 -0.27,-0.99 h 0.52 c 0.34,1.11 0.44,1.36 0.68,1.72 0.39,0.6 0.81,0.99 1.04,0.99 0.09,0 0.14,-0.07 0.14,-0.18 0,-0.06 -0.22,-0.9 -0.66,-2.53 h 0.52 c 0.28,1.09 0.42,1.43 0.78,1.93 0.34,0.47 0.69,0.78 0.89,0.78 0.07,0 0.14,-0.07 0.14,-0.15 0,-0.03 -0.02,-0.12 -0.05,-0.24 l -0.41,-1.6 c -0.06,-0.26 -0.09,-0.39 -0.09,-0.46 0,-0.21 0.1,-0.32 0.28,-0.32 0.33,0 0.64,0.23 1,0.74 l 0.04,0.05 z"
         inkscape:connector-curvature="0"
         style="fill:#000000;stroke-width:0" /><path
         id="path4802"
         d="m 237.11,710.33 -0.05,-0.03 -0.05,-0.03 -0.04,-0.03 -0.04,-0.03 -0.04,-0.02 -0.04,-0.03 -0.04,-0.03 -0.04,-0.02 -0.03,-0.03 -0.04,-0.03 -0.03,-0.02 -0.03,-0.02 -0.03,-0.03 -0.03,-0.02 -0.06,-0.05 -0.05,-0.05 -0.06,-0.05 -0.05,-0.04 -0.04,-0.05 -0.05,-0.06 -0.05,-0.05 -0.05,-0.05 -0.04,-0.06 c -0.5,-0.61 -0.74,-1.3 -0.74,-2.12 0,-0.88 0.26,-1.56 0.87,-2.27 0.28,-0.33 0.46,-0.49 0.83,-0.71 l 0.08,0.11 c -0.56,0.44 -0.75,0.68 -0.94,1.2 -0.17,0.47 -0.24,1 -0.24,1.69 0,0.73 0.09,1.31 0.27,1.74 0.2,0.43 0.41,0.68 0.91,1.08 z"
         inkscape:connector-curvature="0"
         style="fill:#000000;stroke-width:0" /><path
         id="path4804"
         d="m 239.44,708.61 h -0.56 l 0.19,0.71 c 0.01,0.02 0.01,0.03 0.01,0.04 0,0.05 -0.02,0.07 -0.05,0.07 -0.05,0 -0.07,-0.01 -0.11,-0.07 -0.27,-0.35 -0.7,-0.7 -0.93,-0.76 -0.17,-0.06 -0.22,-0.1 -0.22,-0.17 0,-0.01 0,-0.02 0.01,-0.04 h 0.51 l -0.5,-1.92 c -0.01,-0.06 -0.02,-0.08 -0.04,-0.14 -0.06,-0.21 -0.12,-0.46 -0.12,-0.51 0,-0.15 0.15,-0.27 0.34,-0.27 0.32,0 0.55,0.2 0.99,0.85 l -0.09,0.05 c -0.35,-0.44 -0.46,-0.55 -0.57,-0.55 -0.06,0 -0.1,0.05 -0.1,0.13 0,0.01 0,0.02 0,0.04 l 0.62,2.32 h 0.58 z"
         inkscape:connector-curvature="0"
         style="fill:#000000;stroke-width:0" /><path
         id="path4806"
         d="m 239.7,704.4 0.05,0.03 0.05,0.03 0.04,0.03 0.04,0.03 0.04,0.03 0.04,0.02 0.04,0.03 0.04,0.03 0.03,0.02 0.04,0.03 0.03,0.02 0.03,0.03 0.03,0.02 0.03,0.02 0.06,0.05 0.06,0.05 0.05,0.05 0.05,0.05 0.05,0.05 0.04,0.05 0.05,0.05 0.05,0.06 0.05,0.05 c 0.49,0.61 0.73,1.3 0.73,2.12 0,0.89 -0.25,1.56 -0.87,2.27 -0.28,0.34 -0.46,0.49 -0.82,0.71 l -0.09,-0.11 c 0.56,-0.44 0.75,-0.68 0.94,-1.2 0.17,-0.47 0.24,-1 0.24,-1.69 0,-0.73 -0.09,-1.3 -0.27,-1.73 -0.2,-0.44 -0.41,-0.69 -0.91,-1.09 z"
         inkscape:connector-curvature="0"
         style="fill:#000000;stroke-width:0" /></g>    <path
       inkscape:connector-curvature="0"
       id="path4883"
       d="m 35.000002,442.28789 34.796748,0"
       style="fill:none;stroke:#000000;stroke-width:0.8;stroke-linecap:round;stroke-linejoin:round;stroke-miterlimit:4;stroke-opacity:1;stroke-dasharray:3.2,3.2;stroke-dashoffset:0;marker-start:none"
       sodipodi:nodetypes="cc" />
    <g
       id="g4975"
       transform="matrix(1.2,0,0,-1.2,-250.26747,1290.9617)"
       xml:space="preserve"
       stroke-miterlimit="10.433"
       font-style="normal"
       font-variant="normal"
       font-weight="normal"
       font-stretch="normal"
       font-size-adjust="none"
       letter-spacing="normal"
       word-spacing="normal"
       ns0:text="$E_{m}$"
       ns0:preamble="/home/sriranga/Desktop/Prism_BasicElectronics/preamble.tex"
       style="font-style:normal;font-variant:normal;font-weight:normal;font-stretch:normal;letter-spacing:normal;word-spacing:normal;text-anchor:start;fill:none;stroke:#000000;stroke-width:1;stroke-linecap:butt;stroke-linejoin:miter;stroke-miterlimit:10.43299961;stroke-opacity:1;stroke-dasharray:none;stroke-dashoffset:0"><path
         style="fill:#000000;stroke-width:0"
         inkscape:connector-curvature="0"
         d="m 229.99,713.61 h -4.95 v -0.16 c 0.62,-0.06 0.77,-0.14 0.77,-0.4 0,-0.11 -0.06,-0.46 -0.11,-0.64 l -1.22,-4.39 c -0.17,-0.57 -0.25,-0.64 -0.81,-0.74 v -0.16 h 5.04 l 0.62,1.61 -0.16,0.08 c -0.46,-0.63 -0.72,-0.89 -1.15,-1.09 -0.37,-0.17 -1.05,-0.27 -1.79,-0.27 -0.56,0 -0.8,0.1 -0.8,0.34 0,0.11 0.11,0.58 0.36,1.45 0.13,0.44 0.22,0.77 0.32,1.14 0.35,-0.02 0.65,-0.03 0.77,-0.03 0.39,0.01 0.67,-0.05 0.78,-0.15 0.05,-0.04 0.07,-0.13 0.07,-0.3 0,-0.17 -0.02,-0.3 -0.07,-0.52 l 0.2,-0.05 0.68,2.31 -0.18,0.03 c -0.38,-0.84 -0.47,-0.9 -1.38,-0.94 -0.11,0 -0.43,-0.01 -0.78,-0.02 l 0.65,2.32 c 0.06,0.21 0.17,0.25 0.73,0.25 1.56,0 1.91,-0.12 1.91,-0.72 0,-0.13 -0.01,-0.28 -0.02,-0.45 l 0.21,-0.02 z"
         id="path4977" /><path
         style="fill:#000000;stroke-width:0"
         inkscape:connector-curvature="0"
         d="m 234.82,706.45 -0.02,-0.02 -0.01,-0.02 -0.01,-0.01 -0.01,-0.01 -0.01,-0.01 -0.01,-0.01 0,-0.01 -0.01,0 0,-0.01 -0.01,0 0,-0.01 -0.01,-0.01 0,0 -0.01,-0.01 0,0 0,-0.01 -0.01,0 0,-0.01 -0.01,0 0,-0.01 0,0 -0.01,-0.01 0,0 0,0 0,-0.01 -0.01,0 0,0 0,-0.01 c -0.2,-0.25 -0.34,-0.36 -0.45,-0.36 -0.05,0 -0.09,0.04 -0.09,0.11 0,0.03 0.03,0.14 0.07,0.31 l 0.48,1.75 c 0,0.02 0.02,0.15 0.02,0.19 0,0.25 -0.18,0.44 -0.41,0.44 -0.14,0 -0.28,-0.05 -0.44,-0.16 -0.34,-0.22 -0.63,-0.55 -1.11,-1.32 0.17,0.53 0.28,0.93 0.28,1.06 0,0.24 -0.16,0.42 -0.4,0.42 -0.42,0 -0.91,-0.46 -1.55,-1.47 l 0.4,1.45 -0.02,0.02 c -0.39,-0.09 -0.54,-0.11 -1.11,-0.22 v -0.11 h 0.17 c 0.18,0 0.27,-0.05 0.27,-0.15 0,-0.08 -0.16,-0.71 -0.41,-1.6 -0.16,-0.57 -0.18,-0.63 -0.27,-0.99 h 0.52 c 0.34,1.11 0.44,1.36 0.68,1.72 0.39,0.6 0.81,0.99 1.04,0.99 0.09,0 0.14,-0.07 0.14,-0.18 0,-0.06 -0.22,-0.9 -0.66,-2.53 h 0.52 c 0.28,1.09 0.42,1.43 0.78,1.93 0.34,0.47 0.69,0.78 0.89,0.78 0.07,0 0.14,-0.07 0.14,-0.15 0,-0.03 -0.02,-0.12 -0.05,-0.24 l -0.41,-1.6 c -0.06,-0.26 -0.09,-0.39 -0.09,-0.46 0,-0.21 0.1,-0.32 0.28,-0.32 0.33,0 0.64,0.23 1,0.74 l 0.04,0.05 z"
         id="path4979" /></g>    <text
       sodipodi:linespacing="150%"
       id="text5060"
       y="504.45334"
       x="29.902281"
       style="font-size:12px;font-style:normal;font-variant:normal;font-weight:normal;font-stretch:normal;text-align:start;line-height:150%;letter-spacing:0px;word-spacing:0px;text-anchor:start;fill:#000000;fill-opacity:1;stroke:none;font-family:LMRoman12;-inkscape-font-specification:Sans"
       xml:space="preserve"><tspan
         y="504.45334"
         x="29.902281"
         id="tspan5062"
         sodipodi:role="line">0</tspan></text>
    <g
       style="font-style:normal;font-variant:normal;font-weight:normal;font-stretch:normal;letter-spacing:normal;word-spacing:normal;text-anchor:start;fill:none;stroke:#000000;stroke-width:1;stroke-linecap:butt;stroke-linejoin:miter;stroke-miterlimit:10.43299961;stroke-opacity:1;stroke-dasharray:none;stroke-dashoffset:0"
       ns0:preamble="/home/sriranga/Desktop/Prism_BasicElectronics/preamble.tex"
       ns0:text="$E_{m}$"
       word-spacing="normal"
       letter-spacing="normal"
       font-size-adjust="none"
       font-stretch="normal"
       font-weight="normal"
       font-variant="normal"
       font-style="normal"
       stroke-miterlimit="10.433"
       xml:space="preserve"
       transform="matrix(1.2,0,0,-1.2,-250.26747,1388.8418)"
       id="g5064"><path
         id="path5066"
         d="m 229.99,713.61 h -4.95 v -0.16 c 0.62,-0.06 0.77,-0.14 0.77,-0.4 0,-0.11 -0.06,-0.46 -0.11,-0.64 l -1.22,-4.39 c -0.17,-0.57 -0.25,-0.64 -0.81,-0.74 v -0.16 h 5.04 l 0.62,1.61 -0.16,0.08 c -0.46,-0.63 -0.72,-0.89 -1.15,-1.09 -0.37,-0.17 -1.05,-0.27 -1.79,-0.27 -0.56,0 -0.8,0.1 -0.8,0.34 0,0.11 0.11,0.58 0.36,1.45 0.13,0.44 0.22,0.77 0.32,1.14 0.35,-0.02 0.65,-0.03 0.77,-0.03 0.39,0.01 0.67,-0.05 0.78,-0.15 0.05,-0.04 0.07,-0.13 0.07,-0.3 0,-0.17 -0.02,-0.3 -0.07,-0.52 l 0.2,-0.05 0.68,2.31 -0.18,0.03 c -0.38,-0.84 -0.47,-0.9 -1.38,-0.94 -0.11,0 -0.43,-0.01 -0.78,-0.02 l 0.65,2.32 c 0.06,0.21 0.17,0.25 0.73,0.25 1.56,0 1.91,-0.12 1.91,-0.72 0,-0.13 -0.01,-0.28 -0.02,-0.45 l 0.21,-0.02 z"
         inkscape:connector-curvature="0"
         style="fill:#000000;stroke-width:0" /><path
         id="path5068"
         d="m 234.82,706.45 -0.02,-0.02 -0.01,-0.02 -0.01,-0.01 -0.01,-0.01 -0.01,-0.01 -0.01,-0.01 0,-0.01 -0.01,0 0,-0.01 -0.01,0 0,-0.01 -0.01,-0.01 0,0 -0.01,-0.01 0,0 0,-0.01 -0.01,0 0,-0.01 -0.01,0 0,-0.01 0,0 -0.01,-0.01 0,0 0,0 0,-0.01 -0.01,0 0,0 0,-0.01 c -0.2,-0.25 -0.34,-0.36 -0.45,-0.36 -0.05,0 -0.09,0.04 -0.09,0.11 0,0.03 0.03,0.14 0.07,0.31 l 0.48,1.75 c 0,0.02 0.02,0.15 0.02,0.19 0,0.25 -0.18,0.44 -0.41,0.44 -0.14,0 -0.28,-0.05 -0.44,-0.16 -0.34,-0.22 -0.63,-0.55 -1.11,-1.32 0.17,0.53 0.28,0.93 0.28,1.06 0,0.24 -0.16,0.42 -0.4,0.42 -0.42,0 -0.91,-0.46 -1.55,-1.47 l 0.4,1.45 -0.02,0.02 c -0.39,-0.09 -0.54,-0.11 -1.11,-0.22 v -0.11 h 0.17 c 0.18,0 0.27,-0.05 0.27,-0.15 0,-0.08 -0.16,-0.71 -0.41,-1.6 -0.16,-0.57 -0.18,-0.63 -0.27,-0.99 h 0.52 c 0.34,1.11 0.44,1.36 0.68,1.72 0.39,0.6 0.81,0.99 1.04,0.99 0.09,0 0.14,-0.07 0.14,-0.18 0,-0.06 -0.22,-0.9 -0.66,-2.53 h 0.52 c 0.28,1.09 0.42,1.43 0.78,1.93 0.34,0.47 0.69,0.78 0.89,0.78 0.07,0 0.14,-0.07 0.14,-0.15 0,-0.03 -0.02,-0.12 -0.05,-0.24 l -0.41,-1.6 c -0.06,-0.26 -0.09,-0.39 -0.09,-0.46 0,-0.21 0.1,-0.32 0.28,-0.32 0.33,0 0.64,0.23 1,0.74 l 0.04,0.05 z"
         inkscape:connector-curvature="0"
         style="fill:#000000;stroke-width:0" /></g>    <path
       inkscape:connector-curvature="0"
       id="path5082"
       d="m 40,561.92028 0,402.12663"
       style="fill:none;stroke:#000000;stroke-width:1.19999993;stroke-linecap:round;stroke-linejoin:round;stroke-miterlimit:4;stroke-opacity:1;stroke-dasharray:none;stroke-dashoffset:0;marker-start:url(#Arrow1Mstart)" />
    <g
       style="font-style:normal;font-variant:normal;font-weight:normal;font-stretch:normal;letter-spacing:normal;word-spacing:normal;text-anchor:start;fill:none;stroke:#000000;stroke-width:1;stroke-linecap:butt;stroke-linejoin:miter;stroke-miterlimit:10.43299961;stroke-opacity:1;stroke-dasharray:none;stroke-dashoffset:0"
       ns0:preamble="/home/sriranga/Desktop/Prism_BasicElectronics/preamble.tex"
       ns0:text="$E_{c(t)}$"
       word-spacing="normal"
       letter-spacing="normal"
       font-size-adjust="none"
       font-stretch="normal"
       font-weight="normal"
       font-variant="normal"
       font-style="normal"
       stroke-miterlimit="10.433"
       xml:space="preserve"
       transform="matrix(1.2,0,0,-1.2,-252.08669,1412.6517)"
       id="g5171"><path
         id="path5173"
         d="m 229.99,713.61 h -4.95 v -0.16 c 0.62,-0.06 0.77,-0.14 0.77,-0.4 0,-0.11 -0.06,-0.46 -0.11,-0.64 l -1.22,-4.39 c -0.17,-0.57 -0.25,-0.64 -0.81,-0.74 v -0.16 h 5.04 l 0.62,1.61 -0.16,0.08 c -0.46,-0.63 -0.72,-0.89 -1.15,-1.09 -0.37,-0.17 -1.05,-0.27 -1.79,-0.27 -0.56,0 -0.8,0.1 -0.8,0.34 0,0.11 0.11,0.58 0.36,1.45 0.13,0.44 0.22,0.77 0.32,1.14 0.35,-0.02 0.65,-0.03 0.77,-0.03 0.39,0.01 0.67,-0.05 0.78,-0.15 0.05,-0.04 0.07,-0.13 0.07,-0.3 0,-0.17 -0.02,-0.3 -0.07,-0.52 l 0.2,-0.05 0.68,2.31 -0.18,0.03 c -0.38,-0.84 -0.47,-0.9 -1.38,-0.94 -0.11,0 -0.43,-0.01 -0.78,-0.02 l 0.65,2.32 c 0.06,0.21 0.17,0.25 0.73,0.25 1.56,0 1.91,-0.12 1.91,-0.72 0,-0.13 -0.01,-0.28 -0.02,-0.45 l 0.21,-0.02 z"
         inkscape:connector-curvature="0"
         style="fill:#000000;stroke-width:0" /><path
         id="path5175"
         d="m 232.46,706.37 -0.04,-0.04 -0.04,-0.04 -0.03,-0.03 -0.03,-0.03 -0.04,-0.04 -0.03,-0.03 -0.03,-0.03 -0.03,-0.02 -0.04,-0.03 -0.03,-0.02 -0.03,-0.03 -0.03,-0.02 -0.03,-0.02 -0.03,-0.02 -0.03,-0.02 -0.03,-0.02 -0.03,-0.01 -0.03,-0.02 -0.03,-0.01 -0.03,-0.01 -0.03,-0.02 -0.03,-0.01 -0.03,-0.01 -0.03,0 -0.03,-0.01 -0.03,-0.01 -0.03,0 -0.03,-0.01 -0.03,0 -0.03,0 -0.03,0 -0.03,-0.01 c -0.4,0 -0.64,0.3 -0.64,0.8 0,0.59 0.25,1.21 0.64,1.62 0.2,0.21 0.48,0.33 0.75,0.33 0.16,0 0.27,-0.05 0.27,-0.14 0,-0.03 -0.02,-0.07 -0.05,-0.13 -0.05,-0.09 -0.06,-0.14 -0.06,-0.2 0,-0.17 0.11,-0.27 0.27,-0.27 0.19,0 0.34,0.14 0.34,0.32 0,0.32 -0.32,0.57 -0.73,0.57 -1.05,0 -2.02,-1.02 -2.02,-2.1 0,-0.66 0.37,-1.05 1.02,-1.05 0.51,0 0.9,0.22 1.32,0.75 z"
         inkscape:connector-curvature="0"
         style="fill:#000000;stroke-width:0" /><path
         id="path5177"
         d="m 235.17,710.33 -0.05,-0.03 -0.04,-0.03 -0.05,-0.03 -0.04,-0.03 -0.04,-0.02 -0.04,-0.03 -0.04,-0.03 -0.04,-0.02 -0.03,-0.03 -0.04,-0.03 -0.03,-0.02 -0.03,-0.02 -0.03,-0.03 -0.03,-0.02 -0.06,-0.05 -0.05,-0.05 -0.06,-0.05 -0.05,-0.04 -0.04,-0.05 -0.05,-0.06 -0.05,-0.05 -0.05,-0.05 -0.04,-0.06 c -0.5,-0.61 -0.74,-1.3 -0.74,-2.12 0,-0.88 0.26,-1.56 0.87,-2.27 0.28,-0.33 0.47,-0.49 0.83,-0.71 l 0.08,0.11 c -0.56,0.44 -0.75,0.68 -0.94,1.2 -0.17,0.47 -0.24,1 -0.24,1.69 0,0.73 0.09,1.31 0.28,1.74 0.19,0.43 0.4,0.68 0.9,1.08 z"
         inkscape:connector-curvature="0"
         style="fill:#000000;stroke-width:0" /><path
         id="path5179"
         d="m 237.5,708.61 h -0.56 l 0.19,0.71 c 0.01,0.02 0.01,0.03 0.01,0.04 0,0.05 -0.02,0.07 -0.05,0.07 -0.05,0 -0.07,-0.01 -0.11,-0.07 -0.27,-0.35 -0.7,-0.7 -0.92,-0.76 -0.18,-0.06 -0.23,-0.1 -0.23,-0.17 0,-0.01 0,-0.02 0.01,-0.04 h 0.51 l -0.5,-1.92 c -0.01,-0.06 -0.02,-0.08 -0.04,-0.14 -0.06,-0.21 -0.12,-0.46 -0.12,-0.51 0,-0.15 0.15,-0.27 0.34,-0.27 0.32,0 0.55,0.2 0.99,0.85 l -0.09,0.05 c -0.34,-0.44 -0.46,-0.55 -0.57,-0.55 -0.06,0 -0.1,0.05 -0.1,0.13 0,0.01 0,0.02 0,0.04 l 0.62,2.32 h 0.58 z"
         inkscape:connector-curvature="0"
         style="fill:#000000;stroke-width:0" /><path
         id="path5181"
         d="m 237.76,704.4 0.05,0.03 0.05,0.03 0.04,0.03 0.04,0.03 0.05,0.03 0.03,0.02 0.04,0.03 0.04,0.03 0.03,0.02 0.04,0.03 0.03,0.02 0.03,0.03 0.03,0.02 0.03,0.02 0.06,0.05 0.06,0.05 0.05,0.05 0.05,0.05 0.05,0.05 0.04,0.05 0.05,0.05 0.05,0.06 0.05,0.05 c 0.49,0.61 0.74,1.3 0.74,2.12 0,0.89 -0.26,1.56 -0.88,2.27 -0.28,0.34 -0.46,0.49 -0.82,0.71 l -0.09,-0.11 c 0.56,-0.44 0.75,-0.68 0.94,-1.2 0.17,-0.47 0.25,-1 0.25,-1.69 0,-0.73 -0.1,-1.3 -0.28,-1.73 -0.2,-0.44 -0.41,-0.69 -0.91,-1.09 z"
         inkscape:connector-curvature="0"
         style="fill:#000000;stroke-width:0" /></g>    <g
       id="content-8"
       transform="matrix(1.2,0,0,-1.2,-244.7131,1444.3377)"
       xml:space="preserve"
       stroke-miterlimit="10.433"
       font-style="normal"
       font-variant="normal"
       font-weight="normal"
       font-stretch="normal"
       font-size-adjust="none"
       letter-spacing="normal"
       word-spacing="normal"
       ns0:text="$E_c$"
       ns0:preamble="/home/sriranga/Desktop/Prism_BasicElectronics/preamble.tex"
       style="font-style:normal;font-variant:normal;font-weight:normal;font-stretch:normal;letter-spacing:normal;word-spacing:normal;text-anchor:start;fill:none;stroke:#000000;stroke-width:1;stroke-linecap:butt;stroke-linejoin:miter;stroke-miterlimit:10.43299961;stroke-opacity:1;stroke-dasharray:none;stroke-dashoffset:0"><path
         d="m 229.99,713.61 h -4.95 v -0.16 c 0.62,-0.06 0.77,-0.14 0.77,-0.4 0,-0.11 -0.06,-0.46 -0.11,-0.64 l -1.22,-4.39 c -0.17,-0.57 -0.25,-0.64 -0.81,-0.74 v -0.16 h 5.04 l 0.62,1.61 -0.16,0.08 c -0.46,-0.63 -0.72,-0.89 -1.15,-1.09 -0.37,-0.17 -1.05,-0.27 -1.79,-0.27 -0.56,0 -0.8,0.1 -0.8,0.34 0,0.11 0.11,0.58 0.36,1.45 0.13,0.44 0.22,0.77 0.32,1.14 0.35,-0.02 0.65,-0.03 0.77,-0.03 0.39,0.01 0.67,-0.05 0.78,-0.15 0.05,-0.04 0.07,-0.13 0.07,-0.3 0,-0.17 -0.02,-0.3 -0.07,-0.52 l 0.2,-0.05 0.68,2.31 -0.18,0.03 c -0.38,-0.84 -0.47,-0.9 -1.38,-0.94 -0.11,0 -0.43,-0.01 -0.78,-0.02 l 0.65,2.32 c 0.06,0.21 0.17,0.25 0.73,0.25 1.56,0 1.91,-0.12 1.91,-0.72 0,-0.13 -0.01,-0.28 -0.02,-0.45 l 0.21,-0.02 z"
         id="path4376-6"
         inkscape:connector-curvature="0"
         style="fill:#000000;stroke-width:0" /><path
         d="m 232.46,706.37 -0.04,-0.04 -0.04,-0.04 -0.03,-0.03 -0.03,-0.03 -0.04,-0.04 -0.03,-0.03 -0.03,-0.03 -0.03,-0.02 -0.04,-0.03 -0.03,-0.02 -0.03,-0.03 -0.03,-0.02 -0.03,-0.02 -0.03,-0.02 -0.03,-0.02 -0.03,-0.02 -0.03,-0.01 -0.03,-0.02 -0.03,-0.01 -0.03,-0.01 -0.03,-0.02 -0.03,-0.01 -0.03,-0.01 -0.03,0 -0.03,-0.01 -0.03,-0.01 -0.03,0 -0.03,-0.01 -0.03,0 -0.03,0 -0.03,0 -0.03,-0.01 c -0.4,0 -0.64,0.3 -0.64,0.8 0,0.59 0.25,1.21 0.64,1.62 0.2,0.21 0.48,0.33 0.75,0.33 0.16,0 0.27,-0.05 0.27,-0.14 0,-0.03 -0.02,-0.07 -0.05,-0.13 -0.05,-0.09 -0.06,-0.14 -0.06,-0.2 0,-0.17 0.11,-0.27 0.27,-0.27 0.19,0 0.34,0.14 0.34,0.32 0,0.32 -0.32,0.57 -0.73,0.57 -1.05,0 -2.02,-1.02 -2.02,-2.1 0,-0.66 0.37,-1.05 1.02,-1.05 0.51,0 0.9,0.22 1.32,0.75 z"
         id="path4378-8"
         inkscape:connector-curvature="0"
         style="fill:#000000;stroke-width:0" /></g>    <text
       xml:space="preserve"
       style="font-size:12px;font-style:normal;font-variant:normal;font-weight:normal;font-stretch:normal;text-align:start;line-height:150%;letter-spacing:0px;word-spacing:0px;text-anchor:start;fill:#000000;fill-opacity:1;stroke:none;font-family:LMRoman12;-inkscape-font-specification:Sans"
       x="30.419178"
       y="654.27338"
       id="text5298"
       sodipodi:linespacing="150%"><tspan
         sodipodi:role="line"
         id="tspan5300"
         x="30.419178"
         y="654.27338">0</tspan></text>
    <path
       style="fill:none;stroke:#000000;stroke-width:1.20000005;stroke-linecap:round;stroke-linejoin:round;stroke-miterlimit:4;stroke-opacity:1;stroke-dasharray:none;stroke-dashoffset:0;marker-start:url(#Arrow1Mstart)"
       d="m 39.999998,706.32274 0,256.03816"
       id="path5302"
       inkscape:connector-curvature="0" />
    <path
       sodipodi:nodetypes="csszzzzzsc"
       inkscape:connector-curvature="0"
       id="path3100"
       d="m 79.796169,642.36087 c 0.999996,-25 1.025328,-49.99998 2.630894,-49.99999 2.369102,-10e-6 2.369102,99.99999 4.964865,100 2.404237,1e-5 2.404237,-100.00001 4.964864,-100 2.560627,1e-5 2.439373,99.99999 4.964865,100 2.525492,1e-5 2.474508,-100.00001 4.964863,-100 2.49036,1e-5 2.50965,99.99999 4.96487,100 2.45522,1e-5 2.54478,-100.00001 4.96486,-100 2.42009,1e-5 2.57992,100.00001 4.96486,100 1.37103,-10e-6 2.41198,-42.66036 2.41122,-50"
       style="fill:none;stroke:#000000;stroke-width:1.20000029;stroke-linecap:round;stroke-linejoin:round;stroke-miterlimit:4;stroke-opacity:1;stroke-dasharray:none;stroke-dashoffset:0" />
    <path
       sodipodi:nodetypes="csszzzzzsc"
       inkscape:connector-curvature="0"
       id="path3102"
       d="m 119.59233,642.36088 c 0.99999,-25 1.02532,-49.99998 2.63089,-49.99999 2.3691,-1e-5 2.3691,99.99999 4.96487,100 2.40423,10e-6 2.40423,-100.00001 4.96486,-100 2.56063,10e-6 2.43937,99.99999 4.96486,100 2.5255,10e-6 2.47451,-100.00001 4.96487,-100 2.49036,10e-6 2.50964,99.99999 4.96486,100 2.45523,10e-6 2.54478,-100.00001 4.96487,-100 2.42008,10e-6 2.57991,100.00001 4.96486,100 1.37103,-1e-5 2.41198,-42.66036 2.41122,-50"
       style="fill:none;stroke:#000000;stroke-width:1.20000029;stroke-linecap:round;stroke-linejoin:round;stroke-miterlimit:4;stroke-opacity:1;stroke-dasharray:none;stroke-dashoffset:0" />
    <path
       style="fill:none;stroke:#000000;stroke-width:1.20000029;stroke-linecap:round;stroke-linejoin:round;stroke-miterlimit:4;stroke-opacity:1;stroke-dasharray:none;stroke-dashoffset:0"
       d="m 159.38849,642.36089 c 1,-25 1.02533,-49.99998 2.6309,-49.99999 2.3691,-10e-6 2.3691,99.99999 4.96486,100 2.40424,10e-6 2.40424,-100.00001 4.96486,-100 2.56063,10e-6 2.43938,99.99999 4.96487,100 2.52549,10e-6 2.47451,-100.00001 4.96486,-100 2.49036,10e-6 2.50965,99.99999 4.96487,100 2.45522,10e-6 2.54478,-100.00001 4.96486,-100 2.42009,10e-6 2.57992,100.00001 4.96486,100 1.37103,-10e-6 2.41198,-42.66036 2.41122,-50"
       id="path3104"
       inkscape:connector-curvature="0"
       sodipodi:nodetypes="csszzzzzsc" />
    <path
       style="fill:none;stroke:#000000;stroke-width:1.20000029;stroke-linecap:round;stroke-linejoin:round;stroke-miterlimit:4;stroke-opacity:1;stroke-dasharray:none;stroke-dashoffset:0"
       d="m 199.18465,642.3609 c 0.99999,-25 1.02532,-49.99998 2.63089,-49.99999 2.3691,-10e-6 2.3691,99.99999 4.96487,100 2.40423,10e-6 2.40423,-100.00001 4.96486,-100 2.56063,10e-6 2.43937,99.99999 4.96486,100 2.5255,10e-6 2.47451,-100.00001 4.96487,-100 2.49036,10e-6 2.50964,99.99999 4.96486,100 2.45523,10e-6 2.54478,-100.00001 4.96487,-100 2.42008,10e-6 2.57991,100.00001 4.96486,100 1.37103,-10e-6 2.41198,-42.66036 2.41122,-50"
       id="path3106"
       inkscape:connector-curvature="0"
       sodipodi:nodetypes="csszzzzzsc" />
    <path
       sodipodi:nodetypes="csszzzzzsc"
       inkscape:connector-curvature="0"
       id="path3108"
       d="m 238.98081,642.36091 c 1,-25 1.02533,-49.99998 2.6309,-49.99999 2.3691,-10e-6 2.3691,99.99999 4.96486,100 2.40424,1e-5 2.40424,-100.00001 4.96486,-100 2.56063,1e-5 2.43938,99.99999 4.96487,100 2.52549,1e-5 2.47451,-100.00001 4.96486,-100 2.49036,1e-5 2.50965,99.99999 4.96487,100 2.45522,1e-5 2.54478,-100.00001 4.96486,-100 2.42009,1e-5 2.57992,100.00001 4.96486,100 1.37103,-10e-6 2.41198,-42.66036 2.41122,-50"
       style="fill:none;stroke:#000000;stroke-width:1.20000029;stroke-linecap:round;stroke-linejoin:round;stroke-miterlimit:4;stroke-opacity:1;stroke-dasharray:none;stroke-dashoffset:0" />
    <path
       sodipodi:nodetypes="csszzzzzsc"
       inkscape:connector-curvature="0"
       id="path3110"
       d="m 278.77697,642.36092 c 0.99999,-25 1.02532,-49.99998 2.63089,-49.99999 2.3691,-1e-5 2.3691,99.99999 4.96487,100 2.40423,10e-6 2.40423,-100.00001 4.96486,-100 2.56063,10e-6 2.43937,99.99999 4.96486,100 2.5255,10e-6 2.47451,-100.00001 4.96487,-100 2.49036,10e-6 2.50964,99.99999 4.96486,100 2.45523,10e-6 2.54478,-100.00001 4.96487,-100 2.42008,10e-6 2.57991,100.00001 4.96486,100 1.37103,-1e-5 2.41198,-42.66036 2.41122,-50"
       style="fill:none;stroke:#000000;stroke-width:1.20000029;stroke-linecap:round;stroke-linejoin:round;stroke-miterlimit:4;stroke-opacity:1;stroke-dasharray:none;stroke-dashoffset:0" />
    <path
       style="fill:none;stroke:#000000;stroke-width:1.20000029;stroke-linecap:round;stroke-linejoin:round;stroke-miterlimit:4;stroke-opacity:1;stroke-dasharray:none;stroke-dashoffset:0"
       d="m 318.57313,642.36093 c 1,-25 1.02533,-49.99998 2.6309,-49.99999 2.3691,-10e-6 2.3691,99.99999 4.96486,100 2.40424,10e-6 2.40424,-100.00001 4.96486,-100 2.56063,10e-6 2.43938,99.99999 4.96487,100 2.52549,10e-6 2.47451,-100.00001 4.96486,-100 2.49036,10e-6 2.50965,99.99999 4.96487,100 2.45522,10e-6 2.54478,-100.00001 4.96486,-100 2.42009,10e-6 2.57992,100.00001 4.96486,100 1.37103,-10e-6 2.41198,-42.66036 2.41122,-50"
       id="path3112"
       inkscape:connector-curvature="0"
       sodipodi:nodetypes="csszzzzzsc" />
    <path
       style="fill:none;stroke:#000000;stroke-width:1.20000005;stroke-linecap:round;stroke-linejoin:round;stroke-miterlimit:4;stroke-opacity:1;stroke-dasharray:none;stroke-dashoffset:0;marker-start:url(#Arrow1Mstart)"
       d="m 416.35049,782.36086 -406.3504904,0"
       id="path3114"
       inkscape:connector-curvature="0" />
    <path
       sodipodi:nodetypes="csszzzzzsc"
       inkscape:connector-curvature="0"
       id="path3116"
       d="m 40.000004,782.36086 c 0.999996,-25 1.025328,-49.99998 2.630894,-49.99999 2.369102,-10e-6 2.369102,99.99999 4.964865,100 2.404237,10e-6 2.404237,-100.00001 4.964864,-100 2.560627,10e-6 2.439373,99.99999 4.964865,100 2.525492,10e-6 2.474508,-100.00001 4.964865,-100 2.490357,10e-6 2.509643,99.99999 4.964865,100 2.455222,10e-6 2.544778,-100.00001 4.964863,-100 2.420085,10e-6 2.579915,100.00001 4.964863,100 1.371029,-10e-6 2.411975,-42.66036 2.411221,-50"
       style="fill:none;stroke:#000000;stroke-width:1.20000029;stroke-linecap:round;stroke-linejoin:round;stroke-miterlimit:4;stroke-opacity:1;stroke-dasharray:none;stroke-dashoffset:0" />
    <g
       id="g3118"
       transform="matrix(1.2,0,0,-1.2,155.04756,1634.3966)"
       xml:space="preserve"
       stroke-miterlimit="10.433"
       font-style="normal"
       font-variant="normal"
       font-weight="normal"
       font-stretch="normal"
       font-size-adjust="none"
       letter-spacing="normal"
       word-spacing="normal"
       ns0:text="$t$"
       ns0:preamble="/home/sriranga/Desktop/Prism_BasicElectronics/preamble.tex"
       style="font-style:normal;font-variant:normal;font-weight:normal;font-stretch:normal;letter-spacing:normal;word-spacing:normal;text-anchor:start;fill:none;stroke:#000000;stroke-width:1;stroke-linecap:butt;stroke-linejoin:miter;stroke-miterlimit:10.43299961;stroke-opacity:1;stroke-dasharray:none;stroke-dashoffset:0"><path
         style="fill:#000000;stroke-width:0"
         inkscape:connector-curvature="0"
         d="m 226.38,711.38 h -0.8 l 0.28,1.02 c 0.01,0.02 0.01,0.04 0.01,0.05 0,0.07 -0.03,0.1 -0.08,0.1 -0.06,0 -0.09,-0.01 -0.15,-0.09 -0.39,-0.51 -1,-1 -1.32,-1.09 -0.25,-0.08 -0.32,-0.14 -0.32,-0.25 0,-0.01 0,-0.03 0.01,-0.06 h 0.73 l -0.71,-2.73 c -0.02,-0.09 -0.03,-0.12 -0.06,-0.21 -0.09,-0.3 -0.17,-0.65 -0.17,-0.73 0,-0.22 0.21,-0.37 0.48,-0.37 0.46,0 0.78,0.27 1.41,1.2 l -0.13,0.07 c -0.49,-0.63 -0.65,-0.79 -0.8,-0.79 -0.09,0 -0.15,0.08 -0.15,0.2 0,0.01 0,0.02 0.01,0.05 l 0.87,3.31 h 0.84 z"
         id="path3120" /></g>    <text
       sodipodi:linespacing="150%"
       id="text3122"
       y="794.27338"
       x="30.419178"
       style="font-size:12px;font-style:normal;font-variant:normal;font-weight:normal;font-stretch:normal;text-align:start;line-height:150%;letter-spacing:0px;word-spacing:0px;text-anchor:start;fill:#000000;fill-opacity:1;stroke:none;font-family:LMRoman12;-inkscape-font-specification:Sans"
       xml:space="preserve"><tspan
         y="794.27338"
         x="30.419178"
         id="tspan3124"
         sodipodi:role="line">0</tspan></text>
    <path
       style="fill:none;stroke:#000000;stroke-width:1.20000029;stroke-linecap:round;stroke-linejoin:round;stroke-miterlimit:4;stroke-opacity:1;stroke-dasharray:none;stroke-dashoffset:0"
       d="m 79.796168,782.36087 c 0.538269,-25 0.551904,-49.99998 1.416133,-49.99999 1.275217,-10e-6 1.275217,99.99999 2.672439,100 1.29413,1e-5 1.29413,-100.00001 2.67244,-100 1.378309,1e-5 1.313042,99.99999 2.672439,100 1.359398,1e-5 1.331955,-100.00001 2.672439,-100 1.340487,1e-5 1.35087,99.99999 2.672442,100 1.321573,1e-5 1.36978,-100.00001 2.672437,-100 1.302663,1e-5 1.388695,100.00001 2.672437,100 0.737986,-10e-6 1.298296,-42.66036 1.297886,-50"
       id="path3126"
       inkscape:connector-curvature="0"
       sodipodi:nodetypes="csszzzzzsc" />
    <path
       style="fill:none;stroke:#000000;stroke-width:1.20000029;stroke-linecap:round;stroke-linejoin:round;stroke-miterlimit:4;stroke-opacity:1;stroke-dasharray:none;stroke-dashoffset:0"
       d="m 101.60822,782.36088 c 1.45189,-25 1.48867,-49.99998 3.81981,-49.99999 3.43971,-1e-5 3.43971,99.99999 7.20852,100 3.49071,10e-6 3.49071,-100.00001 7.20851,-100 3.71779,10e-6 3.54173,99.99999 7.2085,100 3.66679,10e-6 3.59276,-100.00001 7.20853,-100 3.61576,10e-6 3.64376,99.99999 7.2085,100 3.56477,10e-6 3.69479,-100.00001 7.20853,-100 3.51373,10e-6 3.74578,100.00001 7.20851,100 1.9906,-1e-5 3.50196,-42.66036 3.50086,-50"
       id="path3128"
       inkscape:connector-curvature="0"
       sodipodi:nodetypes="csszzzzzsc" />
    <path
       sodipodi:nodetypes="csszzzzzsc"
       inkscape:connector-curvature="0"
       id="path3130"
       d="m 159.38848,782.36089 c 1.2223,-25 1.25326,-49.99998 3.21573,-49.99999 2.89574,-10e-6 2.89574,99.99999 6.06852,100 2.93868,10e-6 2.93868,-100.00001 6.06851,-100 3.12984,10e-6 2.98163,99.99999 6.06852,100 3.08689,10e-6 3.02457,-100.00001 6.06851,-100 3.04395,10e-6 3.06753,99.99999 6.06852,100 3.001,10e-6 3.11047,-100.00001 6.06852,-100 2.95805,10e-6 3.15341,100.00001 6.06851,100 1.6758,-10e-6 2.94814,-42.66036 2.94721,-50"
       style="fill:none;stroke:#000000;stroke-width:1.20000029;stroke-linecap:round;stroke-linejoin:round;stroke-miterlimit:4;stroke-opacity:1;stroke-dasharray:none;stroke-dashoffset:0" />
    <path
       sodipodi:nodetypes="csszzzzzsc"
       inkscape:connector-curvature="0"
       id="path3132"
       d="m 207.9975,782.3609 c 0.67935,-25 0.69657,-49.99998 1.78735,-49.99999 1.6095,-10e-6 1.6095,99.99999 3.373,100 1.63336,10e-6 1.63336,-100.00001 3.37298,-100 1.73962,10e-6 1.65724,99.99999 3.37299,100 1.71576,10e-6 1.68111,-100.00001 3.373,-100 1.69188,10e-6 1.70497,99.99999 3.37299,100 1.66802,10e-6 1.72885,-100.00001 3.37299,-100 1.64414,10e-6 1.75272,100.00001 3.37299,100 0.93144,-10e-6 1.63864,-42.66036 1.63812,-50"
       style="fill:none;stroke:#000000;stroke-width:1.20000029;stroke-linecap:round;stroke-linejoin:round;stroke-miterlimit:4;stroke-opacity:1;stroke-dasharray:none;stroke-dashoffset:0" />
    <path
       style="fill:none;stroke:#000000;stroke-width:1.20000029;stroke-linecap:round;stroke-linejoin:round;stroke-miterlimit:4;stroke-opacity:1;stroke-dasharray:none;stroke-dashoffset:0"
       d="m 234.99384,782.36091 c 0.84281,-25 0.86416,-49.99998 2.21736,-49.99999 1.99672,-10e-6 1.99672,99.99999 4.18446,100 2.02633,1e-5 2.02633,-100.00001 4.18446,-100 2.15814,1e-5 2.05595,99.99999 4.18447,100 2.12853,1e-5 2.08556,-100.00001 4.18446,-100 2.09892,1e-5 2.11518,99.99999 4.18447,100 2.0693,1e-5 2.14478,-100.00001 4.18446,-100 2.03969,1e-5 2.1744,100.00001 4.18446,100 1.15553,-10e-6 2.03286,-42.66036 2.03222,-50"
       id="path3134"
       inkscape:connector-curvature="0"
       sodipodi:nodetypes="csszzzzzsc" />
    <path
       style="fill:none;stroke:#000000;stroke-width:1.20000041;stroke-linecap:round;stroke-linejoin:round;stroke-miterlimit:4;stroke-opacity:1;stroke-dasharray:none;stroke-dashoffset:0"
       d="m 268.50426,782.36092 c 1.25812,-25 1.29,-49.99998 3.31002,-49.99999 2.98064,-1e-5 2.98064,99.99999 6.24647,100 3.02483,10e-6 3.02483,-100.00001 6.24646,-100 3.22161,10e-6 3.06905,99.99999 6.24645,100 3.17742,10e-6 3.11326,-100.00001 6.24647,-100 3.1332,10e-6 3.15746,99.99999 6.24646,100 3.089,10e-6 3.20167,-100.00001 6.24647,-100 3.04478,10e-6 3.24587,100.00001 6.24646,100 1.72493,-1e-5 3.03458,-42.66036 3.03363,-50"
       id="path3136"
       inkscape:connector-curvature="0"
       sodipodi:nodetypes="csszzzzzsc" />
    <path
       sodipodi:nodetypes="csszzzzzsc"
       inkscape:connector-curvature="0"
       id="path3138"
       d="m 318.57313,782.36093 c 1,-25 1.02533,-49.99998 2.6309,-49.99999 2.3691,-10e-6 2.3691,99.99999 4.96486,100 2.40424,10e-6 2.40424,-100.00001 4.96486,-100 2.56063,10e-6 2.43938,99.99999 4.96487,100 2.52549,10e-6 2.47451,-100.00001 4.96486,-100 2.49036,10e-6 2.50965,99.99999 4.96487,100 2.45522,10e-6 2.54478,-100.00001 4.96486,-100 2.42009,10e-6 2.57992,100.00001 4.96486,100 1.37103,-10e-6 2.41198,-42.66036 2.41122,-50"
       style="fill:none;stroke:#000000;stroke-width:1.20000029;stroke-linecap:round;stroke-linejoin:round;stroke-miterlimit:4;stroke-opacity:1;stroke-dasharray:none;stroke-dashoffset:0" />
    <path
       inkscape:connector-curvature="0"
       id="path3140"
       d="m 416.35049,912.36086 -406.350488,0"
       style="fill:none;stroke:#000000;stroke-width:1.20000005;stroke-linecap:round;stroke-linejoin:round;stroke-miterlimit:4;stroke-opacity:1;stroke-dasharray:none;stroke-dashoffset:0;marker-start:url(#Arrow1Mstart)" />
    <path
       sodipodi:nodetypes="czcczcczcczcczc"
       inkscape:connector-curvature="0"
       id="path3142"
       d="m 100,912.36086 c 0,0 18.75001,45 30,45 11.25,0 30,-45 30,-45 m 0,0 c 0,0 18.75001,-45 30,-45 11.24999,0 30.00001,45 30.00001,45 m 0,0 c 0,0 18.75,45 29.99999,45 11.25001,0 30.00001,-45 30.00001,-45 m 0,0 c 0,0 18.74998,-45 29.99999,-45 11.25,0 30,45 30,45 m -299.999996,0 c 0,0 18.749998,-45 29.999998,-45 11.249999,0 29.999998,45 29.999998,45"
       style="fill:none;stroke:#000000;stroke-width:1.20000017;stroke-linecap:round;stroke-linejoin:round;stroke-miterlimit:4;stroke-opacity:1;stroke-dasharray:none;stroke-dashoffset:0" />
    <g
       style="font-style:normal;font-variant:normal;font-weight:normal;font-stretch:normal;letter-spacing:normal;word-spacing:normal;text-anchor:start;fill:none;stroke:#000000;stroke-width:1;stroke-linecap:butt;stroke-linejoin:miter;stroke-miterlimit:10.43299961;stroke-opacity:1;stroke-dasharray:none;stroke-dashoffset:0"
       ns0:preamble="/home/sriranga/Desktop/Prism_BasicElectronics/preamble.tex"
       ns0:text="$-E_c$"
       word-spacing="normal"
       letter-spacing="normal"
       font-size-adjust="none"
       font-stretch="normal"
       font-weight="normal"
       font-variant="normal"
       font-style="normal"
       stroke-miterlimit="10.433"
       xml:space="preserve"
       transform="matrix(1.2,0,0,-1.2,-250.24762,1538.3268)"
       id="g3262"><polygon
         id="polygon3264"
         points="224.05,709.4 229.14,709.4 229.14,709.96 224.05,709.96 "
         style="fill:#000000;stroke-width:0" /><path
         id="path3266"
         d="m 236.32,713.61 h -4.94 v -0.16 c 0.62,-0.06 0.77,-0.14 0.77,-0.4 0,-0.11 -0.06,-0.46 -0.11,-0.64 l -1.23,-4.39 c -0.17,-0.57 -0.25,-0.64 -0.8,-0.74 v -0.16 h 5.04 l 0.62,1.61 -0.16,0.08 c -0.47,-0.63 -0.73,-0.89 -1.16,-1.09 -0.36,-0.17 -1.04,-0.27 -1.79,-0.27 -0.55,0 -0.79,0.1 -0.79,0.34 0,0.11 0.11,0.58 0.36,1.45 0.13,0.44 0.22,0.77 0.32,1.14 0.34,-0.02 0.65,-0.03 0.77,-0.03 0.39,0.01 0.67,-0.05 0.78,-0.15 0.05,-0.04 0.07,-0.13 0.07,-0.3 0,-0.17 -0.02,-0.3 -0.07,-0.52 l 0.2,-0.05 0.67,2.31 -0.18,0.03 c -0.37,-0.84 -0.46,-0.9 -1.37,-0.94 -0.12,0 -0.44,-0.01 -0.79,-0.02 l 0.66,2.32 c 0.06,0.21 0.17,0.25 0.73,0.25 1.56,0 1.91,-0.12 1.91,-0.72 0,-0.13 -0.01,-0.28 -0.02,-0.45 l 0.21,-0.02 z"
         inkscape:connector-curvature="0"
         style="fill:#000000;stroke-width:0" /><path
         id="path3268"
         d="m 238.79,706.37 -0.03,-0.04 -0.04,-0.04 -0.03,-0.03 -0.04,-0.03 -0.03,-0.04 -0.03,-0.03 -0.04,-0.03 -0.03,-0.02 -0.03,-0.03 -0.03,-0.02 -0.03,-0.03 -0.03,-0.02 -0.03,-0.02 -0.03,-0.02 -0.03,-0.02 -0.03,-0.02 -0.03,-0.01 -0.03,-0.02 -0.03,-0.01 -0.03,-0.01 -0.03,-0.02 -0.03,-0.01 -0.03,-0.01 -0.03,0 -0.03,-0.01 -0.03,-0.01 -0.03,0 -0.03,-0.01 -0.03,0 -0.03,0 -0.03,0 -0.03,-0.01 c -0.4,0 -0.64,0.3 -0.64,0.8 0,0.59 0.25,1.21 0.64,1.62 0.2,0.21 0.48,0.33 0.75,0.33 0.16,0 0.26,-0.05 0.26,-0.14 0,-0.03 -0.01,-0.07 -0.04,-0.13 -0.05,-0.09 -0.06,-0.14 -0.06,-0.2 0,-0.17 0.1,-0.27 0.27,-0.27 0.19,0 0.33,0.14 0.33,0.32 0,0.32 -0.31,0.57 -0.73,0.57 -1.04,0 -2.02,-1.02 -2.02,-2.1 0,-0.66 0.38,-1.05 1.03,-1.05 0.51,0 0.9,0.22 1.31,0.75 z"
         inkscape:connector-curvature="0"
         style="fill:#000000;stroke-width:0" /></g>    <g
       style="font-style:normal;font-variant:normal;font-weight:normal;font-stretch:normal;letter-spacing:normal;word-spacing:normal;text-anchor:start;fill:none;stroke:#000000;stroke-width:1;stroke-linecap:butt;stroke-linejoin:miter;stroke-miterlimit:10.43299961;stroke-opacity:1;stroke-dasharray:none;stroke-dashoffset:0"
       ns0:preamble="/home/sriranga/Desktop/Prism_BasicElectronics/preamble.tex"
       ns0:text="$E_c$"
       word-spacing="normal"
       letter-spacing="normal"
       font-size-adjust="none"
       font-stretch="normal"
       font-weight="normal"
       font-variant="normal"
       font-style="normal"
       stroke-miterlimit="10.433"
       xml:space="preserve"
       transform="matrix(1.2,0,0,-1.2,-244.7131,1585.4739)"
       id="g3390"><path
         style="fill:#000000;stroke-width:0"
         inkscape:connector-curvature="0"
         id="path3392"
         d="m 229.99,713.61 h -4.95 v -0.16 c 0.62,-0.06 0.77,-0.14 0.77,-0.4 0,-0.11 -0.06,-0.46 -0.11,-0.64 l -1.22,-4.39 c -0.17,-0.57 -0.25,-0.64 -0.81,-0.74 v -0.16 h 5.04 l 0.62,1.61 -0.16,0.08 c -0.46,-0.63 -0.72,-0.89 -1.15,-1.09 -0.37,-0.17 -1.05,-0.27 -1.79,-0.27 -0.56,0 -0.8,0.1 -0.8,0.34 0,0.11 0.11,0.58 0.36,1.45 0.13,0.44 0.22,0.77 0.32,1.14 0.35,-0.02 0.65,-0.03 0.77,-0.03 0.39,0.01 0.67,-0.05 0.78,-0.15 0.05,-0.04 0.07,-0.13 0.07,-0.3 0,-0.17 -0.02,-0.3 -0.07,-0.52 l 0.2,-0.05 0.68,2.31 -0.18,0.03 c -0.38,-0.84 -0.47,-0.9 -1.38,-0.94 -0.11,0 -0.43,-0.01 -0.78,-0.02 l 0.65,2.32 c 0.06,0.21 0.17,0.25 0.73,0.25 1.56,0 1.91,-0.12 1.91,-0.72 0,-0.13 -0.01,-0.28 -0.02,-0.45 l 0.21,-0.02 z" /><path
         style="fill:#000000;stroke-width:0"
         inkscape:connector-curvature="0"
         id="path3394"
         d="m 232.46,706.37 -0.04,-0.04 -0.04,-0.04 -0.03,-0.03 -0.03,-0.03 -0.04,-0.04 -0.03,-0.03 -0.03,-0.03 -0.03,-0.02 -0.04,-0.03 -0.03,-0.02 -0.03,-0.03 -0.03,-0.02 -0.03,-0.02 -0.03,-0.02 -0.03,-0.02 -0.03,-0.02 -0.03,-0.01 -0.03,-0.02 -0.03,-0.01 -0.03,-0.01 -0.03,-0.02 -0.03,-0.01 -0.03,-0.01 -0.03,0 -0.03,-0.01 -0.03,-0.01 -0.03,0 -0.03,-0.01 -0.03,0 -0.03,0 -0.03,0 -0.03,-0.01 c -0.4,0 -0.64,0.3 -0.64,0.8 0,0.59 0.25,1.21 0.64,1.62 0.2,0.21 0.48,0.33 0.75,0.33 0.16,0 0.27,-0.05 0.27,-0.14 0,-0.03 -0.02,-0.07 -0.05,-0.13 -0.05,-0.09 -0.06,-0.14 -0.06,-0.2 0,-0.17 0.11,-0.27 0.27,-0.27 0.19,0 0.34,0.14 0.34,0.32 0,0.32 -0.32,0.57 -0.73,0.57 -1.05,0 -2.02,-1.02 -2.02,-2.1 0,-0.66 0.37,-1.05 1.02,-1.05 0.51,0 0.9,0.22 1.32,0.75 z" /></g>    <g
       id="g3527"
       transform="matrix(1.2,0,0,-1.2,-236.69844,1558.6932)"
       xml:space="preserve"
       stroke-miterlimit="10.433"
       font-style="normal"
       font-variant="normal"
       font-weight="normal"
       font-stretch="normal"
       font-size-adjust="none"
       letter-spacing="normal"
       word-spacing="normal"
       ns0:text="$v$"
       ns0:preamble="/home/sriranga/Desktop/Prism_BasicElectronics/preamble.tex"
       style="font-style:normal;font-variant:normal;font-weight:normal;font-stretch:normal;letter-spacing:normal;word-spacing:normal;text-anchor:start;fill:none;stroke:#000000;stroke-width:1;stroke-linecap:butt;stroke-linejoin:miter;stroke-miterlimit:10.43299961;stroke-opacity:1;stroke-dasharray:none;stroke-dashoffset:0"><path
         style="fill:#000000;stroke-width:0"
         inkscape:connector-curvature="0"
         d="m 223.64,711.13 0.02,0 0.02,0 0.02,0 0.02,0 0.02,0 0.01,0.01 0.02,0 0.02,0 0.04,0 0.01,0 0.02,0 0.02,0 0.02,0 0.02,0 0.02,0 c 0.39,0 0.49,-0.17 0.63,-1.09 0.1,-0.68 0.22,-2.18 0.22,-2.76 0,-0.27 0.01,-0.34 0.09,-0.34 0.24,0 1.17,1.05 2.18,2.46 0.35,0.5 0.61,1.14 0.61,1.51 0,0.32 -0.26,0.59 -0.56,0.59 -0.22,0 -0.37,-0.13 -0.37,-0.34 0,-0.16 0.06,-0.28 0.24,-0.44 0.13,-0.12 0.18,-0.2 0.18,-0.3 0,-0.45 -0.65,-1.56 -1.36,-2.29 l -0.31,-0.32 c -0.07,1.4 -0.13,1.92 -0.26,2.65 -0.2,1.02 -0.2,1.04 -0.29,1.04 -0.04,0 -0.12,-0.01 -0.2,-0.04 -0.17,-0.05 -0.72,-0.15 -1.1,-0.21 z"
         id="path3529" /></g>    <g
       id="g3656"
       transform="matrix(1.2,0,0,-1.2,-250.24762,1680.4219)"
       xml:space="preserve"
       stroke-miterlimit="10.433"
       font-style="normal"
       font-variant="normal"
       font-weight="normal"
       font-stretch="normal"
       font-size-adjust="none"
       letter-spacing="normal"
       word-spacing="normal"
       ns0:text="$-E_c$"
       ns0:preamble="/home/sriranga/Desktop/Prism_BasicElectronics/preamble.tex"
       style="font-style:normal;font-variant:normal;font-weight:normal;font-stretch:normal;letter-spacing:normal;word-spacing:normal;text-anchor:start;fill:none;stroke:#000000;stroke-width:1;stroke-linecap:butt;stroke-linejoin:miter;stroke-miterlimit:10.43299961;stroke-opacity:1;stroke-dasharray:none;stroke-dashoffset:0"><polygon
         style="fill:#000000;stroke-width:0"
         points="224.05,709.96 224.05,709.4 229.14,709.4 229.14,709.96 "
         id="polygon3658" /><path
         style="fill:#000000;stroke-width:0"
         inkscape:connector-curvature="0"
         d="m 236.32,713.61 h -4.94 v -0.16 c 0.62,-0.06 0.77,-0.14 0.77,-0.4 0,-0.11 -0.06,-0.46 -0.11,-0.64 l -1.23,-4.39 c -0.17,-0.57 -0.25,-0.64 -0.8,-0.74 v -0.16 h 5.04 l 0.62,1.61 -0.16,0.08 c -0.47,-0.63 -0.73,-0.89 -1.16,-1.09 -0.36,-0.17 -1.04,-0.27 -1.79,-0.27 -0.55,0 -0.79,0.1 -0.79,0.34 0,0.11 0.11,0.58 0.36,1.45 0.13,0.44 0.22,0.77 0.32,1.14 0.34,-0.02 0.65,-0.03 0.77,-0.03 0.39,0.01 0.67,-0.05 0.78,-0.15 0.05,-0.04 0.07,-0.13 0.07,-0.3 0,-0.17 -0.02,-0.3 -0.07,-0.52 l 0.2,-0.05 0.67,2.31 -0.18,0.03 c -0.37,-0.84 -0.46,-0.9 -1.37,-0.94 -0.12,0 -0.44,-0.01 -0.79,-0.02 l 0.66,2.32 c 0.06,0.21 0.17,0.25 0.73,0.25 1.56,0 1.91,-0.12 1.91,-0.72 0,-0.13 -0.01,-0.28 -0.02,-0.45 l 0.21,-0.02 z"
         id="path3660" /><path
         style="fill:#000000;stroke-width:0"
         inkscape:connector-curvature="0"
         d="m 238.79,706.37 -0.03,-0.04 -0.04,-0.04 -0.03,-0.03 -0.04,-0.03 -0.03,-0.04 -0.03,-0.03 -0.04,-0.03 -0.03,-0.02 -0.03,-0.03 -0.03,-0.02 -0.03,-0.03 -0.03,-0.02 -0.03,-0.02 -0.03,-0.02 -0.03,-0.02 -0.03,-0.02 -0.03,-0.01 -0.03,-0.02 -0.03,-0.01 -0.03,-0.01 -0.03,-0.02 -0.03,-0.01 -0.03,-0.01 -0.03,0 -0.03,-0.01 -0.03,-0.01 -0.03,0 -0.03,-0.01 -0.03,0 -0.03,0 -0.03,0 -0.03,-0.01 c -0.4,0 -0.64,0.3 -0.64,0.8 0,0.59 0.25,1.21 0.64,1.62 0.2,0.21 0.48,0.33 0.75,0.33 0.16,0 0.26,-0.05 0.26,-0.14 0,-0.03 -0.01,-0.07 -0.04,-0.13 -0.05,-0.09 -0.06,-0.14 -0.06,-0.2 0,-0.17 0.1,-0.27 0.27,-0.27 0.19,0 0.33,0.14 0.33,0.32 0,0.32 -0.31,0.57 -0.73,0.57 -1.04,0 -2.02,-1.02 -2.02,-2.1 0,-0.66 0.38,-1.05 1.03,-1.05 0.51,0 0.9,0.22 1.31,0.75 z"
         id="path3662" /></g>    <path
       inkscape:connector-curvature="0"
       id="path3664"
       d="m 39.999998,853.98073 0,108.38017"
       style="fill:none;stroke:#000000;stroke-width:1.20000005;stroke-linecap:round;stroke-linejoin:round;stroke-miterlimit:4;stroke-opacity:1;stroke-dasharray:none;stroke-dashoffset:0;marker-start:url(#Arrow1Mstart)" />
    <g
       style="font-style:normal;font-variant:normal;font-weight:normal;font-stretch:normal;letter-spacing:normal;word-spacing:normal;text-anchor:start;fill:none;stroke:#000000;stroke-width:1;stroke-linecap:butt;stroke-linejoin:miter;stroke-miterlimit:10.43299961;stroke-opacity:1;stroke-dasharray:none;stroke-dashoffset:0"
       ns0:preamble="/home/sriranga/Desktop/Prism_BasicElectronics/preamble.tex"
       ns0:text="$f$"
       word-spacing="normal"
       letter-spacing="normal"
       font-size-adjust="none"
       font-stretch="normal"
       font-weight="normal"
       font-variant="normal"
       font-style="normal"
       stroke-miterlimit="10.433"
       xml:space="preserve"
       transform="matrix(1.2,0,0,-1.2,-240.14766,1703.6588)"
       id="content"><path
         id="path3796"
         d="m 225.27,711.06 h 0.9 l -0.88,-4.17 c -0.22,-1.07 -0.54,-1.61 -0.96,-1.61 -0.12,0 -0.2,0.07 -0.2,0.16 0,0.03 0.01,0.06 0.04,0.11 0.04,0.05 0.05,0.1 0.05,0.15 0,0.21 -0.18,0.38 -0.39,0.38 -0.21,0 -0.37,-0.18 -0.37,-0.41 0,-0.33 0.35,-0.6 0.79,-0.6 0.88,0 1.58,0.98 1.99,2.81 l 0.72,3.18 h 1.08 l 0.06,0.32 h -1.08 c 0.29,1.56 0.66,2.26 1.22,2.26 0.13,0 0.22,-0.05 0.22,-0.12 0,-0.03 -0.01,-0.05 -0.04,-0.1 -0.04,-0.09 -0.06,-0.14 -0.06,-0.21 0,-0.23 0.15,-0.39 0.37,-0.39 0.23,0 0.42,0.18 0.42,0.39 0,0.37 -0.37,0.65 -0.86,0.65 -0.49,0 -0.88,-0.22 -1.24,-0.69 -0.29,-0.38 -0.49,-0.84 -0.79,-1.79 h -0.92 z"
         inkscape:connector-curvature="0"
         style="fill:#000000;stroke-width:0" /></g>    <g
       id="g4062"
       transform="matrix(1.2,0,0,-1.2,-241.80636,1772.5346)"
       xml:space="preserve"
       stroke-miterlimit="10.433"
       font-style="normal"
       font-variant="normal"
       font-weight="normal"
       font-stretch="normal"
       font-size-adjust="none"
       letter-spacing="normal"
       word-spacing="normal"
       ns0:text="$f_c$"
       ns0:preamble="/home/sriranga/Desktop/Prism_BasicElectronics/preamble.tex"
       style="font-style:normal;font-variant:normal;font-weight:normal;font-stretch:normal;letter-spacing:normal;word-spacing:normal;text-anchor:start;fill:none;stroke:#000000;stroke-width:1;stroke-linecap:butt;stroke-linejoin:miter;stroke-miterlimit:10.43299961;stroke-opacity:1;stroke-dasharray:none;stroke-dashoffset:0"><path
         style="fill:#000000;stroke-width:0"
         inkscape:connector-curvature="0"
         d="m 225.27,711.06 h 0.9 l -0.88,-4.17 c -0.22,-1.07 -0.54,-1.61 -0.96,-1.61 -0.12,0 -0.2,0.07 -0.2,0.16 0,0.03 0.01,0.06 0.04,0.11 0.04,0.05 0.05,0.1 0.05,0.15 0,0.21 -0.18,0.38 -0.39,0.38 -0.21,0 -0.37,-0.18 -0.37,-0.41 0,-0.33 0.35,-0.6 0.79,-0.6 0.88,0 1.58,0.98 1.99,2.81 l 0.72,3.18 h 1.08 l 0.06,0.32 h -1.08 c 0.29,1.56 0.66,2.26 1.22,2.26 0.13,0 0.22,-0.05 0.22,-0.12 0,-0.03 -0.01,-0.05 -0.04,-0.1 -0.04,-0.09 -0.06,-0.14 -0.06,-0.21 0,-0.23 0.15,-0.39 0.37,-0.39 0.23,0 0.42,0.18 0.42,0.39 0,0.37 -0.37,0.65 -0.86,0.65 -0.49,0 -0.88,-0.22 -1.24,-0.69 -0.29,-0.38 -0.49,-0.84 -0.79,-1.79 h -0.92 z"
         id="path4064" /><path
         style="fill:#000000;stroke-width:0"
         inkscape:connector-curvature="0"
         d="m 230.13,706.37 -0.03,-0.04 -0.04,-0.04 -0.03,-0.03 -0.04,-0.03 -0.03,-0.04 -0.03,-0.03 -0.03,-0.03 -0.04,-0.02 -0.03,-0.03 -0.03,-0.02 -0.03,-0.03 -0.03,-0.02 -0.03,-0.02 -0.03,-0.02 -0.03,-0.02 -0.03,-0.02 -0.03,-0.01 -0.03,-0.02 -0.03,-0.01 -0.03,-0.01 -0.03,-0.02 -0.03,-0.01 -0.03,-0.01 -0.03,0 -0.03,-0.01 -0.03,-0.01 -0.03,0 -0.03,-0.01 -0.03,0 -0.03,0 -0.03,0 -0.03,-0.01 c -0.4,0 -0.64,0.3 -0.64,0.8 0,0.59 0.25,1.21 0.64,1.62 0.2,0.21 0.48,0.33 0.75,0.33 0.16,0 0.26,-0.05 0.26,-0.14 0,-0.03 -0.01,-0.07 -0.04,-0.13 -0.05,-0.09 -0.06,-0.14 -0.06,-0.2 0,-0.17 0.1,-0.27 0.27,-0.27 0.19,0 0.34,0.14 0.34,0.32 0,0.32 -0.32,0.57 -0.73,0.57 -1.05,0 -2.03,-1.02 -2.03,-2.1 0,-0.66 0.38,-1.05 1.03,-1.05 0.51,0 0.9,0.22 1.31,0.75 z"
         id="path4066" /></g>    <g
       style="font-style:normal;font-variant:normal;font-weight:normal;font-stretch:normal;letter-spacing:normal;word-spacing:normal;text-anchor:start;fill:none;stroke:#000000;stroke-width:1;stroke-linecap:butt;stroke-linejoin:miter;stroke-miterlimit:10.43299961;stroke-opacity:1;stroke-dasharray:none;stroke-dashoffset:0"
       ns0:preamble="/home/sriranga/Desktop/Prism_BasicElectronics/preamble.tex"
       ns0:text="$\\delta$"
       word-spacing="normal"
       letter-spacing="normal"
       font-size-adjust="none"
       font-stretch="normal"
       font-weight="normal"
       font-variant="normal"
       font-style="normal"
       stroke-miterlimit="10.433"
       xml:space="preserve"
       transform="matrix(1.2,0,0,-1.2,-196.46862,1740.9795)"
       id="g4338"><path
         id="path4340"
         d="m 228.03,713.09 0,0.02 -0.01,0.03 0,0.03 -0.01,0.03 -0.01,0.02 -0.02,0.03 -0.02,0.03 -0.02,0.02 -0.02,0.03 -0.02,0.02 -0.03,0.03 -0.03,0.02 -0.03,0.02 -0.04,0.02 -0.03,0.02 -0.04,0.02 -0.04,0.02 -0.05,0.02 -0.04,0.02 -0.05,0.01 -0.05,0.02 -0.06,0.01 -0.05,0.01 -0.06,0.02 -0.06,0.01 -0.06,0.01 -0.07,0 -0.07,0.01 -0.07,0 -0.07,0.01 -0.07,0 -0.07,0 c -0.8,0 -1.45,-0.44 -1.45,-1.05 0,-0.66 0.69,-1.37 0.69,-1.38 l 0.19,-0.21 c 0,-0.01 0.52,-0.65 0.52,-1.45 h 0 c 0,-1.28 -0.83,-2.33 -1.51,-2.33 -0.55,0 -0.75,0.76 -0.75,1.32 0,2.29 1.73,2.46 1.74,2.46 l -0.19,0.21 c -0.01,0 -2.39,-0.39 -2.39,-2.64 0,-0.68 0.35,-1.6 1.35,-1.6 1.42,0 2.54,1.29 2.54,2.91 0,1.65 -1.81,1.85 -1.81,2.82 0,0.45 0.53,0.63 0.85,0.63 0.93,0 0.72,-0.56 1.14,-0.56 0.21,0 0.35,0.14 0.35,0.31 z"
         inkscape:connector-curvature="0"
         style="fill:#000000;stroke-width:0" /></g>    <text
       xml:space="preserve"
       style="font-size:12px;font-style:normal;font-variant:normal;font-weight:normal;font-stretch:normal;text-align:start;line-height:150%;letter-spacing:0px;word-spacing:0px;text-anchor:start;fill:#000000;fill-opacity:1;stroke:none;font-family:LMRoman12;-inkscape-font-specification:Sans"
       x="444.98727"
       y="496.0795"
       id="text4476"
       sodipodi:linespacing="150%"><tspan
         sodipodi:role="line"
         id="tspan4478"
         x="444.98727"
         y="496.0795">(a)</tspan></text>
    <text
       sodipodi:linespacing="150%"
       id="text4480"
       y="646.66095"
       x="444.98727"
       style="font-size:12px;font-style:normal;font-variant:normal;font-weight:normal;font-stretch:normal;text-align:start;line-height:150%;letter-spacing:0px;word-spacing:0px;text-anchor:start;fill:#000000;fill-opacity:1;stroke:none;font-family:LMRoman12;-inkscape-font-specification:Sans"
       xml:space="preserve"><tspan
         y="646.66095"
         x="444.98727"
         id="tspan4482"
         sodipodi:role="line">(b)</tspan></text>
    <text
       xml:space="preserve"
       style="font-size:12px;font-style:normal;font-variant:normal;font-weight:normal;font-stretch:normal;text-align:start;line-height:150%;letter-spacing:0px;word-spacing:0px;text-anchor:start;fill:#000000;fill-opacity:1;stroke:none;font-family:LMRoman12;-inkscape-font-specification:Sans"
       x="444.98727"
       y="786.21588"
       id="text4484"
       sodipodi:linespacing="150%"><tspan
         sodipodi:role="line"
         id="tspan4486"
         x="444.98727"
         y="786.21588">(c)</tspan></text>
    <text
       sodipodi:linespacing="150%"
       id="text4488"
       y="914.39966"
       x="444.98727"
       style="font-size:12px;font-style:normal;font-variant:normal;font-weight:normal;font-stretch:normal;text-align:start;line-height:150%;letter-spacing:0px;word-spacing:0px;text-anchor:start;fill:#000000;fill-opacity:1;stroke:none;font-family:LMRoman12;-inkscape-font-specification:Sans"
       xml:space="preserve"><tspan
         y="914.39966"
         x="444.98727"
         id="tspan4490"
         sodipodi:role="line">(d)</tspan></text>
  </g>
</svg>
