<?xml version="1.0" encoding="UTF-8" standalone="no"?>
<!-- Created with Inkscape (http://www.inkscape.org/) -->

<svg
   xmlns:ns0="http://www.iki.fi/pav/software/textext/"
   xmlns:dc="http://purl.org/dc/elements/1.1/"
   xmlns:cc="http://creativecommons.org/ns#"
   xmlns:rdf="http://www.w3.org/1999/02/22-rdf-syntax-ns#"
   xmlns:svg="http://www.w3.org/2000/svg"
   xmlns="http://www.w3.org/2000/svg"
   xmlns:sodipodi="http://sodipodi.sourceforge.net/DTD/sodipodi-0.dtd"
   xmlns:inkscape="http://www.inkscape.org/namespaces/inkscape"
   sodipodi:docname="fig8.3.svg"
   inkscape:version="0.48.4 r9939"
   version="1.1"
   id="svg2"
   height="354.33069"
   width="496.06299">
  <sodipodi:namedview
     id="base"
     pagecolor="#ffffff"
     bordercolor="#666666"
     borderopacity="1.0"
     inkscape:pageopacity="0.0"
     inkscape:pageshadow="2"
     inkscape:zoom="2.3762074"
     inkscape:cx="219.3389"
     inkscape:cy="195.62289"
     inkscape:document-units="cm"
     inkscape:current-layer="layer1"
     showgrid="false"
     units="cm"
     inkscape:object-nodes="true"
     inkscape:window-width="1366"
     inkscape:window-height="744"
     inkscape:window-x="0"
     inkscape:window-y="24"
     inkscape:window-maximized="1"
     showguides="true"
     inkscape:guide-bbox="true">
    <inkscape:grid
       snapvisiblegridlinesonly="true"
       enabled="true"
       visible="true"
       empspacing="5"
       id="grid2985"
       type="xygrid" />
  </sodipodi:namedview>
  <defs
     id="defs4">
    <marker
       style="overflow:visible"
       id="Arrow1Send"
       refX="0"
       refY="0"
       orient="auto"
       inkscape:stockid="Arrow1Send">
      <path
         transform="matrix(-0.2,0,0,-0.2,-1.2,0)"
         style="fill-rule:evenodd;stroke:#000000;stroke-width:1pt"
         d="M 0,0 5,-5 -12.5,0 5,5 0,0 z"
         id="path3818"
         inkscape:connector-curvature="0" />
    </marker>
    <marker
       style="overflow:visible"
       id="Arrow1Sstart"
       refX="0"
       refY="0"
       orient="auto"
       inkscape:stockid="Arrow1Sstart">
      <path
         transform="matrix(0.2,0,0,0.2,1.2,0)"
         style="fill-rule:evenodd;stroke:#000000;stroke-width:1pt"
         d="M 0,0 5,-5 -12.5,0 5,5 0,0 z"
         id="path3815"
         inkscape:connector-curvature="0" />
    </marker>
    <marker
       style="overflow:visible"
       id="Arrow1Mstart"
       refX="0"
       refY="0"
       orient="auto"
       inkscape:stockid="Arrow1Mstart">
      <path
         transform="matrix(0.4,0,0,0.4,4,0)"
         style="fill-rule:evenodd;stroke:#000000;stroke-width:1pt"
         d="M 0,0 5,-5 -12.5,0 5,5 0,0 z"
         id="path3809"
         inkscape:connector-curvature="0" />
    </marker>
    <marker
       style="overflow:visible"
       id="Arrow1Mend"
       refX="0"
       refY="0"
       orient="auto"
       inkscape:stockid="Arrow1Mend">
      <path
         inkscape:connector-curvature="0"
         transform="matrix(-0.4,0,0,-0.4,-4,0)"
         style="fill-rule:evenodd;stroke:#000000;stroke-width:1pt"
         d="M 0,0 5,-5 -12.5,0 5,5 0,0 z"
         id="path3812" />
    </marker>
  </defs>
  <metadata
     id="metadata7">
    <rdf:RDF>
      <cc:Work
         rdf:about="">
        <dc:format>image/svg+xml</dc:format>
        <dc:type
           rdf:resource="http://purl.org/dc/dcmitype/StillImage" />
        <dc:title></dc:title>
      </cc:Work>
    </rdf:RDF>
  </metadata>
  <g
     transform="translate(0,-698.03016)"
     id="layer1"
     inkscape:groupmode="layer"
     inkscape:label="Layer 1">
    <path
       inkscape:connector-curvature="0"
       id="path5607"
       d="m 225,787.36085 0,125"
       style="fill:none;stroke:#000000;stroke-width:1.20000005;stroke-linecap:round;stroke-linejoin:round;stroke-miterlimit:4;stroke-opacity:1;stroke-dasharray:none;stroke-dashoffset:0;marker-start:url(#Arrow1Mstart)" />
    <g
       id="g5830"
       transform="matrix(1.2,0,0,-1.2,-47.390085,1771.3178)"
       xml:space="preserve"
       stroke-miterlimit="10.433"
       font-style="normal"
       font-variant="normal"
       font-weight="normal"
       font-stretch="normal"
       font-size-adjust="none"
       letter-spacing="normal"
       word-spacing="normal"
       ns0:text="$\\omega_c$"
       ns0:preamble="/home/sriranga/Desktop/Prism_BasicElectronics/preamble.tex"
       style="font-style:normal;font-variant:normal;font-weight:normal;font-stretch:normal;letter-spacing:normal;word-spacing:normal;text-anchor:start;fill:none;stroke:#000000;stroke-width:1;stroke-linecap:butt;stroke-linejoin:miter;stroke-miterlimit:10.43299961;stroke-opacity:1;stroke-dasharray:none;stroke-dashoffset:0"><path
         d="m 230.07,709.64 0,0.09 -0.01,0.1 -0.01,0.09 -0.01,0.09 -0.02,0.09 -0.01,0.09 -0.02,0.08 -0.03,0.08 -0.02,0.08 -0.03,0.08 -0.03,0.08 -0.03,0.07 -0.03,0.07 -0.03,0.07 -0.03,0.06 -0.04,0.07 -0.03,0.06 -0.03,0.05 -0.04,0.06 -0.03,0.05 -0.03,0.05 -0.03,0.04 -0.03,0.04 -0.03,0.04 -0.03,0.04 -0.02,0.03 -0.03,0.03 -0.02,0.02 -0.02,0.02 -0.01,0.02 -0.02,0.02 -0.01,0.01 h -0.33 c 0.07,-0.12 0.31,-0.6 0.31,-1.31 0,-1.16 -0.75,-2.78 -1.74,-2.78 -0.37,0 -0.63,0.21 -0.63,0.57 0,0.99 0.54,1.93 0.54,2.16 0,0.03 -0.02,0.05 -0.06,0.05 h -0.48 c -0.3,0 -0.07,-2.78 -1.61,-2.78 -0.7,0 -0.74,0.7 -0.74,0.97 0,1.58 1.16,2.91 1.36,3.12 h -0.33 c -0.01,0 -1.94,-1.31 -1.94,-3.09 0,-0.62 0.33,-1.4 1.36,-1.4 1.23,0 1.59,1.01 1.59,1.02 h 0.01 c 0,-0.01 -0.02,-0.09 -0.02,-0.22 0,-0.31 0.13,-0.8 1,-0.8 1.26,0 2.47,1.35 2.47,2.62 z"
         id="path5832"
         inkscape:connector-curvature="0"
         style="fill:#000000;stroke-width:0" /><path
         d="m 232.75,706.37 -0.03,-0.04 -0.04,-0.04 -0.03,-0.03 -0.03,-0.03 -0.04,-0.04 -0.03,-0.03 -0.03,-0.03 -0.04,-0.02 -0.03,-0.03 -0.03,-0.02 -0.03,-0.03 -0.03,-0.02 -0.03,-0.02 -0.03,-0.02 -0.03,-0.02 -0.03,-0.02 -0.03,-0.01 -0.03,-0.02 -0.03,-0.01 -0.03,-0.01 -0.03,-0.02 -0.03,-0.01 -0.03,-0.01 -0.03,0 -0.03,-0.01 -0.03,-0.01 -0.03,0 -0.03,-0.01 -0.03,0 -0.03,0 -0.03,0 -0.03,-0.01 c -0.4,0 -0.64,0.3 -0.64,0.8 0,0.59 0.25,1.21 0.64,1.62 0.2,0.21 0.48,0.33 0.75,0.33 0.16,0 0.26,-0.05 0.26,-0.14 0,-0.03 -0.01,-0.07 -0.04,-0.13 -0.05,-0.09 -0.06,-0.14 -0.06,-0.2 0,-0.17 0.1,-0.27 0.27,-0.27 0.19,0 0.34,0.14 0.34,0.32 0,0.32 -0.32,0.57 -0.74,0.57 -1.04,0 -2.02,-1.02 -2.02,-2.1 0,-0.66 0.38,-1.05 1.03,-1.05 0.51,0 0.9,0.22 1.32,0.75 z"
         id="path5834"
         inkscape:connector-curvature="0"
         style="fill:#000000;stroke-width:0" /></g>    <g
       id="g6065"
       transform="matrix(1.2,0,0,-1.2,104.81182,1763.9162)"
       xml:space="preserve"
       stroke="black"
       stroke-linecap="butt"
       stroke-linejoin="miter"
       stroke-miterlimit="10.433"
       stroke-dasharray="none"
       stroke-dashoffset="0"
       stroke-opacity="1"
       fill="none"
       fill-rule="evenodd"
       fill-opacity="1"
       font-style="normal"
       font-variant="normal"
       font-weight="normal"
       font-stretch="normal"
       font-size-adjust="none"
       letter-spacing="normal"
       word-spacing="normal"
       text-anchor="start"
       ns0:text="$\\omega(\\text{rad}/\\sec)$"
       ns0:preamble="/home/sriranga/Desktop/Prism_BasicElectronics/preamble.tex"
       style="font-style:normal;font-variant:normal;font-weight:normal;font-stretch:normal;letter-spacing:normal;word-spacing:normal;text-anchor:start;fill:none;stroke:#000000;stroke-width:1;stroke-linecap:butt;stroke-linejoin:miter;stroke-miterlimit:10.43299961;stroke-opacity:1;stroke-dasharray:none;stroke-dashoffset:0"><path
         d="M230.07,709.64 L230.07,709.73 L230.06,709.83 L230.05,709.92 L230.04,710.01 L230.02,710.1 L230.01,710.19 L229.99,710.27 L229.96,710.35 L229.94,710.43 L229.91,710.51 L229.88,710.59 L229.85,710.66 L229.82,710.73 L229.79,710.8 L229.76,710.86 L229.72,710.93 L229.69,710.99 L229.66,711.04 L229.62,711.1 L229.59,711.15 L229.56,711.2 L229.53,711.24 L229.5,711.28 L229.47,711.32 L229.44,711.36 L229.42,711.39 L229.39,711.42 L229.37,711.44 L229.35,711.46 L229.34,711.48 L229.32,711.5 L229.31,711.51 H228.98 C229.05,711.39,229.29,710.91,229.29,710.2 C229.29,709.04,228.54,707.42,227.55,707.42 C227.18,707.42,226.92,707.63,226.92,707.99 C226.92,708.98,227.46,709.92,227.46,710.15 C227.46,710.18,227.44,710.2,227.4,710.2 H226.92 C226.62,710.2,226.85,707.42,225.31,707.42 C224.61,707.42,224.57,708.12,224.57,708.39 C224.57,709.97,225.73,711.3,225.93,711.51 H225.6 C225.59,711.51,223.66,710.2,223.66,708.42 C223.66,707.8,223.99,707.02,225.02,707.02 C226.25,707.02,226.61,708.03,226.61,708.04 H226.62 C226.62,708.03,226.6,707.95,226.6,707.82 C226.6,707.51,226.73,707.02,227.6,707.02 C228.86,707.02,230.07,708.37,230.07,709.64 Z "
         stroke-width="0"
         fill="black"
         id="path6067" /><path
         d="M233.25,713.84 L233.18,713.8 L233.12,713.75 L233.06,713.71 L232.99,713.67 L232.94,713.63 L232.88,713.59 L232.83,713.55 L232.77,713.52 L232.72,713.48 L232.67,713.44 L232.63,713.41 L232.58,713.37 L232.54,713.34 L232.49,713.3 L232.41,713.24 L232.33,713.17 L232.26,713.1 L232.19,713.03 L232.12,712.96 L232.05,712.89 L231.98,712.81 L231.92,712.73 L231.85,712.65 C231.14,711.78,230.79,710.79,230.79,709.63 C230.79,708.37,231.16,707.39,232.04,706.38 C232.45,705.9,232.7,705.68,233.22,705.37 L233.34,705.53 C232.54,706.15,232.27,706.5,232,707.24 C231.76,707.91,231.65,708.66,231.65,709.66 C231.65,710.7,231.78,711.52,232.05,712.13 C232.33,712.75,232.62,713.1,233.34,713.68 Z "
         stroke-width="0"
         fill="black"
         id="path6069" /><path
         d="M233.7,711 L233.72,711 L233.73,711 L233.74,711.01 L233.75,711.01 L233.78,711.01 L233.8,711.02 L233.82,711.02 L233.84,711.02 L233.86,711.03 L233.88,711.03 L233.9,711.03 L233.93,711.03 L233.95,711.04 L233.97,711.04 L233.99,711.04 L234.01,711.04 L234.03,711.04 L234.05,711.04 C234.3,711.04,234.39,710.88,234.39,710.44 V707.96 C234.39,707.46,234.32,707.39,233.68,707.27 V707.12 H236.07 V707.27 C235.4,707.3,235.23,707.45,235.23,708.02 V710.25 C235.23,710.57,235.65,711.07,235.92,711.07 C235.98,711.07,236.07,711.02,236.18,710.92 C236.34,710.78,236.45,710.72,236.58,710.72 C236.82,710.72,236.97,710.89,236.97,711.17 C236.97,711.5,236.76,711.7,236.42,711.7 C236,711.7,235.71,711.47,235.23,710.76 V711.67 L235.18,711.7 C234.65,711.48,234.29,711.35,233.7,711.16 Z "
         stroke-width="0"
         fill="black"
         id="path6071" /><path
         d="M241.35,707.78 L241.33,707.77 L241.32,707.76 L241.3,707.74 L241.29,707.73 L241.27,707.72 L241.26,707.71 L241.24,707.7 L241.23,707.69 L241.22,707.68 L241.2,707.68 L241.19,707.67 L241.17,707.66 L241.16,707.65 L241.15,707.65 L241.14,707.64 L241.12,707.63 L241.11,707.63 L241.1,707.62 L241.08,707.62 L241.07,707.62 L241.06,707.61 L241.04,707.61 L241.03,707.6 L241.02,707.6 L240.99,707.6 L240.97,707.59 L240.94,707.59 L240.91,707.59 C240.68,707.59,240.61,707.73,240.61,708.17 V710.1 C240.61,710.62,240.56,710.91,240.41,711.15 C240.19,711.51,239.77,711.7,239.18,711.7 C238.24,711.7,237.51,711.21,237.51,710.58 C237.51,710.35,237.71,710.16,237.94,710.16 C238.18,710.16,238.38,710.35,238.38,710.57 C238.38,710.61,238.37,710.66,238.36,710.73 C238.34,710.82,238.33,710.9,238.33,710.97 C238.33,711.24,238.65,711.46,239.05,711.46 C239.54,711.46,239.81,711.17,239.81,710.63 V710.03 V709.79 V708.35 C239.81,708.04,239.76,707.95,239.55,707.83 C239.31,707.69,239.03,707.6,238.82,707.6 C238.47,707.6,238.2,707.94,238.2,708.37 V708.41 C238.2,708.99,238.6,709.35,239.81,709.79 V710.03 C238.27,709.41,238.1,709.33,237.68,708.95 C237.46,708.75,237.32,708.42,237.32,708.09 C237.32,707.46,237.76,707.03,238.36,707.03 C238.8,707.03,239.21,707.23,239.82,707.75 C239.87,707.23,240.04,707.03,240.45,707.03 C240.79,707.03,241,707.15,241.35,707.52 Z "
         stroke-width="0"
         fill="black"
         id="path6073" /><path
         d="M244.8,707.03 L246.26,707.54 V707.7 C246.08,707.69,246.06,707.69,246.03,707.69 C245.67,707.69,245.59,707.8,245.59,708.26 V713.89 L245.54,713.91 C245.07,713.74,244.72,713.64,244.08,713.47 V713.31 C244.16,713.32,244.22,713.32,244.3,713.32 C244.67,713.32,244.76,713.22,244.76,712.82 V711.27 C244.38,711.59,244.11,711.7,243.71,711.7 C242.57,711.7,241.64,710.57,241.64,709.16 C241.64,707.89,242.39,707.03,243.48,707.03 C244.04,707.03,244.42,707.22,244.76,707.69 L244.59,707.84 C244.41,707.64,244.16,707.54,243.87,707.54 C243.05,707.54,242.5,708.34,242.5,709.56 C242.5,710.68,242.99,711.42,243.74,711.42 C244.27,711.42,244.76,710.95,244.76,710.42 V708.14 C244.76,708.07,244.69,707.95,244.59,707.84 L244.76,707.69 V707.05 Z "
         stroke-width="0"
         fill="black"
         id="path6075" /><polygon
         points="250.13,713.86 249.61,713.86 246.97,705.53 247.49,705.53 "
         stroke-width="0"
         fill="black"
         id="polygon6077" /><path
         d="M255.54,710.24 L255.5,711.59 H255.4 L255.38,711.58 C255.29,711.51,255.27,711.5,255.24,711.5 C255.18,711.5,255.08,711.52,254.97,711.57 C254.75,711.65,254.53,711.68,254.27,711.68 C253.49,711.68,252.92,711.18,252.92,710.46 C252.92,709.91,253.24,709.51,254.08,709.03 L254.66,708.7 C255.01,708.51,255.18,708.27,255.18,707.96 C255.18,707.52,254.86,707.24,254.35,707.24 C254.01,707.24,253.7,707.37,253.51,707.59 C253.3,707.84,253.22,708.07,253.09,708.64 H252.93 V707.09 H253.06 C253.13,707.18,253.17,707.2,253.29,707.2 C253.38,707.2,253.51,707.18,253.74,707.12 C254.02,707.07,254.29,707.03,254.47,707.03 C255.24,707.03,255.87,707.6,255.87,708.3 C255.87,708.79,255.63,709.12,255.04,709.48 L253.96,710.11 C253.68,710.27,253.53,710.52,253.53,710.79 C253.53,711.19,253.84,711.47,254.3,711.47 C254.87,711.47,255.17,711.13,255.4,710.24 Z "
         stroke-width="0"
         fill="black"
         id="path6079" /><path
         d="M260.35,708.75 L260.3,708.68 L260.26,708.62 L260.21,708.55 L260.17,708.49 L260.12,708.43 L260.08,708.38 L260.04,708.32 L259.99,708.27 L259.95,708.22 L259.9,708.18 L259.86,708.13 L259.81,708.09 L259.77,708.05 L259.72,708.02 L259.68,707.98 L259.63,707.95 L259.59,707.92 L259.54,707.89 L259.49,707.87 L259.44,707.84 L259.4,707.82 L259.35,707.8 L259.3,707.78 L259.25,707.77 L259.19,707.75 L259.14,707.74 L259.09,707.73 L259.03,707.72 L258.98,707.72 L258.92,707.71 L258.86,707.71 L258.8,707.71 C258.23,707.71,257.81,708,257.52,708.57 C257.34,708.94,257.27,709.27,257.25,709.88 L257.27,710.2 C257.38,710.97,257.72,711.34,258.33,711.34 C258.93,711.34,259.17,711.06,259.3,710.2 H257.27 L257.25,709.88 H260.32 C260.23,710.52,260.14,710.81,259.89,711.13 C259.59,711.49,259.13,711.7,258.61,711.7 C258.12,711.7,257.65,711.52,257.27,711.18 C256.8,710.77,256.53,710.07,256.53,709.25 C256.53,707.88,257.25,707.03,258.39,707.03 C259.34,707.03,260.09,707.61,260.5,708.68 Z "
         stroke-width="0"
         fill="black"
         id="path6081" /><path
         d="M264.67,708.67 L264.62,708.61 L264.58,708.55 L264.54,708.49 L264.49,708.44 L264.45,708.38 L264.41,708.33 L264.37,708.28 L264.33,708.24 L264.29,708.19 L264.25,708.15 L264.21,708.11 L264.16,708.07 L264.12,708.04 L264.08,708.01 L264.04,707.98 L264,707.95 L263.96,707.92 L263.92,707.9 L263.88,707.87 L263.83,707.85 L263.79,707.83 L263.75,707.82 L263.7,707.8 L263.66,707.79 L263.61,707.78 L263.57,707.77 L263.52,707.76 L263.47,707.75 L263.42,707.75 L263.37,707.74 L263.32,707.74 L263.27,707.74 C262.36,707.74,261.72,708.54,261.72,709.68 C261.72,710.7,262.27,711.41,263.08,711.41 C263.43,711.41,263.56,711.3,263.66,710.93 L263.72,710.71 C263.8,710.43,263.98,710.25,264.19,710.25 C264.45,710.25,264.67,710.44,264.67,710.67 C264.67,711.23,263.97,711.7,263.14,711.7 C262.65,711.7,262.14,711.5,261.73,711.14 C261.24,710.7,260.96,710.03,260.96,709.24 C260.96,707.95,261.74,707.03,262.85,707.03 C263.3,707.03,263.69,707.18,264.05,707.49 C264.32,707.73,264.51,708,264.81,708.59 Z "
         stroke-width="0"
         fill="black"
         id="path6083" /><path
         d="M265.51,705.37 L265.58,705.41 L265.64,705.45 L265.71,705.5 L265.77,705.54 L265.83,705.58 L265.88,705.61 L265.94,705.65 L265.99,705.69 L266.04,705.73 L266.09,705.76 L266.14,705.8 L266.18,705.83 L266.22,705.87 L266.27,705.9 L266.35,705.97 L266.43,706.04 L266.5,706.11 L266.57,706.18 L266.64,706.25 L266.71,706.32 L266.78,706.4 L266.84,706.48 L266.91,706.56 C267.62,707.42,267.97,708.42,267.97,709.58 C267.97,710.85,267.6,711.81,266.72,712.83 C266.32,713.3,266.06,713.52,265.54,713.84 L265.42,713.68 C266.22,713.05,266.48,712.71,266.76,711.96 C267,711.3,267.11,710.54,267.11,709.55 C267.11,708.52,266.98,707.69,266.71,707.09 C266.44,706.46,266.14,706.1,265.42,705.53 Z "
         stroke-width="0"
         fill="black"
         id="path6085" /></g>    <g
       id="g6403"
       transform="translate(0,19.999998)">
      <path
         sodipodi:nodetypes="ccccc"
         inkscape:connector-curvature="0"
         id="path6191"
         d="m 190,892.36085 0,-80 c -8.9793,-0.43435 -21.48927,3.05089 -25,10 -6.23638,13.3263 -3.41749,31.34117 -30,70 z"
         style="fill:#ffffff;fill-opacity:1;stroke:#000000;stroke-width:0.80000001;stroke-linecap:round;stroke-linejoin:round;stroke-miterlimit:4;stroke-opacity:1;stroke-dasharray:none;stroke-dashoffset:0" />
      <path
         id="path6406"
         style="fill:none;stroke:#000000;stroke-width:1"
         d="m 172.49608,815.85308 -7.12445,5.97812 m -2.40273,5.93235 17.27343,-14.49413 m 5.65258,-0.82685 -24.29849,20.38885 m -1.23284,4.9507 L 190,812.91421 m 0,3.91622 -30.95972,25.97829 M 157.60642,847.9281 190,820.74665 m 0,3.91623 -34.32845,28.80498 m -2.25914,5.81187 L 190,828.5791 m 0,3.91622 -39.31378,32.98818 m -3.5744,6.9155 L 190,836.41154 m 0,3.91622 -46.89516,39.34971 m -5.39563,8.44369 L 190,844.24399 m 0,3.91622 -52.67628,44.20064 m 4.66718,0 L 190,852.07643 m 0,3.91622 -43.34193,36.3682 m 4.66717,0 L 190,859.90887 m 0,3.91623 -34.00759,28.53575 m 4.66717,0 L 190,867.74132 m 0,3.91622 -24.67325,20.70331 m 4.66718,0 L 190,875.57376 m 0,3.91622 -15.3389,12.87087 m 4.66717,0 L 190,883.4062 m 0,3.91623 -6.00456,5.03842 m 4.66717,0 1.33739,-1.1222"
         inkscape:connector-curvature="0" />
    </g>
    <g
       transform="matrix(-1,0,0,1,450,19.73603)"
       id="g6477">
      <path
         style="fill:#ffffff;fill-opacity:1;stroke:#000000;stroke-width:0.80000001;stroke-linecap:round;stroke-linejoin:round;stroke-miterlimit:4;stroke-opacity:1;stroke-dasharray:none;stroke-dashoffset:0"
         d="m 190,892.36085 0,-80 c -8.9793,-0.43435 -21.48927,3.05089 -25,10 -6.23638,13.3263 -3.41749,31.34117 -30,70 z"
         id="path6479"
         inkscape:connector-curvature="0"
         sodipodi:nodetypes="ccccc" />
      <path
         inkscape:connector-curvature="0"
         d="m 172.49608,815.85308 -7.12445,5.97812 m -2.40273,5.93235 17.27343,-14.49413 m 5.65258,-0.82685 -24.29849,20.38885 m -1.23284,4.9507 L 190,812.91421 m 0,3.91622 -30.95972,25.97829 M 157.60642,847.9281 190,820.74665 m 0,3.91623 -34.32845,28.80498 m -2.25914,5.81187 L 190,828.5791 m 0,3.91622 -39.31378,32.98818 m -3.5744,6.9155 L 190,836.41154 m 0,3.91622 -46.89516,39.34971 m -5.39563,8.44369 L 190,844.24399 m 0,3.91622 -52.67628,44.20064 m 4.66718,0 L 190,852.07643 m 0,3.91622 -43.34193,36.3682 m 4.66717,0 L 190,859.90887 m 0,3.91623 -34.00759,28.53575 m 4.66717,0 L 190,867.74132 m 0,3.91622 -24.67325,20.70331 m 4.66718,0 L 190,875.57376 m 0,3.91622 -15.3389,12.87087 m 4.66717,0 L 190,883.4062 m 0,3.91623 -6.00456,5.03842 m 4.66717,0 1.33739,-1.1222"
         style="fill:none;stroke:#000000;stroke-width:1"
         id="path6481" />
    </g>
    <path
       style="fill:none;stroke:#000000;stroke-width:1.20000005;stroke-linecap:round;stroke-linejoin:round;stroke-miterlimit:4;stroke-opacity:1;stroke-dasharray:none;stroke-dashoffset:0;marker-start:url(#Arrow1Mstart)"
       d="m 367.4641,912.36085 -287.4641,0"
       id="path4483"
       inkscape:connector-curvature="0" />
    <text
       xml:space="preserve"
       style="font-size:12px;font-style:normal;font-variant:normal;font-weight:normal;font-stretch:normal;text-align:start;line-height:150%;letter-spacing:0px;word-spacing:0px;text-anchor:start;fill:#000000;fill-opacity:1;stroke:none;font-family:LMRoman12;-inkscape-font-specification:Sans"
       x="180.21107"
       y="826.29962"
       id="text6483"
       sodipodi:linespacing="150%"><tspan
         sodipodi:role="line"
         id="tspan6485"
         x="180.21107"
         y="826.29962">LSB</tspan></text>
    <text
       sodipodi:linespacing="150%"
       id="text6487"
       y="826.29962"
       x="247.59088"
       style="font-size:12px;font-style:normal;font-variant:normal;font-weight:normal;font-stretch:normal;text-align:start;line-height:150%;letter-spacing:0px;word-spacing:0px;text-anchor:start;fill:#000000;fill-opacity:1;stroke:none;font-family:LMRoman12;-inkscape-font-specification:Sans"
       xml:space="preserve"><tspan
         y="826.29962"
         x="247.59088"
         id="tspan6489"
         sodipodi:role="line">USB</tspan></text>
    <g
       id="g6566"
       transform="matrix(1.2,0,0,-1.2,-57.970565,1634.758)"
       xml:space="preserve"
       stroke-miterlimit="10.433"
       font-style="normal"
       font-variant="normal"
       font-weight="normal"
       font-stretch="normal"
       font-size-adjust="none"
       letter-spacing="normal"
       word-spacing="normal"
       ns0:text="$E_c$"
       ns0:preamble="/home/sriranga/Desktop/Prism_BasicElectronics/preamble.tex"
       style="font-style:normal;font-variant:normal;font-weight:normal;font-stretch:normal;letter-spacing:normal;word-spacing:normal;text-anchor:start;fill:none;stroke:#000000;stroke-width:1;stroke-linecap:butt;stroke-linejoin:miter;stroke-miterlimit:10.43299961;stroke-opacity:1;stroke-dasharray:none;stroke-dashoffset:0"><path
         style="fill:#000000;stroke-width:0"
         inkscape:connector-curvature="0"
         d="m 229.99,713.61 h -4.95 v -0.16 c 0.62,-0.06 0.77,-0.14 0.77,-0.4 0,-0.11 -0.06,-0.46 -0.11,-0.64 l -1.22,-4.39 c -0.17,-0.57 -0.25,-0.64 -0.81,-0.74 v -0.16 h 5.04 l 0.62,1.61 -0.16,0.08 c -0.46,-0.63 -0.72,-0.89 -1.15,-1.09 -0.37,-0.17 -1.05,-0.27 -1.79,-0.27 -0.56,0 -0.8,0.1 -0.8,0.34 0,0.11 0.11,0.58 0.36,1.45 0.13,0.44 0.22,0.77 0.32,1.14 0.35,-0.02 0.65,-0.03 0.77,-0.03 0.39,0.01 0.67,-0.05 0.78,-0.15 0.05,-0.04 0.07,-0.13 0.07,-0.3 0,-0.17 -0.02,-0.3 -0.07,-0.52 l 0.2,-0.05 0.68,2.31 -0.18,0.03 c -0.38,-0.84 -0.47,-0.9 -1.38,-0.94 -0.11,0 -0.43,-0.01 -0.78,-0.02 l 0.65,2.32 c 0.06,0.21 0.17,0.25 0.73,0.25 1.56,0 1.91,-0.12 1.91,-0.72 0,-0.13 -0.01,-0.28 -0.02,-0.45 l 0.21,-0.02 z"
         id="path6568" /><path
         style="fill:#000000;stroke-width:0"
         inkscape:connector-curvature="0"
         d="m 232.46,706.37 -0.04,-0.04 -0.04,-0.04 -0.03,-0.03 -0.03,-0.03 -0.04,-0.04 -0.03,-0.03 -0.03,-0.03 -0.03,-0.02 -0.04,-0.03 -0.03,-0.02 -0.03,-0.03 -0.03,-0.02 -0.03,-0.02 -0.03,-0.02 -0.03,-0.02 -0.03,-0.02 -0.03,-0.01 -0.03,-0.02 -0.03,-0.01 -0.03,-0.01 -0.03,-0.02 -0.03,-0.01 -0.03,-0.01 -0.03,0 -0.03,-0.01 -0.03,-0.01 -0.03,0 -0.03,-0.01 -0.03,0 -0.03,0 -0.03,0 -0.03,-0.01 c -0.4,0 -0.64,0.3 -0.64,0.8 0,0.59 0.25,1.21 0.64,1.62 0.2,0.21 0.48,0.33 0.75,0.33 0.16,0 0.27,-0.05 0.27,-0.14 0,-0.03 -0.02,-0.07 -0.05,-0.13 -0.05,-0.09 -0.06,-0.14 -0.06,-0.2 0,-0.17 0.11,-0.27 0.27,-0.27 0.19,0 0.34,0.14 0.34,0.32 0,0.32 -0.32,0.57 -0.73,0.57 -1.05,0 -2.02,-1.02 -2.02,-2.1 0,-0.66 0.37,-1.05 1.02,-1.05 0.51,0 0.9,0.22 1.32,0.75 z"
         id="path6570" /></g>    <g
       style="font-style:normal;font-variant:normal;font-weight:normal;font-stretch:normal;letter-spacing:normal;word-spacing:normal;text-anchor:start;fill:none;stroke:#000000;stroke-width:1;stroke-linecap:butt;stroke-linejoin:miter;stroke-miterlimit:10.43299961;stroke-opacity:1;stroke-dasharray:none;stroke-dashoffset:0"
       ns0:preamble="/home/sriranga/Desktop/Prism_BasicElectronics/preamble.tex"
       ns0:text="$\\omega_c- \\omega_2$"
       word-spacing="normal"
       letter-spacing="normal"
       font-size-adjust="none"
       font-stretch="normal"
       font-weight="normal"
       font-variant="normal"
       font-style="normal"
       stroke-miterlimit="10.433"
       xml:space="preserve"
       transform="matrix(1.2,0,0,-1.2,-151.98293,1771.3178)"
       id="g6719"><path
         id="path6721"
         d="m 230.07,709.64 0,0.09 -0.01,0.1 -0.01,0.09 -0.01,0.09 -0.02,0.09 -0.01,0.09 -0.02,0.08 -0.03,0.08 -0.02,0.08 -0.03,0.08 -0.03,0.08 -0.03,0.07 -0.03,0.07 -0.03,0.07 -0.03,0.06 -0.04,0.07 -0.03,0.06 -0.03,0.05 -0.04,0.06 -0.03,0.05 -0.03,0.05 -0.03,0.04 -0.03,0.04 -0.03,0.04 -0.03,0.04 -0.02,0.03 -0.03,0.03 -0.02,0.02 -0.02,0.02 -0.01,0.02 -0.02,0.02 -0.01,0.01 h -0.33 c 0.07,-0.12 0.31,-0.6 0.31,-1.31 0,-1.16 -0.75,-2.78 -1.74,-2.78 -0.37,0 -0.63,0.21 -0.63,0.57 0,0.99 0.54,1.93 0.54,2.16 0,0.03 -0.02,0.05 -0.06,0.05 h -0.48 c -0.3,0 -0.07,-2.78 -1.61,-2.78 -0.7,0 -0.74,0.7 -0.74,0.97 0,1.58 1.16,2.91 1.36,3.12 h -0.33 c -0.01,0 -1.94,-1.31 -1.94,-3.09 0,-0.62 0.33,-1.4 1.36,-1.4 1.23,0 1.59,1.01 1.59,1.02 h 0.01 c 0,-0.01 -0.02,-0.09 -0.02,-0.22 0,-0.31 0.13,-0.8 1,-0.8 1.26,0 2.47,1.35 2.47,2.62 z"
         inkscape:connector-curvature="0"
         style="fill:#000000;stroke-width:0" /><path
         id="path6723"
         d="m 232.75,706.37 -0.03,-0.04 -0.04,-0.04 -0.03,-0.03 -0.03,-0.03 -0.04,-0.04 -0.03,-0.03 -0.03,-0.03 -0.04,-0.02 -0.03,-0.03 -0.03,-0.02 -0.03,-0.03 -0.03,-0.02 -0.03,-0.02 -0.03,-0.02 -0.03,-0.02 -0.03,-0.02 -0.03,-0.01 -0.03,-0.02 -0.03,-0.01 -0.03,-0.01 -0.03,-0.02 -0.03,-0.01 -0.03,-0.01 -0.03,0 -0.03,-0.01 -0.03,-0.01 -0.03,0 -0.03,-0.01 -0.03,0 -0.03,0 -0.03,0 -0.03,-0.01 c -0.4,0 -0.64,0.3 -0.64,0.8 0,0.59 0.25,1.21 0.64,1.62 0.2,0.21 0.48,0.33 0.75,0.33 0.16,0 0.26,-0.05 0.26,-0.14 0,-0.03 -0.01,-0.07 -0.04,-0.13 -0.05,-0.09 -0.06,-0.14 -0.06,-0.2 0,-0.17 0.1,-0.27 0.27,-0.27 0.19,0 0.34,0.14 0.34,0.32 0,0.32 -0.32,0.57 -0.74,0.57 -1.04,0 -2.02,-1.02 -2.02,-2.1 0,-0.66 0.38,-1.05 1.03,-1.05 0.51,0 0.9,0.22 1.32,0.75 z"
         inkscape:connector-curvature="0"
         style="fill:#000000;stroke-width:0" /><polygon
         id="polygon6725"
         points="236.74,709.96 236.74,709.4 241.84,709.4 241.84,709.96 "
         style="fill:#000000;stroke-width:0" /><path
         id="path6727"
         d="m 251.31,709.64 0,0.09 -0.01,0.1 -0.01,0.09 -0.01,0.09 -0.01,0.09 -0.02,0.09 -0.02,0.08 -0.02,0.08 -0.03,0.08 -0.03,0.08 -0.02,0.08 -0.03,0.07 -0.04,0.07 -0.03,0.07 -0.03,0.06 -0.03,0.07 -0.04,0.06 -0.03,0.05 -0.03,0.06 -0.04,0.05 -0.03,0.05 -0.03,0.04 -0.03,0.04 -0.03,0.04 -0.03,0.04 -0.02,0.03 -0.03,0.03 -0.02,0.02 -0.02,0.02 -0.01,0.02 -0.01,0.02 -0.02,0.01 h -0.32 c 0.07,-0.12 0.31,-0.6 0.31,-1.31 0,-1.16 -0.76,-2.78 -1.75,-2.78 -0.36,0 -0.62,0.21 -0.62,0.57 0,0.99 0.53,1.93 0.53,2.16 0,0.03 -0.02,0.05 -0.05,0.05 h -0.48 c -0.31,0 -0.07,-2.78 -1.62,-2.78 -0.7,0 -0.74,0.7 -0.74,0.97 0,1.58 1.16,2.91 1.36,3.12 h -0.33 c -0.01,0 -1.94,-1.31 -1.94,-3.09 0,-0.62 0.33,-1.4 1.37,-1.4 1.22,0 1.58,1.01 1.58,1.02 h 0.01 c 0,-0.01 -0.02,-0.09 -0.02,-0.22 0,-0.31 0.13,-0.8 1,-0.8 1.27,0 2.47,1.35 2.47,2.62 z"
         inkscape:connector-curvature="0"
         style="fill:#000000;stroke-width:0" /><path
         id="path6729"
         d="m 254.87,706.58 -0.09,0.04 c -0.26,-0.4 -0.35,-0.46 -0.66,-0.46 h -1.67 l 1.17,1.22 c 0.62,0.65 0.89,1.18 0.89,1.72 0,0.7 -0.56,1.23 -1.29,1.23 -0.38,0 -0.74,-0.15 -1,-0.43 -0.22,-0.24 -0.33,-0.46 -0.45,-0.95 l 0.15,-0.04 c 0.28,0.68 0.53,0.91 1.01,0.91 0.59,0 0.98,-0.4 0.98,-0.98 0,-0.55 -0.32,-1.19 -0.9,-1.81 l -1.24,-1.32 v -0.08 h 2.71 z"
         inkscape:connector-curvature="0"
         style="fill:#000000;stroke-width:0" /></g>    <g
       id="g6806"
       transform="matrix(1.2,0,0,-1.2,-97.290171,1771.3178)"
       xml:space="preserve"
       stroke-miterlimit="10.433"
       font-style="normal"
       font-variant="normal"
       font-weight="normal"
       font-stretch="normal"
       font-size-adjust="none"
       letter-spacing="normal"
       word-spacing="normal"
       ns0:text="$\\omega_c- \\omega_2$"
       ns0:preamble="/home/sriranga/Desktop/Prism_BasicElectronics/preamble.tex"
       style="font-style:normal;font-variant:normal;font-weight:normal;font-stretch:normal;letter-spacing:normal;word-spacing:normal;text-anchor:start;fill:none;stroke:#000000;stroke-width:1;stroke-linecap:butt;stroke-linejoin:miter;stroke-miterlimit:10.43299961;stroke-opacity:1;stroke-dasharray:none;stroke-dashoffset:0"><path
         style="fill:#000000;stroke-width:0"
         inkscape:connector-curvature="0"
         d="m 230.07,709.64 0,0.09 -0.01,0.1 -0.01,0.09 -0.01,0.09 -0.02,0.09 -0.01,0.09 -0.02,0.08 -0.03,0.08 -0.02,0.08 -0.03,0.08 -0.03,0.08 -0.03,0.07 -0.03,0.07 -0.03,0.07 -0.03,0.06 -0.04,0.07 -0.03,0.06 -0.03,0.05 -0.04,0.06 -0.03,0.05 -0.03,0.05 -0.03,0.04 -0.03,0.04 -0.03,0.04 -0.03,0.04 -0.02,0.03 -0.03,0.03 -0.02,0.02 -0.02,0.02 -0.01,0.02 -0.02,0.02 -0.01,0.01 h -0.33 c 0.07,-0.12 0.31,-0.6 0.31,-1.31 0,-1.16 -0.75,-2.78 -1.74,-2.78 -0.37,0 -0.63,0.21 -0.63,0.57 0,0.99 0.54,1.93 0.54,2.16 0,0.03 -0.02,0.05 -0.06,0.05 h -0.48 c -0.3,0 -0.07,-2.78 -1.61,-2.78 -0.7,0 -0.74,0.7 -0.74,0.97 0,1.58 1.16,2.91 1.36,3.12 h -0.33 c -0.01,0 -1.94,-1.31 -1.94,-3.09 0,-0.62 0.33,-1.4 1.36,-1.4 1.23,0 1.59,1.01 1.59,1.02 h 0.01 c 0,-0.01 -0.02,-0.09 -0.02,-0.22 0,-0.31 0.13,-0.8 1,-0.8 1.26,0 2.47,1.35 2.47,2.62 z"
         id="path6808" /><path
         style="fill:#000000;stroke-width:0"
         inkscape:connector-curvature="0"
         d="m 232.75,706.37 -0.03,-0.04 -0.04,-0.04 -0.03,-0.03 -0.03,-0.03 -0.04,-0.04 -0.03,-0.03 -0.03,-0.03 -0.04,-0.02 -0.03,-0.03 -0.03,-0.02 -0.03,-0.03 -0.03,-0.02 -0.03,-0.02 -0.03,-0.02 -0.03,-0.02 -0.03,-0.02 -0.03,-0.01 -0.03,-0.02 -0.03,-0.01 -0.03,-0.01 -0.03,-0.02 -0.03,-0.01 -0.03,-0.01 -0.03,0 -0.03,-0.01 -0.03,-0.01 -0.03,0 -0.03,-0.01 -0.03,0 -0.03,0 -0.03,0 -0.03,-0.01 c -0.4,0 -0.64,0.3 -0.64,0.8 0,0.59 0.25,1.21 0.64,1.62 0.2,0.21 0.48,0.33 0.75,0.33 0.16,0 0.26,-0.05 0.26,-0.14 0,-0.03 -0.01,-0.07 -0.04,-0.13 -0.05,-0.09 -0.06,-0.14 -0.06,-0.2 0,-0.17 0.1,-0.27 0.27,-0.27 0.19,0 0.34,0.14 0.34,0.32 0,0.32 -0.32,0.57 -0.74,0.57 -1.04,0 -2.02,-1.02 -2.02,-2.1 0,-0.66 0.38,-1.05 1.03,-1.05 0.51,0 0.9,0.22 1.32,0.75 z"
         id="path6810" /><polygon
         style="fill:#000000;stroke-width:0"
         points="241.84,709.96 236.74,709.96 236.74,709.4 241.84,709.4 "
         id="polygon6812" /><path
         style="fill:#000000;stroke-width:0"
         inkscape:connector-curvature="0"
         d="m 251.31,709.64 0,0.09 -0.01,0.1 -0.01,0.09 -0.01,0.09 -0.01,0.09 -0.02,0.09 -0.02,0.08 -0.02,0.08 -0.03,0.08 -0.03,0.08 -0.02,0.08 -0.03,0.07 -0.04,0.07 -0.03,0.07 -0.03,0.06 -0.03,0.07 -0.04,0.06 -0.03,0.05 -0.03,0.06 -0.04,0.05 -0.03,0.05 -0.03,0.04 -0.03,0.04 -0.03,0.04 -0.03,0.04 -0.02,0.03 -0.03,0.03 -0.02,0.02 -0.02,0.02 -0.01,0.02 -0.01,0.02 -0.02,0.01 h -0.32 c 0.07,-0.12 0.31,-0.6 0.31,-1.31 0,-1.16 -0.76,-2.78 -1.75,-2.78 -0.36,0 -0.62,0.21 -0.62,0.57 0,0.99 0.53,1.93 0.53,2.16 0,0.03 -0.02,0.05 -0.05,0.05 h -0.48 c -0.31,0 -0.07,-2.78 -1.62,-2.78 -0.7,0 -0.74,0.7 -0.74,0.97 0,1.58 1.16,2.91 1.36,3.12 h -0.33 c -0.01,0 -1.94,-1.31 -1.94,-3.09 0,-0.62 0.33,-1.4 1.37,-1.4 1.22,0 1.58,1.01 1.58,1.02 h 0.01 c 0,-0.01 -0.02,-0.09 -0.02,-0.22 0,-0.31 0.13,-0.8 1,-0.8 1.27,0 2.47,1.35 2.47,2.62 z"
         id="path6814" /><path
         style="fill:#000000;stroke-width:0"
         inkscape:connector-curvature="0"
         d="m 254.87,706.58 -0.09,0.04 c -0.26,-0.4 -0.35,-0.46 -0.66,-0.46 h -1.67 l 1.17,1.22 c 0.62,0.65 0.89,1.18 0.89,1.72 0,0.7 -0.56,1.23 -1.29,1.23 -0.38,0 -0.74,-0.15 -1,-0.43 -0.22,-0.24 -0.33,-0.46 -0.45,-0.95 l 0.15,-0.04 c 0.28,0.68 0.53,0.91 1.01,0.91 0.59,0 0.98,-0.4 0.98,-0.98 0,-0.55 -0.32,-1.19 -0.9,-1.81 l -1.24,-1.32 v -0.08 h 2.71 z"
         id="path6816" /></g>    <g
       id="g6894"
       transform="matrix(1.2,0,0,-1.2,-22.791022,1771.3178)"
       xml:space="preserve"
       stroke-miterlimit="10.433"
       font-style="normal"
       font-variant="normal"
       font-weight="normal"
       font-stretch="normal"
       font-size-adjust="none"
       letter-spacing="normal"
       word-spacing="normal"
       ns0:text="$\\omega_c+ \\omega_1$"
       ns0:preamble="/home/sriranga/Desktop/Prism_BasicElectronics/preamble.tex"
       style="font-style:normal;font-variant:normal;font-weight:normal;font-stretch:normal;letter-spacing:normal;word-spacing:normal;text-anchor:start;fill:none;stroke:#000000;stroke-width:1;stroke-linecap:butt;stroke-linejoin:miter;stroke-miterlimit:10.43299961;stroke-opacity:1;stroke-dasharray:none;stroke-dashoffset:0"><path
         style="fill:#000000;stroke-width:0"
         inkscape:connector-curvature="0"
         d="m 230.07,709.64 0,0.09 -0.01,0.1 -0.01,0.09 -0.01,0.09 -0.02,0.09 -0.01,0.09 -0.02,0.08 -0.03,0.08 -0.02,0.08 -0.03,0.08 -0.03,0.08 -0.03,0.07 -0.03,0.07 -0.03,0.07 -0.03,0.06 -0.04,0.07 -0.03,0.06 -0.03,0.05 -0.04,0.06 -0.03,0.05 -0.03,0.05 -0.03,0.04 -0.03,0.04 -0.03,0.04 -0.03,0.04 -0.02,0.03 -0.03,0.03 -0.02,0.02 -0.02,0.02 -0.01,0.02 -0.02,0.02 -0.01,0.01 h -0.33 c 0.07,-0.12 0.31,-0.6 0.31,-1.31 0,-1.16 -0.75,-2.78 -1.74,-2.78 -0.37,0 -0.63,0.21 -0.63,0.57 0,0.99 0.54,1.93 0.54,2.16 0,0.03 -0.02,0.05 -0.06,0.05 h -0.48 c -0.3,0 -0.07,-2.78 -1.61,-2.78 -0.7,0 -0.74,0.7 -0.74,0.97 0,1.58 1.16,2.91 1.36,3.12 h -0.33 c -0.01,0 -1.94,-1.31 -1.94,-3.09 0,-0.62 0.33,-1.4 1.36,-1.4 1.23,0 1.59,1.01 1.59,1.02 h 0.01 c 0,-0.01 -0.02,-0.09 -0.02,-0.22 0,-0.31 0.13,-0.8 1,-0.8 1.26,0 2.47,1.35 2.47,2.62 z"
         id="path6896" /><path
         style="fill:#000000;stroke-width:0"
         inkscape:connector-curvature="0"
         d="m 232.75,706.37 -0.03,-0.04 -0.04,-0.04 -0.03,-0.03 -0.03,-0.03 -0.04,-0.04 -0.03,-0.03 -0.03,-0.03 -0.04,-0.02 -0.03,-0.03 -0.03,-0.02 -0.03,-0.03 -0.03,-0.02 -0.03,-0.02 -0.03,-0.02 -0.03,-0.02 -0.03,-0.02 -0.03,-0.01 -0.03,-0.02 -0.03,-0.01 -0.03,-0.01 -0.03,-0.02 -0.03,-0.01 -0.03,-0.01 -0.03,0 -0.03,-0.01 -0.03,-0.01 -0.03,0 -0.03,-0.01 -0.03,0 -0.03,0 -0.03,0 -0.03,-0.01 c -0.4,0 -0.64,0.3 -0.64,0.8 0,0.59 0.25,1.21 0.64,1.62 0.2,0.21 0.48,0.33 0.75,0.33 0.16,0 0.26,-0.05 0.26,-0.14 0,-0.03 -0.01,-0.07 -0.04,-0.13 -0.05,-0.09 -0.06,-0.14 -0.06,-0.2 0,-0.17 0.1,-0.27 0.27,-0.27 0.19,0 0.34,0.14 0.34,0.32 0,0.32 -0.32,0.57 -0.74,0.57 -1.04,0 -2.02,-1.02 -2.02,-2.1 0,-0.66 0.38,-1.05 1.03,-1.05 0.51,0 0.9,0.22 1.32,0.75 z"
         id="path6898" /><polygon
         style="fill:#000000;stroke-width:0"
         points="239.57,712.2 239.01,712.2 239.01,709.96 236.74,709.96 236.74,709.4 239.01,709.4 239.01,707.12 239.57,707.12 239.57,709.4 241.84,709.4 241.84,709.96 239.57,709.96 "
         id="polygon6900" /><path
         style="fill:#000000;stroke-width:0"
         inkscape:connector-curvature="0"
         d="m 251.31,709.64 0,0.09 -0.01,0.1 -0.01,0.09 -0.01,0.09 -0.01,0.09 -0.02,0.09 -0.02,0.08 -0.02,0.08 -0.03,0.08 -0.03,0.08 -0.02,0.08 -0.03,0.07 -0.04,0.07 -0.03,0.07 -0.03,0.06 -0.03,0.07 -0.04,0.06 -0.03,0.05 -0.03,0.06 -0.04,0.05 -0.03,0.05 -0.03,0.04 -0.03,0.04 -0.03,0.04 -0.03,0.04 -0.02,0.03 -0.03,0.03 -0.02,0.02 -0.02,0.02 -0.01,0.02 -0.01,0.02 -0.02,0.01 h -0.32 c 0.07,-0.12 0.31,-0.6 0.31,-1.31 0,-1.16 -0.76,-2.78 -1.75,-2.78 -0.36,0 -0.62,0.21 -0.62,0.57 0,0.99 0.53,1.93 0.53,2.16 0,0.03 -0.02,0.05 -0.05,0.05 h -0.48 c -0.31,0 -0.07,-2.78 -1.62,-2.78 -0.7,0 -0.74,0.7 -0.74,0.97 0,1.58 1.16,2.91 1.36,3.12 h -0.33 c -0.01,0 -1.94,-1.31 -1.94,-3.09 0,-0.62 0.33,-1.4 1.37,-1.4 1.22,0 1.58,1.01 1.58,1.02 h 0.01 c 0,-0.01 -0.02,-0.09 -0.02,-0.22 0,-0.31 0.13,-0.8 1,-0.8 1.27,0 2.47,1.35 2.47,2.62 z"
         id="path6902" /><path
         style="fill:#000000;stroke-width:0"
         inkscape:connector-curvature="0"
         d="m 253.59,710.33 -1.26,-0.63 v -0.1 c 0.09,0.04 0.16,0.06 0.19,0.08 0.13,0.05 0.24,0.08 0.31,0.08 0.15,0 0.21,-0.11 0.21,-0.33 v -3.15 c 0,-0.23 -0.05,-0.39 -0.16,-0.45 -0.11,-0.07 -0.21,-0.09 -0.5,-0.1 v -0.1 h 1.92 v 0.1 c -0.55,0.01 -0.66,0.08 -0.66,0.42 v 4.17 z"
         id="path6904" /></g>    <g
       style="font-style:normal;font-variant:normal;font-weight:normal;font-stretch:normal;letter-spacing:normal;word-spacing:normal;text-anchor:start;fill:none;stroke:#000000;stroke-width:1;stroke-linecap:butt;stroke-linejoin:miter;stroke-miterlimit:10.43299961;stroke-opacity:1;stroke-dasharray:none;stroke-dashoffset:0"
       ns0:preamble="/home/sriranga/Desktop/Prism_BasicElectronics/preamble.tex"
       ns0:text="$\\omega_c+ \\omega_2$"
       text-anchor="start"
       word-spacing="normal"
       letter-spacing="normal"
       font-size-adjust="none"
       font-stretch="normal"
       font-weight="normal"
       font-variant="normal"
       font-style="normal"
       fill-opacity="1"
       fill-rule="evenodd"
       fill="none"
       stroke-opacity="1"
       stroke-dashoffset="0"
       stroke-dasharray="none"
       stroke-miterlimit="10.433"
       stroke-linejoin="miter"
       stroke-linecap="butt"
       stroke="black"
       xml:space="preserve"
       transform="matrix(1.2,0,0,-1.2,30.774046,1771.3178)"
       id="g7080"><path
         id="path7082"
         fill="black"
         stroke-width="0"
         d="M230.07,709.64 L230.07,709.73 L230.06,709.83 L230.05,709.92 L230.04,710.01 L230.02,710.1 L230.01,710.19 L229.99,710.27 L229.96,710.35 L229.94,710.43 L229.91,710.51 L229.88,710.59 L229.85,710.66 L229.82,710.73 L229.79,710.8 L229.76,710.86 L229.72,710.93 L229.69,710.99 L229.66,711.04 L229.62,711.1 L229.59,711.15 L229.56,711.2 L229.53,711.24 L229.5,711.28 L229.47,711.32 L229.44,711.36 L229.42,711.39 L229.39,711.42 L229.37,711.44 L229.35,711.46 L229.34,711.48 L229.32,711.5 L229.31,711.51 H228.98 C229.05,711.39,229.29,710.91,229.29,710.2 C229.29,709.04,228.54,707.42,227.55,707.42 C227.18,707.42,226.92,707.63,226.92,707.99 C226.92,708.98,227.46,709.92,227.46,710.15 C227.46,710.18,227.44,710.2,227.4,710.2 H226.92 C226.62,710.2,226.85,707.42,225.31,707.42 C224.61,707.42,224.57,708.12,224.57,708.39 C224.57,709.97,225.73,711.3,225.93,711.51 H225.6 C225.59,711.51,223.66,710.2,223.66,708.42 C223.66,707.8,223.99,707.02,225.02,707.02 C226.25,707.02,226.61,708.03,226.61,708.04 H226.62 C226.62,708.03,226.6,707.95,226.6,707.82 C226.6,707.51,226.73,707.02,227.6,707.02 C228.86,707.02,230.07,708.37,230.07,709.64 Z " /><path
         id="path7084"
         fill="black"
         stroke-width="0"
         d="M232.75,706.37 L232.72,706.33 L232.68,706.29 L232.65,706.26 L232.62,706.23 L232.58,706.19 L232.55,706.16 L232.52,706.13 L232.48,706.11 L232.45,706.08 L232.42,706.06 L232.39,706.03 L232.36,706.01 L232.33,705.99 L232.3,705.97 L232.27,705.95 L232.24,705.93 L232.21,705.92 L232.18,705.9 L232.15,705.89 L232.12,705.88 L232.09,705.86 L232.06,705.85 L232.03,705.84 L232,705.84 L231.97,705.83 L231.94,705.82 L231.91,705.82 L231.88,705.81 L231.85,705.81 L231.82,705.81 L231.79,705.81 L231.76,705.8 C231.36,705.8,231.12,706.1,231.12,706.6 C231.12,707.19,231.37,707.81,231.76,708.22 C231.96,708.43,232.24,708.55,232.51,708.55 C232.67,708.55,232.77,708.5,232.77,708.41 C232.77,708.38,232.76,708.34,232.73,708.28 C232.68,708.19,232.67,708.14,232.67,708.08 C232.67,707.91,232.77,707.81,232.94,707.81 C233.13,707.81,233.28,707.95,233.28,708.13 C233.28,708.45,232.96,708.7,232.54,708.7 C231.5,708.7,230.52,707.68,230.52,706.6 C230.52,705.94,230.9,705.55,231.55,705.55 C232.06,705.55,232.45,705.77,232.87,706.3 Z " /><polygon
         id="polygon7086"
         fill="black"
         stroke-width="0"
         points="241.84,709.4 241.84,709.96 239.57,709.96 239.57,712.2 239.01,712.2 239.01,709.96 236.74,709.96 236.74,709.4 239.01,709.4 239.01,707.12 239.57,707.12 239.57,709.4 " /><path
         id="path7088"
         fill="black"
         stroke-width="0"
         d="M251.31,709.64 L251.31,709.73 L251.3,709.83 L251.29,709.92 L251.28,710.01 L251.27,710.1 L251.25,710.19 L251.23,710.27 L251.21,710.35 L251.18,710.43 L251.15,710.51 L251.13,710.59 L251.1,710.66 L251.06,710.73 L251.03,710.8 L251,710.86 L250.97,710.93 L250.93,710.99 L250.9,711.04 L250.87,711.1 L250.83,711.15 L250.8,711.2 L250.77,711.24 L250.74,711.28 L250.71,711.32 L250.68,711.36 L250.66,711.39 L250.63,711.42 L250.61,711.44 L250.59,711.46 L250.58,711.48 L250.57,711.5 L250.55,711.51 H250.23 C250.3,711.39,250.54,710.91,250.54,710.2 C250.54,709.04,249.78,707.42,248.79,707.42 C248.43,707.42,248.17,707.63,248.17,707.99 C248.17,708.98,248.7,709.92,248.7,710.15 C248.7,710.18,248.68,710.2,248.65,710.2 H248.17 C247.86,710.2,248.1,707.42,246.55,707.42 C245.85,707.42,245.81,708.12,245.81,708.39 C245.81,709.97,246.97,711.3,247.17,711.51 H246.84 C246.83,711.51,244.9,710.2,244.9,708.42 C244.9,707.8,245.23,707.02,246.27,707.02 C247.49,707.02,247.85,708.03,247.85,708.04 H247.86 C247.86,708.03,247.84,707.95,247.84,707.82 C247.84,707.51,247.97,707.02,248.84,707.02 C250.11,707.02,251.31,708.37,251.31,709.64 Z " /><path
         id="path7090"
         fill="black"
         stroke-width="0"
         d="M254.87,706.58 L254.78,706.62 C254.52,706.22,254.43,706.16,254.12,706.16 H252.45 L253.62,707.38 C254.24,708.03,254.51,708.56,254.51,709.1 C254.51,709.8,253.95,710.33,253.22,710.33 C252.84,710.33,252.48,710.18,252.22,709.9 C252,709.66,251.89,709.44,251.77,708.95 L251.92,708.91 C252.2,709.59,252.45,709.82,252.93,709.82 C253.52,709.82,253.91,709.42,253.91,708.84 C253.91,708.29,253.59,707.65,253.01,707.03 L251.77,705.71 V705.63 H254.48 Z " /></g>  </g>
</svg>
