<?xml version="1.0" encoding="UTF-8" standalone="no"?>
<!-- Created with Inkscape (http://www.inkscape.org/) -->

<svg
   xmlns:ns0="http://www.iki.fi/pav/software/textext/"
   xmlns:dc="http://purl.org/dc/elements/1.1/"
   xmlns:cc="http://creativecommons.org/ns#"
   xmlns:rdf="http://www.w3.org/1999/02/22-rdf-syntax-ns#"
   xmlns:svg="http://www.w3.org/2000/svg"
   xmlns="http://www.w3.org/2000/svg"
   xmlns:sodipodi="http://sodipodi.sourceforge.net/DTD/sodipodi-0.dtd"
   xmlns:inkscape="http://www.inkscape.org/namespaces/inkscape"
   width="496.06299"
   height="354.33069"
   id="svg2853"
   version="1.1"
   inkscape:version="0.47 r22583"
   sodipodi:docname="New document 1">
  <defs
     id="defs2855">
    <inkscape:perspective
       sodipodi:type="inkscape:persp3d"
       inkscape:vp_x="0 : 526.18109 : 1"
       inkscape:vp_y="0 : 1000 : 0"
       inkscape:vp_z="744.09448 : 526.18109 : 1"
       inkscape:persp3d-origin="372.04724 : 350.78739 : 1"
       id="perspective2861" />
    <inkscape:perspective
       id="perspective2871"
       inkscape:persp3d-origin="0.5 : 0.33333333 : 1"
       inkscape:vp_z="1 : 0.5 : 1"
       inkscape:vp_y="0 : 1000 : 0"
       inkscape:vp_x="0 : 0.5 : 1"
       sodipodi:type="inkscape:persp3d" />
  </defs>
  <sodipodi:namedview
     id="base"
     pagecolor="#ffffff"
     bordercolor="#666666"
     borderopacity="1.0"
     inkscape:pageopacity="0.0"
     inkscape:pageshadow="2"
     inkscape:zoom="1.4"
     inkscape:cx="381.78166"
     inkscape:cy="212.42674"
     inkscape:document-units="px"
     inkscape:current-layer="layer1"
     showgrid="false"
     units="cm"
     inkscape:window-width="1600"
     inkscape:window-height="815"
     inkscape:window-x="0"
     inkscape:window-y="34"
     inkscape:window-maximized="1" />
  <metadata
     id="metadata2858">
    <rdf:RDF>
      <cc:Work
         rdf:about="">
        <dc:format>image/svg+xml</dc:format>
        <dc:type
           rdf:resource="http://purl.org/dc/dcmitype/StillImage" />
        <dc:title></dc:title>
      </cc:Work>
    </rdf:RDF>
  </metadata>
  <g
     inkscape:label="Layer 1"
     inkscape:groupmode="layer"
     id="layer1"
     transform="translate(0,-698.03017)">
    <path
       sodipodi:nodetypes="cccccc"
       inkscape:connector-curvature="0"
       id="path3032"
       d="m 125.28239,827.3609 90,0 0,-25 30,0 0,25 150,0"
       style="fill:none;stroke:#000000;stroke-width:1.20000005;stroke-linecap:butt;stroke-linejoin:round;stroke-miterlimit:4;stroke-opacity:1;stroke-dasharray:none;stroke-dashoffset:0" />
    <path
       sodipodi:nodetypes="cccccccccccc"
       inkscape:connector-curvature="0"
       id="path3034"
       d="m 125.28239,782.3609 30,0 0,-25 30,0 0,0 0,0 0,25 90,0 0,-25 60,0 0,25 60,0"
       style="fill:none;stroke:#000000;stroke-width:1;stroke-linecap:butt;stroke-linejoin:round;stroke-miterlimit:4;stroke-opacity:1;stroke-dasharray:none;stroke-dashoffset:0" />
    <g
       style="font-style:normal;font-variant:normal;font-weight:normal;font-stretch:normal;letter-spacing:normal;word-spacing:normal;text-anchor:start;fill:none;stroke:#000000;stroke-width:1;stroke-linecap:butt;stroke-linejoin:miter;stroke-miterlimit:10.43299961;stroke-opacity:1;stroke-dasharray:none;stroke-dashoffset:0"
       ns0:preamble="/home/sriranga/Desktop/Prism_BasicElectronics/preamble.tex"
       ns0:text="${S}$"
       word-spacing="normal"
       letter-spacing="normal"
       font-size-adjust="none"
       font-stretch="normal"
       font-weight="normal"
       font-variant="normal"
       font-style="normal"
       stroke-miterlimit="10.433"
       xml:space="preserve"
       transform="matrix(1.2,0,0,-1.2,-152.98018,1634.5494)"
       id="g3226"><path
         style="fill:#000000;stroke-width:0"
         inkscape:connector-curvature="0"
         id="path3228"
         d="m 228.09,711.77 0.4,1.98 h -0.23 c -0.14,-0.21 -0.23,-0.26 -0.45,-0.26 -0.12,0 -0.23,0.03 -0.46,0.11 -0.22,0.09 -0.53,0.14 -0.84,0.14 -1.04,0 -1.77,-0.69 -1.77,-1.66 0,-0.53 0.14,-0.82 0.74,-1.46 0.09,-0.09 0.22,-0.23 0.39,-0.42 0.18,-0.18 0.32,-0.33 0.39,-0.41 0.47,-0.49 0.59,-0.75 0.59,-1.18 0,-0.74 -0.55,-1.32 -1.28,-1.32 -0.83,0 -1.45,0.71 -1.45,1.65 0,0.08 0.01,0.16 0.02,0.23 l -0.2,0.02 -0.34,-2.21 h 0.18 c 0.07,0.22 0.18,0.32 0.38,0.32 0.11,0 0.26,-0.04 0.52,-0.13 0.45,-0.16 0.72,-0.22 1.03,-0.22 1.14,0 2.01,0.86 2.01,1.98 0,0.65 -0.23,1.04 -1.12,1.94 -0.9,0.9 -0.99,1.04 -0.99,1.53 0,0.63 0.42,1.01 1.1,1.01 0.36,0 0.67,-0.13 0.88,-0.36 0.22,-0.25 0.3,-0.59 0.32,-1.25 z" /></g>    <g
       id="g3230"
       transform="matrix(1.2,0,0,-1.2,-155.19693,1680.4627)"
       xml:space="preserve"
       stroke-miterlimit="10.433"
       font-style="normal"
       font-variant="normal"
       font-weight="normal"
       font-stretch="normal"
       font-size-adjust="none"
       letter-spacing="normal"
       word-spacing="normal"
       ns0:text="${R}$"
       ns0:preamble="/home/sriranga/Desktop/Prism_BasicElectronics/preamble.tex"
       style="font-style:normal;font-variant:normal;font-weight:normal;font-stretch:normal;letter-spacing:normal;word-spacing:normal;text-anchor:start;fill:none;stroke:#000000;stroke-width:1;stroke-linecap:butt;stroke-linejoin:miter;stroke-miterlimit:10.43299961;stroke-opacity:1;stroke-dasharray:none;stroke-dashoffset:0"><path
         style="fill:#000000;stroke-width:0"
         inkscape:connector-curvature="0"
         d="m 229.07,707.28 -0.04,0.01 -0.04,0 -0.03,0.01 -0.04,0 -0.04,0.01 -0.03,0.01 -0.03,0.01 -0.03,0.01 -0.03,0.01 -0.03,0.01 -0.03,0.01 -0.03,0.02 -0.03,0.01 -0.02,0.02 -0.03,0.02 -0.02,0.02 -0.03,0.02 -0.02,0.02 -0.02,0.03 -0.02,0.02 -0.02,0.03 -0.03,0.03 -0.02,0.03 -0.02,0.03 -0.01,0.04 -0.02,0.03 -0.02,0.04 -0.02,0.04 -0.02,0.04 -0.02,0.05 -0.02,0.04 -0.01,0.05 -0.93,2.43 c 0.77,0.17 1.1,0.31 1.45,0.63 0.33,0.29 0.51,0.67 0.51,1.12 0,0.92 -0.73,1.43 -2.07,1.43 l -0.21,-0.3 c 0.83,0 1.24,-0.37 1.24,-1.11 0,-0.98 -0.64,-1.49 -1.88,-1.49 -0.16,0 -0.27,0.01 -0.51,0.05 l 0.65,2.28 c 0.06,0.2 0.18,0.27 0.5,0.27 l 0.21,0.3 h -2.47 v -0.16 c 0.42,-0.06 0.47,-0.07 0.57,-0.14 0.08,-0.05 0.14,-0.16 0.14,-0.27 0,-0.12 -0.05,-0.36 -0.12,-0.63 l -1.22,-4.39 c -0.18,-0.59 -0.25,-0.65 -0.81,-0.74 v -0.16 h 2.43 v 0.16 c -0.61,0.08 -0.68,0.13 -0.68,0.46 0,0.1 0.03,0.23 0.12,0.58 l 0.56,2.07 0.65,-0.05 1.22,-3.22 h 1.47 z"
         id="path3232" /></g>  </g>
</svg>
