<?xml version="1.0" encoding="UTF-8" standalone="no"?>
<!-- Created with Inkscape (http://www.inkscape.org/) -->

<svg
   xmlns:ns0="http://www.iki.fi/pav/software/textext/"
   xmlns:dc="http://purl.org/dc/elements/1.1/"
   xmlns:cc="http://creativecommons.org/ns#"
   xmlns:rdf="http://www.w3.org/1999/02/22-rdf-syntax-ns#"
   xmlns:svg="http://www.w3.org/2000/svg"
   xmlns="http://www.w3.org/2000/svg"
   xmlns:sodipodi="http://sodipodi.sourceforge.net/DTD/sodipodi-0.dtd"
   xmlns:inkscape="http://www.inkscape.org/namespaces/inkscape"
   width="425.19684"
   height="354.33069"
   id="svg2"
   version="1.1"
   inkscape:version="0.48.4 r9939"
   sodipodi:docname="fig6.1.eps">
  <sodipodi:namedview
     id="base"
     pagecolor="#ffffff"
     bordercolor="#666666"
     borderopacity="1.0"
     inkscape:pageopacity="0.0"
     inkscape:pageshadow="2"
     inkscape:zoom="1.6848668"
     inkscape:cx="212.59842"
     inkscape:cy="177.16534"
     inkscape:document-units="cm"
     inkscape:current-layer="layer1"
     showgrid="false"
     units="cm"
     inkscape:object-nodes="true"
     inkscape:window-width="1366"
     inkscape:window-height="744"
     inkscape:window-x="0"
     inkscape:window-y="24"
     inkscape:window-maximized="1">
    <inkscape:grid
       snapvisiblegridlinesonly="true"
       enabled="true"
       visible="true"
       empspacing="5"
       id="grid2985"
       type="xygrid" />
  </sodipodi:namedview>
  <defs
     id="defs4">
    <marker
       style="overflow:visible"
       id="Arrow1Mstart"
       refX="0.0"
       refY="0.0"
       orient="auto"
       inkscape:stockid="Arrow1Mstart">
      <path
         transform="scale(0.4) translate(10,0)"
         style="fill-rule:evenodd;stroke:#000000;stroke-width:1.0pt"
         d="M 0.0,0.0 L 5.0,-5.0 L -12.5,0.0 L 5.0,5.0 L 0.0,0.0 z "
         id="path3775" />
    </marker>
    <marker
       style="overflow:visible;"
       id="Arrow1Mend"
       refX="0.0"
       refY="0.0"
       orient="auto"
       inkscape:stockid="Arrow1Mend">
      <path
         transform="scale(0.4) rotate(180) translate(10,0)"
         style="fill-rule:evenodd;stroke:#000000;stroke-width:1.0pt;"
         d="M 0.0,0.0 L 5.0,-5.0 L -12.5,0.0 L 5.0,5.0 L 0.0,0.0 z "
         id="path3778" />
    </marker>
  </defs>
  <metadata
     id="metadata7">
    <rdf:RDF>
      <cc:Work
         rdf:about="">
        <dc:format>image/svg+xml</dc:format>
        <dc:type
           rdf:resource="http://purl.org/dc/dcmitype/StillImage" />
        <dc:title></dc:title>
      </cc:Work>
    </rdf:RDF>
  </metadata>
  <g
     transform="translate(0,-698.03017)"
     id="layer1"
     inkscape:groupmode="layer"
     inkscape:label="Layer 1">
    <rect
       transform="translate(0,698.03017)"
       y="124.33069"
       x="130"
       height="60"
       width="110"
       id="rect2987"
       style="fill:none;stroke:#000000;stroke-width:1.5;stroke-linecap:round;stroke-linejoin:round;stroke-miterlimit:4;stroke-opacity:1;stroke-dasharray:none;stroke-dashoffset:0" />
    <text
       sodipodi:linespacing="100%"
       id="text2989"
       y="850.52484"
       x="184.81691"
       style="font-size:12px;font-style:normal;font-variant:normal;font-weight:normal;font-stretch:normal;text-align:center;line-height:100%;letter-spacing:0px;word-spacing:0px;text-anchor:middle;fill:#000000;fill-opacity:1;stroke:none;font-family:LMRoman12;-inkscape-font-specification:Sans"
       xml:space="preserve"><tspan
         y="850.52484"
         x="184.81691"
         id="tspan2991"
         sodipodi:role="line">Combinational</tspan><tspan
         id="tspan2993"
         y="862.52484"
         x="184.81691"
         sodipodi:role="line">circuit</tspan></text>
    <path
       inkscape:connector-curvature="0"
       id="path2995"
       d="m 240,827.36086 45,0"
       style="fill:none;stroke:#000000;stroke-width:1;stroke-linecap:round;stroke-linejoin:round;stroke-miterlimit:4;stroke-opacity:1;stroke-dasharray:none;stroke-dashoffset:0;marker-end:url(#Arrow1Mend)" />
    <path
       style="fill:none;stroke:#000000;stroke-width:1;stroke-linecap:round;stroke-linejoin:round;stroke-miterlimit:4;stroke-opacity:1;stroke-dasharray:none;stroke-dashoffset:0;marker-end:url(#Arrow1Mend)"
       d="m 240,837.36086 45,0"
       id="path4209"
       inkscape:connector-curvature="0" />
    <path
       inkscape:connector-curvature="0"
       id="path4211"
       d="m 240,857.36086 45,0"
       style="fill:none;stroke:#000000;stroke-width:1;stroke-linecap:round;stroke-linejoin:round;stroke-miterlimit:4;stroke-opacity:1;stroke-dasharray:none;stroke-dashoffset:0;marker-end:url(#Arrow1Mend)" />
    <path
       style="fill:none;stroke:#000000;stroke-width:1;stroke-linecap:round;stroke-linejoin:round;stroke-miterlimit:4;stroke-opacity:1;stroke-dasharray:none;stroke-dashoffset:0;marker-end:url(#Arrow1Mend)"
       d="m 130,827.36086 -45,0"
       id="path4217"
       inkscape:connector-curvature="0" />
    <path
       inkscape:connector-curvature="0"
       id="path4219"
       d="m 130,837.36086 -45,0"
       style="fill:none;stroke:#000000;stroke-width:1;stroke-linecap:round;stroke-linejoin:round;stroke-miterlimit:4;stroke-opacity:1;stroke-dasharray:none;stroke-dashoffset:0;marker-end:url(#Arrow1Mend)" />
    <path
       style="fill:none;stroke:#000000;stroke-width:1;stroke-linecap:round;stroke-linejoin:round;stroke-miterlimit:4;stroke-opacity:1;stroke-dasharray:none;stroke-dashoffset:0;marker-end:url(#Arrow1Mend)"
       d="m 130,857.36086 -45,0"
       id="path4221"
       inkscape:connector-curvature="0" />
    <path
       sodipodi:nodetypes="cccc"
       inkscape:connector-curvature="0"
       id="path4223"
       d="m 240,877.36086 20,0 0,30 -43.74096,0"
       style="fill:none;stroke:#000000;stroke-width:1;stroke-linecap:round;stroke-linejoin:round;stroke-miterlimit:4;stroke-opacity:1;stroke-dasharray:none;stroke-dashoffset:0;marker-end:url(#Arrow1Mend)" />
    <g
       id="content"
       transform="matrix(1.2,0,0,-1.2,-160.32263,1695.1473)"
       xml:space="preserve"
       stroke-miterlimit="10.433"
       font-style="normal"
       font-variant="normal"
       font-weight="normal"
       font-stretch="normal"
       font-size-adjust="none"
       letter-spacing="normal"
       word-spacing="normal"
       ns0:text="$\\vdots$"
       ns0:preamble="/home/sriranga/Desktop/Prism_BasicElectronics/preamble.tex"
       style="font-style:normal;font-variant:normal;font-weight:normal;font-stretch:normal;letter-spacing:normal;word-spacing:normal;text-anchor:start;fill:none;stroke:#000000;stroke-width:1;stroke-linecap:butt;stroke-linejoin:miter;stroke-miterlimit:10.43299961;stroke-opacity:1;stroke-dasharray:none;stroke-dashoffset:0"><path
         style="fill:#000000;stroke-width:0"
         inkscape:connector-curvature="0"
         d="m 225.23,710.53 0,0.03 0,0.03 0,0.03 -0.01,0.02 -0.01,0.03 0,0.03 -0.01,0.02 -0.01,0.03 -0.01,0.02 -0.02,0.03 -0.01,0.02 -0.01,0.03 -0.02,0.02 -0.02,0.02 -0.02,0.02 -0.01,0.02 -0.02,0.02 -0.02,0.02 -0.02,0.01 -0.03,0.02 -0.02,0.01 -0.02,0.02 -0.03,0.01 -0.02,0.01 -0.03,0.01 -0.02,0.01 -0.03,0.01 -0.02,0.01 -0.03,0 -0.03,0 -0.03,0.01 -0.02,0 c -0.3,0 -0.55,-0.25 -0.55,-0.57 0,-0.38 0.34,-0.54 0.55,-0.54 0.2,0 0.55,0.17 0.55,0.54 z"
         id="path4309" /><path
         style="fill:#000000;stroke-width:0"
         inkscape:connector-curvature="0"
         d="m 225.23,706.55 0,0.02 0,0.03 0,0.03 -0.01,0.03 -0.01,0.03 0,0.02 -0.01,0.03 -0.01,0.02 -0.01,0.03 -0.02,0.02 -0.01,0.03 -0.01,0.02 -0.02,0.02 -0.02,0.02 -0.02,0.02 -0.01,0.02 -0.02,0.02 -0.02,0.02 -0.02,0.02 -0.03,0.01 -0.02,0.02 -0.02,0.01 -0.03,0.02 -0.02,0.01 -0.03,0.01 -0.02,0.01 -0.03,0 -0.02,0.01 -0.03,0.01 -0.03,0 -0.03,0 -0.02,0 c -0.3,0 -0.55,-0.25 -0.55,-0.56 0,-0.38 0.34,-0.54 0.55,-0.54 0.2,0 0.55,0.17 0.55,0.54 z"
         id="path4311" /><path
         style="fill:#000000;stroke-width:0"
         inkscape:connector-curvature="0"
         d="m 225.23,702.56 0,0.03 0,0.03 0,0.03 -0.01,0.02 -0.01,0.03 0,0.03 -0.01,0.02 -0.01,0.03 -0.01,0.02 -0.02,0.03 -0.01,0.02 -0.01,0.03 -0.02,0.02 -0.02,0.02 -0.02,0.02 -0.01,0.02 -0.02,0.02 -0.02,0.02 -0.02,0.01 -0.03,0.02 -0.02,0.01 -0.02,0.02 -0.03,0.01 -0.02,0.01 -0.03,0.01 -0.02,0.01 -0.03,0.01 -0.02,0.01 -0.03,0 -0.03,0 -0.03,0.01 -0.02,0 c -0.3,0 -0.55,-0.25 -0.55,-0.57 0,-0.38 0.34,-0.53 0.55,-0.53 0.2,0 0.55,0.16 0.55,0.53 z"
         id="path4313" /></g>    <g
       style="font-style:normal;font-variant:normal;font-weight:normal;font-stretch:normal;letter-spacing:normal;word-spacing:normal;text-anchor:start;fill:none;stroke:#000000;stroke-width:1;stroke-linecap:butt;stroke-linejoin:miter;stroke-miterlimit:10.43299961;stroke-opacity:1;stroke-dasharray:none;stroke-dashoffset:0"
       ns0:preamble="/home/sriranga/Desktop/Prism_BasicElectronics/preamble.tex"
       ns0:text="$\\vdots$"
       word-spacing="normal"
       letter-spacing="normal"
       font-size-adjust="none"
       font-stretch="normal"
       font-weight="normal"
       font-variant="normal"
       font-style="normal"
       stroke-miterlimit="10.433"
       xml:space="preserve"
       transform="matrix(1.2,0,0,-1.2,-9.5688697,1695.1473)"
       id="g4339"><path
         id="path4341"
         d="m 225.23,710.53 0,0.03 0,0.03 0,0.03 -0.01,0.02 -0.01,0.03 0,0.03 -0.01,0.02 -0.01,0.03 -0.01,0.02 -0.02,0.03 -0.01,0.02 -0.01,0.03 -0.02,0.02 -0.02,0.02 -0.02,0.02 -0.01,0.02 -0.02,0.02 -0.02,0.02 -0.02,0.01 -0.03,0.02 -0.02,0.01 -0.02,0.02 -0.03,0.01 -0.02,0.01 -0.03,0.01 -0.02,0.01 -0.03,0.01 -0.02,0.01 -0.03,0 -0.03,0 -0.03,0.01 -0.02,0 c -0.3,0 -0.55,-0.25 -0.55,-0.57 0,-0.38 0.34,-0.54 0.55,-0.54 0.2,0 0.55,0.17 0.55,0.54 z"
         inkscape:connector-curvature="0"
         style="fill:#000000;stroke-width:0" /><path
         id="path4343"
         d="m 225.23,706.55 0,0.02 0,0.03 0,0.03 -0.01,0.03 -0.01,0.03 0,0.02 -0.01,0.03 -0.01,0.02 -0.01,0.03 -0.02,0.02 -0.01,0.03 -0.01,0.02 -0.02,0.02 -0.02,0.02 -0.02,0.02 -0.01,0.02 -0.02,0.02 -0.02,0.02 -0.02,0.02 -0.03,0.01 -0.02,0.02 -0.02,0.01 -0.03,0.02 -0.02,0.01 -0.03,0.01 -0.02,0.01 -0.03,0 -0.02,0.01 -0.03,0.01 -0.03,0 -0.03,0 -0.02,0 c -0.3,0 -0.55,-0.25 -0.55,-0.56 0,-0.38 0.34,-0.54 0.55,-0.54 0.2,0 0.55,0.17 0.55,0.54 z"
         inkscape:connector-curvature="0"
         style="fill:#000000;stroke-width:0" /><path
         id="path4345"
         d="m 225.23,702.56 0,0.03 0,0.03 0,0.03 -0.01,0.02 -0.01,0.03 0,0.03 -0.01,0.02 -0.01,0.03 -0.01,0.02 -0.02,0.03 -0.01,0.02 -0.01,0.03 -0.02,0.02 -0.02,0.02 -0.02,0.02 -0.01,0.02 -0.02,0.02 -0.02,0.02 -0.02,0.01 -0.03,0.02 -0.02,0.01 -0.02,0.02 -0.03,0.01 -0.02,0.01 -0.03,0.01 -0.02,0.01 -0.03,0.01 -0.02,0.01 -0.03,0 -0.03,0 -0.03,0.01 -0.02,0 c -0.3,0 -0.55,-0.25 -0.55,-0.57 0,-0.38 0.34,-0.53 0.55,-0.53 0.2,0 0.55,0.16 0.55,0.53 z"
         inkscape:connector-curvature="0"
         style="fill:#000000;stroke-width:0" /></g>    <g
       style="font-style:normal;font-variant:normal;font-weight:normal;font-stretch:normal;letter-spacing:normal;word-spacing:normal;text-anchor:start;fill:none;stroke:#000000;stroke-width:1;stroke-linecap:butt;stroke-linejoin:miter;stroke-miterlimit:10.43299961;stroke-opacity:1;stroke-dasharray:none;stroke-dashoffset:0"
       ns0:preamble="/home/sriranga/Desktop/Prism_BasicElectronics/preamble.tex"
       ns0:text="$x_1$"
       word-spacing="normal"
       letter-spacing="normal"
       font-size-adjust="none"
       font-stretch="normal"
       font-weight="normal"
       font-variant="normal"
       font-style="normal"
       stroke-miterlimit="10.433"
       xml:space="preserve"
       transform="matrix(1.2,0,0,-1.2,-197.43085,1676.9685)"
       id="g4404"><path
         id="path4406"
         d="m 227.93,708.23 -0.01,-0.02 -0.02,-0.01 -0.01,-0.02 -0.02,-0.02 -0.01,-0.01 -0.01,-0.02 -0.01,-0.01 -0.02,-0.02 -0.01,-0.01 -0.01,-0.02 -0.01,-0.01 -0.02,-0.02 -0.01,-0.01 0,-0.01 -0.01,-0.01 -0.01,-0.01 0,-0.01 -0.01,-0.01 -0.01,-0.01 -0.01,-0.01 c -0.23,-0.3 -0.35,-0.4 -0.46,-0.4 -0.15,0 -0.24,0.13 -0.3,0.41 -0.02,0.08 -0.04,0.14 -0.05,0.17 -0.24,1 -0.35,1.46 -0.35,1.61 0.43,0.76 0.79,1.2 0.97,1.2 0.06,0 0.14,-0.03 0.24,-0.08 0.12,-0.07 0.19,-0.09 0.27,-0.09 0.21,0 0.35,0.15 0.35,0.36 0,0.21 -0.17,0.37 -0.41,0.37 -0.44,0 -0.82,-0.36 -1.5,-1.42 l -0.11,0.54 c -0.14,0.68 -0.25,0.88 -0.52,0.88 -0.22,0 -0.56,-0.09 -1.16,-0.29 l -0.11,-0.04 0.04,-0.15 c 0.38,0.09 0.46,0.11 0.55,0.11 0.25,0 0.31,-0.09 0.45,-0.69 l 0.29,-1.22 -0.82,-1.16 c -0.2,-0.3 -0.39,-0.48 -0.5,-0.48 -0.06,0 -0.16,0.03 -0.26,0.09 -0.13,0.07 -0.24,0.1 -0.32,0.1 -0.19,0 -0.34,-0.15 -0.34,-0.35 0,-0.26 0.2,-0.41 0.5,-0.41 0.31,0 0.43,0.08 0.92,0.69 0.27,0.32 0.48,0.59 0.9,1.16 l 0.3,-1.19 c 0.13,-0.51 0.26,-0.66 0.57,-0.66 0.38,0 0.64,0.23 1.22,1.13 z"
         inkscape:connector-curvature="0"
         style="fill:#000000;stroke-width:0" /><path
         id="path4408"
         d="m 230.38,710.33 -1.25,-0.63 v -0.1 c 0.08,0.04 0.16,0.06 0.19,0.08 0.12,0.05 0.24,0.08 0.31,0.08 0.14,0 0.21,-0.11 0.21,-0.33 v -3.15 c 0,-0.23 -0.06,-0.39 -0.17,-0.45 -0.1,-0.07 -0.2,-0.09 -0.49,-0.1 v -0.1 h 1.92 v 0.1 c -0.55,0.01 -0.66,0.08 -0.66,0.42 v 4.17 z"
         inkscape:connector-curvature="0"
         style="fill:#000000;stroke-width:0" /></g>    <g
       id="g4480"
       transform="matrix(1.2,0,0,-1.2,-197.43085,1687.0408)"
       xml:space="preserve"
       stroke="black"
       stroke-linecap="butt"
       stroke-linejoin="miter"
       stroke-miterlimit="10.433"
       stroke-dasharray="none"
       stroke-dashoffset="0"
       stroke-opacity="1"
       fill="none"
       fill-rule="evenodd"
       fill-opacity="1"
       font-style="normal"
       font-variant="normal"
       font-weight="normal"
       font-stretch="normal"
       font-size-adjust="none"
       letter-spacing="normal"
       word-spacing="normal"
       text-anchor="start"
       ns0:text="$x_2$"
       ns0:preamble="/home/sriranga/Desktop/Prism_BasicElectronics/preamble.tex"
       style="font-style:normal;font-variant:normal;font-weight:normal;font-stretch:normal;letter-spacing:normal;word-spacing:normal;text-anchor:start;fill:none;stroke:#000000;stroke-width:1;stroke-linecap:butt;stroke-linejoin:miter;stroke-miterlimit:10.43299961;stroke-opacity:1;stroke-dasharray:none;stroke-dashoffset:0"><path
         d="M227.93,708.23 L227.92,708.21 L227.9,708.2 L227.89,708.18 L227.87,708.16 L227.86,708.15 L227.85,708.13 L227.84,708.12 L227.82,708.1 L227.81,708.09 L227.8,708.07 L227.79,708.06 L227.77,708.04 L227.76,708.03 L227.76,708.02 L227.75,708.01 L227.74,708 L227.74,707.99 L227.73,707.98 L227.72,707.97 L227.71,707.96 C227.48,707.66,227.36,707.56,227.25,707.56 C227.1,707.56,227.01,707.69,226.95,707.97 C226.93,708.05,226.91,708.11,226.9,708.14 C226.66,709.14,226.55,709.6,226.55,709.75 C226.98,710.51,227.34,710.95,227.52,710.95 C227.58,710.95,227.66,710.92,227.76,710.87 C227.88,710.8,227.95,710.78,228.03,710.78 C228.24,710.78,228.38,710.93,228.38,711.14 C228.38,711.35,228.21,711.51,227.97,711.51 C227.53,711.51,227.15,711.15,226.47,710.09 L226.36,710.63 C226.22,711.31,226.11,711.51,225.84,711.51 C225.62,711.51,225.28,711.42,224.68,711.22 L224.57,711.18 L224.61,711.03 C224.99,711.12,225.07,711.14,225.16,711.14 C225.41,711.14,225.47,711.05,225.61,710.45 L225.9,709.23 L225.08,708.07 C224.88,707.77,224.69,707.59,224.58,707.59 C224.52,707.59,224.42,707.62,224.32,707.68 C224.19,707.75,224.08,707.78,224,707.78 C223.81,707.78,223.66,707.63,223.66,707.43 C223.66,707.17,223.86,707.02,224.16,707.02 C224.47,707.02,224.59,707.1,225.08,707.71 C225.35,708.03,225.56,708.3,225.98,708.87 L226.28,707.68 C226.41,707.17,226.54,707.02,226.85,707.02 C227.23,707.02,227.49,707.25,228.07,708.15 Z "
         stroke-width="0"
         fill="black"
         id="path4482" /><path
         d="M231.66,706.58 L231.57,706.62 C231.31,706.22,231.22,706.16,230.91,706.16 H229.24 L230.41,707.38 C231.04,708.03,231.31,708.56,231.31,709.1 C231.31,709.8,230.74,710.33,230.02,710.33 C229.63,710.33,229.27,710.18,229.02,709.9 C228.79,709.66,228.69,709.44,228.57,708.95 L228.72,708.91 C228.99,709.59,229.24,709.82,229.73,709.82 C230.31,709.82,230.71,709.42,230.71,708.84 C230.71,708.29,230.39,707.65,229.8,707.03 L228.56,705.71 V705.63 H231.28 Z "
         stroke-width="0"
         fill="black"
         id="path4484" /></g>    <g
       style="font-style:normal;font-variant:normal;font-weight:normal;font-stretch:normal;letter-spacing:normal;word-spacing:normal;text-anchor:start;fill:none;stroke:#000000;stroke-width:1;stroke-linecap:butt;stroke-linejoin:miter;stroke-miterlimit:10.43299961;stroke-opacity:1;stroke-dasharray:none;stroke-dashoffset:0"
       ns0:preamble="/home/sriranga/Desktop/Prism_BasicElectronics/preamble.tex"
       ns0:text="$x_m$"
       word-spacing="normal"
       letter-spacing="normal"
       font-size-adjust="none"
       font-stretch="normal"
       font-weight="normal"
       font-variant="normal"
       font-style="normal"
       stroke-miterlimit="10.433"
       xml:space="preserve"
       transform="matrix(1.2,0,0,-1.2,-197.85053,1706.3461)"
       id="g4562"><path
         id="path4564"
         d="m 227.93,708.23 -0.01,-0.02 -0.02,-0.01 -0.01,-0.02 -0.02,-0.02 -0.01,-0.01 -0.01,-0.02 -0.01,-0.01 -0.02,-0.02 -0.01,-0.01 -0.01,-0.02 -0.01,-0.01 -0.02,-0.02 -0.01,-0.01 0,-0.01 -0.01,-0.01 -0.01,-0.01 0,-0.01 -0.01,-0.01 -0.01,-0.01 -0.01,-0.01 c -0.23,-0.3 -0.35,-0.4 -0.46,-0.4 -0.15,0 -0.24,0.13 -0.3,0.41 -0.02,0.08 -0.04,0.14 -0.05,0.17 -0.24,1 -0.35,1.46 -0.35,1.61 0.43,0.76 0.79,1.2 0.97,1.2 0.06,0 0.14,-0.03 0.24,-0.08 0.12,-0.07 0.19,-0.09 0.27,-0.09 0.21,0 0.35,0.15 0.35,0.36 0,0.21 -0.17,0.37 -0.41,0.37 -0.44,0 -0.82,-0.36 -1.5,-1.42 l -0.11,0.54 c -0.14,0.68 -0.25,0.88 -0.52,0.88 -0.22,0 -0.56,-0.09 -1.16,-0.29 l -0.11,-0.04 0.04,-0.15 c 0.38,0.09 0.46,0.11 0.55,0.11 0.25,0 0.31,-0.09 0.45,-0.69 l 0.29,-1.22 -0.82,-1.16 c -0.2,-0.3 -0.39,-0.48 -0.5,-0.48 -0.06,0 -0.16,0.03 -0.26,0.09 -0.13,0.07 -0.24,0.1 -0.32,0.1 -0.19,0 -0.34,-0.15 -0.34,-0.35 0,-0.26 0.2,-0.41 0.5,-0.41 0.31,0 0.43,0.08 0.92,0.69 0.27,0.32 0.48,0.59 0.9,1.16 l 0.3,-1.19 c 0.13,-0.51 0.26,-0.66 0.57,-0.66 0.38,0 0.64,0.23 1.22,1.13 z"
         inkscape:connector-curvature="0"
         style="fill:#000000;stroke-width:0" /><path
         id="path4566"
         d="m 233.15,706.45 -0.01,-0.02 -0.01,-0.02 -0.02,-0.01 -0.01,-0.01 0,-0.01 -0.01,-0.01 0,-0.01 -0.01,0 0,-0.01 -0.01,0 0,-0.01 -0.01,-0.01 0,0 -0.01,-0.01 0,0 -0.01,-0.01 0,0 0,-0.01 -0.01,0 0,-0.01 -0.01,0 0,-0.01 0,0 0,0 -0.01,-0.01 0,0 0,0 0,-0.01 c -0.2,-0.25 -0.35,-0.36 -0.45,-0.36 -0.05,0 -0.09,0.04 -0.09,0.11 0,0.03 0.03,0.14 0.07,0.31 l 0.47,1.75 c 0.01,0.02 0.02,0.15 0.02,0.19 0,0.25 -0.17,0.44 -0.41,0.44 -0.13,0 -0.27,-0.05 -0.44,-0.16 -0.34,-0.22 -0.62,-0.55 -1.1,-1.32 0.17,0.53 0.28,0.93 0.28,1.06 0,0.24 -0.16,0.42 -0.4,0.42 -0.43,0 -0.91,-0.46 -1.55,-1.47 l 0.4,1.45 -0.02,0.02 c -0.39,-0.09 -0.54,-0.11 -1.12,-0.22 v -0.11 h 0.18 c 0.18,0 0.27,-0.05 0.27,-0.15 0,-0.08 -0.16,-0.71 -0.41,-1.6 -0.16,-0.57 -0.18,-0.63 -0.27,-0.99 h 0.52 c 0.33,1.11 0.44,1.36 0.67,1.72 0.39,0.6 0.81,0.99 1.05,0.99 0.09,0 0.14,-0.07 0.14,-0.18 0,-0.06 -0.22,-0.9 -0.66,-2.53 h 0.52 c 0.28,1.09 0.42,1.43 0.77,1.93 0.34,0.47 0.69,0.78 0.9,0.78 0.07,0 0.13,-0.07 0.13,-0.15 0,-0.03 -0.01,-0.12 -0.05,-0.24 l -0.4,-1.6 c -0.06,-0.26 -0.09,-0.39 -0.09,-0.46 0,-0.21 0.1,-0.32 0.28,-0.32 0.33,0 0.63,0.23 1,0.74 l 0.04,0.05 z"
         inkscape:connector-curvature="0"
         style="fill:#000000;stroke-width:0" /></g>    <g
       id="g4668"
       transform="matrix(1.2,0,0,-1.2,20.593496,1676.9685)"
       xml:space="preserve"
       stroke="black"
       stroke-linecap="butt"
       stroke-linejoin="miter"
       stroke-miterlimit="10.433"
       stroke-dasharray="none"
       stroke-dashoffset="0"
       stroke-opacity="1"
       fill="none"
       fill-rule="evenodd"
       fill-opacity="1"
       font-style="normal"
       font-variant="normal"
       font-weight="normal"
       font-stretch="normal"
       font-size-adjust="none"
       letter-spacing="normal"
       word-spacing="normal"
       text-anchor="start"
       ns0:text="$y_1$"
       ns0:preamble="/home/sriranga/Desktop/Prism_BasicElectronics/preamble.tex"
       style="font-style:normal;font-variant:normal;font-weight:normal;font-stretch:normal;letter-spacing:normal;word-spacing:normal;text-anchor:start;fill:none;stroke:#000000;stroke-width:1;stroke-linecap:butt;stroke-linejoin:miter;stroke-miterlimit:10.43299961;stroke-opacity:1;stroke-dasharray:none;stroke-dashoffset:0"><path
         d="M223.58,711.1 L223.59,711.1 L223.6,711.1 L223.62,711.11 L223.63,711.11 L223.64,711.11 L223.65,711.11 L223.66,711.12 L223.67,711.12 L223.69,711.12 L223.71,711.12 L223.73,711.13 L223.74,711.13 L223.76,711.13 L223.78,711.13 L223.8,711.13 L223.81,711.14 L223.83,711.14 L223.85,711.14 L223.87,711.14 L223.88,711.14 L223.89,711.14 C224.46,711.14,224.61,710.89,225.06,709.18 C225.23,708.54,225.47,707.37,225.47,707.2 C225.47,707.05,225.41,706.89,225.26,706.71 C224.95,706.3,224.76,706.04,224.65,705.92 C224.44,705.7,224.32,705.62,224.19,705.62 C224.13,705.62,224.06,705.66,223.95,705.73 C223.8,705.85,223.69,705.9,223.58,705.9 C223.36,705.9,223.19,705.73,223.19,705.52 C223.19,705.27,223.41,705.08,223.7,705.08 C224.34,705.08,225.64,706.57,226.71,708.54 C227.39,709.76,227.67,710.47,227.67,710.96 C227.67,711.26,227.42,711.51,227.12,711.51 C226.89,711.51,226.74,711.36,226.74,711.14 C226.74,710.99,226.82,710.88,227.01,710.75 C227.2,710.64,227.27,710.55,227.27,710.41 C227.27,710.02,226.9,709.24,226.06,707.84 L225.86,708.99 C225.71,709.87,225.15,711.51,225,711.51 H224.96 C224.95,711.5,224.91,711.5,224.88,711.5 C224.79,711.49,224.43,711.43,223.9,711.33 C223.85,711.32,223.72,711.29,223.58,711.27 Z "
         stroke-width="0"
         fill="black"
         id="path4670" /><path
         d="M229.88,710.33 L228.63,709.7 V709.6 C228.71,709.64,228.79,709.66,228.82,709.68 C228.94,709.73,229.06,709.76,229.13,709.76 C229.28,709.76,229.34,709.65,229.34,709.43 V706.28 C229.34,706.05,229.28,705.89,229.17,705.83 C229.07,705.76,228.97,705.74,228.68,705.73 V705.63 H230.6 V705.73 C230.05,705.74,229.94,705.81,229.94,706.15 V710.32 Z "
         stroke-width="0"
         fill="black"
         id="path4672" /></g>    <g
       style="font-style:normal;font-variant:normal;font-weight:normal;font-stretch:normal;letter-spacing:normal;word-spacing:normal;text-anchor:start;fill:none;stroke:#000000;stroke-width:1;stroke-linecap:butt;stroke-linejoin:miter;stroke-miterlimit:10.43299961;stroke-opacity:1;stroke-dasharray:none;stroke-dashoffset:0"
       ns0:preamble="/home/sriranga/Desktop/Prism_BasicElectronics/preamble.tex"
       ns0:text="$y_2$"
       text-anchor="start"
       word-spacing="normal"
       letter-spacing="normal"
       font-size-adjust="none"
       font-stretch="normal"
       font-weight="normal"
       font-variant="normal"
       font-style="normal"
       fill-opacity="1"
       fill-rule="evenodd"
       fill="none"
       stroke-opacity="1"
       stroke-dashoffset="0"
       stroke-dasharray="none"
       stroke-miterlimit="10.433"
       stroke-linejoin="miter"
       stroke-linecap="butt"
       stroke="black"
       xml:space="preserve"
       transform="matrix(1.2,0,0,-1.2,20.593496,1687.0408)"
       id="g4765"><path
         id="path4767"
         fill="black"
         stroke-width="0"
         d="M223.58,711.1 L223.59,711.1 L223.6,711.1 L223.62,711.11 L223.63,711.11 L223.64,711.11 L223.65,711.11 L223.66,711.12 L223.67,711.12 L223.69,711.12 L223.71,711.12 L223.73,711.13 L223.74,711.13 L223.76,711.13 L223.78,711.13 L223.8,711.13 L223.81,711.14 L223.83,711.14 L223.85,711.14 L223.87,711.14 L223.88,711.14 L223.89,711.14 C224.46,711.14,224.61,710.89,225.06,709.18 C225.23,708.54,225.47,707.37,225.47,707.2 C225.47,707.05,225.41,706.89,225.26,706.71 C224.95,706.3,224.76,706.04,224.65,705.92 C224.44,705.7,224.32,705.62,224.19,705.62 C224.13,705.62,224.06,705.66,223.95,705.73 C223.8,705.85,223.69,705.9,223.58,705.9 C223.36,705.9,223.19,705.73,223.19,705.52 C223.19,705.27,223.41,705.08,223.7,705.08 C224.34,705.08,225.64,706.57,226.71,708.54 C227.39,709.76,227.67,710.47,227.67,710.96 C227.67,711.26,227.42,711.51,227.12,711.51 C226.89,711.51,226.74,711.36,226.74,711.14 C226.74,710.99,226.82,710.88,227.01,710.75 C227.2,710.64,227.27,710.55,227.27,710.41 C227.27,710.02,226.9,709.24,226.06,707.84 L225.86,708.99 C225.71,709.87,225.15,711.51,225,711.51 H224.96 C224.95,711.5,224.91,711.5,224.88,711.5 C224.79,711.49,224.43,711.43,223.9,711.33 C223.85,711.32,223.72,711.29,223.58,711.27 Z " /><path
         id="path4769"
         fill="black"
         stroke-width="0"
         d="M231.16,706.58 L231.07,706.62 C230.82,706.22,230.73,706.16,230.41,706.16 H228.75 L229.92,707.38 C230.54,708.03,230.81,708.56,230.81,709.1 C230.81,709.8,230.24,710.33,229.52,710.33 C229.14,710.33,228.77,710.18,228.52,709.9 C228.29,709.66,228.19,709.44,228.07,708.95 L228.22,708.91 C228.5,709.59,228.75,709.82,229.23,709.82 C229.81,709.82,230.21,709.42,230.21,708.84 C230.21,708.29,229.89,707.65,229.3,707.03 L228.07,705.71 V705.63 H230.78 Z " /></g>    <g
       id="g4862"
       transform="matrix(1.2,0,0,-1.2,20.173816,1707.815)"
       xml:space="preserve"
       stroke="black"
       stroke-linecap="butt"
       stroke-linejoin="miter"
       stroke-miterlimit="10.433"
       stroke-dasharray="none"
       stroke-dashoffset="0"
       stroke-opacity="1"
       fill="none"
       fill-rule="evenodd"
       fill-opacity="1"
       font-style="normal"
       font-variant="normal"
       font-weight="normal"
       font-stretch="normal"
       font-size-adjust="none"
       letter-spacing="normal"
       word-spacing="normal"
       text-anchor="start"
       ns0:text="$x_n$"
       ns0:preamble="/home/sriranga/Desktop/Prism_BasicElectronics/preamble.tex"
       style="font-style:normal;font-variant:normal;font-weight:normal;font-stretch:normal;letter-spacing:normal;word-spacing:normal;text-anchor:start;fill:none;stroke:#000000;stroke-width:1;stroke-linecap:butt;stroke-linejoin:miter;stroke-miterlimit:10.43299961;stroke-opacity:1;stroke-dasharray:none;stroke-dashoffset:0"><path
         d="M227.93,708.23 L227.92,708.21 L227.9,708.2 L227.89,708.18 L227.87,708.16 L227.86,708.15 L227.85,708.13 L227.84,708.12 L227.82,708.1 L227.81,708.09 L227.8,708.07 L227.79,708.06 L227.77,708.04 L227.76,708.03 L227.76,708.02 L227.75,708.01 L227.74,708 L227.74,707.99 L227.73,707.98 L227.72,707.97 L227.71,707.96 C227.48,707.66,227.36,707.56,227.25,707.56 C227.1,707.56,227.01,707.69,226.95,707.97 C226.93,708.05,226.91,708.11,226.9,708.14 C226.66,709.14,226.55,709.6,226.55,709.75 C226.98,710.51,227.34,710.95,227.52,710.95 C227.58,710.95,227.66,710.92,227.76,710.87 C227.88,710.8,227.95,710.78,228.03,710.78 C228.24,710.78,228.38,710.93,228.38,711.14 C228.38,711.35,228.21,711.51,227.97,711.51 C227.53,711.51,227.15,711.15,226.47,710.09 L226.36,710.63 C226.22,711.31,226.11,711.51,225.84,711.51 C225.62,711.51,225.28,711.42,224.68,711.22 L224.57,711.18 L224.61,711.03 C224.99,711.12,225.07,711.14,225.16,711.14 C225.41,711.14,225.47,711.05,225.61,710.45 L225.9,709.23 L225.08,708.07 C224.88,707.77,224.69,707.59,224.58,707.59 C224.52,707.59,224.42,707.62,224.32,707.68 C224.19,707.75,224.08,707.78,224,707.78 C223.81,707.78,223.66,707.63,223.66,707.43 C223.66,707.17,223.86,707.02,224.16,707.02 C224.47,707.02,224.59,707.1,225.08,707.71 C225.35,708.03,225.56,708.3,225.98,708.87 L226.28,707.68 C226.41,707.17,226.54,707.02,226.85,707.02 C227.23,707.02,227.49,707.25,228.07,708.15 Z "
         stroke-width="0"
         fill="black"
         id="path4864" /><path
         d="M231.56,706.45 L231.41,706.26 C231.21,706.01,231.08,705.9,230.99,705.9 C230.93,705.9,230.88,705.95,230.88,706.01 C230.88,706.05,230.88,706.05,230.97,706.45 L231.37,707.88 C231.4,708.02,231.43,708.18,231.43,708.27 C231.43,708.52,231.24,708.7,230.97,708.7 C230.53,708.7,230.09,708.28,229.37,707.17 L229.84,708.68 L229.82,708.7 C229.44,708.62,229.29,708.59,228.69,708.48 V708.37 C229.04,708.36,229.13,708.32,229.13,708.18 C229.13,708.14,229.13,708.1,229.12,708.07 L228.45,705.63 H228.97 C229.3,706.73,229.36,706.88,229.67,707.35 C230.09,707.99,230.44,708.34,230.7,708.34 C230.8,708.34,230.87,708.27,230.87,708.14 C230.87,708.06,230.83,707.83,230.77,707.61 L230.46,706.47 C230.37,706.11,230.35,706.01,230.35,705.94 C230.35,705.68,230.45,705.57,230.68,705.57 C230.99,705.57,231.18,705.71,231.65,706.35 Z "
         stroke-width="0"
         fill="black"
         id="path4866" /></g>    <rect
       style="fill:none;stroke:#000000;stroke-width:1.5;stroke-linecap:round;stroke-linejoin:round;stroke-miterlimit:4;stroke-opacity:1;stroke-dasharray:none;stroke-dashoffset:0"
       id="rect4914"
       width="60"
       height="30.000008"
       x="155"
       y="902.36084" />
    <text
       sodipodi:linespacing="100%"
       id="text4916"
       y="915.39886"
       x="184.85347"
       style="font-size:12px;font-style:normal;font-variant:normal;font-weight:normal;font-stretch:normal;text-align:center;line-height:100%;letter-spacing:0px;word-spacing:0px;text-anchor:middle;fill:#000000;fill-opacity:1;stroke:none;font-family:LMRoman12;-inkscape-font-specification:Sans"
       xml:space="preserve"><tspan
         y="915.39886"
         x="184.85347"
         id="tspan4918"
         sodipodi:role="line">Memory</tspan><tspan
         id="tspan4920"
         y="927.39886"
         x="184.85347"
         sodipodi:role="line">element</tspan></text>
    <path
       style="fill:none;stroke:#000000;stroke-width:1;stroke-linecap:round;stroke-linejoin:round;stroke-miterlimit:4;stroke-opacity:1;stroke-dasharray:none;stroke-dashoffset:0;marker-end:url(#Arrow1Mend)"
       d="m 240,867.36086 35,0 0,60 -58.74096,0"
       id="path4922"
       inkscape:connector-curvature="0"
       sodipodi:nodetypes="cccc" />
    <g
       id="g4924"
       transform="matrix(1.2,0,0,-1.2,-30.972607,1764.8144)"
       xml:space="preserve"
       stroke-miterlimit="10.433"
       font-style="normal"
       font-variant="normal"
       font-weight="normal"
       font-stretch="normal"
       font-size-adjust="none"
       letter-spacing="normal"
       word-spacing="normal"
       ns0:text="$\\vdots$"
       ns0:preamble="/home/sriranga/Desktop/Prism_BasicElectronics/preamble.tex"
       style="font-style:normal;font-variant:normal;font-weight:normal;font-stretch:normal;letter-spacing:normal;word-spacing:normal;text-anchor:start;fill:none;stroke:#000000;stroke-width:1;stroke-linecap:butt;stroke-linejoin:miter;stroke-miterlimit:10.43299961;stroke-opacity:1;stroke-dasharray:none;stroke-dashoffset:0"><path
         style="fill:#000000;stroke-width:0"
         inkscape:connector-curvature="0"
         d="m 225.23,710.53 0,0.03 0,0.03 0,0.03 -0.01,0.02 -0.01,0.03 0,0.03 -0.01,0.02 -0.01,0.03 -0.01,0.02 -0.02,0.03 -0.01,0.02 -0.01,0.03 -0.02,0.02 -0.02,0.02 -0.02,0.02 -0.01,0.02 -0.02,0.02 -0.02,0.02 -0.02,0.01 -0.03,0.02 -0.02,0.01 -0.02,0.02 -0.03,0.01 -0.02,0.01 -0.03,0.01 -0.02,0.01 -0.03,0.01 -0.02,0.01 -0.03,0 -0.03,0 -0.03,0.01 -0.02,0 c -0.3,0 -0.55,-0.25 -0.55,-0.57 0,-0.38 0.34,-0.54 0.55,-0.54 0.2,0 0.55,0.17 0.55,0.54 z"
         id="path4926" /><path
         style="fill:#000000;stroke-width:0"
         inkscape:connector-curvature="0"
         d="m 225.23,706.55 0,0.02 0,0.03 0,0.03 -0.01,0.03 -0.01,0.03 0,0.02 -0.01,0.03 -0.01,0.02 -0.01,0.03 -0.02,0.02 -0.01,0.03 -0.01,0.02 -0.02,0.02 -0.02,0.02 -0.02,0.02 -0.01,0.02 -0.02,0.02 -0.02,0.02 -0.02,0.02 -0.03,0.01 -0.02,0.02 -0.02,0.01 -0.03,0.02 -0.02,0.01 -0.03,0.01 -0.02,0.01 -0.03,0 -0.02,0.01 -0.03,0.01 -0.03,0 -0.03,0 -0.02,0 c -0.3,0 -0.55,-0.25 -0.55,-0.56 0,-0.38 0.34,-0.54 0.55,-0.54 0.2,0 0.55,0.17 0.55,0.54 z"
         id="path4928" /><path
         style="fill:#000000;stroke-width:0"
         inkscape:connector-curvature="0"
         d="m 225.23,702.56 0,0.03 0,0.03 0,0.03 -0.01,0.02 -0.01,0.03 0,0.03 -0.01,0.02 -0.01,0.03 -0.01,0.02 -0.02,0.03 -0.01,0.02 -0.01,0.03 -0.02,0.02 -0.02,0.02 -0.02,0.02 -0.01,0.02 -0.02,0.02 -0.02,0.02 -0.02,0.01 -0.03,0.02 -0.02,0.01 -0.02,0.02 -0.03,0.01 -0.02,0.01 -0.03,0.01 -0.02,0.01 -0.03,0.01 -0.02,0.01 -0.03,0 -0.03,0 -0.03,0.01 -0.02,0 c -0.3,0 -0.55,-0.25 -0.55,-0.57 0,-0.38 0.34,-0.53 0.55,-0.53 0.2,0 0.55,0.16 0.55,0.53 z"
         id="path4930" /></g>    <path
       style="fill:none;stroke:#000000;stroke-width:1;stroke-linecap:round;stroke-linejoin:round;stroke-miterlimit:4;stroke-opacity:1;stroke-dasharray:none;stroke-dashoffset:0;marker-start:url(#Arrow1Mstart);marker-end:none"
       d="m 128.66458,877.36086 -18.66458,0 0,30 44.89508,0"
       id="path4932"
       inkscape:connector-curvature="0"
       sodipodi:nodetypes="cccc" />
    <path
       sodipodi:nodetypes="cccc"
       inkscape:connector-curvature="0"
       id="path4934"
       d="m 128.66458,867.36086 -33.66458,0 0,60 59.89508,0"
       style="fill:none;stroke:#000000;stroke-width:1;stroke-linecap:round;stroke-linejoin:round;stroke-miterlimit:4;stroke-opacity:1;stroke-dasharray:none;stroke-dashoffset:0;marker-start:url(#Arrow1Mstart);marker-end:none" />
    <g
       style="font-style:normal;font-variant:normal;font-weight:normal;font-stretch:normal;letter-spacing:normal;word-spacing:normal;text-anchor:start;fill:none;stroke:#000000;stroke-width:1;stroke-linecap:butt;stroke-linejoin:miter;stroke-miterlimit:10.43299961;stroke-opacity:1;stroke-dasharray:none;stroke-dashoffset:0"
       ns0:preamble="/home/sriranga/Desktop/Prism_BasicElectronics/preamble.tex"
       ns0:text="$\\vdots$"
       word-spacing="normal"
       letter-spacing="normal"
       font-size-adjust="none"
       font-stretch="normal"
       font-weight="normal"
       font-variant="normal"
       font-style="normal"
       stroke-miterlimit="10.433"
       xml:space="preserve"
       transform="matrix(1.2,0,0,-1.2,-138.41098,1764.8144)"
       id="g5304"><path
         id="path5306"
         d="m 225.23,710.53 0,0.03 0,0.03 0,0.03 -0.01,0.02 -0.01,0.03 0,0.03 -0.01,0.02 -0.01,0.03 -0.01,0.02 -0.02,0.03 -0.01,0.02 -0.01,0.03 -0.02,0.02 -0.02,0.02 -0.02,0.02 -0.01,0.02 -0.02,0.02 -0.02,0.02 -0.02,0.01 -0.03,0.02 -0.02,0.01 -0.02,0.02 -0.03,0.01 -0.02,0.01 -0.03,0.01 -0.02,0.01 -0.03,0.01 -0.02,0.01 -0.03,0 -0.03,0 -0.03,0.01 -0.02,0 c -0.3,0 -0.55,-0.25 -0.55,-0.57 0,-0.38 0.34,-0.54 0.55,-0.54 0.2,0 0.55,0.17 0.55,0.54 z"
         inkscape:connector-curvature="0"
         style="fill:#000000;stroke-width:0" /><path
         id="path5308"
         d="m 225.23,706.55 0,0.02 0,0.03 0,0.03 -0.01,0.03 -0.01,0.03 0,0.02 -0.01,0.03 -0.01,0.02 -0.01,0.03 -0.02,0.02 -0.01,0.03 -0.01,0.02 -0.02,0.02 -0.02,0.02 -0.02,0.02 -0.01,0.02 -0.02,0.02 -0.02,0.02 -0.02,0.02 -0.03,0.01 -0.02,0.02 -0.02,0.01 -0.03,0.02 -0.02,0.01 -0.03,0.01 -0.02,0.01 -0.03,0 -0.02,0.01 -0.03,0.01 -0.03,0 -0.03,0 -0.02,0 c -0.3,0 -0.55,-0.25 -0.55,-0.56 0,-0.38 0.34,-0.54 0.55,-0.54 0.2,0 0.55,0.17 0.55,0.54 z"
         inkscape:connector-curvature="0"
         style="fill:#000000;stroke-width:0" /><path
         id="path5310"
         d="m 225.23,702.56 0,0.03 0,0.03 0,0.03 -0.01,0.02 -0.01,0.03 0,0.03 -0.01,0.02 -0.01,0.03 -0.01,0.02 -0.02,0.03 -0.01,0.02 -0.01,0.03 -0.02,0.02 -0.02,0.02 -0.02,0.02 -0.01,0.02 -0.02,0.02 -0.02,0.02 -0.02,0.01 -0.03,0.02 -0.02,0.01 -0.02,0.02 -0.03,0.01 -0.02,0.01 -0.03,0.01 -0.02,0.01 -0.03,0.01 -0.02,0.01 -0.03,0 -0.03,0 -0.03,0.01 -0.02,0 c -0.3,0 -0.55,-0.25 -0.55,-0.57 0,-0.38 0.34,-0.53 0.55,-0.53 0.2,0 0.55,0.16 0.55,0.53 z"
         inkscape:connector-curvature="0"
         style="fill:#000000;stroke-width:0" /></g>    <text
       transform="scale(0.65217785,1.5333241)"
       sodipodi:linespacing="100%"
       id="text5312"
       y="555.18671"
       x="463.79794"
       style="font-size:23.83797836px;font-style:normal;font-variant:normal;font-weight:normal;font-stretch:normal;text-align:start;line-height:100%;letter-spacing:0px;word-spacing:0px;text-anchor:start;fill:#000000;fill-opacity:1;stroke:none;font-family:LMRoman12;-inkscape-font-specification:Sans"
       xml:space="preserve"><tspan
         y="555.18671"
         x="463.79794"
         id="tspan5314"
         sodipodi:role="line">}</tspan></text>
    <g
       id="g5539"
       transform="matrix(1.2,0,0,-1.2,48.192117,1694.4773)"
       xml:space="preserve"
       stroke="black"
       stroke-linecap="butt"
       stroke-linejoin="miter"
       stroke-miterlimit="10.433"
       stroke-dasharray="none"
       stroke-dashoffset="0"
       stroke-opacity="1"
       fill="none"
       fill-rule="evenodd"
       fill-opacity="1"
       font-style="normal"
       font-variant="normal"
       font-weight="normal"
       font-stretch="normal"
       font-size-adjust="none"
       letter-spacing="normal"
       word-spacing="normal"
       text-anchor="start"
       ns0:text="$n$"
       ns0:preamble="/home/sriranga/Desktop/Prism_BasicElectronics/preamble.tex"
       style="font-style:normal;font-variant:normal;font-weight:normal;font-stretch:normal;letter-spacing:normal;word-spacing:normal;text-anchor:start;fill:none;stroke:#000000;stroke-width:1;stroke-linecap:butt;stroke-linejoin:miter;stroke-miterlimit:10.43299961;stroke-opacity:1;stroke-dasharray:none;stroke-dashoffset:0"><path
         d="M228.01,708.29 L227.8,708.03 C227.51,707.66,227.33,707.5,227.19,707.5 C227.11,707.5,227.03,707.58,227.03,707.66 C227.03,707.73,227.03,707.73,227.17,708.29 L227.74,710.33 C227.79,710.54,227.83,710.76,227.83,710.9 C227.83,711.26,227.56,711.51,227.17,711.51 C226.54,711.51,225.91,710.91,224.88,709.32 L225.55,711.49 L225.52,711.51 C224.98,711.4,224.77,711.36,223.91,711.2 V711.04 C224.42,711.03,224.55,710.97,224.55,710.77 C224.55,710.71,224.54,710.65,224.53,710.6 L223.57,707.12 H224.32 C224.79,708.69,224.88,708.91,225.31,709.59 C225.91,710.5,226.42,711,226.79,711 C226.93,711,227.02,710.89,227.02,710.71 C227.02,710.59,226.96,710.26,226.88,709.96 L226.45,708.32 C226.32,707.81,226.29,707.67,226.29,707.57 C226.29,707.19,226.43,707.04,226.76,707.04 C227.2,707.04,227.46,707.24,228.15,708.16 Z "
         stroke-width="0"
         fill="black"
         id="path5541" /></g>    <text
       xml:space="preserve"
       style="font-size:23.83797836px;font-style:normal;font-variant:normal;font-weight:normal;font-stretch:normal;text-align:start;line-height:100%;letter-spacing:0px;word-spacing:0px;text-anchor:start;fill:#000000;fill-opacity:1;stroke:none;font-family:LMRoman12;-inkscape-font-specification:Sans"
       x="-101.5621"
       y="555.18677"
       id="text5607"
       sodipodi:linespacing="100%"
       transform="scale(-0.65217785,1.5333241)"><tspan
         sodipodi:role="line"
         id="tspan5609"
         x="-101.5621"
         y="555.18677">}</tspan></text>
    <g
       style="font-style:normal;font-variant:normal;font-weight:normal;font-stretch:normal;letter-spacing:normal;word-spacing:normal;text-anchor:start;fill:none;stroke:#000000;stroke-width:1;stroke-linecap:butt;stroke-linejoin:miter;stroke-miterlimit:10.43299961;stroke-opacity:1;stroke-dasharray:none;stroke-dashoffset:0"
       ns0:preamble="/home/sriranga/Desktop/Prism_BasicElectronics/preamble.tex"
       ns0:text="$m$"
       word-spacing="normal"
       letter-spacing="normal"
       font-size-adjust="none"
       font-stretch="normal"
       font-weight="normal"
       font-variant="normal"
       font-style="normal"
       stroke-miterlimit="10.433"
       xml:space="preserve"
       transform="matrix(1.2,0,0,-1.2,-254.59141,1694.4773)"
       id="g5683"><path
         id="path5685"
         d="m 230.29,708.29 -0.02,-0.03 -0.02,-0.02 -0.02,-0.02 -0.01,-0.02 -0.01,-0.01 -0.01,-0.01 -0.01,-0.01 0,-0.01 -0.01,-0.01 -0.01,0 -0.01,-0.01 0,-0.01 -0.01,-0.01 -0.01,-0.01 0,-0.01 -0.01,0 0,-0.01 -0.01,-0.01 -0.01,0 0,-0.01 -0.01,-0.01 0,0 0,-0.01 -0.01,0 0,-0.01 -0.01,0 0,-0.01 0,0 c -0.28,-0.36 -0.49,-0.53 -0.64,-0.53 -0.08,0 -0.13,0.06 -0.13,0.16 0,0.05 0.04,0.21 0.1,0.45 l 0.68,2.49 c 0.01,0.04 0.03,0.22 0.03,0.28 0,0.36 -0.25,0.63 -0.59,0.63 -0.19,0 -0.39,-0.07 -0.63,-0.22 -0.48,-0.32 -0.89,-0.8 -1.58,-1.89 0.25,0.76 0.4,1.32 0.4,1.51 0,0.35 -0.23,0.6 -0.57,0.6 -0.6,0 -1.3,-0.66 -2.22,-2.1 l 0.58,2.08 -0.03,0.02 c -0.56,-0.12 -0.77,-0.16 -1.59,-0.31 v -0.16 h 0.25 c 0.26,0 0.39,-0.07 0.39,-0.22 0,-0.11 -0.23,-1.01 -0.59,-2.27 -0.23,-0.82 -0.26,-0.92 -0.39,-1.43 h 0.75 c 0.47,1.58 0.62,1.95 0.96,2.47 0.56,0.84 1.16,1.4 1.5,1.4 0.12,0 0.19,-0.09 0.19,-0.25 0,-0.09 -0.31,-1.29 -0.94,-3.62 h 0.75 c 0.39,1.55 0.59,2.05 1.1,2.76 0.49,0.67 0.98,1.11 1.27,1.11 0.11,0 0.2,-0.1 0.2,-0.21 0,-0.05 -0.02,-0.17 -0.07,-0.35 l -0.58,-2.28 c -0.08,-0.37 -0.12,-0.56 -0.12,-0.66 0,-0.3 0.14,-0.45 0.39,-0.45 0.47,0 0.91,0.32 1.44,1.06 l 0.05,0.07 z"
         inkscape:connector-curvature="0"
         style="fill:#000000;stroke-width:0" /></g>    <text
       xml:space="preserve"
       style="font-size:12px;font-style:normal;font-variant:normal;font-weight:normal;font-stretch:normal;text-align:start;line-height:100%;letter-spacing:0px;word-spacing:0px;text-anchor:start;fill:#000000;fill-opacity:1;stroke:none;font-family:LMRoman12;-inkscape-font-specification:Sans"
       x="325.59595"
       y="845.64685"
       id="text5755"
       sodipodi:linespacing="100%"><tspan
         sodipodi:role="line"
         id="tspan5757"
         x="325.59595"
         y="845.64685">outputs</tspan></text>
    <text
       sodipodi:linespacing="100%"
       id="text5759"
       y="845.64685"
       x="25.31666"
       style="font-size:12px;font-style:normal;font-variant:normal;font-weight:normal;font-stretch:normal;text-align:start;line-height:100%;letter-spacing:0px;word-spacing:0px;text-anchor:start;fill:#000000;fill-opacity:1;stroke:none;font-family:LMRoman12;-inkscape-font-specification:Sans"
       xml:space="preserve"><tspan
         y="845.64685"
         x="25.31666"
         id="tspan5761"
         sodipodi:role="line">inputs</tspan></text>
  </g>
</svg>
