<?xml version="1.0" encoding="UTF-8" standalone="no"?>
<!-- Created with Inkscape (http://www.inkscape.org/) -->

<svg
   xmlns:ns0="http://www.iki.fi/pav/software/textext/"
   xmlns:dc="http://purl.org/dc/elements/1.1/"
   xmlns:cc="http://creativecommons.org/ns#"
   xmlns:rdf="http://www.w3.org/1999/02/22-rdf-syntax-ns#"
   xmlns:svg="http://www.w3.org/2000/svg"
   xmlns="http://www.w3.org/2000/svg"
   xmlns:sodipodi="http://sodipodi.sourceforge.net/DTD/sodipodi-0.dtd"
   xmlns:inkscape="http://www.inkscape.org/namespaces/inkscape"
   width="496.06299"
   height="354.33069"
   id="svg2"
   version="1.1"
   inkscape:version="0.48.4 r9939"
   sodipodi:docname="fig6.2.svg">
  <sodipodi:namedview
     id="base"
     pagecolor="#ffffff"
     bordercolor="#666666"
     borderopacity="1.0"
     inkscape:pageopacity="0.0"
     inkscape:pageshadow="2"
     inkscape:zoom="1.6848668"
     inkscape:cx="248.03149"
     inkscape:cy="177.16534"
     inkscape:document-units="cm"
     inkscape:current-layer="layer1"
     showgrid="false"
     units="cm"
     inkscape:object-nodes="true"
     inkscape:window-width="1366"
     inkscape:window-height="744"
     inkscape:window-x="0"
     inkscape:window-y="24"
     inkscape:window-maximized="1">
    <inkscape:grid
       type="xygrid"
       id="grid2985"
       empspacing="5"
       visible="true"
       enabled="true"
       snapvisiblegridlinesonly="true" />
  </sodipodi:namedview>
  <defs
     id="defs4">
    <marker
       inkscape:stockid="Arrow1Mstart"
       orient="auto"
       refY="0"
       refX="0"
       id="Arrow1Mstart"
       style="overflow:visible">
      <path
         inkscape:connector-curvature="0"
         id="path3775"
         d="M 0,0 5,-5 -12.5,0 5,5 0,0 z"
         style="fill-rule:evenodd;stroke:#000000;stroke-width:1pt"
         transform="matrix(0.4,0,0,0.4,4,0)" />
    </marker>
    <marker
       inkscape:stockid="Arrow1Mend"
       orient="auto"
       refY="0"
       refX="0"
       id="Arrow1Mend"
       style="overflow:visible">
      <path
         inkscape:connector-curvature="0"
         id="path3778"
         d="M 0,0 5,-5 -12.5,0 5,5 0,0 z"
         style="fill-rule:evenodd;stroke:#000000;stroke-width:1pt"
         transform="matrix(-0.4,0,0,-0.4,-4,0)" />
    </marker>
  </defs>
  <metadata
     id="metadata7">
    <rdf:RDF>
      <cc:Work
         rdf:about="">
        <dc:format>image/svg+xml</dc:format>
        <dc:type
           rdf:resource="http://purl.org/dc/dcmitype/StillImage" />
        <dc:title></dc:title>
      </cc:Work>
    </rdf:RDF>
  </metadata>
  <g
     inkscape:label="Layer 1"
     inkscape:groupmode="layer"
     id="layer1"
     transform="translate(0,-698.03016)">
    <path
       transform="translate(-2,698.03016)"
       d="m 98,79.330688 c 0,1.656855 -1.343146,3 -3,3 -1.656854,0 -3,-1.343145 -3,-3 0,-1.656854 1.343146,-3 3,-3 1.656854,0 3,1.343146 3,3 z"
       sodipodi:ry="3"
       sodipodi:rx="3"
       sodipodi:cy="79.330688"
       sodipodi:cx="95"
       id="path5806"
       style="fill:none;stroke:#000000;stroke-width:0.80000001;stroke-linecap:round;stroke-linejoin:round;stroke-miterlimit:4;stroke-opacity:1;stroke-dasharray:none;stroke-dashoffset:0"
       sodipodi:type="arc" />
    <path
       transform="translate(0,698.03016)"
       inkscape:connector-curvature="0"
       id="path5808"
       d="m 96,79.330688 29,0"
       style="fill:none;stroke:#000000;stroke-width:1.00000002;stroke-linecap:butt;stroke-linejoin:round;stroke-miterlimit:4;stroke-opacity:1;stroke-dasharray:none;stroke-dashoffset:0" />
    <path
       sodipodi:type="arc"
       style="fill:none;stroke:#000000;stroke-width:0.80000001;stroke-linecap:round;stroke-linejoin:round;stroke-miterlimit:4;stroke-opacity:1;stroke-dasharray:none;stroke-dashoffset:0"
       id="path5810"
       sodipodi:cx="95"
       sodipodi:cy="79.330688"
       sodipodi:rx="3"
       sodipodi:ry="3"
       d="m 98,79.330688 c 0,1.656855 -1.343146,3 -3,3 -1.656854,0 -3,-1.343145 -3,-3 0,-1.656854 1.343146,-3 3,-3 1.656854,0 3,1.343146 3,3 z"
       transform="translate(-2,758.03016)" />
    <path
       style="fill:none;stroke:#000000;stroke-width:1.00000002;stroke-linecap:butt;stroke-linejoin:round;stroke-miterlimit:4;stroke-opacity:1;stroke-dasharray:none;stroke-dashoffset:0"
       d="m 96,837.36085 29,0"
       id="path5812"
       inkscape:connector-curvature="0" />
    <path
       sodipodi:nodetypes="ccccc"
       transform="translate(0,698.03016)"
       inkscape:connector-curvature="0"
       id="path5814"
       d="m 62.163896,129.33069 -22.163896,0 0,-10 70,-25.000002 0,-15"
       style="fill:none;stroke:#000000;stroke-width:1;stroke-linecap:round;stroke-linejoin:round;stroke-miterlimit:4;stroke-opacity:1;stroke-dasharray:none;stroke-dashoffset:0" />
    <path
       sodipodi:nodetypes="ccccc"
       style="fill:none;stroke:#000000;stroke-width:1;stroke-linecap:round;stroke-linejoin:round;stroke-miterlimit:4;stroke-opacity:1;stroke-dasharray:none;stroke-dashoffset:0"
       d="m 62.163896,787.36085 -22.163896,0 0,10 70,25 0,15"
       id="path5816"
       inkscape:connector-curvature="0" />
    <text
       transform="translate(0,698.03016)"
       sodipodi:linespacing="100%"
       id="text5818"
       y="56.040417"
       x="61.700558"
       style="font-size:12px;font-style:normal;font-variant:normal;font-weight:normal;font-stretch:normal;text-align:start;line-height:100%;letter-spacing:0px;word-spacing:0px;text-anchor:start;fill:#000000;fill-opacity:1;stroke:none;font-family:LMRoman12;-inkscape-font-specification:Sans"
       xml:space="preserve"><tspan
         y="56.040417"
         x="61.700558"
         id="tspan5820"
         sodipodi:role="line" /></text>
    <path
       style="fill:none;stroke:#000000;stroke-width:1;stroke-linecap:butt;stroke-linejoin:round;stroke-miterlimit:4;stroke-opacity:1;stroke-dasharray:none;stroke-dashoffset:0"
       d="m 31,767.36085 31.163896,0"
       id="path5822"
       inkscape:connector-curvature="0"
       sodipodi:nodetypes="cc" />
    <path
       inkscape:connector-curvature="0"
       id="path5824"
       d="m 31,847.36085 31.163896,0"
       style="fill:none;stroke:#000000;stroke-width:1;stroke-linecap:butt;stroke-linejoin:round;stroke-miterlimit:4;stroke-opacity:1;stroke-dasharray:none;stroke-dashoffset:0"
       sodipodi:nodetypes="cc" />
    <g
       id="content"
       transform="matrix(1.2,0,0,-1.2,-248.29874,1620.7182)"
       xml:space="preserve"
       stroke-miterlimit="10.433"
       font-style="normal"
       font-variant="normal"
       font-weight="normal"
       font-stretch="normal"
       font-size-adjust="none"
       letter-spacing="normal"
       word-spacing="normal"
       ns0:text="$\\overline{S}$"
       ns0:preamble="/home/sriranga/Desktop/Prism_BasicElectronics/preamble.tex"
       style="font-style:normal;font-variant:normal;font-weight:normal;font-stretch:normal;letter-spacing:normal;word-spacing:normal;text-anchor:start;fill:none;stroke:#000000;stroke-width:1;stroke-linecap:butt;stroke-linejoin:miter;stroke-miterlimit:10.43299961;stroke-opacity:1;stroke-dasharray:none;stroke-dashoffset:0"><line
         style="stroke-width:0.55800003"
         x1="223.42999"
         y1="715.59003"
         x2="229.99001"
         y2="715.59003"
         id="line6015" /><path
         style="fill:#000000;stroke-width:0"
         inkscape:connector-curvature="0"
         d="m 228.09,711.77 0.4,1.98 h -0.23 c -0.14,-0.21 -0.23,-0.26 -0.45,-0.26 -0.12,0 -0.23,0.03 -0.46,0.11 -0.22,0.09 -0.53,0.14 -0.84,0.14 -1.04,0 -1.77,-0.69 -1.77,-1.66 0,-0.53 0.14,-0.82 0.74,-1.46 0.09,-0.09 0.22,-0.23 0.39,-0.42 0.18,-0.18 0.32,-0.33 0.39,-0.41 0.47,-0.49 0.59,-0.75 0.59,-1.18 0,-0.74 -0.55,-1.32 -1.28,-1.32 -0.83,0 -1.45,0.71 -1.45,1.65 0,0.08 0.01,0.16 0.02,0.23 l -0.2,0.02 -0.34,-2.21 h 0.18 c 0.07,0.22 0.18,0.32 0.38,0.32 0.11,0 0.26,-0.04 0.52,-0.13 0.45,-0.16 0.72,-0.22 1.03,-0.22 1.14,0 2.01,0.86 2.01,1.98 0,0.65 -0.23,1.04 -1.12,1.94 -0.9,0.9 -0.99,1.04 -0.99,1.53 0,0.63 0.42,1.01 1.1,1.01 0.36,0 0.67,-0.13 0.88,-0.36 0.22,-0.25 0.3,-0.59 0.32,-1.25 z"
         id="path6017" /></g>    <g
       style="font-style:normal;font-variant:normal;font-weight:normal;font-stretch:normal;letter-spacing:normal;word-spacing:normal;text-anchor:start;fill:none;stroke:#000000;stroke-width:1;stroke-linecap:butt;stroke-linejoin:miter;stroke-miterlimit:10.43299961;stroke-opacity:1;stroke-dasharray:none;stroke-dashoffset:0"
       ns0:preamble="/home/sriranga/Desktop/Prism_BasicElectronics/preamble.tex"
       ns0:text="$\\overline{R}$"
       word-spacing="normal"
       letter-spacing="normal"
       font-size-adjust="none"
       font-stretch="normal"
       font-weight="normal"
       font-variant="normal"
       font-style="normal"
       stroke-miterlimit="10.433"
       xml:space="preserve"
       transform="matrix(1.2,0,0,-1.2,-249.50229,1699.8519)"
       id="g6070"><line
         id="line6072"
         y2="715.59003"
         x2="229.52"
         y1="715.59003"
         x1="223.42999"
         style="stroke-width:0.55800003" /><path
         id="path6074"
         d="m 229.07,707.28 -0.04,0.01 -0.04,0 -0.03,0.01 -0.04,0 -0.04,0.01 -0.03,0.01 -0.03,0.01 -0.03,0.01 -0.03,0.01 -0.03,0.01 -0.03,0.01 -0.03,0.02 -0.03,0.01 -0.02,0.02 -0.03,0.02 -0.02,0.02 -0.03,0.02 -0.02,0.02 -0.02,0.03 -0.02,0.02 -0.02,0.03 -0.03,0.03 -0.02,0.03 -0.02,0.03 -0.01,0.04 -0.02,0.03 -0.02,0.04 -0.02,0.04 -0.02,0.04 -0.02,0.05 -0.02,0.04 -0.01,0.05 -0.93,2.43 c 0.77,0.17 1.1,0.31 1.45,0.63 0.33,0.29 0.51,0.67 0.51,1.12 0,0.92 -0.73,1.43 -2.07,1.43 l -0.21,-0.3 c 0.83,0 1.24,-0.37 1.24,-1.11 0,-0.98 -0.64,-1.49 -1.88,-1.49 -0.16,0 -0.27,0.01 -0.51,0.05 l 0.65,2.28 c 0.06,0.2 0.18,0.27 0.5,0.27 l 0.21,0.3 h -2.47 v -0.16 c 0.42,-0.06 0.47,-0.07 0.57,-0.14 0.08,-0.05 0.14,-0.16 0.14,-0.27 0,-0.12 -0.05,-0.36 -0.12,-0.63 l -1.22,-4.39 c -0.18,-0.59 -0.25,-0.65 -0.81,-0.74 v -0.16 h 2.43 v 0.16 c -0.61,0.08 -0.68,0.13 -0.68,0.46 0,0.1 0.03,0.23 0.12,0.58 l 0.56,2.07 0.65,-0.05 1.22,-3.22 h 1.47 z"
         inkscape:connector-curvature="0"
         style="fill:#000000;stroke-width:0" /></g>    <g
       id="g6136"
       transform="matrix(1.2,0,0,-1.2,-138.91378,1690.4951)"
       xml:space="preserve"
       stroke="black"
       stroke-linecap="butt"
       stroke-linejoin="miter"
       stroke-miterlimit="10.433"
       stroke-dasharray="none"
       stroke-dashoffset="0"
       stroke-opacity="1"
       fill="none"
       fill-rule="evenodd"
       fill-opacity="1"
       font-style="normal"
       font-variant="normal"
       font-weight="normal"
       font-stretch="normal"
       font-size-adjust="none"
       letter-spacing="normal"
       word-spacing="normal"
       text-anchor="start"
       ns0:text="$\\overline{Q}$"
       ns0:preamble="/home/sriranga/Desktop/Prism_BasicElectronics/preamble.tex"
       style="font-style:normal;font-variant:normal;font-weight:normal;font-stretch:normal;letter-spacing:normal;word-spacing:normal;text-anchor:start;fill:none;stroke:#000000;stroke-width:1;stroke-linecap:butt;stroke-linejoin:miter;stroke-miterlimit:10.43299961;stroke-opacity:1;stroke-dasharray:none;stroke-dashoffset:0"><line
         x1="223.43"
         y1="715.59"
         x2="230.88"
         y2="715.59"
         stroke-width="0.558"
         id="line6138" /><path
         d="M226.46,706.97 L226.53,706.97 L226.6,706.98 L226.66,706.98 L226.73,706.99 L226.79,706.99 L226.85,707 L226.91,707.01 L226.97,707.02 L227.02,707.02 L227.08,707.03 L227.13,707.04 L227.18,707.05 L227.29,707.07 L227.39,707.1 L227.48,707.13 L227.58,707.16 L227.67,707.19 L227.76,707.23 L227.86,707.27 L227.96,707.32 L228.01,707.34 L228.06,707.37 L228.11,707.39 L228.16,707.42 C229.63,708.25,230.63,709.86,230.63,711.43 C230.63,712.77,229.68,713.74,228.36,713.74 L228.31,713.41 C229.1,713.41,229.59,712.84,229.59,711.89 C229.59,710.84,229.12,709.38,228.49,708.47 C227.94,707.68,227.32,707.29,226.6,707.29 C225.79,707.29,225.32,707.9,225.32,708.94 C225.32,709.89,225.81,711.37,226.42,712.23 C226.97,713.04,227.58,713.41,228.31,713.41 H228.31 L228.36,713.74 C227.56,713.74,226.67,713.33,225.87,712.62 C224.87,711.68,224.28,710.48,224.28,709.32 C224.28,708.51,224.58,707.83,225.11,707.41 C225.37,707.2,225.59,707.1,226.03,707.01 C225.12,706.21,225.03,706.13,224.27,705.59 L224.37,705.45 C224.75,705.66,225.12,705.75,225.51,705.75 C225.71,705.75,226,705.69,226.44,705.58 C227.04,705.41,227.58,705.31,227.95,705.31 C228.5,705.31,229.19,705.57,229.7,705.96 C229.94,706.14,230.07,706.28,230.33,706.64 L230.18,706.75 C229.62,706.17,229.21,705.98,228.5,705.98 C228.24,705.98,228.03,706.02,227.27,706.2 C226.76,706.33,226.29,706.42,226.23,706.41 C226.19,706.4,226.17,706.4,226.17,706.4 H225.92 Z "
         stroke-width="0"
         fill="black"
         id="path6140" /></g>    <g
       style="font-style:normal;font-variant:normal;font-weight:normal;font-stretch:normal;letter-spacing:normal;word-spacing:normal;text-anchor:start;fill:none;stroke:#000000;stroke-width:1;stroke-linecap:butt;stroke-linejoin:miter;stroke-miterlimit:10.43299961;stroke-opacity:1;stroke-dasharray:none;stroke-dashoffset:0"
       ns0:preamble="/home/sriranga/Desktop/Prism_BasicElectronics/preamble.tex"
       ns0:text="$Q$"
       text-anchor="start"
       word-spacing="normal"
       letter-spacing="normal"
       font-size-adjust="none"
       font-stretch="normal"
       font-weight="normal"
       font-variant="normal"
       font-style="normal"
       fill-opacity="1"
       fill-rule="evenodd"
       fill="none"
       stroke-opacity="1"
       stroke-dashoffset="0"
       stroke-dasharray="none"
       stroke-miterlimit="10.433"
       stroke-linejoin="miter"
       stroke-linecap="butt"
       stroke="black"
       xml:space="preserve"
       transform="matrix(1.2,0,0,-1.2,-138.91378,1630.2839)"
       id="g6208"><path
         id="path6210"
         fill="black"
         stroke-width="0"
         d="M226.46,706.97 L226.53,706.97 L226.6,706.98 L226.66,706.98 L226.73,706.99 L226.79,706.99 L226.85,707 L226.91,707.01 L226.97,707.02 L227.02,707.02 L227.08,707.03 L227.13,707.04 L227.18,707.05 L227.29,707.07 L227.39,707.1 L227.48,707.13 L227.58,707.16 L227.67,707.19 L227.76,707.23 L227.86,707.27 L227.96,707.32 L228.01,707.34 L228.06,707.37 L228.11,707.39 L228.16,707.42 C229.63,708.25,230.63,709.86,230.63,711.43 C230.63,712.77,229.68,713.74,228.36,713.74 L228.31,713.41 C229.1,713.41,229.59,712.84,229.59,711.89 C229.59,710.84,229.12,709.38,228.49,708.47 C227.94,707.68,227.32,707.29,226.6,707.29 C225.79,707.29,225.32,707.9,225.32,708.94 C225.32,709.89,225.81,711.37,226.42,712.23 C226.97,713.04,227.58,713.41,228.31,713.41 H228.31 L228.36,713.74 C227.56,713.74,226.67,713.33,225.87,712.62 C224.87,711.68,224.28,710.48,224.28,709.32 C224.28,708.51,224.58,707.83,225.11,707.41 C225.37,707.2,225.59,707.1,226.03,707.01 C225.12,706.21,225.03,706.13,224.27,705.59 L224.37,705.45 C224.75,705.66,225.12,705.75,225.51,705.75 C225.71,705.75,226,705.69,226.44,705.58 C227.04,705.41,227.58,705.31,227.95,705.31 C228.5,705.31,229.19,705.57,229.7,705.96 C229.94,706.14,230.07,706.28,230.33,706.64 L230.18,706.75 C229.62,706.17,229.21,705.98,228.5,705.98 C228.24,705.98,228.03,706.02,227.27,706.2 C226.76,706.33,226.29,706.42,226.23,706.41 C226.19,706.4,226.17,706.4,226.17,706.4 H225.92 Z " /></g>    <rect
       style="fill:none;stroke:#000000;stroke-width:0.99999994;stroke-linecap:butt;stroke-linejoin:round;stroke-miterlimit:4;stroke-opacity:1;stroke-dasharray:none;stroke-dashoffset:0"
       id="rect6243"
       width="45"
       height="60.000008"
       x="195"
       y="777.36084" />
    <path
       style="fill:none;stroke:#000000;stroke-width:1;stroke-linecap:butt;stroke-linejoin:round;stroke-miterlimit:4;stroke-opacity:1;stroke-dasharray:none;stroke-dashoffset:0"
       d="m 175,787.36085 20,0"
       id="path6245"
       inkscape:connector-curvature="0" />
    <path
       inkscape:connector-curvature="0"
       id="path6247"
       d="m 175,827.36085 20,0"
       style="fill:none;stroke:#000000;stroke-width:1;stroke-linecap:butt;stroke-linejoin:round;stroke-miterlimit:4;stroke-opacity:1;stroke-dasharray:none;stroke-dashoffset:0" />
    <path
       inkscape:connector-curvature="0"
       id="path6249"
       d="m 240,787.36085 20,0"
       style="fill:none;stroke:#000000;stroke-width:1;stroke-linecap:butt;stroke-linejoin:round;stroke-miterlimit:4;stroke-opacity:1;stroke-dasharray:none;stroke-dashoffset:0" />
    <path
       style="fill:none;stroke:#000000;stroke-width:1;stroke-linecap:butt;stroke-linejoin:round;stroke-miterlimit:4;stroke-opacity:1;stroke-dasharray:none;stroke-dashoffset:0"
       d="m 240,827.36085 20,0"
       id="path6251"
       inkscape:connector-curvature="0" />
    <g
       style="font-style:normal;font-variant:normal;font-weight:normal;font-stretch:normal;letter-spacing:normal;word-spacing:normal;text-anchor:start;fill:none;stroke:#000000;stroke-width:1;stroke-linecap:butt;stroke-linejoin:miter;stroke-miterlimit:10.43299961;stroke-opacity:1;stroke-dasharray:none;stroke-dashoffset:0"
       ns0:preamble="/home/sriranga/Desktop/Prism_BasicElectronics/preamble.tex"
       ns0:text="$\\overline{S}$"
       word-spacing="normal"
       letter-spacing="normal"
       font-size-adjust="none"
       font-stretch="normal"
       font-weight="normal"
       font-variant="normal"
       font-style="normal"
       stroke-miterlimit="10.433"
       xml:space="preserve"
       transform="matrix(1.2,0,0,-1.2,-69.570771,1639.9751)"
       id="g6253"><line
         id="line6255"
         y2="715.59003"
         x2="229.99001"
         y1="715.59003"
         x1="223.42999"
         style="stroke-width:0.55800003" /><path
         id="path6257"
         d="m 228.09,711.77 0.4,1.98 h -0.23 c -0.14,-0.21 -0.23,-0.26 -0.45,-0.26 -0.12,0 -0.23,0.03 -0.46,0.11 -0.22,0.09 -0.53,0.14 -0.84,0.14 -1.04,0 -1.77,-0.69 -1.77,-1.66 0,-0.53 0.14,-0.82 0.74,-1.46 0.09,-0.09 0.22,-0.23 0.39,-0.42 0.18,-0.18 0.32,-0.33 0.39,-0.41 0.47,-0.49 0.59,-0.75 0.59,-1.18 0,-0.74 -0.55,-1.32 -1.28,-1.32 -0.83,0 -1.45,0.71 -1.45,1.65 0,0.08 0.01,0.16 0.02,0.23 l -0.2,0.02 -0.34,-2.21 h 0.18 c 0.07,0.22 0.18,0.32 0.38,0.32 0.11,0 0.26,-0.04 0.52,-0.13 0.45,-0.16 0.72,-0.22 1.03,-0.22 1.14,0 2.01,0.86 2.01,1.98 0,0.65 -0.23,1.04 -1.12,1.94 -0.9,0.9 -0.99,1.04 -0.99,1.53 0,0.63 0.42,1.01 1.1,1.01 0.36,0 0.67,-0.13 0.88,-0.36 0.22,-0.25 0.3,-0.59 0.32,-1.25 z"
         inkscape:connector-curvature="0"
         style="fill:#000000;stroke-width:0" /></g>    <g
       id="g6259"
       transform="matrix(1.2,0,0,-1.2,-69.269876,1679.6923)"
       xml:space="preserve"
       stroke-miterlimit="10.433"
       font-style="normal"
       font-variant="normal"
       font-weight="normal"
       font-stretch="normal"
       font-size-adjust="none"
       letter-spacing="normal"
       word-spacing="normal"
       ns0:text="$\\overline{R}$"
       ns0:preamble="/home/sriranga/Desktop/Prism_BasicElectronics/preamble.tex"
       style="font-style:normal;font-variant:normal;font-weight:normal;font-stretch:normal;letter-spacing:normal;word-spacing:normal;text-anchor:start;fill:none;stroke:#000000;stroke-width:1;stroke-linecap:butt;stroke-linejoin:miter;stroke-miterlimit:10.43299961;stroke-opacity:1;stroke-dasharray:none;stroke-dashoffset:0"><line
         style="stroke-width:0.55800003"
         x1="223.42999"
         y1="715.59003"
         x2="229.52"
         y2="715.59003"
         id="line6261" /><path
         style="fill:#000000;stroke-width:0"
         inkscape:connector-curvature="0"
         d="m 229.07,707.28 -0.04,0.01 -0.04,0 -0.03,0.01 -0.04,0 -0.04,0.01 -0.03,0.01 -0.03,0.01 -0.03,0.01 -0.03,0.01 -0.03,0.01 -0.03,0.01 -0.03,0.02 -0.03,0.01 -0.02,0.02 -0.03,0.02 -0.02,0.02 -0.03,0.02 -0.02,0.02 -0.02,0.03 -0.02,0.02 -0.02,0.03 -0.03,0.03 -0.02,0.03 -0.02,0.03 -0.01,0.04 -0.02,0.03 -0.02,0.04 -0.02,0.04 -0.02,0.04 -0.02,0.05 -0.02,0.04 -0.01,0.05 -0.93,2.43 c 0.77,0.17 1.1,0.31 1.45,0.63 0.33,0.29 0.51,0.67 0.51,1.12 0,0.92 -0.73,1.43 -2.07,1.43 l -0.21,-0.3 c 0.83,0 1.24,-0.37 1.24,-1.11 0,-0.98 -0.64,-1.49 -1.88,-1.49 -0.16,0 -0.27,0.01 -0.51,0.05 l 0.65,2.28 c 0.06,0.2 0.18,0.27 0.5,0.27 l 0.21,0.3 h -2.47 v -0.16 c 0.42,-0.06 0.47,-0.07 0.57,-0.14 0.08,-0.05 0.14,-0.16 0.14,-0.27 0,-0.12 -0.05,-0.36 -0.12,-0.63 l -1.22,-4.39 c -0.18,-0.59 -0.25,-0.65 -0.81,-0.74 v -0.16 h 2.43 v 0.16 c -0.61,0.08 -0.68,0.13 -0.68,0.46 0,0.1 0.03,0.23 0.12,0.58 l 0.56,2.07 0.65,-0.05 1.22,-3.22 h 1.47 z"
         id="path6263" /></g>    <g
       style="font-style:normal;font-variant:normal;font-weight:normal;font-stretch:normal;letter-spacing:normal;word-spacing:normal;text-anchor:start;fill:none;stroke:#000000;stroke-width:1;stroke-linecap:butt;stroke-linejoin:miter;stroke-miterlimit:10.43299961;stroke-opacity:1;stroke-dasharray:none;stroke-dashoffset:0"
       ns0:preamble="/home/sriranga/Desktop/Prism_BasicElectronics/preamble.tex"
       ns0:text="$\\overline{Q}$"
       word-spacing="normal"
       letter-spacing="normal"
       font-size-adjust="none"
       font-stretch="normal"
       font-weight="normal"
       font-variant="normal"
       font-style="normal"
       stroke-miterlimit="10.433"
       xml:space="preserve"
       transform="matrix(1.2,0,0,-1.2,-42.328463,1679.6631)"
       id="g6265"><line
         id="line6267"
         y2="715.59003"
         x2="230.88"
         y1="715.59003"
         x1="223.42999"
         style="stroke-width:0.55800003" /><path
         id="path6269"
         d="m 226.46,706.97 0.07,0 0.07,0.01 0.06,0 0.07,0.01 0.06,0 0.06,0.01 0.06,0.01 0.06,0.01 0.05,0 0.06,0.01 0.05,0.01 0.05,0.01 0.11,0.02 0.1,0.03 0.09,0.03 0.1,0.03 0.09,0.03 0.09,0.04 0.1,0.04 0.1,0.05 0.05,0.02 0.05,0.03 0.05,0.02 0.05,0.03 c 1.47,0.83 2.47,2.44 2.47,4.01 0,1.34 -0.95,2.31 -2.27,2.31 l -0.05,-0.33 c 0.79,0 1.28,-0.57 1.28,-1.52 0,-1.05 -0.47,-2.51 -1.1,-3.42 -0.55,-0.79 -1.17,-1.18 -1.89,-1.18 -0.81,0 -1.28,0.61 -1.28,1.65 0,0.95 0.49,2.43 1.1,3.29 0.55,0.81 1.16,1.18 1.89,1.18 h 0 l 0.05,0.33 c -0.8,0 -1.69,-0.41 -2.49,-1.12 -1,-0.94 -1.59,-2.14 -1.59,-3.3 0,-0.81 0.3,-1.49 0.83,-1.91 0.26,-0.21 0.48,-0.31 0.92,-0.4 -0.91,-0.8 -1,-0.88 -1.76,-1.42 l 0.1,-0.14 c 0.38,0.21 0.75,0.3 1.14,0.3 0.2,0 0.49,-0.06 0.93,-0.17 0.6,-0.17 1.14,-0.27 1.51,-0.27 0.55,0 1.24,0.26 1.75,0.65 0.24,0.18 0.37,0.32 0.63,0.68 l -0.15,0.11 c -0.56,-0.58 -0.97,-0.77 -1.68,-0.77 -0.26,0 -0.47,0.04 -1.23,0.22 -0.51,0.13 -0.98,0.22 -1.04,0.21 -0.04,-0.01 -0.06,-0.01 -0.06,-0.01 h -0.25 z"
         inkscape:connector-curvature="0"
         style="fill:#000000;stroke-width:0" /></g>    <g
       id="g6271"
       transform="matrix(1.2,0,0,-1.2,-42.328463,1638.107)"
       xml:space="preserve"
       stroke-miterlimit="10.433"
       font-style="normal"
       font-variant="normal"
       font-weight="normal"
       font-stretch="normal"
       font-size-adjust="none"
       letter-spacing="normal"
       word-spacing="normal"
       ns0:text="$Q$"
       ns0:preamble="/home/sriranga/Desktop/Prism_BasicElectronics/preamble.tex"
       style="font-style:normal;font-variant:normal;font-weight:normal;font-stretch:normal;letter-spacing:normal;word-spacing:normal;text-anchor:start;fill:none;stroke:#000000;stroke-width:1;stroke-linecap:butt;stroke-linejoin:miter;stroke-miterlimit:10.43299961;stroke-opacity:1;stroke-dasharray:none;stroke-dashoffset:0"><path
         d="m 226.46,706.97 0.07,0 0.07,0.01 0.06,0 0.07,0.01 0.06,0 0.06,0.01 0.06,0.01 0.06,0.01 0.05,0 0.06,0.01 0.05,0.01 0.05,0.01 0.11,0.02 0.1,0.03 0.09,0.03 0.1,0.03 0.09,0.03 0.09,0.04 0.1,0.04 0.1,0.05 0.05,0.02 0.05,0.03 0.05,0.02 0.05,0.03 c 1.47,0.83 2.47,2.44 2.47,4.01 0,1.34 -0.95,2.31 -2.27,2.31 l -0.05,-0.33 c 0.79,0 1.28,-0.57 1.28,-1.52 0,-1.05 -0.47,-2.51 -1.1,-3.42 -0.55,-0.79 -1.17,-1.18 -1.89,-1.18 -0.81,0 -1.28,0.61 -1.28,1.65 0,0.95 0.49,2.43 1.1,3.29 0.55,0.81 1.16,1.18 1.89,1.18 h 0 l 0.05,0.33 c -0.8,0 -1.69,-0.41 -2.49,-1.12 -1,-0.94 -1.59,-2.14 -1.59,-3.3 0,-0.81 0.3,-1.49 0.83,-1.91 0.26,-0.21 0.48,-0.31 0.92,-0.4 -0.91,-0.8 -1,-0.88 -1.76,-1.42 l 0.1,-0.14 c 0.38,0.21 0.75,0.3 1.14,0.3 0.2,0 0.49,-0.06 0.93,-0.17 0.6,-0.17 1.14,-0.27 1.51,-0.27 0.55,0 1.24,0.26 1.75,0.65 0.24,0.18 0.37,0.32 0.63,0.68 l -0.15,0.11 c -0.56,-0.58 -0.97,-0.77 -1.68,-0.77 -0.26,0 -0.47,0.04 -1.23,0.22 -0.51,0.13 -0.98,0.22 -1.04,0.21 -0.04,-0.01 -0.06,-0.01 -0.06,-0.01 h -0.25 z"
         id="path6273"
         inkscape:connector-curvature="0"
         style="fill:#000000;stroke-width:0" /></g>    <path
       style="fill:none;stroke:#000000;stroke-width:1;stroke-linecap:butt;stroke-linejoin:round;stroke-miterlimit:4;stroke-opacity:1;stroke-dasharray:none;stroke-dashoffset:0"
       d="m 300,782.36085 115.11007,0"
       id="path6275"
       inkscape:connector-curvature="0" />
    <path
       inkscape:connector-curvature="0"
       id="path6277"
       d="m 345,757.36085 0,109.41587"
       style="fill:none;stroke:#000000;stroke-width:1;stroke-linecap:butt;stroke-linejoin:round;stroke-miterlimit:4;stroke-opacity:1;stroke-dasharray:none;stroke-dashoffset:0" />
    <g
       style="font-style:normal;font-variant:normal;font-weight:normal;font-stretch:normal;letter-spacing:normal;word-spacing:normal;text-anchor:start;fill:none;stroke:#000000;stroke-width:1;stroke-linecap:butt;stroke-linejoin:miter;stroke-miterlimit:10.43299961;stroke-opacity:1;stroke-dasharray:none;stroke-dashoffset:0"
       ns0:preamble="/home/sriranga/Desktop/Prism_BasicElectronics/preamble.tex"
       ns0:text="$\\overline{R}$"
       word-spacing="normal"
       letter-spacing="normal"
       font-size-adjust="none"
       font-stretch="normal"
       font-weight="normal"
       font-variant="normal"
       font-style="normal"
       stroke-miterlimit="10.433"
       xml:space="preserve"
       transform="matrix(1.2,0,0,-1.2,39.663519,1623.949)"
       id="g6279"><line
         id="line6281"
         y2="715.59003"
         x2="229.52"
         y1="715.59003"
         x1="223.42999"
         style="stroke-width:0.55800003" /><path
         id="path6283"
         d="m 229.07,707.28 -0.04,0.01 -0.04,0 -0.03,0.01 -0.04,0 -0.04,0.01 -0.03,0.01 -0.03,0.01 -0.03,0.01 -0.03,0.01 -0.03,0.01 -0.03,0.01 -0.03,0.02 -0.03,0.01 -0.02,0.02 -0.03,0.02 -0.02,0.02 -0.03,0.02 -0.02,0.02 -0.02,0.03 -0.02,0.02 -0.02,0.03 -0.03,0.03 -0.02,0.03 -0.02,0.03 -0.01,0.04 -0.02,0.03 -0.02,0.04 -0.02,0.04 -0.02,0.04 -0.02,0.05 -0.02,0.04 -0.01,0.05 -0.93,2.43 c 0.77,0.17 1.1,0.31 1.45,0.63 0.33,0.29 0.51,0.67 0.51,1.12 0,0.92 -0.73,1.43 -2.07,1.43 l -0.21,-0.3 c 0.83,0 1.24,-0.37 1.24,-1.11 0,-0.98 -0.64,-1.49 -1.88,-1.49 -0.16,0 -0.27,0.01 -0.51,0.05 l 0.65,2.28 c 0.06,0.2 0.18,0.27 0.5,0.27 l 0.21,0.3 h -2.47 v -0.16 c 0.42,-0.06 0.47,-0.07 0.57,-0.14 0.08,-0.05 0.14,-0.16 0.14,-0.27 0,-0.12 -0.05,-0.36 -0.12,-0.63 l -1.22,-4.39 c -0.18,-0.59 -0.25,-0.65 -0.81,-0.74 v -0.16 h 2.43 v 0.16 c -0.61,0.08 -0.68,0.13 -0.68,0.46 0,0.1 0.03,0.23 0.12,0.58 l 0.56,2.07 0.65,-0.05 1.22,-3.22 h 1.47 z"
         inkscape:connector-curvature="0"
         style="fill:#000000;stroke-width:0" /></g>    <g
       id="g6285"
       transform="matrix(1.2,0,0,-1.2,62.371003,1623.8053)"
       xml:space="preserve"
       stroke-miterlimit="10.433"
       font-style="normal"
       font-variant="normal"
       font-weight="normal"
       font-stretch="normal"
       font-size-adjust="none"
       letter-spacing="normal"
       word-spacing="normal"
       ns0:text="$\\overline{S}$"
       ns0:preamble="/home/sriranga/Desktop/Prism_BasicElectronics/preamble.tex"
       style="font-style:normal;font-variant:normal;font-weight:normal;font-stretch:normal;letter-spacing:normal;word-spacing:normal;text-anchor:start;fill:none;stroke:#000000;stroke-width:1;stroke-linecap:butt;stroke-linejoin:miter;stroke-miterlimit:10.43299961;stroke-opacity:1;stroke-dasharray:none;stroke-dashoffset:0"><line
         style="stroke-width:0.55800003"
         x1="223.42999"
         y1="715.59003"
         x2="229.99001"
         y2="715.59003"
         id="line6287" /><path
         style="fill:#000000;stroke-width:0"
         inkscape:connector-curvature="0"
         d="m 228.09,711.77 0.4,1.98 h -0.23 c -0.14,-0.21 -0.23,-0.26 -0.45,-0.26 -0.12,0 -0.23,0.03 -0.46,0.11 -0.22,0.09 -0.53,0.14 -0.84,0.14 -1.04,0 -1.77,-0.69 -1.77,-1.66 0,-0.53 0.14,-0.82 0.74,-1.46 0.09,-0.09 0.22,-0.23 0.39,-0.42 0.18,-0.18 0.32,-0.33 0.39,-0.41 0.47,-0.49 0.59,-0.75 0.59,-1.18 0,-0.74 -0.55,-1.32 -1.28,-1.32 -0.83,0 -1.45,0.71 -1.45,1.65 0,0.08 0.01,0.16 0.02,0.23 l -0.2,0.02 -0.34,-2.21 h 0.18 c 0.07,0.22 0.18,0.32 0.38,0.32 0.11,0 0.26,-0.04 0.52,-0.13 0.45,-0.16 0.72,-0.22 1.03,-0.22 1.14,0 2.01,0.86 2.01,1.98 0,0.65 -0.23,1.04 -1.12,1.94 -0.9,0.9 -0.99,1.04 -0.99,1.53 0,0.63 0.42,1.01 1.1,1.01 0.36,0 0.67,-0.13 0.88,-0.36 0.22,-0.25 0.3,-0.59 0.32,-1.25 z"
         id="path6289" /></g>    <text
       xml:space="preserve"
       style="font-size:12px;font-style:normal;font-variant:normal;font-weight:normal;font-stretch:normal;text-align:start;line-height:150%;letter-spacing:0px;word-spacing:0px;text-anchor:start;fill:#000000;fill-opacity:1;stroke:none;font-family:LMRoman12;-inkscape-font-specification:Sans"
       x="308.79645"
       y="802.15448"
       id="text6291"
       sodipodi:linespacing="150%"><tspan
         sodipodi:role="line"
         id="tspan6293"
         x="308.79645"
         y="802.15448">0</tspan><tspan
         sodipodi:role="line"
         x="308.79645"
         y="820.15448"
         id="tspan6297">0</tspan><tspan
         sodipodi:role="line"
         x="308.79645"
         y="838.15448"
         id="tspan6301">1</tspan><tspan
         sodipodi:role="line"
         x="308.79645"
         y="856.15448"
         id="tspan6309">1</tspan></text>
    <text
       sodipodi:linespacing="150%"
       id="text6315"
       y="802.15448"
       x="330.71689"
       style="font-size:12px;font-style:normal;font-variant:normal;font-weight:normal;font-stretch:normal;text-align:start;line-height:150%;letter-spacing:0px;word-spacing:0px;text-anchor:start;fill:#000000;fill-opacity:1;stroke:none;font-family:LMRoman12;-inkscape-font-specification:Sans"
       xml:space="preserve"><tspan
         y="802.15448"
         x="330.71689"
         id="tspan6317"
         sodipodi:role="line">0</tspan><tspan
         id="tspan6321"
         y="820.15448"
         x="330.71689"
         sodipodi:role="line">1</tspan><tspan
         id="tspan6325"
         y="838.15448"
         x="330.71689"
         sodipodi:role="line">0</tspan><tspan
         id="tspan6329"
         y="856.15448"
         x="330.71689"
         sodipodi:role="line">1</tspan></text>
    <g
       style="font-style:normal;font-variant:normal;font-weight:normal;font-stretch:normal;letter-spacing:normal;word-spacing:normal;text-anchor:start;fill:none;stroke:#000000;stroke-width:1;stroke-linecap:butt;stroke-linejoin:miter;stroke-miterlimit:10.43299961;stroke-opacity:1;stroke-dasharray:none;stroke-dashoffset:0"
       ns0:preamble="/home/sriranga/Desktop/Prism_BasicElectronics/preamble.tex"
       ns0:text="$Q$"
       word-spacing="normal"
       letter-spacing="normal"
       font-size-adjust="none"
       font-stretch="normal"
       font-weight="normal"
       font-variant="normal"
       font-style="normal"
       stroke-miterlimit="10.433"
       xml:space="preserve"
       transform="matrix(1.2,0,0,-1.2,86.3463,1621.5117)"
       id="g6331"><path
         style="fill:#000000;stroke-width:0"
         inkscape:connector-curvature="0"
         id="path6333"
         d="m 226.46,706.97 0.07,0 0.07,0.01 0.06,0 0.07,0.01 0.06,0 0.06,0.01 0.06,0.01 0.06,0.01 0.05,0 0.06,0.01 0.05,0.01 0.05,0.01 0.11,0.02 0.1,0.03 0.09,0.03 0.1,0.03 0.09,0.03 0.09,0.04 0.1,0.04 0.1,0.05 0.05,0.02 0.05,0.03 0.05,0.02 0.05,0.03 c 1.47,0.83 2.47,2.44 2.47,4.01 0,1.34 -0.95,2.31 -2.27,2.31 l -0.05,-0.33 c 0.79,0 1.28,-0.57 1.28,-1.52 0,-1.05 -0.47,-2.51 -1.1,-3.42 -0.55,-0.79 -1.17,-1.18 -1.89,-1.18 -0.81,0 -1.28,0.61 -1.28,1.65 0,0.95 0.49,2.43 1.1,3.29 0.55,0.81 1.16,1.18 1.89,1.18 h 0 l 0.05,0.33 c -0.8,0 -1.69,-0.41 -2.49,-1.12 -1,-0.94 -1.59,-2.14 -1.59,-3.3 0,-0.81 0.3,-1.49 0.83,-1.91 0.26,-0.21 0.48,-0.31 0.92,-0.4 -0.91,-0.8 -1,-0.88 -1.76,-1.42 l 0.1,-0.14 c 0.38,0.21 0.75,0.3 1.14,0.3 0.2,0 0.49,-0.06 0.93,-0.17 0.6,-0.17 1.14,-0.27 1.51,-0.27 0.55,0 1.24,0.26 1.75,0.65 0.24,0.18 0.37,0.32 0.63,0.68 l -0.15,0.11 c -0.56,-0.58 -0.97,-0.77 -1.68,-0.77 -0.26,0 -0.47,0.04 -1.23,0.22 -0.51,0.13 -0.98,0.22 -1.04,0.21 -0.04,-0.01 -0.06,-0.01 -0.06,-0.01 h -0.25 z" /></g>    <g
       id="g6335"
       transform="matrix(1.2,0,0,-1.2,111.45204,1622.2178)"
       xml:space="preserve"
       stroke-miterlimit="10.433"
       font-style="normal"
       font-variant="normal"
       font-weight="normal"
       font-stretch="normal"
       font-size-adjust="none"
       letter-spacing="normal"
       word-spacing="normal"
       ns0:text="$\\overline{Q}$"
       ns0:preamble="/home/sriranga/Desktop/Prism_BasicElectronics/preamble.tex"
       style="font-style:normal;font-variant:normal;font-weight:normal;font-stretch:normal;letter-spacing:normal;word-spacing:normal;text-anchor:start;fill:none;stroke:#000000;stroke-width:1;stroke-linecap:butt;stroke-linejoin:miter;stroke-miterlimit:10.43299961;stroke-opacity:1;stroke-dasharray:none;stroke-dashoffset:0"><line
         style="stroke-width:0.55800003"
         x1="223.42999"
         y1="715.59003"
         x2="230.88"
         y2="715.59003"
         id="line6337" /><path
         style="fill:#000000;stroke-width:0"
         inkscape:connector-curvature="0"
         d="m 226.46,706.97 0.07,0 0.07,0.01 0.06,0 0.07,0.01 0.06,0 0.06,0.01 0.06,0.01 0.06,0.01 0.05,0 0.06,0.01 0.05,0.01 0.05,0.01 0.11,0.02 0.1,0.03 0.09,0.03 0.1,0.03 0.09,0.03 0.09,0.04 0.1,0.04 0.1,0.05 0.05,0.02 0.05,0.03 0.05,0.02 0.05,0.03 c 1.47,0.83 2.47,2.44 2.47,4.01 0,1.34 -0.95,2.31 -2.27,2.31 l -0.05,-0.33 c 0.79,0 1.28,-0.57 1.28,-1.52 0,-1.05 -0.47,-2.51 -1.1,-3.42 -0.55,-0.79 -1.17,-1.18 -1.89,-1.18 -0.81,0 -1.28,0.61 -1.28,1.65 0,0.95 0.49,2.43 1.1,3.29 0.55,0.81 1.16,1.18 1.89,1.18 h 0 l 0.05,0.33 c -0.8,0 -1.69,-0.41 -2.49,-1.12 -1,-0.94 -1.59,-2.14 -1.59,-3.3 0,-0.81 0.3,-1.49 0.83,-1.91 0.26,-0.21 0.48,-0.31 0.92,-0.4 -0.91,-0.8 -1,-0.88 -1.76,-1.42 l 0.1,-0.14 c 0.38,0.21 0.75,0.3 1.14,0.3 0.2,0 0.49,-0.06 0.93,-0.17 0.6,-0.17 1.14,-0.27 1.51,-0.27 0.55,0 1.24,0.26 1.75,0.65 0.24,0.18 0.37,0.32 0.63,0.68 l -0.15,0.11 c -0.56,-0.58 -0.97,-0.77 -1.68,-0.77 -0.26,0 -0.47,0.04 -1.23,0.22 -0.51,0.13 -0.98,0.22 -1.04,0.21 -0.04,-0.01 -0.06,-0.01 -0.06,-0.01 h -0.25 z"
         id="path6339" /></g>    <text
       xml:space="preserve"
       style="font-size:12px;font-style:normal;font-variant:normal;font-weight:normal;font-stretch:normal;text-align:start;line-height:100%;letter-spacing:0px;word-spacing:0px;text-anchor:start;fill:#000000;fill-opacity:1;stroke:none;font-family:LMRoman12;-inkscape-font-specification:Sans"
       x="355.03061"
       y="856.83063"
       id="text6341"
       sodipodi:linespacing="100%"><tspan
         sodipodi:role="line"
         id="tspan6343"
         x="355.03061"
         y="856.83063">Forbidden</tspan></text>
    <text
       xml:space="preserve"
       style="font-size:12px;font-style:normal;font-variant:normal;font-weight:normal;font-stretch:normal;text-align:start;line-height:150%;letter-spacing:0px;word-spacing:0px;text-anchor:start;fill:#000000;fill-opacity:1;stroke:none;font-family:LMRoman12;-inkscape-font-specification:Sans"
       x="357.6051"
       y="820.35486"
       id="text6345"
       sodipodi:linespacing="150%"><tspan
         sodipodi:role="line"
         id="tspan6347"
         x="357.6051"
         y="820.35486">0</tspan><tspan
         sodipodi:role="line"
         x="357.6051"
         y="838.35486"
         id="tspan6351">1</tspan></text>
    <text
       sodipodi:linespacing="150%"
       id="text6353"
       y="820.65576"
       x="381.22153"
       style="font-size:12px;font-style:normal;font-variant:normal;font-weight:normal;font-stretch:normal;text-align:start;line-height:150%;letter-spacing:0px;word-spacing:0px;text-anchor:start;fill:#000000;fill-opacity:1;stroke:none;font-family:LMRoman12;-inkscape-font-specification:Sans"
       xml:space="preserve"><tspan
         y="820.65576"
         x="381.22153"
         id="tspan6355"
         sodipodi:role="line">1</tspan><tspan
         id="tspan6359"
         y="838.65576"
         x="381.22153"
         sodipodi:role="line">0</tspan></text>
    <text
       sodipodi:linespacing="100%"
       id="text6361"
       y="802.00922"
       x="355.93329"
       style="font-size:12px;font-style:normal;font-variant:normal;font-weight:normal;font-stretch:normal;text-align:start;line-height:100%;letter-spacing:0px;word-spacing:0px;text-anchor:start;fill:#000000;fill-opacity:1;stroke:none;font-family:LMRoman12;-inkscape-font-specification:Sans"
       xml:space="preserve"><tspan
         y="802.00922"
         x="355.93329"
         id="tspan6363"
         sodipodi:role="line">Last state</tspan></text>
    <text
       xml:space="preserve"
       style="font-size:12px;font-style:normal;font-variant:normal;font-weight:normal;font-stretch:normal;text-align:start;line-height:100%;letter-spacing:0px;word-spacing:0px;text-anchor:start;fill:#000000;fill-opacity:1;stroke:none;font-family:LMRoman12;-inkscape-font-specification:Sans"
       x="62.126076"
       y="886.83313"
       id="text6365"
       sodipodi:linespacing="100%"><tspan
         sodipodi:role="line"
         id="tspan6367"
         x="62.126076"
         y="886.83313">(a)</tspan></text>
    <text
       sodipodi:linespacing="100%"
       id="text6369"
       y="886.83319"
       x="210"
       style="font-size:12px;font-style:normal;font-variant:normal;font-weight:normal;font-stretch:normal;text-align:start;line-height:100%;letter-spacing:0px;word-spacing:0px;text-anchor:start;fill:#000000;fill-opacity:1;stroke:none;font-family:LMRoman12;-inkscape-font-specification:Sans"
       xml:space="preserve"><tspan
         y="886.83319"
         x="210"
         id="tspan6371"
         sodipodi:role="line">(b)</tspan></text>
    <text
       xml:space="preserve"
       style="font-size:12px;font-style:normal;font-variant:normal;font-weight:normal;font-stretch:normal;text-align:start;line-height:100%;letter-spacing:0px;word-spacing:0px;text-anchor:start;fill:#000000;fill-opacity:1;stroke:none;font-family:LMRoman12;-inkscape-font-specification:Sans"
       x="345"
       y="886.83319"
       id="text6373"
       sodipodi:linespacing="100%"><tspan
         sodipodi:role="line"
         id="tspan6375"
         x="345"
         y="886.83319">(c)</tspan></text>
    <flowRoot
       xml:space="preserve"
       id="flowRoot6377"
       style="fill:black;stroke:none;stroke-opacity:1;stroke-width:1px;stroke-linejoin:miter;stroke-linecap:butt;fill-opacity:1;font-family:LMRoman12;font-style:normal;font-weight:normal;font-size:12px;line-height:100%;letter-spacing:0px;word-spacing:0px;-inkscape-font-specification:Sans;font-stretch:normal;font-variant:normal;text-anchor:start;text-align:start"><flowRegion
         id="flowRegion6379"><rect
           id="rect6381"
           width="27.681772"
           height="40.319103"
           x="219.34796"
           y="87.141403" /></flowRegion><flowPara
         id="flowPara6383" /></flowRoot>    <text
       xml:space="preserve"
       style="font-size:12px;font-style:normal;font-variant:normal;font-weight:normal;font-stretch:normal;text-align:start;line-height:50%;letter-spacing:0px;word-spacing:0px;text-anchor:start;fill:#000000;fill-opacity:1;stroke:none;font-family:LMRoman12;-inkscape-font-specification:Sans"
       x="275.91507"
       y="55.247185"
       id="text6385"
       sodipodi:linespacing="50%"
       transform="translate(0,698.03016)"><tspan
         sodipodi:role="line"
         id="tspan6387" /></text>
    <text
       xml:space="preserve"
       style="font-size:12px;font-style:normal;font-variant:normal;font-weight:normal;font-stretch:normal;text-align:start;line-height:1000%;letter-spacing:0px;word-spacing:0px;text-anchor:start;fill:#000000;fill-opacity:1;stroke:none;font-family:LMRoman12;-inkscape-font-specification:Sans"
       x="71.994003"
       y="781.35083"
       id="text6435"
       sodipodi:linespacing="1000%"><tspan
         sodipodi:role="line"
         id="tspan6437"
         x="71.994003"
         y="781.35083">1</tspan></text>
    <text
       xml:space="preserve"
       style="font-size:12px;font-style:normal;font-variant:normal;font-weight:normal;font-stretch:normal;text-align:start;line-height:1000%;letter-spacing:0px;word-spacing:0px;text-anchor:start;fill:#000000;fill-opacity:1;stroke:none;font-family:LMRoman12;-inkscape-font-specification:Sans"
       x="72.066002"
       y="841.35083"
       id="text6439"
       sodipodi:linespacing="1000%"><tspan
         sodipodi:role="line"
         id="tspan6441"
         x="72.066002"
         y="841.35083">2</tspan></text>
    <path
       style="fill:none;stroke:#000000;stroke-width:1.2;stroke-linecap:butt;stroke-linejoin:round;stroke-miterlimit:4;stroke-opacity:1;stroke-dasharray:none;stroke-dashoffset:0"
       d="m 60,762.36085 c 15,0 25,5 30,15 -5,10 -15,15 -30,15 5,-10 5,-20 0,-30 z"
       id="path3075"
       inkscape:connector-curvature="0"
       sodipodi:nodetypes="cccc" />
    <path
       sodipodi:nodetypes="cccc"
       inkscape:connector-curvature="0"
       id="path3875"
       d="m 60,822.36085 c 15,0 25,5 30,15 -5,10 -15,15 -30,15 5,-10 5,-20 0,-30 z"
       style="fill:none;stroke:#000000;stroke-width:1.20000005;stroke-linecap:butt;stroke-linejoin:round;stroke-miterlimit:4;stroke-opacity:1;stroke-dasharray:none;stroke-dashoffset:0" />
  </g>
</svg>
