<?xml version="1.0" encoding="UTF-8" standalone="no"?>
<!-- Created with Inkscape (http://www.inkscape.org/) -->

<svg
   xmlns:ns0="http://www.iki.fi/pav/software/textext/"
   xmlns:dc="http://purl.org/dc/elements/1.1/"
   xmlns:cc="http://creativecommons.org/ns#"
   xmlns:rdf="http://www.w3.org/1999/02/22-rdf-syntax-ns#"
   xmlns:svg="http://www.w3.org/2000/svg"
   xmlns="http://www.w3.org/2000/svg"
   xmlns:sodipodi="http://sodipodi.sourceforge.net/DTD/sodipodi-0.dtd"
   xmlns:inkscape="http://www.inkscape.org/namespaces/inkscape"
   width="496.06299"
   height="354.33069"
   id="svg2"
   version="1.1"
   inkscape:version="0.48.4 r9939"
   sodipodi:docname="fig6.5.svg">
  <sodipodi:namedview
     id="base"
     pagecolor="#ffffff"
     bordercolor="#666666"
     borderopacity="1.0"
     inkscape:pageopacity="0.0"
     inkscape:pageshadow="2"
     inkscape:zoom="2.5574496"
     inkscape:cx="232.29375"
     inkscape:cy="120.00003"
     inkscape:document-units="cm"
     inkscape:current-layer="layer1"
     showgrid="false"
     units="cm"
     inkscape:object-nodes="true"
     inkscape:window-width="1366"
     inkscape:window-height="744"
     inkscape:window-x="0"
     inkscape:window-y="24"
     inkscape:window-maximized="1">
    <inkscape:grid
       snapvisiblegridlinesonly="true"
       enabled="true"
       visible="true"
       empspacing="5"
       id="grid2985"
       type="xygrid" />
  </sodipodi:namedview>
  <defs
     id="defs4">
    <marker
       style="overflow:visible"
       id="Arrow1Mstart"
       refX="0"
       refY="0"
       orient="auto"
       inkscape:stockid="Arrow1Mstart">
      <path
         transform="matrix(0.4,0,0,0.4,4,0)"
         style="fill-rule:evenodd;stroke:#000000;stroke-width:1pt"
         d="M 0,0 5,-5 -12.5,0 5,5 0,0 z"
         id="path3775"
         inkscape:connector-curvature="0" />
    </marker>
    <marker
       style="overflow:visible"
       id="Arrow1Mend"
       refX="0"
       refY="0"
       orient="auto"
       inkscape:stockid="Arrow1Mend">
      <path
         transform="matrix(-0.4,0,0,-0.4,-4,0)"
         style="fill-rule:evenodd;stroke:#000000;stroke-width:1pt"
         d="M 0,0 5,-5 -12.5,0 5,5 0,0 z"
         id="path3778"
         inkscape:connector-curvature="0" />
    </marker>
  </defs>
  <metadata
     id="metadata7">
    <rdf:RDF>
      <cc:Work
         rdf:about="">
        <dc:format>image/svg+xml</dc:format>
        <dc:type
           rdf:resource="http://purl.org/dc/dcmitype/StillImage" />
        <dc:title></dc:title>
      </cc:Work>
    </rdf:RDF>
  </metadata>
  <g
     transform="translate(0,-698.03016)"
     id="layer1"
     inkscape:groupmode="layer"
     inkscape:label="Layer 1">
    <path
       style="fill:none;stroke:#000000;stroke-width:1.20000005;stroke-linecap:round;stroke-linejoin:round;stroke-miterlimit:4;stroke-opacity:1;stroke-dasharray:none;stroke-dashoffset:0"
       d="m 155,892.36082 20,0 c 26.66667,-2e-5 26.66667,39.99998 0,39.99998 l -20,0 z"
       id="rect5801"
       inkscape:connector-curvature="0"
       sodipodi:nodetypes="ccccc" />
    <text
       xml:space="preserve"
       style="font-size:12px;font-style:normal;font-variant:normal;font-weight:normal;font-stretch:normal;text-align:start;line-height:100%;letter-spacing:0px;word-spacing:0px;text-anchor:start;fill:#000000;fill-opacity:1;stroke:none;font-family:LMRoman12;-inkscape-font-specification:Sans"
       x="61.700558"
       y="56.040417"
       id="text5818"
       sodipodi:linespacing="100%"
       transform="translate(0,698.03016)"><tspan
         sodipodi:role="line"
         id="tspan5820"
         x="61.700558"
         y="56.040417" /></text>
    <path
       sodipodi:nodetypes="cccc"
       style="fill:none;stroke:#000000;stroke-width:0.99212599;stroke-linecap:square;stroke-linejoin:round;stroke-miterlimit:4;stroke-opacity:1;stroke-dasharray:none;stroke-dashoffset:0"
       d="m 195,912.36085 35,0 0,25 42,0"
       id="path5824"
       inkscape:connector-curvature="0" />
    <flowRoot
       style="fill:black;stroke:none;stroke-opacity:1;stroke-width:1px;stroke-linejoin:miter;stroke-linecap:butt;fill-opacity:1;font-family:LMRoman12;font-style:normal;font-weight:normal;font-size:12px;line-height:100%;letter-spacing:0px;word-spacing:0px;-inkscape-font-specification:Sans;font-stretch:normal;font-variant:normal;text-anchor:start;text-align:start"
       id="flowRoot6377"
       xml:space="preserve"><flowRegion
         id="flowRegion6379"><rect
           y="87.141403"
           x="219.34796"
           height="40.319103"
           width="27.681772"
           id="rect6381" /></flowRegion><flowPara
         id="flowPara6383" /></flowRoot>    <text
       transform="translate(0,698.03016)"
       sodipodi:linespacing="50%"
       id="text6385"
       y="55.247185"
       x="275.91507"
       style="font-size:12px;font-style:normal;font-variant:normal;font-weight:normal;font-stretch:normal;text-align:start;line-height:50%;letter-spacing:0px;word-spacing:0px;text-anchor:start;fill:#000000;fill-opacity:1;stroke:none;font-family:LMRoman12;-inkscape-font-specification:Sans"
       xml:space="preserve"><tspan
         id="tspan6387"
         sodipodi:role="line" /></text>
    <text
       transform="translate(0,698.03016)"
       sodipodi:linespacing="100%"
       id="text3884"
       y="194.38702"
       x="348.65417"
       style="font-size:12px;font-style:normal;font-variant:normal;font-weight:normal;font-stretch:normal;text-align:start;line-height:100%;letter-spacing:0px;word-spacing:0px;text-anchor:start;fill:#000000;fill-opacity:1;stroke:none;font-family:LMRoman12;-inkscape-font-specification:Sans"
       xml:space="preserve"><tspan
         id="tspan3890"
         y="194.38702"
         x="348.65417"
         sodipodi:role="line" /></text>
    <path
       style="fill:none;stroke:#000000;stroke-width:1.20000005;stroke-linecap:butt;stroke-linejoin:round;stroke-miterlimit:4;stroke-opacity:1;stroke-dasharray:none;stroke-dashoffset:0"
       d="m 269.99999,932.36082 c 20,0 33.33333,6.66666 40,19.99999 -6.66667,13.33334 -20,20 -40,20 6.66667,-13.33333 6.66667,-26.66666 0,-39.99999 z"
       id="path3875"
       inkscape:connector-curvature="0"
       sodipodi:nodetypes="cccc" />
    <path
       sodipodi:nodetypes="cc"
       inkscape:connector-curvature="0"
       id="path3093"
       d="m 230,947.36085 44,0"
       style="fill:none;stroke:#000000;stroke-width:0.99212599;stroke-linecap:square;stroke-linejoin:round;stroke-miterlimit:4;stroke-opacity:1;stroke-dasharray:none;stroke-dashoffset:0" />
    <path
       sodipodi:nodetypes="cc"
       style="fill:none;stroke:#000000;stroke-width:0.99212599;stroke-linecap:square;stroke-linejoin:round;stroke-miterlimit:4;stroke-opacity:1;stroke-dasharray:none;stroke-dashoffset:0"
       d="m 230,957.36085 44,0"
       id="path3095"
       inkscape:connector-curvature="0" />
    <path
       sodipodi:nodetypes="cc"
       inkscape:connector-curvature="0"
       id="path3097"
       d="m 230,967.36085 42,0"
       style="fill:none;stroke:#000000;stroke-width:0.99212599;stroke-linecap:square;stroke-linejoin:round;stroke-miterlimit:4;stroke-opacity:1;stroke-dasharray:none;stroke-dashoffset:0" />
    <path
       style="fill:none;stroke:#000000;stroke-width:0.99212599;stroke-linecap:square;stroke-linejoin:round;stroke-miterlimit:4;stroke-opacity:1;stroke-dasharray:none;stroke-dashoffset:0"
       d="m 125,897.36085 29,0"
       id="path3879"
       inkscape:connector-curvature="0"
       sodipodi:nodetypes="cc" />
    <path
       sodipodi:nodetypes="cc"
       inkscape:connector-curvature="0"
       id="path3881"
       d="m 125,912.36085 29,0"
       style="fill:none;stroke:#000000;stroke-width:0.99212599;stroke-linecap:square;stroke-linejoin:round;stroke-miterlimit:4;stroke-opacity:1;stroke-dasharray:none;stroke-dashoffset:0" />
    <path
       style="fill:none;stroke:#000000;stroke-width:0.99212599;stroke-linecap:square;stroke-linejoin:round;stroke-miterlimit:4;stroke-opacity:1;stroke-dasharray:none;stroke-dashoffset:0"
       d="m 125,927.36085 29,0"
       id="path3883"
       inkscape:connector-curvature="0"
       sodipodi:nodetypes="cc" />
    <path
       style="fill:none;stroke:#000000;stroke-width:0.99212599;stroke-linecap:square;stroke-linejoin:round;stroke-miterlimit:4;stroke-opacity:1;stroke-dasharray:none;stroke-dashoffset:0"
       d="m 310,952.36085 29,0"
       id="path3885"
       inkscape:connector-curvature="0"
       sodipodi:nodetypes="cc" />
    <text
       transform="translate(0,698.03016)"
       sodipodi:linespacing="150%"
       id="text3887"
       y="250.89732"
       x="216.96629"
       style="font-size:12px;font-style:normal;font-variant:normal;font-weight:normal;font-stretch:normal;text-align:start;line-height:150%;letter-spacing:0px;word-spacing:0px;text-anchor:start;fill:#000000;fill-opacity:1;stroke:none;font-family:LMRoman12;-inkscape-font-specification:Sans"
       xml:space="preserve"><tspan
         y="250.89732"
         x="216.96629"
         id="tspan3889"
         sodipodi:role="line" /></text>
    <g
       style="font-style:normal;font-variant:normal;font-weight:normal;font-stretch:normal;letter-spacing:normal;word-spacing:normal;text-anchor:start;fill:none;stroke:#000000;stroke-width:1;stroke-linecap:butt;stroke-linejoin:miter;stroke-miterlimit:10.43299961;stroke-opacity:1;stroke-dasharray:none;stroke-dashoffset:0"
       ns0:preamble="/home/sriranga/Desktop/Prism_BasicElectronics/preamble.tex"
       ns0:text="$a$"
       word-spacing="normal"
       letter-spacing="normal"
       font-size-adjust="none"
       font-stretch="normal"
       font-weight="normal"
       font-variant="normal"
       font-style="normal"
       stroke-miterlimit="10.433"
       xml:space="preserve"
       transform="matrix(1.2,0,0,-1.2,-46.701181,1798.4797)"
       id="content"><path
         id="path4009"
         d="m 228.05,708.22 -0.02,-0.02 -0.01,-0.01 -0.01,-0.01 -0.01,-0.01 -0.02,-0.02 -0.01,-0.01 -0.01,-0.01 -0.01,-0.01 -0.01,-0.01 -0.01,-0.01 -0.01,-0.01 -0.01,0 -0.01,-0.01 0,-0.01 -0.01,-0.01 -0.01,-0.01 -0.01,0 -0.01,-0.01 -0.01,-0.02 -0.01,-0.01 -0.02,-0.01 -0.01,-0.02 -0.01,-0.01 -0.02,-0.02 -0.01,-0.01 c -0.3,-0.31 -0.43,-0.41 -0.52,-0.41 -0.08,0 -0.14,0.06 -0.14,0.13 0,0.2 0.42,1.9 0.89,3.61 0.03,0.1 0.04,0.12 0.06,0.21 l -0.07,0.03 -0.61,-0.07 -0.03,-0.03 -0.11,-0.48 c -0.08,0.37 -0.37,0.58 -0.79,0.58 l 0.06,-0.22 c 0.34,-0.02 0.55,-0.26 0.55,-0.61 0,-0.83 -0.49,-2.01 -1.18,-2.74 -0.24,-0.27 -0.58,-0.44 -0.87,-0.44 -0.34,0 -0.57,0.29 -0.57,0.75 0,0.53 0.38,1.56 0.8,2.17 0.4,0.58 0.87,0.9 1.27,0.87 h 0 l -0.06,0.22 c -1.32,0 -2.85,-1.82 -2.85,-3.39 0,-0.7 0.38,-1.1 1.02,-1.1 0.69,0 1.12,0.32 2,1.56 -0.2,-0.78 -0.23,-0.91 -0.23,-1.15 0,-0.28 0.12,-0.4 0.4,-0.4 0.39,0 0.64,0.18 1.38,1.09 z"
         inkscape:connector-curvature="0"
         style="fill:#000000;stroke-width:0" /></g>    <g
       id="g4251"
       transform="matrix(1.2,0,0,-1.2,-51.489763,1809.537)"
       xml:space="preserve"
       stroke-miterlimit="10.433"
       font-style="normal"
       font-variant="normal"
       font-weight="normal"
       font-stretch="normal"
       font-size-adjust="none"
       letter-spacing="normal"
       word-spacing="normal"
       ns0:text="$b$"
       ns0:preamble="/home/sriranga/Desktop/Prism_BasicElectronics/preamble.tex"
       style="font-style:normal;font-variant:normal;font-weight:normal;font-stretch:normal;letter-spacing:normal;word-spacing:normal;text-anchor:start;fill:none;stroke:#000000;stroke-width:1;stroke-linecap:butt;stroke-linejoin:miter;stroke-miterlimit:10.43299961;stroke-opacity:1;stroke-dasharray:none;stroke-dashoffset:0"><path
         d="m 224.53,713.51 0.02,0 0.03,0 0.03,0 0.02,0 0.02,0 0.03,0 0.02,0 0.02,-0.01 0.02,0 0.02,0 0.02,0 0.02,0 0.02,0 0.02,0 0.02,-0.01 0.01,0 0.02,0 0.02,0 0.01,0 0.02,0 0.01,-0.01 0.01,0 0.02,0 0.01,0 0.01,-0.01 0.01,0 0.02,0 0.02,-0.01 0.02,-0.01 0.02,0 0.01,-0.01 0.01,-0.01 0.01,-0.01 0.01,-0.01 0.01,-0.01 0.01,-0.01 0,-0.01 0.01,-0.02 0,-0.01 0.01,-0.02 0,-0.01 0,-0.02 0,-0.02 0,-0.02 0,-0.02 c 0,-0.08 -0.03,-0.2 -0.09,-0.42 -0.02,-0.07 -0.04,-0.14 -0.05,-0.19 l -0.02,-0.07 -1.35,-4.98 v -0.04 c 0,-0.23 0.77,-0.52 1.32,-0.52 1.51,0 3.16,1.73 3.16,3.29 0,0.7 -0.49,1.2 -1.16,1.2 -0.69,0 -1.21,-0.41 -1.92,-1.5 l 0.17,-0.13 c 0.44,0.76 0.89,1.14 1.37,1.14 h 0 c 0.42,0 0.69,-0.33 0.69,-0.86 0,-0.65 -0.5,-1.71 -1.09,-2.33 -0.37,-0.38 -0.8,-0.59 -1.23,-0.59 -0.3,0 -0.45,0.11 -0.45,0.34 0,0.6 0.3,1.56 0.71,2.3 l -0.17,0.13 c 0.52,1.88 0.59,2.15 1.04,3.85 l -0.05,0.05 c -0.5,-0.09 -0.86,-0.15 -1.52,-0.23 z"
         id="path4253"
         inkscape:connector-curvature="0"
         style="fill:#000000;stroke-width:0" /></g>    <g
       style="font-style:normal;font-variant:normal;font-weight:normal;font-stretch:normal;letter-spacing:normal;word-spacing:normal;text-anchor:start;fill:none;stroke:#000000;stroke-width:1;stroke-linecap:butt;stroke-linejoin:miter;stroke-miterlimit:10.43299961;stroke-opacity:1;stroke-dasharray:none;stroke-dashoffset:0"
       ns0:preamble="/home/sriranga/Desktop/Prism_BasicElectronics/preamble.tex"
       ns0:text="$c$"
       word-spacing="normal"
       letter-spacing="normal"
       font-size-adjust="none"
       font-stretch="normal"
       font-weight="normal"
       font-variant="normal"
       font-style="normal"
       stroke-miterlimit="10.433"
       xml:space="preserve"
       transform="matrix(1.2,0,0,-1.2,-46.352921,1818.0694)"
       id="g4499"><path
         id="path4501"
         d="m 226.91,708.18 -0.05,-0.06 -0.05,-0.05 -0.05,-0.05 -0.04,-0.04 -0.05,-0.05 -0.05,-0.04 -0.04,-0.05 -0.05,-0.04 -0.05,-0.03 -0.04,-0.04 -0.04,-0.03 -0.05,-0.03 -0.04,-0.03 -0.04,-0.03 -0.05,-0.03 -0.04,-0.02 -0.04,-0.03 -0.04,-0.02 -0.05,-0.02 -0.04,-0.02 -0.04,-0.01 -0.04,-0.02 -0.05,-0.01 -0.04,-0.01 -0.04,-0.01 -0.04,-0.01 -0.05,-0.01 -0.04,-0.01 -0.04,0 -0.05,0 -0.04,-0.01 -0.05,0 c -0.57,0 -0.9,0.43 -0.9,1.14 0,0.84 0.34,1.72 0.9,2.31 0.29,0.3 0.69,0.48 1.08,0.48 0.22,0 0.37,-0.08 0.37,-0.2 0,-0.05 -0.02,-0.1 -0.06,-0.19 -0.06,-0.13 -0.09,-0.2 -0.09,-0.29 0,-0.24 0.15,-0.38 0.39,-0.38 0.27,0 0.48,0.2 0.48,0.46 0,0.46 -0.45,0.81 -1.04,0.81 -1.5,0 -2.89,-1.46 -2.89,-3 0,-0.95 0.54,-1.49 1.46,-1.49 0.74,0 1.29,0.3 1.88,1.06 z"
         inkscape:connector-curvature="0"
         style="fill:#000000;stroke-width:0" /></g>    <g
       id="g4768"
       transform="matrix(1.2,0,0,-1.2,-153.22785,1749.568)"
       xml:space="preserve"
       stroke-miterlimit="10.433"
       font-style="normal"
       font-variant="normal"
       font-weight="normal"
       font-stretch="normal"
       font-size-adjust="none"
       letter-spacing="normal"
       word-spacing="normal"
       ns0:text="$d$"
       ns0:preamble="/home/sriranga/Desktop/Prism_BasicElectronics/preamble.tex"
       style="font-style:normal;font-variant:normal;font-weight:normal;font-stretch:normal;letter-spacing:normal;word-spacing:normal;text-anchor:start;fill:none;stroke:#000000;stroke-width:1;stroke-linecap:butt;stroke-linejoin:miter;stroke-miterlimit:10.43299961;stroke-opacity:1;stroke-dasharray:none;stroke-dashoffset:0"><path
         style="fill:#000000;stroke-width:0"
         inkscape:connector-curvature="0"
         d="m 228.04,708.23 -0.03,-0.03 -0.02,-0.03 -0.02,-0.03 -0.03,-0.02 -0.02,-0.03 -0.02,-0.02 -0.02,-0.03 -0.02,-0.02 -0.02,-0.02 -0.02,-0.02 -0.02,-0.03 -0.02,-0.02 -0.02,-0.02 -0.02,-0.02 -0.03,-0.03 -0.03,-0.04 -0.03,-0.03 -0.03,-0.03 -0.03,-0.03 -0.03,-0.02 -0.02,-0.02 -0.03,-0.03 -0.02,-0.02 -0.02,-0.01 -0.02,-0.02 -0.02,-0.01 -0.02,-0.02 -0.01,-0.01 -0.02,-0.01 -0.02,-0.01 -0.01,0 -0.02,-0.01 -0.02,-0.01 -0.01,0 -0.02,0 -0.01,-0.01 -0.02,0 -0.03,0 c -0.1,0 -0.18,0.09 -0.18,0.2 0,0.14 0.32,1.35 0.65,2.44 0.27,0.92 0.48,1.71 0.99,3.7 l -0.05,0.05 c -0.53,-0.11 -0.89,-0.17 -1.53,-0.23 v -0.17 c 0.55,-0.02 0.62,-0.05 0.62,-0.26 0,-0.13 -0.01,-0.18 -0.15,-0.69 l -0.44,-1.63 c -0.08,0.42 -0.26,0.58 -0.64,0.58 l 0.04,-0.23 c 0.29,-0.02 0.44,-0.21 0.44,-0.57 0,-1.51 -1.03,-3.22 -1.95,-3.22 -0.33,0 -0.57,0.27 -0.57,0.66 0,0.82 0.49,1.97 1.15,2.67 0.28,0.29 0.65,0.48 0.93,0.46 h 0 l -0.04,0.23 c -1.3,0 -2.91,-1.87 -2.91,-3.36 0,-0.71 0.4,-1.13 1.05,-1.13 0.67,0 1.11,0.31 1.79,1.31 -0.11,-0.51 -0.13,-0.66 -0.13,-0.89 0,-0.27 0.17,-0.44 0.42,-0.44 0.41,0 0.93,0.4 1.45,1.13 z"
         id="path4770" /></g>    <g
       style="font-style:normal;font-variant:normal;font-weight:normal;font-stretch:normal;letter-spacing:normal;word-spacing:normal;text-anchor:start;fill:none;stroke:#000000;stroke-width:1;stroke-linecap:butt;stroke-linejoin:miter;stroke-miterlimit:10.43299961;stroke-opacity:1;stroke-dasharray:none;stroke-dashoffset:0"
       ns0:preamble="/home/sriranga/Desktop/Prism_BasicElectronics/preamble.tex"
       ns0:text="$e$"
       text-anchor="start"
       word-spacing="normal"
       letter-spacing="normal"
       font-size-adjust="none"
       font-stretch="normal"
       font-weight="normal"
       font-variant="normal"
       font-style="normal"
       fill-opacity="1"
       fill-rule="evenodd"
       fill="none"
       stroke-opacity="1"
       stroke-dashoffset="0"
       stroke-dasharray="none"
       stroke-miterlimit="10.433"
       stroke-linejoin="miter"
       stroke-linecap="butt"
       stroke="black"
       xml:space="preserve"
       transform="matrix(1.2,0,0,-1.2,-153.22785,1763.8509)"
       id="g5024"><path
         id="path5026"
         fill="black"
         stroke-width="0"
         d="M226.99,708.21 L226.93,708.15 L226.86,708.1 L226.8,708.05 L226.74,708.01 L226.69,707.96 L226.63,707.92 L226.58,707.88 L226.52,707.84 L226.47,707.81 L226.43,707.78 L226.38,707.74 L226.33,707.71 L226.29,707.69 L226.24,707.66 L226.2,707.64 L226.16,707.62 L226.12,707.6 L226.08,707.58 L226.04,707.56 L226,707.54 L225.96,707.53 L225.92,707.52 L225.89,707.51 L225.85,707.5 L225.81,707.49 L225.77,707.48 L225.73,707.48 L225.7,707.47 L225.62,707.46 L225.54,707.46 C224.97,707.46,224.61,707.82,224.61,708.36 C224.61,708.51,224.63,708.66,224.71,708.97 L224.77,709.19 L224.94,709.63 C225.28,710.51,226.02,711.28,226.53,711.28 C226.74,711.28,226.87,711.12,226.87,710.89 C226.87,710.58,226.68,710.22,226.38,709.93 C226.01,709.58,225.63,709.4,224.77,709.19 L224.71,708.97 L224.98,709.01 C226.48,709.22,227.53,709.98,227.53,710.83 C227.53,711.25,227.23,711.51,226.74,711.51 C225.3,711.51,223.74,709.87,223.74,708.38 C223.74,707.57,224.28,707.02,225.05,707.02 C225.76,707.02,226.53,707.42,227.11,708.09 Z " /></g>    <g
       id="g5284"
       transform="matrix(1.2,0,0,-1.2,-153.22785,1778.3801)"
       xml:space="preserve"
       stroke="black"
       stroke-linecap="butt"
       stroke-linejoin="miter"
       stroke-miterlimit="10.433"
       stroke-dasharray="none"
       stroke-dashoffset="0"
       stroke-opacity="1"
       fill="none"
       fill-rule="evenodd"
       fill-opacity="1"
       font-style="normal"
       font-variant="normal"
       font-weight="normal"
       font-stretch="normal"
       font-size-adjust="none"
       letter-spacing="normal"
       word-spacing="normal"
       text-anchor="start"
       ns0:text="$f$"
       ns0:preamble="/home/sriranga/Desktop/Prism_BasicElectronics/preamble.tex"
       style="font-style:normal;font-variant:normal;font-weight:normal;font-stretch:normal;letter-spacing:normal;word-spacing:normal;text-anchor:start;fill:none;stroke:#000000;stroke-width:1;stroke-linecap:butt;stroke-linejoin:miter;stroke-miterlimit:10.43299961;stroke-opacity:1;stroke-dasharray:none;stroke-dashoffset:0"><path
         d="M225.27,711.06 H226.17 L225.29,706.89 C225.07,705.82,224.75,705.28,224.33,705.28 C224.21,705.28,224.13,705.35,224.13,705.44 C224.13,705.47,224.14,705.5,224.17,705.55 C224.21,705.6,224.22,705.65,224.22,705.7 C224.22,705.91,224.04,706.08,223.83,706.08 C223.62,706.08,223.46,705.9,223.46,705.67 C223.46,705.34,223.81,705.07,224.25,705.07 C225.13,705.07,225.83,706.05,226.24,707.88 L226.96,711.06 H228.04 L228.1,711.38 H227.02 C227.31,712.94,227.68,713.64,228.24,713.64 C228.37,713.64,228.46,713.59,228.46,713.52 C228.46,713.49,228.45,713.47,228.42,713.42 C228.38,713.33,228.36,713.28,228.36,713.21 C228.36,712.98,228.51,712.82,228.73,712.82 C228.96,712.82,229.15,713,229.15,713.21 C229.15,713.58,228.78,713.86,228.29,713.86 C227.8,713.86,227.41,713.64,227.05,713.17 C226.76,712.79,226.56,712.33,226.26,711.38 H225.34 Z "
         stroke-width="0"
         fill="black"
         id="path5286" /></g>    <g
       style="font-style:normal;font-variant:normal;font-weight:normal;font-stretch:normal;letter-spacing:normal;word-spacing:normal;text-anchor:start;fill:none;stroke:#000000;stroke-width:1;stroke-linecap:butt;stroke-linejoin:miter;stroke-miterlimit:10.43299961;stroke-opacity:1;stroke-dasharray:none;stroke-dashoffset:0"
       ns0:preamble="/home/sriranga/Desktop/Prism_BasicElectronics/preamble.tex"
       ns0:text="$f$"
       word-spacing="normal"
       letter-spacing="normal"
       font-size-adjust="none"
       font-stretch="normal"
       font-weight="normal"
       font-variant="normal"
       font-style="normal"
       stroke-miterlimit="10.433"
       xml:space="preserve"
       transform="matrix(1.2,0,0,-1.2,74.68334,1804.114)"
       id="g5468"><path
         id="path5470"
         d="m 225.27,711.06 h 0.9 l -0.88,-4.17 c -0.22,-1.07 -0.54,-1.61 -0.96,-1.61 -0.12,0 -0.2,0.07 -0.2,0.16 0,0.03 0.01,0.06 0.04,0.11 0.04,0.05 0.05,0.1 0.05,0.15 0,0.21 -0.18,0.38 -0.39,0.38 -0.21,0 -0.37,-0.18 -0.37,-0.41 0,-0.33 0.35,-0.6 0.79,-0.6 0.88,0 1.58,0.98 1.99,2.81 l 0.72,3.18 h 1.08 l 0.06,0.32 h -1.08 c 0.29,1.56 0.66,2.26 1.22,2.26 0.13,0 0.22,-0.05 0.22,-0.12 0,-0.03 -0.01,-0.05 -0.04,-0.1 -0.04,-0.09 -0.06,-0.14 -0.06,-0.21 0,-0.23 0.15,-0.39 0.37,-0.39 0.23,0 0.42,0.18 0.42,0.39 0,0.37 -0.37,0.65 -0.86,0.65 -0.49,0 -0.88,-0.22 -1.24,-0.69 -0.29,-0.38 -0.49,-0.84 -0.79,-1.79 h -0.92 z"
         inkscape:connector-curvature="0"
         style="fill:#000000;stroke-width:0" /></g>  </g>
</svg>
