<?xml version="1.0" encoding="UTF-8" standalone="no"?>
<!-- Created with Inkscape (http://www.inkscape.org/) -->

<svg
   xmlns:ns0="http://www.iki.fi/pav/software/textext/"
   xmlns:dc="http://purl.org/dc/elements/1.1/"
   xmlns:cc="http://creativecommons.org/ns#"
   xmlns:rdf="http://www.w3.org/1999/02/22-rdf-syntax-ns#"
   xmlns:svg="http://www.w3.org/2000/svg"
   xmlns="http://www.w3.org/2000/svg"
   xmlns:sodipodi="http://sodipodi.sourceforge.net/DTD/sodipodi-0.dtd"
   xmlns:inkscape="http://www.inkscape.org/namespaces/inkscape"
   sodipodi:docname="figS9.eps"
   inkscape:version="0.48.4 r9939"
   version="1.1"
   id="svg2"
   height="354.33069"
   width="496.06299">
  <sodipodi:namedview
     id="base"
     pagecolor="#ffffff"
     bordercolor="#666666"
     borderopacity="1.0"
     inkscape:pageopacity="0.0"
     inkscape:pageshadow="2"
     inkscape:zoom="1.6848668"
     inkscape:cx="248.03149"
     inkscape:cy="177.16534"
     inkscape:document-units="cm"
     inkscape:current-layer="layer1"
     showgrid="false"
     units="cm"
     inkscape:object-nodes="true"
     inkscape:window-width="1366"
     inkscape:window-height="744"
     inkscape:window-x="0"
     inkscape:window-y="24"
     inkscape:window-maximized="1">
    <inkscape:grid
       type="xygrid"
       id="grid2985"
       empspacing="5"
       visible="true"
       enabled="true"
       snapvisiblegridlinesonly="true" />
  </sodipodi:namedview>
  <defs
     id="defs4">
    <marker
       inkscape:stockid="Arrow1Mstart"
       orient="auto"
       refY="0"
       refX="0"
       id="Arrow1Mstart"
       style="overflow:visible">
      <path
         inkscape:connector-curvature="0"
         id="path3775"
         d="M 0,0 5,-5 -12.5,0 5,5 0,0 z"
         style="fill-rule:evenodd;stroke:#000000;stroke-width:1pt"
         transform="matrix(0.4,0,0,0.4,4,0)" />
    </marker>
    <marker
       inkscape:stockid="Arrow1Mend"
       orient="auto"
       refY="0"
       refX="0"
       id="Arrow1Mend"
       style="overflow:visible">
      <path
         inkscape:connector-curvature="0"
         id="path3778"
         d="M 0,0 5,-5 -12.5,0 5,5 0,0 z"
         style="fill-rule:evenodd;stroke:#000000;stroke-width:1pt"
         transform="matrix(-0.4,0,0,-0.4,-4,0)" />
    </marker>
  </defs>
  <metadata
     id="metadata7">
    <rdf:RDF>
      <cc:Work
         rdf:about="">
        <dc:format>image/svg+xml</dc:format>
        <dc:type
           rdf:resource="http://purl.org/dc/dcmitype/StillImage" />
        <dc:title></dc:title>
      </cc:Work>
    </rdf:RDF>
  </metadata>
  <g
     inkscape:label="Layer 1"
     inkscape:groupmode="layer"
     id="layer1"
     transform="translate(0,-698.03016)">
    <path
       sodipodi:nodetypes="ccccc"
       inkscape:connector-curvature="0"
       id="rect5801"
       d="m 90.000004,932.36085 19.999996,0 c 26.66667,-2e-5 26.66667,39.99998 0,39.99998 l -19.999996,0 z"
       style="fill:none;stroke:#000000;stroke-width:1.20000005;stroke-linecap:round;stroke-linejoin:round;stroke-miterlimit:4;stroke-opacity:1;stroke-dasharray:none;stroke-dashoffset:0" />
    <text
       transform="translate(0,698.03016)"
       sodipodi:linespacing="100%"
       id="text5818"
       y="56.040417"
       x="61.700558"
       style="font-size:12px;font-style:normal;font-variant:normal;font-weight:normal;font-stretch:normal;text-align:start;line-height:100%;letter-spacing:0px;word-spacing:0px;text-anchor:start;fill:#000000;fill-opacity:1;stroke:none;font-family:LMRoman12;-inkscape-font-specification:Sans"
       xml:space="preserve"><tspan
         y="56.040417"
         x="61.700558"
         id="tspan5820"
         sodipodi:role="line" /></text>
    <flowRoot
       xml:space="preserve"
       id="flowRoot6377"
       style="fill:black;stroke:none;stroke-opacity:1;stroke-width:1px;stroke-linejoin:miter;stroke-linecap:butt;fill-opacity:1;font-family:LMRoman12;font-style:normal;font-weight:normal;font-size:12px;line-height:100%;letter-spacing:0px;word-spacing:0px;-inkscape-font-specification:Sans;font-stretch:normal;font-variant:normal;text-anchor:start;text-align:start"><flowRegion
         id="flowRegion6379"><rect
           id="rect6381"
           width="27.681772"
           height="40.319103"
           x="219.34796"
           y="87.141403" /></flowRegion><flowPara
         id="flowPara6383" /></flowRoot>    <text
       xml:space="preserve"
       style="font-size:12px;font-style:normal;font-variant:normal;font-weight:normal;font-stretch:normal;text-align:start;line-height:50%;letter-spacing:0px;word-spacing:0px;text-anchor:start;fill:#000000;fill-opacity:1;stroke:none;font-family:LMRoman12;-inkscape-font-specification:Sans"
       x="275.91507"
       y="55.247185"
       id="text6385"
       sodipodi:linespacing="50%"
       transform="translate(0,698.03016)"><tspan
         sodipodi:role="line"
         id="tspan6387" /></text>
    <text
       xml:space="preserve"
       style="font-size:12px;font-style:normal;font-variant:normal;font-weight:normal;font-stretch:normal;text-align:start;line-height:100%;letter-spacing:0px;word-spacing:0px;text-anchor:start;fill:#000000;fill-opacity:1;stroke:none;font-family:LMRoman12;-inkscape-font-specification:Sans"
       x="348.65417"
       y="194.38702"
       id="text3884"
       sodipodi:linespacing="100%"
       transform="translate(0,698.03016)"><tspan
         sodipodi:role="line"
         x="348.65417"
         y="194.38702"
         id="tspan3890" /></text>
    <text
       xml:space="preserve"
       style="font-size:12px;font-style:normal;font-variant:normal;font-weight:normal;font-stretch:normal;text-align:start;line-height:150%;letter-spacing:0px;word-spacing:0px;text-anchor:start;fill:#000000;fill-opacity:1;stroke:none;font-family:LMRoman12;-inkscape-font-specification:Sans"
       x="216.96629"
       y="250.89732"
       id="text3887"
       sodipodi:linespacing="150%"
       transform="translate(0,698.03016)"><tspan
         sodipodi:role="line"
         id="tspan3889"
         x="216.96629"
         y="250.89732" /></text>
    <path
       sodipodi:nodetypes="cccc"
       inkscape:connector-curvature="0"
       id="path3516"
       d="m 135,952.36082 40.81291,0 0,-45 34.18709,0"
       style="fill:none;stroke:#000000;stroke-width:0.99212593;stroke-linecap:square;stroke-linejoin:round;stroke-miterlimit:4;stroke-opacity:1;stroke-dasharray:none;stroke-dashoffset:0" />
    <path
       transform="matrix(1.8641214,0,0,1.8641214,-126.92844,804.50561)"
       d="m 142.10235,79.330688 c 0,1.161094 -0.94126,2.102346 -2.10235,2.102346 -1.16109,0 -2.10235,-0.941252 -2.10235,-2.102346 0,-1.161093 0.94126,-2.102345 2.10235,-2.102345 1.16109,0 2.10235,0.941252 2.10235,2.102345 z"
       sodipodi:ry="2.1023455"
       sodipodi:rx="2.1023455"
       sodipodi:cy="79.330688"
       sodipodi:cx="140"
       id="path3025"
       style="fill:#ffffff;stroke:#000000;stroke-width:0.4291566;stroke-linecap:square;stroke-linejoin:round;stroke-miterlimit:4;stroke-opacity:1;stroke-dasharray:none;stroke-dashoffset:0"
       sodipodi:type="arc" />
    <path
       style="fill:none;stroke:#000000;stroke-width:1.20000005;stroke-linecap:round;stroke-linejoin:round;stroke-miterlimit:4;stroke-opacity:1;stroke-dasharray:none;stroke-dashoffset:0"
       d="m 90.000004,872.36084 19.999996,0 c 26.66667,-2e-5 26.66667,39.99998 0,39.99998 l -19.999996,0 z"
       id="path3026"
       inkscape:connector-curvature="0"
       sodipodi:nodetypes="ccccc" />
    <path
       sodipodi:type="arc"
       style="fill:#ffffff;stroke:#000000;stroke-width:0.4291566;stroke-linecap:square;stroke-linejoin:round;stroke-miterlimit:4;stroke-opacity:1;stroke-dasharray:none;stroke-dashoffset:0"
       id="path3028"
       sodipodi:cx="140"
       sodipodi:cy="79.330688"
       sodipodi:rx="2.1023455"
       sodipodi:ry="2.1023455"
       d="m 142.10235,79.330688 c 0,1.161094 -0.94126,2.102346 -2.10235,2.102346 -1.16109,0 -2.10235,-0.941252 -2.10235,-2.102346 0,-1.161093 0.94126,-2.102345 2.10235,-2.102345 1.16109,0 2.10235,0.941252 2.10235,2.102345 z"
       transform="matrix(1.8641214,0,0,1.8641214,-126.92844,744.5056)" />
    <path
       sodipodi:nodetypes="cc"
       inkscape:connector-curvature="0"
       id="path3032"
       d="m 138.13633,892.38763 71.86366,0"
       style="fill:none;stroke:#000000;stroke-width:0.99212587;stroke-linecap:square;stroke-linejoin:round;stroke-miterlimit:4;stroke-opacity:1;stroke-dasharray:none;stroke-dashoffset:0" />
    <path
       style="fill:none;stroke:#000000;stroke-width:0.99212593;stroke-linecap:square;stroke-linejoin:round;stroke-miterlimit:4;stroke-opacity:1;stroke-dasharray:none;stroke-dashoffset:0"
       d="m 45.972189,832.36082 129.840721,0 0,45 34.18709,0"
       id="path3059"
       inkscape:connector-curvature="0"
       sodipodi:nodetypes="cccc" />
    <path
       sodipodi:nodetypes="ccccc"
       inkscape:connector-curvature="0"
       id="path3046"
       d="m 210,872.36084 20,0 c 26.66667,-2e-5 26.66667,39.99998 0,39.99998 l -20,0 z"
       style="fill:none;stroke:#000000;stroke-width:1.20000005;stroke-linecap:round;stroke-linejoin:round;stroke-miterlimit:4;stroke-opacity:1;stroke-dasharray:none;stroke-dashoffset:0" />
    <path
       transform="matrix(1.8641214,0,0,1.8641214,-6.9284363,744.5056)"
       d="m 142.10235,79.330688 c 0,1.161094 -0.94126,2.102346 -2.10235,2.102346 -1.16109,0 -2.10235,-0.941252 -2.10235,-2.102346 0,-1.161093 0.94126,-2.102345 2.10235,-2.102345 1.16109,0 2.10235,0.941252 2.10235,2.102345 z"
       sodipodi:ry="2.1023455"
       sodipodi:rx="2.1023455"
       sodipodi:cy="79.330688"
       sodipodi:cx="140"
       id="path3048"
       style="fill:#ffffff;stroke:#000000;stroke-width:0.4291566;stroke-linecap:square;stroke-linejoin:round;stroke-miterlimit:4;stroke-opacity:1;stroke-dasharray:none;stroke-dashoffset:0"
       sodipodi:type="arc" />
    <path
       style="fill:none;stroke:#000000;stroke-width:0.99212593;stroke-linecap:square;stroke-linejoin:round;stroke-miterlimit:4;stroke-opacity:1;stroke-dasharray:none;stroke-dashoffset:0"
       d="m 258.13634,892.38763 30.81291,0"
       id="path3050"
       inkscape:connector-curvature="0"
       sodipodi:nodetypes="cc" />
    <path
       sodipodi:nodetypes="cc"
       inkscape:connector-curvature="0"
       id="path3061"
       d="m 45.000004,902.36082 45,0"
       style="fill:none;stroke:#000000;stroke-width:0.99212599;stroke-linecap:square;stroke-linejoin:round;stroke-miterlimit:4;stroke-opacity:1;stroke-dasharray:none;stroke-dashoffset:0" />
    <path
       style="fill:none;stroke:#000000;stroke-width:0.99212599;stroke-linecap:square;stroke-linejoin:round;stroke-miterlimit:4;stroke-opacity:1;stroke-dasharray:none;stroke-dashoffset:0"
       d="m 45.000004,882.36082 45,0"
       id="path3063"
       inkscape:connector-curvature="0"
       sodipodi:nodetypes="cc" />
    <g
       style="font-style:normal;font-variant:normal;font-weight:normal;font-stretch:normal;letter-spacing:normal;word-spacing:normal;text-anchor:start;fill:none;stroke:#000000;stroke-width:1;stroke-linecap:butt;stroke-linejoin:miter;stroke-miterlimit:10.43299961;stroke-opacity:1;stroke-dasharray:none;stroke-dashoffset:0"
       ns0:preamble="/home/sriranga/Desktop/Prism_BasicElectronics/preamble.tex"
       ns0:text="$F_1$"
       text-anchor="start"
       word-spacing="normal"
       letter-spacing="normal"
       font-size-adjust="none"
       font-stretch="normal"
       font-weight="normal"
       font-variant="normal"
       font-style="normal"
       fill-opacity="1"
       fill-rule="evenodd"
       fill="none"
       stroke-opacity="1"
       stroke-dashoffset="0"
       stroke-dasharray="none"
       stroke-miterlimit="10.433"
       stroke-linejoin="miter"
       stroke-linecap="butt"
       stroke="black"
       xml:space="preserve"
       transform="matrix(1.2,0,0,-1.2,24.460624,1744.6769)"
       id="g5242"><path
         id="path5244"
         fill="black"
         stroke-width="0"
         d="M230.1,713.61 H225.14 V713.45 C225.79,713.39,225.91,713.33,225.91,713.05 C225.91,712.9,225.87,712.65,225.8,712.41 L224.58,708.02 C224.4,707.42,224.33,707.36,223.76,707.28 V707.12 H226.27 V707.28 C225.69,707.31,225.51,707.42,225.51,707.72 C225.51,707.8,225.54,707.95,225.6,708.17 L226.22,710.38 C226.59,710.36,226.8,710.35,227.02,710.35 C227.41,710.35,227.48,710.34,227.57,710.3 C227.72,710.22,227.79,710.09,227.79,709.9 C227.79,709.74,227.77,709.62,227.71,709.31 L227.88,709.26 L228.64,711.59 L228.46,711.64 C228.01,710.74,227.98,710.73,226.31,710.71 L226.96,713.03 C227.02,713.22,227.16,713.28,227.57,713.28 C229.24,713.28,229.6,713.16,229.6,712.54 C229.6,712.48,229.6,712.43,229.59,712.3 C229.58,712.24,229.58,712.23,229.57,712.11 L229.78,712.09 Z " /><path
         id="path5246"
         fill="black"
         stroke-width="0"
         d="M232.04,710.33 L230.79,709.7 V709.6 C230.87,709.64,230.95,709.66,230.98,709.68 C231.1,709.73,231.22,709.76,231.29,709.76 C231.44,709.76,231.5,709.65,231.5,709.43 V706.28 C231.5,706.05,231.45,705.89,231.33,705.83 C231.23,705.76,231.13,705.74,230.84,705.73 V705.63 H232.76 V705.73 C232.21,705.74,232.1,705.81,232.1,706.15 V710.32 Z " /></g>    <g
       id="g5349"
       transform="matrix(1.2,0,0,-1.2,-236.06935,1687.7394)"
       xml:space="preserve"
       stroke="black"
       stroke-linecap="butt"
       stroke-linejoin="miter"
       stroke-miterlimit="10.433"
       stroke-dasharray="none"
       stroke-dashoffset="0"
       stroke-opacity="1"
       fill="none"
       fill-rule="evenodd"
       fill-opacity="1"
       font-style="normal"
       font-variant="normal"
       font-weight="normal"
       font-stretch="normal"
       font-size-adjust="none"
       letter-spacing="normal"
       word-spacing="normal"
       text-anchor="start"
       ns0:text="$\\overline{A}$"
       ns0:preamble="/home/sriranga/Desktop/Prism_BasicElectronics/preamble.tex"
       style="font-style:normal;font-variant:normal;font-weight:normal;font-stretch:normal;letter-spacing:normal;word-spacing:normal;text-anchor:start;fill:none;stroke:#000000;stroke-width:1;stroke-linecap:butt;stroke-linejoin:miter;stroke-miterlimit:10.43299961;stroke-opacity:1;stroke-dasharray:none;stroke-dashoffset:0"><line
         x1="223.43"
         y1="715.59"
         x2="229.77"
         y2="715.59"
         stroke-width="0.558"
         id="line5351" /><path
         d="M229.29,707.28 L229.24,707.29 L229.19,707.29 L229.15,707.3 L229.1,707.31 L229.06,707.31 L229.02,707.32 L228.99,707.33 L228.95,707.34 L228.92,707.35 L228.89,707.36 L228.86,707.37 L228.84,707.39 L228.81,707.4 L228.79,707.42 L228.77,707.44 L228.75,707.46 L228.73,707.48 L228.71,707.51 L228.7,707.53 L228.68,707.56 L228.67,707.59 L228.65,707.63 L228.64,707.67 L228.63,707.71 L228.62,707.75 L228.61,707.79 L228.59,707.84 L228.58,707.9 L228.58,707.92 L228.57,707.95 L228.57,707.98 L228.56,708.01 L228.55,708.04 L228.55,708.07 L228.54,708.1 L228.54,708.14 L227.6,713.76 H227.34 L224.46,708.79 C223.67,707.47,223.57,707.36,223.17,707.28 V707.12 H225.03 V707.28 C224.53,707.33,224.45,707.38,224.45,707.63 C224.45,707.82,224.48,707.91,224.65,708.25 L225.21,709.37 H227.4 L227.35,709.73 H225.42 L226.91,712.31 L227.35,709.73 L227.4,709.37 L227.6,708.07 C227.61,707.98,227.62,707.89,227.62,707.81 C227.62,707.43,227.48,707.34,226.85,707.28 V707.12 H229.29 Z "
         stroke-width="0"
         fill="black"
         id="path5353" /></g>    <g
       style="font-style:normal;font-variant:normal;font-weight:normal;font-stretch:normal;letter-spacing:normal;word-spacing:normal;text-anchor:start;fill:none;stroke:#000000;stroke-width:1;stroke-linecap:butt;stroke-linejoin:miter;stroke-miterlimit:10.43299961;stroke-opacity:1;stroke-dasharray:none;stroke-dashoffset:0"
       ns0:preamble="/home/sriranga/Desktop/Prism_BasicElectronics/preamble.tex"
       ns0:text="$C$"
       text-anchor="start"
       word-spacing="normal"
       letter-spacing="normal"
       font-size-adjust="none"
       font-stretch="normal"
       font-weight="normal"
       font-variant="normal"
       font-style="normal"
       fill-opacity="1"
       fill-rule="evenodd"
       fill="none"
       stroke-opacity="1"
       stroke-dashoffset="0"
       stroke-dasharray="none"
       stroke-miterlimit="10.433"
       stroke-linejoin="miter"
       stroke-linecap="butt"
       stroke="black"
       xml:space="preserve"
       transform="matrix(1.2,0,0,-1.2,-235.38584,1733.6255)"
       id="g5449"><path
         id="path5451"
         fill="black"
         stroke-width="0"
         d="M229.67,711.74 L230.04,713.72 H229.83 C229.75,713.56,229.65,713.5,229.45,713.5 C229.37,713.5,229.25,713.52,229.04,713.57 C228.6,713.68,228.2,713.74,227.88,713.74 C225.76,713.74,223.84,711.74,223.84,709.54 C223.84,708.02,224.91,706.95,226.44,706.95 C227.46,706.95,228.26,707.38,229.15,708.43 L228.98,708.57 C228.09,707.69,227.51,707.39,226.7,707.39 C225.59,707.39,224.95,708.15,224.95,709.43 C224.95,710.61,225.43,711.81,226.21,712.62 C226.68,713.1,227.31,713.38,227.97,713.38 C228.88,713.38,229.39,712.85,229.49,711.77 Z " /></g>    <g
       id="g5546"
       transform="matrix(1.2,0,0,-1.2,-236.57288,1753.5084)"
       xml:space="preserve"
       stroke="black"
       stroke-linecap="butt"
       stroke-linejoin="miter"
       stroke-miterlimit="10.433"
       stroke-dasharray="none"
       stroke-dashoffset="0"
       stroke-opacity="1"
       fill="none"
       fill-rule="evenodd"
       fill-opacity="1"
       font-style="normal"
       font-variant="normal"
       font-weight="normal"
       font-stretch="normal"
       font-size-adjust="none"
       letter-spacing="normal"
       word-spacing="normal"
       text-anchor="start"
       ns0:text="$D\'$"
       ns0:preamble="/home/sriranga/Desktop/Prism_BasicElectronics/preamble.tex"
       style="font-style:normal;font-variant:normal;font-weight:normal;font-stretch:normal;letter-spacing:normal;word-spacing:normal;text-anchor:start;fill:none;stroke:#000000;stroke-width:1;stroke-linecap:butt;stroke-linejoin:miter;stroke-miterlimit:10.43299961;stroke-opacity:1;stroke-dasharray:none;stroke-dashoffset:0"><path
         d="M224.97,713.45 L225,713.45 L225.03,713.45 L225.06,713.44 L225.08,713.44 L225.11,713.44 L225.14,713.44 L225.18,713.43 L225.23,713.42 L225.27,713.42 L225.32,713.41 L225.35,713.4 L225.39,713.39 L225.43,713.39 L225.46,713.38 L225.49,713.37 L225.52,713.36 L225.54,713.35 L225.57,713.34 L225.59,713.33 L225.61,713.32 L225.63,713.3 L225.64,713.29 L225.66,713.28 L225.67,713.26 L225.69,713.25 L225.7,713.23 L225.71,713.21 L225.72,713.2 L225.72,713.18 L225.73,713.16 L225.73,713.14 L225.74,713.12 L225.74,713.09 L225.74,713.07 L225.74,713.05 C225.74,712.9,225.7,712.66,225.63,712.41 L224.41,708.02 C224.23,707.44,224.16,707.38,223.6,707.28 V707.12 H226.12 L226.02,707.42 C225.56,707.42,225.37,707.53,225.37,707.79 C225.37,707.92,225.42,708.14,225.59,708.73 L226.79,713.03 C226.85,713.24,227,713.31,227.4,713.31 C227.97,713.31,228.47,713.18,228.79,712.95 C229.27,712.59,229.54,711.96,229.54,711.18 C229.54,710.1,229.12,708.99,228.45,708.32 C227.86,707.72,227.05,707.42,226.02,707.42 L226.12,707.12 C227.28,707.12,228.35,707.43,229.11,707.99 C230.08,708.69,230.65,709.79,230.65,710.94 C230.65,712.57,229.51,713.61,227.74,713.61 H224.97 Z "
         stroke-width="0"
         fill="black"
         id="path5548" /><path
         d="M232.94,713.6 L232.94,713.62 L232.94,713.64 L232.94,713.67 L232.93,713.69 L232.92,713.71 L232.92,713.73 L232.91,713.75 L232.9,713.77 L232.89,713.78 L232.88,713.8 L232.86,713.82 L232.85,713.84 L232.84,713.85 L232.82,713.87 L232.81,713.88 L232.79,713.9 L232.77,713.91 L232.75,713.92 L232.74,713.93 L232.72,713.94 L232.7,713.95 L232.68,713.96 L232.66,713.97 L232.64,713.98 L232.62,713.99 L232.6,713.99 L232.57,714 L232.55,714 L232.53,714.01 L232.51,714.01 L232.49,714.01 L232.47,714.01 C232.21,714.01,232.09,713.76,232.02,713.55 L231.29,711.44 C231.27,711.39,231.22,711.26,231.22,711.2 C231.22,711.14,231.26,711.05,231.33,711.05 C231.44,711.05,231.56,711.2,231.6,711.28 L232.75,713.08 C232.85,713.22,232.94,713.42,232.94,713.6 Z "
         stroke-width="0"
         fill="black"
         id="path5550" /></g>    <path
       style="fill:none;stroke:#000000;stroke-width:0.99212599;stroke-linecap:square;stroke-linejoin:round;stroke-miterlimit:4;stroke-opacity:1;stroke-dasharray:none;stroke-dashoffset:0"
       d="m 45.000004,962.36085 45,0"
       id="path5599"
       inkscape:connector-curvature="0"
       sodipodi:nodetypes="cc" />
    <path
       sodipodi:nodetypes="cc"
       inkscape:connector-curvature="0"
       id="path5601"
       d="m 45.000004,942.36085 45,0"
       style="fill:none;stroke:#000000;stroke-width:0.99212599;stroke-linecap:square;stroke-linejoin:round;stroke-miterlimit:4;stroke-opacity:1;stroke-dasharray:none;stroke-dashoffset:0" />
    <g
       style="font-style:normal;font-variant:normal;font-weight:normal;font-stretch:normal;letter-spacing:normal;word-spacing:normal;text-anchor:start;fill:none;stroke:#000000;stroke-width:1;stroke-linecap:butt;stroke-linejoin:miter;stroke-miterlimit:10.43299961;stroke-opacity:1;stroke-dasharray:none;stroke-dashoffset:0"
       ns0:preamble="/home/sriranga/Desktop/Prism_BasicElectronics/preamble.tex"
       ns0:text="$E\'$"
       word-spacing="normal"
       letter-spacing="normal"
       font-size-adjust="none"
       font-stretch="normal"
       font-weight="normal"
       font-variant="normal"
       font-style="normal"
       stroke-miterlimit="10.433"
       xml:space="preserve"
       transform="matrix(1.2,0,0,-1.2,-237.46316,1813.1569)"
       id="content"><path
         id="path5651"
         d="m 229.99,713.61 h -4.95 v -0.16 c 0.62,-0.06 0.77,-0.14 0.77,-0.4 0,-0.11 -0.06,-0.46 -0.11,-0.64 l -1.22,-4.39 c -0.17,-0.57 -0.25,-0.64 -0.81,-0.74 v -0.16 h 5.04 l 0.62,1.61 -0.16,0.08 c -0.46,-0.63 -0.72,-0.89 -1.15,-1.09 -0.37,-0.17 -1.05,-0.27 -1.79,-0.27 -0.56,0 -0.8,0.1 -0.8,0.34 0,0.11 0.11,0.58 0.36,1.45 0.13,0.44 0.22,0.77 0.32,1.14 0.35,-0.02 0.65,-0.03 0.77,-0.03 0.39,0.01 0.67,-0.05 0.78,-0.15 0.05,-0.04 0.07,-0.13 0.07,-0.3 0,-0.17 -0.02,-0.3 -0.07,-0.52 l 0.2,-0.05 0.68,2.31 -0.18,0.03 c -0.38,-0.84 -0.47,-0.9 -1.38,-0.94 -0.11,0 -0.43,-0.01 -0.78,-0.02 l 0.65,2.32 c 0.06,0.21 0.17,0.25 0.73,0.25 1.56,0 1.91,-0.12 1.91,-0.72 0,-0.13 -0.01,-0.28 -0.02,-0.45 l 0.21,-0.02 z"
         inkscape:connector-curvature="0"
         style="fill:#000000;stroke-width:0" /><path
         id="path5653"
         d="m 232.32,713.6 -0.01,0.02 0,0.02 0,0.03 -0.01,0.02 0,0.02 -0.01,0.02 -0.01,0.02 -0.01,0.02 -0.01,0.01 -0.01,0.02 -0.01,0.02 -0.02,0.02 -0.01,0.01 -0.02,0.02 -0.01,0.01 -0.02,0.02 -0.02,0.01 -0.01,0.01 -0.02,0.01 -0.02,0.01 -0.02,0.01 -0.02,0.01 -0.02,0.01 -0.02,0.01 -0.02,0.01 -0.02,0 -0.02,0.01 -0.02,0 -0.02,0.01 -0.03,0 -0.02,0 -0.02,0 c -0.26,0 -0.38,-0.25 -0.45,-0.46 l -0.73,-2.11 c -0.02,-0.05 -0.06,-0.18 -0.06,-0.24 0,-0.06 0.04,-0.15 0.11,-0.15 0.1,0 0.22,0.15 0.27,0.23 l 1.14,1.8 c 0.1,0.14 0.2,0.34 0.2,0.52 z"
         inkscape:connector-curvature="0"
         style="fill:#000000;stroke-width:0" /></g>    <g
       style="font-style:normal;font-variant:normal;font-weight:normal;font-stretch:normal;letter-spacing:normal;word-spacing:normal;text-anchor:start;fill:none;stroke:#000000;stroke-width:1;stroke-linecap:butt;stroke-linejoin:miter;stroke-miterlimit:10.43299961;stroke-opacity:1;stroke-dasharray:none;stroke-dashoffset:0"
       ns0:preamble="/home/sriranga/Desktop/Prism_BasicElectronics/preamble.tex"
       ns0:text="$D\'$"
       word-spacing="normal"
       letter-spacing="normal"
       font-size-adjust="none"
       font-stretch="normal"
       font-weight="normal"
       font-variant="normal"
       font-style="normal"
       stroke-miterlimit="10.433"
       xml:space="preserve"
       transform="matrix(1.2,0,0,-1.2,-235.6826,1793.5709)"
       id="g5703"><path
         id="path5705"
         d="m 224.97,713.45 0.03,0 0.03,0 0.03,-0.01 0.02,0 0.03,0 0.03,0 0.04,-0.01 0.05,-0.01 0.04,0 0.05,-0.01 0.03,-0.01 0.04,-0.01 0.04,0 0.03,-0.01 0.03,-0.01 0.03,-0.01 0.02,-0.01 0.03,-0.01 0.02,-0.01 0.02,-0.01 0.02,-0.02 0.01,-0.01 0.02,-0.01 0.01,-0.02 0.02,-0.01 0.01,-0.02 0.01,-0.02 0.01,-0.01 0,-0.02 0.01,-0.02 0,-0.02 0.01,-0.02 0,-0.03 0,-0.02 0,-0.02 c 0,-0.15 -0.04,-0.39 -0.11,-0.64 l -1.22,-4.39 c -0.18,-0.58 -0.25,-0.64 -0.81,-0.74 v -0.16 h 2.52 l -0.1,0.3 c -0.46,0 -0.65,0.11 -0.65,0.37 0,0.13 0.05,0.35 0.22,0.94 l 1.2,4.3 c 0.06,0.21 0.21,0.28 0.61,0.28 0.57,0 1.07,-0.13 1.39,-0.36 0.48,-0.36 0.75,-0.99 0.75,-1.77 0,-1.08 -0.42,-2.19 -1.09,-2.86 -0.59,-0.6 -1.4,-0.9 -2.43,-0.9 l 0.1,-0.3 c 1.16,0 2.23,0.31 2.99,0.87 0.97,0.7 1.54,1.8 1.54,2.95 0,1.63 -1.14,2.67 -2.91,2.67 h -2.77 z"
         inkscape:connector-curvature="0"
         style="fill:#000000;stroke-width:0" /><path
         id="path5707"
         d="m 232.94,713.6 0,0.02 0,0.02 0,0.03 -0.01,0.02 -0.01,0.02 0,0.02 -0.01,0.02 -0.01,0.02 -0.01,0.01 -0.01,0.02 -0.02,0.02 -0.01,0.02 -0.01,0.01 -0.02,0.02 -0.01,0.01 -0.02,0.02 -0.02,0.01 -0.02,0.01 -0.01,0.01 -0.02,0.01 -0.02,0.01 -0.02,0.01 -0.02,0.01 -0.02,0.01 -0.02,0.01 -0.02,0 -0.03,0.01 -0.02,0 -0.02,0.01 -0.02,0 -0.02,0 -0.02,0 c -0.26,0 -0.38,-0.25 -0.45,-0.46 l -0.73,-2.11 c -0.02,-0.05 -0.07,-0.18 -0.07,-0.24 0,-0.06 0.04,-0.15 0.11,-0.15 0.11,0 0.23,0.15 0.27,0.23 l 1.15,1.8 c 0.1,0.14 0.19,0.34 0.19,0.52 z"
         inkscape:connector-curvature="0"
         style="fill:#000000;stroke-width:0" /></g>  </g>
</svg>
